<?xml version="1.0" encoding="utf-8"?>
<!-- Generator: Adobe Illustrator 19.0.0, SVG Export Plug-In . SVG Version: 6.00 Build 0)  -->
<svg version="1.1" id="Capa_1" xmlns="http://www.w3.org/2000/svg" xmlns:xlink="http://www.w3.org/1999/xlink" x="0px" y="0px"
	 viewBox="-174 387.8 246 67.1" style="enable-background:new -174 387.8 246 67.1;" xml:space="preserve">
<style type="text/css">
	.st0{fill:#898989;}
	.st1{fill:#E5E5E5;}
	.st2{fill:#0E0E0F;}
	.st3{enable-background:new    ;}
	.st4{clip-path:url(#SVGID_2_);fill:#F9D523;}
	.st5{clip-path:url(#SVGID_4_);}
	.st6{clip-path:url(#SVGID_6_);}
	.st7{clip-path:url(#SVGID_8_);}
	.st8{clip-path:url(#SVGID_10_);}
	.st9{opacity:0.75;fill:#966A14;enable-background:new    ;}
</style>
<g id="XMLID_2_">
	<g id="XMLID_1_">
		<g id="XMLID_11780_">
			<g id="XMLID_11785_">
				<g id="XMLID_23_">
					<polygon id="XMLID_24_" class="st0" points="58,454.9 72,437.2 61.6,395 58,395 					"/>
				</g>
			</g>
			<rect id="XMLID_11784_" x="-174" y="387.8" class="st1" width="246" height="49.4"/>
			<polygon id="XMLID_11781_" class="st2" points="55,437.2 -174,437.2 55,444.2 			"/>
		</g>
		<g id="XMLID_11777_">
			<g class="st3">
				<path d="M-113.5,417.7v-10.7h1.4v10.7H-113.5z"/>
				<path d="M-109.7,417.7v-7.8h1.2v1.1c0.6-0.9,1.4-1.3,2.5-1.3c0.5,0,0.9,0.1,1.3,0.3c0.4,0.2,0.7,0.4,0.9,0.7
					c0.2,0.3,0.3,0.6,0.4,1c0,0.2,0.1,0.7,0.1,1.3v4.8h-1.3v-4.7c0-0.5-0.1-0.9-0.2-1.2c-0.1-0.3-0.3-0.5-0.5-0.6
					c-0.3-0.2-0.6-0.2-0.9-0.2c-0.6,0-1,0.2-1.5,0.5c-0.4,0.4-0.6,1-0.6,2v4.2H-109.7z"/>
				<path d="M-98.5,416.5l0.2,1.2c-0.4,0.1-0.7,0.1-1,0.1c-0.5,0-0.8-0.1-1.1-0.2c-0.3-0.2-0.4-0.3-0.6-0.6
					c-0.1-0.2-0.2-0.8-0.2-1.6v-4.5h-1v-1h1V408l1.3-0.8v2.7h1.3v1h-1.3v4.5c0,0.4,0,0.6,0.1,0.7c0,0.1,0.1,0.2,0.2,0.3
					s0.3,0.1,0.5,0.1C-98.9,416.5-98.7,416.5-98.5,416.5z"/>
				<path d="M-97.2,417.7v-7.8h1.2v1.2c0.3-0.6,0.6-0.9,0.8-1.1c0.3-0.2,0.5-0.3,0.8-0.3c0.4,0,0.9,0.1,1.4,0.4l-0.5,1.2
					c-0.3-0.2-0.6-0.3-1-0.3c-0.3,0-0.5,0.1-0.8,0.3c-0.2,0.2-0.4,0.4-0.5,0.7c-0.1,0.5-0.2,1-0.2,1.5v4.1H-97.2z"/>
				<path d="M-92.7,413.8c0-1.4,0.4-2.5,1.2-3.2c0.7-0.6,1.5-0.9,2.4-0.9c1.1,0,1.9,0.4,2.6,1.1c0.7,0.7,1,1.7,1,2.9
					c0,1-0.1,1.8-0.5,2.4c-0.3,0.6-0.7,1-1.3,1.3c-0.6,0.3-1.2,0.5-1.9,0.5c-1.1,0-2-0.3-2.6-1S-92.7,415.1-92.7,413.8z
					 M-91.3,413.8c0,1,0.2,1.7,0.7,2.2c0.4,0.5,1,0.7,1.6,0.7c0.7,0,1.2-0.2,1.6-0.7s0.7-1.3,0.7-2.3c0-1-0.2-1.7-0.7-2.2
					c-0.4-0.5-1-0.7-1.6-0.7c-0.7,0-1.2,0.2-1.6,0.7S-91.3,412.8-91.3,413.8z"/>
				<path d="M-78.8,417.7v-1c-0.5,0.8-1.2,1.2-2.2,1.2c-0.6,0-1.2-0.2-1.7-0.5c-0.5-0.3-0.9-0.8-1.2-1.4c-0.3-0.6-0.4-1.3-0.4-2.1
					c0-0.8,0.1-1.5,0.4-2.1c0.3-0.6,0.6-1.1,1.2-1.5c0.5-0.3,1.1-0.5,1.7-0.5c0.5,0,0.9,0.1,1.3,0.3c0.4,0.2,0.7,0.5,0.9,0.8v-3.9
					h1.3v10.7H-78.8z M-83,413.8c0,1,0.2,1.7,0.6,2.2c0.4,0.5,0.9,0.7,1.5,0.7c0.6,0,1.1-0.2,1.5-0.7c0.4-0.5,0.6-1.2,0.6-2.2
					c0-1.1-0.2-1.8-0.6-2.3s-0.9-0.7-1.5-0.7c-0.6,0-1.1,0.2-1.5,0.7S-83,412.8-83,413.8z"/>
				<path d="M-70.4,417.7v-1.1c-0.6,0.9-1.4,1.3-2.5,1.3c-0.5,0-0.9-0.1-1.3-0.3c-0.4-0.2-0.7-0.4-0.9-0.7c-0.2-0.3-0.3-0.6-0.4-1
					c-0.1-0.3-0.1-0.7-0.1-1.2v-4.8h1.3v4.3c0,0.7,0,1.2,0.1,1.4c0.1,0.3,0.3,0.6,0.5,0.8c0.3,0.2,0.6,0.3,1,0.3s0.8-0.1,1.1-0.3
					c0.3-0.2,0.6-0.5,0.7-0.8c0.1-0.3,0.2-0.9,0.2-1.5v-4.2h1.3v7.8H-70.4z"/>
				<path d="M-62.1,414.8l1.3,0.2c-0.1,0.9-0.5,1.6-1.1,2.1c-0.6,0.5-1.3,0.8-2.1,0.8c-1.1,0-1.9-0.3-2.6-1c-0.6-0.7-1-1.7-1-3
					c0-0.8,0.1-1.6,0.4-2.2s0.7-1.1,1.3-1.4c0.6-0.3,1.2-0.5,1.9-0.5c0.8,0,1.5,0.2,2.1,0.6c0.5,0.4,0.9,1,1,1.8l-1.3,0.2
					c-0.1-0.5-0.3-0.9-0.6-1.2c-0.3-0.3-0.7-0.4-1.1-0.4c-0.7,0-1.2,0.2-1.6,0.7c-0.4,0.5-0.6,1.2-0.6,2.3c0,1,0.2,1.8,0.6,2.3
					c0.4,0.5,0.9,0.7,1.6,0.7c0.5,0,0.9-0.2,1.3-0.5C-62.4,416-62.2,415.5-62.1,414.8z"/>
				<path d="M-54.6,414.8l1.3,0.2c-0.1,0.9-0.5,1.6-1.1,2.1c-0.6,0.5-1.3,0.8-2.1,0.8c-1.1,0-1.9-0.3-2.6-1c-0.6-0.7-1-1.7-1-3
					c0-0.8,0.1-1.6,0.4-2.2s0.7-1.1,1.3-1.4c0.6-0.3,1.2-0.5,1.9-0.5c0.8,0,1.5,0.2,2.1,0.6c0.5,0.4,0.9,1,1,1.8l-1.3,0.2
					c-0.1-0.5-0.3-0.9-0.6-1.2c-0.3-0.3-0.7-0.4-1.1-0.4c-0.7,0-1.2,0.2-1.6,0.7c-0.4,0.5-0.6,1.2-0.6,2.3c0,1,0.2,1.8,0.6,2.3
					c0.4,0.5,0.9,0.7,1.6,0.7c0.5,0,0.9-0.2,1.3-0.5C-54.9,416-54.7,415.5-54.6,414.8z"/>
				<path d="M-52.2,408.4v-1.5h1.3v1.5H-52.2z M-52.2,417.7v-7.8h1.3v7.8H-52.2z"/>
				<path d="M-49.3,413.8c0-1.4,0.4-2.5,1.2-3.2c0.7-0.6,1.5-0.9,2.4-0.9c1.1,0,1.9,0.4,2.6,1.1c0.7,0.7,1,1.7,1,2.9
					c0,1-0.1,1.8-0.5,2.4c-0.3,0.6-0.7,1-1.3,1.3c-0.6,0.3-1.2,0.5-1.9,0.5c-1.1,0-2-0.3-2.6-1C-49,416.1-49.3,415.1-49.3,413.8z
					 M-48,413.8c0,1,0.2,1.7,0.7,2.2c0.4,0.5,1,0.7,1.6,0.7c0.7,0,1.2-0.2,1.6-0.7s0.7-1.3,0.7-2.3c0-1-0.2-1.7-0.7-2.2
					c-0.4-0.5-1-0.7-1.6-0.7c-0.7,0-1.2,0.2-1.6,0.7S-48,412.8-48,413.8z M-46.4,408.9l1-2.1h1.7l-1.6,2.1H-46.4z"/>
				<path d="M-40.5,417.7v-7.8h1.2v1.1c0.6-0.9,1.4-1.3,2.5-1.3c0.5,0,0.9,0.1,1.3,0.3c0.4,0.2,0.7,0.4,0.9,0.7
					c0.2,0.3,0.3,0.6,0.4,1c0,0.2,0.1,0.7,0.1,1.3v4.8h-1.3v-4.7c0-0.5-0.1-0.9-0.2-1.2c-0.1-0.3-0.3-0.5-0.5-0.6
					c-0.3-0.2-0.6-0.2-0.9-0.2c-0.6,0-1,0.2-1.5,0.5c-0.4,0.4-0.6,1-0.6,2v4.2H-40.5z"/>
			</g>
		</g>
		<g id="XMLID_11117_">
			<g id="XMLID_11145_">
				<g>
					<defs>
						<rect id="SVGID_1_" x="-160.6" y="396.9" width="33.3" height="33.4"/>
					</defs>
					<clipPath id="SVGID_2_">
						<use xlink:href="#SVGID_1_"  style="overflow:visible;"/>
					</clipPath>
					<path id="XMLID_11159_" class="st4" d="M-141.1,420.6c-3.9,1.6-8.4-0.2-10-4.1c-1.6-3.9,0.2-8.4,4.1-10s8.4,0.2,10,4.1
						C-135.3,414.5-137.2,419-141.1,420.6L-141.1,420.6z"/>
				</g>
				<g>
					<defs>
						<rect id="SVGID_3_" x="-160.6" y="396.9" width="33.3" height="33.4"/>
					</defs>
					<clipPath id="SVGID_4_">
						<use xlink:href="#SVGID_3_"  style="overflow:visible;"/>
					</clipPath>
					<path id="XMLID_11156_" class="st5" d="M-144,403.5c0.3,0,0.6-0.3,0.6-0.6V399l1.4,1.4c0.1,0.1,0.3,0.2,0.4,0.2
						c0.2,0,0.3-0.1,0.4-0.2c0.2-0.2,0.2-0.6,0-0.9l-2.4-2.4c-0.2-0.2-0.6-0.2-0.9,0l-2.4,2.4c-0.2,0.2-0.2,0.6,0,0.9
						c0.2,0.2,0.6,0.2,0.9,0l1.4-1.4v3.9C-144.6,403.2-144.3,403.5-144,403.5L-144,403.5z"/>
				</g>
				<g>
					<defs>
						<rect id="SVGID_5_" x="-160.6" y="396.9" width="33.3" height="33.4"/>
					</defs>
					<clipPath id="SVGID_6_">
						<use xlink:href="#SVGID_5_"  style="overflow:visible;"/>
					</clipPath>
					<path id="XMLID_11153_" class="st6" d="M-144,423.6c-0.3,0-0.6,0.3-0.6,0.6v3.9l-1.4-1.4c-0.2-0.2-0.6-0.2-0.9,0
						c-0.2,0.2-0.2,0.6,0,0.9l2.4,2.4c0.1,0.1,0.3,0.2,0.4,0.2c0.2,0,0.3-0.1,0.4-0.2l2.4-2.4c0.2-0.2,0.2-0.6,0-0.9
						c-0.2-0.2-0.6-0.2-0.9,0l-1.4,1.4v-3.9C-143.4,423.8-143.6,423.6-144,423.6L-144,423.6z"/>
				</g>
				<g>
					<defs>
						<rect id="SVGID_7_" x="-160.6" y="396.9" width="33.3" height="33.4"/>
					</defs>
					<clipPath id="SVGID_8_">
						<use xlink:href="#SVGID_7_"  style="overflow:visible;"/>
					</clipPath>
					<path id="XMLID_11150_" class="st7" d="M-154,413.5c0-0.3-0.3-0.6-0.6-0.6h-3.9l1.4-1.4c0.2-0.2,0.2-0.6,0-0.9
						c-0.2-0.2-0.6-0.2-0.9,0l-2.4,2.4c-0.2,0.2-0.2,0.6,0,0.9l2.4,2.4c0.1,0.1,0.3,0.2,0.4,0.2c0.2,0,0.3-0.1,0.4-0.2
						c0.2-0.2,0.2-0.6,0-0.9l-1.4-1.4h3.9C-154.3,414.1-154,413.9-154,413.5L-154,413.5z"/>
				</g>
				<g>
					<defs>
						<rect id="SVGID_9_" x="-160.6" y="396.9" width="33.3" height="33.4"/>
					</defs>
					<clipPath id="SVGID_10_">
						<use xlink:href="#SVGID_9_"  style="overflow:visible;"/>
					</clipPath>
					<path id="XMLID_11147_" class="st8" d="M-129.9,410.7c-0.2-0.2-0.6-0.2-0.9,0c-0.2,0.2-0.2,0.6,0,0.9l1.4,1.4h-3.9
						c-0.3,0-0.6,0.3-0.6,0.6c0,0.3,0.3,0.6,0.6,0.6h3.9l-1.4,1.4c-0.2,0.2-0.2,0.6,0,0.9c0.1,0.1,0.3,0.2,0.4,0.2
						c0.2,0,0.3-0.1,0.4-0.2l2.4-2.4c0.2-0.2,0.2-0.6,0-0.9L-129.9,410.7z"/>
				</g>
			</g>
			<path id="XMLID_11142_" d="M-155.9,402.2v3.4c0,0.3,0.3,0.6,0.6,0.6s0.6-0.3,0.6-0.6v-1.9l2.7,2.7c0.1,0.1,0.3,0.2,0.4,0.2
				c0.2,0,0.3-0.1,0.4-0.2c0.2-0.2,0.2-0.6,0-0.9l-2.6-2.7h1.9c0.3,0,0.6-0.3,0.6-0.6c0-0.3-0.3-0.6-0.6-0.6h-3.4
				C-155.7,401.6-155.9,401.9-155.9,402.2L-155.9,402.2z"/>
			<path id="XMLID_11139_" d="M-136.7,424.9c0,0.3,0.3,0.6,0.6,0.6h3.4c0.3,0,0.6-0.3,0.6-0.6v-3.4c0-0.3-0.3-0.6-0.6-0.6
				s-0.6,0.3-0.6,0.6v1.9l-2.7-2.8c-0.2-0.2-0.6-0.2-0.9,0c-0.2,0.2-0.2,0.6,0,0.9l2.7,2.7h-1.9
				C-136.4,424.2-136.7,424.5-136.7,424.9L-136.7,424.9z"/>
			<path id="XMLID_11136_" d="M-151.1,420.6c-0.2-0.2-0.6-0.2-0.9,0l-2.7,2.7v-1.9c0-0.3-0.3-0.6-0.6-0.6s-0.6,0.3-0.6,0.6v3.4
				c0,0.3,0.3,0.6,0.6,0.6h3.4c0.3,0,0.6-0.3,0.6-0.6c0-0.3-0.3-0.6-0.6-0.6h-1.9l2.7-2.7C-150.9,421.3-150.9,420.9-151.1,420.6
				L-151.1,420.6z"/>
			<path id="XMLID_11133_" d="M-132.7,406.2c0.3,0,0.6-0.3,0.6-0.6v-3.4c0-0.3-0.3-0.6-0.6-0.6h-3.4c-0.3,0-0.6,0.3-0.6,0.6
				c0,0.3,0.3,0.6,0.6,0.6h1.9l-2.7,2.7c-0.2,0.2-0.2,0.6,0,0.9c0.1,0.1,0.3,0.2,0.4,0.2c0.2,0,0.3-0.1,0.4-0.2l2.7-2.7v1.9
				C-133.3,406-133,406.2-132.7,406.2L-132.7,406.2z"/>
			<path id="XMLID_11118_" d="M-144,405.3c-1.1,0-2.1,0.2-3.1,0.6c-4.2,1.7-6.2,6.6-4.5,10.8c1.3,3.1,4.3,5.1,7.6,5.1
				c1.1,0,2.1-0.2,3.1-0.6c4.2-1.7,6.2-6.6,4.5-10.8C-137.6,407.3-140.6,405.3-144,405.3L-144,405.3z M-150.6,415.8
				c-0.5-1.5-0.5-3.2,0-4.6h1.9c-0.1,0.7-0.2,1.5-0.2,2.3c0,0.7,0.1,1.5,0.3,2.3C-148.6,415.8-150.6,415.8-150.6,415.8z
				 M-147.7,413.5c0-0.8,0.1-1.6,0.2-2.3h2.8v4.6h-2.8C-147.6,415-147.7,414.3-147.7,413.5L-147.7,413.5z M-143.4,406.6
				c1,0.4,2,1.7,2.6,3.4h-2.6V406.6z M-144.6,406.7v3.3h-2.5C-146.5,408.3-145.6,407.1-144.6,406.7L-144.6,406.7z M-144.6,417.1v3.3
				c-1-0.4-1.8-1.7-2.4-3.3H-144.6z M-143.4,420.4v-3.3h2.5C-141.5,418.6-142.4,420-143.4,420.4L-143.4,420.4z M-143.4,415.8v-4.6
				h2.9c0.2,0.7,0.2,1.5,0.2,2.3c0,0.7-0.1,1.5-0.3,2.3C-140.6,415.8-143.4,415.8-143.4,415.8z M-139.2,411.2h1.8
				c0.5,1.5,0.5,3.2,0,4.6h-1.9c0.2-0.8,0.3-1.6,0.3-2.3C-139,412.7-139.1,412-139.2,411.2L-139.2,411.2z M-137.9,410h-1.6
				c-0.2-0.7-0.5-1.4-0.8-2c-0.1-0.2-0.3-0.5-0.4-0.7C-139.6,407.9-138.6,408.8-137.9,410L-137.9,410z M-147.1,407.2
				c-0.2,0.2-0.3,0.5-0.5,0.7c-0.3,0.6-0.6,1.3-0.8,2h-1.6C-149.4,408.8-148.4,407.9-147.1,407.2L-147.1,407.2z M-150,417.1h1.8
				c0.3,1.1,0.8,2.1,1.4,2.9C-148.2,419.3-149.3,418.3-150,417.1L-150,417.1z M-141,419.9c0.6-0.8,1-1.8,1.4-2.8h1.7
				C-138.6,418.2-139.7,419.2-141,419.9L-141,419.9z"/>
		</g>
	</g>
	<g id="XMLID_4_">
		<polygon id="XMLID_5_" class="st9" points="55,444.2 58,444.3 58,437.2 55,437.2 		"/>
	</g>
</g>
</svg>
