<?xml version="1.0" encoding="utf-8"?>
<!-- Generator: Adobe Illustrator 19.0.0, SVG Export Plug-In . SVG Version: 6.00 Build 0)  -->
<svg version="1.1" id="Capa_1" xmlns="http://www.w3.org/2000/svg" xmlns:xlink="http://www.w3.org/1999/xlink" x="0px" y="0px"
	 viewBox="0 0 341.9 42.5" style="enable-background:new 0 0 341.9 42.5;" xml:space="preserve">
<style type="text/css">
	.st0{fill:#F9D523;}
	.st1{fill:#252527;}
	.st2{fill:#E8A91C;}
</style>
<rect id="XMLID_1233_" x="0" y="0" class="st0" width="341.9" height="42.5"/>
<g id="XMLID_19_">
	<g id="XMLID_504_">
		<path id="XMLID_557_" class="st1" d="M71.3,20.9c0-2.1,0.6-3.8,1.7-5s2.6-1.8,4.4-1.8c1.2,0,2.3,0.3,3.2,0.9s1.7,1.4,2.2,2.4
			s0.8,2.2,0.8,3.5c0,1.3-0.3,2.5-0.8,3.5s-1.3,1.8-2.2,2.3s-2,0.8-3.1,0.8c-1.2,0-2.3-0.3-3.3-0.9s-1.7-1.4-2.2-2.4
			S71.3,22.1,71.3,20.9z M73,21c0,1.6,0.4,2.8,1.3,3.7s1.9,1.3,3.1,1.3c1.3,0,2.3-0.5,3.2-1.4s1.2-2.2,1.2-3.8c0-1-0.2-2-0.5-2.7
			s-0.9-1.4-1.6-1.8s-1.4-0.6-2.3-0.6c-1.2,0-2.2,0.4-3.1,1.2S73,19,73,21z"/>
		<path id="XMLID_555_" class="st1" d="M89,25.8l0.2,1.4c-0.4,0.1-0.8,0.1-1.2,0.1c-0.6,0-1-0.1-1.3-0.3s-0.5-0.4-0.7-0.7
			s-0.2-0.9-0.2-1.9v-5.4h-1.2v-1.2h1.2v-2.3l1.6-0.9v3.3H89v1.2h-1.6v5.5c0,0.5,0,0.7,0.1,0.9s0.1,0.2,0.3,0.3s0.3,0.1,0.5,0.1
			C88.5,25.8,88.7,25.8,89,25.8z"/>
		<path id="XMLID_553_" class="st1" d="M90.6,27.2v-9.3H92v1.4c0.4-0.7,0.7-1.1,1-1.3s0.6-0.3,1-0.3c0.5,0,1.1,0.2,1.6,0.5l-0.5,1.5
			c-0.4-0.2-0.8-0.3-1.2-0.3c-0.3,0-0.7,0.1-0.9,0.3s-0.5,0.5-0.6,0.9c-0.2,0.6-0.3,1.2-0.3,1.8v4.9H90.6z"/>
		<path id="XMLID_550_" class="st1" d="M96,22.5c0-1.7,0.5-3,1.4-3.8c0.8-0.7,1.8-1,2.9-1c1.3,0,2.3,0.4,3.1,1.3s1.2,2,1.2,3.5
			c0,1.2-0.2,2.1-0.5,2.8s-0.9,1.2-1.6,1.6s-1.4,0.6-2.3,0.6c-1.3,0-2.4-0.4-3.2-1.3S96,24.1,96,22.5z M97.6,22.5
			c0,1.2,0.3,2.1,0.8,2.7s1.2,0.9,2,0.9c0.8,0,1.4-0.3,2-0.9s0.8-1.5,0.8-2.7c0-1.2-0.3-2-0.8-2.6s-1.2-0.9-2-0.9
			c-0.8,0-1.4,0.3-2,0.9S97.6,21.3,97.6,22.5z"/>
		<path id="XMLID_548_" class="st1" d="M105.9,24.4l1.6-0.2c0.1,0.6,0.3,1.1,0.7,1.4s1,0.5,1.7,0.5c0.7,0,1.3-0.1,1.6-0.4
			s0.5-0.6,0.5-1c0-0.4-0.2-0.6-0.5-0.8c-0.2-0.1-0.8-0.3-1.6-0.5c-1.2-0.3-2-0.5-2.4-0.8s-0.8-0.5-1-0.9s-0.3-0.8-0.3-1.3
			c0-0.4,0.1-0.8,0.3-1.2s0.4-0.6,0.8-0.9c0.2-0.2,0.6-0.3,1-0.5s0.9-0.2,1.4-0.2c0.7,0,1.4,0.1,1.9,0.3s1,0.5,1.2,0.9
			s0.4,0.8,0.5,1.4l-1.5,0.2c-0.1-0.5-0.3-0.9-0.6-1.1s-0.8-0.4-1.4-0.4c-0.7,0-1.2,0.1-1.6,0.4s-0.5,0.5-0.5,0.8
			c0,0.2,0.1,0.4,0.2,0.6c0.1,0.2,0.3,0.3,0.6,0.4c0.2,0.1,0.6,0.2,1.4,0.4c1.1,0.3,1.9,0.5,2.3,0.7s0.8,0.5,1,0.8s0.4,0.8,0.4,1.4
			c0,0.5-0.2,1-0.5,1.5s-0.8,0.8-1.3,1.1s-1.2,0.4-2,0.4c-1.2,0-2.1-0.3-2.8-0.8S106.1,25.4,105.9,24.4z"/>
		<path id="XMLID_546_" class="st1" d="M124,25.8l0.2,1.4c-0.4,0.1-0.8,0.1-1.2,0.1c-0.6,0-1-0.1-1.3-0.3s-0.5-0.4-0.7-0.7
			s-0.2-0.9-0.2-1.9v-5.4h-1.2v-1.2h1.2v-2.3l1.6-0.9v3.3h1.6v1.2h-1.6v5.5c0,0.5,0,0.7,0.1,0.9s0.1,0.2,0.3,0.3s0.3,0.1,0.5,0.1
			C123.5,25.8,123.7,25.8,124,25.8z"/>
		<path id="XMLID_543_" class="st1" d="M125.6,16.1v-1.8h1.6v1.8H125.6z M125.6,27.2v-9.3h1.6v9.3H125.6z"/>
		<path id="XMLID_540_" class="st1" d="M129.6,30.8V17.9h1.4v1.2c0.3-0.5,0.7-0.8,1.2-1.1s0.9-0.4,1.6-0.4c0.8,0,1.5,0.2,2.1,0.6
			s1.1,1,1.4,1.7s0.5,1.6,0.5,2.5c0,1-0.2,1.8-0.5,2.6s-0.8,1.4-1.5,1.8s-1.3,0.6-2.1,0.6c-0.5,0-1-0.1-1.4-0.3s-0.8-0.5-1-0.8v4.5
			H129.6z M131,22.6c0,1.2,0.2,2.1,0.7,2.7s1.1,0.9,1.8,0.9c0.7,0,1.3-0.3,1.8-0.9s0.8-1.5,0.8-2.8c0-1.2-0.2-2.1-0.7-2.7
			s-1.1-0.9-1.8-0.9c-0.7,0-1.3,0.3-1.8,0.9S131,21.4,131,22.6z"/>
		<path id="XMLID_537_" class="st1" d="M139,22.5c0-1.7,0.5-3,1.4-3.8c0.8-0.7,1.8-1,2.9-1c1.3,0,2.3,0.4,3.1,1.3s1.2,2,1.2,3.5
			c0,1.2-0.2,2.1-0.5,2.8s-0.9,1.2-1.6,1.6s-1.4,0.6-2.3,0.6c-1.3,0-2.4-0.4-3.2-1.3S139,24.1,139,22.5z M140.6,22.5
			c0,1.2,0.3,2.1,0.8,2.7s1.2,0.9,2,0.9c0.8,0,1.4-0.3,2-0.9s0.8-1.5,0.8-2.7c0-1.2-0.3-2-0.8-2.6s-1.2-0.9-2-0.9
			c-0.8,0-1.4,0.3-2,0.9S140.6,21.3,140.6,22.5z"/>
		<path id="XMLID_535_" class="st1" d="M149,24.4l1.6-0.2c0.1,0.6,0.3,1.1,0.7,1.4s1,0.5,1.7,0.5c0.7,0,1.3-0.1,1.6-0.4
			s0.5-0.6,0.5-1c0-0.4-0.2-0.6-0.5-0.8c-0.2-0.1-0.8-0.3-1.6-0.5c-1.2-0.3-2-0.5-2.4-0.8s-0.8-0.5-1-0.9s-0.3-0.8-0.3-1.3
			c0-0.4,0.1-0.8,0.3-1.2s0.4-0.6,0.8-0.9c0.2-0.2,0.6-0.3,1-0.5s0.9-0.2,1.4-0.2c0.7,0,1.4,0.1,1.9,0.3s1,0.5,1.2,0.9
			s0.4,0.8,0.5,1.4l-1.5,0.2c-0.1-0.5-0.3-0.9-0.6-1.1s-0.8-0.4-1.4-0.4c-0.7,0-1.2,0.1-1.6,0.4s-0.5,0.5-0.5,0.8
			c0,0.2,0.1,0.4,0.2,0.6c0.1,0.2,0.3,0.3,0.6,0.4c0.2,0.1,0.6,0.2,1.4,0.4c1.1,0.3,1.9,0.5,2.3,0.7s0.8,0.5,1,0.8s0.4,0.8,0.4,1.4
			c0,0.5-0.2,1-0.5,1.5s-0.8,0.8-1.3,1.1s-1.2,0.4-2,0.4c-1.2,0-2.1-0.3-2.8-0.8S149.1,25.4,149,24.4z"/>
		<path id="XMLID_532_" class="st1" d="M169.7,27.2V26c-0.6,0.9-1.5,1.4-2.6,1.4c-0.7,0-1.4-0.2-2.1-0.6s-1.1-1-1.5-1.7
			s-0.5-1.6-0.5-2.5c0-0.9,0.2-1.8,0.5-2.5s0.8-1.3,1.4-1.7s1.3-0.6,2.1-0.6c0.6,0,1.1,0.1,1.5,0.4s0.8,0.5,1.1,0.9v-4.6h1.6v12.9
			H169.7z M164.7,22.5c0,1.2,0.3,2.1,0.8,2.7s1.1,0.9,1.8,0.9c0.7,0,1.3-0.3,1.8-0.8s0.7-1.4,0.7-2.6c0-1.3-0.2-2.2-0.7-2.8
			s-1.1-0.9-1.8-0.9c-0.7,0-1.3,0.3-1.8,0.9S164.7,21.3,164.7,22.5z"/>
		<path id="XMLID_529_" class="st1" d="M180,24.2l1.6,0.2c-0.3,1-0.7,1.7-1.4,2.2s-1.6,0.8-2.7,0.8c-1.4,0-2.4-0.4-3.2-1.3
			c-0.8-0.8-1.2-2-1.2-3.5c0-1.6,0.4-2.8,1.2-3.7s1.9-1.3,3.1-1.3c1.2,0,2.3,0.4,3.1,1.3s1.2,2,1.2,3.6c0,0.1,0,0.2,0,0.4h-7
			c0.1,1,0.3,1.8,0.9,2.4s1.2,0.8,2,0.8c0.6,0,1.1-0.2,1.5-0.5S179.8,24.9,180,24.2z M174.8,21.6h5.2c-0.1-0.8-0.3-1.4-0.6-1.8
			c-0.5-0.6-1.2-0.9-2-0.9c-0.7,0-1.3,0.2-1.8,0.7C175.1,20.2,174.9,20.8,174.8,21.6z"/>
		<path id="XMLID_526_" class="st1" d="M194.7,27.2V26c-0.6,0.9-1.5,1.4-2.6,1.4c-0.7,0-1.4-0.2-2.1-0.6c-0.6-0.4-1.1-1-1.4-1.7
			c-0.3-0.7-0.5-1.6-0.5-2.5c0-0.9,0.2-1.8,0.5-2.5s0.8-1.3,1.4-1.7s1.3-0.6,2.1-0.6c0.6,0,1.1,0.1,1.5,0.4s0.8,0.5,1.1,0.9v-4.6
			h1.6v12.9H194.7z M189.7,22.5c0,1.2,0.3,2.1,0.8,2.7s1.1,0.9,1.8,0.9c0.7,0,1.3-0.3,1.8-0.8c0.5-0.6,0.7-1.4,0.7-2.6
			c0-1.3-0.2-2.2-0.7-2.8s-1.1-0.9-1.8-0.9c-0.7,0-1.3,0.3-1.8,0.9C189.9,20.4,189.7,21.3,189.7,22.5z"/>
		<path id="XMLID_523_" class="st1" d="M198.6,16.1v-1.8h1.6v1.8H198.6z M198.6,27.2v-9.3h1.6v9.3H198.6z"/>
		<path id="XMLID_520_" class="st1" d="M208.7,26c-0.6,0.5-1.1,0.8-1.7,1.1c-0.5,0.2-1.1,0.3-1.7,0.3c-1,0-1.8-0.3-2.4-0.8
			s-0.8-1.1-0.8-1.9c0-0.5,0.1-0.9,0.3-1.3c0.2-0.4,0.5-0.7,0.8-0.9c0.3-0.2,0.7-0.4,1.1-0.5c0.3-0.1,0.8-0.2,1.4-0.2
			c1.3-0.2,2.2-0.3,2.8-0.5c0-0.2,0-0.4,0-0.4c0-0.6-0.1-1.1-0.4-1.4c-0.4-0.4-1-0.5-1.8-0.5c-0.7,0-1.3,0.1-1.6,0.4
			c-0.4,0.3-0.6,0.7-0.8,1.4l-1.5-0.2c0.1-0.7,0.4-1.2,0.7-1.6s0.8-0.7,1.4-0.9s1.3-0.3,2.1-0.3c0.8,0,1.4,0.1,1.9,0.3
			s0.9,0.4,1.1,0.7s0.4,0.6,0.5,1.1c0.1,0.3,0.1,0.8,0.1,1.5v2.1c0,1.5,0,2.4,0.1,2.8c0.1,0.4,0.2,0.8,0.4,1.1H209
			C208.9,26.9,208.8,26.5,208.7,26z M208.6,22.5c-0.6,0.2-1.4,0.4-2.6,0.6c-0.7,0.1-1.1,0.2-1.4,0.3s-0.5,0.3-0.6,0.5
			s-0.2,0.5-0.2,0.8c0,0.4,0.2,0.8,0.5,1.1c0.3,0.3,0.8,0.4,1.4,0.4c0.6,0,1.2-0.1,1.6-0.4s0.8-0.6,1-1.1c0.2-0.4,0.3-0.9,0.3-1.6
			V22.5z"/>
		<path id="XMLID_517_" class="st1" d="M212.4,28l1.5,0.2c0.1,0.5,0.2,0.8,0.5,1c0.4,0.3,0.9,0.4,1.6,0.4c0.7,0,1.3-0.1,1.7-0.4
			s0.7-0.7,0.8-1.2c0.1-0.3,0.1-1,0.1-2c-0.7,0.8-1.6,1.2-2.6,1.2c-1.3,0-2.3-0.5-3-1.4s-1.1-2-1.1-3.3c0-0.9,0.2-1.7,0.5-2.5
			s0.8-1.3,1.4-1.7c0.6-0.4,1.3-0.6,2.2-0.6c1.1,0,2,0.4,2.7,1.3v-1.1h1.5v8.1c0,1.5-0.1,2.5-0.4,3.1c-0.3,0.6-0.8,1.1-1.4,1.4
			c-0.6,0.4-1.4,0.5-2.4,0.5c-1.1,0-2-0.3-2.7-0.8S212.3,29,212.4,28z M213.7,22.4c0,1.2,0.2,2.1,0.7,2.7s1.1,0.8,1.8,0.8
			c0.7,0,1.3-0.3,1.8-0.8s0.7-1.4,0.7-2.6c0-1.1-0.3-2-0.8-2.6c-0.5-0.6-1.1-0.9-1.8-0.9c-0.7,0-1.3,0.3-1.8,0.9
			S213.7,21.2,213.7,22.4z"/>
		<path id="XMLID_515_" class="st1" d="M222.6,27.2v-9.3h1.4v1.4c0.4-0.7,0.7-1.1,1-1.3c0.3-0.2,0.6-0.3,1-0.3
			c0.5,0,1.1,0.2,1.6,0.5l-0.5,1.5c-0.4-0.2-0.8-0.3-1.2-0.3c-0.3,0-0.7,0.1-0.9,0.3s-0.5,0.5-0.6,0.9c-0.2,0.6-0.3,1.2-0.3,1.8v4.9
			H222.6z"/>
		<path id="XMLID_512_" class="st1" d="M234.7,26c-0.6,0.5-1.1,0.8-1.7,1.1c-0.5,0.2-1.1,0.3-1.7,0.3c-1,0-1.8-0.3-2.4-0.8
			s-0.8-1.1-0.8-1.9c0-0.5,0.1-0.9,0.3-1.3c0.2-0.4,0.5-0.7,0.8-0.9c0.3-0.2,0.7-0.4,1.1-0.5c0.3-0.1,0.8-0.2,1.4-0.2
			c1.3-0.2,2.2-0.3,2.8-0.5c0-0.2,0-0.4,0-0.4c0-0.6-0.1-1.1-0.4-1.4c-0.4-0.4-1-0.5-1.8-0.5c-0.7,0-1.3,0.1-1.6,0.4
			c-0.4,0.3-0.6,0.7-0.8,1.4l-1.5-0.2c0.1-0.7,0.4-1.2,0.7-1.6s0.8-0.7,1.4-0.9s1.3-0.3,2.1-0.3c0.8,0,1.4,0.1,1.9,0.3
			s0.9,0.4,1.1,0.7s0.4,0.6,0.5,1.1c0.1,0.3,0.1,0.8,0.1,1.5v2.1c0,1.5,0,2.4,0.1,2.8c0.1,0.4,0.2,0.8,0.4,1.1h-1.7
			C234.9,26.9,234.8,26.5,234.7,26z M234.6,22.5c-0.6,0.2-1.4,0.4-2.6,0.6c-0.7,0.1-1.1,0.2-1.4,0.3s-0.5,0.3-0.6,0.5
			s-0.2,0.5-0.2,0.8c0,0.4,0.2,0.8,0.5,1.1c0.3,0.3,0.8,0.4,1.4,0.4c0.6,0,1.2-0.1,1.6-0.4s0.8-0.6,1-1.1c0.2-0.4,0.3-0.9,0.3-1.6
			V22.5z"/>
		<path id="XMLID_510_" class="st1" d="M238.7,27.2v-9.3h1.4v1.3c0.3-0.5,0.7-0.8,1.2-1.1s1-0.4,1.7-0.4c0.7,0,1.3,0.1,1.7,0.4
			c0.4,0.3,0.8,0.7,0.9,1.2c0.7-1.1,1.7-1.6,2.9-1.6c0.9,0,1.6,0.3,2.1,0.8s0.7,1.3,0.7,2.4v6.4h-1.6v-5.9c0-0.6-0.1-1.1-0.2-1.4
			c-0.1-0.3-0.3-0.5-0.6-0.7s-0.6-0.3-0.9-0.3c-0.7,0-1.2,0.2-1.6,0.7s-0.7,1.1-0.7,2.1v5.4h-1.6v-6.1c0-0.7-0.1-1.2-0.4-1.6
			s-0.7-0.5-1.3-0.5c-0.4,0-0.9,0.1-1.2,0.4c-0.4,0.2-0.7,0.6-0.8,1s-0.3,1.1-0.3,2v4.8H238.7z"/>
		<path id="XMLID_507_" class="st1" d="M259.7,26c-0.6,0.5-1.2,0.8-1.7,1.1c-0.5,0.2-1.1,0.3-1.7,0.3c-1,0-1.8-0.3-2.4-0.8
			s-0.8-1.1-0.8-1.9c0-0.5,0.1-0.9,0.3-1.3c0.2-0.4,0.5-0.7,0.8-0.9c0.3-0.2,0.7-0.4,1.1-0.5c0.3-0.1,0.8-0.2,1.4-0.2
			c1.3-0.2,2.2-0.3,2.8-0.5c0-0.2,0-0.4,0-0.4c0-0.6-0.1-1.1-0.4-1.4c-0.4-0.4-1-0.5-1.8-0.5c-0.7,0-1.3,0.1-1.6,0.4
			c-0.4,0.3-0.6,0.7-0.8,1.4l-1.5-0.2c0.1-0.7,0.4-1.2,0.7-1.6s0.8-0.7,1.4-0.9s1.3-0.3,2.1-0.3c0.8,0,1.4,0.1,1.9,0.3
			s0.9,0.4,1.1,0.7s0.4,0.6,0.5,1.1c0.1,0.3,0.1,0.8,0.1,1.5v2.1c0,1.5,0,2.4,0.1,2.8c0.1,0.4,0.2,0.8,0.4,1.1h-1.7
			C259.9,26.9,259.8,26.5,259.7,26z M259.6,22.5c-0.6,0.2-1.4,0.4-2.6,0.6c-0.7,0.1-1.1,0.2-1.4,0.3s-0.5,0.3-0.6,0.5
			s-0.2,0.5-0.2,0.8c0,0.4,0.2,0.8,0.5,1.1c0.3,0.3,0.8,0.4,1.4,0.4c0.6,0,1.2-0.1,1.6-0.4s0.8-0.6,1-1.1c0.2-0.4,0.3-0.9,0.3-1.6
			V22.5z"/>
		<path id="XMLID_505_" class="st1" d="M263,24.4l1.6-0.2c0.1,0.6,0.3,1.1,0.7,1.4c0.4,0.3,1,0.5,1.7,0.5c0.7,0,1.3-0.1,1.6-0.4
			s0.5-0.6,0.5-1c0-0.4-0.2-0.6-0.5-0.8c-0.2-0.1-0.8-0.3-1.6-0.5c-1.2-0.3-2-0.5-2.4-0.8c-0.4-0.2-0.8-0.5-1-0.9
			c-0.2-0.4-0.3-0.8-0.3-1.3c0-0.4,0.1-0.8,0.3-1.2c0.2-0.4,0.5-0.6,0.8-0.9c0.2-0.2,0.6-0.3,1-0.5c0.4-0.1,0.9-0.2,1.4-0.2
			c0.7,0,1.4,0.1,1.9,0.3c0.6,0.2,1,0.5,1.2,0.9s0.4,0.8,0.5,1.4l-1.5,0.2c-0.1-0.5-0.3-0.9-0.6-1.1c-0.3-0.3-0.8-0.4-1.4-0.4
			c-0.7,0-1.2,0.1-1.6,0.4s-0.5,0.5-0.5,0.8c0,0.2,0.1,0.4,0.2,0.6c0.1,0.2,0.3,0.3,0.6,0.4c0.2,0.1,0.6,0.2,1.4,0.4
			c1.1,0.3,1.9,0.5,2.3,0.7c0.4,0.2,0.8,0.5,1,0.8s0.4,0.8,0.4,1.4c0,0.5-0.2,1-0.5,1.5c-0.3,0.5-0.8,0.8-1.3,1.1s-1.2,0.4-2,0.4
			c-1.2,0-2.1-0.3-2.8-0.8C263.6,26.2,263.2,25.4,263,24.4z"/>
	</g>
</g>
<polygon id="XMLID_2574_" class="st2" points="326.5,18.5 320.7,28.5 315,18.5 "/>
</svg>
