<?xml version="1.0" encoding="utf-8"?>
<!-- Generator: Adobe Illustrator 19.0.0, SVG Export Plug-In . SVG Version: 6.00 Build 0)  -->
<svg version="1.1" id="Capa_1" xmlns="http://www.w3.org/2000/svg" xmlns:xlink="http://www.w3.org/1999/xlink" x="0px" y="0px"
	 viewBox="0 0 84.7 43.2" style="enable-background:new 0 0 84.7 43.2;" xml:space="preserve">
<style type="text/css">
	.st0{fill:#252527;}
	.st1{fill:#FFFFFF;}
</style>
<rect id="XMLID_14799_" x="0" y="0" class="st0" width="84.7" height="43.2"/>
<g id="XMLID_57_">
	<g id="XMLID_264_">
		<path id="XMLID_288_" class="st1" d="M29.9,14.4l1.4,0.4c-0.3,1.2-0.8,2.1-1.6,2.7C29,18,28,18.3,26.9,18.3
			c-1.2,0-2.1-0.2-2.8-0.7c-0.7-0.5-1.3-1.2-1.7-2s-0.6-1.9-0.6-2.9c0-1.1,0.2-2.1,0.6-2.9c0.4-0.8,1-1.5,1.8-1.9
			c0.8-0.4,1.7-0.6,2.6-0.6c1.1,0,2,0.3,2.7,0.8s1.2,1.3,1.5,2.3l-1.4,0.3c-0.2-0.8-0.6-1.4-1.1-1.7s-1.1-0.5-1.8-0.5
			c-0.8,0-1.5,0.2-2.1,0.6s-0.9,0.9-1.2,1.6c-0.2,0.7-0.3,1.4-0.3,2.1c0,0.9,0.1,1.7,0.4,2.4c0.3,0.7,0.7,1.2,1.2,1.5
			s1.2,0.5,1.8,0.5c0.8,0,1.5-0.2,2-0.7S29.7,15.3,29.9,14.4z"/>
		<path id="XMLID_285_" class="st1" d="M38,17.2c-0.5,0.4-1,0.7-1.4,0.9s-0.9,0.3-1.5,0.3c-0.9,0-1.5-0.2-2-0.6
			c-0.5-0.4-0.7-1-0.7-1.6c0-0.4,0.1-0.7,0.3-1c0.2-0.3,0.4-0.6,0.7-0.8c0.3-0.2,0.6-0.3,0.9-0.4c0.3-0.1,0.6-0.1,1.2-0.2
			c1.1-0.1,1.8-0.3,2.4-0.5c0-0.2,0-0.3,0-0.3c0-0.5-0.1-0.9-0.4-1.1c-0.3-0.3-0.8-0.4-1.5-0.4c-0.6,0-1.1,0.1-1.4,0.3
			c-0.3,0.2-0.5,0.6-0.7,1.2l-1.3-0.2c0.1-0.6,0.3-1,0.6-1.3c0.3-0.3,0.7-0.6,1.2-0.8c0.5-0.2,1.1-0.3,1.8-0.3
			c0.7,0,1.2,0.1,1.6,0.2s0.7,0.4,0.9,0.6c0.2,0.2,0.3,0.5,0.4,0.9c0,0.2,0.1,0.6,0.1,1.2v1.8c0,1.2,0,2,0.1,2.3
			c0.1,0.3,0.2,0.6,0.3,0.9h-1.4C38.1,17.9,38.1,17.5,38,17.2z M37.9,14.2c-0.5,0.2-1.2,0.4-2.2,0.5c-0.5,0.1-0.9,0.2-1.1,0.3
			s-0.4,0.2-0.5,0.4c-0.1,0.2-0.2,0.4-0.2,0.6c0,0.4,0.1,0.6,0.4,0.9c0.3,0.2,0.7,0.4,1.2,0.4c0.5,0,1-0.1,1.4-0.3
			c0.4-0.2,0.7-0.5,0.9-0.9c0.1-0.3,0.2-0.7,0.2-1.3V14.2z"/>
		<path id="XMLID_283_" class="st1" d="M40.8,15.8l1.3-0.2c0.1,0.5,0.3,0.9,0.6,1.2c0.3,0.3,0.8,0.4,1.4,0.4c0.6,0,1.1-0.1,1.3-0.4
			c0.3-0.2,0.4-0.5,0.4-0.9c0-0.3-0.1-0.5-0.4-0.7c-0.2-0.1-0.6-0.3-1.3-0.4c-1-0.2-1.6-0.5-2-0.6c-0.4-0.2-0.7-0.4-0.8-0.7
			c-0.2-0.3-0.3-0.7-0.3-1c0-0.3,0.1-0.7,0.2-1c0.2-0.3,0.4-0.5,0.6-0.7c0.2-0.2,0.5-0.3,0.8-0.4c0.4-0.1,0.7-0.2,1.1-0.2
			c0.6,0,1.1,0.1,1.6,0.3c0.5,0.2,0.8,0.4,1,0.7c0.2,0.3,0.4,0.7,0.5,1.2l-1.3,0.2c-0.1-0.4-0.2-0.7-0.5-0.9
			c-0.3-0.2-0.7-0.3-1.2-0.3c-0.6,0-1,0.1-1.3,0.3s-0.4,0.4-0.4,0.7c0,0.2,0.1,0.3,0.2,0.5c0.1,0.1,0.3,0.3,0.5,0.4
			c0.1,0,0.5,0.2,1.2,0.3c0.9,0.2,1.6,0.5,2,0.6c0.4,0.2,0.7,0.4,0.9,0.7s0.3,0.7,0.3,1.1c0,0.4-0.1,0.9-0.4,1.2
			c-0.3,0.4-0.6,0.7-1.1,0.9c-0.5,0.2-1,0.3-1.6,0.3c-1,0-1.8-0.2-2.3-0.6S40.9,16.6,40.8,15.8z"/>
		<path id="XMLID_280_" class="st1" d="M48.3,14.2c0-1.4,0.4-2.5,1.2-3.2c0.7-0.6,1.5-0.9,2.4-0.9c1.1,0,1.9,0.4,2.6,1.1
			c0.7,0.7,1,1.7,1,2.9c0,1-0.1,1.8-0.5,2.4c-0.3,0.6-0.7,1-1.3,1.3c-0.6,0.3-1.2,0.5-1.9,0.5c-1.1,0-2-0.3-2.6-1
			C48.6,16.6,48.3,15.6,48.3,14.2z M49.6,14.2c0,1,0.2,1.7,0.7,2.2c0.4,0.5,1,0.7,1.6,0.7c0.7,0,1.2-0.2,1.6-0.7s0.7-1.3,0.7-2.3
			c0-1-0.2-1.7-0.7-2.2c-0.4-0.5-1-0.7-1.6-0.7c-0.7,0-1.2,0.2-1.6,0.7S49.6,13.3,49.6,14.2z"/>
		<path id="XMLID_278_" class="st1" d="M56.6,15.8l1.3-0.2c0.1,0.5,0.3,0.9,0.6,1.2c0.3,0.3,0.8,0.4,1.4,0.4c0.6,0,1.1-0.1,1.3-0.4
			c0.3-0.2,0.4-0.5,0.4-0.9c0-0.3-0.1-0.5-0.4-0.7c-0.2-0.1-0.6-0.3-1.3-0.4c-1-0.2-1.6-0.5-2-0.6c-0.4-0.2-0.7-0.4-0.8-0.7
			c-0.2-0.3-0.3-0.7-0.3-1c0-0.3,0.1-0.7,0.2-1c0.2-0.3,0.4-0.5,0.6-0.7c0.2-0.2,0.5-0.3,0.8-0.4c0.4-0.1,0.7-0.2,1.1-0.2
			c0.6,0,1.1,0.1,1.6,0.3c0.5,0.2,0.8,0.4,1,0.7c0.2,0.3,0.4,0.7,0.5,1.2l-1.3,0.2c-0.1-0.4-0.2-0.7-0.5-0.9
			c-0.3-0.2-0.7-0.3-1.2-0.3c-0.6,0-1,0.1-1.3,0.3s-0.4,0.4-0.4,0.7c0,0.2,0.1,0.3,0.2,0.5c0.1,0.1,0.3,0.3,0.5,0.4
			c0.1,0,0.5,0.2,1.2,0.3c0.9,0.2,1.6,0.5,2,0.6c0.4,0.2,0.7,0.4,0.9,0.7s0.3,0.7,0.3,1.1c0,0.4-0.1,0.9-0.4,1.2
			c-0.3,0.4-0.6,0.7-1.1,0.9c-0.5,0.2-1,0.3-1.6,0.3c-1,0-1.8-0.2-2.3-0.6C57.1,17.3,56.7,16.6,56.6,15.8z"/>
		<path id="XMLID_275_" class="st1" d="M24.6,34.1v-1c-0.5,0.8-1.2,1.2-2.2,1.2c-0.6,0-1.2-0.2-1.7-0.5c-0.5-0.3-0.9-0.8-1.2-1.4
			c-0.3-0.6-0.4-1.3-0.4-2.1c0-0.8,0.1-1.5,0.4-2.1c0.3-0.6,0.6-1.1,1.2-1.5s1.1-0.5,1.7-0.5c0.5,0,0.9,0.1,1.3,0.3
			c0.4,0.2,0.7,0.5,0.9,0.8v-3.9h1.3v10.7H24.6z M20.5,30.3c0,1,0.2,1.7,0.6,2.2s0.9,0.7,1.5,0.7c0.6,0,1.1-0.2,1.5-0.7
			c0.4-0.5,0.6-1.2,0.6-2.2c0-1.1-0.2-1.8-0.6-2.3s-0.9-0.7-1.5-0.7c-0.6,0-1.1,0.2-1.5,0.7S20.5,29.2,20.5,30.3z"/>
		<path id="XMLID_272_" class="st1" d="M33.3,31.6l1.4,0.2c-0.2,0.8-0.6,1.4-1.2,1.9s-1.3,0.7-2.2,0.7c-1.1,0-2-0.3-2.7-1.1
			c-0.7-0.7-1-1.7-1-2.9c0-1.3,0.3-2.3,1-3s1.5-1.1,2.6-1.1c1,0,1.9,0.4,2.5,1.1s1,1.7,1,3c0,0.1,0,0.2,0,0.4h-5.8
			c0,0.9,0.3,1.5,0.7,2s1,0.7,1.6,0.7c0.5,0,0.9-0.1,1.2-0.4S33.1,32.2,33.3,31.6z M28.9,29.5h4.3c-0.1-0.7-0.2-1.1-0.5-1.5
			c-0.4-0.5-1-0.8-1.6-0.8c-0.6,0-1.1,0.2-1.5,0.6C29.2,28.3,29,28.8,28.9,29.5z"/>
		<path id="XMLID_270_" class="st1" d="M47.7,23.4h1.4v6.2c0,1.1-0.1,1.9-0.4,2.6s-0.7,1.2-1.3,1.5c-0.6,0.4-1.5,0.6-2.5,0.6
			c-1,0-1.8-0.2-2.5-0.5s-1.1-0.8-1.4-1.5c-0.3-0.7-0.4-1.6-0.4-2.7v-6.2h1.4v6.2c0,0.9,0.1,1.6,0.3,2.1c0.2,0.4,0.5,0.8,0.9,1
			c0.4,0.2,0.9,0.4,1.5,0.4c1,0,1.8-0.2,2.2-0.7s0.7-1.4,0.7-2.7V23.4z"/>
		<path id="XMLID_268_" class="st1" d="M50.8,31.8l1.3-0.2c0.1,0.5,0.3,0.9,0.6,1.2c0.3,0.3,0.8,0.4,1.4,0.4c0.6,0,1.1-0.1,1.3-0.4
			c0.3-0.2,0.4-0.5,0.4-0.9c0-0.3-0.1-0.5-0.4-0.7c-0.2-0.1-0.6-0.3-1.3-0.4c-1-0.2-1.6-0.5-2-0.6c-0.4-0.2-0.7-0.4-0.8-0.7
			c-0.2-0.3-0.3-0.7-0.3-1c0-0.3,0.1-0.7,0.2-1c0.2-0.3,0.4-0.5,0.6-0.7c0.2-0.2,0.5-0.3,0.8-0.4c0.4-0.1,0.7-0.2,1.1-0.2
			c0.6,0,1.1,0.1,1.6,0.3c0.5,0.2,0.8,0.4,1,0.7c0.2,0.3,0.4,0.7,0.5,1.2l-1.3,0.2c-0.1-0.4-0.2-0.7-0.5-0.9
			c-0.3-0.2-0.7-0.3-1.2-0.3c-0.6,0-1,0.1-1.3,0.3s-0.4,0.4-0.4,0.7c0,0.2,0.1,0.3,0.2,0.5c0.1,0.1,0.3,0.3,0.5,0.4
			c0.1,0,0.5,0.2,1.2,0.3c0.9,0.2,1.6,0.5,2,0.6c0.4,0.2,0.7,0.4,0.9,0.7s0.3,0.7,0.3,1.1c0,0.4-0.1,0.9-0.4,1.2
			c-0.3,0.4-0.6,0.7-1.1,0.9c-0.5,0.2-1,0.3-1.6,0.3c-1,0-1.8-0.2-2.3-0.6C51.2,33.3,50.9,32.6,50.8,31.8z"/>
		<path id="XMLID_265_" class="st1" d="M58.3,30.2c0-1.4,0.4-2.5,1.2-3.2c0.7-0.6,1.5-0.9,2.4-0.9c1.1,0,1.9,0.4,2.6,1.1
			c0.7,0.7,1,1.7,1,2.9c0,1-0.1,1.8-0.5,2.4c-0.3,0.6-0.7,1-1.3,1.3c-0.6,0.3-1.2,0.5-1.9,0.5c-1.1,0-2-0.3-2.6-1
			C58.6,32.6,58.3,31.6,58.3,30.2z M59.7,30.2c0,1,0.2,1.7,0.7,2.2c0.4,0.5,1,0.7,1.6,0.7c0.7,0,1.2-0.2,1.6-0.7s0.7-1.3,0.7-2.3
			c0-1-0.2-1.7-0.7-2.2c-0.4-0.5-1-0.7-1.6-0.7c-0.7,0-1.2,0.2-1.6,0.7S59.7,29.3,59.7,30.2z"/>
	</g>
</g>
</svg>
