<?xml version="1.0" encoding="utf-8"?>
<!-- Generator: Adobe Illustrator 19.0.0, SVG Export Plug-In . SVG Version: 6.00 Build 0)  -->
<svg version="1.1" id="Capa_1" xmlns="http://www.w3.org/2000/svg" xmlns:xlink="http://www.w3.org/1999/xlink" x="0px" y="0px"
	 viewBox="-235 399.7 123.4 43.2" style="enable-background:new -235 399.7 123.4 43.2;" xml:space="preserve">
<style type="text/css">
	.st0{fill:#F9D523;}
	.st1{fill:#252527;}
</style>
<g id="XMLID_14732_">
	<rect x="-233.5" y="401.2" class="st0" width="120.4" height="40.2"/>
	<path class="st1" d="M-114.6,402.7v37.2H-232v-37.2H-114.6 M-111.6,399.7H-235v43.2h123.4V399.7L-111.6,399.7z"/>
</g>
<g id="XMLID_1_">
	<path id="XMLID_2_" class="st1" d="M-215.4,417.8v-10.7h3.7c0.8,0,1.5,0.1,1.9,0.2c0.6,0.1,1.1,0.4,1.6,0.8c0.6,0.5,1,1.1,1.3,1.8
		c0.3,0.7,0.4,1.6,0.4,2.6c0,0.8-0.1,1.5-0.3,2.2c-0.2,0.7-0.4,1.2-0.7,1.6s-0.6,0.7-1,1c-0.4,0.2-0.8,0.4-1.3,0.5s-1.1,0.2-1.7,0.2
		h-3.9V417.8z M-213.9,416.6h2.3c0.7,0,1.3-0.1,1.7-0.2c0.4-0.1,0.7-0.3,1-0.6c0.3-0.3,0.6-0.8,0.8-1.4c0.2-0.6,0.3-1.3,0.3-2.1
		c0-1.1-0.2-2-0.6-2.6c-0.4-0.6-0.8-1-1.3-1.2c-0.4-0.1-1-0.2-1.8-0.2h-2.3L-213.9,416.6L-213.9,416.6z"/>
	<path id="XMLID_5_" class="st1" d="M-204.7,408.6v-1.5h1.3v1.5H-204.7z M-204.7,417.8V410h1.3v7.8H-204.7z"/>
	<path id="XMLID_8_" class="st1" d="M-196.3,416.9c-0.5,0.4-1,0.7-1.4,0.9c-0.4,0.2-0.9,0.3-1.5,0.3c-0.9,0-1.5-0.2-2-0.6
		s-0.7-1-0.7-1.6c0-0.4,0.1-0.7,0.3-1c0.2-0.3,0.4-0.6,0.7-0.8c0.3-0.2,0.6-0.3,0.9-0.4c0.3-0.1,0.6-0.1,1.2-0.2
		c1.1-0.1,1.8-0.3,2.4-0.5c0-0.2,0-0.3,0-0.3c0-0.5-0.1-0.9-0.4-1.1c-0.3-0.3-0.8-0.4-1.5-0.4c-0.6,0-1.1,0.1-1.4,0.3
		c-0.3,0.2-0.5,0.6-0.7,1.2l-1.3-0.2c0.1-0.6,0.3-1,0.6-1.3c0.3-0.3,0.7-0.6,1.2-0.8s1.1-0.3,1.8-0.3c0.7,0,1.2,0.1,1.6,0.2
		s0.7,0.4,0.9,0.6c0.2,0.2,0.3,0.5,0.4,0.9c0,0.2,0.1,0.6,0.1,1.2v1.8c0,1.2,0,2,0.1,2.3c0.1,0.3,0.2,0.6,0.3,0.9h-1.3
		C-196.2,417.6-196.3,417.2-196.3,416.9z M-196.4,413.9c-0.5,0.2-1.2,0.4-2.2,0.5c-0.5,0.1-0.9,0.2-1.1,0.3
		c-0.2,0.1-0.4,0.2-0.5,0.4c-0.1,0.2-0.2,0.4-0.2,0.6c0,0.4,0.1,0.6,0.4,0.9c0.3,0.2,0.7,0.4,1.2,0.4s1-0.1,1.4-0.3
		c0.4-0.2,0.7-0.5,0.9-0.9c0.1-0.3,0.2-0.7,0.2-1.3v-0.6H-196.4z"/>
	<path id="XMLID_11_" class="st1" d="M-193.3,418.5l1.3,0.2c0.1,0.4,0.2,0.7,0.4,0.9c0.3,0.2,0.8,0.4,1.3,0.4c0.6,0,1.1-0.1,1.4-0.4
		c0.3-0.3,0.6-0.6,0.7-1c0.2-0.4,0.2-0.9,0.2-1.8c-0.6,0.7-1.3,1-2.2,1c-1.1,0-1.9-0.4-2.5-1.2c-0.6-0.8-0.9-1.7-0.9-2.8
		c0-0.7,0.1-1.4,0.4-2.1c0.3-0.6,0.7-1.1,1.2-1.5c0.5-0.3,1.1-0.5,1.8-0.5c0.9,0,1.7,0.4,2.3,1.1v-0.9h1.2v6.7
		c0,1.2-0.1,2.1-0.4,2.6c-0.2,0.5-0.6,0.9-1.2,1.2c-0.5,0.3-1.2,0.4-2,0.4c-0.9,0-1.7-0.2-2.2-0.6
		C-193,419.9-193.3,419.3-193.3,418.5z M-192.2,413.8c0,1,0.2,1.8,0.6,2.2c0.4,0.5,0.9,0.7,1.5,0.7c0.6,0,1.1-0.2,1.5-0.7
		c0.4-0.5,0.6-1.2,0.6-2.2s-0.2-1.7-0.6-2.2s-0.9-0.7-1.5-0.7c-0.6,0-1.1,0.2-1.5,0.7C-192,412.2-192.2,412.9-192.2,413.8z"/>
	<path id="XMLID_14_" class="st1" d="M-184.7,417.8V410h1.2v1.2c0.3-0.6,0.6-0.9,0.8-1.1c0.3-0.2,0.5-0.3,0.8-0.3
		c0.4,0,0.9,0.1,1.4,0.4l-0.5,1.2c-0.3-0.2-0.6-0.3-1-0.3c-0.3,0-0.5,0.1-0.8,0.3c-0.2,0.2-0.4,0.4-0.5,0.7c-0.1,0.5-0.2,1-0.2,1.5
		v4.1h-1.2V417.8z"/>
	<path id="XMLID_16_" class="st1" d="M-174.6,416.9c-0.5,0.4-1,0.7-1.4,0.9c-0.4,0.2-0.9,0.3-1.5,0.3c-0.9,0-1.5-0.2-2-0.6
		s-0.7-1-0.7-1.6c0-0.4,0.1-0.7,0.3-1c0.2-0.3,0.4-0.6,0.7-0.8c0.3-0.2,0.6-0.3,0.9-0.4c0.3-0.1,0.6-0.1,1.2-0.2
		c1.1-0.1,1.8-0.3,2.4-0.5c0-0.2,0-0.3,0-0.3c0-0.5-0.1-0.9-0.4-1.1c-0.3-0.3-0.8-0.4-1.5-0.4c-0.6,0-1.1,0.1-1.4,0.3
		c-0.3,0.2-0.5,0.6-0.7,1.2l-1.3-0.2c0.1-0.6,0.3-1,0.6-1.3c0.3-0.3,0.7-0.6,1.2-0.8s1.1-0.3,1.8-0.3c0.7,0,1.2,0.1,1.6,0.2
		s0.7,0.4,0.9,0.6c0.2,0.2,0.3,0.5,0.4,0.9c0,0.2,0.1,0.6,0.1,1.2v1.8c0,1.2,0,2,0.1,2.3c0.1,0.3,0.2,0.6,0.3,0.9h-1.4
		C-174.5,417.6-174.6,417.2-174.6,416.9z M-174.7,413.9c-0.5,0.2-1.2,0.4-2.2,0.5c-0.5,0.1-0.9,0.2-1.1,0.3
		c-0.2,0.1-0.4,0.2-0.5,0.4c-0.1,0.2-0.2,0.4-0.2,0.6c0,0.4,0.1,0.6,0.4,0.9c0.3,0.2,0.7,0.4,1.2,0.4s1-0.1,1.4-0.3
		c0.4-0.2,0.7-0.5,0.9-0.9c0.1-0.3,0.2-0.7,0.2-1.3v-0.6H-174.7z"/>
	<path id="XMLID_21_" class="st1" d="M-171.4,417.8V410h1.2v1.1c0.2-0.4,0.6-0.7,1-0.9c0.4-0.2,0.9-0.3,1.4-0.3c0.6,0,1,0.1,1.4,0.4
		c0.4,0.2,0.6,0.6,0.8,1c0.6-0.9,1.4-1.4,2.4-1.4c0.8,0,1.4,0.2,1.8,0.6s0.6,1.1,0.6,2v5.3h-1.3v-4.9c0-0.5,0-0.9-0.1-1.1
		c-0.1-0.2-0.2-0.4-0.5-0.6c-0.3-0.2-0.5-0.2-0.8-0.2c-0.5,0-1,0.2-1.4,0.5c-0.4,0.4-0.5,0.9-0.5,1.7v4.5h-1.3v-5.1
		c0-0.6-0.1-1-0.3-1.3c-0.2-0.3-0.6-0.4-1.1-0.4c-0.4,0-0.7,0.1-1,0.3c-0.3,0.2-0.5,0.5-0.7,0.9s-0.2,1-0.2,1.7v4H-171.4z"/>
	<path id="XMLID_23_" class="st1" d="M-153.8,416.9c-0.5,0.4-1,0.7-1.4,0.9c-0.5,0.2-0.9,0.3-1.5,0.3c-0.9,0-1.5-0.2-2-0.6
		s-0.7-1-0.7-1.6c0-0.4,0.1-0.7,0.3-1c0.2-0.3,0.4-0.6,0.7-0.8c0.3-0.2,0.6-0.3,0.9-0.4c0.3-0.1,0.6-0.1,1.2-0.2
		c1.1-0.1,1.8-0.3,2.4-0.5c0-0.2,0-0.3,0-0.3c0-0.5-0.1-0.9-0.4-1.1c-0.3-0.3-0.8-0.4-1.5-0.4c-0.6,0-1.1,0.1-1.4,0.3
		c-0.3,0.2-0.5,0.6-0.7,1.2l-1.3-0.2c0.1-0.6,0.3-1,0.6-1.3c0.3-0.3,0.7-0.6,1.2-0.8s1.1-0.3,1.8-0.3c0.7,0,1.2,0.1,1.6,0.2
		c0.4,0.1,0.7,0.4,0.9,0.6c0.2,0.2,0.3,0.5,0.4,0.9c0,0.2,0.1,0.6,0.1,1.2v1.8c0,1.2,0,2,0.1,2.3c0.1,0.3,0.2,0.6,0.3,0.9h-1.4
		C-153.7,417.6-153.7,417.2-153.8,416.9z M-153.9,413.9c-0.5,0.2-1.2,0.4-2.2,0.5c-0.5,0.1-0.9,0.2-1.2,0.3
		c-0.3,0.1-0.4,0.2-0.5,0.4c-0.1,0.2-0.2,0.4-0.2,0.6c0,0.4,0.1,0.6,0.4,0.9c0.3,0.2,0.7,0.4,1.2,0.4s1-0.1,1.4-0.3
		c0.4-0.2,0.7-0.5,0.9-0.9c0.1-0.3,0.2-0.7,0.2-1.3C-153.9,414.5-153.9,413.9-153.9,413.9z"/>
	<path id="XMLID_28_" class="st1" d="M-141.3,417.8v-1c-0.5,0.8-1.2,1.2-2.2,1.2c-0.6,0-1.2-0.2-1.7-0.5s-0.9-0.8-1.2-1.4
		c-0.3-0.6-0.4-1.3-0.4-2.1s0.1-1.5,0.4-2.1s0.6-1.1,1.2-1.5s1.1-0.5,1.7-0.5c0.5,0,0.9,0.1,1.3,0.3c0.4,0.2,0.7,0.5,0.9,0.8v-3.9
		h1.3v10.7H-141.3z M-145.5,414c0,1,0.2,1.7,0.6,2.2c0.4,0.5,0.9,0.7,1.5,0.7c0.6,0,1.1-0.2,1.5-0.7c0.4-0.5,0.6-1.2,0.6-2.2
		c0-1.1-0.2-1.8-0.6-2.3c-0.4-0.5-0.9-0.7-1.5-0.7c-0.6,0-1.1,0.2-1.5,0.7C-145.3,412.2-145.5,412.9-145.5,414z"/>
	<path id="XMLID_31_" class="st1" d="M-132.7,415.3l1.4,0.2c-0.2,0.8-0.6,1.4-1.2,1.9c-0.6,0.5-1.3,0.7-2.2,0.7
		c-1.1,0-2-0.4-2.7-1.1c-0.7-0.7-1-1.7-1-2.9c0-1.3,0.3-2.3,1-3c0.7-0.7,1.5-1.1,2.6-1.1c1,0,1.9,0.4,2.5,1.1c0.6,0.7,1,1.7,1,3
		c0,0.1,0,0.2,0,0.4h-5.8c0,0.9,0.3,1.5,0.7,2s1,0.7,1.6,0.7c0.5,0,0.9-0.1,1.2-0.4C-133.3,416.5-132.9,415.9-132.7,415.3z
		 M-137,413.2h4.3c-0.1-0.7-0.2-1.1-0.5-1.5c-0.4-0.5-1-0.8-1.6-0.8c-0.6,0-1.1,0.2-1.5,0.6C-136.7,412-137,412.5-137,413.2z"/>
	<path id="XMLID_34_" class="st1" d="M-207.9,430.4l1.3-0.1c0.1,0.5,0.2,1,0.4,1.3c0.2,0.3,0.6,0.6,1.1,0.8c0.5,0.2,1,0.3,1.6,0.3
		c0.5,0,1-0.1,1.4-0.2c0.4-0.1,0.7-0.4,0.9-0.7c0.2-0.3,0.3-0.6,0.3-0.9s-0.1-0.6-0.3-0.9s-0.5-0.5-1-0.6c-0.3-0.1-0.9-0.3-1.9-0.5
		s-1.7-0.5-2.1-0.7c-0.5-0.3-0.9-0.6-1.1-1c-0.3-0.4-0.4-0.8-0.4-1.3s0.2-1,0.5-1.5s0.8-0.8,1.3-1.1c0.5-0.3,1.2-0.4,2-0.4
		c0.8,0,1.5,0.1,2.1,0.4c0.6,0.3,1.1,0.6,1.4,1.1s0.5,1.1,0.5,1.7l-1.4,0.1c-0.1-0.7-0.3-1.2-0.7-1.5c-0.4-0.3-1-0.5-1.9-0.5
		c-0.9,0-1.5,0.2-1.9,0.5c-0.4,0.3-0.6,0.7-0.6,1.1c0,0.4,0.1,0.7,0.4,1c0.3,0.2,1,0.5,2.1,0.8c1.2,0.3,1.9,0.5,2.4,0.7
		c0.6,0.3,1.1,0.7,1.4,1.1c0.3,0.4,0.4,1,0.4,1.5c0,0.6-0.2,1.1-0.5,1.6s-0.8,0.9-1.4,1.2c-0.6,0.3-1.3,0.4-2.1,0.4
		c-1,0-1.8-0.1-2.4-0.4c-0.6-0.3-1.2-0.7-1.5-1.3C-207.7,431.7-207.9,431.1-207.9,430.4z"/>
	<path id="XMLID_36_" class="st1" d="M-192.3,431.3l1.4,0.2c-0.2,0.8-0.6,1.4-1.2,1.9c-0.6,0.5-1.3,0.7-2.2,0.7
		c-1.1,0-2-0.4-2.7-1.1s-1-1.7-1-2.9c0-1.3,0.3-2.3,1-3c0.7-0.7,1.5-1.1,2.6-1.1c1,0,1.9,0.4,2.5,1.1c0.6,0.7,1,1.7,1,3
		c0,0.1,0,0.2,0,0.4h-5.8c0,0.9,0.3,1.5,0.7,2s1,0.7,1.6,0.7c0.5,0,0.9-0.1,1.2-0.4C-192.9,432.5-192.5,431.9-192.3,431.3z
		 M-196.6,429.2h4.3c-0.1-0.7-0.2-1.1-0.5-1.5c-0.4-0.5-1-0.8-1.6-0.8c-0.6,0-1.1,0.2-1.5,0.6C-196.4,428-196.6,428.5-196.6,429.2z"
		/>
	<path id="XMLID_39_" class="st1" d="M-184.2,431l1.3,0.2c-0.1,0.8-0.5,1.5-1.1,2.1c-0.6,0.5-1.3,0.8-2.1,0.8c-1.1,0-1.9-0.3-2.6-1
		c-0.6-0.7-1-1.7-1-3c0-0.8,0.1-1.6,0.4-2.2c0.3-0.6,0.7-1.1,1.3-1.4c0.6-0.3,1.2-0.5,1.9-0.5c0.8,0,1.5,0.2,2.1,0.6
		c0.5,0.4,0.9,1,1,1.8l-1.3,0.2c-0.1-0.5-0.3-0.9-0.6-1.2s-0.7-0.4-1.1-0.4c-0.7,0-1.2,0.2-1.6,0.7c-0.4,0.5-0.6,1.2-0.6,2.3
		c0,1,0.2,1.8,0.6,2.3s0.9,0.7,1.6,0.7c0.5,0,0.9-0.2,1.3-0.5C-184.3,432.2-184.3,431.6-184.2,431z"/>
	<path id="XMLID_41_" class="st1" d="M-176.7,433.8v-1.1c-0.6,0.9-1.4,1.3-2.5,1.3c-0.5,0-0.9-0.1-1.3-0.3c-0.4-0.2-0.7-0.4-0.9-0.7
		c-0.2-0.3-0.3-0.6-0.4-1c-0.1-0.3-0.1-0.7-0.1-1.2V426h1.3v4.3c0,0.7,0,1.2,0.1,1.4c0.1,0.3,0.3,0.6,0.5,0.8c0.3,0.2,0.6,0.3,1,0.3
		c0.4,0,0.8-0.1,1.1-0.3s0.6-0.5,0.7-0.8c0.1-0.3,0.2-0.9,0.2-1.5V426h1.3v7.8H-176.7z"/>
	<path id="XMLID_43_" class="st1" d="M-168.1,431.3l1.4,0.2c-0.2,0.8-0.6,1.4-1.2,1.9s-1.3,0.7-2.2,0.7c-1.1,0-2-0.4-2.7-1.1
		c-0.7-0.7-1-1.7-1-2.9c0-1.3,0.3-2.3,1-3c0.7-0.7,1.5-1.1,2.6-1.1c1,0,1.9,0.4,2.5,1.1c0.6,0.7,1,1.7,1,3c0,0.1,0,0.2,0,0.4h-5.8
		c0,0.9,0.3,1.5,0.7,2s1,0.7,1.6,0.7c0.5,0,0.9-0.1,1.2-0.4C-168.7,432.5-168.3,431.9-168.1,431.3z M-172.4,429.2h4.3
		c-0.1-0.7-0.2-1.1-0.5-1.5c-0.4-0.5-1-0.8-1.6-0.8s-1.1,0.2-1.5,0.6C-172.2,428-172.4,428.5-172.4,429.2z"/>
	<path id="XMLID_46_" class="st1" d="M-165.1,433.8V426h1.2v1.1c0.6-0.9,1.4-1.3,2.5-1.3c0.5,0,0.9,0.1,1.3,0.3
		c0.4,0.2,0.7,0.4,0.9,0.7c0.2,0.3,0.3,0.6,0.4,1c0,0.2,0.1,0.7,0.1,1.3v4.8h-1.3v-4.7c0-0.5-0.1-0.9-0.2-1.2s-0.3-0.5-0.5-0.6
		c-0.3-0.2-0.6-0.2-0.9-0.2c-0.6,0-1,0.2-1.5,0.5c-0.4,0.4-0.6,1-0.6,2v4.2h-1.4V433.8z"/>
	<path id="XMLID_48_" class="st1" d="M-151.7,431l1.3,0.2c-0.1,0.9-0.5,1.6-1.1,2.1c-0.6,0.5-1.3,0.8-2.2,0.8c-1.1,0-1.9-0.3-2.6-1
		c-0.6-0.7-1-1.7-1-3c0-0.8,0.1-1.6,0.4-2.2c0.3-0.6,0.7-1.1,1.3-1.4c0.6-0.3,1.2-0.5,1.9-0.5c0.8,0,1.5,0.2,2.1,0.6
		c0.5,0.4,0.9,1,1,1.8l-1.3,0.2c-0.1-0.5-0.3-0.9-0.6-1.2s-0.7-0.4-1.1-0.4c-0.7,0-1.2,0.2-1.6,0.7s-0.6,1.2-0.6,2.3
		c0,1,0.2,1.8,0.6,2.3s0.9,0.7,1.6,0.7c0.5,0,1-0.2,1.3-0.5C-152,432.2-151.8,431.6-151.7,431z"/>
	<path id="XMLID_50_" class="st1" d="M-149.2,424.6v-1.5h1.3v1.5H-149.2z M-149.2,433.8V426h1.3v7.8H-149.2z"/>
	<path id="XMLID_53_" class="st1" d="M-140.8,432.9c-0.5,0.4-1,0.7-1.4,0.9c-0.5,0.2-0.9,0.3-1.5,0.3c-0.9,0-1.5-0.2-2-0.6
		s-0.7-1-0.7-1.6c0-0.4,0.1-0.7,0.3-1c0.2-0.3,0.4-0.6,0.7-0.8c0.3-0.2,0.6-0.3,0.9-0.4s0.6-0.1,1.2-0.2c1.1-0.1,1.8-0.3,2.4-0.5
		c0-0.2,0-0.3,0-0.3c0-0.5-0.1-0.9-0.4-1.1c-0.3-0.3-0.8-0.4-1.5-0.4c-0.6,0-1.1,0.1-1.4,0.3c-0.3,0.2-0.5,0.6-0.7,1.2l-1.3-0.2
		c0.1-0.6,0.3-1,0.6-1.3c0.3-0.3,0.7-0.6,1.2-0.8c0.5-0.2,1.1-0.3,1.8-0.3c0.7,0,1.2,0.1,1.6,0.2c0.4,0.1,0.7,0.4,0.9,0.6
		c0.2,0.2,0.3,0.5,0.4,0.9c0,0.2,0.1,0.6,0.1,1.2v1.8c0,1.2,0,2,0.1,2.3c0.1,0.3,0.2,0.6,0.3,0.9h-1.4
		C-140.7,433.6-140.8,433.2-140.8,432.9z M-141,429.9c-0.5,0.2-1.2,0.4-2.2,0.5c-0.5,0.1-0.9,0.2-1.2,0.3c-0.3,0.1-0.4,0.2-0.5,0.4
		c0,0.2-0.1,0.4-0.1,0.6c0,0.4,0.1,0.6,0.4,0.9c0.3,0.2,0.7,0.4,1.2,0.4s1-0.1,1.4-0.3c0.4-0.2,0.7-0.5,0.9-0.9
		c0.1-0.3,0.2-0.7,0.2-1.3v-0.6H-141z"/>
</g>
</svg>
