<?xml version="1.0" encoding="utf-8"?>
<!-- Generator: Adobe Illustrator 19.0.0, SVG Export Plug-In . SVG Version: 6.00 Build 0)  -->
<svg version="1.1" id="Capa_1" xmlns="http://www.w3.org/2000/svg" xmlns:xlink="http://www.w3.org/1999/xlink" x="0px" y="0px"
	 viewBox="-235 399.7 123.1 43.2" style="enable-background:new -235 399.7 123.1 43.2;" xml:space="preserve">
<style type="text/css">
	.st0{fill:#F9D523;}
	.st1{fill:#252527;}
</style>
<g id="XMLID_14797_">
	<rect x="-233.5" y="401.2" class="st0" width="120.1" height="40.2"/>
	<path class="st1" d="M-114.9,402.7v37.2H-232v-37.2H-114.9 M-111.9,399.7H-235v43.2h123.1V399.7L-111.9,399.7z"/>
</g>
<g id="XMLID_1_">
	<path id="XMLID_2_" class="st1" d="M-215.5,417.8v-10.7h3.7c0.8,0,1.5,0.1,1.9,0.2c0.6,0.1,1.1,0.4,1.6,0.8c0.6,0.5,1,1.1,1.3,1.8
		c0.3,0.7,0.4,1.6,0.4,2.6c0,0.8-0.1,1.5-0.3,2.2c-0.2,0.7-0.4,1.2-0.7,1.6c-0.3,0.4-0.6,0.7-1,1c-0.4,0.2-0.8,0.4-1.3,0.5
		s-1.1,0.2-1.7,0.2h-3.9V417.8z M-214.1,416.6h2.3c0.7,0,1.3-0.1,1.7-0.2c0.4-0.1,0.7-0.3,1-0.6c0.3-0.3,0.6-0.8,0.8-1.4
		s0.3-1.3,0.3-2.1c0-1.1-0.2-2-0.6-2.6c-0.4-0.6-0.8-1-1.3-1.2c-0.4-0.1-1-0.2-1.8-0.2h-2.3v8.3H-214.1z"/>
	<path id="XMLID_5_" class="st1" d="M-204.8,408.6v-1.5h1.3v1.5H-204.8z M-204.8,417.8V410h1.3v7.8H-204.8z"/>
	<path id="XMLID_8_" class="st1" d="M-196.4,416.9c-0.5,0.4-1,0.7-1.4,0.9c-0.4,0.2-0.9,0.3-1.5,0.3c-0.9,0-1.5-0.2-2-0.6
		s-0.7-1-0.7-1.6c0-0.4,0.1-0.7,0.3-1c0.2-0.3,0.4-0.6,0.7-0.8c0.3-0.2,0.6-0.3,0.9-0.4c0.3-0.1,0.6-0.1,1.2-0.2
		c1.1-0.1,1.8-0.3,2.4-0.5c0-0.2,0-0.3,0-0.3c0-0.5-0.1-0.9-0.4-1.1c-0.3-0.3-0.8-0.4-1.5-0.4c-0.6,0-1.1,0.1-1.4,0.3
		c-0.3,0.2-0.5,0.6-0.7,1.2l-1.3-0.2c0.1-0.6,0.3-1,0.6-1.3c0.3-0.3,0.7-0.6,1.2-0.8s1.1-0.3,1.8-0.3c0.7,0,1.2,0.1,1.6,0.2
		s0.7,0.4,0.9,0.6c0.2,0.2,0.3,0.5,0.4,0.9c0,0.2,0.1,0.6,0.1,1.2v1.8c0,1.2,0,2,0.1,2.3c0.1,0.3,0.2,0.6,0.3,0.9h-1.4
		C-196.3,417.6-196.4,417.2-196.4,416.9z M-196.5,413.9c-0.5,0.2-1.2,0.4-2.2,0.5c-0.5,0.1-0.9,0.2-1.1,0.3
		c-0.2,0.1-0.4,0.2-0.5,0.4c-0.1,0.2-0.2,0.4-0.2,0.6c0,0.4,0.1,0.6,0.4,0.9c0.3,0.2,0.7,0.4,1.2,0.4s1-0.1,1.4-0.3
		c0.4-0.2,0.7-0.5,0.9-0.9c0.1-0.3,0.2-0.7,0.2-1.3v-0.6H-196.5z"/>
	<path id="XMLID_11_" class="st1" d="M-193.4,418.5l1.3,0.2c0.1,0.4,0.2,0.7,0.4,0.9c0.3,0.2,0.8,0.4,1.3,0.4c0.6,0,1.1-0.1,1.4-0.4
		c0.3-0.3,0.6-0.6,0.7-1c0.1-0.3,0.1-0.8,0.1-1.7c-0.6,0.7-1.3,1-2.2,1c-1.1,0-1.9-0.4-2.5-1.2c-0.6-0.8-0.9-1.7-0.9-2.8
		c0-0.7,0.1-1.4,0.4-2.1c0.3-0.6,0.7-1.1,1.2-1.5c0.5-0.3,1.1-0.5,1.8-0.5c0.9,0,1.7,0.4,2.3,1.1V410h1.2v6.7c0,1.2-0.1,2.1-0.4,2.6
		c-0.2,0.5-0.6,0.9-1.2,1.2c-0.5,0.3-1.2,0.4-2,0.4c-0.9,0-1.7-0.2-2.2-0.6C-193.1,419.9-193.4,419.3-193.4,418.5z M-192.3,413.8
		c0,1,0.2,1.8,0.6,2.2c0.4,0.5,0.9,0.7,1.5,0.7c0.6,0,1.1-0.2,1.5-0.7c0.4-0.5,0.6-1.2,0.6-2.2s-0.2-1.7-0.6-2.2
		c-0.4-0.5-0.9-0.7-1.5-0.7c-0.6,0-1.1,0.2-1.5,0.7C-192.1,412.2-192.3,412.9-192.3,413.8z"/>
	<path id="XMLID_14_" class="st1" d="M-184.8,417.8V410h1.2v1.2c0.3-0.6,0.6-0.9,0.8-1.1c0.3-0.2,0.5-0.3,0.8-0.3
		c0.4,0,0.9,0.1,1.4,0.4l-0.4,1.3c-0.3-0.2-0.6-0.3-1-0.3c-0.3,0-0.5,0.1-0.8,0.3c-0.2,0.2-0.4,0.4-0.5,0.7c-0.1,0.5-0.2,1-0.2,1.5
		v4.1H-184.8z"/>
	<path id="XMLID_16_" class="st1" d="M-174.7,416.9c-0.5,0.4-1,0.7-1.4,0.9c-0.4,0.2-0.9,0.3-1.5,0.3c-0.9,0-1.5-0.2-2-0.6
		s-0.7-1-0.7-1.6c0-0.4,0.1-0.7,0.3-1c0.2-0.3,0.4-0.6,0.7-0.8c0.3-0.2,0.6-0.3,0.9-0.4c0.3-0.1,0.6-0.1,1.2-0.2
		c1.1-0.1,1.8-0.3,2.4-0.5c0-0.2,0-0.3,0-0.3c0-0.5-0.1-0.9-0.4-1.1c-0.3-0.3-0.8-0.4-1.5-0.4c-0.6,0-1.1,0.1-1.4,0.3
		c-0.3,0.2-0.5,0.6-0.7,1.2l-1.2-0.4c0.1-0.6,0.3-1,0.6-1.3c0.3-0.3,0.7-0.6,1.2-0.8c0.5-0.2,1.1-0.3,1.8-0.3c0.7,0,1.2,0.1,1.6,0.2
		c0.4,0.1,0.7,0.4,0.9,0.6c0.2,0.2,0.3,0.5,0.4,0.9c0,0.2,0.1,0.6,0.1,1.2v1.8c0,1.2,0,2,0.1,2.3s0.2,0.6,0.3,0.9h-1.4
		C-174.6,417.6-174.7,417.2-174.7,416.9z M-174.8,413.9c-0.5,0.2-1.2,0.4-2.2,0.5c-0.5,0.1-0.9,0.2-1.1,0.3
		c-0.2,0.1-0.4,0.2-0.5,0.4c-0.1,0.2-0.2,0.4-0.2,0.6c0,0.4,0.1,0.6,0.4,0.9c0.3,0.2,0.7,0.4,1.2,0.4s1-0.1,1.4-0.3
		c0.4-0.2,0.7-0.5,0.9-0.9c0.1-0.3,0.2-0.7,0.2-1.3v-0.6H-174.8z"/>
	<path id="XMLID_19_" class="st1" d="M-171.5,417.8V410h1.2v1.1c0.2-0.4,0.6-0.7,1-0.9c0.4-0.2,0.9-0.3,1.4-0.3c0.6,0,1,0.1,1.4,0.4
		c0.4,0.2,0.6,0.6,0.8,1c0.6-0.9,1.4-1.4,2.4-1.4c0.8,0,1.4,0.2,1.8,0.6c0.4,0.4,0.6,1.1,0.6,2v5.3h-1.3v-4.9c0-0.5,0-0.9-0.1-1.1
		c-0.1-0.2-0.2-0.4-0.5-0.6c-0.3-0.2-0.5-0.2-0.8-0.2c-0.5,0-1,0.2-1.4,0.5c-0.4,0.4-0.5,0.9-0.5,1.7v4.5h-1.3v-5.1
		c0-0.6-0.1-1-0.3-1.3c-0.2-0.3-0.6-0.4-1.1-0.4c-0.4,0-0.7,0.1-1,0.3c-0.3,0.2-0.5,0.5-0.7,0.9c-0.2,0.4-0.2,0.9-0.2,1.6v4
		L-171.5,417.8L-171.5,417.8z"/>
	<path id="XMLID_23_" class="st1" d="M-153.9,416.9c-0.5,0.4-1,0.7-1.4,0.9c-0.5,0.2-0.9,0.3-1.5,0.3c-0.9,0-1.5-0.2-2-0.6
		s-0.7-1-0.7-1.6c0-0.4,0.1-0.7,0.3-1s0.4-0.6,0.7-0.8c0.3-0.2,0.6-0.3,0.9-0.4c0.3-0.1,0.6-0.1,1.2-0.2c1.1-0.1,1.8-0.3,2.4-0.5
		c0-0.2,0-0.3,0-0.3c0-0.5-0.1-0.9-0.4-1.1c-0.3-0.3-0.8-0.4-1.5-0.4c-0.6,0-1.1,0.1-1.4,0.3c-0.3,0.2-0.5,0.6-0.7,1.2l-1.3-0.2
		c0.1-0.6,0.3-1,0.6-1.3c0.3-0.3,0.7-0.6,1.2-0.8s1.1-0.3,1.8-0.3c0.7,0,1.2,0.1,1.6,0.2s0.7,0.4,0.9,0.6c0.2,0.2,0.3,0.5,0.4,0.9
		c0,0.2,0.1,0.6,0.1,1.2v1.8c0,1.2,0,2,0.1,2.3c0.1,0.3,0.2,0.6,0.3,0.9h-1.4C-153.8,417.6-153.9,417.2-153.9,416.9z M-154,413.9
		c-0.5,0.2-1.2,0.4-2.2,0.5c-0.5,0.1-0.9,0.2-1.2,0.3c-0.3,0.1-0.4,0.2-0.5,0.4c0,0.2-0.1,0.4-0.1,0.6c0,0.4,0.1,0.6,0.4,0.9
		c0.3,0.2,0.7,0.4,1.2,0.4s1-0.1,1.4-0.3c0.4-0.2,0.7-0.5,0.9-0.9c0.1-0.3,0.2-0.7,0.2-1.3v-0.6H-154z"/>
	<path id="XMLID_28_" class="st1" d="M-141.4,417.8v-1c-0.5,0.8-1.2,1.2-2.2,1.2c-0.6,0-1.2-0.2-1.7-0.5s-0.9-0.8-1.2-1.4
		c-0.3-0.6-0.4-1.3-0.4-2.1s0.1-1.5,0.4-2.1c0.3-0.6,0.6-1.1,1.2-1.5c0.6-0.4,1.1-0.5,1.7-0.5c0.5,0,0.9,0.1,1.3,0.3
		c0.4,0.2,0.7,0.5,0.9,0.8v-3.9h1.3v10.7H-141.4z M-145.6,414c0,1,0.2,1.7,0.6,2.2s0.9,0.7,1.5,0.7s1.1-0.2,1.5-0.7s0.6-1.2,0.6-2.2
		c0-1.1-0.2-1.8-0.6-2.3s-0.9-0.7-1.5-0.7s-1.1,0.2-1.5,0.7S-145.6,412.9-145.6,414z"/>
	<path id="XMLID_31_" class="st1" d="M-132.8,415.3l1.4,0.2c-0.2,0.8-0.6,1.4-1.2,1.9c-0.6,0.5-1.3,0.7-2.2,0.7
		c-1.1,0-2-0.4-2.7-1.1c-0.7-0.7-1-1.7-1-2.9c0-1.3,0.3-2.3,1-3c0.7-0.7,1.5-1.1,2.6-1.1c1,0,1.9,0.4,2.5,1.1c0.6,0.7,1,1.7,1,3
		c0,0.1,0,0.2,0,0.4h-5.8c0,0.9,0.3,1.5,0.7,2s1,0.7,1.6,0.7c0.5,0,0.9-0.1,1.2-0.4C-133.4,416.5-133,415.9-132.8,415.3z
		 M-137.1,413.2h4.3c-0.1-0.7-0.2-1.1-0.5-1.5c-0.4-0.5-1-0.8-1.6-0.8s-1.1,0.2-1.5,0.6C-136.8,412-137.1,412.5-137.1,413.2z"/>
	<path id="XMLID_34_" class="st1" d="M-212.1,433.8l4.1-10.7h1.5l4.5,10.7h-1.6l-1.3-3.3h-4.5l-1.2,3.3H-212.1z M-209,429.4h3.6
		l-1.1-3c-0.3-0.9-0.6-1.6-0.8-2.2c-0.1,0.7-0.3,1.4-0.6,2.1L-209,429.4z"/>
	<path id="XMLID_37_" class="st1" d="M-196,431l1.3,0.2c-0.1,0.9-0.5,1.6-1.1,2.1c-0.6,0.5-1.3,0.8-2.1,0.8c-1.1,0-1.9-0.3-2.6-1
		c-0.6-0.7-1-1.7-1-3c0-0.8,0.1-1.6,0.4-2.2s0.7-1.1,1.3-1.4c0.6-0.3,1.2-0.5,1.9-0.5c0.8,0,1.5,0.2,2.1,0.6c0.5,0.4,0.9,1,1,1.8
		l-1.3,0.2c-0.1-0.5-0.3-0.9-0.6-1.2s-0.7-0.4-1.1-0.4c-0.7,0-1.2,0.2-1.6,0.7s-0.6,1.2-0.6,2.3c0,1,0.2,1.8,0.6,2.3
		s0.9,0.7,1.6,0.7c0.5,0,0.9-0.2,1.3-0.5C-196.1,432.2-196.1,431.6-196,431z"/>
	<path id="XMLID_39_" class="st1" d="M-190.7,432.7l0.2,1.2c-0.4,0.1-0.7,0.1-1,0.1c-0.5,0-0.8-0.1-1.1-0.2
		c-0.3-0.1-0.4-0.3-0.6-0.6c-0.1-0.2-0.2-0.8-0.2-1.6v-4.5h-1v-1h1v-1.9l1.3-0.8v2.7h1.3v1h-1.2v4.5c0,0.4,0,0.6,0.1,0.7
		c0,0.1,0.1,0.2,0.2,0.3c0.1,0.1,0.3,0.1,0.5,0.1C-191.1,432.7-190.9,432.7-190.7,432.7z"/>
	<path id="XMLID_41_" class="st1" d="M-189.4,424.6v-1.5h1.3v1.5H-189.4z M-189.4,433.8V426h1.3v7.8H-189.4z"/>
	<path id="XMLID_44_" class="st1" d="M-183.9,433.8l-3-7.8h1.4l1.7,4.7c0.2,0.5,0.3,1,0.5,1.6c0.1-0.4,0.3-0.9,0.5-1.5l1.7-4.7h1.4
		l-2.9,7.8h-1.3V433.8z"/>
	<path id="XMLID_46_" class="st1" d="M-178.6,424.6v-1.5h1.3v1.5H-178.6z M-178.6,433.8V426h1.3v7.8H-178.6z"/>
	<path id="XMLID_49_" class="st1" d="M-170.2,433.8v-1c-0.5,0.8-1.2,1.2-2.2,1.2c-0.6,0-1.2-0.2-1.7-0.5s-0.9-0.8-1.2-1.4
		s-0.4-1.3-0.4-2.1c0-0.8,0.1-1.5,0.4-2.1s0.6-1.1,1.2-1.5c0.6-0.4,1.1-0.5,1.7-0.5c0.5,0,0.9,0.1,1.3,0.3c0.4,0.2,0.7,0.5,0.9,0.8
		v-3.9h1.2v10.7C-169,433.8-170.2,433.8-170.2,433.8z M-174.3,430c0,1,0.2,1.7,0.6,2.2c0.4,0.5,0.9,0.7,1.5,0.7
		c0.6,0,1.1-0.2,1.5-0.7s0.6-1.2,0.6-2.2c0-1.1-0.2-1.8-0.6-2.3s-0.9-0.7-1.5-0.7s-1.1,0.2-1.5,0.7S-174.3,428.9-174.3,430z"/>
	<path id="XMLID_52_" class="st1" d="M-161.8,432.9c-0.5,0.4-1,0.7-1.4,0.9c-0.5,0.2-0.9,0.3-1.5,0.3c-0.9,0-1.5-0.2-2-0.6
		s-0.7-1-0.7-1.6c0-0.4,0.1-0.7,0.3-1c0.2-0.3,0.4-0.6,0.7-0.8c0.3-0.2,0.6-0.3,0.9-0.4s0.6-0.1,1.2-0.2c1.1-0.1,1.8-0.3,2.4-0.5
		c0-0.2,0-0.3,0-0.3c0-0.5-0.1-0.9-0.4-1.1c-0.3-0.3-0.8-0.4-1.5-0.4c-0.6,0-1.1,0.1-1.4,0.3c-0.3,0.2-0.5,0.6-0.7,1.2l-1.3-0.2
		c0.1-0.6,0.3-1,0.6-1.3c0.3-0.3,0.7-0.6,1.2-0.8c0.5-0.2,1.1-0.3,1.8-0.3c0.7,0,1.2,0.1,1.6,0.2c0.4,0.1,0.7,0.4,0.9,0.6
		c0.2,0.2,0.3,0.5,0.4,0.9c0,0.2,0.1,0.6,0.1,1.2v1.8c0,1.2,0,2,0.1,2.3c0.1,0.3,0.2,0.6,0.3,0.9h-1.4
		C-161.7,433.6-161.8,433.2-161.8,432.9z M-161.9,429.9c-0.5,0.2-1.2,0.4-2.2,0.5c-0.5,0.1-0.9,0.2-1.1,0.3
		c-0.2,0.1-0.4,0.2-0.5,0.4c-0.1,0.2-0.2,0.4-0.2,0.6c0,0.4,0.1,0.6,0.4,0.9c0.3,0.2,0.7,0.4,1.2,0.4s1-0.1,1.4-0.3
		c0.4-0.2,0.7-0.5,0.9-0.9c0.1-0.3,0.2-0.7,0.2-1.3v-0.6H-161.9z"/>
	<path id="XMLID_55_" class="st1" d="M-153.5,433.8v-1c-0.5,0.8-1.2,1.2-2.2,1.2c-0.6,0-1.2-0.2-1.7-0.5s-0.9-0.8-1.2-1.4
		s-0.4-1.4-0.4-2.1c0-0.8,0.1-1.5,0.4-2.1c0.3-0.6,0.6-1.1,1.2-1.5c0.6-0.4,1.1-0.5,1.7-0.5c0.5,0,0.9,0.1,1.3,0.3
		c0.4,0.2,0.7,0.5,0.9,0.8v-3.9h1.3v10.7H-153.5z M-157.7,430c0,1,0.2,1.7,0.6,2.2c0.4,0.5,0.9,0.7,1.5,0.7c0.6,0,1.1-0.2,1.5-0.7
		c0.4-0.5,0.6-1.2,0.6-2.2c0-1.1-0.2-1.8-0.6-2.3c-0.4-0.5-0.9-0.7-1.5-0.7c-0.6,0-1.1,0.2-1.5,0.7
		C-157.5,428.2-157.7,428.9-157.7,430z"/>
	<path id="XMLID_58_" class="st1" d="M-144.9,431.3l1.4,0.2c-0.2,0.8-0.6,1.4-1.2,1.9s-1.3,0.7-2.2,0.7c-1.1,0-2-0.4-2.7-1.1
		s-1-1.7-1-2.9c0-1.3,0.3-2.3,1-3c0.7-0.7,1.5-1.1,2.6-1.1c1,0,1.9,0.4,2.5,1.1c0.6,0.7,1,1.7,1,3c0,0.1,0,0.2,0,0.4h-5.8
		c0,0.9,0.3,1.5,0.7,2s1,0.7,1.6,0.7c0.5,0,0.9-0.1,1.2-0.4C-145.5,432.5-145.1,431.9-144.9,431.3z M-149.2,429.2h4.3
		c-0.1-0.7-0.2-1.1-0.5-1.5c-0.4-0.5-1-0.8-1.6-0.8c-0.6,0-1.1,0.2-1.5,0.6C-148.9,428-149.2,428.5-149.2,429.2z"/>
	<path id="XMLID_61_" class="st1" d="M-142.4,431.5l1.3-0.2c0.1,0.5,0.3,0.9,0.6,1.2c0.3,0.3,0.8,0.4,1.4,0.4c0.6,0,1.1-0.1,1.3-0.4
		c0.3-0.2,0.4-0.5,0.4-0.9c0-0.3-0.1-0.5-0.4-0.7c-0.2-0.1-0.6-0.3-1.3-0.4c-1-0.2-1.6-0.5-2-0.6c-0.4-0.2-0.7-0.4-0.8-0.7
		c-0.2-0.3-0.3-0.7-0.3-1c0-0.3,0.1-0.7,0.2-1c0.2-0.3,0.4-0.5,0.6-0.7c0.2-0.2,0.5-0.3,0.8-0.4c0.4-0.1,0.7-0.2,1.1-0.2
		c0.6,0,1.1,0.1,1.6,0.3c0.5,0.2,0.8,0.4,1,0.7s0.4,0.7,0.5,1.2l-1.3,0.2c-0.1-0.4-0.2-0.7-0.5-0.9s-0.7-0.3-1.2-0.3
		c-0.6,0-1,0.1-1.3,0.3c-0.3,0.2-0.4,0.4-0.4,0.7c0,0.2,0.1,0.3,0.2,0.5c0.1,0.1,0.3,0.3,0.5,0.4c0.1,0,0.5,0.2,1.2,0.3
		c0.9,0.2,1.6,0.5,2,0.6c0.4,0.2,0.7,0.4,0.9,0.7c0.2,0.3,0.3,0.7,0.3,1.1c0,0.4-0.1,0.9-0.4,1.2c-0.3,0.4-0.6,0.7-1.1,0.9
		c-0.5,0.2-1,0.3-1.6,0.3c-1,0-1.8-0.2-2.3-0.6C-141.9,433-142.2,432.3-142.4,431.5z"/>
</g>
</svg>
