<?xml version="1.0" encoding="utf-8"?>
<!-- Generator: Adobe Illustrator 19.0.0, SVG Export Plug-In . SVG Version: 6.00 Build 0)  -->
<svg version="1.1" id="Capa_1" xmlns="http://www.w3.org/2000/svg" xmlns:xlink="http://www.w3.org/1999/xlink" x="0px" y="0px"
	 viewBox="-242 399.7 109.1 43.2" style="enable-background:new -242 399.7 109.1 43.2;" xml:space="preserve">
<style type="text/css">
	.st0{fill:#F9D523;}
	.st1{fill:#252527;}
</style>
<g id="XMLID_14794_">
	<rect x="-240.5" y="401.2" class="st0" width="106.1" height="40.2"/>
	<path class="st1" d="M-135.9,402.7v37.2H-239v-37.2H-135.9 M-132.9,399.7H-242v43.2h109.1V399.7L-132.9,399.7z"/>
</g>
<g id="XMLID_1_">
	<path id="XMLID_2_" class="st1" d="M-218.8,417.8v-10.7h3.7c0.8,0,1.5,0.1,1.9,0.2c0.7,0.1,1.2,0.4,1.6,0.7c0.6,0.5,1,1.1,1.3,1.8
		c0.3,0.7,0.4,1.6,0.4,2.6c0,0.8-0.1,1.5-0.3,2.2c-0.2,0.7-0.4,1.2-0.7,1.6c-0.3,0.4-0.6,0.7-1,1c-0.4,0.2-0.8,0.4-1.3,0.5
		c-0.5,0.1-1.1,0.2-1.7,0.2h-3.9V417.8z M-217.4,416.6h2.3c0.7,0,1.3-0.1,1.7-0.2c0.4-0.1,0.7-0.3,1-0.6c0.3-0.3,0.6-0.8,0.8-1.4
		c0.2-0.6,0.3-1.3,0.3-2.1c0-1.1-0.2-2-0.6-2.6c-0.4-0.6-0.8-1-1.3-1.2c-0.4-0.1-1-0.2-1.8-0.2h-2.3L-217.4,416.6L-217.4,416.6z"/>
	<path id="XMLID_5_" class="st1" d="M-208.1,408.6v-1.5h1.3v1.5H-208.1z M-208.1,417.8V410h1.3v7.8H-208.1z"/>
	<path id="XMLID_8_" class="st1" d="M-199.7,416.9c-0.5,0.4-1,0.7-1.4,0.9c-0.4,0.2-0.9,0.3-1.5,0.3c-0.9,0-1.5-0.2-2-0.6
		s-0.7-1-0.7-1.6c0-0.4,0.1-0.7,0.3-1c0.2-0.3,0.4-0.6,0.7-0.8c0.3-0.2,0.6-0.3,0.9-0.4c0.3-0.1,0.6-0.1,1.2-0.2
		c1.1-0.1,1.8-0.3,2.4-0.5c0-0.2,0-0.3,0-0.3c0-0.5-0.1-0.9-0.4-1.1c-0.3-0.3-0.8-0.4-1.5-0.4c-0.6,0-1.1,0.1-1.4,0.3
		c-0.3,0.2-0.5,0.6-0.7,1.2l-1.2-0.4c0.1-0.6,0.3-1,0.6-1.3c0.3-0.3,0.7-0.6,1.2-0.8c0.5-0.2,1.1-0.3,1.8-0.3c0.7,0,1.2,0.1,1.6,0.2
		c0.4,0.1,0.7,0.4,0.9,0.6c0.2,0.2,0.3,0.5,0.4,0.9c0,0.2,0.1,0.6,0.1,1.2v1.8c0,1.2,0,2,0.1,2.3s0.2,0.6,0.3,0.9h-1.4
		C-199.6,417.6-199.7,417.2-199.7,416.9z M-199.8,413.9c-0.5,0.2-1.2,0.4-2.2,0.5c-0.5,0.1-0.9,0.2-1.1,0.3
		c-0.2,0.1-0.4,0.2-0.5,0.4c-0.1,0.2-0.2,0.4-0.2,0.6c0,0.4,0.1,0.6,0.4,0.9c0.3,0.2,0.7,0.4,1.2,0.4s1-0.1,1.4-0.3
		c0.4-0.2,0.7-0.5,0.9-0.9c0.1-0.3,0.2-0.7,0.2-1.3v-0.6H-199.8z"/>
	<path id="XMLID_11_" class="st1" d="M-196.7,418.5l1.3,0.2c0.1,0.4,0.2,0.7,0.4,0.9c0.3,0.2,0.8,0.4,1.3,0.4c0.6,0,1.1-0.1,1.4-0.4
		c0.3-0.3,0.6-0.6,0.7-1c0.1-0.3,0.1-0.8,0.1-1.7c-0.6,0.7-1.3,1-2.2,1c-1.1,0-1.9-0.4-2.5-1.2c-0.6-0.8-0.9-1.7-0.9-2.8
		c0-0.7,0.1-1.4,0.4-2.1c0.3-0.6,0.7-1.1,1.2-1.5c0.5-0.3,1.1-0.5,1.8-0.5c0.9,0,1.7,0.4,2.3,1.1V410h1.2v6.7c0,1.2-0.1,2.1-0.4,2.6
		c-0.2,0.5-0.6,0.9-1.2,1.2c-0.5,0.3-1.2,0.4-2,0.4c-0.9,0-1.7-0.2-2.2-0.6C-196.4,419.9-196.7,419.3-196.7,418.5z M-195.6,413.8
		c0,1,0.2,1.8,0.6,2.2c0.4,0.5,0.9,0.7,1.5,0.7s1.1-0.2,1.5-0.7s0.6-1.2,0.6-2.2s-0.2-1.7-0.6-2.2s-0.9-0.7-1.5-0.7
		s-1.1,0.2-1.5,0.7C-195.4,412.2-195.6,412.9-195.6,413.8z"/>
	<path id="XMLID_14_" class="st1" d="M-188.1,417.8V410h1.2v1.2c0.3-0.6,0.6-0.9,0.8-1.1c0.3-0.2,0.5-0.3,0.8-0.3
		c0.4,0,0.9,0.1,1.4,0.4l-0.5,1.2c-0.3-0.2-0.6-0.3-1-0.3c-0.3,0-0.5,0.1-0.8,0.3c-0.2,0.2-0.4,0.4-0.5,0.7c-0.1,0.5-0.2,1-0.2,1.5
		v4.1h-1.2V417.8z"/>
	<path id="XMLID_16_" class="st1" d="M-178,416.9c-0.5,0.4-1,0.7-1.4,0.9c-0.5,0.2-0.9,0.3-1.5,0.3c-0.9,0-1.5-0.2-2-0.6
		s-0.7-1-0.7-1.6c0-0.4,0.1-0.7,0.3-1s0.4-0.6,0.7-0.8c0.3-0.2,0.6-0.3,0.9-0.4c0.3-0.1,0.6-0.1,1.2-0.2c1.1-0.1,1.8-0.3,2.4-0.5
		c0-0.2,0-0.3,0-0.3c0-0.5-0.1-0.9-0.4-1.1c-0.3-0.3-0.8-0.4-1.5-0.4c-0.6,0-1.1,0.1-1.4,0.3c-0.3,0.2-0.5,0.6-0.7,1.2l-1.3-0.2
		c0.1-0.6,0.3-1,0.6-1.3c0.3-0.3,0.7-0.6,1.2-0.8s1.1-0.3,1.8-0.3s1.2,0.1,1.6,0.2c0.4,0.2,0.7,0.4,0.9,0.6s0.3,0.5,0.4,0.9
		c0,0.2,0.1,0.6,0.1,1.2v1.8c0,1.2,0,2,0.1,2.3c0.1,0.3,0.2,0.6,0.3,0.9h-1.4C-177.9,417.6-178,417.2-178,416.9z M-178.1,413.9
		c-0.5,0.2-1.2,0.4-2.2,0.5c-0.5,0.1-0.9,0.2-1.1,0.3c-0.2,0.1-0.4,0.2-0.5,0.4c-0.1,0.2-0.2,0.4-0.2,0.6c0,0.4,0.1,0.6,0.4,0.9
		c0.3,0.2,0.7,0.4,1.2,0.4s1-0.1,1.4-0.3c0.4-0.2,0.7-0.5,0.9-0.9c0.1-0.3,0.2-0.7,0.2-1.3v-0.6H-178.1z"/>
	<path id="XMLID_19_" class="st1" d="M-174.8,417.8V410h1.2v1.1c0.2-0.4,0.6-0.7,1-0.9c0.4-0.2,0.9-0.3,1.4-0.3c0.6,0,1,0.1,1.4,0.4
		c0.4,0.2,0.6,0.6,0.8,1c0.6-0.9,1.4-1.4,2.4-1.4c0.8,0,1.4,0.2,1.8,0.6c0.4,0.4,0.6,1.1,0.6,2v5.3h-1.3v-4.9c0-0.5,0-0.9-0.1-1.1
		c-0.1-0.2-0.2-0.4-0.5-0.6c-0.3-0.2-0.5-0.2-0.8-0.2c-0.5,0-1,0.2-1.4,0.5c-0.4,0.4-0.5,0.9-0.5,1.7v4.5h-1.3v-5.1
		c0-0.6-0.1-1-0.3-1.3c-0.2-0.3-0.6-0.4-1.1-0.4c-0.4,0-0.7,0.1-1,0.3c-0.3,0.2-0.5,0.5-0.7,0.9c-0.2,0.4-0.2,0.9-0.2,1.6v4
		L-174.8,417.8L-174.8,417.8z"/>
	<path id="XMLID_23_" class="st1" d="M-157.2,416.9c-0.5,0.4-1,0.7-1.4,0.9c-0.5,0.2-0.9,0.3-1.5,0.3c-0.9,0-1.5-0.2-2-0.6
		s-0.7-1-0.7-1.6c0-0.4,0.1-0.7,0.3-1c0.2-0.3,0.4-0.6,0.7-0.8c0.3-0.2,0.6-0.3,0.9-0.4c0.3-0.1,0.6-0.1,1.2-0.2
		c1.1-0.1,1.8-0.3,2.4-0.5c0-0.2,0-0.3,0-0.3c0-0.5-0.1-0.9-0.4-1.1c-0.3-0.3-0.8-0.4-1.5-0.4c-0.6,0-1.1,0.1-1.4,0.3
		c-0.3,0.2-0.5,0.6-0.7,1.2l-1.3-0.2c0.1-0.6,0.3-1,0.6-1.3c0.3-0.3,0.7-0.6,1.2-0.8s1.1-0.3,1.8-0.3c0.7,0,1.2,0.1,1.6,0.2
		c0.4,0.1,0.7,0.4,0.9,0.6c0.2,0.2,0.3,0.5,0.4,0.9c0,0.2,0.1,0.6,0.1,1.2v1.8c0,1.2,0,2,0.1,2.3c0.1,0.3,0.2,0.6,0.3,0.9h-1.4
		C-157.1,417.6-157.1,417.2-157.2,416.9z M-157.3,413.9c-0.5,0.2-1.2,0.4-2.2,0.5c-0.5,0.1-0.9,0.2-1.2,0.3
		c-0.3,0.1-0.4,0.2-0.5,0.4c-0.1,0.2-0.2,0.4-0.2,0.6c0,0.4,0.1,0.6,0.4,0.9c0.3,0.2,0.7,0.4,1.2,0.4s1-0.1,1.4-0.3
		c0.4-0.2,0.7-0.5,0.9-0.9c0.1-0.3,0.2-0.7,0.2-1.3C-157.3,414.5-157.3,413.9-157.3,413.9z"/>
	<path id="XMLID_28_" class="st1" d="M-217.7,433.8v-1c-0.5,0.8-1.2,1.2-2.2,1.2c-0.6,0-1.2-0.2-1.7-0.5s-0.9-0.8-1.2-1.4
		s-0.4-1.3-0.4-2.1c0-0.8,0.1-1.5,0.4-2.1s0.6-1.1,1.2-1.5c0.6-0.4,1.1-0.5,1.7-0.5c0.5,0,0.9,0.1,1.3,0.3c0.4,0.2,0.7,0.5,0.9,0.8
		v-3.9h1.3v10.7C-216.4,433.8-217.7,433.8-217.7,433.8z M-221.8,430c0,1,0.2,1.7,0.6,2.2c0.4,0.5,0.9,0.7,1.5,0.7
		c0.6,0,1.1-0.2,1.5-0.7c0.4-0.5,0.6-1.2,0.6-2.2c0-1.1-0.2-1.8-0.6-2.3c-0.4-0.5-0.9-0.7-1.5-0.7c-0.6,0-1.1,0.2-1.5,0.7
		C-221.6,428.2-221.8,428.9-221.8,430z"/>
	<path id="XMLID_31_" class="st1" d="M-209,431.3l1.4,0.2c-0.2,0.8-0.6,1.4-1.2,1.9c-0.6,0.5-1.3,0.7-2.2,0.7c-1.1,0-2-0.4-2.7-1.1
		s-1-1.7-1-2.9c0-1.3,0.3-2.3,1-3c0.7-0.7,1.5-1.1,2.6-1.1c1,0,1.9,0.4,2.5,1.1c0.6,0.7,1,1.7,1,3c0,0.1,0,0.2,0,0.4h-5.8
		c0,0.9,0.3,1.5,0.7,2s1,0.7,1.6,0.7c0.5,0,0.9-0.1,1.2-0.4C-209.6,432.5-209.2,431.9-209,431.3z M-213.4,429.2h4.4
		c-0.1-0.7-0.2-1.1-0.5-1.5c-0.4-0.5-1-0.8-1.6-0.8c-0.6,0-1.1,0.2-1.5,0.6C-213.1,428-213.3,428.5-213.4,429.2z"/>
	<path id="XMLID_34_" class="st1" d="M-202.1,428.6c0-1.8,0.5-3.2,1.4-4.2c1-1,2.2-1.5,3.7-1.5c1,0,1.9,0.2,2.7,0.7
		c0.8,0.5,1.4,1.1,1.8,2c0.4,0.8,0.6,1.8,0.6,2.9s-0.2,2.1-0.7,2.9c-0.5,0.8-1.1,1.5-1.9,2c-0.8,0.4-1.7,0.7-2.6,0.7
		c-1,0-1.9-0.2-2.7-0.7s-1.4-1.2-1.8-2C-202,430.6-202.1,429.5-202.1,428.6z M-200.7,428.6c0,1.3,0.3,2.3,1,3.1
		c0.7,0.7,1.6,1.1,2.6,1.1c1.1,0,1.9-0.4,2.6-1.1c0.7-0.7,1-1.8,1-3.2c0-0.9-0.1-1.6-0.4-2.3c-0.3-0.7-0.7-1.2-1.3-1.5
		c-0.6-0.4-1.2-0.5-1.9-0.5c-1,0-1.9,0.3-2.6,1C-200.3,425.9-200.7,427-200.7,428.6z"/>
	<path id="XMLID_37_" class="st1" d="M-189,433.8h-1.2v-10.7h1.3v3.8c0.6-0.7,1.3-1,2.1-1c0.5,0,0.9,0.1,1.4,0.3
		c0.4,0.2,0.8,0.5,1.1,0.8c0.3,0.3,0.5,0.8,0.6,1.3c0.1,0.5,0.2,1,0.2,1.6c0,1.3-0.3,2.4-1,3.1c-0.7,0.7-1.5,1.1-2.4,1.1
		c-0.9,0-1.6-0.4-2.2-1.2v0.9H-189z M-189,429.9c0,0.9,0.1,1.6,0.4,2c0.4,0.7,1,1,1.7,1c0.6,0,1.1-0.3,1.5-0.8
		c0.4-0.5,0.6-1.2,0.6-2.2s-0.2-1.8-0.6-2.2c-0.4-0.5-0.9-0.7-1.5-0.7c-0.6,0-1.1,0.3-1.5,0.8C-188.8,428.2-189,428.9-189,429.9z"/>
	<path id="XMLID_40_" class="st1" d="M-183.5,436.9l0.2-1.1c0.3,0.1,0.5,0.1,0.6,0.1c0.3,0,0.5-0.1,0.6-0.3c0.1-0.2,0.2-0.6,0.2-1.3
		v-8.2h1.3v8.2c0,1-0.1,1.6-0.4,2c-0.3,0.5-0.8,0.7-1.6,0.7C-182.8,437-183.2,436.9-183.5,436.9z M-181.9,424.6v-1.5h1.3v1.5H-181.9
		z"/>
	<path id="XMLID_43_" class="st1" d="M-173.2,431.3l1.4,0.2c-0.2,0.8-0.6,1.4-1.2,1.9c-0.6,0.5-1.3,0.7-2.2,0.7
		c-1.1,0-2-0.4-2.7-1.1c-0.7-0.7-1-1.7-1-2.9c0-1.3,0.3-2.3,1-3c0.7-0.7,1.5-1.1,2.6-1.1c1,0,1.9,0.4,2.5,1.1c0.6,0.7,1,1.7,1,3
		c0,0.1,0,0.2,0,0.4h-5.8c0,0.9,0.3,1.5,0.7,2s1,0.7,1.6,0.7c0.5,0,0.9-0.1,1.2-0.4C-173.8,432.5-173.4,431.9-173.2,431.3z
		 M-177.5,429.2h4.3c-0.1-0.7-0.2-1.1-0.5-1.5c-0.4-0.5-1-0.8-1.6-0.8c-0.6,0-1.1,0.2-1.5,0.6C-177.2,428-177.5,428.5-177.5,429.2z"
		/>
	<path id="XMLID_46_" class="st1" d="M-167.3,432.7l0.2,1.2c-0.4,0.1-0.7,0.1-1,0.1c-0.5,0-0.8-0.1-1.1-0.2
		c-0.3-0.1-0.4-0.3-0.6-0.6c-0.1-0.2-0.2-0.8-0.2-1.6v-4.5h-1v-1h1v-1.9l1.3-0.8v2.7h1.3v1h-1.3v4.5c0,0.4,0,0.6,0.1,0.7
		c0,0.1,0.1,0.2,0.2,0.3c0.1,0.1,0.3,0.1,0.5,0.1C-167.7,432.7-167.5,432.7-167.3,432.7z"/>
	<path id="XMLID_48_" class="st1" d="M-166.5,429.9c0-1.4,0.4-2.5,1.2-3.2c0.7-0.6,1.5-0.9,2.4-0.9c1.1,0,1.9,0.4,2.6,1.1
		c0.7,0.7,1,1.7,1,2.9c0,1-0.2,1.8-0.5,2.4c-0.3,0.6-0.7,1-1.3,1.3s-1.2,0.5-1.9,0.5c-1.1,0-2-0.3-2.6-1
		C-166.2,432.3-166.5,431.3-166.5,429.9z M-165.1,429.9c0,1,0.2,1.7,0.7,2.2c0.4,0.5,1,0.7,1.6,0.7c0.7,0,1.2-0.2,1.6-0.7
		c0.4-0.5,0.7-1.3,0.7-2.3s-0.2-1.7-0.7-2.2c-0.4-0.5-1-0.7-1.6-0.7c-0.7,0-1.2,0.2-1.6,0.7C-164.8,428.1-165.1,429-165.1,429.9z"/>
	<path id="XMLID_51_" class="st1" d="M-158.2,431.5l1.3-0.2c0.1,0.5,0.3,0.9,0.6,1.2c0.3,0.3,0.8,0.4,1.4,0.4s1.1-0.1,1.3-0.4
		c0.3-0.2,0.4-0.5,0.4-0.9c0-0.3-0.1-0.5-0.4-0.7c-0.2-0.1-0.6-0.3-1.3-0.4c-1-0.2-1.6-0.5-2-0.6c-0.4-0.2-0.7-0.4-0.8-0.7
		c-0.2-0.3-0.3-0.7-0.3-1c0-0.3,0.1-0.7,0.2-1c0.2-0.3,0.4-0.5,0.6-0.7c0.2-0.2,0.5-0.3,0.8-0.4c0.4-0.1,0.7-0.2,1.1-0.2
		c0.6,0,1.1,0.1,1.6,0.3c0.5,0.2,0.8,0.4,1,0.7c0.2,0.3,0.4,0.7,0.5,1.2l-1.3,0.2c-0.1-0.4-0.2-0.7-0.5-0.9
		c-0.3-0.2-0.7-0.3-1.2-0.3c-0.6,0-1,0.1-1.3,0.3c-0.3,0.2-0.4,0.4-0.4,0.7c0,0.2,0.1,0.3,0.2,0.5c0.1,0.1,0.3,0.3,0.5,0.4
		c0.1,0,0.5,0.2,1.2,0.3c0.9,0.2,1.6,0.5,2,0.6c0.4,0.2,0.7,0.4,0.9,0.7c0.2,0.3,0.3,0.7,0.3,1.1c0,0.4-0.1,0.9-0.4,1.2
		c-0.3,0.4-0.6,0.7-1.1,0.9c-0.5,0.2-1,0.3-1.6,0.3c-1,0-1.8-0.2-2.3-0.6C-157.7,433-158,432.3-158.2,431.5z"/>
</g>
</svg>
