<?xml version="1.0" encoding="utf-8"?>
<!-- Generator: Adobe Illustrator 19.0.0, SVG Export Plug-In . SVG Version: 6.00 Build 0)  -->
<svg version="1.1" id="Capa_1" xmlns="http://www.w3.org/2000/svg" xmlns:xlink="http://www.w3.org/1999/xlink" x="0px" y="0px"
	 viewBox="0 0 184 45.5" style="enable-background:new 0 0 184 45.5;" xml:space="preserve">
<style type="text/css">
	.st0{fill:#F9D523;stroke:#252527;stroke-width:3;stroke-miterlimit:10;}
	.st1{fill:#252527;}
</style>
<rect id="XMLID_16121_" x="1.5" y="1.5" class="st0" width="181" height="42.5"/>
<g id="XMLID_168_">
	<g id="XMLID_485_">
		<path id="XMLID_516_" class="st1" d="M41,29V18.3h3.7c0.8,0,1.5,0.1,1.9,0.2c0.6,0.1,1.1,0.4,1.6,0.8c0.6,0.5,1,1.1,1.3,1.8
			c0.3,0.7,0.4,1.6,0.4,2.6c0,0.8-0.1,1.5-0.3,2.2s-0.4,1.2-0.7,1.6c-0.3,0.4-0.6,0.7-1,1s-0.8,0.4-1.3,0.5C46.1,29,45.5,29,44.9,29
			H41z M42.4,27.8h2.3c0.7,0,1.3-0.1,1.7-0.2c0.4-0.1,0.7-0.3,1-0.6c0.3-0.3,0.6-0.8,0.8-1.4c0.2-0.6,0.3-1.3,0.3-2.1
			c0-1.1-0.2-2-0.6-2.6c-0.4-0.6-0.8-1-1.3-1.2c-0.4-0.1-1-0.2-1.8-0.2h-2.3V27.8z"/>
		<path id="XMLID_513_" class="st1" d="M51.2,25.1c0-1.4,0.4-2.5,1.2-3.2c0.7-0.6,1.5-0.9,2.4-0.9c1.1,0,1.9,0.4,2.6,1.1
			c0.7,0.7,1,1.7,1,2.9c0,1-0.1,1.8-0.5,2.4c-0.3,0.6-0.7,1-1.3,1.3c-0.6,0.3-1.2,0.5-1.9,0.5c-1.1,0-2-0.3-2.6-1
			S51.2,26.5,51.2,25.1z M52.5,25.1c0,1,0.2,1.7,0.7,2.2c0.4,0.5,1,0.7,1.6,0.7c0.7,0,1.2-0.2,1.6-0.7s0.7-1.3,0.7-2.3
			c0-1-0.2-1.7-0.7-2.2c-0.4-0.5-1-0.7-1.6-0.7c-0.7,0-1.2,0.2-1.6,0.7C52.7,23.4,52.5,24.2,52.5,25.1z"/>
		<path id="XMLID_511_" class="st1" d="M65.1,26.2l1.3,0.2c-0.1,0.9-0.5,1.6-1.1,2.1c-0.6,0.5-1.3,0.8-2.1,0.8c-1.1,0-1.9-0.3-2.6-1
			c-0.6-0.7-1-1.7-1-3c0-0.8,0.1-1.6,0.4-2.2c0.3-0.6,0.7-1.1,1.3-1.4c0.6-0.3,1.2-0.5,1.9-0.5c0.8,0,1.5,0.2,2.1,0.6
			c0.5,0.4,0.9,1,1,1.8L65,23.7c-0.1-0.5-0.3-0.9-0.6-1.2c-0.3-0.3-0.7-0.4-1.1-0.4c-0.7,0-1.2,0.2-1.6,0.7
			c-0.4,0.5-0.6,1.2-0.6,2.3c0,1,0.2,1.8,0.6,2.3s0.9,0.7,1.6,0.7c0.5,0,0.9-0.2,1.3-0.5S65,26.8,65.1,26.2z"/>
		<path id="XMLID_509_" class="st1" d="M72.6,29v-1.1c-0.6,0.9-1.4,1.3-2.5,1.3c-0.5,0-0.9-0.1-1.3-0.3c-0.4-0.2-0.7-0.4-0.9-0.7
			c-0.2-0.3-0.3-0.6-0.4-1c-0.1-0.3-0.1-0.7-0.1-1.2v-4.8h1.3v4.3c0,0.7,0,1.2,0.1,1.4c0.1,0.3,0.3,0.6,0.5,0.8
			c0.3,0.2,0.6,0.3,1,0.3c0.4,0,0.8-0.1,1.1-0.3c0.3-0.2,0.6-0.5,0.7-0.8c0.1-0.3,0.2-0.9,0.2-1.5v-4.2h1.3V29H72.6z"/>
		<path id="XMLID_507_" class="st1" d="M75.8,29v-7.8H77v1.1c0.2-0.4,0.6-0.7,1-0.9c0.4-0.2,0.9-0.3,1.4-0.3c0.6,0,1,0.1,1.4,0.4
			s0.6,0.6,0.8,1c0.6-0.9,1.4-1.4,2.4-1.4c0.8,0,1.4,0.2,1.8,0.6c0.4,0.4,0.6,1.1,0.6,2V29h-1.3v-4.9c0-0.5,0-0.9-0.1-1.1
			c-0.1-0.2-0.2-0.4-0.5-0.6s-0.5-0.2-0.8-0.2c-0.5,0-1,0.2-1.4,0.5s-0.5,0.9-0.5,1.7V29h-1.3V24c0-0.6-0.1-1-0.3-1.3
			c-0.2-0.3-0.6-0.4-1.1-0.4c-0.4,0-0.7,0.1-1,0.3c-0.3,0.2-0.5,0.5-0.7,0.9s-0.2,0.9-0.2,1.6v4H75.8z"/>
		<path id="XMLID_504_" class="st1" d="M93.6,26.5l1.4,0.2c-0.2,0.8-0.6,1.4-1.2,1.9c-0.6,0.4-1.3,0.7-2.2,0.7c-1.1,0-2-0.3-2.7-1.1
			c-0.7-0.7-1-1.7-1-2.9c0-1.3,0.3-2.3,1-3s1.5-1.1,2.6-1.1c1,0,1.9,0.4,2.5,1.1c0.7,0.7,1,1.7,1,3c0,0.1,0,0.2,0,0.4h-5.8
			c0,0.9,0.3,1.5,0.7,2s1,0.7,1.6,0.7c0.5,0,0.9-0.1,1.2-0.4S93.4,27.1,93.6,26.5z M89.3,24.4h4.3c-0.1-0.7-0.2-1.1-0.5-1.5
			c-0.4-0.5-1-0.8-1.6-0.8c-0.6,0-1.1,0.2-1.5,0.6C89.6,23.2,89.4,23.7,89.3,24.4z"/>
		<path id="XMLID_502_" class="st1" d="M96.7,29v-7.8h1.2v1.1c0.6-0.9,1.4-1.3,2.5-1.3c0.5,0,0.9,0.1,1.3,0.3
			c0.4,0.2,0.7,0.4,0.9,0.7s0.3,0.6,0.4,1c0,0.2,0.1,0.7,0.1,1.3V29h-1.3v-4.7c0-0.5-0.1-0.9-0.2-1.2c-0.1-0.3-0.3-0.5-0.5-0.6
			c-0.3-0.2-0.6-0.2-0.9-0.2c-0.6,0-1,0.2-1.5,0.5c-0.4,0.4-0.6,1-0.6,2V29H96.7z"/>
		<path id="XMLID_500_" class="st1" d="M107.9,27.9l0.2,1.2c-0.4,0.1-0.7,0.1-1,0.1c-0.5,0-0.8-0.1-1.1-0.2s-0.4-0.4-0.6-0.6
			s-0.2-0.8-0.2-1.6v-4.5h-1v-1h1v-1.9l1.3-0.8v2.7h1.3v1h-1.3v4.5c0,0.4,0,0.6,0.1,0.7c0,0.1,0.1,0.2,0.2,0.3s0.3,0.1,0.5,0.1
			C107.5,27.9,107.6,27.9,107.9,27.9z"/>
		<path id="XMLID_497_" class="st1" d="M114.3,28.1c-0.5,0.4-1,0.7-1.4,0.9c-0.5,0.2-0.9,0.3-1.5,0.3c-0.9,0-1.5-0.2-2-0.6
			c-0.5-0.4-0.7-1-0.7-1.6c0-0.4,0.1-0.7,0.3-1c0.2-0.3,0.4-0.6,0.7-0.8c0.3-0.2,0.6-0.3,0.9-0.4c0.3-0.1,0.7-0.1,1.2-0.2
			c1.1-0.1,1.8-0.3,2.4-0.5c0-0.2,0-0.3,0-0.3c0-0.5-0.1-0.9-0.4-1.1c-0.3-0.3-0.8-0.4-1.5-0.4c-0.6,0-1.1,0.1-1.4,0.3
			c-0.3,0.2-0.5,0.6-0.7,1.2l-1.3-0.2c0.1-0.6,0.3-1,0.6-1.3c0.3-0.3,0.7-0.6,1.2-0.8c0.5-0.2,1.1-0.3,1.8-0.3
			c0.7,0,1.2,0.1,1.6,0.2s0.7,0.4,0.9,0.6s0.3,0.5,0.4,0.9c0,0.2,0.1,0.6,0.1,1.2v1.8c0,1.2,0,2,0.1,2.3c0.1,0.3,0.2,0.6,0.3,0.9
			h-1.4C114.4,28.8,114.3,28.4,114.3,28.1z M114.1,25.1c-0.5,0.2-1.2,0.4-2.2,0.5c-0.5,0.1-0.9,0.2-1.1,0.3s-0.4,0.2-0.5,0.4
			s-0.2,0.4-0.2,0.6c0,0.4,0.1,0.6,0.4,0.9s0.7,0.4,1.2,0.4c0.5,0,1-0.1,1.4-0.3s0.7-0.5,0.9-0.9c0.1-0.3,0.2-0.7,0.2-1.3V25.1z"/>
		<path id="XMLID_495_" class="st1" d="M122.6,26.2l1.3,0.2c-0.1,0.9-0.5,1.6-1.1,2.1c-0.6,0.5-1.3,0.8-2.1,0.8
			c-1.1,0-1.9-0.3-2.6-1c-0.6-0.7-1-1.7-1-3c0-0.8,0.1-1.6,0.4-2.2c0.3-0.6,0.7-1.1,1.3-1.4c0.6-0.3,1.2-0.5,1.9-0.5
			c0.8,0,1.5,0.2,2.1,0.6c0.5,0.4,0.9,1,1,1.8l-1.3,0.2c-0.1-0.5-0.3-0.9-0.6-1.2c-0.3-0.3-0.7-0.4-1.1-0.4c-0.7,0-1.2,0.2-1.6,0.7
			c-0.4,0.5-0.6,1.2-0.6,2.3c0,1,0.2,1.8,0.6,2.3s0.9,0.7,1.6,0.7c0.5,0,1-0.2,1.3-0.5S122.5,26.8,122.6,26.2z"/>
		<path id="XMLID_492_" class="st1" d="M125,19.8v-1.5h1.3v1.5H125z M125,29v-7.8h1.3V29H125z"/>
		<path id="XMLID_488_" class="st1" d="M127.9,25.1c0-1.4,0.4-2.5,1.2-3.2c0.7-0.6,1.5-0.9,2.4-0.9c1.1,0,1.9,0.4,2.6,1.1
			c0.7,0.7,1,1.7,1,2.9c0,1-0.2,1.8-0.5,2.4c-0.3,0.6-0.7,1-1.3,1.3s-1.2,0.5-1.9,0.5c-1.1,0-2-0.3-2.6-1
			C128.2,27.5,127.9,26.5,127.9,25.1z M129.2,25.1c0,1,0.2,1.7,0.7,2.2c0.4,0.5,1,0.7,1.6,0.7c0.7,0,1.2-0.2,1.6-0.7
			s0.7-1.3,0.7-2.3c0-1-0.2-1.7-0.7-2.2c-0.4-0.5-1-0.7-1.6-0.7c-0.7,0-1.2,0.2-1.6,0.7C129.4,23.4,129.2,24.2,129.2,25.1z
			 M130.8,20.3l1-2.1h1.7l-1.6,2.1H130.8z"/>
		<path id="XMLID_486_" class="st1" d="M136.7,29v-7.8h1.2v1.1c0.6-0.9,1.4-1.3,2.5-1.3c0.5,0,0.9,0.1,1.3,0.3
			c0.4,0.2,0.7,0.4,0.9,0.7s0.3,0.6,0.4,1c0,0.2,0.1,0.7,0.1,1.3V29h-1.3v-4.7c0-0.5-0.1-0.9-0.2-1.2c-0.1-0.3-0.3-0.5-0.5-0.6
			c-0.3-0.2-0.6-0.2-0.9-0.2c-0.6,0-1,0.2-1.5,0.5c-0.4,0.4-0.6,1-0.6,2V29H136.7z"/>
	</g>
</g>
</svg>
