<?xml version="1.0" encoding="utf-8"?>
<!-- Generator: Adobe Illustrator 19.0.0, SVG Export Plug-In . SVG Version: 6.00 Build 0)  -->
<svg version="1.1" id="Capa_1" xmlns="http://www.w3.org/2000/svg" xmlns:xlink="http://www.w3.org/1999/xlink" x="0px" y="0px"
	 viewBox="-236.6 398.4 210.7 45.5" style="enable-background:new -236.6 398.4 210.7 45.5;" xml:space="preserve">
<style type="text/css">
	.st0{fill:#FFFFFF;stroke:#252527;stroke-width:3;stroke-miterlimit:10;}
	.st1{fill:#252527;}
</style>
<rect id="XMLID_16121_" x="-235.1" y="399.9" class="st0" width="207.7" height="42.5"/>
<g>
	<path class="st1" d="M-208.9,427.4v-10.7h4.8c1,0,1.7,0.1,2.2,0.3c0.5,0.2,0.9,0.5,1.2,1s0.4,1,0.4,1.6c0,0.8-0.2,1.4-0.7,1.9
		s-1.3,0.9-2.3,1c0.4,0.2,0.7,0.4,0.9,0.5c0.4,0.4,0.8,0.9,1.2,1.4l1.9,2.9h-1.8l-1.4-2.2c-0.4-0.6-0.8-1.1-1-1.5s-0.5-0.6-0.7-0.7
		c-0.2-0.1-0.4-0.2-0.6-0.3c-0.2,0-0.4-0.1-0.8-0.1h-1.6v4.8H-208.9z M-207.4,421.4h3.1c0.6,0,1.2-0.1,1.5-0.2
		c0.4-0.1,0.6-0.3,0.8-0.6c0.2-0.3,0.3-0.6,0.3-1c0-0.5-0.2-0.9-0.6-1.3s-1-0.5-1.7-0.5h-3.4V421.4z"/>
	<path class="st1" d="M-192.9,424.9l1.4,0.2c-0.2,0.8-0.6,1.4-1.2,1.9s-1.3,0.7-2.2,0.7c-1.1,0-2-0.3-2.7-1.1c-0.7-0.7-1-1.7-1-2.9
		c0-1.3,0.3-2.3,1-3s1.5-1.1,2.6-1.1c1,0,1.9,0.4,2.5,1.1s1,1.7,1,3c0,0.1,0,0.2,0,0.4h-5.8c0,0.9,0.3,1.5,0.7,2s1,0.7,1.6,0.7
		c0.5,0,0.9-0.1,1.2-0.4S-193.1,425.4-192.9,424.9z M-197.2,422.8h4.3c-0.1-0.7-0.2-1.1-0.5-1.5c-0.4-0.5-1-0.8-1.6-0.8
		c-0.6,0-1.1,0.2-1.5,0.6C-197,421.5-197.2,422.1-197.2,422.8z"/>
	<path class="st1" d="M-189.9,430.4v-10.8h1.2v1c0.3-0.4,0.6-0.7,1-0.9c0.4-0.2,0.8-0.3,1.3-0.3c0.7,0,1.3,0.2,1.8,0.5
		s0.9,0.8,1.1,1.4c0.3,0.6,0.4,1.3,0.4,2c0,0.8-0.1,1.5-0.4,2.1c-0.3,0.6-0.7,1.1-1.2,1.5c-0.5,0.3-1.1,0.5-1.7,0.5
		c-0.4,0-0.8-0.1-1.2-0.3c-0.3-0.2-0.6-0.4-0.9-0.7v3.8H-189.9z M-188.7,423.5c0,1,0.2,1.7,0.6,2.2s0.9,0.7,1.5,0.7
		c0.6,0,1.1-0.2,1.5-0.7c0.4-0.5,0.6-1.3,0.6-2.3c0-1-0.2-1.7-0.6-2.2s-0.9-0.7-1.5-0.7c-0.6,0-1.1,0.3-1.5,0.8
		C-188.5,421.8-188.7,422.5-188.7,423.5z"/>
	<path class="st1" d="M-181.5,427.4v-7.8h1.2v1.2c0.3-0.6,0.6-0.9,0.8-1.1c0.3-0.2,0.5-0.3,0.8-0.3c0.4,0,0.9,0.1,1.4,0.4l-0.5,1.2
		c-0.3-0.2-0.6-0.3-1-0.3c-0.3,0-0.5,0.1-0.8,0.3c-0.2,0.2-0.4,0.4-0.5,0.7c-0.1,0.5-0.2,1-0.2,1.5v4.1H-181.5z"/>
	<path class="st1" d="M-171.2,424.9l1.4,0.2c-0.2,0.8-0.6,1.4-1.2,1.9s-1.3,0.7-2.2,0.7c-1.1,0-2-0.3-2.7-1.1c-0.7-0.7-1-1.7-1-2.9
		c0-1.3,0.3-2.3,1-3s1.5-1.1,2.6-1.1c1,0,1.9,0.4,2.5,1.1s1,1.7,1,3c0,0.1,0,0.2,0,0.4h-5.8c0,0.9,0.3,1.5,0.7,2s1,0.7,1.6,0.7
		c0.5,0,0.9-0.1,1.2-0.4S-171.4,425.4-171.2,424.9z M-175.5,422.8h4.3c-0.1-0.7-0.2-1.1-0.5-1.5c-0.4-0.5-1-0.8-1.6-0.8
		c-0.6,0-1.1,0.2-1.5,0.6C-175.3,421.5-175.5,422.1-175.5,422.8z"/>
	<path class="st1" d="M-168.7,425.1l1.3-0.2c0.1,0.5,0.3,0.9,0.6,1.2c0.3,0.3,0.8,0.4,1.4,0.4c0.6,0,1.1-0.1,1.3-0.4
		c0.3-0.2,0.4-0.5,0.4-0.9c0-0.3-0.1-0.5-0.4-0.7c-0.2-0.1-0.6-0.3-1.3-0.4c-1-0.2-1.6-0.5-2-0.6c-0.4-0.2-0.7-0.4-0.8-0.7
		c-0.2-0.3-0.3-0.7-0.3-1c0-0.3,0.1-0.7,0.2-1c0.2-0.3,0.4-0.5,0.6-0.7c0.2-0.2,0.5-0.3,0.8-0.4c0.4-0.1,0.7-0.2,1.1-0.2
		c0.6,0,1.1,0.1,1.6,0.3c0.5,0.2,0.8,0.4,1,0.7c0.2,0.3,0.4,0.7,0.5,1.2l-1.3,0.2c-0.1-0.4-0.2-0.7-0.5-0.9s-0.7-0.3-1.2-0.3
		c-0.6,0-1,0.1-1.3,0.3s-0.4,0.4-0.4,0.7c0,0.2,0.1,0.3,0.2,0.5c0.1,0.1,0.3,0.3,0.5,0.4c0.1,0,0.5,0.2,1.2,0.3
		c0.9,0.2,1.6,0.5,2,0.6c0.4,0.2,0.7,0.4,0.9,0.7s0.3,0.7,0.3,1.1c0,0.4-0.1,0.9-0.4,1.2c-0.3,0.4-0.6,0.7-1.1,0.9
		c-0.5,0.2-1,0.3-1.6,0.3c-1,0-1.8-0.2-2.3-0.6S-168.6,425.9-168.7,425.1z"/>
	<path class="st1" d="M-155.4,424.9l1.4,0.2c-0.2,0.8-0.6,1.4-1.2,1.9s-1.3,0.7-2.2,0.7c-1.1,0-2-0.3-2.7-1.1c-0.7-0.7-1-1.7-1-2.9
		c0-1.3,0.3-2.3,1-3s1.5-1.1,2.6-1.1c1,0,1.9,0.4,2.5,1.1s1,1.7,1,3c0,0.1,0,0.2,0,0.4h-5.8c0,0.9,0.3,1.5,0.7,2s1,0.7,1.6,0.7
		c0.5,0,0.9-0.1,1.2-0.4S-155.6,425.4-155.4,424.9z M-159.7,422.8h4.3c-0.1-0.7-0.2-1.1-0.5-1.5c-0.4-0.5-1-0.8-1.6-0.8
		c-0.6,0-1.1,0.2-1.5,0.6C-159.4,421.5-159.7,422.1-159.7,422.8z"/>
	<path class="st1" d="M-152.4,427.4v-7.8h1.2v1.1c0.6-0.9,1.4-1.3,2.5-1.3c0.5,0,0.9,0.1,1.3,0.3c0.4,0.2,0.7,0.4,0.9,0.7
		s0.3,0.6,0.4,1c0,0.2,0.1,0.7,0.1,1.3v4.8h-1.3v-4.7c0-0.5-0.1-0.9-0.2-1.2c-0.1-0.3-0.3-0.5-0.5-0.6c-0.3-0.2-0.6-0.2-0.9-0.2
		c-0.6,0-1,0.2-1.5,0.5c-0.4,0.4-0.6,1-0.6,2v4.2H-152.4z"/>
	<path class="st1" d="M-141.1,426.2l0.2,1.2c-0.4,0.1-0.7,0.1-1,0.1c-0.5,0-0.8-0.1-1.1-0.2s-0.4-0.4-0.6-0.6
		c-0.1-0.2-0.2-0.8-0.2-1.6v-4.5h-1v-1h1v-1.9l1.3-0.8v2.7h1.3v1h-1.3v4.5c0,0.4,0,0.6,0.1,0.7c0,0.1,0.1,0.2,0.2,0.3
		s0.3,0.1,0.5,0.1C-141.6,426.3-141.4,426.2-141.1,426.2z"/>
	<path class="st1" d="M-134.8,426.4c-0.5,0.4-1,0.7-1.4,0.9s-0.9,0.3-1.5,0.3c-0.9,0-1.5-0.2-2-0.6c-0.5-0.4-0.7-1-0.7-1.6
		c0-0.4,0.1-0.7,0.3-1c0.2-0.3,0.4-0.6,0.7-0.8c0.3-0.2,0.6-0.3,0.9-0.4c0.3-0.1,0.6-0.1,1.2-0.2c1.1-0.1,1.8-0.3,2.4-0.5
		c0-0.2,0-0.3,0-0.3c0-0.5-0.1-0.9-0.4-1.1c-0.3-0.3-0.8-0.4-1.5-0.4c-0.6,0-1.1,0.1-1.4,0.3c-0.3,0.2-0.5,0.6-0.7,1.2l-1.3-0.2
		c0.1-0.6,0.3-1,0.6-1.3c0.3-0.3,0.7-0.6,1.2-0.8c0.5-0.2,1.1-0.3,1.8-0.3c0.7,0,1.2,0.1,1.6,0.2s0.7,0.4,0.9,0.6
		c0.2,0.2,0.3,0.5,0.4,0.9c0,0.2,0.1,0.6,0.1,1.2v1.8c0,1.2,0,2,0.1,2.3c0.1,0.3,0.2,0.6,0.3,0.9h-1.4
		C-134.6,427.1-134.7,426.8-134.8,426.4z M-134.9,423.5c-0.5,0.2-1.2,0.4-2.2,0.5c-0.5,0.1-0.9,0.2-1.1,0.3s-0.4,0.2-0.5,0.4
		c-0.1,0.2-0.2,0.4-0.2,0.6c0,0.4,0.1,0.6,0.4,0.9c0.3,0.2,0.7,0.4,1.2,0.4c0.5,0,1-0.1,1.4-0.3c0.4-0.2,0.7-0.5,0.9-0.9
		c0.1-0.3,0.2-0.7,0.2-1.3V423.5z"/>
	<path class="st1" d="M-126.4,424.5l1.3,0.2c-0.1,0.9-0.5,1.6-1.1,2.1c-0.6,0.5-1.3,0.8-2.2,0.8c-1.1,0-1.9-0.3-2.6-1
		c-0.6-0.7-1-1.7-1-3c0-0.8,0.1-1.6,0.4-2.2s0.7-1.1,1.3-1.4c0.6-0.3,1.2-0.5,1.9-0.5c0.8,0,1.5,0.2,2.1,0.6c0.5,0.4,0.9,1,1,1.8
		l-1.3,0.2c-0.1-0.5-0.3-0.9-0.6-1.2c-0.3-0.3-0.7-0.4-1.1-0.4c-0.7,0-1.2,0.2-1.6,0.7c-0.4,0.5-0.6,1.2-0.6,2.3
		c0,1,0.2,1.8,0.6,2.3c0.4,0.5,0.9,0.7,1.6,0.7c0.5,0,1-0.2,1.3-0.5S-126.5,425.2-126.4,424.5z"/>
	<path class="st1" d="M-124,418.2v-1.5h1.3v1.5H-124z M-124,427.4v-7.8h1.3v7.8H-124z"/>
	<path class="st1" d="M-121.2,423.5c0-1.4,0.4-2.5,1.2-3.2c0.7-0.6,1.5-0.9,2.4-0.9c1.1,0,1.9,0.4,2.6,1.1c0.7,0.7,1,1.7,1,2.9
		c0,1-0.2,1.8-0.5,2.4c-0.3,0.6-0.7,1-1.3,1.3c-0.6,0.3-1.2,0.5-1.9,0.5c-1.1,0-2-0.3-2.6-1C-120.8,425.8-121.2,424.8-121.2,423.5z
		 M-119.8,423.5c0,1,0.2,1.7,0.7,2.2c0.4,0.5,1,0.7,1.6,0.7c0.7,0,1.2-0.2,1.6-0.7s0.7-1.3,0.7-2.3c0-1-0.2-1.7-0.7-2.2
		c-0.4-0.5-1-0.7-1.6-0.7c-0.7,0-1.2,0.2-1.6,0.7S-119.8,422.5-119.8,423.5z M-118.2,418.6l1-2.1h1.7l-1.6,2.1H-118.2z"/>
	<path class="st1" d="M-112.3,427.4v-7.8h1.2v1.1c0.6-0.9,1.4-1.3,2.5-1.3c0.5,0,0.9,0.1,1.3,0.3c0.4,0.2,0.7,0.4,0.9,0.7
		s0.3,0.6,0.4,1c0,0.2,0.1,0.7,0.1,1.3v4.8h-1.3v-4.7c0-0.5-0.1-0.9-0.2-1.2c-0.1-0.3-0.3-0.5-0.5-0.6c-0.3-0.2-0.6-0.2-0.9-0.2
		c-0.6,0-1,0.2-1.5,0.5c-0.4,0.4-0.6,1-0.6,2v4.2H-112.3z"/>
	<path class="st1" d="M-94.6,423.2v-1.3l4.5,0v4c-0.7,0.6-1.4,1-2.2,1.3c-0.7,0.3-1.5,0.4-2.3,0.4c-1.1,0-2-0.2-2.9-0.7
		c-0.9-0.5-1.5-1.1-2-2s-0.7-1.8-0.7-2.9c0-1,0.2-2,0.7-2.9c0.4-0.9,1.1-1.6,1.9-2s1.8-0.7,2.8-0.7c0.8,0,1.5,0.1,2.1,0.4
		c0.6,0.3,1.1,0.6,1.5,1.1s0.6,1,0.8,1.8l-1.3,0.4c-0.2-0.5-0.4-1-0.6-1.3s-0.6-0.6-1-0.8c-0.4-0.2-0.9-0.3-1.5-0.3
		c-0.6,0-1.2,0.1-1.7,0.3c-0.5,0.2-0.9,0.5-1.1,0.8c-0.3,0.3-0.5,0.7-0.7,1.1c-0.3,0.7-0.4,1.4-0.4,2.2c0,1,0.2,1.8,0.5,2.4
		c0.3,0.6,0.8,1.1,1.4,1.4s1.3,0.5,2,0.5c0.6,0,1.2-0.1,1.8-0.4c0.6-0.2,1-0.5,1.3-0.8v-2H-94.6z"/>
	<path class="st1" d="M-88.2,427.4v-7.8h1.2v1.2c0.3-0.6,0.6-0.9,0.8-1.1c0.3-0.2,0.5-0.3,0.8-0.3c0.4,0,0.9,0.1,1.4,0.4l-0.5,1.2
		c-0.3-0.2-0.6-0.3-1-0.3c-0.3,0-0.5,0.1-0.8,0.3c-0.2,0.2-0.4,0.4-0.5,0.7c-0.1,0.5-0.2,1-0.2,1.5v4.1H-88.2z"/>
	<path class="st1" d="M-78.1,426.4c-0.5,0.4-1,0.7-1.4,0.9c-0.5,0.2-0.9,0.3-1.5,0.3c-0.9,0-1.5-0.2-2-0.6c-0.5-0.4-0.7-1-0.7-1.6
		c0-0.4,0.1-0.7,0.3-1c0.2-0.3,0.4-0.6,0.7-0.8c0.3-0.2,0.6-0.3,0.9-0.4c0.3-0.1,0.6-0.1,1.2-0.2c1.1-0.1,1.8-0.3,2.4-0.5
		c0-0.2,0-0.3,0-0.3c0-0.5-0.1-0.9-0.4-1.1c-0.3-0.3-0.8-0.4-1.5-0.4c-0.6,0-1.1,0.1-1.4,0.3c-0.3,0.2-0.5,0.6-0.7,1.2l-1.3-0.2
		c0.1-0.6,0.3-1,0.6-1.3c0.3-0.3,0.7-0.6,1.2-0.8c0.5-0.2,1.1-0.3,1.8-0.3c0.7,0,1.2,0.1,1.6,0.2s0.7,0.4,0.9,0.6
		c0.2,0.2,0.3,0.5,0.4,0.9c0,0.2,0.1,0.6,0.1,1.2v1.8c0,1.2,0,2,0.1,2.3c0.1,0.3,0.2,0.6,0.3,0.9h-1.4
		C-78,427.1-78,426.8-78.1,426.4z M-78.2,423.5c-0.5,0.2-1.2,0.4-2.2,0.5c-0.5,0.1-0.9,0.2-1.2,0.3s-0.4,0.2-0.5,0.4
		c-0.1,0.2-0.2,0.4-0.2,0.6c0,0.4,0.1,0.6,0.4,0.9c0.3,0.2,0.7,0.4,1.2,0.4c0.5,0,1-0.1,1.4-0.3c0.4-0.2,0.7-0.5,0.9-0.9
		c0.1-0.3,0.2-0.7,0.2-1.3V423.5z M-80.8,418.6l1-2.1h1.7l-1.6,2.1H-80.8z"/>
	<path class="st1" d="M-74.5,427.4v-6.8h-1.2v-1h1.2v-0.8c0-0.5,0-0.9,0.1-1.2c0.1-0.3,0.4-0.6,0.7-0.8c0.3-0.2,0.8-0.3,1.3-0.3
		c0.4,0,0.8,0,1.2,0.1l-0.2,1.1c-0.3,0-0.5-0.1-0.8-0.1c-0.4,0-0.7,0.1-0.8,0.3s-0.2,0.5-0.2,1v0.7h1.5v1h-1.5v6.8H-74.5z"/>
	<path class="st1" d="M-70.6,418.2v-1.5h1.3v1.5H-70.6z M-70.6,427.4v-7.8h1.3v7.8H-70.6z"/>
	<path class="st1" d="M-62.2,424.5l1.3,0.2c-0.1,0.9-0.5,1.6-1.1,2.1c-0.6,0.5-1.3,0.8-2.2,0.8c-1.1,0-1.9-0.3-2.6-1
		c-0.6-0.7-1-1.7-1-3c0-0.8,0.1-1.6,0.4-2.2s0.7-1.1,1.3-1.4c0.6-0.3,1.2-0.5,1.9-0.5c0.8,0,1.5,0.2,2.1,0.6c0.5,0.4,0.9,1,1,1.8
		l-1.3,0.2c-0.1-0.5-0.3-0.9-0.6-1.2c-0.3-0.3-0.7-0.4-1.1-0.4c-0.7,0-1.2,0.2-1.6,0.7c-0.4,0.5-0.6,1.2-0.6,2.3
		c0,1,0.2,1.8,0.6,2.3s0.9,0.7,1.6,0.7c0.5,0,1-0.2,1.3-0.5S-62.3,425.2-62.2,424.5z"/>
	<path class="st1" d="M-54.7,426.4c-0.5,0.4-1,0.7-1.4,0.9c-0.5,0.2-0.9,0.3-1.5,0.3c-0.9,0-1.5-0.2-2-0.6c-0.5-0.4-0.7-1-0.7-1.6
		c0-0.4,0.1-0.7,0.3-1c0.2-0.3,0.4-0.6,0.7-0.8c0.3-0.2,0.6-0.3,0.9-0.4c0.3-0.1,0.6-0.1,1.2-0.2c1.1-0.1,1.8-0.3,2.4-0.5
		c0-0.2,0-0.3,0-0.3c0-0.5-0.1-0.9-0.4-1.1c-0.3-0.3-0.8-0.4-1.5-0.4c-0.6,0-1.1,0.1-1.4,0.3c-0.3,0.2-0.5,0.6-0.7,1.2l-1.3-0.2
		c0.1-0.6,0.3-1,0.6-1.3c0.3-0.3,0.7-0.6,1.2-0.8c0.5-0.2,1.1-0.3,1.8-0.3c0.7,0,1.2,0.1,1.6,0.2s0.7,0.4,0.9,0.6
		c0.2,0.2,0.3,0.5,0.4,0.9c0,0.2,0.1,0.6,0.1,1.2v1.8c0,1.2,0,2,0.1,2.3c0.1,0.3,0.2,0.6,0.3,0.9h-1.4
		C-54.6,427.1-54.7,426.8-54.7,426.4z M-54.8,423.5c-0.5,0.2-1.2,0.4-2.2,0.5c-0.5,0.1-0.9,0.2-1.1,0.3s-0.4,0.2-0.5,0.4
		c-0.1,0.2-0.2,0.4-0.2,0.6c0,0.4,0.1,0.6,0.4,0.9c0.3,0.2,0.7,0.4,1.2,0.4c0.5,0,1-0.1,1.4-0.3c0.4-0.2,0.7-0.5,0.9-0.9
		c0.1-0.3,0.2-0.7,0.2-1.3V423.5z"/>
</g>
</svg>
