<?xml version="1.0" encoding="utf-8"?>
<!-- Generator: Adobe Illustrator 19.0.0, SVG Export Plug-In . SVG Version: 6.00 Build 0)  -->
<svg version="1.1" id="Capa_1" xmlns="http://www.w3.org/2000/svg" xmlns:xlink="http://www.w3.org/1999/xlink" x="0px" y="0px"
	 viewBox="-210 398.4 173.6 45.5" style="enable-background:new -210 398.4 173.6 45.5;" xml:space="preserve">
<style type="text/css">
	.st0{fill:#F9D523;stroke:#252527;stroke-width:3;stroke-miterlimit:10;}
	.st1{fill:#252527;}
</style>
<g>
	<rect id="XMLID_16121_" x="-208.5" y="399.9" class="st0" width="170.6" height="42.5"/>
</g>
<g>
	<path class="st1" d="M-181.9,427.4v-9.5h-3.5v-1.3h8.5v1.3h-3.6v9.5H-181.9z"/>
	<path class="st1" d="M-176.2,418.2v-1.5h1.3v1.5H-176.2z M-176.2,427.4v-7.8h1.3v7.8H-176.2z"/>
	<path class="st1" d="M-172.9,430.4v-10.8h1.2v1c0.3-0.4,0.6-0.7,1-0.9c0.4-0.2,0.8-0.3,1.3-0.3c0.7,0,1.3,0.2,1.8,0.5
		s0.9,0.8,1.1,1.4c0.3,0.6,0.4,1.3,0.4,2c0,0.8-0.1,1.5-0.4,2.1c-0.3,0.6-0.7,1.1-1.2,1.5c-0.5,0.3-1.1,0.5-1.7,0.5
		c-0.4,0-0.8-0.1-1.2-0.3c-0.3-0.2-0.6-0.4-0.9-0.7v3.8h-1.4V430.4z M-171.7,423.5c0,1,0.2,1.7,0.6,2.2s0.9,0.7,1.5,0.7
		s1.1-0.2,1.5-0.7s0.6-1.3,0.6-2.3s-0.2-1.7-0.6-2.2s-0.9-0.7-1.5-0.7s-1.1,0.3-1.5,0.8C-171.5,421.8-171.7,422.5-171.7,423.5z"/>
	<path class="st1" d="M-165,423.5c0-1.4,0.4-2.5,1.2-3.2c0.7-0.6,1.5-0.9,2.4-0.9c1.1,0,1.9,0.4,2.6,1.1c0.7,0.7,1,1.7,1,2.9
		c0,1-0.1,1.8-0.5,2.4c-0.3,0.6-0.7,1-1.3,1.3s-1.2,0.5-1.9,0.5c-1.1,0-2-0.3-2.6-1S-165,424.8-165,423.5z M-163.7,423.5
		c0,1,0.2,1.7,0.7,2.2c0.4,0.5,1,0.7,1.6,0.7c0.7,0,1.2-0.2,1.6-0.7s0.7-1.3,0.7-2.3s-0.2-1.7-0.7-2.2c-0.4-0.5-1-0.7-1.6-0.7
		c-0.7,0-1.2,0.2-1.6,0.7S-163.7,422.5-163.7,423.5z"/>
	<path class="st1" d="M-156.7,425.1l1.3-0.2c0.1,0.5,0.3,0.9,0.6,1.2c0.3,0.3,0.8,0.4,1.4,0.4c0.6,0,1.1-0.1,1.3-0.4
		c0.3-0.2,0.4-0.5,0.4-0.9c0-0.3-0.1-0.5-0.4-0.7c-0.2-0.1-0.6-0.3-1.3-0.4c-1-0.2-1.6-0.5-2-0.6c-0.4-0.2-0.7-0.4-0.8-0.7
		c-0.2-0.3-0.3-0.7-0.3-1s0.1-0.7,0.2-1c0.2-0.3,0.4-0.5,0.6-0.7c0.2-0.2,0.5-0.3,0.8-0.4c0.4-0.1,0.7-0.2,1.1-0.2
		c0.6,0,1.1,0.1,1.6,0.3c0.5,0.2,0.8,0.4,1,0.7c0.2,0.3,0.4,0.7,0.5,1.2l-1.3,0.2c-0.1-0.4-0.2-0.7-0.5-0.9s-0.7-0.3-1.2-0.3
		c-0.6,0-1,0.1-1.3,0.3s-0.4,0.4-0.4,0.7c0,0.2,0.1,0.3,0.2,0.5c0.1,0.1,0.3,0.3,0.5,0.4c0.1,0,0.5,0.2,1.2,0.3
		c0.9,0.2,1.6,0.5,2,0.6c0.4,0.2,0.7,0.4,0.9,0.7s0.3,0.7,0.3,1.1s-0.1,0.9-0.4,1.2c-0.3,0.4-0.6,0.7-1.1,0.9
		c-0.5,0.2-1,0.3-1.6,0.3c-1,0-1.8-0.2-2.3-0.6S-156.6,425.9-156.7,425.1z"/>
	<path class="st1" d="M-139.5,427.4v-1c-0.5,0.8-1.2,1.2-2.2,1.2c-0.6,0-1.2-0.2-1.7-0.5s-0.9-0.8-1.2-1.4s-0.4-1.3-0.4-2.1
		c0-0.8,0.1-1.5,0.4-2.1c0.3-0.6,0.6-1.1,1.2-1.5s1.1-0.5,1.7-0.5c0.5,0,0.9,0.1,1.3,0.3c0.4,0.2,0.7,0.5,0.9,0.8v-3.9h1.3v10.7
		H-139.5z M-143.7,423.5c0,1,0.2,1.7,0.6,2.2s0.9,0.7,1.5,0.7s1.1-0.2,1.5-0.7s0.6-1.2,0.6-2.2c0-1.1-0.2-1.8-0.6-2.3
		s-0.9-0.7-1.5-0.7s-1.1,0.2-1.5,0.7S-143.7,422.5-143.7,423.5z"/>
	<path class="st1" d="M-130.9,424.9l1.4,0.2c-0.2,0.8-0.6,1.4-1.2,1.9s-1.3,0.7-2.2,0.7c-1.1,0-2-0.3-2.7-1.1c-0.7-0.7-1-1.7-1-2.9
		c0-1.3,0.3-2.3,1-3s1.5-1.1,2.6-1.1c1,0,1.9,0.4,2.5,1.1s1,1.7,1,3c0,0.1,0,0.2,0,0.4h-5.8c0,0.9,0.3,1.5,0.7,2s1,0.7,1.6,0.7
		c0.5,0,0.9-0.1,1.2-0.4S-131.1,425.4-130.9,424.9z M-135.2,422.8h4.3c-0.1-0.7-0.2-1.1-0.5-1.5c-0.4-0.5-1-0.8-1.6-0.8
		s-1.1,0.2-1.5,0.6S-135.2,422.1-135.2,422.8z"/>
	<path class="st1" d="M-123.7,427.4v-7.8h1.2v1.1c0.2-0.4,0.6-0.7,1-0.9c0.4-0.2,0.9-0.3,1.4-0.3c0.6,0,1,0.1,1.4,0.4
		c0.4,0.2,0.6,0.6,0.8,1c0.6-0.9,1.4-1.4,2.4-1.4c0.8,0,1.4,0.2,1.8,0.6s0.6,1.1,0.6,2v5.3h-1.3v-4.9c0-0.5,0-0.9-0.1-1.1
		s-0.2-0.4-0.5-0.6s-0.5-0.2-0.8-0.2c-0.5,0-1,0.2-1.4,0.5c-0.4,0.4-0.5,0.9-0.5,1.7v4.5h-1.3v-5.1c0-0.6-0.1-1-0.3-1.3
		s-0.6-0.4-1.1-0.4c-0.4,0-0.7,0.1-1,0.3c-0.3,0.2-0.5,0.5-0.7,0.9s-0.2,0.9-0.2,1.6v4L-123.7,427.4L-123.7,427.4z"/>
	<path class="st1" d="M-105.9,424.9l1.4,0.2c-0.2,0.8-0.6,1.4-1.2,1.9s-1.3,0.7-2.2,0.7c-1.1,0-2-0.3-2.7-1.1c-0.7-0.7-1-1.7-1-2.9
		c0-1.3,0.3-2.3,1-3s1.5-1.1,2.6-1.1c1,0,1.9,0.4,2.5,1.1s1,1.7,1,3c0,0.1,0,0.2,0,0.4h-5.8c0,0.9,0.3,1.5,0.7,2s1,0.7,1.6,0.7
		c0.5,0,0.9-0.1,1.2-0.4S-106.1,425.4-105.9,424.9z M-110.2,422.8h4.3c-0.1-0.7-0.2-1.1-0.5-1.5c-0.4-0.5-1-0.8-1.6-0.8
		s-1.1,0.2-1.5,0.6S-110.2,422.1-110.2,422.8z"/>
	<path class="st1" d="M-102.9,427.4v-7.8h1.2v1.1c0.6-0.9,1.4-1.3,2.5-1.3c0.5,0,0.9,0.1,1.3,0.3c0.4,0.2,0.7,0.4,0.9,0.7
		s0.3,0.6,0.4,1c0,0.2,0.1,0.7,0.1,1.3v4.8h-1.3v-4.7c0-0.5-0.1-0.9-0.2-1.2c-0.1-0.3-0.3-0.5-0.5-0.6c-0.3-0.2-0.6-0.2-0.9-0.2
		c-0.6,0-1,0.2-1.5,0.5c-0.4,0.4-0.6,1-0.6,2v4.2L-102.9,427.4L-102.9,427.4z"/>
	<path class="st1" d="M-95,425.1l1.3-0.2c0.1,0.5,0.3,0.9,0.6,1.2c0.3,0.3,0.8,0.4,1.4,0.4s1.1-0.1,1.3-0.4c0.3-0.2,0.4-0.5,0.4-0.9
		c0-0.3-0.1-0.5-0.4-0.7c-0.2-0.1-0.6-0.3-1.3-0.4c-1-0.2-1.6-0.5-2-0.6c-0.4-0.2-0.7-0.4-0.8-0.7c-0.2-0.3-0.3-0.7-0.3-1
		s0.1-0.7,0.2-1c0.2-0.3,0.4-0.5,0.6-0.7s0.5-0.3,0.8-0.4c0.4-0.1,0.7-0.2,1.1-0.2c0.6,0,1.1,0.1,1.6,0.3c0.5,0.2,0.8,0.4,1,0.7
		c0.2,0.3,0.4,0.7,0.5,1.2l-1.3,0.2c-0.1-0.4-0.2-0.7-0.5-0.9c-0.3-0.2-0.7-0.3-1.2-0.3c-0.6,0-1,0.1-1.3,0.3s-0.4,0.4-0.4,0.7
		c0,0.2,0.1,0.3,0.2,0.5c0.1,0.1,0.3,0.3,0.5,0.4c0.1,0,0.5,0.2,1.2,0.3c0.9,0.2,1.6,0.5,2,0.6c0.4,0.2,0.7,0.4,0.9,0.7
		s0.3,0.7,0.3,1.1s-0.1,0.9-0.4,1.2c-0.3,0.4-0.6,0.7-1.1,0.9c-0.5,0.2-1,0.3-1.6,0.3c-1,0-1.8-0.2-2.3-0.6
		C-94.6,426.5-94.9,425.9-95,425.1z"/>
	<path class="st1" d="M-81.9,426.4c-0.5,0.4-1,0.7-1.4,0.9c-0.5,0.2-0.9,0.3-1.5,0.3c-0.9,0-1.5-0.2-2-0.6s-0.7-1-0.7-1.6
		c0-0.4,0.1-0.7,0.3-1c0.2-0.3,0.4-0.6,0.7-0.8c0.3-0.2,0.6-0.3,0.9-0.4s0.6-0.1,1.2-0.2c1.1-0.1,1.8-0.3,2.4-0.5c0-0.2,0-0.3,0-0.3
		c0-0.5-0.1-0.9-0.4-1.1c-0.3-0.3-0.8-0.4-1.5-0.4c-0.6,0-1.1,0.1-1.4,0.3c-0.3,0.2-0.5,0.6-0.7,1.2l-1.3-0.2c0.1-0.6,0.3-1,0.6-1.3
		c0.3-0.3,0.7-0.6,1.2-0.8c0.5-0.2,1.1-0.3,1.8-0.3c0.7,0,1.2,0.1,1.6,0.2s0.7,0.4,0.9,0.6c0.2,0.2,0.3,0.5,0.4,0.9
		c0,0.2,0.1,0.6,0.1,1.2v1.8c0,1.2,0,2,0.1,2.3s0.2,0.6,0.3,0.9h-1.4C-81.8,427.1-81.9,426.8-81.9,426.4z M-82,423.5
		c-0.5,0.2-1.2,0.4-2.2,0.5c-0.5,0.1-0.9,0.2-1.1,0.3s-0.4,0.2-0.5,0.4c-0.1,0.2-0.2,0.4-0.2,0.6c0,0.4,0.1,0.6,0.4,0.9
		c0.3,0.2,0.7,0.4,1.2,0.4s1-0.1,1.4-0.3c0.4-0.2,0.7-0.5,0.9-0.9c0.1-0.3,0.2-0.7,0.2-1.3v-0.6H-82z"/>
	<path class="st1" d="M-80.3,430.4l0.2-1.1c0.3,0.1,0.5,0.1,0.6,0.1c0.3,0,0.5-0.1,0.6-0.3c0.1-0.2,0.2-0.6,0.2-1.3v-8.2h1.3v8.2
		c0,1-0.1,1.6-0.4,2c-0.3,0.5-0.8,0.7-1.6,0.7C-79.7,430.5-80,430.5-80.3,430.4z M-78.7,418.2v-1.5h1.3v1.5H-78.7z"/>
	<path class="st1" d="M-70,424.9l1.4,0.2c-0.2,0.8-0.6,1.4-1.2,1.9s-1.3,0.7-2.2,0.7c-1.1,0-2-0.3-2.7-1.1c-0.7-0.7-1-1.7-1-2.9
		c0-1.3,0.3-2.3,1-3s1.5-1.1,2.6-1.1c1,0,1.9,0.4,2.5,1.1s1,1.7,1,3c0,0.1,0,0.2,0,0.4h-5.8c0,0.9,0.3,1.5,0.7,2s1,0.7,1.6,0.7
		c0.5,0,0.9-0.1,1.2-0.4S-70.2,425.4-70,424.9z M-74.3,422.8h4.3c-0.1-0.7-0.2-1.1-0.5-1.5c-0.4-0.5-1-0.8-1.6-0.8s-1.1,0.2-1.5,0.6
		C-74.1,421.5-74.3,422.1-74.3,422.8z"/>
	<path class="st1" d="M-67.5,425.1l1.3-0.2c0.1,0.5,0.3,0.9,0.6,1.2c0.3,0.3,0.8,0.4,1.4,0.4s1.1-0.1,1.3-0.4
		c0.3-0.2,0.4-0.5,0.4-0.9c0-0.3-0.1-0.5-0.4-0.7c-0.2-0.1-0.6-0.3-1.3-0.4c-1-0.2-1.6-0.5-2-0.6c-0.4-0.2-0.7-0.4-0.8-0.7
		c-0.2-0.3-0.3-0.7-0.3-1s0.1-0.7,0.2-1c0.2-0.3,0.4-0.5,0.6-0.7s0.5-0.3,0.8-0.4c0.4-0.1,0.7-0.2,1.1-0.2c0.6,0,1.1,0.1,1.6,0.3
		c0.5,0.2,0.8,0.4,1,0.7c0.2,0.3,0.4,0.7,0.5,1.2l-1.3,0.2c-0.1-0.4-0.2-0.7-0.5-0.9c-0.3-0.2-0.7-0.3-1.2-0.3c-0.6,0-1,0.1-1.3,0.3
		s-0.4,0.4-0.4,0.7c0,0.2,0.1,0.3,0.2,0.5c0.1,0.1,0.3,0.3,0.5,0.4c0.1,0,0.5,0.2,1.2,0.3c0.9,0.2,1.6,0.5,2,0.6
		c0.4,0.2,0.7,0.4,0.9,0.7s0.3,0.7,0.3,1.1s-0.1,0.9-0.4,1.2c-0.3,0.4-0.6,0.7-1.1,0.9c-0.5,0.2-1,0.3-1.6,0.3c-1,0-1.8-0.2-2.3-0.6
		C-67,426.5-67.4,425.9-67.5,425.1z"/>
</g>
</svg>
