<?xml version="1.0" encoding="utf-8"?>
<!-- Generator: Adobe Illustrator 19.0.0, SVG Export Plug-In . SVG Version: 6.00 Build 0)  -->
<svg version="1.1" id="Capa_1" xmlns="http://www.w3.org/2000/svg" xmlns:xlink="http://www.w3.org/1999/xlink" x="0px" y="0px"
	 viewBox="-274.7 398.4 287 45.5" style="enable-background:new -274.7 398.4 287 45.5;" xml:space="preserve">
<style type="text/css">
	.st0{fill:#FFFFFF;stroke:#252527;stroke-width:3;stroke-miterlimit:10;}
	.st1{fill:#252527;}
</style>
<rect id="XMLID_16121_" x="-273.2" y="399.9" class="st0" width="284" height="42.5"/>
<g>
	<path class="st1" d="M-252.3,427.4v-10.7h3.7c0.8,0,1.5,0.1,1.9,0.2c0.6,0.1,1.1,0.4,1.6,0.8c0.6,0.5,1,1.1,1.3,1.8
		c0.3,0.7,0.4,1.6,0.4,2.6c0,0.8-0.1,1.5-0.3,2.2s-0.4,1.2-0.7,1.6c-0.3,0.4-0.6,0.7-1,1c-0.4,0.2-0.8,0.4-1.3,0.5
		c-0.5,0.1-1.1,0.2-1.7,0.2H-252.3z M-250.8,426.1h2.3c0.7,0,1.3-0.1,1.7-0.2c0.4-0.1,0.7-0.3,1-0.6c0.3-0.3,0.6-0.8,0.8-1.4
		c0.2-0.6,0.3-1.3,0.3-2.1c0-1.1-0.2-2-0.6-2.6c-0.4-0.6-0.8-1-1.3-1.2c-0.4-0.1-1-0.2-1.8-0.2h-2.3V426.1z"/>
	<path class="st1" d="M-241.6,418.2v-1.5h1.3v1.5H-241.6z M-241.6,427.4v-7.8h1.3v7.8H-241.6z"/>
	<path class="st1" d="M-233.2,426.4c-0.5,0.4-1,0.7-1.4,0.9s-0.9,0.3-1.5,0.3c-0.9,0-1.5-0.2-2-0.6c-0.5-0.4-0.7-1-0.7-1.6
		c0-0.4,0.1-0.7,0.3-1c0.2-0.3,0.4-0.6,0.7-0.8c0.3-0.2,0.6-0.3,0.9-0.4c0.3-0.1,0.6-0.1,1.2-0.2c1.1-0.1,1.8-0.3,2.4-0.5
		c0-0.2,0-0.3,0-0.3c0-0.5-0.1-0.9-0.4-1.1c-0.3-0.3-0.8-0.4-1.5-0.4c-0.6,0-1.1,0.1-1.4,0.3c-0.3,0.2-0.5,0.6-0.7,1.2l-1.3-0.2
		c0.1-0.6,0.3-1,0.6-1.3c0.3-0.3,0.7-0.6,1.2-0.8c0.5-0.2,1.1-0.3,1.8-0.3c0.7,0,1.2,0.1,1.6,0.2s0.7,0.4,0.9,0.6
		c0.2,0.2,0.3,0.5,0.4,0.9c0,0.2,0.1,0.6,0.1,1.2v1.8c0,1.2,0,2,0.1,2.3c0.1,0.3,0.2,0.6,0.3,0.9h-1.4
		C-233.1,427.1-233.1,426.8-233.2,426.4z M-233.3,423.5c-0.5,0.2-1.2,0.4-2.2,0.5c-0.5,0.1-0.9,0.2-1.1,0.3s-0.4,0.2-0.5,0.4
		c-0.1,0.2-0.2,0.4-0.2,0.6c0,0.4,0.1,0.6,0.4,0.9c0.3,0.2,0.7,0.4,1.2,0.4c0.5,0,1-0.1,1.4-0.3c0.4-0.2,0.7-0.5,0.9-0.9
		c0.1-0.3,0.2-0.7,0.2-1.3V423.5z"/>
	<path class="st1" d="M-230.2,428l1.3,0.2c0.1,0.4,0.2,0.7,0.4,0.9c0.3,0.2,0.8,0.4,1.3,0.4c0.6,0,1.1-0.1,1.4-0.4s0.6-0.6,0.7-1
		c0.1-0.3,0.1-0.8,0.1-1.7c-0.6,0.7-1.3,1-2.2,1c-1.1,0-1.9-0.4-2.5-1.2s-0.9-1.7-0.9-2.8c0-0.7,0.1-1.4,0.4-2.1
		c0.3-0.6,0.7-1.1,1.2-1.5c0.5-0.3,1.1-0.5,1.8-0.5c0.9,0,1.7,0.4,2.3,1.1v-0.9h1.2v6.7c0,1.2-0.1,2.1-0.4,2.6
		c-0.2,0.5-0.6,0.9-1.2,1.2c-0.5,0.3-1.2,0.4-2,0.4c-0.9,0-1.7-0.2-2.2-0.6C-229.9,429.5-230.2,428.9-230.2,428z M-229.1,423.4
		c0,1,0.2,1.8,0.6,2.2s0.9,0.7,1.5,0.7c0.6,0,1.1-0.2,1.5-0.7c0.4-0.5,0.6-1.2,0.6-2.2c0-1-0.2-1.7-0.6-2.2s-0.9-0.7-1.5-0.7
		c-0.6,0-1.1,0.2-1.5,0.7C-228.9,421.7-229.1,422.4-229.1,423.4z"/>
	<path class="st1" d="M-221.6,427.4v-7.8h1.2v1.2c0.3-0.6,0.6-0.9,0.8-1.1c0.3-0.2,0.5-0.3,0.8-0.3c0.4,0,0.9,0.1,1.4,0.4l-0.5,1.2
		c-0.3-0.2-0.6-0.3-1-0.3c-0.3,0-0.5,0.1-0.8,0.3c-0.2,0.2-0.4,0.4-0.5,0.7c-0.1,0.5-0.2,1-0.2,1.5v4.1H-221.6z"/>
	<path class="st1" d="M-211.5,426.4c-0.5,0.4-1,0.7-1.4,0.9s-0.9,0.3-1.5,0.3c-0.9,0-1.5-0.2-2-0.6c-0.5-0.4-0.7-1-0.7-1.6
		c0-0.4,0.1-0.7,0.3-1c0.2-0.3,0.4-0.6,0.7-0.8c0.3-0.2,0.6-0.3,0.9-0.4c0.3-0.1,0.6-0.1,1.2-0.2c1.1-0.1,1.8-0.3,2.4-0.5
		c0-0.2,0-0.3,0-0.3c0-0.5-0.1-0.9-0.4-1.1c-0.3-0.3-0.8-0.4-1.5-0.4c-0.6,0-1.1,0.1-1.4,0.3c-0.3,0.2-0.5,0.6-0.7,1.2l-1.3-0.2
		c0.1-0.6,0.3-1,0.6-1.3c0.3-0.3,0.7-0.6,1.2-0.8c0.5-0.2,1.1-0.3,1.8-0.3c0.7,0,1.2,0.1,1.6,0.2s0.7,0.4,0.9,0.6
		c0.2,0.2,0.3,0.5,0.4,0.9c0,0.2,0.1,0.6,0.1,1.2v1.8c0,1.2,0,2,0.1,2.3c0.1,0.3,0.2,0.6,0.3,0.9h-1.4
		C-211.4,427.1-211.5,426.8-211.5,426.4z M-211.6,423.5c-0.5,0.2-1.2,0.4-2.2,0.5c-0.5,0.1-0.9,0.2-1.1,0.3s-0.4,0.2-0.5,0.4
		c-0.1,0.2-0.2,0.4-0.2,0.6c0,0.4,0.1,0.6,0.4,0.9c0.3,0.2,0.7,0.4,1.2,0.4c0.5,0,1-0.1,1.4-0.3c0.4-0.2,0.7-0.5,0.9-0.9
		c0.1-0.3,0.2-0.7,0.2-1.3V423.5z"/>
	<path class="st1" d="M-208.2,427.4v-7.8h1.2v1.1c0.2-0.4,0.6-0.7,1-0.9c0.4-0.2,0.9-0.3,1.4-0.3c0.6,0,1,0.1,1.4,0.4s0.6,0.6,0.8,1
		c0.6-0.9,1.4-1.4,2.4-1.4c0.8,0,1.4,0.2,1.8,0.6c0.4,0.4,0.6,1.1,0.6,2v5.3h-1.3v-4.9c0-0.5,0-0.9-0.1-1.1
		c-0.1-0.2-0.2-0.4-0.5-0.6s-0.5-0.2-0.8-0.2c-0.5,0-1,0.2-1.4,0.5c-0.4,0.4-0.5,0.9-0.5,1.7v4.5h-1.3v-5.1c0-0.6-0.1-1-0.3-1.3
		s-0.6-0.4-1.1-0.4c-0.4,0-0.7,0.1-1,0.3c-0.3,0.2-0.5,0.5-0.7,0.9s-0.2,0.9-0.2,1.6v4H-208.2z"/>
	<path class="st1" d="M-190.7,426.4c-0.5,0.4-1,0.7-1.4,0.9s-0.9,0.3-1.5,0.3c-0.9,0-1.5-0.2-2-0.6c-0.5-0.4-0.7-1-0.7-1.6
		c0-0.4,0.1-0.7,0.3-1c0.2-0.3,0.4-0.6,0.7-0.8c0.3-0.2,0.6-0.3,0.9-0.4c0.3-0.1,0.6-0.1,1.2-0.2c1.1-0.1,1.8-0.3,2.4-0.5
		c0-0.2,0-0.3,0-0.3c0-0.5-0.1-0.9-0.4-1.1c-0.3-0.3-0.8-0.4-1.5-0.4c-0.6,0-1.1,0.1-1.4,0.3c-0.3,0.2-0.5,0.6-0.7,1.2l-1.3-0.2
		c0.1-0.6,0.3-1,0.6-1.3c0.3-0.3,0.7-0.6,1.2-0.8c0.5-0.2,1.1-0.3,1.8-0.3c0.7,0,1.2,0.1,1.6,0.2s0.7,0.4,0.9,0.6
		c0.2,0.2,0.3,0.5,0.4,0.9c0,0.2,0.1,0.6,0.1,1.2v1.8c0,1.2,0,2,0.1,2.3c0.1,0.3,0.2,0.6,0.3,0.9h-1.4
		C-190.5,427.1-190.6,426.8-190.7,426.4z M-190.8,423.5c-0.5,0.2-1.2,0.4-2.2,0.5c-0.5,0.1-0.9,0.2-1.1,0.3s-0.4,0.2-0.5,0.4
		c-0.1,0.2-0.2,0.4-0.2,0.6c0,0.4,0.1,0.6,0.4,0.9c0.3,0.2,0.7,0.4,1.2,0.4c0.5,0,1-0.1,1.4-0.3c0.4-0.2,0.7-0.5,0.9-0.9
		c0.1-0.3,0.2-0.7,0.2-1.3V423.5z"/>
	<path class="st1" d="M-178.2,427.4v-1c-0.5,0.8-1.2,1.2-2.2,1.2c-0.6,0-1.2-0.2-1.7-0.5c-0.5-0.3-0.9-0.8-1.2-1.4
		c-0.3-0.6-0.4-1.3-0.4-2.1c0-0.8,0.1-1.5,0.4-2.1c0.3-0.6,0.6-1.1,1.2-1.5s1.1-0.5,1.7-0.5c0.5,0,0.9,0.1,1.3,0.3
		c0.4,0.2,0.7,0.5,0.9,0.8v-3.9h1.3v10.7H-178.2z M-182.4,423.5c0,1,0.2,1.7,0.6,2.2s0.9,0.7,1.5,0.7c0.6,0,1.1-0.2,1.5-0.7
		c0.4-0.5,0.6-1.2,0.6-2.2c0-1.1-0.2-1.8-0.6-2.3s-0.9-0.7-1.5-0.7c-0.6,0-1.1,0.2-1.5,0.7S-182.4,422.5-182.4,423.5z"/>
	<path class="st1" d="M-169.6,424.9l1.4,0.2c-0.2,0.8-0.6,1.4-1.2,1.9s-1.3,0.7-2.2,0.7c-1.1,0-2-0.3-2.7-1.1c-0.7-0.7-1-1.7-1-2.9
		c0-1.3,0.3-2.3,1-3s1.5-1.1,2.6-1.1c1,0,1.9,0.4,2.5,1.1s1,1.7,1,3c0,0.1,0,0.2,0,0.4h-5.8c0,0.9,0.3,1.5,0.7,2s1,0.7,1.6,0.7
		c0.5,0,0.9-0.1,1.2-0.4S-169.8,425.4-169.6,424.9z M-173.9,422.8h4.3c-0.1-0.7-0.2-1.1-0.5-1.5c-0.4-0.5-1-0.8-1.6-0.8
		c-0.6,0-1.1,0.2-1.5,0.6C-173.6,421.5-173.9,422.1-173.9,422.8z"/>
	<path class="st1" d="M-162.9,425.1l1.3-0.2c0.1,0.5,0.3,0.9,0.6,1.2c0.3,0.3,0.8,0.4,1.4,0.4c0.6,0,1.1-0.1,1.3-0.4
		c0.3-0.2,0.4-0.5,0.4-0.9c0-0.3-0.1-0.5-0.4-0.7c-0.2-0.1-0.6-0.3-1.3-0.4c-1-0.2-1.6-0.5-2-0.6c-0.4-0.2-0.7-0.4-0.8-0.7
		c-0.2-0.3-0.3-0.7-0.3-1c0-0.3,0.1-0.7,0.2-1c0.2-0.3,0.4-0.5,0.6-0.7c0.2-0.2,0.5-0.3,0.8-0.4c0.4-0.1,0.7-0.2,1.1-0.2
		c0.6,0,1.1,0.1,1.6,0.3c0.5,0.2,0.8,0.4,1,0.7c0.2,0.3,0.4,0.7,0.5,1.2l-1.3,0.2c-0.1-0.4-0.2-0.7-0.5-0.9s-0.7-0.3-1.2-0.3
		c-0.6,0-1,0.1-1.3,0.3s-0.4,0.4-0.4,0.7c0,0.2,0.1,0.3,0.2,0.5c0.1,0.1,0.3,0.3,0.5,0.4c0.1,0,0.5,0.2,1.2,0.3
		c0.9,0.2,1.6,0.5,2,0.6c0.4,0.2,0.7,0.4,0.9,0.7s0.3,0.7,0.3,1.1c0,0.4-0.1,0.9-0.4,1.2c-0.3,0.4-0.6,0.7-1.1,0.9
		c-0.5,0.2-1,0.3-1.6,0.3c-1,0-1.8-0.2-2.3-0.6S-162.8,425.9-162.9,425.1z"/>
	<path class="st1" d="M-149.6,424.9l1.4,0.2c-0.2,0.8-0.6,1.4-1.2,1.9s-1.3,0.7-2.2,0.7c-1.1,0-2-0.3-2.7-1.1c-0.7-0.7-1-1.7-1-2.9
		c0-1.3,0.3-2.3,1-3s1.5-1.1,2.6-1.1c1,0,1.9,0.4,2.5,1.1s1,1.7,1,3c0,0.1,0,0.2,0,0.4h-5.8c0,0.9,0.3,1.5,0.7,2s1,0.7,1.6,0.7
		c0.5,0,0.9-0.1,1.2-0.4S-149.8,425.4-149.6,424.9z M-153.9,422.8h4.3c-0.1-0.7-0.2-1.1-0.5-1.5c-0.4-0.5-1-0.8-1.6-0.8
		c-0.6,0-1.1,0.2-1.5,0.6C-153.6,421.5-153.8,422.1-153.9,422.8z"/>
	<path class="st1" d="M-141.5,424.5l1.3,0.2c-0.1,0.9-0.5,1.6-1.1,2.1c-0.6,0.5-1.3,0.8-2.1,0.8c-1.1,0-1.9-0.3-2.6-1
		c-0.6-0.7-1-1.7-1-3c0-0.8,0.1-1.6,0.4-2.2s0.7-1.1,1.3-1.4c0.6-0.3,1.2-0.5,1.9-0.5c0.8,0,1.5,0.2,2.1,0.6c0.5,0.4,0.9,1,1,1.8
		l-1.3,0.2c-0.1-0.5-0.3-0.9-0.6-1.2c-0.3-0.3-0.7-0.4-1.1-0.4c-0.7,0-1.2,0.2-1.6,0.7c-0.4,0.5-0.6,1.2-0.6,2.3
		c0,1,0.2,1.8,0.6,2.3s0.9,0.7,1.6,0.7c0.5,0,0.9-0.2,1.3-0.5S-141.6,425.2-141.5,424.5z"/>
	<path class="st1" d="M-133.9,427.4v-1.1c-0.6,0.9-1.4,1.3-2.5,1.3c-0.5,0-0.9-0.1-1.3-0.3c-0.4-0.2-0.7-0.4-0.9-0.7
		c-0.2-0.3-0.3-0.6-0.4-1c-0.1-0.3-0.1-0.7-0.1-1.2v-4.8h1.3v4.3c0,0.7,0,1.2,0.1,1.4c0.1,0.3,0.3,0.6,0.5,0.8
		c0.3,0.2,0.6,0.3,1,0.3s0.8-0.1,1.1-0.3c0.3-0.2,0.6-0.5,0.7-0.8c0.1-0.3,0.2-0.9,0.2-1.5v-4.2h1.3v7.8H-133.9z"/>
	<path class="st1" d="M-125.4,424.9l1.4,0.2c-0.2,0.8-0.6,1.4-1.2,1.9s-1.3,0.7-2.2,0.7c-1.1,0-2-0.3-2.7-1.1c-0.7-0.7-1-1.7-1-2.9
		c0-1.3,0.3-2.3,1-3c0.7-0.7,1.5-1.1,2.6-1.1c1,0,1.9,0.4,2.5,1.1s1,1.7,1,3c0,0.1,0,0.2,0,0.4h-5.8c0,0.9,0.3,1.5,0.7,2
		s1,0.7,1.6,0.7c0.5,0,0.9-0.1,1.2-0.4S-125.6,425.4-125.4,424.9z M-129.7,422.8h4.3c-0.1-0.7-0.2-1.1-0.5-1.5
		c-0.4-0.5-1-0.8-1.6-0.8c-0.6,0-1.1,0.2-1.5,0.6C-129.4,421.5-129.7,422.1-129.7,422.8z"/>
	<path class="st1" d="M-122.4,427.4v-7.8h1.2v1.1c0.6-0.9,1.4-1.3,2.5-1.3c0.5,0,0.9,0.1,1.3,0.3c0.4,0.2,0.7,0.4,0.9,0.7
		s0.3,0.6,0.4,1c0,0.2,0.1,0.7,0.1,1.3v4.8h-1.3v-4.7c0-0.5-0.1-0.9-0.2-1.2c-0.1-0.3-0.3-0.5-0.5-0.6c-0.3-0.2-0.6-0.2-0.9-0.2
		c-0.6,0-1,0.2-1.5,0.5c-0.4,0.4-0.6,1-0.6,2v4.2H-122.4z"/>
	<path class="st1" d="M-108.9,424.5l1.3,0.2c-0.1,0.9-0.5,1.6-1.1,2.1c-0.6,0.5-1.3,0.8-2.2,0.8c-1.1,0-1.9-0.3-2.6-1
		c-0.6-0.7-1-1.7-1-3c0-0.8,0.1-1.6,0.4-2.2s0.7-1.1,1.3-1.4c0.6-0.3,1.2-0.5,1.9-0.5c0.8,0,1.5,0.2,2.1,0.6c0.5,0.4,0.9,1,1,1.8
		l-1.3,0.2c-0.1-0.5-0.3-0.9-0.6-1.2c-0.3-0.3-0.7-0.4-1.1-0.4c-0.7,0-1.2,0.2-1.6,0.7c-0.4,0.5-0.6,1.2-0.6,2.3
		c0,1,0.2,1.8,0.6,2.3s0.9,0.7,1.6,0.7c0.5,0,1-0.2,1.3-0.5S-109,425.2-108.9,424.5z"/>
	<path class="st1" d="M-106.5,418.2v-1.5h1.3v1.5H-106.5z M-106.5,427.4v-7.8h1.3v7.8H-106.5z"/>
	<path class="st1" d="M-98.1,426.4c-0.5,0.4-1,0.7-1.4,0.9c-0.5,0.2-0.9,0.3-1.5,0.3c-0.9,0-1.5-0.2-2-0.6c-0.5-0.4-0.7-1-0.7-1.6
		c0-0.4,0.1-0.7,0.3-1c0.2-0.3,0.4-0.6,0.7-0.8c0.3-0.2,0.6-0.3,0.9-0.4c0.3-0.1,0.6-0.1,1.2-0.2c1.1-0.1,1.8-0.3,2.4-0.5
		c0-0.2,0-0.3,0-0.3c0-0.5-0.1-0.9-0.4-1.1c-0.3-0.3-0.8-0.4-1.5-0.4c-0.6,0-1.1,0.1-1.4,0.3c-0.3,0.2-0.5,0.6-0.7,1.2l-1.3-0.2
		c0.1-0.6,0.3-1,0.6-1.3c0.3-0.3,0.7-0.6,1.2-0.8c0.5-0.2,1.1-0.3,1.8-0.3c0.7,0,1.2,0.1,1.6,0.2s0.7,0.4,0.9,0.6
		c0.2,0.2,0.3,0.5,0.4,0.9c0,0.2,0.1,0.6,0.1,1.2v1.8c0,1.2,0,2,0.1,2.3c0.1,0.3,0.2,0.6,0.3,0.9h-1.4
		C-98,427.1-98.1,426.8-98.1,426.4z M-98.2,423.5c-0.5,0.2-1.2,0.4-2.2,0.5c-0.5,0.1-0.9,0.2-1.2,0.3s-0.4,0.2-0.5,0.4
		c-0.1,0.2-0.2,0.4-0.2,0.6c0,0.4,0.1,0.6,0.4,0.9c0.3,0.2,0.7,0.4,1.2,0.4c0.5,0,1-0.1,1.4-0.3c0.4-0.2,0.7-0.5,0.9-0.9
		c0.1-0.3,0.2-0.7,0.2-1.3V423.5z"/>
	<path class="st1" d="M-90.8,422.7v-1.2l7.1-3v1.3l-5.6,2.3l5.6,2.3v1.3L-90.8,422.7z"/>
	<path class="st1" d="M-82.1,422.7v-1.2l7.1-3v1.3l-5.6,2.3l5.6,2.3v1.3L-82.1,422.7z"/>
	<path class="st1" d="M-73.1,418.2v-1.5h1.3v1.5H-73.1z M-73.1,427.4v-7.8h1.3v7.8H-73.1z"/>
	<path class="st1" d="M-69.8,427.4v-7.8h1.2v1.1c0.6-0.9,1.4-1.3,2.5-1.3c0.5,0,0.9,0.1,1.3,0.3c0.4,0.2,0.7,0.4,0.9,0.7
		s0.3,0.6,0.4,1c0,0.2,0.1,0.7,0.1,1.3v4.8h-1.3v-4.7c0-0.5-0.1-0.9-0.2-1.2c-0.1-0.3-0.3-0.5-0.5-0.6c-0.3-0.2-0.6-0.2-0.9-0.2
		c-0.6,0-1,0.2-1.5,0.5c-0.4,0.4-0.6,1-0.6,2v4.2H-69.8z"/>
	<path class="st1" d="M-56.4,424.5l1.3,0.2c-0.1,0.9-0.5,1.6-1.1,2.1c-0.6,0.5-1.3,0.8-2.1,0.8c-1.1,0-1.9-0.3-2.6-1
		c-0.6-0.7-1-1.7-1-3c0-0.8,0.1-1.6,0.4-2.2s0.7-1.1,1.3-1.4c0.6-0.3,1.2-0.5,1.9-0.5c0.8,0,1.5,0.2,2.1,0.6c0.5,0.4,0.9,1,1,1.8
		l-1.3,0.2c-0.1-0.5-0.3-0.9-0.6-1.2c-0.3-0.3-0.7-0.4-1.1-0.4c-0.7,0-1.2,0.2-1.6,0.7c-0.4,0.5-0.6,1.2-0.6,2.3
		c0,1,0.2,1.8,0.6,2.3s0.9,0.7,1.6,0.7c0.5,0,0.9-0.2,1.3-0.5S-56.5,425.2-56.4,424.5z"/>
	<path class="st1" d="M-54,427.4v-10.7h1.3v10.7H-54z"/>
	<path class="st1" d="M-45.5,427.4v-1.1c-0.6,0.9-1.4,1.3-2.5,1.3c-0.5,0-0.9-0.1-1.3-0.3c-0.4-0.2-0.7-0.4-0.9-0.7
		c-0.2-0.3-0.3-0.6-0.4-1c-0.1-0.3-0.1-0.7-0.1-1.2v-4.8h1.3v4.3c0,0.7,0,1.2,0.1,1.4c0.1,0.3,0.3,0.6,0.5,0.8
		c0.3,0.2,0.6,0.3,1,0.3s0.8-0.1,1.1-0.3c0.3-0.2,0.6-0.5,0.7-0.8c0.1-0.3,0.2-0.9,0.2-1.5v-4.2h1.3v7.8H-45.5z"/>
	<path class="st1" d="M-37.3,427.4v-1c-0.5,0.8-1.2,1.2-2.2,1.2c-0.6,0-1.2-0.2-1.7-0.5c-0.5-0.3-0.9-0.8-1.2-1.4
		c-0.3-0.6-0.4-1.3-0.4-2.1c0-0.8,0.1-1.5,0.4-2.1c0.3-0.6,0.6-1.1,1.2-1.5s1.1-0.5,1.7-0.5c0.5,0,0.9,0.1,1.3,0.3
		c0.4,0.2,0.7,0.5,0.9,0.8v-3.9h1.3v10.7H-37.3z M-41.4,423.5c0,1,0.2,1.7,0.6,2.2s0.9,0.7,1.5,0.7c0.6,0,1.1-0.2,1.5-0.7
		c0.4-0.5,0.6-1.2,0.6-2.2c0-1.1-0.2-1.8-0.6-2.3s-0.9-0.7-1.5-0.7c-0.6,0-1.1,0.2-1.5,0.7C-41.2,421.7-41.4,422.5-41.4,423.5z"/>
	<path class="st1" d="M-28.6,424.9l1.4,0.2c-0.2,0.8-0.6,1.4-1.2,1.9s-1.3,0.7-2.2,0.7c-1.1,0-2-0.3-2.7-1.1c-0.7-0.7-1-1.7-1-2.9
		c0-1.3,0.3-2.3,1-3s1.5-1.1,2.6-1.1c1,0,1.9,0.4,2.5,1.1s1,1.7,1,3c0,0.1,0,0.2,0,0.4H-33c0,0.9,0.3,1.5,0.7,2
		c0.4,0.5,1,0.7,1.6,0.7c0.5,0,0.9-0.1,1.2-0.4S-28.8,425.4-28.6,424.9z M-33,422.8h4.3c-0.1-0.7-0.2-1.1-0.5-1.5
		c-0.4-0.5-1-0.8-1.6-0.8c-0.6,0-1.1,0.2-1.5,0.6C-32.7,421.5-32.9,422.1-33,422.8z"/>
	<path class="st1" d="M-18.7,422.7l-7.1,3v-1.3l5.6-2.3l-5.6-2.3v-1.3l7.1,3V422.7z"/>
	<path class="st1" d="M-9.9,422.7l-7.1,3v-1.3l5.6-2.3l-5.6-2.3v-1.3l7.1,3V422.7z"/>
</g>
</svg>
