<?xml version="1.0" encoding="utf-8"?>
<!-- Generator: Adobe Illustrator 19.0.0, SVG Export Plug-In . SVG Version: 6.00 Build 0)  -->
<svg version="1.1" id="Capa_1" xmlns="http://www.w3.org/2000/svg" xmlns:xlink="http://www.w3.org/1999/xlink" x="0px" y="0px"
	 viewBox="-71.1 398.4 121.3 45.5" style="enable-background:new -71.1 398.4 121.3 45.5;" xml:space="preserve">
<style type="text/css">
	.st0{fill:#FFFFFF;stroke:#252527;stroke-width:3;stroke-miterlimit:10;}
	.st1{fill:#252527;}
</style>
<rect id="XMLID_1_" x="-69.6" y="399.9" class="st0" width="118.3" height="42.5"/>
<g>
	<g>
		<path class="st1" d="M-24.6,423.9l1.4,0.4c-0.3,1.2-0.8,2.1-1.6,2.7c-0.8,0.6-1.7,0.9-2.8,0.9c-1.2,0-2.1-0.2-2.8-0.7
			c-0.7-0.5-1.3-1.2-1.7-2c-0.4-0.9-0.6-1.9-0.6-2.9c0-1.1,0.2-2.1,0.6-2.9c0.4-0.8,1-1.5,1.8-1.9c0.8-0.4,1.7-0.6,2.6-0.6
			c1.1,0,2,0.3,2.7,0.8s1.2,1.3,1.5,2.3l-1.4,0.3c-0.2-0.8-0.6-1.4-1.1-1.7s-1.1-0.5-1.8-0.5c-0.8,0-1.5,0.2-2.1,0.6
			s-0.9,0.9-1.2,1.6c-0.2,0.7-0.3,1.4-0.3,2.1c0,0.9,0.1,1.7,0.4,2.4c0.3,0.7,0.7,1.2,1.2,1.5s1.2,0.5,1.8,0.5c0.8,0,1.5-0.2,2-0.7
			S-24.8,424.8-24.6,423.9z"/>
		<path class="st1" d="M-21.6,427.7V417h1.3v10.7H-21.6z"/>
		<path class="st1" d="M-13.2,426.7c-0.5,0.4-1,0.7-1.4,0.9s-0.9,0.3-1.5,0.3c-0.9,0-1.5-0.2-2-0.6c-0.5-0.4-0.7-1-0.7-1.6
			c0-0.4,0.1-0.7,0.3-1c0.2-0.3,0.4-0.6,0.7-0.8c0.3-0.2,0.6-0.3,0.9-0.4c0.3-0.1,0.6-0.1,1.2-0.2c1.1-0.1,1.8-0.3,2.4-0.5
			c0-0.2,0-0.3,0-0.3c0-0.5-0.1-0.9-0.4-1.1c-0.3-0.3-0.8-0.4-1.5-0.4c-0.6,0-1.1,0.1-1.4,0.3c-0.3,0.2-0.5,0.6-0.7,1.2l-1.3-0.2
			c0.1-0.6,0.3-1,0.6-1.3s0.7-0.6,1.2-0.8c0.5-0.2,1.1-0.3,1.8-0.3c0.7,0,1.2,0.1,1.6,0.2s0.7,0.4,0.9,0.6s0.3,0.5,0.4,0.9
			c0,0.2,0.1,0.6,0.1,1.2v1.8c0,1.2,0,2,0.1,2.3c0.1,0.3,0.2,0.6,0.3,0.9h-1.4C-13.1,427.4-13.2,427.1-13.2,426.7z M-13.3,423.8
			c-0.5,0.2-1.2,0.4-2.2,0.5c-0.5,0.1-0.9,0.2-1.1,0.3s-0.4,0.2-0.5,0.4c-0.1,0.2-0.2,0.4-0.2,0.6c0,0.4,0.1,0.6,0.4,0.9
			c0.3,0.2,0.7,0.4,1.2,0.4c0.5,0,1-0.1,1.4-0.3c0.4-0.2,0.7-0.5,0.9-0.9c0.1-0.3,0.2-0.7,0.2-1.3V423.8z"/>
		<path class="st1" d="M-10.5,425.4l1.3-0.2c0.1,0.5,0.3,0.9,0.6,1.2c0.3,0.3,0.8,0.4,1.4,0.4c0.6,0,1.1-0.1,1.3-0.4
			c0.3-0.2,0.4-0.5,0.4-0.9c0-0.3-0.1-0.5-0.4-0.7c-0.2-0.1-0.6-0.3-1.3-0.4c-1-0.2-1.6-0.5-2-0.6c-0.4-0.2-0.7-0.4-0.8-0.7
			c-0.2-0.3-0.3-0.7-0.3-1c0-0.3,0.1-0.7,0.2-1c0.2-0.3,0.4-0.5,0.6-0.7c0.2-0.2,0.5-0.3,0.8-0.4c0.4-0.1,0.7-0.2,1.1-0.2
			c0.6,0,1.1,0.1,1.6,0.3c0.5,0.2,0.8,0.4,1,0.7c0.2,0.3,0.4,0.7,0.5,1.2l-1.3,0.2c-0.1-0.4-0.2-0.7-0.5-0.9
			c-0.3-0.2-0.7-0.3-1.2-0.3c-0.6,0-1,0.1-1.3,0.3s-0.4,0.4-0.4,0.7c0,0.2,0.1,0.3,0.2,0.5c0.1,0.1,0.3,0.3,0.5,0.4
			c0.1,0,0.5,0.2,1.2,0.3c0.9,0.2,1.6,0.5,2,0.6c0.4,0.2,0.7,0.4,0.9,0.7S-4,425-4,425.4c0,0.4-0.1,0.9-0.4,1.2
			c-0.3,0.4-0.6,0.7-1.1,0.9c-0.5,0.2-1,0.3-1.6,0.3c-1,0-1.8-0.2-2.3-0.6C-10,426.8-10.3,426.2-10.5,425.4z"/>
		<path class="st1" d="M2.9,425.2l1.4,0.2c-0.2,0.8-0.6,1.4-1.2,1.9s-1.3,0.7-2.2,0.7c-1.1,0-2-0.3-2.7-1.1c-0.7-0.7-1-1.7-1-2.9
			c0-1.3,0.3-2.3,1-3s1.5-1.1,2.6-1.1c1,0,1.9,0.4,2.5,1.1s1,1.7,1,3c0,0.1,0,0.2,0,0.4h-5.8c0,0.9,0.3,1.5,0.7,2s1,0.7,1.6,0.7
			c0.5,0,0.9-0.1,1.2-0.4S2.7,425.7,2.9,425.2z M-1.4,423.1h4.3c-0.1-0.7-0.2-1.1-0.5-1.5c-0.4-0.5-1-0.8-1.6-0.8
			c-0.6,0-1.1,0.2-1.5,0.6C-1.2,421.8-1.4,422.4-1.4,423.1z"/>
		<path class="st1" d="M5.4,425.4l1.3-0.2c0.1,0.5,0.3,0.9,0.6,1.2c0.3,0.3,0.8,0.4,1.4,0.4c0.6,0,1.1-0.1,1.3-0.4
			c0.3-0.2,0.4-0.5,0.4-0.9c0-0.3-0.1-0.5-0.4-0.7c-0.2-0.1-0.6-0.3-1.3-0.4c-1-0.2-1.6-0.5-2-0.6c-0.4-0.2-0.7-0.4-0.8-0.7
			c-0.2-0.3-0.3-0.7-0.3-1c0-0.3,0.1-0.7,0.2-1c0.2-0.3,0.4-0.5,0.6-0.7c0.2-0.2,0.5-0.3,0.8-0.4c0.4-0.1,0.7-0.2,1.1-0.2
			c0.6,0,1.1,0.1,1.6,0.3c0.5,0.2,0.8,0.4,1,0.7c0.2,0.3,0.4,0.7,0.5,1.2l-1.3,0.2c-0.1-0.4-0.2-0.7-0.5-0.9
			c-0.3-0.2-0.7-0.3-1.2-0.3c-0.6,0-1,0.1-1.3,0.3s-0.4,0.4-0.4,0.7c0,0.2,0.1,0.3,0.2,0.5c0.1,0.1,0.3,0.3,0.5,0.4
			c0.1,0,0.5,0.2,1.2,0.3c0.9,0.2,1.6,0.5,2,0.6c0.4,0.2,0.7,0.4,0.9,0.7s0.3,0.7,0.3,1.1c0,0.4-0.1,0.9-0.4,1.2
			c-0.3,0.4-0.6,0.7-1.1,0.9c-0.5,0.2-1,0.3-1.6,0.3c-1,0-1.8-0.2-2.3-0.6C5.9,426.8,5.5,426.2,5.4,425.4z"/>
	</g>
</g>
</svg>
