<?xml version="1.0" encoding="utf-8"?>
<!-- Generator: Adobe Illustrator 19.0.0, SVG Export Plug-In . SVG Version: 6.00 Build 0)  -->
<svg version="1.1" id="Capa_1" xmlns="http://www.w3.org/2000/svg" xmlns:xlink="http://www.w3.org/1999/xlink" x="0px" y="0px"
	 viewBox="-174 387.8 246 67.1" style="enable-background:new -174 387.8 246 67.1;" xml:space="preserve">
<style type="text/css">
	.st0{fill:#C98C1F;}
	.st1{fill:#F9D523;}
	.st2{fill:#0E0E0F;}
	.st3{opacity:0.75;fill:#966A14;enable-background:new    ;}
	.st4{enable-background:new    ;}
	.st5{fill:#A7A9AC;}
	.st6{fill:#FFFFFF;}
</style>
<g id="Capa_1_1_">
	<g id="XMLID_11780_">
		<g id="XMLID_11785_">
			<g id="XMLID_79_">
				<polygon id="XMLID_80_" class="st0" points="58,454.9 72,437.2 61.6,395 58,395 				"/>
			</g>
		</g>
		<rect id="XMLID_11784_" x="-174" y="387.8" class="st1" width="246" height="49.4"/>
		<polygon id="XMLID_11781_" class="st2" points="55,437.2 -174,437.2 55,444.2 		"/>
	</g>
	<g id="XMLID_4_">
		<polygon id="XMLID_5_" class="st3" points="55,444.2 58,444.3 58,437.2 55,437.2 		"/>
	</g>
</g>
<g id="Capa_2">
	<g id="XMLID_11764_">
		<g class="st4">
			<path d="M-113.7,411v-10.7h7.8v1.3h-6.3v3.3h5.9v1.3h-5.9v3.7h6.6v1.3H-113.7z"/>
			<path d="M-103.9,411v-10.7h1.3V411H-103.9z"/>
			<path d="M-96.4,411v-10.7h1.3V411H-96.4z"/>
			<path d="M-87.7,408.5l1.4,0.2c-0.2,0.8-0.6,1.4-1.2,1.9s-1.3,0.7-2.2,0.7c-1.1,0-2-0.4-2.7-1.1c-0.7-0.7-1-1.7-1-2.9
				c0-1.3,0.3-2.3,1-3s1.5-1.1,2.6-1.1c1,0,1.9,0.4,2.5,1.1c0.7,0.7,1,1.7,1,3c0,0.1,0,0.2,0,0.4h-5.8c0,0.9,0.3,1.5,0.7,2
				c0.4,0.5,1,0.7,1.6,0.7c0.5,0,0.9-0.1,1.2-0.4S-87.9,409.1-87.7,408.5z M-92,406.4h4.3c-0.1-0.7-0.2-1.1-0.5-1.5
				c-0.4-0.5-1-0.8-1.6-0.8c-0.6,0-1.1,0.2-1.5,0.6C-91.8,405.1-92,405.7-92,406.4z"/>
			<path d="M-84.7,411v-7.8h1.2v1.1c0.6-0.9,1.4-1.3,2.5-1.3c0.5,0,0.9,0.1,1.3,0.3c0.4,0.2,0.7,0.4,0.9,0.7c0.2,0.3,0.3,0.6,0.4,1
				c0,0.2,0.1,0.7,0.1,1.3v4.8h-1.3v-4.7c0-0.5-0.1-0.9-0.2-1.2c-0.1-0.3-0.3-0.5-0.5-0.6c-0.3-0.2-0.6-0.2-0.9-0.2
				c-0.6,0-1,0.2-1.5,0.5c-0.4,0.4-0.6,1-0.6,2v4.2H-84.7z"/>
			<path d="M-76.6,411.6l1.3,0.2c0.1,0.4,0.2,0.7,0.4,0.9c0.3,0.2,0.8,0.4,1.3,0.4c0.6,0,1.1-0.1,1.4-0.4s0.6-0.6,0.7-1
				c0.1-0.3,0.1-0.8,0.1-1.7c-0.6,0.7-1.3,1-2.2,1c-1.1,0-1.9-0.4-2.5-1.2s-0.9-1.7-0.9-2.8c0-0.7,0.1-1.4,0.4-2.1
				c0.3-0.6,0.7-1.1,1.2-1.5c0.5-0.3,1.1-0.5,1.8-0.5c0.9,0,1.7,0.4,2.3,1.1v-0.9h1.2v6.7c0,1.2-0.1,2.1-0.4,2.6
				c-0.2,0.5-0.6,0.9-1.2,1.2c-0.5,0.3-1.2,0.4-2,0.4c-0.9,0-1.7-0.2-2.2-0.6C-76.3,413.1-76.6,412.5-76.6,411.6z M-75.5,407
				c0,1,0.2,1.8,0.6,2.2s0.9,0.7,1.5,0.7c0.6,0,1.1-0.2,1.5-0.7c0.4-0.5,0.6-1.2,0.6-2.2c0-1-0.2-1.7-0.6-2.2s-0.9-0.7-1.5-0.7
				c-0.6,0-1.1,0.2-1.5,0.7C-75.3,405.3-75.5,406-75.5,407z"/>
			<path d="M-62.9,411v-1.1c-0.6,0.9-1.4,1.3-2.5,1.3c-0.5,0-0.9-0.1-1.3-0.3c-0.4-0.2-0.7-0.4-0.9-0.7c-0.2-0.3-0.3-0.6-0.4-1
				C-68,409-68,408.6-68,408v-4.8h1.3v4.3c0,0.7,0,1.2,0.1,1.4c0.1,0.3,0.3,0.6,0.5,0.8c0.3,0.2,0.6,0.3,1,0.3s0.8-0.1,1.1-0.3
				c0.3-0.2,0.6-0.5,0.7-0.8c0.1-0.3,0.2-0.9,0.2-1.5v-4.2h1.3v7.8H-62.9z"/>
			<path d="M-54.6,410c-0.5,0.4-1,0.7-1.4,0.9c-0.5,0.2-0.9,0.3-1.5,0.3c-0.9,0-1.5-0.2-2-0.6c-0.5-0.4-0.7-1-0.7-1.6
				c0-0.4,0.1-0.7,0.3-1c0.2-0.3,0.4-0.6,0.7-0.8c0.3-0.2,0.6-0.3,0.9-0.4c0.3-0.1,0.6-0.1,1.2-0.2c1.1-0.1,1.8-0.3,2.4-0.5
				c0-0.2,0-0.3,0-0.3c0-0.5-0.1-0.9-0.4-1.1c-0.3-0.3-0.8-0.4-1.5-0.4c-0.6,0-1.1,0.1-1.4,0.3c-0.3,0.2-0.5,0.6-0.7,1.2l-1.3-0.2
				c0.1-0.6,0.3-1,0.6-1.3c0.3-0.3,0.7-0.6,1.2-0.8c0.5-0.2,1.1-0.3,1.8-0.3c0.7,0,1.2,0.1,1.6,0.2s0.7,0.4,0.9,0.6
				c0.2,0.2,0.3,0.5,0.4,0.9c0,0.2,0.1,0.6,0.1,1.2v1.8c0,1.2,0,2,0.1,2.3c0.1,0.3,0.2,0.6,0.3,0.9h-1.4
				C-54.5,410.7-54.6,410.4-54.6,410z M-54.7,407.1c-0.5,0.2-1.2,0.4-2.2,0.5c-0.5,0.1-0.9,0.2-1.1,0.3c-0.2,0.1-0.4,0.2-0.5,0.4
				c-0.1,0.2-0.2,0.4-0.2,0.6c0,0.4,0.1,0.6,0.4,0.9c0.3,0.2,0.7,0.4,1.2,0.4c0.5,0,1-0.1,1.4-0.3c0.4-0.2,0.7-0.5,0.9-0.9
				c0.1-0.3,0.2-0.7,0.2-1.3V407.1z"/>
			<path d="M-53,414l0.2-1.1c0.3,0.1,0.5,0.1,0.6,0.1c0.3,0,0.5-0.1,0.6-0.3c0.1-0.2,0.2-0.6,0.2-1.3v-8.2h1.3v8.2
				c0,1-0.1,1.6-0.4,2c-0.3,0.5-0.8,0.7-1.6,0.7C-52.3,414.2-52.7,414.1-53,414z M-51.3,401.8v-1.5h1.3v1.5H-51.3z"/>
			<path d="M-42.7,408.5l1.4,0.2c-0.2,0.8-0.6,1.4-1.2,1.9s-1.3,0.7-2.2,0.7c-1.1,0-2-0.4-2.7-1.1c-0.7-0.7-1-1.7-1-2.9
				c0-1.3,0.3-2.3,1-3s1.5-1.1,2.6-1.1c1,0,1.9,0.4,2.5,1.1c0.7,0.7,1,1.7,1,3c0,0.1,0,0.2,0,0.4h-5.8c0,0.9,0.3,1.5,0.7,2
				c0.4,0.5,1,0.7,1.6,0.7c0.5,0,0.9-0.1,1.2-0.4S-42.9,409.1-42.7,408.5z M-47,406.4h4.3c-0.1-0.7-0.2-1.1-0.5-1.5
				c-0.4-0.5-1-0.8-1.6-0.8c-0.6,0-1.1,0.2-1.5,0.6C-46.7,405.1-47,405.7-47,406.4z"/>
			<path d="M-30.4,411v-1.1c-0.6,0.9-1.4,1.3-2.5,1.3c-0.5,0-0.9-0.1-1.3-0.3c-0.4-0.2-0.7-0.4-0.9-0.7c-0.2-0.3-0.3-0.6-0.4-1
				c-0.1-0.3-0.1-0.7-0.1-1.2v-4.8h1.3v4.3c0,0.7,0,1.2,0.1,1.4c0.1,0.3,0.3,0.6,0.5,0.8c0.3,0.2,0.6,0.3,1,0.3s0.8-0.1,1.1-0.3
				c0.3-0.2,0.6-0.5,0.7-0.8c0.1-0.3,0.2-0.9,0.2-1.5v-4.2h1.3v7.8H-30.4z"/>
			<path d="M-27.1,411v-7.8h1.2v1.1c0.6-0.9,1.4-1.3,2.5-1.3c0.5,0,0.9,0.1,1.3,0.3c0.4,0.2,0.7,0.4,0.9,0.7c0.2,0.3,0.3,0.6,0.4,1
				c0,0.2,0.1,0.7,0.1,1.3v4.8h-1.3v-4.7c0-0.5-0.1-0.9-0.2-1.2c-0.1-0.3-0.3-0.5-0.5-0.6c-0.3-0.2-0.6-0.2-0.9-0.2
				c-0.6,0-1,0.2-1.5,0.5c-0.4,0.4-0.6,1-0.6,2v4.2H-27.1z"/>
			<path d="M-18.8,401.8v-1.5h1.3v1.5H-18.8z M-18.8,411v-7.8h1.3v7.8H-18.8z"/>
			<path d="M-15.2,411v-6.8h-1.2v-1h1.2v-0.8c0-0.5,0-0.9,0.1-1.2c0.1-0.3,0.3-0.6,0.7-0.8c0.3-0.2,0.8-0.3,1.3-0.3
				c0.4,0,0.8,0,1.2,0.1l-0.2,1.2c-0.3,0-0.5-0.1-0.8-0.1c-0.4,0-0.7,0.1-0.8,0.3s-0.2,0.5-0.2,1v0.7h1.5v1h-1.5v6.8H-15.2z"/>
			<path d="M-11.3,401.8v-1.5h1.3v1.5H-11.3z M-11.3,411v-7.8h1.3v7.8H-11.3z"/>
			<path d="M-2.9,408.1l1.3,0.2c-0.1,0.9-0.5,1.6-1.1,2.1c-0.6,0.5-1.3,0.8-2.1,0.8c-1.1,0-1.9-0.3-2.6-1c-0.6-0.7-1-1.7-1-3
				c0-0.8,0.1-1.6,0.4-2.2s0.7-1.1,1.3-1.4c0.6-0.3,1.2-0.5,1.9-0.5c0.8,0,1.5,0.2,2.1,0.6c0.5,0.4,0.9,1,1,1.8l-1.3,0.2
				c-0.1-0.5-0.3-0.9-0.6-1.2c-0.3-0.3-0.7-0.4-1.1-0.4c-0.7,0-1.2,0.2-1.6,0.7c-0.4,0.5-0.6,1.2-0.6,2.3c0,1,0.2,1.8,0.6,2.3
				c0.4,0.5,0.9,0.7,1.6,0.7c0.5,0,0.9-0.2,1.3-0.5C-3.2,409.3-3,408.8-2.9,408.1z"/>
			<path d="M4.6,410c-0.5,0.4-1,0.7-1.4,0.9c-0.5,0.2-0.9,0.3-1.5,0.3c-0.9,0-1.5-0.2-2-0.6c-0.5-0.4-0.7-1-0.7-1.6
				c0-0.4,0.1-0.7,0.3-1c0.2-0.3,0.4-0.6,0.7-0.8c0.3-0.2,0.6-0.3,0.9-0.4c0.3-0.1,0.6-0.1,1.2-0.2c1.1-0.1,1.8-0.3,2.4-0.5
				c0-0.2,0-0.3,0-0.3c0-0.5-0.1-0.9-0.4-1.1c-0.3-0.3-0.8-0.4-1.5-0.4c-0.6,0-1.1,0.1-1.4,0.3c-0.3,0.2-0.5,0.6-0.7,1.2l-1.3-0.2
				c0.1-0.6,0.3-1,0.6-1.3c0.3-0.3,0.7-0.6,1.2-0.8c0.5-0.2,1.1-0.3,1.8-0.3c0.7,0,1.2,0.1,1.6,0.2s0.7,0.4,0.9,0.6
				c0.2,0.2,0.3,0.5,0.4,0.9c0,0.2,0.1,0.6,0.1,1.2v1.8c0,1.2,0,2,0.1,2.3c0.1,0.3,0.2,0.6,0.3,0.9H4.9C4.7,410.7,4.6,410.4,4.6,410
				z M4.5,407.1c-0.5,0.2-1.2,0.4-2.2,0.5c-0.5,0.1-0.9,0.2-1.2,0.3c-0.2,0.1-0.4,0.2-0.5,0.4c-0.1,0.2-0.2,0.4-0.2,0.6
				c0,0.4,0.1,0.6,0.4,0.9c0.3,0.2,0.7,0.4,1.2,0.4c0.5,0,1-0.1,1.4-0.3c0.4-0.2,0.7-0.5,0.9-0.9c0.1-0.3,0.2-0.7,0.2-1.3V407.1z"/>
			<path d="M12.9,411v-1c-0.5,0.8-1.2,1.2-2.2,1.2c-0.6,0-1.2-0.2-1.7-0.5c-0.5-0.3-0.9-0.8-1.2-1.4c-0.3-0.6-0.4-1.3-0.4-2.1
				c0-0.8,0.1-1.5,0.4-2.1c0.3-0.6,0.6-1.1,1.2-1.5c0.5-0.3,1.1-0.5,1.7-0.5c0.5,0,0.9,0.1,1.3,0.3c0.4,0.2,0.7,0.5,0.9,0.8v-3.9
				h1.3V411H12.9z M8.7,407.1c0,1,0.2,1.7,0.6,2.2c0.4,0.5,0.9,0.7,1.5,0.7c0.6,0,1.1-0.2,1.5-0.7c0.4-0.5,0.6-1.2,0.6-2.2
				c0-1.1-0.2-1.8-0.6-2.3s-0.9-0.7-1.5-0.7c-0.6,0-1.1,0.2-1.5,0.7C8.9,405.3,8.7,406.1,8.7,407.1z"/>
			<path d="M15.7,407.1c0-1.4,0.4-2.5,1.2-3.2c0.7-0.6,1.5-0.9,2.4-0.9c1.1,0,1.9,0.4,2.6,1.1c0.7,0.7,1,1.7,1,2.9
				c0,1-0.2,1.8-0.5,2.4c-0.3,0.6-0.7,1-1.3,1.3c-0.6,0.3-1.2,0.5-1.9,0.5c-1.1,0-2-0.3-2.6-1C16.1,409.4,15.7,408.4,15.7,407.1z
				 M17.1,407.1c0,1,0.2,1.7,0.7,2.2c0.4,0.5,1,0.7,1.6,0.7c0.7,0,1.2-0.2,1.6-0.7s0.7-1.3,0.7-2.3c0-1-0.2-1.7-0.7-2.2
				c-0.4-0.5-1-0.7-1.6-0.7c-0.7,0-1.2,0.2-1.6,0.7S17.1,406.1,17.1,407.1z"/>
		</g>
		<g class="st4">
			<path d="M-108.8,427v-1c-0.5,0.8-1.2,1.2-2.2,1.2c-0.6,0-1.2-0.2-1.7-0.5c-0.5-0.3-0.9-0.8-1.2-1.4c-0.3-0.6-0.4-1.3-0.4-2.1
				c0-0.8,0.1-1.5,0.4-2.1c0.3-0.6,0.6-1.1,1.2-1.5c0.5-0.3,1.1-0.5,1.7-0.5c0.5,0,0.9,0.1,1.3,0.3c0.4,0.2,0.7,0.5,0.9,0.8v-3.9
				h1.3V427H-108.8z M-113,423.1c0,1,0.2,1.7,0.6,2.2c0.4,0.5,0.9,0.7,1.5,0.7c0.6,0,1.1-0.2,1.5-0.7c0.4-0.5,0.6-1.2,0.6-2.2
				c0-1.1-0.2-1.8-0.6-2.3s-0.9-0.7-1.5-0.7c-0.6,0-1.1,0.2-1.5,0.7S-113,422.1-113,423.1z"/>
			<path d="M-100.2,424.5l1.4,0.2c-0.2,0.8-0.6,1.4-1.2,1.9s-1.3,0.7-2.2,0.7c-1.1,0-2-0.4-2.7-1.1c-0.7-0.7-1-1.7-1-2.9
				c0-1.3,0.3-2.3,1-3s1.5-1.1,2.6-1.1c1,0,1.9,0.4,2.5,1.1c0.7,0.7,1,1.7,1,3c0,0.1,0,0.2,0,0.4h-5.8c0,0.9,0.3,1.5,0.7,2
				c0.4,0.5,1,0.7,1.6,0.7c0.5,0,0.9-0.1,1.2-0.4S-100.4,425.1-100.2,424.5z M-104.5,422.4h4.3c-0.1-0.7-0.2-1.1-0.5-1.5
				c-0.4-0.5-1-0.8-1.6-0.8c-0.6,0-1.1,0.2-1.5,0.6C-104.3,421.1-104.5,421.7-104.5,422.4z"/>
			<path d="M-93,427v-7.8h1.2v1.1c0.2-0.4,0.6-0.7,1-0.9c0.4-0.2,0.9-0.3,1.4-0.3c0.6,0,1,0.1,1.4,0.4c0.4,0.2,0.6,0.6,0.8,1
				c0.6-0.9,1.4-1.4,2.4-1.4c0.8,0,1.4,0.2,1.8,0.6c0.4,0.4,0.6,1.1,0.6,2v5.3h-1.3v-4.9c0-0.5,0-0.9-0.1-1.1
				c-0.1-0.2-0.2-0.4-0.5-0.6c-0.2-0.1-0.5-0.2-0.8-0.2c-0.5,0-1,0.2-1.4,0.5c-0.4,0.4-0.5,0.9-0.5,1.7v4.5h-1.3v-5.1
				c0-0.6-0.1-1-0.3-1.3s-0.6-0.4-1.1-0.4c-0.4,0-0.7,0.1-1,0.3c-0.3,0.2-0.5,0.5-0.7,0.9c-0.1,0.4-0.2,0.9-0.2,1.6v4H-93z"/>
			<path d="M-81,423.1c0-1.4,0.4-2.5,1.2-3.2c0.7-0.6,1.5-0.9,2.4-0.9c1.1,0,1.9,0.4,2.6,1.1c0.7,0.7,1,1.7,1,2.9
				c0,1-0.1,1.8-0.5,2.4c-0.3,0.6-0.7,1-1.3,1.3c-0.6,0.3-1.2,0.5-1.9,0.5c-1.1,0-2-0.3-2.6-1S-81,424.4-81,423.1z M-79.7,423.1
				c0,1,0.2,1.7,0.7,2.2c0.4,0.5,1,0.7,1.6,0.7c0.7,0,1.2-0.2,1.6-0.7s0.7-1.3,0.7-2.3c0-1-0.2-1.7-0.7-2.2c-0.4-0.5-1-0.7-1.6-0.7
				c-0.7,0-1.2,0.2-1.6,0.7S-79.7,422.1-79.7,423.1z"/>
			<path d="M-67.1,427v-1c-0.5,0.8-1.2,1.2-2.2,1.2c-0.6,0-1.2-0.2-1.7-0.5c-0.5-0.3-0.9-0.8-1.2-1.4c-0.3-0.6-0.4-1.3-0.4-2.1
				c0-0.8,0.1-1.5,0.4-2.1c0.3-0.6,0.6-1.1,1.2-1.5c0.5-0.3,1.1-0.5,1.7-0.5c0.5,0,0.9,0.1,1.3,0.3c0.4,0.2,0.7,0.5,0.9,0.8v-3.9
				h1.3V427H-67.1z M-71.3,423.1c0,1,0.2,1.7,0.6,2.2c0.4,0.5,0.9,0.7,1.5,0.7c0.6,0,1.1-0.2,1.5-0.7c0.4-0.5,0.6-1.2,0.6-2.2
				c0-1.1-0.2-1.8-0.6-2.3s-0.9-0.7-1.5-0.7c-0.6,0-1.1,0.2-1.5,0.7S-71.3,422.1-71.3,423.1z"/>
			<path d="M-58.5,424.5l1.4,0.2c-0.2,0.8-0.6,1.4-1.2,1.9s-1.3,0.7-2.2,0.7c-1.1,0-2-0.4-2.7-1.1c-0.7-0.7-1-1.7-1-2.9
				c0-1.3,0.3-2.3,1-3s1.5-1.1,2.6-1.1c1,0,1.9,0.4,2.5,1.1c0.7,0.7,1,1.7,1,3c0,0.1,0,0.2,0,0.4h-5.8c0,0.9,0.3,1.5,0.7,2
				c0.4,0.5,1,0.7,1.6,0.7c0.5,0,0.9-0.1,1.2-0.4S-58.7,425.1-58.5,424.5z M-62.9,422.4h4.3c-0.1-0.7-0.2-1.1-0.5-1.5
				c-0.4-0.5-1-0.8-1.6-0.8c-0.6,0-1.1,0.2-1.5,0.6C-62.6,421.1-62.8,421.7-62.9,422.4z"/>
			<path d="M-55.5,427v-10.7h1.3V427H-55.5z"/>
			<path d="M-47.1,426c-0.5,0.4-1,0.7-1.4,0.9c-0.5,0.2-0.9,0.3-1.5,0.3c-0.9,0-1.5-0.2-2-0.6c-0.5-0.4-0.7-1-0.7-1.6
				c0-0.4,0.1-0.7,0.3-1c0.2-0.3,0.4-0.6,0.7-0.8c0.3-0.2,0.6-0.3,0.9-0.4c0.3-0.1,0.6-0.1,1.2-0.2c1.1-0.1,1.8-0.3,2.4-0.5
				c0-0.2,0-0.3,0-0.3c0-0.5-0.1-0.9-0.4-1.1c-0.3-0.3-0.8-0.4-1.5-0.4c-0.6,0-1.1,0.1-1.4,0.3c-0.3,0.2-0.5,0.6-0.7,1.2l-1.3-0.2
				c0.1-0.6,0.3-1,0.6-1.3c0.3-0.3,0.7-0.6,1.2-0.8c0.5-0.2,1.1-0.3,1.8-0.3c0.7,0,1.2,0.1,1.6,0.2s0.7,0.4,0.9,0.6
				c0.2,0.2,0.3,0.5,0.4,0.9c0,0.2,0.1,0.6,0.1,1.2v1.8c0,1.2,0,2,0.1,2.3c0.1,0.3,0.2,0.6,0.3,0.9h-1.4
				C-47,426.7-47.1,426.4-47.1,426z M-47.2,423.1c-0.5,0.2-1.2,0.4-2.2,0.5c-0.5,0.1-0.9,0.2-1.1,0.3c-0.2,0.1-0.4,0.2-0.5,0.4
				c-0.1,0.2-0.2,0.4-0.2,0.6c0,0.4,0.1,0.6,0.4,0.9c0.3,0.2,0.7,0.4,1.2,0.4c0.5,0,1-0.1,1.4-0.3c0.4-0.2,0.7-0.5,0.9-0.9
				c0.1-0.3,0.2-0.7,0.2-1.3V423.1z"/>
			<path d="M-38.8,427v-1c-0.5,0.8-1.2,1.2-2.2,1.2c-0.6,0-1.2-0.2-1.7-0.5c-0.5-0.3-0.9-0.8-1.2-1.4c-0.3-0.6-0.4-1.3-0.4-2.1
				c0-0.8,0.1-1.5,0.4-2.1c0.3-0.6,0.6-1.1,1.2-1.5c0.5-0.3,1.1-0.5,1.7-0.5c0.5,0,0.9,0.1,1.3,0.3c0.4,0.2,0.7,0.5,0.9,0.8v-3.9
				h1.3V427H-38.8z M-43,423.1c0,1,0.2,1.7,0.6,2.2c0.4,0.5,0.9,0.7,1.5,0.7c0.6,0,1.1-0.2,1.5-0.7c0.4-0.5,0.6-1.2,0.6-2.2
				c0-1.1-0.2-1.8-0.6-2.3s-0.9-0.7-1.5-0.7c-0.6,0-1.1,0.2-1.5,0.7C-42.8,421.3-43,422.1-43,423.1z"/>
			<path d="M-36,423.1c0-1.4,0.4-2.5,1.2-3.2c0.7-0.6,1.5-0.9,2.4-0.9c1.1,0,1.9,0.4,2.6,1.1c0.7,0.7,1,1.7,1,2.9
				c0,1-0.1,1.8-0.5,2.4c-0.3,0.6-0.7,1-1.3,1.3c-0.6,0.3-1.2,0.5-1.9,0.5c-1.1,0-2-0.3-2.6-1C-35.6,425.4-36,424.4-36,423.1z
				 M-34.6,423.1c0,1,0.2,1.7,0.7,2.2c0.4,0.5,1,0.7,1.6,0.7c0.7,0,1.2-0.2,1.6-0.7s0.7-1.3,0.7-2.3c0-1-0.2-1.7-0.7-2.2
				c-0.4-0.5-1-0.7-1.6-0.7c-0.7,0-1.2,0.2-1.6,0.7S-34.6,422.1-34.6,423.1z"/>
			<path d="M-21.9,418.1v1.5h-1.4v-1.2c0-0.7,0.1-1.1,0.2-1.4c0.2-0.4,0.5-0.7,1-0.9l0.3,0.5c-0.3,0.1-0.5,0.3-0.6,0.5
				c-0.1,0.2-0.2,0.5-0.2,1H-21.9z M-19.7,418.1v1.5h-1.4v-1.2c0-0.7,0.1-1.1,0.2-1.4c0.2-0.4,0.5-0.7,1-0.9l0.3,0.5
				c-0.3,0.1-0.5,0.3-0.6,0.5c-0.1,0.2-0.2,0.5-0.2,1H-19.7z"/>
			<path d="M-10.8,416.3h1.4v6.2c0,1.1-0.1,1.9-0.4,2.6s-0.7,1.2-1.3,1.5c-0.6,0.4-1.5,0.6-2.5,0.6c-1,0-1.8-0.2-2.5-0.5
				s-1.1-0.8-1.4-1.5c-0.3-0.7-0.4-1.6-0.4-2.7v-6.2h1.4v6.2c0,0.9,0.1,1.6,0.3,2.1c0.2,0.4,0.5,0.8,0.9,1c0.4,0.2,0.9,0.4,1.5,0.4
				c1,0,1.8-0.2,2.2-0.7s0.7-1.4,0.7-2.7V416.3z"/>
			<path d="M-7,427v-10.7h2.1l2.5,7.6c0.2,0.7,0.4,1.2,0.5,1.6c0.1-0.4,0.3-1,0.6-1.7l2.6-7.5h1.9V427H1.8v-9l-3.1,9h-1.3l-3.1-9.1
				v9.1H-7z"/>
			<path d="M5.5,427v-10.7h1.4v9.5h5.3v1.3H5.5z"/>
			<path d="M13.3,417.7v-1.5h1.4v1.2c0,0.7-0.1,1.1-0.2,1.4c-0.2,0.4-0.5,0.7-1,0.9l-0.3-0.5c0.3-0.1,0.5-0.3,0.6-0.5
				c0.1-0.2,0.2-0.6,0.2-1H13.3z M15.6,417.7v-1.5H17v1.2c0,0.7-0.1,1.1-0.2,1.4c-0.2,0.4-0.5,0.7-1,0.9l-0.3-0.5
				c0.3-0.1,0.5-0.3,0.6-0.5c0.1-0.2,0.2-0.6,0.2-1H15.6z"/>
		</g>
	</g>
	<g id="XMLID_8306_">
		<path id="XMLID_10001_" class="st5" d="M-132.1,422.9h-27.2c-0.3,0-0.6-0.3-0.6-0.6v-3.6h28.5v3.6
			C-131.5,422.7-131.7,422.9-132.1,422.9L-132.1,422.9z"/>
		<path id="XMLID_9998_" class="st6" d="M-130,398.8h-11.9c-1.1,0-2,0.9-2,2v7.3c0,1.1,0.9,2,2,2h1.5v3.5l3.6-3.5h6.8
			c1.1,0,2-0.9,2-2v-7.3C-128,399.6-128.9,398.8-130,398.8L-130,398.8z"/>
		<path id="XMLID_9993_" d="M-131.5,411.8c-0.3,0-0.6,0.3-0.6,0.6v5.9h-27.3v-13.4c0-0.7,0.6-1.3,1.3-1.3h11.8
			c0.3,0,0.6-0.3,0.6-0.6c0-0.3-0.3-0.6-0.6-0.6H-158c-1.4,0-2.6,1.2-2.6,2.6v16.3c0,1.4,1.2,2.6,2.6,2.6h11.7v4h-5.5
			c-0.3,0-0.6,0.3-0.6,0.6s0.3,0.6,0.6,0.6h12.2c0.3,0,0.6-0.3,0.6-0.6s-0.3-0.6-0.6-0.6h-5.5v-4h11.7c1.4,0,2.6-1.2,2.6-2.6v-8.7
			C-130.9,412.1-131.1,411.8-131.5,411.8L-131.5,411.8z M-133.4,422.5H-158c-0.7,0-1.3-0.6-1.3-1.3v-1.5h27.3v1.5
			C-132.1,421.9-132.7,422.5-133.4,422.5L-133.4,422.5z"/>
		<path id="XMLID_9989_" d="M-130,398.1h-11.9c-1.4,0-2.6,1.2-2.6,2.6v7.3c0,1.4,1.2,2.6,2.6,2.6h0.9v2.8c0,0.2,0.1,0.5,0.4,0.6
			c0.1,0,0.2,0,0.2,0c0.2,0,0.3-0.1,0.4-0.2l3.4-3.3h6.6c1.4,0,2.6-1.2,2.6-2.6v-7.3C-127.4,399.3-128.5,398.1-130,398.1L-130,398.1
			z M-128.6,408c0,0.7-0.6,1.3-1.3,1.3h-6.7c-0.2,0-0.3,0.1-0.4,0.2l-2.6,2.5v-2c0-0.2-0.1-0.3-0.2-0.4c-0.1-0.1-0.3-0.2-0.4-0.2
			h-1.5c-0.7,0-1.3-0.6-1.3-1.3v-7.2c0-0.7,0.6-1.3,1.3-1.3h11.7c0.7,0,1.3,0.6,1.3,1.3L-128.6,408L-128.6,408z"/>
		<path id="XMLID_9985_" d="M-135.9,404c-0.2,0-0.3,0.1-0.4,0.2c-0.1,0.1-0.2,0.3-0.2,0.4c0,0.2,0.1,0.3,0.2,0.4
			c0.1,0.1,0.3,0.2,0.4,0.2c0.2,0,0.3-0.1,0.4-0.2s0.2-0.3,0.2-0.4c0-0.2-0.1-0.3-0.2-0.4C-135.6,404-135.7,404-135.9,404
			L-135.9,404z"/>
		<path id="XMLID_9982_" d="M-133.6,404c-0.2,0-0.3,0.1-0.4,0.2s-0.2,0.3-0.2,0.4c0,0.2,0.1,0.3,0.2,0.4s0.3,0.2,0.4,0.2
			c0.2,0,0.3-0.1,0.4-0.2c0.1-0.1,0.2-0.3,0.2-0.4c0-0.2-0.1-0.3-0.2-0.4C-133.3,404-133.4,404-133.6,404L-133.6,404z"/>
		<path id="XMLID_8307_" d="M-138.2,404c-0.2,0-0.3,0.1-0.4,0.2c-0.1,0.1-0.2,0.3-0.2,0.4c0,0.2,0.1,0.3,0.2,0.4s0.3,0.2,0.4,0.2
			c0.2,0,0.3-0.1,0.4-0.2c0.1-0.1,0.2-0.3,0.2-0.4c0-0.2-0.1-0.3-0.2-0.4C-137.9,404-138,404-138.2,404L-138.2,404z"/>
	</g>
</g>
</svg>
