<?xml version="1.0" encoding="utf-8"?>
<!-- Generator: Adobe Illustrator 19.0.0, SVG Export Plug-In . SVG Version: 6.00 Build 0)  -->
<svg version="1.1" id="Capa_1" xmlns="http://www.w3.org/2000/svg" xmlns:xlink="http://www.w3.org/1999/xlink" x="0px" y="0px"
	 viewBox="-174 387.8 246 67.1" style="enable-background:new -174 387.8 246 67.1;" xml:space="preserve">
<style type="text/css">
	.st0{fill:#898989;}
	.st1{fill:#E5E5E5;}
	.st2{fill:#0E0E0F;}
	.st3{opacity:0.75;fill:#966A14;enable-background:new    ;}
	.st4{enable-background:new    ;}
	.st5{fill:#F9D523;}
</style>
<g id="Capa_1_1_">
	<g id="XMLID_11780_">
		<g id="XMLID_11785_">
			<g id="XMLID_79_">
				<polygon id="XMLID_80_" class="st0" points="58,454.9 72,437.2 61.6,395 58,395 				"/>
			</g>
		</g>
		<rect id="XMLID_11784_" x="-174" y="387.8" class="st1" width="246" height="49.4"/>
		<polygon id="XMLID_11781_" class="st2" points="55,437.2 -174,437.2 55,444.2 		"/>
	</g>
	<g id="XMLID_4_">
		<polygon id="XMLID_5_" class="st3" points="55,444.2 58,444.3 58,437.2 55,437.2 		"/>
	</g>
</g>
<g id="Capa_2">
	<g id="XMLID_1015_">
		<g class="st4">
			<path d="M-109.6,417.8v-9.5h-3.5v-1.3h8.5v1.3h-3.6v9.5H-109.6z"/>
			<path d="M-103.9,408.6v-1.5h1.3v1.5H-103.9z M-103.9,417.8v-7.8h1.3v7.8H-103.9z"/>
			<path d="M-100.6,420.8v-10.8h1.2v1c0.3-0.4,0.6-0.7,1-0.9c0.4-0.2,0.8-0.3,1.3-0.3c0.7,0,1.3,0.2,1.8,0.5s0.9,0.8,1.1,1.4
				c0.3,0.6,0.4,1.3,0.4,2c0,0.8-0.1,1.5-0.4,2.1c-0.3,0.6-0.7,1.1-1.2,1.5c-0.5,0.3-1.1,0.5-1.7,0.5c-0.4,0-0.8-0.1-1.2-0.3
				c-0.3-0.2-0.6-0.4-0.9-0.7v3.8H-100.6z M-99.4,414c0,1,0.2,1.7,0.6,2.2s0.9,0.7,1.5,0.7c0.6,0,1.1-0.2,1.5-0.7
				c0.4-0.5,0.6-1.3,0.6-2.3c0-1-0.2-1.7-0.6-2.2s-0.9-0.7-1.5-0.7c-0.6,0-1.1,0.3-1.5,0.8C-99.2,412.2-99.4,413-99.4,414z"/>
			<path d="M-92.7,413.9c0-1.4,0.4-2.5,1.2-3.2c0.7-0.6,1.5-0.9,2.4-0.9c1.1,0,1.9,0.4,2.6,1.1c0.7,0.7,1,1.7,1,2.9
				c0,1-0.1,1.8-0.5,2.4c-0.3,0.6-0.7,1-1.3,1.3c-0.6,0.3-1.2,0.5-1.9,0.5c-1.1,0-2-0.3-2.6-1S-92.7,415.3-92.7,413.9z M-91.4,413.9
				c0,1,0.2,1.7,0.7,2.2c0.4,0.5,1,0.7,1.6,0.7c0.7,0,1.2-0.2,1.6-0.7s0.7-1.3,0.7-2.3c0-1-0.2-1.7-0.7-2.2c-0.4-0.5-1-0.7-1.6-0.7
				c-0.7,0-1.2,0.2-1.6,0.7S-91.4,413-91.4,413.9z"/>
			<path d="M-84.4,415.5l1.3-0.2c0.1,0.5,0.3,0.9,0.6,1.2c0.3,0.3,0.8,0.4,1.4,0.4c0.6,0,1.1-0.1,1.3-0.4c0.3-0.2,0.4-0.5,0.4-0.9
				c0-0.3-0.1-0.5-0.4-0.7c-0.2-0.1-0.6-0.3-1.3-0.4c-1-0.2-1.6-0.5-2-0.6c-0.4-0.2-0.7-0.4-0.8-0.7c-0.2-0.3-0.3-0.7-0.3-1
				c0-0.3,0.1-0.7,0.2-1c0.2-0.3,0.4-0.5,0.6-0.7c0.2-0.2,0.5-0.3,0.8-0.4c0.4-0.1,0.7-0.2,1.1-0.2c0.6,0,1.1,0.1,1.6,0.3
				c0.5,0.2,0.8,0.4,1,0.7c0.2,0.3,0.4,0.7,0.5,1.2l-1.3,0.2c-0.1-0.4-0.2-0.7-0.5-0.9s-0.7-0.3-1.2-0.3c-0.6,0-1,0.1-1.3,0.3
				c-0.3,0.2-0.4,0.4-0.4,0.7c0,0.2,0.1,0.3,0.2,0.5c0.1,0.1,0.3,0.3,0.5,0.4c0.1,0,0.5,0.2,1.2,0.3c0.9,0.2,1.6,0.5,2,0.6
				c0.4,0.2,0.7,0.4,0.9,0.7s0.3,0.7,0.3,1.1c0,0.4-0.1,0.9-0.4,1.2c-0.3,0.4-0.6,0.7-1.1,0.9c-0.5,0.2-1,0.3-1.6,0.3
				c-1,0-1.8-0.2-2.3-0.6S-84.3,416.3-84.4,415.5z"/>
			<path d="M-67.2,417.8v-1c-0.5,0.8-1.2,1.2-2.2,1.2c-0.6,0-1.2-0.2-1.7-0.5c-0.5-0.3-0.9-0.8-1.2-1.4c-0.3-0.6-0.4-1.3-0.4-2.1
				c0-0.8,0.1-1.5,0.4-2.1c0.3-0.6,0.6-1.1,1.2-1.5c0.5-0.3,1.1-0.5,1.7-0.5c0.5,0,0.9,0.1,1.3,0.3c0.4,0.2,0.7,0.5,0.9,0.8v-3.9
				h1.3v10.7H-67.2z M-71.3,414c0,1,0.2,1.7,0.6,2.2c0.4,0.5,0.9,0.7,1.5,0.7c0.6,0,1.1-0.2,1.5-0.7c0.4-0.5,0.6-1.2,0.6-2.2
				c0-1.1-0.2-1.8-0.6-2.3s-0.9-0.7-1.5-0.7c-0.6,0-1.1,0.2-1.5,0.7S-71.3,412.9-71.3,414z"/>
			<path d="M-58.5,415.3l1.4,0.2c-0.2,0.8-0.6,1.4-1.2,1.9s-1.3,0.7-2.2,0.7c-1.1,0-2-0.4-2.7-1.1c-0.7-0.7-1-1.7-1-2.9
				c0-1.3,0.3-2.3,1-3s1.5-1.1,2.6-1.1c1,0,1.9,0.4,2.5,1.1c0.7,0.7,1,1.7,1,3c0,0.1,0,0.2,0,0.4h-5.8c0,0.9,0.3,1.5,0.7,2
				c0.4,0.5,1,0.7,1.6,0.7c0.5,0,0.9-0.1,1.2-0.4S-58.7,415.9-58.5,415.3z M-62.9,413.2h4.3c-0.1-0.7-0.2-1.1-0.5-1.5
				c-0.4-0.5-1-0.8-1.6-0.8c-0.6,0-1.1,0.2-1.5,0.6C-62.6,412-62.8,412.5-62.9,413.2z"/>
			<path d="M-46.3,417.8v-1c-0.5,0.8-1.2,1.2-2.2,1.2c-0.6,0-1.2-0.2-1.7-0.5c-0.5-0.3-0.9-0.8-1.2-1.4c-0.3-0.6-0.4-1.3-0.4-2.1
				c0-0.8,0.1-1.5,0.4-2.1c0.3-0.6,0.6-1.1,1.2-1.5c0.5-0.3,1.1-0.5,1.7-0.5c0.5,0,0.9,0.1,1.3,0.3c0.4,0.2,0.7,0.5,0.9,0.8v-3.9
				h1.3v10.7H-46.3z M-50.5,414c0,1,0.2,1.7,0.6,2.2c0.4,0.5,0.9,0.7,1.5,0.7c0.6,0,1.1-0.2,1.5-0.7c0.4-0.5,0.6-1.2,0.6-2.2
				c0-1.1-0.2-1.8-0.6-2.3s-0.9-0.7-1.5-0.7c-0.6,0-1.1,0.2-1.5,0.7C-50.3,412.2-50.5,412.9-50.5,414z"/>
			<path d="M-43,408.6v-1.5h1.3v1.5H-43z M-43,417.8v-7.8h1.3v7.8H-43z"/>
			<path d="M-34.6,416.9c-0.5,0.4-1,0.7-1.4,0.9c-0.5,0.2-0.9,0.3-1.5,0.3c-0.9,0-1.5-0.2-2-0.6c-0.5-0.4-0.7-1-0.7-1.6
				c0-0.4,0.1-0.7,0.3-1c0.2-0.3,0.4-0.6,0.7-0.8c0.3-0.2,0.6-0.3,0.9-0.4c0.3-0.1,0.6-0.1,1.2-0.2c1.1-0.1,1.8-0.3,2.4-0.5
				c0-0.2,0-0.3,0-0.3c0-0.5-0.1-0.9-0.4-1.1c-0.3-0.3-0.8-0.4-1.5-0.4c-0.6,0-1.1,0.1-1.4,0.3c-0.3,0.2-0.5,0.6-0.7,1.2l-1.3-0.2
				c0.1-0.6,0.3-1,0.6-1.3c0.3-0.3,0.7-0.6,1.2-0.8c0.5-0.2,1.1-0.3,1.8-0.3c0.7,0,1.2,0.1,1.6,0.2s0.7,0.4,0.9,0.6
				c0.2,0.2,0.3,0.5,0.4,0.9c0,0.2,0.1,0.6,0.1,1.2v1.8c0,1.2,0,2,0.1,2.3c0.1,0.3,0.2,0.6,0.3,0.9h-1.4
				C-34.5,417.6-34.6,417.2-34.6,416.9z M-34.7,413.9c-0.5,0.2-1.2,0.4-2.2,0.5c-0.5,0.1-0.9,0.2-1.1,0.3c-0.2,0.1-0.4,0.2-0.5,0.4
				c-0.1,0.2-0.2,0.4-0.2,0.6c0,0.4,0.1,0.6,0.4,0.9c0.3,0.2,0.7,0.4,1.2,0.4c0.5,0,1-0.1,1.4-0.3c0.4-0.2,0.7-0.5,0.9-0.9
				c0.1-0.3,0.2-0.7,0.2-1.3V413.9z"/>
			<path d="M-31.6,418.5l1.3,0.2c0.1,0.4,0.2,0.7,0.4,0.9c0.3,0.2,0.8,0.4,1.3,0.4c0.6,0,1.1-0.1,1.4-0.4s0.6-0.6,0.7-1
				c0.1-0.3,0.1-0.8,0.1-1.7c-0.6,0.7-1.3,1-2.2,1c-1.1,0-1.9-0.4-2.5-1.2s-0.9-1.7-0.9-2.8c0-0.7,0.1-1.4,0.4-2.1
				c0.3-0.6,0.7-1.1,1.2-1.5c0.5-0.3,1.1-0.5,1.8-0.5c0.9,0,1.7,0.4,2.3,1.1v-0.9h1.2v6.7c0,1.2-0.1,2.1-0.4,2.6
				c-0.2,0.5-0.6,0.9-1.2,1.2c-0.5,0.3-1.2,0.4-2,0.4c-0.9,0-1.7-0.2-2.2-0.6C-31.3,419.9-31.6,419.3-31.6,418.5z M-30.5,413.8
				c0,1,0.2,1.8,0.6,2.2s0.9,0.7,1.5,0.7c0.6,0,1.1-0.2,1.5-0.7c0.4-0.5,0.6-1.2,0.6-2.2c0-1-0.2-1.7-0.6-2.2
				c-0.4-0.5-0.9-0.7-1.5-0.7c-0.6,0-1.1,0.2-1.5,0.7C-30.3,412.2-30.5,412.9-30.5,413.8z"/>
			<path d="M-23,417.8v-7.8h1.2v1.2c0.3-0.6,0.6-0.9,0.8-1.1c0.3-0.2,0.5-0.3,0.8-0.3c0.4,0,0.9,0.1,1.4,0.4l-0.5,1.2
				c-0.3-0.2-0.6-0.3-1-0.3c-0.3,0-0.5,0.1-0.8,0.3c-0.2,0.2-0.4,0.4-0.5,0.7c-0.1,0.5-0.2,1-0.2,1.5v4.1H-23z"/>
			<path d="M-12.9,416.9c-0.5,0.4-1,0.7-1.4,0.9c-0.5,0.2-0.9,0.3-1.5,0.3c-0.9,0-1.5-0.2-2-0.6c-0.5-0.4-0.7-1-0.7-1.6
				c0-0.4,0.1-0.7,0.3-1c0.2-0.3,0.4-0.6,0.7-0.8c0.3-0.2,0.6-0.3,0.9-0.4c0.3-0.1,0.6-0.1,1.2-0.2c1.1-0.1,1.8-0.3,2.4-0.5
				c0-0.2,0-0.3,0-0.3c0-0.5-0.1-0.9-0.4-1.1c-0.3-0.3-0.8-0.4-1.5-0.4c-0.6,0-1.1,0.1-1.4,0.3c-0.3,0.2-0.5,0.6-0.7,1.2l-1.3-0.2
				c0.1-0.6,0.3-1,0.6-1.3c0.3-0.3,0.7-0.6,1.2-0.8c0.5-0.2,1.1-0.3,1.8-0.3c0.7,0,1.2,0.1,1.6,0.2s0.7,0.4,0.9,0.6
				c0.2,0.2,0.3,0.5,0.4,0.9c0,0.2,0.1,0.6,0.1,1.2v1.8c0,1.2,0,2,0.1,2.3c0.1,0.3,0.2,0.6,0.3,0.9h-1.4
				C-12.8,417.6-12.9,417.2-12.9,416.9z M-13,413.9c-0.5,0.2-1.2,0.4-2.2,0.5c-0.5,0.1-0.9,0.2-1.1,0.3c-0.2,0.1-0.4,0.2-0.5,0.4
				c-0.1,0.2-0.2,0.4-0.2,0.6c0,0.4,0.1,0.6,0.4,0.9c0.3,0.2,0.7,0.4,1.2,0.4c0.5,0,1-0.1,1.4-0.3c0.4-0.2,0.7-0.5,0.9-0.9
				c0.1-0.3,0.2-0.7,0.2-1.3V413.9z"/>
			<path d="M-9.7,417.8v-7.8h1.2v1.1c0.2-0.4,0.6-0.7,1-0.9c0.4-0.2,0.9-0.3,1.4-0.3c0.6,0,1,0.1,1.4,0.4c0.4,0.2,0.6,0.6,0.8,1
				c0.6-0.9,1.4-1.4,2.4-1.4c0.8,0,1.4,0.2,1.8,0.6c0.4,0.4,0.6,1.1,0.6,2v5.3h-1.3v-4.9c0-0.5,0-0.9-0.1-1.1
				c-0.1-0.2-0.2-0.4-0.5-0.6c-0.2-0.1-0.5-0.2-0.8-0.2c-0.5,0-1,0.2-1.4,0.5c-0.4,0.4-0.5,0.9-0.5,1.7v4.5H-5v-5.1
				c0-0.6-0.1-1-0.3-1.3s-0.6-0.4-1.1-0.4c-0.4,0-0.7,0.1-1,0.3c-0.3,0.2-0.5,0.5-0.7,0.9c-0.1,0.4-0.2,0.9-0.2,1.6v4H-9.7z"/>
			<path d="M7.9,416.9c-0.5,0.4-1,0.7-1.4,0.9C6,417.9,5.6,418,5,418c-0.9,0-1.5-0.2-2-0.6c-0.5-0.4-0.7-1-0.7-1.6
				c0-0.4,0.1-0.7,0.3-1c0.2-0.3,0.4-0.6,0.7-0.8c0.3-0.2,0.6-0.3,0.9-0.4c0.3-0.1,0.6-0.1,1.2-0.2c1.1-0.1,1.8-0.3,2.4-0.5
				c0-0.2,0-0.3,0-0.3c0-0.5-0.1-0.9-0.4-1.1c-0.3-0.3-0.8-0.4-1.5-0.4c-0.6,0-1.1,0.1-1.4,0.3c-0.3,0.2-0.5,0.6-0.7,1.2l-1.3-0.2
				c0.1-0.6,0.3-1,0.6-1.3c0.3-0.3,0.7-0.6,1.2-0.8c0.5-0.2,1.1-0.3,1.8-0.3c0.7,0,1.2,0.1,1.6,0.2s0.7,0.4,0.9,0.6
				c0.2,0.2,0.3,0.5,0.4,0.9c0,0.2,0.1,0.6,0.1,1.2v1.8c0,1.2,0,2,0.1,2.3c0.1,0.3,0.2,0.6,0.3,0.9H8.2C8,417.6,8,417.2,7.9,416.9z
				 M7.8,413.9c-0.5,0.2-1.2,0.4-2.2,0.5c-0.5,0.1-0.9,0.2-1.2,0.3c-0.2,0.1-0.4,0.2-0.5,0.4c-0.1,0.2-0.2,0.4-0.2,0.6
				c0,0.4,0.1,0.6,0.4,0.9c0.3,0.2,0.7,0.4,1.2,0.4c0.5,0,1-0.1,1.4-0.3c0.4-0.2,0.7-0.5,0.9-0.9c0.1-0.3,0.2-0.7,0.2-1.3V413.9z"/>
			<path d="M10.7,415.5l1.3-0.2c0.1,0.5,0.3,0.9,0.6,1.2c0.3,0.3,0.8,0.4,1.4,0.4c0.6,0,1.1-0.1,1.3-0.4c0.3-0.2,0.4-0.5,0.4-0.9
				c0-0.3-0.1-0.5-0.4-0.7c-0.2-0.1-0.6-0.3-1.3-0.4c-1-0.2-1.6-0.5-2-0.6c-0.4-0.2-0.7-0.4-0.8-0.7c-0.2-0.3-0.3-0.7-0.3-1
				c0-0.3,0.1-0.7,0.2-1c0.2-0.3,0.4-0.5,0.6-0.7c0.2-0.2,0.5-0.3,0.8-0.4c0.4-0.1,0.7-0.2,1.1-0.2c0.6,0,1.1,0.1,1.6,0.3
				c0.5,0.2,0.8,0.4,1,0.7c0.2,0.3,0.4,0.7,0.5,1.2l-1.3,0.2c-0.1-0.4-0.2-0.7-0.5-0.9c-0.3-0.2-0.7-0.3-1.2-0.3
				c-0.6,0-1,0.1-1.3,0.3c-0.3,0.2-0.4,0.4-0.4,0.7c0,0.2,0.1,0.3,0.2,0.5c0.1,0.1,0.3,0.3,0.5,0.4c0.1,0,0.5,0.2,1.2,0.3
				c0.9,0.2,1.6,0.5,2,0.6c0.4,0.2,0.7,0.4,0.9,0.7s0.3,0.7,0.3,1.1c0,0.4-0.1,0.9-0.4,1.2c-0.3,0.4-0.6,0.7-1.1,0.9
				c-0.5,0.2-1,0.3-1.6,0.3c-1,0-1.8-0.2-2.3-0.6C11.1,417,10.8,416.3,10.7,415.5z"/>
			<path d="M30.1,407.1h1.4v6.2c0,1.1-0.1,1.9-0.4,2.6s-0.7,1.2-1.3,1.5c-0.6,0.4-1.5,0.6-2.5,0.6c-1,0-1.8-0.2-2.5-0.5
				s-1.1-0.8-1.4-1.5c-0.3-0.7-0.4-1.6-0.4-2.7v-6.2h1.4v6.2c0,0.9,0.1,1.6,0.3,2.1c0.2,0.4,0.5,0.8,0.9,1c0.4,0.2,0.9,0.4,1.5,0.4
				c1,0,1.8-0.2,2.2-0.7s0.7-1.4,0.7-2.7V407.1z"/>
			<path d="M33.8,417.8v-10.7h2.1l2.5,7.6c0.2,0.7,0.4,1.2,0.5,1.6c0.1-0.4,0.3-1,0.6-1.7l2.6-7.5H44v10.7h-1.4v-9l-3.1,9h-1.3
				l-3.1-9.1v9.1H33.8z"/>
			<path d="M46.3,417.8v-10.7h1.4v9.5H53v1.3H46.3z"/>
		</g>
	</g>
	<g id="XMLID_1031_">
		<path id="XMLID_1073_" class="st5" d="M-136.1,410.6h-13c-0.4,0-0.8-0.4-0.8-0.8v-9c0-0.4,0.4-0.8,0.8-0.8h12.9
			c0.4,0,0.8,0.4,0.8,0.8v9C-135.3,410.2-135.7,410.6-136.1,410.6L-136.1,410.6z"/>
		<path id="XMLID_1064_" d="M-157.5,426.3h6.2c1,0,1.7-0.8,1.7-1.7v-3.4c0-1-0.8-1.7-1.7-1.7h-2.5v-2.9c0-0.5,0.4-0.9,0.9-0.9h9.7
			v3.8h-2.5c-1,0-1.7,0.8-1.7,1.7v3.4c0,1,0.8,1.7,1.7,1.7h6.2c1,0,1.7-0.8,1.7-1.7v-3.4c0-1-0.8-1.7-1.7-1.7h-2.5v-3.8h9.7
			c0.5,0,0.9,0.4,0.9,0.9v2.9h-2.5c-1,0-1.7,0.8-1.7,1.7v3.4c0,1,0.8,1.7,1.7,1.7h6.2c1,0,1.7-0.8,1.7-1.7v-3.4c0-1-0.8-1.7-1.7-1.7
			h-2.5v-2.9c0-1.2-1-2.2-2.2-2.2h-9.6v-3.2h5c1.2,0,2.3-1,2.3-2.3v-7.3c0-1.2-1-2.3-2.3-2.3h-11.2c-1.2,0-2.3,1-2.3,2.3v7.3
			c0,1.2,1,2.3,2.3,2.3h5v3.2h-9.7c-1.2,0-2.2,1-2.2,2.2v2.9h-2.5c-1,0-1.7,0.8-1.7,1.7v3.4C-159.2,425.5-158.5,426.3-157.5,426.3
			L-157.5,426.3z M-139,421.2v3.4c0,0.3-0.2,0.5-0.5,0.5h-6.2c-0.3,0-0.5-0.2-0.5-0.5v-3.4c0-0.3,0.2-0.5,0.5-0.5h6.2
			C-139.2,420.7-139,420.9-139,421.2L-139,421.2z M-127.2,421.2v3.4c0,0.3-0.2,0.5-0.5,0.5h-6.2c-0.3,0-0.5-0.2-0.5-0.5v-3.4
			c0-0.3,0.2-0.5,0.5-0.5h6.2C-127.4,420.7-127.2,420.9-127.2,421.2L-127.2,421.2z M-149.3,408.9v-7.3c0-0.6,0.5-1,1-1h11.3
			c0.6,0,1,0.5,1,1v7.3c0,0.6-0.5,1-1,1h-11.2C-148.8,410-149.3,409.5-149.3,408.9L-149.3,408.9z M-158,421.2c0-0.3,0.2-0.5,0.5-0.5
			h6.2c0.3,0,0.5,0.2,0.5,0.5v3.4c0,0.3-0.2,0.5-0.5,0.5h-6.2c-0.3,0-0.5-0.2-0.5-0.5V421.2z"/>
		<path id="XMLID_1060_" d="M-145.8,404.5h6.5c0.3,0,0.6-0.3,0.6-0.6c0-0.3-0.3-0.6-0.6-0.6h-6.5c-0.3,0-0.6,0.3-0.6,0.6
			C-146.5,404.2-146.2,404.5-145.8,404.5L-145.8,404.5z"/>
		<path id="XMLID_1045_" d="M-138.7,406.7c0-0.3-0.3-0.6-0.6-0.6h-6.5c-0.3,0-0.6,0.3-0.6,0.6c0,0.3,0.3,0.6,0.6,0.6h6.5
			C-139,407.3-138.7,407-138.7,406.7L-138.7,406.7z"/>
	</g>
</g>
</svg>
