<?xml version="1.0" encoding="utf-8"?>
<!-- Generator: Adobe Illustrator 19.0.0, SVG Export Plug-In . SVG Version: 6.00 Build 0)  -->
<svg version="1.1" id="Capa_1" xmlns="http://www.w3.org/2000/svg" xmlns:xlink="http://www.w3.org/1999/xlink" x="0px" y="0px"
	 viewBox="-126 399.4 341.9 42.5" style="enable-background:new -126 399.4 341.9 42.5;" xml:space="preserve">
<style type="text/css">
	.st0{fill:#252527;}
	.st1{fill:#FFFFFF;}
	.st2{fill:#E8A91C;}
	.st3{fill:#F9D523;}
</style>
<rect id="XMLID_14641_" x="-126" y="399.4" class="st0" width="341.9" height="42.5"/>
<g id="XMLID_57_">
	<g id="XMLID_872_">
		<path id="XMLID_972_" class="st1" d="M-112.4,426v-10.7h1.4v4.4h5.6v-4.4h1.4V426h-1.4v-5.1h-5.6v5.1
			C-111,426-112.4,426-112.4,426z"/>
		<path id="XMLID_969_" class="st1" d="M-96.4,423.5l1.4,0.2c-0.2,0.8-0.6,1.4-1.2,1.9c-0.6,0.5-1.3,0.7-2.2,0.7
			c-1.1,0-2-0.3-2.7-1.1c-0.7-0.7-1-1.7-1-2.9c0-1.3,0.3-2.3,1-3c0.7-0.7,1.5-1.1,2.6-1.1c1,0,1.9,0.4,2.5,1.1c0.6,0.7,1,1.7,1,3
			c0,0.1,0,0.2,0,0.4h-5.8c0,0.9,0.3,1.5,0.7,2c0.4,0.5,1,0.7,1.6,0.7c0.5,0,0.9-0.1,1.2-0.4C-97,424.7-96.6,424.1-96.4,423.5z
			 M-100.8,421.4h4.3c-0.1-0.7-0.2-1.1-0.5-1.5c-0.4-0.5-1-0.8-1.6-0.8s-1.1,0.2-1.5,0.6C-100.5,420.2-100.7,420.7-100.8,421.4z"/>
		<path id="XMLID_967_" class="st1" d="M-93.4,426v-7.8h1.2v1.2c0.3-0.6,0.6-0.9,0.8-1.1c0.3-0.2,0.5-0.3,0.8-0.3
			c0.4,0,0.9,0.1,1.4,0.4l-0.5,1.2c-0.3-0.2-0.6-0.3-1-0.3c-0.3,0-0.5,0.1-0.8,0.3c-0.2,0.2-0.4,0.4-0.5,0.7c-0.1,0.5-0.2,1-0.2,1.5
			v4.1L-93.4,426L-93.4,426z"/>
		<path id="XMLID_964_" class="st1" d="M-83.1,423.5l1.4,0.2c-0.2,0.8-0.6,1.4-1.2,1.9c-0.6,0.5-1.3,0.7-2.2,0.7
			c-1.1,0-2-0.3-2.7-1.1c-0.7-0.7-1-1.7-1-2.9c0-1.3,0.3-2.3,1-3c0.7-0.7,1.5-1.1,2.6-1.1c1,0,1.9,0.4,2.5,1.1c0.6,0.7,1,1.7,1,3
			c0,0.1,0,0.2,0,0.4h-5.8c0,0.9,0.3,1.5,0.7,2c0.4,0.5,1,0.7,1.6,0.7c0.5,0,0.9-0.1,1.2-0.4C-83.7,424.7-83.3,424.1-83.1,423.5z
			 M-87.4,421.4h4.3c-0.1-0.7-0.2-1.1-0.5-1.5c-0.4-0.5-1-0.8-1.6-0.8c-0.6,0-1.1,0.2-1.5,0.6C-87.2,420.2-87.4,420.7-87.4,421.4z"
			/>
		<path id="XMLID_962_" class="st1" d="M-80.1,426v-7.8h1.2v1.1c0.6-0.9,1.4-1.3,2.5-1.3c0.5,0,0.9,0.1,1.3,0.3
			c0.4,0.2,0.7,0.4,0.9,0.7c0.2,0.3,0.3,0.6,0.4,1c0,0.2,0.1,0.7,0.1,1.3v4.8H-75v-4.7c0-0.5-0.1-0.9-0.2-1.2
			c-0.1-0.3-0.3-0.5-0.5-0.6c-0.3-0.2-0.6-0.2-0.9-0.2c-0.6,0-1,0.2-1.5,0.5c-0.4,0.4-0.6,1-0.6,2v4.2h-1.4V426z"/>
		<path id="XMLID_960_" class="st1" d="M-66.7,423.2l1.3,0.2c-0.1,0.9-0.5,1.6-1.1,2.1s-1.3,0.8-2.1,0.8c-1.1,0-1.9-0.3-2.6-1
			c-0.6-0.7-1-1.7-1-3c0-0.8,0.1-1.6,0.4-2.2s0.7-1.1,1.3-1.4c0.6-0.3,1.2-0.5,1.9-0.5c0.8,0,1.5,0.2,2.1,0.6c0.5,0.4,0.9,1,1,1.8
			l-1.3,0.2c-0.1-0.5-0.3-0.9-0.6-1.2c-0.3-0.3-0.7-0.4-1.1-0.4c-0.7,0-1.2,0.2-1.6,0.7c-0.4,0.5-0.6,1.2-0.6,2.3
			c0,1,0.2,1.8,0.6,2.3s0.9,0.7,1.6,0.7c0.5,0,0.9-0.2,1.3-0.5C-66.8,424.4-66.8,423.8-66.7,423.2z"/>
		<path id="XMLID_957_" class="st1" d="M-64.2,416.8v-1.5h1.3v1.5H-64.2z M-64.2,426v-7.8h1.3v7.8C-62.9,426-64.2,426-64.2,426z"/>
		<path id="XMLID_954_" class="st1" d="M-55.8,425c-0.5,0.4-1,0.7-1.4,0.9c-0.4,0.2-0.9,0.3-1.5,0.3c-0.9,0-1.5-0.2-2-0.6
			s-0.7-1-0.7-1.6c0-0.4,0.1-0.7,0.3-1c0.2-0.3,0.4-0.6,0.7-0.8c0.3-0.2,0.6-0.3,0.9-0.4s0.6-0.1,1.2-0.2c1.1-0.1,1.8-0.3,2.4-0.5
			c0-0.2,0-0.3,0-0.3c0-0.5-0.1-0.9-0.4-1.1c-0.3-0.3-0.8-0.4-1.5-0.4c-0.6,0-1.1,0.1-1.4,0.3c-0.3,0.2-0.5,0.6-0.7,1.2l-1.2-0.4
			c0.1-0.6,0.3-1,0.6-1.3c0.3-0.3,0.7-0.6,1.2-0.8c0.5-0.2,1.1-0.3,1.8-0.3c0.7,0,1.2,0.1,1.6,0.2s0.7,0.4,0.9,0.6
			c0.2,0.2,0.3,0.5,0.4,0.9c0,0.2,0.1,0.6,0.1,1.2v1.8c0,1.2,0,2,0.1,2.3c0.1,0.3,0.2,0.6,0.3,0.9h-1.4
			C-55.7,425.7-55.8,425.4-55.8,425z M-55.9,422.1c-0.5,0.2-1.2,0.4-2.2,0.5c-0.5,0.1-0.9,0.2-1.1,0.3c-0.2,0.1-0.4,0.2-0.5,0.4
			c-0.1,0.2-0.2,0.4-0.2,0.6c0,0.4,0.1,0.6,0.4,0.9c0.3,0.2,0.7,0.4,1.2,0.4s1-0.1,1.4-0.3c0.4-0.2,0.7-0.5,0.9-0.9
			c0.1-0.3,0.2-0.7,0.2-1.3v-0.6H-55.9z"/>
		<path id="XMLID_952_" class="st1" d="M-45.9,429.2c-0.7-0.9-1.3-2-1.8-3.2c-0.5-1.2-0.8-2.5-0.8-3.8c0-1.2,0.2-2.3,0.6-3.3
			c0.4-1.2,1.1-2.5,2-3.7h0.9c-0.6,1-1,1.7-1.2,2.2c-0.3,0.7-0.5,1.4-0.7,2.1c-0.2,0.9-0.3,1.8-0.3,2.8c0,2.3,0.7,4.7,2.2,7h-0.9
			V429.2z"/>
		<path id="XMLID_950_" class="st1" d="M-43.2,426v-10.7h7.8v1.3h-6.3v3.3h5.9v1.3h-5.9v3.7h6.6v1.3h-8.1V426z"/>
		<path id="XMLID_948_" class="st1" d="M-33.9,423.7l1.3-0.2c0.1,0.5,0.3,0.9,0.6,1.2c0.3,0.3,0.8,0.4,1.4,0.4s1.1-0.1,1.3-0.4
			c0.3-0.2,0.4-0.5,0.4-0.9c0-0.3-0.1-0.5-0.4-0.7c-0.2-0.1-0.6-0.3-1.3-0.4c-1-0.2-1.6-0.5-2-0.6c-0.4-0.2-0.7-0.4-0.8-0.7
			c-0.2-0.3-0.3-0.7-0.3-1c0-0.3,0.1-0.7,0.2-1c0.2-0.3,0.4-0.5,0.6-0.7c0.2-0.2,0.5-0.3,0.8-0.4c0.4-0.1,0.7-0.2,1.1-0.2
			c0.6,0,1.1,0.1,1.6,0.3c0.5,0.2,0.8,0.4,1,0.7s0.4,0.7,0.5,1.2l-1.2,0.1c-0.1-0.4-0.2-0.7-0.5-0.9c-0.3-0.2-0.7-0.3-1.2-0.3
			c-0.6,0-1,0.1-1.3,0.3c-0.3,0.2-0.4,0.4-0.4,0.7c0,0.2,0.1,0.3,0.2,0.5c0.1,0.1,0.3,0.3,0.5,0.4c0.1,0,0.5,0.2,1.2,0.3
			c0.9,0.2,1.6,0.5,2,0.6c0.4,0.2,0.7,0.4,0.9,0.7s0.3,0.7,0.3,1.1s-0.1,0.9-0.4,1.2c-0.3,0.4-0.6,0.7-1.1,0.9
			c-0.5,0.2-1,0.3-1.6,0.3c-1,0-1.8-0.2-2.3-0.6S-33.8,424.5-33.9,423.7z"/>
		<path id="XMLID_945_" class="st1" d="M-25.9,429v-10.8h1.2v1c0.3-0.4,0.6-0.7,1-0.9c0.4-0.2,0.8-0.3,1.3-0.3
			c0.7,0,1.3,0.2,1.8,0.5c0.5,0.3,0.9,0.8,1.1,1.4c0.3,0.6,0.4,1.3,0.4,2c0,0.8-0.1,1.5-0.4,2.1c-0.3,0.6-0.7,1.1-1.2,1.5
			c-0.5,0.3-1.1,0.5-1.7,0.5c-0.4,0-0.8-0.1-1.2-0.3c-0.3-0.2-0.6-0.4-0.9-0.7v3.8h-1.4V429z M-24.7,422.2c0,1,0.2,1.7,0.6,2.2
			s0.9,0.7,1.5,0.7s1.1-0.2,1.5-0.7s0.6-1.3,0.6-2.3s-0.2-1.7-0.6-2.2s-0.9-0.7-1.5-0.7s-1.1,0.3-1.5,0.8
			C-24.5,420.4-24.7,421.2-24.7,422.2z"/>
		<path id="XMLID_942_" class="st1" d="M-12.2,423.5l1.4,0.2c-0.2,0.8-0.6,1.4-1.2,1.9s-1.3,0.7-2.2,0.7c-1.1,0-2-0.3-2.7-1.1
			c-0.7-0.7-1-1.7-1-2.9c0-1.3,0.3-2.3,1-3c0.7-0.7,1.5-1.1,2.6-1.1c1,0,1.9,0.4,2.5,1.1c0.6,0.7,1,1.7,1,3c0,0.1,0,0.2,0,0.4h-5.8
			c0,0.9,0.3,1.5,0.7,2s1,0.7,1.6,0.7c0.5,0,0.9-0.1,1.2-0.4C-12.8,424.7-12.4,424.1-12.2,423.5z M-16.6,421.4h4.3
			c-0.1-0.7-0.2-1.1-0.5-1.5c-0.4-0.5-1-0.8-1.6-0.8s-1.1,0.2-1.5,0.6C-16.3,420.2-16.5,420.7-16.6,421.4z"/>
		<path id="XMLID_940_" class="st1" d="M-4.1,423.2l1.3,0.2c-0.1,0.9-0.5,1.6-1.1,2.1s-1.3,0.8-2.1,0.8c-1.1,0-1.9-0.3-2.6-1
			c-0.6-0.7-1-1.7-1-3c0-0.8,0.1-1.6,0.4-2.2s0.7-1.1,1.3-1.4c0.6-0.3,1.2-0.5,1.9-0.5c0.8,0,1.5,0.2,2.1,0.6c0.5,0.4,0.9,1,1,1.8
			l-1.3,0.2c-0.1-0.5-0.3-0.9-0.6-1.2c-0.3-0.3-0.7-0.4-1.1-0.4c-0.7,0-1.2,0.2-1.6,0.7s-0.6,1.2-0.6,2.3c0,1,0.2,1.8,0.6,2.3
			s0.9,0.7,1.6,0.7c0.5,0,0.9-0.2,1.3-0.5S-4.2,423.8-4.1,423.2z"/>
		<path id="XMLID_937_" class="st1" d="M-1.7,416.8v-1.5h1.3v1.5H-1.7z M-1.7,426v-7.8h1.3v7.8C-0.4,426-1.7,426-1.7,426z"/>
		<path id="XMLID_934_" class="st1" d="M6.7,425c-0.5,0.4-1,0.7-1.4,0.9c-0.4,0.2-0.9,0.3-1.5,0.3c-0.9,0-1.5-0.2-2-0.6
			s-0.7-1-0.7-1.6c0-0.4,0.1-0.7,0.3-1c0.2-0.3,0.4-0.6,0.7-0.8c0.3-0.2,0.6-0.3,0.9-0.4c0.3-0.1,0.6-0.1,1.2-0.2
			c1.1-0.1,1.8-0.3,2.4-0.5c0-0.2,0-0.3,0-0.3c0-0.5-0.1-0.9-0.4-1.1c-0.3-0.3-0.8-0.4-1.5-0.4c-0.6,0-1.1,0.1-1.4,0.3
			c-0.3,0.2-0.5,0.6-0.7,1.2l-1.3-0.2c0.1-0.6,0.3-1,0.6-1.3c0.3-0.3,0.7-0.6,1.2-0.8c0.5-0.2,1.1-0.3,1.8-0.3s1.2,0.1,1.6,0.2
			c0.4,0.1,0.7,0.4,0.9,0.6c0.2,0.2,0.3,0.5,0.4,0.9c0,0.2,0.1,0.6,0.1,1.2v1.8c0,1.2,0,2,0.1,2.3s0.2,0.6,0.3,0.9H7
			C6.8,425.7,6.7,425.4,6.7,425z M6.6,422.1c-0.5,0.2-1.2,0.4-2.2,0.5c-0.5,0.1-0.9,0.2-1.1,0.3c-0.2,0.1-0.4,0.2-0.5,0.4
			c-0.1,0.2-0.2,0.4-0.2,0.6c0,0.4,0.1,0.6,0.4,0.9c0.3,0.2,0.7,0.4,1.2,0.4s1-0.1,1.4-0.3c0.4-0.2,0.7-0.5,0.9-0.9
			c0.1-0.3,0.2-0.7,0.2-1.3L6.6,422.1L6.6,422.1z"/>
		<path id="XMLID_932_" class="st1" d="M9.9,426v-10.7h1.3V426C11.2,426,9.9,426,9.9,426z"/>
		<path id="XMLID_929_" class="st1" d="M13.3,416.8v-1.5h1.3v1.5H13.3z M13.3,426v-7.8h1.3v7.8C14.6,426,13.3,426,13.3,426z"/>
		<path id="XMLID_927_" class="st1" d="M15.9,426v-1.1l5-5.7c-0.6,0-1.1,0-1.5,0h-3.2v-1.1h6.4v0.9l-4.2,4.9l-0.8,0.9
			c0.6,0,1.1-0.1,1.7-0.1h3.6v1.1h-7V426z"/>
		<path id="XMLID_924_" class="st1" d="M29.2,425c-0.5,0.4-1,0.7-1.4,0.9c-0.4,0.2-0.9,0.3-1.5,0.3c-0.9,0-1.5-0.2-2-0.6
			s-0.7-1-0.7-1.6c0-0.4,0.1-0.7,0.3-1c0.2-0.3,0.4-0.6,0.7-0.8c0.3-0.2,0.6-0.3,0.9-0.4c0.3-0.1,0.6-0.1,1.2-0.2
			c1.1-0.1,1.8-0.3,2.4-0.5c0-0.2,0-0.3,0-0.3c0-0.5-0.1-0.9-0.4-1.1c-0.3-0.3-0.8-0.4-1.5-0.4c-0.6,0-1.1,0.1-1.4,0.3
			c-0.3,0.2-0.5,0.6-0.7,1.2l-1.3-0.2c0.1-0.6,0.3-1,0.6-1.3c0.3-0.3,0.7-0.6,1.2-0.8c0.5-0.2,1.1-0.3,1.8-0.3s1.2,0.1,1.6,0.2
			c0.4,0.1,0.7,0.4,0.9,0.6c0.2,0.2,0.3,0.5,0.4,0.9c0,0.2,0.1,0.6,0.1,1.2v1.8c0,1.2,0,2,0.1,2.3s0.2,0.6,0.3,0.9h-1.4
			C29.3,425.7,29.2,425.4,29.2,425z M29.1,422.1c-0.5,0.2-1.2,0.4-2.2,0.5c-0.5,0.1-0.9,0.2-1.1,0.3c-0.2,0.1-0.4,0.2-0.5,0.4
			c-0.1,0.2-0.2,0.4-0.2,0.6c0,0.4,0.1,0.6,0.4,0.9c0.3,0.2,0.7,0.4,1.2,0.4s1-0.1,1.4-0.3c0.4-0.2,0.7-0.5,0.9-0.9
			c0.1-0.3,0.2-0.7,0.2-1.3L29.1,422.1L29.1,422.1z"/>
		<path id="XMLID_922_" class="st1" d="M37.5,423.2l1.3,0.2c-0.1,0.9-0.5,1.6-1.1,2.1s-1.3,0.8-2.1,0.8c-1.1,0-1.9-0.3-2.6-1
			c-0.6-0.7-1-1.7-1-3c0-0.8,0.1-1.6,0.4-2.2s0.7-1.1,1.3-1.4s1.2-0.5,1.9-0.5c0.8,0,1.5,0.2,2.1,0.6c0.5,0.4,0.9,1,1,1.8l-1.3,0.2
			c-0.1-0.5-0.3-0.9-0.6-1.2c-0.3-0.3-0.7-0.4-1.1-0.4c-0.7,0-1.2,0.2-1.6,0.7c-0.4,0.5-0.6,1.2-0.6,2.3c0,1,0.2,1.8,0.6,2.3
			s0.9,0.7,1.6,0.7c0.5,0,0.9-0.2,1.3-0.5S37.4,423.8,37.5,423.2z"/>
		<path id="XMLID_919_" class="st1" d="M40,416.8v-1.5h1.3v1.5H40z M40,426v-7.8h1.3v7.8C41.3,426,40,426,40,426z"/>
		<path id="XMLID_915_" class="st1" d="M42.8,422.1c0-1.4,0.4-2.5,1.2-3.2c0.7-0.6,1.5-0.9,2.4-0.9c1.1,0,1.9,0.4,2.6,1.1
			c0.7,0.7,1,1.7,1,2.9c0,1-0.1,1.8-0.5,2.4c-0.3,0.6-0.7,1-1.3,1.3s-1.2,0.5-1.9,0.5c-1.1,0-2-0.3-2.6-1S42.8,423.4,42.8,422.1z
			 M44.2,422.1c0,1,0.2,1.7,0.7,2.2c0.4,0.5,1,0.7,1.6,0.7c0.7,0,1.2-0.2,1.6-0.7c0.4-0.5,0.7-1.3,0.7-2.3s-0.2-1.7-0.7-2.2
			c-0.4-0.5-1-0.7-1.6-0.7c-0.7,0-1.2,0.2-1.6,0.7S44.2,421.1,44.2,422.1z M45.7,417.3l1-2.1h1.7l-1.6,2.1H45.7z"/>
		<path id="XMLID_913_" class="st1" d="M51.6,426v-7.8h1.2v1.1c0.6-0.9,1.4-1.3,2.5-1.3c0.5,0,0.9,0.1,1.3,0.3
			c0.4,0.2,0.7,0.4,0.9,0.7c0.2,0.3,0.3,0.6,0.4,1c0,0.2,0.1,0.7,0.1,1.3v4.8h-1.3v-4.7c0-0.5-0.1-0.9-0.2-1.2
			c-0.1-0.3-0.3-0.5-0.5-0.6c-0.3-0.2-0.6-0.2-0.9-0.2c-0.6,0-1,0.2-1.5,0.5c-0.4,0.4-0.6,1-0.6,2v4.2h-1.4V426z"/>
		<path id="XMLID_911_" class="st1" d="M63.2,426.2l3.1-11.1h1.1l-3.1,11.1H63.2z"/>
		<path id="XMLID_909_" class="st1" d="M77.7,421.8v-1.3h4.5v4c-0.7,0.6-1.4,1-2.2,1.3c-0.7,0.3-1.5,0.4-2.3,0.4
			c-1.1,0-2-0.2-2.9-0.7s-1.5-1.1-2-2s-0.7-1.8-0.7-2.9c0-1,0.2-2,0.7-2.9c0.4-0.9,1.1-1.6,1.9-2s1.8-0.7,2.8-0.7
			c0.8,0,1.5,0.1,2.1,0.4c0.6,0.3,1.1,0.6,1.5,1.1c0.4,0.4,0.6,1,0.8,1.8l-1.3,0.4c-0.2-0.5-0.4-1-0.6-1.3c-0.2-0.3-0.6-0.6-1-0.8
			s-0.9-0.3-1.5-0.3c-0.7,0-1.2,0.1-1.7,0.3c-0.5,0.2-0.9,0.5-1.1,0.8c-0.3,0.3-0.5,0.7-0.7,1.1c-0.3,0.7-0.4,1.4-0.4,2.2
			c0,1,0.2,1.8,0.5,2.4s0.8,1.1,1.4,1.4c0.6,0.3,1.3,0.5,2,0.5c0.6,0,1.2-0.1,1.8-0.4c0.6-0.2,1-0.5,1.3-0.8v-2H77.7z"/>
		<path id="XMLID_906_" class="st1" d="M89.5,423.5l1.4,0.2c-0.2,0.8-0.6,1.4-1.2,1.9c-0.6,0.4-1.3,0.7-2.2,0.7
			c-1.1,0-2-0.3-2.7-1.1c-0.7-0.7-1-1.7-1-2.9c0-1.3,0.3-2.3,1-3c0.7-0.7,1.5-1.1,2.6-1.1c1,0,1.9,0.4,2.5,1.1c0.7,0.7,1,1.7,1,3
			c0,0.1,0,0.2,0,0.4h-5.8c0,0.9,0.3,1.5,0.7,2s1,0.7,1.6,0.7c0.5,0,0.9-0.1,1.2-0.4C88.9,424.7,89.3,424.1,89.5,423.5z M85.1,421.4
			h4.3c-0.1-0.7-0.2-1.1-0.5-1.5c-0.4-0.5-1-0.8-1.6-0.8s-1.1,0.2-1.5,0.6C85.4,420.2,85.2,420.7,85.1,421.4z"/>
		<path id="XMLID_904_" class="st1" d="M92.5,426v-7.8h1.2v1.1c0.6-0.9,1.4-1.3,2.5-1.3c0.5,0,0.9,0.1,1.3,0.3
			c0.4,0.2,0.7,0.4,0.9,0.7c0.2,0.3,0.3,0.6,0.4,1c0,0.2,0.1,0.7,0.1,1.3v4.8h-1.3v-4.7c0-0.5-0.1-0.9-0.2-1.2
			c-0.1-0.3-0.3-0.5-0.5-0.6c-0.3-0.2-0.6-0.2-0.9-0.2c-0.6,0-1,0.2-1.5,0.5c-0.5,0.3-0.6,1-0.6,2v4.2h-1.4V426z"/>
		<path id="XMLID_901_" class="st1" d="M106.2,423.5l1.4,0.2c-0.2,0.8-0.6,1.4-1.2,1.9c-0.6,0.4-1.3,0.7-2.2,0.7
			c-1.1,0-2-0.3-2.7-1.1c-0.7-0.7-1-1.7-1-2.9c0-1.3,0.3-2.3,1-3c0.7-0.7,1.5-1.1,2.6-1.1c1,0,1.9,0.4,2.5,1.1c0.7,0.7,1,1.7,1,3
			c0,0.1,0,0.2,0,0.4h-5.8c0,0.9,0.3,1.5,0.7,2s1,0.7,1.6,0.7c0.5,0,0.9-0.1,1.2-0.4C105.6,424.7,106,424.1,106.2,423.5z
			 M101.8,421.4h4.3c-0.1-0.7-0.2-1.1-0.5-1.5c-0.4-0.5-1-0.8-1.6-0.8s-1.1,0.2-1.5,0.6C102.1,420.2,101.9,420.7,101.8,421.4z"/>
		<path id="XMLID_899_" class="st1" d="M109.2,426v-7.8h1.2v1.2c0.3-0.6,0.6-0.9,0.8-1.1c0.2-0.2,0.5-0.3,0.8-0.3
			c0.4,0,0.9,0.1,1.4,0.4l-0.5,1.2c-0.3-0.2-0.6-0.3-1-0.3c-0.3,0-0.5,0.1-0.8,0.3c-0.2,0.2-0.4,0.4-0.5,0.7c-0.1,0.5-0.2,1-0.2,1.5
			v4.1L109.2,426L109.2,426z"/>
		<path id="XMLID_896_" class="st1" d="M119.2,425c-0.5,0.4-1,0.7-1.4,0.9c-0.5,0.2-0.9,0.3-1.5,0.3c-0.9,0-1.5-0.2-2-0.6
			s-0.7-1-0.7-1.6c0-0.4,0.1-0.7,0.3-1c0.2-0.3,0.4-0.6,0.7-0.8c0.3-0.2,0.6-0.3,0.9-0.4c0.3-0.1,0.6-0.1,1.2-0.2
			c1.1-0.1,1.8-0.3,2.4-0.5c0-0.2,0-0.3,0-0.3c0-0.5-0.1-0.9-0.4-1.1c-0.3-0.3-0.8-0.4-1.5-0.4c-0.6,0-1.1,0.1-1.4,0.3
			c-0.3,0.2-0.5,0.6-0.7,1.2l-1.1-0.4c0.1-0.6,0.3-1,0.6-1.3c0.3-0.3,0.7-0.6,1.2-0.8c0.5-0.2,1.1-0.3,1.8-0.3s1.2,0.1,1.6,0.2
			s0.7,0.4,0.9,0.6c0.2,0.2,0.3,0.5,0.4,0.9c0,0.2,0.1,0.6,0.1,1.2v1.8c0,1.2,0,2,0.1,2.3c0.1,0.3,0.2,0.6,0.3,0.9h-1.4
			C119.4,425.7,119.3,425.4,119.2,425z M119.1,422.1c-0.5,0.2-1.2,0.4-2.2,0.5c-0.5,0.1-0.9,0.2-1.2,0.3c-0.3,0.1-0.4,0.2-0.5,0.4
			c-0.1,0.2-0.2,0.4-0.2,0.6c0,0.4,0.1,0.6,0.4,0.9c0.3,0.2,0.7,0.4,1.2,0.4s1-0.1,1.4-0.3c0.4-0.2,0.7-0.5,0.9-0.9
			c0.1-0.3,0.2-0.7,0.2-1.3L119.1,422.1L119.1,422.1z"/>
		<path id="XMLID_894_" class="st1" d="M122.5,426v-10.7h1.3V426C123.8,426,122.5,426,122.5,426z"/>
		<path id="XMLID_891_" class="st1" d="M125.9,416.8v-1.5h1.3v1.5H125.9z M125.9,426v-7.8h1.3v7.8C127.2,426,125.9,426,125.9,426z"
			/>
		<path id="XMLID_889_" class="st1" d="M128.5,426v-1.1l5-5.7c-0.6,0-1.1,0-1.5,0h-3.2v-1.1h6.4v0.9l-4.2,4.9l-0.8,0.9
			c0.6,0,1.1-0.1,1.7-0.1h3.6v1.1h-7V426z"/>
		<path id="XMLID_886_" class="st1" d="M141.8,425c-0.5,0.4-1,0.7-1.4,0.9c-0.4,0.2-0.9,0.3-1.5,0.3c-0.9,0-1.5-0.2-2-0.6
			s-0.7-1-0.7-1.6c0-0.4,0.1-0.7,0.3-1c0.2-0.3,0.4-0.6,0.7-0.8c0.3-0.2,0.6-0.3,0.9-0.4s0.6-0.1,1.2-0.2c1.1-0.1,1.8-0.3,2.4-0.5
			c0-0.2,0-0.3,0-0.3c0-0.5-0.1-0.9-0.4-1.1c-0.3-0.3-0.8-0.4-1.5-0.4c-0.6,0-1.1,0.1-1.4,0.3c-0.3,0.2-0.5,0.6-0.7,1.2l-1.3-0.2
			c0.1-0.6,0.3-1,0.6-1.3c0.3-0.3,0.7-0.6,1.2-0.8c0.5-0.2,1.1-0.3,1.8-0.3c0.7,0,1.2,0.1,1.6,0.2c0.4,0.2,0.7,0.4,0.9,0.6
			c0.2,0.2,0.3,0.5,0.4,0.9c0,0.2,0.1,0.6,0.1,1.2v1.8c0,1.2,0,2,0.1,2.3s0.2,0.6,0.3,0.9H142C141.9,425.7,141.8,425.4,141.8,425z
			 M141.6,422.1c-0.5,0.2-1.2,0.4-2.2,0.5c-0.5,0.1-0.9,0.2-1.2,0.3c-0.3,0.1-0.4,0.2-0.5,0.4c-0.1,0.2-0.2,0.4-0.2,0.6
			c0,0.4,0.1,0.6,0.4,0.9c0.3,0.2,0.7,0.4,1.2,0.4s1-0.1,1.4-0.3c0.4-0.2,0.7-0.5,0.9-0.9c0.1-0.3,0.2-0.7,0.2-1.3L141.6,422.1
			L141.6,422.1z"/>
		<path id="XMLID_884_" class="st1" d="M150.1,423.2l1.3,0.2c-0.1,0.9-0.5,1.6-1.1,2.1s-1.3,0.8-2.2,0.8c-1.1,0-1.9-0.3-2.6-1
			c-0.6-0.7-1-1.7-1-3c0-0.8,0.1-1.6,0.4-2.2s0.7-1.1,1.3-1.4c0.6-0.3,1.2-0.5,1.9-0.5c0.8,0,1.5,0.2,2.1,0.6c0.5,0.4,0.9,1,1,1.8
			l-1.3,0.2c-0.1-0.5-0.3-0.9-0.6-1.2c-0.3-0.3-0.7-0.4-1.1-0.4c-0.7,0-1.2,0.2-1.6,0.7s-0.6,1.2-0.6,2.3c0,1,0.2,1.8,0.6,2.3
			s0.9,0.7,1.6,0.7c0.5,0,1-0.2,1.3-0.5C149.8,424.3,150,423.8,150.1,423.2z"/>
		<path id="XMLID_881_" class="st1" d="M152.5,416.8v-1.5h1.3v1.5H152.5z M152.5,426v-7.8h1.3v7.8C153.8,426,152.5,426,152.5,426z"
			/>
		<path id="XMLID_877_" class="st1" d="M155.4,422.1c0-1.4,0.4-2.5,1.2-3.2c0.7-0.6,1.5-0.9,2.4-0.9c1.1,0,1.9,0.4,2.6,1.1
			c0.7,0.7,1,1.7,1,2.9c0,1-0.1,1.8-0.5,2.4c-0.3,0.6-0.7,1-1.3,1.3c-0.6,0.3-1.2,0.5-1.9,0.5c-1.1,0-2-0.3-2.6-1
			S155.4,423.4,155.4,422.1z M156.7,422.1c0,1,0.2,1.7,0.7,2.2c0.4,0.5,1,0.7,1.6,0.7c0.7,0,1.2-0.2,1.6-0.7s0.7-1.3,0.7-2.3
			s-0.2-1.7-0.7-2.2c-0.4-0.5-1-0.7-1.6-0.7c-0.7,0-1.2,0.2-1.6,0.7S156.7,421.1,156.7,422.1z M158.3,417.3l1-2.1h1.7l-1.6,2.1
			H158.3z"/>
		<path id="XMLID_875_" class="st1" d="M164.2,426v-7.8h1.2v1.1c0.6-0.9,1.4-1.3,2.5-1.3c0.5,0,0.9,0.1,1.3,0.3
			c0.4,0.2,0.7,0.4,0.9,0.7c0.2,0.3,0.3,0.6,0.4,1c0,0.2,0.1,0.7,0.1,1.3v4.8h-1.3v-4.7c0-0.5-0.1-0.9-0.2-1.2s-0.3-0.5-0.5-0.6
			c-0.3-0.2-0.6-0.2-0.9-0.2c-0.6,0-1,0.2-1.5,0.5c-0.4,0.4-0.6,1-0.6,2v4.2h-1.4V426z"/>
		<path id="XMLID_873_" class="st1" d="M173.4,429.2h-0.9c1.5-2.3,2.2-4.7,2.2-7c0-0.9-0.1-1.8-0.3-2.7c-0.2-0.7-0.4-1.4-0.7-2.1
			c-0.2-0.4-0.6-1.2-1.2-2.2h0.9c0.9,1.2,1.6,2.5,2,3.7c0.4,1.1,0.6,2.2,0.6,3.3c0,1.3-0.3,2.6-0.8,3.8
			C174.7,427.2,174.1,428.2,173.4,429.2z"/>
	</g>
</g>
<g id="XMLID_14629_">
	<polygon id="XMLID_14631_" class="st2" points="203.7,420.7 190,428.6 190,412.7 	"/>
	<polygon id="XMLID_14630_" class="st3" points="198.1,423.9 190,428.6 190,419.2 	"/>
</g>
</svg>
