<?xml version="1.0" encoding="utf-8"?>
<!-- Generator: Adobe Illustrator 19.0.0, SVG Export Plug-In . SVG Version: 6.00 Build 0)  -->
<svg version="1.1" id="Capa_1" xmlns="http://www.w3.org/2000/svg" xmlns:xlink="http://www.w3.org/1999/xlink" x="0px" y="0px"
	 viewBox="0 0 341.9 42.5" style="enable-background:new 0 0 341.9 42.5;" xml:space="preserve">
<style type="text/css">
	.st0{fill:#F9D523;}
	.st1{fill:#252527;}
	.st2{fill:#E8A91C;}
</style>
<rect id="XMLID_14641_" class="st0" width="341.9" height="42.5"/>
<g id="XMLID_57_">
	<g id="XMLID_872_">
		<path id="XMLID_972_" class="st1" d="M13.6,26.6V15.9H15v4.4h5.6v-4.4H22v10.7h-1.4v-5.1H15v5.1H13.6z"/>
		<path id="XMLID_969_" class="st1" d="M29.6,24.1l1.4,0.2c-0.2,0.8-0.6,1.4-1.2,1.9s-1.3,0.7-2.2,0.7c-1.1,0-2-0.3-2.7-1.1
			c-0.7-0.7-1-1.7-1-2.9c0-1.3,0.3-2.3,1-3s1.5-1.1,2.6-1.1c1,0,1.9,0.4,2.5,1.1s1,1.7,1,3c0,0.1,0,0.2,0,0.4h-5.8
			c0,0.9,0.3,1.5,0.7,2s1,0.7,1.6,0.7c0.5,0,0.9-0.1,1.2-0.4S29.4,24.7,29.6,24.1z M25.2,22h4.3c-0.1-0.7-0.2-1.1-0.5-1.5
			c-0.4-0.5-1-0.8-1.6-0.8c-0.6,0-1.1,0.2-1.5,0.6C25.5,20.8,25.3,21.3,25.2,22z"/>
		<path id="XMLID_967_" class="st1" d="M32.6,26.6v-7.8h1.2V20c0.3-0.6,0.6-0.9,0.8-1.1c0.3-0.2,0.5-0.3,0.8-0.3
			c0.4,0,0.9,0.1,1.4,0.4l-0.5,1.2c-0.3-0.2-0.6-0.3-1-0.3c-0.3,0-0.5,0.1-0.8,0.3c-0.2,0.2-0.4,0.4-0.5,0.7c-0.1,0.5-0.2,1-0.2,1.5
			v4.1H32.6z"/>
		<path id="XMLID_964_" class="st1" d="M42.9,24.1l1.4,0.2c-0.2,0.8-0.6,1.4-1.2,1.9s-1.3,0.7-2.2,0.7c-1.1,0-2-0.3-2.7-1.1
			c-0.7-0.7-1-1.7-1-2.9c0-1.3,0.3-2.3,1-3s1.5-1.1,2.6-1.1c1,0,1.9,0.4,2.5,1.1s1,1.7,1,3c0,0.1,0,0.2,0,0.4h-5.8
			c0,0.9,0.3,1.5,0.7,2s1,0.7,1.6,0.7c0.5,0,0.9-0.1,1.2-0.4S42.7,24.7,42.9,24.1z M38.6,22h4.3c-0.1-0.7-0.2-1.1-0.5-1.5
			c-0.4-0.5-1-0.8-1.6-0.8c-0.6,0-1.1,0.2-1.5,0.6C38.8,20.8,38.6,21.3,38.6,22z"/>
		<path id="XMLID_962_" class="st1" d="M45.9,26.6v-7.8h1.2v1.1c0.6-0.9,1.4-1.3,2.5-1.3c0.5,0,0.9,0.1,1.3,0.3
			c0.4,0.2,0.7,0.4,0.9,0.7s0.3,0.6,0.4,1c0,0.2,0.1,0.7,0.1,1.3v4.8h-1.3v-4.7c0-0.5-0.1-0.9-0.2-1.2c-0.1-0.3-0.3-0.5-0.5-0.6
			c-0.3-0.2-0.6-0.2-0.9-0.2c-0.6,0-1,0.2-1.5,0.5c-0.4,0.4-0.6,1-0.6,2v4.2H45.9z"/>
		<path id="XMLID_960_" class="st1" d="M59.3,23.8l1.3,0.2c-0.1,0.9-0.5,1.6-1.1,2.1c-0.6,0.5-1.3,0.8-2.1,0.8c-1.1,0-1.9-0.3-2.6-1
			c-0.6-0.7-1-1.7-1-3c0-0.8,0.1-1.6,0.4-2.2s0.7-1.1,1.3-1.4c0.6-0.3,1.2-0.5,1.9-0.5c0.8,0,1.5,0.2,2.1,0.6c0.5,0.4,0.9,1,1,1.8
			l-1.3,0.2c-0.1-0.5-0.3-0.9-0.6-1.2c-0.3-0.3-0.7-0.4-1.1-0.4c-0.7,0-1.2,0.2-1.6,0.7c-0.4,0.5-0.6,1.2-0.6,2.3
			c0,1,0.2,1.8,0.6,2.3s0.9,0.7,1.6,0.7c0.5,0,0.9-0.2,1.3-0.5S59.2,24.4,59.3,23.8z"/>
		<path id="XMLID_957_" class="st1" d="M61.8,17.4v-1.5h1.3v1.5H61.8z M61.8,26.6v-7.8h1.3v7.8H61.8z"/>
		<path id="XMLID_954_" class="st1" d="M70.2,25.6c-0.5,0.4-1,0.7-1.4,0.9s-0.9,0.3-1.5,0.3c-0.9,0-1.5-0.2-2-0.6
			c-0.5-0.4-0.7-1-0.7-1.6c0-0.4,0.1-0.7,0.3-1c0.2-0.3,0.4-0.6,0.7-0.8c0.3-0.2,0.6-0.3,0.9-0.4c0.3-0.1,0.6-0.1,1.2-0.2
			c1.1-0.1,1.8-0.3,2.4-0.5c0-0.2,0-0.3,0-0.3c0-0.5-0.1-0.9-0.4-1.1c-0.3-0.3-0.8-0.4-1.5-0.4c-0.6,0-1.1,0.1-1.4,0.3
			c-0.3,0.2-0.5,0.6-0.7,1.2L64.9,21c0.1-0.6,0.3-1,0.6-1.3c0.3-0.3,0.7-0.6,1.2-0.8c0.5-0.2,1.1-0.3,1.8-0.3c0.7,0,1.2,0.1,1.6,0.2
			s0.7,0.4,0.9,0.6c0.2,0.2,0.3,0.5,0.4,0.9c0,0.2,0.1,0.6,0.1,1.2v1.8c0,1.2,0,2,0.1,2.3c0.1,0.3,0.2,0.6,0.3,0.9h-1.4
			C70.3,26.3,70.2,26,70.2,25.6z M70.1,22.7c-0.5,0.2-1.2,0.4-2.2,0.5c-0.5,0.1-0.9,0.2-1.1,0.3s-0.4,0.2-0.5,0.4
			c-0.1,0.2-0.2,0.4-0.2,0.6c0,0.4,0.1,0.6,0.4,0.9c0.3,0.2,0.7,0.4,1.2,0.4c0.5,0,1-0.1,1.4-0.3c0.4-0.2,0.7-0.5,0.9-0.9
			c0.1-0.3,0.2-0.7,0.2-1.3V22.7z"/>
		<path id="XMLID_952_" class="st1" d="M80.1,29.8c-0.7-0.9-1.3-2-1.8-3.2s-0.8-2.5-0.8-3.8c0-1.2,0.2-2.3,0.6-3.3
			c0.4-1.2,1.1-2.5,2-3.7h0.9c-0.6,1-1,1.7-1.2,2.2c-0.3,0.7-0.5,1.4-0.7,2.1c-0.2,0.9-0.3,1.8-0.3,2.8c0,2.3,0.7,4.7,2.2,7H80.1z"
			/>
		<path id="XMLID_950_" class="st1" d="M82.8,26.6V15.9h7.8v1.3h-6.3v3.3h5.9v1.3h-5.9v3.7h6.6v1.3H82.8z"/>
		<path id="XMLID_948_" class="st1" d="M92.1,24.3l1.3-0.2c0.1,0.5,0.3,0.9,0.6,1.2c0.3,0.3,0.8,0.4,1.4,0.4c0.6,0,1.1-0.1,1.3-0.4
			c0.3-0.2,0.4-0.5,0.4-0.9c0-0.3-0.1-0.5-0.4-0.7c-0.2-0.1-0.6-0.3-1.3-0.4c-1-0.2-1.6-0.5-2-0.6c-0.4-0.2-0.7-0.4-0.8-0.7
			c-0.2-0.3-0.3-0.7-0.3-1c0-0.3,0.1-0.7,0.2-1c0.2-0.3,0.4-0.5,0.6-0.7c0.2-0.2,0.5-0.3,0.8-0.4c0.4-0.1,0.7-0.2,1.1-0.2
			c0.6,0,1.1,0.1,1.6,0.3c0.5,0.2,0.8,0.4,1,0.7c0.2,0.3,0.4,0.7,0.5,1.2L96.9,21c-0.1-0.4-0.2-0.7-0.5-0.9s-0.7-0.3-1.2-0.3
			c-0.6,0-1,0.1-1.3,0.3s-0.4,0.4-0.4,0.7c0,0.2,0.1,0.3,0.2,0.5c0.1,0.1,0.3,0.3,0.5,0.4c0.1,0,0.5,0.2,1.2,0.3
			c0.9,0.2,1.6,0.5,2,0.6c0.4,0.2,0.7,0.4,0.9,0.7s0.3,0.7,0.3,1.1c0,0.4-0.1,0.9-0.4,1.2c-0.3,0.4-0.6,0.7-1.1,0.9
			c-0.5,0.2-1,0.3-1.6,0.3c-1,0-1.8-0.2-2.3-0.6S92.2,25.1,92.1,24.3z"/>
		<path id="XMLID_945_" class="st1" d="M100.1,29.6V18.8h1.2v1c0.3-0.4,0.6-0.7,1-0.9c0.4-0.2,0.8-0.3,1.3-0.3
			c0.7,0,1.3,0.2,1.8,0.5s0.9,0.8,1.1,1.4c0.3,0.6,0.4,1.3,0.4,2c0,0.8-0.1,1.5-0.4,2.1c-0.3,0.6-0.7,1.1-1.2,1.5
			c-0.5,0.3-1.1,0.5-1.7,0.5c-0.4,0-0.8-0.1-1.2-0.3c-0.3-0.2-0.6-0.4-0.9-0.7v3.8H100.1z M101.3,22.8c0,1,0.2,1.7,0.6,2.2
			s0.9,0.7,1.5,0.7c0.6,0,1.1-0.2,1.5-0.7c0.4-0.5,0.6-1.3,0.6-2.3c0-1-0.2-1.7-0.6-2.2s-0.9-0.7-1.5-0.7c-0.6,0-1.1,0.3-1.5,0.8
			C101.5,21,101.3,21.8,101.3,22.8z"/>
		<path id="XMLID_942_" class="st1" d="M113.8,24.1l1.4,0.2c-0.2,0.8-0.6,1.4-1.2,1.9s-1.3,0.7-2.2,0.7c-1.1,0-2-0.3-2.7-1.1
			c-0.7-0.7-1-1.7-1-2.9c0-1.3,0.3-2.3,1-3s1.5-1.1,2.6-1.1c1,0,1.9,0.4,2.5,1.1s1,1.7,1,3c0,0.1,0,0.2,0,0.4h-5.8
			c0,0.9,0.3,1.5,0.7,2s1,0.7,1.6,0.7c0.5,0,0.9-0.1,1.2-0.4S113.6,24.7,113.8,24.1z M109.4,22h4.3c-0.1-0.7-0.2-1.1-0.5-1.5
			c-0.4-0.5-1-0.8-1.6-0.8c-0.6,0-1.1,0.2-1.5,0.6C109.7,20.8,109.5,21.3,109.4,22z"/>
		<path id="XMLID_940_" class="st1" d="M121.9,23.8l1.3,0.2c-0.1,0.9-0.5,1.6-1.1,2.1c-0.6,0.5-1.3,0.8-2.1,0.8
			c-1.1,0-1.9-0.3-2.6-1c-0.6-0.7-1-1.7-1-3c0-0.8,0.1-1.6,0.4-2.2s0.7-1.1,1.3-1.4c0.6-0.3,1.2-0.5,1.9-0.5c0.8,0,1.5,0.2,2.1,0.6
			c0.5,0.4,0.9,1,1,1.8l-1.3,0.2c-0.1-0.5-0.3-0.9-0.6-1.2c-0.3-0.3-0.7-0.4-1.1-0.4c-0.7,0-1.2,0.2-1.6,0.7
			c-0.4,0.5-0.6,1.2-0.6,2.3c0,1,0.2,1.8,0.6,2.3s0.9,0.7,1.6,0.7c0.5,0,0.9-0.2,1.3-0.5S121.8,24.4,121.9,23.8z"/>
		<path id="XMLID_937_" class="st1" d="M124.3,17.4v-1.5h1.3v1.5H124.3z M124.3,26.6v-7.8h1.3v7.8H124.3z"/>
		<path id="XMLID_934_" class="st1" d="M132.7,25.6c-0.5,0.4-1,0.7-1.4,0.9s-0.9,0.3-1.5,0.3c-0.9,0-1.5-0.2-2-0.6
			c-0.5-0.4-0.7-1-0.7-1.6c0-0.4,0.1-0.7,0.3-1c0.2-0.3,0.4-0.6,0.7-0.8c0.3-0.2,0.6-0.3,0.9-0.4c0.3-0.1,0.6-0.1,1.2-0.2
			c1.1-0.1,1.8-0.3,2.4-0.5c0-0.2,0-0.3,0-0.3c0-0.5-0.1-0.9-0.4-1.1c-0.3-0.3-0.8-0.4-1.5-0.4c-0.6,0-1.1,0.1-1.4,0.3
			c-0.3,0.2-0.5,0.6-0.7,1.2l-1.3-0.2c0.1-0.6,0.3-1,0.6-1.3c0.3-0.3,0.7-0.6,1.2-0.8c0.5-0.2,1.1-0.3,1.8-0.3
			c0.7,0,1.2,0.1,1.6,0.2s0.7,0.4,0.9,0.6c0.2,0.2,0.3,0.5,0.4,0.9c0,0.2,0.1,0.6,0.1,1.2v1.8c0,1.2,0,2,0.1,2.3
			c0.1,0.3,0.2,0.6,0.3,0.9H133C132.8,26.3,132.7,26,132.7,25.6z M132.6,22.7c-0.5,0.2-1.2,0.4-2.2,0.5c-0.5,0.1-0.9,0.2-1.1,0.3
			s-0.4,0.2-0.5,0.4c-0.1,0.2-0.2,0.4-0.2,0.6c0,0.4,0.1,0.6,0.4,0.9c0.3,0.2,0.7,0.4,1.2,0.4c0.5,0,1-0.1,1.4-0.3
			c0.4-0.2,0.7-0.5,0.9-0.9c0.1-0.3,0.2-0.7,0.2-1.3V22.7z"/>
		<path id="XMLID_932_" class="st1" d="M135.9,26.6V15.9h1.3v10.7H135.9z"/>
		<path id="XMLID_929_" class="st1" d="M139.3,17.4v-1.5h1.3v1.5H139.3z M139.3,26.6v-7.8h1.3v7.8H139.3z"/>
		<path id="XMLID_927_" class="st1" d="M141.9,26.6v-1.1l5-5.7c-0.6,0-1.1,0-1.5,0h-3.2v-1.1h6.4v0.9l-4.2,4.9l-0.8,0.9
			c0.6,0,1.1-0.1,1.7-0.1h3.6v1.1H141.9z"/>
		<path id="XMLID_924_" class="st1" d="M155.2,25.6c-0.5,0.4-1,0.7-1.4,0.9s-0.9,0.3-1.5,0.3c-0.9,0-1.5-0.2-2-0.6
			c-0.5-0.4-0.7-1-0.7-1.6c0-0.4,0.1-0.7,0.3-1c0.2-0.3,0.4-0.6,0.7-0.8c0.3-0.2,0.6-0.3,0.9-0.4c0.3-0.1,0.6-0.1,1.2-0.2
			c1.1-0.1,1.8-0.3,2.4-0.5c0-0.2,0-0.3,0-0.3c0-0.5-0.1-0.9-0.4-1.1c-0.3-0.3-0.8-0.4-1.5-0.4c-0.6,0-1.1,0.1-1.4,0.3
			c-0.3,0.2-0.5,0.6-0.7,1.2l-1.3-0.2c0.1-0.6,0.3-1,0.6-1.3c0.3-0.3,0.7-0.6,1.2-0.8c0.5-0.2,1.1-0.3,1.8-0.3
			c0.7,0,1.2,0.1,1.6,0.2s0.7,0.4,0.9,0.6c0.2,0.2,0.3,0.5,0.4,0.9c0,0.2,0.1,0.6,0.1,1.2v1.8c0,1.2,0,2,0.1,2.3
			c0.1,0.3,0.2,0.6,0.3,0.9h-1.4C155.3,26.3,155.2,26,155.2,25.6z M155.1,22.7c-0.5,0.2-1.2,0.4-2.2,0.5c-0.5,0.1-0.9,0.2-1.1,0.3
			s-0.4,0.2-0.5,0.4c-0.1,0.2-0.2,0.4-0.2,0.6c0,0.4,0.1,0.6,0.4,0.9c0.3,0.2,0.7,0.4,1.2,0.4c0.5,0,1-0.1,1.4-0.3
			c0.4-0.2,0.7-0.5,0.9-0.9c0.1-0.3,0.2-0.7,0.2-1.3V22.7z"/>
		<path id="XMLID_922_" class="st1" d="M163.5,23.8l1.3,0.2c-0.1,0.9-0.5,1.6-1.1,2.1c-0.6,0.5-1.3,0.8-2.1,0.8
			c-1.1,0-1.9-0.3-2.6-1c-0.6-0.7-1-1.7-1-3c0-0.8,0.1-1.6,0.4-2.2s0.7-1.1,1.3-1.4c0.6-0.3,1.2-0.5,1.9-0.5c0.8,0,1.5,0.2,2.1,0.6
			c0.5,0.4,0.9,1,1,1.8l-1.3,0.2c-0.1-0.5-0.3-0.9-0.6-1.2c-0.3-0.3-0.7-0.4-1.1-0.4c-0.7,0-1.2,0.2-1.6,0.7
			c-0.4,0.5-0.6,1.2-0.6,2.3c0,1,0.2,1.8,0.6,2.3s0.9,0.7,1.6,0.7c0.5,0,0.9-0.2,1.3-0.5S163.4,24.4,163.5,23.8z"/>
		<path id="XMLID_919_" class="st1" d="M166,17.4v-1.5h1.3v1.5H166z M166,26.6v-7.8h1.3v7.8H166z"/>
		<path id="XMLID_915_" class="st1" d="M168.8,22.7c0-1.4,0.4-2.5,1.2-3.2c0.7-0.6,1.5-0.9,2.4-0.9c1.1,0,1.9,0.4,2.6,1.1
			c0.7,0.7,1,1.7,1,2.9c0,1-0.1,1.8-0.5,2.4c-0.3,0.6-0.7,1-1.3,1.3c-0.6,0.3-1.2,0.5-1.9,0.5c-1.1,0-2-0.3-2.6-1
			S168.8,24,168.8,22.7z M170.2,22.7c0,1,0.2,1.7,0.7,2.2c0.4,0.5,1,0.7,1.6,0.7c0.7,0,1.2-0.2,1.6-0.7c0.4-0.5,0.7-1.3,0.7-2.3
			c0-1-0.2-1.7-0.7-2.2c-0.4-0.5-1-0.7-1.6-0.7c-0.7,0-1.2,0.2-1.6,0.7S170.2,21.7,170.2,22.7z M171.7,17.9l1-2.1h1.7l-1.6,2.1
			H171.7z"/>
		<path id="XMLID_913_" class="st1" d="M177.6,26.6v-7.8h1.2v1.1c0.6-0.9,1.4-1.3,2.5-1.3c0.5,0,0.9,0.1,1.3,0.3
			c0.4,0.2,0.7,0.4,0.9,0.7s0.3,0.6,0.4,1c0,0.2,0.1,0.7,0.1,1.3v4.8h-1.3v-4.7c0-0.5-0.1-0.9-0.2-1.2c-0.1-0.3-0.3-0.5-0.5-0.6
			c-0.3-0.2-0.6-0.2-0.9-0.2c-0.6,0-1,0.2-1.5,0.5c-0.4,0.4-0.6,1-0.6,2v4.2H177.6z"/>
		<path id="XMLID_911_" class="st1" d="M189.2,26.8l3.1-11.1h1.1l-3.1,11.1H189.2z"/>
		<path id="XMLID_909_" class="st1" d="M203.7,22.4v-1.3l4.5,0v4c-0.7,0.6-1.4,1-2.2,1.3c-0.7,0.3-1.5,0.4-2.3,0.4
			c-1.1,0-2-0.2-2.9-0.7c-0.9-0.5-1.5-1.1-2-2s-0.7-1.8-0.7-2.9c0-1,0.2-2,0.7-2.9c0.4-0.9,1.1-1.6,1.9-2s1.8-0.7,2.8-0.7
			c0.8,0,1.5,0.1,2.1,0.4c0.6,0.3,1.1,0.6,1.5,1.1c0.4,0.4,0.6,1,0.8,1.8l-1.3,0.4c-0.2-0.5-0.4-1-0.6-1.3c-0.2-0.3-0.6-0.6-1-0.8
			c-0.4-0.2-0.9-0.3-1.5-0.3c-0.7,0-1.2,0.1-1.7,0.3c-0.5,0.2-0.9,0.5-1.1,0.8c-0.3,0.3-0.5,0.7-0.7,1.1c-0.3,0.7-0.4,1.4-0.4,2.2
			c0,1,0.2,1.8,0.5,2.4c0.3,0.6,0.8,1.1,1.4,1.4s1.3,0.5,2,0.5c0.6,0,1.2-0.1,1.8-0.4c0.6-0.2,1-0.5,1.3-0.8v-2H203.7z"/>
		<path id="XMLID_906_" class="st1" d="M215.5,24.1l1.4,0.2c-0.2,0.8-0.6,1.4-1.2,1.9c-0.6,0.4-1.3,0.7-2.2,0.7
			c-1.1,0-2-0.3-2.7-1.1c-0.7-0.7-1-1.7-1-2.9c0-1.3,0.3-2.3,1-3s1.5-1.1,2.6-1.1c1,0,1.9,0.4,2.5,1.1c0.7,0.7,1,1.7,1,3
			c0,0.1,0,0.2,0,0.4h-5.8c0,0.9,0.3,1.5,0.7,2s1,0.7,1.6,0.7c0.5,0,0.9-0.1,1.2-0.4S215.3,24.7,215.5,24.1z M211.1,22h4.3
			c-0.1-0.7-0.2-1.1-0.5-1.5c-0.4-0.5-1-0.8-1.6-0.8c-0.6,0-1.1,0.2-1.5,0.6C211.4,20.8,211.2,21.3,211.1,22z"/>
		<path id="XMLID_904_" class="st1" d="M218.5,26.6v-7.8h1.2v1.1c0.6-0.9,1.4-1.3,2.5-1.3c0.5,0,0.9,0.1,1.3,0.3
			c0.4,0.2,0.7,0.4,0.9,0.7s0.3,0.6,0.4,1c0,0.2,0.1,0.7,0.1,1.3v4.8h-1.3v-4.7c0-0.5-0.1-0.9-0.2-1.2c-0.1-0.3-0.3-0.5-0.5-0.6
			c-0.3-0.2-0.6-0.2-0.9-0.2c-0.6,0-1,0.2-1.5,0.5s-0.6,1-0.6,2v4.2H218.5z"/>
		<path id="XMLID_901_" class="st1" d="M232.2,24.1l1.4,0.2c-0.2,0.8-0.6,1.4-1.2,1.9c-0.6,0.4-1.3,0.7-2.2,0.7
			c-1.1,0-2-0.3-2.7-1.1c-0.7-0.7-1-1.7-1-2.9c0-1.3,0.3-2.3,1-3s1.5-1.1,2.6-1.1c1,0,1.9,0.4,2.5,1.1c0.7,0.7,1,1.7,1,3
			c0,0.1,0,0.2,0,0.4h-5.8c0,0.9,0.3,1.5,0.7,2s1,0.7,1.6,0.7c0.5,0,0.9-0.1,1.2-0.4S232,24.7,232.2,24.1z M227.8,22h4.3
			c-0.1-0.7-0.2-1.1-0.5-1.5c-0.4-0.5-1-0.8-1.6-0.8c-0.6,0-1.1,0.2-1.5,0.6C228.1,20.8,227.9,21.3,227.8,22z"/>
		<path id="XMLID_899_" class="st1" d="M235.2,26.6v-7.8h1.2V20c0.3-0.6,0.6-0.9,0.8-1.1s0.5-0.3,0.8-0.3c0.4,0,0.9,0.1,1.4,0.4
			l-0.5,1.2c-0.3-0.2-0.6-0.3-1-0.3c-0.3,0-0.5,0.1-0.8,0.3c-0.2,0.2-0.4,0.4-0.5,0.7c-0.1,0.5-0.2,1-0.2,1.5v4.1H235.2z"/>
		<path id="XMLID_896_" class="st1" d="M245.2,25.6c-0.5,0.4-1,0.7-1.4,0.9c-0.5,0.2-0.9,0.3-1.5,0.3c-0.9,0-1.5-0.2-2-0.6
			c-0.5-0.4-0.7-1-0.7-1.6c0-0.4,0.1-0.7,0.3-1c0.2-0.3,0.4-0.6,0.7-0.8s0.6-0.3,0.9-0.4c0.3-0.1,0.6-0.1,1.2-0.2
			c1.1-0.1,1.8-0.3,2.4-0.5c0-0.2,0-0.3,0-0.3c0-0.5-0.1-0.9-0.4-1.1c-0.3-0.3-0.8-0.4-1.5-0.4c-0.6,0-1.1,0.1-1.4,0.3
			c-0.3,0.2-0.5,0.6-0.7,1.2L240,21c0.1-0.6,0.3-1,0.6-1.3c0.3-0.3,0.7-0.6,1.2-0.8c0.5-0.2,1.1-0.3,1.8-0.3c0.7,0,1.2,0.1,1.6,0.2
			s0.7,0.4,0.9,0.6c0.2,0.2,0.3,0.5,0.4,0.9c0,0.2,0.1,0.6,0.1,1.2v1.8c0,1.2,0,2,0.1,2.3c0.1,0.3,0.2,0.6,0.3,0.9h-1.4
			C245.4,26.3,245.3,26,245.2,25.6z M245.1,22.7c-0.5,0.2-1.2,0.4-2.2,0.5c-0.5,0.1-0.9,0.2-1.2,0.3s-0.4,0.2-0.5,0.4
			c-0.1,0.2-0.2,0.4-0.2,0.6c0,0.4,0.1,0.6,0.4,0.9c0.3,0.2,0.7,0.4,1.2,0.4c0.5,0,1-0.1,1.4-0.3c0.4-0.2,0.7-0.5,0.9-0.9
			c0.1-0.3,0.2-0.7,0.2-1.3V22.7z"/>
		<path id="XMLID_894_" class="st1" d="M248.5,26.6V15.9h1.3v10.7H248.5z"/>
		<path id="XMLID_891_" class="st1" d="M251.9,17.4v-1.5h1.3v1.5H251.9z M251.9,26.6v-7.8h1.3v7.8H251.9z"/>
		<path id="XMLID_889_" class="st1" d="M254.5,26.6v-1.1l5-5.7c-0.6,0-1.1,0-1.5,0h-3.2v-1.1h6.4v0.9l-4.2,4.9l-0.8,0.9
			c0.6,0,1.1-0.1,1.7-0.1h3.6v1.1H254.5z"/>
		<path id="XMLID_886_" class="st1" d="M267.8,25.6c-0.5,0.4-1,0.7-1.4,0.9s-0.9,0.3-1.5,0.3c-0.9,0-1.5-0.2-2-0.6
			c-0.5-0.4-0.7-1-0.7-1.6c0-0.4,0.1-0.7,0.3-1c0.2-0.3,0.4-0.6,0.7-0.8c0.3-0.2,0.6-0.3,0.9-0.4c0.3-0.1,0.6-0.1,1.2-0.2
			c1.1-0.1,1.8-0.3,2.4-0.5c0-0.2,0-0.3,0-0.3c0-0.5-0.1-0.9-0.4-1.1c-0.3-0.3-0.8-0.4-1.5-0.4c-0.6,0-1.1,0.1-1.4,0.3
			c-0.3,0.2-0.5,0.6-0.7,1.2l-1.3-0.2c0.1-0.6,0.3-1,0.6-1.3c0.3-0.3,0.7-0.6,1.2-0.8c0.5-0.2,1.1-0.3,1.8-0.3
			c0.7,0,1.2,0.1,1.6,0.2c0.4,0.2,0.7,0.4,0.9,0.6c0.2,0.2,0.3,0.5,0.4,0.9c0,0.2,0.1,0.6,0.1,1.2v1.8c0,1.2,0,2,0.1,2.3
			c0.1,0.3,0.2,0.6,0.3,0.9H268C267.9,26.3,267.8,26,267.8,25.6z M267.6,22.7c-0.5,0.2-1.2,0.4-2.2,0.5c-0.5,0.1-0.9,0.2-1.2,0.3
			s-0.4,0.2-0.5,0.4c-0.1,0.2-0.2,0.4-0.2,0.6c0,0.4,0.1,0.6,0.4,0.9c0.3,0.2,0.7,0.4,1.2,0.4c0.5,0,1-0.1,1.4-0.3
			c0.4-0.2,0.7-0.5,0.9-0.9c0.1-0.3,0.2-0.7,0.2-1.3V22.7z"/>
		<path id="XMLID_884_" class="st1" d="M276.1,23.8l1.3,0.2c-0.1,0.9-0.5,1.6-1.1,2.1c-0.6,0.5-1.3,0.8-2.2,0.8
			c-1.1,0-1.9-0.3-2.6-1c-0.6-0.7-1-1.7-1-3c0-0.8,0.1-1.6,0.4-2.2s0.7-1.1,1.3-1.4c0.6-0.3,1.2-0.5,1.9-0.5c0.8,0,1.5,0.2,2.1,0.6
			c0.5,0.4,0.9,1,1,1.8l-1.3,0.2c-0.1-0.5-0.3-0.9-0.6-1.2c-0.3-0.3-0.7-0.4-1.1-0.4c-0.7,0-1.2,0.2-1.6,0.7
			c-0.4,0.5-0.6,1.2-0.6,2.3c0,1,0.2,1.8,0.6,2.3s0.9,0.7,1.6,0.7c0.5,0,1-0.2,1.3-0.5C275.8,24.9,276,24.4,276.1,23.8z"/>
		<path id="XMLID_881_" class="st1" d="M278.5,17.4v-1.5h1.3v1.5H278.5z M278.5,26.6v-7.8h1.3v7.8H278.5z"/>
		<path id="XMLID_877_" class="st1" d="M281.4,22.7c0-1.4,0.4-2.5,1.2-3.2c0.7-0.6,1.5-0.9,2.4-0.9c1.1,0,1.9,0.4,2.6,1.1
			c0.7,0.7,1,1.7,1,2.9c0,1-0.1,1.8-0.5,2.4c-0.3,0.6-0.7,1-1.3,1.3c-0.6,0.3-1.2,0.5-1.9,0.5c-1.1,0-2-0.3-2.6-1
			S281.4,24,281.4,22.7z M282.7,22.7c0,1,0.2,1.7,0.7,2.2c0.4,0.5,1,0.7,1.6,0.7c0.7,0,1.2-0.2,1.6-0.7c0.4-0.5,0.7-1.3,0.7-2.3
			c0-1-0.2-1.7-0.7-2.2c-0.4-0.5-1-0.7-1.6-0.7c-0.7,0-1.2,0.2-1.6,0.7S282.7,21.7,282.7,22.7z M284.3,17.9l1-2.1h1.7l-1.6,2.1
			H284.3z"/>
		<path id="XMLID_875_" class="st1" d="M290.2,26.6v-7.8h1.2v1.1c0.6-0.9,1.4-1.3,2.5-1.3c0.5,0,0.9,0.1,1.3,0.3
			c0.4,0.2,0.7,0.4,0.9,0.7s0.3,0.6,0.4,1c0,0.2,0.1,0.7,0.1,1.3v4.8h-1.3v-4.7c0-0.5-0.1-0.9-0.2-1.2c-0.1-0.3-0.3-0.5-0.5-0.6
			c-0.3-0.2-0.6-0.2-0.9-0.2c-0.6,0-1,0.2-1.5,0.5c-0.4,0.4-0.6,1-0.6,2v4.2H290.2z"/>
		<path id="XMLID_873_" class="st1" d="M299.4,29.8h-0.9c1.5-2.3,2.2-4.7,2.2-7c0-0.9-0.1-1.8-0.3-2.7c-0.2-0.7-0.4-1.4-0.7-2.1
			c-0.2-0.4-0.6-1.2-1.2-2.2h0.9c0.9,1.2,1.6,2.5,2,3.7c0.4,1.1,0.6,2.2,0.6,3.3c0,1.3-0.3,2.6-0.8,3.8
			C300.7,27.8,300.1,28.8,299.4,29.8z"/>
	</g>
</g>
<polygon id="XMLID_14628_" class="st2" points="326.5,16.3 320.7,26.3 315,16.3 "/>
</svg>
