<?xml version="1.0" encoding="utf-8"?>
<!-- Generator: Adobe Illustrator 19.0.0, SVG Export Plug-In . SVG Version: 6.00 Build 0)  -->
<svg version="1.1" id="Capa_1" xmlns="http://www.w3.org/2000/svg" xmlns:xlink="http://www.w3.org/1999/xlink" x="0px" y="0px"
	 viewBox="0 0 341.9 42.5" style="enable-background:new 0 0 341.9 42.5;" xml:space="preserve">
<style type="text/css">
	.st0{fill:#F9D523;}
	.st1{fill:#252527;}
	.st2{fill:#E8A91C;}
</style>
<rect id="XMLID_14641_" class="st0" width="341.9" height="42.5"/>
<g id="XMLID_19_">
	<g id="XMLID_536_">
		<path id="XMLID_593_" class="st1" d="M68.2,26.6l4.1-10.7h1.5l4.4,10.7h-1.6l-1.3-3.3h-4.5l-1.2,3.3H68.2z M71.3,22.2H75l-1.1-3
			c-0.3-0.9-0.6-1.6-0.8-2.2c-0.1,0.7-0.3,1.4-0.6,2.1L71.3,22.2z"/>
		<path id="XMLID_590_" class="st1" d="M79,27.3l1.3,0.2c0.1,0.4,0.2,0.7,0.4,0.9c0.3,0.2,0.8,0.4,1.3,0.4c0.6,0,1.1-0.1,1.4-0.4
			s0.6-0.6,0.7-1c0.1-0.3,0.1-0.8,0.1-1.7c-0.6,0.7-1.3,1-2.2,1c-1.1,0-1.9-0.4-2.5-1.2s-0.9-1.7-0.9-2.8c0-0.7,0.1-1.4,0.4-2.1
			c0.3-0.6,0.7-1.1,1.2-1.5c0.5-0.3,1.1-0.5,1.8-0.5c0.9,0,1.7,0.4,2.3,1.1v-0.9h1.2v6.7c0,1.2-0.1,2.1-0.4,2.6
			c-0.2,0.5-0.6,0.9-1.2,1.2c-0.5,0.3-1.2,0.4-2,0.4c-0.9,0-1.7-0.2-2.2-0.6C79.3,28.7,79,28.1,79,27.3z M80.1,22.6
			c0,1,0.2,1.8,0.6,2.2s0.9,0.7,1.5,0.7c0.6,0,1.1-0.2,1.5-0.7c0.4-0.5,0.6-1.2,0.6-2.2c0-1-0.2-1.7-0.6-2.2s-0.9-0.7-1.5-0.7
			c-0.6,0-1.1,0.2-1.5,0.7C80.3,20.9,80.1,21.6,80.1,22.6z"/>
		<path id="XMLID_588_" class="st1" d="M87.6,26.6v-7.8h1.2V20c0.3-0.6,0.6-0.9,0.8-1.1c0.3-0.2,0.5-0.3,0.8-0.3
			c0.4,0,0.9,0.1,1.4,0.4l-0.5,1.2c-0.3-0.2-0.6-0.3-1-0.3c-0.3,0-0.5,0.1-0.8,0.3c-0.2,0.2-0.4,0.4-0.5,0.7c-0.1,0.5-0.2,1-0.2,1.5
			v4.1H87.6z"/>
		<path id="XMLID_585_" class="st1" d="M97.9,24.1l1.4,0.2c-0.2,0.8-0.6,1.4-1.2,1.9s-1.3,0.7-2.2,0.7c-1.1,0-2-0.3-2.7-1.1
			c-0.7-0.7-1-1.7-1-2.9c0-1.3,0.3-2.3,1-3s1.5-1.1,2.6-1.1c1,0,1.9,0.4,2.5,1.1s1,1.7,1,3c0,0.1,0,0.2,0,0.4h-5.8
			c0,0.9,0.3,1.5,0.7,2s1,0.7,1.6,0.7c0.5,0,0.9-0.1,1.2-0.4S97.7,24.7,97.9,24.1z M93.6,22h4.3c-0.1-0.7-0.2-1.1-0.5-1.5
			c-0.4-0.5-1-0.8-1.6-0.8c-0.6,0-1.1,0.2-1.5,0.6C93.9,20.8,93.6,21.3,93.6,22z"/>
		<path id="XMLID_582_" class="st1" d="M100.7,27.3l1.3,0.2c0.1,0.4,0.2,0.7,0.4,0.9c0.3,0.2,0.8,0.4,1.3,0.4c0.6,0,1.1-0.1,1.4-0.4
			s0.6-0.6,0.7-1c0.1-0.3,0.1-0.8,0.1-1.7c-0.6,0.7-1.3,1-2.2,1c-1.1,0-1.9-0.4-2.5-1.2s-0.9-1.7-0.9-2.8c0-0.7,0.1-1.4,0.4-2.1
			c0.3-0.6,0.7-1.1,1.2-1.5c0.5-0.3,1.1-0.5,1.8-0.5c0.9,0,1.7,0.4,2.3,1.1v-0.9h1.2v6.7c0,1.2-0.1,2.1-0.4,2.6
			c-0.2,0.5-0.6,0.9-1.2,1.2c-0.5,0.3-1.2,0.4-2,0.4c-0.9,0-1.7-0.2-2.2-0.6C101,28.7,100.7,28.1,100.7,27.3z M101.8,22.6
			c0,1,0.2,1.8,0.6,2.2s0.9,0.7,1.5,0.7c0.6,0,1.1-0.2,1.5-0.7c0.4-0.5,0.6-1.2,0.6-2.2c0-1-0.2-1.7-0.6-2.2s-0.9-0.7-1.5-0.7
			c-0.6,0-1.1,0.2-1.5,0.7C102,20.9,101.8,21.6,101.8,22.6z"/>
		<path id="XMLID_579_" class="st1" d="M114.4,25.6c-0.5,0.4-1,0.7-1.4,0.9s-0.9,0.3-1.5,0.3c-0.9,0-1.5-0.2-2-0.6
			c-0.5-0.4-0.7-1-0.7-1.6c0-0.4,0.1-0.7,0.3-1c0.2-0.3,0.4-0.6,0.7-0.8c0.3-0.2,0.6-0.3,0.9-0.4c0.3-0.1,0.6-0.1,1.2-0.2
			c1.1-0.1,1.8-0.3,2.4-0.5c0-0.2,0-0.3,0-0.3c0-0.5-0.1-0.9-0.4-1.1c-0.3-0.3-0.8-0.4-1.5-0.4c-0.6,0-1.1,0.1-1.4,0.3
			c-0.3,0.2-0.5,0.6-0.7,1.2l-1.3-0.2c0.1-0.6,0.3-1,0.6-1.3c0.3-0.3,0.7-0.6,1.2-0.8c0.5-0.2,1.1-0.3,1.8-0.3
			c0.7,0,1.2,0.1,1.6,0.2s0.7,0.4,0.9,0.6c0.2,0.2,0.3,0.5,0.4,0.9c0,0.2,0.1,0.6,0.1,1.2v1.8c0,1.2,0,2,0.1,2.3
			c0.1,0.3,0.2,0.6,0.3,0.9h-1.4C114.5,26.3,114.4,26,114.4,25.6z M114.2,22.7c-0.5,0.2-1.2,0.4-2.2,0.5c-0.5,0.1-0.9,0.2-1.1,0.3
			s-0.4,0.2-0.5,0.4c-0.1,0.2-0.2,0.4-0.2,0.6c0,0.4,0.1,0.6,0.4,0.9c0.3,0.2,0.7,0.4,1.2,0.4c0.5,0,1-0.1,1.4-0.3
			c0.4-0.2,0.7-0.5,0.9-0.9c0.1-0.3,0.2-0.7,0.2-1.3V22.7z"/>
		<path id="XMLID_577_" class="st1" d="M122.7,23.8l1.3,0.2c-0.1,0.9-0.5,1.6-1.1,2.1c-0.6,0.5-1.3,0.8-2.1,0.8
			c-1.1,0-1.9-0.3-2.6-1c-0.6-0.7-1-1.7-1-3c0-0.8,0.1-1.6,0.4-2.2s0.7-1.1,1.3-1.4c0.6-0.3,1.2-0.5,1.9-0.5c0.8,0,1.5,0.2,2.1,0.6
			c0.5,0.4,0.9,1,1,1.8l-1.3,0.2c-0.1-0.5-0.3-0.9-0.6-1.2c-0.3-0.3-0.7-0.4-1.1-0.4c-0.7,0-1.2,0.2-1.6,0.7
			c-0.4,0.5-0.6,1.2-0.6,2.3c0,1,0.2,1.8,0.6,2.3s0.9,0.7,1.6,0.7c0.5,0,0.9-0.2,1.3-0.5S122.6,24.4,122.7,23.8z"/>
		<path id="XMLID_574_" class="st1" d="M125.1,17.4v-1.5h1.3v1.5H125.1z M125.1,26.6v-7.8h1.3v7.8H125.1z"/>
		<path id="XMLID_570_" class="st1" d="M128,22.7c0-1.4,0.4-2.5,1.2-3.2c0.7-0.6,1.5-0.9,2.4-0.9c1.1,0,1.9,0.4,2.6,1.1
			c0.7,0.7,1,1.7,1,2.9c0,1-0.1,1.8-0.5,2.4c-0.3,0.6-0.7,1-1.3,1.3c-0.6,0.3-1.2,0.5-1.9,0.5c-1.1,0-2-0.3-2.6-1S128,24,128,22.7z
			 M129.3,22.7c0,1,0.2,1.7,0.7,2.2c0.4,0.5,1,0.7,1.6,0.7c0.7,0,1.2-0.2,1.6-0.7s0.7-1.3,0.7-2.3c0-1-0.2-1.7-0.7-2.2
			c-0.4-0.5-1-0.7-1.6-0.7c-0.7,0-1.2,0.2-1.6,0.7S129.3,21.7,129.3,22.7z M130.9,17.9l1-2.1h1.7l-1.6,2.1H130.9z"/>
		<path id="XMLID_568_" class="st1" d="M136.8,26.6v-7.8h1.2v1.1c0.6-0.9,1.4-1.3,2.5-1.3c0.5,0,0.9,0.1,1.3,0.3
			c0.4,0.2,0.7,0.4,0.9,0.7s0.3,0.6,0.4,1c0,0.2,0.1,0.7,0.1,1.3v4.8h-1.3v-4.7c0-0.5-0.1-0.9-0.2-1.2c-0.1-0.3-0.3-0.5-0.5-0.6
			c-0.3-0.2-0.6-0.2-0.9-0.2c-0.6,0-1,0.2-1.5,0.5c-0.4,0.4-0.6,1-0.6,2v4.2H136.8z"/>
		<path id="XMLID_566_" class="st1" d="M149.2,29.6l-0.1-1.2c0.3,0.1,0.5,0.1,0.8,0.1c0.3,0,0.5,0,0.7-0.1s0.3-0.2,0.4-0.4
			c0.1-0.1,0.2-0.5,0.4-1c0-0.1,0.1-0.2,0.1-0.3l-3-7.8h1.4l1.6,4.5c0.2,0.6,0.4,1.2,0.6,1.8c0.2-0.6,0.3-1.2,0.5-1.8l1.7-4.5h1.3
			l-3,7.9c-0.3,0.9-0.6,1.4-0.7,1.8c-0.2,0.4-0.5,0.8-0.8,1c-0.3,0.2-0.7,0.3-1.1,0.3C149.8,29.8,149.6,29.7,149.2,29.6z"/>
		<path id="XMLID_564_" class="st1" d="M168.8,22.8l1.4,0.4c-0.3,1.2-0.8,2.1-1.6,2.7c-0.8,0.6-1.7,0.9-2.8,0.9
			c-1.2,0-2.1-0.2-2.8-0.7c-0.7-0.5-1.3-1.2-1.7-2s-0.6-1.9-0.6-2.9c0-1.1,0.2-2.1,0.6-2.9c0.4-0.8,1-1.5,1.8-1.9
			c0.8-0.4,1.7-0.6,2.6-0.6c1.1,0,2,0.3,2.7,0.8s1.2,1.3,1.5,2.3l-1.4,0.3c-0.2-0.8-0.6-1.4-1.1-1.7s-1.1-0.5-1.8-0.5
			c-0.8,0-1.5,0.2-2.1,0.6s-0.9,0.9-1.2,1.6c-0.2,0.7-0.3,1.4-0.3,2.1c0,0.9,0.1,1.7,0.4,2.4c0.3,0.7,0.7,1.2,1.2,1.5
			s1.2,0.5,1.8,0.5c0.8,0,1.5-0.2,2-0.7S168.6,23.7,168.8,22.8z"/>
		<path id="XMLID_561_" class="st1" d="M171.3,22.7c0-1.4,0.4-2.5,1.2-3.2c0.7-0.6,1.5-0.9,2.4-0.9c1.1,0,1.9,0.4,2.6,1.1
			c0.7,0.7,1,1.7,1,2.9c0,1-0.1,1.8-0.5,2.4c-0.3,0.6-0.7,1-1.3,1.3c-0.6,0.3-1.2,0.5-1.9,0.5c-1.1,0-2-0.3-2.6-1
			C171.7,25,171.3,24,171.3,22.7z M172.7,22.7c0,1,0.2,1.7,0.7,2.2c0.4,0.5,1,0.7,1.6,0.7c0.7,0,1.2-0.2,1.6-0.7s0.7-1.3,0.7-2.3
			c0-1-0.2-1.7-0.7-2.2c-0.4-0.5-1-0.7-1.6-0.7c-0.7,0-1.2,0.2-1.6,0.7C172.9,21,172.7,21.7,172.7,22.7z"/>
		<path id="XMLID_559_" class="st1" d="M180.2,26.6v-7.8h1.2v1.1c0.2-0.4,0.6-0.7,1-0.9c0.4-0.2,0.9-0.3,1.4-0.3
			c0.6,0,1,0.1,1.4,0.4s0.6,0.6,0.8,1c0.6-0.9,1.4-1.4,2.4-1.4c0.8,0,1.4,0.2,1.8,0.6c0.4,0.4,0.6,1.1,0.6,2v5.3h-1.3v-4.9
			c0-0.5,0-0.9-0.1-1.1c-0.1-0.2-0.2-0.4-0.5-0.6s-0.5-0.2-0.8-0.2c-0.5,0-1,0.2-1.4,0.5c-0.4,0.4-0.5,0.9-0.5,1.7v4.5h-1.3v-5.1
			c0-0.6-0.1-1-0.3-1.3s-0.6-0.4-1.1-0.4c-0.4,0-0.7,0.1-1,0.3c-0.3,0.2-0.5,0.5-0.7,0.9s-0.2,0.9-0.2,1.6v4H180.2z"/>
		<path id="XMLID_556_" class="st1" d="M192.6,29.6V18.8h1.2v1c0.3-0.4,0.6-0.7,1-0.9c0.4-0.2,0.8-0.3,1.3-0.3
			c0.7,0,1.3,0.2,1.8,0.5s0.9,0.8,1.2,1.4c0.3,0.6,0.4,1.3,0.4,2c0,0.8-0.1,1.5-0.4,2.1c-0.3,0.6-0.7,1.1-1.2,1.5
			c-0.5,0.3-1.1,0.5-1.7,0.5c-0.4,0-0.8-0.1-1.2-0.3c-0.3-0.2-0.6-0.4-0.9-0.7v3.8H192.6z M193.8,22.8c0,1,0.2,1.7,0.6,2.2
			c0.4,0.5,0.9,0.7,1.5,0.7c0.6,0,1.1-0.2,1.5-0.7c0.4-0.5,0.6-1.3,0.6-2.3c0-1-0.2-1.7-0.6-2.2s-0.9-0.7-1.5-0.7
			c-0.6,0-1.1,0.3-1.5,0.8C194.1,21,193.8,21.8,193.8,22.8z"/>
		<path id="XMLID_553_" class="st1" d="M200.5,22.7c0-1.4,0.4-2.5,1.2-3.2c0.7-0.6,1.5-0.9,2.4-0.9c1.1,0,1.9,0.4,2.6,1.1
			c0.7,0.7,1,1.7,1,2.9c0,1-0.1,1.8-0.5,2.4c-0.3,0.6-0.7,1-1.3,1.3c-0.6,0.3-1.2,0.5-1.9,0.5c-1.1,0-2-0.3-2.6-1
			C200.8,25,200.5,24,200.5,22.7z M201.9,22.7c0,1,0.2,1.7,0.7,2.2c0.4,0.5,1,0.7,1.6,0.7c0.7,0,1.2-0.2,1.6-0.7s0.7-1.3,0.7-2.3
			c0-1-0.2-1.7-0.7-2.2c-0.4-0.5-1-0.7-1.6-0.7c-0.7,0-1.2,0.2-1.6,0.7C202.1,21,201.9,21.7,201.9,22.7z"/>
		<path id="XMLID_551_" class="st1" d="M208.8,24.3l1.3-0.2c0.1,0.5,0.3,0.9,0.6,1.2c0.3,0.3,0.8,0.4,1.4,0.4c0.6,0,1.1-0.1,1.3-0.4
			c0.3-0.2,0.4-0.5,0.4-0.9c0-0.3-0.1-0.5-0.4-0.7c-0.2-0.1-0.6-0.3-1.3-0.4c-1-0.2-1.6-0.5-2-0.6c-0.4-0.2-0.7-0.4-0.8-0.7
			c-0.2-0.3-0.3-0.7-0.3-1c0-0.3,0.1-0.7,0.2-1c0.2-0.3,0.4-0.5,0.6-0.7c0.2-0.2,0.5-0.3,0.8-0.4c0.4-0.1,0.7-0.2,1.1-0.2
			c0.6,0,1.1,0.1,1.6,0.3c0.5,0.2,0.8,0.4,1,0.7c0.2,0.3,0.4,0.7,0.5,1.2l-1.3,0.2c-0.1-0.4-0.2-0.7-0.5-0.9s-0.7-0.3-1.2-0.3
			c-0.6,0-1,0.1-1.3,0.3s-0.4,0.4-0.4,0.7c0,0.2,0.1,0.3,0.2,0.5c0.1,0.1,0.3,0.3,0.5,0.4c0.1,0,0.5,0.2,1.2,0.3
			c0.9,0.2,1.6,0.5,2,0.6c0.4,0.2,0.7,0.4,0.9,0.7s0.3,0.7,0.3,1.1c0,0.4-0.1,0.9-0.4,1.2c-0.3,0.4-0.6,0.7-1.1,0.9
			c-0.5,0.2-1,0.3-1.6,0.3c-1,0-1.8-0.2-2.3-0.6S208.9,25.1,208.8,24.3z"/>
		<path id="XMLID_548_" class="st1" d="M216.8,17.4v-1.5h1.3v1.5H216.8z M216.8,26.6v-7.8h1.3v7.8H216.8z"/>
		<path id="XMLID_546_" class="st1" d="M225.2,23.8l1.3,0.2c-0.1,0.9-0.5,1.6-1.1,2.1c-0.6,0.5-1.3,0.8-2.2,0.8
			c-1.1,0-1.9-0.3-2.6-1c-0.6-0.7-1-1.7-1-3c0-0.8,0.1-1.6,0.4-2.2s0.7-1.1,1.3-1.4c0.6-0.3,1.2-0.5,1.9-0.5c0.8,0,1.5,0.2,2.1,0.6
			c0.5,0.4,0.9,1,1,1.8l-1.3,0.2c-0.1-0.5-0.3-0.9-0.6-1.2c-0.3-0.3-0.7-0.4-1.1-0.4c-0.7,0-1.2,0.2-1.6,0.7
			c-0.4,0.5-0.6,1.2-0.6,2.3c0,1,0.2,1.8,0.6,2.3s0.9,0.7,1.6,0.7c0.5,0,1-0.2,1.3-0.5C224.9,24.9,225.1,24.4,225.2,23.8z"/>
		<path id="XMLID_543_" class="st1" d="M227.7,17.4v-1.5h1.3v1.5H227.7z M227.7,26.6v-7.8h1.3v7.8H227.7z"/>
		<path id="XMLID_539_" class="st1" d="M230.5,22.7c0-1.4,0.4-2.5,1.2-3.2c0.7-0.6,1.5-0.9,2.4-0.9c1.1,0,1.9,0.4,2.6,1.1
			c0.7,0.7,1,1.7,1,2.9c0,1-0.1,1.8-0.5,2.4c-0.3,0.6-0.7,1-1.3,1.3c-0.6,0.3-1.2,0.5-1.9,0.5c-1.1,0-2-0.3-2.6-1
			S230.5,24,230.5,22.7z M231.9,22.7c0,1,0.2,1.7,0.7,2.2c0.4,0.5,1,0.7,1.6,0.7c0.7,0,1.2-0.2,1.6-0.7c0.4-0.5,0.7-1.3,0.7-2.3
			c0-1-0.2-1.7-0.7-2.2c-0.4-0.5-1-0.7-1.6-0.7c-0.7,0-1.2,0.2-1.6,0.7S231.9,21.7,231.9,22.7z M233.4,17.9l1-2.1h1.7l-1.6,2.1
			H233.4z"/>
		<path id="XMLID_537_" class="st1" d="M239.3,26.6v-7.8h1.2v1.1c0.6-0.9,1.4-1.3,2.5-1.3c0.5,0,0.9,0.1,1.3,0.3
			c0.4,0.2,0.7,0.4,0.9,0.7s0.3,0.6,0.4,1c0,0.2,0.1,0.7,0.1,1.3v4.8h-1.3v-4.7c0-0.5-0.1-0.9-0.2-1.2c-0.1-0.3-0.3-0.5-0.5-0.6
			c-0.3-0.2-0.6-0.2-0.9-0.2c-0.6,0-1,0.2-1.5,0.5c-0.4,0.4-0.6,1-0.6,2v4.2H239.3z"/>
	</g>
</g>
<polygon id="XMLID_14628_" class="st2" points="326.5,16.3 320.7,26.3 315,16.3 "/>
</svg>
