<?xml version="1.0" encoding="utf-8"?>
<!-- Generator: Adobe Illustrator 19.0.0, SVG Export Plug-In . SVG Version: 6.00 Build 0)  -->
<svg version="1.1" id="Capa_1" xmlns="http://www.w3.org/2000/svg" xmlns:xlink="http://www.w3.org/1999/xlink" x="0px" y="0px"
	 viewBox="-126 399.4 341.9 42.5" style="enable-background:new -126 399.4 341.9 42.5;" xml:space="preserve">
<style type="text/css">
	.st0{fill:#252527;}
	.st1{fill:#FFFFFF;}
	.st2{fill:#E8A91C;}
	.st3{fill:#F9D523;}
</style>
<rect id="XMLID_14641_" x="-126" y="399.4" class="st0" width="341.9" height="42.5"/>
<g id="XMLID_19_">
	<g id="XMLID_536_">
		<path id="XMLID_593_" class="st1" d="M-57.8,426l4.1-10.7h1.5l4.4,10.7h-1.6l-1.3-3.3h-4.5l-1.2,3.3H-57.8z M-54.7,421.6h3.7
			l-1.1-3c-0.3-0.9-0.6-1.6-0.8-2.2c-0.1,0.7-0.3,1.4-0.6,2.1L-54.7,421.6z"/>
		<path id="XMLID_590_" class="st1" d="M-47,426.7l1.3,0.2c0.1,0.4,0.2,0.7,0.4,0.9c0.3,0.2,0.8,0.4,1.3,0.4c0.6,0,1.1-0.1,1.4-0.4
			c0.3-0.3,0.6-0.6,0.7-1c0.1-0.3,0.1-0.8,0.1-1.7c-0.6,0.7-1.3,1-2.2,1c-1.1,0-1.9-0.4-2.5-1.2c-0.6-0.8-0.9-1.7-0.9-2.8
			c0-0.7,0.1-1.4,0.4-2.1c0.3-0.6,0.7-1.1,1.2-1.5c0.5-0.3,1.1-0.5,1.8-0.5c0.9,0,1.7,0.4,2.3,1.1v-0.9h1.2v6.7
			c0,1.2-0.1,2.1-0.4,2.6c-0.2,0.5-0.6,0.9-1.2,1.2c-0.5,0.3-1.2,0.4-2,0.4c-0.9,0-1.7-0.2-2.2-0.6C-46.7,428.1-47,427.5-47,426.7z
			 M-45.9,422c0,1,0.2,1.8,0.6,2.2s0.9,0.7,1.5,0.7s1.1-0.2,1.5-0.7s0.6-1.2,0.6-2.2s-0.2-1.7-0.6-2.2s-0.9-0.7-1.5-0.7
			s-1.1,0.2-1.5,0.7C-45.7,420.3-45.9,421-45.9,422z"/>
		<path id="XMLID_588_" class="st1" d="M-38.4,426v-7.8h1.2v1.2c0.3-0.6,0.6-0.9,0.8-1.1c0.3-0.2,0.5-0.3,0.8-0.3
			c0.4,0,0.9,0.1,1.4,0.4l-0.5,1.2c-0.3-0.2-0.6-0.3-1-0.3c-0.3,0-0.5,0.1-0.8,0.3c-0.2,0.2-0.4,0.4-0.5,0.7c-0.1,0.5-0.2,1-0.2,1.5
			v4.1L-38.4,426L-38.4,426z"/>
		<path id="XMLID_585_" class="st1" d="M-28.1,423.5l1.4,0.2c-0.2,0.8-0.6,1.4-1.2,1.9s-1.3,0.7-2.2,0.7c-1.1,0-2-0.3-2.7-1.1
			c-0.7-0.7-1-1.7-1-2.9c0-1.3,0.3-2.3,1-3c0.7-0.7,1.5-1.1,2.6-1.1c1,0,1.9,0.4,2.5,1.1c0.6,0.7,1,1.7,1,3c0,0.1,0,0.2,0,0.4h-5.8
			c0,0.9,0.3,1.5,0.7,2s1,0.7,1.6,0.7c0.5,0,0.9-0.1,1.2-0.4C-28.7,424.7-28.3,424.1-28.1,423.5z M-32.4,421.4h4.3
			c-0.1-0.7-0.2-1.1-0.5-1.5c-0.4-0.5-1-0.8-1.6-0.8s-1.1,0.2-1.5,0.6C-32.1,420.2-32.4,420.7-32.4,421.4z"/>
		<path id="XMLID_582_" class="st1" d="M-25.3,426.7l1.3,0.2c0.1,0.4,0.2,0.7,0.4,0.9c0.3,0.2,0.8,0.4,1.3,0.4
			c0.6,0,1.1-0.1,1.4-0.4c0.3-0.3,0.6-0.6,0.7-1c0.1-0.3,0.1-0.8,0.1-1.7c-0.6,0.7-1.3,1-2.2,1c-1.1,0-1.9-0.4-2.5-1.2
			c-0.6-0.8-0.9-1.7-0.9-2.8c0-0.7,0.1-1.4,0.4-2.1c0.3-0.6,0.7-1.1,1.2-1.5c0.5-0.3,1.1-0.5,1.8-0.5c0.9,0,1.7,0.4,2.3,1.1v-0.9
			h1.2v6.7c0,1.2-0.1,2.1-0.4,2.6c-0.2,0.5-0.6,0.9-1.2,1.2c-0.5,0.3-1.2,0.4-2,0.4c-0.9,0-1.7-0.2-2.2-0.6
			C-25,428.1-25.3,427.5-25.3,426.7z M-24.2,422c0,1,0.2,1.8,0.6,2.2s0.9,0.7,1.5,0.7s1.1-0.2,1.5-0.7S-20,423-20,422
			s-0.2-1.7-0.6-2.2s-0.9-0.7-1.5-0.7s-1.1,0.2-1.5,0.7S-24.2,421-24.2,422z"/>
		<path id="XMLID_579_" class="st1" d="M-11.6,425c-0.5,0.4-1,0.7-1.4,0.9c-0.4,0.2-0.9,0.3-1.5,0.3c-0.9,0-1.5-0.2-2-0.6
			s-0.7-1-0.7-1.6c0-0.4,0.1-0.7,0.3-1c0.2-0.3,0.4-0.6,0.7-0.8c0.3-0.2,0.6-0.3,0.9-0.4s0.6-0.1,1.2-0.2c1.1-0.1,1.8-0.3,2.4-0.5
			c0-0.2,0-0.3,0-0.3c0-0.5-0.1-0.9-0.4-1.1c-0.3-0.3-0.8-0.4-1.5-0.4c-0.6,0-1.1,0.1-1.4,0.3c-0.3,0.2-0.5,0.6-0.7,1.2l-1.3-0.2
			c0.1-0.6,0.3-1,0.6-1.3c0.3-0.3,0.7-0.6,1.2-0.8c0.5-0.2,1.1-0.3,1.8-0.3c0.7,0,1.2,0.1,1.6,0.2c0.4,0.1,0.7,0.4,0.9,0.6
			c0.2,0.2,0.3,0.5,0.4,0.9c0,0.2,0.1,0.6,0.1,1.2v1.8c0,1.2,0,2,0.1,2.3s0.2,0.6,0.3,0.9h-1.4C-11.5,425.7-11.6,425.4-11.6,425z
			 M-11.8,422.1c-0.5,0.2-1.2,0.4-2.2,0.5c-0.5,0.1-0.9,0.2-1.1,0.3c-0.2,0.1-0.4,0.2-0.5,0.4c-0.1,0.2-0.2,0.4-0.2,0.6
			c0,0.4,0.1,0.6,0.4,0.9c0.3,0.2,0.7,0.4,1.2,0.4s1-0.1,1.4-0.3c0.4-0.2,0.7-0.5,0.9-0.9c0.1-0.3,0.2-0.7,0.2-1.3v-0.6H-11.8z"/>
		<path id="XMLID_577_" class="st1" d="M-3.3,423.2l1.3,0.2c-0.1,0.9-0.5,1.6-1.1,2.1s-1.3,0.8-2.1,0.8c-1.1,0-1.9-0.3-2.6-1
			c-0.6-0.7-1-1.7-1-3c0-0.8,0.1-1.6,0.4-2.2s0.7-1.1,1.3-1.4c0.6-0.3,1.2-0.5,1.9-0.5c0.8,0,1.5,0.2,2.1,0.6c0.5,0.4,0.9,1,1,1.8
			l-1.3,0.2c-0.1-0.5-0.3-0.9-0.6-1.2c-0.3-0.3-0.7-0.4-1.1-0.4c-0.7,0-1.2,0.2-1.6,0.7s-0.6,1.2-0.6,2.3c0,1,0.2,1.8,0.6,2.3
			s0.9,0.7,1.6,0.7c0.5,0,0.9-0.2,1.3-0.5S-3.4,423.8-3.3,423.2z"/>
		<path id="XMLID_574_" class="st1" d="M-0.9,416.8v-1.5h1.3v1.5H-0.9z M-0.9,426v-7.8h1.3v7.8C0.4,426-0.9,426-0.9,426z"/>
		<path id="XMLID_570_" class="st1" d="M2,422.1c0-1.4,0.4-2.5,1.2-3.2c0.7-0.6,1.5-0.9,2.4-0.9c1.1,0,1.9,0.4,2.6,1.1
			c0.7,0.7,1,1.7,1,2.9c0,1-0.1,1.8-0.5,2.4c-0.3,0.6-0.7,1-1.3,1.3s-1.2,0.5-1.9,0.5c-1.1,0-2-0.3-2.6-1S2,423.4,2,422.1z
			 M3.3,422.1c0,1,0.2,1.7,0.7,2.2c0.4,0.5,1,0.7,1.6,0.7c0.7,0,1.2-0.2,1.6-0.7s0.7-1.3,0.7-2.3s-0.2-1.7-0.7-2.2
			c-0.4-0.5-1-0.7-1.6-0.7c-0.7,0-1.2,0.2-1.6,0.7S3.3,421.1,3.3,422.1z M4.9,417.3l1-2.1h1.7L6,417.3H4.9z"/>
		<path id="XMLID_568_" class="st1" d="M10.8,426v-7.8H12v1.1c0.6-0.9,1.4-1.3,2.5-1.3c0.5,0,0.9,0.1,1.3,0.3
			c0.4,0.2,0.7,0.4,0.9,0.7c0.2,0.3,0.3,0.6,0.4,1c0,0.2,0.1,0.7,0.1,1.3v4.8h-1.3v-4.7c0-0.5-0.1-0.9-0.2-1.2
			c-0.1-0.3-0.3-0.5-0.5-0.6c-0.3-0.2-0.6-0.2-0.9-0.2c-0.6,0-1,0.2-1.5,0.5c-0.4,0.4-0.6,1-0.6,2v4.2h-1.4V426z"/>
		<path id="XMLID_566_" class="st1" d="M23.2,429l-0.1-1.2c0.3,0.1,0.5,0.1,0.8,0.1s0.5,0,0.7-0.1s0.3-0.2,0.4-0.4
			c0.1-0.1,0.2-0.5,0.4-1c0-0.1,0.1-0.2,0.1-0.3l-3-7.8h1.4l1.6,4.5c0.2,0.6,0.4,1.2,0.6,1.8c0.2-0.6,0.3-1.2,0.5-1.8l1.7-4.5h1.3
			l-3,7.9c-0.3,0.9-0.6,1.4-0.7,1.8c-0.2,0.4-0.5,0.8-0.8,1c-0.3,0.2-0.7,0.3-1.1,0.3C23.8,429.2,23.6,429.1,23.2,429z"/>
		<path id="XMLID_564_" class="st1" d="M42.8,422.2l1.4,0.4c-0.3,1.2-0.8,2.1-1.6,2.7s-1.7,0.9-2.8,0.9c-1.2,0-2.1-0.2-2.8-0.7
			s-1.3-1.2-1.7-2c-0.4-0.8-0.6-1.9-0.6-2.9c0-1.1,0.2-2.1,0.6-2.9c0.4-0.8,1-1.5,1.8-1.9s1.7-0.6,2.6-0.6c1.1,0,2,0.3,2.7,0.8
			s1.2,1.3,1.5,2.3l-1.4,0.3c-0.2-0.8-0.6-1.4-1.1-1.7c-0.5-0.3-1.1-0.5-1.8-0.5c-0.8,0-1.5,0.2-2.1,0.6s-0.9,0.9-1.2,1.6
			c-0.2,0.7-0.3,1.4-0.3,2.1c0,0.9,0.1,1.7,0.4,2.4c0.3,0.7,0.7,1.2,1.2,1.5s1.2,0.5,1.8,0.5c0.8,0,1.5-0.2,2-0.7
			S42.6,423.1,42.8,422.2z"/>
		<path id="XMLID_561_" class="st1" d="M45.3,422.1c0-1.4,0.4-2.5,1.2-3.2c0.7-0.6,1.5-0.9,2.4-0.9c1.1,0,1.9,0.4,2.6,1.1
			c0.7,0.7,1,1.7,1,2.9c0,1-0.1,1.8-0.5,2.4c-0.3,0.6-0.7,1-1.3,1.3s-1.2,0.5-1.9,0.5c-1.1,0-2-0.3-2.6-1
			C45.7,424.4,45.3,423.4,45.3,422.1z M46.7,422.1c0,1,0.2,1.7,0.7,2.2c0.4,0.5,1,0.7,1.6,0.7c0.7,0,1.2-0.2,1.6-0.7
			s0.7-1.3,0.7-2.3s-0.2-1.7-0.7-2.2c-0.4-0.5-1-0.7-1.6-0.7c-0.7,0-1.2,0.2-1.6,0.7C46.9,420.4,46.7,421.1,46.7,422.1z"/>
		<path id="XMLID_559_" class="st1" d="M54.2,426v-7.8h1.2v1.1c0.2-0.4,0.6-0.7,1-0.9c0.4-0.2,0.9-0.3,1.4-0.3c0.6,0,1,0.1,1.4,0.4
			c0.4,0.3,0.6,0.6,0.8,1c0.6-0.9,1.4-1.4,2.4-1.4c0.8,0,1.4,0.2,1.8,0.6c0.4,0.4,0.6,1.1,0.6,2v5.3h-1.3v-4.9c0-0.5,0-0.9-0.1-1.1
			c-0.1-0.2-0.2-0.4-0.5-0.6c-0.3-0.2-0.5-0.2-0.8-0.2c-0.5,0-1,0.2-1.4,0.5c-0.4,0.4-0.5,0.9-0.5,1.7v4.5h-1.3v-5.1
			c0-0.6-0.1-1-0.3-1.3c-0.2-0.3-0.6-0.4-1.1-0.4c-0.4,0-0.7,0.1-1,0.3c-0.3,0.2-0.5,0.5-0.7,0.9s-0.2,0.9-0.2,1.6v4L54.2,426
			L54.2,426z"/>
		<path id="XMLID_556_" class="st1" d="M66.6,429v-10.8h1.2v1c0.3-0.4,0.6-0.7,1-0.9c0.4-0.2,0.8-0.3,1.3-0.3c0.7,0,1.3,0.2,1.8,0.5
			c0.5,0.3,0.9,0.8,1.2,1.4c0.3,0.6,0.4,1.3,0.4,2c0,0.8-0.1,1.5-0.4,2.1c-0.3,0.6-0.7,1.1-1.2,1.5c-0.5,0.3-1.1,0.5-1.7,0.5
			c-0.4,0-0.8-0.1-1.2-0.3c-0.3-0.2-0.6-0.4-0.9-0.7v3.8h-1.5V429z M67.8,422.2c0,1,0.2,1.7,0.6,2.2c0.4,0.5,0.9,0.7,1.5,0.7
			s1.1-0.2,1.5-0.7s0.6-1.3,0.6-2.3s-0.2-1.7-0.6-2.2s-0.9-0.7-1.5-0.7s-1.1,0.3-1.5,0.8C68.1,420.4,67.8,421.2,67.8,422.2z"/>
		<path id="XMLID_553_" class="st1" d="M74.5,422.1c0-1.4,0.4-2.5,1.2-3.2c0.7-0.6,1.5-0.9,2.4-0.9c1.1,0,1.9,0.4,2.6,1.1
			c0.7,0.7,1,1.7,1,2.9c0,1-0.1,1.8-0.5,2.4c-0.3,0.6-0.7,1-1.3,1.3s-1.2,0.5-1.9,0.5c-1.1,0-2-0.3-2.6-1
			C74.8,424.4,74.5,423.4,74.5,422.1z M75.9,422.1c0,1,0.2,1.7,0.7,2.2c0.4,0.5,1,0.7,1.6,0.7c0.7,0,1.2-0.2,1.6-0.7
			s0.7-1.3,0.7-2.3s-0.2-1.7-0.7-2.2c-0.4-0.5-1-0.7-1.6-0.7c-0.7,0-1.2,0.2-1.6,0.7C76.1,420.4,75.9,421.1,75.9,422.1z"/>
		<path id="XMLID_551_" class="st1" d="M82.8,423.7l1.3-0.2c0.1,0.5,0.3,0.9,0.6,1.2c0.3,0.3,0.8,0.4,1.4,0.4c0.6,0,1.1-0.1,1.3-0.4
			c0.3-0.2,0.4-0.5,0.4-0.9c0-0.3-0.1-0.5-0.4-0.7c-0.2-0.1-0.6-0.3-1.3-0.4c-1-0.2-1.6-0.5-2-0.6c-0.4-0.2-0.7-0.4-0.8-0.7
			c-0.2-0.3-0.3-0.7-0.3-1c0-0.3,0.1-0.7,0.2-1c0.2-0.3,0.4-0.5,0.6-0.7c0.2-0.2,0.5-0.3,0.8-0.4c0.4-0.1,0.7-0.2,1.1-0.2
			c0.6,0,1.1,0.1,1.6,0.3c0.5,0.2,0.8,0.4,1,0.7s0.4,0.7,0.5,1.2l-1.3,0.2c-0.1-0.4-0.2-0.7-0.5-0.9c-0.3-0.2-0.7-0.3-1.2-0.3
			c-0.6,0-1,0.1-1.3,0.3c-0.3,0.2-0.4,0.4-0.4,0.7c0,0.2,0.1,0.3,0.2,0.5c0.1,0.1,0.3,0.3,0.5,0.4c0.1,0,0.5,0.2,1.2,0.3
			c0.9,0.2,1.6,0.5,2,0.6c0.4,0.2,0.7,0.4,0.9,0.7c0.2,0.3,0.3,0.7,0.3,1.1c0,0.4-0.1,0.9-0.4,1.2c-0.3,0.4-0.6,0.7-1.1,0.9
			c-0.5,0.2-1,0.3-1.6,0.3c-1,0-1.8-0.2-2.3-0.6S82.9,424.5,82.8,423.7z"/>
		<path id="XMLID_548_" class="st1" d="M90.8,416.8v-1.5h1.3v1.5H90.8z M90.8,426v-7.8h1.3v7.8C92.1,426,90.8,426,90.8,426z"/>
		<path id="XMLID_546_" class="st1" d="M99.2,423.2l1.3,0.2c-0.1,0.9-0.5,1.6-1.1,2.1s-1.3,0.8-2.2,0.8c-1.1,0-1.9-0.3-2.6-1
			c-0.6-0.7-1-1.7-1-3c0-0.8,0.1-1.6,0.4-2.2s0.7-1.1,1.3-1.4s1.2-0.5,1.9-0.5c0.8,0,1.5,0.2,2.1,0.6c0.5,0.4,0.9,1,1,1.8l-1.3,0.2
			c-0.1-0.5-0.3-0.9-0.6-1.2c-0.3-0.3-0.7-0.4-1.1-0.4c-0.7,0-1.2,0.2-1.6,0.7c-0.4,0.5-0.6,1.2-0.6,2.3c0,1,0.2,1.8,0.6,2.3
			s0.9,0.7,1.6,0.7c0.5,0,1-0.2,1.3-0.5C98.9,424.3,99.1,423.8,99.2,423.2z"/>
		<path id="XMLID_543_" class="st1" d="M101.7,416.8v-1.5h1.3v1.5H101.7z M101.7,426v-7.8h1.3v7.8C103,426,101.7,426,101.7,426z"/>
		<path id="XMLID_539_" class="st1" d="M104.5,422.1c0-1.4,0.4-2.5,1.2-3.2c0.7-0.6,1.5-0.9,2.4-0.9c1.1,0,1.9,0.4,2.6,1.1
			c0.7,0.7,1,1.7,1,2.9c0,1-0.1,1.8-0.5,2.4c-0.3,0.6-0.7,1-1.3,1.3s-1.2,0.5-1.9,0.5c-1.1,0-2-0.3-2.6-1S104.5,423.4,104.5,422.1z
			 M105.9,422.1c0,1,0.2,1.7,0.7,2.2c0.4,0.5,1,0.7,1.6,0.7c0.7,0,1.2-0.2,1.6-0.7c0.4-0.5,0.7-1.3,0.7-2.3s-0.2-1.7-0.7-2.2
			c-0.4-0.5-1-0.7-1.6-0.7c-0.7,0-1.2,0.2-1.6,0.7S105.9,421.1,105.9,422.1z M107.4,417.3l1-2.1h1.7l-1.6,2.1H107.4z"/>
		<path id="XMLID_537_" class="st1" d="M113.3,426v-7.8h1.2v1.1c0.6-0.9,1.4-1.3,2.5-1.3c0.5,0,0.9,0.1,1.3,0.3
			c0.4,0.2,0.7,0.4,0.9,0.7c0.2,0.3,0.3,0.6,0.4,1c0,0.2,0.1,0.7,0.1,1.3v4.8h-1.3v-4.7c0-0.5-0.1-0.9-0.2-1.2
			c-0.1-0.3-0.3-0.5-0.5-0.6c-0.3-0.2-0.6-0.2-0.9-0.2c-0.6,0-1,0.2-1.5,0.5c-0.4,0.4-0.6,1-0.6,2v4.2h-1.4V426z"/>
	</g>
</g>
<g id="XMLID_14629_">
	<polygon id="XMLID_14631_" class="st2" points="203.7,420.7 190,428.6 190,412.7 	"/>
	<polygon id="XMLID_14630_" class="st3" points="198.1,423.9 190,428.6 190,419.2 	"/>
</g>
</svg>
