<?xml version="1.0" encoding="utf-8"?>
<!-- Generator: Adobe Illustrator 19.0.0, SVG Export Plug-In . SVG Version: 6.00 Build 0)  -->
<svg version="1.1" id="Capa_1" xmlns="http://www.w3.org/2000/svg" xmlns:xlink="http://www.w3.org/1999/xlink" x="0px" y="0px"
	 viewBox="-126 399.4 341.9 42.5" style="enable-background:new -126 399.4 341.9 42.5;" xml:space="preserve">
<style type="text/css">
	.st0{fill:#252527;}
	.st1{fill:#FFFFFF;}
	.st2{fill:#E8A91C;}
	.st3{fill:#F9D523;}
</style>
<rect id="XMLID_14641_" x="-126" y="399.4" class="st0" width="341.9" height="42.5"/>
<g id="XMLID_19_">
	<g id="XMLID_280_">
		<path id="XMLID_305_" class="st1" d="M-4.8,426l4.1-10.7h1.5L5.2,426H3.6l-1.3-3.3h-4.5l-1.2,3.3H-4.8z M-1.7,421.6h3.6l-1.1-3
			c-0.3-0.9-0.6-1.6-0.8-2.2c-0.1,0.7-0.3,1.4-0.6,2.1L-1.7,421.6z"/>
		<path id="XMLID_303_" class="st1" d="M5.7,423.7l1.3-0.2c0.1,0.5,0.3,0.9,0.6,1.2c0.3,0.3,0.8,0.4,1.4,0.4c0.6,0,1.1-0.1,1.3-0.4
			c0.3-0.2,0.4-0.5,0.4-0.9c0-0.3-0.1-0.5-0.4-0.7c-0.2-0.1-0.6-0.3-1.3-0.4c-1-0.2-1.6-0.5-2-0.6c-0.4-0.2-0.7-0.4-0.8-0.7
			c-0.2-0.3-0.3-0.7-0.3-1c0-0.3,0.1-0.7,0.2-1c0.2-0.3,0.4-0.5,0.6-0.7c0.2-0.2,0.5-0.3,0.8-0.4c0.4-0.1,0.7-0.2,1.1-0.2
			c0.6,0,1.1,0.1,1.6,0.3c0.5,0.2,0.8,0.4,1,0.7s0.4,0.7,0.5,1.2l-1.3,0.2c-0.1-0.4-0.2-0.7-0.5-0.9c-0.3-0.2-0.7-0.3-1.2-0.3
			c-0.6,0-1,0.1-1.3,0.3C7.1,419.8,7,420,7,420.3c0,0.2,0.1,0.3,0.2,0.5c0.1,0.1,0.3,0.3,0.5,0.4c0.1,0,0.5,0.2,1.2,0.3
			c0.9,0.2,1.6,0.5,2,0.6c0.4,0.2,0.7,0.4,0.9,0.7c0.2,0.3,0.3,0.7,0.3,1.1c0,0.4-0.1,0.9-0.4,1.2c-0.3,0.4-0.6,0.7-1.1,0.9
			c-0.5,0.2-1,0.3-1.6,0.3c-1,0-1.8-0.2-2.3-0.6S5.8,424.5,5.7,423.7z"/>
		<path id="XMLID_300_" class="st1" d="M13.2,422.1c0-1.4,0.4-2.5,1.2-3.2c0.7-0.6,1.5-0.9,2.4-0.9c1.1,0,1.9,0.4,2.6,1.1
			c0.7,0.7,1,1.7,1,2.9c0,1-0.1,1.8-0.5,2.4c-0.3,0.6-0.7,1-1.3,1.3s-1.2,0.5-1.9,0.5c-1.1,0-2-0.3-2.6-1S13.2,423.4,13.2,422.1z
			 M14.6,422.1c0,1,0.2,1.7,0.7,2.2c0.4,0.5,1,0.7,1.6,0.7c0.7,0,1.2-0.2,1.6-0.7s0.7-1.3,0.7-2.3s-0.2-1.7-0.7-2.2
			c-0.4-0.5-1-0.7-1.6-0.7c-0.7,0-1.2,0.2-1.6,0.7S14.6,421.1,14.6,422.1z"/>
		<path id="XMLID_298_" class="st1" d="M27.1,423.2l1.3,0.2c-0.1,0.9-0.5,1.6-1.1,2.1s-1.3,0.8-2.1,0.8c-1.1,0-1.9-0.3-2.6-1
			c-0.6-0.7-1-1.7-1-3c0-0.8,0.1-1.6,0.4-2.2s0.7-1.1,1.3-1.4s1.2-0.5,1.9-0.5c0.8,0,1.5,0.2,2.1,0.6c0.5,0.4,0.9,1,1,1.8l-1.3,0.2
			c-0.1-0.5-0.3-0.9-0.6-1.2c-0.3-0.3-0.7-0.4-1.1-0.4c-0.7,0-1.2,0.2-1.6,0.7c-0.4,0.5-0.6,1.2-0.6,2.3c0,1,0.2,1.8,0.6,2.3
			s0.9,0.7,1.6,0.7c0.5,0,0.9-0.2,1.3-0.5S27,423.8,27.1,423.2z"/>
		<path id="XMLID_295_" class="st1" d="M29.6,416.8v-1.5h1.3v1.5H29.6z M29.6,426v-7.8h1.3v7.8C30.9,426,29.6,426,29.6,426z"/>
		<path id="XMLID_292_" class="st1" d="M38,425c-0.5,0.4-1,0.7-1.4,0.9c-0.4,0.2-0.9,0.3-1.5,0.3c-0.9,0-1.5-0.2-2-0.6
			s-0.7-1-0.7-1.6c0-0.4,0.1-0.7,0.3-1c0.2-0.3,0.4-0.6,0.7-0.8c0.3-0.2,0.6-0.3,0.9-0.4c0.3-0.1,0.6-0.1,1.2-0.2
			c1.1-0.1,1.8-0.3,2.4-0.5c0-0.2,0-0.3,0-0.3c0-0.5-0.1-0.9-0.4-1.1c-0.3-0.3-0.8-0.4-1.5-0.4c-0.6,0-1.1,0.1-1.4,0.3
			c-0.3,0.2-0.5,0.6-0.7,1.2l-1.3-0.2c0.1-0.6,0.3-1,0.6-1.3c0.3-0.3,0.7-0.6,1.2-0.8c0.5-0.2,1.1-0.3,1.8-0.3s1.2,0.1,1.6,0.2
			c0.4,0.1,0.7,0.4,0.9,0.6c0.2,0.2,0.3,0.5,0.4,0.9c0,0.2,0.1,0.6,0.1,1.2v1.8c0,1.2,0,2,0.1,2.3s0.2,0.6,0.3,0.9h-1.4
			C38.1,425.7,38,425.4,38,425z M37.8,422.1c-0.5,0.2-1.2,0.4-2.2,0.5c-0.5,0.1-0.9,0.2-1.1,0.3c-0.2,0.1-0.4,0.2-0.5,0.4
			c-0.1,0.2-0.2,0.4-0.2,0.6c0,0.4,0.1,0.6,0.4,0.9c0.3,0.2,0.7,0.4,1.2,0.4s1-0.1,1.4-0.3c0.4-0.2,0.7-0.5,0.9-0.9
			c0.1-0.3,0.2-0.7,0.2-1.3L37.8,422.1L37.8,422.1z"/>
		<path id="XMLID_290_" class="st1" d="M46.3,423.2l1.3,0.2c-0.1,0.9-0.5,1.6-1.1,2.1s-1.3,0.8-2.2,0.8c-1.1,0-1.9-0.3-2.6-1
			c-0.6-0.7-1-1.7-1-3c0-0.8,0.1-1.6,0.4-2.2s0.7-1.1,1.3-1.4s1.2-0.5,1.9-0.5c0.8,0,1.5,0.2,2.1,0.6c0.5,0.4,0.9,1,1,1.8l-1.3,0.2
			c-0.1-0.5-0.3-0.9-0.6-1.2c-0.3-0.3-0.7-0.4-1.1-0.4c-0.7,0-1.2,0.2-1.6,0.7c-0.4,0.5-0.6,1.2-0.6,2.3c0,1,0.2,1.8,0.6,2.3
			s0.9,0.7,1.6,0.7c0.5,0,1-0.2,1.3-0.5C46,424.3,46.2,423.8,46.3,423.2z"/>
		<path id="XMLID_287_" class="st1" d="M48.7,416.8v-1.5H50v1.5H48.7z M48.7,426v-7.8H50v7.8C50,426,48.7,426,48.7,426z"/>
		<path id="XMLID_283_" class="st1" d="M51.6,422.1c0-1.4,0.4-2.5,1.2-3.2c0.7-0.6,1.5-0.9,2.4-0.9c1.1,0,1.9,0.4,2.6,1.1
			c0.7,0.7,1,1.7,1,2.9c0,1-0.1,1.8-0.5,2.4c-0.3,0.6-0.7,1-1.3,1.3s-1.2,0.5-1.9,0.5c-1.1,0-2-0.3-2.6-1S51.6,423.4,51.6,422.1z
			 M52.9,422.1c0,1,0.2,1.7,0.7,2.2c0.4,0.5,1,0.7,1.6,0.7c0.7,0,1.2-0.2,1.6-0.7c0.4-0.5,0.7-1.3,0.7-2.3s-0.2-1.7-0.7-2.2
			c-0.4-0.5-1-0.7-1.6-0.7c-0.7,0-1.2,0.2-1.6,0.7S52.9,421.1,52.9,422.1z M54.5,417.3l1-2.1h1.7l-1.6,2.1H54.5z"/>
		<path id="XMLID_281_" class="st1" d="M60.4,426v-7.8h1.2v1.1c0.6-0.9,1.4-1.3,2.5-1.3c0.5,0,0.9,0.1,1.3,0.3
			c0.4,0.2,0.7,0.4,0.9,0.7c0.2,0.3,0.3,0.6,0.4,1c0,0.2,0.1,0.7,0.1,1.3v4.8h-1.3v-4.7c0-0.5-0.1-0.9-0.2-1.2
			c-0.1-0.3-0.3-0.5-0.5-0.6c-0.3-0.2-0.6-0.2-0.9-0.2c-0.6,0-1,0.2-1.5,0.5c-0.4,0.4-0.6,1-0.6,2v4.2h-1.4V426z"/>
	</g>
</g>
<g id="XMLID_14629_">
	<polygon id="XMLID_14631_" class="st2" points="203.7,420.7 190,428.6 190,412.7 	"/>
	<polygon id="XMLID_14630_" class="st3" points="198.1,423.9 190,428.6 190,419.2 	"/>
</g>
</svg>
