<?xml version="1.0" encoding="utf-8"?>
<!-- Generator: Adobe Illustrator 19.0.0, SVG Export Plug-In . SVG Version: 6.00 Build 0)  -->
<svg version="1.1" id="Capa_1" xmlns="http://www.w3.org/2000/svg" xmlns:xlink="http://www.w3.org/1999/xlink" x="0px" y="0px"
	 viewBox="0 0 341.9 42.5" style="enable-background:new 0 0 341.9 42.5;" xml:space="preserve">
<style type="text/css">
	.st0{fill:#252527;}
	.st1{fill:#FFFFFF;}
	.st2{fill:#E8A91C;}
	.st3{fill:#F9D523;}
</style>
<rect id="XMLID_14641_" class="st0" width="341.9" height="42.5"/>
<g id="XMLID_19_">
	<g id="XMLID_304_">
		<path id="XMLID_332_" class="st1" d="M114.4,26.6V15.9h3.7c0.8,0,1.5,0.1,1.9,0.2c0.6,0.1,1.1,0.4,1.6,0.8c0.6,0.5,1,1.1,1.3,1.8
			c0.3,0.7,0.4,1.6,0.4,2.6c0,0.8-0.1,1.5-0.3,2.2s-0.4,1.2-0.7,1.6c-0.3,0.4-0.6,0.7-1,1c-0.4,0.2-0.8,0.4-1.3,0.5
			c-0.5,0.1-1.1,0.2-1.7,0.2H114.4z M115.9,25.3h2.3c0.7,0,1.3-0.1,1.7-0.2c0.4-0.1,0.7-0.3,1-0.6c0.3-0.3,0.6-0.8,0.8-1.4
			c0.2-0.6,0.3-1.3,0.3-2.1c0-1.1-0.2-2-0.6-2.6c-0.4-0.6-0.8-1-1.3-1.2c-0.4-0.1-1-0.2-1.8-0.2h-2.3V25.3z"/>
		<path id="XMLID_329_" class="st1" d="M130.4,24.1l1.4,0.2c-0.2,0.8-0.6,1.4-1.2,1.9s-1.3,0.7-2.2,0.7c-1.1,0-2-0.3-2.7-1.1
			c-0.7-0.7-1-1.7-1-2.9c0-1.3,0.3-2.3,1-3s1.5-1.1,2.6-1.1c1,0,1.9,0.4,2.5,1.1s1,1.7,1,3c0,0.1,0,0.2,0,0.4H126
			c0,0.9,0.3,1.5,0.7,2s1,0.7,1.6,0.7c0.5,0,0.9-0.1,1.2-0.4S130.2,24.7,130.4,24.1z M126.1,22h4.3c-0.1-0.7-0.2-1.1-0.5-1.5
			c-0.4-0.5-1-0.8-1.6-0.8c-0.6,0-1.1,0.2-1.5,0.6C126.4,20.8,126.1,21.3,126.1,22z"/>
		<path id="XMLID_326_" class="st1" d="M133.4,29.6V18.8h1.2v1c0.3-0.4,0.6-0.7,1-0.9c0.4-0.2,0.8-0.3,1.3-0.3
			c0.7,0,1.3,0.2,1.8,0.5s0.9,0.8,1.1,1.4c0.3,0.6,0.4,1.3,0.4,2c0,0.8-0.1,1.5-0.4,2.1c-0.3,0.6-0.7,1.1-1.2,1.5
			c-0.5,0.3-1.1,0.5-1.7,0.5c-0.4,0-0.8-0.1-1.2-0.3c-0.3-0.2-0.6-0.4-0.9-0.7v3.8H133.4z M134.6,22.8c0,1,0.2,1.7,0.6,2.2
			s0.9,0.7,1.5,0.7c0.6,0,1.1-0.2,1.5-0.7c0.4-0.5,0.6-1.3,0.6-2.3c0-1-0.2-1.7-0.6-2.2s-0.9-0.7-1.5-0.7c-0.6,0-1.1,0.3-1.5,0.8
			C134.8,21,134.6,21.8,134.6,22.8z"/>
		<path id="XMLID_323_" class="st1" d="M147.1,24.1l1.4,0.2c-0.2,0.8-0.6,1.4-1.2,1.9s-1.3,0.7-2.2,0.7c-1.1,0-2-0.3-2.7-1.1
			c-0.7-0.7-1-1.7-1-2.9c0-1.3,0.3-2.3,1-3s1.5-1.1,2.6-1.1c1,0,1.9,0.4,2.5,1.1s1,1.7,1,3c0,0.1,0,0.2,0,0.4h-5.8
			c0,0.9,0.3,1.5,0.7,2s1,0.7,1.6,0.7c0.5,0,0.9-0.1,1.2-0.4S146.9,24.7,147.1,24.1z M142.8,22h4.3c-0.1-0.7-0.2-1.1-0.5-1.5
			c-0.4-0.5-1-0.8-1.6-0.8c-0.6,0-1.1,0.2-1.5,0.6C143.1,20.8,142.8,21.3,142.8,22z"/>
		<path id="XMLID_321_" class="st1" d="M150.1,26.6v-7.8h1.2v1.1c0.6-0.9,1.4-1.3,2.5-1.3c0.5,0,0.9,0.1,1.3,0.3
			c0.4,0.2,0.7,0.4,0.9,0.7s0.3,0.6,0.4,1c0,0.2,0.1,0.7,0.1,1.3v4.8h-1.3v-4.7c0-0.5-0.1-0.9-0.2-1.2c-0.1-0.3-0.3-0.5-0.5-0.6
			c-0.3-0.2-0.6-0.2-0.9-0.2c-0.6,0-1,0.2-1.5,0.5c-0.4,0.4-0.6,1-0.6,2v4.2H150.1z"/>
		<path id="XMLID_318_" class="st1" d="M163.5,26.6v-1c-0.5,0.8-1.2,1.2-2.2,1.2c-0.6,0-1.2-0.2-1.7-0.5c-0.5-0.3-0.9-0.8-1.2-1.4
			c-0.3-0.6-0.4-1.3-0.4-2.1c0-0.8,0.1-1.5,0.4-2.1c0.3-0.6,0.6-1.1,1.2-1.5s1.1-0.5,1.7-0.5c0.5,0,0.9,0.1,1.3,0.3
			c0.4,0.2,0.7,0.5,0.9,0.8v-3.9h1.3v10.7H163.5z M159.3,22.7c0,1,0.2,1.7,0.6,2.2s0.9,0.7,1.5,0.7c0.6,0,1.1-0.2,1.5-0.7
			c0.4-0.5,0.6-1.2,0.6-2.2c0-1.1-0.2-1.8-0.6-2.3s-0.9-0.7-1.5-0.7c-0.6,0-1.1,0.2-1.5,0.7S159.3,21.7,159.3,22.7z"/>
		<path id="XMLID_315_" class="st1" d="M172.1,24.1l1.4,0.2c-0.2,0.8-0.6,1.4-1.2,1.9c-0.6,0.4-1.3,0.7-2.2,0.7
			c-1.1,0-2-0.3-2.7-1.1c-0.7-0.7-1-1.7-1-2.9c0-1.3,0.3-2.3,1-3s1.5-1.1,2.6-1.1c1,0,1.9,0.4,2.5,1.1c0.7,0.7,1,1.7,1,3
			c0,0.1,0,0.2,0,0.4h-5.8c0,0.9,0.3,1.5,0.7,2s1,0.7,1.6,0.7c0.5,0,0.9-0.1,1.2-0.4S171.9,24.7,172.1,24.1z M167.8,22h4.3
			c-0.1-0.7-0.2-1.1-0.5-1.5c-0.4-0.5-1-0.8-1.6-0.8c-0.6,0-1.1,0.2-1.5,0.6C168.1,20.8,167.8,21.3,167.8,22z"/>
		<path id="XMLID_313_" class="st1" d="M175.2,26.6v-7.8h1.2v1.1c0.6-0.9,1.4-1.3,2.5-1.3c0.5,0,0.9,0.1,1.3,0.3
			c0.4,0.2,0.7,0.4,0.9,0.7s0.3,0.6,0.4,1c0,0.2,0.1,0.7,0.1,1.3v4.8h-1.3v-4.7c0-0.5-0.1-0.9-0.2-1.2c-0.1-0.3-0.3-0.5-0.5-0.6
			c-0.3-0.2-0.6-0.2-0.9-0.2c-0.6,0-1,0.2-1.5,0.5c-0.4,0.4-0.6,1-0.6,2v4.2H175.2z"/>
		<path id="XMLID_311_" class="st1" d="M188.6,23.8l1.3,0.2c-0.1,0.9-0.5,1.6-1.1,2.1c-0.6,0.5-1.3,0.8-2.1,0.8
			c-1.1,0-1.9-0.3-2.6-1c-0.6-0.7-1-1.7-1-3c0-0.8,0.1-1.6,0.4-2.2c0.3-0.6,0.7-1.1,1.3-1.4c0.6-0.3,1.2-0.5,1.9-0.5
			c0.8,0,1.5,0.2,2.1,0.6c0.5,0.4,0.9,1,1,1.8l-1.3,0.2c-0.1-0.5-0.3-0.9-0.6-1.2c-0.3-0.3-0.7-0.4-1.1-0.4c-0.7,0-1.2,0.2-1.6,0.7
			c-0.4,0.5-0.6,1.2-0.6,2.3c0,1,0.2,1.8,0.6,2.3s0.9,0.7,1.6,0.7c0.5,0,1-0.2,1.3-0.5S188.5,24.4,188.6,23.8z"/>
		<path id="XMLID_308_" class="st1" d="M191,17.4v-1.5h1.3v1.5H191z M191,26.6v-7.8h1.3v7.8H191z"/>
		<path id="XMLID_305_" class="st1" d="M199.4,25.6c-0.5,0.4-1,0.7-1.4,0.9c-0.5,0.2-0.9,0.3-1.5,0.3c-0.9,0-1.5-0.2-2-0.6
			c-0.5-0.4-0.7-1-0.7-1.6c0-0.4,0.1-0.7,0.3-1c0.2-0.3,0.4-0.6,0.7-0.8s0.6-0.3,0.9-0.4c0.3-0.1,0.6-0.1,1.2-0.2
			c1.1-0.1,1.8-0.3,2.4-0.5c0-0.2,0-0.3,0-0.3c0-0.5-0.1-0.9-0.4-1.1c-0.3-0.3-0.8-0.4-1.5-0.4c-0.6,0-1.1,0.1-1.4,0.3
			c-0.3,0.2-0.5,0.6-0.7,1.2l-1.3-0.2c0.1-0.6,0.3-1,0.6-1.3c0.3-0.3,0.7-0.6,1.2-0.8c0.5-0.2,1.1-0.3,1.8-0.3
			c0.7,0,1.2,0.1,1.6,0.2s0.7,0.4,0.9,0.6c0.2,0.2,0.3,0.5,0.4,0.9c0,0.2,0.1,0.6,0.1,1.2v1.8c0,1.2,0,2,0.1,2.3
			c0.1,0.3,0.2,0.6,0.3,0.9h-1.4C199.5,26.3,199.4,26,199.4,25.6z M199.3,22.7c-0.5,0.2-1.2,0.4-2.2,0.5c-0.5,0.1-0.9,0.2-1.2,0.3
			s-0.4,0.2-0.5,0.4c-0.1,0.2-0.2,0.4-0.2,0.6c0,0.4,0.1,0.6,0.4,0.9c0.3,0.2,0.7,0.4,1.2,0.4c0.5,0,1-0.1,1.4-0.3
			c0.4-0.2,0.7-0.5,0.9-0.9c0.1-0.3,0.2-0.7,0.2-1.3V22.7z"/>
	</g>
</g>
<g id="XMLID_14629_">
	<polygon id="XMLID_14631_" class="st2" points="329.7,21.3 316,29.2 316,13.3 	"/>
	<polygon id="XMLID_14630_" class="st3" points="324.1,24.5 316,29.2 316,19.8 	"/>
</g>
</svg>
