<?xml version="1.0" encoding="utf-8"?>
<!-- Generator: Adobe Illustrator 19.0.0, SVG Export Plug-In . SVG Version: 6.00 Build 0)  -->
<svg version="1.1" xmlns="http://www.w3.org/2000/svg" xmlns:xlink="http://www.w3.org/1999/xlink" x="0px" y="0px"
	 viewBox="0 0 246 67.1" style="enable-background:new 0 0 246 67.1;" xml:space="preserve">
<style type="text/css">
	.st0{fill-rule:evenodd;clip-rule:evenodd;fill:#C98C1F;}
	.st1{fill-rule:evenodd;clip-rule:evenodd;fill:#F9D523;}
	.st2{fill:#0E0E0F;}
	.st3{opacity:0.75;fill:#966A14;}
	.st4{clip-path:url(#XMLID_73_);fill:#FFFFFF;}
	.st5{clip-path:url(#XMLID_73_);}
</style>
<g id="Capa_1">
	<g id="XMLID_11780_">
		<g id="XMLID_11785_">
			<g id="XMLID_132_">
				<polygon id="XMLID_133_" class="st0" points="232,67.1 246,49.4 235.6,7.2 232,7.2 				"/>
			</g>
		</g>
		<rect id="XMLID_11784_" x="0" class="st1" width="246" height="49.4"/>
		<polygon id="XMLID_11781_" class="st2" points="229,49.4 0,49.4 229,56.4 		"/>
	</g>
	<g id="XMLID_4_">
		<polygon id="XMLID_5_" class="st3" points="229,56.4 232,56.5 232,49.4 229,49.4 		"/>
	</g>
</g>
<g id="Capa_2">
	<g id="XMLID_1_">
		<g id="XMLID_513_">
			<path id="XMLID_567_" d="M69.3,26.3l1.4,0.4c-0.3,1.2-0.8,2.1-1.6,2.7c-0.8,0.6-1.7,0.9-2.8,0.9c-1.2,0-2.1-0.2-2.8-0.7
				c-0.7-0.5-1.3-1.2-1.7-2c-0.4-0.9-0.6-1.9-0.6-2.9c0-1.1,0.2-2.1,0.6-2.9c0.4-0.8,1-1.5,1.8-1.9c0.8-0.4,1.7-0.6,2.6-0.6
				c1.1,0,2,0.3,2.7,0.8s1.2,1.3,1.5,2.3l-1.4,0.3c-0.2-0.8-0.6-1.4-1.1-1.7s-1.1-0.5-1.8-0.5c-0.8,0-1.5,0.2-2.1,0.6
				c-0.6,0.4-0.9,0.9-1.2,1.6c-0.2,0.7-0.3,1.4-0.3,2.1c0,0.9,0.1,1.7,0.4,2.4c0.3,0.7,0.7,1.2,1.2,1.5s1.2,0.5,1.8,0.5
				c0.8,0,1.5-0.2,2-0.7S69.1,27.2,69.3,26.3z"/>
			<path id="XMLID_564_" d="M77.4,29.1c-0.5,0.4-1,0.7-1.4,0.9c-0.5,0.2-0.9,0.3-1.5,0.3c-0.9,0-1.5-0.2-2-0.6
				c-0.5-0.4-0.7-1-0.7-1.6c0-0.4,0.1-0.7,0.3-1c0.2-0.3,0.4-0.6,0.7-0.8c0.3-0.2,0.6-0.3,0.9-0.4c0.3-0.1,0.6-0.1,1.2-0.2
				c1.1-0.1,1.8-0.3,2.4-0.5c0-0.2,0-0.3,0-0.3c0-0.5-0.1-0.9-0.4-1.1c-0.3-0.3-0.8-0.4-1.5-0.4c-0.6,0-1.1,0.1-1.4,0.3
				c-0.3,0.2-0.5,0.6-0.7,1.2l-1.3-0.2c0.1-0.6,0.3-1,0.6-1.3c0.3-0.3,0.7-0.6,1.2-0.8c0.5-0.2,1.1-0.3,1.8-0.3
				c0.7,0,1.2,0.1,1.6,0.2s0.7,0.4,0.9,0.6c0.2,0.2,0.3,0.5,0.4,0.9c0,0.2,0.1,0.6,0.1,1.2v1.8c0,1.2,0,2,0.1,2.3
				c0.1,0.3,0.2,0.6,0.3,0.9h-1.4C77.5,29.8,77.4,29.5,77.4,29.1z M77.3,26.1c-0.5,0.2-1.2,0.4-2.2,0.5c-0.5,0.1-0.9,0.2-1.1,0.3
				c-0.2,0.1-0.4,0.2-0.5,0.4c-0.1,0.2-0.2,0.4-0.2,0.6c0,0.4,0.1,0.6,0.4,0.9c0.3,0.2,0.7,0.4,1.2,0.4c0.5,0,1-0.1,1.4-0.3
				c0.4-0.2,0.7-0.5,0.9-0.9c0.1-0.3,0.2-0.7,0.2-1.3V26.1z"/>
			<path id="XMLID_562_" d="M80.1,27.7l1.3-0.2c0.1,0.5,0.3,0.9,0.6,1.2c0.3,0.3,0.8,0.4,1.4,0.4c0.6,0,1.1-0.1,1.3-0.4
				c0.3-0.2,0.4-0.5,0.4-0.9c0-0.3-0.1-0.5-0.4-0.7c-0.2-0.1-0.6-0.3-1.3-0.4c-1-0.2-1.6-0.5-2-0.6c-0.4-0.2-0.7-0.4-0.8-0.7
				c-0.2-0.3-0.3-0.7-0.3-1c0-0.3,0.1-0.7,0.2-1c0.2-0.3,0.4-0.5,0.6-0.7c0.2-0.2,0.5-0.3,0.8-0.4c0.4-0.1,0.7-0.2,1.1-0.2
				c0.6,0,1.1,0.1,1.6,0.3c0.5,0.2,0.8,0.4,1,0.7c0.2,0.3,0.4,0.7,0.5,1.2L85,24.4c-0.1-0.4-0.2-0.7-0.5-0.9
				c-0.3-0.2-0.7-0.3-1.2-0.3c-0.6,0-1,0.1-1.3,0.3c-0.3,0.2-0.4,0.4-0.4,0.7c0,0.2,0.1,0.3,0.2,0.5c0.1,0.1,0.3,0.3,0.5,0.4
				c0.1,0,0.5,0.2,1.2,0.3c0.9,0.2,1.6,0.5,2,0.6c0.4,0.2,0.7,0.4,0.9,0.7s0.3,0.7,0.3,1.1c0,0.4-0.1,0.9-0.4,1.2
				c-0.3,0.4-0.6,0.7-1.1,0.9c-0.5,0.2-1,0.3-1.6,0.3c-1,0-1.8-0.2-2.3-0.6C80.6,29.2,80.3,28.5,80.1,27.7z"/>
			<path id="XMLID_559_" d="M87.7,26.2c0-1.4,0.4-2.5,1.2-3.2c0.7-0.6,1.5-0.9,2.4-0.9c1.1,0,1.9,0.4,2.6,1.1c0.7,0.7,1,1.7,1,2.9
				c0,1-0.2,1.8-0.5,2.4c-0.3,0.6-0.7,1-1.3,1.3c-0.6,0.3-1.2,0.5-1.9,0.5c-1.1,0-2-0.3-2.6-1C88,28.5,87.7,27.5,87.7,26.2z
				 M89,26.2c0,1,0.2,1.7,0.7,2.2c0.4,0.5,1,0.7,1.6,0.7c0.7,0,1.2-0.2,1.6-0.7s0.7-1.3,0.7-2.3c0-1-0.2-1.7-0.7-2.2
				c-0.4-0.5-1-0.7-1.6-0.7c-0.7,0-1.2,0.2-1.6,0.7S89,25.2,89,26.2z"/>
			<path id="XMLID_556_" d="M105.7,30v-1c-0.5,0.8-1.2,1.2-2.2,1.2c-0.6,0-1.2-0.2-1.7-0.5c-0.5-0.3-0.9-0.8-1.2-1.4
				c-0.3-0.6-0.4-1.3-0.4-2.1c0-0.8,0.1-1.5,0.4-2.1c0.3-0.6,0.6-1.1,1.2-1.5c0.5-0.3,1.1-0.5,1.7-0.5c0.5,0,0.9,0.1,1.3,0.3
				c0.4,0.2,0.7,0.5,0.9,0.8v-3.9h1.3V30H105.7z M101.6,26.2c0,1,0.2,1.7,0.6,2.2c0.4,0.5,0.9,0.7,1.5,0.7c0.6,0,1.1-0.2,1.5-0.7
				c0.4-0.5,0.6-1.2,0.6-2.2c0-1.1-0.2-1.8-0.6-2.3s-0.9-0.7-1.5-0.7c-0.6,0-1.1,0.2-1.5,0.7C101.8,24.4,101.6,25.1,101.6,26.2z"/>
			<path id="XMLID_553_" d="M114.4,27.5l1.4,0.2c-0.2,0.8-0.6,1.4-1.2,1.9s-1.3,0.7-2.2,0.7c-1.1,0-2-0.4-2.7-1.1
				c-0.7-0.7-1-1.7-1-2.9c0-1.3,0.3-2.3,1-3s1.5-1.1,2.6-1.1c1,0,1.9,0.4,2.5,1.1c0.7,0.7,1,1.7,1,3c0,0.1,0,0.2,0,0.4H110
				c0,0.9,0.3,1.5,0.7,2c0.4,0.5,1,0.7,1.6,0.7c0.5,0,0.9-0.1,1.2-0.4S114.2,28.1,114.4,27.5z M110,25.4h4.3
				c-0.1-0.7-0.2-1.1-0.5-1.5c-0.4-0.5-1-0.8-1.6-0.8c-0.6,0-1.1,0.2-1.5,0.6C110.3,24.2,110.1,24.7,110,25.4z"/>
			<path id="XMLID_550_" d="M126.9,27.5l1.4,0.2c-0.2,0.8-0.6,1.4-1.2,1.9s-1.3,0.7-2.2,0.7c-1.1,0-2-0.4-2.7-1.1
				c-0.7-0.7-1-1.7-1-2.9c0-1.3,0.3-2.3,1-3s1.5-1.1,2.6-1.1c1,0,1.9,0.4,2.5,1.1c0.7,0.7,1,1.7,1,3c0,0.1,0,0.2,0,0.4h-5.8
				c0,0.9,0.3,1.5,0.7,2c0.4,0.5,1,0.7,1.6,0.7c0.5,0,0.9-0.1,1.2-0.4S126.7,28.1,126.9,27.5z M122.5,25.4h4.3
				c-0.1-0.7-0.2-1.1-0.5-1.5c-0.4-0.5-1-0.8-1.6-0.8c-0.6,0-1.1,0.2-1.5,0.6C122.8,24.2,122.6,24.7,122.5,25.4z"/>
			<path id="XMLID_548_" d="M129.4,27.7l1.3-0.2c0.1,0.5,0.3,0.9,0.6,1.2c0.3,0.3,0.8,0.4,1.4,0.4c0.6,0,1.1-0.1,1.3-0.4
				c0.3-0.2,0.4-0.5,0.4-0.9c0-0.3-0.1-0.5-0.4-0.7c-0.2-0.1-0.6-0.3-1.3-0.4c-1-0.2-1.6-0.5-2-0.6c-0.4-0.2-0.7-0.4-0.8-0.7
				c-0.2-0.3-0.3-0.7-0.3-1c0-0.3,0.1-0.7,0.2-1c0.2-0.3,0.4-0.5,0.6-0.7c0.2-0.2,0.5-0.3,0.8-0.4c0.4-0.1,0.7-0.2,1.1-0.2
				c0.6,0,1.1,0.1,1.6,0.3c0.5,0.2,0.8,0.4,1,0.7c0.2,0.3,0.4,0.7,0.5,1.2l-1.3,0.2c-0.1-0.4-0.2-0.7-0.5-0.9
				c-0.3-0.2-0.7-0.3-1.2-0.3c-0.6,0-1,0.1-1.3,0.3c-0.3,0.2-0.4,0.4-0.4,0.7c0,0.2,0.1,0.3,0.2,0.5c0.1,0.1,0.3,0.3,0.5,0.4
				c0.1,0,0.5,0.2,1.2,0.3c0.9,0.2,1.6,0.5,2,0.6c0.4,0.2,0.7,0.4,0.9,0.7s0.3,0.7,0.3,1.1c0,0.4-0.1,0.9-0.4,1.2
				c-0.3,0.4-0.6,0.7-1.1,0.9c-0.5,0.2-1,0.3-1.6,0.3c-1,0-1.8-0.2-2.3-0.6C129.8,29.2,129.5,28.5,129.4,27.7z"/>
			<path id="XMLID_546_" d="M140.3,28.9l0.2,1.2c-0.4,0.1-0.7,0.1-1,0.1c-0.5,0-0.8-0.1-1.1-0.2c-0.3-0.2-0.4-0.3-0.6-0.6
				c-0.1-0.2-0.2-0.8-0.2-1.6v-4.5h-1v-1h1v-1.9l1.3-0.8v2.7h1.3v1h-1.3v4.5c0,0.4,0,0.6,0.1,0.7c0,0.1,0.1,0.2,0.2,0.3
				c0.1,0.1,0.3,0.1,0.5,0.1C139.8,28.9,140,28.9,140.3,28.9z"/>
			<path id="XMLID_544_" d="M146.6,30v-1.1c-0.6,0.9-1.4,1.3-2.5,1.3c-0.5,0-0.9-0.1-1.3-0.3c-0.4-0.2-0.7-0.4-0.9-0.7
				c-0.2-0.3-0.3-0.6-0.4-1c-0.1-0.3-0.1-0.7-0.1-1.2v-4.8h1.3v4.3c0,0.7,0,1.2,0.1,1.4c0.1,0.3,0.3,0.6,0.5,0.8
				c0.3,0.2,0.6,0.3,1,0.3s0.8-0.1,1.1-0.3c0.3-0.2,0.6-0.5,0.7-0.8c0.1-0.3,0.2-0.9,0.2-1.5v-4.2h1.3V30H146.6z"/>
			<path id="XMLID_541_" d="M154.9,30v-1c-0.5,0.8-1.2,1.2-2.2,1.2c-0.6,0-1.2-0.2-1.7-0.5c-0.5-0.3-0.9-0.8-1.2-1.4
				c-0.3-0.6-0.4-1.3-0.4-2.1c0-0.8,0.1-1.5,0.4-2.1c0.3-0.6,0.6-1.1,1.2-1.5c0.5-0.3,1.1-0.5,1.7-0.5c0.5,0,0.9,0.1,1.3,0.3
				c0.4,0.2,0.7,0.5,0.9,0.8v-3.9h1.3V30H154.9z M150.8,26.2c0,1,0.2,1.7,0.6,2.2c0.4,0.5,0.9,0.7,1.5,0.7c0.6,0,1.1-0.2,1.5-0.7
				c0.4-0.5,0.6-1.2,0.6-2.2c0-1.1-0.2-1.8-0.6-2.3s-0.9-0.7-1.5-0.7c-0.6,0-1.1,0.2-1.5,0.7C151,24.4,150.8,25.1,150.8,26.2z"/>
			<path id="XMLID_538_" d="M158.2,20.8v-1.5h1.3v1.5H158.2z M158.2,30v-7.8h1.3V30H158.2z"/>
			<path id="XMLID_535_" d="M161.1,26.2c0-1.4,0.4-2.5,1.2-3.2c0.7-0.6,1.5-0.9,2.4-0.9c1.1,0,1.9,0.4,2.6,1.1c0.7,0.7,1,1.7,1,2.9
				c0,1-0.2,1.8-0.5,2.4c-0.3,0.6-0.7,1-1.3,1.3c-0.6,0.3-1.2,0.5-1.9,0.5c-1.1,0-2-0.3-2.6-1C161.4,28.5,161.1,27.5,161.1,26.2z
				 M162.4,26.2c0,1,0.2,1.7,0.7,2.2c0.4,0.5,1,0.7,1.6,0.7c0.7,0,1.2-0.2,1.6-0.7s0.7-1.3,0.7-2.3c0-1-0.2-1.7-0.7-2.2
				c-0.4-0.5-1-0.7-1.6-0.7c-0.7,0-1.2,0.2-1.6,0.7S162.4,25.2,162.4,26.2z"/>
			<path id="XMLID_532_" d="M174.1,33V22.3h1.2v1c0.3-0.4,0.6-0.7,1-0.9c0.4-0.2,0.8-0.3,1.3-0.3c0.7,0,1.3,0.2,1.8,0.5
				s0.9,0.8,1.1,1.4c0.3,0.6,0.4,1.3,0.4,2c0,0.8-0.1,1.5-0.4,2.1c-0.3,0.6-0.7,1.1-1.2,1.5c-0.5,0.3-1.1,0.5-1.7,0.5
				c-0.4,0-0.8-0.1-1.2-0.3c-0.3-0.2-0.6-0.4-0.9-0.7V33H174.1z M175.3,26.2c0,1,0.2,1.7,0.6,2.2s0.9,0.7,1.5,0.7
				c0.6,0,1.1-0.2,1.5-0.7c0.4-0.5,0.6-1.3,0.6-2.3c0-1-0.2-1.7-0.6-2.2c-0.4-0.5-0.9-0.7-1.5-0.7c-0.6,0-1.1,0.3-1.5,0.8
				C175.5,24.4,175.3,25.2,175.3,26.2z"/>
			<path id="XMLID_530_" d="M182.4,30v-7.8h1.2v1.2c0.3-0.6,0.6-0.9,0.8-1.1c0.3-0.2,0.5-0.3,0.8-0.3c0.4,0,0.9,0.1,1.4,0.4
				l-0.5,1.2c-0.3-0.2-0.6-0.3-1-0.3c-0.3,0-0.5,0.1-0.8,0.3c-0.2,0.2-0.4,0.4-0.5,0.7c-0.1,0.5-0.2,1-0.2,1.5V30H182.4z"/>
			<path id="XMLID_526_" d="M192.5,29.1c-0.5,0.4-1,0.7-1.4,0.9c-0.5,0.2-0.9,0.3-1.5,0.3c-0.9,0-1.5-0.2-2-0.6
				c-0.5-0.4-0.7-1-0.7-1.6c0-0.4,0.1-0.7,0.3-1c0.2-0.3,0.4-0.6,0.7-0.8c0.3-0.2,0.6-0.3,0.9-0.4c0.3-0.1,0.6-0.1,1.2-0.2
				c1.1-0.1,1.8-0.3,2.4-0.5c0-0.2,0-0.3,0-0.3c0-0.5-0.1-0.9-0.4-1.1c-0.3-0.3-0.8-0.4-1.5-0.4c-0.6,0-1.1,0.1-1.4,0.3
				c-0.3,0.2-0.5,0.6-0.7,1.2l-1.3-0.2c0.1-0.6,0.3-1,0.6-1.3c0.3-0.3,0.7-0.6,1.2-0.8c0.5-0.2,1.1-0.3,1.8-0.3
				c0.7,0,1.2,0.1,1.6,0.2s0.7,0.4,0.9,0.6c0.2,0.2,0.3,0.5,0.4,0.9c0,0.2,0.1,0.6,0.1,1.2v1.8c0,1.2,0,2,0.1,2.3
				c0.1,0.3,0.2,0.6,0.3,0.9h-1.4C192.6,29.8,192.5,29.5,192.5,29.1z M192.4,26.1c-0.5,0.2-1.2,0.4-2.2,0.5
				c-0.5,0.1-0.9,0.2-1.1,0.3c-0.2,0.1-0.4,0.2-0.5,0.4c-0.1,0.2-0.2,0.4-0.2,0.6c0,0.4,0.1,0.6,0.4,0.9c0.3,0.2,0.7,0.4,1.2,0.4
				c0.5,0,1-0.1,1.4-0.3c0.4-0.2,0.7-0.5,0.9-0.9c0.1-0.3,0.2-0.7,0.2-1.3V26.1z M189.8,21.3l1-2.1h1.7l-1.6,2.1H189.8z"/>
			<path id="XMLID_524_" d="M200.8,27.2l1.3,0.2c-0.1,0.9-0.5,1.6-1.1,2.1c-0.6,0.5-1.3,0.8-2.1,0.8c-1.1,0-1.9-0.3-2.6-1
				c-0.6-0.7-1-1.7-1-3c0-0.8,0.1-1.6,0.4-2.2s0.7-1.1,1.3-1.4c0.6-0.3,1.2-0.5,1.9-0.5c0.8,0,1.5,0.2,2.1,0.6c0.5,0.4,0.9,1,1,1.8
				l-1.3,0.2c-0.1-0.5-0.3-0.9-0.6-1.2c-0.3-0.3-0.7-0.4-1.1-0.4c-0.7,0-1.2,0.2-1.6,0.7c-0.4,0.5-0.6,1.2-0.6,2.3
				c0,1,0.2,1.8,0.6,2.3c0.4,0.5,0.9,0.7,1.6,0.7c0.5,0,0.9-0.2,1.3-0.5C200.5,28.3,200.7,27.9,200.8,27.2z"/>
			<path id="XMLID_522_" d="M206.1,28.9l0.2,1.2c-0.4,0.1-0.7,0.1-1,0.1c-0.5,0-0.8-0.1-1.1-0.2c-0.3-0.2-0.4-0.3-0.6-0.6
				c-0.1-0.2-0.2-0.8-0.2-1.6v-4.5h-1v-1h1v-1.9l1.3-0.8v2.7h1.3v1h-1.3v4.5c0,0.4,0,0.6,0.1,0.7c0,0.1,0.1,0.2,0.2,0.3
				c0.1,0.1,0.3,0.1,0.5,0.1C205.7,28.9,205.9,28.9,206.1,28.9z"/>
			<path id="XMLID_519_" d="M207.4,20.8v-1.5h1.3v1.5H207.4z M207.4,30v-7.8h1.3V30H207.4z"/>
			<path id="XMLID_517_" d="M215.8,27.2l1.3,0.2c-0.1,0.9-0.5,1.6-1.1,2.1c-0.6,0.5-1.3,0.8-2.1,0.8c-1.1,0-1.9-0.3-2.6-1
				c-0.6-0.7-1-1.7-1-3c0-0.8,0.1-1.6,0.4-2.2s0.7-1.1,1.3-1.4c0.6-0.3,1.2-0.5,1.9-0.5c0.8,0,1.5,0.2,2.1,0.6c0.5,0.4,0.9,1,1,1.8
				l-1.3,0.2c-0.1-0.5-0.3-0.9-0.6-1.2c-0.3-0.3-0.7-0.4-1.1-0.4c-0.7,0-1.2,0.2-1.6,0.7c-0.4,0.5-0.6,1.2-0.6,2.3
				c0,1,0.2,1.8,0.6,2.3c0.4,0.5,0.9,0.7,1.6,0.7c0.5,0,0.9-0.2,1.3-0.5C215.5,28.3,215.7,27.9,215.8,27.2z"/>
			<path id="XMLID_514_" d="M217.8,26.2c0-1.4,0.4-2.5,1.2-3.2c0.7-0.6,1.5-0.9,2.4-0.9c1.1,0,1.9,0.4,2.6,1.1c0.7,0.7,1,1.7,1,2.9
				c0,1-0.2,1.8-0.5,2.4c-0.3,0.6-0.7,1-1.3,1.3c-0.6,0.3-1.2,0.5-1.9,0.5c-1.1,0-2-0.3-2.6-1C218.1,28.5,217.8,27.5,217.8,26.2z
				 M219.1,26.2c0,1,0.2,1.7,0.7,2.2c0.4,0.5,1,0.7,1.6,0.7c0.7,0,1.2-0.2,1.6-0.7s0.7-1.3,0.7-2.3c0-1-0.2-1.7-0.7-2.2
				c-0.4-0.5-1-0.7-1.6-0.7c-0.7,0-1.2,0.2-1.6,0.7S219.1,25.2,219.1,26.2z"/>
		</g>
	</g>
	<g id="XMLID_1078_">
		<g id="XMLID_1118_">
			<defs>
				<rect id="XMLID_1069_" x="12.5" y="9.6" width="33.4" height="33.1"/>
			</defs>
			<clipPath id="XMLID_73_">
				<use xlink:href="#XMLID_1069_"  style="overflow:visible;"/>
			</clipPath>
			<path id="XMLID_1129_" class="st4" d="M27.5,20.8h1.2c0.2,1,0.6,1.9,1.1,2.6L29,24.4c-0.3,0.3-0.3,0.8,0,1.1l0.9,0.9
				c0.3,0.3,0.8,0.3,1.1,0l0.9-0.9c0.8,0.5,1.7,0.9,2.6,1.1v1.2c0,0.4,0.4,0.8,0.8,0.8h1.3c0.4,0,0.8-0.4,0.8-0.8v-1.2
				c1-0.2,1.9-0.6,2.6-1.1l0.9,0.9c0.3,0.3,0.8,0.3,1.1,0l0.9-0.9c0.3-0.3,0.3-0.8,0-1.1l-0.9-0.9c0.5-0.8,0.9-1.7,1.1-2.6h1.2
				c0.4,0,0.8-0.4,0.8-0.8v-1.3c0-0.4-0.4-0.8-0.8-0.8h-1.2c-0.2-1-0.6-1.9-1.1-2.6l0.9-0.9c0.3-0.3,0.3-0.8,0-1.1L42,12.4
				c-0.3-0.3-0.8-0.3-1.1,0L40,13.3c-0.8-0.5-1.7-0.9-2.6-1.1V11c0-0.4-0.4-0.8-0.8-0.8h-1.3c-0.4,0-0.8,0.4-0.8,0.8v1.2
				c-1,0.2-1.9,0.6-2.6,1.1L31,12.4c-0.3-0.3-0.8-0.3-1.1,0L29,13.4c-0.3,0.3-0.3,0.8,0,1.1l0.9,0.9c-0.5,0.8-0.9,1.7-1.1,2.6h-1.2
				c-0.4,0-0.8,0.4-0.8,0.8v1.3C26.7,20.5,27.1,20.8,27.5,20.8L27.5,20.8z M36,16.1c1.8,0,3.3,1.5,3.3,3.3c0,1.8-1.5,3.3-3.3,3.3
				c-1.8,0-3.3-1.5-3.3-3.3C32.6,17.6,34.1,16.1,36,16.1L36,16.1z M36,16.1"/>
			<path id="XMLID_1122_" class="st5" d="M36,35.3c-0.1,0.2-0.4,0.3-0.6,0.3l-1.5-0.6c-0.3-0.1-0.6,0-0.7,0.2
				c-0.7,1-1.6,1.9-2.6,2.6c-0.2,0.2-0.3,0.5-0.2,0.7l0.6,1.5c0.1,0.2,0,0.5-0.3,0.6L29,41.4c-0.2,0.1-0.5,0-0.6-0.3l-0.6-1.5
				c-0.1-0.3-0.4-0.4-0.7-0.4c-1.2,0.2-2.5,0.2-3.7,0c-0.3-0.1-0.6,0.1-0.7,0.4L22,41.1c-0.1,0.2-0.4,0.3-0.6,0.3l-1.7-0.7
				c-0.1,0-0.2-0.1-0.3-0.3c0-0.1,0-0.2,0-0.4l0.6-1.5c0.1-0.3,0-0.6-0.2-0.7c-1-0.7-1.9-1.6-2.6-2.6c-0.2-0.2-0.5-0.3-0.7-0.2
				L15,35.6c-0.2,0.1-0.5,0-0.6-0.3l-0.7-1.7c-0.1-0.2,0-0.5,0.3-0.6l1.5-0.6c0.3-0.1,0.4-0.4,0.4-0.7c-0.2-1.2-0.2-2.5,0-3.7
				c0.1-0.3-0.1-0.6-0.4-0.7L14,26.7c-0.1,0-0.2-0.1-0.3-0.3c0-0.1,0-0.2,0-0.4l0.7-1.7c0-0.1,0.1-0.2,0.3-0.3c0.1,0,0.2,0,0.4,0
				l1.5,0.6c0.3,0.1,0.6,0,0.7-0.2c0.7-1,1.6-1.9,2.6-2.6c0.2-0.2,0.3-0.5,0.2-0.7l-0.6-1.5c0-0.1,0-0.2,0-0.4
				c0-0.1,0.1-0.2,0.3-0.3l1.7-0.7c0.2-0.1,0.5,0,0.6,0.3l0.6,1.5c0.1,0.3,0.5,0.5,0.8,0.3c0.3-0.1,0.5-0.5,0.3-0.8l-0.6-1.5
				c-0.4-0.9-1.3-1.3-2.2-0.9l-1.7,0.7c-0.4,0.2-0.7,0.5-0.9,0.9c-0.2,0.4-0.2,0.9,0,1.3l0.4,1.1c-0.9,0.6-1.6,1.4-2.3,2.3L15.5,23
				c-0.4-0.2-0.9-0.2-1.3,0c-0.4,0.2-0.7,0.5-0.9,0.9l-0.7,1.7c-0.2,0.4-0.2,0.9,0,1.3c0.2,0.4,0.5,0.7,0.9,0.9l1.1,0.4
				c-0.2,1.1-0.2,2.1,0,3.2l-1.1,0.4c-0.9,0.4-1.3,1.3-0.9,2.2l0.7,1.7c0.4,0.9,1.3,1.3,2.2,0.9l1.1-0.4c0.6,0.9,1.4,1.6,2.3,2.3
				l-0.4,1.1c-0.2,0.4-0.2,0.9,0,1.3c0.2,0.4,0.5,0.7,0.9,0.9l1.7,0.7c0.9,0.4,1.9-0.1,2.2-0.9l0.4-1.1c1.1,0.2,2.1,0.2,3.2,0
				l0.4,1.1c0.3,0.7,0.9,1,1.6,1c0.2,0,0.4,0,0.6-0.1l1.7-0.7c0.9-0.4,1.3-1.3,0.9-2.2l-0.4-1.1c0.9-0.6,1.6-1.4,2.3-2.3l1.1,0.4
				c0.9,0.4,1.9-0.1,2.2-0.9l0.7-1.7c0.2-0.4,0.2-0.9,0-1.3c-0.2-0.4-0.5-0.7-0.9-0.9l-1.5-0.6c-0.3-0.1-0.7,0-0.8,0.3
				c-0.1,0.3,0,0.7,0.3,0.8l1.5,0.6c0.1,0,0.2,0.1,0.3,0.3c0,0.1,0,0.2,0,0.4L36,35.3z M36,35.3"/>
		</g>
		<path id="XMLID_1108_" d="M25.2,25.7c0.3,0,0.6-0.3,0.6-0.6s-0.3-0.6-0.6-0.6h0c-1.5,0-2.8,0.6-3.8,1.6s-1.6,2.4-1.6,3.9
			c0,1.5,0.6,2.8,1.6,3.8c1,1,2.4,1.6,3.8,1.6h0c1.5,0,2.8-0.6,3.8-1.6c1-1,1.6-2.4,1.6-3.9c0-0.3-0.3-0.6-0.6-0.6h0
			c-0.3,0-0.6,0.3-0.6,0.6c0,1.1-0.4,2.2-1.2,3c-0.8,0.8-1.8,1.2-3,1.3h0c-1.1,0-2.2-0.4-3-1.2c-0.8-0.8-1.2-1.8-1.3-3
			c0-1.1,0.4-2.2,1.2-3C23,26.1,24.1,25.7,25.2,25.7L25.2,25.7z M25.2,25.7"/>
		<path id="XMLID_1084_" d="M44.4,21.5c0.8,0,1.4-0.6,1.4-1.4v-1.3c0-0.8-0.6-1.4-1.4-1.4h-0.7c-0.2-0.7-0.4-1.3-0.8-1.9l0.5-0.5
			c0.5-0.5,0.5-1.4,0-2L42.4,12c-0.3-0.3-0.6-0.4-1-0.4c-0.4,0-0.7,0.1-1,0.4L40,12.5c-0.6-0.4-1.3-0.6-1.9-0.8V11
			c0-0.8-0.6-1.4-1.4-1.4h-1.3c-0.8,0-1.4,0.6-1.4,1.4v0.7c-0.7,0.2-1.3,0.4-1.9,0.8L31.5,12c-0.3-0.3-0.6-0.4-1-0.4
			c-0.4,0-0.7,0.1-1,0.4l-0.9,0.9c-0.5,0.5-0.5,1.4,0,2l0.5,0.5c-0.4,0.6-0.6,1.3-0.8,1.9h-0.7c-0.8,0-1.4,0.6-1.4,1.4v1.3
			c0,0.8,0.6,1.4,1.4,1.4h0.7c0.2,0.7,0.4,1.3,0.8,1.9l-0.5,0.5c-0.5,0.5-0.5,1.4,0,2l0.9,0.9c0.3,0.3,0.6,0.4,1,0.4
			c0.4,0,0.7-0.1,1-0.4l0.5-0.5c0.6,0.4,1.3,0.6,1.9,0.8v0.7c0,0.8,0.6,1.4,1.4,1.4h1.3c0.8,0,1.4-0.6,1.4-1.4v-0.7
			c0.7-0.2,1.3-0.4,1.9-0.8l0.5,0.5c0.3,0.3,0.6,0.4,1,0.4c0.4,0,0.7-0.1,1-0.4l0.9-0.9c0.5-0.5,0.5-1.4,0-2l-0.5-0.5
			c0.4-0.6,0.6-1.3,0.8-1.9H44.4z M42.6,20.7c-0.2,0.9-0.5,1.7-1,2.4c-0.2,0.2-0.1,0.6,0.1,0.8l0.9,0.9c0.1,0.1,0.1,0.2,0,0.2
			L41.6,26c0,0-0.1,0-0.1,0c0,0-0.1,0-0.1,0l-0.9-0.9c-0.2-0.2-0.5-0.2-0.8-0.1c-0.7,0.5-1.6,0.8-2.4,1c-0.3,0.1-0.5,0.3-0.5,0.6
			v1.2c0,0.1-0.1,0.2-0.2,0.2h-1.3c-0.1,0-0.2-0.1-0.2-0.2v-1.2c0-0.3-0.2-0.5-0.5-0.6c-0.9-0.2-1.7-0.5-2.4-1
			c-0.1-0.1-0.2-0.1-0.3-0.1c-0.2,0-0.3,0.1-0.4,0.2L30.6,26c0,0-0.1,0-0.1,0c0,0-0.1,0-0.1,0L29.4,25c-0.1-0.1-0.1-0.2,0-0.2
			l0.9-0.9c0.2-0.2,0.2-0.5,0.1-0.8c-0.5-0.7-0.8-1.6-1-2.4c-0.1-0.3-0.3-0.5-0.6-0.5h-1.2c-0.1,0-0.2-0.1-0.2-0.2v-1.3
			c0-0.1,0.1-0.2,0.2-0.2h1.2c0.3,0,0.5-0.2,0.6-0.5c0.2-0.9,0.5-1.7,1-2.4c0.2-0.2,0.1-0.6-0.1-0.8L29.4,14c0,0,0-0.1,0-0.1
			c0,0,0-0.1,0-0.1l0.9-0.9c0,0,0.1,0,0.1,0c0,0,0.1,0,0.1,0l0.9,0.9c0.2,0.2,0.5,0.2,0.8,0.1c0.7-0.5,1.6-0.8,2.4-1
			c0.3-0.1,0.5-0.3,0.5-0.6V11c0-0.1,0.1-0.2,0.2-0.2h1.3c0.1,0,0.2,0.1,0.2,0.2v1.2c0,0.3,0.2,0.5,0.5,0.6c0.9,0.2,1.7,0.5,2.4,1
			c0.2,0.2,0.6,0.1,0.8-0.1l0.9-0.9c0,0,0.1,0,0.1,0c0,0,0.1,0,0.1,0l0.9,0.9c0.1,0.1,0.1,0.2,0,0.2l-0.9,0.9
			c-0.2,0.2-0.2,0.5-0.1,0.8c0.5,0.7,0.8,1.6,1,2.4c0.1,0.3,0.3,0.5,0.6,0.5h1.2c0.1,0,0.2,0.1,0.2,0.2v1.3c0,0.1-0.1,0.2-0.2,0.2
			h-1.2C42.9,20.2,42.6,20.4,42.6,20.7L42.6,20.7z M42.6,20.7"/>
		<path id="XMLID_1079_" d="M36,15.5c-2.2,0-4,1.8-4,4c0,2.2,1.8,4,4,4c2.2,0,4-1.8,4-4C39.9,17.2,38.1,15.5,36,15.5L36,15.5z
			 M36,22.1c-1.5,0-2.7-1.2-2.7-2.7c0-1.5,1.2-2.7,2.7-2.7c1.5,0,2.7,1.2,2.7,2.7C38.7,20.9,37.5,22.1,36,22.1L36,22.1z M36,22.1"/>
	</g>
</g>
</svg>
