<?xml version="1.0" encoding="utf-8"?>
<!-- Generator: Adobe Illustrator 19.0.0, SVG Export Plug-In . SVG Version: 6.00 Build 0)  -->
<svg version="1.1" id="Capa_1" xmlns="http://www.w3.org/2000/svg" xmlns:xlink="http://www.w3.org/1999/xlink" x="0px" y="0px"
	 viewBox="0 0 341.9 42.5" style="enable-background:new 0 0 341.9 42.5;" xml:space="preserve">
<style type="text/css">
	.st0{fill:#252527;}
	.st1{fill:#FFFFFF;}
	.st2{fill:#E8A91C;}
	.st3{fill:#F9D523;}
</style>
<rect id="XMLID_1233_" x="0" y="0" class="st0" width="341.9" height="42.5"/>
<g id="XMLID_19_">
	<g id="XMLID_400_">
		<path id="XMLID_440_" class="st1" d="M92.8,27.2V14.3h4.4c1,0,1.8,0.1,2.3,0.2c0.7,0.2,1.4,0.5,1.9,0.9c0.7,0.6,1.2,1.3,1.5,2.2
			s0.5,1.9,0.5,3.1c0,1-0.1,1.8-0.3,2.6s-0.5,1.4-0.9,1.9s-0.7,0.9-1.2,1.2s-0.9,0.5-1.5,0.6s-1.3,0.2-2.1,0.2H92.8z M94.5,25.7h2.8
			c0.8,0,1.5-0.1,2-0.2s0.9-0.4,1.2-0.7c0.4-0.4,0.7-0.9,0.9-1.6s0.3-1.5,0.3-2.5c0-1.3-0.2-2.4-0.7-3.1s-1-1.2-1.6-1.5
			c-0.5-0.2-1.2-0.3-2.2-0.3h-2.7V25.7z"/>
		<path id="XMLID_437_" class="st1" d="M105.6,16.1v-1.8h1.6v1.8H105.6z M105.6,27.2v-9.3h1.6v9.3H105.6z"/>
		<path id="XMLID_434_" class="st1" d="M115.7,26c-0.6,0.5-1.1,0.8-1.7,1.1s-1.1,0.3-1.7,0.3c-1,0-1.8-0.3-2.4-0.8s-0.8-1.1-0.8-1.9
			c0-0.5,0.1-0.9,0.3-1.3s0.5-0.7,0.8-0.9s0.7-0.4,1.1-0.5c0.3-0.1,0.8-0.2,1.4-0.2c1.3-0.2,2.2-0.3,2.8-0.5c0-0.2,0-0.4,0-0.4
			c0-0.6-0.1-1.1-0.4-1.4c-0.4-0.4-1-0.5-1.8-0.5c-0.7,0-1.3,0.1-1.6,0.4s-0.6,0.7-0.8,1.4l-1.5-0.2c0.1-0.7,0.4-1.2,0.7-1.6
			s0.8-0.7,1.4-0.9s1.3-0.3,2.1-0.3c0.8,0,1.4,0.1,1.9,0.3s0.9,0.4,1.1,0.7s0.4,0.6,0.5,1.1c0.1,0.3,0.1,0.8,0.1,1.5v2.1
			c0,1.5,0,2.4,0.1,2.8s0.2,0.8,0.4,1.1H116C115.8,26.9,115.7,26.5,115.7,26z M115.5,22.5c-0.6,0.2-1.4,0.4-2.6,0.6
			c-0.7,0.1-1.1,0.2-1.4,0.3s-0.5,0.3-0.6,0.5s-0.2,0.5-0.2,0.8c0,0.4,0.2,0.8,0.5,1.1s0.8,0.4,1.4,0.4c0.6,0,1.2-0.1,1.6-0.4
			s0.8-0.6,1-1.1c0.2-0.4,0.3-0.9,0.3-1.6V22.5z"/>
		<path id="XMLID_431_" class="st1" d="M119.3,28l1.5,0.2c0.1,0.5,0.2,0.8,0.5,1c0.4,0.3,0.9,0.4,1.6,0.4c0.7,0,1.3-0.1,1.7-0.4
			s0.7-0.7,0.8-1.2c0.1-0.3,0.1-1,0.1-2c-0.7,0.8-1.6,1.2-2.6,1.2c-1.3,0-2.3-0.5-3-1.4s-1.1-2-1.1-3.3c0-0.9,0.2-1.7,0.5-2.5
			s0.8-1.3,1.4-1.7s1.3-0.6,2.2-0.6c1.1,0,2,0.4,2.7,1.3v-1.1h1.5v8.1c0,1.5-0.1,2.5-0.4,3.1s-0.8,1.1-1.4,1.4S123.9,31,123,31
			c-1.1,0-2-0.3-2.7-0.8S119.3,29,119.3,28z M120.6,22.4c0,1.2,0.2,2.1,0.7,2.7s1.1,0.8,1.8,0.8c0.7,0,1.3-0.3,1.8-0.8
			s0.7-1.4,0.7-2.6c0-1.1-0.3-2-0.8-2.6s-1.1-0.9-1.8-0.9c-0.7,0-1.3,0.3-1.8,0.9S120.6,21.2,120.6,22.4z"/>
		<path id="XMLID_429_" class="st1" d="M129.6,27.2v-9.3h1.4v1.4c0.4-0.7,0.7-1.1,1-1.3s0.6-0.3,1-0.3c0.5,0,1.1,0.2,1.6,0.5
			l-0.5,1.5c-0.4-0.2-0.8-0.3-1.2-0.3c-0.3,0-0.7,0.1-0.9,0.3s-0.5,0.5-0.6,0.9c-0.2,0.6-0.3,1.2-0.3,1.8v4.9H129.6z"/>
		<path id="XMLID_426_" class="st1" d="M141.7,26c-0.6,0.5-1.1,0.8-1.7,1.1s-1.1,0.3-1.7,0.3c-1,0-1.8-0.3-2.4-0.8s-0.8-1.1-0.8-1.9
			c0-0.5,0.1-0.9,0.3-1.3s0.5-0.7,0.8-0.9s0.7-0.4,1.1-0.5c0.3-0.1,0.8-0.2,1.4-0.2c1.3-0.2,2.2-0.3,2.8-0.5c0-0.2,0-0.4,0-0.4
			c0-0.6-0.1-1.1-0.4-1.4c-0.4-0.4-1-0.5-1.8-0.5c-0.7,0-1.3,0.1-1.6,0.4s-0.6,0.7-0.8,1.4l-1.5-0.2c0.1-0.7,0.4-1.2,0.7-1.6
			s0.8-0.7,1.4-0.9s1.3-0.3,2.1-0.3c0.8,0,1.4,0.1,1.9,0.3s0.9,0.4,1.1,0.7s0.4,0.6,0.5,1.1c0.1,0.3,0.1,0.8,0.1,1.5v2.1
			c0,1.5,0,2.4,0.1,2.8s0.2,0.8,0.4,1.1H142C141.8,26.9,141.7,26.5,141.7,26z M141.6,22.5c-0.6,0.2-1.4,0.4-2.6,0.6
			c-0.7,0.1-1.1,0.2-1.4,0.3s-0.5,0.3-0.6,0.5s-0.2,0.5-0.2,0.8c0,0.4,0.2,0.8,0.5,1.1s0.8,0.4,1.4,0.4c0.6,0,1.2-0.1,1.6-0.4
			s0.8-0.6,1-1.1c0.2-0.4,0.3-0.9,0.3-1.6V22.5z"/>
		<path id="XMLID_424_" class="st1" d="M145.6,27.2v-9.3h1.4v1.3c0.3-0.5,0.7-0.8,1.2-1.1s1-0.4,1.7-0.4c0.7,0,1.3,0.1,1.7,0.4
			s0.8,0.7,0.9,1.2c0.7-1.1,1.7-1.6,2.9-1.6c0.9,0,1.6,0.3,2.1,0.8s0.7,1.3,0.7,2.4v6.4h-1.6v-5.9c0-0.6-0.1-1.1-0.2-1.4
			s-0.3-0.5-0.6-0.7S155.4,19,155,19c-0.7,0-1.2,0.2-1.6,0.7s-0.7,1.1-0.7,2.1v5.4h-1.6v-6.1c0-0.7-0.1-1.2-0.4-1.6
			s-0.7-0.5-1.3-0.5c-0.4,0-0.9,0.1-1.2,0.4s-0.7,0.6-0.8,1s-0.3,1.1-0.3,2v4.8H145.6z"/>
		<path id="XMLID_421_" class="st1" d="M166.7,26c-0.6,0.5-1.1,0.8-1.7,1.1s-1.1,0.3-1.7,0.3c-1,0-1.8-0.3-2.4-0.8s-0.8-1.1-0.8-1.9
			c0-0.5,0.1-0.9,0.3-1.3s0.5-0.7,0.8-0.9s0.7-0.4,1.1-0.5c0.3-0.1,0.8-0.2,1.4-0.2c1.3-0.2,2.2-0.3,2.8-0.5c0-0.2,0-0.4,0-0.4
			c0-0.6-0.1-1.1-0.4-1.4c-0.4-0.4-1-0.5-1.8-0.5c-0.7,0-1.3,0.1-1.6,0.4s-0.6,0.7-0.8,1.4l-1.5-0.2c0.1-0.7,0.4-1.2,0.7-1.6
			s0.8-0.7,1.4-0.9s1.3-0.3,2.1-0.3c0.8,0,1.4,0.1,1.9,0.3s0.9,0.4,1.1,0.7s0.4,0.6,0.5,1.1c0.1,0.3,0.1,0.8,0.1,1.5v2.1
			c0,1.5,0,2.4,0.1,2.8s0.2,0.8,0.4,1.1H167C166.8,26.9,166.7,26.5,166.7,26z M166.6,22.5c-0.6,0.2-1.4,0.4-2.6,0.6
			c-0.7,0.1-1.1,0.2-1.4,0.3s-0.5,0.3-0.6,0.5s-0.2,0.5-0.2,0.8c0,0.4,0.2,0.8,0.5,1.1s0.8,0.4,1.4,0.4c0.6,0,1.2-0.1,1.6-0.4
			s0.8-0.6,1-1.1c0.2-0.4,0.3-0.9,0.3-1.6V22.5z"/>
		<path id="XMLID_418_" class="st1" d="M181.7,27.2V26c-0.6,0.9-1.5,1.4-2.6,1.4c-0.7,0-1.4-0.2-2.1-0.6c-0.6-0.4-1.1-1-1.4-1.7
			c-0.3-0.7-0.5-1.6-0.5-2.5c0-0.9,0.2-1.8,0.5-2.5s0.8-1.3,1.4-1.7s1.3-0.6,2.1-0.6c0.6,0,1.1,0.1,1.5,0.4s0.8,0.5,1.1,0.9v-4.6
			h1.6v12.9H181.7z M176.7,22.5c0,1.2,0.3,2.1,0.8,2.7s1.1,0.9,1.8,0.9c0.7,0,1.3-0.3,1.8-0.8c0.5-0.6,0.7-1.4,0.7-2.6
			c0-1.3-0.2-2.2-0.7-2.8s-1.1-0.9-1.8-0.9c-0.7,0-1.3,0.3-1.8,0.9C176.9,20.4,176.7,21.3,176.7,22.5z"/>
		<path id="XMLID_415_" class="st1" d="M192,24.2l1.6,0.2c-0.3,1-0.7,1.7-1.4,2.2s-1.6,0.8-2.7,0.8c-1.4,0-2.4-0.4-3.2-1.3
			c-0.8-0.8-1.2-2-1.2-3.5c0-1.6,0.4-2.8,1.2-3.7s1.9-1.3,3.1-1.3c1.2,0,2.3,0.4,3.1,1.3s1.2,2,1.2,3.6c0,0.1,0,0.2,0,0.4h-7
			c0.1,1,0.3,1.8,0.9,2.4s1.2,0.8,2,0.8c0.6,0,1.1-0.2,1.5-0.5S191.8,24.9,192,24.2z M186.8,21.6h5.2c-0.1-0.8-0.3-1.4-0.6-1.8
			c-0.5-0.6-1.2-0.9-2-0.9c-0.7,0-1.3,0.2-1.8,0.7C187.1,20.2,186.9,20.8,186.8,21.6z"/>
		<path id="XMLID_413_" class="st1" d="M206.7,23.8l1.6,0.2c-0.2,1.1-0.6,1.9-1.3,2.5c-0.7,0.6-1.6,0.9-2.6,0.9
			c-1.3,0-2.3-0.4-3.1-1.3c-0.8-0.8-1.2-2-1.2-3.6c0-1,0.2-1.9,0.5-2.6s0.8-1.3,1.5-1.7c0.7-0.4,1.4-0.6,2.2-0.6
			c1,0,1.8,0.3,2.5,0.8s1.1,1.2,1.2,2.2l-1.5,0.2c-0.1-0.6-0.4-1.1-0.8-1.4c-0.4-0.3-0.8-0.5-1.3-0.5c-0.8,0-1.4,0.3-1.9,0.9
			s-0.7,1.5-0.7,2.7c0,1.3,0.2,2.2,0.7,2.7s1.1,0.9,1.9,0.9c0.6,0,1.1-0.2,1.6-0.6S206.6,24.6,206.7,23.8z"/>
		<path id="XMLID_411_" class="st1" d="M209.6,27.2V14.3h1.6v12.9H209.6z"/>
		<path id="XMLID_408_" class="st1" d="M219.7,26c-0.6,0.5-1.1,0.8-1.7,1.1c-0.5,0.2-1.1,0.3-1.7,0.3c-1,0-1.8-0.3-2.4-0.8
			s-0.8-1.1-0.8-1.9c0-0.5,0.1-0.9,0.3-1.3c0.2-0.4,0.5-0.7,0.8-0.9c0.3-0.2,0.7-0.4,1.1-0.5c0.3-0.1,0.8-0.2,1.4-0.2
			c1.3-0.2,2.2-0.3,2.8-0.5c0-0.2,0-0.4,0-0.4c0-0.6-0.1-1.1-0.4-1.4c-0.4-0.4-1-0.5-1.8-0.5c-0.7,0-1.3,0.1-1.6,0.4
			c-0.4,0.3-0.6,0.7-0.8,1.4l-1.5-0.2c0.1-0.7,0.4-1.2,0.7-1.6s0.8-0.7,1.4-0.9s1.3-0.3,2.1-0.3c0.8,0,1.4,0.1,1.9,0.3
			s0.9,0.4,1.1,0.7s0.4,0.6,0.5,1.1c0.1,0.3,0.1,0.8,0.1,1.5v2.1c0,1.5,0,2.4,0.1,2.8c0.1,0.4,0.2,0.8,0.4,1.1H220
			C219.9,26.9,219.8,26.5,219.7,26z M219.6,22.5c-0.6,0.2-1.4,0.4-2.6,0.6c-0.7,0.1-1.1,0.2-1.4,0.3s-0.5,0.3-0.6,0.5
			s-0.2,0.5-0.2,0.8c0,0.4,0.2,0.8,0.5,1.1c0.3,0.3,0.8,0.4,1.4,0.4c0.6,0,1.2-0.1,1.6-0.4s0.8-0.6,1-1.1c0.2-0.4,0.3-0.9,0.3-1.6
			V22.5z"/>
		<path id="XMLID_406_" class="st1" d="M223,24.4l1.6-0.2c0.1,0.6,0.3,1.1,0.7,1.4c0.4,0.3,1,0.5,1.7,0.5c0.7,0,1.3-0.1,1.6-0.4
			s0.5-0.6,0.5-1c0-0.4-0.2-0.6-0.5-0.8c-0.2-0.1-0.8-0.3-1.6-0.5c-1.2-0.3-2-0.5-2.4-0.8c-0.4-0.2-0.8-0.5-1-0.9
			c-0.2-0.4-0.3-0.8-0.3-1.3c0-0.4,0.1-0.8,0.3-1.2c0.2-0.4,0.4-0.6,0.8-0.9c0.2-0.2,0.6-0.3,1-0.5c0.4-0.1,0.9-0.2,1.4-0.2
			c0.7,0,1.4,0.1,1.9,0.3c0.6,0.2,1,0.5,1.2,0.9s0.4,0.8,0.5,1.4l-1.5,0.2c-0.1-0.5-0.3-0.9-0.6-1.1c-0.3-0.3-0.8-0.4-1.4-0.4
			c-0.7,0-1.2,0.1-1.6,0.4s-0.5,0.5-0.5,0.8c0,0.2,0.1,0.4,0.2,0.6c0.1,0.2,0.3,0.3,0.6,0.4c0.2,0.1,0.6,0.2,1.4,0.4
			c1.1,0.3,1.9,0.5,2.3,0.7c0.4,0.2,0.8,0.5,1,0.8s0.4,0.8,0.4,1.4c0,0.5-0.2,1-0.5,1.5c-0.3,0.5-0.8,0.8-1.3,1.1s-1.2,0.4-2,0.4
			c-1.2,0-2.1-0.3-2.8-0.8C223.6,26.2,223.2,25.4,223,24.4z"/>
		<path id="XMLID_403_" class="st1" d="M239,24.2l1.6,0.2c-0.3,1-0.7,1.7-1.4,2.2s-1.6,0.8-2.7,0.8c-1.4,0-2.4-0.4-3.2-1.3
			c-0.8-0.8-1.2-2-1.2-3.5c0-1.6,0.4-2.8,1.2-3.7s1.9-1.3,3.1-1.3c1.2,0,2.3,0.4,3.1,1.3s1.2,2,1.2,3.6c0,0.1,0,0.2,0,0.4h-7
			c0.1,1,0.3,1.8,0.9,2.4s1.2,0.8,2,0.8c0.6,0,1.1-0.2,1.5-0.5S238.8,24.9,239,24.2z M233.8,21.6h5.2c-0.1-0.8-0.3-1.4-0.6-1.8
			c-0.5-0.6-1.2-0.9-2-0.9c-0.7,0-1.3,0.2-1.8,0.7C234.2,20.2,233.9,20.8,233.8,21.6z"/>
		<path id="XMLID_401_" class="st1" d="M242,24.4l1.6-0.2c0.1,0.6,0.3,1.1,0.7,1.4c0.4,0.3,1,0.5,1.7,0.5c0.7,0,1.3-0.1,1.6-0.4
			s0.5-0.6,0.5-1c0-0.4-0.2-0.6-0.5-0.8c-0.2-0.1-0.8-0.3-1.6-0.5c-1.2-0.3-2-0.5-2.4-0.8c-0.4-0.2-0.8-0.5-1-0.9
			c-0.2-0.4-0.3-0.8-0.3-1.3c0-0.4,0.1-0.8,0.3-1.2c0.2-0.4,0.5-0.6,0.8-0.9c0.2-0.2,0.6-0.3,1-0.5c0.4-0.1,0.9-0.2,1.4-0.2
			c0.7,0,1.4,0.1,1.9,0.3c0.6,0.2,1,0.5,1.2,0.9s0.4,0.8,0.5,1.4l-1.5,0.2c-0.1-0.5-0.3-0.9-0.6-1.1c-0.3-0.3-0.8-0.4-1.4-0.4
			c-0.7,0-1.2,0.1-1.6,0.4s-0.5,0.5-0.5,0.8c0,0.2,0.1,0.4,0.2,0.6c0.1,0.2,0.3,0.3,0.6,0.4c0.2,0.1,0.6,0.2,1.4,0.4
			c1.1,0.3,1.9,0.5,2.3,0.7c0.4,0.2,0.8,0.5,1,0.8s0.4,0.8,0.4,1.4c0,0.5-0.2,1-0.5,1.5c-0.3,0.5-0.8,0.8-1.3,1.1s-1.2,0.4-2,0.4
			c-1.2,0-2.1-0.3-2.8-0.8C242.6,26.2,242.2,25.4,242,24.4z"/>
	</g>
</g>
<g id="XMLID_19500_">
	<polygon id="XMLID_19502_" class="st2" points="327.6,21.3 313.8,29.2 313.8,13.3 	"/>
	<polygon id="XMLID_19501_" class="st3" points="322,24.5 313.8,29.2 313.8,19.8 	"/>
</g>
</svg>
