<?xml version="1.0" encoding="utf-8"?>
<!-- Generator: Adobe Illustrator 19.0.0, SVG Export Plug-In . SVG Version: 6.00 Build 0)  -->
<svg version="1.1" id="Capa_1" xmlns="http://www.w3.org/2000/svg" xmlns:xlink="http://www.w3.org/1999/xlink" x="0px" y="0px"
	 viewBox="0 0 248.1 33.1" style="enable-background:new 0 0 248.1 33.1;" xml:space="preserve">
<style type="text/css">
	.st0{fill:#F9D523;}
	.st1{fill:#252527;}
</style>
<g id="XMLID_14381_">
	<g id="XMLID_15616_">
		<g id="XMLID_15617_">
			<polygon id="XMLID_129_" class="st0" points="221.9,32.6 235.8,16.5 221.9,0.5 233.6,0.5 247.4,16.5 233.6,32.6 			"/>
			<path id="XMLID_126_" class="st1" d="M233.4,1l13.4,15.5l-13.4,15.5H223l12.8-14.9l0.6-0.7l-0.6-0.7L223,1H233.4 M233.8,0h-13
				l14.3,16.5l-14.3,16.5h13l14.3-16.5L233.8,0L233.8,0z"/>
		</g>
	</g>
	<g id="XMLID_15613_">
		<g id="XMLID_15614_">
			<polygon id="XMLID_124_" class="st0" points="14.5,32.6 0.7,16.5 14.5,0.5 26.1,0.5 12.3,16.5 26.1,32.6 			"/>
			<path id="XMLID_121_" class="st1" d="M25,1L12.2,15.9l-0.6,0.7l0.6,0.7L25,32.1H14.7L1.3,16.5L14.7,1H25 M27.2,0h-13L0,16.5
				l14.3,16.5h13L13,16.5L27.2,0L27.2,0z"/>
		</g>
	</g>
	<g id="XMLID_15429_">
		<polygon id="XMLID_119_" class="st0" points="31.4,32.6 17.6,16.5 31.4,0.5 216.7,0.5 230.5,16.5 216.7,32.6 		"/>
		<path id="XMLID_116_" class="st1" d="M216.5,1l13.4,15.5l-13.4,15.5l-184.8,0L18.2,16.5L31.6,1H216.5 M216.9,0H31.2L16.9,16.5
			l14.3,16.5l185.8,0l14.3-16.5L216.9,0L216.9,0z"/>
	</g>
</g>
<g id="XMLID_65_">
	<path id="XMLID_66_" class="st1" d="M42.4,22.6l-3.8-10.7h2.4l2.7,7.9l2.6-7.9h2.3l-3.8,10.7H42.4z"/>
	<path id="XMLID_68_" class="st1" d="M53.4,20.1l2.1,0.3c-0.3,0.8-0.7,1.3-1.2,1.7c-0.6,0.4-1.3,0.6-2.1,0.6c-1.4,0-2.4-0.4-3-1.3
		c-0.5-0.7-0.8-1.6-0.8-2.7c0-1.3,0.3-2.3,1-3c0.7-0.7,1.5-1.1,2.6-1.1c1.2,0,2.1,0.4,2.7,1.1c0.7,0.8,1,1.9,1,3.5h-5.2
		c0,0.6,0.2,1.1,0.5,1.4c0.3,0.3,0.7,0.5,1.2,0.5c0.3,0,0.6-0.1,0.8-0.3S53.2,20.5,53.4,20.1z M53.5,18c0-0.6-0.2-1-0.5-1.4
		s-0.6-0.5-1.1-0.5c-0.5,0-0.8,0.2-1.1,0.5s-0.4,0.8-0.4,1.3H53.5z"/>
	<path id="XMLID_71_" class="st1" d="M59.2,22.6h-2.1v-7.8H59v1.1c0.3-0.5,0.6-0.9,0.9-1c0.3-0.2,0.6-0.2,0.9-0.2
		c0.5,0,0.9,0.1,1.4,0.4l-0.6,1.8c-0.3-0.2-0.7-0.3-1-0.3c-0.3,0-0.5,0.1-0.7,0.2s-0.4,0.4-0.5,0.9c-0.1,0.4-0.2,1.3-0.2,2.6V22.6z"
		/>
	<path id="XMLID_73_" class="st1" d="M68.7,17.2l-1.9-0.3c0.2-0.8,0.6-1.3,1.1-1.7s1.3-0.5,2.3-0.5c0.9,0,1.6,0.1,2.1,0.3
		s0.8,0.5,0.9,0.8c0.2,0.3,0.3,0.9,0.3,1.8l0,2.4c0,0.7,0,1.2,0.1,1.5c0.1,0.3,0.2,0.7,0.4,1h-2c-0.1-0.1-0.1-0.3-0.2-0.6
		c0-0.1-0.1-0.2-0.1-0.2c-0.4,0.3-0.7,0.6-1.1,0.8c-0.4,0.2-0.8,0.3-1.3,0.3c-0.8,0-1.4-0.2-1.9-0.7c-0.5-0.4-0.7-1-0.7-1.6
		c0-0.4,0.1-0.8,0.3-1.2c0.2-0.3,0.5-0.6,0.9-0.8c0.4-0.2,0.9-0.3,1.6-0.5c1-0.2,1.6-0.3,2-0.5v-0.2c0-0.4-0.1-0.7-0.3-0.8
		c-0.2-0.2-0.6-0.3-1.1-0.3c-0.4,0-0.7,0.1-0.9,0.2S68.9,16.8,68.7,17.2z M71.5,18.9c-0.3,0.1-0.7,0.2-1.3,0.3s-0.9,0.2-1.1,0.4
		c-0.3,0.2-0.4,0.4-0.4,0.7c0,0.3,0.1,0.5,0.3,0.7s0.5,0.3,0.8,0.3c0.4,0,0.7-0.1,1.1-0.4c0.3-0.2,0.4-0.4,0.5-0.7
		c0.1-0.2,0.1-0.5,0.1-1V18.9z"/>
	<path id="XMLID_76_" class="st1" d="M79.1,14.8v1.6h-1.4v3.1c0,0.6,0,1,0,1.1c0,0.1,0.1,0.2,0.2,0.3c0.1,0.1,0.2,0.1,0.3,0.1
		c0.2,0,0.5-0.1,0.8-0.2l0.2,1.6c-0.5,0.2-1,0.3-1.6,0.3c-0.4,0-0.7-0.1-1-0.2c-0.3-0.1-0.5-0.3-0.7-0.5c-0.1-0.2-0.2-0.5-0.3-0.8
		c0-0.2-0.1-0.7-0.1-1.5v-3.4h-0.9v-1.6h0.9v-1.5l2.1-1.2v2.7H79.1z"/>
	<path id="XMLID_78_" class="st1" d="M82.5,22.6h-2.1v-7.8h1.9v1.1c0.3-0.5,0.6-0.9,0.9-1c0.3-0.2,0.6-0.2,0.9-0.2
		c0.5,0,0.9,0.1,1.4,0.4l-0.6,1.8c-0.3-0.2-0.7-0.3-1-0.3c-0.3,0-0.5,0.1-0.7,0.2s-0.4,0.4-0.5,0.9c-0.1,0.4-0.2,1.3-0.2,2.6V22.6z"
		/>
	<path id="XMLID_80_" class="st1" d="M86.4,13.8v-1.9h2.1v1.9H86.4z M86.4,22.6v-7.8h2.1v7.8H86.4z"/>
	<path id="XMLID_83_" class="st1" d="M90.5,22.6V11.9h2.1v3.9c0.6-0.7,1.4-1.1,2.3-1.1c0.9,0,1.7,0.3,2.4,1c0.6,0.7,0.9,1.7,0.9,3
		c0,1.3-0.3,2.4-0.9,3.1c-0.6,0.7-1.4,1.1-2.3,1.1c-0.4,0-0.9-0.1-1.3-0.3c-0.4-0.2-0.8-0.6-1.1-1v1.1H90.5z M92.5,18.5
		c0,0.8,0.1,1.4,0.4,1.8c0.4,0.5,0.8,0.8,1.4,0.8c0.5,0,0.8-0.2,1.2-0.6c0.3-0.4,0.5-1,0.5-1.8c0-0.9-0.2-1.5-0.5-1.9
		c-0.3-0.4-0.7-0.6-1.2-0.6c-0.5,0-0.9,0.2-1.2,0.6C92.7,17.2,92.5,17.8,92.5,18.5z"/>
	<path id="XMLID_86_" class="st1" d="M104.8,22.6v-1.2c-0.3,0.4-0.7,0.7-1.1,1c-0.5,0.2-0.9,0.4-1.5,0.4c-0.5,0-1-0.1-1.4-0.3
		s-0.7-0.6-0.9-1s-0.3-1-0.3-1.7v-4.9h2.1v3.6c0,1.1,0,1.8,0.1,2c0.1,0.2,0.2,0.4,0.4,0.6c0.2,0.1,0.5,0.2,0.8,0.2
		c0.4,0,0.7-0.1,0.9-0.3c0.3-0.2,0.5-0.4,0.6-0.7c0.1-0.3,0.2-1,0.2-2.1v-3.3h2.1v7.8H104.8z"/>
	<path id="XMLID_88_" class="st1" d="M112.4,14.8v1.6H111v3.1c0,0.6,0,1,0,1.1c0,0.1,0.1,0.2,0.2,0.3c0.1,0.1,0.2,0.1,0.3,0.1
		c0.2,0,0.5-0.1,0.8-0.2l0.2,1.6c-0.5,0.2-1,0.3-1.6,0.3c-0.4,0-0.7-0.1-1-0.2c-0.3-0.1-0.5-0.3-0.7-0.5c-0.1-0.2-0.2-0.5-0.3-0.8
		c0-0.2-0.1-0.7-0.1-1.5v-3.4H108v-1.6h0.9v-1.5l2.1-1.2v2.7H112.4z"/>
	<path id="XMLID_90_" class="st1" d="M113.4,18.6c0-0.7,0.2-1.3,0.5-2c0.3-0.6,0.8-1.1,1.4-1.5c0.6-0.3,1.3-0.5,2.1-0.5
		c1.2,0,2.1,0.4,2.9,1.1c0.8,0.8,1.1,1.7,1.1,2.9c0,1.2-0.4,2.2-1.1,2.9c-0.8,0.8-1.7,1.2-2.9,1.2c-0.7,0-1.4-0.2-2-0.5
		c-0.6-0.3-1.1-0.8-1.5-1.4C113.6,20.2,113.4,19.5,113.4,18.6z M115.5,18.7c0,0.8,0.2,1.4,0.5,1.8c0.4,0.4,0.8,0.6,1.4,0.6
		s1-0.2,1.4-0.6c0.4-0.4,0.5-1,0.5-1.8c0-0.8-0.2-1.3-0.5-1.8c-0.4-0.4-0.8-0.6-1.4-0.6s-1,0.2-1.4,0.6
		C115.7,17.3,115.5,17.9,115.5,18.7z"/>
	<path id="XMLID_93_" class="st1" d="M122.3,20.4l2.1-0.3c0.1,0.4,0.3,0.7,0.5,0.9c0.3,0.2,0.6,0.3,1.1,0.3c0.5,0,0.9-0.1,1.2-0.3
		c0.2-0.1,0.3-0.3,0.3-0.5c0-0.2,0-0.3-0.1-0.4c-0.1-0.1-0.3-0.2-0.7-0.3c-1.7-0.4-2.7-0.7-3.2-1c-0.6-0.4-0.9-1-0.9-1.8
		c0-0.7,0.3-1.2,0.8-1.7s1.4-0.7,2.5-0.7c1.1,0,1.9,0.2,2.4,0.5c0.5,0.3,0.9,0.9,1.1,1.5l-1.9,0.4c-0.1-0.3-0.2-0.5-0.5-0.7
		c-0.2-0.2-0.6-0.2-1-0.2c-0.5,0-0.9,0.1-1.2,0.2c-0.2,0.1-0.2,0.2-0.2,0.4c0,0.1,0.1,0.3,0.2,0.4c0.2,0.1,0.8,0.3,1.9,0.6
		c1.1,0.2,1.9,0.6,2.3,0.9c0.4,0.4,0.6,0.9,0.6,1.5c0,0.7-0.3,1.3-0.9,1.8s-1.5,0.8-2.6,0.8c-1.1,0-1.9-0.2-2.5-0.6
		C122.9,21.7,122.5,21.1,122.3,20.4z"/>
	<path id="XMLID_95_" class="st1" d="M134.6,14.8h2.2l1.9,5.5l1.8-5.5h2.1l-2.7,7.5l-0.5,1.4c-0.2,0.5-0.4,0.8-0.5,1
		c-0.2,0.2-0.4,0.4-0.6,0.6c-0.2,0.1-0.5,0.3-0.8,0.3c-0.3,0.1-0.7,0.1-1.1,0.1c-0.4,0-0.8,0-1.2-0.1l-0.2-1.6
		c0.3,0.1,0.6,0.1,0.9,0.1c0.5,0,0.8-0.1,1.1-0.4c0.2-0.3,0.4-0.6,0.5-1.1L134.6,14.8z"/>
	<path id="XMLID_97_" class="st1" d="M147.9,14.8h1.9v1.1c0.7-0.8,1.5-1.2,2.4-1.2c0.5,0,0.9,0.1,1.3,0.3c0.4,0.2,0.7,0.5,0.9,0.9
		c0.3-0.4,0.7-0.7,1.1-0.9c0.4-0.2,0.8-0.3,1.3-0.3c0.6,0,1.1,0.1,1.5,0.3c0.4,0.2,0.7,0.6,0.9,1c0.1,0.3,0.2,0.9,0.2,1.6v5h-2.1
		v-4.4c0-0.8-0.1-1.3-0.2-1.5c-0.2-0.3-0.5-0.4-0.9-0.4c-0.3,0-0.6,0.1-0.8,0.3s-0.4,0.4-0.5,0.8c-0.1,0.3-0.2,0.9-0.2,1.6v3.7h-2.1
		v-4.3c0-0.8,0-1.2-0.1-1.5c-0.1-0.2-0.2-0.4-0.3-0.5c-0.2-0.1-0.4-0.2-0.6-0.2c-0.3,0-0.6,0.1-0.9,0.3s-0.4,0.4-0.5,0.7
		c-0.1,0.3-0.2,0.9-0.2,1.6v3.8h-2.1V14.8z"/>
	<path id="XMLID_99_" class="st1" d="M165.9,20.1l2.1,0.3c-0.3,0.8-0.7,1.3-1.2,1.7c-0.6,0.4-1.3,0.6-2.1,0.6c-1.4,0-2.4-0.4-3-1.3
		c-0.5-0.7-0.8-1.6-0.8-2.7c0-1.3,0.3-2.3,1-3c0.7-0.7,1.5-1.1,2.6-1.1c1.2,0,2.1,0.4,2.7,1.1c0.7,0.8,1,1.9,1,3.5h-5.2
		c0,0.6,0.2,1.1,0.5,1.4c0.3,0.3,0.7,0.5,1.2,0.5c0.3,0,0.6-0.1,0.8-0.3S165.8,20.5,165.9,20.1z M166,18c0-0.6-0.2-1-0.5-1.4
		s-0.6-0.5-1.1-0.5c-0.5,0-0.8,0.2-1.1,0.5s-0.4,0.8-0.4,1.3H166z M163.4,13.9l1-2.2h2.3l-2,2.2H163.4z"/>
	<path id="XMLID_103_" class="st1" d="M173.3,14.8v1.6h-1.4v3.1c0,0.6,0,1,0,1.1c0,0.1,0.1,0.2,0.2,0.3c0.1,0.1,0.2,0.1,0.3,0.1
		c0.2,0,0.5-0.1,0.8-0.2l0.2,1.6c-0.5,0.2-1,0.3-1.6,0.3c-0.4,0-0.7-0.1-1-0.2c-0.3-0.1-0.5-0.3-0.7-0.5c-0.1-0.2-0.2-0.5-0.3-0.8
		c0-0.2-0.1-0.7-0.1-1.5v-3.4h-0.9v-1.6h0.9v-1.5l2.1-1.2v2.7H173.3z"/>
	<path id="XMLID_105_" class="st1" d="M174.2,18.6c0-0.7,0.2-1.3,0.5-2c0.3-0.6,0.8-1.1,1.4-1.5c0.6-0.3,1.3-0.5,2.1-0.5
		c1.2,0,2.1,0.4,2.9,1.1c0.8,0.8,1.1,1.7,1.1,2.9c0,1.2-0.4,2.2-1.1,2.9c-0.8,0.8-1.7,1.2-2.9,1.2c-0.7,0-1.4-0.2-2-0.5
		c-0.6-0.3-1.1-0.8-1.5-1.4C174.4,20.2,174.2,19.5,174.2,18.6z M176.4,18.7c0,0.8,0.2,1.4,0.5,1.8c0.4,0.4,0.8,0.6,1.4,0.6
		s1-0.2,1.4-0.6c0.4-0.4,0.5-1,0.5-1.8c0-0.8-0.2-1.3-0.5-1.8c-0.4-0.4-0.8-0.6-1.4-0.6s-1,0.2-1.4,0.6
		C176.5,17.3,176.4,17.9,176.4,18.7z"/>
	<path id="XMLID_108_" class="st1" d="M191,22.6h-1.9v-1.1c-0.3,0.4-0.7,0.8-1.1,1c-0.4,0.2-0.9,0.3-1.3,0.3c-0.9,0-1.7-0.4-2.3-1.1
		c-0.6-0.7-1-1.7-1-3c0-1.3,0.3-2.3,0.9-3c0.6-0.7,1.4-1,2.4-1c0.9,0,1.6,0.4,2.3,1.1v-3.9h2.1V22.6z M185.5,18.5
		c0,0.8,0.1,1.4,0.3,1.8c0.3,0.5,0.8,0.8,1.4,0.8c0.5,0,0.9-0.2,1.2-0.6c0.3-0.4,0.5-1,0.5-1.8c0-0.9-0.2-1.5-0.5-1.9
		c-0.3-0.4-0.7-0.6-1.2-0.6c-0.5,0-0.9,0.2-1.2,0.6C185.7,17.2,185.5,17.8,185.5,18.5z"/>
	<path id="XMLID_111_" class="st1" d="M192.6,18.6c0-0.7,0.2-1.3,0.5-2c0.3-0.6,0.8-1.1,1.4-1.5c0.6-0.3,1.3-0.5,2.1-0.5
		c1.2,0,2.1,0.4,2.9,1.1c0.8,0.8,1.1,1.7,1.1,2.9c0,1.2-0.4,2.2-1.1,2.9c-0.8,0.8-1.7,1.2-2.9,1.2c-0.7,0-1.4-0.2-2-0.5
		c-0.6-0.3-1.1-0.8-1.5-1.4C192.7,20.2,192.6,19.5,192.6,18.6z M194.7,18.7c0,0.8,0.2,1.4,0.5,1.8c0.4,0.4,0.8,0.6,1.4,0.6
		s1-0.2,1.4-0.6c0.4-0.4,0.5-1,0.5-1.8c0-0.8-0.2-1.3-0.5-1.8c-0.4-0.4-0.8-0.6-1.4-0.6s-1,0.2-1.4,0.6
		C194.9,17.3,194.7,17.9,194.7,18.7z"/>
	<path id="XMLID_114_" class="st1" d="M201.5,20.4l2.1-0.3c0.1,0.4,0.3,0.7,0.5,0.9c0.3,0.2,0.6,0.3,1.1,0.3c0.5,0,0.9-0.1,1.2-0.3
		c0.2-0.1,0.3-0.3,0.3-0.5c0-0.2,0-0.3-0.1-0.4c-0.1-0.1-0.3-0.2-0.7-0.3c-1.7-0.4-2.7-0.7-3.2-1c-0.6-0.4-0.9-1-0.9-1.8
		c0-0.7,0.3-1.2,0.8-1.7s1.4-0.7,2.5-0.7c1.1,0,1.9,0.2,2.4,0.5s0.9,0.9,1.1,1.5l-1.9,0.4c-0.1-0.3-0.2-0.5-0.5-0.7
		c-0.2-0.2-0.6-0.2-1-0.2c-0.5,0-0.9,0.1-1.2,0.2c-0.2,0.1-0.2,0.2-0.2,0.4c0,0.1,0.1,0.3,0.2,0.4c0.2,0.1,0.8,0.3,1.9,0.6
		c1.1,0.2,1.9,0.6,2.3,0.9c0.4,0.4,0.6,0.9,0.6,1.5c0,0.7-0.3,1.3-0.9,1.8s-1.5,0.8-2.6,0.8c-1.1,0-1.9-0.2-2.5-0.6
		C202.1,21.7,201.7,21.1,201.5,20.4z"/>
</g>
</svg>
