<?xml version="1.0" encoding="utf-8"?>
<!-- Generator: Adobe Illustrator 19.0.0, SVG Export Plug-In . SVG Version: 6.00 Build 0)  -->
<svg version="1.1" id="Capa_1" xmlns="http://www.w3.org/2000/svg" xmlns:xlink="http://www.w3.org/1999/xlink" x="0px" y="0px"
	 viewBox="0 0 155.5 46" style="enable-background:new 0 0 155.5 46;" xml:space="preserve">
<style type="text/css">
	.st0{fill:#F9D523;}
	.st1{fill:#FFFFFF;}
	.st2{fill:#252527;}
	.st3{fill:#FFFFFF;stroke:#252527;stroke-width:1.7139;stroke-miterlimit:10;}
	.st4{fill:#282828;}
</style>
<ellipse id="XMLID_92_" class="st0" cx="128.1" cy="17.2" rx="14.7" ry="14.7"/>
<g id="XMLID_2539_">
	<g id="XMLID_2522_">
		<path id="XMLID_26383_" class="st1" d="M141.4,26.1l11.8,12.2c1.5,1.5,1.5,3.9,0,5.4c-1.5,1.5-3.9,1.5-5.4,0l-12-12.4"/>
		<path id="XMLID_14768_" class="st2" d="M150.5,46c-1.3,0-2.6-0.5-3.6-1.5l-12-12.4c-0.5-0.5-0.5-1.2,0-1.7c0.5-0.5,1.2-0.5,1.7,0
			l12,12.4c1,1,2.7,1,3.7,0c1-1,1-2.7,0-3.7l-11.8-12.2c-0.5-0.5-0.5-1.2,0-1.7c0.5-0.5,1.2-0.5,1.7,0l11.8,12.2c2,2,2,5.2,0,7.1
			C153.1,45.5,151.8,46,150.5,46L150.5,46z M150.5,46"/>
		<path id="XMLID_14760_" class="st3" d="M127.7,9.2c1.4,0,2.5,1.1,2.5,2.5v3.1h3.1c1.4,0,2.5,1.1,2.5,2.5c0,1.4-1.1,2.5-2.5,2.5
			h-3.1v3.1c0,1.4-1.1,2.5-2.5,2.5c-1.4,0-2.5-1.1-2.5-2.5v-3.1h-3.1c-1.4,0-2.5-1.1-2.5-2.5c0-1.4,1.1-2.5,2.5-2.5h3.1v-3.1
			C125.3,10.3,126.4,9.2,127.7,9.2L127.7,9.2z M127.7,9.2"/>
		<path id="XMLID_2523_" class="st2" d="M127.7,34.5c-9.5,0-17.3-7.7-17.3-17.3c0-9.5,7.7-17.3,17.3-17.3S145,7.7,145,17.3
			C145,26.8,137.3,34.5,127.7,34.5L127.7,34.5z M127.7,3.8c-7.4,0-13.5,6.1-13.5,13.5c0,7.4,6.1,13.5,13.5,13.5
			c7.4,0,13.5-6.1,13.5-13.5C141.2,9.8,135.2,3.8,127.7,3.8L127.7,3.8z M127.7,2.4"/>
	</g>
	<g id="XMLID_1_">
		<path id="XMLID_2_" class="st4" d="M7.3,20.8l1.3,0.3c-0.3,1.1-0.8,1.9-1.5,2.4c-0.7,0.6-1.6,0.8-2.6,0.8c-1.1,0-1.9-0.2-2.6-0.6
			c-0.7-0.4-1.2-1-1.5-1.9C0.2,21.1,0,20.2,0,19.3c0-1,0.2-1.9,0.6-2.7c0.4-0.8,0.9-1.3,1.7-1.7c0.7-0.4,1.5-0.6,2.4-0.6
			c1,0,1.8,0.2,2.5,0.7c0.7,0.5,1.1,1.2,1.4,2.1l-1.3,0.3c-0.2-0.7-0.6-1.2-1-1.5c-0.4-0.3-1-0.5-1.6-0.5c-0.7,0-1.4,0.2-1.9,0.5
			c-0.5,0.4-0.9,0.8-1.1,1.4s-0.3,1.2-0.3,1.9c0,0.8,0.1,1.6,0.4,2.2s0.6,1.1,1.1,1.4c0.5,0.3,1.1,0.5,1.7,0.5
			c0.7,0,1.3-0.2,1.8-0.6C6.8,22.2,7.1,21.6,7.3,20.8z"/>
		<path id="XMLID_4_" class="st4" d="M10,24.2v-9.7h1.2v9.7H10z"/>
		<path id="XMLID_6_" class="st4" d="M13.1,15.9v-1.4h1.2v1.4H13.1z M13.1,24.2v-7.1h1.2v7.1H13.1z"/>
		<path id="XMLID_9_" class="st4" d="M20.7,21.6l1.2,0.2c-0.1,0.8-0.5,1.4-1,1.9c-0.5,0.5-1.2,0.7-2,0.7c-1,0-1.7-0.3-2.3-0.9
			c-0.6-0.6-0.9-1.5-0.9-2.7c0-0.8,0.1-1.4,0.4-2c0.3-0.6,0.6-1,1.2-1.3c0.5-0.3,1.1-0.4,1.7-0.4c0.8,0,1.4,0.2,1.9,0.6
			s0.8,0.9,0.9,1.7l-1.2,0.2c-0.1-0.5-0.3-0.8-0.6-1.1S19.4,18,19,18c-0.6,0-1.1,0.2-1.5,0.6c-0.4,0.4-0.6,1.1-0.6,2
			c0,0.9,0.2,1.6,0.5,2.1s0.8,0.6,1.4,0.6c0.5,0,0.9-0.1,1.2-0.4S20.6,22.2,20.7,21.6z"/>
		<path id="XMLID_11_" class="st4" d="M26.7,26.9v-9.8h1.1v0.9c0.3-0.4,0.5-0.6,0.9-0.8c0.3-0.2,0.7-0.3,1.2-0.3
			c0.6,0,1.1,0.2,1.6,0.5c0.5,0.3,0.8,0.7,1,1.3c0.2,0.6,0.4,1.2,0.4,1.9c0,0.7-0.1,1.4-0.4,2c-0.3,0.6-0.6,1-1.1,1.3
			c-0.5,0.3-1,0.5-1.6,0.5c-0.4,0-0.8-0.1-1.1-0.3c-0.3-0.2-0.6-0.4-0.8-0.6v3.4H26.7z M27.8,20.7c0,0.9,0.2,1.6,0.6,2
			c0.4,0.4,0.8,0.7,1.3,0.7c0.5,0,1-0.2,1.4-0.7c0.4-0.5,0.6-1.1,0.6-2.1c0-0.9-0.2-1.6-0.6-2c-0.4-0.4-0.8-0.7-1.3-0.7
			c-0.5,0-1,0.2-1.4,0.7C28,19.1,27.8,19.8,27.8,20.7z"/>
		<path id="XMLID_14_" class="st4" d="M38.9,23.4c-0.4,0.4-0.9,0.6-1.3,0.8c-0.4,0.2-0.8,0.2-1.3,0.2c-0.8,0-1.4-0.2-1.8-0.6
			c-0.4-0.4-0.6-0.9-0.6-1.5c0-0.3,0.1-0.7,0.2-0.9s0.4-0.5,0.6-0.7s0.5-0.3,0.9-0.4c0.2-0.1,0.6-0.1,1.1-0.2c1-0.1,1.7-0.3,2.1-0.4
			c0-0.2,0-0.3,0-0.3c0-0.5-0.1-0.8-0.3-1c-0.3-0.3-0.8-0.4-1.4-0.4c-0.6,0-1,0.1-1.2,0.3c-0.3,0.2-0.5,0.5-0.6,1l-1.2-0.2
			c0.1-0.5,0.3-0.9,0.5-1.2c0.2-0.3,0.6-0.5,1.1-0.7s1-0.2,1.6-0.2c0.6,0,1.1,0.1,1.5,0.2c0.4,0.1,0.7,0.3,0.8,0.5
			c0.2,0.2,0.3,0.5,0.4,0.8c0,0.2,0.1,0.6,0.1,1.1v1.6c0,1.1,0,1.8,0.1,2.1c0.1,0.3,0.2,0.6,0.3,0.8h-1.3C39,24,38.9,23.7,38.9,23.4
			z M38.8,20.7c-0.4,0.2-1.1,0.3-2,0.5c-0.5,0.1-0.8,0.2-1,0.2c-0.2,0.1-0.4,0.2-0.5,0.4c-0.1,0.2-0.2,0.4-0.2,0.6
			c0,0.3,0.1,0.6,0.4,0.8s0.6,0.3,1.1,0.3c0.5,0,0.9-0.1,1.2-0.3c0.4-0.2,0.6-0.5,0.8-0.8c0.1-0.3,0.2-0.7,0.2-1.2V20.7z"/>
		<path id="XMLID_18_" class="st4" d="M41.8,24.2v-7.1h1.1v1.1c0.3-0.5,0.5-0.8,0.8-1c0.2-0.2,0.5-0.2,0.8-0.2
			c0.4,0,0.8,0.1,1.2,0.4l-0.4,1.1c-0.3-0.2-0.6-0.3-0.9-0.3c-0.3,0-0.5,0.1-0.7,0.2s-0.4,0.4-0.4,0.7C43.1,19.6,43,20,43,20.5v3.7
			H41.8z"/>
		<path id="XMLID_20_" class="st4" d="M51,23.4c-0.4,0.4-0.9,0.6-1.3,0.8c-0.4,0.2-0.8,0.2-1.3,0.2c-0.8,0-1.4-0.2-1.8-0.6
			c-0.4-0.4-0.6-0.9-0.6-1.5c0-0.3,0.1-0.7,0.2-0.9s0.4-0.5,0.6-0.7s0.5-0.3,0.9-0.4c0.2-0.1,0.6-0.1,1.1-0.2c1-0.1,1.7-0.3,2.1-0.4
			c0-0.2,0-0.3,0-0.3c0-0.5-0.1-0.8-0.3-1c-0.3-0.3-0.8-0.4-1.4-0.4c-0.6,0-1,0.1-1.2,0.3c-0.3,0.2-0.5,0.5-0.6,1l-1.2-0.2
			c0.1-0.5,0.3-0.9,0.5-1.2c0.2-0.3,0.6-0.5,1.1-0.7s1-0.2,1.6-0.2c0.6,0,1.1,0.1,1.5,0.2c0.4,0.1,0.7,0.3,0.8,0.5
			c0.2,0.2,0.3,0.5,0.4,0.8c0,0.2,0.1,0.6,0.1,1.1v1.6c0,1.1,0,1.8,0.1,2.1c0.1,0.3,0.2,0.6,0.3,0.8h-1.3C51.1,24,51,23.7,51,23.4z
			 M50.9,20.7c-0.4,0.2-1.1,0.3-2,0.5c-0.5,0.1-0.8,0.2-1,0.2c-0.2,0.1-0.4,0.2-0.5,0.4c-0.1,0.2-0.2,0.4-0.2,0.6
			c0,0.3,0.1,0.6,0.4,0.8s0.6,0.3,1.1,0.3c0.5,0,0.9-0.1,1.2-0.3c0.4-0.2,0.6-0.5,0.8-0.8c0.1-0.3,0.2-0.7,0.2-1.2V20.7z"/>
		<path id="XMLID_23_" class="st4" d="M62.3,23.4c-0.4,0.4-0.9,0.6-1.3,0.8c-0.4,0.2-0.8,0.2-1.3,0.2c-0.8,0-1.4-0.2-1.8-0.6
			c-0.4-0.4-0.6-0.9-0.6-1.5c0-0.3,0.1-0.7,0.2-0.9s0.4-0.5,0.6-0.7s0.5-0.3,0.9-0.4c0.2-0.1,0.6-0.1,1.1-0.2c1-0.1,1.7-0.3,2.1-0.4
			c0-0.2,0-0.3,0-0.3c0-0.5-0.1-0.8-0.3-1c-0.3-0.3-0.8-0.4-1.4-0.4c-0.6,0-1,0.1-1.2,0.3c-0.3,0.2-0.5,0.5-0.6,1l-1.2-0.2
			c0.1-0.5,0.3-0.9,0.5-1.2c0.2-0.3,0.6-0.5,1.1-0.7s1-0.2,1.6-0.2c0.6,0,1.1,0.1,1.5,0.2c0.4,0.1,0.7,0.3,0.8,0.5
			c0.2,0.2,0.3,0.5,0.4,0.8c0,0.2,0.1,0.6,0.1,1.1v1.6c0,1.1,0,1.8,0.1,2.1c0.1,0.3,0.2,0.6,0.3,0.8h-1.3
			C62.4,24,62.3,23.7,62.3,23.4z M62.2,20.7c-0.4,0.2-1.1,0.3-2,0.5c-0.5,0.1-0.8,0.2-1,0.2c-0.2,0.1-0.4,0.2-0.5,0.4
			c-0.1,0.2-0.2,0.4-0.2,0.6c0,0.3,0.1,0.6,0.4,0.8s0.6,0.3,1.1,0.3c0.5,0,0.9-0.1,1.2-0.3c0.4-0.2,0.6-0.5,0.8-0.8
			c0.1-0.3,0.2-0.7,0.2-1.2V20.7z"/>
		<path id="XMLID_26_" class="st4" d="M65.3,24.2v-7.1h1.1v1c0.2-0.3,0.5-0.6,0.9-0.8c0.4-0.2,0.8-0.3,1.3-0.3c0.5,0,1,0.1,1.3,0.3
			c0.3,0.2,0.6,0.5,0.7,0.9c0.6-0.8,1.3-1.2,2.2-1.2c0.7,0,1.2,0.2,1.6,0.6c0.4,0.4,0.6,1,0.6,1.8v4.8h-1.2v-4.4c0-0.5,0-0.8-0.1-1
			c-0.1-0.2-0.2-0.4-0.4-0.5c-0.2-0.1-0.4-0.2-0.7-0.2c-0.5,0-0.9,0.2-1.2,0.5c-0.3,0.3-0.5,0.9-0.5,1.6v4.1h-1.2v-4.6
			c0-0.5-0.1-0.9-0.3-1.2s-0.5-0.4-1-0.4c-0.3,0-0.6,0.1-0.9,0.3c-0.3,0.2-0.5,0.4-0.6,0.8c-0.1,0.3-0.2,0.8-0.2,1.5v3.7H65.3z"/>
		<path id="XMLID_28_" class="st4" d="M76.6,26.9v-9.8h1.1v0.9c0.3-0.4,0.5-0.6,0.9-0.8c0.3-0.2,0.7-0.3,1.2-0.3
			c0.6,0,1.1,0.2,1.6,0.5c0.5,0.3,0.8,0.7,1,1.3c0.2,0.6,0.4,1.2,0.4,1.9c0,0.7-0.1,1.4-0.4,2c-0.3,0.6-0.6,1-1.1,1.3
			c-0.5,0.3-1,0.5-1.6,0.5c-0.4,0-0.8-0.1-1.1-0.3c-0.3-0.2-0.6-0.4-0.8-0.6v3.4H76.6z M77.7,20.7c0,0.9,0.2,1.6,0.6,2
			c0.4,0.4,0.8,0.7,1.3,0.7c0.5,0,1-0.2,1.4-0.7c0.4-0.5,0.6-1.1,0.6-2.1c0-0.9-0.2-1.6-0.6-2c-0.4-0.4-0.8-0.7-1.3-0.7
			c-0.5,0-1,0.2-1.4,0.7C77.9,19.1,77.7,19.8,77.7,20.7z"/>
		<path id="XMLID_31_" class="st4" d="M84.2,24.2v-9.7h1.2v9.7H84.2z"/>
		<path id="XMLID_33_" class="st4" d="M87.2,15.9v-1.4h1.2v1.4H87.2z M87.2,24.2v-7.1h1.2v7.1H87.2z"/>
		<path id="XMLID_36_" class="st4" d="M94.8,23.4c-0.4,0.4-0.9,0.6-1.3,0.8c-0.4,0.2-0.8,0.2-1.3,0.2c-0.8,0-1.4-0.2-1.8-0.6
			c-0.4-0.4-0.6-0.9-0.6-1.5c0-0.3,0.1-0.7,0.2-0.9s0.4-0.5,0.6-0.7s0.5-0.3,0.9-0.4c0.2-0.1,0.6-0.1,1.1-0.2c1-0.1,1.7-0.3,2.1-0.4
			c0-0.2,0-0.3,0-0.3c0-0.5-0.1-0.8-0.3-1C94.1,18.1,93.6,18,93,18c-0.6,0-1,0.1-1.2,0.3c-0.3,0.2-0.5,0.5-0.6,1L90,19.2
			c0.1-0.5,0.3-0.9,0.5-1.2c0.2-0.3,0.6-0.5,1.1-0.7s1-0.2,1.6-0.2c0.6,0,1.1,0.1,1.5,0.2c0.4,0.1,0.7,0.3,0.8,0.5
			c0.2,0.2,0.3,0.5,0.4,0.8c0,0.2,0.1,0.6,0.1,1.1v1.6c0,1.1,0,1.8,0.1,2.1c0.1,0.3,0.2,0.6,0.3,0.8h-1.3
			C94.9,24,94.9,23.7,94.8,23.4z M94.7,20.7c-0.4,0.2-1.1,0.3-2,0.5c-0.5,0.1-0.8,0.2-1,0.2c-0.2,0.1-0.4,0.2-0.5,0.4
			c-0.1,0.2-0.2,0.4-0.2,0.6c0,0.3,0.1,0.6,0.4,0.8s0.6,0.3,1.1,0.3c0.5,0,0.9-0.1,1.2-0.3c0.4-0.2,0.6-0.5,0.8-0.8
			c0.1-0.3,0.2-0.7,0.2-1.2V20.7z"/>
		<path id="XMLID_39_" class="st4" d="M97.8,24.2v-7.1h1.1v1.1c0.3-0.5,0.5-0.8,0.8-1c0.2-0.2,0.5-0.2,0.8-0.2
			c0.4,0,0.8,0.1,1.2,0.4l-0.4,1.1c-0.3-0.2-0.6-0.3-0.9-0.3c-0.3,0-0.5,0.1-0.7,0.2s-0.4,0.4-0.4,0.7C99,19.6,99,20,99,20.5v3.7
			H97.8z"/>
	</g>
</g>
</svg>
