<?xml version="1.0" encoding="utf-8"?>
<!-- Generator: Adobe Illustrator 19.0.0, SVG Export Plug-In . SVG Version: 6.00 Build 0)  -->
<svg version="1.1" id="Capa_1" xmlns="http://www.w3.org/2000/svg" xmlns:xlink="http://www.w3.org/1999/xlink" x="0px" y="0px"
	 viewBox="-284 407.9 26 26" style="enable-background:new -284 407.9 26 26;" xml:space="preserve">
<style type="text/css">
	.st0{fill:none;stroke:#F9D523;stroke-width:1.4854;stroke-miterlimit:10;}
	.st1{fill:#F9D523;}
</style>
<g id="XMLID_26388_">
	<path id="XMLID_26393_" class="st0" d="M-266.7,416.6c0.7,0.7,0.7,1.9,0,2.6l-1.6,1.7l1.6,1.6c0.7,0.7,0.7,1.9,0,2.6
		c-0.7,0.7-1.9,0.7-2.6,0l-1.7-1.6l-1.6,1.6c-0.7,0.7-1.9,0.7-2.6,0c-0.7-0.7-0.7-1.9,0-2.6l1.6-1.6l-1.6-1.6c-0.8-0.8-0.8-2,0-2.7
		c0.7-0.7,1.9-0.7,2.6,0l1.6,1.6l1.6-1.6C-268.6,415.9-267.4,415.9-266.7,416.6L-266.7,416.6z"/>
	<path id="XMLID_26389_" class="st1" d="M-280.2,430.1c-5.1-5.1-5.1-13.3,0-18.4c5.1-5.1,13.3-5.1,18.4,0c5.1,5.1,5.1,13.3,0,18.4
		C-266.9,435.2-275.1,435.2-280.2,430.1L-280.2,430.1z M-263.8,413.7c-4-4-10.4-4-14.4,0s-4,10.4,0,14.4s10.4,4,14.4,0
		C-259.9,424.1-259.9,417.7-263.8,413.7L-263.8,413.7z"/>
</g>
</svg>
