<?xml version="1.0" encoding="utf-8"?>
<!-- Generator: Adobe Illustrator 19.0.0, SVG Export Plug-In . SVG Version: 6.00 Build 0)  -->
<svg version="1.1" id="Capa_1" xmlns="http://www.w3.org/2000/svg" xmlns:xlink="http://www.w3.org/1999/xlink" x="0px" y="0px"
	 viewBox="0 0 26 26" style="enable-background:new 0 0 26 26;" xml:space="preserve">
<style type="text/css">
	.st0{fill:#F9D523;}
	.st1{fill:#FFFFFF;stroke:#252527;stroke-width:1.4854;stroke-miterlimit:10;}
	.st2{fill:#252527;}
</style>
<circle id="XMLID_59_" class="st0" cx="13" cy="13" r="12.3"/>
<g id="XMLID_17653_">
	<path id="XMLID_17658_" class="st1" d="M17.3,8.7c0.7,0.7,0.7,1.9,0,2.6L15.7,13l1.6,1.6c0.7,0.7,0.7,1.9,0,2.6
		c-0.7,0.7-1.9,0.7-2.6,0L13,15.6l-1.6,1.6c-0.7,0.7-1.9,0.7-2.6,0c-0.7-0.7-0.7-1.9,0-2.6l1.6-1.6l-1.6-1.6C8,10.6,8,9.4,8.8,8.7
		c0.7-0.7,1.9-0.7,2.6,0l1.6,1.6l1.6-1.6C15.4,8,16.6,8,17.3,8.7L17.3,8.7z M17.3,8.7"/>
	<path id="XMLID_17654_" class="st2" d="M3.8,22.2c-5.1-5.1-5.1-13.3,0-18.4c5.1-5.1,13.3-5.1,18.4,0c5.1,5.1,5.1,13.3,0,18.4
		C17.1,27.3,8.9,27.3,3.8,22.2L3.8,22.2z M20.2,5.8c-4-4-10.4-4-14.4,0c-4,4-4,10.4,0,14.4c4,4,10.4,4,14.4,0
		C24.1,16.2,24.1,9.8,20.2,5.8L20.2,5.8z M20.9,5.1"/>
</g>
</svg>
