<?xml version="1.0" encoding="utf-8"?>
<!-- Generator: Adobe Illustrator 16.0.0, SVG Export Plug-In . SVG Version: 6.00 Build 0)  -->
<!DOCTYPE svg PUBLIC "-//W3C//DTD SVG 1.1//EN" "http://www.w3.org/Graphics/SVG/1.1/DTD/svg11.dtd">
<svg version="1.1" id="Capa_1" xmlns="http://www.w3.org/2000/svg" xmlns:xlink="http://www.w3.org/1999/xlink" x="0px" y="0px"
	 width="181.069px" height="33.052px" viewBox="0 0 181.069 33.052" enable-background="new 0 0 181.069 33.052"
	 xml:space="preserve">
<g>
	<polygon fill="#F9D523" points="154.933,32.552 168.754,16.525 154.933,0.5 166.585,0.5 180.409,16.525 166.585,32.552 	"/>
	<path fill="#252527" d="M166.356,1l13.393,15.525l-13.393,15.526h-10.333l12.827-14.873l0.563-0.653l-0.563-0.653L156.023,1
		H166.356 M166.814,0h-12.974l14.253,16.525l-14.253,16.526h12.974l14.255-16.526L166.814,0L166.814,0z"/>
</g>
<g>
	<polygon fill="#F9D523" points="14.482,32.551 0.66,16.525 14.482,0.5 26.135,0.5 12.313,16.525 26.135,32.551 	"/>
	<path fill="#252527" d="M25.043,1L12.216,15.872l-0.563,0.653l0.563,0.653l12.827,14.872H14.711L1.32,16.525L14.711,1H25.043
		 M27.227,0H14.253L0,16.525l14.253,16.525h12.974L12.974,16.525L27.227,0L27.227,0z"/>
</g>
<g>
	<polygon fill="#F9D523" points="31.382,32.551 17.56,16.525 31.382,0.5 149.686,0.5 163.507,16.525 149.686,32.552 	"/>
	<path fill="#252527" d="M149.457,1l13.39,15.525l-13.39,15.526L31.611,32.051L18.22,16.525L31.611,1H149.457 M149.915,0H31.153
		L16.899,16.525l14.254,16.525l118.762,0.001l14.252-16.526L149.915,0L149.915,0z"/>
</g>
<g>
	<path fill="#252527" d="M50.756,22.592l-4.094-11.453h2.508l2.898,8.477l2.805-8.477h2.453l-4.102,11.453H50.756z"/>
	<path fill="#252527" d="M62.415,19.951l2.188,0.367c-0.281,0.802-0.726,1.413-1.332,1.832s-1.366,0.629-2.277,0.629
		c-1.442,0-2.511-0.472-3.203-1.414c-0.547-0.755-0.82-1.708-0.82-2.859c0-1.375,0.359-2.452,1.078-3.23s1.628-1.168,2.727-1.168
		c1.234,0,2.208,0.407,2.922,1.223s1.055,2.063,1.023,3.746h-5.5c0.016,0.651,0.192,1.157,0.531,1.52s0.761,0.543,1.266,0.543
		c0.344,0,0.633-0.094,0.867-0.281S62.295,20.368,62.415,19.951z M62.54,17.732c-0.016-0.636-0.18-1.118-0.492-1.449
		s-0.692-0.496-1.141-0.496c-0.479,0-0.875,0.175-1.188,0.523s-0.466,0.823-0.461,1.422H62.54z"/>
	<path fill="#252527" d="M68.61,22.592h-2.195v-8.297h2.039v1.18c0.349-0.558,0.663-0.925,0.941-1.102s0.595-0.266,0.949-0.266
		c0.5,0,0.981,0.138,1.445,0.414l-0.68,1.914c-0.37-0.239-0.714-0.359-1.031-0.359c-0.308,0-0.567,0.085-0.781,0.254
		s-0.382,0.476-0.504,0.918s-0.184,1.37-0.184,2.781V22.592z"/>
	<path fill="#252527" d="M81.985,19.951l2.188,0.367c-0.281,0.802-0.726,1.413-1.332,1.832s-1.366,0.629-2.277,0.629
		c-1.442,0-2.511-0.472-3.203-1.414c-0.547-0.755-0.82-1.708-0.82-2.859c0-1.375,0.359-2.452,1.078-3.23s1.628-1.168,2.727-1.168
		c1.234,0,2.208,0.407,2.922,1.223s1.055,2.063,1.023,3.746h-5.5c0.016,0.651,0.192,1.157,0.531,1.52s0.761,0.543,1.266,0.543
		c0.344,0,0.633-0.094,0.867-0.281S81.865,20.368,81.985,19.951z M82.11,17.732c-0.016-0.636-0.18-1.118-0.492-1.449
		s-0.692-0.496-1.141-0.496c-0.479,0-0.875,0.175-1.188,0.523s-0.466,0.823-0.461,1.422H82.11z"/>
	<path fill="#252527" d="M88.228,14.295v8.039c0,1.058-0.069,1.804-0.207,2.238s-0.403,0.774-0.797,1.02s-0.895,0.367-1.504,0.367
		c-0.219,0-0.454-0.02-0.707-0.059s-0.524-0.098-0.816-0.176l0.383-1.875c0.104,0.021,0.202,0.038,0.293,0.051
		s0.176,0.02,0.254,0.02c0.224,0,0.407-0.048,0.551-0.145s0.238-0.212,0.285-0.348s0.07-0.542,0.07-1.219v-7.914H88.228z
		 M86.032,13.17v-2.031h2.195v2.031H86.032z"/>
	<path fill="#252527" d="M95.329,19.951l2.188,0.367c-0.281,0.802-0.726,1.413-1.332,1.832s-1.366,0.629-2.277,0.629
		c-1.442,0-2.511-0.472-3.203-1.414c-0.547-0.755-0.82-1.708-0.82-2.859c0-1.375,0.359-2.452,1.078-3.23s1.628-1.168,2.727-1.168
		c1.234,0,2.208,0.407,2.922,1.223s1.055,2.063,1.023,3.746h-5.5c0.016,0.651,0.192,1.157,0.531,1.52s0.761,0.543,1.266,0.543
		c0.344,0,0.633-0.094,0.867-0.281S95.209,20.368,95.329,19.951z M95.454,17.732c-0.016-0.636-0.18-1.118-0.492-1.449
		s-0.692-0.496-1.141-0.496c-0.479,0-0.875,0.175-1.188,0.523s-0.466,0.823-0.461,1.422H95.454z"/>
	<path fill="#252527" d="M99.259,14.295h2.023v1.133c0.724-0.88,1.586-1.32,2.586-1.32c0.531,0,0.992,0.109,1.383,0.328
		s0.711,0.55,0.961,0.992c0.364-0.442,0.758-0.773,1.18-0.992s0.872-0.328,1.352-0.328c0.609,0,1.125,0.124,1.547,0.371
		s0.737,0.61,0.945,1.09c0.151,0.354,0.227,0.927,0.227,1.719v5.305h-2.195V17.85c0-0.823-0.075-1.354-0.227-1.594
		c-0.203-0.312-0.516-0.469-0.938-0.469c-0.308,0-0.597,0.094-0.867,0.281s-0.466,0.462-0.586,0.824s-0.18,0.934-0.18,1.715v3.984
		h-2.195v-4.547c0-0.808-0.039-1.328-0.117-1.562s-0.199-0.409-0.363-0.523s-0.387-0.172-0.668-0.172
		c-0.339,0-0.644,0.091-0.914,0.273s-0.465,0.445-0.582,0.789s-0.176,0.914-0.176,1.711v4.031h-2.195V14.295z"/>
	<path fill="#252527" d="M113.587,14.295h2.047v1.219c0.266-0.417,0.625-0.755,1.078-1.016s0.956-0.391,1.508-0.391
		c0.964,0,1.781,0.378,2.453,1.133s1.008,1.808,1.008,3.156c0,1.386-0.339,2.462-1.016,3.23s-1.497,1.152-2.461,1.152
		c-0.458,0-0.874-0.091-1.246-0.273s-0.765-0.495-1.176-0.938v4.18h-2.195V14.295z M115.759,18.303c0,0.933,0.185,1.621,0.555,2.066
		s0.82,0.668,1.352,0.668c0.511,0,0.935-0.204,1.273-0.613s0.508-1.079,0.508-2.012c0-0.87-0.175-1.516-0.523-1.938
		s-0.781-0.633-1.297-0.633c-0.536,0-0.981,0.207-1.336,0.621S115.759,17.49,115.759,18.303z"/>
	<path fill="#252527" d="M123.423,22.592V11.139h2.195v11.453H123.423z"/>
	<path fill="#252527" d="M127.36,18.326c0-0.729,0.18-1.435,0.539-2.117s0.868-1.203,1.527-1.562s1.395-0.539,2.207-0.539
		c1.255,0,2.284,0.407,3.086,1.223s1.203,1.845,1.203,3.09c0,1.255-0.405,2.296-1.215,3.121s-1.829,1.238-3.059,1.238
		c-0.761,0-1.485-0.172-2.176-0.516s-1.215-0.848-1.574-1.512S127.36,19.279,127.36,18.326z M129.61,18.443
		c0,0.823,0.195,1.453,0.586,1.891s0.872,0.656,1.445,0.656s1.054-0.219,1.441-0.656s0.582-1.073,0.582-1.906
		c0-0.812-0.194-1.438-0.582-1.875s-0.868-0.656-1.441-0.656s-1.055,0.219-1.445,0.656S129.61,17.62,129.61,18.443z"/>
</g>
</svg>
