<?xml version="1.0" encoding="utf-8"?>
<!-- Generator: Adobe Illustrator 19.0.0, SVG Export Plug-In . SVG Version: 6.00 Build 0)  -->
<svg version="1.1" id="Capa_1" xmlns="http://www.w3.org/2000/svg" xmlns:xlink="http://www.w3.org/1999/xlink" x="0px" y="0px"
	 viewBox="0 0 205.6 47.3" style="enable-background:new 0 0 205.6 47.3;" xml:space="preserve">
<style type="text/css">
	.st0{fill:#51564D;}
	.st1{fill:#FFFFFF;}
</style>
<g id="XMLID_98_">
	<g id="XMLID_100_">
		<g id="XMLID_1033_">
			<g id="XMLID_1034_">
				<polygon id="XMLID_17_" class="st0" points="185.2,0 205.6,23.6 185.2,47.3 166.7,47.3 187.1,23.6 166.7,0 185.2,0 				"/>
			</g>
		</g>
		<g id="XMLID_1021_">
			<g id="XMLID_1022_">
				<polygon id="XMLID_14_" class="st0" points="20.4,47.3 0,23.6 20.4,0 38.9,0 18.6,23.6 38.9,47.3 20.4,47.3 				"/>
			</g>
		</g>
		<g id="XMLID_1020_">
			<polygon id="XMLID_20_" class="st0" points="44.6,0 161.1,0 181.5,23.6 161.1,47.3 44.6,47.3 24.2,23.6 			"/>
		</g>
	</g>
	<g id="XMLID_1_">
		<path id="XMLID_2_" class="st1" d="M48.7,30.7V20.3h2.1v10.4H48.7z"/>
		<path id="XMLID_4_" class="st1" d="M52.6,30.7V20.3h2l4.2,6.9v-6.9h1.9v10.4h-2.1l-4.2-6.8v6.8H52.6z"/>
		<path id="XMLID_6_" class="st1" d="M65.2,30.7V22h-3.1v-1.8h8.2V22h-3.1v8.6H65.2z"/>
		<path id="XMLID_10_" class="st1" d="M71.5,30.7V20.3h4.4c1.1,0,1.9,0.1,2.4,0.3c0.5,0.2,0.9,0.5,1.2,1c0.3,0.5,0.5,1,0.5,1.6
			c0,0.8-0.2,1.4-0.7,1.9c-0.5,0.5-1.1,0.8-2.1,1c0.5,0.3,0.8,0.6,1.1,0.9s0.7,0.9,1.2,1.7l1.3,2h-2.5l-1.5-2.3
			c-0.5-0.8-0.9-1.3-1.1-1.5s-0.4-0.4-0.6-0.4c-0.2-0.1-0.6-0.1-1.1-0.1h-0.4v4.3H71.5z M73.6,24.7h1.6c1,0,1.6,0,1.9-0.1
			s0.4-0.2,0.6-0.4c0.1-0.2,0.2-0.5,0.2-0.8c0-0.3-0.1-0.6-0.3-0.8s-0.4-0.4-0.8-0.4c-0.2,0-0.7,0-1.5,0h-1.6V24.7z"/>
		<path id="XMLID_13_" class="st1" d="M81.3,25.5c0-1.1,0.2-1.9,0.5-2.7c0.2-0.5,0.6-1,1-1.4c0.4-0.4,0.9-0.7,1.3-0.9
			c0.6-0.3,1.4-0.4,2.2-0.4c1.5,0,2.8,0.5,3.7,1.4c0.9,0.9,1.4,2.3,1.4,4c0,1.7-0.5,3-1.4,3.9c-0.9,0.9-2.1,1.4-3.7,1.4
			c-1.5,0-2.8-0.5-3.7-1.4S81.3,27.2,81.3,25.5z M83.5,25.5c0,1.2,0.3,2.1,0.8,2.7c0.5,0.6,1.2,0.9,2.1,0.9s1.5-0.3,2.1-0.9
			c0.5-0.6,0.8-1.5,0.8-2.7c0-1.2-0.3-2.1-0.8-2.7c-0.5-0.6-1.2-0.9-2.1-0.9s-1.6,0.3-2.1,0.9C83.7,23.4,83.5,24.3,83.5,25.5z"/>
		<path id="XMLID_19_" class="st1" d="M92.8,20.3h3.8c0.9,0,1.5,0.1,2,0.2c0.6,0.2,1.1,0.5,1.6,1s0.8,1,1,1.7s0.3,1.5,0.3,2.5
			c0,0.9-0.1,1.6-0.3,2.2c-0.3,0.8-0.6,1.4-1.1,1.8c-0.4,0.4-0.9,0.6-1.5,0.8c-0.5,0.1-1.1,0.2-1.9,0.2h-3.9V20.3z M94.9,22v6.9h1.6
			c0.6,0,1,0,1.3-0.1c0.3-0.1,0.6-0.2,0.8-0.4s0.4-0.5,0.5-1s0.2-1.1,0.2-1.9s-0.1-1.4-0.2-1.8s-0.3-0.8-0.6-1
			c-0.3-0.2-0.6-0.4-1-0.5c-0.3-0.1-0.9-0.1-1.7-0.1H94.9z"/>
		<path id="XMLID_23_" class="st1" d="M103,20.3h2.1v5.6c0,0.9,0,1.5,0.1,1.7c0.1,0.4,0.3,0.8,0.6,1c0.3,0.3,0.8,0.4,1.4,0.4
			c0.6,0,1-0.1,1.3-0.4c0.3-0.2,0.5-0.5,0.5-0.9c0.1-0.4,0.1-0.9,0.1-1.8v-5.7h2.1v5.5c0,1.2-0.1,2.1-0.2,2.6
			c-0.1,0.5-0.3,0.9-0.6,1.3c-0.3,0.4-0.7,0.6-1.2,0.8s-1.2,0.3-2,0.3c-1,0-1.7-0.1-2.3-0.3c-0.5-0.2-0.9-0.5-1.2-0.9
			c-0.3-0.4-0.5-0.7-0.6-1.2c-0.1-0.6-0.2-1.5-0.2-2.6V20.3z"/>
		<path id="XMLID_25_" class="st1" d="M120,26.8l2,0.6c-0.3,1.1-0.8,2-1.6,2.5s-1.6,0.8-2.8,0.8c-1.4,0-2.5-0.5-3.4-1.4
			c-0.9-0.9-1.3-2.2-1.3-3.9c0-1.7,0.4-3.1,1.3-4s2.1-1.4,3.5-1.4c1.3,0,2.3,0.4,3.1,1.1c0.5,0.4,0.8,1.1,1.1,1.9l-2.1,0.5
			c-0.1-0.5-0.4-1-0.8-1.3c-0.4-0.3-0.9-0.5-1.4-0.5c-0.8,0-1.4,0.3-1.9,0.8c-0.5,0.6-0.7,1.4-0.7,2.7c0,1.3,0.2,2.2,0.7,2.8
			c0.5,0.6,1.1,0.8,1.8,0.8c0.6,0,1-0.2,1.4-0.5C119.5,28.2,119.8,27.6,120,26.8z"/>
		<path id="XMLID_27_" class="st1" d="M130.2,26.8l2,0.6c-0.3,1.1-0.8,2-1.6,2.5s-1.6,0.8-2.8,0.8c-1.4,0-2.5-0.5-3.4-1.4
			c-0.9-0.9-1.3-2.2-1.3-3.9c0-1.7,0.4-3.1,1.3-4c0.9-1,2.1-1.4,3.5-1.4c1.3,0,2.3,0.4,3.1,1.1c0.5,0.4,0.8,1.1,1.1,1.9l-2.1,0.5
			c-0.1-0.5-0.4-1-0.8-1.3c-0.4-0.3-0.9-0.5-1.4-0.5c-0.8,0-1.4,0.3-1.9,0.8c-0.5,0.6-0.7,1.4-0.7,2.7c0,1.3,0.2,2.2,0.7,2.8
			c0.5,0.6,1.1,0.8,1.8,0.8c0.6,0,1-0.2,1.4-0.5C129.8,28.2,130,27.6,130.2,26.8z"/>
		<path id="XMLID_29_" class="st1" d="M133.8,30.7V20.3h2.1v10.4H133.8z"/>
		<path id="XMLID_31_" class="st1" d="M137.2,25.5c0-1.1,0.2-1.9,0.5-2.7c0.2-0.5,0.6-1,1-1.4c0.4-0.4,0.9-0.7,1.3-0.9
			c0.6-0.3,1.4-0.4,2.2-0.4c1.5,0,2.8,0.5,3.7,1.4c0.9,0.9,1.4,2.3,1.4,4c0,1.7-0.5,3-1.4,3.9s-2.1,1.4-3.7,1.4
			c-1.5,0-2.8-0.5-3.7-1.4C137.7,28.5,137.2,27.2,137.2,25.5z M139.4,25.5c0,1.2,0.3,2.1,0.8,2.7c0.5,0.6,1.2,0.9,2.1,0.9
			c0.8,0,1.5-0.3,2.1-0.9c0.5-0.6,0.8-1.5,0.8-2.7c0-1.2-0.3-2.1-0.8-2.7c-0.5-0.6-1.2-0.9-2.1-0.9c-0.9,0-1.6,0.3-2.1,0.9
			C139.6,23.4,139.4,24.3,139.4,25.5z M141,19.7l1-2.1h2.2l-1.9,2.1H141z"/>
		<path id="XMLID_35_" class="st1" d="M148.7,30.7V20.3h2l4.2,6.9v-6.9h1.9v10.4h-2.1l-4.2-6.8v6.8H148.7z"/>
	</g>
</g>
</svg>
