<?xml version="1.0" encoding="utf-8"?>
<!-- Generator: Adobe Illustrator 19.0.0, SVG Export Plug-In . SVG Version: 6.00 Build 0)  -->
<svg version="1.1" id="Capa_1" xmlns="http://www.w3.org/2000/svg" xmlns:xlink="http://www.w3.org/1999/xlink" x="0px" y="0px"
	 viewBox="-277 400.9 40 40" style="enable-background:new -277 400.9 40 40;" xml:space="preserve">
<style type="text/css">
	.st0{fill-rule:evenodd;clip-rule:evenodd;fill:#F9D523;}
	.st1{fill:#252527;}
</style>
<g>
	<rect id="XMLID_10047_" x="-277" y="400.9" class="st0" width="40" height="40"/>
	<g id="XMLID_10028_">
		<g>
			<g id="XMLID_71_">
				<path id="XMLID_73_" class="st1" d="M-246.3,415.6h-17.6c-0.8,0-1.4-0.6-1.4-1.4c0-0.8,0.6-1.4,1.4-1.4h17.6
					c0.8,0,1.4,0.6,1.4,1.4C-244.9,415-245.5,415.6-246.3,415.6z"/>
				<circle id="XMLID_72_" class="st1" cx="-267.7" cy="414.3" r="1.4"/>
			</g>
			<g id="XMLID_68_">
				<path id="XMLID_70_" class="st1" d="M-246.3,422.3h-17.6c-0.8,0-1.4-0.6-1.4-1.4s0.6-1.4,1.4-1.4h17.6c0.8,0,1.4,0.6,1.4,1.4
					S-245.5,422.3-246.3,422.3z"/>
				<circle id="XMLID_69_" class="st1" cx="-267.7" cy="420.9" r="1.4"/>
			</g>
			<g id="XMLID_65_">
				<path id="XMLID_67_" class="st1" d="M-246.3,428.9h-17.6c-0.8,0-1.4-0.6-1.4-1.4c0-0.8,0.6-1.4,1.4-1.4h17.6
					c0.8,0,1.4,0.6,1.4,1.4C-244.9,428.3-245.5,428.9-246.3,428.9z"/>
				<circle id="XMLID_66_" class="st1" cx="-267.7" cy="427.5" r="1.4"/>
			</g>
		</g>
	</g>
</g>
</svg>
