<?xml version="1.0" encoding="utf-8"?>
<!-- Generator: Adobe Illustrator 19.0.0, SVG Export Plug-In . SVG Version: 6.00 Build 0)  -->
<svg version="1.1" id="Capa_1" xmlns="http://www.w3.org/2000/svg" xmlns:xlink="http://www.w3.org/1999/xlink" x="0px" y="0px"
	 viewBox="0 0 96.6 41" style="enable-background:new 0 0 96.6 41;" xml:space="preserve">
<style type="text/css">
	.st0{fill:#F9D523;stroke:#252527;stroke-miterlimit:10;}
</style>
<g id="XMLID_16_">
	<g id="XMLID_1_">
		<path id="XMLID_2_" d="M47.5,9.5l-3.3-9.3h2L48.6,7l2.3-6.9h2l-3.3,9.3H47.5z"/>
		<path id="XMLID_4_" d="M53.4,4.9c0-0.9,0.1-1.7,0.4-2.4c0.2-0.5,0.5-0.9,0.9-1.3c0.4-0.4,0.8-0.7,1.2-0.8c0.6-0.2,1.2-0.4,2-0.4
			c1.4,0,2.5,0.4,3.3,1.3c0.8,0.9,1.2,2,1.2,3.5c0,1.5-0.4,2.7-1.2,3.5c-0.8,0.8-1.9,1.3-3.3,1.3c-1.4,0-2.5-0.4-3.3-1.3
			C53.8,7.5,53.4,6.4,53.4,4.9z M55.4,4.8c0,1.1,0.2,1.9,0.7,2.4S57.2,8,57.9,8s1.4-0.3,1.8-0.8c0.5-0.5,0.7-1.3,0.7-2.4
			c0-1.1-0.2-1.9-0.7-2.4c-0.5-0.5-1.1-0.8-1.9-0.8s-1.4,0.3-1.9,0.8C55.6,2.9,55.4,3.7,55.4,4.8z"/>
		<path id="XMLID_7_" d="M64,9.5V0.2h1.9v7.7h4.7v1.6H64z"/>
		<path id="XMLID_9_" d="M73.3,9.5l-3.3-9.3h2L74.3,7l2.3-6.9h2l-3.3,9.3H73.3z"/>
		<path id="XMLID_11_" d="M79.6,9.5V0.2h6.9v1.6h-5v2.1h4.7v1.6h-4.7v2.5h5.2v1.6H79.6z"/>
		<path id="XMLID_13_" d="M88.2,9.5V0.2h4c1,0,1.7,0.1,2.2,0.3s0.8,0.5,1.1,0.9s0.4,0.9,0.4,1.5c0,0.7-0.2,1.3-0.6,1.7
			c-0.4,0.5-1,0.7-1.8,0.9c0.4,0.2,0.7,0.5,1,0.8c0.3,0.3,0.6,0.8,1.1,1.5l1.1,1.8h-2.2l-1.4-2c-0.5-0.7-0.8-1.2-1-1.4
			s-0.4-0.3-0.6-0.4c-0.2-0.1-0.5-0.1-0.9-0.1h-0.4v3.9H88.2z M90.1,4.1h1.4c0.9,0,1.5,0,1.7-0.1s0.4-0.2,0.5-0.4s0.2-0.4,0.2-0.7
			c0-0.3-0.1-0.6-0.3-0.8c-0.2-0.2-0.4-0.3-0.7-0.4c-0.2,0-0.6,0-1.4,0h-1.5V4.1z"/>
	</g>
	<polygon id="XMLID_1726_" class="st0" points="38.6,8 38.6,1 6.1,1 6.1,24.8 0.9,24.8 9.6,40 18.3,24.8 13.1,24.8 13.1,8 	"/>
</g>
</svg>
