<?xml version="1.0" encoding="utf-8"?>
<!-- Generator: Adobe Illustrator 19.0.0, SVG Export Plug-In . SVG Version: 6.00 Build 0)  -->
<svg version="1.1" id="Capa_1" xmlns="http://www.w3.org/2000/svg" xmlns:xlink="http://www.w3.org/1999/xlink" x="0px" y="0px"
	 viewBox="0 0 96.6 41" style="enable-background:new 0 0 96.6 41;" xml:space="preserve">
<style type="text/css">
	.st0{fill:#252527;stroke:#252527;stroke-miterlimit:10;}
</style>
<g id="XMLID_1_">
	<path id="XMLID_2_" d="M3.3,9.5L0,0.2h2L4.4,7l2.3-6.9h2L5.3,9.5H3.3z"/>
	<path id="XMLID_4_" d="M9.2,4.9c0-0.9,0.1-1.7,0.4-2.4c0.2-0.5,0.5-0.9,0.9-1.3c0.4-0.4,0.8-0.7,1.2-0.8C12.3,0.1,13,0,13.7,0
		c1.4,0,2.5,0.4,3.3,1.3c0.8,0.9,1.2,2,1.2,3.5c0,1.5-0.4,2.7-1.2,3.5c-0.8,0.8-1.9,1.3-3.3,1.3c-1.4,0-2.5-0.4-3.3-1.3
		C9.7,7.5,9.2,6.4,9.2,4.9z M11.2,4.8c0,1.1,0.2,1.9,0.7,2.4S13,8,13.8,8s1.4-0.3,1.8-0.8c0.5-0.5,0.7-1.3,0.7-2.4
		c0-1.1-0.2-1.9-0.7-2.4c-0.5-0.5-1.1-0.8-1.9-0.8s-1.4,0.3-1.9,0.8C11.4,2.9,11.2,3.7,11.2,4.8z"/>
	<path id="XMLID_7_" d="M19.8,9.5V0.2h1.9v7.7h4.7v1.6H19.8z"/>
	<path id="XMLID_9_" d="M29.1,9.5l-3.3-9.3h2L30.2,7l2.3-6.9h2l-3.3,9.3H29.1z"/>
	<path id="XMLID_11_" d="M35.4,9.5V0.2h6.9v1.6h-5v2.1h4.7v1.6h-4.7v2.5h5.2v1.6H35.4z"/>
	<path id="XMLID_13_" d="M44.1,9.5V0.2h4c1,0,1.7,0.1,2.2,0.3s0.8,0.5,1.1,0.9s0.4,0.9,0.4,1.5c0,0.7-0.2,1.3-0.6,1.7
		c-0.4,0.5-1,0.7-1.8,0.9c0.4,0.2,0.7,0.5,1,0.8c0.3,0.3,0.6,0.8,1.1,1.5l1.1,1.8h-2.2l-1.4-2c-0.5-0.7-0.8-1.2-1-1.4
		s-0.4-0.3-0.6-0.4c-0.2-0.1-0.5-0.1-0.9-0.1h-0.4v3.9H44.1z M45.9,4.1h1.4c0.9,0,1.5,0,1.7-0.1s0.4-0.2,0.5-0.4s0.2-0.4,0.2-0.7
		c0-0.3-0.1-0.6-0.3-0.8c-0.2-0.2-0.4-0.3-0.7-0.4c-0.2,0-0.6,0-1.4,0h-1.5V4.1z"/>
</g>
<polygon id="XMLID_1726_" class="st0" points="57.9,8 57.9,1 90.4,1 90.4,24.8 95.6,24.8 86.9,40 78.2,24.8 83.4,24.8 83.4,8 "/>
</svg>
