<?xml version="1.0" encoding="utf-8"?>
<!-- Generator: Adobe Illustrator 19.0.0, SVG Export Plug-In . SVG Version: 6.00 Build 0)  -->
<svg version="1.1" id="Capa_1" xmlns="http://www.w3.org/2000/svg" xmlns:xlink="http://www.w3.org/1999/xlink" x="0px" y="0px"
	 viewBox="0 0 1280 600" style="enable-background:new 0 0 1280 600;" xml:space="preserve">
<style type="text/css">
	.st0{fill:url(#XMLID_54_);}
	.st1{fill:#F2F2F2;}
</style>
<linearGradient id="XMLID_54_" gradientUnits="userSpaceOnUse" x1="639.9999" y1="600" x2="639.9999" y2="-2.873367e-008">
	<stop  offset="0" style="stop-color:#FFFFFF"/>
	<stop  offset="1" style="stop-color:#EDEDED"/>
</linearGradient>
<rect id="XMLID_7500_" x="0" class="st0" width="1280" height="600"/>
<g id="XMLID_1905_">
	<polygon id="XMLID_2052_" class="st1" points="1186.5,403.8 1125.1,438.6 1125.1,694.8 1315.4,584.5 1315.4,513.9 1186.5,588.6 	
		"/>
	<polygon id="XMLID_2045_" class="st1" points="1022.9,491.7 998.8,372.8 924.6,330.8 924.6,584.5 970.6,611.2 970.6,480.8 
		1000.4,628.4 1026.3,643.4 1062.6,530.7 1062.6,664.5 1114.9,694.8 1114.9,438.6 1046.4,399.8 	"/>
	<polygon id="XMLID_2001_" class="st1" points="1324.3,561.1 1329.3,561.1 1329.3,575.2 1332.7,575.2 1332.7,561.1 1337.8,561.1 
		1337.8,558.2 1324.3,558.2 	"/>
	<polygon id="XMLID_1996_" class="st1" points="1351.2,558.2 1348.2,569.8 1345.1,558.2 1339.9,558.2 1339.9,575.2 1343.1,575.2 
		1343.1,561.8 1346.5,575.2 1349.8,575.2 1353.2,561.8 1353.2,575.2 1356.4,575.2 1356.4,558.2 	"/>
	<path id="XMLID_1983_" class="st1" d="M1245.7,282.9l-120.6-68.5l-57.7,32.8l110.2,64c0,0,35.5,17,0,38.9
		c-37.3,23-67.7,1.9-67.7,1.9l-111.9-65.5l-64.8,36.8l112.1,66.3c0,0,73.3,45.7,159-6.9C1312.5,316.3,1245.7,282.9,1245.7,282.9z"/>
</g>
</svg>
