<?xml version="1.0" encoding="utf-8"?>
<!-- Generator: Adobe Illustrator 19.0.0, SVG Export Plug-In . SVG Version: 6.00 Build 0)  -->
<svg version="1.1" id="Capa_1" xmlns="http://www.w3.org/2000/svg" xmlns:xlink="http://www.w3.org/1999/xlink" x="0px" y="0px"
	 viewBox="0 0 304.4 252.2" style="enable-background:new 0 0 304.4 252.2;" xml:space="preserve">
<style type="text/css">
	.st0{fill:#FFFFFF;}
	.st1{fill:#F3A24A;}
	.st2{fill:#CC4A4A;}
	.st3{fill:#886C6B;}
	.st4{fill:#5CB7A3;}
	.st5{fill:#356C78;}
	.st6{fill:#C67044;}
	.st7{fill:#9777A1;}
	.st8{fill:#646875;}
	.st9{fill:#5B5B5B;}
	.st10{fill:none;stroke:#C67044;stroke-width:1.5148;stroke-miterlimit:10;}
	.st11{fill:none;stroke:#646875;stroke-width:2.0197;stroke-miterlimit:10;}
	.st12{fill:none;stroke:#9777A1;stroke-width:2.0197;stroke-miterlimit:10;}
	.st13{fill:none;stroke:#CC4A4A;stroke-width:2.0197;stroke-miterlimit:10;}
	.st14{fill:none;stroke:#886C6B;stroke-width:2.0197;stroke-miterlimit:10;}
	.st15{fill:none;stroke:#5CB7A3;stroke-width:2.0197;stroke-miterlimit:10;}
	.st16{fill:none;stroke:#F3A24A;stroke-width:2.0197;stroke-miterlimit:10;}
	.st17{fill:none;stroke:#356C78;stroke-width:2.0197;stroke-miterlimit:10;}
</style>
<g id="XMLID_2436_">
	<g id="XMLID_8616_">
		<path id="XMLID_8617_" d="M28.8,10.2V9.5l0.5-0.7c0.7-0.9,1.2-1.6,1.2-2.3c0-0.4-0.2-0.7-0.7-0.7c-0.3,0-0.6,0.1-0.8,0.3l-0.2-0.8
			c0.2-0.2,0.7-0.3,1.2-0.3c1.1,0,1.5,0.8,1.5,1.5c0,1-0.6,1.8-1.2,2.5l-0.3,0.4v0h1.6v0.9H28.8z"/>
		<path id="XMLID_8619_" d="M35.3,7.5c0,1.9-0.7,2.7-1.5,2.7c-1.1,0-1.5-1.3-1.5-2.7c0-1.5,0.5-2.7,1.6-2.7
			C35,4.9,35.3,6.3,35.3,7.5z M33.3,7.6c0,1.2,0.1,1.8,0.5,1.8c0.3,0,0.4-0.6,0.4-1.8c0-1.1-0.1-1.8-0.4-1.8
			C33.4,5.8,33.3,6.3,33.3,7.6z"/>
		<path id="XMLID_8622_" d="M38.7,7.5c0,1.9-0.7,2.7-1.5,2.7c-1.1,0-1.5-1.3-1.5-2.7c0-1.5,0.5-2.7,1.6-2.7
			C38.4,4.9,38.7,6.3,38.7,7.5z M36.7,7.6c0,1.2,0.1,1.8,0.5,1.8c0.3,0,0.4-0.6,0.4-1.8c0-1.1-0.1-1.8-0.4-1.8
			C36.9,5.8,36.7,6.3,36.7,7.6z"/>
		<path id="XMLID_8625_" d="M40.4,5.9L40.4,5.9l-0.9,0.5l-0.2-0.8l1.2-0.6h0.9v5.3h-1.1V5.9z"/>
		<path id="XMLID_8627_" d="M28.8,33.9v-0.7l0.5-0.7c0.7-0.9,1.2-1.6,1.2-2.3c0-0.4-0.2-0.7-0.7-0.7c-0.3,0-0.6,0.1-0.8,0.3
			l-0.2-0.8c0.2-0.2,0.7-0.3,1.2-0.3c1.1,0,1.5,0.8,1.5,1.5c0,1-0.6,1.8-1.2,2.5L30.1,33v0h1.6v0.9H28.8z"/>
		<path id="XMLID_8629_" d="M35.3,31.3c0,1.9-0.7,2.7-1.5,2.7c-1.1,0-1.5-1.3-1.5-2.7c0-1.5,0.5-2.7,1.6-2.7
			C35,28.6,35.3,30,35.3,31.3z M33.3,31.3c0,1.2,0.1,1.8,0.5,1.8c0.3,0,0.4-0.6,0.4-1.8c0-1.1-0.1-1.8-0.4-1.8
			C33.4,29.5,33.3,30.1,33.3,31.3z"/>
		<path id="XMLID_8632_" d="M38.7,31.3c0,1.9-0.7,2.7-1.5,2.7c-1.1,0-1.5-1.3-1.5-2.7c0-1.5,0.5-2.7,1.6-2.7
			C38.4,28.6,38.7,30,38.7,31.3z M36.7,31.3c0,1.2,0.1,1.8,0.5,1.8c0.3,0,0.4-0.6,0.4-1.8c0-1.1-0.1-1.8-0.4-1.8
			C36.9,29.5,36.7,30.1,36.7,31.3z"/>
		<path id="XMLID_8635_" d="M42.2,31.3c0,1.9-0.7,2.7-1.5,2.7c-1.1,0-1.5-1.3-1.5-2.7c0-1.5,0.5-2.7,1.6-2.7
			C41.9,28.6,42.2,30,42.2,31.3z M40.2,31.3c0,1.2,0.1,1.8,0.5,1.8c0.3,0,0.4-0.6,0.4-1.8c0-1.1-0.1-1.8-0.4-1.8
			C40.3,29.5,40.2,30.1,40.2,31.3z"/>
		<path id="XMLID_8638_" d="M30,53.4L30,53.4l-0.9,0.5L29,53l1.2-0.6h0.9v5.3H30V53.4z"/>
		<path id="XMLID_8640_" d="M32.6,56.8c0.2,0,0.3,0,0.5,0c0.2,0,0.4-0.1,0.6-0.3c0.2-0.2,0.4-0.6,0.5-1.1h0
			c-0.2,0.2-0.4,0.3-0.8,0.3c-0.7,0-1.2-0.6-1.2-1.6c0-0.9,0.6-1.8,1.6-1.8c1,0,1.5,0.9,1.5,2.2c0,1.2-0.4,2-0.9,2.5
			c-0.3,0.3-0.8,0.6-1.3,0.7c-0.2,0-0.3,0-0.5,0V56.8z M33.3,54.1c0,0.5,0.2,0.9,0.5,0.9c0.2,0,0.3-0.1,0.4-0.3c0-0.1,0-0.2,0-0.6
			c0-0.7-0.2-1.1-0.5-1.1C33.5,53.1,33.3,53.4,33.3,54.1z"/>
		<path id="XMLID_8643_" d="M36.1,56.8c0.2,0,0.3,0,0.5,0c0.2,0,0.4-0.1,0.6-0.3c0.2-0.2,0.4-0.6,0.5-1.1h0
			c-0.2,0.2-0.4,0.3-0.8,0.3c-0.7,0-1.2-0.6-1.2-1.6c0-0.9,0.6-1.8,1.6-1.8c1,0,1.5,0.9,1.5,2.2c0,1.2-0.4,2-0.9,2.5
			c-0.3,0.3-0.8,0.6-1.3,0.7c-0.2,0-0.3,0-0.5,0V56.8z M36.7,54.1c0,0.5,0.2,0.9,0.5,0.9c0.2,0,0.3-0.1,0.4-0.3c0-0.1,0-0.2,0-0.6
			c0-0.7-0.2-1.1-0.5-1.1C36.9,53.1,36.7,53.4,36.7,54.1z"/>
		<path id="XMLID_8646_" d="M39.5,56.8c0.2,0,0.3,0,0.5,0c0.2,0,0.4-0.1,0.6-0.3c0.2-0.2,0.4-0.6,0.5-1.1h0
			c-0.2,0.2-0.4,0.3-0.8,0.3c-0.7,0-1.2-0.6-1.2-1.6c0-0.9,0.6-1.8,1.6-1.8c1,0,1.5,0.9,1.5,2.2c0,1.2-0.4,2-0.9,2.5
			c-0.3,0.3-0.8,0.6-1.3,0.7c-0.2,0-0.3,0-0.5,0V56.8z M40.2,54.1c0,0.5,0.2,0.9,0.5,0.9c0.2,0,0.3-0.1,0.4-0.3c0-0.1,0-0.2,0-0.6
			c0-0.7-0.2-1.1-0.5-1.1C40.3,53.1,40.1,53.4,40.2,54.1z"/>
		<path id="XMLID_8649_" d="M30,77.1L30,77.1l-0.9,0.5L29,76.7l1.2-0.6h0.9v5.3H30V77.1z"/>
		<path id="XMLID_8651_" d="M32.6,80.6c0.2,0,0.3,0,0.5,0c0.2,0,0.4-0.1,0.6-0.3c0.2-0.2,0.4-0.6,0.5-1.1h0
			c-0.2,0.2-0.4,0.3-0.8,0.3c-0.7,0-1.2-0.6-1.2-1.6c0-0.9,0.6-1.8,1.6-1.8c1,0,1.5,0.9,1.5,2.2c0,1.2-0.4,2-0.9,2.5
			c-0.3,0.3-0.8,0.6-1.3,0.7c-0.2,0-0.3,0-0.5,0V80.6z M33.3,77.8c0,0.5,0.2,0.9,0.5,0.9c0.2,0,0.3-0.1,0.4-0.3c0-0.1,0-0.2,0-0.6
			c0-0.7-0.2-1.1-0.5-1.1C33.5,76.8,33.3,77.2,33.3,77.8z"/>
		<path id="XMLID_8654_" d="M36.1,80.6c0.2,0,0.3,0,0.5,0c0.2,0,0.4-0.1,0.6-0.3c0.2-0.2,0.4-0.6,0.5-1.1h0
			c-0.2,0.2-0.4,0.3-0.8,0.3c-0.7,0-1.2-0.6-1.2-1.6c0-0.9,0.6-1.8,1.6-1.8c1,0,1.5,0.9,1.5,2.2c0,1.2-0.4,2-0.9,2.5
			c-0.3,0.3-0.8,0.6-1.3,0.7c-0.2,0-0.3,0-0.5,0V80.6z M36.7,77.8c0,0.5,0.2,0.9,0.5,0.9c0.2,0,0.3-0.1,0.4-0.3c0-0.1,0-0.2,0-0.6
			c0-0.7-0.2-1.1-0.5-1.1C36.9,76.8,36.7,77.2,36.7,77.8z"/>
		<path id="XMLID_8657_" d="M39.1,80c0-0.7,0.4-1.1,0.8-1.4v0c-0.4-0.3-0.6-0.7-0.6-1.2c0-0.9,0.7-1.4,1.5-1.4
			c0.8,0,1.4,0.5,1.4,1.3c0,0.3-0.1,0.8-0.7,1.2v0c0.5,0.3,0.8,0.8,0.8,1.4c0,1-0.7,1.5-1.6,1.5C39.7,81.4,39.1,80.9,39.1,80z
			 M41.2,79.9c0-0.5-0.3-0.8-0.6-1c-0.3,0.2-0.5,0.5-0.5,0.9c0,0.5,0.2,0.8,0.5,0.8C41,80.7,41.2,80.4,41.2,79.9z M40.2,77.4
			c0,0.4,0.2,0.6,0.5,0.8c0.2-0.1,0.4-0.4,0.4-0.8c0-0.4-0.1-0.7-0.4-0.7C40.4,76.8,40.2,77.1,40.2,77.4z"/>
		<path id="XMLID_8661_" d="M23.1,105.1v-5.4h1l0.8,2.1c0.2,0.4,0.4,1.1,0.6,1.6h0c0-0.6-0.1-1.5-0.1-2.5v-1.2h0.9v5.4h-1l-0.8-2.1
			c-0.2-0.5-0.4-1.1-0.5-1.6h0c0,0.5,0.1,1.4,0.1,2.5v1.2H23.1z"/>
		<path id="XMLID_8663_" d="M30,103.1c0,1.6-0.9,2.1-1.5,2.1c-0.9,0-1.5-0.7-1.5-2c0-1.4,0.7-2.1,1.5-2.1
			C29.4,101.1,30,101.9,30,103.1z M28,103.1c0,0.7,0.1,1.2,0.5,1.2c0.3,0,0.4-0.7,0.4-1.2c0-0.5-0.1-1.2-0.4-1.2
			C28.1,101.9,28,102.6,28,103.1z"/>
		<path id="XMLID_8666_" d="M31.3,101.2l0.3,1.8c0.1,0.4,0.1,0.7,0.2,1.1h0c0-0.4,0.1-0.7,0.2-1.1l0.3-1.8h1l-1.1,4h-1l-1.1-4H31.3z
			"/>
		<path id="XMLID_8668_" d="M36,100.8L36,100.8l-0.9,0.5l-0.2-0.8l1.2-0.6h0.9v5.3H36V100.8z"/>
		<path id="XMLID_8670_" d="M38.6,104.3c0.2,0,0.3,0,0.5,0c0.2,0,0.4-0.1,0.6-0.3c0.2-0.2,0.4-0.6,0.5-1.1h0
			c-0.2,0.2-0.4,0.3-0.8,0.3c-0.7,0-1.2-0.6-1.2-1.6c0-0.9,0.6-1.8,1.6-1.8c1,0,1.5,0.9,1.5,2.2c0,1.2-0.4,2-0.9,2.5
			c-0.3,0.3-0.8,0.6-1.3,0.7c-0.2,0-0.3,0-0.5,0V104.3z M39.3,101.5c0,0.5,0.2,0.9,0.5,0.9c0.2,0,0.3-0.1,0.4-0.3c0-0.1,0-0.2,0-0.6
			c0-0.7-0.2-1.1-0.5-1.1C39.5,100.6,39.3,100.9,39.3,101.5z"/>
		<path id="XMLID_8673_" d="M42.1,104.3c0.2,0,0.3,0,0.5,0c0.2,0,0.4-0.1,0.6-0.3c0.2-0.2,0.4-0.6,0.5-1.1h0
			c-0.2,0.2-0.4,0.3-0.8,0.3c-0.7,0-1.2-0.6-1.2-1.6c0-0.9,0.6-1.8,1.6-1.8c1,0,1.5,0.9,1.5,2.2c0,1.2-0.4,2-0.9,2.5
			c-0.3,0.3-0.8,0.6-1.3,0.7c-0.2,0-0.3,0-0.5,0V104.3z M42.7,101.5c0,0.5,0.2,0.9,0.5,0.9c0.2,0,0.3-0.1,0.4-0.3c0-0.1,0-0.2,0-0.6
			c0-0.7-0.2-1.1-0.5-1.1C42.9,100.6,42.7,100.9,42.7,101.5z"/>
		<path id="XMLID_8676_" d="M48.1,99.9v0.7l-1.6,4.6h-1l1.6-4.3v0h-1.8v-0.9H48.1z"/>
		<path id="XMLID_8678_" d="M23.2,127.8c0.2,0.1,0.6,0.2,0.9,0.2c0.5,0,0.7-0.3,0.7-0.6c0-0.4-0.2-0.6-0.7-0.9c-0.7-0.5-1-1-1-1.5
			c0-0.9,0.6-1.6,1.7-1.6c0.4,0,0.7,0.1,0.9,0.2l-0.2,0.9c-0.2-0.1-0.4-0.2-0.7-0.2c-0.5,0-0.7,0.3-0.7,0.6c0,0.3,0.2,0.5,0.8,0.8
			c0.7,0.4,1,1,1,1.6c0,1-0.7,1.6-1.8,1.6c-0.4,0-0.9-0.1-1-0.2L23.2,127.8z"/>
		<path id="XMLID_8680_" d="M27.3,127.2c0,0.6,0.4,0.8,0.8,0.8c0.3,0,0.6-0.1,0.8-0.1l0.1,0.8c-0.3,0.1-0.7,0.2-1.1,0.2
			c-1.1,0-1.7-0.7-1.7-1.9c0-1.3,0.7-2.1,1.6-2.1c0.8,0,1.3,0.7,1.3,1.9c0,0.3,0,0.4,0,0.5H27.3z M28.3,126.5c0-0.5-0.1-0.9-0.4-0.9
			c-0.3,0-0.5,0.5-0.5,0.9H28.3z"/>
		<path id="XMLID_8683_" d="M29.8,126.1c0-0.5,0-0.9,0-1.3h0.9l0.1,0.5h0c0.2-0.3,0.5-0.5,0.8-0.5c0.9,0,1.2,0.9,1.2,2
			c0,1.4-0.6,2-1.3,2c-0.3,0-0.5-0.2-0.7-0.4h0v1.9h-1.1V126.1z M30.9,127.4c0,0.1,0,0.3,0.1,0.3c0.1,0.2,0.2,0.3,0.3,0.3
			c0.4,0,0.5-0.5,0.5-1.2c0-0.8-0.2-1.2-0.5-1.2c-0.2,0-0.3,0.2-0.4,0.3c0,0.1,0,0.2,0,0.3V127.4z"/>
		<path id="XMLID_8686_" d="M35.8,124.6L35.8,124.6l-0.9,0.5l-0.2-0.8l1.2-0.6h0.9v5.3h-1.1V124.6z"/>
		<path id="XMLID_8688_" d="M38.4,128c0.2,0,0.3,0,0.5,0c0.2,0,0.4-0.1,0.6-0.3c0.2-0.2,0.4-0.6,0.5-1.1h0c-0.2,0.2-0.4,0.3-0.8,0.3
			c-0.7,0-1.2-0.6-1.2-1.6c0-0.9,0.6-1.8,1.6-1.8c1,0,1.5,0.9,1.5,2.2c0,1.2-0.4,2-0.9,2.5c-0.3,0.3-0.8,0.6-1.3,0.7
			c-0.2,0-0.3,0-0.5,0V128z M39,125.3c0,0.5,0.2,0.9,0.5,0.9c0.2,0,0.3-0.1,0.4-0.3c0-0.1,0-0.2,0-0.6c0-0.7-0.2-1.1-0.5-1.1
			C39.2,124.3,39,124.6,39,125.3z"/>
		<path id="XMLID_8691_" d="M41.8,128c0.2,0,0.3,0,0.5,0c0.2,0,0.4-0.1,0.6-0.3c0.2-0.2,0.4-0.6,0.5-1.1h0c-0.2,0.2-0.4,0.3-0.8,0.3
			c-0.7,0-1.2-0.6-1.2-1.6c0-0.9,0.6-1.8,1.6-1.8c1,0,1.5,0.9,1.5,2.2c0,1.2-0.4,2-0.9,2.5c-0.3,0.3-0.8,0.6-1.3,0.7
			c-0.2,0-0.3,0-0.5,0V128z M42.5,125.3c0,0.5,0.2,0.9,0.5,0.9c0.2,0,0.3-0.1,0.4-0.3c0-0.1,0-0.2,0-0.6c0-0.7-0.2-1.1-0.5-1.1
			C42.7,124.3,42.5,124.6,42.5,125.3z"/>
		<path id="XMLID_8694_" d="M47.9,123.6v0.7l-1.6,4.6h-1l1.6-4.3v0H45v-0.9H47.9z"/>
		<path id="XMLID_8696_" d="M25.6,150.2h-1.2v1.5h1.4v0.9h-2.5v-5.4h2.4v0.9h-1.3v1.3h1.2V150.2z"/>
		<path id="XMLID_8698_" d="M26.4,149.8c0-0.4,0-0.8,0-1.2h0.9l0,0.5h0c0.2-0.3,0.5-0.5,1-0.5c0.8,0,1.1,0.6,1.1,1.5v2.5h-1.1v-2.5
			c0-0.3-0.1-0.7-0.4-0.7c-0.2,0-0.3,0.1-0.4,0.4c0,0.1-0.1,0.2-0.1,0.4v2.4h-1.1V149.8z"/>
		<path id="XMLID_8700_" d="M30.9,151c0,0.6,0.4,0.8,0.8,0.8c0.3,0,0.6-0.1,0.8-0.1l0.1,0.8c-0.3,0.1-0.7,0.2-1.1,0.2
			c-1.1,0-1.7-0.7-1.7-1.9c0-1.3,0.7-2.1,1.6-2.1c0.8,0,1.3,0.7,1.3,1.9c0,0.3,0,0.4,0,0.5H30.9z M31.9,150.2c0-0.5-0.1-0.9-0.4-0.9
			c-0.3,0-0.5,0.5-0.5,0.9H31.9z"/>
		<path id="XMLID_8703_" d="M35.8,148.3L35.8,148.3l-0.9,0.5l-0.2-0.8l1.2-0.6h0.9v5.3h-1.1V148.3z"/>
		<path id="XMLID_8705_" d="M38.4,151.8c0.2,0,0.3,0,0.5,0c0.2,0,0.4-0.1,0.6-0.3c0.2-0.2,0.4-0.6,0.5-1.1h0
			c-0.2,0.2-0.4,0.3-0.8,0.3c-0.7,0-1.2-0.6-1.2-1.6c0-0.9,0.6-1.8,1.6-1.8c1,0,1.5,0.9,1.5,2.2c0,1.2-0.4,2-0.9,2.5
			c-0.3,0.3-0.8,0.6-1.3,0.7c-0.2,0-0.3,0-0.5,0V151.8z M39,149c0,0.5,0.2,0.9,0.5,0.9c0.2,0,0.3-0.1,0.4-0.3c0-0.1,0-0.2,0-0.6
			c0-0.7-0.2-1.1-0.5-1.1C39.2,148,39,148.4,39,149z"/>
		<path id="XMLID_8708_" d="M41.8,151.8c0.2,0,0.3,0,0.5,0c0.2,0,0.4-0.1,0.6-0.3c0.2-0.2,0.4-0.6,0.5-1.1h0
			c-0.2,0.2-0.4,0.3-0.8,0.3c-0.7,0-1.2-0.6-1.2-1.6c0-0.9,0.6-1.8,1.6-1.8c1,0,1.5,0.9,1.5,2.2c0,1.2-0.4,2-0.9,2.5
			c-0.3,0.3-0.8,0.6-1.3,0.7c-0.2,0-0.3,0-0.5,0V151.8z M42.5,149c0,0.5,0.2,0.9,0.5,0.9c0.2,0,0.3-0.1,0.4-0.3c0-0.1,0-0.2,0-0.6
			c0-0.7-0.2-1.1-0.5-1.1C42.7,148,42.5,148.4,42.5,149z"/>
		<path id="XMLID_8711_" d="M47.9,147.3v0.7l-1.6,4.6h-1l1.6-4.3v0H45v-0.9H47.9z"/>
		<path id="XMLID_8713_" d="M24,170.9h1.1v3.7c0,1.6-0.8,1.8-1.5,1.8c-0.2,0-0.4,0-0.5-0.1l0.1-0.9c0.1,0,0.2,0,0.3,0
			c0.3,0,0.6-0.1,0.6-0.8V170.9z"/>
		<path id="XMLID_8715_" d="M28.7,175.1c0,0.4,0,0.8,0,1.2h-0.9l-0.1-0.4h0c-0.2,0.3-0.5,0.5-0.9,0.5c-0.8,0-1.1-0.6-1.1-1.6v-2.4
			h1.1v2.3c0,0.5,0.1,0.8,0.4,0.8c0.2,0,0.3-0.1,0.3-0.3c0-0.1,0.1-0.2,0.1-0.3v-2.5h1.1V175.1z"/>
		<path id="XMLID_8717_" d="M29.5,173.5c0-0.4,0-0.8,0-1.2h0.9l0,0.5h0c0.2-0.3,0.5-0.5,1-0.5c0.8,0,1.1,0.6,1.1,1.5v2.5h-1.1v-2.5
			c0-0.3-0.1-0.7-0.4-0.7c-0.2,0-0.3,0.1-0.4,0.4c0,0.1-0.1,0.2-0.1,0.4v2.4h-1.1V173.5z"/>
		<path id="XMLID_8719_" d="M35.5,172L35.5,172l-0.9,0.5l-0.2-0.8l1.2-0.6h0.9v5.3h-1.1V172z"/>
		<path id="XMLID_8721_" d="M38.1,175.5c0.2,0,0.3,0,0.5,0c0.2,0,0.4-0.1,0.6-0.3c0.2-0.2,0.4-0.6,0.5-1.1h0
			c-0.2,0.2-0.4,0.3-0.8,0.3c-0.7,0-1.2-0.6-1.2-1.6c0-0.9,0.6-1.8,1.6-1.8c1,0,1.5,0.9,1.5,2.2c0,1.2-0.4,2-0.9,2.5
			c-0.3,0.3-0.8,0.6-1.3,0.7c-0.2,0-0.3,0-0.5,0V175.5z M38.8,172.7c0,0.5,0.2,0.9,0.5,0.9c0.2,0,0.3-0.1,0.4-0.3c0-0.1,0-0.2,0-0.6
			c0-0.7-0.2-1.1-0.5-1.1C39,171.8,38.8,172.1,38.8,172.7z"/>
		<path id="XMLID_8724_" d="M41.6,175.5c0.2,0,0.3,0,0.5,0c0.2,0,0.4-0.1,0.6-0.3c0.2-0.2,0.4-0.6,0.5-1.1h0
			c-0.2,0.2-0.4,0.3-0.8,0.3c-0.7,0-1.2-0.6-1.2-1.6c0-0.9,0.6-1.8,1.6-1.8c1,0,1.5,0.9,1.5,2.2c0,1.2-0.4,2-0.9,2.5
			c-0.3,0.3-0.8,0.6-1.3,0.7c-0.2,0-0.3,0-0.5,0V175.5z M42.2,172.7c0,0.5,0.2,0.9,0.5,0.9c0.2,0,0.3-0.1,0.4-0.3c0-0.1,0-0.2,0-0.6
			c0-0.7-0.2-1.1-0.5-1.1C42.4,171.8,42.2,172.1,42.2,172.7z"/>
		<path id="XMLID_8727_" d="M47.3,171.8c-0.1,0-0.3,0-0.4,0.1c-0.7,0.2-1,0.7-1.2,1.4h0c0.2-0.3,0.5-0.4,0.8-0.4
			c0.7,0,1.2,0.6,1.2,1.6c0,0.9-0.5,1.9-1.5,1.9c-1,0-1.6-0.9-1.6-2.2c0-1.1,0.4-1.9,0.9-2.4c0.3-0.4,0.8-0.6,1.3-0.7
			c0.3,0,0.4,0,0.5-0.1V171.8z M46.7,174.5c0-0.4-0.2-0.9-0.5-0.9c-0.2,0-0.3,0.1-0.4,0.4c0,0.1-0.1,0.2-0.1,0.5
			c0,0.7,0.2,1.1,0.5,1.1C46.6,175.6,46.7,175.1,46.7,174.5z"/>
		<path id="XMLID_8730_" d="M27.1,197.2c0,2.1-0.7,2.9-1.8,2.9c-1.2,0-1.7-1.3-1.7-2.8c0-1.5,0.6-2.8,1.8-2.8
			C26.7,194.5,27.1,196,27.1,197.2z M24.7,197.3c0,1.2,0.2,1.9,0.7,1.9c0.4,0,0.6-0.8,0.6-1.9c0-1-0.1-1.8-0.6-1.8
			C24.9,195.4,24.7,196.1,24.7,197.3z"/>
		<path id="XMLID_8733_" d="M29.8,200c-0.1,0-0.4,0.1-0.7,0.1c-1,0-1.7-0.7-1.7-2c0-1.2,0.7-2.1,1.8-2.1c0.3,0,0.5,0.1,0.6,0.1
			l-0.1,0.8c-0.1,0-0.2-0.1-0.4-0.1c-0.5,0-0.8,0.5-0.8,1.2c0,0.7,0.3,1.2,0.8,1.2c0.2,0,0.3,0,0.4-0.1L29.8,200z"/>
		<path id="XMLID_8735_" d="M31.6,195v1.1h0.8v0.8h-0.8v1.8c0,0.5,0.2,0.6,0.4,0.6c0.1,0,0.2,0,0.3,0l0,0.8c-0.1,0-0.4,0.1-0.6,0.1
			c-0.3,0-0.6-0.1-0.8-0.3c-0.2-0.2-0.3-0.5-0.3-1.1v-1.9h-0.5v-0.8h0.5v-0.8L31.6,195z"/>
		<path id="XMLID_8737_" d="M35.3,195.8L35.3,195.8l-0.9,0.5l-0.2-0.8l1.2-0.6h0.9v5.3h-1.1V195.8z"/>
		<path id="XMLID_8739_" d="M37.9,199.2c0.2,0,0.3,0,0.5,0c0.2,0,0.4-0.1,0.6-0.3c0.2-0.2,0.4-0.6,0.5-1.1h0
			c-0.2,0.2-0.4,0.3-0.8,0.3c-0.7,0-1.2-0.6-1.2-1.6c0-0.9,0.6-1.8,1.6-1.8c1,0,1.5,0.9,1.5,2.2c0,1.2-0.4,2-0.9,2.5
			c-0.3,0.3-0.8,0.6-1.3,0.7c-0.2,0-0.3,0-0.5,0V199.2z M38.5,196.5c0,0.5,0.2,0.9,0.5,0.9c0.2,0,0.3-0.1,0.4-0.3c0-0.1,0-0.2,0-0.6
			c0-0.7-0.2-1.1-0.5-1.1C38.7,195.5,38.5,195.8,38.5,196.5z"/>
		<path id="XMLID_8742_" d="M41.3,199.2c0.2,0,0.3,0,0.5,0c0.2,0,0.4-0.1,0.6-0.3c0.2-0.2,0.4-0.6,0.5-1.1h0
			c-0.2,0.2-0.4,0.3-0.8,0.3c-0.7,0-1.2-0.6-1.2-1.6c0-0.9,0.6-1.8,1.6-1.8c1,0,1.5,0.9,1.5,2.2c0,1.2-0.4,2-0.9,2.5
			c-0.3,0.3-0.8,0.6-1.3,0.7c-0.2,0-0.3,0-0.5,0V199.2z M41.9,196.5c0,0.5,0.2,0.9,0.5,0.9c0.2,0,0.3-0.1,0.4-0.3c0-0.1,0-0.2,0-0.6
			c0-0.7-0.2-1.1-0.5-1.1C42.1,195.5,41.9,195.8,41.9,196.5z"/>
		<path id="XMLID_8745_" d="M47.1,195.7h-1.4l-0.1,0.9c0,0,0.1,0,0.2,0c0.2,0,0.7,0.1,1,0.4c0.3,0.3,0.5,0.7,0.5,1.2
			c0,1-0.7,1.9-1.8,1.9c-0.4,0-0.8-0.1-1-0.2l0.2-0.8c0.2,0.1,0.5,0.2,0.8,0.2c0.5,0,0.9-0.3,0.9-0.9c0-0.7-0.5-0.9-1.1-0.9
			c-0.1,0-0.3,0-0.4,0l0.3-2.6h2.2V195.7z"/>
	</g>
	<g id="XMLID_8517_">
		<path id="XMLID_8518_" d="M5.3,210.1c0.3-0.1,0.7-0.1,1.1-0.1c0.7,0,1.2,0.2,1.5,0.5c0.5,0.4,0.7,1.1,0.7,2.2
			c0,1.1-0.3,1.9-0.8,2.3c-0.4,0.4-0.9,0.5-1.7,0.5c-0.3,0-0.7,0-0.9-0.1V210.1z M6.3,214.6c0,0,0.1,0,0.2,0c0.5,0,1-0.5,1-2
			c0-1.1-0.3-1.8-0.9-1.8c-0.1,0-0.1,0-0.2,0V214.6z"/>
		<path id="XMLID_8521_" d="M9.2,212.7c0-0.4,0-0.8,0-1.2h0.9l0.1,0.6h0c0.2-0.4,0.5-0.6,0.8-0.6c0.1,0,0.2,0,0.2,0v1.1
			c-0.1,0-0.1,0-0.2,0c-0.2,0-0.5,0.2-0.6,0.6c0,0.1,0,0.2,0,0.4v2H9.2V212.7z"/>
		<path id="XMLID_8523_" d="M11.2,214.8c0-0.4,0.3-0.7,0.6-0.7c0.3,0,0.6,0.3,0.6,0.7c0,0.4-0.3,0.7-0.6,0.7
			C11.5,215.5,11.2,215.2,11.2,214.8z"/>
		<path id="XMLID_8525_" d="M15.5,210v5.4h-1.1V210H15.5z"/>
		<path id="XMLID_8527_" d="M17.1,211.5l0.3,1.8c0.1,0.4,0.1,0.7,0.2,1.1h0c0-0.4,0.1-0.7,0.2-1.1l0.3-1.8h1l-1.1,4h-1l-1.1-4H17.1z
			"/>
		<path id="XMLID_8529_" d="M21.2,215.5l-0.1-0.4h0c-0.2,0.3-0.5,0.5-0.9,0.5c-0.6,0-1-0.5-1-1.2c0-1,0.9-1.5,1.8-1.5v-0.1
			c0-0.3-0.2-0.5-0.6-0.5c-0.3,0-0.6,0.1-0.8,0.2l-0.2-0.7c0.2-0.1,0.7-0.3,1.2-0.3c1.2,0,1.4,0.8,1.4,1.6v1.5c0,0.3,0,0.6,0.1,0.9
			H21.2z M21.1,213.5c-0.4,0-0.8,0.1-0.8,0.7c0,0.4,0.2,0.5,0.4,0.5c0.2,0,0.4-0.1,0.4-0.3c0-0.1,0-0.1,0-0.2V213.5z"/>
		<path id="XMLID_8532_" d="M22.8,212.7c0-0.4,0-0.8,0-1.2h0.9l0.1,0.6h0c0.2-0.4,0.5-0.6,0.8-0.6c0.1,0,0.2,0,0.2,0v1.1
			c-0.1,0-0.1,0-0.2,0c-0.2,0-0.5,0.2-0.6,0.6c0,0.1,0,0.2,0,0.4v2h-1.1V212.7z"/>
		<path id="XMLID_8534_" d="M27.1,210h1.1v3.7c0,1.6-0.8,1.8-1.5,1.8c-0.2,0-0.4,0-0.5-0.1l0.1-0.9c0.1,0,0.2,0,0.3,0
			c0.3,0,0.6-0.1,0.6-0.8V210z"/>
		<path id="XMLID_8536_" d="M30.7,215.5l-0.1-0.4h0c-0.2,0.3-0.5,0.5-0.9,0.5c-0.6,0-1-0.5-1-1.2c0-1,0.9-1.5,1.8-1.5v-0.1
			c0-0.3-0.2-0.5-0.6-0.5c-0.3,0-0.6,0.1-0.8,0.2l-0.2-0.7c0.2-0.1,0.7-0.3,1.2-0.3c1.2,0,1.4,0.8,1.4,1.6v1.5c0,0.3,0,0.6,0.1,0.9
			H30.7z M30.5,213.5c-0.4,0-0.8,0.1-0.8,0.7c0,0.4,0.2,0.5,0.4,0.5c0.2,0,0.4-0.1,0.4-0.3c0-0.1,0-0.1,0-0.2V213.5z"/>
		<path id="XMLID_8539_" d="M34.5,215.4c-0.1,0-0.4,0.1-0.7,0.1c-1,0-1.7-0.7-1.7-2c0-1.2,0.7-2.1,1.8-2.1c0.3,0,0.5,0.1,0.6,0.1
			l-0.1,0.8c-0.1,0-0.2-0.1-0.4-0.1c-0.5,0-0.8,0.5-0.8,1.2c0,0.7,0.3,1.2,0.8,1.2c0.2,0,0.3,0,0.4-0.1L34.5,215.4z"/>
		<path id="XMLID_8541_" d="M37.8,213.5c0,1.6-0.9,2.1-1.5,2.1c-0.9,0-1.5-0.7-1.5-2c0-1.4,0.7-2.1,1.5-2.1
			C37.2,211.4,37.8,212.2,37.8,213.5z M35.8,213.5c0,0.7,0.1,1.2,0.5,1.2c0.3,0,0.4-0.7,0.4-1.2c0-0.5-0.1-1.2-0.4-1.2
			C35.9,212.2,35.8,212.9,35.8,213.5z"/>
		<path id="XMLID_8544_" d="M38.4,215.5c0-0.3,0-0.8,0-1.2v-4.4h1.1v2h0c0.2-0.3,0.4-0.5,0.8-0.5c0.8,0,1.1,0.9,1.1,1.9
			c0,1.4-0.5,2.1-1.3,2.1c-0.3,0-0.6-0.1-0.8-0.5h0l-0.1,0.5H38.4z M39.5,214c0,0.1,0,0.2,0,0.3c0.1,0.3,0.2,0.4,0.4,0.4
			c0.4,0,0.5-0.4,0.5-1.2c0-0.7-0.2-1.1-0.5-1.1c-0.2,0-0.3,0.2-0.4,0.4c0,0.1,0,0.2,0,0.2V214z"/>
		<path id="XMLID_8547_" d="M42,214.5c0.2,0.1,0.4,0.2,0.7,0.2c0.3,0,0.4-0.1,0.4-0.4c0-0.2-0.1-0.3-0.5-0.5
			c-0.6-0.4-0.8-0.8-0.8-1.1c0-0.7,0.5-1.2,1.3-1.2c0.3,0,0.6,0.1,0.8,0.2l-0.2,0.8c-0.2-0.1-0.3-0.2-0.5-0.2
			c-0.3,0-0.4,0.2-0.4,0.3c0,0.2,0.1,0.3,0.5,0.5c0.6,0.3,0.8,0.7,0.8,1.2c0,0.8-0.6,1.2-1.4,1.2c-0.3,0-0.7-0.1-0.9-0.2L42,214.5z"
			/>
		<path id="XMLID_8549_" d="M47.5,213.5c0,1.6-0.9,2.1-1.5,2.1c-0.9,0-1.5-0.7-1.5-2c0-1.4,0.7-2.1,1.5-2.1
			C47,211.4,47.5,212.2,47.5,213.5z M45.5,213.5c0,0.7,0.1,1.2,0.5,1.2c0.3,0,0.4-0.7,0.4-1.2c0-0.5-0.1-1.2-0.4-1.2
			C45.6,212.2,45.5,212.9,45.5,213.5z"/>
		<path id="XMLID_8552_" d="M48.1,212.7c0-0.4,0-0.8,0-1.2H49l0,0.5h0c0.2-0.3,0.5-0.5,1-0.5c0.8,0,1.1,0.6,1.1,1.5v2.5H50V213
			c0-0.3-0.1-0.7-0.4-0.7c-0.2,0-0.3,0.1-0.4,0.4c0,0.1-0.1,0.2-0.1,0.4v2.4h-1.1V212.7z"/>
		<path id="XMLID_8554_" d="M52.4,216.2c0.2,0,0.4-0.1,0.5-0.2c0.2-0.2,0.2-0.4,0.2-1.1v-3.5h1.1v3.7c0,0.9-0.2,1.3-0.5,1.6
			c-0.3,0.2-0.8,0.3-1.2,0.3L52.4,216.2z M54.2,210.4c0,0.3-0.2,0.6-0.6,0.6c-0.3,0-0.5-0.2-0.5-0.6c0-0.4,0.2-0.6,0.5-0.6
			C53.9,209.9,54.2,210.1,54.2,210.4z"/>
		<path id="XMLID_8557_" d="M57.8,213.5c0,1.6-0.9,2.1-1.5,2.1c-0.9,0-1.5-0.7-1.5-2c0-1.4,0.7-2.1,1.5-2.1
			C57.2,211.4,57.8,212.2,57.8,213.5z M55.8,213.5c0,0.7,0.1,1.2,0.5,1.2c0.3,0,0.4-0.7,0.4-1.2c0-0.5-0.1-1.2-0.4-1.2
			C55.9,212.2,55.8,212.9,55.8,213.5z"/>
		<path id="XMLID_8560_" d="M59.4,210.4c0,0.3-0.2,0.6-0.6,0.6c-0.3,0-0.5-0.2-0.5-0.6c0-0.4,0.3-0.6,0.5-0.6
			C59.2,209.9,59.4,210.1,59.4,210.4z M58.4,215.5v-4h1.1v4H58.4z"/>
		<path id="XMLID_8563_" d="M60.2,212.7c0-0.4,0-0.8,0-1.2h0.9l0,0.5h0c0.2-0.3,0.5-0.5,1-0.5c0.8,0,1.1,0.6,1.1,1.5v2.5h-1.1V213
			c0-0.3-0.1-0.7-0.4-0.7c-0.2,0-0.3,0.1-0.4,0.4c0,0.1-0.1,0.2-0.1,0.4v2.4h-1.1V212.7z"/>
		<path id="XMLID_8565_" d="M63.9,214.5c0.2,0.1,0.4,0.2,0.7,0.2c0.3,0,0.4-0.1,0.4-0.4c0-0.2-0.1-0.3-0.5-0.5
			c-0.6-0.4-0.8-0.8-0.8-1.1c0-0.7,0.5-1.2,1.3-1.2c0.3,0,0.6,0.1,0.8,0.2l-0.2,0.8c-0.2-0.1-0.3-0.2-0.5-0.2
			c-0.3,0-0.4,0.2-0.4,0.3c0,0.2,0.1,0.3,0.5,0.5c0.6,0.3,0.8,0.7,0.8,1.2c0,0.8-0.6,1.2-1.4,1.2c-0.3,0-0.7-0.1-0.9-0.2L63.9,214.5
			z"/>
		<path id="XMLID_8567_" d="M5.2,219.8c0.3-0.1,0.8-0.1,1.2-0.1c0.6,0,1.1,0.1,1.5,0.4c0.3,0.3,0.4,0.7,0.4,1.1
			c0,0.6-0.3,1.1-0.8,1.4v0c0.4,0.1,0.6,0.5,0.7,1.1c0.1,0.6,0.3,1.3,0.3,1.5H7.3c-0.1-0.2-0.2-0.7-0.3-1.3
			c-0.1-0.7-0.3-0.9-0.6-0.9H6.3v2.2H5.2V219.8z M6.3,222.2h0.2c0.5,0,0.7-0.4,0.7-0.8c0-0.5-0.2-0.8-0.7-0.8c-0.1,0-0.2,0-0.3,0
			V222.2z"/>
		<path id="XMLID_8570_" d="M10.7,225.1l-0.1-0.4h0c-0.2,0.3-0.5,0.5-0.9,0.5c-0.6,0-1-0.5-1-1.2c0-1,0.9-1.5,1.8-1.5v-0.1
			c0-0.3-0.2-0.5-0.6-0.5c-0.3,0-0.6,0.1-0.8,0.2l-0.2-0.7c0.2-0.1,0.7-0.3,1.2-0.3c1.2,0,1.4,0.8,1.4,1.6v1.5c0,0.3,0,0.6,0.1,0.9
			H10.7z M10.5,223.2c-0.4,0-0.8,0.1-0.8,0.7c0,0.4,0.2,0.5,0.4,0.5c0.2,0,0.4-0.1,0.4-0.3c0-0.1,0-0.1,0-0.2V223.2z"/>
		<path id="XMLID_8573_" d="M13.5,220.1v1.1h0.8v0.8h-0.8v1.8c0,0.5,0.2,0.6,0.4,0.6c0.1,0,0.2,0,0.3,0l0,0.8
			c-0.1,0-0.4,0.1-0.6,0.1c-0.3,0-0.6-0.1-0.8-0.3c-0.2-0.2-0.3-0.5-0.3-1.1v-1.9H12v-0.8h0.5v-0.8L13.5,220.1z"/>
		<path id="XMLID_8575_" d="M15.8,220.1c0,0.3-0.2,0.6-0.6,0.6c-0.3,0-0.5-0.2-0.5-0.6c0-0.4,0.3-0.6,0.5-0.6
			C15.6,219.6,15.8,219.8,15.8,220.1z M14.8,225.1v-4h1.1v4H14.8z"/>
		<path id="XMLID_8578_" d="M19.4,223.2c0,1.6-0.9,2.1-1.5,2.1c-0.9,0-1.5-0.7-1.5-2c0-1.4,0.7-2.1,1.5-2.1
			C18.9,221.1,19.4,221.9,19.4,223.2z M17.5,223.2c0,0.7,0.1,1.2,0.5,1.2c0.3,0,0.4-0.7,0.4-1.2c0-0.5-0.1-1.2-0.4-1.2
			C17.5,221.9,17.5,222.6,17.5,223.2z"/>
		<path id="XMLID_8581_" d="M20,222.4c0-0.4,0-0.8,0-1.2h0.9l0,0.5h0c0.2-0.3,0.5-0.5,1-0.5c0.8,0,1.1,0.6,1.1,1.5v2.5h-1.1v-2.5
			c0-0.3-0.1-0.7-0.4-0.7c-0.2,0-0.3,0.1-0.4,0.4c0,0.1-0.1,0.2-0.1,0.4v2.4H20V222.4z"/>
		<path id="XMLID_8583_" d="M25.5,225.1l-0.1-0.4h0c-0.2,0.3-0.5,0.5-0.9,0.5c-0.6,0-1-0.5-1-1.2c0-1,0.9-1.5,1.8-1.5v-0.1
			c0-0.3-0.2-0.5-0.6-0.5c-0.3,0-0.6,0.1-0.8,0.2l-0.2-0.7c0.2-0.1,0.7-0.3,1.2-0.3c1.2,0,1.4,0.8,1.4,1.6v1.5c0,0.3,0,0.6,0.1,0.9
			H25.5z M25.4,223.2c-0.4,0-0.8,0.1-0.8,0.7c0,0.4,0.2,0.5,0.4,0.5c0.2,0,0.4-0.1,0.4-0.3c0-0.1,0-0.1,0-0.2V223.2z"/>
		<path id="XMLID_8586_" d="M27.1,219.6h1.1v5.6h-1.1V219.6z"/>
		<path id="XMLID_8588_" d="M31.8,219.6c-0.5,0.7-0.9,1.8-0.9,3.3c0,1.5,0.4,2.5,0.9,3.3h-0.8c-0.5-0.6-0.9-1.7-0.9-3.3
			c0-1.6,0.5-2.7,0.9-3.3H31.8z"/>
		<path id="XMLID_8590_" d="M32.4,219.7h2.4v0.9h-1.3v1.4h1.2v0.9h-1.2v2.2h-1.1V219.7z"/>
		<path id="XMLID_8592_" d="M37.1,225.1l-0.1-0.4h0c-0.2,0.3-0.5,0.5-0.9,0.5c-0.6,0-1-0.5-1-1.2c0-1,0.9-1.5,1.8-1.5v-0.1
			c0-0.3-0.2-0.5-0.6-0.5c-0.3,0-0.6,0.1-0.8,0.2l-0.2-0.7c0.2-0.1,0.7-0.3,1.2-0.3c1.2,0,1.4,0.8,1.4,1.6v1.5c0,0.3,0,0.6,0.1,0.9
			H37.1z M36.9,223.2c-0.4,0-0.8,0.1-0.8,0.7c0,0.4,0.2,0.5,0.4,0.5c0.2,0,0.4-0.1,0.4-0.3c0-0.1,0-0.1,0-0.2V223.2z"/>
		<path id="XMLID_8595_" d="M38.7,219.6h1.1v5.6h-1.1V219.6z"/>
		<path id="XMLID_8597_" d="M40.5,219.6h1.1v5.6h-1.1V219.6z"/>
		<path id="XMLID_8599_" d="M46.5,223.2c0,1.6-0.9,2.1-1.5,2.1c-0.9,0-1.5-0.7-1.5-2c0-1.4,0.7-2.1,1.5-2.1
			C46,221.1,46.5,221.9,46.5,223.2z M44.6,223.2c0,0.7,0.1,1.2,0.5,1.2c0.3,0,0.4-0.7,0.4-1.2c0-0.5-0.1-1.2-0.4-1.2
			C44.6,221.9,44.6,222.6,44.6,223.2z"/>
		<path id="XMLID_8602_" d="M47.3,225.1v-3.2h-0.5v-0.8h0.5V221c0-0.4,0.1-0.9,0.4-1.2c0.2-0.2,0.6-0.4,0.9-0.4c0.3,0,0.5,0,0.6,0.1
			l-0.1,0.8c-0.1,0-0.2,0-0.3,0c-0.4,0-0.5,0.3-0.5,0.7v0.2h0.7v0.8h-0.7v3.2H47.3z"/>
		<path id="XMLID_8604_" d="M51.8,220.9L51.8,220.9l-0.9,0.5l-0.2-0.8l1.2-0.6h0.9v5.3h-1.1V220.9z"/>
		<path id="XMLID_8606_" d="M54.4,224.3c0.2,0,0.3,0,0.5,0c0.2,0,0.4-0.1,0.6-0.3c0.2-0.2,0.4-0.6,0.5-1.1h0
			c-0.2,0.2-0.4,0.3-0.8,0.3c-0.7,0-1.2-0.6-1.2-1.6c0-0.9,0.6-1.8,1.6-1.8c1,0,1.5,0.9,1.5,2.2c0,1.2-0.4,2-0.9,2.5
			c-0.3,0.3-0.8,0.6-1.3,0.7c-0.2,0-0.3,0-0.5,0V224.3z M55,221.6c0,0.5,0.2,0.9,0.5,0.9c0.2,0,0.3-0.1,0.4-0.3c0-0.1,0-0.2,0-0.6
			c0-0.7-0.2-1.1-0.5-1.1C55.2,220.6,55,220.9,55,221.6z"/>
		<path id="XMLID_8609_" d="M57.8,224.3c0.2,0,0.3,0,0.5,0c0.2,0,0.4-0.1,0.6-0.3c0.2-0.2,0.4-0.6,0.5-1.1h0
			c-0.2,0.2-0.4,0.3-0.8,0.3c-0.7,0-1.2-0.6-1.2-1.6c0-0.9,0.6-1.8,1.6-1.8c1,0,1.5,0.9,1.5,2.2c0,1.2-0.4,2-0.9,2.5
			c-0.3,0.3-0.8,0.6-1.3,0.7c-0.2,0-0.3,0-0.5,0V224.3z M58.5,221.6c0,0.5,0.2,0.9,0.5,0.9c0.2,0,0.3-0.1,0.4-0.3c0-0.1,0-0.2,0-0.6
			c0-0.7-0.2-1.1-0.5-1.1C58.7,220.6,58.5,220.9,58.5,221.6z"/>
		<path id="XMLID_8612_" d="M63.6,220.8h-1.4l-0.1,0.9c0,0,0.1,0,0.2,0c0.2,0,0.7,0.1,1,0.4c0.3,0.3,0.5,0.7,0.5,1.2
			c0,1-0.7,1.9-1.8,1.9c-0.4,0-0.8-0.1-1-0.2l0.2-0.8c0.2,0.1,0.5,0.2,0.8,0.2c0.5,0,0.9-0.3,0.9-0.9c0-0.7-0.5-0.9-1.1-0.9
			c-0.1,0-0.3,0-0.4,0l0.3-2.6h2.2V220.8z"/>
		<path id="XMLID_8614_" d="M64.3,226.1c0.5-0.7,0.9-1.8,0.9-3.3s-0.4-2.5-0.9-3.3H65c0.5,0.6,0.9,1.7,0.9,3.3
			c0,1.6-0.5,2.7-0.9,3.3H64.3z"/>
	</g>
	<g id="XMLID_8421_">
		<path id="XMLID_8422_" d="M0,236.1c0.3-0.1,0.7-0.1,1.1-0.1c0.7,0,1.2,0.2,1.5,0.5c0.5,0.4,0.7,1.1,0.7,2.2c0,1.1-0.3,1.9-0.8,2.3
			c-0.4,0.4-0.9,0.5-1.7,0.5c-0.3,0-0.7,0-0.9-0.1V236.1z M1.1,240.7c0,0,0.1,0,0.2,0c0.5,0,1-0.5,1-2c0-1.1-0.3-1.8-0.9-1.8
			c-0.1,0-0.1,0-0.2,0V240.7z"/>
		<path id="XMLID_8425_" d="M3.9,238.7c0-0.4,0-0.8,0-1.2h0.9l0.1,0.6h0c0.2-0.4,0.5-0.6,0.8-0.6c0.1,0,0.2,0,0.2,0v1.1
			c-0.1,0-0.1,0-0.2,0c-0.2,0-0.5,0.2-0.6,0.6c0,0.1,0,0.2,0,0.4v2H3.9V238.7z"/>
		<path id="XMLID_8427_" d="M8.1,236.1h1.1v3.7c0,1.6-0.8,1.8-1.5,1.8c-0.2,0-0.4,0-0.5-0.1l0.1-0.9c0.1,0,0.2,0,0.3,0
			c0.3,0,0.6-0.1,0.6-0.8V236.1z"/>
		<path id="XMLID_8429_" d="M11.7,241.5l-0.1-0.4h0c-0.2,0.3-0.5,0.5-0.9,0.5c-0.6,0-1-0.5-1-1.2c0-1,0.9-1.5,1.8-1.5v-0.1
			c0-0.3-0.2-0.5-0.6-0.5c-0.3,0-0.6,0.1-0.8,0.2l-0.2-0.7c0.2-0.1,0.7-0.3,1.2-0.3c1.2,0,1.4,0.8,1.4,1.6v1.5c0,0.3,0,0.6,0.1,0.9
			H11.7z M11.6,239.6c-0.4,0-0.8,0.1-0.8,0.7c0,0.4,0.2,0.5,0.4,0.5c0.2,0,0.4-0.1,0.4-0.3c0-0.1,0-0.1,0-0.2V239.6z"/>
		<path id="XMLID_8432_" d="M13.4,238.7c0-0.4,0-0.8,0-1.2h0.9l0,0.5h0c0.2-0.3,0.5-0.5,0.9-0.5c0.4,0,0.7,0.2,0.9,0.5h0
			c0.1-0.2,0.2-0.3,0.4-0.4c0.2-0.1,0.4-0.1,0.6-0.1c0.7,0,1,0.6,1,1.5v2.5h-1.1v-2.3c0-0.5,0-0.8-0.4-0.8c-0.2,0-0.3,0.1-0.4,0.4
			c0,0.1,0,0.2,0,0.3v2.5h-1.1V239c0-0.3,0-0.7-0.4-0.7c-0.2,0-0.3,0.1-0.4,0.4c0,0.1,0,0.2,0,0.3v2.5h-1.1V238.7z"/>
		<path id="XMLID_8434_" d="M19.8,239.9c0,0.6,0.4,0.8,0.8,0.8c0.3,0,0.6-0.1,0.8-0.1l0.1,0.8c-0.3,0.1-0.7,0.2-1.1,0.2
			c-1.1,0-1.7-0.7-1.7-1.9c0-1.3,0.7-2.1,1.6-2.1c0.8,0,1.3,0.7,1.3,1.9c0,0.3,0,0.4,0,0.5H19.8z M20.7,239.2c0-0.5-0.1-0.9-0.4-0.9
			c-0.3,0-0.5,0.5-0.5,0.9H20.7z"/>
		<path id="XMLID_8437_" d="M22.2,240.5c0.2,0.1,0.4,0.2,0.7,0.2c0.3,0,0.4-0.1,0.4-0.4c0-0.2-0.1-0.3-0.5-0.5
			c-0.6-0.4-0.8-0.8-0.8-1.1c0-0.7,0.5-1.2,1.3-1.2c0.3,0,0.6,0.1,0.8,0.2l-0.2,0.8c-0.2-0.1-0.3-0.2-0.5-0.2
			c-0.3,0-0.4,0.2-0.4,0.3c0,0.2,0.1,0.3,0.5,0.5c0.6,0.3,0.8,0.7,0.8,1.2c0,0.8-0.6,1.2-1.4,1.2c-0.3,0-0.7-0.1-0.9-0.2L22.2,240.5
			z"/>
		<path id="XMLID_8439_" d="M26.3,236.1c0.3-0.1,0.8-0.1,1.2-0.1c0.6,0,1.1,0.1,1.5,0.4c0.3,0.3,0.4,0.7,0.4,1.1
			c0,0.6-0.3,1.1-0.8,1.4v0c0.4,0.1,0.6,0.5,0.7,1.1c0.1,0.6,0.3,1.3,0.3,1.5h-1.1c-0.1-0.2-0.2-0.7-0.3-1.3
			c-0.1-0.7-0.3-0.9-0.6-0.9h-0.2v2.2h-1.1V236.1z M27.3,238.5h0.2c0.5,0,0.7-0.4,0.7-0.8c0-0.5-0.2-0.8-0.7-0.8c-0.1,0-0.2,0-0.3,0
			V238.5z"/>
		<path id="XMLID_8442_" d="M32.9,240.3c0,0.4,0,0.8,0,1.2H32l-0.1-0.4h0c-0.2,0.3-0.5,0.5-0.9,0.5c-0.8,0-1.1-0.6-1.1-1.6v-2.4H31
			v2.3c0,0.5,0.1,0.8,0.4,0.8c0.2,0,0.3-0.1,0.3-0.3c0-0.1,0.1-0.2,0.1-0.3v-2.5h1.1V240.3z"/>
		<path id="XMLID_8444_" d="M33.6,238.7c0-0.4,0-0.8,0-1.2h0.9l0,0.5h0c0.2-0.3,0.5-0.5,0.9-0.5c0.4,0,0.7,0.2,0.9,0.5h0
			c0.1-0.2,0.2-0.3,0.4-0.4c0.2-0.1,0.4-0.1,0.6-0.1c0.7,0,1,0.6,1,1.5v2.5h-1.1v-2.3c0-0.5,0-0.8-0.4-0.8c-0.2,0-0.3,0.1-0.4,0.4
			c0,0.1,0,0.2,0,0.3v2.5h-1.1V239c0-0.3,0-0.7-0.4-0.7c-0.2,0-0.3,0.1-0.4,0.4c0,0.1,0,0.2,0,0.3v2.5h-1.1V238.7z"/>
		<path id="XMLID_8446_" d="M39.1,241.5c0-0.3,0-0.8,0-1.2v-4.4h1.1v2h0c0.2-0.3,0.4-0.5,0.8-0.5c0.8,0,1.1,0.9,1.1,1.9
			c0,1.4-0.5,2.1-1.3,2.1c-0.3,0-0.6-0.1-0.8-0.5h0l-0.1,0.5H39.1z M40.2,240.1c0,0.1,0,0.2,0,0.3c0.1,0.3,0.2,0.4,0.4,0.4
			c0.4,0,0.5-0.4,0.5-1.2c0-0.7-0.2-1.1-0.5-1.1c-0.2,0-0.3,0.2-0.4,0.4c0,0.1,0,0.2,0,0.2V240.1z"/>
		<path id="XMLID_8449_" d="M44.5,241.5l-0.1-0.4h0c-0.2,0.3-0.5,0.5-0.9,0.5c-0.6,0-1-0.5-1-1.2c0-1,0.9-1.5,1.8-1.5v-0.1
			c0-0.3-0.2-0.5-0.6-0.5c-0.3,0-0.6,0.1-0.8,0.2l-0.2-0.7c0.2-0.1,0.7-0.3,1.2-0.3c1.2,0,1.4,0.8,1.4,1.6v1.5c0,0.3,0,0.6,0.1,0.9
			H44.5z M44.3,239.6c-0.4,0-0.8,0.1-0.8,0.7c0,0.4,0.2,0.5,0.4,0.5c0.2,0,0.4-0.1,0.4-0.3c0-0.1,0-0.1,0-0.2V239.6z"/>
		<path id="XMLID_8452_" d="M49,240.3c0,0.4,0,0.8,0,1.2h-0.9l-0.1-0.4h0c-0.2,0.3-0.5,0.5-0.9,0.5c-0.8,0-1.1-0.6-1.1-1.6v-2.4h1.1
			v2.3c0,0.5,0.1,0.8,0.4,0.8c0.2,0,0.3-0.1,0.3-0.3c0-0.1,0.1-0.2,0.1-0.3v-2.5H49V240.3z"/>
		<path id="XMLID_8454_" d="M52.7,237.6c0,0.4,0,0.8,0,1.3v2.3c0,0.8-0.2,1.3-0.5,1.6c-0.3,0.3-0.7,0.4-1.3,0.4
			c-0.4,0-0.7-0.1-1-0.2l0.2-0.8c0.2,0.1,0.5,0.2,0.8,0.2c0.5,0,0.7-0.4,0.7-1v-0.2h0c-0.1,0.3-0.4,0.4-0.7,0.4
			c-0.9,0-1.2-1-1.2-1.9c0-1.3,0.6-2.1,1.3-2.1c0.3,0,0.6,0.2,0.7,0.5h0l0.1-0.4H52.7z M51.6,239c0-0.1,0-0.2,0-0.3
			c0-0.2-0.2-0.3-0.3-0.3c-0.4,0-0.5,0.5-0.5,1.2c0,0.7,0.2,1.1,0.5,1.1c0.1,0,0.3-0.1,0.4-0.3c0-0.1,0-0.2,0-0.3V239z"/>
		<path id="XMLID_8457_" d="M53.4,235.9h1.1v2.1h0c0.1-0.1,0.2-0.3,0.3-0.3c0.2-0.1,0.3-0.1,0.5-0.1c0.7,0,1,0.6,1,1.6v2.4h-1.1
			v-2.4c0-0.4-0.1-0.7-0.4-0.7c-0.2,0-0.3,0.1-0.4,0.4c0,0.1,0,0.2,0,0.3v2.5h-1.1V235.9z"/>
		<path id="XMLID_8459_" d="M57.7,242.3c0.2,0,0.4-0.1,0.5-0.2c0.2-0.2,0.2-0.4,0.2-1.1v-3.5h1.1v3.7c0,0.9-0.2,1.3-0.5,1.6
			c-0.3,0.2-0.8,0.3-1.2,0.3L57.7,242.3z M59.5,236.5c0,0.3-0.2,0.6-0.6,0.6c-0.3,0-0.5-0.2-0.5-0.6c0-0.4,0.2-0.6,0.5-0.6
			C59.2,235.9,59.5,236.1,59.5,236.5z"/>
		<path id="XMLID_8462_" d="M63.1,239.5c0,1.6-0.9,2.1-1.5,2.1c-0.9,0-1.5-0.7-1.5-2c0-1.4,0.7-2.1,1.5-2.1
			C62.5,237.5,63.1,238.3,63.1,239.5z M61.1,239.5c0,0.7,0.1,1.2,0.5,1.2c0.3,0,0.4-0.7,0.4-1.2c0-0.5-0.1-1.2-0.4-1.2
			C61.2,238.3,61.1,239,61.1,239.5z"/>
		<path id="XMLID_8465_" d="M64.7,236.5c0,0.3-0.2,0.6-0.6,0.6c-0.3,0-0.5-0.2-0.5-0.6c0-0.4,0.3-0.6,0.5-0.6
			C64.5,235.9,64.7,236.1,64.7,236.5z M63.7,241.5v-4h1.1v4H63.7z"/>
		<path id="XMLID_8468_" d="M65.5,238.7c0-0.4,0-0.8,0-1.2h0.9l0,0.5h0c0.2-0.3,0.5-0.5,1-0.5c0.8,0,1.1,0.6,1.1,1.5v2.5h-1.1V239
			c0-0.3-0.1-0.7-0.4-0.7c-0.2,0-0.3,0.1-0.4,0.4c0,0.1-0.1,0.2-0.1,0.4v2.4h-1.1V238.7z"/>
		<path id="XMLID_8470_" d="M69.1,240.5c0.2,0.1,0.4,0.2,0.7,0.2c0.3,0,0.4-0.1,0.4-0.4c0-0.2-0.1-0.3-0.5-0.5
			c-0.6-0.4-0.8-0.8-0.8-1.1c0-0.7,0.5-1.2,1.3-1.2c0.3,0,0.6,0.1,0.8,0.2l-0.2,0.8c-0.2-0.1-0.3-0.2-0.5-0.2
			c-0.3,0-0.4,0.2-0.4,0.3c0,0.2,0.1,0.3,0.5,0.5c0.6,0.3,0.8,0.7,0.8,1.2c0,0.8-0.6,1.2-1.4,1.2c-0.3,0-0.7-0.1-0.9-0.2L69.1,240.5
			z"/>
		<path id="XMLID_8472_" d="M9,245.8c0.3-0.1,0.8-0.1,1.2-0.1c0.6,0,1.1,0.1,1.5,0.4c0.3,0.3,0.4,0.7,0.4,1.1c0,0.6-0.3,1.1-0.8,1.4
			v0c0.4,0.1,0.6,0.5,0.7,1.1c0.1,0.6,0.3,1.3,0.3,1.5h-1.1c-0.1-0.2-0.2-0.7-0.3-1.3c-0.1-0.7-0.3-0.9-0.6-0.9h-0.2v2.2H9V245.8z
			 M10.1,248.2h0.2c0.5,0,0.7-0.4,0.7-0.8c0-0.5-0.2-0.8-0.7-0.8c-0.1,0-0.2,0-0.3,0V248.2z"/>
		<path id="XMLID_8475_" d="M14.5,251.2l-0.1-0.4h0c-0.2,0.3-0.5,0.5-0.9,0.5c-0.6,0-1-0.5-1-1.2c0-1,0.9-1.5,1.8-1.5v-0.1
			c0-0.3-0.2-0.5-0.6-0.5c-0.3,0-0.6,0.1-0.8,0.2l-0.2-0.7c0.2-0.1,0.7-0.3,1.2-0.3c1.2,0,1.4,0.8,1.4,1.6v1.5c0,0.3,0,0.6,0.1,0.9
			H14.5z M14.3,249.3c-0.4,0-0.8,0.1-0.8,0.7c0,0.4,0.2,0.5,0.4,0.5c0.2,0,0.4-0.1,0.4-0.3c0-0.1,0-0.1,0-0.2V249.3z"/>
		<path id="XMLID_8478_" d="M17.3,246.2v1.1h0.8v0.8h-0.8v1.8c0,0.5,0.2,0.6,0.4,0.6c0.1,0,0.2,0,0.3,0l0,0.8
			c-0.1,0-0.4,0.1-0.6,0.1c-0.3,0-0.6-0.1-0.8-0.3c-0.2-0.2-0.3-0.5-0.3-1.1V248h-0.5v-0.8h0.5v-0.8L17.3,246.2z"/>
		<path id="XMLID_8480_" d="M19.6,246.2c0,0.3-0.2,0.6-0.6,0.6c-0.3,0-0.5-0.2-0.5-0.6c0-0.4,0.3-0.6,0.5-0.6
			C19.4,245.6,19.6,245.8,19.6,246.2z M18.6,251.2v-4h1.1v4H18.6z"/>
		<path id="XMLID_8483_" d="M23.2,249.2c0,1.6-0.9,2.1-1.5,2.1c-0.9,0-1.5-0.7-1.5-2c0-1.4,0.7-2.1,1.5-2.1
			C22.7,247.2,23.2,248,23.2,249.2z M21.3,249.2c0,0.7,0.1,1.2,0.5,1.2c0.3,0,0.4-0.7,0.4-1.2c0-0.5-0.1-1.2-0.4-1.2
			C21.3,248,21.3,248.7,21.3,249.2z"/>
		<path id="XMLID_8486_" d="M23.8,248.4c0-0.4,0-0.8,0-1.2h0.9l0,0.5h0c0.2-0.3,0.5-0.5,1-0.5c0.8,0,1.1,0.6,1.1,1.5v2.5h-1.1v-2.5
			c0-0.3-0.1-0.7-0.4-0.7c-0.2,0-0.3,0.1-0.4,0.4c0,0.1-0.1,0.2-0.1,0.4v2.4h-1.1V248.4z"/>
		<path id="XMLID_8488_" d="M29.3,251.2l-0.1-0.4h0c-0.2,0.3-0.5,0.5-0.9,0.5c-0.6,0-1-0.5-1-1.2c0-1,0.9-1.5,1.8-1.5v-0.1
			c0-0.3-0.2-0.5-0.6-0.5c-0.3,0-0.6,0.1-0.8,0.2l-0.2-0.7c0.2-0.1,0.7-0.3,1.2-0.3c1.2,0,1.4,0.8,1.4,1.6v1.5c0,0.3,0,0.6,0.1,0.9
			H29.3z M29.2,249.3c-0.4,0-0.8,0.1-0.8,0.7c0,0.4,0.2,0.5,0.4,0.5c0.2,0,0.4-0.1,0.4-0.3c0-0.1,0-0.1,0-0.2V249.3z"/>
		<path id="XMLID_8491_" d="M30.9,245.6H32v5.6h-1.1V245.6z"/>
		<path id="XMLID_8493_" d="M35.6,245.6c-0.5,0.7-0.9,1.8-0.9,3.3c0,1.5,0.4,2.5,0.9,3.3h-0.8c-0.5-0.6-0.9-1.7-0.9-3.3
			c0-1.6,0.5-2.7,0.9-3.3H35.6z"/>
		<path id="XMLID_8495_" d="M39.3,248.4c0,2.1-0.7,2.9-1.8,2.9c-1.2,0-1.7-1.3-1.7-2.8c0-1.5,0.6-2.8,1.8-2.8
			C38.9,245.7,39.3,247.1,39.3,248.4z M36.9,248.5c0,1.2,0.2,1.9,0.7,1.9c0.4,0,0.6-0.8,0.6-1.9c0-1-0.1-1.8-0.6-1.8
			C37.1,246.6,36.9,247.3,36.9,248.5z"/>
		<path id="XMLID_8498_" d="M42,251.1c-0.1,0-0.4,0.1-0.7,0.1c-1,0-1.7-0.7-1.7-2c0-1.2,0.7-2.1,1.8-2.1c0.3,0,0.5,0.1,0.6,0.1
			l-0.1,0.8c-0.1,0-0.2-0.1-0.4-0.1c-0.5,0-0.8,0.5-0.8,1.2c0,0.7,0.3,1.2,0.8,1.2c0.2,0,0.3,0,0.4-0.1L42,251.1z"/>
		<path id="XMLID_8500_" d="M43.9,246.2v1.1h0.8v0.8h-0.8v1.8c0,0.5,0.2,0.6,0.4,0.6c0.1,0,0.2,0,0.3,0l0,0.8
			c-0.1,0-0.4,0.1-0.6,0.1c-0.3,0-0.6-0.1-0.8-0.3c-0.2-0.2-0.3-0.5-0.3-1.1V248h-0.5v-0.8h0.5v-0.8L43.9,246.2z"/>
		<path id="XMLID_8502_" d="M45.1,250.6c0-0.4,0.3-0.7,0.6-0.7c0.3,0,0.6,0.3,0.6,0.7c0,0.4-0.3,0.7-0.6,0.7
			C45.3,251.3,45.1,251,45.1,250.6z"/>
		<path id="XMLID_8504_" d="M48,246.9L48,246.9l-0.9,0.5l-0.2-0.8l1.2-0.6h0.9v5.3H48V246.9z"/>
		<path id="XMLID_8506_" d="M50.6,250.4c0.2,0,0.3,0,0.5,0c0.2,0,0.4-0.1,0.6-0.3c0.2-0.2,0.4-0.6,0.5-1.1h0
			c-0.2,0.2-0.4,0.3-0.8,0.3c-0.7,0-1.2-0.6-1.2-1.6c0-0.9,0.6-1.8,1.6-1.8c1,0,1.5,0.9,1.5,2.2c0,1.2-0.4,2-0.9,2.5
			c-0.3,0.3-0.8,0.6-1.3,0.7c-0.2,0-0.3,0-0.5,0V250.4z M51.2,247.6c0,0.5,0.2,0.9,0.5,0.9c0.2,0,0.3-0.1,0.4-0.3c0-0.1,0-0.2,0-0.6
			c0-0.7-0.2-1.1-0.5-1.1C51.4,246.6,51.2,247,51.2,247.6z"/>
		<path id="XMLID_8509_" d="M54,250.4c0.2,0,0.3,0,0.5,0c0.2,0,0.4-0.1,0.6-0.3c0.2-0.2,0.4-0.6,0.5-1.1h0c-0.2,0.2-0.4,0.3-0.8,0.3
			c-0.7,0-1.2-0.6-1.2-1.6c0-0.9,0.6-1.8,1.6-1.8c1,0,1.5,0.9,1.5,2.2c0,1.2-0.4,2-0.9,2.5c-0.3,0.3-0.8,0.6-1.3,0.7
			c-0.2,0-0.3,0-0.5,0V250.4z M54.7,247.6c0,0.5,0.2,0.9,0.5,0.9c0.2,0,0.3-0.1,0.4-0.3c0-0.1,0-0.2,0-0.6c0-0.7-0.2-1.1-0.5-1.1
			C54.9,246.6,54.7,247,54.7,247.6z"/>
		<path id="XMLID_8512_" d="M58.8,251.2v-1.3H57v-0.7l1.7-3.3h1v3.2h0.5v0.8h-0.5v1.3H58.8z M58.8,249.1V248c0-0.3,0-0.6,0.1-0.9h0
			c-0.1,0.3-0.2,0.5-0.4,0.8l-0.6,1.1v0H58.8z"/>
		<path id="XMLID_8515_" d="M60.5,252.2c0.5-0.7,0.9-1.8,0.9-3.3s-0.4-2.5-0.9-3.3h0.8c0.5,0.6,0.9,1.7,0.9,3.3
			c0,1.6-0.5,2.7-0.9,3.3H60.5z"/>
	</g>
	<g id="XMLID_8406_">
		<path id="XMLID_8407_" d="M162.9,241.1c0.3-0.1,0.7-0.1,1.2-0.1c0.5,0,1,0.1,1.4,0.4c0.3,0.2,0.4,0.6,0.4,1c0,0.5-0.3,1-0.8,1.2v0
			c0.6,0.2,1,0.7,1,1.3c0,0.5-0.1,0.8-0.4,1.1c-0.3,0.4-0.9,0.5-1.8,0.5c-0.4,0-0.7,0-1-0.1V241.1z M163.9,243.3h0.2
			c0.4,0,0.7-0.3,0.7-0.8c0-0.4-0.2-0.7-0.6-0.7c-0.1,0-0.2,0-0.3,0V243.3z M163.9,245.7c0.1,0,0.1,0,0.2,0c0.4,0,0.8-0.3,0.8-0.8
			c0-0.5-0.4-0.8-0.8-0.8h-0.2V245.7z"/>
		<path id="XMLID_8411_" d="M169.6,244.5c0,1.6-0.9,2.1-1.5,2.1c-0.9,0-1.5-0.7-1.5-2c0-1.4,0.7-2.1,1.5-2.1
			C169,242.5,169.6,243.2,169.6,244.5z M167.6,244.5c0,0.7,0.1,1.2,0.5,1.2c0.3,0,0.4-0.7,0.4-1.2c0-0.5-0.1-1.2-0.4-1.2
			C167.7,243.3,167.6,243.9,167.6,244.5z"/>
		<path id="XMLID_8414_" d="M173,244.5c0,1.6-0.9,2.1-1.5,2.1c-0.9,0-1.5-0.7-1.5-2c0-1.4,0.7-2.1,1.5-2.1
			C172.5,242.5,173,243.2,173,244.5z M171.1,244.5c0,0.7,0.1,1.2,0.5,1.2c0.3,0,0.4-0.7,0.4-1.2c0-0.5-0.1-1.2-0.4-1.2
			C171.2,243.3,171.1,243.9,171.1,244.5z"/>
		<path id="XMLID_8417_" d="M175.8,246.4c-0.1,0-0.4,0.1-0.7,0.1c-1,0-1.7-0.7-1.7-2c0-1.2,0.7-2.1,1.8-2.1c0.3,0,0.5,0.1,0.6,0.1
			l-0.1,0.8c-0.1,0-0.2-0.1-0.4-0.1c-0.5,0-0.8,0.5-0.8,1.2c0,0.7,0.3,1.2,0.8,1.2c0.2,0,0.3,0,0.4-0.1L175.8,246.4z"/>
		<path id="XMLID_8419_" d="M176.3,240.9h1.1v2.1h0c0.1-0.1,0.2-0.3,0.3-0.3c0.2-0.1,0.3-0.1,0.5-0.1c0.7,0,1,0.6,1,1.6v2.4h-1.1
			v-2.4c0-0.4-0.1-0.7-0.4-0.7c-0.2,0-0.3,0.1-0.4,0.4c0,0.1,0,0.2,0,0.3v2.5h-1.1V240.9z"/>
	</g>
	<g id="XMLID_8388_">
		<path id="XMLID_8389_" d="M208.1,215v3.5c0,0.8,0.2,1,0.5,1c0.3,0,0.5-0.2,0.5-1V215h1.1v3.4c0,1.4-0.5,2.2-1.6,2.2
			c-1.1,0-1.6-0.8-1.6-2.1V215H208.1z"/>
		<path id="XMLID_8391_" d="M210.9,219.5c0.2,0.1,0.4,0.2,0.7,0.2c0.3,0,0.4-0.1,0.4-0.4c0-0.2-0.1-0.3-0.5-0.5
			c-0.6-0.4-0.8-0.8-0.8-1.1c0-0.7,0.5-1.2,1.3-1.2c0.3,0,0.6,0.1,0.8,0.2l-0.2,0.8c-0.2-0.1-0.3-0.2-0.5-0.2
			c-0.3,0-0.4,0.2-0.4,0.3c0,0.2,0.1,0.3,0.5,0.5c0.6,0.3,0.8,0.7,0.8,1.2c0,0.8-0.6,1.2-1.4,1.2c-0.3,0-0.7-0.1-0.9-0.2
			L210.9,219.5z"/>
		<path id="XMLID_8393_" d="M214.4,218.9c0,0.6,0.4,0.8,0.8,0.8c0.3,0,0.6-0.1,0.8-0.1l0.1,0.8c-0.3,0.1-0.7,0.2-1.1,0.2
			c-1.1,0-1.7-0.7-1.7-1.9c0-1.3,0.7-2.1,1.6-2.1c0.8,0,1.3,0.7,1.3,1.9c0,0.3,0,0.4,0,0.5H214.4z M215.4,218.1
			c0-0.5-0.1-0.9-0.4-0.9c-0.3,0-0.5,0.5-0.5,0.9H215.4z"/>
		<path id="XMLID_8396_" d="M220.9,220.4c-0.2,0.1-0.5,0.1-0.8,0.1c-1.4,0-2.1-1.1-2.1-2.7c0-2.1,1.1-2.9,2.2-2.9
			c0.4,0,0.6,0.1,0.7,0.1l-0.2,0.9c-0.1-0.1-0.3-0.1-0.5-0.1c-0.6,0-1.1,0.5-1.1,1.9c0,1.3,0.5,1.8,1.1,1.8c0.2,0,0.4,0,0.5-0.1
			L220.9,220.4z"/>
		<path id="XMLID_8398_" d="M223.2,220.5l-0.1-0.4h0c-0.2,0.3-0.5,0.5-0.9,0.5c-0.6,0-1-0.5-1-1.2c0-1,0.9-1.5,1.8-1.5v-0.1
			c0-0.3-0.2-0.5-0.6-0.5c-0.3,0-0.6,0.1-0.8,0.2l-0.2-0.7c0.2-0.1,0.7-0.3,1.2-0.3c1.2,0,1.4,0.8,1.4,1.6v1.5c0,0.3,0,0.6,0.1,0.9
			H223.2z M223,218.5c-0.4,0-0.8,0.1-0.8,0.7c0,0.4,0.2,0.5,0.4,0.5c0.2,0,0.4-0.1,0.4-0.3c0-0.1,0-0.1,0-0.2V218.5z"/>
		<path id="XMLID_8401_" d="M224.8,219.5c0.2,0.1,0.4,0.2,0.7,0.2c0.3,0,0.4-0.1,0.4-0.4c0-0.2-0.1-0.3-0.5-0.5
			c-0.6-0.4-0.8-0.8-0.8-1.1c0-0.7,0.5-1.2,1.3-1.2c0.3,0,0.6,0.1,0.8,0.2l-0.2,0.8c-0.2-0.1-0.3-0.2-0.5-0.2
			c-0.3,0-0.4,0.2-0.4,0.3c0,0.2,0.1,0.3,0.5,0.5c0.6,0.3,0.8,0.7,0.8,1.2c0,0.8-0.6,1.2-1.4,1.2c-0.3,0-0.7-0.1-0.9-0.2
			L224.8,219.5z"/>
		<path id="XMLID_8403_" d="M228.3,218.9c0,0.6,0.4,0.8,0.8,0.8c0.3,0,0.6-0.1,0.8-0.1l0.1,0.8c-0.3,0.1-0.7,0.2-1.1,0.2
			c-1.1,0-1.7-0.7-1.7-1.9c0-1.3,0.7-2.1,1.6-2.1c0.8,0,1.3,0.7,1.3,1.9c0,0.3,0,0.4,0,0.5H228.3z M229.3,218.1
			c0-0.5-0.1-0.9-0.4-0.9c-0.3,0-0.5,0.5-0.5,0.9H229.3z"/>
	</g>
	<g id="XMLID_8344_">
		<path id="XMLID_8345_" d="M275.4,65.6c0.3-0.1,0.8-0.1,1.2-0.1c0.6,0,1.1,0.1,1.5,0.4c0.3,0.3,0.4,0.7,0.4,1.1
			c0,0.6-0.3,1.1-0.8,1.4v0c0.4,0.1,0.6,0.5,0.7,1.1c0.1,0.6,0.3,1.3,0.3,1.5h-1.1c-0.1-0.2-0.2-0.7-0.3-1.3
			c-0.1-0.7-0.3-0.9-0.6-0.9h-0.2v2.2h-1.1V65.6z M276.4,67.9h0.2c0.5,0,0.7-0.4,0.7-0.8c0-0.5-0.2-0.8-0.7-0.8c-0.1,0-0.2,0-0.3,0
			V67.9z"/>
		<path id="XMLID_8348_" d="M279.9,69.3c0,0.6,0.4,0.8,0.8,0.8c0.3,0,0.6-0.1,0.8-0.1l0.1,0.8c-0.3,0.1-0.7,0.2-1.1,0.2
			c-1.1,0-1.7-0.7-1.7-1.9c0-1.3,0.7-2.1,1.6-2.1c0.8,0,1.3,0.7,1.3,1.9c0,0.3,0,0.4,0,0.5H279.9z M280.9,68.6
			c0-0.5-0.1-0.9-0.4-0.9c-0.3,0-0.5,0.5-0.5,0.9H280.9z"/>
		<path id="XMLID_8351_" d="M283.1,67l0.3,1.8c0.1,0.4,0.1,0.7,0.2,1.1h0c0-0.4,0.1-0.7,0.2-1.1l0.3-1.8h1l-1.1,4h-1l-1.1-4H283.1z"
			/>
		<path id="XMLID_8353_" d="M286.6,65.9c0,0.3-0.2,0.6-0.6,0.6c-0.3,0-0.5-0.2-0.5-0.6c0-0.4,0.3-0.6,0.5-0.6
			C286.4,65.4,286.6,65.6,286.6,65.9z M285.5,70.9v-4h1.1v4H285.5z"/>
		<path id="XMLID_8356_" d="M287.3,70c0.2,0.1,0.4,0.2,0.7,0.2c0.3,0,0.4-0.1,0.4-0.4c0-0.2-0.1-0.3-0.5-0.5
			c-0.6-0.4-0.8-0.8-0.8-1.1c0-0.7,0.5-1.2,1.3-1.2c0.3,0,0.6,0.1,0.8,0.2l-0.2,0.8c-0.2-0.1-0.3-0.2-0.5-0.2
			c-0.3,0-0.4,0.2-0.4,0.3c0,0.2,0.1,0.3,0.5,0.5c0.6,0.3,0.8,0.7,0.8,1.2c0,0.8-0.6,1.2-1.4,1.2c-0.3,0-0.7-0.1-0.9-0.2L287.3,70z"
			/>
		<path id="XMLID_8358_" d="M291,65.9c0,0.3-0.2,0.6-0.6,0.6c-0.3,0-0.5-0.2-0.5-0.6c0-0.4,0.3-0.6,0.5-0.6
			C290.8,65.4,291,65.6,291,65.9z M290,70.9v-4h1.1v4H290z"/>
		<path id="XMLID_8361_" d="M294.7,68.9c0,1.6-0.9,2.1-1.5,2.1c-0.9,0-1.5-0.7-1.5-2c0-1.4,0.7-2.1,1.5-2.1
			C294.1,66.9,294.7,67.7,294.7,68.9z M292.7,68.9c0,0.7,0.1,1.2,0.5,1.2c0.3,0,0.4-0.7,0.4-1.2c0-0.5-0.1-1.2-0.4-1.2
			C292.8,67.7,292.7,68.4,292.7,68.9z"/>
		<path id="XMLID_8364_" d="M295.3,68.2c0-0.4,0-0.8,0-1.2h0.9l0,0.5h0c0.2-0.3,0.5-0.5,1-0.5c0.8,0,1.1,0.6,1.1,1.5v2.5h-1.1v-2.5
			c0-0.3-0.1-0.7-0.4-0.7c-0.2,0-0.3,0.1-0.4,0.4c0,0.1-0.1,0.2-0.1,0.4v2.4h-1.1V68.2z"/>
		<path id="XMLID_8366_" d="M299.8,69.3c0,0.6,0.4,0.8,0.8,0.8c0.3,0,0.6-0.1,0.8-0.1l0.1,0.8c-0.3,0.1-0.7,0.2-1.1,0.2
			c-1.1,0-1.7-0.7-1.7-1.9c0-1.3,0.7-2.1,1.6-2.1c0.8,0,1.3,0.7,1.3,1.9c0,0.3,0,0.4,0,0.5H299.8z M300.8,68.6
			c0-0.5-0.1-0.9-0.4-0.9c-0.3,0-0.5,0.5-0.5,0.9H300.8z"/>
		<path id="XMLID_8369_" d="M302.3,70c0.2,0.1,0.4,0.2,0.7,0.2c0.3,0,0.4-0.1,0.4-0.4c0-0.2-0.1-0.3-0.5-0.5
			c-0.6-0.4-0.8-0.8-0.8-1.1c0-0.7,0.5-1.2,1.3-1.2c0.3,0,0.6,0.1,0.8,0.2l-0.2,0.8c-0.2-0.1-0.3-0.2-0.5-0.2
			c-0.3,0-0.4,0.2-0.4,0.3c0,0.2,0.1,0.3,0.5,0.5c0.6,0.3,0.8,0.7,0.8,1.2c0,0.8-0.6,1.2-1.4,1.2c-0.3,0-0.7-0.1-0.9-0.2L302.3,70z"
			/>
		<path id="XMLID_8371_" d="M277.9,76.2c0-0.4,0-0.8,0-1.2h0.9l0,0.5h0c0.2-0.3,0.5-0.5,0.9-0.5c0.4,0,0.7,0.2,0.9,0.5h0
			c0.1-0.2,0.2-0.3,0.4-0.4c0.2-0.1,0.4-0.1,0.6-0.1c0.7,0,1,0.6,1,1.5V79h-1.1v-2.3c0-0.5,0-0.8-0.4-0.8c-0.2,0-0.3,0.1-0.4,0.4
			c0,0.1,0,0.2,0,0.3V79h-1.1v-2.5c0-0.3,0-0.7-0.4-0.7c-0.2,0-0.3,0.1-0.4,0.4c0,0.1,0,0.2,0,0.3V79h-1.1V76.2z"/>
		<path id="XMLID_8373_" d="M284.3,77.4c0,0.6,0.4,0.8,0.8,0.8c0.3,0,0.6-0.1,0.8-0.1l0.1,0.8c-0.3,0.1-0.7,0.2-1.1,0.2
			c-1.1,0-1.7-0.7-1.7-1.9c0-1.3,0.7-2.1,1.6-2.1c0.8,0,1.3,0.7,1.3,1.9c0,0.3,0,0.4,0,0.5H284.3z M285.2,76.7
			c0-0.5-0.1-0.9-0.4-0.9c-0.3,0-0.5,0.5-0.5,0.9H285.2z"/>
		<path id="XMLID_8376_" d="M286.8,76.2c0-0.4,0-0.8,0-1.2h0.9l0,0.5h0c0.2-0.3,0.5-0.5,1-0.5c0.8,0,1.1,0.6,1.1,1.5V79h-1.1v-2.5
			c0-0.3-0.1-0.7-0.4-0.7c-0.2,0-0.3,0.1-0.4,0.4c0,0.1-0.1,0.2-0.1,0.4V79h-1.1V76.2z"/>
		<path id="XMLID_8378_" d="M293.4,77c0,1.6-0.9,2.1-1.5,2.1c-0.9,0-1.5-0.7-1.5-2c0-1.4,0.7-2.1,1.5-2.1
			C292.8,75,293.4,75.8,293.4,77z M291.4,77c0,0.7,0.1,1.2,0.5,1.2c0.3,0,0.4-0.7,0.4-1.2c0-0.5-0.1-1.2-0.4-1.2
			C291.5,75.8,291.4,76.5,291.4,77z"/>
		<path id="XMLID_8381_" d="M294,76.2c0-0.4,0-0.8,0-1.2h0.9l0.1,0.6h0c0.2-0.4,0.5-0.6,0.8-0.6c0.1,0,0.2,0,0.2,0v1.1
			c-0.1,0-0.1,0-0.2,0c-0.2,0-0.5,0.2-0.6,0.6c0,0.1,0,0.2,0,0.4v2H294V76.2z"/>
		<path id="XMLID_8383_" d="M297.2,77.4c0,0.6,0.4,0.8,0.8,0.8c0.3,0,0.6-0.1,0.8-0.1l0.1,0.8c-0.3,0.1-0.7,0.2-1.1,0.2
			c-1.1,0-1.7-0.7-1.7-1.9c0-1.3,0.7-2.1,1.6-2.1c0.8,0,1.3,0.7,1.3,1.9c0,0.3,0,0.4,0,0.5H297.2z M298.1,76.7
			c0-0.5-0.1-0.9-0.4-0.9c-0.3,0-0.5,0.5-0.5,0.9H298.1z"/>
		<path id="XMLID_8386_" d="M299.7,78.1c0.2,0.1,0.4,0.2,0.7,0.2c0.3,0,0.4-0.1,0.4-0.4c0-0.2-0.1-0.3-0.5-0.5
			c-0.6-0.4-0.8-0.8-0.8-1.1c0-0.7,0.5-1.2,1.3-1.2c0.3,0,0.6,0.1,0.8,0.2l-0.2,0.8c-0.2-0.1-0.3-0.2-0.5-0.2
			c-0.3,0-0.4,0.2-0.4,0.3c0,0.2,0.1,0.3,0.5,0.5c0.6,0.3,0.8,0.7,0.8,1.2c0,0.8-0.6,1.2-1.4,1.2c-0.3,0-0.7-0.1-0.9-0.2L299.7,78.1
			z"/>
	</g>
	<g id="XMLID_7990_">
		<path id="XMLID_7991_" d="M222.3,178.7c0-0.5-0.1-1.2,0-1.8h0c-0.1,0.6-0.2,1.3-0.3,1.7l-0.5,1.9h-0.8l-0.5-1.9
			c-0.1-0.4-0.3-1.1-0.3-1.7h0c0,0.6,0,1.3-0.1,1.8l-0.1,1.9h-0.9l0.4-5.4h1.1l0.4,2c0.2,0.7,0.3,1.3,0.4,1.9h0
			c0.1-0.6,0.2-1.2,0.3-1.9l0.4-2h1.1l0.3,5.4h-0.9L222.3,178.7z"/>
		<path id="XMLID_7993_" d="M225.1,175.6c0,0.3-0.2,0.6-0.6,0.6c-0.3,0-0.5-0.2-0.5-0.6c0-0.4,0.3-0.6,0.5-0.6
			C224.8,175.1,225.1,175.3,225.1,175.6z M224,180.6v-4h1.1v4H224z"/>
		<path id="XMLID_7996_" d="M228,180.6c-0.1,0-0.4,0.1-0.7,0.1c-1,0-1.7-0.7-1.7-2c0-1.2,0.7-2.1,1.8-2.1c0.3,0,0.5,0.1,0.6,0.1
			l-0.1,0.8c-0.1,0-0.2-0.1-0.4-0.1c-0.5,0-0.8,0.5-0.8,1.2c0,0.7,0.3,1.2,0.8,1.2c0.2,0,0.3,0,0.4-0.1L228,180.6z"/>
		<path id="XMLID_7998_" d="M228.4,177.9c0-0.4,0-0.8,0-1.2h0.9l0.1,0.6h0c0.2-0.4,0.5-0.6,0.8-0.6c0.1,0,0.2,0,0.2,0v1.1
			c-0.1,0-0.1,0-0.2,0c-0.2,0-0.5,0.2-0.6,0.6c0,0.1,0,0.2,0,0.4v2h-1.1V177.9z"/>
		<path id="XMLID_8000_" d="M233.7,178.6c0,1.6-0.9,2.1-1.5,2.1c-0.9,0-1.5-0.7-1.5-2c0-1.4,0.7-2.1,1.5-2.1
			C233.1,176.6,233.7,177.4,233.7,178.6z M231.7,178.6c0,0.7,0.1,1.2,0.5,1.2c0.3,0,0.4-0.7,0.4-1.2c0-0.5-0.1-1.2-0.4-1.2
			C231.8,177.4,231.7,178.1,231.7,178.6z"/>
		<path id="XMLID_8003_" d="M234.2,179.7c0.2,0.1,0.4,0.2,0.7,0.2c0.3,0,0.4-0.1,0.4-0.4c0-0.2-0.1-0.3-0.5-0.5
			c-0.6-0.4-0.8-0.8-0.8-1.1c0-0.7,0.5-1.2,1.3-1.2c0.3,0,0.6,0.1,0.8,0.2l-0.2,0.8c-0.2-0.1-0.3-0.2-0.5-0.2
			c-0.3,0-0.4,0.2-0.4,0.3c0,0.2,0.1,0.3,0.5,0.5c0.6,0.3,0.8,0.7,0.8,1.2c0,0.8-0.6,1.2-1.4,1.2c-0.3,0-0.7-0.1-0.9-0.2
			L234.2,179.7z"/>
		<path id="XMLID_8005_" d="M239.8,178.6c0,1.6-0.9,2.1-1.5,2.1c-0.9,0-1.5-0.7-1.5-2c0-1.4,0.7-2.1,1.5-2.1
			C239.2,176.6,239.8,177.4,239.8,178.6z M237.8,178.6c0,0.7,0.1,1.2,0.5,1.2c0.3,0,0.4-0.7,0.4-1.2c0-0.5-0.1-1.2-0.4-1.2
			C237.9,177.4,237.8,178.1,237.8,178.6z"/>
		<path id="XMLID_8008_" d="M240.5,180.6v-3.2H240v-0.8h0.5v-0.2c0-0.4,0.1-0.9,0.4-1.2c0.2-0.2,0.6-0.4,0.9-0.4
			c0.3,0,0.5,0,0.6,0.1l-0.1,0.8c-0.1,0-0.2,0-0.3,0c-0.4,0-0.5,0.3-0.5,0.7v0.2h0.7v0.8h-0.7v3.2H240.5z"/>
		<path id="XMLID_8010_" d="M243.9,175.6v1.1h0.8v0.8h-0.8v1.8c0,0.5,0.2,0.6,0.4,0.6c0.1,0,0.2,0,0.3,0l0,0.8
			c-0.1,0-0.4,0.1-0.6,0.1c-0.3,0-0.6-0.1-0.8-0.3c-0.2-0.2-0.3-0.5-0.3-1.1v-1.9h-0.5v-0.8h0.5v-0.8L243.9,175.6z"/>
		<path id="XMLID_8012_" d="M244.8,181.6c0.2-0.7,0.5-1.5,0.5-2.1l1.1-0.1c-0.2,0.7-0.6,1.6-0.9,2.2L244.8,181.6z"/>
		<path id="XMLID_8014_" d="M251.6,177.8c0,2.1-0.7,2.9-1.8,2.9c-1.2,0-1.7-1.3-1.7-2.8c0-1.5,0.6-2.8,1.8-2.8
			C251.2,175.1,251.6,176.6,251.6,177.8z M249.2,177.9c0,1.2,0.2,1.9,0.7,1.9c0.4,0,0.6-0.8,0.6-1.9c0-1-0.1-1.8-0.6-1.8
			C249.5,176,249.2,176.7,249.2,177.9z"/>
		<path id="XMLID_8017_" d="M252.2,177.9c0-0.4,0-0.8,0-1.2h0.9l0.1,0.6h0c0.2-0.4,0.5-0.6,0.8-0.6c0.1,0,0.2,0,0.2,0v1.1
			c-0.1,0-0.1,0-0.2,0c-0.2,0-0.5,0.2-0.6,0.6c0,0.1,0,0.2,0,0.4v2h-1.1V177.9z"/>
		<path id="XMLID_8020_" d="M256.4,180.6l-0.1-0.4h0c-0.2,0.3-0.5,0.5-0.9,0.5c-0.6,0-1-0.5-1-1.2c0-1,0.9-1.5,1.8-1.5v-0.1
			c0-0.3-0.2-0.5-0.6-0.5c-0.3,0-0.6,0.1-0.8,0.2l-0.2-0.7c0.2-0.1,0.7-0.3,1.2-0.3c1.2,0,1.4,0.8,1.4,1.6v1.5c0,0.3,0,0.6,0.1,0.9
			H256.4z M256.2,178.7c-0.4,0-0.8,0.1-0.8,0.7c0,0.4,0.2,0.5,0.4,0.5c0.2,0,0.4-0.1,0.4-0.3c0-0.1,0-0.1,0-0.2V178.7z"/>
		<path id="XMLID_8023_" d="M260.2,180.6c-0.1,0-0.4,0.1-0.7,0.1c-1,0-1.7-0.7-1.7-2c0-1.2,0.7-2.1,1.8-2.1c0.3,0,0.5,0.1,0.6,0.1
			l-0.1,0.8c-0.1,0-0.2-0.1-0.4-0.1c-0.5,0-0.8,0.5-0.8,1.2c0,0.7,0.3,1.2,0.8,1.2c0.2,0,0.3,0,0.4-0.1L260.2,180.6z"/>
		<path id="XMLID_8025_" d="M260.6,175h1.1v5.6h-1.1V175z"/>
		<path id="XMLID_8027_" d="M263.3,179c0,0.6,0.4,0.8,0.8,0.8c0.3,0,0.6-0.1,0.8-0.1l0.1,0.8c-0.3,0.1-0.7,0.2-1.1,0.2
			c-1.1,0-1.7-0.7-1.7-1.9c0-1.3,0.7-2.1,1.6-2.1c0.8,0,1.3,0.7,1.3,1.9c0,0.3,0,0.4,0,0.5H263.3z M264.3,178.3
			c0-0.5-0.1-0.9-0.4-0.9c-0.3,0-0.5,0.5-0.5,0.9H264.3z"/>
		<path id="XMLID_8030_" d="M265.5,181.6c0.2-0.7,0.5-1.5,0.5-2.1l1.1-0.1c-0.2,0.7-0.6,1.6-0.9,2.2L265.5,181.6z"/>
		<path id="XMLID_8032_" d="M270.1,175.2v5.4H269v-5.4H270.1z"/>
		<path id="XMLID_8034_" d="M271,175.3c0.3-0.1,0.7-0.1,1.2-0.1c0.5,0,1,0.1,1.4,0.4c0.3,0.2,0.4,0.6,0.4,1c0,0.5-0.3,1-0.8,1.2v0
			c0.6,0.2,1,0.7,1,1.3c0,0.5-0.1,0.8-0.4,1.1c-0.3,0.4-0.9,0.5-1.8,0.5c-0.4,0-0.7,0-1-0.1V175.3z M272.1,177.4h0.2
			c0.4,0,0.7-0.3,0.7-0.8c0-0.4-0.2-0.7-0.6-0.7c-0.1,0-0.2,0-0.3,0V177.4z M272.1,179.8c0.1,0,0.1,0,0.2,0c0.4,0,0.8-0.3,0.8-0.8
			c0-0.5-0.4-0.8-0.8-0.8h-0.2V179.8z"/>
		<path id="XMLID_8038_" d="M278.2,178.7c0-0.5-0.1-1.2,0-1.8h0c-0.1,0.6-0.2,1.3-0.3,1.7l-0.5,1.9h-0.8l-0.5-1.9
			c-0.1-0.4-0.3-1.1-0.3-1.7h0c0,0.6,0,1.3-0.1,1.8l-0.1,1.9h-0.9l0.4-5.4h1.1l0.4,2c0.2,0.7,0.3,1.3,0.4,1.9h0
			c0.1-0.6,0.2-1.2,0.3-1.9l0.4-2h1.1l0.3,5.4h-0.9L278.2,178.7z"/>
		<path id="XMLID_8040_" d="M279.7,181.6c0.2-0.7,0.5-1.5,0.5-2.1l1.1-0.1c-0.2,0.7-0.6,1.6-0.9,2.2L279.7,181.6z"/>
		<path id="XMLID_8042_" d="M284.3,175.2v2.2h1.1v-2.2h1.1v5.4h-1.1v-2.3h-1.1v2.3h-1.1v-5.4H284.3z"/>
		<path id="XMLID_8044_" d="M287.4,175.3c0.3-0.1,0.7-0.1,1.1-0.1c0.6,0,1.1,0.1,1.5,0.4c0.3,0.3,0.5,0.7,0.5,1.2
			c0,0.6-0.2,1-0.5,1.3c-0.3,0.4-0.9,0.5-1.3,0.5c-0.1,0-0.1,0-0.2,0v2h-1.1V175.3z M288.4,177.7c0,0,0.1,0,0.2,0
			c0.5,0,0.8-0.4,0.8-0.9c0-0.5-0.2-0.8-0.7-0.8c-0.1,0-0.2,0-0.3,0V177.7z"/>
		<path id="XMLID_8047_" d="M293.1,176.7l0.4,2.1c0,0.2,0.1,0.5,0.1,0.7h0c0-0.2,0.1-0.4,0.1-0.6l0.3-2.1h1l-0.8,3
			c-0.2,0.7-0.5,1.5-0.9,2c-0.3,0.4-0.7,0.6-0.9,0.6l-0.3-0.9c0.2-0.1,0.4-0.2,0.5-0.3c0.1-0.1,0.3-0.3,0.3-0.5
			c0-0.1,0.1-0.1,0.1-0.2c0,0,0-0.1,0-0.1l-1.1-3.7H293.1z"/>
		<path id="XMLID_8049_" d="M221,186.7c0,1.6-0.9,2.1-1.5,2.1c-0.9,0-1.5-0.7-1.5-2c0-1.4,0.7-2.1,1.5-2.1
			C220.4,184.7,221,185.5,221,186.7z M219,186.7c0,0.7,0.1,1.2,0.5,1.2c0.3,0,0.4-0.7,0.4-1.2c0-0.5-0.1-1.2-0.4-1.2
			C219.1,185.5,219,186.2,219,186.7z"/>
		<path id="XMLID_8052_" d="M222.8,183.7v1.1h0.8v0.8h-0.8v1.8c0,0.5,0.2,0.6,0.4,0.6c0.1,0,0.2,0,0.3,0l0,0.8
			c-0.1,0-0.4,0.1-0.6,0.1c-0.3,0-0.6-0.1-0.8-0.3c-0.2-0.2-0.3-0.5-0.3-1.1v-1.9h-0.5v-0.8h0.5v-0.8L222.8,183.7z"/>
		<path id="XMLID_8054_" d="M224.1,185.9c0-0.4,0-0.8,0-1.2h0.9l0.1,0.6h0c0.2-0.4,0.5-0.6,0.8-0.6c0.1,0,0.2,0,0.2,0v1.1
			c-0.1,0-0.1,0-0.2,0c-0.2,0-0.5,0.2-0.6,0.6c0,0.1,0,0.2,0,0.4v2h-1.1V185.9z"/>
		<path id="XMLID_8056_" d="M229.3,186.7c0,1.6-0.9,2.1-1.5,2.1c-0.9,0-1.5-0.7-1.5-2c0-1.4,0.7-2.1,1.5-2.1
			C228.7,184.7,229.3,185.5,229.3,186.7z M227.3,186.7c0,0.7,0.1,1.2,0.5,1.2c0.3,0,0.4-0.7,0.4-1.2c0-0.5-0.1-1.2-0.4-1.2
			C227.4,185.5,227.3,186.2,227.3,186.7z"/>
		<path id="XMLID_8059_" d="M229.9,187.8c0.2,0.1,0.4,0.2,0.7,0.2c0.3,0,0.4-0.1,0.4-0.4c0-0.2-0.1-0.3-0.5-0.5
			c-0.6-0.4-0.8-0.8-0.8-1.1c0-0.7,0.5-1.2,1.3-1.2c0.3,0,0.6,0.1,0.8,0.2l-0.2,0.8c-0.2-0.1-0.3-0.2-0.5-0.2
			c-0.3,0-0.4,0.2-0.4,0.3c0,0.2,0.1,0.3,0.5,0.5c0.6,0.3,0.8,0.7,0.8,1.2c0,0.8-0.6,1.2-1.4,1.2c-0.3,0-0.7-0.1-0.9-0.2
			L229.9,187.8z"/>
		<path id="XMLID_8061_" d="M233.8,183.1h1.1v5.6h-1.1V183.1z"/>
		<path id="XMLID_8063_" d="M235.6,188.7v-4h1.1v4H235.6z M237.3,183.1l-0.8,1.1h-0.7l0.6-1.1H237.3z"/>
		<path id="XMLID_8066_" d="M240.3,183.1v4.4c0,0.4,0,0.8,0,1.2h-0.9l-0.1-0.4h0c-0.1,0.3-0.5,0.5-0.8,0.5c-0.8,0-1.2-0.9-1.2-2
			c0-1.4,0.6-2,1.3-2c0.3,0,0.6,0.2,0.7,0.4h0v-2H240.3z M239.2,186.3c0-0.1,0-0.2,0-0.2c0-0.2-0.2-0.5-0.4-0.5
			c-0.4,0-0.5,0.5-0.5,1.2c0,0.8,0.2,1.1,0.5,1.1c0.1,0,0.3-0.1,0.4-0.3c0-0.1,0-0.1,0-0.2V186.3z"/>
		<path id="XMLID_8069_" d="M241.9,187.1c0,0.6,0.4,0.8,0.8,0.8c0.3,0,0.6-0.1,0.8-0.1l0.1,0.8c-0.3,0.1-0.7,0.2-1.1,0.2
			c-1.1,0-1.7-0.7-1.7-1.9c0-1.3,0.7-2.1,1.6-2.1c0.8,0,1.3,0.7,1.3,1.9c0,0.3,0,0.4,0,0.5H241.9z M242.9,186.4
			c0-0.5-0.1-0.9-0.4-0.9c-0.3,0-0.5,0.5-0.5,0.9H242.9z"/>
		<path id="XMLID_8072_" d="M244.4,185.9c0-0.4,0-0.8,0-1.2h0.9l0.1,0.6h0c0.2-0.4,0.5-0.6,0.8-0.6c0.1,0,0.2,0,0.2,0v1.1
			c-0.1,0-0.1,0-0.2,0c-0.2,0-0.5,0.2-0.6,0.6c0,0.1,0,0.2,0,0.4v2h-1.1V185.9z"/>
		<path id="XMLID_8074_" d="M247.6,187.1c0,0.6,0.4,0.8,0.8,0.8c0.3,0,0.6-0.1,0.8-0.1l0.1,0.8c-0.3,0.1-0.7,0.2-1.1,0.2
			c-1.1,0-1.7-0.7-1.7-1.9c0-1.3,0.7-2.1,1.6-2.1c0.8,0,1.3,0.7,1.3,1.9c0,0.3,0,0.4,0,0.5H247.6z M248.6,186.4
			c0-0.5-0.1-0.9-0.4-0.9c-0.3,0-0.5,0.5-0.5,0.9H248.6z"/>
		<path id="XMLID_8077_" d="M250.1,187.8c0.2,0.1,0.4,0.2,0.7,0.2c0.3,0,0.4-0.1,0.4-0.4c0-0.2-0.1-0.3-0.5-0.5
			c-0.6-0.4-0.8-0.8-0.8-1.1c0-0.7,0.5-1.2,1.3-1.2c0.3,0,0.6,0.1,0.8,0.2l-0.2,0.8c-0.2-0.1-0.3-0.2-0.5-0.2
			c-0.3,0-0.4,0.2-0.4,0.3c0,0.2,0.1,0.3,0.5,0.5c0.6,0.3,0.8,0.7,0.8,1.2c0,0.8-0.6,1.2-1.4,1.2c-0.3,0-0.7-0.1-0.9-0.2
			L250.1,187.8z"/>
		<path id="XMLID_8079_" d="M256.9,183.1v4.4c0,0.4,0,0.8,0,1.2H256l-0.1-0.4h0c-0.1,0.3-0.5,0.5-0.8,0.5c-0.8,0-1.2-0.9-1.2-2
			c0-1.4,0.6-2,1.3-2c0.3,0,0.6,0.2,0.7,0.4h0v-2H256.9z M255.9,186.3c0-0.1,0-0.2,0-0.2c0-0.2-0.2-0.5-0.4-0.5
			c-0.4,0-0.5,0.5-0.5,1.2c0,0.8,0.2,1.1,0.5,1.1c0.1,0,0.3-0.1,0.4-0.3c0-0.1,0-0.1,0-0.2V186.3z"/>
		<path id="XMLID_8082_" d="M258.5,187.1c0,0.6,0.4,0.8,0.8,0.8c0.3,0,0.6-0.1,0.8-0.1l0.1,0.8c-0.3,0.1-0.7,0.2-1.1,0.2
			c-1.1,0-1.7-0.7-1.7-1.9c0-1.3,0.7-2.1,1.6-2.1c0.8,0,1.3,0.7,1.3,1.9c0,0.3,0,0.4,0,0.5H258.5z M259.5,186.4
			c0-0.5-0.1-0.9-0.4-0.9c-0.3,0-0.5,0.5-0.5,0.9H259.5z"/>
		<path id="XMLID_8085_" d="M262.3,183.1h1.1v5.6h-1.1V183.1z"/>
		<path id="XMLID_8087_" d="M265.9,188.7l-0.1-0.4h0c-0.2,0.3-0.5,0.5-0.9,0.5c-0.6,0-1-0.5-1-1.2c0-1,0.9-1.5,1.8-1.5V186
			c0-0.3-0.2-0.5-0.6-0.5c-0.3,0-0.6,0.1-0.8,0.2l-0.2-0.7c0.2-0.1,0.7-0.3,1.2-0.3c1.2,0,1.4,0.8,1.4,1.6v1.5c0,0.3,0,0.6,0.1,0.9
			H265.9z M265.8,186.8c-0.4,0-0.8,0.1-0.8,0.7c0,0.4,0.2,0.5,0.4,0.5c0.2,0,0.4-0.1,0.4-0.3c0-0.1,0-0.1,0-0.2V186.8z"/>
		<path id="XMLID_8090_" d="M269.9,183.7c0,0.3-0.2,0.6-0.6,0.6c-0.3,0-0.5-0.2-0.5-0.6c0-0.4,0.3-0.6,0.5-0.6
			C269.7,183.1,269.9,183.4,269.9,183.7z M268.8,188.7v-4h1.1v4H268.8z"/>
		<path id="XMLID_8093_" d="M270.6,185.9c0-0.4,0-0.8,0-1.2h0.9l0,0.5h0c0.2-0.3,0.5-0.5,1-0.5c0.8,0,1.1,0.6,1.1,1.5v2.5h-1.1v-2.5
			c0-0.3-0.1-0.7-0.4-0.7c-0.2,0-0.3,0.1-0.4,0.4c0,0.1-0.1,0.2-0.1,0.4v2.4h-1.1V185.9z"/>
		<path id="XMLID_8095_" d="M277.2,183.1v4.4c0,0.4,0,0.8,0,1.2h-0.9l-0.1-0.4h0c-0.1,0.3-0.5,0.5-0.8,0.5c-0.8,0-1.2-0.9-1.2-2
			c0-1.4,0.6-2,1.3-2c0.3,0,0.6,0.2,0.7,0.4h0v-2H277.2z M276.2,186.3c0-0.1,0-0.2,0-0.2c0-0.2-0.2-0.5-0.4-0.5
			c-0.4,0-0.5,0.5-0.5,1.2c0,0.8,0.2,1.1,0.5,1.1c0.1,0,0.3-0.1,0.4-0.3c0-0.1,0-0.1,0-0.2V186.3z"/>
		<path id="XMLID_8098_" d="M280.9,187.5c0,0.4,0,0.8,0,1.2H280l-0.1-0.4h0c-0.2,0.3-0.5,0.5-0.9,0.5c-0.8,0-1.1-0.6-1.1-1.6v-2.4
			h1.1v2.3c0,0.5,0.1,0.8,0.4,0.8c0.2,0,0.3-0.1,0.3-0.3c0-0.1,0.1-0.2,0.1-0.3v-2.5h1.1V187.5z"/>
		<path id="XMLID_8330_" d="M281.6,187.8c0.2,0.1,0.4,0.2,0.7,0.2c0.3,0,0.4-0.1,0.4-0.4c0-0.2-0.1-0.3-0.5-0.5
			c-0.6-0.4-0.8-0.8-0.8-1.1c0-0.7,0.5-1.2,1.3-1.2c0.3,0,0.6,0.1,0.8,0.2l-0.2,0.8c-0.2-0.1-0.3-0.2-0.5-0.2
			c-0.3,0-0.4,0.2-0.4,0.3c0,0.2,0.1,0.3,0.5,0.5c0.6,0.3,0.8,0.7,0.8,1.2c0,0.8-0.6,1.2-1.4,1.2c-0.3,0-0.7-0.1-0.9-0.2
			L281.6,187.8z"/>
		<path id="XMLID_8332_" d="M285.5,183.7v1.1h0.8v0.8h-0.8v1.8c0,0.5,0.2,0.6,0.4,0.6c0.1,0,0.2,0,0.3,0l0,0.8
			c-0.1,0-0.4,0.1-0.6,0.1c-0.3,0-0.6-0.1-0.8-0.3c-0.2-0.2-0.3-0.5-0.3-1.1v-1.9h-0.5v-0.8h0.5v-0.8L285.5,183.7z"/>
		<path id="XMLID_8334_" d="M286.7,185.9c0-0.4,0-0.8,0-1.2h0.9l0.1,0.6h0c0.2-0.4,0.5-0.6,0.8-0.6c0.1,0,0.2,0,0.2,0v1.1
			c-0.1,0-0.1,0-0.2,0c-0.2,0-0.5,0.2-0.6,0.6c0,0.1,0,0.2,0,0.4v2h-1.1V185.9z"/>
		<path id="XMLID_8336_" d="M290.2,183.7c0,0.3-0.2,0.6-0.6,0.6c-0.3,0-0.5-0.2-0.5-0.6c0-0.4,0.3-0.6,0.5-0.6
			C289.9,183.1,290.2,183.4,290.2,183.7z M289.1,188.7v-4h1.1v4H289.1z"/>
		<path id="XMLID_8339_" d="M292.7,188.7l-0.1-0.4h0c-0.2,0.3-0.5,0.5-0.9,0.5c-0.6,0-1-0.5-1-1.2c0-1,0.9-1.5,1.8-1.5V186
			c0-0.3-0.2-0.5-0.6-0.5c-0.3,0-0.6,0.1-0.8,0.2l-0.2-0.7c0.2-0.1,0.7-0.3,1.2-0.3c1.2,0,1.4,0.8,1.4,1.6v1.5c0,0.3,0,0.6,0.1,0.9
			H292.7z M292.5,186.8c-0.4,0-0.8,0.1-0.8,0.7c0,0.4,0.2,0.5,0.4,0.5c0.2,0,0.4-0.1,0.4-0.3c0-0.1,0-0.1,0-0.2V186.8z"/>
		<path id="XMLID_8342_" d="M294.3,188.1c0-0.4,0.3-0.7,0.6-0.7c0.3,0,0.6,0.3,0.6,0.7c0,0.4-0.3,0.7-0.6,0.7
			C294.6,188.8,294.3,188.5,294.3,188.1z"/>
	</g>
	<g id="XMLID_7441_">
		<g id="XMLID_7443_">
			<path id="XMLID_153_" class="st0" d="M112.3,202.8c-1.8,0-3.3-1.5-3.3-3.3v-6.3c0-1.8,1.5-3.3,3.3-3.3h58.9
				c1.8,0,3.3,1.5,3.3,3.3v6.3c0,1.8-1.5,3.3-3.3,3.3H112.3z"/>
			<path id="XMLID_149_" class="st1" d="M171.3,190.7c1.4,0,2.5,1.1,2.5,2.5v6.3c0,1.4-1.1,2.5-2.5,2.5h-58.9
				c-1.4,0-2.5-1.1-2.5-2.5v-6.3c0-1.4,1.1-2.5,2.5-2.5H171.3 M171.3,189.2h-58.9c-2.2,0-4,1.8-4,4v6.3c0,2.2,1.8,4,4,4h58.9
				c2.2,0,4-1.8,4-4v-6.3C175.3,191,173.5,189.2,171.3,189.2L171.3,189.2z"/>
		</g>
		<g id="XMLID_7950_">
			<path id="XMLID_7951_" class="st1" d="M116.5,194v3.5c0,0.8,0.2,1,0.5,1c0.3,0,0.5-0.2,0.5-1V194h1.1v3.4c0,1.4-0.5,2.2-1.6,2.2
				c-1.1,0-1.6-0.8-1.6-2.1V194H116.5z"/>
			<path id="XMLID_7953_" class="st1" d="M119.5,196.7c0-0.4,0-0.8,0-1.2h0.9l0,0.5h0c0.2-0.3,0.5-0.5,1-0.5c0.8,0,1.1,0.6,1.1,1.5
				v2.5h-1.1v-2.5c0-0.3-0.1-0.7-0.4-0.7c-0.2,0-0.3,0.1-0.4,0.4c0,0.1-0.1,0.2-0.1,0.4v2.4h-1.1V196.7z"/>
			<path id="XMLID_7955_" class="st1" d="M124.2,194.4c0,0.3-0.2,0.6-0.6,0.6c-0.3,0-0.5-0.2-0.5-0.6c0-0.4,0.3-0.6,0.5-0.6
				C124,193.8,124.2,194.1,124.2,194.4z M123.2,199.4v-4h1.1v4H123.2z"/>
			<path id="XMLID_7958_" class="st1" d="M125.1,199.4v-3.2h-0.5v-0.8h0.5v-0.2c0-0.5,0.3-1.5,1.8-1.5c0.4,0,0.7,0.1,0.9,0.2
				l-0.2,0.8c-0.2-0.1-0.4-0.1-0.7-0.1c-0.6,0-0.7,0.3-0.7,0.7v0.1h2v4h-1.1v-3.2h-0.9v3.2H125.1z"/>
			<path id="XMLID_7960_" class="st1" d="M129.8,197.8c0,0.6,0.4,0.8,0.8,0.8c0.3,0,0.6-0.1,0.8-0.1l0.1,0.8
				c-0.3,0.1-0.7,0.2-1.1,0.2c-1.1,0-1.7-0.7-1.7-1.9c0-1.3,0.7-2.1,1.6-2.1c0.8,0,1.3,0.7,1.3,1.9c0,0.3,0,0.4,0,0.5H129.8z
				 M130.7,197.1c0-0.5-0.1-0.9-0.4-0.9c-0.3,0-0.5,0.5-0.5,0.9H130.7z"/>
			<path id="XMLID_7963_" class="st1" d="M135.2,193.8v4.4c0,0.4,0,0.8,0,1.2h-0.9l-0.1-0.4h0c-0.1,0.3-0.5,0.5-0.8,0.5
				c-0.8,0-1.2-0.9-1.2-2c0-1.4,0.6-2,1.3-2c0.3,0,0.6,0.2,0.7,0.4h0v-2H135.2z M134.1,197c0-0.1,0-0.2,0-0.2c0-0.2-0.2-0.5-0.4-0.5
				c-0.4,0-0.5,0.5-0.5,1.2c0,0.8,0.2,1.1,0.5,1.1c0.1,0,0.3-0.1,0.4-0.3c0-0.1,0-0.1,0-0.2V197z"/>
			<path id="XMLID_7966_" class="st1" d="M140.6,197.5c0-0.5-0.1-1.2,0-1.8h0c-0.1,0.6-0.2,1.3-0.3,1.7l-0.5,1.9H139l-0.5-1.9
				c-0.1-0.4-0.3-1.1-0.3-1.7h0c0,0.6,0,1.3-0.1,1.8l-0.1,1.9h-0.9l0.4-5.4h1.1l0.4,2c0.2,0.7,0.3,1.3,0.4,1.9h0
				c0.1-0.6,0.2-1.2,0.3-1.9l0.4-2h1.1l0.3,5.4h-0.9L140.6,197.5z"/>
			<path id="XMLID_7968_" class="st1" d="M143.2,197.8c0,0.6,0.4,0.8,0.8,0.8c0.3,0,0.6-0.1,0.8-0.1l0.1,0.8
				c-0.3,0.1-0.7,0.2-1.1,0.2c-1.1,0-1.7-0.7-1.7-1.9c0-1.3,0.7-2.1,1.6-2.1c0.8,0,1.3,0.7,1.3,1.9c0,0.3,0,0.4,0,0.5H143.2z
				 M144.2,197.1c0-0.5-0.1-0.9-0.4-0.9c-0.3,0-0.5,0.5-0.5,0.9H144.2z"/>
			<path id="XMLID_7971_" class="st1" d="M147,194.4v1.1h0.8v0.8H147v1.8c0,0.5,0.2,0.6,0.4,0.6c0.1,0,0.2,0,0.3,0l0,0.8
				c-0.1,0-0.4,0.1-0.6,0.1c-0.3,0-0.6-0.1-0.8-0.3c-0.2-0.2-0.3-0.5-0.3-1.1v-1.9h-0.5v-0.8h0.5v-0.8L147,194.4z"/>
			<path id="XMLID_7973_" class="st1" d="M148.2,193.8h1.1v2.1h0c0.1-0.1,0.2-0.3,0.3-0.3c0.2-0.1,0.3-0.1,0.5-0.1
				c0.7,0,1,0.6,1,1.6v2.4h-1.1V197c0-0.4-0.1-0.7-0.4-0.7c-0.2,0-0.3,0.1-0.4,0.4c0,0.1,0,0.2,0,0.3v2.5h-1.1V193.8z"/>
			<path id="XMLID_7975_" class="st1" d="M154.8,197.4c0,1.6-0.9,2.1-1.5,2.1c-0.9,0-1.5-0.7-1.5-2c0-1.4,0.7-2.1,1.5-2.1
				C154.3,195.4,154.8,196.2,154.8,197.4z M152.9,197.4c0,0.7,0.1,1.2,0.5,1.2c0.3,0,0.4-0.7,0.4-1.2c0-0.5-0.1-1.2-0.4-1.2
				C152.9,196.2,152.9,196.9,152.9,197.4z"/>
			<path id="XMLID_7978_" class="st1" d="M158.3,193.8v4.4c0,0.4,0,0.8,0,1.2h-0.9l-0.1-0.4h0c-0.1,0.3-0.5,0.5-0.8,0.5
				c-0.8,0-1.2-0.9-1.2-2c0-1.4,0.6-2,1.3-2c0.3,0,0.6,0.2,0.7,0.4h0v-2H158.3z M157.2,197c0-0.1,0-0.2,0-0.2c0-0.2-0.2-0.5-0.4-0.5
				c-0.4,0-0.5,0.5-0.5,1.2c0,0.8,0.2,1.1,0.5,1.1c0.1,0,0.3-0.1,0.4-0.3c0-0.1,0-0.1,0-0.2V197z"/>
			<path id="XMLID_7981_" class="st1" d="M163.2,196.8c0,1.9-0.7,2.7-1.5,2.7c-1.1,0-1.5-1.3-1.5-2.7c0-1.5,0.5-2.7,1.6-2.7
				C162.9,194.1,163.2,195.5,163.2,196.8z M161.2,196.8c0,1.2,0.1,1.8,0.5,1.8c0.3,0,0.4-0.6,0.4-1.8c0-1.1-0.1-1.8-0.4-1.8
				C161.4,195,161.2,195.6,161.2,196.8z"/>
			<path id="XMLID_7984_" class="st1" d="M163.8,198.8c0-0.4,0.3-0.7,0.6-0.7c0.3,0,0.6,0.3,0.6,0.7c0,0.4-0.3,0.7-0.6,0.7
				C164.1,199.5,163.8,199.2,163.8,198.8z"/>
			<path id="XMLID_7986_" class="st1" d="M165.4,198.1c0-0.7,0.4-1.1,0.8-1.4v0c-0.4-0.3-0.6-0.7-0.6-1.2c0-0.9,0.7-1.4,1.5-1.4
				c0.8,0,1.4,0.5,1.4,1.3c0,0.3-0.1,0.8-0.7,1.2v0c0.5,0.3,0.8,0.8,0.8,1.4c0,1-0.7,1.5-1.6,1.5
				C166.1,199.5,165.4,198.9,165.4,198.1z M167.5,198c0-0.5-0.3-0.8-0.6-1c-0.3,0.2-0.5,0.5-0.5,0.9c0,0.5,0.2,0.8,0.5,0.8
				C167.3,198.8,167.5,198.4,167.5,198z M166.6,195.5c0,0.4,0.2,0.6,0.5,0.8c0.2-0.1,0.4-0.4,0.4-0.8c0-0.4-0.1-0.7-0.4-0.7
				C166.7,194.8,166.6,195.1,166.6,195.5z"/>
		</g>
	</g>
	<g id="XMLID_7379_">
		<g id="XMLID_7416_">
			<path id="XMLID_147_" class="st0" d="M171.7,131.8c-1.8,0-3.3-1.5-3.3-3.3v-6.3c0-1.8,1.5-3.3,3.3-3.3h33.7
				c1.8,0,3.3,1.5,3.3,3.3v6.3c0,1.8-1.5,3.3-3.3,3.3H171.7z"/>
			<path id="XMLID_55_" class="st2" d="M205.4,119.7c1.4,0,2.5,1.1,2.5,2.5v6.3c0,1.4-1.1,2.5-2.5,2.5h-33.7c-1.4,0-2.5-1.1-2.5-2.5
				v-6.3c0-1.4,1.1-2.5,2.5-2.5H205.4 M205.4,118.2h-33.7c-2.2,0-4,1.8-4,4v6.3c0,2.2,1.8,4,4,4h33.7c2.2,0,4-1.8,4-4v-6.3
				C209.4,120,207.6,118.2,205.4,118.2L205.4,118.2z"/>
		</g>
		<g id="XMLID_7937_">
			<path id="XMLID_7938_" class="st2" d="M179.4,122.8v3.5c0,0.8,0.2,1,0.5,1c0.3,0,0.5-0.2,0.5-1v-3.5h1.1v3.4
				c0,1.4-0.5,2.2-1.6,2.2c-1.1,0-1.6-0.8-1.6-2.1v-3.4H179.4z"/>
			<path id="XMLID_7940_" class="st2" d="M185.8,126.3c0-0.5-0.1-1.2,0-1.8h0c-0.1,0.6-0.2,1.3-0.3,1.7l-0.5,1.9h-0.8l-0.5-1.9
				c-0.1-0.4-0.3-1.1-0.3-1.7h0c0,0.6,0,1.3-0.1,1.8l-0.1,1.9h-0.9l0.4-5.4h1.1l0.4,2c0.2,0.7,0.3,1.3,0.4,1.9h0
				c0.1-0.6,0.2-1.2,0.3-1.9l0.4-2h1.1l0.3,5.4h-0.9L185.8,126.3z"/>
			<path id="XMLID_7942_" class="st2" d="M187.6,122.8h1.1v4.6h1.4v0.9h-2.5V122.8z"/>
			<path id="XMLID_7944_" class="st2" d="M192.9,124L192.9,124l-0.9,0.5l-0.2-0.8l1.2-0.6h0.9v5.3h-1.1V124z"/>
			<path id="XMLID_7946_" class="st2" d="M195.3,127.6c0-0.4,0.3-0.7,0.6-0.7c0.3,0,0.6,0.3,0.6,0.7c0,0.4-0.3,0.7-0.6,0.7
				C195.6,128.3,195.3,128,195.3,127.6z"/>
			<path id="XMLID_7948_" class="st2" d="M198.2,124L198.2,124l-0.9,0.5l-0.2-0.8l1.2-0.6h0.9v5.3h-1.1V124z"/>
		</g>
	</g>
	<g id="XMLID_7371_">
		<g id="XMLID_7373_">
			<path id="XMLID_53_" class="st0" d="M156,155.5c-1.8,0-3.3-1.5-3.3-3.3v-6.3c0-1.8,1.5-3.3,3.3-3.3h33.7c1.8,0,3.3,1.5,3.3,3.3
				v6.3c0,1.8-1.5,3.3-3.3,3.3H156z"/>
			<path id="XMLID_50_" class="st3" d="M189.7,143.4c1.4,0,2.5,1.1,2.5,2.5v6.3c0,1.4-1.1,2.5-2.5,2.5H156c-1.4,0-2.5-1.1-2.5-2.5
				v-6.3c0-1.4,1.1-2.5,2.5-2.5H189.7 M189.7,141.9H156c-2.2,0-4,1.8-4,4v6.3c0,2.2,1.8,4,4,4h33.7c2.2,0,4-1.8,4-4v-6.3
				C193.7,143.7,191.9,141.9,189.7,141.9L189.7,141.9z"/>
		</g>
		<g id="XMLID_7923_">
			<path id="XMLID_7924_" class="st3" d="M163.7,146.5v3.5c0,0.8,0.2,1,0.5,1c0.3,0,0.5-0.2,0.5-1v-3.5h1.1v3.4
				c0,1.4-0.5,2.2-1.6,2.2c-1.1,0-1.6-0.8-1.6-2.1v-3.4H163.7z"/>
			<path id="XMLID_7926_" class="st3" d="M170.1,150c0-0.5-0.1-1.2,0-1.8h0c-0.1,0.6-0.2,1.3-0.3,1.7l-0.5,1.9h-0.8l-0.5-1.9
				c-0.1-0.4-0.3-1.1-0.3-1.7h0c0,0.6,0,1.3-0.1,1.8l-0.1,1.9h-0.9l0.4-5.4h1.1l0.4,2c0.2,0.7,0.3,1.3,0.4,1.9h0
				c0.1-0.6,0.2-1.2,0.3-1.9l0.4-2h1.1l0.3,5.4h-0.9L170.1,150z"/>
			<path id="XMLID_7928_" class="st3" d="M171.9,146.5h1.1v4.6h1.4v0.9h-2.5V146.5z"/>
			<path id="XMLID_7930_" class="st3" d="M177.2,147.6L177.2,147.6l-0.9,0.5l-0.2-0.8l1.2-0.6h0.9v5.3h-1.1V147.6z"/>
			<path id="XMLID_7932_" class="st3" d="M179.6,151.3c0-0.4,0.3-0.7,0.6-0.7c0.3,0,0.6,0.3,0.6,0.7c0,0.4-0.3,0.7-0.6,0.7
				C179.9,152,179.6,151.7,179.6,151.3z"/>
			<path id="XMLID_7934_" class="st3" d="M184.4,149.2c0,1.9-0.7,2.7-1.5,2.7c-1.1,0-1.5-1.3-1.5-2.7c0-1.5,0.5-2.7,1.6-2.7
				C184.1,146.6,184.4,148,184.4,149.2z M182.3,149.3c0,1.2,0.1,1.8,0.5,1.8c0.3,0,0.4-0.6,0.4-1.8c0-1.1-0.1-1.8-0.4-1.8
				C182.5,147.5,182.3,148.1,182.3,149.3z"/>
		</g>
	</g>
	<g id="XMLID_7363_">
		<g id="XMLID_7365_">
			<path id="XMLID_48_" class="st0" d="M140.3,179.1c-1.8,0-3.3-1.5-3.3-3.3v-6.3c0-1.8,1.5-3.3,3.3-3.3h33.7c1.8,0,3.3,1.5,3.3,3.3
				v6.3c0,1.8-1.5,3.3-3.3,3.3H140.3z"/>
			<path id="XMLID_45_" class="st4" d="M173.9,167c1.4,0,2.5,1.1,2.5,2.5v6.3c0,1.4-1.1,2.5-2.5,2.5h-33.7c-1.4,0-2.5-1.1-2.5-2.5
				v-6.3c0-1.4,1.1-2.5,2.5-2.5H173.9 M173.9,165.5h-33.7c-2.2,0-4,1.8-4,4v6.3c0,2.2,1.8,4,4,4h33.7c2.2,0,4-1.8,4-4v-6.3
				C177.9,167.3,176.1,165.5,173.9,165.5L173.9,165.5z"/>
		</g>
		<g id="XMLID_7908_">
			<path id="XMLID_7909_" class="st4" d="M147.9,170.1v3.5c0,0.8,0.2,1,0.5,1c0.3,0,0.5-0.2,0.5-1v-3.5h1.1v3.4
				c0,1.4-0.5,2.2-1.6,2.2c-1.1,0-1.6-0.8-1.6-2.1v-3.4H147.9z"/>
			<path id="XMLID_7911_" class="st4" d="M154.3,173.6c0-0.5-0.1-1.2,0-1.8h0c-0.1,0.6-0.2,1.3-0.3,1.7l-0.5,1.9h-0.8l-0.5-1.9
				c-0.1-0.4-0.3-1.1-0.3-1.7h0c0,0.6,0,1.3-0.1,1.8l-0.1,1.9h-0.9l0.4-5.4h1.1l0.4,2c0.2,0.7,0.3,1.3,0.4,1.9h0
				c0.1-0.6,0.2-1.2,0.3-1.9l0.4-2h1.1l0.3,5.4h-0.9L154.3,173.6z"/>
			<path id="XMLID_7913_" class="st4" d="M156.1,170.1h1.1v4.6h1.4v0.9h-2.5V170.1z"/>
			<path id="XMLID_7915_" class="st4" d="M163.2,172.9c0,1.9-0.7,2.7-1.5,2.7c-1.1,0-1.5-1.3-1.5-2.7c0-1.5,0.5-2.7,1.6-2.7
				C163,170.2,163.2,171.6,163.2,172.9z M161.2,172.9c0,1.2,0.1,1.8,0.5,1.8c0.3,0,0.4-0.6,0.4-1.8c0-1.1-0.1-1.8-0.4-1.8
				C161.4,171.1,161.2,171.7,161.2,172.9z"/>
			<path id="XMLID_7918_" class="st4" d="M163.8,174.9c0-0.4,0.3-0.7,0.6-0.7c0.3,0,0.6,0.3,0.6,0.7c0,0.4-0.3,0.7-0.6,0.7
				C164.1,175.6,163.8,175.3,163.8,174.9z"/>
			<path id="XMLID_7920_" class="st4" d="M165.9,174.7c0.2,0,0.3,0,0.5,0c0.2,0,0.4-0.1,0.6-0.3c0.2-0.2,0.4-0.6,0.5-1.1h0
				c-0.2,0.2-0.4,0.3-0.8,0.3c-0.7,0-1.2-0.6-1.2-1.6c0-0.9,0.6-1.8,1.6-1.8c1,0,1.5,0.9,1.5,2.2c0,1.2-0.4,2-0.9,2.5
				c-0.3,0.3-0.8,0.6-1.3,0.7c-0.2,0-0.3,0-0.5,0V174.7z M166.6,172c0,0.5,0.2,0.9,0.5,0.9c0.2,0,0.3-0.1,0.4-0.3c0-0.1,0-0.2,0-0.6
				c0-0.7-0.2-1.1-0.5-1.1C166.7,171,166.5,171.3,166.6,172z"/>
		</g>
	</g>
	<g id="XMLID_7355_">
		<g id="XMLID_7357_">
			<path id="XMLID_157_" class="st0" d="M248.5,13.6c-1.8,0-3.3-1.5-3.3-3.3V4c0-1.8,1.5-3.3,3.3-3.3h33.7c1.8,0,3.3,1.5,3.3,3.3
				v6.3c0,1.8-1.5,3.3-3.3,3.3H248.5z"/>
			<path id="XMLID_154_" class="st5" d="M282.2,1.5c1.4,0,2.5,1.1,2.5,2.5v6.3c0,1.4-1.1,2.5-2.5,2.5h-33.7c-1.4,0-2.5-1.1-2.5-2.5
				V4c0-1.4,1.1-2.5,2.5-2.5H282.2 M282.2,0h-33.7c-2.2,0-4,1.8-4,4v6.3c0,2.2,1.8,4,4,4h33.7c2.2,0,4-1.8,4-4V4
				C286.2,1.8,284.4,0,282.2,0L282.2,0z"/>
		</g>
		<g id="XMLID_7894_">
			<path id="XMLID_7895_" class="st5" d="M255.7,4.7v3.5c0,0.8,0.2,1,0.5,1c0.3,0,0.5-0.2,0.5-1V4.7h1.1v3.4c0,1.4-0.5,2.2-1.6,2.2
				c-1.1,0-1.6-0.8-1.6-2.1V4.7H255.7z"/>
			<path id="XMLID_7897_" class="st5" d="M262.1,8.3c0-0.5-0.1-1.2,0-1.8h0c-0.1,0.6-0.2,1.3-0.3,1.7l-0.5,1.9h-0.8L260,8.2
				c-0.1-0.4-0.3-1.1-0.3-1.7h0c0,0.6,0,1.3-0.1,1.8l-0.1,1.9h-0.9l0.4-5.4h1.1l0.4,2c0.2,0.7,0.3,1.3,0.4,1.9h0
				c0.1-0.6,0.2-1.2,0.3-1.9l0.4-2h1.1l0.3,5.4h-0.9L262.1,8.3z"/>
			<path id="XMLID_7899_" class="st5" d="M263.9,4.7h1.1v4.6h1.4v0.9h-2.5V4.7z"/>
			<path id="XMLID_7901_" class="st5" d="M268,10.2V9.5l0.5-0.7c0.7-0.9,1.2-1.6,1.2-2.3c0-0.4-0.2-0.7-0.7-0.7
				c-0.3,0-0.6,0.1-0.8,0.3l-0.2-0.8c0.2-0.2,0.7-0.3,1.2-0.3c1.1,0,1.5,0.8,1.5,1.5c0,1-0.6,1.8-1.2,2.5l-0.3,0.4v0h1.6v0.9H268z"
				/>
			<path id="XMLID_7903_" class="st5" d="M271.6,9.5c0-0.4,0.3-0.7,0.6-0.7c0.3,0,0.6,0.3,0.6,0.7c0,0.4-0.3,0.7-0.6,0.7
				C271.9,10.2,271.6,10,271.6,9.5z"/>
			<path id="XMLID_7905_" class="st5" d="M276.3,7.5c0,1.9-0.7,2.7-1.5,2.7c-1.1,0-1.5-1.3-1.5-2.7c0-1.5,0.5-2.7,1.6-2.7
				C276.1,4.9,276.3,6.3,276.3,7.5z M274.3,7.6c0,1.2,0.1,1.8,0.5,1.8c0.3,0,0.4-0.6,0.4-1.8c0-1.1-0.1-1.8-0.4-1.8
				C274.5,5.8,274.3,6.3,274.3,7.6z"/>
		</g>
	</g>
	<g id="XMLID_7347_">
		<g id="XMLID_7349_">
			<path id="XMLID_43_" class="st0" d="M233.2,37.2c-1.8,0-3.3-1.5-3.3-3.3v-6.3c0-1.8,1.5-3.3,3.3-3.3h33.7c1.8,0,3.3,1.5,3.3,3.3
				V34c0,1.8-1.5,3.3-3.3,3.3H233.2z"/>
			<path id="XMLID_40_" class="st6" d="M266.9,25.1c1.4,0,2.5,1.1,2.5,2.5V34c0,1.4-1.1,2.5-2.5,2.5h-33.7c-1.4,0-2.5-1.1-2.5-2.5
				v-6.3c0-1.4,1.1-2.5,2.5-2.5H266.9 M266.9,23.6h-33.7c-2.2,0-4,1.8-4,4V34c0,2.2,1.8,4,4,4h33.7c2.2,0,4-1.8,4-4v-6.3
				C270.9,25.4,269.1,23.6,266.9,23.6L266.9,23.6z"/>
		</g>
		<g id="XMLID_7870_">
			<path id="XMLID_7871_" class="st6" d="M240.4,28.3v3.5c0,0.8,0.2,1,0.5,1c0.3,0,0.5-0.2,0.5-1v-3.5h1.1v3.4
				c0,1.4-0.5,2.2-1.6,2.2c-1.1,0-1.6-0.8-1.6-2.1v-3.4H240.4z"/>
			<path id="XMLID_7873_" class="st6" d="M246.8,31.8c0-0.5-0.1-1.2,0-1.8h0c-0.1,0.6-0.2,1.3-0.3,1.7l-0.5,1.9h-0.8l-0.5-1.9
				c-0.1-0.4-0.3-1.1-0.3-1.7h0c0,0.6,0,1.3-0.1,1.8l-0.1,1.9h-0.9l0.4-5.4h1.1l0.4,2c0.2,0.7,0.3,1.3,0.4,1.9h0
				c0.1-0.6,0.2-1.2,0.3-1.9l0.4-2h1.1l0.3,5.4h-0.9L246.8,31.8z"/>
			<path id="XMLID_7885_" class="st6" d="M248.6,28.3h1.1v4.6h1.4v0.9h-2.5V28.3z"/>
			<path id="XMLID_7887_" class="st6" d="M253.9,29.5L253.9,29.5L253,30l-0.2-0.8l1.2-0.6h0.9v5.3h-1.1V29.5z"/>
			<path id="XMLID_7889_" class="st6" d="M256.3,33.1c0-0.4,0.3-0.7,0.6-0.7c0.3,0,0.6,0.3,0.6,0.7c0,0.4-0.3,0.7-0.6,0.7
				C256.6,33.8,256.3,33.5,256.3,33.1z"/>
			<path id="XMLID_7891_" class="st6" d="M259.7,33.8v-1.3h-1.8v-0.7l1.7-3.3h1v3.2h0.5v0.8h-0.5v1.3H259.7z M259.7,31.7v-1.1
				c0-0.3,0-0.6,0.1-0.9h0c-0.1,0.3-0.2,0.5-0.4,0.8l-0.6,1.1v0H259.7z"/>
		</g>
	</g>
	<g id="XMLID_7339_">
		<g id="XMLID_7341_">
			<path id="XMLID_38_" class="st0" d="M202.5,84.5c-1.8,0-3.3-1.5-3.3-3.3v-6.3c0-1.8,1.5-3.3,3.3-3.3h33.7c1.8,0,3.3,1.5,3.3,3.3
				v6.3c0,1.8-1.5,3.3-3.3,3.3H202.5z"/>
			<path id="XMLID_35_" class="st7" d="M236.2,72.4c1.4,0,2.5,1.1,2.5,2.5v6.3c0,1.4-1.1,2.5-2.5,2.5h-33.7c-1.4,0-2.5-1.1-2.5-2.5
				v-6.3c0-1.4,1.1-2.5,2.5-2.5H236.2 M236.2,70.9h-33.7c-2.2,0-4,1.8-4,4v6.3c0,2.2,1.8,4,4,4h33.7c2.2,0,4-1.8,4-4v-6.3
				C240.2,72.7,238.4,70.9,236.2,70.9L236.2,70.9z"/>
		</g>
		<g id="XMLID_7845_">
			<path id="XMLID_7847_" class="st7" d="M209.7,75.4V79c0,0.8,0.2,1,0.5,1c0.3,0,0.5-0.2,0.5-1v-3.5h1.1v3.4c0,1.4-0.5,2.2-1.6,2.2
				c-1.1,0-1.6-0.8-1.6-2.1v-3.4H209.7z"/>
			<path id="XMLID_7849_" class="st7" d="M216.1,79c0-0.5-0.1-1.2,0-1.8h0c-0.1,0.6-0.2,1.3-0.3,1.7l-0.5,1.9h-0.8l-0.5-1.9
				c-0.1-0.4-0.3-1.1-0.3-1.7h0c0,0.6,0,1.3-0.1,1.8l-0.1,1.9h-0.9l0.4-5.4h1.1l0.4,2c0.2,0.7,0.3,1.3,0.4,1.9h0
				c0.1-0.6,0.2-1.2,0.3-1.9l0.4-2h1.1l0.3,5.4h-0.9L216.1,79z"/>
			<path id="XMLID_7851_" class="st7" d="M217.9,75.4h1.1V80h1.4v0.9h-2.5V75.4z"/>
			<path id="XMLID_7854_" class="st7" d="M223.2,76.6L223.2,76.6l-0.9,0.5l-0.2-0.8l1.2-0.6h0.9v5.3h-1.1V76.6z"/>
			<path id="XMLID_7856_" class="st7" d="M225.6,80.2c0-0.4,0.3-0.7,0.6-0.7c0.3,0,0.6,0.3,0.6,0.7c0,0.4-0.3,0.7-0.6,0.7
				C225.9,80.9,225.6,80.7,225.6,80.2z"/>
			<path id="XMLID_7867_" class="st7" d="M227.3,80.9v-0.7l0.5-0.7c0.7-0.9,1.2-1.6,1.2-2.3c0-0.4-0.2-0.7-0.7-0.7
				c-0.3,0-0.6,0.1-0.8,0.3l-0.2-0.8c0.2-0.2,0.7-0.3,1.2-0.3c1.1,0,1.5,0.8,1.5,1.5c0,1-0.6,1.8-1.2,2.5l-0.3,0.4v0h1.6v0.9H227.3z
				"/>
		</g>
	</g>
	<g id="XMLID_7789_">
		<path id="XMLID_7791_" d="M90.1,100.3v3.5c0,0.8,0.2,1,0.5,1c0.3,0,0.5-0.2,0.5-1v-3.5h1.1v3.4c0,1.4-0.5,2.2-1.6,2.2
			c-1.1,0-1.6-0.8-1.6-2.1v-3.4H90.1z"/>
		<path id="XMLID_7794_" d="M96.4,103.9c0-0.5-0.1-1.2,0-1.8h0c-0.1,0.6-0.2,1.3-0.3,1.7l-0.5,1.9h-0.8l-0.5-1.9
			c-0.1-0.4-0.3-1.1-0.3-1.7h0c0,0.6,0,1.3-0.1,1.8l-0.1,1.9h-0.9l0.4-5.4h1.1l0.4,2c0.2,0.7,0.3,1.3,0.4,1.9h0
			c0.1-0.6,0.2-1.2,0.3-1.9l0.4-2h1.1l0.3,5.4h-0.9L96.4,103.9z"/>
		<path id="XMLID_7796_" d="M98.2,100.3h1.1v4.6h1.4v0.9h-2.5V100.3z"/>
		<path id="XMLID_7798_" d="M104.3,105.8l-0.1-0.4h0c-0.2,0.3-0.5,0.5-0.9,0.5c-0.6,0-1-0.5-1-1.2c0-1,0.9-1.5,1.8-1.5v-0.1
			c0-0.3-0.2-0.5-0.6-0.5c-0.3,0-0.6,0.1-0.8,0.2l-0.2-0.7c0.2-0.1,0.7-0.3,1.2-0.3c1.2,0,1.4,0.8,1.4,1.6v1.5c0,0.3,0,0.6,0.1,0.9
			H104.3z M104.1,103.8c-0.4,0-0.8,0.1-0.8,0.7c0,0.4,0.2,0.5,0.4,0.5c0.2,0,0.4-0.1,0.4-0.3c0-0.1,0-0.1,0-0.2V103.8z"/>
		<path id="XMLID_7805_" d="M105.9,103.1c0-0.5,0-0.9,0-1.3h0.9l0.1,0.5h0c0.2-0.3,0.5-0.5,0.8-0.5c0.9,0,1.2,0.9,1.2,2
			c0,1.4-0.6,2-1.3,2c-0.3,0-0.5-0.2-0.7-0.4h0v1.9h-1.1V103.1z M106.9,104.3c0,0.1,0,0.3,0.1,0.3c0.1,0.2,0.2,0.3,0.3,0.3
			c0.4,0,0.5-0.5,0.5-1.2c0-0.8-0.2-1.2-0.5-1.2c-0.2,0-0.3,0.2-0.4,0.3c0,0.1,0,0.2,0,0.3V104.3z"/>
		<path id="XMLID_7808_" d="M109.5,103c0-0.4,0-0.8,0-1.2h0.9l0.1,0.6h0c0.2-0.4,0.5-0.6,0.8-0.6c0.1,0,0.2,0,0.2,0v1.1
			c-0.1,0-0.1,0-0.2,0c-0.2,0-0.5,0.2-0.6,0.6c0,0.1,0,0.2,0,0.4v2h-1.1V103z"/>
		<path id="XMLID_7810_" d="M114.7,103.8c0,1.6-0.9,2.1-1.5,2.1c-0.9,0-1.5-0.7-1.5-2c0-1.4,0.7-2.1,1.5-2.1
			C114.2,101.8,114.7,102.5,114.7,103.8z M112.8,103.8c0,0.7,0.1,1.2,0.5,1.2c0.3,0,0.4-0.7,0.4-1.2c0-0.5-0.1-1.2-0.4-1.2
			C112.8,102.6,112.8,103.2,112.8,103.8z"/>
		<path id="XMLID_7813_" d="M115.3,105.8c0-0.3,0-0.8,0-1.2v-4.4h1.1v2h0c0.2-0.3,0.4-0.5,0.8-0.5c0.8,0,1.1,0.9,1.1,1.9
			c0,1.4-0.5,2.1-1.3,2.1c-0.3,0-0.6-0.1-0.8-0.5h0l-0.1,0.5H115.3z M116.4,104.4c0,0.1,0,0.2,0,0.3c0.1,0.3,0.2,0.4,0.4,0.4
			c0.4,0,0.5-0.4,0.5-1.2c0-0.7-0.2-1.1-0.5-1.1c-0.2,0-0.3,0.2-0.4,0.4c0,0.1,0,0.2,0,0.2V104.4z"/>
		<path id="XMLID_7816_" d="M120.7,105.8l-0.1-0.4h0c-0.2,0.3-0.5,0.5-0.9,0.5c-0.6,0-1-0.5-1-1.2c0-1,0.9-1.5,1.8-1.5v-0.1
			c0-0.3-0.2-0.5-0.6-0.5c-0.3,0-0.6,0.1-0.8,0.2l-0.2-0.7c0.2-0.1,0.7-0.3,1.2-0.3c1.2,0,1.4,0.8,1.4,1.6v1.5c0,0.3,0,0.6,0.1,0.9
			H120.7z M120.6,103.8c-0.4,0-0.8,0.1-0.8,0.7c0,0.4,0.2,0.5,0.4,0.5c0.2,0,0.4-0.1,0.4-0.3c0-0.1,0-0.1,0-0.2V103.8z"/>
		<path id="XMLID_7819_" d="M125.2,100.2v4.4c0,0.4,0,0.8,0,1.2h-0.9l-0.1-0.4h0c-0.1,0.3-0.5,0.5-0.8,0.5c-0.8,0-1.2-0.9-1.2-2
			c0-1.4,0.6-2,1.3-2c0.3,0,0.6,0.2,0.7,0.4h0v-2H125.2z M124.2,103.3c0-0.1,0-0.2,0-0.2c0-0.2-0.2-0.5-0.4-0.5
			c-0.4,0-0.5,0.5-0.5,1.2c0,0.8,0.2,1.1,0.5,1.1c0.1,0,0.3-0.1,0.4-0.3c0-0.1,0-0.1,0-0.2V103.3z"/>
		<path id="XMLID_7822_" d="M128.8,103.8c0,1.6-0.9,2.1-1.5,2.1c-0.9,0-1.5-0.7-1.5-2c0-1.4,0.7-2.1,1.5-2.1
			C128.3,101.8,128.8,102.5,128.8,103.8z M126.9,103.8c0,0.7,0.1,1.2,0.5,1.2c0.3,0,0.4-0.7,0.4-1.2c0-0.5-0.1-1.2-0.4-1.2
			C127,102.6,126.9,103.2,126.9,103.8z"/>
		<path id="XMLID_7825_" d="M130.7,103.1c0-0.5,0-0.9,0-1.3h0.9l0.1,0.5h0c0.2-0.3,0.5-0.5,0.8-0.5c0.9,0,1.2,0.9,1.2,2
			c0,1.4-0.6,2-1.3,2c-0.3,0-0.5-0.2-0.7-0.4h0v1.9h-1.1V103.1z M131.8,104.3c0,0.1,0,0.3,0.1,0.3c0.1,0.2,0.2,0.3,0.3,0.3
			c0.4,0,0.5-0.5,0.5-1.2c0-0.8-0.2-1.2-0.5-1.2c-0.2,0-0.3,0.2-0.4,0.3c0,0.1,0,0.2,0,0.3V104.3z"/>
		<path id="XMLID_7828_" d="M137.2,103.8c0,1.6-0.9,2.1-1.5,2.1c-0.9,0-1.5-0.7-1.5-2c0-1.4,0.7-2.1,1.5-2.1
			C136.7,101.8,137.2,102.5,137.2,103.8z M135.3,103.8c0,0.7,0.1,1.2,0.5,1.2c0.3,0,0.4-0.7,0.4-1.2c0-0.5-0.1-1.2-0.4-1.2
			C135.3,102.6,135.3,103.2,135.3,103.8z"/>
		<path id="XMLID_7831_" d="M137.8,103c0-0.4,0-0.8,0-1.2h0.9l0.1,0.6h0c0.2-0.4,0.5-0.6,0.8-0.6c0.1,0,0.2,0,0.2,0v1.1
			c-0.1,0-0.1,0-0.2,0c-0.2,0-0.5,0.2-0.6,0.6c0,0.1,0,0.2,0,0.4v2h-1.1V103z"/>
		<path id="XMLID_7833_" d="M142.4,104.2c0,0.6,0.4,0.8,0.8,0.8c0.3,0,0.6-0.1,0.8-0.1l0.1,0.8c-0.3,0.1-0.7,0.2-1.1,0.2
			c-1.1,0-1.7-0.7-1.7-1.9c0-1.3,0.7-2.1,1.6-2.1c0.8,0,1.3,0.7,1.3,1.9c0,0.3,0,0.4,0,0.5H142.4z M143.3,103.4
			c0-0.5-0.1-0.9-0.4-0.9c-0.3,0-0.5,0.5-0.5,0.9H143.3z"/>
		<path id="XMLID_7836_" d="M144.9,100.2h1.1v5.6h-1.1V100.2z"/>
		<path id="XMLID_7838_" d="M151.3,102.9c0,2.1-0.7,2.9-1.8,2.9c-1.2,0-1.7-1.3-1.7-2.8c0-1.5,0.6-2.8,1.8-2.8
			C150.9,100.3,151.3,101.7,151.3,102.9z M148.9,103c0,1.2,0.2,1.9,0.7,1.9c0.4,0,0.6-0.8,0.6-1.9c0-1-0.1-1.8-0.6-1.8
			C149.1,101.2,148.9,101.9,148.9,103z"/>
		<path id="XMLID_7841_" d="M155.3,103.9c0-0.5-0.1-1.2,0-1.8h0c-0.1,0.6-0.2,1.3-0.3,1.7l-0.5,1.9h-0.8l-0.5-1.9
			c-0.1-0.4-0.3-1.1-0.3-1.7h0c0,0.6,0,1.3-0.1,1.8l-0.1,1.9h-0.9l0.4-5.4h1.1l0.4,2c0.2,0.7,0.3,1.3,0.4,1.9h0
			c0.1-0.6,0.2-1.2,0.3-1.9l0.4-2h1.1l0.3,5.4h-0.9L155.3,103.9z"/>
		<path id="XMLID_7843_" d="M160.1,105.6c-0.2,0.1-0.7,0.2-1.1,0.2c-0.6,0-1.1-0.2-1.5-0.5c-0.5-0.5-0.7-1.3-0.7-2.2
			c0-2,1.2-2.8,2.3-2.8c0.4,0,0.7,0.1,0.9,0.2l-0.2,0.9c-0.2-0.1-0.4-0.1-0.6-0.1c-0.7,0-1.3,0.5-1.3,1.9c0,1.3,0.5,1.8,1,1.8
			c0.1,0,0.2,0,0.2,0v-1.3h-0.5v-0.9h1.5V105.6z"/>
	</g>
	<g id="XMLID_6065_">
		<g id="XMLID_7239_">
			<path id="XMLID_33_" class="st0" d="M218,60.9c-1.8,0-3.3-1.5-3.3-3.3v-6.3c0-1.8,1.5-3.3,3.3-3.3h33.7c1.8,0,3.3,1.5,3.3,3.3
				v6.3c0,1.8-1.5,3.3-3.3,3.3H218z"/>
			<path id="XMLID_30_" class="st8" d="M251.6,48.8c1.4,0,2.5,1.1,2.5,2.5v6.3c0,1.4-1.1,2.5-2.5,2.5H218c-1.4,0-2.5-1.1-2.5-2.5
				v-6.3c0-1.4,1.1-2.5,2.5-2.5H251.6 M251.6,47.3H218c-2.2,0-4,1.8-4,4v6.3c0,2.2,1.8,4,4,4h33.7c2.2,0,4-1.8,4-4v-6.3
				C255.6,49.1,253.8,47.3,251.6,47.3L251.6,47.3z"/>
		</g>
		<g id="XMLID_7744_">
			<path id="XMLID_7746_" class="st8" d="M225.1,52.1v3.5c0,0.8,0.2,1,0.5,1c0.3,0,0.5-0.2,0.5-1v-3.5h1.1v3.4
				c0,1.4-0.5,2.2-1.6,2.2c-1.1,0-1.6-0.8-1.6-2.1v-3.4H225.1z"/>
			<path id="XMLID_7751_" class="st8" d="M231.5,55.6c0-0.5-0.1-1.2,0-1.8h0c-0.1,0.6-0.2,1.3-0.3,1.7l-0.5,1.9h-0.8l-0.5-1.9
				c-0.1-0.4-0.3-1.1-0.3-1.7h0c0,0.6,0,1.3-0.1,1.8l-0.1,1.9H228l0.4-5.4h1.1l0.4,2c0.2,0.7,0.3,1.3,0.4,1.9h0
				c0.1-0.6,0.2-1.2,0.3-1.9l0.4-2h1.1l0.3,5.4h-0.9L231.5,55.6z"/>
			<path id="XMLID_7753_" class="st8" d="M233.3,52.1h1.1v4.6h1.4v0.9h-2.5V52.1z"/>
			<path id="XMLID_7770_" class="st8" d="M238.6,53.2L238.6,53.2l-0.9,0.5l-0.2-0.8l1.2-0.6h0.9v5.3h-1.1V53.2z"/>
			<path id="XMLID_7776_" class="st8" d="M241,56.9c0-0.4,0.3-0.7,0.6-0.7c0.3,0,0.6,0.3,0.6,0.7c0,0.4-0.3,0.7-0.6,0.7
				C241.3,57.6,241,57.3,241,56.9z"/>
			<path id="XMLID_7783_" class="st8" d="M242.9,56.5c0.2,0.1,0.5,0.2,0.8,0.2c0.5,0,0.8-0.3,0.8-0.8c0-0.6-0.4-0.8-1-0.8h-0.1v-0.8
				h0.1c0.4,0,0.9-0.2,0.9-0.7c0-0.4-0.2-0.6-0.6-0.6c-0.2,0-0.5,0.1-0.7,0.2l-0.1-0.8c0.2-0.1,0.6-0.3,1.1-0.3
				c0.9,0,1.4,0.6,1.4,1.3c0,0.5-0.3,1-0.8,1.2v0c0.5,0.2,0.9,0.6,0.9,1.3c0,0.8-0.6,1.6-1.8,1.6c-0.4,0-0.8-0.1-1-0.2L242.9,56.5z"
				/>
		</g>
	</g>
	<g id="XMLID_2558_">
		<g id="XMLID_5553_">
			<path id="XMLID_28_" class="st0" d="M93.9,250c-1.8,0-3.3-1.5-3.3-3.3v-6.3c0-1.8,1.5-3.3,3.3-3.3h33.7c1.8,0,3.3,1.5,3.3,3.3
				v6.3c0,1.8-1.5,3.3-3.3,3.3H93.9z"/>
			<path id="XMLID_25_" class="st5" d="M127.6,238c1.4,0,2.5,1.1,2.5,2.5v6.3c0,1.4-1.1,2.5-2.5,2.5H93.9c-1.4,0-2.5-1.1-2.5-2.5
				v-6.3c0-1.4,1.1-2.5,2.5-2.5H127.6 M127.6,236.5H93.9c-2.2,0-4,1.8-4,4v6.3c0,2.2,1.8,4,4,4h33.7c2.2,0,4-1.8,4-4v-6.3
				C131.6,238.3,129.8,236.5,127.6,236.5L127.6,236.5z"/>
		</g>
		<g id="XMLID_7554_">
			<path id="XMLID_7555_" class="st5" d="M108.9,243.7c0,2.1-0.7,2.9-1.8,2.9c-1.2,0-1.7-1.3-1.7-2.8c0-1.5,0.6-2.8,1.8-2.8
				C108.5,241,108.9,242.4,108.9,243.7z M106.5,243.8c0,1.2,0.2,1.9,0.7,1.9c0.4,0,0.6-0.8,0.6-1.9c0-1-0.1-1.8-0.6-1.8
				C106.7,241.9,106.5,242.6,106.5,243.8z"/>
			<path id="XMLID_7559_" class="st5" d="M112.9,244.6c0-0.5-0.1-1.2,0-1.8h0c-0.1,0.6-0.2,1.3-0.3,1.7l-0.5,1.9h-0.8l-0.5-1.9
				c-0.1-0.4-0.3-1.1-0.3-1.7h0c0,0.6,0,1.3-0.1,1.8l-0.1,1.9h-0.9l0.4-5.4h1.1l0.4,2c0.2,0.7,0.3,1.3,0.4,1.9h0
				c0.1-0.6,0.2-1.2,0.3-1.9l0.4-2h1.1l0.3,5.4H113L112.9,244.6z"/>
			<path id="XMLID_7563_" class="st5" d="M115.1,242h-1v-1h3v1h-1v4.5h-1.1V242z"/>
		</g>
	</g>
	<g id="XMLID_2541_">
		<path id="XMLID_2557_" class="st9" d="M242.4,7.2l-5.7-3.1c0,1.1,0,1.9,0,2.4H51.2v1.4h185.6c0,0.5,0,1.3,0,2.4L242.4,7.2z"/>
		<path id="XMLID_2556_" class="st9" d="M228.3,31l-5.7-3.1c0,1.1,0,1.9,0,2.4H51.2v1.4h171.4c0,0.5,0,1.3,0,2.4L228.3,31z"/>
		<path id="XMLID_2554_" class="st9" d="M213.6,54.5l-5.7-3.1c0,1.1,0,1.9,0,2.4H51.2v1.4H208c0,0.5,0,1.3,0,2.4L213.6,54.5z"/>
		<path id="XMLID_2553_" class="st9" d="M198.3,78.1l-5.7-3.1c0,1.1,0,1.9,0,2.4H51.2v1.4h141.4c0,0.5,0,1.3,0,2.4L198.3,78.1z"/>
		<path id="XMLID_2551_" class="st9" d="M167.2,125.9l-5.7-3.1c0,1.1,0,1.9,0,2.4H51.2v1.4h110.4c0,0.5,0,1.3,0,2.4L167.2,125.9z"/>
		<path id="XMLID_2550_" class="st9" d="M151.5,149.5l-5.7-3.1c0,1.1,0,1.9,0,2.4H51.2v1.4h94.7c0,0.5,0,1.3,0,2.4L151.5,149.5z"/>
		<path id="XMLID_2548_" class="st9" d="M136.3,172.9l-5.7-3.1c0,1.1,0,1.9,0,2.4H51.2v1.4h79.4c0,0.5,0,1.3,0,2.4L136.3,172.9z"/>
		<path id="XMLID_2547_" class="st9" d="M107.8,196.3l-5.7-3.1c0,1.1,0,1.9,0,2.4h-51v1.4h51c0,0.5,0,1.3,0,2.4L107.8,196.3z"/>
		<path id="XMLID_2545_" class="st9" d="M203.3,217.9l-5.7-3.1c0,1.1,0,1.9,0,2.4H75.1v1.4h122.6c0,0.5,0,1.3,0,2.4L203.3,217.9z"/>
		<g id="XMLID_2542_">
			<path id="XMLID_2543_" class="st9" d="M89.1,244.1l-5.7-3.1c0,1.1,0,1.9,0,2.4h-8.3v1.4h8.3c0,0.5,0,1.3,0,2.4L89.1,244.1z"/>
		</g>
	</g>
	<path id="XMLID_2540_" class="st8" d="M181.4,186.5l22.5,22.5l0.8-1.2l-22.2-22.2c0.4-0.4,0.9-0.9,1.7-1.7l-6.2-1.8l1.8,6.2
		C180.5,187.4,181.1,186.9,181.4,186.5z"/>
	<path id="XMLID_2538_" class="st8" d="M196.9,161.6l17.6,17.6l0.8-1.2l-17.4-17.4c0.4-0.4,0.9-0.9,1.7-1.7l-6.2-1.8l1.8,6.2
		C195.9,162.5,196.5,162,196.9,161.6z"/>
	<path id="XMLID_2537_" class="st8" d="M274.4,42.5L292,60.1l0.8-1.2l-17.4-17.4c0.4-0.4,0.9-0.9,1.7-1.7l-6.2-1.8l1.8,6.2
		C273.5,43.4,274,42.9,274.4,42.5z"/>
	<path id="XMLID_2536_" class="st8" d="M247.7,78.4l23.7-7.8l-0.7-1.3L247.3,77c-0.2-0.5-0.4-1.3-0.7-2.3l-4.4,4.7l6.3,1.2
		C248.1,79.6,247.9,78.9,247.7,78.4z"/>
	<g id="XMLID_2529_">
		<line id="XMLID_65_" class="st0" x1="258.5" y1="24.8" x2="265.4" y2="14.3"/>
		<g id="XMLID_61_">
			<line id="XMLID_64_" class="st10" x1="258.5" y1="24.8" x2="263.4" y2="17.3"/>
			<g id="XMLID_62_">
				<polygon id="XMLID_63_" class="st6" points="265.4,14.3 264.4,19.6 263.3,17.5 261,17.4 				"/>
			</g>
		</g>
	</g>
	<g id="XMLID_2516_">
		<line id="XMLID_106_" class="st0" x1="242.9" y1="48.5" x2="249.7" y2="38.1"/>
		<g id="XMLID_102_">
			<line id="XMLID_105_" class="st11" x1="242.9" y1="48.5" x2="247.2" y2="42.1"/>
			<g id="XMLID_103_">
				<polygon id="XMLID_104_" class="st8" points="249.7,38.1 248.4,45.2 247,42.4 243.8,42.2 				"/>
			</g>
		</g>
	</g>
	<g id="XMLID_2506_">
		<line id="XMLID_100_" class="st0" x1="227.6" y1="71.9" x2="234.4" y2="61.4"/>
		<g id="XMLID_96_">
			<line id="XMLID_99_" class="st12" x1="227.6" y1="71.9" x2="231.8" y2="65.4"/>
			<g id="XMLID_97_">
				<polygon id="XMLID_98_" class="st7" points="234.4,61.4 233,68.5 231.6,65.7 228.5,65.5 				"/>
			</g>
		</g>
	</g>
	<g id="XMLID_2494_">
		<line id="XMLID_94_" class="st0" x1="196.8" y1="119.3" x2="218.9" y2="85.6"/>
		<g id="XMLID_90_">
			<line id="XMLID_93_" class="st13" x1="196.8" y1="119.3" x2="216.3" y2="89.6"/>
			<g id="XMLID_91_">
				<polygon id="XMLID_92_" class="st2" points="218.9,85.6 217.5,92.7 216.1,89.9 213,89.7 				"/>
			</g>
		</g>
	</g>
	<g id="XMLID_2487_">
		<line id="XMLID_88_" class="st0" x1="181.5" y1="143" x2="188.3" y2="132.6"/>
		<g id="XMLID_84_">
			<line id="XMLID_87_" class="st14" x1="181.5" y1="143" x2="185.7" y2="136.5"/>
			<g id="XMLID_85_">
				<polygon id="XMLID_86_" class="st3" points="188.3,132.6 186.9,139.6 185.5,136.8 182.4,136.6 				"/>
			</g>
		</g>
	</g>
	<g id="XMLID_2480_">
		<line id="XMLID_82_" class="st0" x1="165.8" y1="166.6" x2="172.6" y2="156.2"/>
		<g id="XMLID_78_">
			<line id="XMLID_81_" class="st15" x1="165.8" y1="166.6" x2="170" y2="160.1"/>
			<g id="XMLID_79_">
				<polygon id="XMLID_80_" class="st4" points="172.6,156.2 171.2,163.2 169.8,160.4 166.7,160.3 				"/>
			</g>
		</g>
	</g>
	<g id="XMLID_2444_">
		<line id="XMLID_76_" class="st0" x1="150.3" y1="190.2" x2="157.1" y2="179.8"/>
		<g id="XMLID_72_">
			<line id="XMLID_75_" class="st16" x1="150.3" y1="190.2" x2="154.5" y2="183.7"/>
			<g id="XMLID_73_">
				<polygon id="XMLID_74_" class="st1" points="157.1,179.8 155.7,186.8 154.3,184 151.2,183.9 				"/>
			</g>
		</g>
	</g>
	<g id="XMLID_2437_">
		<line id="XMLID_112_" class="st0" x1="119.8" y1="237.2" x2="142.1" y2="203.4"/>
		<g id="XMLID_108_">
			<line id="XMLID_111_" class="st17" x1="119.8" y1="237.2" x2="139.5" y2="207.3"/>
			<g id="XMLID_109_">
				<polygon id="XMLID_110_" class="st5" points="142.1,203.4 140.7,210.4 139.3,207.6 136.2,207.4 				"/>
			</g>
		</g>
	</g>
</g>
</svg>
