<?xml version="1.0" encoding="utf-8"?>
<!-- Generator: Adobe Illustrator 19.0.0, SVG Export Plug-In . SVG Version: 6.00 Build 0)  -->
<svg version="1.1" id="Capa_1" xmlns="http://www.w3.org/2000/svg" xmlns:xlink="http://www.w3.org/1999/xlink" x="0px" y="0px"
	 viewBox="0 0 434.2 266.6" style="enable-background:new 0 0 434.2 266.6;" xml:space="preserve">
<style type="text/css">
	.st0{fill:#E8A91C;}
	.st1{fill:#FFFFFF;}
	.st2{fill:#F9D523;stroke:#E8A91C;stroke-width:2;stroke-miterlimit:10;}
	.st3{fill:none;stroke:#1D1D1B;stroke-width:2;stroke-linecap:round;stroke-miterlimit:10;}
</style>
<g id="XMLID_1962_">
	<g id="XMLID_15580_">
		<path id="XMLID_15934_" class="st0" d="M46.8,227.2l-14.7-19.9V194h11.8c0.7,0,1.2-0.5,1.2-1.2c0-0.7-0.5-1.2-1.2-1.2H32.1v-10
			c0-0.7-0.5-1.2-1.2-1.2c-0.7,0-1.2,0.5-1.2,1.2v10H17.9c-0.7,0-1.2,0.5-1.2,1.2c0,0.7,0.5,1.2,1.2,1.2h11.8v13.3l-15,19.9
			c-0.4,0.5-0.3,1.3,0.2,1.7c0.2,0.2,0.5,0.2,0.7,0.2c0.4,0,0.7-0.2,0.9-0.5l14.3-19l14,19c0.2,0.3,0.6,0.5,1,0.5
			c0.2,0,0.5-0.1,0.7-0.2C47.1,228.4,47.2,227.7,46.8,227.2z"/>
		<circle id="XMLID_15933_" class="st1" cx="30.9" cy="172.9" r="12.2"/>
		<path id="XMLID_15894_" class="st0" d="M30.9,186c-7.2,0-13-5.8-13-13c0-7.2,5.8-13,13-13c7.2,0,13,5.8,13,13
			C43.9,180.1,38.1,186,30.9,186z M30.9,161.6c-6.3,0-11.4,5.1-11.4,11.4c0,6.3,5.1,11.4,11.4,11.4c6.3,0,11.4-5.1,11.4-11.4
			C42.3,166.7,37.2,161.6,30.9,161.6z"/>
	</g>
	<rect id="XMLID_15495_" x="103.4" y="1" class="st2" width="329.8" height="264.6"/>
	<g id="XMLID_300_">
		<path id="XMLID_301_" d="M1,254.6v-9.8h7.3v1.7H3v2.2h4.9v1.7H3v2.7h5.5v1.7H1z"/>
		<path id="XMLID_303_" d="M10,247.5h1.7v1c0.6-0.8,1.4-1.1,2.2-1.1c0.5,0,0.9,0.1,1.2,0.3c0.3,0.2,0.6,0.5,0.8,0.9
			c0.3-0.4,0.7-0.7,1-0.9c0.4-0.2,0.7-0.3,1.2-0.3c0.5,0,1,0.1,1.3,0.3c0.4,0.2,0.6,0.5,0.8,0.9c0.1,0.3,0.2,0.8,0.2,1.5v4.6h-1.9
			v-4.1c0-0.7-0.1-1.2-0.2-1.4c-0.2-0.3-0.4-0.4-0.8-0.4c-0.3,0-0.5,0.1-0.7,0.2c-0.2,0.2-0.4,0.4-0.5,0.7c-0.1,0.3-0.2,0.8-0.2,1.5
			v3.4h-1.9v-3.9c0-0.7,0-1.1-0.1-1.3s-0.2-0.4-0.3-0.4c-0.1-0.1-0.3-0.1-0.6-0.1c-0.3,0-0.6,0.1-0.8,0.2s-0.4,0.4-0.5,0.7
			s-0.2,0.8-0.2,1.5v3.5H10V247.5z"/>
		<path id="XMLID_305_" d="M22.3,247.5h1.8v1c0.2-0.4,0.5-0.6,0.9-0.9s0.8-0.3,1.3-0.3c0.8,0,1.5,0.3,2.1,1c0.6,0.6,0.9,1.6,0.9,2.7
			c0,1.2-0.3,2.1-0.9,2.8c-0.6,0.7-1.3,1-2.1,1c-0.4,0-0.8-0.1-1.1-0.2c-0.3-0.2-0.7-0.4-1-0.8v3.6h-1.9V247.5z M24.2,250.9
			c0,0.8,0.2,1.4,0.5,1.8c0.3,0.4,0.7,0.6,1.2,0.6c0.4,0,0.8-0.2,1.1-0.5c0.3-0.4,0.4-0.9,0.4-1.7c0-0.7-0.1-1.3-0.4-1.7
			s-0.7-0.5-1.1-0.5c-0.5,0-0.8,0.2-1.1,0.5S24.2,250.2,24.2,250.9z"/>
		<path id="XMLID_308_" d="M30.8,254.6v-9.8h1.9v9.8H30.8z"/>
		<path id="XMLID_310_" d="M38.7,252.3l1.9,0.3c-0.2,0.7-0.6,1.2-1.1,1.6c-0.5,0.4-1.2,0.5-2,0.5c-1.2,0-2.2-0.4-2.8-1.2
			c-0.5-0.6-0.7-1.5-0.7-2.5c0-1.2,0.3-2.1,0.9-2.8c0.6-0.7,1.4-1,2.3-1c1.1,0,1.9,0.4,2.5,1.1c0.6,0.7,0.9,1.8,0.9,3.2H36
			c0,0.6,0.2,1,0.5,1.3c0.3,0.3,0.7,0.5,1.1,0.5c0.3,0,0.5-0.1,0.7-0.2S38.6,252.7,38.7,252.3z M38.8,250.4c0-0.5-0.2-1-0.4-1.2
			c-0.3-0.3-0.6-0.4-1-0.4c-0.4,0-0.8,0.2-1,0.5c-0.3,0.3-0.4,0.7-0.4,1.2H38.8z"/>
		<path id="XMLID_313_" d="M43.6,249.6l-1.7-0.3c0.2-0.7,0.5-1.2,1-1.5s1.2-0.5,2.1-0.5c0.8,0,1.5,0.1,1.9,0.3s0.7,0.5,0.9,0.8
			c0.2,0.3,0.3,0.9,0.3,1.7l0,2.2c0,0.6,0,1.1,0.1,1.4c0.1,0.3,0.2,0.6,0.3,1h-1.9c0-0.1-0.1-0.3-0.2-0.6c0-0.1-0.1-0.2-0.1-0.2
			c-0.3,0.3-0.7,0.5-1,0.7c-0.4,0.2-0.8,0.2-1.2,0.2c-0.7,0-1.3-0.2-1.7-0.6c-0.4-0.4-0.6-0.9-0.6-1.5c0-0.4,0.1-0.8,0.3-1.1
			s0.5-0.6,0.8-0.7c0.3-0.2,0.8-0.3,1.5-0.4c0.9-0.2,1.5-0.3,1.8-0.5v-0.2c0-0.4-0.1-0.6-0.3-0.8c-0.2-0.2-0.5-0.2-1-0.2
			c-0.3,0-0.6,0.1-0.8,0.2C43.9,249.1,43.8,249.3,43.6,249.6z M46.2,251.2c-0.2,0.1-0.6,0.2-1.1,0.3c-0.5,0.1-0.9,0.2-1,0.3
			c-0.2,0.2-0.4,0.4-0.4,0.7c0,0.3,0.1,0.5,0.3,0.7s0.4,0.3,0.8,0.3c0.3,0,0.7-0.1,1-0.3c0.2-0.2,0.4-0.4,0.4-0.6
			c0-0.2,0.1-0.5,0.1-0.9V251.2z"/>
		<path id="XMLID_316_" d="M56.4,254.6h-1.8v-1c-0.3,0.4-0.6,0.7-1,0.9c-0.4,0.2-0.8,0.3-1.2,0.3c-0.8,0-1.5-0.3-2.1-1
			c-0.6-0.7-0.9-1.6-0.9-2.8c0-1.2,0.3-2.1,0.9-2.8c0.6-0.6,1.3-0.9,2.2-0.9c0.8,0,1.5,0.3,2.1,1v-3.5h1.9V254.6z M51.4,250.9
			c0,0.8,0.1,1.3,0.3,1.7c0.3,0.5,0.7,0.7,1.3,0.7c0.4,0,0.8-0.2,1.1-0.6s0.5-0.9,0.5-1.7c0-0.8-0.1-1.4-0.4-1.8
			c-0.3-0.4-0.7-0.5-1.1-0.5c-0.4,0-0.8,0.2-1.1,0.5S51.4,250.2,51.4,250.9z"/>
		<path id="XMLID_319_" d="M57.8,250.9c0-0.6,0.2-1.2,0.5-1.8c0.3-0.6,0.7-1,1.3-1.3s1.2-0.5,1.9-0.5c1.1,0,2,0.4,2.7,1.1
			c0.7,0.7,1,1.6,1,2.7c0,1.1-0.3,2-1,2.7c-0.7,0.7-1.6,1.1-2.6,1.1c-0.7,0-1.3-0.1-1.9-0.4c-0.6-0.3-1-0.7-1.4-1.3
			S57.8,251.8,57.8,250.9z M59.8,251c0,0.7,0.2,1.2,0.5,1.6c0.3,0.4,0.7,0.6,1.2,0.6c0.5,0,0.9-0.2,1.2-0.6c0.3-0.4,0.5-0.9,0.5-1.6
			c0-0.7-0.2-1.2-0.5-1.6c-0.3-0.4-0.7-0.6-1.2-0.6c-0.5,0-0.9,0.2-1.2,0.6S59.8,250.3,59.8,251z"/>
	</g>
	<g id="XMLID_15555_">
		<path id="XMLID_15990_" class="st0" d="M46.8,72L32.1,52.1V38.8h11.8c0.7,0,1.2-0.5,1.2-1.2c0-0.7-0.5-1.2-1.2-1.2H32.1v-10
			c0-0.7-0.5-1.2-1.2-1.2c-0.7,0-1.2,0.5-1.2,1.2v10H17.9c-0.7,0-1.2,0.5-1.2,1.2c0,0.7,0.5,1.2,1.2,1.2h11.8v13.3L14.7,72
			c-0.4,0.5-0.3,1.3,0.2,1.7c0.2,0.2,0.5,0.2,0.7,0.2c0.4,0,0.7-0.2,0.9-0.5l14.3-19l14,19c0.2,0.3,0.6,0.5,1,0.5
			c0.2,0,0.5-0.1,0.7-0.2C47.1,73.3,47.2,72.5,46.8,72z"/>
		<circle id="XMLID_15958_" class="st1" cx="30.9" cy="17.8" r="12.2"/>
		<path id="XMLID_15935_" class="st0" d="M30.9,30.8c-7.2,0-13-5.8-13-13c0-7.2,5.8-13,13-13c7.2,0,13,5.8,13,13
			C43.9,25,38.1,30.8,30.9,30.8z M30.9,6.4c-6.3,0-11.4,5.1-11.4,11.4c0,6.3,5.1,11.4,11.4,11.4c6.3,0,11.4-5.1,11.4-11.4
			C42.3,11.5,37.2,6.4,30.9,6.4z"/>
	</g>
	<g id="XMLID_282_">
		<path id="XMLID_283_" d="M10.1,96.4v-9.8h3l1.8,6.7l1.8-6.7h3v9.8h-1.8v-7.7l-2,7.7h-1.9L12,88.7v7.7H10.1z"/>
		<path id="XMLID_285_" d="M25.7,94.2l1.9,0.3c-0.2,0.7-0.6,1.2-1.1,1.6c-0.5,0.4-1.2,0.5-2,0.5c-1.2,0-2.2-0.4-2.8-1.2
			c-0.5-0.6-0.7-1.5-0.7-2.5c0-1.2,0.3-2.1,0.9-2.8c0.6-0.7,1.4-1,2.3-1c1.1,0,1.9,0.4,2.5,1.1c0.6,0.7,0.9,1.8,0.9,3.2H23
			c0,0.6,0.2,1,0.5,1.3c0.3,0.3,0.7,0.5,1.1,0.5c0.3,0,0.5-0.1,0.7-0.2S25.6,94.5,25.7,94.2z M25.8,92.3c0-0.5-0.2-1-0.4-1.2
			c-0.3-0.3-0.6-0.4-1-0.4c-0.4,0-0.8,0.2-1,0.4c-0.3,0.3-0.4,0.7-0.4,1.2H25.8z M23.4,88.4l0.9-2h2.1l-1.8,2H23.4z"/>
		<path id="XMLID_289_" d="M35.8,96.4H34v-1c-0.3,0.4-0.6,0.7-1,0.9c-0.4,0.2-0.8,0.3-1.2,0.3c-0.8,0-1.5-0.3-2.1-1
			c-0.6-0.7-0.9-1.6-0.9-2.8c0-1.2,0.3-2.1,0.9-2.8c0.6-0.6,1.3-0.9,2.2-0.9c0.8,0,1.5,0.3,2.1,1v-3.5h1.9V96.4z M30.7,92.7
			c0,0.8,0.1,1.3,0.3,1.7c0.3,0.5,0.7,0.7,1.3,0.7c0.4,0,0.8-0.2,1.1-0.6s0.5-0.9,0.5-1.7c0-0.8-0.1-1.4-0.4-1.8
			c-0.3-0.4-0.7-0.5-1.1-0.5c-0.4,0-0.8,0.2-1.1,0.5S30.7,92,30.7,92.7z"/>
		<path id="XMLID_292_" d="M37.6,88.3v-1.7h1.9v1.7H37.6z M37.6,96.4v-7.1h1.9v7.1H37.6z"/>
		<path id="XMLID_295_" d="M47.7,91.4l-1.9,0.3c-0.1-0.4-0.2-0.7-0.4-0.8c-0.2-0.2-0.5-0.3-0.9-0.3c-0.5,0-0.8,0.2-1.1,0.5
			C43.1,91.4,43,92,43,92.7c0,0.8,0.1,1.4,0.4,1.8s0.7,0.5,1.1,0.5c0.4,0,0.7-0.1,0.9-0.3c0.2-0.2,0.4-0.6,0.5-1.1l1.9,0.3
			c-0.2,0.9-0.6,1.5-1.1,1.9c-0.5,0.4-1.3,0.7-2.2,0.7c-1,0-1.9-0.3-2.5-1C41.3,94.9,41,94,41,92.9c0-1.2,0.3-2.1,0.9-2.7
			c0.6-0.7,1.5-1,2.5-1c0.9,0,1.6,0.2,2.1,0.6C47.1,90.1,47.4,90.6,47.7,91.4z"/>
		<path id="XMLID_297_" d="M48.7,92.8c0-0.6,0.2-1.2,0.5-1.8c0.3-0.6,0.7-1,1.3-1.3s1.2-0.5,1.9-0.5c1.1,0,2,0.4,2.7,1.1
			c0.7,0.7,1,1.6,1,2.7c0,1.1-0.3,2-1,2.7c-0.7,0.7-1.6,1.1-2.6,1.1c-0.7,0-1.3-0.1-1.9-0.4c-0.6-0.3-1-0.7-1.4-1.3
			S48.7,93.6,48.7,92.8z M50.6,92.9c0,0.7,0.2,1.2,0.5,1.6c0.3,0.4,0.7,0.6,1.2,0.6c0.5,0,0.9-0.2,1.2-0.6c0.3-0.4,0.5-0.9,0.5-1.6
			c0-0.7-0.2-1.2-0.5-1.6c-0.3-0.4-0.7-0.6-1.2-0.6c-0.5,0-0.9,0.2-1.2,0.6C50.8,91.6,50.6,92.2,50.6,92.9z"/>
	</g>
	<g id="XMLID_266_">
		<path id="XMLID_267_" d="M233.3,27.6l2.3-0.2c0.1,0.8,0.4,1.3,0.8,1.7c0.4,0.4,1,0.5,1.7,0.5c0.7,0,1.3-0.2,1.7-0.5
			c0.4-0.3,0.6-0.7,0.6-1.1c0-0.3-0.1-0.5-0.2-0.7c-0.2-0.2-0.4-0.4-0.8-0.5c-0.3-0.1-0.9-0.3-1.9-0.5c-1.2-0.3-2.1-0.7-2.6-1.1
			c-0.7-0.6-1.1-1.4-1.1-2.3c0-0.6,0.2-1.1,0.5-1.6s0.8-0.9,1.4-1.2s1.4-0.4,2.3-0.4c1.4,0,2.5,0.3,3.2,0.9c0.7,0.6,1.1,1.5,1.1,2.5
			l-2.3,0.1c-0.1-0.6-0.3-1-0.6-1.3s-0.8-0.4-1.5-0.4c-0.7,0-1.2,0.1-1.6,0.4c-0.2,0.2-0.4,0.4-0.4,0.7c0,0.3,0.1,0.5,0.3,0.7
			c0.3,0.2,1,0.5,2.1,0.8s2,0.5,2.5,0.8c0.5,0.3,1,0.7,1.3,1.2s0.5,1.1,0.5,1.8c0,0.7-0.2,1.3-0.5,1.8c-0.4,0.6-0.9,1-1.5,1.3
			s-1.5,0.4-2.5,0.4c-1.4,0-2.6-0.3-3.3-1C233.9,29.9,233.5,28.9,233.3,27.6z"/>
		<path id="XMLID_269_" d="M244.5,31.3V19.9h2.3v11.5H244.5z"/>
		<path id="XMLID_271_" d="M248.4,27.6l2.3-0.2c0.1,0.8,0.4,1.3,0.8,1.7c0.4,0.4,1,0.5,1.7,0.5c0.7,0,1.3-0.2,1.7-0.5
			c0.4-0.3,0.6-0.7,0.6-1.1c0-0.3-0.1-0.5-0.2-0.7c-0.2-0.2-0.4-0.4-0.8-0.5c-0.3-0.1-0.9-0.3-1.9-0.5c-1.2-0.3-2.1-0.7-2.6-1.1
			c-0.7-0.6-1.1-1.4-1.1-2.3c0-0.6,0.2-1.1,0.5-1.6s0.8-0.9,1.4-1.2s1.4-0.4,2.3-0.4c1.4,0,2.5,0.3,3.2,0.9c0.7,0.6,1.1,1.5,1.1,2.5
			l-2.3,0.1c-0.1-0.6-0.3-1-0.6-1.3s-0.8-0.4-1.5-0.4c-0.7,0-1.2,0.1-1.6,0.4c-0.2,0.2-0.4,0.4-0.4,0.7c0,0.3,0.1,0.5,0.3,0.7
			c0.3,0.2,1,0.5,2.1,0.8s2,0.5,2.5,0.8c0.5,0.3,1,0.7,1.3,1.2s0.5,1.1,0.5,1.8c0,0.7-0.2,1.3-0.5,1.8c-0.4,0.6-0.9,1-1.5,1.3
			s-1.5,0.4-2.5,0.4c-1.4,0-2.6-0.3-3.3-1C249,29.9,248.6,28.9,248.4,27.6z"/>
		<path id="XMLID_273_" d="M262.3,31.3v-9.5h-3.4v-1.9h9.1v1.9h-3.4v9.5H262.3z"/>
		<path id="XMLID_275_" d="M269.5,31.3V19.9h8.5v1.9h-6.2v2.5h5.8v1.9h-5.8v3.1h6.4v1.9H269.5z"/>
		<path id="XMLID_277_" d="M280.1,31.3V19.9h3.5l2.1,7.8l2.1-7.8h3.5v11.5H289v-9l-2.3,9h-2.2l-2.3-9v9H280.1z"/>
		<path id="XMLID_279_" d="M303.8,31.3h-2.5l-1-2.6h-4.6l-0.9,2.6h-2.5l4.5-11.5h2.4L303.8,31.3z M299.5,26.8l-1.6-4.3l-1.5,4.3
			H299.5z"/>
	</g>
	<ellipse id="XMLID_14219_" cx="268.3" cy="227.1" rx="113" ry="23.1"/>
	<ellipse id="XMLID_9817_" cx="268.3" cy="174.4" rx="113" ry="23.1"/>
	<ellipse id="XMLID_10132_" cx="268.3" cy="121.7" rx="113" ry="23.1"/>
	<ellipse id="XMLID_10087_" cx="268.3" cy="69" rx="113" ry="23.1"/>
	<g id="XMLID_199_">
		<path id="XMLID_200_" class="st1" d="M197.4,73.9l3-7.9h1.1l3.2,7.9h-1.2l-0.9-2.4h-3.3l-0.9,2.4H197.4z M199.6,70.7h2.7l-0.8-2.2
			c-0.3-0.7-0.4-1.2-0.6-1.6c-0.1,0.5-0.2,1-0.4,1.5L199.6,70.7z"/>
		<path id="XMLID_203_" class="st1" d="M209.1,73.9v-0.7c-0.4,0.6-0.9,0.8-1.6,0.8c-0.5,0-0.9-0.1-1.3-0.4c-0.4-0.3-0.7-0.6-0.9-1
			c-0.2-0.4-0.3-1-0.3-1.5c0-0.6,0.1-1.1,0.3-1.5c0.2-0.5,0.5-0.8,0.9-1.1s0.8-0.4,1.3-0.4c0.3,0,0.6,0.1,0.9,0.2
			c0.3,0.1,0.5,0.3,0.7,0.6V66h1v7.9H209.1z M206.1,71c0,0.7,0.2,1.3,0.5,1.6s0.7,0.5,1.1,0.5c0.4,0,0.8-0.2,1.1-0.5
			c0.3-0.3,0.4-0.9,0.4-1.6c0-0.8-0.2-1.4-0.5-1.7s-0.7-0.5-1.1-0.5c-0.4,0-0.8,0.2-1.1,0.5C206.2,69.7,206.1,70.3,206.1,71z"/>
		<path id="XMLID_206_" class="st1" d="M211.6,73.9v-5.7h0.9V69c0.2-0.3,0.4-0.5,0.7-0.7c0.3-0.2,0.6-0.3,1-0.3c0.4,0,0.8,0.1,1,0.3
			c0.3,0.2,0.5,0.4,0.6,0.7c0.5-0.7,1-1,1.8-1c0.6,0,1,0.2,1.3,0.5c0.3,0.3,0.5,0.8,0.5,1.4v3.9h-1v-3.6c0-0.4,0-0.7-0.1-0.8
			c-0.1-0.2-0.2-0.3-0.3-0.4c-0.2-0.1-0.4-0.2-0.6-0.2c-0.4,0-0.7,0.1-1,0.4c-0.3,0.3-0.4,0.7-0.4,1.3v3.3h-1v-3.7
			c0-0.4-0.1-0.8-0.2-1s-0.4-0.3-0.8-0.3c-0.3,0-0.5,0.1-0.8,0.2c-0.2,0.1-0.4,0.4-0.5,0.6s-0.2,0.7-0.2,1.2v3H211.6z"/>
		<path id="XMLID_208_" class="st1" d="M220.7,67.1V66h1v1.1H220.7z M220.7,73.9v-5.7h1v5.7H220.7z"/>
		<path id="XMLID_211_" class="st1" d="M223.2,73.9v-5.7h0.9V69c0.4-0.6,1-0.9,1.8-0.9c0.3,0,0.7,0.1,0.9,0.2
			c0.3,0.1,0.5,0.3,0.6,0.5s0.2,0.4,0.3,0.7c0,0.2,0.1,0.5,0.1,0.9v3.5h-1v-3.5c0-0.4,0-0.7-0.1-0.9c-0.1-0.2-0.2-0.4-0.4-0.5
			c-0.2-0.1-0.4-0.2-0.7-0.2c-0.4,0-0.8,0.1-1.1,0.4c-0.3,0.3-0.4,0.8-0.4,1.5v3.1H223.2z"/>
		<path id="XMLID_213_" class="st1" d="M229.3,67.1V66h1v1.1H229.3z M229.3,73.9v-5.7h1v5.7H229.3z"/>
		<path id="XMLID_216_" class="st1" d="M231.3,72.2l1-0.2c0.1,0.4,0.2,0.7,0.4,0.9s0.6,0.3,1,0.3c0.4,0,0.8-0.1,1-0.3
			c0.2-0.2,0.3-0.4,0.3-0.6c0-0.2-0.1-0.4-0.3-0.5c-0.1-0.1-0.5-0.2-1-0.3c-0.7-0.2-1.2-0.3-1.5-0.5c-0.3-0.1-0.5-0.3-0.6-0.5
			c-0.1-0.2-0.2-0.5-0.2-0.8c0-0.3,0.1-0.5,0.2-0.7c0.1-0.2,0.3-0.4,0.5-0.5c0.2-0.1,0.4-0.2,0.6-0.3c0.3-0.1,0.5-0.1,0.8-0.1
			c0.4,0,0.8,0.1,1.2,0.2c0.3,0.1,0.6,0.3,0.7,0.5c0.2,0.2,0.3,0.5,0.3,0.9l-0.9,0.1c0-0.3-0.2-0.5-0.4-0.7s-0.5-0.2-0.9-0.2
			c-0.4,0-0.8,0.1-1,0.2s-0.3,0.3-0.3,0.5c0,0.1,0,0.2,0.1,0.3c0.1,0.1,0.2,0.2,0.4,0.3c0.1,0,0.4,0.1,0.9,0.2
			c0.7,0.2,1.2,0.3,1.4,0.4c0.3,0.1,0.5,0.3,0.6,0.5s0.2,0.5,0.2,0.8c0,0.3-0.1,0.6-0.3,0.9c-0.2,0.3-0.5,0.5-0.8,0.7
			c-0.4,0.2-0.8,0.2-1.2,0.2c-0.7,0-1.3-0.2-1.7-0.5S231.4,72.8,231.3,72.2z"/>
		<path id="XMLID_218_" class="st1" d="M239.3,73l0.1,0.9c-0.3,0.1-0.5,0.1-0.7,0.1c-0.4,0-0.6-0.1-0.8-0.2s-0.3-0.3-0.4-0.4
			c-0.1-0.2-0.1-0.6-0.1-1.1v-3.3h-0.7v-0.8h0.7v-1.4l1-0.6v2h1v0.8h-1v3.3c0,0.3,0,0.5,0.1,0.5s0.1,0.1,0.2,0.2s0.2,0.1,0.3,0.1
			C239,73.1,239.2,73,239.3,73z"/>
		<path id="XMLID_220_" class="st1" d="M240.3,73.9v-5.7h0.9V69c0.2-0.4,0.4-0.7,0.6-0.8s0.4-0.2,0.6-0.2c0.3,0,0.7,0.1,1,0.3
			l-0.3,0.9c-0.2-0.1-0.5-0.2-0.7-0.2c-0.2,0-0.4,0.1-0.6,0.2c-0.2,0.1-0.3,0.3-0.4,0.5c-0.1,0.3-0.2,0.7-0.2,1.1v3H240.3z"/>
		<path id="XMLID_222_" class="st1" d="M247.7,73.2c-0.4,0.3-0.7,0.5-1,0.6c-0.3,0.1-0.7,0.2-1.1,0.2c-0.6,0-1.1-0.2-1.4-0.5
			c-0.3-0.3-0.5-0.7-0.5-1.2c0-0.3,0.1-0.5,0.2-0.8c0.1-0.2,0.3-0.4,0.5-0.6c0.2-0.1,0.4-0.2,0.7-0.3c0.2-0.1,0.5-0.1,0.9-0.1
			c0.8-0.1,1.4-0.2,1.7-0.3c0-0.1,0-0.2,0-0.3c0-0.4-0.1-0.7-0.3-0.8c-0.2-0.2-0.6-0.3-1.1-0.3c-0.5,0-0.8,0.1-1,0.2
			c-0.2,0.2-0.4,0.4-0.5,0.8l-0.9-0.1c0.1-0.4,0.2-0.7,0.4-1c0.2-0.2,0.5-0.4,0.9-0.6c0.4-0.1,0.8-0.2,1.3-0.2
			c0.5,0,0.9,0.1,1.2,0.2s0.5,0.3,0.7,0.4c0.1,0.2,0.2,0.4,0.3,0.7c0,0.2,0,0.5,0,0.9v1.3c0,0.9,0,1.5,0.1,1.7
			c0,0.2,0.1,0.5,0.2,0.7h-1C247.8,73.7,247.7,73.5,247.7,73.2z M247.6,71c-0.4,0.1-0.9,0.3-1.6,0.4c-0.4,0.1-0.7,0.1-0.8,0.2
			c-0.2,0.1-0.3,0.2-0.4,0.3c-0.1,0.1-0.1,0.3-0.1,0.5c0,0.3,0.1,0.5,0.3,0.6c0.2,0.2,0.5,0.3,0.9,0.3c0.4,0,0.7-0.1,1-0.2
			c0.3-0.2,0.5-0.4,0.6-0.7c0.1-0.2,0.2-0.5,0.2-1V71z"/>
		<path id="XMLID_225_" class="st1" d="M250,73.9v-5.7h0.9V69c0.2-0.4,0.4-0.7,0.6-0.8c0.2-0.1,0.4-0.2,0.6-0.2c0.3,0,0.7,0.1,1,0.3
			l-0.3,0.9c-0.2-0.1-0.5-0.2-0.7-0.2c-0.2,0-0.4,0.1-0.6,0.2c-0.2,0.1-0.3,0.3-0.4,0.5c-0.1,0.3-0.2,0.7-0.2,1.1v3H250z"/>
		<path id="XMLID_227_" class="st1" d="M257.4,73.2c-0.4,0.3-0.7,0.5-1,0.6s-0.7,0.2-1.1,0.2c-0.6,0-1.1-0.2-1.4-0.5
			c-0.3-0.3-0.5-0.7-0.5-1.2c0-0.3,0.1-0.5,0.2-0.8c0.1-0.2,0.3-0.4,0.5-0.6c0.2-0.1,0.4-0.2,0.7-0.3c0.2-0.1,0.5-0.1,0.9-0.1
			c0.8-0.1,1.4-0.2,1.7-0.3c0-0.1,0-0.2,0-0.3c0-0.4-0.1-0.7-0.3-0.8c-0.2-0.2-0.6-0.3-1.1-0.3c-0.5,0-0.8,0.1-1,0.2
			c-0.2,0.2-0.4,0.4-0.5,0.8l-0.9-0.1c0.1-0.4,0.2-0.7,0.4-1c0.2-0.2,0.5-0.4,0.9-0.6c0.4-0.1,0.8-0.2,1.3-0.2
			c0.5,0,0.9,0.1,1.2,0.2c0.3,0.1,0.5,0.3,0.7,0.4c0.1,0.2,0.2,0.4,0.3,0.7c0,0.2,0,0.5,0,0.9v1.3c0,0.9,0,1.5,0.1,1.7
			c0,0.2,0.1,0.5,0.2,0.7h-1C257.5,73.7,257.5,73.5,257.4,73.2z M257.4,71c-0.4,0.1-0.9,0.3-1.6,0.4c-0.4,0.1-0.7,0.1-0.8,0.2
			s-0.3,0.2-0.4,0.3c-0.1,0.1-0.1,0.3-0.1,0.5c0,0.3,0.1,0.5,0.3,0.6c0.2,0.2,0.5,0.3,0.9,0.3c0.4,0,0.7-0.1,1-0.2
			c0.3-0.2,0.5-0.4,0.6-0.7c0.1-0.2,0.2-0.5,0.2-1V71z"/>
		<path id="XMLID_230_" class="st1" d="M266.6,73.9v-0.7c-0.4,0.6-0.9,0.8-1.6,0.8c-0.5,0-0.9-0.1-1.3-0.4c-0.4-0.3-0.7-0.6-0.9-1
			c-0.2-0.4-0.3-1-0.3-1.5c0-0.6,0.1-1.1,0.3-1.5c0.2-0.5,0.5-0.8,0.9-1.1s0.8-0.4,1.3-0.4c0.3,0,0.7,0.1,0.9,0.2
			c0.3,0.1,0.5,0.3,0.7,0.6V66h1v7.9H266.6z M263.5,71c0,0.7,0.2,1.3,0.5,1.6c0.3,0.4,0.7,0.5,1.1,0.5c0.4,0,0.8-0.2,1.1-0.5
			c0.3-0.3,0.4-0.9,0.4-1.6c0-0.8-0.2-1.4-0.5-1.7s-0.7-0.5-1.1-0.5c-0.4,0-0.8,0.2-1.1,0.5S263.5,70.3,263.5,71z"/>
		<path id="XMLID_233_" class="st1" d="M272.7,73.2c-0.4,0.3-0.7,0.5-1,0.6c-0.3,0.1-0.7,0.2-1.1,0.2c-0.6,0-1.1-0.2-1.4-0.5
			c-0.3-0.3-0.5-0.7-0.5-1.2c0-0.3,0.1-0.5,0.2-0.8c0.1-0.2,0.3-0.4,0.5-0.6c0.2-0.1,0.4-0.2,0.7-0.3c0.2-0.1,0.5-0.1,0.9-0.1
			c0.8-0.1,1.4-0.2,1.7-0.3c0-0.1,0-0.2,0-0.3c0-0.4-0.1-0.7-0.3-0.8c-0.2-0.2-0.6-0.3-1.1-0.3c-0.5,0-0.8,0.1-1,0.2
			c-0.2,0.2-0.4,0.4-0.5,0.8l-0.9-0.1c0.1-0.4,0.2-0.7,0.4-1c0.2-0.2,0.5-0.4,0.9-0.6c0.4-0.1,0.8-0.2,1.3-0.2
			c0.5,0,0.9,0.1,1.2,0.2s0.5,0.3,0.7,0.4c0.1,0.2,0.2,0.4,0.3,0.7c0,0.2,0,0.5,0,0.9v1.3c0,0.9,0,1.5,0.1,1.7
			c0,0.2,0.1,0.5,0.2,0.7h-1C272.8,73.7,272.8,73.5,272.7,73.2z M272.7,71c-0.4,0.1-0.9,0.3-1.6,0.4c-0.4,0.1-0.7,0.1-0.8,0.2
			c-0.2,0.1-0.3,0.2-0.4,0.3c-0.1,0.1-0.1,0.3-0.1,0.5c0,0.3,0.1,0.5,0.3,0.6c0.2,0.2,0.5,0.3,0.9,0.3c0.4,0,0.7-0.1,1-0.2
			c0.3-0.2,0.5-0.4,0.6-0.7c0.1-0.2,0.2-0.5,0.2-1V71z"/>
		<path id="XMLID_236_" class="st1" d="M277.2,73l0.1,0.9c-0.3,0.1-0.5,0.1-0.7,0.1c-0.4,0-0.6-0.1-0.8-0.2s-0.3-0.3-0.4-0.4
			c-0.1-0.2-0.1-0.6-0.1-1.1v-3.3h-0.7v-0.8h0.7v-1.4l1-0.6v2h1v0.8h-1v3.3c0,0.3,0,0.5,0.1,0.5c0,0.1,0.1,0.1,0.2,0.2
			c0.1,0,0.2,0.1,0.3,0.1C276.9,73.1,277.1,73,277.2,73z"/>
		<path id="XMLID_238_" class="st1" d="M277.8,71c0-1.1,0.3-1.8,0.9-2.3c0.5-0.4,1.1-0.6,1.8-0.6c0.8,0,1.4,0.3,1.9,0.8
			c0.5,0.5,0.7,1.2,0.7,2.1c0,0.7-0.1,1.3-0.3,1.7c-0.2,0.4-0.5,0.7-1,1c-0.4,0.2-0.9,0.3-1.4,0.3c-0.8,0-1.4-0.3-1.9-0.8
			C278.1,72.7,277.8,72,277.8,71z M278.8,71c0,0.7,0.2,1.3,0.5,1.6c0.3,0.4,0.7,0.5,1.2,0.5c0.5,0,0.9-0.2,1.2-0.5s0.5-0.9,0.5-1.7
			c0-0.7-0.2-1.2-0.5-1.6c-0.3-0.4-0.7-0.5-1.2-0.5c-0.5,0-0.9,0.2-1.2,0.5C279,69.8,278.8,70.3,278.8,71z"/>
		<path id="XMLID_241_" class="st1" d="M283.9,72.2l1-0.2c0.1,0.4,0.2,0.7,0.4,0.9c0.2,0.2,0.6,0.3,1,0.3c0.4,0,0.8-0.1,1-0.3
			c0.2-0.2,0.3-0.4,0.3-0.6c0-0.2-0.1-0.4-0.3-0.5c-0.1-0.1-0.5-0.2-1-0.3c-0.7-0.2-1.2-0.3-1.5-0.5c-0.3-0.1-0.5-0.3-0.6-0.5
			c-0.1-0.2-0.2-0.5-0.2-0.8c0-0.3,0.1-0.5,0.2-0.7c0.1-0.2,0.3-0.4,0.5-0.5c0.2-0.1,0.4-0.2,0.6-0.3c0.3-0.1,0.5-0.1,0.8-0.1
			c0.4,0,0.8,0.1,1.2,0.2c0.3,0.1,0.6,0.3,0.8,0.5c0.2,0.2,0.3,0.5,0.3,0.9l-0.9,0.1c0-0.3-0.2-0.5-0.4-0.7
			c-0.2-0.2-0.5-0.2-0.9-0.2c-0.4,0-0.8,0.1-1,0.2s-0.3,0.3-0.3,0.5c0,0.1,0,0.2,0.1,0.3c0.1,0.1,0.2,0.2,0.4,0.3
			c0.1,0,0.4,0.1,0.9,0.2c0.7,0.2,1.2,0.3,1.4,0.4c0.3,0.1,0.5,0.3,0.6,0.5s0.2,0.5,0.2,0.8c0,0.3-0.1,0.6-0.3,0.9
			c-0.2,0.3-0.5,0.5-0.8,0.7c-0.4,0.2-0.8,0.2-1.2,0.2c-0.7,0-1.3-0.2-1.7-0.5C284.3,73.2,284,72.8,283.9,72.2z"/>
		<path id="XMLID_243_" class="st1" d="M292.9,76.1v-7.9h0.9v0.7c0.2-0.3,0.4-0.5,0.7-0.7c0.3-0.1,0.6-0.2,1-0.2
			c0.5,0,0.9,0.1,1.3,0.4s0.7,0.6,0.8,1.1c0.2,0.5,0.3,1,0.3,1.5c0,0.6-0.1,1.1-0.3,1.6c-0.2,0.5-0.5,0.8-0.9,1.1
			c-0.4,0.2-0.8,0.4-1.3,0.4c-0.3,0-0.6-0.1-0.9-0.2c-0.3-0.1-0.5-0.3-0.6-0.5v2.8H292.9z M293.7,71.1c0,0.7,0.1,1.3,0.4,1.6
			s0.7,0.5,1.1,0.5c0.4,0,0.8-0.2,1.1-0.5c0.3-0.4,0.5-0.9,0.5-1.7c0-0.7-0.1-1.3-0.4-1.6c-0.3-0.4-0.7-0.5-1.1-0.5
			c-0.4,0-0.8,0.2-1.1,0.6C293.9,69.8,293.7,70.3,293.7,71.1z"/>
		<path id="XMLID_246_" class="st1" d="M302.7,73.2c-0.4,0.3-0.7,0.5-1,0.6c-0.3,0.1-0.7,0.2-1.1,0.2c-0.6,0-1.1-0.2-1.4-0.5
			c-0.3-0.3-0.5-0.7-0.5-1.2c0-0.3,0.1-0.5,0.2-0.8c0.1-0.2,0.3-0.4,0.5-0.6s0.4-0.2,0.7-0.3c0.2-0.1,0.5-0.1,0.9-0.1
			c0.8-0.1,1.4-0.2,1.7-0.3c0-0.1,0-0.2,0-0.3c0-0.4-0.1-0.7-0.3-0.8c-0.2-0.2-0.6-0.3-1.1-0.3c-0.5,0-0.8,0.1-1,0.2
			c-0.2,0.2-0.4,0.4-0.5,0.8l-0.9-0.1c0.1-0.4,0.2-0.7,0.4-1c0.2-0.2,0.5-0.4,0.9-0.6c0.4-0.1,0.8-0.2,1.3-0.2
			c0.5,0,0.9,0.1,1.2,0.2c0.3,0.1,0.5,0.3,0.7,0.4c0.1,0.2,0.2,0.4,0.3,0.7c0,0.2,0,0.5,0,0.9v1.3c0,0.9,0,1.5,0.1,1.7
			c0,0.2,0.1,0.5,0.2,0.7h-1C302.8,73.7,302.7,73.5,302.7,73.2z M302.6,71c-0.4,0.1-0.9,0.3-1.6,0.4c-0.4,0.1-0.7,0.1-0.8,0.2
			s-0.3,0.2-0.4,0.3c-0.1,0.1-0.1,0.3-0.1,0.5c0,0.3,0.1,0.5,0.3,0.6s0.5,0.3,0.9,0.3c0.4,0,0.7-0.1,1-0.2c0.3-0.2,0.5-0.4,0.6-0.7
			c0.1-0.2,0.2-0.5,0.2-1V71z"/>
		<path id="XMLID_249_" class="st1" d="M308.8,71.8l1,0.1c-0.1,0.7-0.4,1.2-0.8,1.5c-0.4,0.4-1,0.6-1.6,0.6c-0.8,0-1.4-0.3-1.9-0.8
			c-0.5-0.5-0.7-1.2-0.7-2.2c0-0.6,0.1-1.2,0.3-1.6s0.5-0.8,0.9-1c0.4-0.2,0.9-0.3,1.4-0.3c0.6,0,1.1,0.2,1.5,0.5
			c0.4,0.3,0.6,0.8,0.8,1.3l-0.9,0.1c-0.1-0.4-0.2-0.7-0.5-0.9c-0.2-0.2-0.5-0.3-0.8-0.3c-0.5,0-0.9,0.2-1.2,0.5
			c-0.3,0.3-0.5,0.9-0.5,1.7c0,0.8,0.1,1.3,0.4,1.7s0.7,0.5,1.1,0.5c0.4,0,0.7-0.1,1-0.3C308.6,72.6,308.8,72.3,308.8,71.8z"/>
		<path id="XMLID_251_" class="st1" d="M310.6,67.1V66h1v1.1H310.6z M310.6,73.9v-5.7h1v5.7H310.6z"/>
		<path id="XMLID_254_" class="st1" d="M316.9,72.1l1,0.1c-0.2,0.6-0.4,1-0.9,1.4c-0.4,0.3-1,0.5-1.6,0.5c-0.8,0-1.5-0.3-2-0.8
			c-0.5-0.5-0.7-1.2-0.7-2.2c0-1,0.2-1.7,0.7-2.2s1.1-0.8,1.9-0.8c0.8,0,1.4,0.3,1.9,0.8c0.5,0.5,0.7,1.2,0.7,2.2c0,0.1,0,0.1,0,0.3
			h-4.3c0,0.6,0.2,1.1,0.5,1.4s0.7,0.5,1.2,0.5c0.4,0,0.7-0.1,0.9-0.3C316.6,72.8,316.8,72.5,316.9,72.1z M313.8,70.5h3.2
			c0-0.5-0.2-0.8-0.4-1.1c-0.3-0.4-0.7-0.6-1.2-0.6c-0.4,0-0.8,0.1-1.1,0.4C314,69.6,313.8,70,313.8,70.5z"/>
		<path id="XMLID_257_" class="st1" d="M319.2,73.9v-5.7h0.9V69c0.4-0.6,1-0.9,1.8-0.9c0.3,0,0.7,0.1,0.9,0.2
			c0.3,0.1,0.5,0.3,0.6,0.5c0.1,0.2,0.2,0.4,0.3,0.7c0,0.2,0.1,0.5,0.1,0.9v3.5h-1v-3.5c0-0.4,0-0.7-0.1-0.9
			c-0.1-0.2-0.2-0.4-0.4-0.5c-0.2-0.1-0.4-0.2-0.7-0.2c-0.4,0-0.8,0.1-1.1,0.4s-0.4,0.8-0.4,1.5v3.1H319.2z"/>
		<path id="XMLID_259_" class="st1" d="M327.4,73l0.1,0.9c-0.3,0.1-0.5,0.1-0.7,0.1c-0.4,0-0.6-0.1-0.8-0.2s-0.3-0.3-0.4-0.4
			c-0.1-0.2-0.1-0.6-0.1-1.1v-3.3h-0.7v-0.8h0.7v-1.4l1-0.6v2h1v0.8h-1v3.3c0,0.3,0,0.5,0.1,0.5c0,0.1,0.1,0.1,0.2,0.2
			c0.1,0,0.2,0.1,0.3,0.1C327.1,73.1,327.2,73,327.4,73z"/>
		<path id="XMLID_261_" class="st1" d="M332.2,72.1l1,0.1c-0.2,0.6-0.4,1-0.9,1.4s-1,0.5-1.6,0.5c-0.8,0-1.5-0.3-2-0.8
			c-0.5-0.5-0.7-1.2-0.7-2.2c0-1,0.2-1.7,0.7-2.2s1.1-0.8,1.9-0.8c0.8,0,1.4,0.3,1.9,0.8s0.7,1.2,0.7,2.2c0,0.1,0,0.1,0,0.3H329
			c0,0.6,0.2,1.1,0.5,1.4c0.3,0.3,0.7,0.5,1.2,0.5c0.4,0,0.7-0.1,0.9-0.3S332.1,72.5,332.2,72.1z M329.1,70.5h3.2
			c0-0.5-0.2-0.8-0.4-1.1c-0.3-0.4-0.7-0.6-1.2-0.6c-0.4,0-0.8,0.1-1.1,0.4C329.3,69.6,329.1,70,329.1,70.5z"/>
		<path id="XMLID_264_" class="st1" d="M334.1,72.2l1-0.2c0.1,0.4,0.2,0.7,0.4,0.9c0.2,0.2,0.6,0.3,1,0.3c0.4,0,0.8-0.1,1-0.3
			c0.2-0.2,0.3-0.4,0.3-0.6c0-0.2-0.1-0.4-0.3-0.5c-0.1-0.1-0.5-0.2-1-0.3c-0.7-0.2-1.2-0.3-1.5-0.5c-0.3-0.1-0.5-0.3-0.6-0.5
			c-0.1-0.2-0.2-0.5-0.2-0.8c0-0.3,0.1-0.5,0.2-0.7c0.1-0.2,0.3-0.4,0.5-0.5c0.2-0.1,0.4-0.2,0.6-0.3c0.3-0.1,0.5-0.1,0.8-0.1
			c0.4,0,0.8,0.1,1.2,0.2c0.3,0.1,0.6,0.3,0.8,0.5c0.2,0.2,0.3,0.5,0.3,0.9l-0.9,0.1c0-0.3-0.2-0.5-0.4-0.7
			c-0.2-0.2-0.5-0.2-0.9-0.2c-0.4,0-0.8,0.1-1,0.2s-0.3,0.3-0.3,0.5c0,0.1,0,0.2,0.1,0.3c0.1,0.1,0.2,0.2,0.4,0.3
			c0.1,0,0.4,0.1,0.9,0.2c0.7,0.2,1.2,0.3,1.4,0.4c0.3,0.1,0.5,0.3,0.6,0.5s0.2,0.5,0.2,0.8c0,0.3-0.1,0.6-0.3,0.9
			c-0.2,0.3-0.5,0.5-0.8,0.7c-0.4,0.2-0.8,0.2-1.2,0.2c-0.7,0-1.3-0.2-1.7-0.5C334.4,73.2,334.2,72.8,334.1,72.2z"/>
	</g>
	<g id="XMLID_126_">
		<path id="XMLID_127_" class="st1" d="M190.6,125.4l3-7.9h1.1l3.2,7.9h-1.2l-0.9-2.4h-3.3l-0.9,2.4H190.6z M192.9,122.1h2.7
			l-0.8-2.2c-0.3-0.7-0.4-1.2-0.6-1.6c-0.1,0.5-0.2,1-0.4,1.5L192.9,122.1z"/>
		<path id="XMLID_130_" class="st1" d="M202.4,125.4v-0.7c-0.4,0.6-0.9,0.8-1.6,0.8c-0.5,0-0.9-0.1-1.3-0.4c-0.4-0.3-0.7-0.6-0.9-1
			c-0.2-0.4-0.3-1-0.3-1.5c0-0.6,0.1-1.1,0.3-1.5c0.2-0.5,0.5-0.8,0.9-1.1s0.8-0.4,1.3-0.4c0.3,0,0.6,0.1,0.9,0.2
			c0.3,0.1,0.5,0.3,0.7,0.6v-2.8h1v7.9H202.4z M199.4,122.5c0,0.7,0.2,1.3,0.5,1.6s0.7,0.5,1.1,0.5c0.4,0,0.8-0.2,1.1-0.5
			c0.3-0.3,0.4-0.9,0.4-1.6c0-0.8-0.2-1.4-0.5-1.7s-0.7-0.5-1.1-0.5c-0.4,0-0.8,0.2-1.1,0.5C199.5,121.2,199.4,121.8,199.4,122.5z"
			/>
		<path id="XMLID_133_" class="st1" d="M204.8,125.4v-5.7h0.9v0.8c0.2-0.3,0.4-0.5,0.7-0.7c0.3-0.2,0.6-0.3,1-0.3
			c0.4,0,0.8,0.1,1,0.3c0.3,0.2,0.5,0.4,0.6,0.7c0.5-0.7,1-1,1.8-1c0.6,0,1,0.2,1.3,0.5c0.3,0.3,0.5,0.8,0.5,1.4v3.9h-1v-3.6
			c0-0.4,0-0.7-0.1-0.8c-0.1-0.2-0.2-0.3-0.3-0.4s-0.4-0.2-0.6-0.2c-0.4,0-0.7,0.1-1,0.4c-0.3,0.3-0.4,0.7-0.4,1.3v3.3h-1v-3.7
			c0-0.4-0.1-0.8-0.2-1s-0.4-0.3-0.8-0.3c-0.3,0-0.5,0.1-0.8,0.2c-0.2,0.1-0.4,0.4-0.5,0.6s-0.2,0.7-0.2,1.2v3H204.8z"/>
		<path id="XMLID_135_" class="st1" d="M214,118.6v-1.1h1v1.1H214z M214,125.4v-5.7h1v5.7H214z"/>
		<path id="XMLID_138_" class="st1" d="M216.4,125.4v-5.7h0.9v0.8c0.4-0.6,1-0.9,1.8-0.9c0.3,0,0.7,0.1,0.9,0.2
			c0.3,0.1,0.5,0.3,0.6,0.5c0.1,0.2,0.2,0.4,0.3,0.7c0,0.2,0.1,0.5,0.1,0.9v3.5h-1v-3.5c0-0.4,0-0.7-0.1-0.9
			c-0.1-0.2-0.2-0.4-0.4-0.5c-0.2-0.1-0.4-0.2-0.7-0.2c-0.4,0-0.8,0.1-1.1,0.4s-0.4,0.8-0.4,1.5v3.1H216.4z"/>
		<path id="XMLID_140_" class="st1" d="M222.6,118.6v-1.1h1v1.1H222.6z M222.6,125.4v-5.7h1v5.7H222.6z"/>
		<path id="XMLID_143_" class="st1" d="M224.6,123.7l1-0.2c0.1,0.4,0.2,0.7,0.4,0.9c0.2,0.2,0.6,0.3,1,0.3c0.4,0,0.8-0.1,1-0.3
			c0.2-0.2,0.3-0.4,0.3-0.6c0-0.2-0.1-0.4-0.3-0.5c-0.1-0.1-0.5-0.2-1-0.3c-0.7-0.2-1.2-0.3-1.5-0.5c-0.3-0.1-0.5-0.3-0.6-0.5
			c-0.1-0.2-0.2-0.5-0.2-0.8c0-0.3,0.1-0.5,0.2-0.7c0.1-0.2,0.3-0.4,0.5-0.5c0.2-0.1,0.4-0.2,0.6-0.3c0.3-0.1,0.5-0.1,0.8-0.1
			c0.4,0,0.8,0.1,1.2,0.2c0.3,0.1,0.6,0.3,0.8,0.5c0.2,0.2,0.3,0.5,0.3,0.9l-0.9,0.1c0-0.3-0.2-0.5-0.4-0.7
			c-0.2-0.2-0.5-0.2-0.9-0.2c-0.4,0-0.8,0.1-1,0.2c-0.2,0.1-0.3,0.3-0.3,0.5c0,0.1,0,0.2,0.1,0.3c0.1,0.1,0.2,0.2,0.4,0.3
			c0.1,0,0.4,0.1,0.9,0.2c0.7,0.2,1.2,0.3,1.4,0.4c0.3,0.1,0.5,0.3,0.6,0.5c0.2,0.2,0.2,0.5,0.2,0.8c0,0.3-0.1,0.6-0.3,0.9
			c-0.2,0.3-0.5,0.5-0.8,0.7c-0.4,0.2-0.8,0.2-1.2,0.2c-0.7,0-1.3-0.2-1.7-0.5S224.7,124.3,224.6,123.7z"/>
		<path id="XMLID_145_" class="st1" d="M232.6,124.5l0.1,0.9c-0.3,0.1-0.5,0.1-0.7,0.1c-0.4,0-0.6-0.1-0.8-0.2s-0.3-0.3-0.4-0.4
			c-0.1-0.2-0.1-0.6-0.1-1.1v-3.3H230v-0.8h0.7v-1.4l1-0.6v2h1v0.8h-1v3.3c0,0.3,0,0.5,0.1,0.5c0,0.1,0.1,0.1,0.2,0.2
			c0.1,0,0.2,0.1,0.3,0.1C232.3,124.5,232.4,124.5,232.6,124.5z"/>
		<path id="XMLID_147_" class="st1" d="M233.5,125.4v-5.7h0.9v0.9c0.2-0.4,0.4-0.7,0.6-0.8c0.2-0.1,0.4-0.2,0.6-0.2
			c0.3,0,0.7,0.1,1,0.3l-0.3,0.9c-0.2-0.1-0.5-0.2-0.7-0.2c-0.2,0-0.4,0.1-0.6,0.2c-0.2,0.1-0.3,0.3-0.4,0.5
			c-0.1,0.3-0.2,0.7-0.2,1.1v3H233.5z"/>
		<path id="XMLID_149_" class="st1" d="M240.9,124.7c-0.4,0.3-0.7,0.5-1,0.6s-0.7,0.2-1.1,0.2c-0.6,0-1.1-0.2-1.4-0.5
			c-0.3-0.3-0.5-0.7-0.5-1.2c0-0.3,0.1-0.5,0.2-0.8c0.1-0.2,0.3-0.4,0.5-0.6c0.2-0.1,0.4-0.2,0.7-0.3c0.2-0.1,0.5-0.1,0.9-0.1
			c0.8-0.1,1.4-0.2,1.7-0.3c0-0.1,0-0.2,0-0.3c0-0.4-0.1-0.7-0.3-0.8c-0.2-0.2-0.6-0.3-1.1-0.3c-0.5,0-0.8,0.1-1,0.2
			c-0.2,0.2-0.4,0.4-0.5,0.8l-0.9-0.1c0.1-0.4,0.2-0.7,0.4-1c0.2-0.2,0.5-0.4,0.9-0.6c0.4-0.1,0.8-0.2,1.3-0.2
			c0.5,0,0.9,0.1,1.2,0.2c0.3,0.1,0.5,0.3,0.7,0.4c0.1,0.2,0.2,0.4,0.3,0.7c0,0.2,0,0.5,0,0.9v1.3c0,0.9,0,1.5,0.1,1.7
			c0,0.2,0.1,0.5,0.2,0.7h-1C241,125.2,241,124.9,240.9,124.7z M240.9,122.5c-0.4,0.1-0.9,0.3-1.6,0.4c-0.4,0.1-0.7,0.1-0.8,0.2
			s-0.3,0.2-0.4,0.3c-0.1,0.1-0.1,0.3-0.1,0.5c0,0.3,0.1,0.5,0.3,0.6c0.2,0.2,0.5,0.3,0.9,0.3c0.4,0,0.7-0.1,1-0.2
			c0.3-0.2,0.5-0.4,0.6-0.7c0.1-0.2,0.2-0.5,0.2-1V122.5z"/>
		<path id="XMLID_152_" class="st1" d="M243.3,125.4v-5.7h0.9v0.9c0.2-0.4,0.4-0.7,0.6-0.8c0.2-0.1,0.4-0.2,0.6-0.2
			c0.3,0,0.7,0.1,1,0.3l-0.3,0.9c-0.2-0.1-0.5-0.2-0.7-0.2c-0.2,0-0.4,0.1-0.6,0.2c-0.2,0.1-0.3,0.3-0.4,0.5
			c-0.1,0.3-0.2,0.7-0.2,1.1v3H243.3z"/>
		<path id="XMLID_154_" class="st1" d="M250.7,124.7c-0.4,0.3-0.7,0.5-1,0.6c-0.3,0.1-0.7,0.2-1.1,0.2c-0.6,0-1.1-0.2-1.4-0.5
			c-0.3-0.3-0.5-0.7-0.5-1.2c0-0.3,0.1-0.5,0.2-0.8c0.1-0.2,0.3-0.4,0.5-0.6c0.2-0.1,0.4-0.2,0.7-0.3c0.2-0.1,0.5-0.1,0.9-0.1
			c0.8-0.1,1.4-0.2,1.7-0.3c0-0.1,0-0.2,0-0.3c0-0.4-0.1-0.7-0.3-0.8c-0.2-0.2-0.6-0.3-1.1-0.3c-0.5,0-0.8,0.1-1,0.2
			c-0.2,0.2-0.4,0.4-0.5,0.8l-0.9-0.1c0.1-0.4,0.2-0.7,0.4-1c0.2-0.2,0.5-0.4,0.9-0.6c0.4-0.1,0.8-0.2,1.3-0.2
			c0.5,0,0.9,0.1,1.2,0.2s0.5,0.3,0.7,0.4c0.1,0.2,0.2,0.4,0.3,0.7c0,0.2,0,0.5,0,0.9v1.3c0,0.9,0,1.5,0.1,1.7
			c0,0.2,0.1,0.5,0.2,0.7h-1C250.8,125.2,250.8,124.9,250.7,124.7z M250.6,122.5c-0.4,0.1-0.9,0.3-1.6,0.4c-0.4,0.1-0.7,0.1-0.8,0.2
			c-0.2,0.1-0.3,0.2-0.4,0.3c-0.1,0.1-0.1,0.3-0.1,0.5c0,0.3,0.1,0.5,0.3,0.6s0.5,0.3,0.9,0.3c0.4,0,0.7-0.1,1-0.2
			c0.3-0.2,0.5-0.4,0.6-0.7c0.1-0.2,0.2-0.5,0.2-1V122.5z"/>
		<path id="XMLID_157_" class="st1" d="M259.9,125.4v-0.7c-0.4,0.6-0.9,0.8-1.6,0.8c-0.5,0-0.9-0.1-1.3-0.4s-0.7-0.6-0.9-1
			c-0.2-0.4-0.3-1-0.3-1.5c0-0.6,0.1-1.1,0.3-1.5c0.2-0.5,0.5-0.8,0.9-1.1c0.4-0.2,0.8-0.4,1.3-0.4c0.3,0,0.7,0.1,0.9,0.2
			c0.3,0.1,0.5,0.3,0.7,0.6v-2.8h1v7.9H259.9z M256.8,122.5c0,0.7,0.2,1.3,0.5,1.6s0.7,0.5,1.1,0.5c0.4,0,0.8-0.2,1.1-0.5
			c0.3-0.3,0.4-0.9,0.4-1.6c0-0.8-0.2-1.4-0.5-1.7s-0.7-0.5-1.1-0.5c-0.4,0-0.8,0.2-1.1,0.5C257,121.2,256.8,121.8,256.8,122.5z"/>
		<path id="XMLID_160_" class="st1" d="M266,124.7c-0.4,0.3-0.7,0.5-1,0.6s-0.7,0.2-1.1,0.2c-0.6,0-1.1-0.2-1.4-0.5
			c-0.3-0.3-0.5-0.7-0.5-1.2c0-0.3,0.1-0.5,0.2-0.8c0.1-0.2,0.3-0.4,0.5-0.6c0.2-0.1,0.4-0.2,0.7-0.3c0.2-0.1,0.5-0.1,0.9-0.1
			c0.8-0.1,1.4-0.2,1.7-0.3c0-0.1,0-0.2,0-0.3c0-0.4-0.1-0.7-0.3-0.8c-0.2-0.2-0.6-0.3-1.1-0.3c-0.5,0-0.8,0.1-1,0.2
			c-0.2,0.2-0.4,0.4-0.5,0.8l-0.9-0.1c0.1-0.4,0.2-0.7,0.4-1c0.2-0.2,0.5-0.4,0.9-0.6c0.4-0.1,0.8-0.2,1.3-0.2
			c0.5,0,0.9,0.1,1.2,0.2c0.3,0.1,0.5,0.3,0.7,0.4c0.1,0.2,0.2,0.4,0.3,0.7c0,0.2,0,0.5,0,0.9v1.3c0,0.9,0,1.5,0.1,1.7
			c0,0.2,0.1,0.5,0.2,0.7h-1C266.1,125.2,266,124.9,266,124.7z M265.9,122.5c-0.4,0.1-0.9,0.3-1.6,0.4c-0.4,0.1-0.7,0.1-0.8,0.2
			s-0.3,0.2-0.4,0.3c-0.1,0.1-0.1,0.3-0.1,0.5c0,0.3,0.1,0.5,0.3,0.6c0.2,0.2,0.5,0.3,0.9,0.3c0.4,0,0.7-0.1,1-0.2
			c0.3-0.2,0.5-0.4,0.6-0.7c0.1-0.2,0.2-0.5,0.2-1V122.5z"/>
		<path id="XMLID_163_" class="st1" d="M270.5,124.5l0.1,0.9c-0.3,0.1-0.5,0.1-0.7,0.1c-0.4,0-0.6-0.1-0.8-0.2s-0.3-0.3-0.4-0.4
			c-0.1-0.2-0.1-0.6-0.1-1.1v-3.3h-0.7v-0.8h0.7v-1.4l1-0.6v2h1v0.8h-1v3.3c0,0.3,0,0.5,0.1,0.5c0,0.1,0.1,0.1,0.2,0.2
			c0.1,0,0.2,0.1,0.3,0.1C270.2,124.5,270.3,124.5,270.5,124.5z"/>
		<path id="XMLID_165_" class="st1" d="M271.1,122.5c0-1.1,0.3-1.8,0.9-2.3c0.5-0.4,1.1-0.6,1.8-0.6c0.8,0,1.4,0.3,1.9,0.8
			c0.5,0.5,0.7,1.2,0.7,2.1c0,0.7-0.1,1.3-0.3,1.7c-0.2,0.4-0.5,0.7-1,1c-0.4,0.2-0.9,0.3-1.4,0.3c-0.8,0-1.4-0.3-1.9-0.8
			S271.1,123.5,271.1,122.5z M272.1,122.5c0,0.7,0.2,1.3,0.5,1.6c0.3,0.4,0.7,0.5,1.2,0.5c0.5,0,0.9-0.2,1.2-0.5
			c0.3-0.4,0.5-0.9,0.5-1.7c0-0.7-0.2-1.2-0.5-1.6c-0.3-0.4-0.7-0.5-1.2-0.5c-0.5,0-0.9,0.2-1.2,0.5S272.1,121.8,272.1,122.5z"/>
		<path id="XMLID_168_" class="st1" d="M277.2,123.7l1-0.2c0.1,0.4,0.2,0.7,0.4,0.9c0.2,0.2,0.6,0.3,1,0.3c0.4,0,0.8-0.1,1-0.3
			c0.2-0.2,0.3-0.4,0.3-0.6c0-0.2-0.1-0.4-0.3-0.5c-0.1-0.1-0.5-0.2-1-0.3c-0.7-0.2-1.2-0.3-1.5-0.5c-0.3-0.1-0.5-0.3-0.6-0.5
			c-0.1-0.2-0.2-0.5-0.2-0.8c0-0.3,0.1-0.5,0.2-0.7c0.1-0.2,0.3-0.4,0.5-0.5c0.2-0.1,0.4-0.2,0.6-0.3c0.3-0.1,0.5-0.1,0.8-0.1
			c0.4,0,0.8,0.1,1.2,0.2s0.6,0.3,0.7,0.5c0.2,0.2,0.3,0.5,0.3,0.9l-0.9,0.1c0-0.3-0.2-0.5-0.4-0.7c-0.2-0.2-0.5-0.2-0.9-0.2
			c-0.4,0-0.8,0.1-1,0.2c-0.2,0.1-0.3,0.3-0.3,0.5c0,0.1,0,0.2,0.1,0.3c0.1,0.1,0.2,0.2,0.4,0.3c0.1,0,0.4,0.1,0.9,0.2
			c0.7,0.2,1.2,0.3,1.4,0.4c0.3,0.1,0.5,0.3,0.6,0.5c0.2,0.2,0.2,0.5,0.2,0.8c0,0.3-0.1,0.6-0.3,0.9c-0.2,0.3-0.5,0.5-0.8,0.7
			c-0.4,0.2-0.8,0.2-1.2,0.2c-0.7,0-1.3-0.2-1.7-0.5C277.6,124.7,277.3,124.3,277.2,123.7z"/>
		<path id="XMLID_170_" class="st1" d="M288.3,124.5l0.1,0.9c-0.3,0.1-0.5,0.1-0.7,0.1c-0.4,0-0.6-0.1-0.8-0.2s-0.3-0.3-0.4-0.4
			c-0.1-0.2-0.1-0.6-0.1-1.1v-3.3h-0.7v-0.8h0.7v-1.4l1-0.6v2h1v0.8h-1v3.3c0,0.3,0,0.5,0.1,0.5s0.1,0.1,0.2,0.2s0.2,0.1,0.3,0.1
			C287.9,124.5,288.1,124.5,288.3,124.5z"/>
		<path id="XMLID_172_" class="st1" d="M289.2,125.4v-5.7h0.9v0.9c0.2-0.4,0.4-0.7,0.6-0.8s0.4-0.2,0.6-0.2c0.3,0,0.7,0.1,1,0.3
			l-0.3,0.9c-0.2-0.1-0.5-0.2-0.7-0.2c-0.2,0-0.4,0.1-0.6,0.2c-0.2,0.1-0.3,0.3-0.4,0.5c-0.1,0.3-0.2,0.7-0.2,1.1v3H289.2z"/>
		<path id="XMLID_174_" class="st1" d="M296.6,124.7c-0.4,0.3-0.7,0.5-1,0.6c-0.3,0.1-0.7,0.2-1.1,0.2c-0.6,0-1.1-0.2-1.4-0.5
			c-0.3-0.3-0.5-0.7-0.5-1.2c0-0.3,0.1-0.5,0.2-0.8c0.1-0.2,0.3-0.4,0.5-0.6c0.2-0.1,0.4-0.2,0.7-0.3c0.2-0.1,0.5-0.1,0.9-0.1
			c0.8-0.1,1.4-0.2,1.7-0.3c0-0.1,0-0.2,0-0.3c0-0.4-0.1-0.7-0.3-0.8c-0.2-0.2-0.6-0.3-1.1-0.3c-0.5,0-0.8,0.1-1,0.2
			c-0.2,0.2-0.4,0.4-0.5,0.8l-0.9-0.1c0.1-0.4,0.2-0.7,0.4-1c0.2-0.2,0.5-0.4,0.9-0.6c0.4-0.1,0.8-0.2,1.3-0.2
			c0.5,0,0.9,0.1,1.2,0.2s0.5,0.3,0.7,0.4c0.1,0.2,0.2,0.4,0.3,0.7c0,0.2,0,0.5,0,0.9v1.3c0,0.9,0,1.5,0.1,1.7
			c0,0.2,0.1,0.5,0.2,0.7h-1C296.7,125.2,296.6,124.9,296.6,124.7z M296.5,122.5c-0.4,0.1-0.9,0.3-1.6,0.4c-0.4,0.1-0.7,0.1-0.8,0.2
			c-0.2,0.1-0.3,0.2-0.4,0.3c-0.1,0.1-0.1,0.3-0.1,0.5c0,0.3,0.1,0.5,0.3,0.6c0.2,0.2,0.5,0.3,0.9,0.3c0.4,0,0.7-0.1,1-0.2
			c0.3-0.2,0.5-0.4,0.6-0.7c0.1-0.2,0.2-0.5,0.2-1V122.5z"/>
		<path id="XMLID_177_" class="st1" d="M301.1,124.5l0.1,0.9c-0.3,0.1-0.5,0.1-0.7,0.1c-0.4,0-0.6-0.1-0.8-0.2s-0.3-0.3-0.4-0.4
			c-0.1-0.2-0.1-0.6-0.1-1.1v-3.3h-0.7v-0.8h0.7v-1.4l1-0.6v2h1v0.8h-1v3.3c0,0.3,0,0.5,0.1,0.5c0,0.1,0.1,0.1,0.2,0.2
			c0.1,0,0.2,0.1,0.3,0.1C300.8,124.5,300.9,124.5,301.1,124.5z"/>
		<path id="XMLID_179_" class="st1" d="M305.8,124.7c-0.4,0.3-0.7,0.5-1,0.6c-0.3,0.1-0.7,0.2-1.1,0.2c-0.6,0-1.1-0.2-1.4-0.5
			c-0.3-0.3-0.5-0.7-0.5-1.2c0-0.3,0.1-0.5,0.2-0.8c0.1-0.2,0.3-0.4,0.5-0.6c0.2-0.1,0.4-0.2,0.7-0.3c0.2-0.1,0.5-0.1,0.9-0.1
			c0.8-0.1,1.4-0.2,1.7-0.3c0-0.1,0-0.2,0-0.3c0-0.4-0.1-0.7-0.3-0.8c-0.2-0.2-0.6-0.3-1.1-0.3c-0.5,0-0.8,0.1-1,0.2
			c-0.2,0.2-0.4,0.4-0.5,0.8l-0.9-0.1c0.1-0.4,0.2-0.7,0.4-1c0.2-0.2,0.5-0.4,0.9-0.6c0.4-0.1,0.8-0.2,1.3-0.2
			c0.5,0,0.9,0.1,1.2,0.2s0.5,0.3,0.7,0.4c0.1,0.2,0.2,0.4,0.3,0.7c0,0.2,0,0.5,0,0.9v1.3c0,0.9,0,1.5,0.1,1.7
			c0,0.2,0.1,0.5,0.2,0.7h-1C305.9,125.2,305.8,124.9,305.8,124.7z M305.7,122.5c-0.4,0.1-0.9,0.3-1.6,0.4c-0.4,0.1-0.7,0.1-0.8,0.2
			c-0.2,0.1-0.3,0.2-0.4,0.3c-0.1,0.1-0.1,0.3-0.1,0.5c0,0.3,0.1,0.5,0.3,0.6c0.2,0.2,0.5,0.3,0.9,0.3c0.4,0,0.7-0.1,1-0.2
			c0.3-0.2,0.5-0.4,0.6-0.7c0.1-0.2,0.2-0.5,0.2-1V122.5z"/>
		<path id="XMLID_182_" class="st1" d="M308.2,125.4v-5.7h0.9v0.8c0.2-0.3,0.4-0.5,0.7-0.7c0.3-0.2,0.6-0.3,1-0.3
			c0.4,0,0.8,0.1,1,0.3c0.3,0.2,0.5,0.4,0.6,0.7c0.5-0.7,1-1,1.8-1c0.6,0,1,0.2,1.3,0.5c0.3,0.3,0.5,0.8,0.5,1.4v3.9h-1v-3.6
			c0-0.4,0-0.7-0.1-0.8c-0.1-0.2-0.2-0.3-0.3-0.4s-0.4-0.2-0.6-0.2c-0.4,0-0.7,0.1-1,0.4c-0.3,0.3-0.4,0.7-0.4,1.3v3.3h-1v-3.7
			c0-0.4-0.1-0.8-0.2-1s-0.4-0.3-0.8-0.3c-0.3,0-0.5,0.1-0.8,0.2c-0.2,0.1-0.4,0.4-0.5,0.6s-0.2,0.7-0.2,1.2v3H308.2z"/>
		<path id="XMLID_184_" class="st1" d="M317.3,118.6v-1.1h1v1.1H317.3z M317.3,125.4v-5.7h1v5.7H317.3z"/>
		<path id="XMLID_187_" class="st1" d="M323.7,123.5l1,0.1c-0.2,0.6-0.4,1-0.9,1.4s-1,0.5-1.6,0.5c-0.8,0-1.5-0.3-2-0.8
			c-0.5-0.5-0.7-1.2-0.7-2.2c0-1,0.2-1.7,0.7-2.2s1.1-0.8,1.9-0.8c0.8,0,1.4,0.3,1.9,0.8s0.7,1.2,0.7,2.2c0,0.1,0,0.1,0,0.3h-4.3
			c0,0.6,0.2,1.1,0.5,1.4c0.3,0.3,0.7,0.5,1.2,0.5c0.4,0,0.7-0.1,0.9-0.3S323.5,123.9,323.7,123.5z M320.5,122h3.2
			c0-0.5-0.2-0.8-0.4-1.1c-0.3-0.4-0.7-0.6-1.2-0.6c-0.4,0-0.8,0.1-1.1,0.4C320.7,121.1,320.5,121.5,320.5,122z"/>
		<path id="XMLID_190_" class="st1" d="M325.9,125.4v-5.7h0.9v0.8c0.4-0.6,1-0.9,1.8-0.9c0.3,0,0.7,0.1,0.9,0.2
			c0.3,0.1,0.5,0.3,0.6,0.5s0.2,0.4,0.3,0.7c0,0.2,0.1,0.5,0.1,0.9v3.5h-1v-3.5c0-0.4,0-0.7-0.1-0.9c-0.1-0.2-0.2-0.4-0.4-0.5
			c-0.2-0.1-0.4-0.2-0.7-0.2c-0.4,0-0.8,0.1-1.1,0.4c-0.3,0.3-0.4,0.8-0.4,1.5v3.1H325.9z"/>
		<path id="XMLID_192_" class="st1" d="M334.1,124.5l0.1,0.9c-0.3,0.1-0.5,0.1-0.7,0.1c-0.4,0-0.6-0.1-0.8-0.2s-0.3-0.3-0.4-0.4
			c-0.1-0.2-0.1-0.6-0.1-1.1v-3.3h-0.7v-0.8h0.7v-1.4l1-0.6v2h1v0.8h-1v3.3c0,0.3,0,0.5,0.1,0.5c0,0.1,0.1,0.1,0.2,0.2
			c0.1,0,0.2,0.1,0.3,0.1C333.8,124.5,333.9,124.5,334.1,124.5z"/>
		<path id="XMLID_194_" class="st1" d="M334.7,122.5c0-1.1,0.3-1.8,0.9-2.3c0.5-0.4,1.1-0.6,1.8-0.6c0.8,0,1.4,0.3,1.9,0.8
			c0.5,0.5,0.7,1.2,0.7,2.1c0,0.7-0.1,1.3-0.3,1.7c-0.2,0.4-0.5,0.7-1,1s-0.9,0.3-1.4,0.3c-0.8,0-1.4-0.3-1.9-0.8
			C334.9,124.2,334.7,123.5,334.7,122.5z M335.7,122.5c0,0.7,0.2,1.3,0.5,1.6c0.3,0.4,0.7,0.5,1.2,0.5c0.5,0,0.9-0.2,1.2-0.5
			c0.3-0.4,0.5-0.9,0.5-1.7c0-0.7-0.2-1.2-0.5-1.6c-0.3-0.4-0.7-0.5-1.2-0.5c-0.5,0-0.9,0.2-1.2,0.5S335.7,121.8,335.7,122.5z"/>
		<path id="XMLID_197_" class="st1" d="M340.8,123.7l1-0.2c0.1,0.4,0.2,0.7,0.4,0.9c0.2,0.2,0.6,0.3,1,0.3c0.4,0,0.8-0.1,1-0.3
			c0.2-0.2,0.3-0.4,0.3-0.6c0-0.2-0.1-0.4-0.3-0.5c-0.1-0.1-0.5-0.2-1-0.3c-0.7-0.2-1.2-0.3-1.5-0.5c-0.3-0.1-0.5-0.3-0.6-0.5
			c-0.1-0.2-0.2-0.5-0.2-0.8c0-0.3,0.1-0.5,0.2-0.7c0.1-0.2,0.3-0.4,0.5-0.5c0.2-0.1,0.4-0.2,0.6-0.3c0.3-0.1,0.5-0.1,0.8-0.1
			c0.4,0,0.8,0.1,1.2,0.2c0.3,0.1,0.6,0.3,0.8,0.5c0.2,0.2,0.3,0.5,0.3,0.9l-0.9,0.1c0-0.3-0.2-0.5-0.4-0.7
			c-0.2-0.2-0.5-0.2-0.9-0.2c-0.4,0-0.8,0.1-1,0.2c-0.2,0.1-0.3,0.3-0.3,0.5c0,0.1,0,0.2,0.1,0.3c0.1,0.1,0.2,0.2,0.4,0.3
			c0.1,0,0.4,0.1,0.9,0.2c0.7,0.2,1.2,0.3,1.4,0.4c0.3,0.1,0.5,0.3,0.6,0.5c0.2,0.2,0.2,0.5,0.2,0.8c0,0.3-0.1,0.6-0.3,0.9
			c-0.2,0.3-0.5,0.5-0.8,0.7c-0.4,0.2-0.8,0.2-1.2,0.2c-0.7,0-1.3-0.2-1.7-0.5S340.9,124.3,340.8,123.7z"/>
	</g>
	<g id="XMLID_91_">
		<path id="XMLID_92_" class="st1" d="M236.1,176.4v-0.9l3.3,0v2.9c-0.5,0.4-1,0.7-1.6,0.9c-0.5,0.2-1.1,0.3-1.7,0.3
			c-0.8,0-1.5-0.2-2.1-0.5c-0.6-0.3-1.1-0.8-1.4-1.4c-0.3-0.6-0.5-1.3-0.5-2.1c0-0.8,0.2-1.5,0.5-2.1c0.3-0.7,0.8-1.2,1.4-1.5
			s1.3-0.5,2.1-0.5c0.6,0,1.1,0.1,1.5,0.3c0.5,0.2,0.8,0.4,1.1,0.8c0.3,0.3,0.5,0.8,0.6,1.3l-0.9,0.3c-0.1-0.4-0.3-0.7-0.4-0.9
			c-0.2-0.2-0.4-0.4-0.8-0.6c-0.3-0.1-0.7-0.2-1.1-0.2c-0.5,0-0.9,0.1-1.2,0.2c-0.3,0.1-0.6,0.3-0.8,0.6c-0.2,0.2-0.4,0.5-0.5,0.8
			c-0.2,0.5-0.3,1-0.3,1.6c0,0.7,0.1,1.3,0.4,1.8c0.2,0.5,0.6,0.8,1.1,1.1s1,0.3,1.5,0.3c0.5,0,0.9-0.1,1.3-0.3
			c0.4-0.2,0.8-0.4,1-0.6v-1.5H236.1z"/>
		<path id="XMLID_94_" class="st1" d="M244.8,177.7l1,0.1c-0.2,0.6-0.4,1-0.9,1.4c-0.4,0.3-1,0.5-1.6,0.5c-0.8,0-1.5-0.3-2-0.8
			c-0.5-0.5-0.7-1.2-0.7-2.2c0-1,0.2-1.7,0.7-2.2s1.1-0.8,1.9-0.8c0.8,0,1.4,0.3,1.9,0.8c0.5,0.5,0.7,1.2,0.7,2.2c0,0.1,0,0.1,0,0.3
			h-4.3c0,0.6,0.2,1.1,0.5,1.4c0.3,0.3,0.7,0.5,1.2,0.5c0.4,0,0.7-0.1,0.9-0.3C244.4,178.4,244.6,178.1,244.8,177.7z M241.6,176.1
			h3.2c0-0.5-0.2-0.8-0.4-1.1c-0.3-0.4-0.7-0.6-1.2-0.6c-0.4,0-0.8,0.1-1.1,0.4C241.8,175.2,241.7,175.6,241.6,176.1z"/>
		<path id="XMLID_97_" class="st1" d="M246.6,177.8l1-0.2c0.1,0.4,0.2,0.7,0.4,0.9c0.2,0.2,0.6,0.3,1,0.3c0.4,0,0.8-0.1,1-0.3
			s0.3-0.4,0.3-0.6c0-0.2-0.1-0.4-0.3-0.5c-0.1-0.1-0.5-0.2-1-0.3c-0.7-0.2-1.2-0.3-1.5-0.5c-0.3-0.1-0.5-0.3-0.6-0.5
			c-0.1-0.2-0.2-0.5-0.2-0.8c0-0.3,0.1-0.5,0.2-0.7c0.1-0.2,0.3-0.4,0.5-0.5c0.2-0.1,0.4-0.2,0.6-0.3c0.3-0.1,0.5-0.1,0.8-0.1
			c0.4,0,0.8,0.1,1.2,0.2s0.6,0.3,0.7,0.5c0.2,0.2,0.3,0.5,0.3,0.9l-0.9,0.1c0-0.3-0.2-0.5-0.4-0.7c-0.2-0.2-0.5-0.2-0.9-0.2
			c-0.4,0-0.8,0.1-1,0.2c-0.2,0.1-0.3,0.3-0.3,0.5c0,0.1,0,0.2,0.1,0.3c0.1,0.1,0.2,0.2,0.4,0.3c0.1,0,0.4,0.1,0.9,0.2
			c0.7,0.2,1.2,0.3,1.4,0.4c0.3,0.1,0.5,0.3,0.6,0.5c0.2,0.2,0.2,0.5,0.2,0.8c0,0.3-0.1,0.6-0.3,0.9c-0.2,0.3-0.5,0.5-0.8,0.7
			c-0.4,0.2-0.8,0.2-1.2,0.2c-0.7,0-1.3-0.2-1.7-0.5C247,178.9,246.7,178.4,246.6,177.8z"/>
		<path id="XMLID_99_" class="st1" d="M254.6,178.7l0.1,0.9c-0.3,0.1-0.5,0.1-0.7,0.1c-0.4,0-0.6-0.1-0.8-0.2
			c-0.2-0.1-0.3-0.3-0.4-0.4c-0.1-0.2-0.1-0.6-0.1-1.1v-3.3H252v-0.8h0.7v-1.4l1-0.6v2h1v0.8h-1v3.3c0,0.3,0,0.5,0.1,0.5
			c0,0.1,0.1,0.1,0.2,0.2c0.1,0,0.2,0.1,0.3,0.1C254.3,178.7,254.4,178.7,254.6,178.7z"/>
		<path id="XMLID_101_" class="st1" d="M255.6,172.8v-1.1h1v1.1H255.6z M255.6,179.5v-5.7h1v5.7H255.6z"/>
		<path id="XMLID_104_" class="st1" d="M257.6,176.7c0-1.1,0.3-1.8,0.9-2.3c0.5-0.4,1.1-0.6,1.8-0.6c0.8,0,1.4,0.3,1.9,0.8
			c0.5,0.5,0.7,1.2,0.7,2.1c0,0.7-0.1,1.3-0.3,1.7c-0.2,0.4-0.5,0.7-1,1c-0.4,0.2-0.9,0.3-1.4,0.3c-0.8,0-1.4-0.3-1.9-0.8
			C257.9,178.4,257.6,177.6,257.6,176.7z M258.6,176.7c0,0.7,0.2,1.3,0.5,1.6c0.3,0.4,0.7,0.5,1.2,0.5c0.5,0,0.9-0.2,1.2-0.5
			s0.5-0.9,0.5-1.7c0-0.7-0.2-1.2-0.5-1.6c-0.3-0.4-0.7-0.5-1.2-0.5c-0.5,0-0.9,0.2-1.2,0.5C258.8,175.4,258.6,175.9,258.6,176.7z"
			/>
		<path id="XMLID_107_" class="st1" d="M264.1,179.5v-5.7h0.9v0.8c0.4-0.6,1-0.9,1.8-0.9c0.3,0,0.7,0.1,0.9,0.2
			c0.3,0.1,0.5,0.3,0.6,0.5c0.1,0.2,0.2,0.4,0.3,0.7c0,0.2,0.1,0.5,0.1,0.9v3.5h-1v-3.5c0-0.4,0-0.7-0.1-0.9
			c-0.1-0.2-0.2-0.4-0.4-0.5c-0.2-0.1-0.4-0.2-0.7-0.2c-0.4,0-0.8,0.1-1.1,0.4c-0.3,0.3-0.4,0.8-0.4,1.5v3.1H264.1z"/>
		<path id="XMLID_109_" class="st1" d="M274,178.8c-0.4,0.3-0.7,0.5-1,0.6c-0.3,0.1-0.7,0.2-1.1,0.2c-0.6,0-1.1-0.2-1.4-0.5
			c-0.3-0.3-0.5-0.7-0.5-1.2c0-0.3,0.1-0.5,0.2-0.8c0.1-0.2,0.3-0.4,0.5-0.6c0.2-0.1,0.4-0.2,0.7-0.3c0.2-0.1,0.5-0.1,0.9-0.1
			c0.8-0.1,1.4-0.2,1.7-0.3c0-0.1,0-0.2,0-0.3c0-0.4-0.1-0.7-0.3-0.8c-0.2-0.2-0.6-0.3-1.1-0.3c-0.5,0-0.8,0.1-1,0.2
			c-0.2,0.2-0.4,0.4-0.5,0.8l-0.9-0.1c0.1-0.4,0.2-0.7,0.4-1c0.2-0.2,0.5-0.4,0.9-0.6c0.4-0.1,0.8-0.2,1.3-0.2
			c0.5,0,0.9,0.1,1.2,0.2s0.5,0.3,0.7,0.4c0.1,0.2,0.2,0.4,0.3,0.7c0,0.2,0,0.5,0,0.9v1.3c0,0.9,0,1.5,0.1,1.7
			c0,0.2,0.1,0.5,0.2,0.7h-1C274.1,179.3,274,179.1,274,178.8z M273.9,176.7c-0.4,0.1-0.9,0.3-1.6,0.4c-0.4,0.1-0.7,0.1-0.8,0.2
			c-0.2,0.1-0.3,0.2-0.4,0.3s-0.1,0.3-0.1,0.5c0,0.3,0.1,0.5,0.3,0.6s0.5,0.3,0.9,0.3c0.4,0,0.7-0.1,1-0.2s0.5-0.4,0.6-0.7
			c0.1-0.2,0.2-0.5,0.2-1V176.7z"/>
		<path id="XMLID_112_" class="st1" d="M276.4,179.5v-5.7h0.9v0.9c0.2-0.4,0.4-0.7,0.6-0.8c0.2-0.1,0.4-0.2,0.6-0.2
			c0.3,0,0.7,0.1,1,0.3l-0.3,0.9c-0.2-0.1-0.5-0.2-0.7-0.2c-0.2,0-0.4,0.1-0.6,0.2s-0.3,0.3-0.4,0.5c-0.1,0.3-0.2,0.7-0.2,1.1v3
			H276.4z"/>
		<path id="XMLID_114_" class="st1" d="M286.8,177.4l1,0.1c-0.1,0.7-0.4,1.2-0.8,1.5c-0.4,0.4-1,0.6-1.6,0.6c-0.8,0-1.4-0.3-1.9-0.8
			c-0.5-0.5-0.7-1.2-0.7-2.2c0-0.6,0.1-1.2,0.3-1.6s0.5-0.8,0.9-1c0.4-0.2,0.9-0.3,1.4-0.3c0.6,0,1.1,0.2,1.5,0.5s0.6,0.8,0.8,1.3
			l-0.9,0.1c-0.1-0.4-0.2-0.7-0.5-0.9c-0.2-0.2-0.5-0.3-0.8-0.3c-0.5,0-0.9,0.2-1.2,0.5c-0.3,0.3-0.5,0.9-0.5,1.7
			c0,0.8,0.1,1.3,0.4,1.7c0.3,0.3,0.7,0.5,1.1,0.5c0.4,0,0.7-0.1,1-0.3C286.6,178.3,286.7,177.9,286.8,177.4z"/>
		<path id="XMLID_116_" class="st1" d="M288.6,172.8v-1.1h1v1.1H288.6z M288.6,179.5v-5.7h1v5.7H288.6z"/>
		<path id="XMLID_119_" class="st1" d="M293.1,178.7l0.1,0.9c-0.3,0.1-0.5,0.1-0.7,0.1c-0.4,0-0.6-0.1-0.8-0.2
			c-0.2-0.1-0.3-0.3-0.4-0.4s-0.1-0.6-0.1-1.1v-3.3h-0.7v-0.8h0.7v-1.4l1-0.6v2h1v0.8h-1v3.3c0,0.3,0,0.5,0.1,0.5
			c0,0.1,0.1,0.1,0.2,0.2c0.1,0,0.2,0.1,0.3,0.1C292.8,178.7,293,178.7,293.1,178.7z"/>
		<path id="XMLID_121_" class="st1" d="M297.8,178.8c-0.4,0.3-0.7,0.5-1,0.6c-0.3,0.1-0.7,0.2-1.1,0.2c-0.6,0-1.1-0.2-1.4-0.5
			c-0.3-0.3-0.5-0.7-0.5-1.2c0-0.3,0.1-0.5,0.2-0.8c0.1-0.2,0.3-0.4,0.5-0.6c0.2-0.1,0.4-0.2,0.7-0.3c0.2-0.1,0.5-0.1,0.9-0.1
			c0.8-0.1,1.4-0.2,1.7-0.3c0-0.1,0-0.2,0-0.3c0-0.4-0.1-0.7-0.3-0.8c-0.2-0.2-0.6-0.3-1.1-0.3c-0.5,0-0.8,0.1-1,0.2
			c-0.2,0.2-0.4,0.4-0.5,0.8l-0.9-0.1c0.1-0.4,0.2-0.7,0.4-1c0.2-0.2,0.5-0.4,0.9-0.6c0.4-0.1,0.8-0.2,1.3-0.2
			c0.5,0,0.9,0.1,1.2,0.2s0.5,0.3,0.7,0.4c0.1,0.2,0.2,0.4,0.3,0.7c0,0.2,0,0.5,0,0.9v1.3c0,0.9,0,1.5,0.1,1.7s0.1,0.5,0.2,0.7h-1
			C297.9,179.3,297.8,179.1,297.8,178.8z M297.7,176.7c-0.4,0.1-0.9,0.3-1.6,0.4c-0.4,0.1-0.7,0.1-0.8,0.2c-0.2,0.1-0.3,0.2-0.4,0.3
			s-0.1,0.3-0.1,0.5c0,0.3,0.1,0.5,0.3,0.6c0.2,0.2,0.5,0.3,0.9,0.3c0.4,0,0.7-0.1,1-0.2s0.5-0.4,0.6-0.7c0.1-0.2,0.2-0.5,0.2-1
			V176.7z"/>
		<path id="XMLID_124_" class="st1" d="M299.8,177.8l1-0.2c0.1,0.4,0.2,0.7,0.4,0.9c0.2,0.2,0.6,0.3,1,0.3c0.4,0,0.8-0.1,1-0.3
			s0.3-0.4,0.3-0.6c0-0.2-0.1-0.4-0.3-0.5c-0.1-0.1-0.5-0.2-1-0.3c-0.7-0.2-1.2-0.3-1.5-0.5c-0.3-0.1-0.5-0.3-0.6-0.5
			c-0.1-0.2-0.2-0.5-0.2-0.8c0-0.3,0.1-0.5,0.2-0.7s0.3-0.4,0.5-0.5c0.2-0.1,0.4-0.2,0.6-0.3c0.3-0.1,0.5-0.1,0.8-0.1
			c0.4,0,0.8,0.1,1.2,0.2c0.3,0.1,0.6,0.3,0.8,0.5c0.2,0.2,0.3,0.5,0.3,0.9l-0.9,0.1c0-0.3-0.2-0.5-0.4-0.7
			c-0.2-0.2-0.5-0.2-0.9-0.2c-0.4,0-0.8,0.1-1,0.2c-0.2,0.1-0.3,0.3-0.3,0.5c0,0.1,0,0.2,0.1,0.3c0.1,0.1,0.2,0.2,0.4,0.3
			c0.1,0,0.4,0.1,0.9,0.2c0.7,0.2,1.2,0.3,1.4,0.4c0.3,0.1,0.5,0.3,0.6,0.5s0.2,0.5,0.2,0.8c0,0.3-0.1,0.6-0.3,0.9
			c-0.2,0.3-0.5,0.5-0.8,0.7c-0.4,0.2-0.8,0.2-1.2,0.2c-0.7,0-1.3-0.2-1.7-0.5C300.2,178.9,299.9,178.4,299.8,177.8z"/>
	</g>
	<g id="XMLID_53_">
		<path id="XMLID_54_" class="st1" d="M230.9,228.9v-0.9l3.3,0v2.9c-0.5,0.4-1,0.7-1.6,0.9c-0.5,0.2-1.1,0.3-1.7,0.3
			c-0.8,0-1.5-0.2-2.1-0.5c-0.6-0.3-1.1-0.8-1.4-1.4c-0.3-0.6-0.5-1.3-0.5-2.1c0-0.8,0.2-1.5,0.5-2.1c0.3-0.7,0.8-1.2,1.4-1.5
			s1.3-0.5,2.1-0.5c0.6,0,1.1,0.1,1.5,0.3c0.5,0.2,0.8,0.4,1.1,0.8c0.3,0.3,0.5,0.8,0.6,1.3l-0.9,0.3c-0.1-0.4-0.3-0.7-0.4-0.9
			c-0.2-0.2-0.4-0.4-0.8-0.6c-0.3-0.1-0.7-0.2-1.1-0.2c-0.5,0-0.9,0.1-1.2,0.2c-0.3,0.1-0.6,0.3-0.8,0.6c-0.2,0.2-0.4,0.5-0.5,0.8
			c-0.2,0.5-0.3,1-0.3,1.6c0,0.7,0.1,1.3,0.4,1.8c0.2,0.5,0.6,0.8,1.1,1.1s1,0.3,1.5,0.3c0.5,0,0.9-0.1,1.3-0.3
			c0.4-0.2,0.8-0.4,1-0.6v-1.5H230.9z"/>
		<path id="XMLID_56_" class="st1" d="M239.6,230.1l1,0.1c-0.2,0.6-0.4,1-0.9,1.4c-0.4,0.3-1,0.5-1.6,0.5c-0.8,0-1.5-0.3-2-0.8
			c-0.5-0.5-0.7-1.2-0.7-2.2c0-1,0.2-1.7,0.7-2.2s1.1-0.8,1.9-0.8c0.8,0,1.4,0.3,1.9,0.8c0.5,0.5,0.7,1.2,0.7,2.2c0,0.1,0,0.1,0,0.3
			h-4.3c0,0.6,0.2,1.1,0.5,1.4c0.3,0.3,0.7,0.5,1.2,0.5c0.4,0,0.7-0.1,0.9-0.3C239.2,230.8,239.4,230.5,239.6,230.1z M236.4,228.5
			h3.2c0-0.5-0.2-0.8-0.4-1.1c-0.3-0.4-0.7-0.6-1.2-0.6c-0.4,0-0.8,0.1-1.1,0.4C236.6,227.6,236.5,228,236.4,228.5z"/>
		<path id="XMLID_59_" class="st1" d="M241.8,231.9v-5.7h0.9v0.8c0.4-0.6,1-0.9,1.8-0.9c0.3,0,0.7,0.1,0.9,0.2
			c0.3,0.1,0.5,0.3,0.6,0.5c0.1,0.2,0.2,0.4,0.3,0.7c0,0.2,0.1,0.5,0.1,0.9v3.5h-1v-3.5c0-0.4,0-0.7-0.1-0.9
			c-0.1-0.2-0.2-0.4-0.4-0.5s-0.4-0.2-0.7-0.2c-0.4,0-0.8,0.1-1.1,0.4c-0.3,0.3-0.4,0.8-0.4,1.5v3.1H241.8z"/>
		<path id="XMLID_61_" class="st1" d="M251.8,230.1l1,0.1c-0.2,0.6-0.4,1-0.9,1.4c-0.4,0.3-1,0.5-1.6,0.5c-0.8,0-1.5-0.3-2-0.8
			c-0.5-0.5-0.7-1.2-0.7-2.2c0-1,0.2-1.7,0.7-2.2s1.1-0.8,1.9-0.8c0.8,0,1.4,0.3,1.9,0.8c0.5,0.5,0.7,1.2,0.7,2.2c0,0.1,0,0.1,0,0.3
			h-4.3c0,0.6,0.2,1.1,0.5,1.4c0.3,0.3,0.7,0.5,1.2,0.5c0.4,0,0.7-0.1,0.9-0.3C251.5,230.8,251.7,230.5,251.8,230.1z M248.7,228.5
			h3.2c0-0.5-0.2-0.8-0.4-1.1c-0.3-0.4-0.7-0.6-1.2-0.6c-0.4,0-0.8,0.1-1.1,0.4C248.9,227.6,248.7,228,248.7,228.5z"/>
		<path id="XMLID_64_" class="st1" d="M254,231.9v-5.7h0.9v0.9c0.2-0.4,0.4-0.7,0.6-0.8s0.4-0.2,0.6-0.2c0.3,0,0.7,0.1,1,0.3
			l-0.3,0.9c-0.2-0.1-0.5-0.2-0.7-0.2c-0.2,0-0.4,0.1-0.6,0.2c-0.2,0.1-0.3,0.3-0.4,0.5c-0.1,0.3-0.2,0.7-0.2,1.1v3H254z"/>
		<path id="XMLID_66_" class="st1" d="M261.4,231.2c-0.4,0.3-0.7,0.5-1,0.6c-0.3,0.1-0.7,0.2-1.1,0.2c-0.6,0-1.1-0.2-1.4-0.5
			c-0.3-0.3-0.5-0.7-0.5-1.2c0-0.3,0.1-0.5,0.2-0.8c0.1-0.2,0.3-0.4,0.5-0.6c0.2-0.1,0.4-0.2,0.7-0.3c0.2-0.1,0.5-0.1,0.9-0.1
			c0.8-0.1,1.4-0.2,1.7-0.3c0-0.1,0-0.2,0-0.3c0-0.4-0.1-0.7-0.3-0.8c-0.2-0.2-0.6-0.3-1.1-0.3c-0.5,0-0.8,0.1-1,0.2
			c-0.2,0.2-0.4,0.4-0.5,0.8l-0.9-0.1c0.1-0.4,0.2-0.7,0.4-1c0.2-0.2,0.5-0.4,0.9-0.6c0.4-0.1,0.8-0.2,1.3-0.2
			c0.5,0,0.9,0.1,1.2,0.2s0.5,0.3,0.7,0.4c0.1,0.2,0.2,0.4,0.3,0.7c0,0.2,0,0.5,0,0.9v1.3c0,0.9,0,1.5,0.1,1.7s0.1,0.5,0.2,0.7h-1
			C261.5,231.7,261.5,231.5,261.4,231.2z M261.3,229.1c-0.4,0.1-0.9,0.3-1.6,0.4c-0.4,0.1-0.7,0.1-0.8,0.2c-0.2,0.1-0.3,0.2-0.4,0.3
			s-0.1,0.3-0.1,0.5c0,0.3,0.1,0.5,0.3,0.6c0.2,0.2,0.5,0.3,0.9,0.3c0.4,0,0.7-0.1,1-0.2s0.5-0.4,0.6-0.7c0.1-0.2,0.2-0.5,0.2-1
			V229.1z"/>
		<path id="XMLID_69_" class="st1" d="M263.8,231.9v-5.7h0.9v0.9c0.2-0.4,0.4-0.7,0.6-0.8c0.2-0.1,0.4-0.2,0.6-0.2
			c0.3,0,0.7,0.1,1,0.3l-0.3,0.9c-0.2-0.1-0.5-0.2-0.7-0.2c-0.2,0-0.4,0.1-0.6,0.2s-0.3,0.3-0.4,0.5c-0.1,0.3-0.2,0.7-0.2,1.1v3
			H263.8z"/>
		<path id="XMLID_71_" class="st1" d="M270.5,231.9v-5.7h0.9v0.9c0.2-0.4,0.4-0.7,0.6-0.8s0.4-0.2,0.6-0.2c0.3,0,0.7,0.1,1,0.3
			l-0.3,0.9c-0.2-0.1-0.5-0.2-0.7-0.2c-0.2,0-0.4,0.1-0.6,0.2c-0.2,0.1-0.3,0.3-0.4,0.5c-0.1,0.3-0.2,0.7-0.2,1.1v3H270.5z"/>
		<path id="XMLID_73_" class="st1" d="M278.1,230.1l1,0.1c-0.2,0.6-0.4,1-0.9,1.4s-1,0.5-1.6,0.5c-0.8,0-1.5-0.3-2-0.8
			s-0.7-1.2-0.7-2.2c0-1,0.2-1.7,0.7-2.2s1.1-0.8,1.9-0.8c0.8,0,1.4,0.3,1.9,0.8c0.5,0.5,0.7,1.2,0.7,2.2c0,0.1,0,0.1,0,0.3h-4.3
			c0,0.6,0.2,1.1,0.5,1.4c0.3,0.3,0.7,0.5,1.2,0.5c0.4,0,0.7-0.1,0.9-0.3S278,230.5,278.1,230.1z M274.9,228.5h3.2
			c0-0.5-0.2-0.8-0.4-1.1c-0.3-0.4-0.7-0.6-1.2-0.6c-0.4,0-0.8,0.1-1.1,0.4C275.1,227.6,275,228,274.9,228.5z"/>
		<path id="XMLID_76_" class="st1" d="M280.3,234.1v-7.9h0.9v0.7c0.2-0.3,0.4-0.5,0.7-0.7c0.3-0.1,0.6-0.2,1-0.2
			c0.5,0,0.9,0.1,1.3,0.4c0.4,0.3,0.7,0.6,0.8,1.1c0.2,0.5,0.3,1,0.3,1.5c0,0.6-0.1,1.1-0.3,1.6c-0.2,0.5-0.5,0.8-0.9,1.1
			c-0.4,0.2-0.8,0.4-1.3,0.4c-0.3,0-0.6-0.1-0.9-0.2s-0.5-0.3-0.6-0.5v2.8H280.3z M281.2,229.1c0,0.7,0.1,1.3,0.4,1.6
			c0.3,0.4,0.7,0.5,1.1,0.5c0.4,0,0.8-0.2,1.1-0.5c0.3-0.4,0.5-0.9,0.5-1.7c0-0.7-0.1-1.3-0.4-1.6c-0.3-0.4-0.7-0.5-1.1-0.5
			c-0.4,0-0.8,0.2-1.1,0.6C281.4,227.8,281.2,228.4,281.2,229.1z"/>
		<path id="XMLID_79_" class="st1" d="M286.1,229.1c0-1.1,0.3-1.8,0.9-2.3c0.5-0.4,1.1-0.6,1.8-0.6c0.8,0,1.4,0.3,1.9,0.8
			c0.5,0.5,0.7,1.2,0.7,2.1c0,0.7-0.1,1.3-0.3,1.7c-0.2,0.4-0.5,0.7-1,1c-0.4,0.2-0.9,0.3-1.4,0.3c-0.8,0-1.4-0.3-1.9-0.8
			C286.3,230.8,286.1,230.1,286.1,229.1z M287.1,229.1c0,0.7,0.2,1.3,0.5,1.6c0.3,0.4,0.7,0.5,1.2,0.5c0.5,0,0.9-0.2,1.2-0.5
			s0.5-0.9,0.5-1.7c0-0.7-0.2-1.2-0.5-1.6s-0.7-0.5-1.2-0.5c-0.5,0-0.9,0.2-1.2,0.5C287.2,227.8,287.1,228.4,287.1,229.1z"/>
		<path id="XMLID_82_" class="st1" d="M292.5,231.9v-5.7h0.9v0.9c0.2-0.4,0.4-0.7,0.6-0.8c0.2-0.1,0.4-0.2,0.6-0.2
			c0.3,0,0.7,0.1,1,0.3l-0.3,0.9c-0.2-0.1-0.5-0.2-0.7-0.2c-0.2,0-0.4,0.1-0.6,0.2s-0.3,0.3-0.4,0.5c-0.1,0.3-0.2,0.7-0.2,1.1v3
			H292.5z"/>
		<path id="XMLID_84_" class="st1" d="M298.3,231.1l0.1,0.9c-0.3,0.1-0.5,0.1-0.7,0.1c-0.4,0-0.6-0.1-0.8-0.2
			c-0.2-0.1-0.3-0.3-0.4-0.4s-0.1-0.6-0.1-1.1V227h-0.7v-0.8h0.7v-1.4l1-0.6v2h1v0.8h-1v3.3c0,0.3,0,0.5,0.1,0.5
			c0,0.1,0.1,0.1,0.2,0.2c0.1,0,0.2,0.1,0.3,0.1C298,231.1,298.2,231.1,298.3,231.1z"/>
		<path id="XMLID_86_" class="st1" d="M303.2,230.1l1,0.1c-0.2,0.6-0.4,1-0.9,1.4s-1,0.5-1.6,0.5c-0.8,0-1.5-0.3-2-0.8
			s-0.7-1.2-0.7-2.2c0-1,0.2-1.7,0.7-2.2s1.1-0.8,1.9-0.8c0.8,0,1.4,0.3,1.9,0.8c0.5,0.5,0.7,1.2,0.7,2.2c0,0.1,0,0.1,0,0.3H300
			c0,0.6,0.2,1.1,0.5,1.4c0.3,0.3,0.7,0.5,1.2,0.5c0.4,0,0.7-0.1,0.9-0.3S303,230.5,303.2,230.1z M300,228.5h3.2
			c0-0.5-0.2-0.8-0.4-1.1c-0.3-0.4-0.7-0.6-1.2-0.6c-0.4,0-0.8,0.1-1.1,0.4C300.2,227.6,300,228,300,228.5z"/>
		<path id="XMLID_89_" class="st1" d="M305,230.2l1-0.2c0.1,0.4,0.2,0.7,0.4,0.9c0.2,0.2,0.6,0.3,1,0.3c0.4,0,0.8-0.1,1-0.3
			s0.3-0.4,0.3-0.6c0-0.2-0.1-0.4-0.3-0.5c-0.1-0.1-0.5-0.2-1-0.3c-0.7-0.2-1.2-0.3-1.5-0.5c-0.3-0.1-0.5-0.3-0.6-0.5
			c-0.1-0.2-0.2-0.5-0.2-0.8c0-0.3,0.1-0.5,0.2-0.7s0.3-0.4,0.5-0.5c0.2-0.1,0.4-0.2,0.6-0.3c0.3-0.1,0.5-0.1,0.8-0.1
			c0.4,0,0.8,0.1,1.2,0.2c0.3,0.1,0.6,0.3,0.8,0.5c0.2,0.2,0.3,0.5,0.3,0.9l-0.9,0.1c0-0.3-0.2-0.5-0.4-0.7
			c-0.2-0.2-0.5-0.2-0.9-0.2c-0.4,0-0.8,0.1-1,0.2c-0.2,0.1-0.3,0.3-0.3,0.5c0,0.1,0,0.2,0.1,0.3c0.1,0.1,0.2,0.2,0.4,0.3
			c0.1,0,0.4,0.1,0.9,0.2c0.7,0.2,1.2,0.3,1.4,0.4c0.3,0.1,0.5,0.3,0.6,0.5s0.2,0.5,0.2,0.8c0,0.3-0.1,0.6-0.3,0.9
			c-0.2,0.3-0.5,0.5-0.8,0.7c-0.4,0.2-0.8,0.2-1.2,0.2c-0.7,0-1.3-0.2-1.7-0.5C305.4,231.3,305.1,230.8,305,230.2z"/>
	</g>
	<line id="XMLID_1054_" class="st3" x1="163.8" y1="69" x2="62.2" y2="83.5"/>
	<line id="XMLID_1060_" class="st3" x1="158.7" y1="122.4" x2="62.2" y2="90.1"/>
	<line id="XMLID_1061_" class="st3" x1="163.8" y1="176.1" x2="62.2" y2="188.3"/>
	<line id="XMLID_1062_" class="st3" x1="158.7" y1="228.5" x2="62.2" y2="194.9"/>
	<line id="XMLID_1063_" class="st3" x1="158.7" y1="172.9" x2="62.2" y2="99.5"/>
	<line id="XMLID_1064_" class="st3" x1="158.7" y1="223.8" x2="62.2" y2="106.1"/>
</g>
</svg>
