<?xml version="1.0" encoding="utf-8"?>
<!-- Generator: Adobe Illustrator 19.0.0, SVG Export Plug-In . SVG Version: 6.00 Build 0)  -->
<svg version="1.1" id="Capa_1" xmlns="http://www.w3.org/2000/svg" xmlns:xlink="http://www.w3.org/1999/xlink" x="0px" y="0px"
	 viewBox="123 292.3 842.1 256.6" style="enable-background:new 123 292.3 842.1 256.6;" xml:space="preserve">
<style type="text/css">
	.st0{fill:none;stroke:#9E9E9E;stroke-miterlimit:10;}
	.st1{fill:none;stroke:#9E9E9E;stroke-miterlimit:10;stroke-dasharray:3.9624,2.9718;}
	.st2{fill:#E8A91C;}
	.st3{fill:#FFFFFF;}
	.st4{fill:#F9D523;stroke:#E8A91C;stroke-width:2;stroke-miterlimit:10;}
	.st5{fill:none;stroke:#1D1D1B;stroke-width:3;stroke-linecap:round;stroke-miterlimit:10;}
	.st6{fill:none;stroke:#1D1D1B;stroke-width:3;stroke-miterlimit:10;}
	.st7{fill:none;stroke:#1D1D1B;stroke-width:3;stroke-miterlimit:10;stroke-dasharray:3.8151,2.8614;}
	.st8{fill:#1D1D1B;}
</style>
<g id="XMLID_11482_">
	<g id="XMLID_13_">
		<line id="XMLID_16_" class="st0" x1="527.1" y1="292.3" x2="527.1" y2="294.3"/>
		<line id="XMLID_15_" class="st1" x1="527.1" y1="297.3" x2="527.1" y2="545.4"/>
		<line id="XMLID_14_" class="st0" x1="527.1" y1="546.9" x2="527.1" y2="548.9"/>
	</g>
</g>
<g id="XMLID_18653_">
	<path id="XMLID_18665_" class="st2" d="M158.1,441.9L144.2,423v-12.6h11.2c0.6,0,1.1-0.5,1.1-1.1s-0.5-1.1-1.1-1.1h-11.2v-9.5
		c0-0.6-0.5-1.1-1.1-1.1c-0.6,0-1.1,0.5-1.1,1.1v9.5h-11.3c-0.6,0-1.1,0.5-1.1,1.1s0.5,1.1,1.1,1.1H142V423l-14.3,18.9
		c-0.4,0.5-0.3,1.2,0.2,1.6c0.2,0.2,0.4,0.2,0.7,0.2c0.3,0,0.7-0.2,0.9-0.4l13.5-18l13.3,18c0.2,0.3,0.6,0.5,0.9,0.5
		c0.2,0,0.5-0.1,0.7-0.2C158.4,443.1,158.5,442.4,158.1,441.9z"/>
	<circle id="XMLID_18664_" class="st3" cx="143.1" cy="390.5" r="11.6"/>
	<path id="XMLID_18655_" class="st2" d="M143.1,402.8c-6.8,0-12.3-5.5-12.3-12.3c0-6.8,5.5-12.3,12.3-12.3c6.8,0,12.3,5.5,12.3,12.3
		C155.4,397.3,149.9,402.8,143.1,402.8z M143.1,379.7c-6,0-10.8,4.8-10.8,10.8s4.8,10.8,10.8,10.8s10.8-4.8,10.8-10.8
		C153.9,384.6,149,379.7,143.1,379.7z"/>
</g>
<rect id="XMLID_18644_" x="196" y="370.8" class="st4" width="227" height="101.6"/>
<g id="XMLID_279_">
	<path id="XMLID_280_" d="M123.9,467.9v-9.1h2.8l1.7,6.2l1.6-6.2h2.8v9.1H131v-7.2l-1.8,7.2h-1.8l-1.8-7.2v7.2H123.9z"/>
	<path id="XMLID_282_" d="M138.3,465.8l1.7,0.3c-0.2,0.6-0.6,1.1-1.1,1.5c-0.5,0.3-1.1,0.5-1.8,0.5c-1.1,0-2-0.4-2.5-1.1
		c-0.4-0.6-0.7-1.4-0.7-2.3c0-1.1,0.3-2,0.9-2.6c0.6-0.6,1.3-0.9,2.2-0.9c1,0,1.8,0.3,2.3,1c0.6,0.6,0.8,1.6,0.8,3h-4.4
		c0,0.5,0.2,0.9,0.4,1.2c0.3,0.3,0.6,0.4,1,0.4c0.3,0,0.5-0.1,0.7-0.2C138,466.5,138.2,466.1,138.3,465.8z M138.4,464
		c0-0.5-0.1-0.9-0.4-1.2c-0.2-0.3-0.6-0.4-0.9-0.4c-0.4,0-0.7,0.1-0.9,0.4s-0.4,0.7-0.4,1.1L138.4,464L138.4,464z M136.2,460.5
		l0.9-1.9h2l-1.7,1.9H136.2z"/>
	<path id="XMLID_286_" d="M147.7,467.9H146v-1c-0.3,0.4-0.6,0.7-1,0.8s-0.7,0.3-1.1,0.3c-0.8,0-1.4-0.3-1.9-0.9
		c-0.5-0.6-0.8-1.5-0.8-2.6s0.3-2,0.8-2.6s1.2-0.9,2-0.9c0.7,0,1.4,0.3,1.9,0.9v-3.3h1.7L147.7,467.9L147.7,467.9z M143,464.4
		c0,0.7,0.1,1.2,0.3,1.5c0.3,0.5,0.7,0.7,1.2,0.7c0.4,0,0.7-0.2,1-0.5c0.3-0.3,0.4-0.9,0.4-1.5c0-0.8-0.1-1.3-0.4-1.6
		c-0.3-0.3-0.6-0.5-1.1-0.5c-0.4,0-0.8,0.2-1,0.5C143.2,463.3,143,463.8,143,464.4z"/>
	<path id="XMLID_289_" d="M149.4,460.4v-1.6h1.7v1.6H149.4z M149.4,467.9v-6.6h1.7v6.6H149.4z"/>
	<path id="XMLID_292_" d="M158.7,463.2l-1.7,0.3c-0.1-0.3-0.2-0.6-0.4-0.8c-0.2-0.2-0.5-0.3-0.8-0.3c-0.4,0-0.8,0.2-1,0.5
		c-0.3,0.3-0.4,0.8-0.4,1.5c0,0.8,0.1,1.3,0.4,1.7c0.3,0.3,0.6,0.5,1.1,0.5c0.3,0,0.6-0.1,0.8-0.3c0.2-0.2,0.4-0.5,0.4-1l1.7,0.3
		c-0.2,0.8-0.5,1.4-1,1.8s-1.2,0.6-2,0.6c-1,0-1.7-0.3-2.3-0.9c-0.6-0.6-0.9-1.5-0.9-2.5c0-1.1,0.3-1.9,0.9-2.5s1.4-0.9,2.3-0.9
		c0.8,0,1.4,0.2,1.9,0.5C158.1,462,158.5,462.5,158.7,463.2z"/>
	<path id="XMLID_294_" d="M159.6,464.5c0-0.6,0.1-1.1,0.4-1.7c0.3-0.5,0.7-1,1.2-1.2c0.5-0.2,1.1-0.4,1.8-0.4c1,0,1.8,0.3,2.5,1
		c0.6,0.6,1,1.5,1,2.5s-0.3,1.8-1,2.5c-0.7,0.7-1.5,1-2.4,1c-0.6,0-1.2-0.1-1.7-0.4s-1-0.7-1.3-1.2
		C159.7,465.9,159.6,465.3,159.6,464.5z M161.4,464.6c0,0.7,0.2,1.2,0.5,1.5c0.3,0.3,0.7,0.5,1.2,0.5s0.8-0.2,1.1-0.5
		c0.3-0.3,0.5-0.9,0.5-1.5s-0.2-1.1-0.5-1.5c-0.3-0.3-0.7-0.5-1.1-0.5s-0.8,0.2-1.2,0.5C161.5,463.4,161.4,463.9,161.4,464.6z"/>
</g>
<g id="XMLID_263_">
	<path id="XMLID_264_" d="M356.3,390.8l1.4-0.1c0.1,0.5,0.3,0.8,0.5,1.1c0.3,0.2,0.6,0.3,1.1,0.3s0.8-0.1,1.1-0.3
		c0.2-0.2,0.4-0.4,0.4-0.7c0-0.2-0.1-0.3-0.2-0.4s-0.3-0.2-0.5-0.3c-0.2-0.1-0.6-0.2-1.2-0.3c-0.8-0.2-1.3-0.4-1.7-0.7
		c-0.4-0.4-0.7-0.9-0.7-1.5c0-0.4,0.1-0.7,0.3-1c0.2-0.3,0.5-0.6,0.9-0.7c0.4-0.2,0.9-0.3,1.4-0.3c0.9,0,1.6,0.2,2.1,0.6
		s0.7,0.9,0.7,1.6l-1.5,0.1c-0.1-0.4-0.2-0.6-0.4-0.8c-0.2-0.2-0.5-0.2-0.9-0.2c-0.4,0-0.8,0.1-1,0.3c-0.2,0.1-0.2,0.3-0.2,0.5
		c0,0.2,0.1,0.3,0.2,0.4c0.2,0.2,0.6,0.3,1.4,0.5c0.7,0.2,1.2,0.3,1.6,0.5c0.4,0.2,0.6,0.4,0.8,0.7s0.3,0.7,0.3,1.2
		c0,0.4-0.1,0.8-0.3,1.2s-0.6,0.6-1,0.8c-0.4,0.2-1,0.3-1.6,0.3c-0.9,0-1.6-0.2-2.1-0.6S356.4,391.6,356.3,390.8z"/>
	<path id="XMLID_266_" d="M363.4,393.1v-7.3h1.5v7.3H363.4z"/>
	<path id="XMLID_268_" d="M365.9,390.8l1.4-0.1c0.1,0.5,0.3,0.8,0.5,1.1c0.3,0.2,0.6,0.3,1.1,0.3s0.8-0.1,1.1-0.3
		c0.2-0.2,0.4-0.4,0.4-0.7c0-0.2-0.1-0.3-0.2-0.4c-0.1-0.1-0.3-0.2-0.5-0.3c-0.2-0.1-0.6-0.2-1.2-0.3c-0.8-0.2-1.3-0.4-1.7-0.7
		c-0.4-0.4-0.7-0.9-0.7-1.5c0-0.4,0.1-0.7,0.3-1c0.2-0.3,0.5-0.6,0.9-0.7c0.4-0.2,0.9-0.3,1.4-0.3c0.9,0,1.6,0.2,2.1,0.6
		s0.7,0.9,0.7,1.6l-1.5,0.1c-0.1-0.4-0.2-0.6-0.4-0.8c-0.2-0.2-0.5-0.2-0.9-0.2s-0.8,0.1-1,0.3c-0.2,0.1-0.2,0.3-0.2,0.5
		c0,0.2,0.1,0.3,0.2,0.4c0.2,0.2,0.6,0.3,1.4,0.5c0.7,0.2,1.2,0.3,1.6,0.5c0.4,0.2,0.6,0.4,0.8,0.7c0.2,0.3,0.3,0.7,0.3,1.2
		c0,0.4-0.1,0.8-0.3,1.2c-0.2,0.4-0.6,0.6-1,0.8c-0.4,0.2-1,0.3-1.6,0.3c-0.9,0-1.6-0.2-2.1-0.6S366,391.6,365.9,390.8z"/>
	<path id="XMLID_270_" d="M374.7,393.1V387h-2.2v-1.2h5.8v1.2h-2.2v6.1H374.7z"/>
	<path id="XMLID_272_" d="M379.3,393.1v-7.3h5.4v1.2h-3.9v1.6h3.7v1.2h-3.7v2h4.1v1.2h-5.6V393.1z"/>
	<path id="XMLID_274_" d="M386.1,393.1v-7.3h2.2l1.3,5l1.3-5h2.2v7.3h-1.4v-5.7l-1.4,5.7h-1.4l-1.4-5.7v5.7H386.1z"/>
	<path id="XMLID_276_" d="M401.2,393.1h-1.6l-0.6-1.7h-3l-0.6,1.7h-1.6l2.8-7.3h1.6L401.2,393.1z M398.5,390.2l-1-2.7l-1,2.7H398.5z
		"/>
</g>
<line id="XMLID_1099_" class="st5" x1="217.1" y1="425" x2="167.3" y2="425"/>
<g id="XMLID_15423_">
	<path id="XMLID_15557_" class="st2" d="M609.2,441.9L595.3,423v-12.6h11.2c0.6,0,1.1-0.5,1.1-1.1s-0.5-1.1-1.1-1.1h-11.2v-9.5
		c0-0.6-0.5-1.1-1.1-1.1s-1.1,0.5-1.1,1.1v9.5h-11.2c-0.6,0-1.1,0.5-1.1,1.1s0.5,1.1,1.1,1.1H593V423l-14.2,18.9
		c-0.4,0.5-0.3,1.2,0.2,1.6c0.2,0.2,0.4,0.2,0.7,0.2s0.7-0.2,0.9-0.4l13.5-18l13.3,18c0.2,0.3,0.6,0.5,0.9,0.5
		c0.2,0,0.5-0.1,0.7-0.2C609.4,443.1,609.5,442.4,609.2,441.9z"/>
	<circle id="XMLID_15556_" class="st3" cx="594.1" cy="390.5" r="11.6"/>
	<path id="XMLID_15424_" class="st2" d="M594.1,402.8c-6.8,0-12.3-5.5-12.3-12.3c0-6.8,5.5-12.3,12.3-12.3c6.8,0,12.3,5.5,12.3,12.3
		C606.4,397.3,600.9,402.8,594.1,402.8z M594.1,379.7c-6,0-10.8,4.8-10.8,10.8s4.8,10.8,10.8,10.8s10.8-4.8,10.8-10.8
		C604.9,384.6,600,379.7,594.1,379.7z"/>
</g>
<rect id="XMLID_15362_" x="647" y="370.8" class="st4" width="317.1" height="101.6"/>
<g id="XMLID_177_">
	<path id="XMLID_178_" d="M566.4,467.9v-9.1h6.8v1.5h-4.9v2h4.6v1.5h-4.6v2.5h5.1v1.5h-7V467.9z"/>
	<path id="XMLID_180_" d="M574.8,461.3h1.6v0.9c0.6-0.7,1.3-1.1,2.1-1.1c0.4,0,0.8,0.1,1.1,0.3c0.3,0.2,0.6,0.4,0.8,0.8
		c0.3-0.4,0.6-0.6,0.9-0.8c0.3-0.2,0.7-0.3,1.1-0.3c0.5,0,0.9,0.1,1.2,0.3c0.3,0.2,0.6,0.5,0.8,0.9c0.1,0.3,0.2,0.7,0.2,1.4v4.2
		h-1.7v-3.8c0-0.7-0.1-1.1-0.2-1.3c-0.2-0.2-0.4-0.4-0.7-0.4c-0.2,0-0.5,0.1-0.7,0.2c-0.2,0.1-0.4,0.4-0.5,0.7
		c-0.1,0.3-0.1,0.7-0.1,1.4v3.2H579v-3.6c0-0.6,0-1.1-0.1-1.2c-0.1-0.2-0.2-0.3-0.3-0.4c-0.1-0.1-0.3-0.1-0.5-0.1
		c-0.3,0-0.5,0.1-0.7,0.2c-0.2,0.1-0.4,0.4-0.5,0.6c-0.1,0.3-0.1,0.7-0.1,1.4v3.2h-1.7v-6.7H574.8z"/>
	<path id="XMLID_182_" d="M586.2,461.3h1.6v1c0.2-0.3,0.5-0.6,0.9-0.8c0.4-0.2,0.8-0.3,1.2-0.3c0.8,0,1.4,0.3,2,0.9
		c0.5,0.6,0.8,1.4,0.8,2.5s-0.3,2-0.8,2.6s-1.2,0.9-2,0.9c-0.4,0-0.7-0.1-1-0.2s-0.6-0.4-0.9-0.7v3.3h-1.7v-9.2H586.2z M587.9,464.5
		c0,0.7,0.1,1.3,0.4,1.6c0.3,0.4,0.7,0.5,1.1,0.5c0.4,0,0.7-0.2,1-0.5c0.3-0.3,0.4-0.9,0.4-1.6c0-0.7-0.1-1.2-0.4-1.5
		c-0.3-0.3-0.6-0.5-1-0.5c-0.4,0-0.8,0.2-1.1,0.5C588.1,463.3,587.9,463.8,587.9,464.5z"/>
	<path id="XMLID_185_" d="M594,467.9v-9.1h1.7v9.1H594z"/>
	<path id="XMLID_187_" d="M601.4,465.8l1.7,0.3c-0.2,0.6-0.6,1.1-1.1,1.5c-0.5,0.3-1.1,0.5-1.8,0.5c-1.1,0-2-0.4-2.5-1.1
		c-0.4-0.6-0.7-1.4-0.7-2.3c0-1.1,0.3-2,0.9-2.6c0.6-0.6,1.3-0.9,2.2-0.9c1,0,1.8,0.3,2.3,1c0.6,0.6,0.8,1.6,0.8,3h-4.4
		c0,0.5,0.2,0.9,0.4,1.2c0.2,0.3,0.6,0.4,1,0.4c0.3,0,0.5-0.1,0.7-0.2C601.1,466.4,601.3,466.1,601.4,465.8z M601.5,464
		c0-0.5-0.1-0.9-0.4-1.2c-0.2-0.3-0.6-0.4-0.9-0.4c-0.4,0-0.7,0.1-0.9,0.4c-0.2,0.3-0.4,0.7-0.4,1.1L601.5,464L601.5,464z"/>
	<path id="XMLID_190_" d="M605.9,463.3l-1.6-0.3c0.2-0.6,0.5-1.1,0.9-1.4c0.4-0.3,1.1-0.5,1.9-0.5s1.4,0.1,1.7,0.3
		c0.4,0.2,0.7,0.4,0.8,0.7c0.2,0.3,0.2,0.8,0.2,1.6v2c0,0.6,0,1,0.1,1.3c0.1,0.3,0.2,0.6,0.3,0.9h-1.7c0-0.1-0.1-0.3-0.2-0.5
		c0-0.1,0-0.2-0.1-0.2c-0.3,0.3-0.6,0.5-1,0.7c-0.3,0.1-0.7,0.2-1.1,0.2c-0.7,0-1.2-0.2-1.6-0.6c-0.4-0.4-0.6-0.8-0.6-1.4
		c0-0.4,0.1-0.7,0.3-1c0.2-0.3,0.4-0.5,0.7-0.7c0.3-0.2,0.8-0.3,1.4-0.4c0.8-0.2,1.4-0.3,1.7-0.4v-0.2c0-0.3-0.1-0.6-0.2-0.7
		c-0.2-0.1-0.5-0.2-0.9-0.2c-0.3,0-0.6,0.1-0.7,0.2C606.2,462.8,606.1,463,605.9,463.3z M608.3,464.7c-0.2,0.1-0.6,0.2-1.1,0.3
		s-0.8,0.2-1,0.3c-0.2,0.2-0.3,0.4-0.3,0.6c0,0.2,0.1,0.5,0.3,0.6c0.2,0.2,0.4,0.3,0.7,0.3c0.3,0,0.6-0.1,0.9-0.3
		c0.2-0.2,0.3-0.4,0.4-0.6c0-0.1,0.1-0.4,0.1-0.9V464.7z"/>
	<path id="XMLID_193_" d="M617.8,467.9h-1.6v-1c-0.3,0.4-0.6,0.7-1,0.8c-0.4,0.1-0.7,0.3-1.1,0.3c-0.8,0-1.4-0.3-1.9-0.9
		c-0.5-0.6-0.8-1.5-0.8-2.6s0.3-2,0.8-2.6s1.2-0.9,2-0.9c0.7,0,1.4,0.3,1.9,0.9v-3.3h1.7V467.9z M613.1,464.4c0,0.7,0.1,1.2,0.3,1.5
		c0.3,0.5,0.7,0.7,1.2,0.7c0.4,0,0.7-0.2,1-0.5c0.3-0.3,0.4-0.9,0.4-1.5c0-0.8-0.1-1.3-0.4-1.6c-0.3-0.3-0.6-0.5-1.1-0.5
		c-0.4,0-0.8,0.2-1,0.5C613.3,463.3,613.1,463.8,613.1,464.4z"/>
	<path id="XMLID_196_" d="M619.1,464.5c0-0.6,0.1-1.1,0.4-1.7c0.3-0.5,0.7-1,1.2-1.2c0.5-0.2,1.1-0.4,1.8-0.4c1,0,1.8,0.3,2.5,1
		c0.6,0.6,1,1.5,1,2.5s-0.3,1.8-1,2.5c-0.7,0.7-1.5,1-2.4,1c-0.6,0-1.2-0.1-1.7-0.4s-1-0.7-1.3-1.2
		C619.2,465.9,619.1,465.3,619.1,464.5z M620.9,464.6c0,0.7,0.2,1.2,0.5,1.5c0.3,0.3,0.7,0.5,1.2,0.5s0.8-0.2,1.1-0.5
		c0.3-0.3,0.5-0.9,0.5-1.5s-0.2-1.1-0.5-1.5c-0.3-0.3-0.7-0.5-1.1-0.5c-0.4,0-0.8,0.2-1.2,0.5C621,463.4,620.9,463.9,620.9,464.6z"
		/>
</g>
<g id="XMLID_151_">
	<path id="XMLID_152_" d="M777,408.1l-5.9-2.6v-1.4l5.9-2.5v1.7l-4.1,1.6l4.1,1.6V408.1z"/>
	<path id="XMLID_154_" d="M784,408.1l-5.9-2.6v-1.4l5.9-2.5v1.7l-4.1,1.6l4.1,1.6V408.1z"/>
	<path id="XMLID_156_" d="M785.4,402v-1.5h1.6v1.5H785.4z M785.4,409.1v-6.2h1.6v6.2H785.4z"/>
	<path id="XMLID_159_" d="M794.4,409.1h-1.6v-3.2c0-0.7,0-1.1-0.1-1.3s-0.2-0.4-0.3-0.5s-0.3-0.2-0.6-0.2s-0.5,0.1-0.8,0.2
		s-0.4,0.4-0.5,0.6c-0.1,0.2-0.1,0.7-0.1,1.4v2.8h-1.6v-6.2h1.5v0.9c0.5-0.7,1.2-1.1,2.1-1.1c0.4,0,0.7,0.1,1,0.2s0.5,0.3,0.7,0.5
		c0.2,0.2,0.3,0.4,0.3,0.7c0,0.3,0.1,0.6,0.1,1.1v4.1H794.4z"/>
	<path id="XMLID_161_" d="M801.5,404.7l-1.6,0.3c-0.1-0.3-0.2-0.6-0.4-0.7s-0.4-0.2-0.8-0.2c-0.4,0-0.7,0.1-1,0.4
		c-0.3,0.3-0.4,0.8-0.4,1.4c0,0.7,0.1,1.3,0.4,1.6c0.3,0.3,0.6,0.5,1,0.5c0.3,0,0.6-0.1,0.8-0.3s0.3-0.5,0.4-0.9l1.6,0.3
		c-0.2,0.7-0.5,1.3-1,1.7s-1.1,0.6-1.9,0.6c-0.9,0-1.6-0.3-2.2-0.9c-0.6-0.6-0.8-1.4-0.8-2.4s0.3-1.8,0.8-2.4s1.3-0.9,2.2-0.9
		c0.8,0,1.4,0.2,1.8,0.5C800.8,403.6,801.3,404,801.5,404.7z"/>
	<path id="XMLID_163_" d="M802.8,409.1v-8.6h1.6v8.6H802.8z"/>
	<path id="XMLID_165_" d="M810.2,409.1v-0.9c-0.2,0.3-0.5,0.6-0.9,0.8c-0.4,0.2-0.8,0.3-1.2,0.3s-0.8-0.1-1.1-0.3
		c-0.3-0.2-0.6-0.4-0.7-0.8s-0.2-0.8-0.2-1.4v-3.9h1.6v2.9c0,0.9,0,1.4,0.1,1.6c0.1,0.2,0.2,0.4,0.3,0.5c0.1,0.1,0.4,0.2,0.6,0.2
		c0.3,0,0.5-0.1,0.8-0.2c0.3-0.1,0.4-0.3,0.5-0.6c0.1-0.3,0.1-0.8,0.1-1.7V403h1.6v6.2h-1.5V409.1z"/>
	<path id="XMLID_167_" d="M819.1,409.1h-1.5v-0.9c-0.3,0.4-0.6,0.6-0.9,0.8c-0.3,0.2-0.7,0.3-1,0.3c-0.7,0-1.3-0.3-1.8-0.9
		c-0.5-0.6-0.8-1.4-0.8-2.4c0-1.1,0.2-1.9,0.7-2.4s1.1-0.8,1.9-0.8c0.7,0,1.3,0.3,1.8,0.9v-3.1h1.6V409.1z M814.7,405.8
		c0,0.7,0.1,1.1,0.3,1.4c0.3,0.4,0.6,0.6,1.1,0.6c0.4,0,0.7-0.2,1-0.5c0.3-0.3,0.4-0.8,0.4-1.4c0-0.7-0.1-1.2-0.4-1.5
		c-0.3-0.3-0.6-0.5-1-0.5s-0.7,0.2-1,0.5C814.8,404.7,814.7,405.2,814.7,405.8z"/>
	<path id="XMLID_170_" d="M824.4,407.1l1.6,0.3c-0.2,0.6-0.5,1.1-1,1.4c-0.5,0.3-1,0.5-1.7,0.5c-1.1,0-1.9-0.4-2.4-1.1
		c-0.4-0.6-0.6-1.3-0.6-2.1c0-1,0.3-1.8,0.8-2.4s1.2-0.9,2-0.9c0.9,0,1.7,0.3,2.2,0.9s0.8,1.5,0.8,2.8H822c0,0.5,0.1,0.9,0.4,1.1
		c0.3,0.2,0.6,0.4,0.9,0.4c0.3,0,0.5-0.1,0.7-0.2S824.3,407.4,824.4,407.1z M824.5,405.4c0-0.5-0.1-0.8-0.4-1.1
		c-0.3-0.3-0.5-0.4-0.9-0.4s-0.7,0.1-0.9,0.4c-0.2,0.3-0.3,0.6-0.3,1.1H824.5z"/>
	<path id="XMLID_173_" d="M827.1,408.1v-1.7l4.1-1.6l-4.1-1.6v-1.6l5.9,2.5v1.4L827.1,408.1z"/>
	<path id="XMLID_175_" d="M834.1,408.1v-1.7l4.1-1.6l-4.1-1.6v-1.6l5.9,2.5v1.4L834.1,408.1z"/>
</g>
<g id="XMLID_135_">
	<path id="XMLID_136_" d="M903.1,390.8l1.4-0.1c0.1,0.5,0.3,0.8,0.5,1.1c0.3,0.2,0.6,0.3,1.1,0.3s0.8-0.1,1.1-0.3
		c0.2-0.2,0.4-0.4,0.4-0.7c0-0.2-0.1-0.3-0.2-0.4c-0.1-0.1-0.3-0.2-0.5-0.3c-0.2-0.1-0.6-0.2-1.2-0.3c-0.8-0.2-1.3-0.4-1.7-0.7
		c-0.4-0.4-0.7-0.9-0.7-1.5c0-0.4,0.1-0.7,0.3-1c0.2-0.3,0.5-0.6,0.9-0.7c0.4-0.2,0.9-0.3,1.4-0.3c0.9,0,1.6,0.2,2.1,0.6
		s0.7,0.9,0.7,1.6l-1.5,0.1c-0.1-0.4-0.2-0.6-0.4-0.8c-0.2-0.2-0.5-0.2-0.9-0.2s-0.8,0.1-1,0.3c-0.2,0.1-0.2,0.3-0.2,0.5
		c0,0.2,0.1,0.3,0.2,0.4c0.2,0.2,0.6,0.3,1.4,0.5c0.7,0.2,1.2,0.3,1.6,0.5c0.3,0.2,0.6,0.4,0.8,0.7s0.3,0.7,0.3,1.2
		c0,0.4-0.1,0.8-0.3,1.2s-0.6,0.6-1,0.8c-0.4,0.2-1,0.3-1.6,0.3c-0.9,0-1.6-0.2-2.1-0.6S903.2,391.6,903.1,390.8z"/>
	<path id="XMLID_138_" d="M910.2,393.1v-7.3h1.5v7.3H910.2z"/>
	<path id="XMLID_140_" d="M912.7,390.8l1.4-0.1c0.1,0.5,0.3,0.8,0.5,1.1c0.3,0.2,0.6,0.3,1.1,0.3s0.8-0.1,1.1-0.3
		c0.3-0.2,0.4-0.4,0.4-0.7c0-0.2-0.1-0.3-0.2-0.4c-0.1-0.1-0.3-0.2-0.5-0.3c-0.2-0.1-0.6-0.2-1.2-0.3c-0.8-0.2-1.3-0.4-1.7-0.7
		c-0.4-0.4-0.7-0.9-0.7-1.5c0-0.4,0.1-0.7,0.3-1c0.2-0.3,0.5-0.6,0.9-0.7c0.4-0.2,0.9-0.3,1.4-0.3c0.9,0,1.6,0.2,2.1,0.6
		s0.7,0.9,0.7,1.6l-1.5,0.1c-0.1-0.4-0.2-0.6-0.4-0.8c-0.2-0.2-0.5-0.2-0.9-0.2s-0.8,0.1-1,0.3c-0.2,0.1-0.2,0.3-0.2,0.5
		c0,0.2,0.1,0.3,0.2,0.4c0.2,0.2,0.6,0.3,1.4,0.5c0.7,0.2,1.2,0.3,1.6,0.5c0.3,0.2,0.6,0.4,0.8,0.7s0.3,0.7,0.3,1.2
		c0,0.4-0.1,0.8-0.3,1.2s-0.6,0.6-1,0.8c-0.4,0.2-1,0.3-1.6,0.3c-0.9,0-1.6-0.2-2.1-0.6S912.8,391.6,912.7,390.8z"/>
	<path id="XMLID_142_" d="M921.5,393.1V387h-2.2v-1.2h5.8v1.2H923v6.1H921.5z"/>
	<path id="XMLID_144_" d="M926.1,393.1v-7.3h5.4v1.2h-3.9v1.6h3.7v1.2h-3.7v2h4.1v1.2h-5.6V393.1z"/>
	<path id="XMLID_146_" d="M932.9,393.1v-7.3h2.2l1.3,5l1.3-5h2.2v7.3h-1.4v-5.7l-1.4,5.7h-1.4l-1.4-5.7v5.7H932.9z"/>
	<path id="XMLID_148_" d="M947.9,393.1h-1.6l-0.6-1.7h-2.9l-0.6,1.7h-1.6l2.8-7.3h1.6L947.9,393.1z M945.2,390.2l-1-2.7l-1,2.7
		H945.2z"/>
</g>
<ellipse id="XMLID_15559_" cx="901.8" cy="425.9" rx="54.2" ry="20.6"/>
<g id="XMLID_68_">
	<path id="XMLID_69_" class="st3" d="M872.7,428.3l-2.6-7.3h1.6l1.8,5.4l1.8-5.4h1.6l-2.6,7.3H872.7z"/>
	<path id="XMLID_71_" class="st3" d="M878.1,424.6l-1.3-0.2c0.1-0.5,0.4-0.9,0.7-1.1s0.9-0.4,1.6-0.4c0.6,0,1.1,0.1,1.4,0.2
		c0.3,0.1,0.5,0.3,0.6,0.6c0.1,0.2,0.2,0.6,0.2,1.3v1.6c0,0.5,0,0.8,0.1,1c0,0.2,0.1,0.5,0.3,0.7h-1.4c0-0.1-0.1-0.2-0.1-0.4
		c0-0.1,0-0.1,0-0.2c-0.2,0.2-0.5,0.4-0.8,0.5s-0.6,0.2-0.9,0.2c-0.5,0-1-0.1-1.3-0.4s-0.5-0.7-0.5-1.1c0-0.3,0.1-0.6,0.2-0.8
		c0.1-0.2,0.3-0.4,0.6-0.5s0.6-0.2,1.1-0.3c0.7-0.1,1.1-0.2,1.4-0.3v-0.1c0-0.3-0.1-0.5-0.2-0.6c-0.1-0.1-0.4-0.2-0.8-0.2
		c-0.2,0-0.4,0-0.6,0.1C878.3,424.2,878.2,424.4,878.1,424.6z M880,425.8c-0.2,0.1-0.5,0.1-0.9,0.2c-0.4,0.1-0.6,0.2-0.8,0.2
		c-0.2,0.1-0.3,0.3-0.3,0.5c0,0.2,0.1,0.4,0.2,0.5c0.1,0.1,0.3,0.2,0.6,0.2s0.5-0.1,0.7-0.2c0.2-0.1,0.3-0.3,0.3-0.5
		c0-0.1,0.1-0.3,0.1-0.7v-0.2H880z"/>
	<path id="XMLID_74_" class="st3" d="M882.8,428.3V421h1.4v7.3H882.8z"/>
	<path id="XMLID_76_" class="st3" d="M885.6,422.3V421h1.4v1.3H885.6z M885.6,428.3V423h1.4v5.3H885.6z"/>
	<path id="XMLID_79_" class="st3" d="M893.3,428.3H892v-0.8c-0.2,0.3-0.5,0.5-0.8,0.7c-0.3,0.1-0.6,0.2-0.9,0.2
		c-0.6,0-1.1-0.2-1.6-0.7s-0.6-1.2-0.6-2c0-0.9,0.2-1.6,0.6-2s1-0.7,1.6-0.7s1.1,0.2,1.5,0.7v-2.6h1.4L893.3,428.3L893.3,428.3z
		 M889.5,425.6c0,0.6,0.1,1,0.2,1.2c0.2,0.4,0.5,0.5,0.9,0.5c0.3,0,0.6-0.1,0.8-0.4s0.3-0.7,0.3-1.2c0-0.6-0.1-1-0.3-1.3
		c-0.2-0.3-0.5-0.4-0.8-0.4s-0.6,0.1-0.8,0.4C889.6,424.6,889.5,425,889.5,425.6z"/>
	<path id="XMLID_82_" class="st3" d="M895.7,424.6l-1.3-0.2c0.1-0.5,0.4-0.9,0.7-1.1s0.9-0.4,1.6-0.4c0.6,0,1.1,0.1,1.4,0.2
		c0.3,0.1,0.5,0.3,0.6,0.6c0.1,0.2,0.2,0.6,0.2,1.3v1.6c0,0.5,0,0.8,0.1,1c0,0.2,0.1,0.5,0.3,0.7h-1.4c0-0.1-0.1-0.2-0.1-0.4
		c0-0.1,0-0.1,0-0.2c-0.2,0.2-0.5,0.4-0.8,0.5s-0.6,0.2-0.9,0.2c-0.5,0-1-0.1-1.3-0.4s-0.5-0.7-0.5-1.1c0-0.3,0.1-0.6,0.2-0.8
		c0.1-0.2,0.3-0.4,0.6-0.5s0.6-0.2,1.1-0.3c0.7-0.1,1.1-0.2,1.4-0.3v-0.1c0-0.3-0.1-0.5-0.2-0.6c-0.1-0.1-0.4-0.2-0.8-0.2
		c-0.2,0-0.4,0-0.6,0.1C895.9,424.2,895.8,424.4,895.7,424.6z M897.6,425.8c-0.2,0.1-0.5,0.1-0.9,0.2c-0.4,0.1-0.6,0.2-0.8,0.2
		c-0.2,0.1-0.3,0.3-0.3,0.5c0,0.2,0.1,0.4,0.2,0.5c0.1,0.1,0.3,0.2,0.6,0.2s0.5-0.1,0.7-0.2c0.2-0.1,0.3-0.3,0.3-0.5
		c0-0.1,0.1-0.3,0.1-0.7v-0.2H897.6z"/>
	<path id="XMLID_85_" class="st3" d="M901.6,428.3h-1.4V423h1.3v0.8c0.2-0.4,0.4-0.6,0.6-0.7c0.2-0.1,0.4-0.2,0.6-0.2
		c0.3,0,0.6,0.1,0.9,0.3l-0.4,1.2c-0.2-0.2-0.5-0.2-0.7-0.2s-0.4,0.1-0.5,0.2s-0.2,0.3-0.3,0.6c-0.1,0.3-0.1,0.9-0.1,1.8
		L901.6,428.3L901.6,428.3z"/>
	<path id="XMLID_87_" class="st3" d="M911.9,428.3h-1.3v-0.8c-0.2,0.3-0.5,0.5-0.8,0.7c-0.3,0.1-0.6,0.2-0.9,0.2
		c-0.6,0-1.1-0.2-1.6-0.7s-0.6-1.2-0.6-2c0-0.9,0.2-1.6,0.6-2c0.4-0.5,1-0.7,1.6-0.7s1.1,0.2,1.5,0.7v-2.6h1.4L911.9,428.3
		L911.9,428.3z M908.2,425.6c0,0.6,0.1,1,0.2,1.2c0.2,0.4,0.5,0.5,0.9,0.5c0.3,0,0.6-0.1,0.8-0.4s0.3-0.7,0.3-1.2
		c0-0.6-0.1-1-0.3-1.3c-0.2-0.3-0.5-0.4-0.8-0.4s-0.6,0.1-0.8,0.4S908.2,425,908.2,425.6z"/>
	<path id="XMLID_90_" class="st3" d="M914.4,424.6l-1.3-0.2c0.1-0.5,0.4-0.9,0.7-1.1s0.9-0.4,1.6-0.4c0.6,0,1.1,0.1,1.4,0.2
		c0.3,0.1,0.5,0.3,0.6,0.6c0.1,0.2,0.2,0.6,0.2,1.3v1.6c0,0.5,0,0.8,0.1,1c0,0.2,0.1,0.5,0.3,0.7h-1.4c0-0.1-0.1-0.2-0.1-0.4
		c0-0.1,0-0.1,0-0.2c-0.2,0.2-0.5,0.4-0.8,0.5s-0.6,0.2-0.9,0.2c-0.5,0-1-0.1-1.3-0.4s-0.5-0.7-0.5-1.1c0-0.3,0.1-0.6,0.2-0.8
		c0.1-0.2,0.3-0.4,0.6-0.5s0.6-0.2,1.1-0.3c0.7-0.1,1.1-0.2,1.4-0.3v-0.1c0-0.3-0.1-0.5-0.2-0.6c-0.1-0.1-0.4-0.2-0.8-0.2
		c-0.2,0-0.4,0-0.6,0.1C914.6,424.2,914.5,424.4,914.4,424.6z M916.2,425.8c-0.2,0.1-0.5,0.1-0.9,0.2c-0.4,0.1-0.6,0.2-0.8,0.2
		c-0.2,0.1-0.3,0.3-0.3,0.5c0,0.2,0.1,0.4,0.2,0.5c0.1,0.1,0.3,0.2,0.6,0.2s0.5-0.1,0.7-0.2c0.2-0.1,0.3-0.3,0.3-0.5
		c0-0.1,0.1-0.3,0.1-0.7v-0.2H916.2z"/>
	<path id="XMLID_93_" class="st3" d="M921.4,423v1.1h-1v2.1c0,0.4,0,0.7,0,0.8s0.1,0.1,0.1,0.2c0.1,0,0.1,0.1,0.2,0.1
		c0.1,0,0.3,0,0.6-0.1l0.1,1.1c-0.3,0.1-0.7,0.2-1.1,0.2c-0.3,0-0.5,0-0.7-0.1s-0.4-0.2-0.4-0.3c-0.1-0.1-0.2-0.3-0.2-0.5
		c0-0.2,0-0.5,0-1v-2.3h-0.6v-1.1h0.6v-1l1.4-0.8v1.9h1V423z"/>
	<path id="XMLID_95_" class="st3" d="M922.1,425.6c0-0.5,0.1-0.9,0.3-1.3s0.6-0.8,1-1c0.4-0.2,0.9-0.3,1.4-0.3c0.8,0,1.5,0.3,2,0.8
		s0.8,1.2,0.8,2c0,0.8-0.3,1.5-0.8,2s-1.2,0.8-1.9,0.8c-0.5,0-0.9-0.1-1.4-0.3c-0.5-0.2-0.8-0.5-1-1
		C922.2,426.7,922.1,426.2,922.1,425.6z M923.5,425.7c0,0.5,0.1,0.9,0.4,1.2c0.2,0.3,0.6,0.4,0.9,0.4s0.7-0.1,0.9-0.4
		s0.4-0.7,0.4-1.2s-0.1-0.9-0.4-1.2c-0.2-0.3-0.6-0.4-0.9-0.4s-0.7,0.1-0.9,0.4C923.6,424.7,923.5,425.1,923.5,425.7z"/>
	<path id="XMLID_98_" class="st3" d="M928.1,426.8l1.4-0.2c0.1,0.3,0.2,0.5,0.4,0.6s0.4,0.2,0.8,0.2c0.4,0,0.6-0.1,0.8-0.2
		c0.1-0.1,0.2-0.2,0.2-0.4c0-0.1,0-0.2-0.1-0.3s-0.2-0.1-0.5-0.2c-1.1-0.2-1.8-0.5-2.1-0.7c-0.4-0.3-0.6-0.7-0.6-1.2
		s0.2-0.8,0.5-1.2c0.4-0.3,0.9-0.5,1.7-0.5c0.7,0,1.3,0.1,1.6,0.4s0.6,0.6,0.7,1l-1.3,0.2c-0.1-0.2-0.2-0.4-0.3-0.5
		c-0.2-0.1-0.4-0.2-0.7-0.2c-0.4,0-0.6,0.1-0.8,0.2c-0.1,0.1-0.2,0.2-0.2,0.3s0,0.2,0.1,0.3s0.6,0.2,1.3,0.4
		c0.7,0.2,1.3,0.4,1.6,0.6s0.4,0.6,0.4,1c0,0.5-0.2,0.9-0.6,1.2c-0.4,0.3-1,0.5-1.8,0.5c-0.7,0-1.3-0.1-1.7-0.4
		C928.5,427.7,928.2,427.3,928.1,426.8z"/>
</g>
<line id="XMLID_1101_" class="st5" x1="668.1" y1="425.4" x2="618.3" y2="425.4"/>
<g id="XMLID_1112_">
	<g id="XMLID_24_">
		<line id="XMLID_29_" class="st6" x1="765.2" y1="425.4" x2="767.2" y2="425.4"/>
		<line id="XMLID_28_" class="st7" x1="770.1" y1="425.4" x2="828.7" y2="425.4"/>
		<line id="XMLID_27_" class="st6" x1="830.2" y1="425.4" x2="832.2" y2="425.4"/>
		<g id="XMLID_25_">
			<polygon id="XMLID_26_" class="st8" points="825.9,433.8 829.4,425.4 825.9,417.1 845.6,425.4 			"/>
		</g>
	</g>
</g>
<ellipse id="XMLID_12194_" cx="709" cy="425.9" rx="54.2" ry="20.6"/>
<g id="XMLID_100_">
	<path id="XMLID_101_" class="st3" d="M676.3,425.6v-1.2h3.2v2.9c-0.3,0.3-0.8,0.6-1.3,0.8c-0.6,0.2-1.2,0.3-1.8,0.3
		c-0.8,0-1.4-0.2-2-0.5c-0.6-0.3-1-0.8-1.3-1.4c-0.3-0.6-0.4-1.2-0.4-1.9c0-0.8,0.2-1.4,0.5-2s0.8-1,1.4-1.4c0.5-0.2,1-0.4,1.7-0.4
		c0.9,0,1.6,0.2,2.1,0.6c0.5,0.4,0.8,0.9,1,1.6l-1.4,0.3c-0.1-0.4-0.3-0.6-0.6-0.8c-0.3-0.2-0.6-0.3-1.1-0.3c-0.6,0-1.2,0.2-1.5,0.6
		c-0.4,0.4-0.6,1-0.6,1.8c0,0.9,0.2,1.5,0.6,1.9s0.9,0.6,1.5,0.6c0.3,0,0.6-0.1,0.9-0.2c0.3-0.1,0.6-0.3,0.8-0.4v-0.9L676.3,425.6
		L676.3,425.6z"/>
	<path id="XMLID_103_" class="st3" d="M683.9,426.6l1.4,0.2c-0.2,0.5-0.5,0.9-0.8,1.2c-0.3,0.3-0.9,0.4-1.5,0.4
		c-0.9,0-1.6-0.3-2-0.9c-0.3-0.5-0.5-1.1-0.5-1.8c0-0.9,0.2-1.6,0.7-2.1s1-0.7,1.7-0.7c0.8,0,1.4,0.3,1.9,0.8s0.7,1.3,0.7,2.4H682
		c0,0.4,0.1,0.7,0.3,1c0.2,0.2,0.5,0.3,0.8,0.3c0.2,0,0.4-0.1,0.6-0.2C683.9,427.1,683.8,426.9,683.9,426.6z M684,425.2
		c0-0.4-0.1-0.7-0.3-0.9c-0.2-0.2-0.4-0.3-0.7-0.3s-0.6,0.1-0.8,0.3c-0.2,0.2-0.3,0.5-0.3,0.9H684z"/>
	<path id="XMLID_106_" class="st3" d="M686,426.8l1.4-0.2c0.1,0.3,0.2,0.5,0.4,0.6s0.4,0.2,0.8,0.2c0.4,0,0.6-0.1,0.8-0.2
		c0.1-0.1,0.2-0.2,0.2-0.4c0-0.1,0-0.2-0.1-0.3s-0.2-0.1-0.5-0.2c-1.1-0.2-1.8-0.5-2.1-0.7c-0.4-0.3-0.6-0.7-0.6-1.2
		s0.2-0.8,0.5-1.2s0.9-0.5,1.7-0.5c0.7,0,1.3,0.1,1.6,0.4s0.6,0.6,0.7,1l-1.3,0.2c-0.1-0.2-0.2-0.4-0.3-0.5s-0.4-0.2-0.7-0.2
		c-0.4,0-0.6,0.1-0.8,0.2c-0.1,0.1-0.2,0.2-0.2,0.3s0,0.2,0.1,0.3s0.6,0.2,1.3,0.4c0.7,0.2,1.3,0.4,1.6,0.6s0.4,0.6,0.4,1
		c0,0.5-0.2,0.9-0.6,1.2c-0.4,0.3-1,0.5-1.8,0.5c-0.7,0-1.3-0.1-1.7-0.4C686.4,427.7,686.2,427.3,686,426.8z"/>
	<path id="XMLID_108_" class="st3" d="M694.6,423v1.1h-1v2.1c0,0.4,0,0.7,0,0.8s0.1,0.1,0.1,0.2c0,0.1,0.1,0.1,0.2,0.1
		c0.1,0,0.3,0,0.6-0.1l0.1,1.1c-0.3,0.1-0.7,0.2-1.1,0.2c-0.3,0-0.5,0-0.7-0.1s-0.4-0.2-0.4-0.3c-0.1-0.1-0.2-0.3-0.2-0.5
		c0-0.2,0-0.5,0-1v-2.3h-0.6v-1.1h0.6v-1l1.4-0.8v1.9h1V423z"/>
	<path id="XMLID_110_" class="st3" d="M695.6,422.3V421h1.4v1.3H695.6z M695.6,428.3V423h1.4v5.3H695.6z"/>
	<path id="XMLID_113_" class="st3" d="M698.1,425.6c0-0.5,0.1-0.9,0.3-1.3s0.6-0.8,1-1c0.4-0.2,0.9-0.3,1.4-0.3c0.8,0,1.5,0.3,2,0.8
		s0.8,1.2,0.8,2c0,0.8-0.3,1.5-0.8,2s-1.2,0.8-1.9,0.8c-0.5,0-0.9-0.1-1.4-0.3c-0.5-0.2-0.8-0.5-1-1S698.1,426.2,698.1,425.6z
		 M699.5,425.7c0,0.5,0.1,0.9,0.4,1.2c0.2,0.3,0.6,0.4,0.9,0.4c0.4,0,0.7-0.1,0.9-0.4s0.4-0.7,0.4-1.2s-0.1-0.9-0.4-1.2
		c-0.2-0.3-0.6-0.4-0.9-0.4c-0.4,0-0.7,0.1-0.9,0.4C699.6,424.7,699.5,425.1,699.5,425.7z"/>
	<path id="XMLID_116_" class="st3" d="M709.4,428.3H708v-2.7c0-0.6,0-0.9-0.1-1.1c-0.1-0.2-0.2-0.3-0.3-0.4s-0.3-0.1-0.5-0.1
		s-0.5,0.1-0.7,0.2c-0.2,0.1-0.3,0.3-0.4,0.5c-0.1,0.2-0.1,0.6-0.1,1.2v2.4h-1.4V423h1.3v0.8c0.5-0.6,1-0.9,1.7-0.9
		c0.3,0,0.6,0.1,0.8,0.2c0.3,0.1,0.4,0.3,0.6,0.4c0.1,0.2,0.2,0.4,0.3,0.6c0.1,0.2,0.1,0.5,0.1,0.9v3.3H709.4z"/>
	<path id="XMLID_118_" class="st3" d="M711.9,424.6l-1.3-0.2c0.1-0.5,0.4-0.9,0.7-1.1s0.9-0.4,1.6-0.4c0.6,0,1.1,0.1,1.4,0.2
		c0.3,0.1,0.5,0.3,0.6,0.6c0.1,0.2,0.2,0.6,0.2,1.3v1.6c0,0.5,0,0.8,0.1,1c0.1,0.2,0.1,0.5,0.3,0.7h-1.4c0-0.1-0.1-0.2-0.1-0.4
		c0-0.1,0-0.1,0-0.2c-0.2,0.2-0.5,0.4-0.8,0.5s-0.6,0.2-0.9,0.2c-0.5,0-1-0.1-1.3-0.4s-0.5-0.7-0.5-1.1c0-0.3,0.1-0.6,0.2-0.8
		c0.1-0.2,0.3-0.4,0.6-0.5s0.6-0.2,1.1-0.3c0.7-0.1,1.1-0.2,1.4-0.3v-0.1c0-0.3-0.1-0.5-0.2-0.6s-0.4-0.2-0.8-0.2
		c-0.2,0-0.4,0-0.6,0.1S712,424.4,711.9,424.6z M713.8,425.8c-0.2,0.1-0.5,0.1-0.9,0.2c-0.4,0.1-0.6,0.2-0.8,0.2
		c-0.2,0.1-0.3,0.3-0.3,0.5c0,0.2,0.1,0.4,0.2,0.5c0.1,0.1,0.3,0.2,0.6,0.2s0.5-0.1,0.7-0.2c0.2-0.1,0.3-0.3,0.3-0.5
		c0-0.1,0.1-0.3,0.1-0.7v-0.2H713.8z"/>
	<path id="XMLID_121_" class="st3" d="M717.9,428.3h-1.4V423h1.3v0.8c0.2-0.4,0.4-0.6,0.6-0.7c0.2-0.1,0.4-0.2,0.6-0.2
		c0.3,0,0.6,0.1,0.9,0.3l-0.4,1.2c-0.2-0.2-0.5-0.2-0.7-0.2s-0.4,0.1-0.5,0.2s-0.2,0.3-0.3,0.6c-0.1,0.3-0.1,0.9-0.1,1.8
		L717.9,428.3L717.9,428.3z"/>
	<path id="XMLID_123_" class="st3" d="M727.9,424.6l-1.4,0.2c0-0.3-0.2-0.5-0.3-0.6s-0.4-0.2-0.6-0.2c-0.3,0-0.6,0.1-0.8,0.4
		c-0.2,0.2-0.3,0.6-0.3,1.2s0.1,1.1,0.3,1.3c0.2,0.3,0.5,0.4,0.8,0.4s0.5-0.1,0.7-0.2c0.2-0.2,0.3-0.4,0.4-0.8l1.4,0.2
		c-0.1,0.6-0.4,1.1-0.8,1.4c-0.4,0.3-0.9,0.5-1.6,0.5c-0.8,0-1.4-0.2-1.8-0.7c-0.5-0.5-0.7-1.2-0.7-2c0-0.9,0.2-1.6,0.7-2
		c0.5-0.5,1.1-0.7,1.9-0.7c0.6,0,1.2,0.1,1.5,0.4C727.5,423.6,727.8,424,727.9,424.6z"/>
	<path id="XMLID_125_" class="st3" d="M729,422.3V421h1.4v1.3H729z M729,428.3V423h1.4v5.3H729z"/>
	<path id="XMLID_128_" class="st3" d="M734.2,423v1.1h-1v2.1c0,0.4,0,0.7,0,0.8s0.1,0.1,0.1,0.2c0.1,0,0.1,0.1,0.2,0.1
		c0.1,0,0.3,0,0.6-0.1l0.1,1.1c-0.3,0.1-0.7,0.2-1.1,0.2c-0.3,0-0.5,0-0.7-0.1s-0.4-0.2-0.4-0.3c-0.1-0.1-0.2-0.3-0.2-0.5
		c0-0.2,0-0.5,0-1v-2.3h-0.6v-1.1h0.6v-1l1.4-0.8v1.9h1V423z"/>
	<path id="XMLID_130_" class="st3" d="M736.2,424.6l-1.3-0.2c0.1-0.5,0.4-0.9,0.7-1.1s0.9-0.4,1.6-0.4c0.6,0,1.1,0.1,1.4,0.2
		c0.3,0.1,0.5,0.3,0.6,0.6c0.1,0.2,0.2,0.6,0.2,1.3v1.6c0,0.5,0,0.8,0.1,1c0.1,0.2,0.1,0.5,0.3,0.7h-1.4c0-0.1-0.1-0.2-0.1-0.4
		c0-0.1,0-0.1,0-0.2c-0.2,0.2-0.5,0.4-0.8,0.5s-0.6,0.2-0.9,0.2c-0.5,0-1-0.1-1.3-0.4s-0.5-0.7-0.5-1.1c0-0.3,0.1-0.6,0.2-0.8
		c0.1-0.2,0.3-0.4,0.6-0.5s0.6-0.2,1.1-0.3c0.7-0.1,1.1-0.2,1.4-0.3v-0.1c0-0.3-0.1-0.5-0.2-0.6s-0.4-0.2-0.8-0.2
		c-0.2,0-0.4,0-0.6,0.1S736.3,424.4,736.2,424.6z M738.1,425.8c-0.2,0.1-0.5,0.1-0.9,0.2c-0.4,0.1-0.6,0.2-0.8,0.2
		c-0.2,0.1-0.3,0.3-0.3,0.5c0,0.2,0.1,0.4,0.2,0.5c0.1,0.1,0.3,0.2,0.6,0.2s0.5-0.1,0.7-0.2c0.2-0.1,0.3-0.3,0.3-0.5
		c0-0.1,0.1-0.3,0.1-0.7v-0.2H738.1z"/>
	<path id="XMLID_133_" class="st3" d="M740.4,426.8l1.4-0.2c0.1,0.3,0.2,0.5,0.4,0.6s0.4,0.2,0.8,0.2c0.4,0,0.6-0.1,0.8-0.2
		c0.1-0.1,0.2-0.2,0.2-0.4c0-0.1,0-0.2-0.1-0.3s-0.2-0.1-0.5-0.2c-1.1-0.2-1.8-0.5-2.1-0.7c-0.4-0.3-0.6-0.7-0.6-1.2
		s0.2-0.8,0.5-1.2c0.4-0.3,0.9-0.5,1.7-0.5c0.7,0,1.3,0.1,1.6,0.4s0.6,0.6,0.7,1l-1.3,0.2c-0.1-0.2-0.2-0.4-0.3-0.5
		c-0.2-0.1-0.4-0.2-0.7-0.2c-0.4,0-0.6,0.1-0.8,0.2c-0.1,0.1-0.2,0.2-0.2,0.3s0,0.2,0.1,0.3s0.6,0.2,1.3,0.4
		c0.7,0.2,1.3,0.4,1.6,0.6s0.4,0.6,0.4,1c0,0.5-0.2,0.9-0.6,1.2c-0.4,0.3-1,0.5-1.8,0.5c-0.7,0-1.3-0.1-1.7-0.4
		C740.8,427.7,740.5,427.3,740.4,426.8z"/>
</g>
<ellipse id="XMLID_16000_" cx="309.5" cy="425.9" rx="93.2" ry="20.6"/>
<g id="XMLID_199_">
	<path id="XMLID_200_" class="st3" d="M248.3,428.3h-1.6l-0.6-1.7h-2.9l-0.6,1.7H241l2.8-7.3h1.6L248.3,428.3z M245.6,425.4l-1-2.7
		l-1,2.7H245.6z"/>
	<path id="XMLID_203_" class="st3" d="M253.9,428.3h-1.3v-0.8c-0.2,0.3-0.5,0.5-0.8,0.7c-0.3,0.1-0.6,0.2-0.9,0.2
		c-0.6,0-1.1-0.2-1.6-0.7s-0.6-1.2-0.6-2c0-0.9,0.2-1.6,0.6-2c0.4-0.5,1-0.7,1.6-0.7c0.6,0,1.1,0.2,1.5,0.7v-2.6h1.4v7.2H253.9z
		 M250.2,425.6c0,0.6,0.1,1,0.2,1.2c0.2,0.4,0.5,0.5,0.9,0.5c0.3,0,0.6-0.1,0.8-0.4s0.3-0.7,0.3-1.2c0-0.6-0.1-1-0.3-1.3
		c-0.2-0.3-0.5-0.4-0.8-0.4s-0.6,0.1-0.8,0.4S250.2,425,250.2,425.6z"/>
	<path id="XMLID_206_" class="st3" d="M255.2,423h1.3v0.7c0.5-0.6,1-0.8,1.6-0.8c0.3,0,0.6,0.1,0.9,0.2c0.2,0.1,0.5,0.4,0.6,0.6
		c0.2-0.3,0.5-0.5,0.8-0.6c0.3-0.1,0.6-0.2,0.9-0.2c0.4,0,0.7,0.1,1,0.2c0.3,0.2,0.5,0.4,0.6,0.7c0.1,0.2,0.1,0.6,0.1,1.1v3.4h-1.4
		v-3c0-0.5,0-0.9-0.1-1c-0.1-0.2-0.3-0.3-0.6-0.3c-0.2,0-0.4,0.1-0.6,0.2c-0.2,0.1-0.3,0.3-0.4,0.5c-0.1,0.2-0.1,0.6-0.1,1.1v2.5
		h-1.4v-2.9c0-0.5,0-0.8-0.1-1c-0.1-0.2-0.1-0.3-0.2-0.3c-0.1-0.1-0.2-0.1-0.4-0.1s-0.4,0.1-0.6,0.2c-0.2,0.1-0.3,0.3-0.4,0.5
		c-0.1,0.2-0.1,0.6-0.1,1.1v2.6h-1.4L255.2,423L255.2,423z"/>
	<path id="XMLID_208_" class="st3" d="M264.4,422.3V421h1.4v1.3H264.4z M264.4,428.3V423h1.4v5.3H264.4z"/>
	<path id="XMLID_211_" class="st3" d="M272,428.3h-1.4v-2.7c0-0.6,0-0.9-0.1-1.1c-0.1-0.2-0.2-0.3-0.3-0.4c-0.1-0.1-0.3-0.1-0.5-0.1
		c-0.2,0-0.5,0.1-0.7,0.2c-0.2,0.1-0.3,0.3-0.4,0.5c-0.1,0.2-0.1,0.6-0.1,1.2v2.4h-1.4V423h1.3v0.8c0.5-0.6,1-0.9,1.7-0.9
		c0.3,0,0.6,0.1,0.8,0.2c0.3,0.1,0.4,0.3,0.6,0.4c0.1,0.2,0.2,0.4,0.3,0.6c0.1,0.2,0.1,0.5,0.1,0.9L272,428.3L272,428.3z"/>
	<path id="XMLID_213_" class="st3" d="M273.4,422.3V421h1.4v1.3H273.4z M273.4,428.3V423h1.4v5.3H273.4z"/>
	<path id="XMLID_216_" class="st3" d="M275.8,426.8l1.4-0.2c0.1,0.3,0.2,0.5,0.4,0.6c0.2,0.1,0.4,0.2,0.8,0.2s0.6-0.1,0.8-0.2
		c0.1-0.1,0.2-0.2,0.2-0.4c0-0.1,0-0.2-0.1-0.3s-0.2-0.1-0.5-0.2c-1.1-0.2-1.8-0.5-2.1-0.7c-0.4-0.3-0.6-0.7-0.6-1.2
		s0.2-0.8,0.5-1.2s0.9-0.5,1.7-0.5c0.7,0,1.3,0.1,1.6,0.4c0.3,0.3,0.6,0.6,0.7,1l-1.3,0.2c-0.1-0.2-0.2-0.4-0.3-0.5
		s-0.4-0.2-0.7-0.2c-0.4,0-0.6,0.1-0.8,0.2c-0.1,0.1-0.2,0.2-0.2,0.3s0,0.2,0.1,0.3c0.1,0.1,0.6,0.2,1.3,0.4
		c0.7,0.2,1.3,0.4,1.6,0.6s0.4,0.6,0.4,1c0,0.5-0.2,0.9-0.6,1.2c-0.4,0.3-1,0.5-1.8,0.5c-0.7,0-1.3-0.1-1.7-0.4
		C276.2,427.7,275.9,427.3,275.8,426.8z"/>
	<path id="XMLID_218_" class="st3" d="M284.3,423v1.1h-1v2.1c0,0.4,0,0.7,0,0.8s0.1,0.1,0.1,0.2c0.1,0,0.1,0.1,0.2,0.1
		s0.3,0,0.6-0.1l0.1,1.1c-0.3,0.1-0.7,0.2-1.1,0.2c-0.3,0-0.5,0-0.7-0.1c-0.2-0.1-0.4-0.2-0.4-0.3c-0.1-0.1-0.2-0.3-0.2-0.5
		c0-0.2,0-0.5,0-1v-2.3h-0.6v-1.1h0.6v-1l1.4-0.8v1.9h1V423z"/>
	<path id="XMLID_220_" class="st3" d="M286.6,428.3h-1.4V423h1.3v0.8c0.2-0.4,0.4-0.6,0.6-0.7c0.2-0.1,0.4-0.2,0.6-0.2
		c0.3,0,0.6,0.1,0.9,0.3l-0.4,1.2c-0.2-0.2-0.5-0.2-0.7-0.2s-0.4,0.1-0.5,0.2s-0.2,0.3-0.3,0.6c-0.1,0.3-0.1,0.9-0.1,1.8
		L286.6,428.3L286.6,428.3z"/>
	<path id="XMLID_222_" class="st3" d="M290.3,424.6l-1.3-0.2c0.1-0.5,0.4-0.9,0.7-1.1c0.3-0.2,0.9-0.4,1.6-0.4
		c0.6,0,1.1,0.1,1.4,0.2c0.3,0.1,0.5,0.3,0.6,0.6c0.1,0.2,0.2,0.6,0.2,1.3v1.6c0,0.5,0,0.8,0.1,1c0,0.2,0.1,0.5,0.3,0.7h-1.4
		c0-0.1-0.1-0.2-0.1-0.4c0-0.1,0-0.1,0-0.2c-0.2,0.2-0.5,0.4-0.8,0.5s-0.6,0.2-0.9,0.2c-0.5,0-1-0.1-1.3-0.4
		c-0.3-0.3-0.5-0.7-0.5-1.1c0-0.3,0.1-0.6,0.2-0.8c0.1-0.2,0.3-0.4,0.6-0.5s0.6-0.2,1.1-0.3c0.7-0.1,1.1-0.2,1.4-0.3v-0.1
		c0-0.3-0.1-0.5-0.2-0.6c-0.1-0.1-0.4-0.2-0.8-0.2c-0.2,0-0.4,0-0.6,0.1C290.5,424.2,290.4,424.4,290.3,424.6z M292.2,425.8
		c-0.2,0.1-0.5,0.1-0.9,0.2c-0.4,0.1-0.6,0.2-0.8,0.2c-0.2,0.1-0.3,0.3-0.3,0.5c0,0.2,0.1,0.4,0.2,0.5s0.3,0.2,0.6,0.2
		s0.5-0.1,0.7-0.2c0.2-0.1,0.3-0.3,0.3-0.5c0-0.1,0.1-0.3,0.1-0.7v-0.2H292.2z"/>
	<path id="XMLID_225_" class="st3" d="M296.3,428.3h-1.4V423h1.3v0.8c0.2-0.4,0.4-0.6,0.6-0.7c0.2-0.1,0.4-0.2,0.6-0.2
		c0.3,0,0.6,0.1,0.9,0.3l-0.4,1.2c-0.2-0.2-0.5-0.2-0.7-0.2c-0.2,0-0.4,0.1-0.5,0.2c-0.1,0.1-0.2,0.3-0.3,0.6
		c-0.1,0.3-0.1,0.9-0.1,1.8L296.3,428.3L296.3,428.3z"/>
	<path id="XMLID_227_" class="st3" d="M306.6,428.3h-1.3v-0.8c-0.2,0.3-0.5,0.5-0.8,0.7c-0.3,0.1-0.6,0.2-0.9,0.2
		c-0.6,0-1.1-0.2-1.6-0.7s-0.6-1.2-0.6-2c0-0.9,0.2-1.6,0.6-2c0.4-0.5,1-0.7,1.6-0.7s1.1,0.2,1.5,0.7v-2.6h1.4v7.2H306.6z
		 M302.8,425.6c0,0.6,0.1,1,0.2,1.2c0.2,0.4,0.5,0.5,0.9,0.5c0.3,0,0.6-0.1,0.8-0.4c0.2-0.3,0.3-0.7,0.3-1.2c0-0.6-0.1-1-0.3-1.3
		c-0.2-0.3-0.5-0.4-0.8-0.4s-0.6,0.1-0.8,0.4C302.9,424.7,302.8,425,302.8,425.6z"/>
	<path id="XMLID_230_" class="st3" d="M309,424.6l-1.3-0.2c0.1-0.5,0.4-0.9,0.7-1.1s0.9-0.4,1.6-0.4c0.6,0,1.1,0.1,1.4,0.2
		c0.3,0.1,0.5,0.3,0.6,0.6c0.1,0.2,0.2,0.6,0.2,1.3v1.6c0,0.5,0,0.8,0.1,1c0.1,0.2,0.1,0.5,0.3,0.7h-1.4c0-0.1-0.1-0.2-0.1-0.4
		c0-0.1,0-0.1,0-0.2c-0.2,0.2-0.5,0.4-0.8,0.5c-0.3,0.1-0.6,0.2-0.9,0.2c-0.5,0-1-0.1-1.3-0.4s-0.5-0.7-0.5-1.1
		c0-0.3,0.1-0.6,0.2-0.8c0.1-0.2,0.3-0.4,0.6-0.5c0.3-0.1,0.6-0.2,1.1-0.3c0.7-0.1,1.1-0.2,1.4-0.3v-0.1c0-0.3-0.1-0.5-0.2-0.6
		s-0.4-0.2-0.8-0.2c-0.2,0-0.4,0-0.6,0.1S309.1,424.4,309,424.6z M310.9,425.8c-0.2,0.1-0.5,0.1-0.9,0.2c-0.4,0.1-0.6,0.2-0.8,0.2
		c-0.2,0.1-0.3,0.3-0.3,0.5c0,0.2,0.1,0.4,0.2,0.5c0.1,0.1,0.3,0.2,0.6,0.2c0.3,0,0.5-0.1,0.7-0.2c0.2-0.1,0.3-0.3,0.3-0.5
		c0-0.1,0.1-0.3,0.1-0.7v-0.2H310.9z"/>
	<path id="XMLID_233_" class="st3" d="M316,423v1.1h-1v2.1c0,0.4,0,0.7,0,0.8s0.1,0.1,0.1,0.2c0.1,0,0.1,0.1,0.2,0.1
		c0.1,0,0.3,0,0.6-0.1l0.1,1.1c-0.3,0.1-0.7,0.2-1.1,0.2c-0.3,0-0.5,0-0.7-0.1s-0.4-0.2-0.4-0.3c-0.1-0.1-0.2-0.3-0.2-0.5
		c0-0.2,0-0.5,0-1v-2.3H313v-1.1h0.6v-1l1.4-0.8v1.9h1V423z"/>
	<path id="XMLID_235_" class="st3" d="M316.7,425.6c0-0.5,0.1-0.9,0.3-1.3s0.6-0.8,1-1c0.4-0.2,0.9-0.3,1.4-0.3c0.8,0,1.5,0.3,2,0.8
		s0.8,1.2,0.8,2c0,0.8-0.3,1.5-0.8,2s-1.2,0.8-1.9,0.8c-0.5,0-0.9-0.1-1.4-0.3c-0.5-0.2-0.8-0.5-1-1
		C316.8,426.7,316.7,426.2,316.7,425.6z M318.1,425.7c0,0.5,0.1,0.9,0.4,1.2c0.2,0.3,0.6,0.4,0.9,0.4s0.7-0.1,0.9-0.4
		s0.4-0.7,0.4-1.2s-0.1-0.9-0.4-1.2c-0.2-0.3-0.6-0.4-0.9-0.4s-0.7,0.1-0.9,0.4C318.2,424.7,318.1,425.1,318.1,425.7z"/>
	<path id="XMLID_238_" class="st3" d="M322.7,426.8l1.4-0.2c0.1,0.3,0.2,0.5,0.4,0.6c0.2,0.1,0.4,0.2,0.8,0.2c0.4,0,0.6-0.1,0.8-0.2
		c0.1-0.1,0.2-0.2,0.2-0.4c0-0.1,0-0.2-0.1-0.3s-0.2-0.1-0.5-0.2c-1.1-0.2-1.8-0.5-2.1-0.7c-0.4-0.3-0.6-0.7-0.6-1.2
		s0.2-0.8,0.5-1.2c0.4-0.3,0.9-0.5,1.7-0.5c0.7,0,1.3,0.1,1.6,0.4c0.3,0.3,0.6,0.6,0.7,1l-1.3,0.2c-0.1-0.2-0.2-0.4-0.3-0.5
		c-0.2-0.1-0.4-0.2-0.7-0.2c-0.4,0-0.6,0.1-0.8,0.2c-0.1,0.1-0.2,0.2-0.2,0.3s0,0.2,0.1,0.3c0.1,0.1,0.6,0.2,1.3,0.4
		c0.7,0.2,1.3,0.4,1.6,0.6s0.4,0.6,0.4,1c0,0.5-0.2,0.9-0.6,1.2c-0.4,0.3-1,0.5-1.8,0.5c-0.7,0-1.3-0.1-1.7-0.4
		C323.1,427.7,322.9,427.3,322.7,426.8z"/>
	<path id="XMLID_240_" class="st3" d="M331.7,423h1.3v0.8c0.2-0.3,0.4-0.5,0.7-0.6c0.3-0.1,0.6-0.2,1-0.2c0.6,0,1.1,0.2,1.6,0.7
		s0.6,1.2,0.6,2c0,0.9-0.2,1.6-0.6,2.1c-0.4,0.5-1,0.7-1.6,0.7c-0.3,0-0.6-0.1-0.8-0.2c-0.2-0.1-0.5-0.3-0.7-0.6v2.7h-1.4L331.7,423
		L331.7,423z M333.1,425.6c0,0.6,0.1,1,0.4,1.3c0.2,0.3,0.5,0.4,0.9,0.4c0.3,0,0.6-0.1,0.8-0.4c0.2-0.3,0.3-0.7,0.3-1.3
		s-0.1-1-0.3-1.2c-0.2-0.3-0.5-0.4-0.8-0.4s-0.6,0.1-0.9,0.4S333.1,425.1,333.1,425.6z"/>
	<path id="XMLID_243_" class="st3" d="M339,424.6l-1.3-0.2c0.1-0.5,0.4-0.9,0.7-1.1s0.9-0.4,1.6-0.4c0.6,0,1.1,0.1,1.4,0.2
		c0.3,0.1,0.5,0.3,0.6,0.6c0.1,0.2,0.2,0.6,0.2,1.3v1.6c0,0.5,0,0.8,0.1,1c0.1,0.2,0.1,0.5,0.3,0.7h-1.4c0-0.1-0.1-0.2-0.1-0.4
		c0-0.1,0-0.1,0-0.2c-0.2,0.2-0.5,0.4-0.8,0.5c-0.3,0.1-0.6,0.2-0.9,0.2c-0.5,0-1-0.1-1.3-0.4s-0.5-0.7-0.5-1.1
		c0-0.3,0.1-0.6,0.2-0.8c0.1-0.2,0.3-0.4,0.6-0.5c0.3-0.1,0.6-0.2,1.1-0.3c0.7-0.1,1.1-0.2,1.4-0.3v-0.1c0-0.3-0.1-0.5-0.2-0.6
		s-0.4-0.2-0.8-0.2c-0.2,0-0.4,0-0.6,0.1S339.1,424.4,339,424.6z M340.9,425.8c-0.2,0.1-0.5,0.1-0.9,0.2c-0.4,0.1-0.6,0.2-0.8,0.2
		c-0.2,0.1-0.3,0.3-0.3,0.5c0,0.2,0.1,0.4,0.2,0.5c0.1,0.1,0.3,0.2,0.6,0.2c0.3,0,0.5-0.1,0.7-0.2c0.2-0.1,0.3-0.3,0.3-0.5
		c0-0.1,0.1-0.3,0.1-0.7v-0.2H340.9z"/>
	<path id="XMLID_246_" class="st3" d="M348.2,424.6l-1.4,0.2c0-0.3-0.2-0.5-0.3-0.6s-0.4-0.2-0.6-0.2c-0.3,0-0.6,0.1-0.8,0.4
		c-0.2,0.2-0.3,0.6-0.3,1.2s0.1,1.1,0.3,1.3c0.2,0.2,0.5,0.4,0.8,0.4s0.5-0.1,0.7-0.2c0.2-0.2,0.3-0.4,0.4-0.8l1.4,0.2
		c-0.1,0.6-0.4,1.1-0.8,1.4c-0.4,0.3-0.9,0.5-1.6,0.5c-0.8,0-1.4-0.2-1.8-0.7c-0.4-0.5-0.7-1.2-0.7-2c0-0.9,0.2-1.6,0.7-2
		c0.5-0.5,1.1-0.7,1.9-0.7c0.6,0,1.2,0.1,1.5,0.4C347.8,423.6,348.1,424,348.2,424.6z"/>
	<path id="XMLID_248_" class="st3" d="M349.3,422.3V421h1.4v1.3H349.3z M349.3,428.3V423h1.4v5.3H349.3z"/>
	<path id="XMLID_251_" class="st3" d="M355.2,426.6l1.4,0.2c-0.2,0.5-0.5,0.9-0.8,1.2c-0.4,0.3-0.9,0.4-1.5,0.4
		c-0.9,0-1.6-0.3-2-0.9c-0.3-0.5-0.5-1.1-0.5-1.8c0-0.9,0.2-1.6,0.7-2.1s1-0.7,1.7-0.7c0.8,0,1.4,0.3,1.9,0.8s0.7,1.3,0.7,2.4h-3.5
		c0,0.4,0.1,0.7,0.3,1c0.2,0.3,0.5,0.3,0.8,0.3c0.2,0,0.4-0.1,0.6-0.2C355,427.1,355.1,426.9,355.2,426.6z M355.3,425.2
		c0-0.4-0.1-0.7-0.3-0.9c-0.2-0.2-0.4-0.3-0.7-0.3c-0.3,0-0.6,0.1-0.8,0.3c-0.2,0.2-0.3,0.5-0.3,0.9H355.3z"/>
	<path id="XMLID_254_" class="st3" d="M362.6,428.3h-1.4v-2.7c0-0.6,0-0.9-0.1-1.1c-0.1-0.2-0.2-0.3-0.3-0.4
		c-0.1-0.1-0.3-0.1-0.5-0.1c-0.2,0-0.5,0.1-0.7,0.2c-0.2,0.1-0.3,0.3-0.4,0.5c-0.1,0.2-0.1,0.6-0.1,1.2v2.4h-1.4V423h1.3v0.8
		c0.5-0.6,1-0.9,1.7-0.9c0.3,0,0.6,0.1,0.8,0.2c0.3,0.1,0.4,0.3,0.6,0.4c0.1,0.2,0.2,0.4,0.3,0.6c0.1,0.2,0.1,0.5,0.1,0.9
		L362.6,428.3L362.6,428.3z"/>
	<path id="XMLID_256_" class="st3" d="M366.4,423v1.1h-1v2.1c0,0.4,0,0.7,0,0.8s0.1,0.1,0.1,0.2c0,0.1,0.1,0.1,0.2,0.1
		c0.1,0,0.3,0,0.6-0.1l0.1,1.1c-0.3,0.1-0.7,0.2-1.1,0.2c-0.3,0-0.5,0-0.7-0.1s-0.4-0.2-0.4-0.3c-0.1-0.1-0.2-0.3-0.2-0.5
		c0-0.2,0-0.5,0-1v-2.3h-0.6v-1.1h0.6v-1l1.4-0.8v1.9h1V423z"/>
	<path id="XMLID_258_" class="st3" d="M370.5,426.6l1.4,0.2c-0.2,0.5-0.5,0.9-0.8,1.2c-0.4,0.3-0.9,0.4-1.5,0.4
		c-0.9,0-1.6-0.3-2-0.9c-0.3-0.5-0.5-1.1-0.5-1.8c0-0.9,0.2-1.6,0.7-2.1s1-0.7,1.7-0.7c0.8,0,1.4,0.3,1.9,0.8s0.7,1.3,0.7,2.4h-3.5
		c0,0.4,0.1,0.7,0.3,1c0.2,0.3,0.5,0.3,0.8,0.3c0.2,0,0.4-0.1,0.6-0.2C370.3,427.1,370.4,426.9,370.5,426.6z M370.5,425.2
		c0-0.4-0.1-0.7-0.3-0.9c-0.2-0.2-0.4-0.3-0.7-0.3s-0.6,0.1-0.8,0.3c-0.2,0.2-0.3,0.5-0.3,0.9H370.5z"/>
	<path id="XMLID_261_" class="st3" d="M372.6,426.8l1.4-0.2c0.1,0.3,0.2,0.5,0.4,0.6s0.4,0.2,0.8,0.2c0.4,0,0.6-0.1,0.8-0.2
		c0.1-0.1,0.2-0.2,0.2-0.4c0-0.1,0-0.2-0.1-0.3c-0.1-0.1-0.2-0.1-0.5-0.2c-1.1-0.2-1.8-0.5-2.1-0.7c-0.4-0.3-0.6-0.7-0.6-1.2
		s0.2-0.8,0.5-1.2c0.3-0.4,0.9-0.5,1.7-0.5c0.7,0,1.3,0.1,1.6,0.4s0.6,0.6,0.7,1l-1.3,0.2c-0.1-0.2-0.2-0.4-0.3-0.5
		c-0.1-0.1-0.4-0.2-0.7-0.2c-0.4,0-0.6,0.1-0.8,0.2c-0.1,0.1-0.2,0.2-0.2,0.3s0,0.2,0.1,0.3s0.6,0.2,1.3,0.4
		c0.7,0.2,1.3,0.4,1.6,0.6c0.3,0.2,0.4,0.6,0.4,1c0,0.5-0.2,0.9-0.6,1.2c-0.4,0.3-1,0.5-1.8,0.5c-0.7,0-1.3-0.1-1.7-0.4
		C373,427.7,372.7,427.3,372.6,426.8z"/>
</g>
</svg>
