<?xml version="1.0" encoding="utf-8"?>
<!-- Generator: Adobe Illustrator 19.0.0, SVG Export Plug-In . SVG Version: 6.00 Build 0)  -->
<svg version="1.1" id="Capa_1" xmlns="http://www.w3.org/2000/svg" xmlns:xlink="http://www.w3.org/1999/xlink" x="0px" y="0px"
	 viewBox="0 0 520 201.8" style="enable-background:new 0 0 520 201.8;" xml:space="preserve">
<style type="text/css">
	.st0{fill:#E8A91C;}
	.st1{fill:#FFFFFF;}
	.st2{fill:#F9D523;stroke:#E8A91C;stroke-width:2;stroke-miterlimit:10;}
	.st3{fill:none;stroke:#1D1D1B;stroke-width:3;stroke-linecap:round;stroke-miterlimit:10;}
	.st4{fill:none;stroke:#1D1D1B;stroke-width:3;stroke-miterlimit:10;}
	.st5{fill:none;stroke:#1D1D1B;stroke-width:3;stroke-miterlimit:10;stroke-dasharray:4.0063,3.0047;}
	.st6{fill:#1D1D1B;}
</style>
<g id="XMLID_2_">
	<g id="XMLID_18648_">
		<path id="XMLID_18667_" class="st0" d="M39.8,127.6l-16.2-22V91h13c0.7,0,1.3-0.6,1.3-1.3c0-0.7-0.6-1.3-1.3-1.3h-13v-11
			c0-0.7-0.6-1.3-1.3-1.3c-0.7,0-1.3,0.6-1.3,1.3v11H8c-0.7,0-1.3,0.6-1.3,1.3C6.7,90.4,7.2,91,8,91h13v14.6l-16.5,22
			c-0.4,0.6-0.3,1.4,0.3,1.8c0.2,0.2,0.5,0.3,0.8,0.3c0.4,0,0.8-0.2,1-0.5l15.8-20.9l15.4,20.9c0.3,0.3,0.7,0.5,1,0.5
			c0.3,0,0.5-0.1,0.8-0.3C40.1,129,40.3,128.1,39.8,127.6z"/>
		<circle id="XMLID_18666_" class="st1" cx="22.3" cy="67.8" r="13.5"/>
		<path id="XMLID_18649_" class="st0" d="M22.3,82.1c-7.9,0-14.4-6.4-14.4-14.4c0-7.9,6.4-14.4,14.4-14.4c7.9,0,14.4,6.4,14.4,14.4
			C36.7,75.7,30.2,82.1,22.3,82.1z M22.3,55.2c-6.9,0-12.6,5.6-12.6,12.6c0,6.9,5.6,12.6,12.6,12.6c6.9,0,12.6-5.6,12.6-12.6
			C34.9,60.9,29.2,55.2,22.3,55.2z"/>
	</g>
	<rect id="XMLID_18647_" x="83.8" y="1" class="st2" width="435.1" height="199.8"/>
	<g id="XMLID_232_">
		<path id="XMLID_233_" d="M0,157.8v-10.6h3.2l1.9,7.2l1.9-7.2h3.2v10.6h-2v-8.3l-2.1,8.3H4.1L2,149.4v8.3H0z"/>
		<path id="XMLID_235_" d="M16.8,155.3l2,0.3c-0.3,0.7-0.7,1.3-1.2,1.7s-1.3,0.6-2.1,0.6c-1.3,0-2.3-0.4-3-1.3
			c-0.5-0.7-0.8-1.6-0.8-2.6c0-1.3,0.3-2.3,1-3c0.7-0.7,1.5-1.1,2.5-1.1c1.1,0,2,0.4,2.7,1.1c0.7,0.8,1,1.9,0.9,3.5h-5.1
			c0,0.6,0.2,1.1,0.5,1.4c0.3,0.3,0.7,0.5,1.2,0.5c0.3,0,0.6-0.1,0.8-0.3C16.5,156,16.7,155.7,16.8,155.3z M16.9,153.3
			c0-0.6-0.2-1-0.5-1.3c-0.3-0.3-0.6-0.5-1.1-0.5c-0.4,0-0.8,0.2-1.1,0.5c-0.3,0.3-0.4,0.8-0.4,1.3H16.9z M14.3,149.2l1-2.2h2.3
			l-2,2.2H14.3z"/>
		<path id="XMLID_239_" d="M27.6,157.8h-1.9v-1.1c-0.3,0.4-0.7,0.8-1.1,1c-0.4,0.2-0.9,0.3-1.3,0.3c-0.9,0-1.6-0.4-2.3-1.1
			c-0.6-0.7-0.9-1.7-0.9-3c0-1.3,0.3-2.3,0.9-3c0.6-0.7,1.4-1,2.3-1c0.9,0,1.6,0.4,2.2,1.1v-3.8h2V157.8z M22.2,153.8
			c0,0.8,0.1,1.4,0.3,1.8c0.3,0.5,0.8,0.8,1.4,0.8c0.5,0,0.9-0.2,1.2-0.6c0.3-0.4,0.5-1,0.5-1.8c0-0.9-0.2-1.5-0.5-1.9
			c-0.3-0.4-0.7-0.6-1.2-0.6c-0.5,0-0.9,0.2-1.2,0.6C22.4,152.4,22.2,153,22.2,153.8z"/>
		<path id="XMLID_242_" d="M29.6,149.1v-1.9h2v1.9H29.6z M29.6,157.8v-7.7h2v7.7H29.6z"/>
		<path id="XMLID_245_" d="M40.4,152.4l-2,0.4c-0.1-0.4-0.2-0.7-0.5-0.9c-0.2-0.2-0.5-0.3-0.9-0.3c-0.5,0-0.9,0.2-1.2,0.5
			s-0.5,0.9-0.5,1.8c0,0.9,0.2,1.6,0.5,1.9s0.7,0.6,1.2,0.6c0.4,0,0.7-0.1,0.9-0.3c0.2-0.2,0.4-0.6,0.5-1.1l2,0.3
			c-0.2,0.9-0.6,1.6-1.2,2.1c-0.6,0.5-1.4,0.7-2.4,0.7c-1.1,0-2-0.4-2.7-1.1c-0.7-0.7-1-1.7-1-2.9c0-1.3,0.3-2.3,1-3
			s1.6-1.1,2.7-1.1c0.9,0,1.7,0.2,2.2,0.6C39.8,150.9,40.2,151.6,40.4,152.4z"/>
		<path id="XMLID_247_" d="M41.5,153.8c0-0.7,0.2-1.3,0.5-2c0.3-0.6,0.8-1.1,1.4-1.4s1.3-0.5,2-0.5c1.2,0,2.1,0.4,2.9,1.1
			s1.1,1.7,1.1,2.9c0,1.2-0.4,2.1-1.1,2.9s-1.7,1.1-2.8,1.1c-0.7,0-1.4-0.2-2-0.5s-1.1-0.8-1.5-1.4
			C41.7,155.5,41.5,154.7,41.5,153.8z M43.6,153.9c0,0.8,0.2,1.3,0.5,1.8c0.4,0.4,0.8,0.6,1.3,0.6c0.5,0,1-0.2,1.3-0.6
			c0.4-0.4,0.5-1,0.5-1.8c0-0.8-0.2-1.3-0.5-1.7c-0.4-0.4-0.8-0.6-1.3-0.6c-0.5,0-1,0.2-1.3,0.6C43.8,152.6,43.6,153.2,43.6,153.9z"
			/>
	</g>
	<g id="XMLID_208_">
		<path id="XMLID_209_" d="M238.1,60.3l-6.8-3v-1.6l6.8-3v1.9l-4.8,1.8l4.8,1.9V60.3z"/>
		<path id="XMLID_211_" d="M246.2,60.3l-6.8-3v-1.6l6.8-3v1.9l-4.8,1.8l4.8,1.9V60.3z"/>
		<path id="XMLID_213_" d="M252.1,59.1l1.9,0.3c-0.2,0.7-0.6,1.2-1.2,1.6c-0.5,0.4-1.2,0.5-2,0.5c-1.3,0-2.2-0.4-2.8-1.2
			c-0.5-0.7-0.7-1.5-0.7-2.5c0-1.2,0.3-2.1,0.9-2.8c0.6-0.7,1.4-1,2.4-1c1.1,0,1.9,0.4,2.5,1.1c0.6,0.7,0.9,1.8,0.9,3.3h-4.8
			c0,0.6,0.2,1,0.5,1.3c0.3,0.3,0.7,0.5,1.1,0.5c0.3,0,0.6-0.1,0.8-0.2C251.8,59.7,252,59.5,252.1,59.1z M252.2,57.2
			c0-0.6-0.2-1-0.4-1.3s-0.6-0.4-1-0.4c-0.4,0-0.8,0.2-1,0.5c-0.3,0.3-0.4,0.7-0.4,1.2H252.2z"/>
		<path id="XMLID_216_" d="M254.7,61.4l2.6-3.7l-2.5-3.5h2.3l1.3,2l1.3-2h2.2l-2.5,3.4l2.7,3.8h-2.4l-1.5-2.2l-1.5,2.2H254.7z"/>
		<path id="XMLID_218_" d="M266.7,54.2v1.5h-1.3v2.9c0,0.6,0,0.9,0,1c0,0.1,0.1,0.2,0.2,0.2s0.2,0.1,0.3,0.1c0.2,0,0.4-0.1,0.8-0.2
			l0.2,1.5c-0.4,0.2-1,0.3-1.5,0.3c-0.3,0-0.7-0.1-0.9-0.2c-0.3-0.1-0.5-0.3-0.6-0.4c-0.1-0.2-0.2-0.4-0.3-0.7
			c0-0.2-0.1-0.7-0.1-1.3v-3.2h-0.9v-1.5h0.9v-1.4l1.9-1.1v2.6H266.7z"/>
		<path id="XMLID_220_" d="M272.3,59.1l1.9,0.3c-0.2,0.7-0.6,1.2-1.2,1.6c-0.5,0.4-1.2,0.5-2,0.5c-1.3,0-2.2-0.4-2.8-1.2
			c-0.5-0.7-0.7-1.5-0.7-2.5c0-1.2,0.3-2.1,0.9-2.8c0.6-0.7,1.4-1,2.4-1c1.1,0,1.9,0.4,2.5,1.1c0.6,0.7,0.9,1.8,0.9,3.3h-4.8
			c0,0.6,0.2,1,0.5,1.3c0.3,0.3,0.7,0.5,1.1,0.5c0.3,0,0.6-0.1,0.8-0.2C272,59.7,272.1,59.5,272.3,59.1z M272.4,57.2
			c0-0.6-0.2-1-0.4-1.3s-0.6-0.4-1-0.4c-0.4,0-0.8,0.2-1,0.5c-0.3,0.3-0.4,0.7-0.4,1.2H272.4z"/>
		<path id="XMLID_223_" d="M282.4,61.4h-1.9v-3.7c0-0.8,0-1.3-0.1-1.5s-0.2-0.4-0.4-0.5c-0.2-0.1-0.4-0.2-0.7-0.2
			c-0.3,0-0.6,0.1-0.9,0.3c-0.3,0.2-0.4,0.4-0.5,0.7s-0.1,0.9-0.1,1.7v3.3h-1.9v-7.2h1.8v1.1c0.6-0.8,1.4-1.2,2.4-1.2
			c0.4,0,0.8,0.1,1.2,0.2c0.3,0.2,0.6,0.3,0.8,0.6c0.2,0.2,0.3,0.5,0.4,0.8c0.1,0.3,0.1,0.7,0.1,1.3V61.4z"/>
		<path id="XMLID_225_" d="M291,61.4h-1.8v-1.1c-0.3,0.4-0.6,0.7-1,0.9s-0.8,0.3-1.2,0.3c-0.8,0-1.5-0.3-2.1-1
			c-0.6-0.7-0.9-1.6-0.9-2.8c0-1.2,0.3-2.2,0.9-2.8c0.6-0.6,1.3-1,2.2-1c0.8,0,1.5,0.3,2.1,1v-3.6h1.9V61.4z M285.9,57.6
			c0,0.8,0.1,1.3,0.3,1.7c0.3,0.5,0.7,0.7,1.3,0.7c0.4,0,0.8-0.2,1.1-0.6c0.3-0.4,0.5-0.9,0.5-1.7c0-0.8-0.1-1.4-0.4-1.8
			s-0.7-0.5-1.2-0.5c-0.5,0-0.8,0.2-1.1,0.5S285.9,56.9,285.9,57.6z"/>
		<path id="XMLID_228_" d="M292.5,60.3v-1.9l4.8-1.9l-4.8-1.9v-1.9l6.9,3v1.6L292.5,60.3z"/>
		<path id="XMLID_230_" d="M300.7,60.3v-1.9l4.8-1.9l-4.8-1.9v-1.9l6.9,3v1.6L300.7,60.3z"/>
	</g>
	<g id="XMLID_184_">
		<path id="XMLID_185_" d="M238.1,164.7l-6.8-3v-1.7l6.8-3v1.9l-4.8,1.8l4.8,1.9V164.7z"/>
		<path id="XMLID_187_" d="M246.2,164.7l-6.8-3v-1.7l6.8-3v1.9l-4.8,1.8l4.8,1.9V164.7z"/>
		<path id="XMLID_189_" d="M252.1,163.6l1.9,0.3c-0.2,0.7-0.6,1.2-1.2,1.6s-1.2,0.5-2,0.5c-1.3,0-2.2-0.4-2.8-1.2
			c-0.5-0.7-0.7-1.5-0.7-2.5c0-1.2,0.3-2.1,0.9-2.8s1.4-1,2.4-1c1.1,0,1.9,0.4,2.5,1.1c0.6,0.7,0.9,1.8,0.9,3.3h-4.8
			c0,0.6,0.2,1,0.5,1.3c0.3,0.3,0.7,0.5,1.1,0.5c0.3,0,0.6-0.1,0.8-0.2C251.8,164.2,252,163.9,252.1,163.6z M252.2,161.6
			c0-0.6-0.2-1-0.4-1.3c-0.3-0.3-0.6-0.4-1-0.4c-0.4,0-0.8,0.2-1,0.5c-0.3,0.3-0.4,0.7-0.4,1.2H252.2z"/>
		<path id="XMLID_192_" d="M254.7,165.9l2.6-3.7l-2.5-3.5h2.3l1.3,2l1.3-2h2.2l-2.5,3.4l2.7,3.8h-2.4l-1.5-2.2l-1.5,2.2H254.7z"/>
		<path id="XMLID_194_" d="M266.7,158.6v1.5h-1.3v2.9c0,0.6,0,0.9,0,1c0,0.1,0.1,0.2,0.2,0.2s0.2,0.1,0.3,0.1c0.2,0,0.4-0.1,0.8-0.2
			l0.2,1.5c-0.4,0.2-1,0.3-1.5,0.3c-0.3,0-0.7-0.1-0.9-0.2c-0.3-0.1-0.5-0.3-0.6-0.5c-0.1-0.2-0.2-0.4-0.3-0.7
			c0-0.2-0.1-0.7-0.1-1.3v-3.2h-0.9v-1.5h0.9v-1.4l1.9-1.1v2.6H266.7z"/>
		<path id="XMLID_196_" d="M272.3,163.6l1.9,0.3c-0.2,0.7-0.6,1.2-1.2,1.6s-1.2,0.5-2,0.5c-1.3,0-2.2-0.4-2.8-1.2
			c-0.5-0.7-0.7-1.5-0.7-2.5c0-1.2,0.3-2.1,0.9-2.8c0.6-0.7,1.4-1,2.4-1c1.1,0,1.9,0.4,2.5,1.1c0.6,0.7,0.9,1.8,0.9,3.3h-4.8
			c0,0.6,0.2,1,0.5,1.3c0.3,0.3,0.7,0.5,1.1,0.5c0.3,0,0.6-0.1,0.8-0.2C272,164.2,272.1,163.9,272.3,163.6z M272.4,161.6
			c0-0.6-0.2-1-0.4-1.3c-0.3-0.3-0.6-0.4-1-0.4c-0.4,0-0.8,0.2-1,0.5s-0.4,0.7-0.4,1.2H272.4z"/>
		<path id="XMLID_199_" d="M282.4,165.9h-1.9v-3.7c0-0.8,0-1.3-0.1-1.5c-0.1-0.2-0.2-0.4-0.4-0.5c-0.2-0.1-0.4-0.2-0.7-0.2
			c-0.3,0-0.6,0.1-0.9,0.3c-0.3,0.2-0.4,0.4-0.5,0.7s-0.1,0.9-0.1,1.7v3.3h-1.9v-7.2h1.8v1.1c0.6-0.8,1.4-1.2,2.4-1.2
			c0.4,0,0.8,0.1,1.2,0.2c0.3,0.2,0.6,0.3,0.8,0.6c0.2,0.2,0.3,0.5,0.4,0.8c0.1,0.3,0.1,0.7,0.1,1.3V165.9z"/>
		<path id="XMLID_201_" d="M291,165.9h-1.8v-1.1c-0.3,0.4-0.6,0.7-1,0.9s-0.8,0.3-1.2,0.3c-0.8,0-1.5-0.3-2.1-1s-0.9-1.6-0.9-2.8
			c0-1.2,0.3-2.2,0.9-2.8c0.6-0.6,1.3-1,2.2-1c0.8,0,1.5,0.3,2.1,1v-3.6h1.9V165.9z M285.9,162.1c0,0.8,0.1,1.3,0.3,1.7
			c0.3,0.5,0.7,0.7,1.3,0.7c0.4,0,0.8-0.2,1.1-0.6c0.3-0.4,0.5-0.9,0.5-1.7c0-0.8-0.1-1.4-0.4-1.8s-0.7-0.5-1.2-0.5
			c-0.5,0-0.8,0.2-1.1,0.5S285.9,161.4,285.9,162.1z"/>
		<path id="XMLID_204_" d="M292.5,164.7v-1.9l4.8-1.9l-4.8-1.9v-1.9l6.9,3v1.6L292.5,164.7z"/>
		<path id="XMLID_206_" d="M300.7,164.7v-1.9l4.8-1.9l-4.8-1.9v-1.9l6.9,3v1.6L300.7,164.7z"/>
	</g>
	<g id="XMLID_168_">
		<path id="XMLID_169_" d="M443.8,20.8l1.7-0.2c0.1,0.6,0.3,1,0.6,1.2s0.7,0.4,1.2,0.4c0.6,0,1-0.1,1.2-0.3c0.3-0.2,0.4-0.5,0.4-0.8
			c0-0.2-0.1-0.4-0.2-0.5c-0.1-0.1-0.3-0.3-0.6-0.4c-0.2-0.1-0.7-0.2-1.4-0.4c-0.9-0.2-1.6-0.5-1.9-0.8c-0.5-0.5-0.8-1-0.8-1.7
			c0-0.4,0.1-0.8,0.4-1.2c0.2-0.4,0.6-0.7,1.1-0.9c0.5-0.2,1-0.3,1.7-0.3c1.1,0,1.9,0.2,2.4,0.7c0.5,0.5,0.8,1.1,0.8,1.9l-1.7,0.1
			c-0.1-0.4-0.2-0.7-0.5-0.9s-0.6-0.3-1.1-0.3c-0.5,0-0.9,0.1-1.2,0.3c-0.2,0.1-0.3,0.3-0.3,0.5c0,0.2,0.1,0.4,0.3,0.5
			c0.2,0.2,0.7,0.4,1.6,0.6s1.4,0.4,1.8,0.6c0.4,0.2,0.7,0.5,0.9,0.9s0.3,0.8,0.3,1.4c0,0.5-0.1,0.9-0.4,1.4
			c-0.3,0.4-0.7,0.7-1.1,0.9c-0.5,0.2-1.1,0.3-1.8,0.3c-1.1,0-1.9-0.2-2.5-0.7C444.2,22.5,443.9,21.7,443.8,20.8z"/>
		<path id="XMLID_171_" d="M452.1,23.5v-8.5h1.7v8.5H452.1z"/>
		<path id="XMLID_173_" d="M455,20.8l1.7-0.2c0.1,0.6,0.3,1,0.6,1.2s0.7,0.4,1.2,0.4c0.6,0,1-0.1,1.2-0.3c0.3-0.2,0.4-0.5,0.4-0.8
			c0-0.2-0.1-0.4-0.2-0.5c-0.1-0.1-0.3-0.3-0.6-0.4c-0.2-0.1-0.7-0.2-1.4-0.4c-0.9-0.2-1.6-0.5-1.9-0.8c-0.5-0.5-0.8-1-0.8-1.7
			c0-0.4,0.1-0.8,0.4-1.2c0.2-0.4,0.6-0.7,1.1-0.9c0.5-0.2,1-0.3,1.7-0.3c1.1,0,1.9,0.2,2.4,0.7c0.5,0.5,0.8,1.1,0.8,1.9l-1.7,0.1
			c-0.1-0.4-0.2-0.7-0.5-0.9s-0.6-0.3-1.1-0.3c-0.5,0-0.9,0.1-1.2,0.3c-0.2,0.1-0.3,0.3-0.3,0.5c0,0.2,0.1,0.4,0.3,0.5
			c0.2,0.2,0.7,0.4,1.6,0.6s1.4,0.4,1.8,0.6c0.4,0.2,0.7,0.5,0.9,0.9s0.3,0.8,0.3,1.4c0,0.5-0.1,0.9-0.4,1.4
			c-0.3,0.4-0.7,0.7-1.1,0.9c-0.5,0.2-1.1,0.3-1.8,0.3c-1.1,0-1.9-0.2-2.5-0.7C455.4,22.5,455.1,21.7,455,20.8z"/>
		<path id="XMLID_175_" d="M465.2,23.5v-7h-2.5v-1.4h6.7v1.4h-2.5v7H465.2z"/>
		<path id="XMLID_177_" d="M470.5,23.5v-8.5h6.3v1.4h-4.6v1.9h4.3v1.4h-4.3v2.3h4.7v1.4H470.5z"/>
		<path id="XMLID_179_" d="M478.4,23.5v-8.5h2.6l1.5,5.8l1.5-5.8h2.6v8.5H485v-6.7l-1.7,6.7h-1.6l-1.7-6.7v6.7H478.4z"/>
		<path id="XMLID_181_" d="M496,23.5h-1.9l-0.7-1.9H490l-0.7,1.9h-1.8l3.3-8.5h1.8L496,23.5z M492.8,20.2l-1.2-3.1l-1.1,3.1H492.8z"
			/>
	</g>
	<ellipse id="XMLID_18638_" cx="179.2" cy="108.2" rx="81.9" ry="26"/>
	<g id="XMLID_98_">
		<path id="XMLID_99_" class="st1" d="M119.8,106v-1.4h3.7v3.4c-0.4,0.3-0.9,0.7-1.6,0.9c-0.7,0.3-1.4,0.4-2.1,0.4
			c-0.9,0-1.7-0.2-2.3-0.6c-0.7-0.4-1.2-0.9-1.5-1.6c-0.3-0.7-0.5-1.4-0.5-2.3c0-0.9,0.2-1.7,0.6-2.4c0.4-0.7,0.9-1.2,1.6-1.6
			c0.5-0.3,1.2-0.4,2-0.4c1.1,0,1.9,0.2,2.5,0.7c0.6,0.4,1,1.1,1.1,1.8l-1.7,0.3c-0.1-0.4-0.3-0.7-0.7-1s-0.7-0.4-1.2-0.4
			c-0.7,0-1.3,0.2-1.8,0.7c-0.4,0.5-0.7,1.2-0.7,2.1c0,1,0.2,1.8,0.7,2.3c0.4,0.5,1,0.8,1.8,0.8c0.4,0,0.7-0.1,1.1-0.2
			c0.4-0.1,0.7-0.3,0.9-0.5V106H119.8z"/>
		<path id="XMLID_101_" class="st1" d="M128.6,107.1l1.6,0.3c-0.2,0.6-0.5,1-1,1.4c-0.4,0.3-1,0.5-1.7,0.5c-1.1,0-1.9-0.3-2.4-1
			c-0.4-0.6-0.6-1.3-0.6-2.1c0-1,0.3-1.8,0.8-2.4s1.2-0.9,2-0.9c0.9,0,1.6,0.3,2.2,0.9s0.8,1.5,0.8,2.8h-4.1c0,0.5,0.1,0.9,0.4,1.1
			c0.3,0.3,0.6,0.4,0.9,0.4c0.3,0,0.5-0.1,0.6-0.2C128.4,107.7,128.5,107.4,128.6,107.1z M128.7,105.5c0-0.5-0.1-0.8-0.4-1.1
			c-0.2-0.2-0.5-0.4-0.8-0.4c-0.4,0-0.6,0.1-0.9,0.4c-0.2,0.3-0.3,0.6-0.3,1.1H128.7z"/>
		<path id="XMLID_104_" class="st1" d="M131,107.3l1.6-0.2c0.1,0.3,0.2,0.6,0.4,0.7c0.2,0.2,0.5,0.2,0.9,0.2c0.4,0,0.7-0.1,0.9-0.2
			c0.1-0.1,0.2-0.3,0.2-0.4c0-0.1,0-0.2-0.1-0.3c-0.1-0.1-0.3-0.1-0.5-0.2c-1.3-0.3-2.1-0.6-2.5-0.8c-0.5-0.3-0.7-0.8-0.7-1.4
			c0-0.5,0.2-1,0.6-1.3s1.1-0.5,2-0.5c0.8,0,1.5,0.1,1.9,0.4c0.4,0.3,0.7,0.7,0.8,1.2l-1.5,0.3c-0.1-0.2-0.2-0.4-0.4-0.5
			c-0.2-0.1-0.4-0.2-0.8-0.2c-0.4,0-0.7,0.1-0.9,0.2c-0.1,0.1-0.2,0.2-0.2,0.3c0,0.1,0.1,0.2,0.2,0.3c0.1,0.1,0.7,0.3,1.5,0.5
			c0.9,0.2,1.5,0.4,1.8,0.7c0.3,0.3,0.5,0.7,0.5,1.2c0,0.6-0.2,1-0.7,1.5c-0.5,0.4-1.2,0.6-2.1,0.6c-0.8,0-1.5-0.2-2-0.5
			C131.5,108.4,131.2,107.9,131,107.3z"/>
		<path id="XMLID_106_" class="st1" d="M141,102.9v1.3h-1.1v2.5c0,0.5,0,0.8,0,0.9c0,0.1,0.1,0.2,0.1,0.2c0.1,0.1,0.2,0.1,0.3,0.1
			c0.2,0,0.4-0.1,0.7-0.2l0.1,1.3c-0.4,0.2-0.8,0.2-1.3,0.2c-0.3,0-0.6,0-0.8-0.1c-0.2-0.1-0.4-0.2-0.5-0.4s-0.2-0.4-0.2-0.6
			c0-0.2-0.1-0.6-0.1-1.1v-2.7h-0.7v-1.3h0.7v-1.2l1.6-0.9v2.2H141z"/>
		<path id="XMLID_108_" class="st1" d="M142.2,102.1v-1.5h1.6v1.5H142.2z M142.2,109.1v-6.1h1.6v6.1H142.2z"/>
		<path id="XMLID_111_" class="st1" d="M145.1,105.9c0-0.5,0.1-1.1,0.4-1.6c0.3-0.5,0.6-0.9,1.1-1.2c0.5-0.3,1-0.4,1.6-0.4
			c0.9,0,1.7,0.3,2.3,0.9c0.6,0.6,0.9,1.4,0.9,2.3c0,0.9-0.3,1.7-0.9,2.3c-0.6,0.6-1.4,0.9-2.3,0.9c-0.6,0-1.1-0.1-1.6-0.4
			c-0.5-0.3-0.9-0.6-1.2-1.1C145.2,107.2,145.1,106.6,145.1,105.9z M146.7,106c0,0.6,0.1,1.1,0.4,1.4c0.3,0.3,0.6,0.5,1.1,0.5
			c0.4,0,0.8-0.2,1.1-0.5c0.3-0.3,0.4-0.8,0.4-1.4c0-0.6-0.1-1.1-0.4-1.4c-0.3-0.3-0.6-0.5-1.1-0.5c-0.4,0-0.8,0.2-1.1,0.5
			C146.9,104.9,146.7,105.4,146.7,106z"/>
		<path id="XMLID_114_" class="st1" d="M158.3,109.1h-1.6v-3.1c0-0.7,0-1.1-0.1-1.3c-0.1-0.2-0.2-0.3-0.3-0.5
			c-0.2-0.1-0.3-0.2-0.6-0.2c-0.3,0-0.5,0.1-0.8,0.2s-0.4,0.4-0.5,0.6c-0.1,0.3-0.1,0.7-0.1,1.4v2.8h-1.6v-6.1h1.5v0.9
			c0.5-0.7,1.2-1,2-1c0.4,0,0.7,0.1,1,0.2s0.5,0.3,0.7,0.5c0.2,0.2,0.3,0.4,0.3,0.7c0.1,0.3,0.1,0.6,0.1,1.1V109.1z"/>
		<path id="XMLID_116_" class="st1" d="M161.1,104.8l-1.5-0.3c0.2-0.6,0.5-1,0.9-1.3c0.4-0.3,1-0.4,1.8-0.4c0.7,0,1.3,0.1,1.6,0.3
			s0.6,0.4,0.7,0.7c0.1,0.3,0.2,0.7,0.2,1.5l0,1.9c0,0.5,0,0.9,0.1,1.2c0.1,0.3,0.1,0.5,0.3,0.8h-1.6c0-0.1-0.1-0.3-0.2-0.5
			c0-0.1,0-0.2-0.1-0.2c-0.3,0.3-0.6,0.5-0.9,0.6s-0.7,0.2-1,0.2c-0.6,0-1.1-0.2-1.5-0.5c-0.4-0.3-0.5-0.8-0.5-1.3
			c0-0.3,0.1-0.7,0.2-0.9c0.2-0.3,0.4-0.5,0.7-0.6s0.7-0.3,1.3-0.4c0.8-0.1,1.3-0.3,1.6-0.4v-0.2c0-0.3-0.1-0.5-0.2-0.7
			s-0.4-0.2-0.9-0.2c-0.3,0-0.5,0.1-0.7,0.2C161.4,104.3,161.2,104.5,161.1,104.8z M163.3,106.1c-0.2,0.1-0.5,0.2-1,0.2
			s-0.7,0.2-0.9,0.3c-0.2,0.2-0.3,0.3-0.3,0.6c0,0.2,0.1,0.4,0.3,0.6s0.4,0.2,0.6,0.2c0.3,0,0.6-0.1,0.8-0.3
			c0.2-0.1,0.3-0.3,0.4-0.5c0-0.1,0.1-0.4,0.1-0.8V106.1z"/>
		<path id="XMLID_119_" class="st1" d="M168.1,109.1h-1.6v-6.1h1.5v0.9c0.3-0.4,0.5-0.7,0.7-0.8c0.2-0.1,0.4-0.2,0.7-0.2
			c0.4,0,0.7,0.1,1.1,0.3l-0.5,1.4c-0.3-0.2-0.5-0.3-0.8-0.3c-0.2,0-0.4,0.1-0.6,0.2c-0.2,0.1-0.3,0.4-0.4,0.7
			c-0.1,0.3-0.1,1-0.1,2.1V109.1z"/>
		<path id="XMLID_121_" class="st1" d="M180,109.1h-1.5v-0.9c-0.3,0.4-0.5,0.6-0.9,0.8c-0.3,0.2-0.7,0.3-1,0.3
			c-0.7,0-1.3-0.3-1.8-0.9c-0.5-0.6-0.8-1.4-0.8-2.4c0-1,0.2-1.8,0.7-2.4c0.5-0.5,1.1-0.8,1.9-0.8c0.7,0,1.3,0.3,1.8,0.9v-3.1h1.6
			V109.1z M175.7,105.9c0,0.7,0.1,1.1,0.3,1.4c0.3,0.4,0.6,0.6,1.1,0.6c0.4,0,0.7-0.2,1-0.5c0.3-0.3,0.4-0.8,0.4-1.4
			c0-0.7-0.1-1.2-0.4-1.5c-0.3-0.3-0.6-0.5-1-0.5c-0.4,0-0.7,0.2-1,0.5S175.7,105.3,175.7,105.9z"/>
		<path id="XMLID_124_" class="st1" d="M181.6,102.1v-1.5h1.6v1.5H181.6z M181.6,109.1v-6.1h1.6v6.1H181.6z"/>
		<path id="XMLID_127_" class="st1" d="M186.2,104.8l-1.5-0.3c0.2-0.6,0.5-1,0.9-1.3c0.4-0.3,1-0.4,1.8-0.4c0.7,0,1.3,0.1,1.6,0.3
			s0.6,0.4,0.7,0.7c0.1,0.3,0.2,0.7,0.2,1.5l0,1.9c0,0.5,0,0.9,0.1,1.2c0.1,0.3,0.1,0.5,0.3,0.8h-1.6c0-0.1-0.1-0.3-0.2-0.5
			c0-0.1,0-0.2-0.1-0.2c-0.3,0.3-0.6,0.5-0.9,0.6s-0.7,0.2-1,0.2c-0.6,0-1.1-0.2-1.5-0.5c-0.4-0.3-0.5-0.8-0.5-1.3
			c0-0.3,0.1-0.7,0.2-0.9c0.2-0.3,0.4-0.5,0.7-0.6s0.7-0.3,1.3-0.4c0.8-0.1,1.3-0.3,1.6-0.4v-0.2c0-0.3-0.1-0.5-0.2-0.7
			s-0.4-0.2-0.9-0.2c-0.3,0-0.5,0.1-0.7,0.2C186.4,104.3,186.3,104.5,186.2,104.8z M188.3,106.1c-0.2,0.1-0.5,0.2-1,0.2
			s-0.7,0.2-0.9,0.3c-0.2,0.2-0.3,0.3-0.3,0.6c0,0.2,0.1,0.4,0.3,0.6s0.4,0.2,0.6,0.2c0.3,0,0.6-0.1,0.8-0.3
			c0.2-0.1,0.3-0.3,0.4-0.5c0-0.1,0.1-0.4,0.1-0.8V106.1z"/>
		<path id="XMLID_130_" class="st1" d="M191.4,109.5l1.9,0.2c0,0.2,0.1,0.4,0.2,0.4c0.2,0.1,0.4,0.2,0.7,0.2c0.4,0,0.7-0.1,1-0.2
			c0.1-0.1,0.3-0.2,0.3-0.4c0-0.1,0.1-0.4,0.1-0.7v-0.9c-0.5,0.7-1.1,1-1.8,1c-0.8,0-1.5-0.3-2-1c-0.4-0.6-0.6-1.2-0.6-2.1
			c0-1,0.2-1.8,0.7-2.4c0.5-0.5,1.1-0.8,1.8-0.8c0.8,0,1.4,0.3,1.9,1v-0.9h1.5v5.5c0,0.7-0.1,1.3-0.2,1.6s-0.3,0.6-0.5,0.8
			c-0.2,0.2-0.5,0.4-0.9,0.5c-0.4,0.1-0.8,0.2-1.4,0.2c-1,0-1.8-0.2-2.2-0.5c-0.4-0.4-0.7-0.8-0.7-1.4
			C191.4,109.6,191.4,109.6,191.4,109.5z M192.8,105.9c0,0.7,0.1,1.1,0.4,1.4s0.6,0.5,0.9,0.5c0.4,0,0.7-0.2,1-0.5
			c0.3-0.3,0.4-0.8,0.4-1.4c0-0.6-0.1-1.1-0.4-1.4s-0.6-0.5-1-0.5c-0.4,0-0.7,0.2-1,0.5S192.8,105.3,192.8,105.9z"/>
		<path id="XMLID_133_" class="st1" d="M204.3,109.1h-1.6v-3.1c0-0.7,0-1.1-0.1-1.3c-0.1-0.2-0.2-0.3-0.3-0.5
			c-0.2-0.1-0.3-0.2-0.6-0.2c-0.3,0-0.5,0.1-0.8,0.2s-0.4,0.4-0.5,0.6c-0.1,0.3-0.1,0.7-0.1,1.4v2.8h-1.6v-6.1h1.5v0.9
			c0.5-0.7,1.2-1,2-1c0.4,0,0.7,0.1,1,0.2s0.5,0.3,0.7,0.5c0.2,0.2,0.3,0.4,0.3,0.7c0.1,0.3,0.1,0.6,0.1,1.1V109.1z"/>
		<path id="XMLID_135_" class="st1" d="M205.6,105.9c0-0.5,0.1-1.1,0.4-1.6c0.3-0.5,0.6-0.9,1.1-1.2c0.5-0.3,1-0.4,1.6-0.4
			c0.9,0,1.7,0.3,2.3,0.9c0.6,0.6,0.9,1.4,0.9,2.3c0,0.9-0.3,1.7-0.9,2.3c-0.6,0.6-1.4,0.9-2.3,0.9c-0.6,0-1.1-0.1-1.6-0.4
			c-0.5-0.3-0.9-0.6-1.2-1.1C205.8,107.2,205.6,106.6,205.6,105.9z M207.3,106c0,0.6,0.1,1.1,0.4,1.4c0.3,0.3,0.6,0.5,1.1,0.5
			c0.4,0,0.8-0.2,1.1-0.5c0.3-0.3,0.4-0.8,0.4-1.4c0-0.6-0.1-1.1-0.4-1.4c-0.3-0.3-0.6-0.5-1.1-0.5c-0.4,0-0.8,0.2-1.1,0.5
			C207.4,104.9,207.3,105.4,207.3,106z M208,102.2l0.8-1.7h1.8l-1.6,1.7H208z"/>
		<path id="XMLID_139_" class="st1" d="M212.7,107.3l1.6-0.2c0.1,0.3,0.2,0.6,0.4,0.7c0.2,0.2,0.5,0.2,0.9,0.2
			c0.4,0,0.7-0.1,0.9-0.2c0.1-0.1,0.2-0.3,0.2-0.4c0-0.1,0-0.2-0.1-0.3c-0.1-0.1-0.3-0.1-0.5-0.2c-1.3-0.3-2.1-0.6-2.5-0.8
			c-0.5-0.3-0.7-0.8-0.7-1.4c0-0.5,0.2-1,0.6-1.3s1.1-0.5,2-0.5c0.8,0,1.5,0.1,1.9,0.4c0.4,0.3,0.7,0.7,0.8,1.2l-1.5,0.3
			c-0.1-0.2-0.2-0.4-0.4-0.5c-0.2-0.1-0.4-0.2-0.8-0.2c-0.4,0-0.7,0.1-0.9,0.2c-0.1,0.1-0.2,0.2-0.2,0.3c0,0.1,0.1,0.2,0.2,0.3
			c0.1,0.1,0.7,0.3,1.5,0.5c0.9,0.2,1.5,0.4,1.8,0.7c0.3,0.3,0.5,0.7,0.5,1.2c0,0.6-0.2,1-0.7,1.5c-0.5,0.4-1.2,0.6-2.1,0.6
			c-0.8,0-1.5-0.2-2-0.5C213.1,108.4,212.8,107.9,212.7,107.3z"/>
		<path id="XMLID_141_" class="st1" d="M222.6,102.9v1.3h-1.1v2.5c0,0.5,0,0.8,0,0.9c0,0.1,0.1,0.2,0.1,0.2c0.1,0.1,0.2,0.1,0.3,0.1
			c0.2,0,0.4-0.1,0.7-0.2l0.1,1.3c-0.4,0.2-0.8,0.2-1.3,0.2c-0.3,0-0.6,0-0.8-0.1c-0.2-0.1-0.4-0.2-0.5-0.4s-0.2-0.4-0.2-0.6
			c0-0.2-0.1-0.6-0.1-1.1v-2.7h-0.7v-1.3h0.7v-1.2l1.6-0.9v2.2H222.6z"/>
		<path id="XMLID_143_" class="st1" d="M223.8,102.1v-1.5h1.6v1.5H223.8z M223.8,109.1v-6.1h1.6v6.1H223.8z"/>
		<path id="XMLID_146_" class="st1" d="M232.4,104.8l-1.6,0.3c-0.1-0.3-0.2-0.6-0.4-0.7s-0.4-0.2-0.7-0.2c-0.4,0-0.7,0.1-1,0.4
			c-0.2,0.3-0.4,0.7-0.4,1.4c0,0.7,0.1,1.2,0.4,1.5s0.6,0.5,1,0.5c0.3,0,0.6-0.1,0.8-0.3c0.2-0.2,0.3-0.5,0.4-0.9l1.6,0.3
			c-0.2,0.7-0.5,1.3-1,1.7c-0.5,0.4-1.1,0.6-1.9,0.6c-0.9,0-1.6-0.3-2.1-0.8c-0.5-0.6-0.8-1.4-0.8-2.4c0-1,0.3-1.8,0.8-2.4
			c0.5-0.6,1.3-0.8,2.2-0.8c0.7,0,1.3,0.2,1.8,0.5S232.2,104.1,232.4,104.8z"/>
		<path id="XMLID_148_" class="st1" d="M233.3,105.9c0-0.5,0.1-1.1,0.4-1.6c0.3-0.5,0.6-0.9,1.1-1.2c0.5-0.3,1-0.4,1.6-0.4
			c0.9,0,1.7,0.3,2.3,0.9c0.6,0.6,0.9,1.4,0.9,2.3c0,0.9-0.3,1.7-0.9,2.3c-0.6,0.6-1.4,0.9-2.3,0.9c-0.6,0-1.1-0.1-1.6-0.4
			c-0.5-0.3-0.9-0.6-1.2-1.1C233.4,107.2,233.3,106.6,233.3,105.9z M234.9,106c0,0.6,0.1,1.1,0.4,1.4c0.3,0.3,0.6,0.5,1.1,0.5
			c0.4,0,0.8-0.2,1.1-0.5c0.3-0.3,0.4-0.8,0.4-1.4c0-0.6-0.1-1.1-0.4-1.4c-0.3-0.3-0.6-0.5-1.1-0.5c-0.4,0-0.8,0.2-1.1,0.5
			C235.1,104.9,234.9,105.4,234.9,106z"/>
		<path id="XMLID_151_" class="st1" d="M157.5,117.2h1.5v0.8c0.5-0.7,1.2-1,1.9-1c0.4,0,0.7,0.1,1,0.2c0.3,0.2,0.5,0.4,0.7,0.7
			c0.3-0.3,0.6-0.6,0.9-0.7c0.3-0.2,0.6-0.2,1-0.2c0.5,0,0.8,0.1,1.1,0.3c0.3,0.2,0.5,0.5,0.7,0.8c0.1,0.3,0.2,0.7,0.2,1.3v3.9h-1.6
			v-3.5c0-0.6-0.1-1-0.2-1.2c-0.2-0.2-0.4-0.3-0.7-0.3c-0.2,0-0.4,0.1-0.6,0.2c-0.2,0.1-0.3,0.3-0.4,0.6c-0.1,0.3-0.1,0.7-0.1,1.3v3
			h-1.6v-3.4c0-0.6,0-1-0.1-1.2c-0.1-0.2-0.1-0.3-0.3-0.4s-0.3-0.1-0.5-0.1c-0.3,0-0.5,0.1-0.7,0.2c-0.2,0.1-0.3,0.3-0.4,0.6
			c-0.1,0.3-0.1,0.7-0.1,1.3v3h-1.6V117.2z"/>
		<path id="XMLID_153_" class="st1" d="M171.7,121.3l1.6,0.3c-0.2,0.6-0.5,1-1,1.4c-0.4,0.3-1,0.5-1.7,0.5c-1.1,0-1.9-0.3-2.4-1
			c-0.4-0.6-0.6-1.3-0.6-2.1c0-1,0.3-1.8,0.8-2.4c0.5-0.6,1.2-0.9,2-0.9c0.9,0,1.6,0.3,2.2,0.9s0.8,1.5,0.8,2.8h-4.1
			c0,0.5,0.1,0.9,0.4,1.1c0.3,0.3,0.6,0.4,0.9,0.4c0.3,0,0.5-0.1,0.6-0.2C171.5,121.9,171.6,121.7,171.7,121.3z M171.8,119.7
			c0-0.5-0.1-0.8-0.4-1.1c-0.2-0.2-0.5-0.4-0.8-0.4c-0.4,0-0.6,0.1-0.9,0.4c-0.2,0.3-0.3,0.6-0.3,1.1H171.8z M169.7,116.4l0.8-1.7
			h1.8l-1.6,1.7H169.7z"/>
		<path id="XMLID_157_" class="st1" d="M180.4,123.3h-1.5v-0.9c-0.3,0.4-0.5,0.6-0.9,0.8c-0.3,0.2-0.7,0.3-1,0.3
			c-0.7,0-1.3-0.3-1.8-0.9c-0.5-0.6-0.8-1.4-0.8-2.4c0-1,0.2-1.8,0.7-2.4s1.1-0.8,1.9-0.8c0.7,0,1.3,0.3,1.8,0.9v-3.1h1.6V123.3z
			 M176,120.1c0,0.7,0.1,1.1,0.3,1.4c0.3,0.4,0.6,0.6,1.1,0.6c0.4,0,0.7-0.2,1-0.5s0.4-0.8,0.4-1.4c0-0.7-0.1-1.2-0.4-1.5
			c-0.3-0.3-0.6-0.5-1-0.5c-0.4,0-0.7,0.2-1,0.5S176,119.5,176,120.1z"/>
		<path id="XMLID_160_" class="st1" d="M182,116.3v-1.5h1.6v1.5H182z M182,123.3v-6.1h1.6v6.1H182z"/>
		<path id="XMLID_163_" class="st1" d="M190.6,119l-1.6,0.3c-0.1-0.3-0.2-0.6-0.4-0.7s-0.4-0.2-0.7-0.2c-0.4,0-0.7,0.1-1,0.4
			c-0.2,0.3-0.4,0.7-0.4,1.4c0,0.7,0.1,1.2,0.4,1.5s0.6,0.5,1,0.5c0.3,0,0.6-0.1,0.8-0.3s0.3-0.5,0.4-0.9l1.6,0.3
			c-0.2,0.7-0.5,1.3-1,1.7c-0.5,0.4-1.1,0.6-1.9,0.6c-0.9,0-1.6-0.3-2.1-0.9c-0.5-0.6-0.8-1.4-0.8-2.4c0-1,0.3-1.8,0.8-2.4
			c0.5-0.6,1.3-0.8,2.2-0.8c0.7,0,1.3,0.2,1.8,0.5C190.1,117.8,190.4,118.3,190.6,119z"/>
		<path id="XMLID_165_" class="st1" d="M191.5,120.1c0-0.5,0.1-1.1,0.4-1.6c0.3-0.5,0.6-0.9,1.1-1.2c0.5-0.3,1-0.4,1.6-0.4
			c0.9,0,1.7,0.3,2.3,0.9c0.6,0.6,0.9,1.4,0.9,2.3c0,0.9-0.3,1.7-0.9,2.3c-0.6,0.6-1.4,0.9-2.3,0.9c-0.6,0-1.1-0.1-1.6-0.4
			c-0.5-0.3-0.9-0.6-1.2-1.1C191.6,121.4,191.5,120.8,191.5,120.1z M193.1,120.2c0,0.6,0.1,1.1,0.4,1.4s0.6,0.5,1.1,0.5
			c0.4,0,0.8-0.2,1.1-0.5c0.3-0.3,0.4-0.8,0.4-1.4c0-0.6-0.1-1.1-0.4-1.4c-0.3-0.3-0.6-0.5-1.1-0.5c-0.4,0-0.8,0.2-1.1,0.5
			S193.1,119.6,193.1,120.2z"/>
	</g>
	<g id="XMLID_1158_">
		<ellipse id="XMLID_18634_" cx="427.1" cy="61.4" rx="70.4" ry="23.9"/>
		<g id="XMLID_57_">
			<path id="XMLID_58_" class="st1" d="M375.6,64.3v-8.5h6.3v1.4h-4.6v1.9h4.3v1.4h-4.3v2.3h4.7v1.4H375.6z"/>
			<path id="XMLID_60_" class="st1" d="M382.7,64.3l2.2-3.2l-2.1-3h2l1.1,1.7l1.1-1.7h1.9l-2.1,2.9l2.3,3.2h-2l-1.3-1.9l-1.3,1.9
				H382.7z"/>
			<path id="XMLID_62_" class="st1" d="M391.3,60l-1.5-0.3c0.2-0.6,0.5-1,0.9-1.3c0.4-0.3,1-0.4,1.8-0.4c0.7,0,1.3,0.1,1.6,0.3
				c0.4,0.2,0.6,0.4,0.7,0.7s0.2,0.7,0.2,1.5l0,1.9c0,0.5,0,0.9,0.1,1.2s0.1,0.5,0.3,0.8h-1.6c0-0.1-0.1-0.3-0.2-0.5
				c0-0.1,0-0.2-0.1-0.2c-0.3,0.3-0.6,0.5-0.9,0.6c-0.3,0.1-0.7,0.2-1,0.2c-0.6,0-1.1-0.2-1.5-0.5c-0.4-0.3-0.5-0.8-0.5-1.3
				c0-0.3,0.1-0.7,0.2-0.9s0.4-0.5,0.7-0.6c0.3-0.1,0.7-0.3,1.3-0.4c0.8-0.1,1.3-0.3,1.6-0.4v-0.2c0-0.3-0.1-0.5-0.2-0.7
				c-0.2-0.1-0.4-0.2-0.9-0.2c-0.3,0-0.5,0.1-0.7,0.2C391.5,59.5,391.4,59.7,391.3,60z M393.4,61.3c-0.2,0.1-0.5,0.2-1,0.2
				c-0.5,0.1-0.7,0.2-0.9,0.3c-0.2,0.2-0.3,0.3-0.3,0.6c0,0.2,0.1,0.4,0.3,0.6c0.2,0.2,0.4,0.2,0.6,0.2c0.3,0,0.6-0.1,0.8-0.3
				c0.2-0.1,0.3-0.3,0.4-0.5c0-0.1,0.1-0.4,0.1-0.8V61.3z"/>
			<path id="XMLID_65_" class="st1" d="M396.5,58.1h1.5v0.8c0.5-0.7,1.2-1,1.9-1c0.4,0,0.7,0.1,1,0.2c0.3,0.2,0.5,0.4,0.7,0.7
				c0.3-0.3,0.6-0.6,0.9-0.7c0.3-0.2,0.6-0.2,1-0.2c0.5,0,0.8,0.1,1.1,0.3s0.5,0.5,0.7,0.8c0.1,0.3,0.2,0.7,0.2,1.3v3.9h-1.6v-3.5
				c0-0.6-0.1-1-0.2-1.2c-0.2-0.2-0.4-0.3-0.7-0.3c-0.2,0-0.4,0.1-0.6,0.2c-0.2,0.1-0.3,0.3-0.4,0.6s-0.1,0.7-0.1,1.3v3h-1.6v-3.4
				c0-0.6,0-1-0.1-1.2c-0.1-0.2-0.1-0.3-0.3-0.4s-0.3-0.1-0.5-0.1c-0.3,0-0.5,0.1-0.7,0.2c-0.2,0.1-0.3,0.3-0.4,0.6
				c-0.1,0.3-0.1,0.7-0.1,1.3v3h-1.6V58.1z"/>
			<path id="XMLID_67_" class="st1" d="M407.2,57.3v-1.5h1.6v1.5H407.2z M407.2,64.3v-6.1h1.6v6.1H407.2z"/>
			<path id="XMLID_70_" class="st1" d="M416.1,64.3h-1.6v-3.1c0-0.7,0-1.1-0.1-1.3s-0.2-0.3-0.3-0.5s-0.3-0.2-0.6-0.2
				c-0.3,0-0.5,0.1-0.8,0.2s-0.4,0.4-0.5,0.6s-0.1,0.7-0.1,1.4v2.8h-1.6v-6.1h1.5V59c0.5-0.7,1.2-1,2-1c0.4,0,0.7,0.1,1,0.2
				c0.3,0.1,0.5,0.3,0.7,0.5s0.3,0.4,0.3,0.7s0.1,0.6,0.1,1.1V64.3z"/>
			<path id="XMLID_72_" class="st1" d="M418.9,60l-1.5-0.3c0.2-0.6,0.5-1,0.9-1.3c0.4-0.3,1-0.4,1.8-0.4c0.7,0,1.3,0.1,1.6,0.3
				c0.4,0.2,0.6,0.4,0.7,0.7s0.2,0.7,0.2,1.5l0,1.9c0,0.5,0,0.9,0.1,1.2s0.1,0.5,0.3,0.8h-1.6c0-0.1-0.1-0.3-0.2-0.5
				c0-0.1,0-0.2-0.1-0.2c-0.3,0.3-0.6,0.5-0.9,0.6c-0.3,0.1-0.7,0.2-1,0.2c-0.6,0-1.1-0.2-1.5-0.5c-0.4-0.3-0.5-0.8-0.5-1.3
				c0-0.3,0.1-0.7,0.2-0.9s0.4-0.5,0.7-0.6c0.3-0.1,0.7-0.3,1.3-0.4c0.8-0.1,1.3-0.3,1.6-0.4v-0.2c0-0.3-0.1-0.5-0.2-0.7
				c-0.2-0.1-0.4-0.2-0.9-0.2c-0.3,0-0.5,0.1-0.7,0.2C419.1,59.5,419,59.7,418.9,60z M421.1,61.3c-0.2,0.1-0.5,0.2-1,0.2
				c-0.5,0.1-0.7,0.2-0.9,0.3c-0.2,0.2-0.3,0.3-0.3,0.6c0,0.2,0.1,0.4,0.3,0.6c0.2,0.2,0.4,0.2,0.6,0.2c0.3,0,0.6-0.1,0.8-0.3
				c0.2-0.1,0.3-0.3,0.4-0.5c0-0.1,0.1-0.4,0.1-0.8V61.3z"/>
			<path id="XMLID_75_" class="st1" d="M425.8,64.3h-1.6v-6.1h1.5V59c0.3-0.4,0.5-0.7,0.7-0.8c0.2-0.1,0.4-0.2,0.7-0.2
				c0.4,0,0.7,0.1,1.1,0.3l-0.5,1.4c-0.3-0.2-0.5-0.3-0.8-0.3c-0.2,0-0.4,0.1-0.6,0.2c-0.2,0.1-0.3,0.4-0.4,0.7
				c-0.1,0.3-0.1,1-0.1,2.1V64.3z"/>
			<path id="XMLID_77_" class="st1" d="M432.1,58.1h1.5V59c0.2-0.3,0.5-0.6,0.8-0.8c0.3-0.2,0.7-0.3,1.1-0.3c0.7,0,1.3,0.3,1.8,0.8
				s0.7,1.3,0.7,2.3c0,1-0.3,1.8-0.8,2.4c-0.5,0.6-1.1,0.9-1.8,0.9c-0.3,0-0.6-0.1-0.9-0.2c-0.3-0.1-0.6-0.4-0.9-0.7v3.1h-1.6V58.1z
				 M433.8,61.1c0,0.7,0.1,1.2,0.4,1.5c0.3,0.3,0.6,0.5,1,0.5c0.4,0,0.7-0.2,0.9-0.5c0.3-0.3,0.4-0.8,0.4-1.5c0-0.6-0.1-1.1-0.4-1.4
				c-0.3-0.3-0.6-0.5-1-0.5c-0.4,0-0.7,0.2-1,0.5C433.9,60,433.8,60.5,433.8,61.1z"/>
			<path id="XMLID_80_" class="st1" d="M440.6,60l-1.5-0.3c0.2-0.6,0.5-1,0.9-1.3c0.4-0.3,1-0.4,1.8-0.4c0.7,0,1.3,0.1,1.6,0.3
				c0.4,0.2,0.6,0.4,0.7,0.7s0.2,0.7,0.2,1.5l0,1.9c0,0.5,0,0.9,0.1,1.2s0.1,0.5,0.3,0.8h-1.6c0-0.1-0.1-0.3-0.2-0.5
				c0-0.1,0-0.2-0.1-0.2c-0.3,0.3-0.6,0.5-0.9,0.6c-0.3,0.1-0.7,0.2-1,0.2c-0.6,0-1.1-0.2-1.5-0.5c-0.4-0.3-0.5-0.8-0.5-1.3
				c0-0.3,0.1-0.7,0.2-0.9s0.4-0.5,0.7-0.6c0.3-0.1,0.7-0.3,1.3-0.4c0.8-0.1,1.3-0.3,1.6-0.4v-0.2c0-0.3-0.1-0.5-0.2-0.7
				c-0.2-0.1-0.4-0.2-0.9-0.2c-0.3,0-0.5,0.1-0.7,0.2C440.9,59.5,440.7,59.7,440.6,60z M442.8,61.3c-0.2,0.1-0.5,0.2-1,0.2
				c-0.5,0.1-0.7,0.2-0.9,0.3c-0.2,0.2-0.3,0.3-0.3,0.6c0,0.2,0.1,0.4,0.3,0.6c0.2,0.2,0.4,0.2,0.6,0.2c0.3,0,0.6-0.1,0.8-0.3
				c0.2-0.1,0.3-0.3,0.4-0.5c0-0.1,0.1-0.4,0.1-0.8V61.3z"/>
			<path id="XMLID_83_" class="st1" d="M451.4,59.9l-1.6,0.3c-0.1-0.3-0.2-0.6-0.4-0.7c-0.2-0.2-0.4-0.2-0.7-0.2
				c-0.4,0-0.7,0.1-1,0.4c-0.2,0.3-0.4,0.7-0.4,1.4c0,0.7,0.1,1.2,0.4,1.5c0.2,0.3,0.6,0.5,1,0.5c0.3,0,0.6-0.1,0.8-0.3
				c0.2-0.2,0.3-0.5,0.4-0.9l1.6,0.3c-0.2,0.7-0.5,1.3-1,1.7c-0.5,0.4-1.1,0.6-1.9,0.6c-0.9,0-1.6-0.3-2.1-0.9
				c-0.5-0.6-0.8-1.4-0.8-2.4c0-1,0.3-1.8,0.8-2.4s1.3-0.8,2.2-0.8c0.7,0,1.3,0.2,1.8,0.5C450.9,58.8,451.2,59.3,451.4,59.9z"/>
			<path id="XMLID_85_" class="st1" d="M452.6,57.3v-1.5h1.6v1.5H452.6z M452.6,64.3v-6.1h1.6v6.1H452.6z"/>
			<path id="XMLID_88_" class="st1" d="M459.5,62.3l1.6,0.3c-0.2,0.6-0.5,1-1,1.4c-0.4,0.3-1,0.5-1.7,0.5c-1.1,0-1.9-0.3-2.4-1
				c-0.4-0.6-0.6-1.3-0.6-2.1c0-1,0.3-1.8,0.8-2.4c0.5-0.6,1.2-0.9,2-0.9c0.9,0,1.6,0.3,2.2,0.9s0.8,1.5,0.8,2.8h-4.1
				c0,0.5,0.1,0.9,0.4,1.1c0.3,0.3,0.6,0.4,0.9,0.4c0.3,0,0.5-0.1,0.6-0.2S459.4,62.6,459.5,62.3z M459.5,60.7
				c0-0.5-0.1-0.8-0.4-1.1c-0.2-0.2-0.5-0.4-0.8-0.4c-0.4,0-0.6,0.1-0.9,0.4s-0.3,0.6-0.3,1.1H459.5z"/>
			<path id="XMLID_91_" class="st1" d="M468.1,64.3h-1.6v-3.1c0-0.7,0-1.1-0.1-1.3s-0.2-0.3-0.3-0.5s-0.3-0.2-0.6-0.2
				c-0.3,0-0.5,0.1-0.8,0.2s-0.4,0.4-0.5,0.6s-0.1,0.7-0.1,1.4v2.8h-1.6v-6.1h1.5V59c0.5-0.7,1.2-1,2-1c0.4,0,0.7,0.1,1,0.2
				c0.3,0.1,0.5,0.3,0.7,0.5s0.3,0.4,0.3,0.7s0.1,0.6,0.1,1.1V64.3z"/>
			<path id="XMLID_93_" class="st1" d="M472.5,58.1v1.3h-1.1v2.5c0,0.5,0,0.8,0,0.9c0,0.1,0.1,0.2,0.1,0.2c0.1,0.1,0.2,0.1,0.3,0.1
				c0.2,0,0.4-0.1,0.7-0.2l0.1,1.3c-0.4,0.2-0.8,0.2-1.3,0.2c-0.3,0-0.6,0-0.8-0.1c-0.2-0.1-0.4-0.2-0.5-0.4
				c-0.1-0.2-0.2-0.4-0.2-0.6c0-0.2-0.1-0.6-0.1-1.1v-2.7h-0.7v-1.3h0.7v-1.2l1.6-0.9v2.2H472.5z"/>
			<path id="XMLID_95_" class="st1" d="M477.2,62.3l1.6,0.3c-0.2,0.6-0.5,1-1,1.4c-0.4,0.3-1,0.5-1.7,0.5c-1.1,0-1.9-0.3-2.4-1
				c-0.4-0.6-0.6-1.3-0.6-2.1c0-1,0.3-1.8,0.8-2.4c0.5-0.6,1.2-0.9,2-0.9c0.9,0,1.6,0.3,2.2,0.9s0.8,1.5,0.8,2.8h-4.1
				c0,0.5,0.1,0.9,0.4,1.1c0.3,0.3,0.6,0.4,0.9,0.4c0.3,0,0.5-0.1,0.6-0.2S477.1,62.6,477.2,62.3z M477.3,60.7
				c0-0.5-0.1-0.8-0.4-1.1c-0.2-0.2-0.5-0.4-0.8-0.4c-0.4,0-0.6,0.1-0.9,0.4s-0.3,0.6-0.3,1.1H477.3z"/>
		</g>
		<ellipse id="XMLID_18679_" cx="427.1" cy="155" rx="70.4" ry="23.9"/>
		<g id="XMLID_3_">
			<path id="XMLID_4_" class="st1" d="M376.6,157.8v-8.5h5.8v1.4h-4.1v2h3.5v1.4h-3.5v3.6H376.6z"/>
			<path id="XMLID_6_" class="st1" d="M383.4,154.7c0-0.5,0.1-1.1,0.4-1.6c0.3-0.5,0.6-0.9,1.1-1.2c0.5-0.3,1-0.4,1.6-0.4
				c0.9,0,1.7,0.3,2.3,0.9c0.6,0.6,0.9,1.4,0.9,2.3c0,0.9-0.3,1.7-0.9,2.3s-1.4,0.9-2.3,0.9c-0.6,0-1.1-0.1-1.6-0.4
				c-0.5-0.3-0.9-0.6-1.2-1.1C383.5,156,383.4,155.4,383.4,154.7z M385.1,154.8c0,0.6,0.1,1.1,0.4,1.4c0.3,0.3,0.6,0.5,1.1,0.5
				c0.4,0,0.8-0.2,1.1-0.5c0.3-0.3,0.4-0.8,0.4-1.4c0-0.6-0.1-1.1-0.4-1.4c-0.3-0.3-0.6-0.5-1.1-0.5c-0.4,0-0.8,0.2-1.1,0.5
				S385.1,154.2,385.1,154.8z"/>
			<path id="XMLID_9_" class="st1" d="M392.6,157.8H391v-6.1h1.5v0.9c0.3-0.4,0.5-0.7,0.7-0.8c0.2-0.1,0.4-0.2,0.7-0.2
				c0.4,0,0.7,0.1,1.1,0.3l-0.5,1.4c-0.3-0.2-0.5-0.3-0.8-0.3c-0.2,0-0.4,0.1-0.6,0.2c-0.2,0.1-0.3,0.4-0.4,0.7
				c-0.1,0.3-0.1,1-0.1,2.1V157.8z"/>
			<path id="XMLID_11_" class="st1" d="M395.5,151.7h1.5v0.8c0.5-0.7,1.2-1,1.9-1c0.4,0,0.7,0.1,1,0.2c0.3,0.2,0.5,0.4,0.7,0.7
				c0.3-0.3,0.6-0.6,0.9-0.7c0.3-0.2,0.6-0.2,1-0.2c0.5,0,0.8,0.1,1.1,0.3c0.3,0.2,0.5,0.5,0.7,0.8c0.1,0.3,0.2,0.7,0.2,1.3v3.9
				h-1.6v-3.5c0-0.6-0.1-1-0.2-1.2c-0.2-0.2-0.4-0.3-0.7-0.3c-0.2,0-0.4,0.1-0.6,0.2c-0.2,0.1-0.3,0.3-0.4,0.6s-0.1,0.7-0.1,1.3v3
				h-1.6v-3.4c0-0.6,0-1-0.1-1.2c-0.1-0.2-0.1-0.3-0.3-0.4s-0.3-0.1-0.5-0.1c-0.3,0-0.5,0.1-0.7,0.2c-0.2,0.1-0.3,0.3-0.4,0.6
				s-0.1,0.7-0.1,1.3v3h-1.6V151.7z"/>
			<path id="XMLID_13_" class="st1" d="M410.2,157.8v-0.9c-0.2,0.3-0.5,0.6-0.9,0.8s-0.7,0.3-1.2,0.3c-0.4,0-0.8-0.1-1.1-0.3
				c-0.3-0.2-0.6-0.4-0.7-0.8s-0.2-0.8-0.2-1.4v-3.9h1.6v2.8c0,0.9,0,1.4,0.1,1.6c0.1,0.2,0.2,0.3,0.3,0.5s0.4,0.2,0.6,0.2
				c0.3,0,0.5-0.1,0.7-0.2s0.4-0.3,0.5-0.6s0.1-0.8,0.1-1.7v-2.6h1.6v6.1H410.2z"/>
			<path id="XMLID_15_" class="st1" d="M413.4,157.8v-8.5h1.6v8.5H413.4z"/>
			<path id="XMLID_17_" class="st1" d="M417.9,153.6l-1.5-0.3c0.2-0.6,0.5-1,0.9-1.3s1-0.4,1.8-0.4c0.7,0,1.3,0.1,1.6,0.3
				c0.4,0.2,0.6,0.4,0.7,0.7s0.2,0.7,0.2,1.5l0,1.9c0,0.5,0,0.9,0.1,1.2s0.1,0.5,0.3,0.8h-1.6c0-0.1-0.1-0.3-0.2-0.5
				c0-0.1,0-0.2-0.1-0.2c-0.3,0.3-0.6,0.5-0.9,0.6s-0.7,0.2-1,0.2c-0.6,0-1.1-0.2-1.5-0.5s-0.5-0.8-0.5-1.3c0-0.3,0.1-0.7,0.2-0.9
				c0.2-0.3,0.4-0.5,0.7-0.6c0.3-0.1,0.7-0.3,1.3-0.4c0.8-0.1,1.3-0.3,1.6-0.4v-0.2c0-0.3-0.1-0.5-0.2-0.7s-0.4-0.2-0.9-0.2
				c-0.3,0-0.5,0.1-0.7,0.2C418.1,153.1,418,153.3,417.9,153.6z M420.1,154.9c-0.2,0.1-0.5,0.2-1,0.2c-0.5,0.1-0.7,0.2-0.9,0.3
				c-0.2,0.2-0.3,0.3-0.3,0.6c0,0.2,0.1,0.4,0.3,0.6c0.2,0.2,0.4,0.2,0.6,0.2c0.3,0,0.6-0.1,0.8-0.3c0.2-0.1,0.3-0.3,0.4-0.5
				c0-0.1,0.1-0.4,0.1-0.8V154.9z"/>
			<path id="XMLID_34_" class="st1" d="M424.8,157.8h-1.6v-6.1h1.5v0.9c0.3-0.4,0.5-0.7,0.7-0.8c0.2-0.1,0.4-0.2,0.7-0.2
				c0.4,0,0.7,0.1,1.1,0.3l-0.5,1.4c-0.3-0.2-0.5-0.3-0.8-0.3c-0.2,0-0.4,0.1-0.6,0.2c-0.2,0.1-0.3,0.4-0.4,0.7
				c-0.1,0.3-0.1,1-0.1,2.1V157.8z"/>
			<path id="XMLID_36_" class="st1" d="M431.1,151.7h1.5v0.9c0.2-0.3,0.5-0.6,0.8-0.8c0.3-0.2,0.7-0.3,1.1-0.3
				c0.7,0,1.3,0.3,1.8,0.8s0.7,1.3,0.7,2.3c0,1-0.3,1.8-0.8,2.4c-0.5,0.6-1.1,0.9-1.8,0.9c-0.3,0-0.6-0.1-0.9-0.2
				c-0.3-0.1-0.6-0.4-0.9-0.7v3.1h-1.6V151.7z M432.8,154.7c0,0.7,0.1,1.2,0.4,1.5c0.3,0.3,0.6,0.5,1,0.5c0.4,0,0.7-0.2,0.9-0.5
				c0.3-0.3,0.4-0.8,0.4-1.5c0-0.6-0.1-1.1-0.4-1.4c-0.3-0.3-0.6-0.5-1-0.5c-0.4,0-0.7,0.2-1,0.5
				C432.9,153.6,432.8,154.1,432.8,154.7z"/>
			<path id="XMLID_39_" class="st1" d="M439.6,153.6l-1.5-0.3c0.2-0.6,0.5-1,0.9-1.3s1-0.4,1.8-0.4c0.7,0,1.3,0.1,1.6,0.3
				c0.4,0.2,0.6,0.4,0.7,0.7s0.2,0.7,0.2,1.5l0,1.9c0,0.5,0,0.9,0.1,1.2s0.1,0.5,0.3,0.8h-1.6c0-0.1-0.1-0.3-0.2-0.5
				c0-0.1,0-0.2-0.1-0.2c-0.3,0.3-0.6,0.5-0.9,0.6s-0.7,0.2-1,0.2c-0.6,0-1.1-0.2-1.5-0.5s-0.5-0.8-0.5-1.3c0-0.3,0.1-0.7,0.2-0.9
				c0.2-0.3,0.4-0.5,0.7-0.6c0.3-0.1,0.7-0.3,1.3-0.4c0.8-0.1,1.3-0.3,1.6-0.4v-0.2c0-0.3-0.1-0.5-0.2-0.7s-0.4-0.2-0.9-0.2
				c-0.3,0-0.5,0.1-0.7,0.2C439.9,153.1,439.7,153.3,439.6,153.6z M441.8,154.9c-0.2,0.1-0.5,0.2-1,0.2c-0.5,0.1-0.7,0.2-0.9,0.3
				c-0.2,0.2-0.3,0.3-0.3,0.6c0,0.2,0.1,0.4,0.3,0.6c0.2,0.2,0.4,0.2,0.6,0.2c0.3,0,0.6-0.1,0.8-0.3c0.2-0.1,0.3-0.3,0.4-0.5
				c0-0.1,0.1-0.4,0.1-0.8V154.9z"/>
			<path id="XMLID_42_" class="st1" d="M450.4,153.5l-1.6,0.3c-0.1-0.3-0.2-0.6-0.4-0.7c-0.2-0.2-0.4-0.2-0.7-0.2
				c-0.4,0-0.7,0.1-1,0.4c-0.2,0.3-0.4,0.7-0.4,1.4c0,0.7,0.1,1.2,0.4,1.5c0.2,0.3,0.6,0.5,1,0.5c0.3,0,0.6-0.1,0.8-0.3
				c0.2-0.2,0.3-0.5,0.4-0.9l1.6,0.3c-0.2,0.7-0.5,1.3-1,1.7c-0.5,0.4-1.1,0.6-1.9,0.6c-0.9,0-1.6-0.3-2.1-0.9
				c-0.5-0.6-0.8-1.4-0.8-2.4c0-1,0.3-1.8,0.8-2.4s1.3-0.8,2.2-0.8c0.7,0,1.3,0.2,1.8,0.5C449.9,152.4,450.2,152.8,450.4,153.5z"/>
			<path id="XMLID_44_" class="st1" d="M451.6,150.9v-1.5h1.6v1.5H451.6z M451.6,157.8v-6.1h1.6v6.1H451.6z"/>
			<path id="XMLID_47_" class="st1" d="M458.5,155.9l1.6,0.3c-0.2,0.6-0.5,1-1,1.4s-1,0.5-1.7,0.5c-1.1,0-1.9-0.3-2.4-1
				c-0.4-0.6-0.6-1.3-0.6-2.1c0-1,0.3-1.8,0.8-2.4c0.5-0.6,1.2-0.9,2-0.9c0.9,0,1.6,0.3,2.2,0.9s0.8,1.5,0.8,2.8h-4.1
				c0,0.5,0.1,0.9,0.4,1.1c0.3,0.3,0.6,0.4,0.9,0.4c0.3,0,0.5-0.1,0.6-0.2S458.4,156.2,458.5,155.9z M458.5,154.2
				c0-0.5-0.1-0.8-0.4-1.1c-0.2-0.2-0.5-0.4-0.8-0.4c-0.4,0-0.6,0.1-0.9,0.4c-0.2,0.3-0.3,0.6-0.3,1.1H458.5z"/>
			<path id="XMLID_50_" class="st1" d="M467.1,157.8h-1.6v-3.1c0-0.7,0-1.1-0.1-1.3c-0.1-0.2-0.2-0.3-0.3-0.5
				c-0.2-0.1-0.3-0.2-0.6-0.2c-0.3,0-0.5,0.1-0.8,0.2s-0.4,0.4-0.5,0.6c-0.1,0.3-0.1,0.7-0.1,1.4v2.8h-1.6v-6.1h1.5v0.9
				c0.5-0.7,1.2-1,2-1c0.4,0,0.7,0.1,1,0.2c0.3,0.1,0.5,0.3,0.7,0.5s0.3,0.4,0.3,0.7s0.1,0.6,0.1,1.1V157.8z"/>
			<path id="XMLID_52_" class="st1" d="M471.5,151.7v1.3h-1.1v2.5c0,0.5,0,0.8,0,0.9c0,0.1,0.1,0.2,0.1,0.2c0.1,0.1,0.2,0.1,0.3,0.1
				c0.2,0,0.4-0.1,0.7-0.2l0.1,1.3c-0.4,0.2-0.8,0.2-1.3,0.2c-0.3,0-0.6,0-0.8-0.1c-0.2-0.1-0.4-0.2-0.5-0.4
				c-0.1-0.2-0.2-0.4-0.2-0.6c0-0.2-0.1-0.6-0.1-1.1V153h-0.7v-1.3h0.7v-1.2l1.6-0.9v2.2H471.5z"/>
			<path id="XMLID_54_" class="st1" d="M476.2,155.9l1.6,0.3c-0.2,0.6-0.5,1-1,1.4s-1,0.5-1.7,0.5c-1.1,0-1.9-0.3-2.4-1
				c-0.4-0.6-0.6-1.3-0.6-2.1c0-1,0.3-1.8,0.8-2.4c0.5-0.6,1.2-0.9,2-0.9c0.9,0,1.6,0.3,2.2,0.9s0.8,1.5,0.8,2.8h-4.1
				c0,0.5,0.1,0.9,0.4,1.1c0.3,0.3,0.6,0.4,0.9,0.4c0.3,0,0.5-0.1,0.6-0.2S476.1,156.2,476.2,155.9z M476.3,154.2
				c0-0.5-0.1-0.8-0.4-1.1c-0.2-0.2-0.5-0.4-0.8-0.4c-0.4,0-0.6,0.1-0.9,0.4c-0.2,0.3-0.3,0.6-0.3,1.1H476.3z"/>
		</g>
	</g>
	<line id="XMLID_1159_" class="st3" x1="108.4" y1="108.4" x2="50.4" y2="108.4"/>
	<g id="XMLID_1172_">
		<g id="XMLID_26_">
			<line id="XMLID_31_" class="st4" x1="356.7" y1="61.4" x2="354.8" y2="62"/>
			<line id="XMLID_30_" class="st5" x1="351.9" y1="62.8" x2="265.8" y2="87.6"/>
			<line id="XMLID_29_" class="st4" x1="264.3" y1="88" x2="262.4" y2="88.6"/>
			<g id="XMLID_27_">
				<polygon id="XMLID_28_" class="st6" points="266.2,78.8 265.1,87.8 270.8,94.8 249.5,92.3 				"/>
			</g>
		</g>
	</g>
	<g id="XMLID_1227_">
		<g id="XMLID_19_">
			<line id="XMLID_24_" class="st4" x1="356.7" y1="155" x2="354.8" y2="154.4"/>
			<line id="XMLID_23_" class="st5" x1="351.9" y1="153.6" x2="265.8" y2="128.8"/>
			<line id="XMLID_22_" class="st4" x1="264.3" y1="128.4" x2="262.4" y2="127.8"/>
			<g id="XMLID_20_">
				<polygon id="XMLID_21_" class="st6" points="270.8,121.6 265.1,128.6 266.2,137.6 249.5,124.1 				"/>
			</g>
		</g>
	</g>
</g>
</svg>
