<?xml version="1.0" encoding="utf-8"?>
<!-- Generator: Adobe Illustrator 16.0.0, SVG Export Plug-In . SVG Version: 6.00 Build 0)  -->
<!DOCTYPE svg PUBLIC "-//W3C//DTD SVG 1.1//EN" "http://www.w3.org/Graphics/SVG/1.1/DTD/svg11.dtd">
<svg version="1.1" id="Capa_1" xmlns="http://www.w3.org/2000/svg" xmlns:xlink="http://www.w3.org/1999/xlink" x="0px" y="0px"
	 width="308.871px" height="265.713px" viewBox="0 0 308.871 265.713" enable-background="new 0 0 308.871 265.713"
	 xml:space="preserve">
<g>
	<line fill="#FFFFFF" x1="39.886" y1="26.259" x2="39.886" y2="232.884"/>
	
		<line fill="none" stroke="#11100E" stroke-width="2" stroke-miterlimit="10" stroke-dasharray="5,5" x1="39.886" y1="26.259" x2="39.886" y2="232.884"/>
	<rect x="1.5" y="1.5" fill="#FFFFFF" width="76.771" height="39.861"/>
	<rect x="1.5" y="1.5" fill="none" stroke="#0367A6" stroke-width="3" stroke-miterlimit="10" width="76.771" height="39.861"/>
	<rect x="26.148" y="89.04" fill="#FFFFFF" width="27.476" height="27.476"/>
	
		<rect x="26.148" y="89.04" fill="none" stroke="#11100E" stroke-width="2" stroke-miterlimit="10" width="27.476" height="27.476"/>
	<line fill="#FFFFFF" x1="154.436" y1="26.259" x2="154.436" y2="226.884"/>
	
		<line fill="none" stroke="#11100E" stroke-width="2" stroke-miterlimit="10" stroke-dasharray="5,5" x1="154.436" y1="26.259" x2="154.436" y2="226.884"/>
	<rect x="116.05" y="1.5" fill="#FFFFFF" width="76.771" height="39.861"/>
	<rect x="116.05" y="1.5" fill="none" stroke="#F29422" stroke-width="3" stroke-miterlimit="10" width="76.771" height="39.861"/>
	<rect x="140.698" y="89.04" fill="#FFFFFF" width="27.476" height="27.476"/>
	
		<rect x="140.698" y="89.04" fill="none" stroke="#11100E" stroke-width="2" stroke-miterlimit="10" width="27.476" height="27.476"/>
	<line fill="#FFFFFF" x1="268.986" y1="26.259" x2="268.986" y2="232.884"/>
	
		<line fill="none" stroke="#11100E" stroke-width="2" stroke-miterlimit="10" stroke-dasharray="5,5" x1="268.986" y1="26.259" x2="268.986" y2="232.884"/>
	<rect x="230.6" y="1.5" fill="#FFFFFF" width="76.771" height="39.861"/>
	<rect x="230.6" y="1.5" fill="none" stroke="#8BBE33" stroke-width="3" stroke-miterlimit="10" width="76.771" height="39.861"/>
	<rect x="255.248" y="89.04" fill="#FFFFFF" width="27.476" height="27.476"/>
	
		<rect x="255.248" y="89.04" fill="none" stroke="#11100E" stroke-width="2" stroke-miterlimit="10" width="27.476" height="27.476"/>
	<line fill="#FFFFFF" x1="39.886" y1="144.157" x2="152.852" y2="144.157"/>
	<line fill="none" stroke="#706F6F" stroke-width="2" stroke-miterlimit="10" x1="39.885" y1="144.157" x2="142.26" y2="144.157"/>
	<polygon fill="#706F6F" points="152.852,144.157 137.928,150.255 141.469,144.157 137.928,138.06 	"/>
	<line fill="#FFFFFF" x1="39.886" y1="226.135" x2="268.986" y2="226.135"/>
	<line fill="none" stroke="#706F6F" stroke-width="2" stroke-miterlimit="10" x1="50.477" y1="226.135" x2="268.986" y2="226.135"/>
	<polygon fill="#706F6F" points="39.885,226.135 54.81,232.232 51.269,226.135 54.81,220.037 	"/>
	<line fill="#FFFFFF" x1="156.02" y1="171.063" x2="268.986" y2="171.063"/>
	<line fill="none" stroke="#706F6F" stroke-width="2" stroke-miterlimit="10" x1="156.02" y1="171.063" x2="258.395" y2="171.063"/>
	<polygon fill="#706F6F" points="268.986,171.063 254.062,177.161 257.603,171.063 254.062,164.967 	"/>
	<g>
		<path d="M16.63,21.988c0-1.463,0.393-2.609,1.179-3.437c0.786-0.828,1.8-1.242,3.043-1.242c0.813,0,1.547,0.194,2.201,0.583
			c0.653,0.389,1.151,0.931,1.494,1.626c0.343,0.696,0.514,1.484,0.514,2.367c0,0.894-0.18,1.693-0.541,2.399
			s-0.872,1.24-1.534,1.603c-0.661,0.363-1.375,0.544-2.141,0.544c-0.83,0-1.571-0.201-2.225-0.602
			c-0.654-0.401-1.149-0.948-1.485-1.642C16.798,23.496,16.63,22.762,16.63,21.988z M17.833,22.006c0,1.062,0.286,1.899,0.857,2.51
			c0.571,0.612,1.288,0.917,2.15,0.917c0.878,0,1.601-0.309,2.168-0.926c0.567-0.617,0.851-1.493,0.851-2.628
			c0-0.717-0.121-1.344-0.364-1.879s-0.597-0.95-1.064-1.245c-0.467-0.294-0.991-0.442-1.572-0.442
			c-0.826,0-1.537,0.284-2.132,0.851S17.833,20.679,17.833,22.006z"/>
		<path d="M27.424,26.282h-1.004v-8.815h1.083v3.145c0.457-0.573,1.041-0.86,1.75-0.86c0.393,0,0.765,0.079,1.115,0.237
			c0.351,0.158,0.64,0.381,0.866,0.667c0.226,0.287,0.404,0.632,0.532,1.037c0.128,0.405,0.192,0.838,0.192,1.299
			c0,1.094-0.271,1.94-0.812,2.538c-0.541,0.597-1.19,0.896-1.948,0.896c-0.754,0-1.345-0.315-1.774-0.944V26.282z M27.412,23.041
			c0,0.766,0.104,1.319,0.313,1.66c0.34,0.557,0.802,0.836,1.383,0.836c0.473,0,0.882-0.206,1.227-0.616
			c0.345-0.411,0.517-1.023,0.517-1.837c0-0.833-0.166-1.449-0.496-1.846c-0.331-0.396-0.731-0.595-1.2-0.595
			c-0.473,0-0.882,0.206-1.227,0.617C27.584,21.668,27.412,22.263,27.412,23.041z"/>
		<path d="M31.897,28.759l0.205-0.92c0.216,0.056,0.387,0.084,0.511,0.084c0.22,0,0.385-0.073,0.493-0.219
			c0.108-0.146,0.162-0.512,0.162-1.098v-6.711h1.083v6.735c0,0.786-0.102,1.333-0.307,1.642c-0.261,0.401-0.694,0.602-1.299,0.602
			C32.453,28.874,32.17,28.835,31.897,28.759z M33.269,18.723v-1.257h1.083v1.257H33.269z"/>
		<path d="M40.383,24.225l1.118,0.138c-0.176,0.654-0.503,1.161-0.98,1.521s-1.086,0.542-1.828,0.542
			c-0.934,0-1.675-0.288-2.222-0.863c-0.547-0.575-0.821-1.382-0.821-2.42c0-1.074,0.276-1.908,0.83-2.501s1.271-0.89,2.153-0.89
			c0.854,0,1.551,0.291,2.093,0.872c0.541,0.582,0.812,1.399,0.812,2.454c0,0.064-0.002,0.16-0.006,0.289h-4.763
			c0.04,0.702,0.239,1.239,0.596,1.612c0.356,0.373,0.801,0.559,1.335,0.559c0.396,0,0.735-0.104,1.016-0.312
			C39.996,25.015,40.218,24.682,40.383,24.225z M36.829,22.475h3.566c-0.048-0.537-0.184-0.94-0.409-1.208
			c-0.345-0.417-0.792-0.625-1.341-0.625c-0.497,0-0.915,0.167-1.254,0.499C37.052,21.473,36.865,21.918,36.829,22.475z"/>
		<path d="M45.223,25.313l0.157,0.956c-0.305,0.064-0.578,0.096-0.818,0.096c-0.393,0-0.698-0.062-0.914-0.186
			c-0.216-0.125-0.369-0.288-0.457-0.49c-0.088-0.203-0.132-0.628-0.132-1.278v-3.674h-0.794v-0.842h0.794v-1.582l1.076-0.649v2.231
			h1.088v0.842h-1.088v3.734c0,0.309,0.019,0.507,0.057,0.595c0.038,0.088,0.101,0.159,0.187,0.21
			c0.086,0.052,0.209,0.078,0.37,0.078C44.869,25.355,45.027,25.342,45.223,25.313z"/>
		<path d="M45.878,23.089c0-1.183,0.329-2.059,0.986-2.628c0.549-0.473,1.219-0.709,2.008-0.709c0.878,0,1.596,0.288,2.153,0.863
			s0.836,1.37,0.836,2.384c0,0.822-0.123,1.468-0.37,1.939c-0.247,0.471-0.605,0.836-1.077,1.097
			c-0.471,0.261-0.985,0.391-1.542,0.391c-0.894,0-1.616-0.287-2.167-0.86C46.154,24.993,45.878,24.167,45.878,23.089z
			 M46.991,23.089c0,0.817,0.178,1.43,0.535,1.837c0.356,0.407,0.806,0.61,1.347,0.61c0.538,0,0.984-0.205,1.341-0.613
			c0.356-0.409,0.535-1.032,0.535-1.87c0-0.79-0.18-1.388-0.538-1.795c-0.359-0.407-0.805-0.61-1.338-0.61
			c-0.541,0-0.99,0.202-1.347,0.607C47.169,21.66,46.991,22.271,46.991,23.089z"/>
		<path d="M60.329,26.282h-1.083v-6.897c-0.261,0.249-0.603,0.497-1.025,0.746c-0.423,0.249-0.803,0.435-1.14,0.56v-1.046
			c0.605-0.285,1.135-0.629,1.588-1.034c0.453-0.405,0.773-0.798,0.962-1.179h0.698V26.282z"/>
	</g>
	<g>
		<path d="M62.98,158.881v-6.386h0.968v0.896c0.201-0.312,0.467-0.564,0.8-0.755c0.333-0.19,0.712-0.285,1.137-0.285
			c0.473,0,0.861,0.098,1.164,0.295c0.303,0.196,0.516,0.471,0.64,0.823c0.505-0.745,1.163-1.118,1.973-1.118
			c0.633,0,1.121,0.175,1.461,0.526c0.341,0.351,0.511,0.891,0.511,1.62v4.384h-1.076v-4.022c0-0.434-0.035-0.745-0.105-0.936
			c-0.07-0.19-0.197-0.344-0.382-0.46c-0.184-0.116-0.401-0.175-0.649-0.175c-0.449,0-0.822,0.149-1.118,0.448
			c-0.297,0.299-0.445,0.777-0.445,1.435v3.71h-1.082v-4.149c0-0.48-0.088-0.842-0.265-1.082c-0.177-0.24-0.465-0.361-0.866-0.361
			c-0.305,0-0.586,0.081-0.845,0.241s-0.446,0.395-0.562,0.703s-0.174,0.754-0.174,1.335v3.313H62.98z"/>
		<path d="M77.61,156.824l1.118,0.139c-0.176,0.653-0.503,1.16-0.98,1.521c-0.477,0.36-1.086,0.541-1.828,0.541
			c-0.934,0-1.675-0.288-2.222-0.863c-0.547-0.575-0.821-1.382-0.821-2.42c0-1.074,0.276-1.908,0.83-2.502
			c0.553-0.593,1.271-0.89,2.153-0.89c0.854,0,1.551,0.29,2.093,0.872c0.541,0.581,0.812,1.398,0.812,2.453
			c0,0.064-0.002,0.16-0.006,0.289h-4.763c0.04,0.701,0.239,1.238,0.596,1.611c0.356,0.373,0.801,0.559,1.335,0.559
			c0.396,0,0.735-0.104,1.016-0.312C77.223,157.614,77.446,157.281,77.61,156.824z M74.056,155.074h3.566
			c-0.048-0.537-0.184-0.939-0.409-1.208c-0.345-0.417-0.792-0.626-1.341-0.626c-0.497,0-0.915,0.167-1.254,0.499
			C74.28,154.072,74.092,154.518,74.056,155.074z"/>
		<path d="M80.088,158.881v-6.386h0.974v0.907c0.469-0.701,1.146-1.052,2.032-1.052c0.385,0,0.739,0.069,1.062,0.207
			c0.323,0.139,0.564,0.32,0.725,0.544c0.16,0.225,0.272,0.491,0.337,0.8c0.04,0.201,0.06,0.552,0.06,1.053v3.927h-1.083v-3.885
			c0-0.44-0.042-0.771-0.126-0.989c-0.084-0.218-0.233-0.393-0.448-0.522c-0.215-0.131-0.466-0.196-0.755-0.196
			c-0.461,0-0.859,0.146-1.193,0.439c-0.335,0.293-0.502,0.848-0.502,1.666v3.487H80.088z"/>
		<path d="M86.504,156.975l1.07-0.168c0.06,0.429,0.228,0.757,0.502,0.985c0.275,0.229,0.659,0.343,1.152,0.343
			c0.497,0,0.866-0.101,1.106-0.304c0.24-0.202,0.361-0.439,0.361-0.712c0-0.245-0.106-0.438-0.319-0.577
			c-0.148-0.097-0.517-0.219-1.106-0.367c-0.794-0.2-1.344-0.374-1.651-0.521c-0.307-0.146-0.539-0.349-0.697-0.607
			c-0.159-0.258-0.238-0.544-0.238-0.856c0-0.284,0.065-0.548,0.196-0.791c0.13-0.242,0.308-0.443,0.532-0.604
			c0.168-0.124,0.398-0.229,0.689-0.315c0.291-0.086,0.602-0.129,0.935-0.129c0.501,0,0.941,0.072,1.32,0.216
			c0.379,0.145,0.658,0.34,0.839,0.587c0.18,0.246,0.305,0.576,0.373,0.989l-1.058,0.145c-0.048-0.329-0.188-0.586-0.418-0.771
			c-0.23-0.184-0.556-0.276-0.977-0.276c-0.497,0-0.852,0.082-1.064,0.247c-0.212,0.164-0.319,0.356-0.319,0.577
			c0,0.14,0.044,0.267,0.132,0.379c0.088,0.116,0.227,0.212,0.415,0.288c0.108,0.04,0.427,0.133,0.956,0.276
			c0.766,0.205,1.3,0.372,1.603,0.503c0.303,0.13,0.54,0.319,0.712,0.568c0.172,0.248,0.259,0.557,0.259,0.926
			c0,0.36-0.105,0.7-0.316,1.02c-0.21,0.318-0.514,0.564-0.911,0.739c-0.397,0.174-0.846,0.262-1.347,0.262
			c-0.83,0-1.462-0.173-1.897-0.518C86.902,158.163,86.624,157.652,86.504,156.975z"/>
		<path d="M97.262,158.093c-0.401,0.341-0.787,0.582-1.158,0.722c-0.371,0.141-0.769,0.211-1.193,0.211
			c-0.702,0-1.241-0.172-1.618-0.515s-0.565-0.78-0.565-1.313c0-0.312,0.071-0.599,0.214-0.857c0.142-0.258,0.329-0.466,0.559-0.622
			s0.49-0.274,0.779-0.354c0.212-0.057,0.533-0.11,0.962-0.162c0.874-0.104,1.518-0.229,1.93-0.373
			c0.004-0.148,0.006-0.243,0.006-0.283c0-0.44-0.103-0.751-0.307-0.932c-0.277-0.244-0.688-0.367-1.233-0.367
			c-0.509,0-0.885,0.09-1.127,0.268c-0.243,0.179-0.422,0.494-0.538,0.947l-1.059-0.145c0.096-0.453,0.254-0.818,0.475-1.097
			c0.22-0.279,0.539-0.493,0.956-0.644s0.9-0.226,1.449-0.226c0.545,0,0.988,0.064,1.329,0.192s0.591,0.289,0.751,0.484
			c0.161,0.194,0.272,0.439,0.337,0.736c0.036,0.185,0.054,0.517,0.054,0.998v1.443c0,1.006,0.023,1.643,0.069,1.909
			c0.046,0.267,0.137,0.522,0.274,0.767h-1.131C97.366,158.656,97.294,158.394,97.262,158.093z M97.171,155.676
			c-0.393,0.16-0.982,0.297-1.768,0.409c-0.445,0.063-0.76,0.136-0.944,0.216c-0.185,0.081-0.327,0.198-0.427,0.353
			c-0.101,0.154-0.15,0.325-0.15,0.514c0,0.289,0.109,0.529,0.328,0.722c0.218,0.192,0.538,0.289,0.959,0.289
			c0.417,0,0.788-0.092,1.113-0.274c0.325-0.182,0.563-0.432,0.715-0.748c0.116-0.245,0.174-0.605,0.174-1.083V155.676z"/>
		<path d="M98.566,161.358l0.205-0.92c0.216,0.056,0.387,0.084,0.511,0.084c0.22,0,0.385-0.073,0.493-0.22
			c0.108-0.146,0.162-0.512,0.162-1.097v-6.711h1.083v6.734c0,0.786-0.102,1.333-0.307,1.642c-0.261,0.401-0.694,0.602-1.299,0.602
			C99.122,161.473,98.839,161.435,98.566,161.358z M99.938,151.322v-1.257h1.083v1.257H99.938z"/>
		<path d="M107.052,156.824l1.118,0.139c-0.176,0.653-0.503,1.16-0.98,1.521c-0.477,0.36-1.086,0.541-1.828,0.541
			c-0.934,0-1.675-0.288-2.222-0.863c-0.547-0.575-0.821-1.382-0.821-2.42c0-1.074,0.276-1.908,0.83-2.502
			c0.553-0.593,1.271-0.89,2.153-0.89c0.854,0,1.551,0.29,2.093,0.872c0.541,0.581,0.812,1.398,0.812,2.453
			c0,0.064-0.002,0.16-0.006,0.289h-4.763c0.04,0.701,0.239,1.238,0.596,1.611c0.356,0.373,0.801,0.559,1.335,0.559
			c0.396,0,0.735-0.104,1.016-0.312C106.665,157.614,106.887,157.281,107.052,156.824z M103.498,155.074h3.566
			c-0.048-0.537-0.184-0.939-0.409-1.208c-0.345-0.417-0.792-0.626-1.341-0.626c-0.497,0-0.915,0.167-1.254,0.499
			C103.721,154.072,103.534,154.518,103.498,155.074z"/>
		<path d="M116.727,158.881h-1.083v-6.897c-0.261,0.249-0.603,0.497-1.025,0.746c-0.423,0.248-0.803,0.435-1.14,0.559v-1.046
			c0.605-0.284,1.135-0.629,1.588-1.034c0.453-0.405,0.773-0.798,0.962-1.179h0.698V158.881z"/>
	</g>
	<g>
		<path d="M177.315,187.784v-6.386h0.968v0.896c0.201-0.312,0.467-0.564,0.8-0.755c0.333-0.19,0.712-0.285,1.137-0.285
			c0.473,0,0.861,0.098,1.164,0.295c0.303,0.196,0.516,0.471,0.64,0.823c0.505-0.745,1.163-1.118,1.973-1.118
			c0.633,0,1.121,0.175,1.461,0.526c0.341,0.351,0.511,0.891,0.511,1.62v4.384h-1.076v-4.022c0-0.434-0.035-0.745-0.105-0.936
			c-0.07-0.19-0.197-0.344-0.382-0.46c-0.184-0.116-0.401-0.175-0.649-0.175c-0.449,0-0.822,0.149-1.118,0.448
			c-0.297,0.299-0.445,0.777-0.445,1.435v3.71h-1.082v-4.149c0-0.48-0.088-0.842-0.265-1.082c-0.177-0.24-0.465-0.361-0.866-0.361
			c-0.305,0-0.586,0.081-0.845,0.241s-0.446,0.395-0.562,0.703s-0.174,0.754-0.174,1.335v3.313H177.315z"/>
		<path d="M191.945,185.728l1.118,0.139c-0.176,0.653-0.503,1.16-0.98,1.521c-0.477,0.36-1.086,0.541-1.828,0.541
			c-0.934,0-1.675-0.288-2.222-0.863c-0.547-0.575-0.821-1.382-0.821-2.42c0-1.074,0.276-1.908,0.83-2.502
			c0.553-0.593,1.271-0.89,2.153-0.89c0.854,0,1.551,0.29,2.093,0.872c0.541,0.581,0.812,1.398,0.812,2.453
			c0,0.064-0.002,0.16-0.006,0.289h-4.763c0.04,0.701,0.239,1.238,0.596,1.611c0.356,0.373,0.801,0.559,1.335,0.559
			c0.396,0,0.735-0.104,1.016-0.312C191.558,186.518,191.781,186.185,191.945,185.728z M188.391,183.978h3.566
			c-0.048-0.537-0.184-0.939-0.409-1.208c-0.345-0.417-0.792-0.626-1.341-0.626c-0.497,0-0.915,0.167-1.254,0.499
			C188.615,182.976,188.427,183.421,188.391,183.978z"/>
		<path d="M194.423,187.784v-6.386h0.974v0.907c0.469-0.701,1.146-1.052,2.032-1.052c0.385,0,0.739,0.069,1.062,0.207
			c0.323,0.139,0.564,0.32,0.725,0.544c0.16,0.225,0.272,0.491,0.337,0.8c0.04,0.201,0.06,0.552,0.06,1.053v3.927h-1.083v-3.885
			c0-0.44-0.042-0.771-0.126-0.989c-0.084-0.218-0.233-0.393-0.448-0.522c-0.215-0.131-0.466-0.196-0.755-0.196
			c-0.461,0-0.859,0.146-1.193,0.439c-0.335,0.293-0.502,0.848-0.502,1.666v3.487H194.423z"/>
		<path d="M200.839,185.878l1.07-0.168c0.06,0.429,0.228,0.757,0.502,0.985c0.275,0.229,0.659,0.343,1.152,0.343
			c0.497,0,0.866-0.101,1.106-0.304c0.24-0.202,0.361-0.439,0.361-0.712c0-0.245-0.106-0.438-0.319-0.577
			c-0.148-0.097-0.517-0.219-1.106-0.367c-0.794-0.2-1.344-0.374-1.651-0.521c-0.307-0.146-0.539-0.349-0.697-0.607
			c-0.159-0.258-0.238-0.544-0.238-0.856c0-0.284,0.065-0.548,0.196-0.791c0.13-0.242,0.308-0.443,0.532-0.604
			c0.168-0.124,0.398-0.229,0.689-0.315c0.291-0.086,0.602-0.129,0.935-0.129c0.501,0,0.941,0.072,1.32,0.216
			c0.379,0.145,0.658,0.34,0.839,0.587c0.18,0.246,0.305,0.576,0.373,0.989l-1.058,0.145c-0.048-0.329-0.188-0.586-0.418-0.771
			c-0.23-0.184-0.556-0.276-0.977-0.276c-0.497,0-0.852,0.082-1.064,0.247c-0.212,0.164-0.319,0.356-0.319,0.577
			c0,0.14,0.044,0.267,0.132,0.379c0.088,0.116,0.227,0.212,0.415,0.288c0.108,0.04,0.427,0.133,0.956,0.276
			c0.766,0.205,1.3,0.372,1.603,0.503c0.303,0.13,0.54,0.319,0.712,0.568c0.172,0.248,0.259,0.557,0.259,0.926
			c0,0.36-0.105,0.7-0.316,1.02c-0.21,0.318-0.514,0.564-0.911,0.739c-0.397,0.174-0.846,0.262-1.347,0.262
			c-0.83,0-1.462-0.173-1.897-0.518C201.237,187.066,200.959,186.556,200.839,185.878z"/>
		<path d="M211.597,186.996c-0.401,0.341-0.787,0.582-1.158,0.722c-0.371,0.141-0.769,0.211-1.193,0.211
			c-0.702,0-1.241-0.172-1.618-0.515s-0.565-0.78-0.565-1.313c0-0.312,0.071-0.599,0.214-0.857c0.142-0.258,0.329-0.466,0.559-0.622
			s0.49-0.274,0.779-0.354c0.212-0.057,0.533-0.11,0.962-0.162c0.874-0.104,1.518-0.229,1.93-0.373
			c0.004-0.148,0.006-0.243,0.006-0.283c0-0.44-0.103-0.751-0.307-0.932c-0.277-0.244-0.688-0.367-1.233-0.367
			c-0.509,0-0.885,0.09-1.127,0.268c-0.243,0.179-0.422,0.494-0.538,0.947l-1.059-0.145c0.096-0.453,0.254-0.818,0.475-1.097
			c0.22-0.279,0.539-0.493,0.956-0.644s0.9-0.226,1.449-0.226c0.545,0,0.988,0.064,1.329,0.192s0.591,0.289,0.751,0.484
			c0.161,0.194,0.272,0.439,0.337,0.736c0.036,0.185,0.054,0.517,0.054,0.998v1.443c0,1.006,0.023,1.643,0.069,1.909
			c0.046,0.267,0.137,0.522,0.274,0.767h-1.131C211.701,187.56,211.629,187.297,211.597,186.996z M211.506,184.579
			c-0.393,0.16-0.982,0.297-1.768,0.409c-0.445,0.063-0.76,0.136-0.944,0.216c-0.185,0.081-0.327,0.198-0.427,0.353
			c-0.101,0.154-0.15,0.325-0.15,0.514c0,0.289,0.109,0.529,0.328,0.722c0.218,0.192,0.538,0.289,0.959,0.289
			c0.417,0,0.788-0.092,1.113-0.274c0.325-0.182,0.563-0.432,0.715-0.748c0.116-0.245,0.174-0.605,0.174-1.083V184.579z"/>
		<path d="M212.901,190.262l0.205-0.92c0.216,0.056,0.387,0.084,0.511,0.084c0.22,0,0.385-0.073,0.493-0.22
			c0.108-0.146,0.162-0.512,0.162-1.097v-6.711h1.083v6.734c0,0.786-0.102,1.333-0.307,1.642c-0.261,0.401-0.694,0.602-1.299,0.602
			C213.457,190.376,213.174,190.338,212.901,190.262z M214.272,180.226v-1.257h1.083v1.257H214.272z"/>
		<path d="M221.387,185.728l1.118,0.139c-0.176,0.653-0.503,1.16-0.98,1.521c-0.477,0.36-1.086,0.541-1.828,0.541
			c-0.934,0-1.675-0.288-2.222-0.863c-0.547-0.575-0.821-1.382-0.821-2.42c0-1.074,0.276-1.908,0.83-2.502
			c0.553-0.593,1.271-0.89,2.153-0.89c0.854,0,1.551,0.29,2.093,0.872c0.541,0.581,0.812,1.398,0.812,2.453
			c0,0.064-0.002,0.16-0.006,0.289h-4.763c0.04,0.701,0.239,1.238,0.596,1.611c0.356,0.373,0.801,0.559,1.335,0.559
			c0.396,0,0.735-0.104,1.016-0.312C221,186.518,221.222,186.185,221.387,185.728z M217.833,183.978h3.566
			c-0.048-0.537-0.184-0.939-0.409-1.208c-0.345-0.417-0.792-0.626-1.341-0.626c-0.497,0-0.915,0.167-1.254,0.499
			C218.056,182.976,217.869,183.421,217.833,183.978z"/>
		<path d="M232.673,186.744v1.04h-5.827c-0.008-0.261,0.034-0.511,0.126-0.752c0.148-0.396,0.386-0.787,0.713-1.172
			c0.327-0.386,0.798-0.83,1.416-1.335c0.958-0.786,1.605-1.408,1.942-1.867c0.336-0.459,0.505-0.894,0.505-1.303
			c0-0.429-0.153-0.79-0.46-1.085s-0.707-0.442-1.2-0.442c-0.521,0-0.938,0.157-1.25,0.47c-0.313,0.312-0.471,0.745-0.475,1.299
			l-1.113-0.114c0.076-0.83,0.363-1.462,0.86-1.897c0.497-0.435,1.165-0.652,2.002-0.652c0.846,0,1.516,0.234,2.009,0.703
			c0.493,0.47,0.739,1.051,0.739,1.744c0,0.353-0.072,0.7-0.216,1.04c-0.144,0.341-0.384,0.7-0.719,1.077
			c-0.334,0.377-0.891,0.894-1.668,1.551c-0.649,0.546-1.066,0.915-1.251,1.109c-0.184,0.195-0.336,0.391-0.457,0.587H232.673z"/>
	</g>
	<g>
		<path d="M128.411,245.716v-6.386h0.968v0.896c0.201-0.312,0.467-0.564,0.8-0.755c0.333-0.19,0.712-0.285,1.137-0.285
			c0.473,0,0.861,0.098,1.164,0.295c0.303,0.196,0.516,0.471,0.64,0.823c0.505-0.745,1.163-1.118,1.973-1.118
			c0.633,0,1.121,0.175,1.461,0.526c0.341,0.351,0.511,0.891,0.511,1.62v4.384h-1.076v-4.022c0-0.434-0.035-0.745-0.105-0.936
			c-0.07-0.19-0.197-0.344-0.382-0.46c-0.184-0.116-0.401-0.175-0.649-0.175c-0.449,0-0.822,0.149-1.118,0.448
			c-0.297,0.299-0.445,0.777-0.445,1.435v3.71h-1.082v-4.149c0-0.48-0.088-0.842-0.265-1.082c-0.177-0.24-0.465-0.361-0.866-0.361
			c-0.305,0-0.586,0.081-0.845,0.241s-0.446,0.395-0.562,0.703s-0.174,0.754-0.174,1.335v3.313H128.411z"/>
		<path d="M143.042,243.659l1.118,0.139c-0.176,0.653-0.503,1.16-0.98,1.521c-0.477,0.36-1.086,0.541-1.828,0.541
			c-0.934,0-1.675-0.288-2.222-0.863c-0.547-0.575-0.821-1.382-0.821-2.42c0-1.074,0.276-1.908,0.83-2.502
			c0.553-0.593,1.271-0.89,2.153-0.89c0.854,0,1.551,0.29,2.093,0.872c0.541,0.581,0.812,1.398,0.812,2.453
			c0,0.064-0.002,0.16-0.006,0.289h-4.763c0.04,0.701,0.239,1.238,0.596,1.611c0.356,0.373,0.801,0.559,1.335,0.559
			c0.396,0,0.735-0.104,1.016-0.312C142.654,244.449,142.877,244.116,143.042,243.659z M139.487,241.909h3.566
			c-0.048-0.537-0.184-0.939-0.409-1.208c-0.345-0.417-0.792-0.626-1.341-0.626c-0.497,0-0.915,0.167-1.254,0.499
			C139.711,240.907,139.523,241.353,139.487,241.909z"/>
		<path d="M145.519,245.716v-6.386h0.974v0.907c0.469-0.701,1.146-1.052,2.032-1.052c0.385,0,0.739,0.069,1.062,0.207
			c0.323,0.139,0.564,0.32,0.725,0.544c0.16,0.225,0.272,0.491,0.337,0.8c0.04,0.201,0.06,0.552,0.06,1.053v3.927h-1.083v-3.885
			c0-0.44-0.042-0.771-0.126-0.989c-0.084-0.218-0.233-0.393-0.448-0.522c-0.215-0.131-0.466-0.196-0.755-0.196
			c-0.461,0-0.859,0.146-1.193,0.439c-0.335,0.293-0.502,0.848-0.502,1.666v3.487H145.519z"/>
		<path d="M151.935,243.81l1.07-0.168c0.06,0.429,0.228,0.757,0.502,0.985c0.275,0.229,0.659,0.343,1.152,0.343
			c0.497,0,0.866-0.101,1.106-0.304c0.24-0.202,0.361-0.439,0.361-0.712c0-0.245-0.106-0.438-0.319-0.577
			c-0.148-0.097-0.517-0.219-1.106-0.367c-0.794-0.2-1.344-0.374-1.651-0.521c-0.307-0.146-0.539-0.349-0.697-0.607
			c-0.159-0.258-0.238-0.544-0.238-0.856c0-0.284,0.065-0.548,0.196-0.791c0.13-0.242,0.308-0.443,0.532-0.604
			c0.168-0.124,0.398-0.229,0.689-0.315c0.291-0.086,0.602-0.129,0.935-0.129c0.501,0,0.941,0.072,1.32,0.216
			c0.379,0.145,0.658,0.34,0.839,0.587c0.18,0.246,0.305,0.576,0.373,0.989l-1.058,0.145c-0.048-0.329-0.188-0.586-0.418-0.771
			c-0.23-0.184-0.556-0.276-0.977-0.276c-0.497,0-0.852,0.082-1.064,0.247c-0.212,0.164-0.319,0.356-0.319,0.577
			c0,0.14,0.044,0.267,0.132,0.379c0.088,0.116,0.227,0.212,0.415,0.288c0.108,0.04,0.427,0.133,0.956,0.276
			c0.766,0.205,1.3,0.372,1.603,0.503c0.303,0.13,0.54,0.319,0.712,0.568c0.172,0.248,0.259,0.557,0.259,0.926
			c0,0.36-0.105,0.7-0.316,1.02c-0.21,0.318-0.514,0.564-0.911,0.739c-0.397,0.174-0.846,0.262-1.347,0.262
			c-0.83,0-1.462-0.173-1.897-0.518C152.333,244.998,152.055,244.487,151.935,243.81z"/>
		<path d="M162.693,244.928c-0.401,0.341-0.787,0.582-1.158,0.722c-0.371,0.141-0.769,0.211-1.193,0.211
			c-0.702,0-1.241-0.172-1.618-0.515s-0.565-0.78-0.565-1.313c0-0.312,0.071-0.599,0.214-0.857c0.142-0.258,0.329-0.466,0.559-0.622
			s0.49-0.274,0.779-0.354c0.212-0.057,0.533-0.11,0.962-0.162c0.874-0.104,1.518-0.229,1.93-0.373
			c0.004-0.148,0.006-0.243,0.006-0.283c0-0.44-0.103-0.751-0.307-0.932c-0.277-0.244-0.688-0.367-1.233-0.367
			c-0.509,0-0.885,0.09-1.127,0.268c-0.243,0.179-0.422,0.494-0.538,0.947l-1.059-0.145c0.096-0.453,0.254-0.818,0.475-1.097
			c0.22-0.279,0.539-0.493,0.956-0.644s0.9-0.226,1.449-0.226c0.545,0,0.988,0.064,1.329,0.192s0.591,0.289,0.751,0.484
			c0.161,0.194,0.272,0.439,0.337,0.736c0.036,0.185,0.054,0.517,0.054,0.998v1.443c0,1.006,0.023,1.643,0.069,1.909
			c0.046,0.267,0.137,0.522,0.274,0.767h-1.131C162.797,245.491,162.725,245.229,162.693,244.928z M162.603,242.511
			c-0.393,0.16-0.982,0.297-1.768,0.409c-0.445,0.063-0.76,0.136-0.944,0.216c-0.185,0.081-0.327,0.198-0.427,0.353
			c-0.101,0.154-0.15,0.325-0.15,0.514c0,0.289,0.109,0.529,0.328,0.722c0.218,0.192,0.538,0.289,0.959,0.289
			c0.417,0,0.788-0.092,1.113-0.274c0.325-0.182,0.563-0.432,0.715-0.748c0.116-0.245,0.174-0.605,0.174-1.083V242.511z"/>
		<path d="M163.998,248.193l0.205-0.92c0.216,0.056,0.387,0.084,0.511,0.084c0.22,0,0.385-0.073,0.493-0.22
			c0.108-0.146,0.162-0.512,0.162-1.097v-6.711h1.083v6.734c0,0.786-0.102,1.333-0.307,1.642c-0.261,0.401-0.694,0.602-1.299,0.602
			C164.553,248.308,164.271,248.27,163.998,248.193z M165.369,238.157V236.9h1.083v1.257H165.369z"/>
		<path d="M172.483,243.659l1.118,0.139c-0.176,0.653-0.503,1.16-0.98,1.521c-0.477,0.36-1.086,0.541-1.828,0.541
			c-0.934,0-1.675-0.288-2.222-0.863c-0.547-0.575-0.821-1.382-0.821-2.42c0-1.074,0.276-1.908,0.83-2.502
			c0.553-0.593,1.271-0.89,2.153-0.89c0.854,0,1.551,0.29,2.093,0.872c0.541,0.581,0.812,1.398,0.812,2.453
			c0,0.064-0.002,0.16-0.006,0.289h-4.763c0.04,0.701,0.239,1.238,0.596,1.611c0.356,0.373,0.801,0.559,1.335,0.559
			c0.396,0,0.735-0.104,1.016-0.312C172.096,244.449,172.318,244.116,172.483,243.659z M168.929,241.909h3.566
			c-0.048-0.537-0.184-0.939-0.409-1.208c-0.345-0.417-0.792-0.626-1.341-0.626c-0.497,0-0.915,0.167-1.254,0.499
			C169.152,240.907,168.965,241.353,168.929,241.909z"/>
		<path d="M178.087,243.389l1.083-0.145c0.124,0.613,0.335,1.056,0.634,1.326s0.663,0.406,1.091,0.406
			c0.509,0,0.939-0.177,1.29-0.529c0.351-0.353,0.526-0.79,0.526-1.312c0-0.497-0.163-0.906-0.487-1.229
			c-0.325-0.322-0.738-0.484-1.239-0.484c-0.205,0-0.459,0.041-0.764,0.121l0.12-0.95c0.072,0.008,0.13,0.012,0.174,0.012
			c0.461,0,0.876-0.12,1.245-0.36c0.369-0.241,0.553-0.611,0.553-1.113c0-0.396-0.134-0.726-0.403-0.985
			c-0.269-0.261-0.616-0.392-1.041-0.392c-0.421,0-0.771,0.133-1.052,0.397s-0.461,0.661-0.541,1.19l-1.083-0.192
			c0.132-0.726,0.433-1.288,0.902-1.687c0.469-0.399,1.052-0.599,1.75-0.599c0.481,0,0.924,0.104,1.329,0.31
			c0.405,0.207,0.714,0.488,0.929,0.845c0.214,0.357,0.322,0.736,0.322,1.137c0,0.381-0.102,0.728-0.307,1.04
			s-0.507,0.562-0.908,0.746c0.521,0.12,0.926,0.37,1.215,0.748c0.289,0.379,0.433,0.854,0.433,1.423
			c0,0.77-0.281,1.422-0.842,1.957c-0.562,0.535-1.271,0.803-2.129,0.803c-0.774,0-1.416-0.23-1.927-0.691
			S178.159,244.122,178.087,243.389z"/>
	</g>
	<g>
		<path d="M131.741,22c0-1.463,0.393-2.609,1.179-3.437c0.786-0.828,1.8-1.242,3.043-1.242c0.813,0,1.547,0.194,2.201,0.583
			c0.653,0.389,1.151,0.931,1.494,1.626c0.343,0.696,0.514,1.484,0.514,2.367c0,0.894-0.18,1.693-0.541,2.399
			s-0.872,1.24-1.534,1.603c-0.661,0.363-1.375,0.544-2.141,0.544c-0.83,0-1.571-0.201-2.225-0.602
			c-0.654-0.401-1.149-0.948-1.485-1.642C131.91,23.508,131.741,22.774,131.741,22z M132.944,22.019c0,1.062,0.286,1.899,0.857,2.51
			c0.571,0.612,1.288,0.917,2.15,0.917c0.878,0,1.601-0.309,2.168-0.926c0.567-0.617,0.851-1.493,0.851-2.628
			c0-0.717-0.121-1.344-0.364-1.879s-0.597-0.95-1.064-1.245c-0.467-0.294-0.991-0.442-1.572-0.442
			c-0.826,0-1.537,0.284-2.132,0.851S132.944,20.691,132.944,22.019z"/>
		<path d="M142.535,26.294h-1.004v-8.815h1.083v3.145c0.457-0.573,1.041-0.86,1.75-0.86c0.393,0,0.765,0.079,1.115,0.237
			c0.351,0.158,0.64,0.381,0.866,0.667c0.226,0.287,0.404,0.632,0.532,1.037c0.128,0.405,0.192,0.838,0.192,1.299
			c0,1.094-0.271,1.94-0.812,2.538c-0.541,0.597-1.19,0.896-1.948,0.896c-0.754,0-1.345-0.315-1.774-0.944V26.294z M142.523,23.053
			c0,0.766,0.104,1.319,0.313,1.66c0.34,0.557,0.802,0.836,1.383,0.836c0.473,0,0.882-0.206,1.227-0.616
			c0.345-0.411,0.517-1.023,0.517-1.837c0-0.833-0.166-1.449-0.496-1.846c-0.331-0.396-0.731-0.595-1.2-0.595
			c-0.473,0-0.882,0.206-1.227,0.617C142.695,21.681,142.523,22.275,142.523,23.053z"/>
		<path d="M147.009,28.771l0.205-0.92c0.216,0.056,0.387,0.084,0.511,0.084c0.22,0,0.385-0.073,0.493-0.219
			c0.108-0.146,0.162-0.512,0.162-1.098v-6.711h1.083v6.735c0,0.786-0.102,1.333-0.307,1.642c-0.261,0.401-0.694,0.602-1.299,0.602
			C147.564,28.886,147.282,28.848,147.009,28.771z M148.38,18.735v-1.257h1.083v1.257H148.38z"/>
		<path d="M155.494,24.237l1.118,0.138c-0.176,0.654-0.503,1.161-0.98,1.521s-1.086,0.542-1.828,0.542
			c-0.934,0-1.675-0.288-2.222-0.863c-0.547-0.575-0.821-1.382-0.821-2.42c0-1.074,0.276-1.908,0.83-2.501s1.271-0.89,2.153-0.89
			c0.854,0,1.551,0.291,2.093,0.872c0.541,0.582,0.812,1.399,0.812,2.454c0,0.064-0.002,0.16-0.006,0.289h-4.763
			c0.04,0.702,0.239,1.239,0.596,1.612c0.356,0.373,0.801,0.559,1.335,0.559c0.396,0,0.735-0.104,1.016-0.312
			C155.107,25.027,155.33,24.694,155.494,24.237z M151.94,22.487h3.566c-0.048-0.537-0.184-0.94-0.409-1.208
			c-0.345-0.417-0.792-0.625-1.341-0.625c-0.497,0-0.915,0.167-1.254,0.499C152.164,21.485,151.976,21.93,151.94,22.487z"/>
		<path d="M160.334,25.326l0.157,0.956c-0.305,0.064-0.578,0.096-0.818,0.096c-0.393,0-0.698-0.062-0.914-0.186
			c-0.216-0.125-0.369-0.288-0.457-0.49c-0.088-0.203-0.132-0.628-0.132-1.278V20.75h-0.794v-0.842h0.794v-1.582l1.076-0.649v2.231
			h1.088v0.842h-1.088v3.734c0,0.309,0.019,0.507,0.057,0.595c0.038,0.088,0.101,0.159,0.187,0.21
			c0.086,0.052,0.209,0.078,0.37,0.078C159.98,25.368,160.138,25.354,160.334,25.326z"/>
		<path d="M160.99,23.101c0-1.183,0.329-2.059,0.986-2.628c0.549-0.473,1.219-0.709,2.008-0.709c0.878,0,1.596,0.288,2.153,0.863
			s0.836,1.37,0.836,2.384c0,0.822-0.123,1.468-0.37,1.939c-0.247,0.471-0.605,0.836-1.077,1.097
			c-0.471,0.261-0.985,0.391-1.542,0.391c-0.894,0-1.616-0.287-2.167-0.86C161.266,25.005,160.99,24.179,160.99,23.101z
			 M162.103,23.101c0,0.817,0.178,1.43,0.535,1.837c0.356,0.407,0.806,0.61,1.347,0.61c0.538,0,0.984-0.205,1.341-0.613
			c0.356-0.409,0.535-1.032,0.535-1.87c0-0.79-0.18-1.388-0.538-1.795c-0.359-0.407-0.805-0.61-1.338-0.61
			c-0.541,0-0.99,0.202-1.347,0.607C162.281,21.672,162.103,22.283,162.103,23.101z"/>
		<path d="M177.052,25.253v1.041h-5.827c-0.008-0.261,0.034-0.511,0.126-0.751c0.148-0.397,0.386-0.788,0.713-1.173
			c0.327-0.385,0.798-0.83,1.416-1.335c0.958-0.786,1.605-1.408,1.942-1.867c0.336-0.459,0.505-0.893,0.505-1.302
			c0-0.429-0.153-0.791-0.46-1.085s-0.707-0.442-1.2-0.442c-0.521,0-0.938,0.156-1.25,0.469c-0.313,0.313-0.471,0.746-0.475,1.299
			l-1.113-0.114c0.076-0.83,0.363-1.462,0.86-1.897s1.165-0.652,2.002-0.652c0.846,0,1.516,0.234,2.009,0.704
			c0.493,0.469,0.739,1.05,0.739,1.744c0,0.353-0.072,0.7-0.216,1.041c-0.144,0.341-0.384,0.7-0.719,1.076
			c-0.334,0.377-0.891,0.894-1.668,1.552c-0.649,0.545-1.066,0.915-1.251,1.109c-0.184,0.194-0.336,0.39-0.457,0.586H177.052z"/>
	</g>
	<g>
		<path d="M247.936,22c0-1.463,0.393-2.609,1.179-3.437c0.786-0.828,1.8-1.242,3.043-1.242c0.813,0,1.547,0.194,2.201,0.583
			c0.653,0.389,1.151,0.931,1.494,1.626c0.343,0.696,0.514,1.484,0.514,2.367c0,0.894-0.18,1.693-0.541,2.399
			s-0.872,1.24-1.534,1.603c-0.661,0.363-1.375,0.544-2.141,0.544c-0.83,0-1.571-0.201-2.225-0.602
			c-0.654-0.401-1.149-0.948-1.485-1.642C248.104,23.508,247.936,22.774,247.936,22z M249.139,22.019
			c0,1.062,0.286,1.899,0.857,2.51c0.571,0.612,1.288,0.917,2.15,0.917c0.878,0,1.601-0.309,2.168-0.926
			c0.567-0.617,0.851-1.493,0.851-2.628c0-0.717-0.121-1.344-0.364-1.879s-0.597-0.95-1.064-1.245
			c-0.467-0.294-0.991-0.442-1.572-0.442c-0.826,0-1.537,0.284-2.132,0.851S249.139,20.691,249.139,22.019z"/>
		<path d="M258.73,26.294h-1.004v-8.815h1.083v3.145c0.457-0.573,1.041-0.86,1.75-0.86c0.393,0,0.765,0.079,1.115,0.237
			c0.351,0.158,0.64,0.381,0.866,0.667c0.226,0.287,0.404,0.632,0.532,1.037c0.128,0.405,0.192,0.838,0.192,1.299
			c0,1.094-0.271,1.94-0.812,2.538c-0.541,0.597-1.19,0.896-1.948,0.896c-0.754,0-1.345-0.315-1.774-0.944V26.294z M258.718,23.053
			c0,0.766,0.104,1.319,0.313,1.66c0.34,0.557,0.802,0.836,1.383,0.836c0.473,0,0.882-0.206,1.227-0.616
			c0.345-0.411,0.517-1.023,0.517-1.837c0-0.833-0.166-1.449-0.496-1.846c-0.331-0.396-0.731-0.595-1.2-0.595
			c-0.473,0-0.882,0.206-1.227,0.617C258.89,21.681,258.718,22.275,258.718,23.053z"/>
		<path d="M263.204,28.771l0.205-0.92c0.216,0.056,0.387,0.084,0.511,0.084c0.22,0,0.385-0.073,0.493-0.219
			c0.108-0.146,0.162-0.512,0.162-1.098v-6.711h1.083v6.735c0,0.786-0.102,1.333-0.307,1.642c-0.261,0.401-0.694,0.602-1.299,0.602
			C263.759,28.886,263.477,28.848,263.204,28.771z M264.575,18.735v-1.257h1.083v1.257H264.575z"/>
		<path d="M271.689,24.237l1.118,0.138c-0.176,0.654-0.503,1.161-0.98,1.521s-1.086,0.542-1.828,0.542
			c-0.934,0-1.675-0.288-2.222-0.863c-0.547-0.575-0.821-1.382-0.821-2.42c0-1.074,0.276-1.908,0.83-2.501s1.271-0.89,2.153-0.89
			c0.854,0,1.551,0.291,2.093,0.872c0.541,0.582,0.812,1.399,0.812,2.454c0,0.064-0.002,0.16-0.006,0.289h-4.763
			c0.04,0.702,0.239,1.239,0.596,1.612c0.356,0.373,0.801,0.559,1.335,0.559c0.396,0,0.735-0.104,1.016-0.312
			C271.302,25.027,271.524,24.694,271.689,24.237z M268.135,22.487h3.566c-0.048-0.537-0.184-0.94-0.409-1.208
			c-0.345-0.417-0.792-0.625-1.341-0.625c-0.497,0-0.915,0.167-1.254,0.499C268.358,21.485,268.171,21.93,268.135,22.487z"/>
		<path d="M276.529,25.326l0.157,0.956c-0.305,0.064-0.578,0.096-0.818,0.096c-0.393,0-0.698-0.062-0.914-0.186
			c-0.216-0.125-0.369-0.288-0.457-0.49c-0.088-0.203-0.132-0.628-0.132-1.278V20.75h-0.794v-0.842h0.794v-1.582l1.076-0.649v2.231
			h1.088v0.842h-1.088v3.734c0,0.309,0.019,0.507,0.057,0.595c0.038,0.088,0.101,0.159,0.187,0.21
			c0.086,0.052,0.209,0.078,0.37,0.078C276.175,25.368,276.333,25.354,276.529,25.326z"/>
		<path d="M277.185,23.101c0-1.183,0.329-2.059,0.986-2.628c0.549-0.473,1.219-0.709,2.008-0.709c0.878,0,1.596,0.288,2.153,0.863
			c0.557,0.575,0.836,1.37,0.836,2.384c0,0.822-0.124,1.468-0.37,1.939c-0.247,0.471-0.605,0.836-1.077,1.097
			c-0.471,0.261-0.985,0.391-1.542,0.391c-0.894,0-1.616-0.287-2.167-0.86C277.46,25.005,277.185,24.179,277.185,23.101z
			 M278.297,23.101c0,0.817,0.178,1.43,0.535,1.837c0.356,0.407,0.806,0.61,1.347,0.61c0.538,0,0.984-0.205,1.341-0.613
			c0.356-0.409,0.535-1.032,0.535-1.87c0-0.79-0.179-1.388-0.538-1.795c-0.359-0.407-0.805-0.61-1.338-0.61
			c-0.541,0-0.99,0.202-1.347,0.607C278.476,21.672,278.297,22.283,278.297,23.101z"/>
		<path d="M287.858,26.294v-6.386h0.975v0.908c0.469-0.702,1.146-1.052,2.032-1.052c0.385,0,0.738,0.069,1.062,0.207
			c0.322,0.139,0.564,0.32,0.725,0.544s0.272,0.491,0.337,0.8c0.04,0.201,0.06,0.551,0.06,1.052v3.927h-1.082v-3.885
			c0-0.441-0.042-0.771-0.126-0.989c-0.085-0.218-0.234-0.393-0.448-0.523c-0.215-0.13-0.466-0.195-0.755-0.195
			c-0.461,0-0.858,0.146-1.193,0.439s-0.502,0.848-0.502,1.666v3.488H287.858z"/>
	</g>
	<rect x="257.179" y="220.549" fill="#24C900" width="12.34" height="12.34"/>
	<rect x="257.179" y="220.549" fill="none" stroke="#11100E" stroke-miterlimit="10" width="12.34" height="12.34"/>
	<line fill="#FFFFFF" x1="269.519" y1="220.55" x2="257.179" y2="232.89"/>
	<line fill="none" stroke="#11100E" stroke-miterlimit="10" x1="269.519" y1="220.55" x2="257.179" y2="232.89"/>
	<line fill="#FFFFFF" x1="269.519" y1="232.89" x2="257.179" y2="220.55"/>
	<line fill="none" stroke="#11100E" stroke-miterlimit="10" x1="269.519" y1="232.89" x2="257.179" y2="220.55"/>
	<rect x="148.266" y="252.873" fill="#FFAA37" width="12.34" height="12.34"/>
	<rect x="148.266" y="252.873" fill="none" stroke="#11100E" stroke-miterlimit="10" width="12.34" height="12.34"/>
	<rect x="28.369" y="220.549" fill="#24C900" width="12.34" height="12.34"/>
	<rect x="28.369" y="220.549" fill="none" stroke="#11100E" stroke-miterlimit="10" width="12.34" height="12.34"/>
	<line fill="#FFFFFF" x1="40.709" y1="220.55" x2="28.369" y2="232.89"/>
	<line fill="none" stroke="#11100E" stroke-miterlimit="10" x1="40.709" y1="220.55" x2="28.369" y2="232.89"/>
	<line fill="#FFFFFF" x1="40.709" y1="232.89" x2="28.369" y2="220.55"/>
	<line fill="none" stroke="#11100E" stroke-miterlimit="10" x1="40.709" y1="232.89" x2="28.369" y2="220.55"/>
</g>
</svg>
