<?xml version="1.0" encoding="utf-8"?>
<!-- Generator: Adobe Illustrator 19.0.0, SVG Export Plug-In . SVG Version: 6.00 Build 0)  -->
<svg version="1.1" id="Capa_1" xmlns="http://www.w3.org/2000/svg" xmlns:xlink="http://www.w3.org/1999/xlink" x="0px" y="0px"
	 viewBox="0 0 485.4 236.5" style="enable-background:new 0 0 485.4 236.5;" xml:space="preserve">
<style type="text/css">
	.st0{fill:#FFFFFF;}
	.st1{fill:none;stroke:#706F6F;stroke-width:1.5;stroke-miterlimit:10;}
	.st2{fill:none;stroke:#706F6F;stroke-width:1.5;stroke-miterlimit:10;stroke-dasharray:5.1299,5.1299;}
	.st3{fill:#FFFFFF;stroke:#F29422;stroke-width:1.5;stroke-miterlimit:10;}
	.st4{fill:#FFFFFF;stroke:#706F6F;stroke-width:1.5;stroke-miterlimit:10;}
	.st5{fill:#FFFFFF;stroke:#706F6F;stroke-width:1.5;stroke-miterlimit:10;stroke-dasharray:5,5;}
	.st6{fill:#FFFFFF;stroke:#8BBE33;stroke-width:1.5;stroke-miterlimit:10;}
	.st7{fill:#FFFFFF;stroke:#0367A6;stroke-width:1.5;stroke-miterlimit:10;}
	.st8{fill:#FFFFFF;stroke:#CD2D00;stroke-width:1.5;stroke-miterlimit:10;}
	.st9{fill:#706F6F;}
	.st10{fill:#E8A91C;}
</style>
<g id="XMLID_8006_">
	<g id="XMLID_8080_">
		<line id="XMLID_366_" class="st0" x1="96.9" y1="41.7" x2="96.9" y2="236.5"/>
		<g id="XMLID_362_">
			<line id="XMLID_365_" class="st1" x1="96.9" y1="41.7" x2="96.9" y2="44.2"/>
			<line id="XMLID_364_" class="st2" x1="96.9" y1="49.3" x2="96.9" y2="231.5"/>
			<line id="XMLID_363_" class="st1" x1="96.9" y1="234" x2="96.9" y2="236.5"/>
		</g>
	</g>
	<rect id="XMLID_8079_" x="61" y="30" class="st3" width="71.9" height="17.1"/>
	<g id="XMLID_287_">
		<path id="XMLID_288_" d="M81.6,41.7v-5.8h2.2c0.4,0,0.7,0,0.9,0.1c0.3,0,0.5,0.1,0.7,0.3c0.2,0.1,0.4,0.3,0.5,0.6
			c0.1,0.2,0.2,0.5,0.2,0.8c0,0.5-0.2,0.9-0.5,1.3c-0.3,0.3-0.9,0.5-1.7,0.5h-1.5v2.4H81.6z M82.4,38.7h1.5c0.5,0,0.9-0.1,1.1-0.3
			c0.2-0.2,0.3-0.4,0.3-0.8c0-0.2-0.1-0.5-0.2-0.6c-0.1-0.2-0.3-0.3-0.5-0.3c-0.1,0-0.4-0.1-0.7-0.1h-1.5V38.7z"/>
		<path id="XMLID_291_" d="M89.8,41.2c-0.3,0.2-0.5,0.4-0.8,0.5s-0.5,0.1-0.8,0.1c-0.5,0-0.8-0.1-1.1-0.3c-0.3-0.2-0.4-0.5-0.4-0.9
			c0-0.2,0-0.4,0.1-0.6c0.1-0.2,0.2-0.3,0.4-0.4c0.2-0.1,0.3-0.2,0.5-0.2c0.1,0,0.4-0.1,0.6-0.1c0.6-0.1,1-0.2,1.3-0.2
			c0-0.1,0-0.2,0-0.2c0-0.3-0.1-0.5-0.2-0.6c-0.2-0.2-0.5-0.2-0.8-0.2c-0.3,0-0.6,0.1-0.7,0.2s-0.3,0.3-0.4,0.6l-0.7-0.1
			c0.1-0.3,0.2-0.5,0.3-0.7c0.1-0.2,0.4-0.3,0.6-0.4c0.3-0.1,0.6-0.1,1-0.1c0.4,0,0.7,0,0.9,0.1c0.2,0.1,0.4,0.2,0.5,0.3
			s0.2,0.3,0.2,0.5c0,0.1,0,0.3,0,0.7v1c0,0.7,0,1.1,0,1.3c0,0.2,0.1,0.3,0.2,0.5h-0.8C89.8,41.6,89.8,41.4,89.8,41.2z M89.7,39.6
			c-0.3,0.1-0.7,0.2-1.2,0.3c-0.3,0-0.5,0.1-0.6,0.1c-0.1,0.1-0.2,0.1-0.3,0.2c-0.1,0.1-0.1,0.2-0.1,0.3c0,0.2,0.1,0.4,0.2,0.5
			c0.1,0.1,0.4,0.2,0.6,0.2c0.3,0,0.5-0.1,0.7-0.2s0.4-0.3,0.5-0.5c0.1-0.2,0.1-0.4,0.1-0.7V39.6z"/>
		<path id="XMLID_294_" d="M94.3,40.2l0.7,0.1c-0.1,0.5-0.3,0.9-0.6,1.1s-0.7,0.4-1.2,0.4c-0.6,0-1-0.2-1.4-0.6s-0.5-0.9-0.5-1.6
			c0-0.5,0.1-0.9,0.2-1.2c0.2-0.3,0.4-0.6,0.7-0.8c0.3-0.2,0.6-0.3,1-0.3c0.5,0,0.8,0.1,1.1,0.3s0.5,0.6,0.6,1l-0.7,0.1
			c-0.1-0.3-0.2-0.5-0.4-0.6S93.5,38,93.3,38c-0.4,0-0.7,0.1-0.9,0.4c-0.2,0.3-0.3,0.7-0.3,1.2c0,0.6,0.1,1,0.3,1.2s0.5,0.4,0.9,0.4
			c0.3,0,0.5-0.1,0.7-0.3C94.1,40.8,94.3,40.5,94.3,40.2z"/>
		<path id="XMLID_296_" d="M95.6,36.7v-0.8h0.7v0.8H95.6z M95.6,41.7v-4.2h0.7v4.2H95.6z"/>
		<path id="XMLID_299_" d="M100.3,40.4l0.7,0.1c-0.1,0.4-0.3,0.8-0.6,1c-0.3,0.2-0.7,0.4-1.2,0.4c-0.6,0-1.1-0.2-1.5-0.6
			c-0.4-0.4-0.5-0.9-0.5-1.6c0-0.7,0.2-1.3,0.6-1.7c0.4-0.4,0.8-0.6,1.4-0.6c0.6,0,1,0.2,1.4,0.6c0.4,0.4,0.5,0.9,0.5,1.6
			c0,0,0,0.1,0,0.2h-3.2c0,0.5,0.2,0.8,0.4,1.1c0.2,0.2,0.5,0.4,0.9,0.4c0.3,0,0.5-0.1,0.7-0.2C100.1,40.9,100.2,40.7,100.3,40.4z
			 M98,39.2h2.4c0-0.4-0.1-0.6-0.3-0.8c-0.2-0.3-0.5-0.4-0.9-0.4c-0.3,0-0.6,0.1-0.8,0.3S98,38.8,98,39.2z"/>
		<path id="XMLID_302_" d="M102,41.7v-4.2h0.6v0.6c0.3-0.5,0.8-0.7,1.3-0.7c0.3,0,0.5,0,0.7,0.1s0.4,0.2,0.5,0.4
			c0.1,0.1,0.2,0.3,0.2,0.5c0,0.1,0,0.4,0,0.7v2.6h-0.7v-2.6c0-0.3,0-0.5-0.1-0.7c-0.1-0.1-0.2-0.3-0.3-0.3
			c-0.1-0.1-0.3-0.1-0.5-0.1c-0.3,0-0.6,0.1-0.8,0.3s-0.3,0.6-0.3,1.1v2.3H102z"/>
		<path id="XMLID_304_" d="M108.1,41.1l0.1,0.6c-0.2,0-0.4,0.1-0.5,0.1c-0.3,0-0.5,0-0.6-0.1c-0.1-0.1-0.2-0.2-0.3-0.3
			c-0.1-0.1-0.1-0.4-0.1-0.8v-2.4h-0.5v-0.6h0.5v-1l0.7-0.4v1.5h0.7v0.6h-0.7v2.5c0,0.2,0,0.3,0,0.4c0,0.1,0.1,0.1,0.1,0.1
			c0.1,0,0.1,0.1,0.2,0.1C107.9,41.1,108,41.1,108.1,41.1z"/>
		<path id="XMLID_306_" d="M111.7,40.4l0.7,0.1c-0.1,0.4-0.3,0.8-0.6,1c-0.3,0.2-0.7,0.4-1.2,0.4c-0.6,0-1.1-0.2-1.5-0.6
			c-0.4-0.4-0.5-0.9-0.5-1.6c0-0.7,0.2-1.3,0.6-1.7c0.4-0.4,0.8-0.6,1.4-0.6c0.6,0,1,0.2,1.4,0.6c0.4,0.4,0.5,0.9,0.5,1.6
			c0,0,0,0.1,0,0.2h-3.2c0,0.5,0.2,0.8,0.4,1.1c0.2,0.2,0.5,0.4,0.9,0.4c0.3,0,0.5-0.1,0.7-0.2C111.4,40.9,111.6,40.7,111.7,40.4z
			 M109.3,39.2h2.4c0-0.4-0.1-0.6-0.3-0.8c-0.2-0.3-0.5-0.4-0.9-0.4c-0.3,0-0.6,0.1-0.8,0.3S109.4,38.8,109.3,39.2z"/>
	</g>
	<rect id="XMLID_8076_" x="91.9" y="77.8" class="st4" width="9.9" height="20.4"/>
	<g id="XMLID_242_">
		<path id="XMLID_243_" d="M19.8,73.7h-0.7v-4.6c-0.2,0.2-0.4,0.3-0.7,0.5c-0.3,0.2-0.5,0.3-0.8,0.4v-0.7c0.4-0.2,0.8-0.4,1-0.7
			c0.3-0.3,0.5-0.5,0.6-0.8h0.5V73.7z"/>
		<path id="XMLID_245_" d="M22,70.3v-0.8h0.8v0.8H22z M22,73.7v-0.8h0.8v0.8H22z"/>
		<path id="XMLID_248_" d="M26.1,72.5l0.7-0.1c0,0.3,0.2,0.5,0.3,0.7s0.4,0.2,0.8,0.2c0.3,0,0.6-0.1,0.7-0.2
			c0.2-0.1,0.2-0.3,0.2-0.5c0-0.2-0.1-0.3-0.2-0.4c-0.1-0.1-0.3-0.1-0.7-0.2c-0.5-0.1-0.9-0.2-1.1-0.3c-0.2-0.1-0.4-0.2-0.5-0.4
			c-0.1-0.2-0.2-0.4-0.2-0.6c0-0.2,0-0.4,0.1-0.5c0.1-0.2,0.2-0.3,0.4-0.4c0.1-0.1,0.3-0.2,0.5-0.2c0.2-0.1,0.4-0.1,0.6-0.1
			c0.3,0,0.6,0,0.9,0.1c0.3,0.1,0.4,0.2,0.6,0.4c0.1,0.2,0.2,0.4,0.2,0.7l-0.7,0.1c0-0.2-0.1-0.4-0.3-0.5c-0.2-0.1-0.4-0.2-0.6-0.2
			c-0.3,0-0.6,0.1-0.7,0.2c-0.1,0.1-0.2,0.2-0.2,0.4c0,0.1,0,0.2,0.1,0.3c0.1,0.1,0.1,0.1,0.3,0.2c0.1,0,0.3,0.1,0.6,0.2
			c0.5,0.1,0.9,0.2,1.1,0.3s0.4,0.2,0.5,0.4s0.2,0.4,0.2,0.6c0,0.2-0.1,0.5-0.2,0.7s-0.3,0.4-0.6,0.5c-0.3,0.1-0.6,0.2-0.9,0.2
			c-0.5,0-1-0.1-1.3-0.3C26.4,73.3,26.2,72.9,26.1,72.5z"/>
		<path id="XMLID_250_" d="M30.2,71.6c0-0.8,0.2-1.4,0.7-1.7c0.4-0.3,0.8-0.5,1.3-0.5c0.6,0,1.1,0.2,1.4,0.6
			c0.4,0.4,0.6,0.9,0.6,1.6c0,0.5-0.1,1-0.2,1.3s-0.4,0.6-0.7,0.7s-0.7,0.3-1,0.3c-0.6,0-1.1-0.2-1.4-0.6
			C30.4,72.9,30.2,72.3,30.2,71.6z M30.9,71.6c0,0.5,0.1,0.9,0.4,1.2c0.2,0.3,0.5,0.4,0.9,0.4c0.4,0,0.7-0.1,0.9-0.4
			s0.4-0.7,0.4-1.2c0-0.5-0.1-0.9-0.4-1.2c-0.2-0.3-0.5-0.4-0.9-0.4c-0.4,0-0.7,0.1-0.9,0.4C31,70.7,30.9,71.1,30.9,71.6z"/>
		<path id="XMLID_253_" d="M35,73.7v-5.8h0.7v5.8H35z"/>
		<path id="XMLID_255_" d="M36.8,68.7v-0.8h0.7v0.8H36.8z M36.8,73.7v-4.2h0.7v4.2H36.8z"/>
		<path id="XMLID_258_" d="M41.3,72.2l0.7,0.1c-0.1,0.5-0.3,0.9-0.6,1.1c-0.3,0.3-0.7,0.4-1.2,0.4c-0.6,0-1-0.2-1.4-0.6
			c-0.4-0.4-0.5-0.9-0.5-1.6c0-0.5,0.1-0.9,0.2-1.2c0.2-0.3,0.4-0.6,0.7-0.8c0.3-0.2,0.6-0.3,1-0.3c0.5,0,0.8,0.1,1.1,0.3
			c0.3,0.2,0.5,0.6,0.6,1l-0.7,0.1c-0.1-0.3-0.2-0.5-0.4-0.6c-0.2-0.1-0.4-0.2-0.6-0.2c-0.4,0-0.7,0.1-0.9,0.4
			c-0.2,0.3-0.3,0.7-0.3,1.2c0,0.6,0.1,1,0.3,1.2c0.2,0.3,0.5,0.4,0.9,0.4c0.3,0,0.5-0.1,0.7-0.3C41.2,72.8,41.3,72.5,41.3,72.2z"/>
		<path id="XMLID_260_" d="M42.7,68.7v-0.8h0.7v0.8H42.7z M42.7,73.7v-4.2h0.7v4.2H42.7z"/>
		<path id="XMLID_263_" d="M46,73.1l0.1,0.6c-0.2,0-0.4,0.1-0.5,0.1c-0.3,0-0.5,0-0.6-0.1s-0.2-0.2-0.3-0.3s-0.1-0.4-0.1-0.8v-2.4
			h-0.5v-0.6h0.5v-1l0.7-0.4v1.5H46v0.6h-0.7v2.5c0,0.2,0,0.3,0,0.4c0,0.1,0.1,0.1,0.1,0.1s0.1,0.1,0.2,0.1
			C45.8,73.1,45.9,73.1,46,73.1z"/>
		<path id="XMLID_265_" d="M49.5,73.2c-0.3,0.2-0.5,0.4-0.8,0.5s-0.5,0.1-0.8,0.1c-0.5,0-0.8-0.1-1.1-0.3s-0.4-0.5-0.4-0.9
			c0-0.2,0-0.4,0.1-0.6c0.1-0.2,0.2-0.3,0.4-0.4s0.3-0.2,0.5-0.2c0.1,0,0.4-0.1,0.6-0.1c0.6-0.1,1-0.2,1.3-0.2c0-0.1,0-0.2,0-0.2
			c0-0.3-0.1-0.5-0.2-0.6C49,70.1,48.8,70,48.4,70c-0.3,0-0.6,0.1-0.7,0.2c-0.2,0.1-0.3,0.3-0.4,0.6l-0.7-0.1
			c0.1-0.3,0.2-0.5,0.3-0.7c0.1-0.2,0.4-0.3,0.6-0.4c0.3-0.1,0.6-0.1,1-0.1c0.4,0,0.7,0,0.9,0.1c0.2,0.1,0.4,0.2,0.5,0.3
			s0.2,0.3,0.2,0.5c0,0.1,0,0.3,0,0.7v1c0,0.7,0,1.1,0,1.3c0,0.2,0.1,0.3,0.2,0.5h-0.7C49.6,73.6,49.5,73.4,49.5,73.2z M49.4,71.6
			c-0.3,0.1-0.6,0.2-1.2,0.3c-0.3,0-0.5,0.1-0.6,0.1c-0.1,0.1-0.2,0.1-0.3,0.2c-0.1,0.1-0.1,0.2-0.1,0.3c0,0.2,0.1,0.3,0.2,0.5
			c0.1,0.1,0.4,0.2,0.6,0.2c0.3,0,0.5-0.1,0.7-0.2c0.2-0.1,0.4-0.3,0.5-0.5c0.1-0.2,0.1-0.4,0.1-0.7V71.6z"/>
		<path id="XMLID_268_" d="M51.3,73.7v-4.2h0.6v0.6c0.2-0.3,0.3-0.5,0.5-0.6c0.1-0.1,0.3-0.1,0.5-0.1c0.2,0,0.5,0.1,0.7,0.2
			l-0.2,0.7c-0.2-0.1-0.4-0.2-0.5-0.2c-0.2,0-0.3,0-0.4,0.1c-0.1,0.1-0.2,0.2-0.3,0.4C52,70.9,52,71.2,52,71.5v2.2H51.3z"/>
		<path id="XMLID_270_" d="M54.1,73.7v-5.8h2c0.5,0,0.8,0,1,0.1c0.3,0.1,0.6,0.2,0.9,0.4c0.3,0.3,0.5,0.6,0.7,1s0.2,0.9,0.2,1.4
			c0,0.4-0.1,0.8-0.2,1.2c-0.1,0.3-0.2,0.6-0.4,0.8c-0.2,0.2-0.3,0.4-0.5,0.5c-0.2,0.1-0.4,0.2-0.7,0.3s-0.6,0.1-0.9,0.1H54.1z
			 M54.8,73h1.2c0.4,0,0.7,0,0.9-0.1s0.4-0.2,0.5-0.3c0.2-0.2,0.3-0.4,0.4-0.7s0.2-0.7,0.2-1.1c0-0.6-0.1-1.1-0.3-1.4
			s-0.4-0.5-0.7-0.7c-0.2-0.1-0.5-0.1-1-0.1h-1.2V73z"/>
		<path id="XMLID_273_" d="M62.6,73.2c-0.3,0.2-0.5,0.4-0.8,0.5s-0.5,0.1-0.8,0.1c-0.5,0-0.8-0.1-1.1-0.3s-0.4-0.5-0.4-0.9
			c0-0.2,0-0.4,0.1-0.6c0.1-0.2,0.2-0.3,0.4-0.4s0.3-0.2,0.5-0.2c0.1,0,0.4-0.1,0.6-0.1c0.6-0.1,1-0.2,1.3-0.2c0-0.1,0-0.2,0-0.2
			c0-0.3-0.1-0.5-0.2-0.6c-0.2-0.2-0.5-0.2-0.8-0.2c-0.3,0-0.6,0.1-0.7,0.2c-0.2,0.1-0.3,0.3-0.4,0.6l-0.7-0.1
			c0.1-0.3,0.2-0.5,0.3-0.7c0.1-0.2,0.4-0.3,0.6-0.4c0.3-0.1,0.6-0.1,1-0.1c0.4,0,0.7,0,0.9,0.1c0.2,0.1,0.4,0.2,0.5,0.3
			s0.2,0.3,0.2,0.5c0,0.1,0,0.3,0,0.7v1c0,0.7,0,1.1,0,1.3c0,0.2,0.1,0.3,0.2,0.5h-0.7C62.7,73.6,62.6,73.4,62.6,73.2z M62.5,71.6
			c-0.3,0.1-0.6,0.2-1.2,0.3c-0.3,0-0.5,0.1-0.6,0.1c-0.1,0.1-0.2,0.1-0.3,0.2c-0.1,0.1-0.1,0.2-0.1,0.3c0,0.2,0.1,0.3,0.2,0.5
			c0.1,0.1,0.4,0.2,0.6,0.2c0.3,0,0.5-0.1,0.7-0.2c0.2-0.1,0.4-0.3,0.5-0.5c0.1-0.2,0.1-0.4,0.1-0.7V71.6z"/>
		<path id="XMLID_276_" d="M65.9,73.1l0.1,0.6c-0.2,0-0.4,0.1-0.5,0.1c-0.3,0-0.5,0-0.6-0.1s-0.2-0.2-0.3-0.3s-0.1-0.4-0.1-0.8v-2.4
			H64v-0.6h0.5v-1l0.7-0.4v1.5h0.7v0.6h-0.7v2.5c0,0.2,0,0.3,0,0.4c0,0.1,0.1,0.1,0.1,0.1s0.1,0.1,0.2,0.1
			C65.7,73.1,65.8,73.1,65.9,73.1z"/>
		<path id="XMLID_278_" d="M66.4,71.6c0-0.8,0.2-1.4,0.7-1.7c0.4-0.3,0.8-0.5,1.3-0.5c0.6,0,1.1,0.2,1.4,0.6
			c0.4,0.4,0.6,0.9,0.6,1.6c0,0.5-0.1,1-0.2,1.3s-0.4,0.6-0.7,0.7s-0.7,0.3-1,0.3c-0.6,0-1.1-0.2-1.4-0.6
			C66.6,72.9,66.4,72.3,66.4,71.6z M67.1,71.6c0,0.5,0.1,0.9,0.4,1.2c0.2,0.3,0.5,0.4,0.9,0.4c0.4,0,0.7-0.1,0.9-0.4
			s0.4-0.7,0.4-1.2c0-0.5-0.1-0.9-0.4-1.2C69,70.1,68.7,70,68.4,70c-0.4,0-0.7,0.1-0.9,0.4C67.2,70.7,67.1,71.1,67.1,71.6z"/>
		<path id="XMLID_281_" d="M70.9,72.5l0.7-0.1c0,0.3,0.2,0.5,0.3,0.7s0.4,0.2,0.8,0.2c0.3,0,0.6-0.1,0.7-0.2
			c0.2-0.1,0.2-0.3,0.2-0.5c0-0.2-0.1-0.3-0.2-0.4c-0.1-0.1-0.3-0.1-0.7-0.2c-0.5-0.1-0.9-0.2-1.1-0.3c-0.2-0.1-0.4-0.2-0.5-0.4
			C71.1,71,71,70.8,71,70.6c0-0.2,0-0.4,0.1-0.5c0.1-0.2,0.2-0.3,0.4-0.4c0.1-0.1,0.3-0.2,0.5-0.2c0.2-0.1,0.4-0.1,0.6-0.1
			c0.3,0,0.6,0,0.9,0.1c0.3,0.1,0.4,0.2,0.6,0.4c0.1,0.2,0.2,0.4,0.2,0.7l-0.7,0.1c0-0.2-0.1-0.4-0.3-0.5c-0.2-0.1-0.4-0.2-0.6-0.2
			c-0.3,0-0.6,0.1-0.7,0.2c-0.1,0.1-0.2,0.2-0.2,0.4c0,0.1,0,0.2,0.1,0.3c0.1,0.1,0.1,0.1,0.3,0.2c0.1,0,0.3,0.1,0.6,0.2
			c0.5,0.1,0.9,0.2,1.1,0.3s0.4,0.2,0.5,0.4s0.2,0.4,0.2,0.6c0,0.2-0.1,0.5-0.2,0.7s-0.3,0.4-0.6,0.5c-0.3,0.1-0.6,0.2-0.9,0.2
			c-0.5,0-1-0.1-1.3-0.3C71.1,73.3,71,72.9,70.9,72.5z"/>
		<path id="XMLID_283_" d="M76.6,75.4c-0.4-0.5-0.7-1.1-1-1.8s-0.4-1.4-0.4-2.1c0-0.6,0.1-1.2,0.3-1.8c0.2-0.7,0.6-1.3,1.1-2h0.5
			c-0.3,0.6-0.5,0.9-0.6,1.2c-0.2,0.4-0.3,0.7-0.4,1.1c-0.1,0.5-0.2,1-0.2,1.5c0,1.3,0.4,2.5,1.2,3.8H76.6z"/>
		<path id="XMLID_285_" d="M78.4,75.4h-0.5c0.8-1.3,1.2-2.5,1.2-3.8c0-0.5-0.1-1-0.2-1.5c-0.1-0.4-0.2-0.8-0.4-1.1
			c-0.1-0.2-0.3-0.6-0.6-1.2h0.5c0.5,0.7,0.9,1.3,1.1,2c0.2,0.6,0.3,1.2,0.3,1.8c0,0.7-0.1,1.4-0.4,2.1
			C79.1,74.4,78.8,74.9,78.4,75.4z"/>
	</g>
	<line id="XMLID_8073_" class="st5" x1="214.2" y1="41.7" x2="214.2" y2="234.5"/>
	<rect id="XMLID_8072_" x="178.2" y="30" class="st6" width="71.9" height="17.1"/>
	<g id="XMLID_231_">
		<path id="XMLID_232_" d="M211.7,39.7l0.8,0.2c-0.2,0.6-0.5,1.1-0.9,1.5c-0.4,0.3-0.9,0.5-1.5,0.5c-0.6,0-1.1-0.1-1.5-0.4
			s-0.7-0.6-0.9-1.1c-0.2-0.5-0.3-1-0.3-1.6c0-0.6,0.1-1.1,0.3-1.6c0.2-0.5,0.6-0.8,1-1c0.4-0.2,0.9-0.4,1.4-0.4
			c0.6,0,1.1,0.1,1.5,0.4s0.7,0.7,0.8,1.3l-0.8,0.2c-0.1-0.4-0.3-0.7-0.6-0.9c-0.3-0.2-0.6-0.3-1-0.3c-0.4,0-0.8,0.1-1.1,0.3
			c-0.3,0.2-0.5,0.5-0.6,0.9c-0.1,0.4-0.2,0.7-0.2,1.1c0,0.5,0.1,0.9,0.2,1.3c0.1,0.4,0.4,0.6,0.7,0.8c0.3,0.2,0.6,0.3,1,0.3
			c0.4,0,0.8-0.1,1.1-0.4C211.4,40.5,211.6,40.2,211.7,39.7z"/>
		<path id="XMLID_234_" d="M213.3,36.7v-0.8h0.7v0.8H213.3z M213.3,41.7v-4.2h0.7v4.2H213.3z"/>
		<path id="XMLID_237_" d="M216.7,41.1l0.1,0.6c-0.2,0-0.4,0.1-0.5,0.1c-0.3,0-0.5,0-0.6-0.1c-0.1-0.1-0.2-0.2-0.3-0.3
			c-0.1-0.1-0.1-0.4-0.1-0.8v-2.4h-0.5v-0.6h0.5v-1L216,36v1.5h0.7v0.6H216v2.5c0,0.2,0,0.3,0,0.4c0,0.1,0.1,0.1,0.1,0.1
			c0.1,0,0.1,0.1,0.2,0.1C216.5,41.1,216.6,41.1,216.7,41.1z"/>
		<path id="XMLID_239_" d="M220.2,41.2c-0.3,0.2-0.5,0.4-0.8,0.5s-0.5,0.1-0.8,0.1c-0.5,0-0.8-0.1-1.1-0.3c-0.3-0.2-0.4-0.5-0.4-0.9
			c0-0.2,0-0.4,0.1-0.6c0.1-0.2,0.2-0.3,0.4-0.4c0.2-0.1,0.3-0.2,0.5-0.2c0.1,0,0.4-0.1,0.6-0.1c0.6-0.1,1-0.2,1.3-0.2
			c0-0.1,0-0.2,0-0.2c0-0.3-0.1-0.5-0.2-0.6c-0.2-0.2-0.5-0.2-0.8-0.2c-0.3,0-0.6,0.1-0.7,0.2s-0.3,0.3-0.4,0.6l-0.7-0.1
			c0.1-0.3,0.2-0.5,0.3-0.7c0.1-0.2,0.4-0.3,0.6-0.4c0.3-0.1,0.6-0.1,1-0.1c0.4,0,0.7,0,0.9,0.1c0.2,0.1,0.4,0.2,0.5,0.3
			s0.2,0.3,0.2,0.5c0,0.1,0,0.3,0,0.7v1c0,0.7,0,1.1,0,1.3c0,0.2,0.1,0.3,0.2,0.5h-0.8C220.3,41.6,220.2,41.4,220.2,41.2z
			 M220.1,39.6c-0.3,0.1-0.7,0.2-1.2,0.3c-0.3,0-0.5,0.1-0.6,0.1c-0.1,0.1-0.2,0.1-0.3,0.2c-0.1,0.1-0.1,0.2-0.1,0.3
			c0,0.2,0.1,0.4,0.2,0.5c0.1,0.1,0.4,0.2,0.6,0.2c0.3,0,0.5-0.1,0.7-0.2s0.4-0.3,0.5-0.5c0.1-0.2,0.1-0.4,0.1-0.7V39.6z"/>
	</g>
	<line id="XMLID_8069_" class="st5" x1="331.4" y1="41.7" x2="331.4" y2="236.5"/>
	<rect id="XMLID_8068_" x="295.5" y="30" class="st7" width="71.9" height="17.1"/>
	<g id="XMLID_213_">
		<path id="XMLID_214_" d="M318.8,41.7v-5.8h1.2l1.4,4.1c0.1,0.4,0.2,0.7,0.3,0.9c0.1-0.2,0.2-0.5,0.3-0.9l1.4-4.1h1v5.8h-0.7v-4.9
			l-1.7,4.9h-0.7l-1.7-5v5H318.8z"/>
		<path id="XMLID_216_" d="M328.5,40.4l0.7,0.1c-0.1,0.4-0.3,0.8-0.7,1s-0.7,0.4-1.2,0.4c-0.6,0-1.1-0.2-1.5-0.6s-0.5-0.9-0.5-1.6
			c0-0.7,0.2-1.3,0.5-1.7c0.4-0.4,0.8-0.6,1.4-0.6c0.6,0,1,0.2,1.4,0.6c0.4,0.4,0.5,0.9,0.5,1.6c0,0,0,0.1,0,0.2h-3.2
			c0,0.5,0.2,0.8,0.4,1.1c0.2,0.2,0.5,0.4,0.9,0.4c0.3,0,0.5-0.1,0.7-0.2C328.2,40.9,328.4,40.7,328.5,40.4z M326.1,39.2h2.4
			c0-0.4-0.1-0.6-0.3-0.8c-0.2-0.3-0.5-0.4-0.9-0.4c-0.3,0-0.6,0.1-0.8,0.3S326.2,38.8,326.1,39.2z M326.9,37l0.5-1.1h0.9l-0.9,1.1
			H326.9z"/>
		<path id="XMLID_220_" d="M332.9,41.7v-0.5c-0.3,0.4-0.7,0.6-1.2,0.6c-0.3,0-0.6-0.1-0.9-0.3s-0.5-0.4-0.7-0.8
			c-0.2-0.3-0.2-0.7-0.2-1.2c0-0.4,0.1-0.8,0.2-1.2c0.1-0.3,0.4-0.6,0.6-0.8c0.3-0.2,0.6-0.3,0.9-0.3c0.3,0,0.5,0.1,0.7,0.2
			s0.4,0.2,0.5,0.4v-2.1h0.7v5.8H332.9z M330.6,39.6c0,0.5,0.1,0.9,0.3,1.2s0.5,0.4,0.8,0.4c0.3,0,0.6-0.1,0.8-0.4s0.3-0.6,0.3-1.2
			c0-0.6-0.1-1-0.3-1.3c-0.2-0.3-0.5-0.4-0.8-0.4c-0.3,0-0.6,0.1-0.8,0.4S330.6,39.1,330.6,39.6z"/>
		<path id="XMLID_223_" d="M334.7,36.7v-0.8h0.7v0.8H334.7z M334.7,41.7v-4.2h0.7v4.2H334.7z"/>
		<path id="XMLID_226_" d="M339.3,40.2l0.7,0.1c-0.1,0.5-0.3,0.9-0.6,1.1s-0.7,0.4-1.2,0.4c-0.6,0-1-0.2-1.4-0.6s-0.5-0.9-0.5-1.6
			c0-0.5,0.1-0.9,0.2-1.2c0.2-0.3,0.4-0.6,0.7-0.8c0.3-0.2,0.6-0.3,1-0.3c0.5,0,0.8,0.1,1.1,0.3s0.5,0.6,0.6,1l-0.7,0.1
			c-0.1-0.3-0.2-0.5-0.4-0.6c-0.2-0.1-0.4-0.2-0.6-0.2c-0.4,0-0.7,0.1-0.9,0.4c-0.2,0.3-0.3,0.7-0.3,1.2c0,0.6,0.1,1,0.3,1.2
			c0.2,0.3,0.5,0.4,0.9,0.4c0.3,0,0.5-0.1,0.7-0.3C339.1,40.8,339.2,40.5,339.3,40.2z"/>
		<path id="XMLID_228_" d="M340.3,39.6c0-0.8,0.2-1.4,0.7-1.7c0.4-0.3,0.8-0.5,1.3-0.5c0.6,0,1.1,0.2,1.4,0.6
			c0.4,0.4,0.6,0.9,0.6,1.6c0,0.5-0.1,1-0.2,1.3s-0.4,0.6-0.7,0.7s-0.7,0.3-1,0.3c-0.6,0-1.1-0.2-1.4-0.6
			C340.5,40.9,340.3,40.3,340.3,39.6z M341,39.6c0,0.5,0.1,0.9,0.4,1.2c0.2,0.3,0.5,0.4,0.9,0.4c0.4,0,0.7-0.1,0.9-0.4
			s0.4-0.7,0.4-1.2c0-0.5-0.1-0.9-0.4-1.2c-0.2-0.3-0.5-0.4-0.9-0.4c-0.4,0-0.7,0.1-0.9,0.4S341,39.1,341,39.6z"/>
	</g>
	<line id="XMLID_8065_" class="st5" x1="448.7" y1="41.7" x2="448.7" y2="236.5"/>
	<rect id="XMLID_8064_" x="412.7" y="30" class="st8" width="71.9" height="17.1"/>
	<g id="XMLID_186_">
		<path id="XMLID_187_" d="M432.8,39.7l0.8,0.2c-0.2,0.6-0.5,1.1-0.9,1.5c-0.4,0.3-0.9,0.5-1.5,0.5c-0.6,0-1.1-0.1-1.5-0.4
			s-0.7-0.6-0.9-1.1c-0.2-0.5-0.3-1-0.3-1.6c0-0.6,0.1-1.1,0.3-1.6c0.2-0.5,0.6-0.8,1-1c0.4-0.2,0.9-0.4,1.4-0.4
			c0.6,0,1.1,0.1,1.5,0.4c0.4,0.3,0.7,0.7,0.8,1.3l-0.8,0.2c-0.1-0.4-0.3-0.7-0.6-0.9c-0.3-0.2-0.6-0.3-1-0.3
			c-0.4,0-0.8,0.1-1.1,0.3c-0.3,0.2-0.5,0.5-0.6,0.9c-0.1,0.4-0.2,0.7-0.2,1.1c0,0.5,0.1,0.9,0.2,1.3s0.4,0.6,0.7,0.8
			c0.3,0.2,0.6,0.3,1,0.3c0.4,0,0.8-0.1,1.1-0.4C432.5,40.5,432.7,40.2,432.8,39.7z"/>
		<path id="XMLID_189_" d="M434.2,39.6c0-0.8,0.2-1.4,0.7-1.7c0.4-0.3,0.8-0.5,1.3-0.5c0.6,0,1.1,0.2,1.4,0.6s0.6,0.9,0.6,1.6
			c0,0.5-0.1,1-0.2,1.3c-0.2,0.3-0.4,0.6-0.7,0.7s-0.7,0.3-1,0.3c-0.6,0-1.1-0.2-1.4-0.6C434.4,40.9,434.2,40.3,434.2,39.6z
			 M434.9,39.6c0,0.5,0.1,0.9,0.4,1.2c0.2,0.3,0.5,0.4,0.9,0.4c0.4,0,0.7-0.1,0.9-0.4c0.2-0.3,0.4-0.7,0.4-1.2
			c0-0.5-0.1-0.9-0.4-1.2c-0.2-0.3-0.5-0.4-0.9-0.4c-0.4,0-0.7,0.1-0.9,0.4C435,38.7,434.9,39.1,434.9,39.6z"/>
		<path id="XMLID_192_" d="M439,41.7v-4.2h0.6v0.6c0.3-0.5,0.8-0.7,1.3-0.7c0.3,0,0.5,0,0.7,0.1c0.2,0.1,0.4,0.2,0.5,0.4
			c0.1,0.1,0.2,0.3,0.2,0.5c0,0.1,0,0.4,0,0.7v2.6h-0.7v-2.6c0-0.3,0-0.5-0.1-0.7c-0.1-0.1-0.2-0.3-0.3-0.3
			c-0.1-0.1-0.3-0.1-0.5-0.1c-0.3,0-0.6,0.1-0.8,0.3c-0.2,0.2-0.3,0.6-0.3,1.1v2.3H439z"/>
		<path id="XMLID_194_" d="M443.2,40.5l0.7-0.1c0,0.3,0.2,0.5,0.3,0.7c0.2,0.2,0.4,0.2,0.8,0.2c0.3,0,0.6-0.1,0.7-0.2
			c0.2-0.1,0.2-0.3,0.2-0.5c0-0.2-0.1-0.3-0.2-0.4c-0.1-0.1-0.3-0.1-0.7-0.2c-0.5-0.1-0.9-0.2-1.1-0.3c-0.2-0.1-0.4-0.2-0.5-0.4
			c-0.1-0.2-0.2-0.4-0.2-0.6c0-0.2,0-0.4,0.1-0.5c0.1-0.2,0.2-0.3,0.4-0.4c0.1-0.1,0.3-0.2,0.5-0.2c0.2-0.1,0.4-0.1,0.6-0.1
			c0.3,0,0.6,0,0.9,0.1c0.3,0.1,0.4,0.2,0.6,0.4c0.1,0.2,0.2,0.4,0.2,0.7l-0.7,0.1c0-0.2-0.1-0.4-0.3-0.5c-0.2-0.1-0.4-0.2-0.6-0.2
			c-0.3,0-0.6,0.1-0.7,0.2c-0.1,0.1-0.2,0.2-0.2,0.4c0,0.1,0,0.2,0.1,0.3c0.1,0.1,0.2,0.1,0.3,0.2c0.1,0,0.3,0.1,0.6,0.2
			c0.5,0.1,0.9,0.2,1.1,0.3c0.2,0.1,0.4,0.2,0.5,0.4c0.1,0.2,0.2,0.4,0.2,0.6c0,0.2-0.1,0.5-0.2,0.7c-0.1,0.2-0.3,0.4-0.6,0.5
			c-0.3,0.1-0.6,0.2-0.9,0.2c-0.6,0-1-0.1-1.3-0.3C443.5,41.3,443.3,40.9,443.2,40.5z"/>
		<path id="XMLID_196_" d="M450.4,41.7v-0.6c-0.3,0.5-0.8,0.7-1.3,0.7c-0.3,0-0.5,0-0.7-0.1s-0.4-0.2-0.5-0.4
			c-0.1-0.1-0.2-0.3-0.2-0.5c0-0.1,0-0.4,0-0.7v-2.6h0.7v2.3c0,0.4,0,0.6,0,0.8c0,0.2,0.1,0.3,0.3,0.4c0.1,0.1,0.3,0.2,0.5,0.2
			c0.2,0,0.4-0.1,0.6-0.2c0.2-0.1,0.3-0.3,0.4-0.5c0.1-0.2,0.1-0.5,0.1-0.8v-2.3h0.7v4.2H450.4z"/>
		<path id="XMLID_198_" d="M452.1,41.7v-5.8h0.7v5.8H452.1z"/>
		<path id="XMLID_200_" d="M455.5,41.1l0.1,0.6c-0.2,0-0.4,0.1-0.5,0.1c-0.3,0-0.5,0-0.6-0.1c-0.1-0.1-0.2-0.2-0.3-0.3
			c-0.1-0.1-0.1-0.4-0.1-0.8v-2.4h-0.5v-0.6h0.5v-1l0.7-0.4v1.5h0.7v0.6h-0.7v2.5c0,0.2,0,0.3,0,0.4s0.1,0.1,0.1,0.1
			c0.1,0,0.1,0.1,0.2,0.1C455.3,41.1,455.4,41.1,455.5,41.1z"/>
		<path id="XMLID_202_" d="M456,39.6c0-0.8,0.2-1.4,0.7-1.7c0.4-0.3,0.8-0.5,1.3-0.5c0.6,0,1.1,0.2,1.4,0.6s0.6,0.9,0.6,1.6
			c0,0.5-0.1,1-0.2,1.3c-0.2,0.3-0.4,0.6-0.7,0.7s-0.7,0.3-1,0.3c-0.6,0-1.1-0.2-1.4-0.6C456.2,40.9,456,40.3,456,39.6z M456.7,39.6
			c0,0.5,0.1,0.9,0.4,1.2c0.2,0.3,0.5,0.4,0.9,0.4c0.4,0,0.7-0.1,0.9-0.4c0.2-0.3,0.4-0.7,0.4-1.2c0-0.5-0.1-0.9-0.4-1.2
			S458.3,38,458,38c-0.4,0-0.7,0.1-0.9,0.4C456.8,38.7,456.7,39.1,456.7,39.6z"/>
		<path id="XMLID_205_" d="M460.8,41.7v-4.2h0.6v0.6c0.2-0.3,0.3-0.5,0.5-0.6c0.1-0.1,0.3-0.1,0.5-0.1c0.2,0,0.5,0.1,0.7,0.2
			l-0.2,0.7c-0.2-0.1-0.4-0.2-0.5-0.2c-0.2,0-0.3,0-0.4,0.1c-0.1,0.1-0.2,0.2-0.3,0.4c-0.1,0.3-0.1,0.5-0.1,0.8v2.2H460.8z"/>
		<path id="XMLID_207_" d="M463.5,36.7v-0.8h0.7v0.8H463.5z M463.5,41.7v-4.2h0.7v4.2H463.5z"/>
		<path id="XMLID_210_" d="M465.1,39.6c0-0.8,0.2-1.4,0.7-1.7c0.4-0.3,0.8-0.5,1.3-0.5c0.6,0,1.1,0.2,1.4,0.6
			c0.4,0.4,0.6,0.9,0.6,1.6c0,0.5-0.1,1-0.2,1.3s-0.4,0.6-0.7,0.7s-0.7,0.3-1,0.3c-0.6,0-1.1-0.2-1.4-0.6
			C465.2,40.9,465.1,40.3,465.1,39.6z M465.8,39.6c0,0.5,0.1,0.9,0.4,1.2c0.2,0.3,0.5,0.4,0.9,0.4c0.4,0,0.7-0.1,0.9-0.4
			s0.4-0.7,0.4-1.2c0-0.5-0.1-0.9-0.4-1.2c-0.2-0.3-0.5-0.4-0.9-0.4c-0.4,0-0.7,0.1-0.9,0.4S465.8,39.1,465.8,39.6z"/>
	</g>
	<g id="XMLID_8055_">
		<line id="XMLID_394_" class="st0" x1="0" y1="78.8" x2="90" y2="78.8"/>
		<g id="XMLID_390_">
			<line id="XMLID_393_" class="st1" x1="0" y1="78.8" x2="82.1" y2="78.8"/>
			<g id="XMLID_391_">
				<polygon id="XMLID_392_" class="st9" points="90,78.8 78.8,83.4 81.5,78.8 78.8,74.3 				"/>
			</g>
		</g>
	</g>
	<g id="XMLID_137_">
		<path id="XMLID_138_" d="M359.2,135.7l0.7-0.1c0.1,0.4,0.2,0.7,0.4,0.9c0.2,0.2,0.4,0.3,0.7,0.3c0.3,0,0.6-0.1,0.9-0.3
			c0.2-0.2,0.3-0.5,0.3-0.9c0-0.3-0.1-0.6-0.3-0.8c-0.2-0.2-0.5-0.3-0.8-0.3c-0.1,0-0.3,0-0.5,0.1l0.1-0.6c0,0,0.1,0,0.1,0
			c0.3,0,0.6-0.1,0.8-0.2c0.2-0.2,0.4-0.4,0.4-0.7c0-0.3-0.1-0.5-0.3-0.7c-0.2-0.2-0.4-0.3-0.7-0.3c-0.3,0-0.5,0.1-0.7,0.3
			s-0.3,0.4-0.4,0.8l-0.7-0.1c0.1-0.5,0.3-0.9,0.6-1.1s0.7-0.4,1.2-0.4c0.3,0,0.6,0.1,0.9,0.2c0.3,0.1,0.5,0.3,0.6,0.6
			c0.1,0.2,0.2,0.5,0.2,0.8c0,0.3-0.1,0.5-0.2,0.7c-0.1,0.2-0.3,0.4-0.6,0.5c0.3,0.1,0.6,0.2,0.8,0.5c0.2,0.3,0.3,0.6,0.3,0.9
			c0,0.5-0.2,0.9-0.6,1.3c-0.4,0.4-0.8,0.5-1.4,0.5c-0.5,0-0.9-0.2-1.3-0.5S359.3,136.2,359.2,135.7z"/>
		<path id="XMLID_140_" d="M364.1,133.9V133h0.8v0.8H364.1z M364.1,137.3v-0.8h0.8v0.8H364.1z"/>
		<path id="XMLID_143_" d="M371.2,137.3v-0.5c-0.3,0.4-0.7,0.6-1.2,0.6c-0.3,0-0.6-0.1-0.9-0.3s-0.5-0.4-0.7-0.8
			c-0.2-0.3-0.2-0.7-0.2-1.1c0-0.4,0.1-0.8,0.2-1.1c0.1-0.3,0.4-0.6,0.6-0.8s0.6-0.3,0.9-0.3c0.3,0,0.5,0.1,0.7,0.2s0.4,0.2,0.5,0.4
			v-2.1h0.7v5.8H371.2z M368.9,135.2c0,0.5,0.1,0.9,0.3,1.2s0.5,0.4,0.8,0.4c0.3,0,0.6-0.1,0.8-0.4s0.3-0.6,0.3-1.2
			c0-0.6-0.1-1-0.3-1.3s-0.5-0.4-0.8-0.4c-0.3,0-0.6,0.1-0.8,0.4C369,134.2,368.9,134.6,368.9,135.2z"/>
		<path id="XMLID_146_" d="M373,132.3v-0.8h0.7v0.8H373z M373,137.3V133h0.7v4.2H373z"/>
		<path id="XMLID_149_" d="M374.5,136l0.7-0.1c0,0.3,0.2,0.5,0.3,0.7s0.4,0.2,0.8,0.2c0.3,0,0.6-0.1,0.7-0.2
			c0.2-0.1,0.2-0.3,0.2-0.5c0-0.2-0.1-0.3-0.2-0.4c-0.1-0.1-0.3-0.1-0.7-0.2c-0.5-0.1-0.9-0.2-1.1-0.3s-0.4-0.2-0.5-0.4
			c-0.1-0.2-0.2-0.4-0.2-0.6c0-0.2,0-0.4,0.1-0.5c0.1-0.2,0.2-0.3,0.4-0.4c0.1-0.1,0.3-0.2,0.5-0.2c0.2-0.1,0.4-0.1,0.6-0.1
			c0.3,0,0.6,0,0.9,0.1c0.3,0.1,0.4,0.2,0.6,0.4s0.2,0.4,0.2,0.7l-0.7,0.1c0-0.2-0.1-0.4-0.3-0.5c-0.2-0.1-0.4-0.2-0.6-0.2
			c-0.3,0-0.6,0.1-0.7,0.2c-0.1,0.1-0.2,0.2-0.2,0.4c0,0.1,0,0.2,0.1,0.3c0.1,0.1,0.1,0.1,0.3,0.2c0.1,0,0.3,0.1,0.6,0.2
			c0.5,0.1,0.9,0.2,1.1,0.3s0.4,0.2,0.5,0.4c0.1,0.2,0.2,0.4,0.2,0.6c0,0.2-0.1,0.5-0.2,0.7s-0.3,0.4-0.6,0.5s-0.6,0.2-0.9,0.2
			c-0.5,0-1-0.1-1.3-0.3C374.8,136.8,374.6,136.5,374.5,136z"/>
		<path id="XMLID_151_" d="M378.9,138.9V133h0.7v0.5c0.2-0.2,0.3-0.4,0.5-0.5s0.4-0.2,0.7-0.2c0.4,0,0.7,0.1,1,0.3
			c0.3,0.2,0.5,0.4,0.6,0.8s0.2,0.7,0.2,1.1c0,0.4-0.1,0.8-0.2,1.2c-0.2,0.3-0.4,0.6-0.7,0.8c-0.3,0.2-0.6,0.3-0.9,0.3
			c-0.2,0-0.5-0.1-0.6-0.2s-0.3-0.2-0.5-0.4v2.1H378.9z M379.5,135.2c0,0.5,0.1,0.9,0.3,1.2s0.5,0.4,0.8,0.4c0.3,0,0.6-0.1,0.8-0.4
			s0.3-0.7,0.3-1.3c0-0.5-0.1-0.9-0.3-1.2s-0.5-0.4-0.8-0.4c-0.3,0-0.6,0.1-0.8,0.4C379.6,134.2,379.5,134.6,379.5,135.2z"/>
		<path id="XMLID_154_" d="M383.1,135.2c0-0.8,0.2-1.4,0.7-1.7c0.4-0.3,0.8-0.5,1.3-0.5c0.6,0,1.1,0.2,1.4,0.6
			c0.4,0.4,0.6,0.9,0.6,1.6c0,0.5-0.1,1-0.2,1.3s-0.4,0.6-0.7,0.7c-0.3,0.2-0.7,0.3-1,0.3c-0.6,0-1.1-0.2-1.4-0.6
			C383.3,136.4,383.1,135.9,383.1,135.2z M383.9,135.2c0,0.5,0.1,0.9,0.4,1.2s0.5,0.4,0.9,0.4c0.4,0,0.7-0.1,0.9-0.4
			s0.4-0.7,0.4-1.2c0-0.5-0.1-0.9-0.4-1.2c-0.2-0.3-0.5-0.4-0.9-0.4c-0.4,0-0.7,0.1-0.9,0.4S383.9,134.6,383.9,135.2z"/>
		<path id="XMLID_157_" d="M387.9,137.3V133h0.6v0.6c0.3-0.5,0.8-0.7,1.3-0.7c0.3,0,0.5,0,0.7,0.1c0.2,0.1,0.4,0.2,0.5,0.4
			s0.2,0.3,0.2,0.5c0,0.1,0,0.4,0,0.7v2.6h-0.7v-2.6c0-0.3,0-0.5-0.1-0.7c-0.1-0.1-0.2-0.3-0.3-0.3c-0.1-0.1-0.3-0.1-0.5-0.1
			c-0.3,0-0.6,0.1-0.8,0.3c-0.2,0.2-0.3,0.6-0.3,1.1v2.3H387.9z"/>
		<path id="XMLID_159_" d="M392.4,132.3v-0.8h0.7v0.8H392.4z M392.4,137.3V133h0.7v4.2H392.4z"/>
		<path id="XMLID_162_" d="M394.9,137.3h-0.7v-5.8h0.7v2.1c0.3-0.4,0.7-0.6,1.2-0.6c0.3,0,0.5,0.1,0.7,0.2c0.2,0.1,0.4,0.3,0.6,0.4
			s0.3,0.4,0.4,0.7s0.1,0.6,0.1,0.9c0,0.7-0.2,1.3-0.5,1.7c-0.4,0.4-0.8,0.6-1.3,0.6c-0.5,0-0.9-0.2-1.2-0.6V137.3z M394.9,135.1
			c0,0.5,0.1,0.9,0.2,1.1c0.2,0.4,0.5,0.6,0.9,0.6c0.3,0,0.6-0.1,0.8-0.4c0.2-0.3,0.3-0.7,0.3-1.2c0-0.6-0.1-1-0.3-1.2
			c-0.2-0.3-0.5-0.4-0.8-0.4c-0.3,0-0.6,0.1-0.8,0.4C395,134.2,394.9,134.6,394.9,135.1z"/>
		<path id="XMLID_165_" d="M398.8,132.3v-0.8h0.7v0.8H398.8z M398.8,137.3V133h0.7v4.2H398.8z"/>
		<path id="XMLID_168_" d="M400.6,137.3v-5.8h0.7v5.8H400.6z"/>
		<path id="XMLID_170_" d="M402.4,132.3v-0.8h0.7v0.8H402.4z M402.4,137.3V133h0.7v4.2H402.4z"/>
		<path id="XMLID_173_" d="M406.9,137.3v-0.5c-0.3,0.4-0.7,0.6-1.2,0.6c-0.3,0-0.6-0.1-0.9-0.3s-0.5-0.4-0.7-0.8
			c-0.2-0.3-0.2-0.7-0.2-1.1c0-0.4,0.1-0.8,0.2-1.1c0.1-0.3,0.4-0.6,0.6-0.8s0.6-0.3,0.9-0.3c0.3,0,0.5,0.1,0.7,0.2s0.4,0.2,0.5,0.4
			v-2.1h0.7v5.8H406.9z M404.7,135.2c0,0.5,0.1,0.9,0.3,1.2s0.5,0.4,0.8,0.4c0.3,0,0.6-0.1,0.8-0.4s0.3-0.6,0.3-1.2
			c0-0.6-0.1-1-0.3-1.3s-0.5-0.4-0.8-0.4c-0.3,0-0.6,0.1-0.8,0.4C404.8,134.2,404.7,134.6,404.7,135.2z"/>
		<path id="XMLID_176_" d="M411.5,136.7c-0.3,0.2-0.5,0.4-0.8,0.5s-0.5,0.1-0.8,0.1c-0.5,0-0.8-0.1-1.1-0.3s-0.4-0.5-0.4-0.9
			c0-0.2,0-0.4,0.1-0.6s0.2-0.3,0.4-0.4s0.3-0.2,0.5-0.2c0.1,0,0.4-0.1,0.6-0.1c0.6-0.1,1-0.2,1.3-0.2c0-0.1,0-0.2,0-0.2
			c0-0.3-0.1-0.5-0.2-0.6c-0.2-0.2-0.5-0.2-0.8-0.2c-0.3,0-0.6,0.1-0.7,0.2c-0.2,0.1-0.3,0.3-0.4,0.6l-0.7-0.1
			c0.1-0.3,0.2-0.5,0.3-0.7c0.1-0.2,0.4-0.3,0.6-0.4c0.3-0.1,0.6-0.1,1-0.1c0.4,0,0.7,0,0.9,0.1s0.4,0.2,0.5,0.3s0.2,0.3,0.2,0.5
			c0,0.1,0,0.3,0,0.7v1c0,0.7,0,1.1,0,1.3c0,0.2,0.1,0.3,0.2,0.5h-0.7C411.6,137.1,411.5,136.9,411.5,136.7z M411.4,135.1
			c-0.3,0.1-0.7,0.2-1.2,0.3c-0.3,0-0.5,0.1-0.6,0.1c-0.1,0.1-0.2,0.1-0.3,0.2c-0.1,0.1-0.1,0.2-0.1,0.3c0,0.2,0.1,0.3,0.2,0.5
			c0.1,0.1,0.4,0.2,0.6,0.2c0.3,0,0.5-0.1,0.7-0.2c0.2-0.1,0.4-0.3,0.5-0.5c0.1-0.2,0.1-0.4,0.1-0.7V135.1z"/>
		<path id="XMLID_179_" d="M416,137.3v-0.5c-0.3,0.4-0.7,0.6-1.2,0.6c-0.3,0-0.6-0.1-0.9-0.3s-0.5-0.4-0.7-0.8
			c-0.2-0.3-0.2-0.7-0.2-1.1c0-0.4,0.1-0.8,0.2-1.1c0.1-0.3,0.4-0.6,0.6-0.8s0.6-0.3,0.9-0.3c0.3,0,0.5,0.1,0.7,0.2s0.4,0.2,0.5,0.4
			v-2.1h0.7v5.8H416z M413.7,135.2c0,0.5,0.1,0.9,0.3,1.2s0.5,0.4,0.8,0.4c0.3,0,0.6-0.1,0.8-0.4s0.3-0.6,0.3-1.2
			c0-0.6-0.1-1-0.3-1.3s-0.5-0.4-0.8-0.4c-0.3,0-0.6,0.1-0.8,0.4C413.8,134.2,413.7,134.6,413.7,135.2z"/>
		<path id="XMLID_182_" d="M419.2,139c-0.4-0.5-0.7-1.1-1-1.8s-0.4-1.4-0.4-2.1c0-0.6,0.1-1.2,0.3-1.8c0.2-0.7,0.6-1.3,1.1-2h0.5
			c-0.3,0.6-0.5,0.9-0.6,1.2c-0.2,0.4-0.3,0.7-0.4,1.1c-0.1,0.5-0.2,1-0.2,1.5c0,1.3,0.4,2.5,1.2,3.8H419.2z"/>
		<path id="XMLID_184_" d="M421,139h-0.5c0.8-1.3,1.2-2.5,1.2-3.8c0-0.5-0.1-1-0.2-1.5c-0.1-0.4-0.2-0.8-0.4-1.1
			c-0.1-0.2-0.3-0.6-0.6-1.2h0.5c0.5,0.7,0.9,1.3,1.1,2c0.2,0.6,0.3,1.2,0.3,1.8c0,0.7-0.1,1.4-0.4,2.1
			C421.7,137.9,421.4,138.5,421,139z"/>
	</g>
	<g id="XMLID_8046_">
		<line id="XMLID_388_" class="st0" x1="331.4" y1="141.4" x2="443.2" y2="141.4"/>
		<g id="XMLID_384_">
			<line id="XMLID_387_" class="st1" x1="331.4" y1="141.4" x2="435.3" y2="141.4"/>
			<g id="XMLID_385_">
				<polygon id="XMLID_386_" class="st9" points="443.2,141.4 432,145.9 434.7,141.4 432,136.8 				"/>
			</g>
		</g>
	</g>
	<g id="XMLID_94_">
		<path id="XMLID_96_" d="M125.3,201.6l0.8-0.1c0.1,0.4,0.2,0.6,0.4,0.8c0.2,0.2,0.4,0.3,0.7,0.3c0.3,0,0.6-0.1,0.9-0.4
			c0.2-0.3,0.4-0.6,0.4-1c0-0.4-0.1-0.7-0.3-1c-0.2-0.2-0.5-0.4-0.9-0.4c-0.2,0-0.4,0.1-0.6,0.2s-0.3,0.2-0.4,0.4l-0.7-0.1l0.6-3
			h2.9v0.7h-2.3l-0.3,1.6c0.3-0.2,0.7-0.4,1.1-0.4c0.5,0,0.9,0.2,1.3,0.5c0.4,0.4,0.5,0.8,0.5,1.4c0,0.5-0.2,1-0.5,1.4
			c-0.4,0.5-0.9,0.7-1.5,0.7c-0.5,0-1-0.1-1.3-0.4C125.6,202.4,125.4,202,125.3,201.6z"/>
		<path id="XMLID_98_" d="M130.3,199.7v-0.8h0.8v0.8H130.3z M130.3,203.1v-0.8h0.8v0.8H130.3z"/>
		<path id="XMLID_101_" d="M137.3,201.5l0.7,0.1c-0.1,0.5-0.3,0.9-0.6,1.1c-0.3,0.3-0.7,0.4-1.2,0.4c-0.6,0-1-0.2-1.4-0.6
			c-0.4-0.4-0.5-0.9-0.5-1.6c0-0.5,0.1-0.9,0.2-1.2c0.2-0.3,0.4-0.6,0.7-0.8c0.3-0.2,0.6-0.3,1-0.3c0.5,0,0.8,0.1,1.1,0.3
			c0.3,0.2,0.5,0.6,0.6,1l-0.7,0.1c-0.1-0.3-0.2-0.5-0.4-0.6c-0.2-0.1-0.4-0.2-0.6-0.2c-0.4,0-0.7,0.1-0.9,0.4
			c-0.2,0.3-0.3,0.7-0.3,1.2c0,0.6,0.1,1,0.3,1.2c0.2,0.3,0.5,0.4,0.9,0.4c0.3,0,0.5-0.1,0.7-0.3
			C137.2,202.2,137.3,201.9,137.3,201.5z"/>
		<path id="XMLID_103_" d="M138.7,198.1v-0.8h0.7v0.8H138.7z M138.7,203.1v-4.2h0.7v4.2H138.7z"/>
		<path id="XMLID_106_" d="M142,202.4l0.1,0.6c-0.2,0-0.4,0.1-0.5,0.1c-0.3,0-0.5,0-0.6-0.1s-0.2-0.2-0.3-0.3s-0.1-0.4-0.1-0.8v-2.4
			h-0.5v-0.6h0.5v-1l0.7-0.4v1.5h0.7v0.6h-0.7v2.5c0,0.2,0,0.3,0,0.4c0,0.1,0.1,0.1,0.1,0.1s0.1,0.1,0.2,0.1
			C141.8,202.5,141.9,202.5,142,202.4z"/>
		<path id="XMLID_108_" d="M145.5,202.6c-0.3,0.2-0.5,0.4-0.8,0.5s-0.5,0.1-0.8,0.1c-0.5,0-0.8-0.1-1.1-0.3s-0.4-0.5-0.4-0.9
			c0-0.2,0-0.4,0.1-0.6c0.1-0.2,0.2-0.3,0.4-0.4s0.3-0.2,0.5-0.2c0.1,0,0.4-0.1,0.6-0.1c0.6-0.1,1-0.2,1.3-0.2c0-0.1,0-0.2,0-0.2
			c0-0.3-0.1-0.5-0.2-0.6c-0.2-0.2-0.5-0.2-0.8-0.2c-0.3,0-0.6,0.1-0.7,0.2c-0.2,0.1-0.3,0.3-0.4,0.6l-0.7-0.1
			c0.1-0.3,0.2-0.5,0.3-0.7c0.1-0.2,0.4-0.3,0.6-0.4c0.3-0.1,0.6-0.1,1-0.1c0.4,0,0.7,0,0.9,0.1c0.2,0.1,0.4,0.2,0.5,0.3
			s0.2,0.3,0.2,0.5c0,0.1,0,0.3,0,0.7v1c0,0.7,0,1.1,0,1.3c0,0.2,0.1,0.3,0.2,0.5h-0.7C145.5,202.9,145.5,202.8,145.5,202.6z
			 M145.4,201c-0.3,0.1-0.6,0.2-1.2,0.3c-0.3,0-0.5,0.1-0.6,0.1c-0.1,0.1-0.2,0.1-0.3,0.2c-0.1,0.1-0.1,0.2-0.1,0.3
			c0,0.2,0.1,0.3,0.2,0.5c0.1,0.1,0.4,0.2,0.6,0.2c0.3,0,0.5-0.1,0.7-0.2c0.2-0.1,0.4-0.3,0.5-0.5c0.1-0.2,0.1-0.4,0.1-0.7V201z"/>
		<path id="XMLID_111_" d="M146.7,203.1l2.2-5.8h0.8l2.4,5.8h-0.9l-0.7-1.8h-2.4l-0.6,1.8H146.7z M148.4,200.7h2l-0.6-1.6
			c-0.2-0.5-0.3-0.9-0.4-1.2c-0.1,0.4-0.2,0.7-0.3,1.1L148.4,200.7z"/>
		<path id="XMLID_114_" d="M152.4,201.8l0.7-0.1c0,0.3,0.2,0.5,0.3,0.7s0.4,0.2,0.8,0.2c0.3,0,0.6-0.1,0.7-0.2
			c0.2-0.1,0.2-0.3,0.2-0.5c0-0.2-0.1-0.3-0.2-0.4c-0.1-0.1-0.3-0.1-0.7-0.2c-0.5-0.1-0.9-0.2-1.1-0.3c-0.2-0.1-0.4-0.2-0.5-0.4
			c-0.1-0.2-0.2-0.4-0.2-0.6c0-0.2,0-0.4,0.1-0.5c0.1-0.2,0.2-0.3,0.4-0.4c0.1-0.1,0.3-0.2,0.5-0.2c0.2-0.1,0.4-0.1,0.6-0.1
			c0.3,0,0.6,0,0.9,0.1c0.3,0.1,0.4,0.2,0.6,0.4c0.1,0.2,0.2,0.4,0.2,0.7L155,200c0-0.2-0.1-0.4-0.3-0.5c-0.2-0.1-0.4-0.2-0.6-0.2
			c-0.3,0-0.6,0.1-0.7,0.2c-0.1,0.1-0.2,0.2-0.2,0.4c0,0.1,0,0.2,0.1,0.3c0.1,0.1,0.1,0.1,0.3,0.2c0.1,0,0.3,0.1,0.6,0.2
			c0.5,0.1,0.9,0.2,1.1,0.3s0.4,0.2,0.5,0.4s0.2,0.4,0.2,0.6c0,0.2-0.1,0.5-0.2,0.7s-0.3,0.4-0.6,0.5c-0.3,0.1-0.6,0.2-0.9,0.2
			c-0.5,0-1-0.1-1.3-0.3C152.7,202.6,152.5,202.3,152.4,201.8z"/>
		<path id="XMLID_116_" d="M156.8,198.1v-0.8h0.7v0.8H156.8z M156.8,203.1v-4.2h0.7v4.2H156.8z"/>
		<path id="XMLID_119_" d="M158.4,203.4l0.7,0.1c0,0.2,0.1,0.4,0.2,0.5c0.2,0.1,0.4,0.2,0.7,0.2c0.3,0,0.6-0.1,0.8-0.2
			c0.2-0.1,0.3-0.3,0.4-0.6c0-0.1,0.1-0.5,0.1-0.9c-0.3,0.4-0.7,0.6-1.2,0.6c-0.6,0-1-0.2-1.3-0.6c-0.3-0.4-0.5-0.9-0.5-1.5
			c0-0.4,0.1-0.8,0.2-1.1c0.1-0.3,0.4-0.6,0.6-0.8s0.6-0.3,1-0.3c0.5,0,0.9,0.2,1.2,0.6v-0.5h0.7v3.6c0,0.7-0.1,1.1-0.2,1.4
			s-0.3,0.5-0.6,0.6c-0.3,0.2-0.6,0.2-1.1,0.2c-0.5,0-0.9-0.1-1.2-0.3C158.6,204.2,158.4,203.9,158.4,203.4z M159,200.9
			c0,0.6,0.1,1,0.3,1.2c0.2,0.3,0.5,0.4,0.8,0.4c0.3,0,0.6-0.1,0.8-0.4c0.2-0.3,0.3-0.7,0.3-1.2c0-0.5-0.1-0.9-0.3-1.2
			c-0.2-0.3-0.5-0.4-0.8-0.4c-0.3,0-0.6,0.1-0.8,0.4C159.1,200,159,200.4,159,200.9z"/>
		<path id="XMLID_122_" d="M163.1,203.1v-4.2h0.6v0.6c0.3-0.5,0.8-0.7,1.3-0.7c0.3,0,0.5,0,0.7,0.1c0.2,0.1,0.4,0.2,0.5,0.4
			s0.2,0.3,0.2,0.5c0,0.1,0,0.4,0,0.7v2.6h-0.7v-2.6c0-0.3,0-0.5-0.1-0.7c-0.1-0.1-0.2-0.3-0.3-0.3c-0.1-0.1-0.3-0.1-0.5-0.1
			c-0.3,0-0.6,0.1-0.8,0.3c-0.2,0.2-0.3,0.6-0.3,1.1v2.3H163.1z"/>
		<path id="XMLID_124_" d="M170.4,202.6c-0.3,0.2-0.5,0.4-0.8,0.5s-0.5,0.1-0.8,0.1c-0.5,0-0.8-0.1-1.1-0.3s-0.4-0.5-0.4-0.9
			c0-0.2,0-0.4,0.1-0.6c0.1-0.2,0.2-0.3,0.4-0.4s0.3-0.2,0.5-0.2c0.1,0,0.4-0.1,0.6-0.1c0.6-0.1,1-0.2,1.3-0.2c0-0.1,0-0.2,0-0.2
			c0-0.3-0.1-0.5-0.2-0.6c-0.2-0.2-0.5-0.2-0.8-0.2c-0.3,0-0.6,0.1-0.7,0.2c-0.2,0.1-0.3,0.3-0.4,0.6l-0.7-0.1
			c0.1-0.3,0.2-0.5,0.3-0.7c0.1-0.2,0.4-0.3,0.6-0.4c0.3-0.1,0.6-0.1,1-0.1c0.4,0,0.7,0,0.9,0.1c0.2,0.1,0.4,0.2,0.5,0.3
			s0.2,0.3,0.2,0.5c0,0.1,0,0.3,0,0.7v1c0,0.7,0,1.1,0,1.3c0,0.2,0.1,0.3,0.2,0.5h-0.7C170.4,202.9,170.4,202.8,170.4,202.6z
			 M170.3,201c-0.3,0.1-0.6,0.2-1.2,0.3c-0.3,0-0.5,0.1-0.6,0.1c-0.1,0.1-0.2,0.1-0.3,0.2c-0.1,0.1-0.1,0.2-0.1,0.3
			c0,0.2,0.1,0.3,0.2,0.5c0.1,0.1,0.4,0.2,0.6,0.2c0.3,0,0.5-0.1,0.7-0.2c0.2-0.1,0.4-0.3,0.5-0.5c0.1-0.2,0.1-0.4,0.1-0.7V201z"/>
		<path id="XMLID_127_" d="M174.9,203.1v-0.5c-0.3,0.4-0.7,0.6-1.2,0.6c-0.3,0-0.6-0.1-0.9-0.3s-0.5-0.4-0.7-0.8
			c-0.2-0.3-0.2-0.7-0.2-1.1c0-0.4,0.1-0.8,0.2-1.1c0.1-0.3,0.4-0.6,0.6-0.8s0.6-0.3,0.9-0.3c0.3,0,0.5,0.1,0.7,0.2s0.4,0.2,0.5,0.4
			v-2.1h0.7v5.8H174.9z M172.6,201c0,0.5,0.1,0.9,0.3,1.2c0.2,0.3,0.5,0.4,0.8,0.4c0.3,0,0.6-0.1,0.8-0.4c0.2-0.3,0.3-0.6,0.3-1.2
			c0-0.6-0.1-1-0.3-1.3c-0.2-0.3-0.5-0.4-0.8-0.4c-0.3,0-0.6,0.1-0.8,0.4C172.7,200,172.6,200.4,172.6,201z"/>
		<path id="XMLID_130_" d="M179.4,202.6c-0.3,0.2-0.5,0.4-0.8,0.5s-0.5,0.1-0.8,0.1c-0.5,0-0.8-0.1-1.1-0.3s-0.4-0.5-0.4-0.9
			c0-0.2,0-0.4,0.1-0.6c0.1-0.2,0.2-0.3,0.4-0.4s0.3-0.2,0.5-0.2c0.1,0,0.4-0.1,0.6-0.1c0.6-0.1,1-0.2,1.3-0.2c0-0.1,0-0.2,0-0.2
			c0-0.3-0.1-0.5-0.2-0.6c-0.2-0.2-0.5-0.2-0.8-0.2c-0.3,0-0.6,0.1-0.7,0.2c-0.2,0.1-0.3,0.3-0.4,0.6l-0.7-0.1
			c0.1-0.3,0.2-0.5,0.3-0.7c0.1-0.2,0.4-0.3,0.6-0.4c0.3-0.1,0.6-0.1,1-0.1c0.4,0,0.7,0,0.9,0.1c0.2,0.1,0.4,0.2,0.5,0.3
			s0.2,0.3,0.2,0.5c0,0.1,0,0.3,0,0.7v1c0,0.7,0,1.1,0,1.3c0,0.2,0.1,0.3,0.2,0.5h-0.7C179.5,202.9,179.4,202.8,179.4,202.6z
			 M179.4,201c-0.3,0.1-0.6,0.2-1.2,0.3c-0.3,0-0.5,0.1-0.6,0.1c-0.1,0.1-0.2,0.1-0.3,0.2c-0.1,0.1-0.1,0.2-0.1,0.3
			c0,0.2,0.1,0.3,0.2,0.5c0.1,0.1,0.4,0.2,0.6,0.2c0.3,0,0.5-0.1,0.7-0.2c0.2-0.1,0.4-0.3,0.5-0.5c0.1-0.2,0.1-0.4,0.1-0.7V201z"/>
		<path id="XMLID_133_" d="M182.6,204.8c-0.4-0.5-0.7-1.1-1-1.8s-0.4-1.4-0.4-2.1c0-0.6,0.1-1.2,0.3-1.8c0.2-0.7,0.6-1.3,1.1-2h0.5
			c-0.3,0.6-0.5,0.9-0.6,1.2c-0.2,0.4-0.3,0.7-0.4,1.1c-0.1,0.5-0.2,1-0.2,1.5c0,1.3,0.4,2.5,1.2,3.8H182.6z"/>
		<path id="XMLID_135_" d="M184.4,204.8h-0.5c0.8-1.3,1.2-2.5,1.2-3.8c0-0.5-0.1-1-0.2-1.5c-0.1-0.4-0.2-0.8-0.4-1.1
			c-0.1-0.2-0.3-0.6-0.6-1.2h0.5c0.5,0.7,0.9,1.3,1.1,2c0.2,0.6,0.3,1.2,0.3,1.8c0,0.7-0.1,1.4-0.4,2.1
			C185.1,203.7,184.8,204.3,184.4,204.8z"/>
	</g>
	<g id="XMLID_8037_">
		<line id="XMLID_382_" class="st0" x1="213.7" y1="207.2" x2="101.9" y2="207.2"/>
		<g id="XMLID_378_">
			<line id="XMLID_381_" class="st1" x1="213.7" y1="207.2" x2="109.8" y2="207.2"/>
			<g id="XMLID_379_">
				<polygon id="XMLID_380_" class="st9" points="101.9,207.2 113.1,202.6 110.4,207.2 113.1,211.8 				"/>
			</g>
		</g>
	</g>
	<g id="XMLID_54_">
		<path id="XMLID_55_" d="M264.7,169.5v-1.4h-2.5v-0.7l2.7-3.8h0.6v3.8h0.8v0.7h-0.8v1.4H264.7z M264.7,167.4v-2.6l-1.8,2.6H264.7z"
			/>
		<path id="XMLID_59_" d="M267.3,166.1v-0.8h0.8v0.8H267.3z M267.3,169.5v-0.8h0.8v0.8H267.3z"/>
		<path id="XMLID_62_" d="M274.4,169.5v-0.5c-0.3,0.4-0.7,0.6-1.2,0.6c-0.3,0-0.6-0.1-0.9-0.3s-0.5-0.4-0.7-0.8
			c-0.2-0.3-0.2-0.7-0.2-1.1c0-0.4,0.1-0.8,0.2-1.1c0.1-0.3,0.4-0.6,0.6-0.8c0.3-0.2,0.6-0.3,0.9-0.3c0.3,0,0.5,0.1,0.7,0.2
			c0.2,0.1,0.4,0.2,0.5,0.4v-2.1h0.7v5.8H274.4z M272.1,167.4c0,0.5,0.1,0.9,0.3,1.2s0.5,0.4,0.8,0.4c0.3,0,0.6-0.1,0.8-0.4
			c0.2-0.3,0.3-0.6,0.3-1.2c0-0.6-0.1-1-0.3-1.3c-0.2-0.3-0.5-0.4-0.8-0.4c-0.3,0-0.6,0.1-0.8,0.4
			C272.3,166.4,272.1,166.8,272.1,167.4z"/>
		<path id="XMLID_65_" d="M279,169c-0.3,0.2-0.5,0.4-0.8,0.5s-0.5,0.1-0.8,0.1c-0.5,0-0.8-0.1-1.1-0.3s-0.4-0.5-0.4-0.9
			c0-0.2,0-0.4,0.1-0.6c0.1-0.2,0.2-0.3,0.4-0.4s0.3-0.2,0.5-0.2c0.1,0,0.4-0.1,0.6-0.1c0.6-0.1,1-0.2,1.3-0.2c0-0.1,0-0.2,0-0.2
			c0-0.3-0.1-0.5-0.2-0.6c-0.2-0.2-0.5-0.2-0.8-0.2c-0.3,0-0.6,0.1-0.7,0.2c-0.2,0.1-0.3,0.3-0.4,0.6l-0.7-0.1
			c0.1-0.3,0.2-0.5,0.3-0.7c0.1-0.2,0.4-0.3,0.6-0.4c0.3-0.1,0.6-0.1,1-0.1c0.4,0,0.7,0,0.9,0.1s0.4,0.2,0.5,0.3
			c0.1,0.1,0.2,0.3,0.2,0.5c0,0.1,0,0.3,0,0.7v1c0,0.7,0,1.1,0,1.3c0,0.2,0.1,0.3,0.2,0.5h-0.7C279,169.3,279,169.2,279,169z
			 M278.9,167.4c-0.3,0.1-0.6,0.2-1.2,0.3c-0.3,0-0.5,0.1-0.6,0.1c-0.1,0.1-0.2,0.1-0.3,0.2c-0.1,0.1-0.1,0.2-0.1,0.3
			c0,0.2,0.1,0.3,0.2,0.5c0.1,0.1,0.4,0.2,0.6,0.2c0.3,0,0.5-0.1,0.7-0.2c0.2-0.1,0.4-0.3,0.5-0.5c0.1-0.2,0.1-0.4,0.1-0.7V167.4z"
			/>
		<path id="XMLID_69_" d="M282.3,168.8l0.1,0.6c-0.2,0-0.4,0.1-0.5,0.1c-0.3,0-0.5,0-0.6-0.1c-0.1-0.1-0.2-0.2-0.3-0.3
			c-0.1-0.1-0.1-0.4-0.1-0.8v-2.4h-0.5v-0.6h0.5v-1l0.7-0.4v1.5h0.7v0.6h-0.7v2.5c0,0.2,0,0.3,0,0.4c0,0.1,0.1,0.1,0.1,0.1
			c0.1,0,0.1,0.1,0.2,0.1C282.1,168.9,282.2,168.9,282.3,168.8z"/>
		<path id="XMLID_71_" d="M282.7,167.4c0-0.8,0.2-1.4,0.7-1.7c0.4-0.3,0.8-0.5,1.3-0.5c0.6,0,1.1,0.2,1.4,0.6
			c0.4,0.4,0.6,0.9,0.6,1.6c0,0.5-0.1,1-0.2,1.3s-0.4,0.6-0.7,0.7s-0.7,0.3-1,0.3c-0.6,0-1.1-0.2-1.4-0.6
			C282.9,168.6,282.7,168.1,282.7,167.4z M283.5,167.4c0,0.5,0.1,0.9,0.4,1.2c0.2,0.3,0.5,0.4,0.9,0.4c0.4,0,0.7-0.1,0.9-0.4
			c0.2-0.3,0.4-0.7,0.4-1.2c0-0.5-0.1-0.9-0.4-1.2c-0.2-0.3-0.5-0.4-0.9-0.4c-0.4,0-0.7,0.1-0.9,0.4
			C283.6,166.4,283.5,166.8,283.5,167.4z"/>
		<path id="XMLID_74_" d="M287.2,168.2l0.7-0.1c0,0.3,0.2,0.5,0.3,0.7s0.4,0.2,0.8,0.2c0.3,0,0.6-0.1,0.7-0.2s0.2-0.3,0.2-0.5
			c0-0.2-0.1-0.3-0.2-0.4c-0.1-0.1-0.3-0.1-0.7-0.2c-0.5-0.1-0.9-0.2-1.1-0.3s-0.4-0.2-0.5-0.4c-0.1-0.2-0.2-0.4-0.2-0.6
			c0-0.2,0-0.4,0.1-0.5c0.1-0.2,0.2-0.3,0.4-0.4c0.1-0.1,0.3-0.2,0.5-0.2c0.2-0.1,0.4-0.1,0.6-0.1c0.3,0,0.6,0,0.9,0.1
			c0.3,0.1,0.4,0.2,0.6,0.4s0.2,0.4,0.2,0.7l-0.7,0.1c0-0.2-0.1-0.4-0.3-0.5s-0.4-0.2-0.6-0.2c-0.3,0-0.6,0.1-0.7,0.2
			c-0.1,0.1-0.2,0.2-0.2,0.4c0,0.1,0,0.2,0.1,0.3c0.1,0.1,0.1,0.1,0.3,0.2c0.1,0,0.3,0.1,0.6,0.2c0.5,0.1,0.9,0.2,1.1,0.3
			s0.4,0.2,0.5,0.4c0.1,0.2,0.2,0.4,0.2,0.6c0,0.2-0.1,0.5-0.2,0.7c-0.1,0.2-0.3,0.4-0.6,0.5s-0.6,0.2-0.9,0.2c-0.5,0-1-0.1-1.3-0.3
			C287.5,169,287.3,168.7,287.2,168.2z"/>
		<path id="XMLID_76_" d="M295.8,167.4l0.8,0.2c-0.2,0.6-0.5,1.1-0.9,1.4c-0.4,0.3-0.9,0.5-1.5,0.5c-0.6,0-1.1-0.1-1.5-0.4
			s-0.7-0.6-0.9-1.1c-0.2-0.5-0.3-1-0.3-1.6c0-0.6,0.1-1.1,0.3-1.6c0.2-0.5,0.6-0.8,1-1c0.4-0.2,0.9-0.4,1.4-0.4
			c0.6,0,1.1,0.1,1.5,0.4s0.7,0.7,0.8,1.3l-0.8,0.2c-0.1-0.4-0.3-0.7-0.6-0.9s-0.6-0.3-1-0.3c-0.4,0-0.8,0.1-1.1,0.3
			s-0.5,0.5-0.6,0.9c-0.1,0.4-0.2,0.7-0.2,1.1c0,0.5,0.1,0.9,0.2,1.3c0.1,0.4,0.4,0.6,0.7,0.8s0.6,0.3,1,0.3c0.4,0,0.8-0.1,1.1-0.4
			C295.5,168.3,295.7,167.9,295.8,167.4z"/>
		<path id="XMLID_79_" d="M297.5,164.5v-0.8h0.7v0.8H297.5z M297.5,169.5v-4.2h0.7v4.2H297.5z"/>
		<path id="XMLID_83_" d="M300.8,168.8l0.1,0.6c-0.2,0-0.4,0.1-0.5,0.1c-0.3,0-0.5,0-0.6-0.1c-0.1-0.1-0.2-0.2-0.3-0.3
			c-0.1-0.1-0.1-0.4-0.1-0.8v-2.4h-0.5v-0.6h0.5v-1l0.7-0.4v1.5h0.7v0.6h-0.7v2.5c0,0.2,0,0.3,0,0.4c0,0.1,0.1,0.1,0.1,0.1
			c0.1,0,0.1,0.1,0.2,0.1C300.6,168.9,300.7,168.9,300.8,168.8z"/>
		<path id="XMLID_85_" d="M304.3,169c-0.3,0.2-0.5,0.4-0.8,0.5s-0.5,0.1-0.8,0.1c-0.5,0-0.8-0.1-1.1-0.3s-0.4-0.5-0.4-0.9
			c0-0.2,0-0.4,0.1-0.6c0.1-0.2,0.2-0.3,0.4-0.4s0.3-0.2,0.5-0.2c0.1,0,0.4-0.1,0.6-0.1c0.6-0.1,1-0.2,1.3-0.2c0-0.1,0-0.2,0-0.2
			c0-0.3-0.1-0.5-0.2-0.6c-0.2-0.2-0.5-0.2-0.8-0.2c-0.3,0-0.6,0.1-0.7,0.2c-0.2,0.1-0.3,0.3-0.4,0.6l-0.7-0.1
			c0.1-0.3,0.2-0.5,0.3-0.7c0.1-0.2,0.4-0.3,0.6-0.4c0.3-0.1,0.6-0.1,1-0.1c0.4,0,0.7,0,0.9,0.1s0.4,0.2,0.5,0.3
			c0.1,0.1,0.2,0.3,0.2,0.5c0,0.1,0,0.3,0,0.7v1c0,0.7,0,1.1,0,1.3c0,0.2,0.1,0.3,0.2,0.5h-0.7C304.4,169.3,304.3,169.2,304.3,169z
			 M304.2,167.4c-0.3,0.1-0.6,0.2-1.2,0.3c-0.3,0-0.5,0.1-0.6,0.1c-0.1,0.1-0.2,0.1-0.3,0.2c-0.1,0.1-0.1,0.2-0.1,0.3
			c0,0.2,0.1,0.3,0.2,0.5c0.1,0.1,0.4,0.2,0.6,0.2c0.3,0,0.5-0.1,0.7-0.2c0.2-0.1,0.4-0.3,0.5-0.5c0.1-0.2,0.1-0.4,0.1-0.7V167.4z"
			/>
		<path id="XMLID_89_" d="M307.4,171.2c-0.4-0.5-0.7-1.1-1-1.8c-0.3-0.7-0.4-1.4-0.4-2.1c0-0.6,0.1-1.2,0.3-1.8
			c0.2-0.7,0.6-1.3,1.1-2h0.5c-0.3,0.6-0.5,0.9-0.6,1.2c-0.2,0.4-0.3,0.7-0.4,1.1c-0.1,0.5-0.2,1-0.2,1.5c0,1.3,0.4,2.5,1.2,3.8
			H307.4z"/>
		<path id="XMLID_91_" d="M309.2,171.2h-0.5c0.8-1.3,1.2-2.5,1.2-3.8c0-0.5-0.1-1-0.2-1.5c-0.1-0.4-0.2-0.8-0.4-1.1
			c-0.1-0.2-0.3-0.6-0.6-1.2h0.5c0.5,0.7,0.9,1.3,1.1,2c0.2,0.6,0.3,1.2,0.3,1.8c0,0.7-0.1,1.4-0.4,2.1S309.6,170.7,309.2,171.2z"/>
	</g>
	<g id="XMLID_8028_">
		<line id="XMLID_376_" class="st0" x1="448.7" y1="173.6" x2="219.1" y2="173.6"/>
		<g id="XMLID_372_">
			<line id="XMLID_375_" class="st1" x1="448.7" y1="173.6" x2="227.1" y2="173.6"/>
			<g id="XMLID_373_">
				<polygon id="XMLID_374_" class="st9" points="219.1,173.6 230.3,169 227.7,173.6 230.3,178.1 				"/>
			</g>
		</g>
	</g>
	<g id="XMLID_24_">
		<path id="XMLID_25_" d="M231.3,103.8v0.7h-3.9c0-0.2,0-0.3,0.1-0.5c0.1-0.3,0.3-0.5,0.5-0.8c0.2-0.3,0.5-0.5,0.9-0.9
			c0.6-0.5,1.1-0.9,1.3-1.2c0.2-0.3,0.3-0.6,0.3-0.9c0-0.3-0.1-0.5-0.3-0.7c-0.2-0.2-0.5-0.3-0.8-0.3c-0.3,0-0.6,0.1-0.8,0.3
			c-0.2,0.2-0.3,0.5-0.3,0.9l-0.7-0.1c0.1-0.5,0.2-1,0.6-1.3c0.3-0.3,0.8-0.4,1.3-0.4c0.6,0,1,0.2,1.3,0.5c0.3,0.3,0.5,0.7,0.5,1.2
			c0,0.2,0,0.5-0.1,0.7c-0.1,0.2-0.3,0.5-0.5,0.7c-0.2,0.3-0.6,0.6-1.1,1c-0.4,0.4-0.7,0.6-0.8,0.7c-0.1,0.1-0.2,0.3-0.3,0.4H231.3z
			"/>
		<path id="XMLID_27_" d="M232.5,101.1v-0.8h0.8v0.8H232.5z M232.5,104.5v-0.8h0.8v0.8H232.5z"/>
		<path id="XMLID_30_" d="M239.5,104c-0.3,0.2-0.5,0.4-0.8,0.5s-0.5,0.1-0.8,0.1c-0.5,0-0.8-0.1-1.1-0.3s-0.4-0.5-0.4-0.9
			c0-0.2,0-0.4,0.1-0.6c0.1-0.2,0.2-0.3,0.4-0.4s0.3-0.2,0.5-0.2c0.1,0,0.4-0.1,0.6-0.1c0.6-0.1,1-0.2,1.3-0.2c0-0.1,0-0.2,0-0.2
			c0-0.3-0.1-0.5-0.2-0.6c-0.2-0.2-0.5-0.2-0.8-0.2c-0.3,0-0.6,0.1-0.7,0.2c-0.2,0.1-0.3,0.3-0.4,0.6l-0.7-0.1
			c0.1-0.3,0.2-0.5,0.3-0.7c0.1-0.2,0.4-0.3,0.6-0.4c0.3-0.1,0.6-0.1,1-0.1c0.4,0,0.7,0,0.9,0.1c0.2,0.1,0.4,0.2,0.5,0.3
			s0.2,0.3,0.2,0.5c0,0.1,0,0.3,0,0.7v1c0,0.7,0,1.1,0,1.3c0,0.2,0.1,0.3,0.2,0.5h-0.7C239.6,104.4,239.6,104.2,239.5,104z
			 M239.5,102.4c-0.3,0.1-0.6,0.2-1.2,0.3c-0.3,0-0.5,0.1-0.6,0.1c-0.1,0.1-0.2,0.1-0.3,0.2c-0.1,0.1-0.1,0.2-0.1,0.3
			c0,0.2,0.1,0.3,0.2,0.5c0.1,0.1,0.4,0.2,0.6,0.2c0.3,0,0.5-0.1,0.7-0.2c0.2-0.1,0.4-0.3,0.5-0.5c0.1-0.2,0.1-0.4,0.1-0.7V102.4z"
			/>
		<path id="XMLID_33_" d="M241,103.3l0.7-0.1c0,0.3,0.2,0.5,0.3,0.7s0.4,0.2,0.8,0.2c0.3,0,0.6-0.1,0.7-0.2c0.2-0.1,0.2-0.3,0.2-0.5
			c0-0.2-0.1-0.3-0.2-0.4c-0.1-0.1-0.3-0.1-0.7-0.2c-0.5-0.1-0.9-0.2-1.1-0.3c-0.2-0.1-0.4-0.2-0.5-0.4c-0.1-0.2-0.2-0.4-0.2-0.6
			c0-0.2,0-0.4,0.1-0.5c0.1-0.2,0.2-0.3,0.4-0.4c0.1-0.1,0.3-0.2,0.5-0.2c0.2-0.1,0.4-0.1,0.6-0.1c0.3,0,0.6,0,0.9,0.1
			c0.3,0.1,0.4,0.2,0.6,0.4s0.2,0.4,0.2,0.7l-0.7,0.1c0-0.2-0.1-0.4-0.3-0.5c-0.2-0.1-0.4-0.2-0.6-0.2c-0.3,0-0.6,0.1-0.7,0.2
			c-0.1,0.1-0.2,0.2-0.2,0.4c0,0.1,0,0.2,0.1,0.3c0.1,0.1,0.1,0.1,0.3,0.2c0.1,0,0.3,0.1,0.6,0.2c0.5,0.1,0.9,0.2,1.1,0.3
			c0.2,0.1,0.4,0.2,0.5,0.4s0.2,0.4,0.2,0.6c0,0.2-0.1,0.5-0.2,0.7c-0.1,0.2-0.3,0.4-0.6,0.5c-0.3,0.1-0.6,0.2-0.9,0.2
			c-0.5,0-1-0.1-1.3-0.3C241.3,104,241.1,103.7,241,103.3z"/>
		<path id="XMLID_36_" d="M245.4,99.5v-0.8h0.7v0.8H245.4z M245.4,104.5v-4.2h0.7v4.2H245.4z"/>
		<path id="XMLID_39_" d="M247.1,104.9l0.7,0.1c0,0.2,0.1,0.4,0.2,0.5c0.2,0.1,0.4,0.2,0.7,0.2c0.3,0,0.6-0.1,0.8-0.2
			c0.2-0.1,0.3-0.3,0.4-0.6c0-0.1,0.1-0.5,0.1-0.9c-0.3,0.4-0.7,0.6-1.2,0.6c-0.6,0-1-0.2-1.3-0.6s-0.5-0.9-0.5-1.5
			c0-0.4,0.1-0.8,0.2-1.1c0.1-0.3,0.4-0.6,0.6-0.8s0.6-0.3,1-0.3c0.5,0,0.9,0.2,1.2,0.6v-0.5h0.7v3.6c0,0.7-0.1,1.1-0.2,1.4
			c-0.1,0.3-0.3,0.5-0.6,0.6s-0.6,0.2-1.1,0.2c-0.5,0-0.9-0.1-1.2-0.3C247.2,105.7,247.1,105.3,247.1,104.9z M247.7,102.3
			c0,0.6,0.1,1,0.3,1.2c0.2,0.3,0.5,0.4,0.8,0.4c0.3,0,0.6-0.1,0.8-0.4s0.3-0.7,0.3-1.2c0-0.5-0.1-0.9-0.3-1.2
			c-0.2-0.3-0.5-0.4-0.8-0.4c-0.3,0-0.6,0.1-0.8,0.4C247.8,101.4,247.7,101.8,247.7,102.3z"/>
		<path id="XMLID_42_" d="M251.7,104.5v-4.2h0.6v0.6c0.3-0.5,0.8-0.7,1.3-0.7c0.3,0,0.5,0,0.7,0.1c0.2,0.1,0.4,0.2,0.5,0.4
			s0.2,0.3,0.2,0.5c0,0.1,0,0.4,0,0.7v2.6h-0.7v-2.6c0-0.3,0-0.5-0.1-0.7c-0.1-0.1-0.2-0.3-0.3-0.3c-0.1-0.1-0.3-0.1-0.5-0.1
			c-0.3,0-0.6,0.1-0.8,0.3c-0.2,0.2-0.3,0.6-0.3,1.1v2.3H251.7z"/>
		<path id="XMLID_44_" d="M259,104c-0.3,0.2-0.5,0.4-0.8,0.5s-0.5,0.1-0.8,0.1c-0.5,0-0.8-0.1-1.1-0.3s-0.4-0.5-0.4-0.9
			c0-0.2,0-0.4,0.1-0.6c0.1-0.2,0.2-0.3,0.4-0.4s0.3-0.2,0.5-0.2c0.1,0,0.4-0.1,0.6-0.1c0.6-0.1,1-0.2,1.3-0.2c0-0.1,0-0.2,0-0.2
			c0-0.3-0.1-0.5-0.2-0.6c-0.2-0.2-0.5-0.2-0.8-0.2c-0.3,0-0.6,0.1-0.7,0.2c-0.2,0.1-0.3,0.3-0.4,0.6l-0.7-0.1
			c0.1-0.3,0.2-0.5,0.3-0.7c0.1-0.2,0.4-0.3,0.6-0.4c0.3-0.1,0.6-0.1,1-0.1c0.4,0,0.7,0,0.9,0.1c0.2,0.1,0.4,0.2,0.5,0.3
			s0.2,0.3,0.2,0.5c0,0.1,0,0.3,0,0.7v1c0,0.7,0,1.1,0,1.3c0,0.2,0.1,0.3,0.2,0.5h-0.7C259.1,104.4,259,104.2,259,104z M258.9,102.4
			c-0.3,0.1-0.6,0.2-1.2,0.3c-0.3,0-0.5,0.1-0.6,0.1c-0.1,0.1-0.2,0.1-0.3,0.2c-0.1,0.1-0.1,0.2-0.1,0.3c0,0.2,0.1,0.3,0.2,0.5
			c0.1,0.1,0.4,0.2,0.6,0.2c0.3,0,0.5-0.1,0.7-0.2c0.2-0.1,0.4-0.3,0.5-0.5c0.1-0.2,0.1-0.4,0.1-0.7V102.4z"/>
		<path id="XMLID_48_" d="M260.8,104.5v-4.2h0.6v0.6c0.2-0.3,0.3-0.5,0.5-0.6c0.1-0.1,0.3-0.1,0.5-0.1c0.2,0,0.5,0.1,0.7,0.2
			l-0.2,0.7c-0.2-0.1-0.3-0.2-0.5-0.2c-0.2,0-0.3,0-0.4,0.1c-0.1,0.1-0.2,0.2-0.3,0.4c-0.1,0.3-0.1,0.5-0.1,0.8v2.2H260.8z"/>
		<path id="XMLID_50_" d="M267.1,106.2c-0.4-0.5-0.7-1.1-1-1.8s-0.4-1.4-0.4-2.1c0-0.6,0.1-1.2,0.3-1.8c0.2-0.7,0.6-1.3,1.1-2h0.5
			c-0.3,0.6-0.5,0.9-0.6,1.2c-0.2,0.4-0.3,0.7-0.4,1.1c-0.1,0.5-0.2,1-0.2,1.5c0,1.3,0.4,2.5,1.2,3.8H267.1z"/>
		<path id="XMLID_52_" d="M268.9,106.2h-0.5c0.8-1.3,1.2-2.5,1.2-3.8c0-0.5-0.1-1-0.2-1.5c-0.1-0.4-0.2-0.8-0.4-1.1
			c-0.1-0.2-0.3-0.6-0.6-1.2h0.5c0.5,0.7,0.9,1.3,1.1,2c0.2,0.6,0.3,1.2,0.3,1.8c0,0.7-0.1,1.4-0.4,2.1
			C269.7,105.2,269.3,105.7,268.9,106.2z"/>
	</g>
	<g id="XMLID_8019_">
		<line id="XMLID_400_" class="st0" x1="96.9" y1="108.6" x2="325.6" y2="108.6"/>
		<g id="XMLID_396_">
			<line id="XMLID_399_" class="st1" x1="96.9" y1="108.6" x2="317.7" y2="108.6"/>
			<g id="XMLID_397_">
				<polygon id="XMLID_398_" class="st9" points="325.6,108.6 314.4,113.2 317.1,108.6 314.4,104 				"/>
			</g>
		</g>
	</g>
	<rect id="XMLID_8017_" x="326.4" y="108.6" class="st4" width="9.9" height="20.4"/>
	<rect id="XMLID_8016_" x="443.7" y="141.4" class="st4" width="9.9" height="20.4"/>
	<rect id="XMLID_8015_" x="209.2" y="173.6" class="st4" width="9.9" height="20.4"/>
	<rect id="XMLID_8014_" x="91.9" y="206.6" class="st4" width="9.9" height="20.4"/>
	<g id="XMLID_8008_">
		<path id="XMLID_8013_" class="st10" d="M37.7,42.7l-9.4-12.7v-8.4h7.5c0.4,0,0.8-0.3,0.8-0.8c0-0.4-0.3-0.8-0.8-0.8h-7.5v-6.4
			c0-0.4-0.3-0.8-0.8-0.8c-0.4,0-0.8,0.3-0.8,0.8v6.4h-7.5c-0.4,0-0.8,0.3-0.8,0.8c0,0.4,0.3,0.8,0.8,0.8h7.5v8.4l-9.5,12.7
			c-0.2,0.3-0.2,0.8,0.1,1.1c0.1,0.1,0.3,0.2,0.4,0.2c0.2,0,0.5-0.1,0.6-0.3l9.1-12.1l8.9,12.1c0.1,0.2,0.4,0.3,0.6,0.3
			c0.2,0,0.3,0,0.4-0.1C37.8,43.5,37.9,43.1,37.7,42.7z"/>
		<circle id="XMLID_8012_" class="st0" cx="27.6" cy="8.3" r="7.8"/>
		<path id="XMLID_8009_" class="st10" d="M27.6,16.6c-4.6,0-8.3-3.7-8.3-8.3C19.3,3.7,23,0,27.6,0c4.6,0,8.3,3.7,8.3,8.3
			C35.8,12.8,32.1,16.6,27.6,16.6z M27.6,1c-4,0-7.2,3.2-7.2,7.2c0,4,3.2,7.2,7.2,7.2c4,0,7.2-3.2,7.2-7.2C34.8,4.3,31.6,1,27.6,1z"
			/>
	</g>
	<g id="XMLID_2_">
		<path id="XMLID_3_" d="M9.2,54v-6.3h4.5v0.7H10v1.9h3.5v0.7H10v2.1h3.8V54H9.2z"/>
		<path id="XMLID_5_" d="M14.9,54v-4.5h0.7v0.6c0.1-0.2,0.3-0.4,0.6-0.5c0.2-0.1,0.5-0.2,0.8-0.2c0.3,0,0.6,0.1,0.8,0.2
			c0.2,0.1,0.4,0.3,0.5,0.6c0.4-0.5,0.8-0.8,1.4-0.8c0.4,0,0.8,0.1,1,0.4s0.4,0.6,0.4,1.1V54h-0.8v-2.9c0-0.3,0-0.5-0.1-0.7
			c0-0.1-0.1-0.2-0.3-0.3C19.8,50,19.6,50,19.4,50c-0.3,0-0.6,0.1-0.8,0.3s-0.3,0.6-0.3,1V54h-0.8V51c0-0.3-0.1-0.6-0.2-0.8
			c-0.1-0.2-0.3-0.3-0.6-0.3c-0.2,0-0.4,0.1-0.6,0.2c-0.2,0.1-0.3,0.3-0.4,0.5c-0.1,0.2-0.1,0.5-0.1,0.9V54H14.9z"/>
		<path id="XMLID_7_" d="M22.2,55.7v-6.3h0.7V50c0.2-0.2,0.4-0.4,0.6-0.5s0.5-0.2,0.8-0.2c0.4,0,0.7,0.1,1,0.3
			c0.3,0.2,0.5,0.5,0.7,0.8c0.2,0.4,0.2,0.8,0.2,1.2c0,0.5-0.1,0.9-0.2,1.3c-0.2,0.4-0.4,0.7-0.7,0.9c-0.3,0.2-0.7,0.3-1,0.3
			c-0.3,0-0.5-0.1-0.7-0.2c-0.2-0.1-0.4-0.2-0.5-0.4v2.2H22.2z M22.9,51.7c0,0.6,0.1,1,0.4,1.3c0.2,0.3,0.5,0.4,0.9,0.4
			c0.3,0,0.6-0.1,0.9-0.4c0.2-0.3,0.4-0.7,0.4-1.3c0-0.6-0.1-1-0.4-1.3s-0.5-0.4-0.9-0.4c-0.3,0-0.6,0.2-0.9,0.5
			C23,50.7,22.9,51.2,22.9,51.7z"/>
		<path id="XMLID_10_" d="M27,54v-6.3h0.8V54H27z"/>
		<path id="XMLID_12_" d="M32.1,52.5l0.8,0.1c-0.1,0.5-0.4,0.8-0.7,1.1s-0.8,0.4-1.3,0.4c-0.7,0-1.2-0.2-1.6-0.6s-0.6-1-0.6-1.7
			c0-0.8,0.2-1.4,0.6-1.8c0.4-0.4,0.9-0.6,1.5-0.6c0.6,0,1.1,0.2,1.5,0.6s0.6,1,0.6,1.7c0,0,0,0.1,0,0.2h-3.4c0,0.5,0.2,0.9,0.4,1.1
			c0.3,0.3,0.6,0.4,0.9,0.4c0.3,0,0.5-0.1,0.7-0.2C31.8,53.1,31.9,52.8,32.1,52.5z M29.5,51.3h2.5c0-0.4-0.1-0.7-0.3-0.9
			c-0.2-0.3-0.6-0.4-1-0.4c-0.4,0-0.6,0.1-0.9,0.4C29.7,50.6,29.6,50.9,29.5,51.3z"/>
		<path id="XMLID_15_" d="M36.8,53.4c-0.3,0.2-0.6,0.4-0.8,0.5c-0.3,0.1-0.5,0.1-0.8,0.1c-0.5,0-0.9-0.1-1.1-0.4
			c-0.3-0.2-0.4-0.6-0.4-0.9c0-0.2,0.1-0.4,0.2-0.6c0.1-0.2,0.2-0.3,0.4-0.4c0.2-0.1,0.3-0.2,0.6-0.3c0.2,0,0.4-0.1,0.7-0.1
			c0.6-0.1,1.1-0.2,1.4-0.3c0-0.1,0-0.2,0-0.2c0-0.3-0.1-0.5-0.2-0.7C36.3,50.1,36,50,35.6,50c-0.4,0-0.6,0.1-0.8,0.2
			c-0.2,0.1-0.3,0.4-0.4,0.7l-0.8-0.1c0.1-0.3,0.2-0.6,0.3-0.8c0.2-0.2,0.4-0.3,0.7-0.5c0.3-0.1,0.6-0.2,1-0.2c0.4,0,0.7,0,0.9,0.1
			c0.2,0.1,0.4,0.2,0.5,0.3s0.2,0.3,0.2,0.5c0,0.1,0,0.4,0,0.7v1c0,0.7,0,1.2,0,1.4c0,0.2,0.1,0.4,0.2,0.5h-0.8
			C36.8,53.8,36.8,53.6,36.8,53.4z M36.7,51.7c-0.3,0.1-0.7,0.2-1.3,0.3c-0.3,0-0.5,0.1-0.7,0.2c-0.1,0.1-0.2,0.1-0.3,0.2
			c-0.1,0.1-0.1,0.2-0.1,0.4c0,0.2,0.1,0.4,0.2,0.5c0.2,0.1,0.4,0.2,0.7,0.2c0.3,0,0.6-0.1,0.8-0.2c0.2-0.1,0.4-0.3,0.5-0.5
			c0.1-0.2,0.1-0.4,0.1-0.8V51.7z"/>
		<path id="XMLID_18_" d="M41.6,54v-0.6c-0.3,0.4-0.7,0.7-1.3,0.7c-0.4,0-0.7-0.1-1-0.3s-0.5-0.5-0.7-0.8c-0.2-0.4-0.2-0.8-0.2-1.2
			c0-0.5,0.1-0.9,0.2-1.2c0.2-0.4,0.4-0.7,0.7-0.8s0.6-0.3,1-0.3c0.3,0,0.5,0.1,0.7,0.2s0.4,0.3,0.5,0.4v-2.2h0.8V54H41.6z
			 M39.2,51.7c0,0.6,0.1,1,0.4,1.3s0.5,0.4,0.9,0.4c0.3,0,0.6-0.1,0.9-0.4s0.4-0.7,0.4-1.3c0-0.6-0.1-1.1-0.4-1.4S40.7,50,40.4,50
			c-0.3,0-0.6,0.1-0.9,0.4C39.3,50.7,39.2,51.1,39.2,51.7z"/>
		<path id="XMLID_21_" d="M43.2,51.7c0-0.8,0.2-1.5,0.7-1.9c0.4-0.3,0.9-0.5,1.4-0.5c0.6,0,1.1,0.2,1.5,0.6c0.4,0.4,0.6,1,0.6,1.7
			c0,0.6-0.1,1-0.3,1.4s-0.4,0.6-0.8,0.8s-0.7,0.3-1.1,0.3c-0.6,0-1.1-0.2-1.5-0.6C43.4,53.1,43.2,52.5,43.2,51.7z M44,51.7
			c0,0.6,0.1,1,0.4,1.3c0.3,0.3,0.6,0.4,1,0.4c0.4,0,0.7-0.1,1-0.4c0.3-0.3,0.4-0.7,0.4-1.3c0-0.6-0.1-1-0.4-1.3
			c-0.3-0.3-0.6-0.4-0.9-0.4c-0.4,0-0.7,0.1-1,0.4C44.2,50.7,44,51.1,44,51.7z"/>
	</g>
</g>
</svg>
