<?xml version="1.0" encoding="utf-8"?>
<!-- Generator: Adobe Illustrator 19.0.0, SVG Export Plug-In . SVG Version: 6.00 Build 0)  -->
<svg version="1.1" id="Capa_1" xmlns="http://www.w3.org/2000/svg" xmlns:xlink="http://www.w3.org/1999/xlink" x="0px" y="0px"
	 viewBox="0 0 590.2 275.1" style="enable-background:new 0 0 590.2 275.1;" xml:space="preserve">
<style type="text/css">
	.st0{fill:none;stroke:#282828;stroke-width:2;stroke-miterlimit:10;}
	.st1{fill:#282828;}
	.st2{fill:#FFFFFF;stroke:#F29422;stroke-width:3;stroke-miterlimit:10;}
	.st3{fill:#FFFFFF;stroke:#8BBE33;stroke-width:3;stroke-miterlimit:10;}
	.st4{fill:#FFFFFF;stroke:#0367A6;stroke-width:3;stroke-miterlimit:10;}
	.st5{fill:#FFFFFF;stroke:#CD2D00;stroke-width:3;stroke-miterlimit:10;}
	.st6{fill:#E8A91C;}
	.st7{fill:#FFFFFF;}
</style>
<g id="XMLID_2603_">
	<g id="XMLID_31_">
		<line id="XMLID_34_" class="st0" x1="317.5" y1="16" x2="389.6" y2="70.1"/>
		<g id="XMLID_32_">
			<polygon id="XMLID_33_" class="st1" points="398.1,76.5 382.5,72.4 389,69.6 389.8,62.6 			"/>
		</g>
	</g>
</g>
<g id="XMLID_2605_">
	<g id="XMLID_26_">
		<line id="XMLID_29_" class="st0" x1="397" y1="202.2" x2="326.1" y2="251.5"/>
		<g id="XMLID_27_">
			<polygon id="XMLID_28_" class="st1" points="317.5,257.6 326.2,244.1 326.8,251.1 333.2,254.1 			"/>
		</g>
	</g>
</g>
<g id="XMLID_7448_">
	<g id="XMLID_21_">
		<line id="XMLID_24_" class="st0" x1="177" y1="257.6" x2="82.9" y2="187.1"/>
		<g id="XMLID_22_">
			<polygon id="XMLID_23_" class="st1" points="74.4,180.7 90,184.8 83.5,187.6 82.7,194.6 			"/>
		</g>
	</g>
</g>
<g id="XMLID_2619_">
	<g id="XMLID_16_">
		<line id="XMLID_19_" class="st0" x1="177" y1="18.4" x2="82.9" y2="88.9"/>
		<g id="XMLID_17_">
			<polygon id="XMLID_18_" class="st1" points="74.4,95.2 82.7,81.4 83.5,88.4 90,91.2 			"/>
		</g>
	</g>
</g>
<g id="XMLID_2604_">
	<g id="XMLID_41_">
		<line id="XMLID_45_" class="st0" x1="468.3" y1="92.7" x2="468.3" y2="171.8"/>
		<g id="XMLID_42_">
			<polygon id="XMLID_43_" class="st1" points="468.3,182.4 462.2,167.5 468.3,171 474.4,167.5 			"/>
		</g>
	</g>
</g>
<g id="XMLID_7615_">
	<g id="XMLID_7620_">
		<rect id="XMLID_7625_" x="177" y="240.3" class="st2" width="140.4" height="33.3"/>
		<g id="XMLID_300_">
			<path id="XMLID_301_" d="M217.4,263.2v-11.4h4.3c0.8,0,1.3,0,1.7,0.1c0.6,0.1,1,0.3,1.4,0.5c0.4,0.3,0.7,0.6,0.9,1.1
				c0.2,0.5,0.3,1,0.3,1.6c0,1-0.3,1.8-0.9,2.5c-0.6,0.7-1.7,1-3.4,1h-2.9v4.6H217.4z M218.9,257.2h3c1,0,1.7-0.2,2.1-0.5
				s0.6-0.9,0.6-1.5c0-0.5-0.1-0.9-0.4-1.2c-0.2-0.3-0.6-0.6-1-0.7c-0.3-0.1-0.7-0.1-1.4-0.1h-2.9V257.2z"/>
			<path id="XMLID_304_" d="M233.3,262.2c-0.5,0.4-1,0.8-1.5,0.9s-1,0.3-1.5,0.3c-0.9,0-1.6-0.2-2.1-0.7c-0.5-0.4-0.7-1-0.7-1.7
				c0-0.4,0.1-0.8,0.3-1.1c0.2-0.3,0.4-0.6,0.7-0.8c0.3-0.2,0.6-0.4,1-0.5c0.3-0.1,0.7-0.1,1.2-0.2c1.1-0.1,2-0.3,2.5-0.5
				c0-0.2,0-0.3,0-0.4c0-0.6-0.1-1-0.4-1.2c-0.4-0.3-0.9-0.5-1.6-0.5c-0.7,0-1.1,0.1-1.5,0.3c-0.3,0.2-0.5,0.6-0.7,1.2l-1.4-0.2
				c0.1-0.6,0.3-1.1,0.6-1.4c0.3-0.4,0.7-0.6,1.2-0.8c0.5-0.2,1.2-0.3,1.9-0.3c0.7,0,1.3,0.1,1.7,0.3c0.4,0.2,0.8,0.4,1,0.6
				c0.2,0.3,0.4,0.6,0.4,1c0,0.2,0.1,0.7,0.1,1.3v1.9c0,1.3,0,2.1,0.1,2.5c0.1,0.3,0.2,0.7,0.4,1h-1.5
				C233.4,262.9,233.3,262.6,233.3,262.2z M233.2,259.1c-0.5,0.2-1.3,0.4-2.3,0.5c-0.6,0.1-1,0.2-1.2,0.3c-0.2,0.1-0.4,0.3-0.6,0.5
				s-0.2,0.4-0.2,0.7c0,0.4,0.1,0.7,0.4,0.9c0.3,0.2,0.7,0.4,1.2,0.4c0.5,0,1-0.1,1.4-0.4s0.7-0.6,0.9-1c0.2-0.3,0.2-0.8,0.2-1.4
				V259.1z"/>
			<path id="XMLID_307_" d="M242.2,260.2l1.4,0.2c-0.2,1-0.5,1.7-1.2,2.2c-0.6,0.5-1.4,0.8-2.3,0.8c-1.1,0-2-0.4-2.7-1.1
				c-0.7-0.7-1-1.8-1-3.2c0-0.9,0.1-1.7,0.4-2.3s0.7-1.2,1.4-1.5c0.6-0.3,1.3-0.5,2-0.5c0.9,0,1.6,0.2,2.2,0.7s0.9,1.1,1.1,1.9
				l-1.4,0.2c-0.1-0.6-0.4-1-0.7-1.3c-0.3-0.3-0.7-0.4-1.2-0.4c-0.7,0-1.3,0.3-1.7,0.8c-0.4,0.5-0.7,1.3-0.7,2.4
				c0,1.1,0.2,1.9,0.6,2.4s1,0.8,1.7,0.8c0.6,0,1-0.2,1.4-0.5C241.8,261.4,242.1,260.9,242.2,260.2z"/>
			<path id="XMLID_309_" d="M244.7,253.4v-1.6h1.4v1.6H244.7z M244.7,263.2v-8.3h1.4v8.3H244.7z"/>
			<path id="XMLID_312_" d="M253.9,260.6l1.4,0.2c-0.2,0.8-0.7,1.5-1.3,2c-0.6,0.5-1.4,0.7-2.4,0.7c-1.2,0-2.2-0.4-2.9-1.1
				c-0.7-0.7-1.1-1.8-1.1-3.1c0-1.4,0.4-2.5,1.1-3.2c0.7-0.8,1.6-1.2,2.8-1.2c1.1,0,2,0.4,2.7,1.1c0.7,0.8,1.1,1.8,1.1,3.2
				c0,0.1,0,0.2,0,0.4h-6.2c0.1,0.9,0.3,1.6,0.8,2.1c0.5,0.5,1,0.7,1.7,0.7c0.5,0,1-0.1,1.3-0.4
				C253.4,261.6,253.7,261.2,253.9,260.6z M249.3,258.3h4.6c-0.1-0.7-0.2-1.2-0.5-1.6c-0.4-0.5-1-0.8-1.7-0.8
				c-0.6,0-1.2,0.2-1.6,0.6C249.6,257,249.4,257.6,249.3,258.3z"/>
			<path id="XMLID_315_" d="M257.2,263.2v-8.3h1.3v1.2c0.6-0.9,1.5-1.4,2.6-1.4c0.5,0,1,0.1,1.4,0.3c0.4,0.2,0.7,0.4,0.9,0.7
				c0.2,0.3,0.4,0.6,0.4,1c0.1,0.3,0.1,0.7,0.1,1.4v5.1h-1.4v-5c0-0.6-0.1-1-0.2-1.3s-0.3-0.5-0.6-0.7s-0.6-0.3-1-0.3
				c-0.6,0-1.1,0.2-1.5,0.6c-0.4,0.4-0.7,1.1-0.7,2.2v4.5H257.2z"/>
			<path id="XMLID_317_" d="M269.1,262l0.2,1.2c-0.4,0.1-0.7,0.1-1.1,0.1c-0.5,0-0.9-0.1-1.2-0.2s-0.5-0.4-0.6-0.6s-0.2-0.8-0.2-1.7
				V256h-1v-1.1h1v-2l1.4-0.8v2.9h1.4v1.1h-1.4v4.8c0,0.4,0,0.7,0.1,0.8c0,0.1,0.1,0.2,0.2,0.3c0.1,0.1,0.3,0.1,0.5,0.1
				C268.6,262,268.8,262,269.1,262z"/>
			<path id="XMLID_319_" d="M276.1,260.6l1.4,0.2c-0.2,0.8-0.7,1.5-1.3,2c-0.6,0.5-1.4,0.7-2.4,0.7c-1.2,0-2.2-0.4-2.9-1.1
				c-0.7-0.7-1.1-1.8-1.1-3.1c0-1.4,0.4-2.5,1.1-3.2c0.7-0.8,1.6-1.2,2.8-1.2c1.1,0,2,0.4,2.7,1.1c0.7,0.8,1.1,1.8,1.1,3.2
				c0,0.1,0,0.2,0,0.4h-6.2c0.1,0.9,0.3,1.6,0.8,2.1c0.5,0.5,1,0.7,1.7,0.7c0.5,0,1-0.1,1.3-0.4
				C275.6,261.6,275.9,261.2,276.1,260.6z M271.5,258.3h4.6c-0.1-0.7-0.2-1.2-0.5-1.6c-0.4-0.5-1-0.8-1.7-0.8
				c-0.6,0-1.2,0.2-1.6,0.6C271.8,257,271.6,257.6,271.5,258.3z"/>
		</g>
	</g>
	<g id="XMLID_7616_">
		<rect id="XMLID_7619_" x="177" y="1.5" class="st3" width="140.4" height="33.3"/>
		<g id="XMLID_289_">
			<path id="XMLID_290_" d="M242.4,20.4l1.5,0.4c-0.3,1.2-0.9,2.2-1.7,2.8c-0.8,0.7-1.8,1-3,1c-1.2,0-2.2-0.3-3-0.8
				c-0.8-0.5-1.4-1.2-1.8-2.2c-0.4-1-0.6-2-0.6-3.1c0-1.2,0.2-2.2,0.7-3.1c0.5-0.9,1.1-1.6,1.9-2c0.8-0.5,1.8-0.7,2.8-0.7
				c1.1,0,2.1,0.3,2.9,0.9c0.8,0.6,1.3,1.4,1.6,2.5l-1.5,0.4c-0.3-0.8-0.6-1.4-1.2-1.8c-0.5-0.4-1.1-0.6-1.9-0.6
				c-0.9,0-1.6,0.2-2.2,0.6s-1,1-1.2,1.7s-0.4,1.4-0.4,2.2c0,1,0.1,1.8,0.4,2.5c0.3,0.7,0.7,1.3,1.3,1.6s1.2,0.5,1.9,0.5
				c0.8,0,1.6-0.2,2.2-0.7C241.8,22.1,242.2,21.4,242.4,20.4z"/>
			<path id="XMLID_292_" d="M245.6,14.6V13h1.4v1.6H245.6z M245.6,24.4v-8.3h1.4v8.3H245.6z"/>
			<path id="XMLID_295_" d="M252.2,23.2l0.2,1.2c-0.4,0.1-0.7,0.1-1.1,0.1c-0.5,0-0.9-0.1-1.2-0.2c-0.3-0.2-0.5-0.4-0.6-0.6
				c-0.1-0.3-0.2-0.8-0.2-1.7v-4.8h-1v-1.1h1v-2l1.4-0.8v2.9h1.4v1.1h-1.4v4.8c0,0.4,0,0.7,0.1,0.8s0.1,0.2,0.2,0.3
				c0.1,0.1,0.3,0.1,0.5,0.1C251.8,23.2,252,23.2,252.2,23.2z"/>
			<path id="XMLID_297_" d="M259,23.4c-0.5,0.4-1,0.8-1.5,0.9s-1,0.3-1.5,0.3c-0.9,0-1.6-0.2-2.1-0.7c-0.5-0.4-0.7-1-0.7-1.7
				c0-0.4,0.1-0.8,0.3-1.1c0.2-0.3,0.4-0.6,0.7-0.8c0.3-0.2,0.6-0.4,1-0.5c0.3-0.1,0.7-0.1,1.2-0.2c1.1-0.1,2-0.3,2.5-0.5
				c0-0.2,0-0.3,0-0.4c0-0.6-0.1-1-0.4-1.2c-0.4-0.3-0.9-0.5-1.6-0.5c-0.7,0-1.1,0.1-1.5,0.3c-0.3,0.2-0.5,0.6-0.7,1.2l-1.4-0.2
				c0.1-0.6,0.3-1.1,0.6-1.4c0.3-0.4,0.7-0.6,1.2-0.8c0.5-0.2,1.2-0.3,1.9-0.3c0.7,0,1.3,0.1,1.7,0.2c0.4,0.2,0.8,0.4,1,0.6
				c0.2,0.3,0.4,0.6,0.4,1c0,0.2,0.1,0.7,0.1,1.3V21c0,1.3,0,2.1,0.1,2.5c0.1,0.3,0.2,0.7,0.4,1h-1.5C259.1,24.1,259,23.8,259,23.4z
				 M258.9,20.3c-0.5,0.2-1.3,0.4-2.3,0.5c-0.6,0.1-1,0.2-1.2,0.3c-0.2,0.1-0.4,0.3-0.6,0.5c-0.1,0.2-0.2,0.4-0.2,0.7
				c0,0.4,0.1,0.7,0.4,0.9c0.3,0.2,0.7,0.4,1.2,0.4c0.5,0,1-0.1,1.4-0.4s0.7-0.6,0.9-1c0.2-0.3,0.2-0.8,0.2-1.4V20.3z"/>
		</g>
	</g>
</g>
<g id="XMLID_7596_">
	<g id="XMLID_7610_">
		<rect id="XMLID_7614_" x="398.1" y="182.4" class="st4" width="140.4" height="33.3"/>
		<g id="XMLID_271_">
			<path id="XMLID_272_" d="M443.8,205.3v-11.4h2.3l2.7,8.1c0.3,0.8,0.4,1.3,0.5,1.7c0.1-0.4,0.3-1,0.6-1.8l2.7-7.9h2v11.4h-1.5
				v-9.6l-3.3,9.6h-1.4l-3.3-9.7v9.7H443.8z"/>
			<path id="XMLID_274_" d="M462.6,202.7l1.4,0.2c-0.2,0.8-0.7,1.5-1.3,2s-1.4,0.7-2.4,0.7c-1.2,0-2.2-0.4-2.9-1.1
				c-0.7-0.7-1.1-1.8-1.1-3.1c0-1.4,0.4-2.5,1.1-3.2c0.7-0.8,1.6-1.2,2.8-1.2c1.1,0,2,0.4,2.7,1.1c0.7,0.8,1.1,1.8,1.1,3.2
				c0,0.1,0,0.2,0,0.4h-6.2c0.1,0.9,0.3,1.6,0.8,2.1c0.5,0.5,1,0.7,1.7,0.7c0.5,0,1-0.1,1.3-0.4
				C462.1,203.7,462.4,203.3,462.6,202.7z M458,200.4h4.6c-0.1-0.7-0.2-1.2-0.5-1.6c-0.4-0.5-1-0.8-1.7-0.8c-0.6,0-1.2,0.2-1.6,0.6
				C458.3,199.1,458,199.7,458,200.4z M459.5,196l1-2.2h1.8l-1.7,2.2H459.5z"/>
			<path id="XMLID_278_" d="M471.2,205.3v-1c-0.5,0.8-1.3,1.2-2.3,1.2c-0.7,0-1.3-0.2-1.8-0.5c-0.6-0.4-1-0.9-1.3-1.5
				s-0.5-1.4-0.5-2.2c0-0.8,0.1-1.6,0.4-2.2c0.3-0.7,0.7-1.2,1.2-1.5c0.6-0.4,1.2-0.5,1.8-0.5c0.5,0,0.9,0.1,1.3,0.3s0.7,0.5,1,0.8
				v-4.1h1.4v11.4H471.2z M466.7,201.2c0,1.1,0.2,1.9,0.7,2.4c0.4,0.5,1,0.8,1.6,0.8c0.6,0,1.1-0.3,1.6-0.8c0.4-0.5,0.6-1.3,0.6-2.3
				c0-1.1-0.2-2-0.7-2.5c-0.4-0.5-1-0.8-1.6-0.8c-0.6,0-1.1,0.3-1.6,0.8C466.9,199.3,466.7,200.1,466.7,201.2z"/>
			<path id="XMLID_281_" d="M474.7,195.5v-1.6h1.4v1.6H474.7z M474.7,205.3v-8.3h1.4v8.3H474.7z"/>
			<path id="XMLID_284_" d="M483.6,202.3l1.4,0.2c-0.2,1-0.5,1.7-1.2,2.2c-0.6,0.5-1.4,0.8-2.3,0.8c-1.1,0-2-0.4-2.7-1.1
				c-0.7-0.7-1-1.8-1-3.2c0-0.9,0.1-1.7,0.4-2.3s0.7-1.2,1.4-1.5c0.6-0.3,1.3-0.5,2-0.5c0.9,0,1.6,0.2,2.2,0.7
				c0.6,0.5,0.9,1.1,1.1,1.9l-1.4,0.2c-0.1-0.6-0.4-1-0.7-1.3c-0.3-0.3-0.7-0.4-1.2-0.4c-0.7,0-1.3,0.3-1.7,0.8
				c-0.4,0.5-0.7,1.3-0.7,2.4c0,1.1,0.2,1.9,0.6,2.4s1,0.8,1.7,0.8c0.5,0,1-0.2,1.4-0.5C483.3,203.5,483.5,203,483.6,202.3z"/>
			<path id="XMLID_286_" d="M485.7,201.2c0-1.5,0.4-2.7,1.3-3.4c0.7-0.6,1.6-0.9,2.6-0.9c1.1,0,2.1,0.4,2.8,1.1
				c0.7,0.7,1.1,1.8,1.1,3.1c0,1.1-0.2,1.9-0.5,2.5c-0.3,0.6-0.8,1.1-1.4,1.4s-1.3,0.5-2,0.5c-1.2,0-2.1-0.4-2.8-1.1
				C486,203.7,485.7,202.6,485.7,201.2z M487.1,201.2c0,1.1,0.2,1.9,0.7,2.4c0.5,0.5,1,0.8,1.7,0.8c0.7,0,1.3-0.3,1.7-0.8
				c0.5-0.5,0.7-1.3,0.7-2.4c0-1-0.2-1.8-0.7-2.3s-1-0.8-1.7-0.8c-0.7,0-1.3,0.3-1.7,0.8C487.3,199.4,487.1,200.2,487.1,201.2z"/>
		</g>
	</g>
	<g id="XMLID_7603_">
		<rect id="XMLID_7606_" x="398.1" y="59.4" class="st5" width="140.4" height="33.3"/>
		<g id="XMLID_244_">
			<path id="XMLID_245_" d="M437.3,78.3l1.5,0.4c-0.3,1.2-0.9,2.2-1.7,2.8c-0.8,0.7-1.8,1-3,1c-1.2,0-2.2-0.3-3-0.8
				c-0.8-0.5-1.4-1.2-1.8-2.2c-0.4-1-0.6-2-0.6-3.1c0-1.2,0.2-2.2,0.7-3.1c0.5-0.9,1.1-1.6,1.9-2c0.8-0.5,1.8-0.7,2.8-0.7
				c1.1,0,2.1,0.3,2.9,0.9c0.8,0.6,1.3,1.4,1.6,2.5l-1.5,0.4c-0.3-0.8-0.6-1.4-1.2-1.8c-0.5-0.4-1.1-0.6-1.9-0.6
				c-0.9,0-1.6,0.2-2.2,0.6c-0.6,0.4-1,1-1.2,1.7c-0.2,0.7-0.4,1.4-0.4,2.2c0,1,0.1,1.8,0.4,2.5c0.3,0.7,0.7,1.3,1.3,1.6
				c0.6,0.4,1.2,0.5,1.9,0.5c0.8,0,1.6-0.2,2.2-0.7S437.1,79.3,437.3,78.3z"/>
			<path id="XMLID_247_" d="M440,78.2c0-1.5,0.4-2.7,1.3-3.4c0.7-0.6,1.6-0.9,2.6-0.9c1.1,0,2.1,0.4,2.8,1.1
				c0.7,0.7,1.1,1.8,1.1,3.1c0,1.1-0.2,1.9-0.5,2.5s-0.8,1.1-1.4,1.4s-1.3,0.5-2,0.5c-1.2,0-2.1-0.4-2.8-1.1
				C440.3,80.6,440,79.6,440,78.2z M441.4,78.2c0,1.1,0.2,1.9,0.7,2.4c0.5,0.5,1,0.8,1.7,0.8c0.7,0,1.3-0.3,1.7-0.8
				c0.5-0.5,0.7-1.3,0.7-2.4c0-1-0.2-1.8-0.7-2.3s-1-0.8-1.7-0.8c-0.7,0-1.3,0.3-1.7,0.8C441.7,76.3,441.4,77.1,441.4,78.2z"/>
			<path id="XMLID_250_" d="M449.4,82.3V74h1.3v1.2c0.6-0.9,1.5-1.4,2.6-1.4c0.5,0,1,0.1,1.4,0.3c0.4,0.2,0.7,0.4,0.9,0.7
				c0.2,0.3,0.4,0.6,0.4,1c0.1,0.3,0.1,0.7,0.1,1.4v5.1h-1.4v-5c0-0.6-0.1-1-0.2-1.3c-0.1-0.3-0.3-0.5-0.6-0.7
				c-0.3-0.2-0.6-0.3-1-0.3c-0.6,0-1.1,0.2-1.5,0.6c-0.4,0.4-0.7,1.1-0.7,2.2v4.5H449.4z"/>
			<path id="XMLID_252_" d="M457.7,79.8l1.4-0.2c0.1,0.6,0.3,1,0.7,1.3s0.9,0.4,1.5,0.4c0.6,0,1.1-0.1,1.4-0.4
				c0.3-0.3,0.5-0.6,0.5-0.9c0-0.3-0.1-0.6-0.4-0.7c-0.2-0.1-0.7-0.3-1.4-0.5c-1-0.3-1.7-0.5-2.1-0.7c-0.4-0.2-0.7-0.5-0.9-0.8
				s-0.3-0.7-0.3-1.1c0-0.4,0.1-0.7,0.3-1c0.2-0.3,0.4-0.6,0.7-0.8c0.2-0.2,0.5-0.3,0.9-0.4c0.4-0.1,0.8-0.2,1.2-0.2
				c0.6,0,1.2,0.1,1.7,0.3c0.5,0.2,0.9,0.4,1.1,0.8c0.2,0.3,0.4,0.7,0.5,1.3l-1.4,0.2c-0.1-0.4-0.2-0.8-0.5-1
				c-0.3-0.2-0.7-0.4-1.3-0.4c-0.6,0-1.1,0.1-1.4,0.3s-0.4,0.5-0.4,0.7c0,0.2,0.1,0.3,0.2,0.5c0.1,0.2,0.3,0.3,0.5,0.4
				c0.1,0.1,0.6,0.2,1.2,0.4c1,0.3,1.7,0.5,2.1,0.7c0.4,0.2,0.7,0.4,0.9,0.7c0.2,0.3,0.3,0.7,0.3,1.2c0,0.5-0.1,0.9-0.4,1.3
				s-0.7,0.7-1.2,1c-0.5,0.2-1.1,0.3-1.7,0.3c-1.1,0-1.9-0.2-2.5-0.7C458.2,81.4,457.9,80.7,457.7,79.8z"/>
			<path id="XMLID_254_" d="M471.7,82.3v-1.2c-0.6,0.9-1.5,1.4-2.6,1.4c-0.5,0-0.9-0.1-1.4-0.3c-0.4-0.2-0.7-0.4-0.9-0.7
				c-0.2-0.3-0.3-0.6-0.4-1c-0.1-0.3-0.1-0.7-0.1-1.3V74h1.4v4.6c0,0.7,0,1.2,0.1,1.5c0.1,0.4,0.3,0.7,0.6,0.9
				c0.3,0.2,0.6,0.3,1.1,0.3c0.4,0,0.8-0.1,1.2-0.3c0.4-0.2,0.6-0.5,0.8-0.9c0.2-0.4,0.2-0.9,0.2-1.6V74h1.4v8.3H471.7z"/>
			<path id="XMLID_256_" d="M475.1,82.3V70.9h1.4v11.4H475.1z"/>
			<path id="XMLID_258_" d="M481.7,81.1l0.2,1.2c-0.4,0.1-0.7,0.1-1.1,0.1c-0.5,0-0.9-0.1-1.2-0.2c-0.3-0.2-0.5-0.4-0.6-0.6
				c-0.1-0.3-0.2-0.8-0.2-1.7v-4.8h-1V74h1v-2l1.4-0.8V74h1.4v1.1h-1.4V80c0,0.4,0,0.7,0.1,0.8c0,0.1,0.1,0.2,0.2,0.3
				c0.1,0.1,0.3,0.1,0.5,0.1C481.3,81.1,481.5,81.1,481.7,81.1z"/>
			<path id="XMLID_260_" d="M482.6,78.2c0-1.5,0.4-2.7,1.3-3.4c0.7-0.6,1.6-0.9,2.6-0.9c1.1,0,2.1,0.4,2.8,1.1
				c0.7,0.7,1.1,1.8,1.1,3.1c0,1.1-0.2,1.9-0.5,2.5s-0.8,1.1-1.4,1.4s-1.3,0.5-2,0.5c-1.2,0-2.1-0.4-2.8-1.1
				C482.9,80.6,482.6,79.6,482.6,78.2z M484,78.2c0,1.1,0.2,1.9,0.7,2.4c0.5,0.5,1,0.8,1.7,0.8c0.7,0,1.3-0.3,1.7-0.8
				c0.5-0.5,0.7-1.3,0.7-2.4c0-1-0.2-1.8-0.7-2.3s-1-0.8-1.7-0.8c-0.7,0-1.3,0.3-1.7,0.8C484.2,76.3,484,77.1,484,78.2z"/>
			<path id="XMLID_263_" d="M491.9,82.3V74h1.3v1.3c0.3-0.6,0.6-1,0.9-1.2c0.3-0.2,0.6-0.3,0.9-0.3c0.5,0,1,0.2,1.4,0.5l-0.5,1.3
				c-0.3-0.2-0.7-0.3-1-0.3c-0.3,0-0.6,0.1-0.8,0.3c-0.2,0.2-0.4,0.4-0.5,0.8c-0.2,0.5-0.2,1-0.2,1.6v4.3H491.9z"/>
			<path id="XMLID_265_" d="M497.3,72.5v-1.6h1.4v1.6H497.3z M497.3,82.3V74h1.4v8.3H497.3z"/>
			<path id="XMLID_268_" d="M500.3,78.2c0-1.5,0.4-2.7,1.3-3.4c0.7-0.6,1.6-0.9,2.6-0.9c1.1,0,2.1,0.4,2.8,1.1s1.1,1.8,1.1,3.1
				c0,1.1-0.2,1.9-0.5,2.5s-0.8,1.1-1.4,1.4s-1.3,0.5-2,0.5c-1.2,0-2.1-0.4-2.8-1.1C500.7,80.6,500.3,79.6,500.3,78.2z M501.7,78.2
				c0,1.1,0.2,1.9,0.7,2.4s1,0.8,1.7,0.8c0.7,0,1.3-0.3,1.7-0.8c0.5-0.5,0.7-1.3,0.7-2.4c0-1-0.2-1.8-0.7-2.3s-1-0.8-1.7-0.8
				c-0.7,0-1.3,0.3-1.7,0.8S501.7,77.1,501.7,78.2z"/>
		</g>
	</g>
</g>
<g id="XMLID_7505_">
	<g id="XMLID_7588_">
		<path id="XMLID_7594_" class="st6" d="M50.7,156.8l-15.9-21.6v-14.4h12.8c0.7,0,1.3-0.6,1.3-1.3c0-0.7-0.6-1.3-1.3-1.3H34.8v-10.8
			c0-0.7-0.6-1.3-1.3-1.3c-0.7,0-1.3,0.6-1.3,1.3v10.8H19.4c-0.7,0-1.3,0.6-1.3,1.3c0,0.7,0.6,1.3,1.3,1.3h12.8v14.4l-16.3,21.6
			c-0.4,0.6-0.3,1.4,0.3,1.8c0.2,0.2,0.5,0.3,0.8,0.3c0.4,0,0.8-0.2,1-0.5l15.5-20.6l15.2,20.5c0.3,0.3,0.6,0.5,1,0.5
			c0.3,0,0.5-0.1,0.8-0.3C51,158.1,51.1,157.3,50.7,156.8z"/>
		<circle id="XMLID_7592_" class="st7" cx="33.5" cy="98" r="13.2"/>
		<path id="XMLID_7589_" class="st6" d="M33.5,112.1c-7.8,0-14.1-6.3-14.1-14.1c0-7.8,6.3-14.1,14.1-14.1c7.8,0,14.1,6.3,14.1,14.1
			C47.6,105.8,41.3,112.1,33.5,112.1z M33.5,85.7c-6.8,0-12.3,5.5-12.3,12.3c0,6.8,5.5,12.3,12.3,12.3c6.8,0,12.3-5.5,12.3-12.3
			C45.8,91.2,40.3,85.7,33.5,85.7z"/>
	</g>
	<g id="XMLID_222_">
		<path id="XMLID_223_" d="M0,175.9v-10.7h7.9v1.8H2.2v2.4h5.3v1.8H2.2v2.9h6v1.8H0z"/>
		<path id="XMLID_225_" d="M9.8,168.2h1.9v1.1c0.7-0.8,1.5-1.2,2.4-1.2c0.5,0,0.9,0.1,1.3,0.3s0.7,0.5,0.9,0.9
			c0.3-0.4,0.7-0.7,1.1-0.9s0.8-0.3,1.3-0.3c0.6,0,1,0.1,1.4,0.3c0.4,0.2,0.7,0.6,0.9,1c0.1,0.3,0.2,0.9,0.2,1.6v4.9h-2v-4.4
			c0-0.8-0.1-1.3-0.2-1.5c-0.2-0.3-0.5-0.4-0.9-0.4c-0.3,0-0.6,0.1-0.8,0.3s-0.4,0.4-0.5,0.8c-0.1,0.3-0.2,0.9-0.2,1.6v3.7h-2v-4.2
			c0-0.8,0-1.2-0.1-1.5s-0.2-0.4-0.3-0.5c-0.2-0.1-0.4-0.2-0.6-0.2c-0.3,0-0.6,0.1-0.9,0.3s-0.4,0.4-0.5,0.7
			c-0.1,0.3-0.2,0.8-0.2,1.6v3.8h-2V168.2z"/>
		<path id="XMLID_227_" d="M23.1,168.2H25v1.1c0.2-0.4,0.6-0.7,1-0.9c0.4-0.2,0.9-0.4,1.4-0.4c0.9,0,1.7,0.4,2.3,1.1
			c0.6,0.7,0.9,1.7,0.9,2.9c0,1.3-0.3,2.3-0.9,3s-1.4,1.1-2.3,1.1c-0.4,0-0.8-0.1-1.2-0.3c-0.3-0.2-0.7-0.5-1.1-0.9v3.9h-2V168.2z
			 M25.1,171.9c0,0.9,0.2,1.5,0.5,1.9c0.3,0.4,0.8,0.6,1.3,0.6c0.5,0,0.9-0.2,1.2-0.6c0.3-0.4,0.5-1,0.5-1.9c0-0.8-0.2-1.4-0.5-1.8
			s-0.7-0.6-1.2-0.6c-0.5,0-0.9,0.2-1.2,0.6C25.3,170.6,25.1,171.2,25.1,171.9z"/>
		<path id="XMLID_230_" d="M32.2,175.9v-10.7h2v10.7H32.2z"/>
		<path id="XMLID_232_" d="M40.8,173.5l2,0.3c-0.3,0.7-0.7,1.3-1.2,1.7s-1.3,0.6-2.1,0.6c-1.3,0-2.3-0.4-3-1.3
			c-0.5-0.7-0.8-1.6-0.8-2.7c0-1.3,0.3-2.3,1-3c0.7-0.7,1.5-1.1,2.5-1.1c1.1,0,2.1,0.4,2.7,1.1c0.7,0.8,1,1.9,1,3.5h-5.1
			c0,0.6,0.2,1.1,0.5,1.4c0.3,0.3,0.7,0.5,1.2,0.5c0.3,0,0.6-0.1,0.8-0.3C40.6,174.1,40.7,173.8,40.8,173.5z M41,171.4
			c0-0.6-0.2-1-0.5-1.3c-0.3-0.3-0.6-0.5-1.1-0.5c-0.4,0-0.8,0.2-1.1,0.5c-0.3,0.3-0.4,0.8-0.4,1.3H41z"/>
		<path id="XMLID_235_" d="M46.2,170.5l-1.9-0.3c0.2-0.7,0.6-1.3,1.1-1.7c0.5-0.4,1.3-0.5,2.3-0.5c0.9,0,1.6,0.1,2,0.3
			c0.4,0.2,0.8,0.5,0.9,0.8c0.2,0.3,0.3,0.9,0.3,1.8l0,2.4c0,0.7,0,1.2,0.1,1.5s0.2,0.7,0.4,1h-2c-0.1-0.1-0.1-0.3-0.2-0.6
			c0-0.1-0.1-0.2-0.1-0.2c-0.3,0.3-0.7,0.6-1.1,0.8c-0.4,0.2-0.8,0.3-1.3,0.3c-0.8,0-1.4-0.2-1.9-0.6c-0.5-0.4-0.7-1-0.7-1.6
			c0-0.4,0.1-0.8,0.3-1.2c0.2-0.3,0.5-0.6,0.9-0.8s0.9-0.3,1.6-0.5c1-0.2,1.6-0.3,2-0.5v-0.2c0-0.4-0.1-0.7-0.3-0.8
			c-0.2-0.2-0.6-0.3-1.1-0.3c-0.4,0-0.6,0.1-0.9,0.2C46.5,169.9,46.3,170.2,46.2,170.5z M48.9,172.2c-0.3,0.1-0.7,0.2-1.2,0.3
			s-0.9,0.2-1.1,0.4c-0.3,0.2-0.4,0.4-0.4,0.7c0,0.3,0.1,0.5,0.3,0.7c0.2,0.2,0.5,0.3,0.8,0.3c0.4,0,0.7-0.1,1.1-0.4
			c0.2-0.2,0.4-0.4,0.5-0.7c0.1-0.2,0.1-0.5,0.1-1V172.2z"/>
		<path id="XMLID_238_" d="M60,175.9h-1.9v-1.1c-0.3,0.4-0.7,0.8-1.1,1s-0.9,0.3-1.3,0.3c-0.9,0-1.6-0.4-2.3-1.1s-0.9-1.7-0.9-3
			c0-1.3,0.3-2.3,0.9-3c0.6-0.7,1.4-1,2.3-1c0.9,0,1.6,0.4,2.2,1.1v-3.8h2V175.9z M54.6,171.9c0,0.8,0.1,1.4,0.3,1.8
			c0.3,0.5,0.8,0.8,1.4,0.8c0.5,0,0.9-0.2,1.2-0.6c0.3-0.4,0.5-1,0.5-1.8c0-0.9-0.2-1.5-0.5-1.9c-0.3-0.4-0.7-0.6-1.2-0.6
			c-0.5,0-0.9,0.2-1.2,0.6C54.7,170.5,54.6,171.1,54.6,171.9z"/>
		<path id="XMLID_241_" d="M61.6,171.9c0-0.7,0.2-1.3,0.5-2s0.8-1.1,1.4-1.5c0.6-0.3,1.3-0.5,2.1-0.5c1.2,0,2.1,0.4,2.9,1.1
			s1.1,1.7,1.1,2.9c0,1.2-0.4,2.1-1.1,2.9s-1.7,1.2-2.8,1.2c-0.7,0-1.4-0.2-2-0.5s-1.1-0.8-1.5-1.4S61.6,172.8,61.6,171.9z
			 M63.6,172c0,0.8,0.2,1.4,0.5,1.8c0.4,0.4,0.8,0.6,1.3,0.6s1-0.2,1.3-0.6c0.4-0.4,0.5-1,0.5-1.8c0-0.8-0.2-1.3-0.5-1.7
			c-0.4-0.4-0.8-0.6-1.3-0.6s-1,0.2-1.3,0.6C63.8,170.7,63.6,171.3,63.6,172z"/>
	</g>
</g>
<g id="XMLID_180_">
	<path id="XMLID_181_" d="M124.1,200.9h-1.2v-7.6c-0.3,0.3-0.7,0.5-1.1,0.8c-0.5,0.3-0.9,0.5-1.3,0.6v-1.1c0.7-0.3,1.2-0.7,1.7-1.1
		s0.8-0.9,1.1-1.3h0.8V200.9z"/>
	<path id="XMLID_183_" d="M127.8,195.2v-1.4h1.4v1.4H127.8z M127.8,200.9v-1.4h1.4v1.4H127.8z"/>
	<path id="XMLID_186_" d="M139.6,198.3l1.2,0.2c-0.1,0.8-0.5,1.4-1,1.9c-0.5,0.5-1.2,0.7-1.9,0.7c-1,0-1.7-0.3-2.3-0.9
		s-0.9-1.5-0.9-2.7c0-0.8,0.1-1.4,0.4-2s0.6-1,1.1-1.3c0.5-0.3,1.1-0.4,1.7-0.4c0.8,0,1.4,0.2,1.9,0.6c0.5,0.4,0.8,0.9,0.9,1.6
		l-1.2,0.2c-0.1-0.5-0.3-0.8-0.6-1.1c-0.3-0.2-0.6-0.4-1-0.4c-0.6,0-1.1,0.2-1.5,0.6c-0.4,0.4-0.6,1.1-0.6,2c0,0.9,0.2,1.6,0.5,2.1
		c0.4,0.4,0.8,0.6,1.4,0.6c0.5,0,0.9-0.1,1.2-0.4C139.3,199.3,139.5,198.9,139.6,198.3z"/>
	<path id="XMLID_188_" d="M141.8,192.5v-1.4h1.2v1.4H141.8z M141.8,200.9v-7h1.2v7H141.8z"/>
	<path id="XMLID_191_" d="M147.4,199.8l0.2,1.1c-0.3,0.1-0.6,0.1-0.9,0.1c-0.4,0-0.8-0.1-1-0.2s-0.4-0.3-0.5-0.5
		c-0.1-0.2-0.1-0.7-0.1-1.4v-4h-0.9v-0.9h0.9v-1.7l1.2-0.7v2.5h1.2v0.9h-1.2v4.1c0,0.3,0,0.6,0.1,0.7c0,0.1,0.1,0.2,0.2,0.2
		s0.2,0.1,0.4,0.1C147,199.8,147.2,199.8,147.4,199.8z"/>
	<path id="XMLID_193_" d="M153.1,200c-0.4,0.4-0.9,0.6-1.3,0.8c-0.4,0.2-0.8,0.2-1.3,0.2c-0.8,0-1.4-0.2-1.8-0.6
		c-0.4-0.4-0.6-0.9-0.6-1.4c0-0.3,0.1-0.7,0.2-0.9s0.4-0.5,0.6-0.7c0.3-0.2,0.5-0.3,0.9-0.4c0.2-0.1,0.6-0.1,1.1-0.2
		c1-0.1,1.7-0.3,2.1-0.4c0-0.2,0-0.3,0-0.3c0-0.5-0.1-0.8-0.3-1c-0.3-0.3-0.8-0.4-1.4-0.4c-0.6,0-1,0.1-1.2,0.3
		c-0.3,0.2-0.5,0.5-0.6,1l-1.2-0.2c0.1-0.5,0.3-0.9,0.5-1.2s0.6-0.5,1-0.7c0.5-0.2,1-0.2,1.6-0.2c0.6,0,1.1,0.1,1.5,0.2
		c0.4,0.1,0.6,0.3,0.8,0.5s0.3,0.5,0.4,0.8c0,0.2,0.1,0.6,0.1,1.1v1.6c0,1.1,0,1.8,0.1,2.1c0.1,0.3,0.2,0.6,0.3,0.8h-1.2
		C153.2,200.6,153.2,200.3,153.1,200z M153,197.3c-0.4,0.2-1.1,0.3-1.9,0.4c-0.5,0.1-0.8,0.2-1,0.2s-0.4,0.2-0.5,0.4
		s-0.2,0.4-0.2,0.6c0,0.3,0.1,0.6,0.4,0.8c0.2,0.2,0.6,0.3,1.1,0.3c0.5,0,0.9-0.1,1.2-0.3c0.4-0.2,0.6-0.5,0.8-0.8
		c0.1-0.3,0.2-0.7,0.2-1.2V197.3z"/>
	<path id="XMLID_196_" d="M155.2,200.9l3.7-9.7h1.4l4,9.7h-1.5l-1.1-2.9h-4l-1.1,2.9H155.2z M158,196.9h3.3l-1-2.7
		c-0.3-0.8-0.5-1.5-0.7-2c-0.1,0.6-0.3,1.2-0.5,1.8L158,196.9z"/>
	<path id="XMLID_199_" d="M164.6,198.8l1.2-0.2c0.1,0.5,0.2,0.8,0.6,1.1c0.3,0.3,0.7,0.4,1.3,0.4c0.5,0,1-0.1,1.2-0.3
		s0.4-0.5,0.4-0.8c0-0.3-0.1-0.5-0.4-0.6c-0.2-0.1-0.6-0.2-1.2-0.4c-0.9-0.2-1.5-0.4-1.8-0.6c-0.3-0.2-0.6-0.4-0.8-0.7
		s-0.3-0.6-0.3-0.9c0-0.3,0.1-0.6,0.2-0.9c0.1-0.3,0.3-0.5,0.6-0.7c0.2-0.1,0.4-0.3,0.8-0.3c0.3-0.1,0.7-0.1,1-0.1
		c0.6,0,1,0.1,1.4,0.2c0.4,0.2,0.7,0.4,0.9,0.6s0.3,0.6,0.4,1.1l-1.2,0.2c-0.1-0.4-0.2-0.6-0.5-0.8c-0.3-0.2-0.6-0.3-1.1-0.3
		c-0.5,0-0.9,0.1-1.2,0.3c-0.2,0.2-0.4,0.4-0.4,0.6c0,0.2,0,0.3,0.1,0.4c0.1,0.1,0.2,0.2,0.5,0.3c0.1,0,0.5,0.1,1.1,0.3
		c0.8,0.2,1.4,0.4,1.8,0.6c0.3,0.1,0.6,0.4,0.8,0.6s0.3,0.6,0.3,1c0,0.4-0.1,0.8-0.3,1.1c-0.2,0.3-0.6,0.6-1,0.8
		c-0.4,0.2-0.9,0.3-1.5,0.3c-0.9,0-1.6-0.2-2.1-0.6C165.1,200.1,164.8,199.5,164.6,198.8z"/>
	<path id="XMLID_201_" d="M171.9,192.5v-1.4h1.2v1.4H171.9z M171.9,200.9v-7h1.2v7H171.9z"/>
	<path id="XMLID_204_" d="M174.6,201.4l1.2,0.2c0,0.4,0.2,0.6,0.4,0.8c0.3,0.2,0.7,0.3,1.2,0.3c0.6,0,1-0.1,1.3-0.3
		c0.3-0.2,0.5-0.5,0.6-0.9c0.1-0.2,0.1-0.8,0.1-1.5c-0.5,0.6-1.2,0.9-1.9,0.9c-1,0-1.7-0.3-2.2-1c-0.5-0.7-0.8-1.5-0.8-2.5
		c0-0.7,0.1-1.3,0.4-1.9c0.2-0.6,0.6-1,1.1-1.3s1-0.5,1.6-0.5c0.8,0,1.5,0.3,2,1v-0.8h1.1v6.1c0,1.1-0.1,1.9-0.3,2.3
		c-0.2,0.5-0.6,0.8-1.1,1.1c-0.5,0.3-1.1,0.4-1.8,0.4c-0.8,0-1.5-0.2-2-0.6S174.6,202.2,174.6,201.4z M175.6,197.2
		c0,0.9,0.2,1.6,0.5,2c0.4,0.4,0.8,0.6,1.4,0.6c0.5,0,1-0.2,1.4-0.6c0.4-0.4,0.6-1.1,0.6-2c0-0.9-0.2-1.5-0.6-1.9
		c-0.4-0.4-0.8-0.7-1.4-0.7c-0.5,0-1,0.2-1.3,0.6C175.8,195.7,175.6,196.4,175.6,197.2z"/>
	<path id="XMLID_207_" d="M182.4,200.9v-7h1.1v1c0.5-0.8,1.3-1.2,2.2-1.2c0.4,0,0.8,0.1,1.2,0.2s0.6,0.4,0.8,0.6s0.3,0.5,0.4,0.9
		c0,0.2,0.1,0.6,0.1,1.2v4.3h-1.2v-4.3c0-0.5,0-0.8-0.1-1.1s-0.3-0.4-0.5-0.6c-0.2-0.1-0.5-0.2-0.8-0.2c-0.5,0-0.9,0.2-1.3,0.5
		c-0.4,0.3-0.6,0.9-0.6,1.8v3.8H182.4z"/>
	<path id="XMLID_209_" d="M194.5,200c-0.4,0.4-0.9,0.6-1.3,0.8c-0.4,0.2-0.8,0.2-1.3,0.2c-0.8,0-1.4-0.2-1.8-0.6
		c-0.4-0.4-0.6-0.9-0.6-1.4c0-0.3,0.1-0.7,0.2-0.9s0.4-0.5,0.6-0.7c0.3-0.2,0.5-0.3,0.9-0.4c0.2-0.1,0.6-0.1,1.1-0.2
		c1-0.1,1.7-0.3,2.1-0.4c0-0.2,0-0.3,0-0.3c0-0.5-0.1-0.8-0.3-1c-0.3-0.3-0.8-0.4-1.4-0.4c-0.6,0-1,0.1-1.2,0.3
		c-0.3,0.2-0.5,0.5-0.6,1l-1.2-0.2c0.1-0.5,0.3-0.9,0.5-1.2s0.6-0.5,1-0.7c0.5-0.2,1-0.2,1.6-0.2c0.6,0,1.1,0.1,1.5,0.2
		c0.4,0.1,0.6,0.3,0.8,0.5s0.3,0.5,0.4,0.8c0,0.2,0.1,0.6,0.1,1.1v1.6c0,1.1,0,1.8,0.1,2.1c0.1,0.3,0.2,0.6,0.3,0.8h-1.2
		C194.6,200.6,194.5,200.3,194.5,200z M194.4,197.3c-0.4,0.2-1.1,0.3-1.9,0.4c-0.5,0.1-0.8,0.2-1,0.2s-0.4,0.2-0.5,0.4
		s-0.2,0.4-0.2,0.6c0,0.3,0.1,0.6,0.4,0.8c0.2,0.2,0.6,0.3,1.1,0.3c0.5,0,0.9-0.1,1.2-0.3c0.4-0.2,0.6-0.5,0.8-0.8
		c0.1-0.3,0.2-0.7,0.2-1.2V197.3z"/>
	<path id="XMLID_212_" d="M202,200.9V200c-0.4,0.7-1.1,1-2,1c-0.6,0-1.1-0.2-1.5-0.5c-0.5-0.3-0.8-0.7-1.1-1.3
		c-0.3-0.6-0.4-1.2-0.4-1.9c0-0.7,0.1-1.3,0.4-1.9s0.6-1,1-1.3c0.5-0.3,1-0.5,1.6-0.5c0.4,0,0.8,0.1,1.1,0.3
		c0.3,0.2,0.6,0.4,0.8,0.7v-3.5h1.2v9.7H202z M198.2,197.4c0,0.9,0.2,1.6,0.6,2c0.4,0.4,0.8,0.7,1.3,0.7c0.5,0,1-0.2,1.3-0.6
		c0.4-0.4,0.5-1.1,0.5-1.9c0-1-0.2-1.7-0.6-2.1c-0.4-0.4-0.8-0.7-1.4-0.7c-0.5,0-1,0.2-1.3,0.6S198.2,196.4,198.2,197.4z"/>
	<path id="XMLID_215_" d="M209.5,200c-0.4,0.4-0.9,0.6-1.3,0.8c-0.4,0.2-0.8,0.2-1.3,0.2c-0.8,0-1.4-0.2-1.8-0.6
		c-0.4-0.4-0.6-0.9-0.6-1.4c0-0.3,0.1-0.7,0.2-0.9s0.4-0.5,0.6-0.7c0.3-0.2,0.5-0.3,0.9-0.4c0.2-0.1,0.6-0.1,1.1-0.2
		c1-0.1,1.7-0.3,2.1-0.4c0-0.2,0-0.3,0-0.3c0-0.5-0.1-0.8-0.3-1c-0.3-0.3-0.8-0.4-1.4-0.4c-0.6,0-1,0.1-1.2,0.3
		c-0.3,0.2-0.5,0.5-0.6,1l-1.2-0.2c0.1-0.5,0.3-0.9,0.5-1.2s0.6-0.5,1-0.7c0.5-0.2,1-0.2,1.6-0.2c0.6,0,1.1,0.1,1.5,0.2
		c0.4,0.1,0.6,0.3,0.8,0.5s0.3,0.5,0.4,0.8c0,0.2,0.1,0.6,0.1,1.1v1.6c0,1.1,0,1.8,0.1,2.1c0.1,0.3,0.2,0.6,0.3,0.8h-1.2
		C209.6,200.6,209.6,200.3,209.5,200z M209.4,197.3c-0.4,0.2-1.1,0.3-1.9,0.4c-0.5,0.1-0.8,0.2-1,0.2s-0.4,0.2-0.5,0.4
		s-0.2,0.4-0.2,0.6c0,0.3,0.1,0.6,0.4,0.8c0.2,0.2,0.6,0.3,1.1,0.3c0.5,0,0.9-0.1,1.2-0.3c0.4-0.2,0.6-0.5,0.8-0.8
		c0.1-0.3,0.2-0.7,0.2-1.2V197.3z"/>
	<path id="XMLID_218_" d="M214.7,203.7c-0.7-0.8-1.2-1.8-1.7-2.9c-0.5-1.1-0.7-2.3-0.7-3.4c0-1,0.2-2.1,0.5-3c0.4-1.1,1-2.2,1.8-3.3
		h0.9c-0.5,0.9-0.9,1.6-1.1,2c-0.3,0.6-0.5,1.2-0.6,1.9c-0.2,0.8-0.3,1.7-0.3,2.5c0,2.1,0.7,4.2,2,6.3H214.7z"/>
	<path id="XMLID_220_" d="M217.8,203.7h-0.9c1.3-2.1,2-4.2,2-6.3c0-0.8-0.1-1.7-0.3-2.5c-0.1-0.7-0.4-1.3-0.6-1.9
		c-0.2-0.4-0.5-1.1-1.1-2h0.9c0.8,1.1,1.4,2.2,1.8,3.3c0.3,1,0.5,2,0.5,3c0,1.2-0.2,2.3-0.7,3.4C219,201.9,218.4,202.9,217.8,203.7z
		"/>
</g>
<g id="XMLID_142_">
	<path id="XMLID_143_" d="M119.7,83.2l1.2-0.1c0.1,0.6,0.3,1.1,0.6,1.4c0.3,0.3,0.7,0.5,1.2,0.5c0.6,0,1.1-0.2,1.5-0.6
		c0.4-0.4,0.6-1,0.6-1.7c0-0.7-0.2-1.2-0.6-1.6c-0.4-0.4-0.9-0.6-1.5-0.6c-0.4,0-0.7,0.1-1,0.3s-0.6,0.4-0.7,0.7l-1.1-0.1l0.9-5h4.8
		v1.1h-3.9l-0.5,2.6c0.6-0.4,1.2-0.6,1.8-0.6c0.8,0,1.6,0.3,2.1,0.9c0.6,0.6,0.9,1.3,0.9,2.3c0,0.9-0.3,1.6-0.8,2.3
		c-0.6,0.8-1.5,1.2-2.5,1.2c-0.9,0-1.6-0.2-2.2-0.7S119.7,84,119.7,83.2z"/>
	<path id="XMLID_145_" d="M127.8,80v-1.4h1.4V80H127.8z M127.8,85.7v-1.4h1.4v1.4H127.8z"/>
	<path id="XMLID_148_" d="M139.6,83.1l1.2,0.2c-0.1,0.8-0.5,1.4-1,1.9c-0.5,0.5-1.2,0.7-1.9,0.7c-1,0-1.7-0.3-2.3-0.9
		c-0.6-0.6-0.9-1.5-0.9-2.7c0-0.8,0.1-1.4,0.4-2c0.3-0.6,0.6-1,1.1-1.3c0.5-0.3,1.1-0.4,1.7-0.4c0.8,0,1.4,0.2,1.9,0.6
		c0.5,0.4,0.8,0.9,0.9,1.6l-1.2,0.2c-0.1-0.5-0.3-0.8-0.6-1.1c-0.3-0.2-0.6-0.4-1-0.4c-0.6,0-1.1,0.2-1.5,0.6
		c-0.4,0.4-0.6,1.1-0.6,2c0,0.9,0.2,1.6,0.5,2.1c0.4,0.4,0.8,0.6,1.4,0.6c0.5,0,0.9-0.1,1.2-0.4S139.5,83.7,139.6,83.1z"/>
	<path id="XMLID_150_" d="M141.8,77.4V76h1.2v1.4H141.8z M141.8,85.7v-7h1.2v7H141.8z"/>
	<path id="XMLID_153_" d="M147.4,84.6l0.2,1c-0.3,0.1-0.6,0.1-0.9,0.1c-0.4,0-0.8-0.1-1-0.2s-0.4-0.3-0.5-0.5
		c-0.1-0.2-0.1-0.7-0.1-1.4v-4h-0.9v-0.9h0.9v-1.7l1.2-0.7v2.5h1.2v0.9h-1.2v4.1c0,0.3,0,0.6,0.1,0.7s0.1,0.2,0.2,0.2
		c0.1,0.1,0.2,0.1,0.4,0.1C147,84.7,147.2,84.7,147.4,84.6z"/>
	<path id="XMLID_155_" d="M153.1,84.8c-0.4,0.4-0.9,0.6-1.3,0.8c-0.4,0.2-0.8,0.2-1.3,0.2c-0.8,0-1.4-0.2-1.8-0.6
		c-0.4-0.4-0.6-0.9-0.6-1.4c0-0.3,0.1-0.7,0.2-0.9c0.2-0.3,0.4-0.5,0.6-0.7c0.3-0.2,0.5-0.3,0.9-0.4c0.2-0.1,0.6-0.1,1.1-0.2
		c1-0.1,1.7-0.3,2.1-0.4c0-0.2,0-0.3,0-0.3c0-0.5-0.1-0.8-0.3-1c-0.3-0.3-0.8-0.4-1.4-0.4c-0.6,0-1,0.1-1.2,0.3
		c-0.3,0.2-0.5,0.5-0.6,1l-1.2-0.2c0.1-0.5,0.3-0.9,0.5-1.2c0.2-0.3,0.6-0.5,1-0.7s1-0.2,1.6-0.2c0.6,0,1.1,0.1,1.5,0.2
		c0.4,0.1,0.6,0.3,0.8,0.5c0.2,0.2,0.3,0.5,0.4,0.8c0,0.2,0.1,0.6,0.1,1.1v1.6c0,1.1,0,1.8,0.1,2.1c0.1,0.3,0.2,0.6,0.3,0.8h-1.2
		C153.2,85.4,153.2,85.2,153.1,84.8z M153,82.2c-0.4,0.2-1.1,0.3-1.9,0.4c-0.5,0.1-0.8,0.2-1,0.2s-0.4,0.2-0.5,0.4
		c-0.1,0.2-0.2,0.4-0.2,0.6c0,0.3,0.1,0.6,0.4,0.8c0.2,0.2,0.6,0.3,1.1,0.3c0.5,0,0.9-0.1,1.2-0.3c0.4-0.2,0.6-0.5,0.8-0.8
		c0.1-0.3,0.2-0.7,0.2-1.2V82.2z"/>
	<path id="XMLID_158_" d="M155.2,85.7l3.7-9.7h1.4l4,9.7h-1.5l-1.1-2.9h-4l-1.1,2.9H155.2z M158,81.7h3.3l-1-2.7
		c-0.3-0.8-0.5-1.5-0.7-2c-0.1,0.6-0.3,1.2-0.5,1.8L158,81.7z"/>
	<path id="XMLID_161_" d="M164.6,83.6l1.2-0.2c0.1,0.5,0.2,0.8,0.6,1.1s0.7,0.4,1.3,0.4c0.5,0,1-0.1,1.2-0.3s0.4-0.5,0.4-0.8
		c0-0.3-0.1-0.5-0.4-0.6c-0.2-0.1-0.6-0.2-1.2-0.4c-0.9-0.2-1.5-0.4-1.8-0.6c-0.3-0.2-0.6-0.4-0.8-0.7c-0.2-0.3-0.3-0.6-0.3-0.9
		c0-0.3,0.1-0.6,0.2-0.9c0.1-0.3,0.3-0.5,0.6-0.7c0.2-0.1,0.4-0.3,0.8-0.3s0.7-0.1,1-0.1c0.6,0,1,0.1,1.4,0.2
		c0.4,0.2,0.7,0.4,0.9,0.6c0.2,0.3,0.3,0.6,0.4,1.1l-1.2,0.2c-0.1-0.4-0.2-0.6-0.5-0.8c-0.3-0.2-0.6-0.3-1.1-0.3
		c-0.5,0-0.9,0.1-1.2,0.3s-0.4,0.4-0.4,0.6c0,0.2,0,0.3,0.1,0.4c0.1,0.1,0.2,0.2,0.5,0.3c0.1,0,0.5,0.1,1.1,0.3
		c0.8,0.2,1.4,0.4,1.8,0.6c0.3,0.1,0.6,0.4,0.8,0.6c0.2,0.3,0.3,0.6,0.3,1c0,0.4-0.1,0.8-0.3,1.1c-0.2,0.4-0.6,0.6-1,0.8
		c-0.4,0.2-0.9,0.3-1.5,0.3c-0.9,0-1.6-0.2-2.1-0.6C165.1,84.9,164.8,84.3,164.6,83.6z"/>
	<path id="XMLID_163_" d="M171.9,77.4V76h1.2v1.4H171.9z M171.9,85.7v-7h1.2v7H171.9z"/>
	<path id="XMLID_166_" d="M174.6,86.3l1.2,0.2c0,0.4,0.2,0.6,0.4,0.8c0.3,0.2,0.7,0.3,1.2,0.3c0.6,0,1-0.1,1.3-0.3
		c0.3-0.2,0.5-0.5,0.6-0.9c0.1-0.2,0.1-0.8,0.1-1.5c-0.5,0.6-1.2,0.9-1.9,0.9c-1,0-1.7-0.3-2.2-1c-0.5-0.7-0.8-1.5-0.8-2.5
		c0-0.7,0.1-1.3,0.4-1.9c0.2-0.6,0.6-1,1.1-1.3s1-0.5,1.6-0.5c0.8,0,1.5,0.3,2,1v-0.8h1.1v6.1c0,1.1-0.1,1.9-0.3,2.3
		c-0.2,0.5-0.6,0.8-1.1,1.1c-0.5,0.3-1.1,0.4-1.8,0.4c-0.8,0-1.5-0.2-2-0.6C174.9,87.6,174.6,87,174.6,86.3z M175.6,82.1
		c0,0.9,0.2,1.6,0.5,2c0.4,0.4,0.8,0.6,1.4,0.6c0.5,0,1-0.2,1.4-0.6c0.4-0.4,0.6-1.1,0.6-2c0-0.9-0.2-1.5-0.6-1.9
		c-0.4-0.4-0.8-0.7-1.4-0.7c-0.5,0-1,0.2-1.3,0.6C175.8,80.6,175.6,81.2,175.6,82.1z"/>
	<path id="XMLID_169_" d="M182.4,85.7v-7h1.1v1c0.5-0.8,1.3-1.2,2.2-1.2c0.4,0,0.8,0.1,1.2,0.2c0.4,0.2,0.6,0.4,0.8,0.6
		c0.2,0.2,0.3,0.5,0.4,0.9c0,0.2,0.1,0.6,0.1,1.2v4.3h-1.2v-4.3c0-0.5,0-0.8-0.1-1.1c-0.1-0.2-0.3-0.4-0.5-0.6
		c-0.2-0.1-0.5-0.2-0.8-0.2c-0.5,0-0.9,0.2-1.3,0.5s-0.6,0.9-0.6,1.8v3.8H182.4z"/>
	<path id="XMLID_171_" d="M194.5,84.8c-0.4,0.4-0.9,0.6-1.3,0.8c-0.4,0.2-0.8,0.2-1.3,0.2c-0.8,0-1.4-0.2-1.8-0.6
		c-0.4-0.4-0.6-0.9-0.6-1.4c0-0.3,0.1-0.7,0.2-0.9c0.2-0.3,0.4-0.5,0.6-0.7c0.3-0.2,0.5-0.3,0.9-0.4c0.2-0.1,0.6-0.1,1.1-0.2
		c1-0.1,1.7-0.3,2.1-0.4c0-0.2,0-0.3,0-0.3c0-0.5-0.1-0.8-0.3-1c-0.3-0.3-0.8-0.4-1.4-0.4c-0.6,0-1,0.1-1.2,0.3
		c-0.3,0.2-0.5,0.5-0.6,1l-1.2-0.2c0.1-0.5,0.3-0.9,0.5-1.2c0.2-0.3,0.6-0.5,1-0.7s1-0.2,1.6-0.2c0.6,0,1.1,0.1,1.5,0.2
		c0.4,0.1,0.6,0.3,0.8,0.5c0.2,0.2,0.3,0.5,0.4,0.8c0,0.2,0.1,0.6,0.1,1.1v1.6c0,1.1,0,1.8,0.1,2.1c0.1,0.3,0.2,0.6,0.3,0.8h-1.2
		C194.6,85.4,194.5,85.2,194.5,84.8z M194.4,82.2c-0.4,0.2-1.1,0.3-1.9,0.4c-0.5,0.1-0.8,0.2-1,0.2s-0.4,0.2-0.5,0.4
		c-0.1,0.2-0.2,0.4-0.2,0.6c0,0.3,0.1,0.6,0.4,0.8c0.2,0.2,0.6,0.3,1.1,0.3c0.5,0,0.9-0.1,1.2-0.3c0.4-0.2,0.6-0.5,0.8-0.8
		c0.1-0.3,0.2-0.7,0.2-1.2V82.2z"/>
	<path id="XMLID_174_" d="M202,85.7v-0.9c-0.4,0.7-1.1,1-2,1c-0.6,0-1.1-0.2-1.5-0.5c-0.5-0.3-0.8-0.7-1.1-1.3
		c-0.3-0.6-0.4-1.2-0.4-1.9c0-0.7,0.1-1.3,0.4-1.9c0.2-0.6,0.6-1,1-1.3s1-0.5,1.6-0.5c0.4,0,0.8,0.1,1.1,0.3
		c0.3,0.2,0.6,0.4,0.8,0.7V76h1.2v9.7H202z M198.2,82.2c0,0.9,0.2,1.6,0.6,2c0.4,0.4,0.8,0.7,1.3,0.7c0.5,0,1-0.2,1.3-0.6
		s0.5-1.1,0.5-1.9c0-1-0.2-1.7-0.6-2.1c-0.4-0.4-0.8-0.7-1.4-0.7c-0.5,0-1,0.2-1.3,0.6S198.2,81.3,198.2,82.2z"/>
	<path id="XMLID_177_" d="M209.5,84.8c-0.4,0.4-0.9,0.6-1.3,0.8c-0.4,0.2-0.8,0.2-1.3,0.2c-0.8,0-1.4-0.2-1.8-0.6
		c-0.4-0.4-0.6-0.9-0.6-1.4c0-0.3,0.1-0.7,0.2-0.9c0.2-0.3,0.4-0.5,0.6-0.7c0.3-0.2,0.5-0.3,0.9-0.4c0.2-0.1,0.6-0.1,1.1-0.2
		c1-0.1,1.7-0.3,2.1-0.4c0-0.2,0-0.3,0-0.3c0-0.5-0.1-0.8-0.3-1c-0.3-0.3-0.8-0.4-1.4-0.4c-0.6,0-1,0.1-1.2,0.3
		c-0.3,0.2-0.5,0.5-0.6,1l-1.2-0.2c0.1-0.5,0.3-0.9,0.5-1.2c0.2-0.3,0.6-0.5,1-0.7s1-0.2,1.6-0.2c0.6,0,1.1,0.1,1.5,0.2
		c0.4,0.1,0.6,0.3,0.8,0.5c0.2,0.2,0.3,0.5,0.4,0.8c0,0.2,0.1,0.6,0.1,1.1v1.6c0,1.1,0,1.8,0.1,2.1c0.1,0.3,0.2,0.6,0.3,0.8h-1.2
		C209.6,85.4,209.6,85.2,209.5,84.8z M209.4,82.2c-0.4,0.2-1.1,0.3-1.9,0.4c-0.5,0.1-0.8,0.2-1,0.2s-0.4,0.2-0.5,0.4
		c-0.1,0.2-0.2,0.4-0.2,0.6c0,0.3,0.1,0.6,0.4,0.8c0.2,0.2,0.6,0.3,1.1,0.3c0.5,0,0.9-0.1,1.2-0.3c0.4-0.2,0.6-0.5,0.8-0.8
		c0.1-0.3,0.2-0.7,0.2-1.2V82.2z"/>
</g>
<g id="XMLID_114_">
	<path id="XMLID_115_" d="M371.3,255.4v1.1h-6.4c0-0.3,0-0.6,0.1-0.8c0.2-0.4,0.4-0.9,0.8-1.3c0.4-0.4,0.9-0.9,1.6-1.5
		c1.1-0.9,1.8-1.5,2.1-2.1c0.4-0.5,0.6-1,0.6-1.4c0-0.5-0.2-0.9-0.5-1.2c-0.3-0.3-0.8-0.5-1.3-0.5c-0.6,0-1,0.2-1.4,0.5
		c-0.3,0.3-0.5,0.8-0.5,1.4l-1.2-0.1c0.1-0.9,0.4-1.6,0.9-2.1c0.5-0.5,1.3-0.7,2.2-0.7c0.9,0,1.7,0.3,2.2,0.8s0.8,1.2,0.8,1.9
		c0,0.4-0.1,0.8-0.2,1.1c-0.2,0.4-0.4,0.8-0.8,1.2c-0.4,0.4-1,1-1.8,1.7c-0.7,0.6-1.2,1-1.4,1.2c-0.2,0.2-0.4,0.4-0.5,0.6H371.3z"/>
	<path id="XMLID_117_" d="M373.2,250.9v-1.4h1.4v1.4H373.2z M373.2,256.6v-1.4h1.4v1.4H373.2z"/>
	<path id="XMLID_120_" d="M385,255.7c-0.4,0.4-0.9,0.6-1.3,0.8c-0.4,0.2-0.8,0.2-1.3,0.2c-0.8,0-1.4-0.2-1.8-0.6
		c-0.4-0.4-0.6-0.9-0.6-1.4c0-0.3,0.1-0.7,0.2-0.9s0.4-0.5,0.6-0.7s0.5-0.3,0.9-0.4c0.2-0.1,0.6-0.1,1.1-0.2c1-0.1,1.7-0.3,2.1-0.4
		c0-0.2,0-0.3,0-0.3c0-0.5-0.1-0.8-0.3-1c-0.3-0.3-0.8-0.4-1.4-0.4c-0.6,0-1,0.1-1.2,0.3c-0.3,0.2-0.5,0.5-0.6,1l-1.2-0.2
		c0.1-0.5,0.3-0.9,0.5-1.2s0.6-0.5,1-0.7c0.5-0.2,1-0.2,1.6-0.2c0.6,0,1.1,0.1,1.5,0.2s0.6,0.3,0.8,0.5c0.2,0.2,0.3,0.5,0.4,0.8
		c0,0.2,0.1,0.6,0.1,1.1v1.6c0,1.1,0,1.8,0.1,2.1c0,0.3,0.2,0.6,0.3,0.8h-1.2C385.1,256.3,385,256,385,255.7z M384.9,253
		c-0.4,0.2-1.1,0.3-1.9,0.4c-0.5,0.1-0.8,0.2-1,0.2c-0.2,0.1-0.4,0.2-0.5,0.4c-0.1,0.2-0.2,0.4-0.2,0.6c0,0.3,0.1,0.6,0.4,0.8
		s0.6,0.3,1.1,0.3c0.5,0,0.9-0.1,1.2-0.3c0.4-0.2,0.6-0.5,0.8-0.8c0.1-0.3,0.2-0.7,0.2-1.2V253z"/>
	<path id="XMLID_123_" d="M387.5,254.5l1.2-0.2c0.1,0.5,0.2,0.8,0.6,1.1c0.3,0.3,0.7,0.4,1.3,0.4c0.5,0,1-0.1,1.2-0.3
		c0.3-0.2,0.4-0.5,0.4-0.8c0-0.3-0.1-0.5-0.4-0.6c-0.2-0.1-0.6-0.2-1.2-0.4c-0.9-0.2-1.5-0.4-1.8-0.6c-0.3-0.2-0.6-0.4-0.8-0.7
		s-0.3-0.6-0.3-0.9c0-0.3,0.1-0.6,0.2-0.9c0.1-0.3,0.3-0.5,0.6-0.7c0.2-0.1,0.4-0.3,0.8-0.3c0.3-0.1,0.7-0.1,1-0.1
		c0.6,0,1,0.1,1.4,0.2c0.4,0.2,0.7,0.4,0.9,0.6s0.3,0.6,0.4,1.1l-1.2,0.2c-0.1-0.4-0.2-0.6-0.5-0.8c-0.3-0.2-0.6-0.3-1.1-0.3
		c-0.5,0-0.9,0.1-1.2,0.3c-0.2,0.2-0.4,0.4-0.4,0.6c0,0.2,0,0.3,0.1,0.4c0.1,0.1,0.2,0.2,0.5,0.3c0.1,0,0.5,0.1,1,0.3
		c0.8,0.2,1.4,0.4,1.8,0.6c0.3,0.1,0.6,0.4,0.8,0.6s0.3,0.6,0.3,1c0,0.4-0.1,0.8-0.3,1.1c-0.2,0.3-0.6,0.6-1,0.8s-0.9,0.3-1.5,0.3
		c-0.9,0-1.6-0.2-2.1-0.6C387.9,255.8,387.6,255.2,387.5,254.5z"/>
	<path id="XMLID_125_" d="M394.7,248.2v-1.4h1.2v1.4H394.7z M394.7,256.6v-7h1.2v7H394.7z"/>
	<path id="XMLID_128_" d="M397.5,257.1l1.2,0.2c0,0.4,0.2,0.6,0.4,0.8c0.3,0.2,0.7,0.3,1.2,0.3c0.5,0,1-0.1,1.3-0.3s0.5-0.5,0.6-0.9
		c0.1-0.2,0.1-0.8,0.1-1.5c-0.5,0.6-1.2,0.9-1.9,0.9c-1,0-1.7-0.3-2.2-1c-0.5-0.7-0.8-1.5-0.8-2.5c0-0.7,0.1-1.3,0.4-1.9
		c0.2-0.6,0.6-1,1.1-1.3s1-0.5,1.6-0.5c0.8,0,1.5,0.3,2,1v-0.8h1.1v6.1c0,1.1-0.1,1.9-0.3,2.3c-0.2,0.5-0.6,0.8-1.1,1.1
		c-0.5,0.3-1.1,0.4-1.8,0.4c-0.8,0-1.5-0.2-2-0.6C397.7,258.5,397.5,257.9,397.5,257.1z M398.5,252.9c0,0.9,0.2,1.6,0.5,2
		c0.4,0.4,0.8,0.6,1.4,0.6c0.5,0,1-0.2,1.4-0.6c0.4-0.4,0.6-1.1,0.6-2c0-0.9-0.2-1.5-0.6-1.9c-0.4-0.4-0.8-0.7-1.4-0.7
		c-0.5,0-1,0.2-1.3,0.6S398.5,252.1,398.5,252.9z"/>
	<path id="XMLID_131_" d="M405.2,256.6v-7h1.1v1c0.5-0.8,1.3-1.2,2.2-1.2c0.4,0,0.8,0.1,1.2,0.2s0.6,0.4,0.8,0.6
		c0.2,0.2,0.3,0.5,0.4,0.9c0,0.2,0.1,0.6,0.1,1.2v4.3h-1.2v-4.3c0-0.5,0-0.8-0.1-1.1c-0.1-0.2-0.3-0.4-0.5-0.6
		c-0.2-0.1-0.5-0.2-0.8-0.2c-0.5,0-0.9,0.2-1.3,0.5c-0.4,0.3-0.6,0.9-0.6,1.8v3.8H405.2z"/>
	<path id="XMLID_133_" d="M417.3,255.7c-0.4,0.4-0.9,0.6-1.3,0.8c-0.4,0.2-0.8,0.2-1.3,0.2c-0.8,0-1.4-0.2-1.8-0.6
		c-0.4-0.4-0.6-0.9-0.6-1.4c0-0.3,0.1-0.7,0.2-0.9s0.4-0.5,0.6-0.7c0.3-0.2,0.5-0.3,0.9-0.4c0.2-0.1,0.6-0.1,1.1-0.2
		c1-0.1,1.7-0.3,2.1-0.4c0-0.2,0-0.3,0-0.3c0-0.5-0.1-0.8-0.3-1c-0.3-0.3-0.8-0.4-1.4-0.4c-0.6,0-1,0.1-1.2,0.3s-0.5,0.5-0.6,1
		l-1.2-0.2c0.1-0.5,0.3-0.9,0.5-1.2s0.6-0.5,1-0.7c0.5-0.2,1-0.2,1.6-0.2c0.6,0,1.1,0.1,1.5,0.2c0.4,0.1,0.6,0.3,0.8,0.5
		c0.2,0.2,0.3,0.5,0.4,0.8c0,0.2,0.1,0.6,0.1,1.1v1.6c0,1.1,0,1.8,0.1,2.1c0.1,0.3,0.2,0.6,0.3,0.8h-1.2
		C417.4,256.3,417.4,256,417.3,255.7z M417.2,253c-0.4,0.2-1.1,0.3-1.9,0.4c-0.5,0.1-0.8,0.2-1,0.2c-0.2,0.1-0.4,0.2-0.5,0.4
		c-0.1,0.2-0.2,0.4-0.2,0.6c0,0.3,0.1,0.6,0.4,0.8c0.2,0.2,0.6,0.3,1.1,0.3c0.5,0,0.9-0.1,1.2-0.3c0.4-0.2,0.6-0.5,0.8-0.8
		c0.1-0.3,0.2-0.7,0.2-1.2V253z"/>
	<path id="XMLID_136_" d="M420.3,256.6v-7h1.1v1.1c0.3-0.5,0.5-0.8,0.8-1c0.2-0.2,0.5-0.2,0.8-0.2c0.4,0,0.8,0.1,1.2,0.4l-0.4,1.1
		c-0.3-0.2-0.6-0.3-0.9-0.3c-0.3,0-0.5,0.1-0.7,0.2c-0.2,0.2-0.4,0.4-0.4,0.7c-0.1,0.4-0.2,0.9-0.2,1.4v3.7H420.3z"/>
	<path id="XMLID_138_" d="M427.1,259.4c-0.7-0.8-1.2-1.8-1.7-2.9c-0.5-1.1-0.7-2.3-0.7-3.4c0-1,0.2-2.1,0.5-3c0.4-1.1,1-2.2,1.8-3.3
		h0.9c-0.5,0.9-0.9,1.6-1.1,2c-0.3,0.6-0.5,1.2-0.6,1.9c-0.2,0.8-0.3,1.7-0.3,2.5c0,2.1,0.7,4.2,2,6.3H427.1z"/>
	<path id="XMLID_140_" d="M430.1,259.4h-0.9c1.3-2.1,2-4.2,2-6.3c0-0.8-0.1-1.7-0.3-2.5c-0.2-0.7-0.4-1.3-0.6-1.9
		c-0.2-0.4-0.5-1.1-1.1-2h0.9c0.8,1.1,1.4,2.2,1.8,3.3c0.3,1,0.5,2,0.5,3c0,1.2-0.2,2.3-0.7,3.4
		C431.3,257.6,430.7,258.6,430.1,259.4z"/>
</g>
<g id="XMLID_80_">
	<path id="XMLID_81_" d="M368.9,29.3V27h-4.2v-1.1l4.4-6.3h1v6.3h1.3V27h-1.3v2.3H368.9z M368.9,25.9v-4.4l-3,4.4H368.9z"/>
	<path id="XMLID_84_" d="M373.2,23.7v-1.4h1.4v1.4H373.2z M373.2,29.3V28h1.4v1.4H373.2z"/>
	<path id="XMLID_87_" d="M385,29.3v-0.9c-0.4,0.7-1.1,1-2,1c-0.6,0-1.1-0.2-1.5-0.5c-0.5-0.3-0.8-0.7-1.1-1.3s-0.4-1.2-0.4-1.9
		c0-0.7,0.1-1.3,0.4-1.9c0.2-0.6,0.6-1,1-1.3s1-0.5,1.6-0.5c0.4,0,0.8,0.1,1.1,0.3c0.3,0.2,0.6,0.4,0.8,0.7v-3.5h1.2v9.7H385z
		 M381.2,25.8c0,0.9,0.2,1.6,0.6,2c0.4,0.4,0.8,0.7,1.3,0.7c0.5,0,1-0.2,1.3-0.6s0.5-1.1,0.5-1.9c0-1-0.2-1.7-0.6-2.1
		c-0.4-0.4-0.8-0.7-1.4-0.7c-0.5,0-1,0.2-1.3,0.6S381.2,24.9,381.2,25.8z"/>
	<path id="XMLID_90_" d="M392.5,28.5c-0.4,0.4-0.9,0.6-1.3,0.8c-0.4,0.2-0.8,0.2-1.3,0.2c-0.8,0-1.4-0.2-1.8-0.6
		c-0.4-0.4-0.6-0.9-0.6-1.4c0-0.3,0.1-0.7,0.2-0.9c0.2-0.3,0.4-0.5,0.6-0.7s0.5-0.3,0.9-0.4c0.2-0.1,0.6-0.1,1.1-0.2
		c1-0.1,1.7-0.3,2.1-0.4c0-0.2,0-0.3,0-0.3c0-0.5-0.1-0.8-0.3-1c-0.3-0.3-0.8-0.4-1.4-0.4c-0.6,0-1,0.1-1.2,0.3
		c-0.3,0.2-0.5,0.5-0.6,1l-1.2-0.2c0.1-0.5,0.3-0.9,0.5-1.2c0.2-0.3,0.6-0.5,1-0.7s1-0.2,1.6-0.2c0.6,0,1.1,0.1,1.5,0.2
		s0.6,0.3,0.8,0.5c0.2,0.2,0.3,0.5,0.4,0.8c0,0.2,0.1,0.6,0.1,1.1v1.6c0,1.1,0,1.8,0.1,2.1c0,0.3,0.2,0.6,0.3,0.8h-1.2
		C392.6,29.1,392.6,28.8,392.5,28.5z M392.4,25.8c-0.4,0.2-1.1,0.3-1.9,0.4c-0.5,0.1-0.8,0.2-1,0.2c-0.2,0.1-0.4,0.2-0.5,0.4
		c-0.1,0.2-0.2,0.4-0.2,0.6c0,0.3,0.1,0.6,0.4,0.8c0.2,0.2,0.6,0.3,1.1,0.3c0.5,0,0.9-0.1,1.2-0.3s0.6-0.5,0.8-0.8
		c0.1-0.3,0.2-0.7,0.2-1.2V25.8z"/>
	<path id="XMLID_93_" d="M398.1,28.3l0.2,1c-0.3,0.1-0.6,0.1-0.9,0.1c-0.4,0-0.8-0.1-1-0.2c-0.2-0.1-0.4-0.3-0.5-0.5
		c-0.1-0.2-0.1-0.7-0.1-1.4v-4h-0.9v-0.9h0.9v-1.7l1.2-0.7v2.5h1.2v0.9h-1.2v4.1c0,0.3,0,0.6,0.1,0.7s0.1,0.2,0.2,0.2
		c0.1,0.1,0.2,0.1,0.4,0.1C397.7,28.3,397.8,28.3,398.1,28.3z"/>
	<path id="XMLID_95_" d="M398.8,25.8c0-1.3,0.4-2.3,1.1-2.9c0.6-0.5,1.3-0.8,2.2-0.8c1,0,1.8,0.3,2.4,0.9c0.6,0.6,0.9,1.5,0.9,2.6
		c0,0.9-0.1,1.6-0.4,2.1c-0.3,0.5-0.7,0.9-1.2,1.2s-1.1,0.4-1.7,0.4c-1,0-1.8-0.3-2.4-0.9C399.1,27.9,398.8,27,398.8,25.8z
		 M400,25.8c0,0.9,0.2,1.6,0.6,2c0.4,0.4,0.9,0.7,1.5,0.7c0.6,0,1.1-0.2,1.5-0.7c0.4-0.4,0.6-1.1,0.6-2.1c0-0.9-0.2-1.5-0.6-2
		c-0.4-0.4-0.9-0.7-1.5-0.7c-0.6,0-1.1,0.2-1.5,0.7C400.2,24.3,400,24.9,400,25.8z"/>
	<path id="XMLID_98_" d="M406.3,27.2l1.2-0.2c0.1,0.5,0.2,0.8,0.6,1.1s0.7,0.4,1.3,0.4c0.5,0,1-0.1,1.2-0.3c0.3-0.2,0.4-0.5,0.4-0.8
		c0-0.3-0.1-0.5-0.4-0.6c-0.2-0.1-0.6-0.2-1.2-0.4c-0.9-0.2-1.5-0.4-1.8-0.6c-0.3-0.2-0.6-0.4-0.8-0.7c-0.2-0.3-0.3-0.6-0.3-0.9
		c0-0.3,0.1-0.6,0.2-0.9c0.1-0.3,0.3-0.5,0.6-0.7c0.2-0.1,0.4-0.3,0.8-0.3s0.7-0.1,1-0.1c0.6,0,1,0.1,1.4,0.2
		c0.4,0.2,0.7,0.4,0.9,0.6c0.2,0.3,0.3,0.6,0.4,1.1l-1.2,0.2c-0.1-0.4-0.2-0.6-0.5-0.8c-0.3-0.2-0.6-0.3-1.1-0.3
		c-0.5,0-0.9,0.1-1.2,0.3s-0.4,0.4-0.4,0.6c0,0.2,0,0.3,0.1,0.4c0.1,0.1,0.2,0.2,0.5,0.3c0.1,0,0.5,0.1,1,0.3
		c0.8,0.2,1.4,0.4,1.8,0.6c0.3,0.1,0.6,0.4,0.8,0.6c0.2,0.3,0.3,0.6,0.3,1c0,0.4-0.1,0.8-0.3,1.1c-0.2,0.4-0.6,0.6-1,0.8
		s-0.9,0.3-1.5,0.3c-0.9,0-1.6-0.2-2.1-0.6C406.7,28.5,406.4,28,406.3,27.2z"/>
	<path id="XMLID_100_" d="M420.6,25.9l1.3,0.3c-0.3,1.1-0.8,1.9-1.5,2.4c-0.7,0.6-1.6,0.8-2.6,0.8c-1,0-1.9-0.2-2.5-0.6
		c-0.7-0.4-1.2-1-1.5-1.8c-0.3-0.8-0.5-1.7-0.5-2.6c0-1,0.2-1.9,0.6-2.6c0.4-0.8,0.9-1.3,1.6-1.7s1.5-0.6,2.3-0.6
		c1,0,1.8,0.2,2.4,0.7c0.7,0.5,1.1,1.2,1.4,2.1l-1.3,0.3c-0.2-0.7-0.6-1.2-1-1.5s-1-0.5-1.6-0.5c-0.7,0-1.4,0.2-1.9,0.5
		c-0.5,0.4-0.9,0.8-1.1,1.4c-0.2,0.6-0.3,1.2-0.3,1.9c0,0.8,0.1,1.5,0.4,2.2s0.6,1.1,1.1,1.4c0.5,0.3,1.1,0.5,1.6,0.5
		c0.7,0,1.3-0.2,1.8-0.6C420.1,27.4,420.4,26.8,420.6,25.9z"/>
	<path id="XMLID_102_" d="M423.3,21v-1.4h1.2V21H423.3z M423.3,29.3v-7h1.2v7H423.3z"/>
	<path id="XMLID_105_" d="M428.9,28.3l0.2,1c-0.3,0.1-0.6,0.1-0.9,0.1c-0.4,0-0.8-0.1-1-0.2c-0.2-0.1-0.4-0.3-0.5-0.5
		s-0.1-0.7-0.1-1.4v-4h-0.9v-0.9h0.9v-1.7l1.2-0.7v2.5h1.2v0.9h-1.2v4.1c0,0.3,0,0.6,0.1,0.7s0.1,0.2,0.2,0.2
		c0.1,0.1,0.2,0.1,0.4,0.1C428.5,28.3,428.7,28.3,428.9,28.3z"/>
	<path id="XMLID_107_" d="M434.6,28.5c-0.4,0.4-0.9,0.6-1.3,0.8c-0.4,0.2-0.8,0.2-1.3,0.2c-0.8,0-1.4-0.2-1.8-0.6
		c-0.4-0.4-0.6-0.9-0.6-1.4c0-0.3,0.1-0.7,0.2-0.9c0.2-0.3,0.4-0.5,0.6-0.7s0.5-0.3,0.9-0.4c0.2-0.1,0.6-0.1,1.1-0.2
		c1-0.1,1.7-0.3,2.1-0.4c0-0.2,0-0.3,0-0.3c0-0.5-0.1-0.8-0.3-1c-0.3-0.3-0.8-0.4-1.4-0.4c-0.6,0-1,0.1-1.2,0.3
		c-0.3,0.2-0.5,0.5-0.6,1l-1.2-0.2c0.1-0.5,0.3-0.9,0.5-1.2c0.2-0.3,0.6-0.5,1-0.7s1-0.2,1.6-0.2c0.6,0,1.1,0.1,1.5,0.2
		s0.6,0.3,0.8,0.5c0.2,0.2,0.3,0.5,0.4,0.8c0,0.2,0.1,0.6,0.1,1.1v1.6c0,1.1,0,1.8,0.1,2.1c0,0.3,0.2,0.6,0.3,0.8h-1.2
		C434.7,29.1,434.7,28.8,434.6,28.5z M434.5,25.8c-0.4,0.2-1.1,0.3-1.9,0.4c-0.5,0.1-0.8,0.2-1,0.2c-0.2,0.1-0.4,0.2-0.5,0.4
		c-0.1,0.2-0.2,0.4-0.2,0.6c0,0.3,0.1,0.6,0.4,0.8c0.2,0.2,0.6,0.3,1.1,0.3c0.5,0,0.9-0.1,1.2-0.3s0.6-0.5,0.8-0.8
		c0.1-0.3,0.2-0.7,0.2-1.2V25.8z"/>
	<path id="XMLID_110_" d="M439.8,32.2c-0.7-0.8-1.2-1.8-1.7-2.9s-0.7-2.3-0.7-3.4c0-1,0.2-2.1,0.5-3c0.4-1.1,1-2.2,1.8-3.3h0.9
		c-0.5,0.9-0.9,1.6-1.1,2c-0.3,0.6-0.5,1.2-0.6,1.9c-0.2,0.8-0.3,1.7-0.3,2.5c0,2.1,0.7,4.2,2,6.3H439.8z"/>
	<path id="XMLID_112_" d="M442.8,32.2H442c1.3-2.1,2-4.2,2-6.3c0-0.8-0.1-1.6-0.3-2.5c-0.2-0.7-0.4-1.3-0.6-1.9
		c-0.2-0.4-0.5-1.1-1.1-2h0.9c0.8,1.1,1.4,2.2,1.8,3.3c0.3,1,0.5,2,0.5,3c0,1.2-0.2,2.3-0.7,3.4C444.1,30.4,443.5,31.4,442.8,32.2z"
		/>
</g>
<g id="XMLID_2_">
	<path id="XMLID_3_" d="M485.2,137.6l1.2-0.2c0.1,0.7,0.4,1.2,0.7,1.5s0.7,0.4,1.2,0.4c0.6,0,1-0.2,1.4-0.6c0.4-0.4,0.6-0.9,0.6-1.4
		c0-0.5-0.2-1-0.5-1.4s-0.8-0.5-1.4-0.5c-0.2,0-0.5,0-0.8,0.1l0.1-1c0.1,0,0.1,0,0.2,0c0.5,0,1-0.1,1.4-0.4c0.4-0.3,0.6-0.7,0.6-1.2
		c0-0.4-0.1-0.8-0.4-1.1c-0.3-0.3-0.7-0.4-1.1-0.4c-0.5,0-0.8,0.1-1.2,0.4c-0.3,0.3-0.5,0.7-0.6,1.3l-1.2-0.2c0.1-0.8,0.5-1.4,1-1.9
		c0.5-0.4,1.2-0.7,1.9-0.7c0.5,0,1,0.1,1.5,0.3c0.4,0.2,0.8,0.5,1,0.9c0.2,0.4,0.4,0.8,0.4,1.2c0,0.4-0.1,0.8-0.3,1.1
		c-0.2,0.3-0.6,0.6-1,0.8c0.6,0.1,1,0.4,1.3,0.8c0.3,0.4,0.5,0.9,0.5,1.6c0,0.8-0.3,1.6-0.9,2.1s-1.4,0.9-2.3,0.9
		c-0.8,0-1.6-0.3-2.1-0.8C485.6,139.1,485.3,138.4,485.2,137.6z"/>
	<path id="XMLID_5_" d="M493.4,134.5v-1.4h1.4v1.4H493.4z M493.4,140.2v-1.4h1.4v1.4H493.4z"/>
	<path id="XMLID_8_" d="M505.1,140.2v-0.9c-0.4,0.7-1.1,1-2,1c-0.6,0-1.1-0.2-1.5-0.5c-0.5-0.3-0.8-0.7-1.1-1.3
		c-0.3-0.6-0.4-1.2-0.4-1.9c0-0.7,0.1-1.3,0.4-1.9c0.2-0.6,0.6-1,1-1.3s1-0.5,1.6-0.5c0.4,0,0.8,0.1,1.1,0.3
		c0.3,0.2,0.6,0.4,0.8,0.7v-3.5h1.2v9.7H505.1z M501.4,136.7c0,0.9,0.2,1.6,0.6,2c0.4,0.4,0.8,0.7,1.3,0.7c0.5,0,1-0.2,1.3-0.6
		c0.4-0.4,0.5-1.1,0.5-1.9c0-1-0.2-1.7-0.6-2.1c-0.4-0.4-0.8-0.7-1.4-0.7c-0.5,0-1,0.2-1.3,0.6S501.4,135.7,501.4,136.7z"/>
	<path id="XMLID_11_" d="M508.1,131.9v-1.4h1.2v1.4H508.1z M508.1,140.2v-7h1.2v7H508.1z"/>
	<path id="XMLID_14_" d="M510.6,138.1l1.2-0.2c0.1,0.5,0.2,0.8,0.6,1.1c0.3,0.3,0.7,0.4,1.3,0.4c0.5,0,1-0.1,1.2-0.3
		c0.3-0.2,0.4-0.5,0.4-0.8c0-0.3-0.1-0.5-0.4-0.6c-0.2-0.1-0.6-0.2-1.2-0.4c-0.9-0.2-1.5-0.4-1.8-0.6c-0.3-0.2-0.6-0.4-0.8-0.7
		c-0.2-0.3-0.3-0.6-0.3-0.9c0-0.3,0.1-0.6,0.2-0.9c0.1-0.3,0.3-0.5,0.6-0.7c0.2-0.1,0.4-0.3,0.8-0.3s0.7-0.1,1-0.1
		c0.6,0,1,0.1,1.4,0.2c0.4,0.2,0.7,0.4,0.9,0.6c0.2,0.3,0.3,0.6,0.4,1.1l-1.2,0.2c-0.1-0.4-0.2-0.6-0.5-0.8
		c-0.3-0.2-0.6-0.3-1.1-0.3c-0.5,0-0.9,0.1-1.2,0.3s-0.4,0.4-0.4,0.6c0,0.2,0,0.3,0.1,0.4c0.1,0.1,0.2,0.2,0.5,0.3
		c0.1,0,0.5,0.1,1,0.3c0.8,0.2,1.4,0.4,1.8,0.6c0.3,0.1,0.6,0.4,0.8,0.6c0.2,0.3,0.3,0.6,0.3,1c0,0.4-0.1,0.8-0.3,1.1
		c-0.2,0.4-0.6,0.6-1,0.8s-0.9,0.3-1.5,0.3c-0.9,0-1.6-0.2-2.1-0.6C511.1,139.4,510.7,138.8,510.6,138.1z"/>
	<path id="XMLID_36_" d="M517.9,142.9v-9.7h1.1v0.9c0.3-0.4,0.5-0.6,0.9-0.8c0.3-0.2,0.7-0.3,1.2-0.3c0.6,0,1.1,0.2,1.6,0.5
		s0.8,0.7,1,1.3c0.2,0.6,0.4,1.2,0.4,1.8c0,0.7-0.1,1.4-0.4,1.9c-0.3,0.6-0.6,1-1.1,1.3c-0.5,0.3-1,0.5-1.5,0.5
		c-0.4,0-0.8-0.1-1.1-0.3c-0.3-0.2-0.6-0.4-0.8-0.6v3.4H517.9z M518.9,136.7c0,0.9,0.2,1.6,0.5,2c0.4,0.4,0.8,0.6,1.3,0.6
		c0.5,0,1-0.2,1.4-0.7c0.4-0.4,0.6-1.1,0.6-2.1c0-0.9-0.2-1.6-0.6-2c-0.4-0.4-0.8-0.7-1.3-0.7c-0.5,0-1,0.2-1.3,0.7
		S518.9,135.8,518.9,136.7z"/>
	<path id="XMLID_39_" d="M524.9,136.7c0-1.3,0.4-2.3,1.1-2.9c0.6-0.5,1.3-0.8,2.2-0.8c1,0,1.8,0.3,2.4,0.9s0.9,1.5,0.9,2.6
		c0,0.9-0.1,1.6-0.4,2.1c-0.3,0.5-0.7,0.9-1.2,1.2c-0.5,0.3-1.1,0.4-1.7,0.4c-1,0-1.8-0.3-2.4-0.9S524.9,137.9,524.9,136.7z
		 M526.2,136.7c0,0.9,0.2,1.6,0.6,2c0.4,0.4,0.9,0.7,1.5,0.7c0.6,0,1.1-0.2,1.5-0.7c0.4-0.4,0.6-1.1,0.6-2.1c0-0.9-0.2-1.5-0.6-2
		c-0.4-0.4-0.9-0.7-1.5-0.7c-0.6,0-1.1,0.2-1.5,0.7C526.4,135.1,526.2,135.8,526.2,136.7z"/>
	<path id="XMLID_48_" d="M532.9,140.2v-7h1.1v1c0.5-0.8,1.3-1.2,2.2-1.2c0.4,0,0.8,0.1,1.2,0.2c0.4,0.2,0.6,0.4,0.8,0.6
		c0.2,0.2,0.3,0.5,0.4,0.9c0,0.2,0.1,0.6,0.1,1.2v4.3h-1.2v-4.3c0-0.5,0-0.8-0.1-1.1c-0.1-0.2-0.3-0.4-0.5-0.6
		c-0.2-0.1-0.5-0.2-0.8-0.2c-0.5,0-0.9,0.2-1.3,0.5c-0.4,0.3-0.6,0.9-0.6,1.8v3.8H532.9z"/>
	<path id="XMLID_51_" d="M540.4,131.9v-1.4h1.2v1.4H540.4z M540.4,140.2v-7h1.2v7H540.4z"/>
	<path id="XMLID_54_" d="M544.5,140.2h-1.1v-9.7h1.2v3.5c0.5-0.6,1.1-0.9,1.9-0.9c0.4,0,0.8,0.1,1.2,0.3c0.4,0.2,0.7,0.4,1,0.7
		c0.2,0.3,0.4,0.7,0.6,1.1c0.1,0.4,0.2,0.9,0.2,1.4c0,1.2-0.3,2.1-0.9,2.8c-0.6,0.7-1.3,1-2.1,1c-0.8,0-1.5-0.3-1.9-1V140.2z
		 M544.5,136.6c0,0.8,0.1,1.4,0.3,1.8c0.4,0.6,0.9,0.9,1.5,0.9c0.5,0,1-0.2,1.3-0.7c0.4-0.5,0.6-1.1,0.6-2c0-0.9-0.2-1.6-0.5-2
		s-0.8-0.7-1.3-0.7c-0.5,0-1,0.2-1.3,0.7C544.7,135.1,544.5,135.8,544.5,136.6z"/>
	<path id="XMLID_58_" d="M551,131.9v-1.4h1.2v1.4H551z M551,140.2v-7h1.2v7H551z"/>
	<path id="XMLID_62_" d="M553.9,140.2v-9.7h1.2v9.7H553.9z"/>
	<path id="XMLID_64_" d="M557,131.9v-1.4h1.2v1.4H557z M557,140.2v-7h1.2v7H557z"/>
	<path id="XMLID_67_" d="M564.5,140.2v-0.9c-0.4,0.7-1.1,1-2,1c-0.6,0-1.1-0.2-1.5-0.5c-0.5-0.3-0.8-0.7-1.1-1.3
		c-0.3-0.6-0.4-1.2-0.4-1.9c0-0.7,0.1-1.3,0.3-1.9c0.2-0.6,0.6-1,1-1.3s1-0.5,1.6-0.5c0.4,0,0.8,0.1,1.1,0.3
		c0.3,0.2,0.6,0.4,0.8,0.7v-3.5h1.2v9.7H564.5z M560.8,136.7c0,0.9,0.2,1.6,0.6,2c0.4,0.4,0.8,0.7,1.3,0.7c0.5,0,1-0.2,1.3-0.6
		c0.4-0.4,0.5-1.1,0.5-1.9c0-1-0.2-1.7-0.6-2.1s-0.8-0.7-1.4-0.7c-0.5,0-1,0.2-1.3,0.6S560.8,135.7,560.8,136.7z"/>
	<path id="XMLID_70_" d="M572.1,139.3c-0.4,0.4-0.9,0.6-1.3,0.8s-0.8,0.2-1.3,0.2c-0.8,0-1.4-0.2-1.8-0.6c-0.4-0.4-0.6-0.9-0.6-1.4
		c0-0.3,0.1-0.7,0.2-0.9c0.2-0.3,0.4-0.5,0.6-0.7c0.3-0.2,0.5-0.3,0.9-0.4c0.2-0.1,0.6-0.1,1.1-0.2c1-0.1,1.7-0.3,2.1-0.4
		c0-0.2,0-0.3,0-0.3c0-0.5-0.1-0.8-0.3-1c-0.3-0.3-0.8-0.4-1.4-0.4c-0.6,0-1,0.1-1.2,0.3c-0.3,0.2-0.5,0.5-0.6,1l-1.2-0.2
		c0.1-0.5,0.3-0.9,0.5-1.2c0.2-0.3,0.6-0.5,1-0.7s1-0.2,1.6-0.2c0.6,0,1.1,0.1,1.5,0.2c0.4,0.1,0.6,0.3,0.8,0.5
		c0.2,0.2,0.3,0.5,0.4,0.8c0,0.2,0.1,0.6,0.1,1.1v1.6c0,1.1,0,1.8,0.1,2.1s0.2,0.6,0.3,0.8h-1.2
		C572.2,139.9,572.1,139.6,572.1,139.3z M572,136.7c-0.4,0.2-1.1,0.3-1.9,0.4c-0.5,0.1-0.8,0.2-1,0.2c-0.2,0.1-0.4,0.2-0.5,0.4
		c-0.1,0.2-0.2,0.4-0.2,0.6c0,0.3,0.1,0.6,0.4,0.8c0.2,0.2,0.6,0.3,1.1,0.3c0.5,0,0.9-0.1,1.2-0.3c0.4-0.2,0.6-0.5,0.8-0.8
		c0.1-0.3,0.2-0.7,0.2-1.2V136.7z"/>
	<path id="XMLID_73_" d="M579.6,140.2v-0.9c-0.4,0.7-1.1,1-2,1c-0.6,0-1.1-0.2-1.5-0.5c-0.5-0.3-0.8-0.7-1.1-1.3
		c-0.3-0.6-0.4-1.2-0.4-1.9c0-0.7,0.1-1.3,0.3-1.9c0.2-0.6,0.6-1,1-1.3s1-0.5,1.6-0.5c0.4,0,0.8,0.1,1.1,0.3
		c0.3,0.2,0.6,0.4,0.8,0.7v-3.5h1.2v9.7H579.6z M575.8,136.7c0,0.9,0.2,1.6,0.6,2c0.4,0.4,0.8,0.7,1.3,0.7c0.5,0,1-0.2,1.3-0.6
		c0.4-0.4,0.5-1.1,0.5-1.9c0-1-0.2-1.7-0.6-2.1s-0.8-0.7-1.4-0.7c-0.5,0-1,0.2-1.3,0.6S575.8,135.7,575.8,136.7z"/>
	<path id="XMLID_76_" d="M584.8,143c-0.7-0.8-1.2-1.8-1.7-2.9c-0.5-1.1-0.7-2.3-0.7-3.4c0-1,0.2-2.1,0.5-3c0.4-1.1,1-2.2,1.8-3.3
		h0.9c-0.5,0.9-0.9,1.6-1.1,2c-0.3,0.6-0.5,1.2-0.6,1.9c-0.2,0.8-0.3,1.7-0.3,2.5c0,2.1,0.7,4.2,2,6.3H584.8z"/>
	<path id="XMLID_78_" d="M587.8,143H587c1.3-2.1,2-4.2,2-6.3c0-0.8-0.1-1.6-0.3-2.5c-0.2-0.7-0.4-1.3-0.6-1.9
		c-0.2-0.4-0.5-1.1-1.1-2h0.9c0.8,1.1,1.4,2.2,1.8,3.3c0.3,1,0.5,2,0.5,3c0,1.2-0.2,2.3-0.7,3.4C589,141.2,588.5,142.2,587.8,143z"
		/>
</g>
</svg>
