<?xml version="1.0" encoding="utf-8"?>
<!-- Generator: Adobe Illustrator 19.0.0, SVG Export Plug-In . SVG Version: 6.00 Build 0)  -->
<svg version="1.1" id="Capa_1" xmlns="http://www.w3.org/2000/svg" xmlns:xlink="http://www.w3.org/1999/xlink" x="0px" y="0px"
	 viewBox="0 0 509.8 321.2" style="enable-background:new 0 0 509.8 321.2;" xml:space="preserve">
<style type="text/css">
	.st0{fill:none;stroke:#494949;stroke-width:2;stroke-miterlimit:10;}
	.st1{fill:#494949;}
	.st2{fill:#252527;}
	.st3{fill:none;stroke:#252527;stroke-width:3;stroke-miterlimit:10;}
	.st4{fill:#FFFFFF;stroke:#F29422;stroke-width:2;stroke-miterlimit:10;}
	.st5{fill:#FFFFFF;stroke:#0367A6;stroke-width:2;stroke-miterlimit:10;}
	.st6{fill:#FFFFFF;stroke:#494949;stroke-width:2;stroke-miterlimit:10;}
</style>
<g id="XMLID_2_">
	<polyline id="XMLID_8970_" class="st0" points="46.1,232.3 46.1,265.1 194.4,265.1 194.4,233.6 	"/>
	<g id="XMLID_9000_">
		<line id="XMLID_81_" x1="106.1" y1="85.9" x2="46.1" y2="194.7"/>
		<g id="XMLID_77_">
			<line id="XMLID_80_" class="st0" x1="106.1" y1="85.9" x2="49.5" y2="188.5"/>
			<g id="XMLID_78_">
				<polygon id="XMLID_79_" class="st1" points="46.1,194.7 47.3,184.1 49.7,188.1 54.4,188 				"/>
			</g>
		</g>
	</g>
	<g id="XMLID_8961_">
		<line id="XMLID_75_" x1="132.1" y1="85.9" x2="192.2" y2="194.7"/>
		<g id="XMLID_71_">
			<line id="XMLID_74_" class="st0" x1="132.1" y1="85.9" x2="188.7" y2="188.5"/>
			<g id="XMLID_72_">
				<polygon id="XMLID_73_" class="st1" points="192.2,194.7 183.8,188 188.5,188.1 190.9,184.1 				"/>
			</g>
		</g>
	</g>
	<g id="XMLID_8993_">
		<line id="XMLID_69_" x1="120.2" y1="265.9" x2="120.2" y2="291.1"/>
		<g id="XMLID_65_">
			<line id="XMLID_68_" class="st0" x1="120.2" y1="265.9" x2="120.2" y2="284.1"/>
			<g id="XMLID_66_">
				<polygon id="XMLID_67_" class="st1" points="120.2,291.1 116.2,281.2 120.2,283.6 124.3,281.2 				"/>
			</g>
		</g>
	</g>
	<g id="XMLID_8989_">
		<circle id="XMLID_8990_" class="st2" cx="120.2" cy="10.8" r="10.8"/>
	</g>
	<g id="XMLID_8982_">
		<circle id="XMLID_8986_" class="st2" cx="120.2" cy="306.1" r="10.8"/>
		<circle id="XMLID_8983_" class="st3" cx="120.2" cy="306.1" r="13.6"/>
	</g>
	<path id="XMLID_8981_" class="st4" d="M152.6,85.6H87.9c-7.9,0-14.3-6.4-14.3-14.3V61c0-7.9,6.4-14.3,14.3-14.3h64.7
		c7.9,0,14.3,6.4,14.3,14.3v10.3C166.9,79.1,160.5,85.6,152.6,85.6z"/>
	<g id="XMLID_327_">
		<path id="XMLID_328_" d="M94.7,70.9v-8.6h3c0.7,0,1.2,0,1.5,0.1c0.5,0.1,0.9,0.3,1.3,0.6c0.5,0.4,0.8,0.9,1,1.5s0.3,1.3,0.3,2
			c0,0.7-0.1,1.2-0.2,1.7s-0.3,0.9-0.6,1.3s-0.5,0.6-0.8,0.8s-0.6,0.3-1,0.4s-0.9,0.1-1.4,0.1H94.7z M95.9,69.9h1.8
			c0.6,0,1-0.1,1.3-0.2s0.6-0.3,0.8-0.4c0.3-0.3,0.5-0.6,0.6-1.1s0.2-1,0.2-1.7c0-0.9-0.1-1.6-0.4-2.1s-0.7-0.8-1.1-1
			c-0.3-0.1-0.8-0.2-1.5-0.2h-1.8V69.9z"/>
		<path id="XMLID_331_" d="M107.5,68.9l1.1,0.1c-0.2,0.6-0.5,1.1-1,1.5s-1.1,0.5-1.8,0.5c-0.9,0-1.6-0.3-2.2-0.8s-0.8-1.3-0.8-2.4
			c0-1,0.3-1.9,0.8-2.4s1.2-0.9,2.1-0.9c0.8,0,1.5,0.3,2,0.8s0.8,1.4,0.8,2.4c0,0.1,0,0.2,0,0.3H104c0,0.7,0.2,1.2,0.6,1.6
			s0.8,0.5,1.3,0.5c0.4,0,0.7-0.1,1-0.3S107.4,69.4,107.5,68.9z M104.1,67.2h3.5c0-0.5-0.2-0.9-0.4-1.2c-0.3-0.4-0.8-0.6-1.3-0.6
			c-0.5,0-0.9,0.2-1.2,0.5S104.1,66.7,104.1,67.2z"/>
		<path id="XMLID_334_" d="M109.5,69.1l1-0.2c0.1,0.4,0.2,0.7,0.5,1s0.6,0.3,1.1,0.3c0.5,0,0.8-0.1,1.1-0.3s0.4-0.4,0.4-0.7
			c0-0.2-0.1-0.4-0.3-0.6c-0.1-0.1-0.5-0.2-1.1-0.4c-0.8-0.2-1.3-0.4-1.6-0.5s-0.5-0.3-0.7-0.6s-0.2-0.5-0.2-0.8
			c0-0.3,0.1-0.5,0.2-0.8s0.3-0.4,0.5-0.6c0.2-0.1,0.4-0.2,0.7-0.3s0.6-0.1,0.9-0.1c0.5,0,0.9,0.1,1.3,0.2s0.6,0.3,0.8,0.6
			s0.3,0.6,0.4,1l-1,0.1c0-0.3-0.2-0.6-0.4-0.8s-0.5-0.3-1-0.3c-0.5,0-0.8,0.1-1,0.2s-0.3,0.3-0.3,0.6c0,0.1,0,0.3,0.1,0.4
			c0.1,0.1,0.2,0.2,0.4,0.3c0.1,0,0.4,0.1,0.9,0.3c0.7,0.2,1.3,0.4,1.6,0.5s0.5,0.3,0.7,0.6s0.3,0.5,0.3,0.9c0,0.4-0.1,0.7-0.3,1
			s-0.5,0.6-0.9,0.7s-0.8,0.3-1.3,0.3c-0.8,0-1.4-0.2-1.8-0.5S109.6,69.7,109.5,69.1z"/>
		<path id="XMLID_336_" d="M115.9,73.3v-8.6h1v0.8c0.2-0.3,0.5-0.6,0.8-0.7s0.6-0.2,1-0.2c0.5,0,1,0.1,1.4,0.4s0.7,0.7,0.9,1.2
			s0.3,1,0.3,1.6c0,0.6-0.1,1.2-0.3,1.7s-0.6,0.9-1,1.2s-0.9,0.4-1.4,0.4c-0.4,0-0.7-0.1-0.9-0.2s-0.5-0.3-0.7-0.6v3H115.9z
			 M116.9,67.9c0,0.8,0.2,1.4,0.5,1.8s0.7,0.6,1.2,0.6c0.5,0,0.9-0.2,1.2-0.6s0.5-1,0.5-1.8c0-0.8-0.2-1.4-0.5-1.8s-0.7-0.6-1.2-0.6
			c-0.4,0-0.8,0.2-1.2,0.6S116.9,67.1,116.9,67.9z"/>
		<path id="XMLID_339_" d="M126.9,68.9l1.1,0.1c-0.2,0.6-0.5,1.1-1,1.5s-1.1,0.5-1.8,0.5c-0.9,0-1.6-0.3-2.2-0.8s-0.8-1.3-0.8-2.4
			c0-1,0.3-1.9,0.8-2.4s1.2-0.9,2.1-0.9c0.8,0,1.5,0.3,2,0.8s0.8,1.4,0.8,2.4c0,0.1,0,0.2,0,0.3h-4.6c0,0.7,0.2,1.2,0.6,1.6
			s0.8,0.5,1.3,0.5c0.4,0,0.7-0.1,1-0.3S126.7,69.4,126.9,68.9z M123.4,67.2h3.5c0-0.5-0.2-0.9-0.4-1.2c-0.3-0.4-0.8-0.6-1.3-0.6
			c-0.5,0-0.9,0.2-1.2,0.5S123.4,66.7,123.4,67.2z"/>
		<path id="XMLID_342_" d="M129.3,70.9v-6.2h0.9v0.9c0.2-0.4,0.5-0.7,0.7-0.9s0.4-0.2,0.7-0.2c0.4,0,0.7,0.1,1.1,0.3l-0.4,1
			c-0.3-0.2-0.5-0.2-0.8-0.2c-0.2,0-0.4,0.1-0.6,0.2s-0.3,0.3-0.4,0.6c-0.1,0.4-0.2,0.8-0.2,1.2v3.3H129.3z"/>
		<path id="XMLID_344_" d="M135.6,70l0.2,0.9c-0.3,0.1-0.6,0.1-0.8,0.1c-0.4,0-0.7-0.1-0.9-0.2s-0.4-0.3-0.4-0.5s-0.1-0.6-0.1-1.2
			v-3.6h-0.8v-0.8h0.8v-1.5l1-0.6v2.2h1.1v0.8h-1.1v3.6c0,0.3,0,0.5,0.1,0.6s0.1,0.2,0.2,0.2s0.2,0.1,0.4,0.1
			C135.2,70,135.4,70,135.6,70z"/>
		<path id="XMLID_346_" d="M140.7,70.2c-0.4,0.3-0.8,0.6-1.1,0.7s-0.7,0.2-1.2,0.2c-0.7,0-1.2-0.2-1.6-0.5s-0.6-0.8-0.6-1.3
			c0-0.3,0.1-0.6,0.2-0.8s0.3-0.5,0.5-0.6s0.5-0.3,0.8-0.3c0.2-0.1,0.5-0.1,0.9-0.2c0.9-0.1,1.5-0.2,1.9-0.4c0-0.1,0-0.2,0-0.3
			c0-0.4-0.1-0.7-0.3-0.9c-0.3-0.2-0.7-0.4-1.2-0.4c-0.5,0-0.9,0.1-1.1,0.3s-0.4,0.5-0.5,0.9l-1-0.1c0.1-0.4,0.2-0.8,0.5-1.1
			s0.5-0.5,0.9-0.6s0.9-0.2,1.4-0.2c0.5,0,1,0.1,1.3,0.2s0.6,0.3,0.7,0.5s0.3,0.4,0.3,0.7c0,0.2,0.1,0.5,0.1,1v1.4
			c0,1,0,1.6,0.1,1.9s0.1,0.5,0.3,0.7h-1.1C140.8,70.7,140.7,70.5,140.7,70.2z M140.6,67.8c-0.4,0.2-1,0.3-1.7,0.4
			c-0.4,0.1-0.7,0.1-0.9,0.2s-0.3,0.2-0.4,0.3s-0.1,0.3-0.1,0.5c0,0.3,0.1,0.5,0.3,0.7s0.5,0.3,0.9,0.3c0.4,0,0.8-0.1,1.1-0.3
			s0.5-0.4,0.7-0.7c0.1-0.2,0.2-0.6,0.2-1.1V67.8z"/>
		<path id="XMLID_349_" d="M143.3,70.9v-6.2h0.9v0.9c0.2-0.4,0.5-0.7,0.7-0.9s0.4-0.2,0.7-0.2c0.4,0,0.7,0.1,1.1,0.3l-0.4,1
			c-0.3-0.2-0.5-0.2-0.8-0.2c-0.2,0-0.4,0.1-0.6,0.2s-0.3,0.3-0.4,0.6c-0.1,0.4-0.2,0.8-0.2,1.2v3.3H143.3z"/>
	</g>
	<g id="XMLID_8944_">
		<path id="XMLID_8980_" class="st5" d="M80,233.6H15.3c-7.9,0-14.3-6.4-14.3-14.3V209c0-7.9,6.4-14.3,14.3-14.3H80
			c7.9,0,14.3,6.4,14.3,14.3v10.3C94.3,227.2,87.9,233.6,80,233.6z"/>
		<g id="XMLID_304_">
			<path id="XMLID_305_" d="M19.6,218.5v-8.6h3c0.7,0,1.2,0,1.5,0.1c0.5,0.1,0.9,0.3,1.3,0.6c0.5,0.4,0.8,0.9,1,1.5s0.3,1.3,0.3,2
				c0,0.7-0.1,1.2-0.2,1.7s-0.3,0.9-0.6,1.3s-0.5,0.6-0.8,0.8s-0.6,0.3-1,0.4s-0.9,0.1-1.4,0.1H19.6z M20.7,217.5h1.8
				c0.6,0,1-0.1,1.3-0.2s0.6-0.3,0.8-0.4c0.3-0.3,0.5-0.6,0.6-1.1s0.2-1,0.2-1.7c0-0.9-0.1-1.6-0.4-2.1s-0.7-0.8-1.1-1
				c-0.3-0.1-0.8-0.2-1.5-0.2h-1.8V217.5z"/>
			<path id="XMLID_308_" d="M32.4,216.5l1.1,0.1c-0.2,0.6-0.5,1.1-1,1.5s-1.1,0.5-1.8,0.5c-0.9,0-1.6-0.3-2.2-0.8s-0.8-1.3-0.8-2.4
				c0-1,0.3-1.9,0.8-2.4s1.2-0.9,2.1-0.9c0.8,0,1.5,0.3,2,0.8s0.8,1.4,0.8,2.4c0,0.1,0,0.2,0,0.3h-4.6c0,0.7,0.2,1.2,0.6,1.6
				s0.8,0.5,1.3,0.5c0.4,0,0.7-0.1,1-0.3C32,217.3,32.2,216.9,32.4,216.5z M28.9,214.8h3.5c0-0.5-0.2-0.9-0.4-1.2
				c-0.3-0.4-0.8-0.6-1.3-0.6c-0.5,0-0.9,0.2-1.2,0.5S28.9,214.2,28.9,214.8z"/>
			<path id="XMLID_311_" d="M34.4,216.6l1-0.2c0.1,0.4,0.2,0.7,0.5,1s0.6,0.3,1.1,0.3c0.5,0,0.8-0.1,1.1-0.3s0.4-0.4,0.4-0.7
				c0-0.2-0.1-0.4-0.3-0.6c-0.1-0.1-0.5-0.2-1.1-0.4c-0.8-0.2-1.3-0.4-1.6-0.5s-0.5-0.3-0.7-0.6s-0.2-0.5-0.2-0.8
				c0-0.3,0.1-0.5,0.2-0.8s0.3-0.4,0.5-0.6c0.2-0.1,0.4-0.2,0.7-0.3s0.6-0.1,0.9-0.1c0.5,0,0.9,0.1,1.3,0.2s0.6,0.3,0.8,0.6
				s0.3,0.6,0.4,1l-1,0.1c0-0.3-0.2-0.6-0.4-0.8s-0.5-0.3-1-0.3c-0.5,0-0.8,0.1-1,0.2s-0.3,0.3-0.3,0.6c0,0.1,0,0.3,0.1,0.4
				c0.1,0.1,0.2,0.2,0.4,0.3c0.1,0,0.4,0.1,0.9,0.3c0.7,0.2,1.3,0.4,1.6,0.5s0.5,0.3,0.7,0.6s0.3,0.5,0.3,0.9c0,0.4-0.1,0.7-0.3,1
				s-0.5,0.6-0.9,0.7s-0.8,0.3-1.3,0.3c-0.8,0-1.4-0.2-1.8-0.5S34.5,217.3,34.4,216.6z"/>
			<path id="XMLID_313_" d="M44.9,217.7c-0.4,0.3-0.8,0.6-1.1,0.7s-0.7,0.2-1.2,0.2c-0.7,0-1.2-0.2-1.6-0.5s-0.6-0.8-0.6-1.3
				c0-0.3,0.1-0.6,0.2-0.8s0.3-0.5,0.5-0.6s0.5-0.3,0.8-0.3c0.2-0.1,0.5-0.1,0.9-0.2c0.9-0.1,1.5-0.2,1.9-0.4c0-0.1,0-0.2,0-0.3
				c0-0.4-0.1-0.7-0.3-0.9c-0.3-0.2-0.7-0.4-1.2-0.4c-0.5,0-0.9,0.1-1.1,0.3s-0.4,0.5-0.5,0.9l-1-0.1c0.1-0.4,0.2-0.8,0.5-1.1
				s0.5-0.5,0.9-0.6s0.9-0.2,1.4-0.2c0.5,0,1,0.1,1.3,0.2s0.6,0.3,0.7,0.5s0.3,0.4,0.3,0.7c0,0.2,0.1,0.5,0.1,1v1.4
				c0,1,0,1.6,0.1,1.9s0.1,0.5,0.3,0.7h-1.1C45,218.3,44.9,218,44.9,217.7z M44.8,215.4c-0.4,0.2-1,0.3-1.7,0.4
				c-0.4,0.1-0.7,0.1-0.9,0.2s-0.3,0.2-0.4,0.3s-0.1,0.3-0.1,0.5c0,0.3,0.1,0.5,0.3,0.7s0.5,0.3,0.9,0.3c0.4,0,0.8-0.1,1.1-0.3
				s0.5-0.4,0.7-0.7c0.1-0.2,0.2-0.6,0.2-1.1V215.4z"/>
			<path id="XMLID_316_" d="M47.4,220.9l-0.1-1c0.2,0.1,0.4,0.1,0.6,0.1c0.2,0,0.4,0,0.6-0.1s0.3-0.2,0.3-0.3
				c0.1-0.1,0.2-0.4,0.3-0.8c0-0.1,0.1-0.1,0.1-0.3l-2.4-6.2H48l1.3,3.6c0.2,0.5,0.3,0.9,0.5,1.4c0.1-0.5,0.3-1,0.4-1.4l1.3-3.6h1.1
				l-2.4,6.3c-0.3,0.7-0.5,1.2-0.6,1.4c-0.2,0.3-0.4,0.6-0.6,0.8s-0.5,0.2-0.9,0.2C47.9,221,47.7,221,47.4,220.9z"/>
			<path id="XMLID_318_" d="M57.5,218.5v-0.9c-0.5,0.7-1.1,1.1-2,1.1c-0.4,0-0.7-0.1-1-0.2s-0.6-0.3-0.7-0.5s-0.3-0.5-0.3-0.8
				c0-0.2-0.1-0.5-0.1-1v-3.9h1.1v3.5c0,0.6,0,0.9,0.1,1.1c0.1,0.3,0.2,0.5,0.4,0.7s0.5,0.2,0.8,0.2s0.6-0.1,0.9-0.2
				s0.5-0.4,0.6-0.7s0.2-0.7,0.2-1.2v-3.3h1.1v6.2H57.5z"/>
			<path id="XMLID_320_" d="M60.1,218.5v-6.2h0.9v0.9c0.5-0.7,1.1-1,2-1c0.4,0,0.7,0.1,1,0.2s0.5,0.3,0.7,0.5s0.3,0.5,0.3,0.8
				c0,0.2,0.1,0.5,0.1,1v3.8h-1.1v-3.8c0-0.4,0-0.8-0.1-1s-0.2-0.4-0.4-0.5s-0.5-0.2-0.7-0.2c-0.4,0-0.8,0.1-1.2,0.4
				s-0.5,0.8-0.5,1.6v3.4H60.1z"/>
			<path id="XMLID_322_" d="M70.9,217.7c-0.4,0.3-0.8,0.6-1.1,0.7s-0.7,0.2-1.2,0.2c-0.7,0-1.2-0.2-1.6-0.5s-0.6-0.8-0.6-1.3
				c0-0.3,0.1-0.6,0.2-0.8s0.3-0.5,0.5-0.6s0.5-0.3,0.8-0.3c0.2-0.1,0.5-0.1,0.9-0.2c0.9-0.1,1.5-0.2,1.9-0.4c0-0.1,0-0.2,0-0.3
				c0-0.4-0.1-0.7-0.3-0.9c-0.3-0.2-0.7-0.4-1.2-0.4c-0.5,0-0.9,0.1-1.1,0.3s-0.4,0.5-0.5,0.9l-1-0.1c0.1-0.4,0.2-0.8,0.5-1.1
				s0.5-0.5,0.9-0.6s0.9-0.2,1.4-0.2c0.5,0,1,0.1,1.3,0.2s0.6,0.3,0.7,0.5s0.3,0.4,0.3,0.7c0,0.2,0.1,0.5,0.1,1v1.4
				c0,1,0,1.6,0.1,1.9s0.1,0.5,0.3,0.7h-1.1C71,218.3,70.9,218,70.9,217.7z M70.8,215.4c-0.4,0.2-1,0.3-1.7,0.4
				c-0.4,0.1-0.7,0.1-0.9,0.2s-0.3,0.2-0.4,0.3s-0.1,0.3-0.1,0.5c0,0.3,0.1,0.5,0.3,0.7s0.5,0.3,0.9,0.3c0.4,0,0.8-0.1,1.1-0.3
				s0.5-0.4,0.7-0.7c0.1-0.2,0.2-0.6,0.2-1.1V215.4z"/>
			<path id="XMLID_325_" d="M73.5,218.5v-6.2h0.9v0.9c0.2-0.4,0.5-0.7,0.7-0.9s0.4-0.2,0.7-0.2c0.4,0,0.7,0.1,1.1,0.3l-0.4,1
				c-0.3-0.2-0.5-0.2-0.8-0.2c-0.2,0-0.4,0.1-0.6,0.2s-0.3,0.3-0.4,0.6c-0.1,0.4-0.2,0.8-0.2,1.2v3.3H73.5z"/>
		</g>
		<path id="XMLID_8959_" class="st5" d="M225.2,233.6h-64.7c-7.9,0-14.3-6.4-14.3-14.3V209c0-7.9,6.4-14.3,14.3-14.3h64.7
			c7.9,0,14.3,6.4,14.3,14.3v10.3C239.5,227.2,233,233.6,225.2,233.6z"/>
		<g id="XMLID_271_">
			<path id="XMLID_272_" d="M155.8,218.5l-3.3-8.6h1.2l2.2,6.2c0.2,0.5,0.3,1,0.5,1.4c0.1-0.5,0.3-0.9,0.5-1.4l2.3-6.2h1.2l-3.4,8.6
				H155.8z"/>
			<path id="XMLID_274_" d="M160.2,215.4c0-1.2,0.3-2,1-2.6c0.5-0.5,1.2-0.7,2-0.7c0.9,0,1.6,0.3,2.1,0.8s0.8,1.3,0.8,2.3
				c0,0.8-0.1,1.4-0.4,1.9s-0.6,0.8-1,1.1s-1,0.4-1.5,0.4c-0.9,0-1.6-0.3-2.1-0.8S160.2,216.4,160.2,215.4z M161.3,215.4
				c0,0.8,0.2,1.4,0.5,1.8s0.8,0.6,1.3,0.6c0.5,0,1-0.2,1.3-0.6s0.5-1,0.5-1.8c0-0.8-0.2-1.4-0.5-1.7s-0.8-0.6-1.3-0.6
				c-0.5,0-1,0.2-1.3,0.6S161.3,214.6,161.3,215.4z"/>
			<path id="XMLID_277_" d="M167.2,218.5v-8.6h1.1v8.6H167.2z"/>
			<path id="XMLID_279_" d="M171.7,218.5l-2.4-6.2h1.1l1.3,3.7c0.1,0.4,0.3,0.8,0.4,1.3c0.1-0.3,0.2-0.7,0.4-1.2l1.4-3.8h1.1
				l-2.4,6.2H171.7z"/>
			<path id="XMLID_281_" d="M180.2,216.5l1.1,0.1c-0.2,0.6-0.5,1.1-1,1.5s-1.1,0.5-1.8,0.5c-0.9,0-1.6-0.3-2.2-0.8s-0.8-1.3-0.8-2.4
				c0-1,0.3-1.9,0.8-2.4s1.2-0.9,2.1-0.9c0.8,0,1.5,0.3,2,0.8s0.8,1.4,0.8,2.4c0,0.1,0,0.2,0,0.3h-4.6c0,0.7,0.2,1.2,0.6,1.6
				s0.8,0.5,1.3,0.5c0.4,0,0.7-0.1,1-0.3S180,216.9,180.2,216.5z M176.7,214.8h3.5c0-0.5-0.2-0.9-0.4-1.2c-0.3-0.4-0.8-0.6-1.3-0.6
				c-0.5,0-0.9,0.2-1.2,0.5S176.8,214.2,176.7,214.8z"/>
			<path id="XMLID_284_" d="M182.6,218.5v-6.2h0.9v0.9c0.2-0.4,0.5-0.7,0.7-0.9s0.4-0.2,0.7-0.2c0.4,0,0.7,0.1,1.1,0.3l-0.4,1
				c-0.3-0.2-0.5-0.2-0.8-0.2c-0.2,0-0.4,0.1-0.6,0.2s-0.3,0.3-0.4,0.6c-0.1,0.4-0.2,0.8-0.2,1.2v3.3H182.6z"/>
			<path id="XMLID_286_" d="M194,217.7c-0.4,0.3-0.8,0.6-1.1,0.7s-0.7,0.2-1.2,0.2c-0.7,0-1.2-0.2-1.6-0.5s-0.6-0.8-0.6-1.3
				c0-0.3,0.1-0.6,0.2-0.8s0.3-0.5,0.5-0.6s0.5-0.3,0.8-0.3c0.2-0.1,0.5-0.1,0.9-0.2c0.9-0.1,1.5-0.2,1.9-0.4c0-0.1,0-0.2,0-0.3
				c0-0.4-0.1-0.7-0.3-0.9c-0.3-0.2-0.7-0.4-1.2-0.4c-0.5,0-0.9,0.1-1.1,0.3s-0.4,0.5-0.5,0.9l-1-0.1c0.1-0.4,0.2-0.8,0.5-1.1
				s0.5-0.5,0.9-0.6s0.9-0.2,1.4-0.2c0.5,0,1,0.1,1.3,0.2s0.6,0.3,0.7,0.5s0.3,0.4,0.3,0.7c0,0.2,0.1,0.5,0.1,1v1.4
				c0,1,0,1.6,0.1,1.9s0.1,0.5,0.3,0.7h-1.1C194.1,218.3,194,218,194,217.7z M193.9,215.4c-0.4,0.2-1,0.3-1.7,0.4
				c-0.4,0.1-0.7,0.1-0.9,0.2s-0.3,0.2-0.4,0.3s-0.1,0.3-0.1,0.5c0,0.3,0.1,0.5,0.3,0.7s0.5,0.3,0.9,0.3c0.4,0,0.8-0.1,1.1-0.3
				s0.5-0.4,0.7-0.7c0.1-0.2,0.2-0.6,0.2-1.1V215.4z"/>
			<path id="XMLID_289_" d="M204,218.5v-0.8c-0.4,0.6-1,0.9-1.7,0.9c-0.5,0-1-0.1-1.4-0.4s-0.7-0.7-1-1.1s-0.3-1.1-0.3-1.7
				c0-0.6,0.1-1.2,0.3-1.7s0.5-0.9,0.9-1.2s0.9-0.4,1.4-0.4c0.4,0,0.7,0.1,1,0.2s0.5,0.4,0.7,0.6v-3.1h1v8.6H204z M200.6,215.4
				c0,0.8,0.2,1.4,0.5,1.8s0.7,0.6,1.2,0.6c0.5,0,0.9-0.2,1.2-0.6s0.5-1,0.5-1.7c0-0.9-0.2-1.5-0.5-1.9s-0.7-0.6-1.2-0.6
				c-0.5,0-0.9,0.2-1.2,0.6S200.6,214.6,200.6,215.4z"/>
			<path id="XMLID_292_" d="M206.2,215.4c0-1.2,0.3-2,1-2.6c0.5-0.5,1.2-0.7,2-0.7c0.9,0,1.6,0.3,2.1,0.8s0.8,1.3,0.8,2.3
				c0,0.8-0.1,1.4-0.4,1.9s-0.6,0.8-1,1.1s-1,0.4-1.5,0.4c-0.9,0-1.6-0.3-2.1-0.8S206.2,216.4,206.2,215.4z M207.3,215.4
				c0,0.8,0.2,1.4,0.5,1.8s0.8,0.6,1.3,0.6c0.5,0,1-0.2,1.3-0.6s0.5-1,0.5-1.8c0-0.8-0.2-1.4-0.5-1.7s-0.8-0.6-1.3-0.6
				c-0.5,0-1,0.2-1.3,0.6S207.3,214.6,207.3,215.4z"/>
			<path id="XMLID_295_" d="M213.3,218.5v-6.2h0.9v0.9c0.2-0.4,0.5-0.7,0.7-0.9s0.4-0.2,0.7-0.2c0.4,0,0.7,0.1,1.1,0.3l-0.4,1
				c-0.3-0.2-0.5-0.2-0.8-0.2c-0.2,0-0.4,0.1-0.6,0.2s-0.3,0.3-0.4,0.6c-0.1,0.4-0.2,0.8-0.2,1.2v3.3H213.3z"/>
			<path id="XMLID_297_" d="M217.3,218.5v-6.2h0.9v0.9c0.2-0.3,0.5-0.5,0.8-0.7s0.7-0.3,1.1-0.3c0.5,0,0.8,0.1,1.1,0.3
				s0.5,0.5,0.6,0.8c0.5-0.7,1.1-1.1,1.9-1.1c0.6,0,1.1,0.2,1.4,0.5s0.5,0.9,0.5,1.6v4.3h-1v-3.9c0-0.4,0-0.7-0.1-0.9
				s-0.2-0.3-0.4-0.4s-0.4-0.2-0.6-0.2c-0.4,0-0.8,0.1-1.1,0.4s-0.4,0.8-0.4,1.4v3.6H221v-4c0-0.5-0.1-0.8-0.3-1.1s-0.5-0.4-0.8-0.4
				c-0.3,0-0.6,0.1-0.8,0.2s-0.4,0.4-0.5,0.7s-0.2,0.7-0.2,1.3v3.2H217.3z"/>
			<path id="XMLID_299_" d="M227.3,211.1v-1.2h1.1v1.2H227.3z M227.3,218.5v-6.2h1.1v6.2H227.3z"/>
			<path id="XMLID_302_" d="M229.9,218.5v-6.2h0.9v0.9c0.2-0.4,0.5-0.7,0.7-0.9s0.4-0.2,0.7-0.2c0.4,0,0.7,0.1,1.1,0.3l-0.4,1
				c-0.3-0.2-0.5-0.2-0.8-0.2c-0.2,0-0.4,0.1-0.6,0.2s-0.3,0.3-0.4,0.6c-0.1,0.4-0.2,0.8-0.2,1.2v3.3H229.9z"/>
		</g>
	</g>
	<g id="XMLID_8971_">
		<line id="XMLID_57_" x1="120.2" y1="21.5" x2="120.2" y2="46.7"/>
		<g id="XMLID_53_">
			<line id="XMLID_56_" class="st0" x1="120.2" y1="21.5" x2="120.2" y2="39.6"/>
			<g id="XMLID_54_">
				<polygon id="XMLID_55_" class="st1" points="120.2,46.7 116.2,36.7 120.2,39.1 124.3,36.7 				"/>
			</g>
		</g>
	</g>
	<g id="XMLID_241_">
		<path id="XMLID_242_" d="M6,152.1V143h1.9v0.7H6.9v7.7h1.1v0.7H6z"/>
		<path id="XMLID_244_" d="M8.8,150.1V143h0.9v2.6c0.4-0.5,0.9-0.7,1.6-0.7c0.4,0,0.7,0.1,1,0.2c0.3,0.2,0.5,0.4,0.6,0.6
			c0.1,0.3,0.2,0.7,0.2,1.2v3.3h-0.9v-3.3c0-0.4-0.1-0.8-0.3-1c-0.2-0.2-0.5-0.3-0.8-0.3c-0.3,0-0.5,0.1-0.7,0.2
			c-0.2,0.1-0.4,0.3-0.5,0.5s-0.1,0.5-0.1,1v2.8H8.8z"/>
		<path id="XMLID_246_" d="M17.7,149.5c-0.3,0.3-0.6,0.5-0.9,0.6c-0.3,0.1-0.6,0.2-1,0.2c-0.6,0-1-0.1-1.3-0.4
			c-0.3-0.3-0.5-0.6-0.5-1.1c0-0.3,0.1-0.5,0.2-0.7c0.1-0.2,0.3-0.4,0.5-0.5c0.2-0.1,0.4-0.2,0.6-0.3c0.2,0,0.4-0.1,0.8-0.1
			c0.7-0.1,1.2-0.2,1.6-0.3c0-0.1,0-0.2,0-0.2c0-0.4-0.1-0.6-0.2-0.8c-0.2-0.2-0.6-0.3-1-0.3c-0.4,0-0.7,0.1-0.9,0.2
			c-0.2,0.1-0.3,0.4-0.4,0.8l-0.9-0.1c0.1-0.4,0.2-0.7,0.4-0.9c0.2-0.2,0.4-0.4,0.8-0.5c0.3-0.1,0.7-0.2,1.2-0.2
			c0.4,0,0.8,0.1,1.1,0.2s0.5,0.2,0.6,0.4c0.1,0.2,0.2,0.4,0.3,0.6c0,0.1,0,0.4,0,0.8v1.2c0,0.8,0,1.3,0.1,1.5
			c0,0.2,0.1,0.4,0.2,0.6h-0.9C17.8,149.9,17.7,149.7,17.7,149.5z M17.6,147.5c-0.3,0.1-0.8,0.2-1.4,0.3c-0.4,0.1-0.6,0.1-0.8,0.2
			s-0.3,0.2-0.3,0.3c-0.1,0.1-0.1,0.3-0.1,0.4c0,0.2,0.1,0.4,0.3,0.6c0.2,0.2,0.4,0.2,0.8,0.2c0.3,0,0.6-0.1,0.9-0.2
			c0.3-0.1,0.5-0.4,0.6-0.6c0.1-0.2,0.1-0.5,0.1-0.9V147.5z"/>
		<path id="XMLID_249_" d="M19.9,150.1v-5.2h0.8v0.7c0.2-0.3,0.4-0.5,0.6-0.6c0.3-0.2,0.6-0.2,0.9-0.2c0.4,0,0.7,0.1,0.9,0.2
			c0.2,0.2,0.4,0.4,0.5,0.7c0.4-0.6,0.9-0.9,1.6-0.9c0.5,0,0.9,0.1,1.2,0.4c0.3,0.3,0.4,0.7,0.4,1.3v3.6H26v-3.3
			c0-0.4,0-0.6-0.1-0.8c-0.1-0.2-0.2-0.3-0.3-0.4s-0.3-0.1-0.5-0.1c-0.4,0-0.7,0.1-0.9,0.4c-0.2,0.2-0.4,0.6-0.4,1.2v3H23v-3.4
			c0-0.4-0.1-0.7-0.2-0.9s-0.4-0.3-0.7-0.3c-0.2,0-0.5,0.1-0.7,0.2c-0.2,0.1-0.4,0.3-0.5,0.6s-0.1,0.6-0.1,1.1v2.7H19.9z"/>
		<path id="XMLID_251_" d="M29,150.1h-0.8V143h0.9v2.6c0.4-0.5,0.8-0.7,1.4-0.7c0.3,0,0.6,0.1,0.9,0.2c0.3,0.1,0.5,0.3,0.7,0.5
			c0.2,0.2,0.3,0.5,0.4,0.8s0.2,0.7,0.2,1.1c0,0.9-0.2,1.6-0.7,2.1c-0.4,0.5-1,0.7-1.6,0.7c-0.6,0-1.1-0.3-1.4-0.8V150.1z M29,147.5
			c0,0.6,0.1,1.1,0.3,1.3c0.3,0.5,0.7,0.7,1.1,0.7c0.4,0,0.7-0.2,1-0.5c0.3-0.3,0.4-0.8,0.4-1.5c0-0.7-0.1-1.2-0.4-1.5
			c-0.3-0.3-0.6-0.5-1-0.5c-0.4,0-0.7,0.2-1,0.5C29.2,146.4,29,146.8,29,147.5z"/>
		<path id="XMLID_254_" d="M33.8,150.1v-5.2h0.8v0.8c0.2-0.4,0.4-0.6,0.6-0.7c0.2-0.1,0.4-0.2,0.6-0.2c0.3,0,0.6,0.1,0.9,0.3
			l-0.3,0.8c-0.2-0.1-0.4-0.2-0.6-0.2c-0.2,0-0.4,0.1-0.5,0.2c-0.2,0.1-0.3,0.3-0.3,0.5c-0.1,0.3-0.1,0.7-0.1,1v2.7H33.8z"/>
		<path id="XMLID_256_" d="M37.1,144v-1H38v1H37.1z M37.1,150.1v-5.2H38v5.2H37.1z"/>
		<path id="XMLID_259_" d="M42.9,148.4l0.9,0.1c-0.1,0.5-0.4,0.9-0.8,1.2s-0.9,0.4-1.5,0.4c-0.8,0-1.4-0.2-1.8-0.7
			c-0.4-0.5-0.7-1.1-0.7-2c0-0.9,0.2-1.5,0.7-2s1-0.7,1.7-0.7c0.7,0,1.3,0.2,1.7,0.7s0.7,1.1,0.7,2c0,0.1,0,0.1,0,0.2h-3.9
			c0,0.6,0.2,1,0.5,1.3s0.7,0.5,1.1,0.5c0.3,0,0.6-0.1,0.8-0.3S42.7,148.8,42.9,148.4z M40,147h2.9c0-0.4-0.1-0.8-0.3-1
			c-0.3-0.3-0.6-0.5-1.1-0.5c-0.4,0-0.7,0.1-1,0.4C40.2,146.2,40,146.6,40,147z"/>
		<path id="XMLID_262_" d="M44.9,150.1v-5.2h0.8v0.7c0.4-0.6,0.9-0.9,1.7-0.9c0.3,0,0.6,0.1,0.9,0.2c0.3,0.1,0.5,0.3,0.6,0.4
			s0.2,0.4,0.3,0.6c0,0.2,0,0.4,0,0.9v3.2h-0.9V147c0-0.4,0-0.6-0.1-0.8c-0.1-0.2-0.2-0.3-0.4-0.4c-0.2-0.1-0.4-0.2-0.6-0.2
			c-0.4,0-0.7,0.1-1,0.4c-0.3,0.2-0.4,0.7-0.4,1.4v2.8H44.9z"/>
		<path id="XMLID_264_" d="M52.4,149.3l0.1,0.8c-0.2,0.1-0.5,0.1-0.7,0.1c-0.3,0-0.6-0.1-0.7-0.2s-0.3-0.2-0.4-0.4
			c-0.1-0.2-0.1-0.5-0.1-1v-3H50v-0.7h0.6v-1.3l0.9-0.5v1.8h0.9v0.7h-0.9v3c0,0.3,0,0.4,0,0.5c0,0.1,0.1,0.1,0.2,0.2
			c0.1,0,0.2,0.1,0.3,0.1C52.1,149.4,52.2,149.3,52.4,149.3z"/>
		<path id="XMLID_266_" d="M52.9,147.5c0-1,0.3-1.7,0.8-2.1c0.4-0.4,1-0.6,1.6-0.6c0.7,0,1.3,0.2,1.7,0.7c0.5,0.5,0.7,1.1,0.7,1.9
			c0,0.7-0.1,1.2-0.3,1.6c-0.2,0.4-0.5,0.7-0.9,0.9c-0.4,0.2-0.8,0.3-1.3,0.3c-0.7,0-1.3-0.2-1.8-0.7
			C53.1,149.1,52.9,148.4,52.9,147.5z M53.8,147.5c0,0.7,0.1,1.2,0.4,1.5c0.3,0.3,0.7,0.5,1.1,0.5c0.4,0,0.8-0.2,1.1-0.5
			s0.4-0.8,0.4-1.5c0-0.6-0.1-1.1-0.4-1.5c-0.3-0.3-0.7-0.5-1.1-0.5c-0.4,0-0.8,0.2-1.1,0.5S53.8,146.9,53.8,147.5z"/>
		<path id="XMLID_269_" d="M60.3,152.1h-1.9v-0.7h1.1v-7.7h-1.1V143h1.9V152.1z"/>
	</g>
	<g id="XMLID_210_">
		<path id="XMLID_211_" d="M172.9,152.1V143h1.9v0.7h-1.1v7.7h1.1v0.7H172.9z"/>
		<path id="XMLID_213_" d="M175.7,144v-1h0.9v1H175.7z M175.7,150.1v-5.2h0.9v5.2H175.7z"/>
		<path id="XMLID_216_" d="M177.9,150.1v-5.2h0.8v0.7c0.4-0.6,0.9-0.9,1.7-0.9c0.3,0,0.6,0.1,0.9,0.2c0.3,0.1,0.5,0.3,0.6,0.4
			s0.2,0.4,0.3,0.6c0,0.2,0,0.4,0,0.9v3.2h-0.9V147c0-0.4,0-0.6-0.1-0.8c-0.1-0.2-0.2-0.3-0.4-0.4c-0.2-0.1-0.4-0.2-0.6-0.2
			c-0.4,0-0.7,0.1-1,0.4c-0.3,0.2-0.4,0.7-0.4,1.4v2.8H177.9z"/>
		<path id="XMLID_218_" d="M186.8,149.5c-0.3,0.3-0.6,0.5-0.9,0.6c-0.3,0.1-0.6,0.2-1,0.2c-0.6,0-1-0.1-1.3-0.4
			c-0.3-0.3-0.5-0.6-0.5-1.1c0-0.3,0.1-0.5,0.2-0.7c0.1-0.2,0.3-0.4,0.5-0.5c0.2-0.1,0.4-0.2,0.6-0.3c0.2,0,0.4-0.1,0.8-0.1
			c0.7-0.1,1.2-0.2,1.6-0.3c0-0.1,0-0.2,0-0.2c0-0.4-0.1-0.6-0.2-0.8c-0.2-0.2-0.6-0.3-1-0.3c-0.4,0-0.7,0.1-0.9,0.2
			c-0.2,0.1-0.3,0.4-0.4,0.8l-0.9-0.1c0.1-0.4,0.2-0.7,0.4-0.9c0.2-0.2,0.4-0.4,0.8-0.5c0.3-0.1,0.7-0.2,1.2-0.2
			c0.4,0,0.8,0.1,1.1,0.2s0.5,0.2,0.6,0.4c0.1,0.2,0.2,0.4,0.3,0.6c0,0.1,0,0.4,0,0.8v1.2c0,0.8,0,1.3,0.1,1.5
			c0,0.2,0.1,0.4,0.2,0.6H187C186.9,149.9,186.9,149.7,186.8,149.5z M186.8,147.5c-0.3,0.1-0.8,0.2-1.4,0.3
			c-0.4,0.1-0.6,0.1-0.8,0.2s-0.3,0.2-0.3,0.3c-0.1,0.1-0.1,0.3-0.1,0.4c0,0.2,0.1,0.4,0.3,0.6c0.2,0.2,0.4,0.2,0.8,0.2
			c0.3,0,0.6-0.1,0.9-0.2c0.3-0.1,0.5-0.4,0.6-0.6c0.1-0.2,0.1-0.5,0.1-0.9V147.5z"/>
		<path id="XMLID_221_" d="M189,152.1v-7.2h0.8v0.7c0.2-0.3,0.4-0.5,0.6-0.6c0.2-0.1,0.5-0.2,0.9-0.2c0.4,0,0.8,0.1,1.2,0.3
			s0.6,0.5,0.8,1c0.2,0.4,0.3,0.9,0.3,1.4c0,0.5-0.1,1-0.3,1.4c-0.2,0.4-0.5,0.8-0.8,1c-0.4,0.2-0.7,0.3-1.1,0.3
			c-0.3,0-0.6-0.1-0.8-0.2c-0.2-0.1-0.4-0.3-0.6-0.5v2.5H189z M189.8,147.5c0,0.7,0.1,1.2,0.4,1.5s0.6,0.5,1,0.5
			c0.4,0,0.7-0.2,1-0.5c0.3-0.3,0.4-0.8,0.4-1.5c0-0.7-0.1-1.2-0.4-1.5c-0.3-0.3-0.6-0.5-1-0.5c-0.4,0-0.7,0.2-1,0.5
			C190,146.4,189.8,146.9,189.8,147.5z"/>
		<path id="XMLID_224_" d="M198.1,148.4l0.9,0.1c-0.1,0.5-0.4,0.9-0.8,1.2s-0.9,0.4-1.5,0.4c-0.8,0-1.4-0.2-1.8-0.7
			c-0.4-0.5-0.7-1.1-0.7-2c0-0.9,0.2-1.5,0.7-2s1-0.7,1.7-0.7c0.7,0,1.3,0.2,1.7,0.7s0.7,1.1,0.7,2c0,0.1,0,0.1,0,0.2h-3.9
			c0,0.6,0.2,1,0.5,1.3s0.7,0.5,1.1,0.5c0.3,0,0.6-0.1,0.8-0.3S198,148.8,198.1,148.4z M195.2,147h2.9c0-0.4-0.1-0.8-0.3-1
			c-0.3-0.3-0.6-0.5-1.1-0.5c-0.4,0-0.7,0.1-1,0.4C195.4,146.2,195.3,146.6,195.2,147z"/>
		<path id="XMLID_227_" d="M202.1,149.3l0.1,0.8c-0.2,0.1-0.5,0.1-0.7,0.1c-0.3,0-0.6-0.1-0.7-0.2s-0.3-0.2-0.4-0.4
			c-0.1-0.2-0.1-0.5-0.1-1v-3h-0.6v-0.7h0.6v-1.3l0.9-0.5v1.8h0.9v0.7h-0.9v3c0,0.3,0,0.4,0,0.5c0,0.1,0.1,0.1,0.2,0.2
			c0.1,0,0.2,0.1,0.3,0.1C201.8,149.4,201.9,149.3,202.1,149.3z"/>
		<path id="XMLID_229_" d="M206.5,148.4l0.9,0.1c-0.1,0.5-0.4,0.9-0.8,1.2s-0.9,0.4-1.5,0.4c-0.8,0-1.4-0.2-1.8-0.7
			c-0.4-0.5-0.7-1.1-0.7-2c0-0.9,0.2-1.5,0.7-2s1-0.7,1.7-0.7c0.7,0,1.3,0.2,1.7,0.7s0.7,1.1,0.7,2c0,0.1,0,0.1,0,0.2h-3.9
			c0,0.6,0.2,1,0.5,1.3s0.7,0.5,1.1,0.5c0.3,0,0.6-0.1,0.8-0.3S206.3,148.8,206.5,148.4z M203.6,147h2.9c0-0.4-0.1-0.8-0.3-1
			c-0.3-0.3-0.6-0.5-1.1-0.5c-0.4,0-0.7,0.1-1,0.4C203.8,146.2,203.6,146.6,203.6,147z"/>
		<path id="XMLID_232_" d="M208.5,150.1v-5.2h0.8v0.7c0.4-0.6,0.9-0.9,1.7-0.9c0.3,0,0.6,0.1,0.9,0.2c0.3,0.1,0.5,0.3,0.6,0.4
			s0.2,0.4,0.3,0.6c0,0.2,0,0.4,0,0.9v3.2h-0.9V147c0-0.4,0-0.6-0.1-0.8c-0.1-0.2-0.2-0.3-0.4-0.4c-0.2-0.1-0.4-0.2-0.6-0.2
			c-0.4,0-0.7,0.1-1,0.4c-0.3,0.2-0.4,0.7-0.4,1.4v2.8H208.5z"/>
		<path id="XMLID_234_" d="M216,149.3l0.1,0.8c-0.2,0.1-0.5,0.1-0.7,0.1c-0.3,0-0.6-0.1-0.7-0.2s-0.3-0.2-0.4-0.4
			c-0.1-0.2-0.1-0.5-0.1-1v-3h-0.6v-0.7h0.6v-1.3l0.9-0.5v1.8h0.9v0.7h-0.9v3c0,0.3,0,0.4,0,0.5c0,0.1,0.1,0.1,0.2,0.2
			c0.1,0,0.2,0.1,0.3,0.1C215.7,149.4,215.8,149.3,216,149.3z"/>
		<path id="XMLID_236_" d="M220.4,148.4l0.9,0.1c-0.1,0.5-0.4,0.9-0.8,1.2s-0.9,0.4-1.5,0.4c-0.8,0-1.4-0.2-1.8-0.7
			c-0.4-0.5-0.7-1.1-0.7-2c0-0.9,0.2-1.5,0.7-2s1-0.7,1.7-0.7c0.7,0,1.3,0.2,1.7,0.7s0.7,1.1,0.7,2c0,0.1,0,0.1,0,0.2h-3.9
			c0,0.6,0.2,1,0.5,1.3s0.7,0.5,1.1,0.5c0.3,0,0.6-0.1,0.8-0.3S220.2,148.8,220.4,148.4z M217.5,147h2.9c0-0.4-0.1-0.8-0.3-1
			c-0.3-0.3-0.6-0.5-1.1-0.5c-0.4,0-0.7,0.1-1,0.4C217.7,146.2,217.5,146.6,217.5,147z"/>
		<path id="XMLID_239_" d="M223.8,152.1h-1.9v-0.7h1.1v-7.7h-1.1V143h1.9V152.1z"/>
	</g>
	<polyline id="XMLID_8639_" class="st0" points="315.4,232.3 315.4,265.1 463.7,265.1 463.7,233.6 	"/>
	<g id="XMLID_8603_">
		<line id="XMLID_51_" x1="383.1" y1="128" x2="315.4" y2="194.7"/>
		<g id="XMLID_47_">
			<line id="XMLID_50_" class="st0" x1="383.1" y1="128" x2="320.4" y2="189.8"/>
			<g id="XMLID_48_">
				<polygon id="XMLID_49_" class="st1" points="315.4,194.7 319.6,184.9 320.8,189.4 325.4,190.6 				"/>
			</g>
		</g>
	</g>
	<g id="XMLID_8594_">
		<line id="XMLID_45_" x1="396" y1="128" x2="461.5" y2="194.7"/>
		<g id="XMLID_41_">
			<line id="XMLID_44_" class="st0" x1="396" y1="128" x2="456.5" y2="189.7"/>
			<g id="XMLID_42_">
				<polygon id="XMLID_43_" class="st1" points="461.5,194.7 451.6,190.5 456.2,189.3 457.4,184.8 				"/>
			</g>
		</g>
	</g>
	<g id="XMLID_8584_">
		<line id="XMLID_39_" x1="389.6" y1="265.9" x2="389.6" y2="291.1"/>
		<g id="XMLID_35_">
			<line id="XMLID_38_" class="st0" x1="389.6" y1="265.9" x2="389.6" y2="284.1"/>
			<g id="XMLID_36_">
				<polygon id="XMLID_37_" class="st1" points="389.6,291.1 385.5,281.2 389.6,283.6 393.6,281.2 				"/>
			</g>
		</g>
	</g>
	<g id="XMLID_8578_">
		<circle id="XMLID_8579_" class="st2" cx="389.6" cy="10.8" r="10.8"/>
	</g>
	<g id="XMLID_8571_">
		<circle id="XMLID_8575_" class="st2" cx="389.6" cy="306.1" r="10.8"/>
		<circle id="XMLID_8572_" class="st3" cx="389.6" cy="306.1" r="13.6"/>
	</g>
	<path id="XMLID_8570_" class="st4" d="M421.9,85.6h-64.7c-7.9,0-14.3-6.4-14.3-14.3V61c0-7.9,6.4-14.3,14.3-14.3h64.7
		c7.9,0,14.3,6.4,14.3,14.3v10.3C436.2,79.1,429.8,85.6,421.9,85.6z"/>
	<g id="XMLID_186_">
		<path id="XMLID_187_" d="M364.1,70.9v-8.6h3c0.7,0,1.2,0,1.5,0.1c0.5,0.1,0.9,0.3,1.3,0.6c0.5,0.4,0.8,0.9,1,1.5s0.3,1.3,0.3,2
			c0,0.7-0.1,1.2-0.2,1.7s-0.3,0.9-0.6,1.3s-0.5,0.6-0.8,0.8s-0.6,0.3-1,0.4s-0.9,0.1-1.4,0.1H364.1z M365.2,69.9h1.8
			c0.6,0,1-0.1,1.3-0.2s0.6-0.3,0.8-0.4c0.3-0.3,0.5-0.6,0.6-1.1s0.2-1,0.2-1.7c0-0.9-0.1-1.6-0.4-2.1s-0.7-0.8-1.1-1
			c-0.3-0.1-0.8-0.2-1.5-0.2h-1.8V69.9z"/>
		<path id="XMLID_190_" d="M376.9,68.9l1.1,0.1c-0.2,0.6-0.5,1.1-1,1.5s-1.1,0.5-1.8,0.5c-0.9,0-1.6-0.3-2.2-0.8s-0.8-1.3-0.8-2.4
			c0-1,0.3-1.9,0.8-2.4s1.2-0.9,2.1-0.9c0.8,0,1.5,0.3,2,0.8s0.8,1.4,0.8,2.4c0,0.1,0,0.2,0,0.3h-4.6c0,0.7,0.2,1.2,0.6,1.6
			s0.8,0.5,1.3,0.5c0.4,0,0.7-0.1,1-0.3S376.7,69.4,376.9,68.9z M373.4,67.2h3.5c0-0.5-0.2-0.9-0.4-1.2c-0.3-0.4-0.8-0.6-1.3-0.6
			c-0.5,0-0.9,0.2-1.2,0.5S373.4,66.7,373.4,67.2z"/>
		<path id="XMLID_193_" d="M378.9,69.1l1-0.2c0.1,0.4,0.2,0.7,0.5,1s0.6,0.3,1.1,0.3c0.5,0,0.8-0.1,1.1-0.3s0.4-0.4,0.4-0.7
			c0-0.2-0.1-0.4-0.3-0.6c-0.1-0.1-0.5-0.2-1.1-0.4c-0.8-0.2-1.3-0.4-1.6-0.5s-0.5-0.3-0.7-0.6s-0.2-0.5-0.2-0.8
			c0-0.3,0.1-0.5,0.2-0.8s0.3-0.4,0.5-0.6c0.2-0.1,0.4-0.2,0.7-0.3s0.6-0.1,0.9-0.1c0.5,0,0.9,0.1,1.3,0.2s0.6,0.3,0.8,0.6
			s0.3,0.6,0.4,1l-1,0.1c0-0.3-0.2-0.6-0.4-0.8s-0.5-0.3-1-0.3c-0.5,0-0.8,0.1-1,0.2S380,66,380,66.2c0,0.1,0,0.3,0.1,0.4
			c0.1,0.1,0.2,0.2,0.4,0.3c0.1,0,0.4,0.1,0.9,0.3c0.7,0.2,1.3,0.4,1.6,0.5s0.5,0.3,0.7,0.6s0.3,0.5,0.3,0.9c0,0.4-0.1,0.7-0.3,1
			s-0.5,0.6-0.9,0.7s-0.8,0.3-1.3,0.3c-0.8,0-1.4-0.2-1.8-0.5S379,69.7,378.9,69.1z"/>
		<path id="XMLID_195_" d="M385.3,73.3v-8.6h1v0.8c0.2-0.3,0.5-0.6,0.8-0.7s0.6-0.2,1-0.2c0.5,0,1,0.1,1.4,0.4s0.7,0.7,0.9,1.2
			s0.3,1,0.3,1.6c0,0.6-0.1,1.2-0.3,1.7s-0.6,0.9-1,1.2s-0.9,0.4-1.4,0.4c-0.4,0-0.7-0.1-0.9-0.2s-0.5-0.3-0.7-0.6v3H385.3z
			 M386.2,67.9c0,0.8,0.2,1.4,0.5,1.8s0.7,0.6,1.2,0.6c0.5,0,0.9-0.2,1.2-0.6s0.5-1,0.5-1.8c0-0.8-0.2-1.4-0.5-1.8s-0.7-0.6-1.2-0.6
			c-0.4,0-0.8,0.2-1.2,0.6S386.2,67.1,386.2,67.9z"/>
		<path id="XMLID_198_" d="M396.2,68.9l1.1,0.1c-0.2,0.6-0.5,1.1-1,1.5s-1.1,0.5-1.8,0.5c-0.9,0-1.6-0.3-2.2-0.8s-0.8-1.3-0.8-2.4
			c0-1,0.3-1.9,0.8-2.4s1.2-0.9,2.1-0.9c0.8,0,1.5,0.3,2,0.8s0.8,1.4,0.8,2.4c0,0.1,0,0.2,0,0.3h-4.6c0,0.7,0.2,1.2,0.6,1.6
			s0.8,0.5,1.3,0.5c0.4,0,0.7-0.1,1-0.3S396,69.4,396.2,68.9z M392.7,67.2h3.5c0-0.5-0.2-0.9-0.4-1.2c-0.3-0.4-0.8-0.6-1.3-0.6
			c-0.5,0-0.9,0.2-1.2,0.5S392.8,66.7,392.7,67.2z"/>
		<path id="XMLID_201_" d="M398.6,70.9v-6.2h0.9v0.9c0.2-0.4,0.5-0.7,0.7-0.9s0.4-0.2,0.7-0.2c0.4,0,0.7,0.1,1.1,0.3l-0.4,1
			c-0.3-0.2-0.5-0.2-0.8-0.2c-0.2,0-0.4,0.1-0.6,0.2s-0.3,0.3-0.4,0.6c-0.1,0.4-0.2,0.8-0.2,1.2v3.3H398.6z"/>
		<path id="XMLID_203_" d="M404.9,70l0.2,0.9c-0.3,0.1-0.6,0.1-0.8,0.1c-0.4,0-0.7-0.1-0.9-0.2s-0.4-0.3-0.4-0.5s-0.1-0.6-0.1-1.2
			v-3.6H402v-0.8h0.8v-1.5l1-0.6v2.2h1.1v0.8h-1.1v3.6c0,0.3,0,0.5,0.1,0.6s0.1,0.2,0.2,0.2s0.2,0.1,0.4,0.1
			C404.6,70,404.7,70,404.9,70z"/>
		<path id="XMLID_205_" d="M410,70.2c-0.4,0.3-0.8,0.6-1.1,0.7s-0.8,0.2-1.2,0.2c-0.7,0-1.2-0.2-1.6-0.5s-0.6-0.8-0.6-1.3
			c0-0.3,0.1-0.6,0.2-0.8s0.3-0.5,0.5-0.6s0.5-0.3,0.8-0.3c0.2-0.1,0.5-0.1,0.9-0.2c0.9-0.1,1.5-0.2,1.9-0.4c0-0.1,0-0.2,0-0.3
			c0-0.4-0.1-0.7-0.3-0.9c-0.3-0.2-0.7-0.4-1.2-0.4c-0.5,0-0.9,0.1-1.1,0.3s-0.4,0.5-0.5,0.9l-1-0.1c0.1-0.4,0.2-0.8,0.5-1.1
			s0.5-0.5,0.9-0.6s0.9-0.2,1.4-0.2c0.5,0,1,0.1,1.3,0.2s0.6,0.3,0.7,0.5s0.3,0.4,0.3,0.7c0,0.2,0.1,0.5,0.1,1v1.4
			c0,1,0,1.6,0.1,1.9s0.1,0.5,0.3,0.7h-1.1C410.1,70.7,410,70.5,410,70.2z M409.9,67.8c-0.4,0.2-1,0.3-1.7,0.4
			c-0.4,0.1-0.7,0.1-0.9,0.2s-0.3,0.2-0.4,0.3s-0.1,0.3-0.1,0.5c0,0.3,0.1,0.5,0.3,0.7s0.5,0.3,0.9,0.3c0.4,0,0.8-0.1,1.1-0.3
			s0.5-0.4,0.7-0.7c0.1-0.2,0.2-0.6,0.2-1.1V67.8z"/>
		<path id="XMLID_208_" d="M412.6,70.9v-6.2h0.9v0.9c0.2-0.4,0.5-0.7,0.7-0.9s0.4-0.2,0.7-0.2c0.4,0,0.7,0.1,1.1,0.3l-0.4,1
			c-0.3-0.2-0.5-0.2-0.8-0.2c-0.2,0-0.4,0.1-0.6,0.2s-0.3,0.3-0.4,0.6c-0.1,0.4-0.2,0.8-0.2,1.2v3.3H412.6z"/>
	</g>
	<g id="XMLID_8564_">
		<path id="XMLID_8568_" class="st5" d="M349.4,233.6h-64.7c-7.9,0-14.3-6.4-14.3-14.3V209c0-7.9,6.4-14.3,14.3-14.3h64.7
			c7.9,0,14.3,6.4,14.3,14.3v10.3C363.7,227.2,357.2,233.6,349.4,233.6z"/>
		<g id="XMLID_163_">
			<path id="XMLID_164_" d="M288.9,218.5v-8.6h3c0.7,0,1.2,0,1.5,0.1c0.5,0.1,0.9,0.3,1.3,0.6c0.5,0.4,0.8,0.9,1,1.5s0.3,1.3,0.3,2
				c0,0.7-0.1,1.2-0.2,1.7s-0.3,0.9-0.6,1.3s-0.5,0.6-0.8,0.8s-0.6,0.3-1,0.4s-0.9,0.1-1.4,0.1H288.9z M290.1,217.5h1.8
				c0.6,0,1-0.1,1.3-0.2s0.6-0.3,0.8-0.4c0.3-0.3,0.5-0.6,0.6-1.1s0.2-1,0.2-1.7c0-0.9-0.1-1.6-0.4-2.1s-0.7-0.8-1.1-1
				c-0.3-0.1-0.8-0.2-1.5-0.2h-1.8V217.5z"/>
			<path id="XMLID_167_" d="M301.7,216.5l1.1,0.1c-0.2,0.6-0.5,1.1-1,1.5s-1.1,0.5-1.8,0.5c-0.9,0-1.6-0.3-2.2-0.8s-0.8-1.3-0.8-2.4
				c0-1,0.3-1.9,0.8-2.4s1.2-0.9,2.1-0.9c0.8,0,1.5,0.3,2,0.8s0.8,1.4,0.8,2.4c0,0.1,0,0.2,0,0.3h-4.6c0,0.7,0.2,1.2,0.6,1.6
				s0.8,0.5,1.3,0.5c0.4,0,0.7-0.1,1-0.3S301.6,216.9,301.7,216.5z M298.3,214.8h3.5c0-0.5-0.2-0.9-0.4-1.2
				c-0.3-0.4-0.8-0.6-1.3-0.6c-0.5,0-0.9,0.2-1.2,0.5S298.3,214.2,298.3,214.8z"/>
			<path id="XMLID_170_" d="M303.7,216.6l1-0.2c0.1,0.4,0.2,0.7,0.5,1s0.6,0.3,1.1,0.3c0.5,0,0.8-0.1,1.1-0.3s0.4-0.4,0.4-0.7
				c0-0.2-0.1-0.4-0.3-0.6c-0.1-0.1-0.5-0.2-1.1-0.4c-0.8-0.2-1.3-0.4-1.6-0.5s-0.5-0.3-0.7-0.6s-0.2-0.5-0.2-0.8
				c0-0.3,0.1-0.5,0.2-0.8s0.3-0.4,0.5-0.6c0.2-0.1,0.4-0.2,0.7-0.3s0.6-0.1,0.9-0.1c0.5,0,0.9,0.1,1.3,0.2s0.6,0.3,0.8,0.6
				s0.3,0.6,0.4,1l-1,0.1c0-0.3-0.2-0.6-0.4-0.8s-0.5-0.3-1-0.3c-0.5,0-0.8,0.1-1,0.2s-0.3,0.3-0.3,0.6c0,0.1,0,0.3,0.1,0.4
				c0.1,0.1,0.2,0.2,0.4,0.3c0.1,0,0.4,0.1,0.9,0.3c0.7,0.2,1.3,0.4,1.6,0.5s0.5,0.3,0.7,0.6s0.3,0.5,0.3,0.9c0,0.4-0.1,0.7-0.3,1
				s-0.5,0.6-0.9,0.7s-0.8,0.3-1.3,0.3c-0.8,0-1.4-0.2-1.8-0.5S303.8,217.3,303.7,216.6z"/>
			<path id="XMLID_172_" d="M314.2,217.7c-0.4,0.3-0.8,0.6-1.1,0.7s-0.7,0.2-1.2,0.2c-0.7,0-1.2-0.2-1.6-0.5s-0.6-0.8-0.6-1.3
				c0-0.3,0.1-0.6,0.2-0.8s0.3-0.5,0.5-0.6s0.5-0.3,0.8-0.3c0.2-0.1,0.5-0.1,0.9-0.2c0.9-0.1,1.5-0.2,1.9-0.4c0-0.1,0-0.2,0-0.3
				c0-0.4-0.1-0.7-0.3-0.9c-0.3-0.2-0.7-0.4-1.2-0.4c-0.5,0-0.9,0.1-1.1,0.3s-0.4,0.5-0.5,0.9l-1-0.1c0.1-0.4,0.2-0.8,0.5-1.1
				s0.5-0.5,0.9-0.6s0.9-0.2,1.4-0.2c0.5,0,1,0.1,1.3,0.2s0.6,0.3,0.7,0.5s0.3,0.4,0.3,0.7c0,0.2,0.1,0.5,0.1,1v1.4
				c0,1,0,1.6,0.1,1.9s0.1,0.5,0.3,0.7h-1.1C314.3,218.3,314.2,218,314.2,217.7z M314.1,215.4c-0.4,0.2-1,0.3-1.7,0.4
				c-0.4,0.1-0.7,0.1-0.9,0.2s-0.3,0.2-0.4,0.3s-0.1,0.3-0.1,0.5c0,0.3,0.1,0.5,0.3,0.7s0.5,0.3,0.9,0.3c0.4,0,0.8-0.1,1.1-0.3
				s0.5-0.4,0.7-0.7c0.1-0.2,0.2-0.6,0.2-1.1V215.4z"/>
			<path id="XMLID_175_" d="M316.8,220.9l-0.1-1c0.2,0.1,0.4,0.1,0.6,0.1c0.2,0,0.4,0,0.6-0.1s0.3-0.2,0.3-0.3
				c0.1-0.1,0.2-0.4,0.3-0.8c0-0.1,0.1-0.1,0.1-0.3l-2.4-6.2h1.1l1.3,3.6c0.2,0.5,0.3,0.9,0.5,1.4c0.1-0.5,0.3-1,0.4-1.4l1.3-3.6
				h1.1l-2.4,6.3c-0.3,0.7-0.5,1.2-0.6,1.4c-0.2,0.3-0.4,0.6-0.6,0.8s-0.5,0.2-0.9,0.2C317.2,221,317,221,316.8,220.9z"/>
			<path id="XMLID_177_" d="M326.9,218.5v-0.9c-0.5,0.7-1.1,1.1-2,1.1c-0.4,0-0.7-0.1-1-0.2s-0.6-0.3-0.7-0.5s-0.3-0.5-0.3-0.8
				c0-0.2-0.1-0.5-0.1-1v-3.9h1.1v3.5c0,0.6,0,0.9,0.1,1.1c0.1,0.3,0.2,0.5,0.4,0.7s0.5,0.2,0.8,0.2s0.6-0.1,0.9-0.2
				s0.5-0.4,0.6-0.7s0.2-0.7,0.2-1.2v-3.3h1.1v6.2H326.9z"/>
			<path id="XMLID_179_" d="M329.5,218.5v-6.2h0.9v0.9c0.5-0.7,1.1-1,2-1c0.4,0,0.7,0.1,1,0.2s0.6,0.3,0.7,0.5s0.3,0.5,0.3,0.8
				c0,0.2,0.1,0.5,0.1,1v3.8h-1.1v-3.8c0-0.4,0-0.8-0.1-1s-0.2-0.4-0.4-0.5s-0.5-0.2-0.7-0.2c-0.4,0-0.8,0.1-1.2,0.4
				s-0.5,0.8-0.5,1.6v3.4H329.5z"/>
			<path id="XMLID_181_" d="M340.2,217.7c-0.4,0.3-0.8,0.6-1.1,0.7s-0.7,0.2-1.2,0.2c-0.7,0-1.2-0.2-1.6-0.5s-0.6-0.8-0.6-1.3
				c0-0.3,0.1-0.6,0.2-0.8s0.3-0.5,0.5-0.6s0.5-0.3,0.8-0.3c0.2-0.1,0.5-0.1,0.9-0.2c0.9-0.1,1.5-0.2,1.9-0.4c0-0.1,0-0.2,0-0.3
				c0-0.4-0.1-0.7-0.3-0.9c-0.3-0.2-0.7-0.4-1.2-0.4c-0.5,0-0.9,0.1-1.1,0.3s-0.4,0.5-0.5,0.9l-1-0.1c0.1-0.4,0.2-0.8,0.5-1.1
				s0.5-0.5,0.9-0.6s0.9-0.2,1.4-0.2c0.5,0,1,0.1,1.3,0.2s0.6,0.3,0.7,0.5s0.3,0.4,0.3,0.7c0,0.2,0.1,0.5,0.1,1v1.4
				c0,1,0,1.6,0.1,1.9s0.1,0.5,0.3,0.7h-1.1C340.3,218.3,340.2,218,340.2,217.7z M340.1,215.4c-0.4,0.2-1,0.3-1.7,0.4
				c-0.4,0.1-0.7,0.1-0.9,0.2s-0.3,0.2-0.4,0.3s-0.1,0.3-0.1,0.5c0,0.3,0.1,0.5,0.3,0.7s0.5,0.3,0.9,0.3c0.4,0,0.8-0.1,1.1-0.3
				s0.5-0.4,0.7-0.7c0.1-0.2,0.2-0.6,0.2-1.1V215.4z"/>
			<path id="XMLID_184_" d="M342.8,218.5v-6.2h0.9v0.9c0.2-0.4,0.5-0.7,0.7-0.9s0.4-0.2,0.7-0.2c0.4,0,0.7,0.1,1.1,0.3l-0.4,1
				c-0.3-0.2-0.5-0.2-0.8-0.2c-0.2,0-0.4,0.1-0.6,0.2s-0.3,0.3-0.4,0.6c-0.1,0.4-0.2,0.8-0.2,1.2v3.3H342.8z"/>
		</g>
		<path id="XMLID_8566_" class="st5" d="M494.5,233.6h-64.7c-7.9,0-14.3-6.4-14.3-14.3l0-10.3c0-7.9,6.4-14.3,14.3-14.3h64.7
			c7.9,0,14.3,6.4,14.3,14.3v10.3C508.8,227.2,502.4,233.6,494.5,233.6z"/>
		<g id="XMLID_130_">
			<path id="XMLID_131_" d="M425.2,218.5l-3.3-8.6h1.2l2.2,6.2c0.2,0.5,0.3,1,0.5,1.4c0.1-0.5,0.3-0.9,0.5-1.4l2.3-6.2h1.2l-3.4,8.6
				H425.2z"/>
			<path id="XMLID_133_" d="M429.5,215.4c0-1.2,0.3-2,1-2.6c0.5-0.5,1.2-0.7,2-0.7c0.9,0,1.6,0.3,2.1,0.8s0.8,1.3,0.8,2.3
				c0,0.8-0.1,1.4-0.4,1.9s-0.6,0.8-1,1.1s-1,0.4-1.5,0.4c-0.9,0-1.6-0.3-2.1-0.8S429.5,216.4,429.5,215.4z M430.6,215.4
				c0,0.8,0.2,1.4,0.5,1.8s0.8,0.6,1.3,0.6c0.5,0,1-0.2,1.3-0.6s0.5-1,0.5-1.8c0-0.8-0.2-1.4-0.5-1.7s-0.8-0.6-1.3-0.6
				c-0.5,0-1,0.2-1.3,0.6S430.6,214.6,430.6,215.4z"/>
			<path id="XMLID_136_" d="M436.6,218.5v-8.6h1.1v8.6H436.6z"/>
			<path id="XMLID_138_" d="M441,218.5l-2.4-6.2h1.1l1.3,3.7c0.1,0.4,0.3,0.8,0.4,1.3c0.1-0.3,0.2-0.7,0.4-1.2l1.4-3.8h1.1l-2.4,6.2
				H441z"/>
			<path id="XMLID_140_" d="M449.5,216.5l1.1,0.1c-0.2,0.6-0.5,1.1-1,1.5s-1.1,0.5-1.8,0.5c-0.9,0-1.6-0.3-2.2-0.8s-0.8-1.3-0.8-2.4
				c0-1,0.3-1.9,0.8-2.4s1.2-0.9,2.1-0.9c0.8,0,1.5,0.3,2,0.8s0.8,1.4,0.8,2.4c0,0.1,0,0.2,0,0.3H446c0,0.7,0.2,1.2,0.6,1.6
				s0.8,0.5,1.3,0.5c0.4,0,0.7-0.1,1-0.3S449.4,216.9,449.5,216.5z M446.1,214.8h3.5c0-0.5-0.2-0.9-0.4-1.2
				c-0.3-0.4-0.8-0.6-1.3-0.6c-0.5,0-0.9,0.2-1.2,0.5S446.1,214.2,446.1,214.8z"/>
			<path id="XMLID_143_" d="M451.9,218.5v-6.2h0.9v0.9c0.2-0.4,0.5-0.7,0.7-0.9s0.4-0.2,0.7-0.2c0.4,0,0.7,0.1,1.1,0.3l-0.4,1
				c-0.3-0.2-0.5-0.2-0.8-0.2c-0.2,0-0.4,0.1-0.6,0.2s-0.3,0.3-0.4,0.6c-0.1,0.4-0.2,0.8-0.2,1.2v3.3H451.9z"/>
			<path id="XMLID_145_" d="M463.3,217.7c-0.4,0.3-0.8,0.6-1.1,0.7s-0.7,0.2-1.2,0.2c-0.7,0-1.2-0.2-1.6-0.5s-0.6-0.8-0.6-1.3
				c0-0.3,0.1-0.6,0.2-0.8s0.3-0.5,0.5-0.6s0.5-0.3,0.8-0.3c0.2-0.1,0.5-0.1,0.9-0.2c0.9-0.1,1.5-0.2,1.9-0.4c0-0.1,0-0.2,0-0.3
				c0-0.4-0.1-0.7-0.3-0.9c-0.3-0.2-0.7-0.4-1.2-0.4c-0.5,0-0.9,0.1-1.1,0.3s-0.4,0.5-0.5,0.9l-1-0.1c0.1-0.4,0.2-0.8,0.5-1.1
				s0.5-0.5,0.9-0.6s0.9-0.2,1.4-0.2c0.5,0,1,0.1,1.3,0.2s0.6,0.3,0.7,0.5s0.3,0.4,0.3,0.7c0,0.2,0.1,0.5,0.1,1v1.4
				c0,1,0,1.6,0.1,1.9s0.1,0.5,0.3,0.7h-1.1C463.4,218.3,463.4,218,463.3,217.7z M463.2,215.4c-0.4,0.2-1,0.3-1.7,0.4
				c-0.4,0.1-0.7,0.1-0.9,0.2s-0.3,0.2-0.4,0.3s-0.1,0.3-0.1,0.5c0,0.3,0.1,0.5,0.3,0.7s0.5,0.3,0.9,0.3c0.4,0,0.8-0.1,1.1-0.3
				s0.5-0.4,0.7-0.7c0.1-0.2,0.2-0.6,0.2-1.1V215.4z"/>
			<path id="XMLID_148_" d="M473.3,218.5v-0.8c-0.4,0.6-1,0.9-1.7,0.9c-0.5,0-1-0.1-1.4-0.4s-0.7-0.7-1-1.1s-0.3-1.1-0.3-1.7
				c0-0.6,0.1-1.2,0.3-1.7s0.5-0.9,0.9-1.2s0.9-0.4,1.4-0.4c0.4,0,0.7,0.1,1,0.2s0.5,0.4,0.7,0.6v-3.1h1v8.6H473.3z M470,215.4
				c0,0.8,0.2,1.4,0.5,1.8s0.7,0.6,1.2,0.6c0.5,0,0.9-0.2,1.2-0.6s0.5-1,0.5-1.7c0-0.9-0.2-1.5-0.5-1.9s-0.7-0.6-1.2-0.6
				c-0.5,0-0.9,0.2-1.2,0.6S470,214.6,470,215.4z"/>
			<path id="XMLID_151_" d="M475.6,215.4c0-1.2,0.3-2,1-2.6c0.5-0.5,1.2-0.7,2-0.7c0.9,0,1.6,0.3,2.1,0.8s0.8,1.3,0.8,2.3
				c0,0.8-0.1,1.4-0.4,1.9s-0.6,0.8-1,1.1s-1,0.4-1.5,0.4c-0.9,0-1.6-0.3-2.1-0.8S475.6,216.4,475.6,215.4z M476.6,215.4
				c0,0.8,0.2,1.4,0.5,1.8s0.8,0.6,1.3,0.6c0.5,0,1-0.2,1.3-0.6s0.5-1,0.5-1.8c0-0.8-0.2-1.4-0.5-1.7s-0.8-0.6-1.3-0.6
				c-0.5,0-1,0.2-1.3,0.6S476.6,214.6,476.6,215.4z"/>
			<path id="XMLID_154_" d="M482.6,218.5v-6.2h0.9v0.9c0.2-0.4,0.5-0.7,0.7-0.9s0.4-0.2,0.7-0.2c0.4,0,0.7,0.1,1.1,0.3l-0.4,1
				c-0.3-0.2-0.5-0.2-0.8-0.2c-0.2,0-0.4,0.1-0.6,0.2s-0.3,0.3-0.4,0.6c-0.1,0.4-0.2,0.8-0.2,1.2v3.3H482.6z"/>
			<path id="XMLID_156_" d="M486.6,218.5v-6.2h0.9v0.9c0.2-0.3,0.5-0.5,0.8-0.7s0.7-0.3,1.1-0.3c0.5,0,0.8,0.1,1.1,0.3
				s0.5,0.5,0.6,0.8c0.5-0.7,1.1-1.1,1.9-1.1c0.6,0,1.1,0.2,1.4,0.5s0.5,0.9,0.5,1.6v4.3h-1v-3.9c0-0.4,0-0.7-0.1-0.9
				s-0.2-0.3-0.4-0.4s-0.4-0.2-0.6-0.2c-0.4,0-0.8,0.1-1.1,0.4s-0.4,0.8-0.4,1.4v3.6h-1.1v-4c0-0.5-0.1-0.8-0.3-1.1
				s-0.5-0.4-0.8-0.4c-0.3,0-0.6,0.1-0.8,0.2s-0.4,0.4-0.5,0.7s-0.2,0.7-0.2,1.3v3.2H486.6z"/>
			<path id="XMLID_158_" d="M496.6,211.1v-1.2h1.1v1.2H496.6z M496.6,218.5v-6.2h1.1v6.2H496.6z"/>
			<path id="XMLID_161_" d="M499.3,218.5v-6.2h0.9v0.9c0.2-0.4,0.5-0.7,0.7-0.9s0.4-0.2,0.7-0.2c0.4,0,0.7,0.1,1.1,0.3l-0.4,1
				c-0.3-0.2-0.5-0.2-0.8-0.2c-0.2,0-0.4,0.1-0.6,0.2s-0.3,0.3-0.4,0.6c-0.1,0.4-0.2,0.8-0.2,1.2v3.3H499.3z"/>
		</g>
	</g>
	<g id="XMLID_7308_">
		<line id="XMLID_27_" x1="389.6" y1="21.5" x2="389.6" y2="46.7"/>
		<g id="XMLID_23_">
			<line id="XMLID_26_" class="st0" x1="389.6" y1="21.5" x2="389.6" y2="39.6"/>
			<g id="XMLID_24_">
				<polygon id="XMLID_25_" class="st1" points="389.6,46.7 385.5,36.7 389.6,39.1 393.6,36.7 				"/>
			</g>
		</g>
	</g>
	<g id="XMLID_8641_">
		<line id="XMLID_63_" x1="389.6" y1="86.8" x2="389.6" y2="107"/>
		<g id="XMLID_58_">
			<line id="XMLID_62_" class="st0" x1="389.6" y1="86.8" x2="389.6" y2="99.9"/>
			<g id="XMLID_60_">
				<polygon id="XMLID_61_" class="st1" points="389.6,107 385.5,97 389.6,99.4 393.6,97 				"/>
			</g>
		</g>
	</g>
	<g id="XMLID_100_">
		<path id="XMLID_101_" d="M275.3,152.1V143h1.9v0.7h-1.1v7.7h1.1v0.7H275.3z"/>
		<path id="XMLID_103_" d="M278.1,150.1V143h0.9v2.6c0.4-0.5,0.9-0.7,1.6-0.7c0.4,0,0.7,0.1,1,0.2c0.3,0.2,0.5,0.4,0.6,0.6
			c0.1,0.3,0.2,0.7,0.2,1.2v3.3h-0.9v-3.3c0-0.4-0.1-0.8-0.3-1c-0.2-0.2-0.5-0.3-0.8-0.3c-0.3,0-0.5,0.1-0.7,0.2
			c-0.2,0.1-0.4,0.3-0.5,0.5s-0.1,0.5-0.1,1v2.8H278.1z"/>
		<path id="XMLID_105_" d="M287,149.5c-0.3,0.3-0.6,0.5-0.9,0.6c-0.3,0.1-0.6,0.2-1,0.2c-0.6,0-1-0.1-1.3-0.4
			c-0.3-0.3-0.5-0.6-0.5-1.1c0-0.3,0.1-0.5,0.2-0.7c0.1-0.2,0.3-0.4,0.5-0.5c0.2-0.1,0.4-0.2,0.6-0.3c0.2,0,0.4-0.1,0.8-0.1
			c0.7-0.1,1.2-0.2,1.6-0.3c0-0.1,0-0.2,0-0.2c0-0.4-0.1-0.6-0.2-0.8c-0.2-0.2-0.6-0.3-1-0.3c-0.4,0-0.7,0.1-0.9,0.2
			c-0.2,0.1-0.3,0.4-0.4,0.8l-0.9-0.1c0.1-0.4,0.2-0.7,0.4-0.9c0.2-0.2,0.4-0.4,0.8-0.5c0.3-0.1,0.7-0.2,1.2-0.2
			c0.4,0,0.8,0.1,1.1,0.2s0.5,0.2,0.6,0.4c0.1,0.2,0.2,0.4,0.3,0.6c0,0.1,0,0.4,0,0.8v1.2c0,0.8,0,1.3,0.1,1.5
			c0,0.2,0.1,0.4,0.2,0.6h-0.9C287.1,149.9,287.1,149.7,287,149.5z M287,147.5c-0.3,0.1-0.8,0.2-1.4,0.3c-0.4,0.1-0.6,0.1-0.8,0.2
			s-0.3,0.2-0.3,0.3c-0.1,0.1-0.1,0.3-0.1,0.4c0,0.2,0.1,0.4,0.3,0.6c0.2,0.2,0.4,0.2,0.8,0.2c0.3,0,0.6-0.1,0.9-0.2
			c0.3-0.1,0.5-0.4,0.6-0.6c0.1-0.2,0.1-0.5,0.1-0.9V147.5z"/>
		<path id="XMLID_108_" d="M289.2,150.1v-5.2h0.8v0.7c0.2-0.3,0.4-0.5,0.6-0.6c0.3-0.2,0.6-0.2,0.9-0.2c0.4,0,0.7,0.1,0.9,0.2
			c0.2,0.2,0.4,0.4,0.5,0.7c0.4-0.6,0.9-0.9,1.6-0.9c0.5,0,0.9,0.1,1.2,0.4c0.3,0.3,0.4,0.7,0.4,1.3v3.6h-0.9v-3.3
			c0-0.4,0-0.6-0.1-0.8c-0.1-0.2-0.2-0.3-0.3-0.4s-0.3-0.1-0.5-0.1c-0.4,0-0.7,0.1-0.9,0.4c-0.2,0.2-0.4,0.6-0.4,1.2v3h-0.9v-3.4
			c0-0.4-0.1-0.7-0.2-0.9s-0.4-0.3-0.7-0.3c-0.2,0-0.5,0.1-0.7,0.2c-0.2,0.1-0.4,0.3-0.5,0.6s-0.1,0.6-0.1,1.1v2.7H289.2z"/>
		<path id="XMLID_110_" d="M298.4,150.1h-0.8V143h0.9v2.6c0.4-0.5,0.8-0.7,1.4-0.7c0.3,0,0.6,0.1,0.9,0.2c0.3,0.1,0.5,0.3,0.7,0.5
			c0.2,0.2,0.3,0.5,0.4,0.8s0.2,0.7,0.2,1.1c0,0.9-0.2,1.6-0.7,2.1s-1,0.7-1.6,0.7c-0.6,0-1.1-0.3-1.4-0.8V150.1z M298.4,147.5
			c0,0.6,0.1,1.1,0.3,1.3c0.3,0.5,0.7,0.7,1.1,0.7c0.4,0,0.7-0.2,1-0.5c0.3-0.3,0.4-0.8,0.4-1.5c0-0.7-0.1-1.2-0.4-1.5
			c-0.3-0.3-0.6-0.5-1-0.5c-0.4,0-0.7,0.2-1,0.5C298.5,146.4,298.4,146.8,298.4,147.5z"/>
		<path id="XMLID_113_" d="M303.1,150.1v-5.2h0.8v0.8c0.2-0.4,0.4-0.6,0.6-0.7c0.2-0.1,0.4-0.2,0.6-0.2c0.3,0,0.6,0.1,0.9,0.3
			l-0.3,0.8c-0.2-0.1-0.4-0.2-0.6-0.2c-0.2,0-0.4,0.1-0.5,0.2c-0.2,0.1-0.3,0.3-0.3,0.5c-0.1,0.3-0.1,0.7-0.1,1v2.7H303.1z"/>
		<path id="XMLID_115_" d="M306.4,144v-1h0.9v1H306.4z M306.4,150.1v-5.2h0.9v5.2H306.4z"/>
		<path id="XMLID_118_" d="M312.2,148.4l0.9,0.1c-0.1,0.5-0.4,0.9-0.8,1.2s-0.9,0.4-1.5,0.4c-0.8,0-1.4-0.2-1.8-0.7
			c-0.4-0.5-0.7-1.1-0.7-2c0-0.9,0.2-1.5,0.7-2s1-0.7,1.7-0.7c0.7,0,1.3,0.2,1.7,0.7s0.7,1.1,0.7,2c0,0.1,0,0.1,0,0.2h-3.9
			c0,0.6,0.2,1,0.5,1.3s0.7,0.5,1.1,0.5c0.3,0,0.6-0.1,0.8-0.3S312.1,148.8,312.2,148.4z M309.3,147h2.9c0-0.4-0.1-0.8-0.3-1
			c-0.3-0.3-0.6-0.5-1.1-0.5c-0.4,0-0.7,0.1-1,0.4C309.5,146.2,309.4,146.6,309.3,147z"/>
		<path id="XMLID_121_" d="M314.2,150.1v-5.2h0.8v0.7c0.4-0.6,0.9-0.9,1.7-0.9c0.3,0,0.6,0.1,0.9,0.2c0.3,0.1,0.5,0.3,0.6,0.4
			s0.2,0.4,0.3,0.6c0,0.2,0,0.4,0,0.9v3.2h-0.9V147c0-0.4,0-0.6-0.1-0.8c-0.1-0.2-0.2-0.3-0.4-0.4c-0.2-0.1-0.4-0.2-0.6-0.2
			c-0.4,0-0.7,0.1-1,0.4c-0.3,0.2-0.4,0.7-0.4,1.4v2.8H314.2z"/>
		<path id="XMLID_123_" d="M321.7,149.3l0.1,0.8c-0.2,0.1-0.5,0.1-0.7,0.1c-0.3,0-0.6-0.1-0.7-0.2s-0.3-0.2-0.4-0.4
			c-0.1-0.2-0.1-0.5-0.1-1v-3h-0.6v-0.7h0.6v-1.3l0.9-0.5v1.8h0.9v0.7h-0.9v3c0,0.3,0,0.4,0,0.5c0,0.1,0.1,0.1,0.2,0.2
			c0.1,0,0.2,0.1,0.3,0.1C321.4,149.4,321.5,149.3,321.7,149.3z"/>
		<path id="XMLID_125_" d="M322.2,147.5c0-1,0.3-1.7,0.8-2.1c0.4-0.4,1-0.6,1.6-0.6c0.7,0,1.3,0.2,1.7,0.7c0.5,0.5,0.7,1.1,0.7,1.9
			c0,0.7-0.1,1.2-0.3,1.6c-0.2,0.4-0.5,0.7-0.9,0.9c-0.4,0.2-0.8,0.3-1.3,0.3c-0.7,0-1.3-0.2-1.8-0.7
			C322.5,149.1,322.2,148.4,322.2,147.5z M323.1,147.5c0,0.7,0.1,1.2,0.4,1.5c0.3,0.3,0.7,0.5,1.1,0.5c0.4,0,0.8-0.2,1.1-0.5
			s0.4-0.8,0.4-1.5c0-0.6-0.1-1.1-0.4-1.5c-0.3-0.3-0.7-0.5-1.1-0.5c-0.4,0-0.8,0.2-1.1,0.5S323.1,146.9,323.1,147.5z"/>
		<path id="XMLID_128_" d="M329.6,152.1h-1.9v-0.7h1.1v-7.7h-1.1V143h1.9V152.1z"/>
	</g>
	<g id="XMLID_3_">
		<path id="XMLID_4_" d="M442.2,152.1V143h1.9v0.7h-1.1v7.7h1.1v0.7H442.2z"/>
		<path id="XMLID_6_" d="M445,144v-1h0.9v1H445z M445,150.1v-5.2h0.9v5.2H445z"/>
		<path id="XMLID_9_" d="M447.2,150.1v-5.2h0.8v0.7c0.4-0.6,0.9-0.9,1.7-0.9c0.3,0,0.6,0.1,0.9,0.2c0.3,0.1,0.5,0.3,0.6,0.4
			s0.2,0.4,0.3,0.6c0,0.2,0,0.4,0,0.9v3.2h-0.9V147c0-0.4,0-0.6-0.1-0.8c-0.1-0.2-0.2-0.3-0.4-0.4c-0.2-0.1-0.4-0.2-0.6-0.2
			c-0.4,0-0.7,0.1-1,0.4c-0.3,0.2-0.4,0.7-0.4,1.4v2.8H447.2z"/>
		<path id="XMLID_29_" d="M456.2,149.5c-0.3,0.3-0.6,0.5-0.9,0.6c-0.3,0.1-0.6,0.2-1,0.2c-0.6,0-1-0.1-1.3-0.4
			c-0.3-0.3-0.5-0.6-0.5-1.1c0-0.3,0.1-0.5,0.2-0.7c0.1-0.2,0.3-0.4,0.5-0.5c0.2-0.1,0.4-0.2,0.6-0.3c0.2,0,0.4-0.1,0.8-0.1
			c0.7-0.1,1.2-0.2,1.6-0.3c0-0.1,0-0.2,0-0.2c0-0.4-0.1-0.6-0.2-0.8c-0.2-0.2-0.6-0.3-1-0.3c-0.4,0-0.7,0.1-0.9,0.2
			c-0.2,0.1-0.3,0.4-0.4,0.8l-0.9-0.1c0.1-0.4,0.2-0.7,0.4-0.9c0.2-0.2,0.4-0.4,0.8-0.5c0.3-0.1,0.7-0.2,1.2-0.2
			c0.4,0,0.8,0.1,1.1,0.2s0.5,0.2,0.6,0.4c0.1,0.2,0.2,0.4,0.3,0.6c0,0.1,0,0.4,0,0.8v1.2c0,0.8,0,1.3,0.1,1.5
			c0,0.2,0.1,0.4,0.2,0.6h-0.9C456.3,149.9,456.2,149.7,456.2,149.5z M456.1,147.5c-0.3,0.1-0.8,0.2-1.4,0.3
			c-0.4,0.1-0.6,0.1-0.8,0.2s-0.3,0.2-0.3,0.3c-0.1,0.1-0.1,0.3-0.1,0.4c0,0.2,0.1,0.4,0.3,0.6c0.2,0.2,0.4,0.2,0.8,0.2
			c0.3,0,0.6-0.1,0.9-0.2c0.3-0.1,0.5-0.4,0.6-0.6c0.1-0.2,0.1-0.5,0.1-0.9V147.5z"/>
		<path id="XMLID_33_" d="M458.4,152.1v-7.2h0.8v0.7c0.2-0.3,0.4-0.5,0.6-0.6c0.2-0.1,0.5-0.2,0.9-0.2c0.4,0,0.8,0.1,1.2,0.3
			s0.6,0.5,0.8,1c0.2,0.4,0.3,0.9,0.3,1.4c0,0.5-0.1,1-0.3,1.4c-0.2,0.4-0.5,0.8-0.8,1c-0.4,0.2-0.7,0.3-1.1,0.3
			c-0.3,0-0.6-0.1-0.8-0.2c-0.2-0.1-0.4-0.3-0.6-0.5v2.5H458.4z M459.1,147.5c0,0.7,0.1,1.2,0.4,1.5s0.6,0.5,1,0.5
			c0.4,0,0.7-0.2,1-0.5c0.3-0.3,0.4-0.8,0.4-1.5c0-0.7-0.1-1.2-0.4-1.5c-0.3-0.3-0.6-0.5-1-0.5c-0.4,0-0.7,0.2-1,0.5
			C459.3,146.4,459.1,146.9,459.1,147.5z"/>
		<path id="XMLID_83_" d="M467.5,148.4l0.9,0.1c-0.1,0.5-0.4,0.9-0.8,1.2s-0.9,0.4-1.5,0.4c-0.8,0-1.4-0.2-1.8-0.7
			c-0.4-0.5-0.7-1.1-0.7-2c0-0.9,0.2-1.5,0.7-2s1-0.7,1.7-0.7c0.7,0,1.3,0.2,1.7,0.7s0.7,1.1,0.7,2c0,0.1,0,0.1,0,0.2h-3.9
			c0,0.6,0.2,1,0.5,1.3s0.7,0.5,1.1,0.5c0.3,0,0.6-0.1,0.8-0.3S467.3,148.8,467.5,148.4z M464.6,147h2.9c0-0.4-0.1-0.8-0.3-1
			c-0.3-0.3-0.6-0.5-1.1-0.5c-0.4,0-0.7,0.1-1,0.4C464.8,146.2,464.6,146.6,464.6,147z"/>
		<path id="XMLID_86_" d="M471.4,149.3l0.1,0.8c-0.2,0.1-0.5,0.1-0.7,0.1c-0.3,0-0.6-0.1-0.7-0.2s-0.3-0.2-0.4-0.4
			c-0.1-0.2-0.1-0.5-0.1-1v-3H469v-0.7h0.6v-1.3l0.9-0.5v1.8h0.9v0.7h-0.9v3c0,0.3,0,0.4,0,0.5c0,0.1,0.1,0.1,0.2,0.2
			c0.1,0,0.2,0.1,0.3,0.1C471.1,149.4,471.2,149.3,471.4,149.3z"/>
		<path id="XMLID_88_" d="M475.8,148.4l0.9,0.1c-0.1,0.5-0.4,0.9-0.8,1.2s-0.9,0.4-1.5,0.4c-0.8,0-1.4-0.2-1.8-0.7
			c-0.4-0.5-0.7-1.1-0.7-2c0-0.9,0.2-1.5,0.7-2s1-0.7,1.7-0.7c0.7,0,1.3,0.2,1.7,0.7s0.7,1.1,0.7,2c0,0.1,0,0.1,0,0.2h-3.9
			c0,0.6,0.2,1,0.5,1.3s0.7,0.5,1.1,0.5c0.3,0,0.6-0.1,0.8-0.3S475.7,148.8,475.8,148.4z M472.9,147h2.9c0-0.4-0.1-0.8-0.3-1
			c-0.3-0.3-0.6-0.5-1.1-0.5c-0.4,0-0.7,0.1-1,0.4C473.1,146.2,472.9,146.6,472.9,147z"/>
		<path id="XMLID_91_" d="M477.8,150.1v-5.2h0.8v0.7c0.4-0.6,0.9-0.9,1.7-0.9c0.3,0,0.6,0.1,0.9,0.2c0.3,0.1,0.5,0.3,0.6,0.4
			s0.2,0.4,0.3,0.6c0,0.2,0,0.4,0,0.9v3.2h-0.9V147c0-0.4,0-0.6-0.1-0.8c-0.1-0.2-0.2-0.3-0.4-0.4c-0.2-0.1-0.4-0.2-0.6-0.2
			c-0.4,0-0.7,0.1-1,0.4c-0.3,0.2-0.4,0.7-0.4,1.4v2.8H477.8z"/>
		<path id="XMLID_93_" d="M485.3,149.3l0.1,0.8c-0.2,0.1-0.5,0.1-0.7,0.1c-0.3,0-0.6-0.1-0.7-0.2s-0.3-0.2-0.4-0.4
			c-0.1-0.2-0.1-0.5-0.1-1v-3h-0.6v-0.7h0.6v-1.3l0.9-0.5v1.8h0.9v0.7h-0.9v3c0,0.3,0,0.4,0,0.5c0,0.1,0.1,0.1,0.2,0.2
			c0.1,0,0.2,0.1,0.3,0.1C485,149.4,485.1,149.3,485.3,149.3z"/>
		<path id="XMLID_95_" d="M489.7,148.4l0.9,0.1c-0.1,0.5-0.4,0.9-0.8,1.2s-0.9,0.4-1.5,0.4c-0.8,0-1.4-0.2-1.8-0.7
			c-0.4-0.5-0.7-1.1-0.7-2c0-0.9,0.2-1.5,0.7-2s1-0.7,1.7-0.7c0.7,0,1.3,0.2,1.7,0.7s0.7,1.1,0.7,2c0,0.1,0,0.1,0,0.2h-3.9
			c0,0.6,0.2,1,0.5,1.3s0.7,0.5,1.1,0.5c0.3,0,0.6-0.1,0.8-0.3S489.6,148.8,489.7,148.4z M486.8,147h2.9c0-0.4-0.1-0.8-0.3-1
			c-0.3-0.3-0.6-0.5-1.1-0.5c-0.4,0-0.7,0.1-1,0.4C487,146.2,486.8,146.6,486.8,147z"/>
		<path id="XMLID_98_" d="M493.2,152.1h-1.9v-0.7h1.1v-7.7h-1.1V143h1.9V152.1z"/>
	</g>
	
		<rect id="XMLID_7283_" x="380.3" y="112" transform="matrix(0.7071 0.7071 -0.7071 0.7071 199.8826 -239.9356)" class="st6" width="18.6" height="18.6"/>
</g>
</svg>
