<?xml version="1.0" encoding="utf-8"?>
<!-- Generator: Adobe Illustrator 19.0.0, SVG Export Plug-In . SVG Version: 6.00 Build 0)  -->
<svg version="1.1" id="Capa_1" xmlns="http://www.w3.org/2000/svg" xmlns:xlink="http://www.w3.org/1999/xlink" x="0px" y="0px"
	 viewBox="0 0 258.2 312.2" style="enable-background:new 0 0 258.2 312.2;" xml:space="preserve">
<style type="text/css">
	.st0{fill:none;stroke:#494949;stroke-width:2;stroke-miterlimit:10;}
	.st1{fill:#494949;}
	.st2{fill:#252527;}
	.st3{fill:none;stroke:#252527;stroke-width:3;stroke-miterlimit:10;}
	.st4{fill:#FFFFFF;stroke:#F29422;stroke-width:3;stroke-miterlimit:10;}
	.st5{fill:#FFFFFF;stroke:#0367A6;stroke-width:3;stroke-miterlimit:10;}
	.st6{stroke:#494949;stroke-width:5;stroke-miterlimit:10;}
</style>
<g id="XMLID_8911_">
	<g id="XMLID_9141_">
		<line id="XMLID_62_" x1="129.1" y1="251.9" x2="129.1" y2="282.1"/>
		<g id="XMLID_58_">
			<line id="XMLID_61_" class="st0" x1="129.1" y1="251.9" x2="129.1" y2="275.1"/>
			<g id="XMLID_59_">
				<polygon id="XMLID_60_" class="st1" points="129.1,282.1 125,272.2 129.1,274.6 133.1,272.2 				"/>
			</g>
		</g>
	</g>
	<g id="XMLID_9137_">
		<circle id="XMLID_9138_" class="st2" cx="129.1" cy="10.8" r="10.8"/>
	</g>
	<g id="XMLID_9130_">
		<circle id="XMLID_9134_" class="st2" cx="129.1" cy="297.1" r="10.8"/>
		<circle id="XMLID_9131_" class="st3" cx="129.1" cy="297.1" r="13.6"/>
	</g>
	<path id="XMLID_9129_" class="st4" d="M161.4,90.6H96.7c-7.9,0-14.3-6.4-14.3-14.3V66c0-7.9,6.4-14.3,14.3-14.3h64.7
		c7.9,0,14.3,6.4,14.3,14.3v10.3C175.7,84.1,169.3,90.6,161.4,90.6z"/>
	<g id="XMLID_85_">
		<path id="XMLID_86_" d="M107.1,66.9v-8.6h5.8v1h-4.7V62h4v1h-4v3.9H107.1z"/>
		<path id="XMLID_88_" d="M114.2,59.6v-1.2h1.1v1.2H114.2z M114.2,66.9v-6.2h1.1v6.2H114.2z"/>
		<path id="XMLID_91_" d="M116.9,66.9v-6.2h0.9v0.9c0.5-0.7,1.1-1,2-1c0.4,0,0.7,0.1,1,0.2s0.5,0.3,0.7,0.5s0.3,0.5,0.3,0.8
			c0,0.2,0.1,0.5,0.1,1v3.8h-1.1v-3.8c0-0.4,0-0.8-0.1-1s-0.2-0.4-0.4-0.5s-0.5-0.2-0.7-0.2c-0.4,0-0.8,0.1-1.2,0.4
			s-0.5,0.8-0.5,1.6v3.4H116.9z"/>
		<path id="XMLID_93_" d="M130.9,66.9v-0.8c-0.4,0.6-1,0.9-1.7,0.9c-0.5,0-1-0.1-1.4-0.4c-0.4-0.3-0.7-0.7-1-1.1s-0.3-1.1-0.3-1.7
			c0-0.6,0.1-1.2,0.3-1.7s0.5-0.9,0.9-1.2c0.4-0.3,0.9-0.4,1.4-0.4c0.4,0,0.7,0.1,1,0.2s0.5,0.4,0.7,0.6v-3.1h1v8.6H130.9z
			 M127.6,63.8c0,0.8,0.2,1.4,0.5,1.8c0.3,0.4,0.7,0.6,1.2,0.6c0.5,0,0.9-0.2,1.2-0.6c0.3-0.4,0.5-1,0.5-1.7c0-0.9-0.2-1.5-0.5-1.9
			c-0.3-0.4-0.7-0.6-1.2-0.6c-0.5,0-0.9,0.2-1.2,0.6C127.7,62.4,127.6,63,127.6,63.8z"/>
		<path id="XMLID_96_" d="M137.8,64.9l1.1,0.1c-0.2,0.6-0.5,1.1-1,1.5s-1.1,0.5-1.8,0.5c-0.9,0-1.6-0.3-2.2-0.8s-0.8-1.3-0.8-2.4
			c0-1,0.3-1.9,0.8-2.4s1.2-0.9,2.1-0.9c0.8,0,1.5,0.3,2,0.8s0.8,1.4,0.8,2.4c0,0.1,0,0.2,0,0.3h-4.6c0,0.7,0.2,1.2,0.6,1.6
			s0.8,0.5,1.3,0.5c0.4,0,0.7-0.1,1-0.3S137.6,65.4,137.8,64.9z M134.3,63.2h3.5c0-0.5-0.2-0.9-0.4-1.2c-0.3-0.4-0.8-0.6-1.3-0.6
			c-0.5,0-0.9,0.2-1.2,0.5S134.4,62.7,134.3,63.2z"/>
		<path id="XMLID_99_" d="M143.5,66.9v-8.6h1.1v8.6H143.5z"/>
		<path id="XMLID_101_" d="M150.3,66.2c-0.4,0.3-0.8,0.6-1.1,0.7s-0.8,0.2-1.2,0.2c-0.7,0-1.2-0.2-1.6-0.5s-0.6-0.8-0.6-1.3
			c0-0.3,0.1-0.6,0.2-0.8s0.3-0.5,0.5-0.6c0.2-0.2,0.5-0.3,0.8-0.3c0.2-0.1,0.5-0.1,0.9-0.2c0.9-0.1,1.5-0.2,1.9-0.4
			c0-0.1,0-0.2,0-0.3c0-0.4-0.1-0.7-0.3-0.9c-0.3-0.2-0.7-0.4-1.2-0.4c-0.5,0-0.9,0.1-1.1,0.3s-0.4,0.5-0.5,0.9l-1-0.1
			c0.1-0.4,0.2-0.8,0.5-1.1s0.5-0.5,0.9-0.6s0.9-0.2,1.4-0.2c0.5,0,1,0.1,1.3,0.2s0.6,0.3,0.7,0.5s0.3,0.4,0.3,0.7
			c0,0.2,0.1,0.5,0.1,1v1.4c0,1,0,1.6,0.1,1.9s0.1,0.5,0.3,0.7h-1.1C150.4,66.7,150.3,66.5,150.3,66.2z M150.2,63.8
			c-0.4,0.2-1,0.3-1.7,0.4c-0.4,0.1-0.7,0.1-0.9,0.2s-0.3,0.2-0.4,0.3s-0.1,0.3-0.1,0.5c0,0.3,0.1,0.5,0.3,0.7s0.5,0.3,0.9,0.3
			c0.4,0,0.8-0.1,1.1-0.3s0.5-0.4,0.7-0.7c0.1-0.2,0.2-0.6,0.2-1.1V63.8z"/>
		<path id="XMLID_104_" d="M108.5,84.7l0.2-0.9c0.2,0.1,0.4,0.1,0.5,0.1c0.2,0,0.4-0.1,0.5-0.2s0.2-0.5,0.2-1.1v-6.5h1.1v6.6
			c0,0.8-0.1,1.3-0.3,1.6c-0.3,0.4-0.7,0.6-1.3,0.6C109.1,84.8,108.8,84.8,108.5,84.7z M109.8,74.9v-1.2h1.1v1.2H109.8z"/>
		<path id="XMLID_107_" d="M112.1,79.2c0-1.2,0.3-2,1-2.6c0.5-0.5,1.2-0.7,2-0.7c0.9,0,1.6,0.3,2.1,0.8s0.8,1.3,0.8,2.3
			c0,0.8-0.1,1.4-0.4,1.9s-0.6,0.8-1,1.1s-1,0.4-1.5,0.4c-0.9,0-1.6-0.3-2.1-0.8S112.1,80.2,112.1,79.2z M113.2,79.2
			c0,0.8,0.2,1.4,0.5,1.8s0.8,0.6,1.3,0.6c0.5,0,1-0.2,1.3-0.6s0.5-1,0.5-1.8c0-0.8-0.2-1.4-0.5-1.7s-0.8-0.6-1.3-0.6
			c-0.5,0-1,0.2-1.3,0.6S113.2,78.4,113.2,79.2z"/>
		<path id="XMLID_110_" d="M119.2,82.3v-6.2h0.9V77c0.2-0.4,0.5-0.7,0.7-0.9s0.4-0.2,0.7-0.2c0.4,0,0.7,0.1,1.1,0.3l-0.4,1
			c-0.3-0.2-0.5-0.2-0.8-0.2c-0.2,0-0.4,0.1-0.6,0.2s-0.3,0.3-0.4,0.6c-0.1,0.4-0.2,0.8-0.2,1.2v3.3H119.2z"/>
		<path id="XMLID_112_" d="M123.2,82.3v-6.2h0.9v0.9c0.5-0.7,1.1-1,2-1c0.4,0,0.7,0.1,1,0.2s0.5,0.3,0.7,0.5
			c0.2,0.2,0.3,0.5,0.3,0.8c0,0.2,0.1,0.5,0.1,1v3.8h-1.1v-3.8c0-0.4,0-0.8-0.1-1s-0.2-0.4-0.4-0.5s-0.5-0.2-0.7-0.2
			c-0.4,0-0.8,0.1-1.2,0.4s-0.5,0.8-0.5,1.6v3.4H123.2z"/>
		<path id="XMLID_114_" d="M133.9,81.5c-0.4,0.3-0.8,0.6-1.1,0.7s-0.7,0.2-1.2,0.2c-0.7,0-1.2-0.2-1.6-0.5s-0.6-0.8-0.6-1.3
			c0-0.3,0.1-0.6,0.2-0.8s0.3-0.5,0.5-0.6c0.2-0.2,0.5-0.3,0.8-0.3c0.2-0.1,0.5-0.1,0.9-0.2c0.9-0.1,1.5-0.2,1.9-0.4
			c0-0.1,0-0.2,0-0.3c0-0.4-0.1-0.7-0.3-0.9c-0.3-0.2-0.7-0.4-1.2-0.4c-0.5,0-0.9,0.1-1.1,0.3s-0.4,0.5-0.5,0.9l-1-0.1
			c0.1-0.4,0.2-0.8,0.5-1.1s0.5-0.5,0.9-0.6s0.9-0.2,1.4-0.2c0.5,0,1,0.1,1.3,0.2s0.6,0.3,0.7,0.5s0.3,0.4,0.3,0.7
			c0,0.2,0.1,0.5,0.1,1v1.4c0,1,0,1.6,0.1,1.9s0.1,0.5,0.3,0.7h-1.1C134,82.1,134,81.8,133.9,81.5z M133.8,79.2
			c-0.4,0.2-1,0.3-1.7,0.4c-0.4,0.1-0.7,0.1-0.9,0.2s-0.3,0.2-0.4,0.3s-0.1,0.3-0.1,0.5c0,0.3,0.1,0.5,0.3,0.7s0.5,0.3,0.9,0.3
			c0.4,0,0.8-0.1,1.1-0.3s0.5-0.4,0.7-0.7c0.1-0.2,0.2-0.6,0.2-1.1V79.2z"/>
		<path id="XMLID_117_" d="M140.6,82.3v-0.8c-0.4,0.6-1,0.9-1.7,0.9c-0.5,0-1-0.1-1.4-0.4s-0.7-0.7-1-1.1s-0.3-1.1-0.3-1.7
			c0-0.6,0.1-1.2,0.3-1.7s0.5-0.9,0.9-1.2s0.9-0.4,1.4-0.4c0.4,0,0.7,0.1,1,0.2s0.5,0.4,0.7,0.6v-3.1h1v8.6H140.6z M137.2,79.2
			c0,0.8,0.2,1.4,0.5,1.8s0.7,0.6,1.2,0.6c0.5,0,0.9-0.2,1.2-0.6s0.5-1,0.5-1.7c0-0.9-0.2-1.5-0.5-1.9s-0.7-0.6-1.2-0.6
			c-0.5,0-0.9,0.2-1.2,0.6S137.2,78.4,137.2,79.2z"/>
		<path id="XMLID_120_" d="M147.3,81.5c-0.4,0.3-0.8,0.6-1.1,0.7s-0.7,0.2-1.2,0.2c-0.7,0-1.2-0.2-1.6-0.5s-0.6-0.8-0.6-1.3
			c0-0.3,0.1-0.6,0.2-0.8s0.3-0.5,0.5-0.6s0.5-0.3,0.8-0.3c0.2-0.1,0.5-0.1,0.9-0.2c0.9-0.1,1.5-0.2,1.9-0.4c0-0.1,0-0.2,0-0.3
			c0-0.4-0.1-0.7-0.3-0.9c-0.3-0.2-0.7-0.4-1.2-0.4c-0.5,0-0.9,0.1-1.1,0.3s-0.4,0.5-0.5,0.9l-1-0.1c0.1-0.4,0.2-0.8,0.5-1.1
			s0.5-0.5,0.9-0.6s0.9-0.2,1.4-0.2c0.5,0,1,0.1,1.3,0.2s0.6,0.3,0.7,0.5s0.3,0.4,0.3,0.7c0,0.2,0.1,0.5,0.1,1v1.4
			c0,1,0,1.6,0.1,1.9s0.1,0.5,0.3,0.7h-1.1C147.4,82.1,147.3,81.8,147.3,81.5z M147.2,79.2c-0.4,0.2-1,0.3-1.7,0.4
			c-0.4,0.1-0.7,0.1-0.9,0.2s-0.3,0.2-0.4,0.3s-0.1,0.3-0.1,0.5c0,0.3,0.1,0.5,0.3,0.7s0.5,0.3,0.9,0.3c0.4,0,0.8-0.1,1.1-0.3
			s0.5-0.4,0.7-0.7c0.1-0.2,0.2-0.6,0.2-1.1V79.2z"/>
	</g>
	<g id="XMLID_9116_">
		<line id="XMLID_50_" x1="129.1" y1="21.5" x2="129.1" y2="51.7"/>
		<g id="XMLID_46_">
			<line id="XMLID_49_" class="st0" x1="129.1" y1="21.5" x2="129.1" y2="44.6"/>
			<g id="XMLID_47_">
				<polygon id="XMLID_48_" class="st1" points="129.1,51.7 125,41.7 129.1,44.1 133.1,41.7 				"/>
			</g>
		</g>
	</g>
	<g id="XMLID_8916_">
		<line id="XMLID_44_" x1="129.1" y1="93.8" x2="129.1" y2="124.1"/>
		<g id="XMLID_40_">
			<line id="XMLID_43_" class="st0" x1="129.1" y1="93.8" x2="129.1" y2="117"/>
			<g id="XMLID_41_">
				<polygon id="XMLID_42_" class="st1" points="129.1,124.1 125,114.1 129.1,116.5 133.1,114.1 				"/>
			</g>
		</g>
	</g>
	<g id="XMLID_8910_">
		<path id="XMLID_9127_" class="st5" d="M88.9,208.6H24.2c-7.9,0-14.3-6.4-14.3-14.3V184c0-7.9,6.4-14.3,14.3-14.3h64.7
			c7.9,0,14.3,6.4,14.3,14.3v10.3C103.2,202.2,96.7,208.6,88.9,208.6z"/>
		<g id="XMLID_71_">
			<path id="XMLID_72_" d="M43.4,193.5v-8.6h3.2c0.7,0,1.2,0.1,1.6,0.3s0.7,0.4,0.9,0.8s0.3,0.7,0.3,1.1c0,0.4-0.1,0.7-0.3,1
				s-0.5,0.6-0.9,0.8c0.5,0.2,0.9,0.4,1.2,0.8s0.4,0.8,0.4,1.3c0,0.4-0.1,0.8-0.3,1.1s-0.4,0.6-0.6,0.8s-0.6,0.3-0.9,0.4
				s-0.8,0.1-1.4,0.1H43.4z M44.5,188.5h1.9c0.5,0,0.9,0,1.1-0.1c0.3-0.1,0.5-0.2,0.7-0.4s0.2-0.4,0.2-0.8c0-0.3-0.1-0.5-0.2-0.8
				s-0.3-0.4-0.6-0.4s-0.7-0.1-1.3-0.1h-1.7V188.5z M44.5,192.5h2.1c0.4,0,0.6,0,0.8,0c0.3,0,0.5-0.1,0.7-0.2s0.3-0.3,0.4-0.5
				s0.2-0.5,0.2-0.7c0-0.3-0.1-0.6-0.2-0.8s-0.4-0.4-0.7-0.5s-0.7-0.1-1.3-0.1h-2V192.5z"/>
			<path id="XMLID_76_" d="M55.4,192.7c-0.4,0.3-0.8,0.6-1.1,0.7s-0.7,0.2-1.2,0.2c-0.7,0-1.2-0.2-1.6-0.5s-0.6-0.8-0.6-1.3
				c0-0.3,0.1-0.6,0.2-0.8s0.3-0.5,0.5-0.6s0.5-0.3,0.8-0.3c0.2-0.1,0.5-0.1,0.9-0.2c0.9-0.1,1.5-0.2,1.9-0.4c0-0.1,0-0.2,0-0.3
				c0-0.4-0.1-0.7-0.3-0.9c-0.3-0.2-0.7-0.4-1.2-0.4c-0.5,0-0.9,0.1-1.1,0.3s-0.4,0.5-0.5,0.9l-1-0.1c0.1-0.4,0.2-0.8,0.5-1.1
				s0.5-0.5,0.9-0.6s0.9-0.2,1.4-0.2c0.5,0,1,0.1,1.3,0.2s0.6,0.3,0.7,0.5s0.3,0.4,0.3,0.7c0,0.2,0.1,0.5,0.1,1v1.4
				c0,1,0,1.6,0.1,1.9s0.1,0.5,0.3,0.7h-1.1C55.5,193.3,55.4,193,55.4,192.7z M55.3,190.4c-0.4,0.2-1,0.3-1.7,0.4
				c-0.4,0.1-0.7,0.1-0.9,0.2s-0.3,0.2-0.4,0.3s-0.1,0.3-0.1,0.5c0,0.3,0.1,0.5,0.3,0.7s0.5,0.3,0.9,0.3c0.4,0,0.8-0.1,1.1-0.3
				s0.5-0.4,0.7-0.7c0.1-0.2,0.2-0.6,0.2-1.1V190.4z"/>
			<path id="XMLID_79_" d="M58,193.5v-6.2h0.9v0.9c0.5-0.7,1.1-1,2-1c0.4,0,0.7,0.1,1,0.2s0.5,0.3,0.7,0.5s0.3,0.5,0.3,0.8
				c0,0.2,0.1,0.5,0.1,1v3.8H62v-3.8c0-0.4,0-0.8-0.1-1s-0.2-0.4-0.4-0.5S61,188,60.7,188c-0.4,0-0.8,0.1-1.2,0.4s-0.5,0.8-0.5,1.6
				v3.4H58z M58.7,186.3c0-0.4,0.1-0.7,0.3-1c0.2-0.2,0.5-0.4,0.9-0.4c0.2,0,0.6,0.1,1,0.3c0.2,0.1,0.4,0.2,0.6,0.2
				c0.1,0,0.2,0,0.3-0.1s0.1-0.2,0.1-0.4h0.8c0,0.4-0.1,0.8-0.3,1s-0.5,0.3-0.8,0.3c-0.2,0-0.6-0.1-1-0.3c-0.3-0.1-0.5-0.2-0.6-0.2
				c-0.1,0-0.2,0-0.3,0.1c-0.1,0.1-0.1,0.2-0.1,0.4H58.7z"/>
			<path id="XMLID_82_" d="M64.3,190.4c0-1.2,0.3-2,1-2.6c0.5-0.5,1.2-0.7,2-0.7c0.9,0,1.6,0.3,2.1,0.8s0.8,1.3,0.8,2.3
				c0,0.8-0.1,1.4-0.4,1.9s-0.6,0.8-1,1.1s-1,0.4-1.5,0.4c-0.9,0-1.6-0.3-2.1-0.8S64.3,191.4,64.3,190.4z M65.3,190.4
				c0,0.8,0.2,1.4,0.5,1.8s0.8,0.6,1.3,0.6c0.5,0,1-0.2,1.3-0.6s0.5-1,0.5-1.8c0-0.8-0.2-1.4-0.5-1.7s-0.8-0.6-1.3-0.6
				c-0.5,0-1,0.2-1.3,0.6S65.3,189.6,65.3,190.4z"/>
		</g>
		<path id="XMLID_9125_" class="st5" d="M234,208.6h-64.7c-7.9,0-14.3-6.4-14.3-14.3V184c0-7.9,6.4-14.3,14.3-14.3H234
			c7.9,0,14.3,6.4,14.3,14.3v10.3C248.3,202.2,241.9,208.6,234,208.6z"/>
		<g id="XMLID_2_">
			<path id="XMLID_3_" d="M175.9,193.5v-8.6h3c0.7,0,1.2,0,1.5,0.1c0.5,0.1,0.9,0.3,1.3,0.6c0.5,0.4,0.8,0.9,1,1.5s0.3,1.3,0.3,2
				c0,0.7-0.1,1.2-0.2,1.7s-0.3,0.9-0.6,1.3s-0.5,0.6-0.8,0.8s-0.6,0.3-1,0.4s-0.9,0.1-1.4,0.1H175.9z M177,192.5h1.8
				c0.6,0,1-0.1,1.3-0.2s0.6-0.3,0.8-0.4c0.3-0.3,0.5-0.6,0.6-1.1s0.2-1,0.2-1.7c0-0.9-0.1-1.6-0.4-2.1s-0.7-0.8-1.1-1
				c-0.3-0.1-0.8-0.2-1.5-0.2H177V192.5z"/>
			<path id="XMLID_6_" d="M188.7,191.5l1.1,0.1c-0.2,0.6-0.5,1.1-1,1.5s-1.1,0.5-1.8,0.5c-0.9,0-1.6-0.3-2.2-0.8s-0.8-1.3-0.8-2.4
				c0-1,0.3-1.9,0.8-2.4s1.2-0.9,2.1-0.9c0.8,0,1.5,0.3,2,0.8s0.8,1.4,0.8,2.4c0,0.1,0,0.2,0,0.3h-4.6c0,0.7,0.2,1.2,0.6,1.6
				s0.8,0.5,1.3,0.5c0.4,0,0.7-0.1,1-0.3S188.5,191.9,188.7,191.5z M185.2,189.8h3.5c0-0.5-0.2-0.9-0.4-1.2
				c-0.3-0.4-0.8-0.6-1.3-0.6c-0.5,0-0.9,0.2-1.2,0.5S185.3,189.2,185.2,189.8z"/>
			<path id="XMLID_9_" d="M190.7,191.6l1-0.2c0.1,0.4,0.2,0.7,0.5,1s0.6,0.3,1.1,0.3c0.5,0,0.8-0.1,1.1-0.3s0.4-0.4,0.4-0.7
				c0-0.2-0.1-0.4-0.3-0.6c-0.1-0.1-0.5-0.2-1.1-0.4c-0.8-0.2-1.3-0.4-1.6-0.5s-0.5-0.3-0.7-0.6s-0.2-0.5-0.2-0.8
				c0-0.3,0.1-0.5,0.2-0.8s0.3-0.4,0.5-0.6c0.2-0.1,0.4-0.2,0.7-0.3s0.6-0.1,0.9-0.1c0.5,0,0.9,0.1,1.3,0.2s0.6,0.3,0.8,0.6
				s0.3,0.6,0.4,1l-1,0.1c0-0.3-0.2-0.6-0.4-0.8s-0.5-0.3-1-0.3c-0.5,0-0.8,0.1-1,0.2s-0.3,0.3-0.3,0.6c0,0.1,0,0.3,0.1,0.4
				c0.1,0.1,0.2,0.2,0.4,0.3c0.1,0,0.4,0.1,0.9,0.3c0.7,0.2,1.3,0.4,1.6,0.5s0.5,0.3,0.7,0.6s0.3,0.5,0.3,0.9c0,0.4-0.1,0.7-0.3,1
				s-0.5,0.6-0.9,0.7s-0.8,0.3-1.3,0.3c-0.8,0-1.4-0.2-1.8-0.5S190.8,192.3,190.7,191.6z"/>
			<path id="XMLID_17_" d="M201.2,191.2l1,0.1c-0.1,0.7-0.4,1.3-0.9,1.7s-1,0.6-1.7,0.6c-0.9,0-1.5-0.3-2.1-0.8s-0.8-1.4-0.8-2.4
				c0-0.7,0.1-1.3,0.3-1.8s0.6-0.9,1-1.1s1-0.4,1.5-0.4c0.7,0,1.2,0.2,1.7,0.5s0.7,0.8,0.8,1.5l-1,0.2c-0.1-0.4-0.3-0.7-0.5-0.9
				s-0.5-0.3-0.9-0.3c-0.5,0-1,0.2-1.3,0.6s-0.5,1-0.5,1.8c0,0.8,0.2,1.4,0.5,1.8s0.7,0.6,1.3,0.6c0.4,0,0.8-0.1,1-0.4
				S201.1,191.7,201.2,191.2z"/>
			<path id="XMLID_19_" d="M207.2,192.7c-0.4,0.3-0.8,0.6-1.1,0.7s-0.7,0.2-1.2,0.2c-0.7,0-1.2-0.2-1.6-0.5s-0.6-0.8-0.6-1.3
				c0-0.3,0.1-0.6,0.2-0.8s0.3-0.5,0.5-0.6s0.5-0.3,0.8-0.3c0.2-0.1,0.5-0.1,0.9-0.2c0.9-0.1,1.5-0.2,1.9-0.4c0-0.1,0-0.2,0-0.3
				c0-0.4-0.1-0.7-0.3-0.9c-0.3-0.2-0.7-0.4-1.2-0.4c-0.5,0-0.9,0.1-1.1,0.3s-0.4,0.5-0.5,0.9l-1-0.1c0.1-0.4,0.2-0.8,0.5-1.1
				s0.5-0.5,0.9-0.6s0.9-0.2,1.4-0.2c0.5,0,1,0.1,1.3,0.2s0.6,0.3,0.7,0.5s0.3,0.4,0.3,0.7c0,0.2,0.1,0.5,0.1,1v1.4
				c0,1,0,1.6,0.1,1.9s0.1,0.5,0.3,0.7h-1.1C207.3,193.3,207.2,193,207.2,192.7z M207.1,190.4c-0.4,0.2-1,0.3-1.7,0.4
				c-0.4,0.1-0.7,0.1-0.9,0.2s-0.3,0.2-0.4,0.3s-0.1,0.3-0.1,0.5c0,0.3,0.1,0.5,0.3,0.7s0.5,0.3,0.9,0.3c0.4,0,0.8-0.1,1.1-0.3
				s0.5-0.4,0.7-0.7c0.1-0.2,0.2-0.6,0.2-1.1V190.4z"/>
			<path id="XMLID_64_" d="M209.8,193.5v-6.2h0.9v0.9c0.5-0.7,1.1-1,2-1c0.4,0,0.7,0.1,1,0.2s0.5,0.3,0.7,0.5s0.3,0.5,0.3,0.8
				c0,0.2,0.1,0.5,0.1,1v3.8h-1.1v-3.8c0-0.4,0-0.8-0.1-1s-0.2-0.4-0.4-0.5s-0.5-0.2-0.7-0.2c-0.4,0-0.8,0.1-1.2,0.4
				s-0.5,0.8-0.5,1.6v3.4H209.8z"/>
			<path id="XMLID_66_" d="M216,191.6l1-0.2c0.1,0.4,0.2,0.7,0.5,1s0.6,0.3,1.1,0.3c0.5,0,0.8-0.1,1.1-0.3s0.4-0.4,0.4-0.7
				c0-0.2-0.1-0.4-0.3-0.6c-0.1-0.1-0.5-0.2-1.1-0.4c-0.8-0.2-1.3-0.4-1.6-0.5s-0.5-0.3-0.7-0.6s-0.2-0.5-0.2-0.8
				c0-0.3,0.1-0.5,0.2-0.8s0.3-0.4,0.5-0.6c0.2-0.1,0.4-0.2,0.7-0.3s0.6-0.1,0.9-0.1c0.5,0,0.9,0.1,1.3,0.2s0.6,0.3,0.8,0.6
				s0.3,0.6,0.4,1l-1,0.1c0-0.3-0.2-0.6-0.4-0.8s-0.5-0.3-1-0.3c-0.5,0-0.8,0.1-1,0.2s-0.3,0.3-0.3,0.6c0,0.1,0,0.3,0.1,0.4
				c0.1,0.1,0.2,0.2,0.4,0.3c0.1,0,0.4,0.1,0.9,0.3c0.7,0.2,1.3,0.4,1.6,0.5s0.5,0.3,0.7,0.6s0.3,0.5,0.3,0.9c0,0.4-0.1,0.7-0.3,1
				s-0.5,0.6-0.9,0.7s-0.8,0.3-1.3,0.3c-0.8,0-1.4-0.2-1.8-0.5S216.1,192.3,216,191.6z"/>
			<path id="XMLID_68_" d="M222.1,190.4c0-1.2,0.3-2,1-2.6c0.5-0.5,1.2-0.7,2-0.7c0.9,0,1.6,0.3,2.1,0.8s0.8,1.3,0.8,2.3
				c0,0.8-0.1,1.4-0.4,1.9s-0.6,0.8-1,1.1s-1,0.4-1.5,0.4c-0.9,0-1.6-0.3-2.1-0.8S222.1,191.4,222.1,190.4z M223.1,190.4
				c0,0.8,0.2,1.4,0.5,1.8s0.8,0.6,1.3,0.6c0.5,0,1-0.2,1.3-0.6s0.5-1,0.5-1.8c0-0.8-0.2-1.4-0.5-1.7s-0.8-0.6-1.3-0.6
				c-0.5,0-1,0.2-1.3,0.6S223.1,189.6,223.1,190.4z"/>
		</g>
		<g id="XMLID_8956_">
			<line id="XMLID_38_" x1="203.2" y1="128.4" x2="203.2" y2="168.6"/>
			<g id="XMLID_34_">
				<line id="XMLID_37_" class="st0" x1="203.2" y1="128.4" x2="203.2" y2="161.5"/>
				<g id="XMLID_35_">
					<polygon id="XMLID_36_" class="st1" points="203.2,168.6 199.2,158.7 203.2,161 207.3,158.7 					"/>
				</g>
			</g>
		</g>
		<g id="XMLID_8924_">
			<line id="XMLID_32_" x1="54.9" y1="128.4" x2="54.9" y2="168.6"/>
			<g id="XMLID_28_">
				<line id="XMLID_31_" class="st0" x1="54.9" y1="128.4" x2="54.9" y2="161.5"/>
				<g id="XMLID_29_">
					<polygon id="XMLID_30_" class="st1" points="54.9,168.6 50.9,158.7 54.9,161 59,158.7 					"/>
				</g>
			</g>
		</g>
		<g id="XMLID_8960_">
			<line id="XMLID_26_" x1="203.2" y1="208.6" x2="203.2" y2="248.8"/>
			<g id="XMLID_22_">
				<line id="XMLID_25_" class="st0" x1="203.2" y1="208.6" x2="203.2" y2="241.8"/>
				<g id="XMLID_23_">
					<polygon id="XMLID_24_" class="st1" points="203.2,248.8 199.2,238.9 203.2,241.2 207.3,238.9 					"/>
				</g>
			</g>
		</g>
		<g id="XMLID_8925_">
			<line id="XMLID_56_" x1="54.9" y1="208.6" x2="54.9" y2="248.8"/>
			<g id="XMLID_51_">
				<line id="XMLID_55_" class="st0" x1="54.9" y1="208.6" x2="54.9" y2="241.8"/>
				<g id="XMLID_53_">
					<polygon id="XMLID_54_" class="st1" points="54.9,248.8 50.9,238.9 54.9,241.2 59,238.9 					"/>
				</g>
			</g>
		</g>
	</g>
	<line id="XMLID_8923_" class="st6" x1="0" y1="126.1" x2="258.2" y2="126.1"/>
	<line id="XMLID_9015_" class="st6" x1="0" y1="249.8" x2="258.2" y2="249.8"/>
</g>
</svg>
