<?xml version="1.0" encoding="utf-8"?>
<!-- Generator: Adobe Illustrator 19.0.0, SVG Export Plug-In . SVG Version: 6.00 Build 0)  -->
<svg version="1.1" id="Capa_1" xmlns="http://www.w3.org/2000/svg" xmlns:xlink="http://www.w3.org/1999/xlink" x="0px" y="0px"
	 viewBox="0 0 512.5 424.5" style="enable-background:new 0 0 512.5 424.5;" xml:space="preserve">
<style type="text/css">
	.st0{fill:#FFFFFF;}
	.st1{fill:#F3A24A;}
	.st2{fill:#CC4A4A;}
	.st3{fill:#886C6B;}
	.st4{fill:#5CB7A3;}
	.st5{fill:#356C78;}
	.st6{fill:#C67044;}
	.st7{fill:#9777A1;}
	.st8{fill:#646875;}
	.st9{fill:#A0A0A0;}
	.st10{fill:none;stroke:#C67044;stroke-width:2.55;stroke-miterlimit:10;}
	.st11{fill:none;stroke:#646875;stroke-width:3.4;stroke-miterlimit:10;}
	.st12{fill:none;stroke:#9777A1;stroke-width:3.4;stroke-miterlimit:10;}
	.st13{fill:none;stroke:#CC4A4A;stroke-width:3.4;stroke-miterlimit:10;}
	.st14{fill:none;stroke:#886C6B;stroke-width:3.4;stroke-miterlimit:10;}
	.st15{fill:none;stroke:#5CB7A3;stroke-width:3.4;stroke-miterlimit:10;}
	.st16{fill:none;stroke:#F3A24A;stroke-width:3.4;stroke-miterlimit:10;}
	.st17{fill:none;stroke:#356C78;stroke-width:3.4;stroke-miterlimit:10;}
</style>
<g id="XMLID_1296_">
	<g id="XMLID_10723_">
		<path id="XMLID_10724_" class="st0" d="M48.5,17.1v-1.2l0.9-1.1c1.1-1.5,2.1-2.7,2.1-3.9c0-0.7-0.4-1.2-1.1-1.2
			c-0.6,0-1,0.2-1.3,0.4l-0.3-1.4c0.4-0.3,1.2-0.5,2-0.5c1.9,0,2.6,1.3,2.6,2.6c0,1.7-1,3-2.1,4.2l-0.5,0.6v0h2.7v1.6H48.5z"/>
		<path id="XMLID_10726_" class="st0" d="M59.4,12.7c0,3.2-1.2,4.6-2.6,4.6c-1.9,0-2.6-2.2-2.6-4.5c0-2.5,0.8-4.6,2.7-4.6
			C58.9,8.2,59.4,10.6,59.4,12.7z M56,12.7c0,2.1,0.2,3,0.8,3c0.6,0,0.7-1,0.7-3c0-1.9-0.2-3-0.7-3C56.3,9.7,56,10.7,56,12.7z"/>
		<path id="XMLID_10729_" class="st0" d="M65.2,12.7c0,3.2-1.2,4.6-2.6,4.6c-1.9,0-2.6-2.2-2.6-4.5c0-2.5,0.8-4.6,2.7-4.6
			C64.7,8.2,65.2,10.6,65.2,12.7z M61.8,12.7c0,2.1,0.2,3,0.8,3c0.6,0,0.7-1,0.7-3c0-1.9-0.2-3-0.7-3C62.1,9.7,61.8,10.7,61.8,12.7z
			"/>
		<path id="XMLID_10732_" class="st0" d="M67.9,10L67.9,10l-1.5,0.8l-0.3-1.4l2-1h1.6v8.8h-1.8V10z"/>
		<path id="XMLID_10734_" class="st0" d="M48.5,57.1v-1.2l0.9-1.1c1.1-1.5,2.1-2.7,2.1-3.9c0-0.7-0.4-1.2-1.1-1.2
			c-0.6,0-1,0.2-1.3,0.4l-0.3-1.4c0.4-0.3,1.2-0.5,2-0.5c1.9,0,2.6,1.3,2.6,2.6c0,1.7-1,3-2.1,4.2l-0.5,0.6v0h2.7v1.6H48.5z"/>
		<path id="XMLID_10736_" class="st0" d="M59.4,52.6c0,3.2-1.2,4.6-2.6,4.6c-1.9,0-2.6-2.2-2.6-4.5c0-2.5,0.8-4.6,2.7-4.6
			C58.9,48.1,59.4,50.5,59.4,52.6z M56,52.7c0,2.1,0.2,3,0.8,3c0.6,0,0.7-1,0.7-3c0-1.9-0.2-3-0.7-3C56.3,49.7,56,50.6,56,52.7z"/>
		<path id="XMLID_10739_" class="st0" d="M65.2,52.6c0,3.2-1.2,4.6-2.6,4.6c-1.9,0-2.6-2.2-2.6-4.5c0-2.5,0.8-4.6,2.7-4.6
			C64.7,48.1,65.2,50.5,65.2,52.6z M61.8,52.7c0,2.1,0.2,3,0.8,3c0.6,0,0.7-1,0.7-3c0-1.9-0.2-3-0.7-3
			C62.1,49.7,61.8,50.6,61.8,52.7z"/>
		<path id="XMLID_10742_" class="st0" d="M71,52.6c0,3.2-1.2,4.6-2.6,4.6c-1.9,0-2.6-2.2-2.6-4.5c0-2.5,0.8-4.6,2.7-4.6
			C70.5,48.1,71,50.5,71,52.6z M67.6,52.7c0,2.1,0.2,3,0.8,3c0.6,0,0.7-1,0.7-3c0-1.9-0.2-3-0.7-3C67.9,49.7,67.6,50.6,67.6,52.7z"
			/>
		<path id="XMLID_10745_" class="st0" d="M50.6,89.9L50.6,89.9L49,90.6l-0.3-1.4l2-1h1.6V97h-1.8V89.9z"/>
		<path id="XMLID_10747_" class="st0" d="M54.9,95.7c0.3,0,0.5,0,0.8-0.1c0.3-0.1,0.7-0.2,1-0.5c0.4-0.4,0.7-1,0.9-1.8h0
			c-0.3,0.3-0.7,0.5-1.3,0.5c-1.1,0-2.1-1-2.1-2.6c0-1.5,0.9-3.1,2.6-3.1c1.6,0,2.5,1.5,2.5,3.6c0,2-0.6,3.4-1.5,4.3
			c-0.5,0.6-1.3,1-2.2,1.1c-0.3,0-0.6,0-0.8,0V95.7z M56,91c0,0.9,0.3,1.6,0.8,1.6c0.3,0,0.6-0.2,0.7-0.5c0.1-0.2,0.1-0.4,0.1-0.9
			c0-1.2-0.3-1.8-0.8-1.8C56.3,89.4,56,90,56,91z"/>
		<path id="XMLID_10750_" class="st0" d="M60.7,95.7c0.3,0,0.5,0,0.8-0.1c0.3-0.1,0.7-0.2,1-0.5c0.4-0.4,0.7-1,0.9-1.8h0
			c-0.3,0.3-0.7,0.5-1.3,0.5c-1.1,0-2.1-1-2.1-2.6c0-1.5,0.9-3.1,2.6-3.1c1.6,0,2.5,1.5,2.5,3.6c0,2-0.6,3.4-1.5,4.3
			c-0.5,0.6-1.3,1-2.2,1.1c-0.3,0-0.6,0-0.8,0V95.7z M61.8,91c0,0.9,0.3,1.6,0.8,1.6c0.3,0,0.6-0.2,0.7-0.5c0.1-0.2,0.1-0.4,0.1-0.9
			c0-1.2-0.3-1.8-0.8-1.8C62.1,89.4,61.8,90,61.8,91z"/>
		<path id="XMLID_10753_" class="st0" d="M66.5,95.7c0.3,0,0.5,0,0.8-0.1c0.3-0.1,0.7-0.2,1-0.5c0.4-0.4,0.7-1,0.9-1.8h0
			c-0.3,0.3-0.7,0.5-1.3,0.5c-1.1,0-2.1-1-2.1-2.6c0-1.5,0.9-3.1,2.6-3.1c1.6,0,2.5,1.5,2.5,3.6c0,2-0.6,3.4-1.5,4.3
			c-0.5,0.6-1.3,1-2.2,1.1c-0.3,0-0.6,0-0.8,0V95.7z M67.6,91c0,0.9,0.3,1.6,0.8,1.6c0.3,0,0.6-0.2,0.7-0.5c0.1-0.2,0.1-0.4,0.1-0.9
			c0-1.2-0.3-1.8-0.8-1.8C67.9,89.4,67.6,90,67.6,91z"/>
		<path id="XMLID_10756_" class="st0" d="M50.6,129.8L50.6,129.8l-1.5,0.8l-0.3-1.4l2-1h1.6v8.8h-1.8V129.8z"/>
		<path id="XMLID_10758_" class="st0" d="M54.9,135.6c0.3,0,0.5,0,0.8-0.1c0.3-0.1,0.7-0.2,1-0.5c0.4-0.4,0.7-1,0.9-1.8h0
			c-0.3,0.3-0.7,0.5-1.3,0.5c-1.1,0-2.1-1-2.1-2.6c0-1.5,0.9-3.1,2.6-3.1c1.6,0,2.5,1.5,2.5,3.6c0,2-0.6,3.4-1.5,4.3
			c-0.5,0.6-1.3,1-2.2,1.1c-0.3,0-0.6,0-0.8,0V135.6z M56,131c0,0.9,0.3,1.6,0.8,1.6c0.3,0,0.6-0.2,0.7-0.5c0.1-0.2,0.1-0.4,0.1-0.9
			c0-1.2-0.3-1.8-0.8-1.8C56.3,129.3,56,129.9,56,131z"/>
		<path id="XMLID_10761_" class="st0" d="M60.7,135.6c0.3,0,0.5,0,0.8-0.1c0.3-0.1,0.7-0.2,1-0.5c0.4-0.4,0.7-1,0.9-1.8h0
			c-0.3,0.3-0.7,0.5-1.3,0.5c-1.1,0-2.1-1-2.1-2.6c0-1.5,0.9-3.1,2.6-3.1c1.6,0,2.5,1.5,2.5,3.6c0,2-0.6,3.4-1.5,4.3
			c-0.5,0.6-1.3,1-2.2,1.1c-0.3,0-0.6,0-0.8,0V135.6z M61.8,131c0,0.9,0.3,1.6,0.8,1.6c0.3,0,0.6-0.2,0.7-0.5
			c0.1-0.2,0.1-0.4,0.1-0.9c0-1.2-0.3-1.8-0.8-1.8C62.1,129.3,61.8,129.9,61.8,131z"/>
		<path id="XMLID_10764_" class="st0" d="M65.8,134.7c0-1.1,0.6-1.9,1.3-2.4v0c-0.7-0.5-1.1-1.3-1.1-1.9c0-1.4,1.1-2.3,2.5-2.3
			c1.3,0,2.3,0.9,2.3,2.2c0,0.6-0.2,1.4-1.2,2v0c0.8,0.4,1.4,1.3,1.4,2.3c0,1.6-1.2,2.6-2.7,2.6C66.9,137.1,65.8,136.1,65.8,134.7z
			 M69.3,134.6c0-0.8-0.5-1.4-1-1.6c-0.4,0.3-0.8,0.9-0.8,1.5c0,0.8,0.3,1.4,0.9,1.4C69,135.9,69.3,135.3,69.3,134.6z M67.7,130.3
			c0,0.6,0.4,1.1,0.9,1.3c0.4-0.2,0.6-0.7,0.6-1.3c0-0.6-0.2-1.1-0.7-1.1C67.9,129.2,67.7,129.8,67.7,130.3z"/>
		<path id="XMLID_10768_" class="st0" d="M38.8,176.9v-9.2h1.6l1.4,3.6c0.3,0.7,0.7,1.9,1,2.7h0c-0.1-1-0.2-2.6-0.2-4.2v-2h1.6v9.2
			h-1.6l-1.4-3.5c-0.3-0.8-0.7-1.9-0.9-2.8h0c0,0.9,0.1,2.3,0.1,4.2v2.1H38.8z"/>
		<path id="XMLID_10770_" class="st0" d="M50.4,173.6c0,2.8-1.5,3.5-2.5,3.5c-1.6,0-2.5-1.3-2.5-3.4c0-2.4,1.3-3.5,2.6-3.5
			C49.5,170.2,50.4,171.5,50.4,173.6z M47.1,173.6c0,1.1,0.2,2.1,0.8,2.1c0.6,0,0.7-1.1,0.7-2.1c0-0.9-0.1-2.1-0.7-2.1
			C47.3,171.5,47.1,172.7,47.1,173.6z"/>
		<path id="XMLID_10773_" class="st0" d="M52.7,170.3l0.5,3c0.1,0.6,0.2,1.2,0.3,1.9h0c0.1-0.7,0.2-1.2,0.3-1.9l0.5-3H56l-1.8,6.7
			h-1.6l-1.8-6.7H52.7z"/>
		<path id="XMLID_10775_" class="st0" d="M60.7,169.8L60.7,169.8l-1.5,0.8l-0.3-1.4l2-1h1.6v8.8h-1.8V169.8z"/>
		<path id="XMLID_10777_" class="st0" d="M65,175.6c0.3,0,0.5,0,0.8-0.1c0.3-0.1,0.7-0.2,1-0.5c0.4-0.4,0.7-1,0.9-1.8h0
			c-0.3,0.3-0.7,0.5-1.3,0.5c-1.1,0-2.1-1-2.1-2.6c0-1.5,0.9-3.1,2.6-3.1c1.6,0,2.5,1.5,2.5,3.6c0,2-0.6,3.4-1.5,4.3
			c-0.5,0.6-1.3,1-2.2,1.1c-0.3,0-0.6,0-0.8,0V175.6z M66.1,170.9c0,0.9,0.3,1.6,0.8,1.6c0.3,0,0.6-0.2,0.7-0.5
			c0.1-0.2,0.1-0.4,0.1-0.9c0-1.2-0.3-1.8-0.8-1.8C66.4,169.3,66.1,169.9,66.1,170.9z"/>
		<path id="XMLID_10780_" class="st0" d="M70.8,175.6c0.3,0,0.5,0,0.8-0.1c0.3-0.1,0.7-0.2,1-0.5c0.4-0.4,0.7-1,0.9-1.8h0
			c-0.3,0.3-0.7,0.5-1.3,0.5c-1.1,0-2.1-1-2.1-2.6c0-1.5,0.9-3.1,2.6-3.1c1.6,0,2.5,1.5,2.5,3.6c0,2-0.6,3.4-1.5,4.3
			c-0.5,0.6-1.3,1-2.2,1.1c-0.3,0-0.6,0-0.8,0V175.6z M71.9,170.9c0,0.9,0.3,1.6,0.8,1.6c0.3,0,0.6-0.2,0.7-0.5
			c0.1-0.2,0.1-0.4,0.1-0.9c0-1.2-0.3-1.8-0.8-1.8C72.2,169.3,71.9,169.9,71.9,170.9z"/>
		<path id="XMLID_10783_" class="st0" d="M81,168.1v1.2l-2.8,7.7h-1.7l2.7-7.3v0h-3v-1.6H81z"/>
		<path id="XMLID_10785_" class="st0" d="M39,215.1c0.4,0.2,1,0.4,1.5,0.4c0.8,0,1.3-0.4,1.3-1c0-0.7-0.4-1-1.2-1.5
			c-1.3-0.8-1.7-1.7-1.7-2.6c0-1.5,1-2.7,2.9-2.7c0.6,0,1.2,0.2,1.4,0.3l-0.3,1.5c-0.3-0.2-0.7-0.3-1.2-0.3c-0.8,0-1.1,0.5-1.1,1
			c0,0.5,0.3,0.8,1.3,1.4c1.2,0.7,1.7,1.7,1.7,2.6c0,1.7-1.2,2.8-3,2.8c-0.7,0-1.5-0.2-1.8-0.4L39,215.1z"/>
		<path id="XMLID_10787_" class="st0" d="M46,214.2c0,1,0.6,1.4,1.4,1.4c0.5,0,1-0.1,1.3-0.2l0.2,1.3c-0.5,0.2-1.2,0.3-1.8,0.3
			c-1.8,0-2.8-1.2-2.8-3.3c0-2.2,1.2-3.6,2.7-3.6c1.4,0,2.3,1.1,2.3,3.1c0,0.5,0,0.7-0.1,0.9H46z M47.6,212.9c0-0.9-0.2-1.5-0.7-1.5
			c-0.6,0-0.8,0.9-0.8,1.5H47.6z"/>
		<path id="XMLID_10790_" class="st0" d="M50.2,212.3c0-0.8,0-1.5-0.1-2.1h1.6l0.1,0.8h0c0.3-0.5,0.8-0.9,1.4-0.9
			c1.5,0,2.1,1.6,2.1,3.4c0,2.4-1,3.4-2.2,3.4c-0.5,0-0.9-0.3-1.1-0.7h0v3.2h-1.8V212.3z M52,214.5c0,0.2,0,0.4,0.1,0.6
			c0.1,0.4,0.4,0.5,0.6,0.5c0.6,0,0.8-0.9,0.8-2c0-1.3-0.3-1.9-0.8-1.9c-0.3,0-0.5,0.3-0.6,0.6c-0.1,0.1-0.1,0.3-0.1,0.5V214.5z"/>
		<path id="XMLID_10793_" class="st0" d="M60.3,209.7L60.3,209.7l-1.5,0.8l-0.3-1.4l2-1H62v8.8h-1.8V209.7z"/>
		<path id="XMLID_10795_" class="st0" d="M64.6,215.5c0.3,0,0.5,0,0.8-0.1c0.3-0.1,0.7-0.2,1-0.5c0.4-0.4,0.7-1,0.9-1.8h0
			c-0.3,0.3-0.7,0.5-1.3,0.5c-1.1,0-2.1-1-2.1-2.6c0-1.5,0.9-3.1,2.6-3.1c1.6,0,2.5,1.5,2.5,3.6c0,2-0.6,3.4-1.5,4.3
			c-0.5,0.6-1.3,1-2.2,1.1c-0.3,0-0.6,0-0.8,0V215.5z M65.7,210.9c0,0.9,0.3,1.6,0.8,1.6c0.3,0,0.6-0.2,0.7-0.5
			c0.1-0.2,0.1-0.4,0.1-0.9c0-1.2-0.3-1.8-0.8-1.8C66,209.2,65.7,209.8,65.7,210.9z"/>
		<path id="XMLID_10798_" class="st0" d="M70.4,215.5c0.3,0,0.5,0,0.8-0.1c0.3-0.1,0.7-0.2,1-0.5c0.4-0.4,0.7-1,0.9-1.8h0
			c-0.3,0.3-0.7,0.5-1.3,0.5c-1.1,0-2.1-1-2.1-2.6c0-1.5,0.9-3.1,2.6-3.1c1.6,0,2.5,1.5,2.5,3.6c0,2-0.6,3.4-1.5,4.3
			c-0.5,0.6-1.3,1-2.2,1.1c-0.3,0-0.6,0-0.8,0V215.5z M71.5,210.9c0,0.9,0.3,1.6,0.8,1.6c0.3,0,0.6-0.2,0.7-0.5
			c0.1-0.2,0.1-0.4,0.1-0.9c0-1.2-0.3-1.8-0.8-1.8C71.8,209.2,71.5,209.8,71.5,210.9z"/>
		<path id="XMLID_10801_" class="st0" d="M80.6,208v1.2l-2.8,7.7H76l2.7-7.3v0h-3V208H80.6z"/>
		<path id="XMLID_10803_" class="st0" d="M43.1,252.8H41v2.5h2.4v1.6h-4.1v-9.2h4v1.6H41v2.1h2.1V252.8z"/>
		<path id="XMLID_10805_" class="st0" d="M44.4,252.2c0-0.7,0-1.4-0.1-2h1.5l0.1,0.8h0c0.4-0.5,0.9-0.9,1.6-0.9c1.3,0,1.8,1,1.8,2.5
			v4.3h-1.8v-4.2c0-0.6-0.1-1.1-0.7-1.1c-0.3,0-0.5,0.2-0.7,0.6c-0.1,0.1-0.1,0.4-0.1,0.6v4.1h-1.8V252.2z"/>
		<path id="XMLID_10807_" class="st0" d="M52.1,254.1c0,1,0.6,1.4,1.4,1.4c0.5,0,1-0.1,1.3-0.2l0.2,1.3c-0.5,0.2-1.2,0.3-1.8,0.3
			c-1.8,0-2.8-1.2-2.8-3.3c0-2.2,1.2-3.6,2.7-3.6c1.4,0,2.3,1.1,2.3,3.1c0,0.5,0,0.7-0.1,0.9H52.1z M53.7,252.9
			c0-0.9-0.2-1.5-0.7-1.5c-0.6,0-0.8,0.9-0.8,1.5H53.7z"/>
		<path id="XMLID_10810_" class="st0" d="M60.3,249.7L60.3,249.7l-1.5,0.8l-0.3-1.4l2-1h1.6v8.8h-1.8V249.7z"/>
		<path id="XMLID_10812_" class="st0" d="M64.7,255.5c0.3,0,0.5,0,0.8-0.1c0.3-0.1,0.7-0.2,1-0.5c0.4-0.4,0.7-1,0.9-1.8h0
			c-0.3,0.3-0.7,0.5-1.3,0.5c-1.1,0-2.1-1-2.1-2.6c0-1.5,0.9-3.1,2.6-3.1c1.6,0,2.5,1.5,2.5,3.6c0,2-0.6,3.4-1.5,4.3
			c-0.5,0.6-1.3,1-2.2,1.1c-0.3,0-0.6,0-0.8,0V255.5z M65.7,250.8c0,0.9,0.3,1.6,0.8,1.6c0.3,0,0.6-0.2,0.7-0.5
			c0.1-0.2,0.1-0.4,0.1-0.9c0-1.2-0.3-1.8-0.8-1.8C66.1,249.2,65.7,249.8,65.7,250.8z"/>
		<path id="XMLID_10815_" class="st0" d="M70.4,255.5c0.3,0,0.5,0,0.8-0.1c0.3-0.1,0.7-0.2,1-0.5c0.4-0.4,0.7-1,0.9-1.8h0
			c-0.3,0.3-0.7,0.5-1.3,0.5c-1.1,0-2.1-1-2.1-2.6c0-1.5,0.9-3.1,2.6-3.1c1.6,0,2.5,1.5,2.5,3.6c0,2-0.6,3.4-1.5,4.3
			c-0.5,0.6-1.3,1-2.2,1.1c-0.3,0-0.6,0-0.8,0V255.5z M71.5,250.8c0,0.9,0.3,1.6,0.8,1.6c0.3,0,0.6-0.2,0.7-0.5
			c0.1-0.2,0.1-0.4,0.1-0.9c0-1.2-0.3-1.8-0.8-1.8C71.8,249.2,71.5,249.8,71.5,250.8z"/>
		<path id="XMLID_10818_" class="st0" d="M80.6,248v1.2l-2.8,7.7h-1.7l2.7-7.3v0h-3V248H80.6z"/>
		<path id="XMLID_10820_" class="st0" d="M40.4,287.6h1.8v6.2c0,2.6-1.3,3-2.6,3c-0.4,0-0.7-0.1-0.9-0.1l0.2-1.5
			c0.2,0.1,0.4,0.1,0.6,0.1c0.5,0,1-0.2,1-1.4V287.6z"/>
		<path id="XMLID_10822_" class="st0" d="M48.4,294.8c0,0.7,0,1.4,0.1,2h-1.5l-0.1-0.7h0c-0.3,0.4-0.9,0.8-1.5,0.8
			c-1.3,0-1.8-0.9-1.8-2.7v-4h1.8v3.8c0,0.9,0.2,1.4,0.7,1.4c0.3,0,0.5-0.2,0.6-0.4c0.1-0.1,0.1-0.3,0.1-0.6v-4.2h1.8V294.8z"/>
		<path id="XMLID_10824_" class="st0" d="M49.6,292.1c0-0.7,0-1.4-0.1-2h1.5l0.1,0.8h0c0.4-0.5,0.9-0.9,1.6-0.9c1.3,0,1.8,1,1.8,2.5
			v4.3h-1.8v-4.2c0-0.6-0.1-1.1-0.7-1.1c-0.3,0-0.5,0.2-0.7,0.6c-0.1,0.1-0.1,0.4-0.1,0.6v4.1h-1.8V292.1z"/>
		<path id="XMLID_10826_" class="st0" d="M59.8,289.6L59.8,289.6l-1.5,0.8L58,289l2-1h1.6v8.8h-1.8V289.6z"/>
		<path id="XMLID_10828_" class="st0" d="M64.2,295.4c0.3,0,0.5,0,0.8-0.1c0.3-0.1,0.7-0.2,1-0.5c0.4-0.4,0.7-1,0.9-1.8h0
			c-0.3,0.3-0.7,0.5-1.3,0.5c-1.1,0-2.1-1-2.1-2.6c0-1.5,0.9-3.1,2.6-3.1c1.6,0,2.5,1.5,2.5,3.6c0,2-0.6,3.4-1.5,4.3
			c-0.5,0.6-1.3,1-2.2,1.1c-0.3,0-0.6,0-0.8,0V295.4z M65.3,290.8c0,0.9,0.3,1.6,0.8,1.6c0.3,0,0.6-0.2,0.7-0.5
			c0.1-0.2,0.1-0.4,0.1-0.9c0-1.2-0.3-1.8-0.8-1.8C65.6,289.1,65.3,289.7,65.3,290.8z"/>
		<path id="XMLID_10831_" class="st0" d="M70,295.4c0.3,0,0.5,0,0.8-0.1c0.3-0.1,0.7-0.2,1-0.5c0.4-0.4,0.7-1,0.9-1.8h0
			c-0.3,0.3-0.7,0.5-1.3,0.5c-1.1,0-2.1-1-2.1-2.6c0-1.5,0.9-3.1,2.6-3.1c1.6,0,2.5,1.5,2.5,3.6c0,2-0.6,3.4-1.5,4.3
			c-0.5,0.6-1.3,1-2.2,1.1c-0.3,0-0.6,0-0.8,0V295.4z M71.1,290.8c0,0.9,0.3,1.6,0.8,1.6c0.3,0,0.6-0.2,0.7-0.5
			c0.1-0.2,0.1-0.4,0.1-0.9c0-1.2-0.3-1.8-0.8-1.8C71.4,289.1,71.1,289.7,71.1,290.8z"/>
		<path id="XMLID_10834_" class="st0" d="M79.6,289.3c-0.2,0-0.5,0-0.7,0.1c-1.2,0.3-1.8,1.2-2,2.4h0c0.3-0.4,0.8-0.7,1.4-0.7
			c1.2,0,2,1.1,2,2.7c0,1.6-0.8,3.1-2.5,3.1c-1.7,0-2.7-1.5-2.7-3.6c0-1.9,0.6-3.3,1.5-4.1c0.6-0.6,1.4-1.1,2.2-1.2
			c0.4-0.1,0.7-0.1,0.9-0.1V289.3z M78.6,293.8c0-0.7-0.3-1.5-0.8-1.5c-0.3,0-0.6,0.2-0.7,0.6c-0.1,0.1-0.1,0.4-0.1,0.8
			c0,1.2,0.3,1.9,0.9,1.9C78.4,295.6,78.6,294.8,78.6,293.8z"/>
		<path id="XMLID_10837_" class="st0" d="M45.5,332c0,3.5-1.2,4.9-3,4.9c-2.1,0-2.9-2.2-2.9-4.7c0-2.5,1-4.7,3-4.7
			C44.9,327.5,45.5,329.9,45.5,332z M41.5,332.2c0,2.1,0.4,3.1,1.1,3.1c0.7,0,1-1.4,1-3.2c0-1.6-0.2-3.1-1-3.1
			C41.9,329,41.5,330.2,41.5,332.2z"/>
		<path id="XMLID_10840_" class="st0" d="M50.2,336.6c-0.2,0.1-0.6,0.2-1.1,0.2c-1.7,0-2.8-1.2-2.8-3.3c0-2.1,1.2-3.5,3-3.5
			c0.4,0,0.8,0.1,1,0.2l-0.2,1.4c-0.1-0.1-0.4-0.1-0.7-0.1c-0.9,0-1.4,0.8-1.4,2c0,1.2,0.5,1.9,1.3,1.9c0.3,0,0.5,0,0.7-0.1
			L50.2,336.6z"/>
		<path id="XMLID_10842_" class="st0" d="M53.2,328.3v1.8h1.3v1.3h-1.3v3c0,0.8,0.3,1,0.7,1c0.2,0,0.3,0,0.5,0l0,1.4
			c-0.2,0.1-0.6,0.1-1.1,0.1c-0.5,0-1-0.1-1.3-0.4c-0.4-0.4-0.6-0.9-0.6-1.9v-3.1h-0.8v-1.3h0.8v-1.4L53.2,328.3z"/>
		<path id="XMLID_10844_" class="st0" d="M59.4,329.6L59.4,329.6l-1.5,0.8l-0.3-1.4l2-1h1.6v8.8h-1.8V329.6z"/>
		<path id="XMLID_10846_" class="st0" d="M63.7,335.4c0.3,0,0.5,0,0.8-0.1c0.3-0.1,0.7-0.2,1-0.5c0.4-0.4,0.7-1,0.9-1.8h0
			c-0.3,0.3-0.7,0.5-1.3,0.5c-1.1,0-2.1-1-2.1-2.6c0-1.5,0.9-3.1,2.6-3.1c1.6,0,2.5,1.5,2.5,3.6c0,2-0.6,3.4-1.5,4.3
			c-0.5,0.6-1.3,1-2.2,1.1c-0.3,0-0.6,0-0.8,0V335.4z M64.8,330.7c0,0.9,0.3,1.6,0.8,1.6c0.3,0,0.6-0.2,0.7-0.5
			c0.1-0.2,0.1-0.4,0.1-0.9c0-1.2-0.3-1.8-0.8-1.8C65.1,329.1,64.8,329.7,64.8,330.7z"/>
		<path id="XMLID_10849_" class="st0" d="M69.5,335.4c0.3,0,0.5,0,0.8-0.1c0.3-0.1,0.7-0.2,1-0.5c0.4-0.4,0.7-1,0.9-1.8h0
			c-0.3,0.3-0.7,0.5-1.3,0.5c-1.1,0-2.1-1-2.1-2.6c0-1.5,0.9-3.1,2.6-3.1c1.6,0,2.5,1.5,2.5,3.6c0,2-0.6,3.4-1.5,4.3
			c-0.5,0.6-1.3,1-2.2,1.1c-0.3,0-0.6,0-0.8,0V335.4z M70.6,330.7c0,0.9,0.3,1.6,0.8,1.6c0.3,0,0.6-0.2,0.7-0.5
			c0.1-0.2,0.1-0.4,0.1-0.9c0-1.2-0.3-1.8-0.8-1.8C70.9,329.1,70.6,329.7,70.6,330.7z"/>
		<path id="XMLID_10852_" class="st0" d="M79.3,329.4h-2.3l-0.2,1.6c0.1,0,0.2,0,0.3,0c0.4,0,1.2,0.2,1.7,0.7c0.5,0.5,0.8,1.1,0.8,2
			c0,1.7-1.1,3.1-3.1,3.1c-0.6,0-1.3-0.2-1.7-0.4l0.3-1.4c0.3,0.2,0.8,0.3,1.3,0.3c0.9,0,1.4-0.6,1.4-1.5c0-1.2-0.9-1.6-1.9-1.6
			c-0.2,0-0.4,0-0.6,0l0.5-4.4h3.7V329.4z"/>
	</g>
	<g id="XMLID_10624_">
		<path id="XMLID_10625_" class="st0" d="M8.9,353.7c0.4-0.1,1.1-0.2,1.8-0.2c1.2,0,2,0.3,2.5,0.8c0.8,0.7,1.2,1.9,1.2,3.7
			c0,1.9-0.5,3.2-1.3,3.9c-0.6,0.6-1.5,0.9-2.8,0.9c-0.6,0-1.1-0.1-1.5-0.1V353.7z M10.7,361.3c0.1,0,0.2,0,0.3,0
			c0.9,0,1.6-0.8,1.6-3.4c0-1.9-0.5-3-1.6-3c-0.1,0-0.2,0-0.4,0V361.3z"/>
		<path id="XMLID_10628_" class="st0" d="M15.5,358c0-0.7,0-1.4-0.1-2H17l0.1,1h0c0.3-0.7,0.8-1.1,1.3-1.1c0.2,0,0.3,0,0.4,0v1.8
			c-0.1,0-0.2,0-0.4,0c-0.4,0-0.9,0.3-1.1,1c0,0.1-0.1,0.4-0.1,0.7v3.4h-1.8V358z"/>
		<path id="XMLID_10630_" class="st0" d="M18.9,361.6c0-0.7,0.5-1.2,1-1.2c0.6,0,1,0.4,1,1.2c0,0.7-0.4,1.2-1,1.2
			C19.4,362.8,18.9,362.3,18.9,361.6z"/>
		<path id="XMLID_10632_" class="st0" d="M26.2,353.5v9.2h-1.8v-9.2H26.2z"/>
		<path id="XMLID_10634_" class="st0" d="M28.8,356l0.5,3c0.1,0.6,0.2,1.2,0.3,1.9h0c0.1-0.7,0.2-1.2,0.3-1.9l0.5-3h1.8l-1.8,6.7
			h-1.6l-1.8-6.7H28.8z"/>
		<path id="XMLID_10636_" class="st0" d="M35.7,362.7l-0.1-0.7h0c-0.4,0.5-0.9,0.8-1.5,0.8c-1,0-1.8-0.8-1.8-2c0-1.7,1.5-2.5,3-2.5
			v-0.1c0-0.5-0.3-0.9-0.9-0.9c-0.5,0-1,0.1-1.4,0.4l-0.3-1.2c0.4-0.2,1.1-0.5,2.1-0.5c2,0,2.4,1.4,2.4,2.8v2.5c0,0.5,0,1.1,0.1,1.5
			H35.7z M35.5,359.5c-0.6,0-1.4,0.2-1.4,1.1c0,0.7,0.4,0.9,0.6,0.9c0.3,0,0.6-0.2,0.7-0.6c0-0.1,0-0.2,0-0.3V359.5z"/>
		<path id="XMLID_10639_" class="st0" d="M38.5,358c0-0.7,0-1.4-0.1-2h1.6l0.1,1h0c0.3-0.7,0.8-1.1,1.3-1.1c0.2,0,0.3,0,0.4,0v1.8
			c-0.1,0-0.2,0-0.4,0c-0.4,0-0.9,0.3-1.1,1c0,0.1-0.1,0.4-0.1,0.7v3.4h-1.8V358z"/>
		<path id="XMLID_10641_" class="st0" d="M45.6,353.5h1.8v6.2c0,2.6-1.3,3-2.6,3c-0.4,0-0.7-0.1-0.9-0.1l0.2-1.5
			c0.2,0.1,0.4,0.1,0.6,0.1c0.5,0,1-0.2,1-1.4V353.5z"/>
		<path id="XMLID_10643_" class="st0" d="M51.6,362.7l-0.1-0.7h0c-0.4,0.5-0.9,0.8-1.5,0.8c-1,0-1.8-0.8-1.8-2c0-1.7,1.5-2.5,3-2.5
			v-0.1c0-0.5-0.3-0.9-0.9-0.9c-0.5,0-1,0.1-1.4,0.4l-0.3-1.2c0.4-0.2,1.1-0.5,2.1-0.5c2,0,2.4,1.4,2.4,2.8v2.5c0,0.5,0,1.1,0.1,1.5
			H51.6z M51.4,359.5c-0.6,0-1.4,0.2-1.4,1.1c0,0.7,0.4,0.9,0.6,0.9c0.3,0,0.6-0.2,0.7-0.6c0-0.1,0-0.2,0-0.3V359.5z"/>
		<path id="XMLID_10646_" class="st0" d="M58.1,362.6c-0.2,0.1-0.6,0.2-1.1,0.2c-1.7,0-2.8-1.2-2.8-3.3c0-2.1,1.2-3.5,3-3.5
			c0.4,0,0.8,0.1,1,0.2l-0.2,1.4c-0.1-0.1-0.4-0.1-0.7-0.1c-0.9,0-1.4,0.8-1.4,2c0,1.2,0.5,1.9,1.3,1.9c0.3,0,0.5,0,0.7-0.1
			L58.1,362.6z"/>
		<path id="XMLID_10648_" class="st0" d="M63.6,359.3c0,2.8-1.5,3.5-2.5,3.5c-1.6,0-2.5-1.3-2.5-3.4c0-2.4,1.3-3.5,2.6-3.5
			C62.7,355.9,63.6,357.3,63.6,359.3z M60.3,359.3c0,1.1,0.2,2.1,0.8,2.1c0.6,0,0.7-1.1,0.7-2.1c0-0.9-0.1-2.1-0.7-2.1
			C60.5,357.3,60.3,358.4,60.3,359.3z"/>
		<path id="XMLID_10651_" class="st0" d="M64.6,362.7c0-0.6,0.1-1.3,0.1-2v-7.4h1.8v3.4h0c0.3-0.5,0.7-0.8,1.4-0.8
			c1.3,0,1.9,1.5,1.9,3.3c0,2.3-0.9,3.6-2.2,3.6c-0.6,0-1-0.2-1.3-0.9h0l-0.1,0.8H64.6z M66.4,360.3c0,0.2,0,0.3,0.1,0.4
			c0.1,0.5,0.4,0.6,0.6,0.6c0.6,0,0.8-0.7,0.8-2c0-1.1-0.3-1.9-0.9-1.9c-0.3,0-0.5,0.3-0.6,0.6c0,0.1-0.1,0.3-0.1,0.4V360.3z"/>
		<path id="XMLID_10654_" class="st0" d="M70.7,361.1c0.3,0.2,0.7,0.4,1.2,0.4c0.5,0,0.7-0.2,0.7-0.6c0-0.3-0.2-0.6-0.8-0.9
			c-1.1-0.6-1.3-1.3-1.3-1.9c0-1.2,0.9-2.1,2.2-2.1c0.6,0,1,0.1,1.3,0.3l-0.3,1.3c-0.3-0.1-0.6-0.3-0.9-0.3c-0.4,0-0.7,0.3-0.7,0.6
			c0,0.3,0.2,0.5,0.8,0.8c1,0.6,1.3,1.3,1.3,2c0,1.4-1,2.1-2.4,2.1c-0.6,0-1.2-0.1-1.5-0.4L70.7,361.1z"/>
		<path id="XMLID_10656_" class="st0" d="M80,359.3c0,2.8-1.5,3.5-2.5,3.5c-1.6,0-2.5-1.3-2.5-3.4c0-2.4,1.3-3.5,2.6-3.5
			C79,355.9,80,357.3,80,359.3z M76.7,359.3c0,1.1,0.2,2.1,0.8,2.1c0.6,0,0.7-1.1,0.7-2.1c0-0.9-0.1-2.1-0.7-2.1
			C76.8,357.3,76.7,358.4,76.7,359.3z"/>
		<path id="XMLID_10659_" class="st0" d="M81,358c0-0.7,0-1.4-0.1-2h1.5l0.1,0.8h0c0.4-0.5,0.9-0.9,1.6-0.9c1.3,0,1.8,1,1.8,2.5v4.3
			h-1.8v-4.2c0-0.6-0.1-1.1-0.7-1.1c-0.3,0-0.5,0.2-0.7,0.6c-0.1,0.1-0.1,0.4-0.1,0.6v4.1H81V358z"/>
		<path id="XMLID_10661_" class="st0" d="M88.2,364c0.3,0,0.7-0.1,0.9-0.4c0.3-0.3,0.3-0.7,0.3-1.8V356h1.8v6.2
			c0,1.5-0.3,2.2-0.9,2.6c-0.5,0.4-1.3,0.6-1.9,0.6L88.2,364z M91.2,354.3c0,0.6-0.4,1-0.9,1c-0.5,0-0.9-0.4-0.9-1
			c0-0.6,0.4-1,0.9-1C90.8,353.3,91.2,353.7,91.2,354.3z"/>
		<path id="XMLID_10664_" class="st0" d="M97.3,359.3c0,2.8-1.5,3.5-2.5,3.5c-1.6,0-2.5-1.3-2.5-3.4c0-2.4,1.3-3.5,2.6-3.5
			C96.3,355.9,97.3,357.3,97.3,359.3z M94,359.3c0,1.1,0.2,2.1,0.8,2.1c0.6,0,0.7-1.1,0.7-2.1c0-0.9-0.1-2.1-0.7-2.1
			C94.1,357.3,94,358.4,94,359.3z"/>
		<path id="XMLID_10667_" class="st0" d="M100.1,354.3c0,0.6-0.4,1-0.9,1c-0.5,0-0.9-0.4-0.9-1c0-0.6,0.4-1,0.9-1
			C99.7,353.3,100.1,353.7,100.1,354.3z M98.3,362.7V356h1.8v6.7H98.3z"/>
		<path id="XMLID_10670_" class="st0" d="M101.3,358c0-0.7,0-1.4-0.1-2h1.5l0.1,0.8h0c0.4-0.5,0.9-0.9,1.6-0.9c1.3,0,1.8,1,1.8,2.5
			v4.3h-1.8v-4.2c0-0.6-0.1-1.1-0.7-1.1c-0.3,0-0.5,0.2-0.7,0.6c-0.1,0.1-0.1,0.4-0.1,0.6v4.1h-1.8V358z"/>
		<path id="XMLID_10672_" class="st0" d="M107.5,361.1c0.3,0.2,0.7,0.4,1.2,0.4c0.5,0,0.7-0.2,0.7-0.6c0-0.3-0.2-0.6-0.8-0.9
			c-1.1-0.6-1.3-1.3-1.3-1.9c0-1.2,0.9-2.1,2.2-2.1c0.6,0,1,0.1,1.3,0.3l-0.3,1.3c-0.3-0.1-0.6-0.3-0.9-0.3c-0.4,0-0.7,0.3-0.7,0.6
			c0,0.3,0.2,0.5,0.8,0.8c1,0.6,1.3,1.3,1.3,2c0,1.4-1,2.1-2.4,2.1c-0.6,0-1.2-0.1-1.5-0.4L107.5,361.1z"/>
		<path id="XMLID_10674_" class="st0" d="M8.8,370c0.6-0.1,1.3-0.2,1.9-0.2c1,0,1.9,0.1,2.4,0.7c0.6,0.5,0.7,1.1,0.7,1.9
			c0,1-0.5,1.9-1.4,2.3v0c0.6,0.2,0.9,0.8,1.1,1.8c0.2,1,0.4,2.1,0.6,2.5h-1.9c-0.1-0.3-0.3-1.2-0.4-2.2c-0.2-1.1-0.4-1.5-1-1.5
			h-0.3v3.7H8.8V370z M10.6,374h0.3c0.8,0,1.2-0.6,1.2-1.4c0-0.8-0.3-1.3-1.1-1.4c-0.1,0-0.3,0-0.4,0.1V374z"/>
		<path id="XMLID_10677_" class="st0" d="M18,379l-0.1-0.7h0c-0.4,0.5-0.9,0.8-1.5,0.8c-1,0-1.8-0.8-1.8-2c0-1.7,1.5-2.5,3-2.5v-0.1
			c0-0.5-0.3-0.9-0.9-0.9c-0.5,0-1,0.1-1.4,0.4l-0.3-1.2c0.4-0.2,1.1-0.5,2.1-0.5c2,0,2.4,1.4,2.4,2.8v2.5c0,0.5,0,1.1,0.1,1.5H18z
			 M17.7,375.8c-0.6,0-1.4,0.2-1.4,1.1c0,0.7,0.4,0.9,0.6,0.9c0.3,0,0.6-0.2,0.7-0.6c0-0.1,0-0.2,0-0.3V375.8z"/>
		<path id="XMLID_10680_" class="st0" d="M22.7,370.6v1.8H24v1.3h-1.3v3c0,0.8,0.3,1,0.7,1c0.2,0,0.3,0,0.5,0l0,1.4
			c-0.2,0.1-0.6,0.1-1.1,0.1c-0.5,0-1-0.1-1.3-0.4c-0.4-0.4-0.6-0.9-0.6-1.9v-3.1h-0.8v-1.3h0.8V371L22.7,370.6z"/>
		<path id="XMLID_10682_" class="st0" d="M26.6,370.6c0,0.6-0.4,1-0.9,1c-0.5,0-0.9-0.4-0.9-1c0-0.6,0.4-1,0.9-1
			C26.2,369.6,26.6,370,26.6,370.6z M24.8,379v-6.7h1.8v6.7H24.8z"/>
		<path id="XMLID_10685_" class="st0" d="M32.7,375.7c0,2.8-1.5,3.5-2.5,3.5c-1.6,0-2.5-1.3-2.5-3.4c0-2.4,1.3-3.5,2.6-3.5
			C31.8,372.3,32.7,373.6,32.7,375.7z M29.4,375.7c0,1.1,0.2,2.1,0.8,2.1c0.6,0,0.7-1.1,0.7-2.1c0-0.9-0.1-2.1-0.7-2.1
			C29.5,373.6,29.4,374.8,29.4,375.7z"/>
		<path id="XMLID_10688_" class="st0" d="M33.7,374.4c0-0.7,0-1.4-0.1-2h1.5l0.1,0.8h0c0.4-0.5,0.9-0.9,1.6-0.9c1.3,0,1.8,1,1.8,2.5
			v4.3h-1.8v-4.2c0-0.6-0.1-1.1-0.7-1.1c-0.3,0-0.5,0.2-0.7,0.6c-0.1,0.1-0.1,0.4-0.1,0.6v4.1h-1.8V374.4z"/>
		<path id="XMLID_10690_" class="st0" d="M42.9,379l-0.1-0.7h0c-0.4,0.5-0.9,0.8-1.5,0.8c-1,0-1.8-0.8-1.8-2c0-1.7,1.5-2.5,3-2.5
			v-0.1c0-0.5-0.3-0.9-0.9-0.9c-0.5,0-1,0.1-1.4,0.4l-0.3-1.2c0.4-0.2,1.1-0.5,2.1-0.5c2,0,2.4,1.4,2.4,2.8v2.5c0,0.5,0,1.1,0.1,1.5
			H42.9z M42.7,375.8c-0.6,0-1.4,0.2-1.4,1.1c0,0.7,0.4,0.9,0.6,0.9c0.3,0,0.6-0.2,0.7-0.6c0-0.1,0-0.2,0-0.3V375.8z"/>
		<path id="XMLID_10693_" class="st0" d="M45.7,369.6h1.8v9.4h-1.8V369.6z"/>
		<path id="XMLID_10695_" class="st0" d="M53.6,369.6c-0.8,1.2-1.4,3-1.4,5.6c0,2.5,0.7,4.2,1.4,5.5h-1.3c-0.8-1-1.6-2.9-1.6-5.5
			c0.1-2.7,0.8-4.5,1.6-5.5H53.6z"/>
		<path id="XMLID_10697_" class="st0" d="M54.6,369.8h4v1.6h-2.2v2.4h2.1v1.5h-2.1v3.8h-1.8V369.8z"/>
		<path id="XMLID_10699_" class="st0" d="M62.4,379l-0.1-0.7h0c-0.4,0.5-0.9,0.8-1.5,0.8c-1,0-1.8-0.8-1.8-2c0-1.7,1.5-2.5,3-2.5
			v-0.1c0-0.5-0.3-0.9-0.9-0.9c-0.5,0-1,0.1-1.4,0.4l-0.3-1.2c0.4-0.2,1.1-0.5,2.1-0.5c2,0,2.4,1.4,2.4,2.8v2.5c0,0.5,0,1.1,0.1,1.5
			H62.4z M62.2,375.8c-0.6,0-1.4,0.2-1.4,1.1c0,0.7,0.4,0.9,0.6,0.9c0.3,0,0.6-0.2,0.7-0.6c0-0.1,0-0.2,0-0.3V375.8z"/>
		<path id="XMLID_10702_" class="st0" d="M65.2,369.6H67v9.4h-1.8V369.6z"/>
		<path id="XMLID_10704_" class="st0" d="M68.3,369.6H70v9.4h-1.8V369.6z"/>
		<path id="XMLID_10706_" class="st0" d="M78.3,375.7c0,2.8-1.5,3.5-2.5,3.5c-1.6,0-2.5-1.3-2.5-3.4c0-2.4,1.3-3.5,2.6-3.5
			C77.4,372.3,78.3,373.6,78.3,375.7z M75,375.7c0,1.1,0.2,2.1,0.8,2.1c0.6,0,0.7-1.1,0.7-2.1c0-0.9-0.1-2.1-0.7-2.1
			C75.2,373.6,75,374.8,75,375.7z"/>
		<path id="XMLID_10709_" class="st0" d="M79.7,379v-5.4h-0.9v-1.3h0.9v-0.3c0-0.7,0.1-1.4,0.7-2c0.4-0.4,1-0.6,1.6-0.6
			c0.5,0,0.8,0.1,1.1,0.1l-0.2,1.4c-0.1-0.1-0.3-0.1-0.5-0.1c-0.6,0-0.8,0.5-0.8,1.1v0.3h1.2v1.3h-1.2v5.4H79.7z"/>
		<path id="XMLID_10711_" class="st0" d="M87.2,371.8L87.2,371.8l-1.5,0.8l-0.3-1.4l2-1H89v8.8h-1.8V371.8z"/>
		<path id="XMLID_10713_" class="st0" d="M91.6,377.6c0.3,0,0.5,0,0.8-0.1c0.3-0.1,0.7-0.2,1-0.5c0.4-0.4,0.7-1,0.9-1.8h0
			c-0.3,0.3-0.7,0.5-1.3,0.5c-1.1,0-2.1-1-2.1-2.6c0-1.5,0.9-3.1,2.6-3.1c1.6,0,2.5,1.5,2.5,3.6c0,2-0.6,3.4-1.5,4.3
			c-0.5,0.6-1.3,1-2.2,1.1c-0.3,0-0.6,0-0.8,0V377.6z M92.6,373c0,0.9,0.3,1.6,0.8,1.6c0.3,0,0.6-0.2,0.7-0.5
			c0.1-0.2,0.1-0.4,0.1-0.9c0-1.2-0.3-1.8-0.8-1.8C93,371.4,92.6,371.9,92.6,373z"/>
		<path id="XMLID_10716_" class="st0" d="M97.4,377.6c0.3,0,0.5,0,0.8-0.1c0.3-0.1,0.7-0.2,1-0.5c0.4-0.4,0.7-1,0.9-1.8h0
			c-0.3,0.3-0.7,0.5-1.3,0.5c-1.1,0-2.1-1-2.1-2.6c0-1.5,0.9-3.1,2.6-3.1c1.6,0,2.5,1.5,2.5,3.6c0,2-0.6,3.4-1.5,4.3
			c-0.5,0.6-1.3,1-2.2,1.1c-0.3,0-0.6,0-0.8,0V377.6z M98.4,373c0,0.9,0.3,1.6,0.8,1.6c0.3,0,0.6-0.2,0.7-0.5
			c0.1-0.2,0.1-0.4,0.1-0.9c0-1.2-0.3-1.8-0.8-1.8C98.8,371.4,98.4,371.9,98.4,373z"/>
		<path id="XMLID_10719_" class="st0" d="M107.1,371.7h-2.3l-0.2,1.6c0.1,0,0.2,0,0.3,0c0.4,0,1.2,0.2,1.7,0.7
			c0.5,0.5,0.8,1.1,0.8,2c0,1.7-1.1,3.1-3.1,3.1c-0.6,0-1.3-0.2-1.7-0.4l0.3-1.4c0.3,0.2,0.8,0.3,1.3,0.3c0.9,0,1.4-0.6,1.4-1.5
			c0-1.2-0.9-1.6-1.9-1.6c-0.2,0-0.4,0-0.6,0l0.5-4.4h3.7V371.7z"/>
		<path id="XMLID_10721_" class="st0" d="M108.2,380.6c0.8-1.3,1.4-3.1,1.4-5.6c0-2.5-0.7-4.2-1.4-5.5h1.3c0.8,1,1.6,2.8,1.6,5.5
			c-0.1,2.7-0.8,4.5-1.6,5.6H108.2z"/>
	</g>
	<g id="XMLID_10528_">
		<path id="XMLID_10529_" class="st0" d="M0,397.5c0.4-0.1,1.1-0.2,1.8-0.2c1.2,0,2,0.3,2.5,0.8c0.8,0.7,1.2,1.9,1.2,3.7
			c0,1.9-0.5,3.2-1.3,3.9c-0.6,0.6-1.5,0.9-2.8,0.9c-0.6,0-1.1-0.1-1.5-0.1V397.5z M1.8,405.1c0.1,0,0.2,0,0.3,0
			c0.9,0,1.6-0.8,1.6-3.4c0-1.9-0.5-3-1.6-3c-0.1,0-0.2,0-0.4,0V405.1z"/>
		<path id="XMLID_10532_" class="st0" d="M6.6,401.9c0-0.7,0-1.4-0.1-2h1.6l0.1,1h0c0.3-0.7,0.8-1.1,1.3-1.1c0.2,0,0.3,0,0.4,0v1.8
			c-0.1,0-0.2,0-0.4,0c-0.4,0-0.9,0.3-1.1,1c0,0.1-0.1,0.4-0.1,0.7v3.4H6.6V401.9z"/>
		<path id="XMLID_10534_" class="st0" d="M13.7,397.4h1.8v6.2c0,2.6-1.3,3-2.6,3c-0.4,0-0.7-0.1-0.9-0.1l0.2-1.5
			c0.2,0.1,0.4,0.1,0.6,0.1c0.5,0,1-0.2,1-1.4V397.4z"/>
		<path id="XMLID_10536_" class="st0" d="M19.8,406.5l-0.1-0.7h0c-0.4,0.5-0.9,0.8-1.5,0.8c-1,0-1.8-0.8-1.8-2c0-1.7,1.5-2.5,3-2.5
			V402c0-0.5-0.3-0.9-0.9-0.9c-0.5,0-1,0.1-1.4,0.4l-0.3-1.2c0.4-0.2,1.1-0.5,2.1-0.5c2,0,2.4,1.4,2.4,2.8v2.5c0,0.5,0,1.1,0.1,1.5
			H19.8z M19.5,403.3c-0.6,0-1.4,0.2-1.4,1.1c0,0.7,0.4,0.9,0.6,0.9c0.3,0,0.6-0.2,0.7-0.6c0-0.1,0-0.2,0-0.3V403.3z"/>
		<path id="XMLID_10539_" class="st0" d="M22.5,401.9c0-0.7,0-1.4-0.1-2H24l0.1,0.8h0c0.3-0.5,0.9-0.9,1.6-0.9
			c0.7,0,1.2,0.3,1.5,0.9h0c0.2-0.3,0.4-0.5,0.7-0.7c0.3-0.1,0.6-0.2,0.9-0.2c1.2,0,1.7,0.9,1.7,2.5v4.2h-1.8v-3.9
			c0-0.8-0.1-1.4-0.6-1.4c-0.3,0-0.5,0.2-0.7,0.6c0,0.1-0.1,0.3-0.1,0.5v4.2h-1.8v-4.2c0-0.5-0.1-1.1-0.6-1.1
			c-0.3,0-0.5,0.2-0.7,0.6c0,0.1-0.1,0.3-0.1,0.5v4.2h-1.8V401.9z"/>
		<path id="XMLID_10541_" class="st0" d="M33.3,403.9c0,1,0.6,1.4,1.4,1.4c0.5,0,1-0.1,1.3-0.2l0.2,1.3c-0.5,0.2-1.2,0.3-1.8,0.3
			c-1.8,0-2.8-1.2-2.8-3.3c0-2.2,1.2-3.6,2.7-3.6c1.4,0,2.3,1.1,2.3,3.1c0,0.5,0,0.7-0.1,0.9H33.3z M34.9,402.6
			c0-0.9-0.2-1.5-0.7-1.5c-0.6,0-0.8,0.9-0.8,1.5H34.9z"/>
		<path id="XMLID_10544_" class="st0" d="M37.4,404.9c0.3,0.2,0.7,0.4,1.2,0.4c0.5,0,0.7-0.2,0.7-0.6c0-0.3-0.2-0.6-0.8-0.9
			c-1.1-0.6-1.3-1.3-1.3-1.9c0-1.2,0.9-2.1,2.2-2.1c0.6,0,1,0.1,1.3,0.3l-0.3,1.3c-0.3-0.1-0.6-0.3-0.9-0.3c-0.4,0-0.7,0.3-0.7,0.6
			s0.2,0.5,0.8,0.8c1,0.6,1.3,1.3,1.3,2c0,1.4-1,2.1-2.4,2.1c-0.6,0-1.2-0.1-1.5-0.4L37.4,404.9z"/>
		<path id="XMLID_10546_" class="st0" d="M44.2,397.5c0.6-0.1,1.3-0.2,1.9-0.2c1,0,1.9,0.1,2.4,0.7c0.6,0.5,0.7,1.1,0.7,1.9
			c0,1-0.5,1.9-1.4,2.3v0c0.6,0.2,0.9,0.8,1.1,1.8c0.2,1,0.4,2.1,0.6,2.5h-1.9c-0.1-0.3-0.3-1.2-0.4-2.2c-0.2-1.1-0.4-1.5-1-1.5H46
			v3.7h-1.8V397.5z M46,401.5h0.3c0.8,0,1.2-0.6,1.2-1.4c0-0.8-0.3-1.3-1.1-1.4c-0.1,0-0.3,0-0.4,0.1V401.5z"/>
		<path id="XMLID_10549_" class="st0" d="M55.3,404.5c0,0.7,0,1.4,0.1,2h-1.5l-0.1-0.7h0c-0.3,0.4-0.9,0.8-1.5,0.8
			c-1.3,0-1.8-0.9-1.8-2.7v-4h1.8v3.8c0,0.9,0.2,1.4,0.7,1.4c0.3,0,0.5-0.2,0.6-0.4c0.1-0.1,0.1-0.3,0.1-0.6v-4.2h1.8V404.5z"/>
		<path id="XMLID_10551_" class="st0" d="M56.6,401.9c0-0.7,0-1.4-0.1-2h1.6l0.1,0.8h0c0.3-0.5,0.9-0.9,1.6-0.9
			c0.7,0,1.2,0.3,1.5,0.9h0c0.2-0.3,0.4-0.5,0.7-0.7c0.3-0.1,0.6-0.2,0.9-0.2c1.2,0,1.7,0.9,1.7,2.5v4.2h-1.8v-3.9
			c0-0.8-0.1-1.4-0.6-1.4c-0.3,0-0.5,0.2-0.7,0.6c0,0.1-0.1,0.3-0.1,0.5v4.2h-1.8v-4.2c0-0.5-0.1-1.1-0.6-1.1
			c-0.3,0-0.5,0.2-0.7,0.6c0,0.1-0.1,0.3-0.1,0.5v4.2h-1.8V401.9z"/>
		<path id="XMLID_10553_" class="st0" d="M65.8,406.5c0-0.6,0.1-1.3,0.1-2v-7.4h1.8v3.4h0c0.3-0.5,0.7-0.8,1.4-0.8
			c1.3,0,1.9,1.5,1.9,3.3c0,2.3-0.9,3.6-2.2,3.6c-0.6,0-1-0.2-1.3-0.9h0l-0.1,0.8H65.8z M67.6,404.2c0,0.2,0,0.3,0.1,0.4
			c0.1,0.5,0.4,0.6,0.6,0.6c0.6,0,0.8-0.7,0.8-2c0-1.1-0.3-1.9-0.9-1.9c-0.3,0-0.5,0.3-0.6,0.6c0,0.1-0.1,0.3-0.1,0.4V404.2z"/>
		<path id="XMLID_10556_" class="st0" d="M74.9,406.5l-0.1-0.7h0c-0.4,0.5-0.9,0.8-1.5,0.8c-1,0-1.8-0.8-1.8-2c0-1.7,1.5-2.5,3-2.5
			V402c0-0.5-0.3-0.9-0.9-0.9c-0.5,0-1,0.1-1.4,0.4l-0.3-1.2c0.4-0.2,1.1-0.5,2.1-0.5c2,0,2.4,1.4,2.4,2.8v2.5c0,0.5,0,1.1,0.1,1.5
			H74.9z M74.6,403.3c-0.6,0-1.4,0.2-1.4,1.1c0,0.7,0.4,0.9,0.6,0.9c0.3,0,0.6-0.2,0.7-0.6c0-0.1,0-0.2,0-0.3V403.3z"/>
		<path id="XMLID_10559_" class="st0" d="M82.5,404.5c0,0.7,0,1.4,0.1,2H81l-0.1-0.7h0c-0.3,0.4-0.9,0.8-1.5,0.8
			c-1.3,0-1.8-0.9-1.8-2.7v-4h1.8v3.8c0,0.9,0.2,1.4,0.7,1.4c0.3,0,0.5-0.2,0.6-0.4c0.1-0.1,0.1-0.3,0.1-0.6v-4.2h1.8V404.5z"/>
		<path id="XMLID_10561_" class="st0" d="M88.7,399.9c0,0.6-0.1,1.3-0.1,2.1v3.8c0,1.4-0.3,2.2-0.8,2.7c-0.5,0.5-1.2,0.7-2.2,0.7
			c-0.6,0-1.2-0.1-1.7-0.3l0.3-1.4c0.3,0.1,0.8,0.3,1.3,0.3c0.9,0,1.3-0.6,1.3-1.6v-0.4h0c-0.2,0.4-0.7,0.7-1.2,0.7
			c-1.5,0-2.1-1.6-2.1-3.2c0-2.2,1-3.5,2.2-3.5c0.5,0,1,0.3,1.2,0.8h0l0.1-0.7H88.7z M86.9,402.3c0-0.2,0-0.4-0.1-0.5
			c-0.1-0.3-0.3-0.5-0.6-0.5c-0.6,0-0.9,0.9-0.9,2c0,1.2,0.4,1.9,0.9,1.9c0.2,0,0.5-0.1,0.6-0.5c0.1-0.1,0.1-0.4,0.1-0.5V402.3z"/>
		<path id="XMLID_10564_" class="st0" d="M89.9,397.1h1.8v3.5h0c0.1-0.2,0.4-0.4,0.6-0.6c0.3-0.1,0.6-0.2,0.9-0.2
			c1.2,0,1.7,1,1.7,2.7v4h-1.8v-4c0-0.7-0.1-1.2-0.7-1.2c-0.3,0-0.6,0.2-0.7,0.6c0,0.1-0.1,0.4-0.1,0.5v4.1h-1.8V397.1z"/>
		<path id="XMLID_10566_" class="st0" d="M97.1,407.9c0.3,0,0.7-0.1,0.9-0.4c0.3-0.3,0.3-0.7,0.3-1.8v-5.8h1.8v6.2
			c0,1.5-0.3,2.2-0.9,2.6c-0.5,0.4-1.3,0.6-1.9,0.6L97.1,407.9z M100.1,398.1c0,0.6-0.4,1-0.9,1c-0.5,0-0.9-0.4-0.9-1
			c0-0.6,0.4-1,0.9-1C99.7,397.2,100.1,397.5,100.1,398.1z"/>
		<path id="XMLID_10569_" class="st0" d="M106.2,403.2c0,2.8-1.5,3.5-2.5,3.5c-1.6,0-2.5-1.3-2.5-3.4c0-2.4,1.3-3.5,2.6-3.5
			C105.2,399.8,106.2,401.1,106.2,403.2z M102.9,403.2c0,1.1,0.2,2.1,0.8,2.1c0.6,0,0.7-1.1,0.7-2.1c0-0.9-0.1-2.1-0.7-2.1
			C103,401.1,102.9,402.3,102.9,403.2z"/>
		<path id="XMLID_10572_" class="st0" d="M109,398.1c0,0.6-0.4,1-0.9,1c-0.5,0-0.9-0.4-0.9-1c0-0.6,0.4-1,0.9-1
			C108.6,397.2,109,397.5,109,398.1z M107.2,406.5v-6.7h1.8v6.7H107.2z"/>
		<path id="XMLID_10575_" class="st0" d="M110.2,401.9c0-0.7,0-1.4-0.1-2h1.5l0.1,0.8h0c0.4-0.5,0.9-0.9,1.6-0.9
			c1.3,0,1.8,1,1.8,2.5v4.3h-1.8v-4.2c0-0.6-0.1-1.1-0.7-1.1c-0.3,0-0.5,0.2-0.7,0.6c-0.1,0.1-0.1,0.4-0.1,0.6v4.1h-1.8V401.9z"/>
		<path id="XMLID_10577_" class="st0" d="M116.4,404.9c0.3,0.2,0.7,0.4,1.2,0.4c0.5,0,0.7-0.2,0.7-0.6c0-0.3-0.2-0.6-0.8-0.9
			c-1.1-0.6-1.3-1.3-1.3-1.9c0-1.2,0.9-2.1,2.2-2.1c0.6,0,1,0.1,1.3,0.3l-0.3,1.3c-0.3-0.1-0.6-0.3-0.9-0.3c-0.4,0-0.7,0.3-0.7,0.6
			s0.2,0.5,0.8,0.8c1,0.6,1.3,1.3,1.3,2c0,1.4-1,2.1-2.4,2.1c-0.6,0-1.2-0.1-1.5-0.4L116.4,404.9z"/>
		<path id="XMLID_10579_" class="st0" d="M15.2,413.8c0.6-0.1,1.3-0.2,1.9-0.2c1,0,1.9,0.1,2.4,0.7c0.6,0.5,0.7,1.1,0.7,1.9
			c0,1-0.5,1.9-1.4,2.3v0c0.6,0.2,0.9,0.8,1.1,1.8c0.2,1,0.4,2.1,0.6,2.5h-1.9c-0.1-0.3-0.3-1.2-0.4-2.2c-0.2-1.1-0.4-1.5-1-1.5H17
			v3.7h-1.8V413.8z M17,417.8h0.3c0.8,0,1.2-0.6,1.2-1.4c0-0.8-0.3-1.3-1.1-1.4c-0.1,0-0.3,0-0.4,0.1V417.8z"/>
		<path id="XMLID_10582_" class="st0" d="M24.4,422.9l-0.1-0.7h0c-0.4,0.5-0.9,0.8-1.5,0.8c-1,0-1.8-0.8-1.8-2c0-1.7,1.5-2.5,3-2.5
			v-0.1c0-0.5-0.3-0.9-0.9-0.9c-0.5,0-1,0.1-1.4,0.4l-0.3-1.2c0.4-0.2,1.1-0.5,2.1-0.5c2,0,2.4,1.4,2.4,2.8v2.5c0,0.5,0,1.1,0.1,1.5
			H24.4z M24.1,419.6c-0.6,0-1.4,0.2-1.4,1.1c0,0.7,0.4,0.9,0.6,0.9c0.3,0,0.6-0.2,0.7-0.6c0-0.1,0-0.2,0-0.3V419.6z"/>
		<path id="XMLID_10585_" class="st0" d="M29.1,414.4v1.8h1.3v1.3h-1.3v3c0,0.8,0.3,1,0.7,1c0.2,0,0.3,0,0.5,0l0,1.4
			c-0.2,0.1-0.6,0.1-1.1,0.1c-0.5,0-1-0.1-1.3-0.4c-0.4-0.4-0.6-0.9-0.6-1.9v-3.1h-0.8v-1.3h0.8v-1.4L29.1,414.4z"/>
		<path id="XMLID_10587_" class="st0" d="M33,414.4c0,0.6-0.4,1-0.9,1c-0.5,0-0.9-0.4-0.9-1c0-0.6,0.4-1,0.9-1
			C32.6,413.5,33,413.8,33,414.4z M31.2,422.9v-6.7H33v6.7H31.2z"/>
		<path id="XMLID_10590_" class="st0" d="M39.1,419.5c0,2.8-1.5,3.5-2.5,3.5c-1.6,0-2.5-1.3-2.5-3.4c0-2.4,1.3-3.5,2.6-3.5
			C38.2,416.1,39.1,417.4,39.1,419.5z M35.8,419.5c0,1.1,0.2,2.1,0.8,2.1c0.6,0,0.7-1.1,0.7-2.1c0-0.9-0.1-2.1-0.7-2.1
			C35.9,417.5,35.8,418.6,35.8,419.5z"/>
		<path id="XMLID_10593_" class="st0" d="M40.1,418.2c0-0.7,0-1.4-0.1-2h1.5l0.1,0.8h0c0.4-0.5,0.9-0.9,1.6-0.9c1.3,0,1.8,1,1.8,2.5
			v4.3h-1.8v-4.2c0-0.6-0.1-1.1-0.7-1.1c-0.3,0-0.5,0.2-0.7,0.6c-0.1,0.1-0.1,0.4-0.1,0.6v4.1h-1.8V418.2z"/>
		<path id="XMLID_10595_" class="st0" d="M49.3,422.9l-0.1-0.7h0c-0.4,0.5-0.9,0.8-1.5,0.8c-1,0-1.8-0.8-1.8-2c0-1.7,1.5-2.5,3-2.5
			v-0.1c0-0.5-0.3-0.9-0.9-0.9c-0.5,0-1,0.1-1.4,0.4l-0.3-1.2c0.4-0.2,1.1-0.5,2.1-0.5c2,0,2.4,1.4,2.4,2.8v2.5c0,0.5,0,1.1,0.1,1.5
			H49.3z M49.1,419.6c-0.6,0-1.4,0.2-1.4,1.1c0,0.7,0.4,0.9,0.6,0.9c0.3,0,0.6-0.2,0.7-0.6c0-0.1,0-0.2,0-0.3V419.6z"/>
		<path id="XMLID_10598_" class="st0" d="M52.1,413.5h1.8v9.4h-1.8V413.5z"/>
		<path id="XMLID_10600_" class="st0" d="M60,413.5c-0.8,1.2-1.4,3-1.4,5.6c0,2.5,0.7,4.2,1.4,5.5h-1.3c-0.8-1-1.6-2.9-1.6-5.5
			c0.1-2.7,0.8-4.5,1.6-5.5H60z"/>
		<path id="XMLID_10602_" class="st0" d="M66.1,418.1c0,3.5-1.2,4.9-3,4.9c-2.1,0-2.9-2.2-2.9-4.7c0-2.5,1-4.7,3-4.7
			C65.5,413.6,66.1,416,66.1,418.1z M62.1,418.3c0,2.1,0.4,3.1,1.1,3.1c0.7,0,1-1.4,1-3.2c0-1.6-0.2-3.1-1-3.1
			C62.5,415.1,62.1,416.3,62.1,418.3z"/>
		<path id="XMLID_10605_" class="st0" d="M70.8,422.8c-0.2,0.1-0.6,0.2-1.1,0.2c-1.7,0-2.8-1.2-2.8-3.3c0-2.1,1.2-3.5,3-3.5
			c0.4,0,0.8,0.1,1,0.2l-0.2,1.4c-0.1-0.1-0.4-0.1-0.7-0.1c-0.9,0-1.4,0.8-1.4,2c0,1.2,0.5,1.9,1.3,1.9c0.3,0,0.5,0,0.7-0.1
			L70.8,422.8z"/>
		<path id="XMLID_10607_" class="st0" d="M73.8,414.4v1.8h1.3v1.3h-1.3v3c0,0.8,0.3,1,0.7,1c0.2,0,0.3,0,0.5,0l0,1.4
			c-0.2,0.1-0.6,0.1-1.1,0.1c-0.5,0-1-0.1-1.3-0.4c-0.4-0.4-0.6-0.9-0.6-1.9v-3.1h-0.8v-1.3h0.8v-1.4L73.8,414.4z"/>
		<path id="XMLID_10609_" class="st0" d="M75.9,421.8c0-0.7,0.5-1.2,1-1.2c0.6,0,1,0.4,1,1.2c0,0.7-0.4,1.2-1,1.2
			C76.3,423,75.9,422.5,75.9,421.8z"/>
		<path id="XMLID_10611_" class="st0" d="M80.8,415.7L80.8,415.7l-1.5,0.8l-0.3-1.4l2-1h1.6v8.8h-1.8V415.7z"/>
		<path id="XMLID_10613_" class="st0" d="M85.2,421.5c0.3,0,0.5,0,0.8-0.1c0.3-0.1,0.7-0.2,1-0.5c0.4-0.4,0.7-1,0.9-1.8h0
			c-0.3,0.3-0.7,0.5-1.3,0.5c-1.1,0-2.1-1-2.1-2.6c0-1.5,0.9-3.1,2.6-3.1c1.6,0,2.5,1.5,2.5,3.6c0,2-0.6,3.4-1.5,4.3
			c-0.5,0.6-1.3,1-2.2,1.1c-0.3,0-0.6,0-0.8,0V421.5z M86.2,416.9c0,0.9,0.3,1.6,0.8,1.6c0.3,0,0.6-0.2,0.7-0.5
			c0.1-0.2,0.1-0.4,0.1-0.9c0-1.2-0.3-1.8-0.8-1.8C86.6,415.2,86.2,415.8,86.2,416.9z"/>
		<path id="XMLID_10616_" class="st0" d="M91,421.5c0.3,0,0.5,0,0.8-0.1c0.3-0.1,0.7-0.2,1-0.5c0.4-0.4,0.7-1,0.9-1.8h0
			c-0.3,0.3-0.7,0.5-1.3,0.5c-1.1,0-2.1-1-2.1-2.6c0-1.5,0.9-3.1,2.6-3.1c1.6,0,2.5,1.5,2.5,3.6c0,2-0.6,3.4-1.5,4.3
			c-0.5,0.6-1.3,1-2.2,1.1c-0.3,0-0.6,0-0.8,0V421.5z M92,416.9c0,0.9,0.3,1.6,0.8,1.6c0.3,0,0.6-0.2,0.7-0.5
			c0.1-0.2,0.1-0.4,0.1-0.9c0-1.2-0.3-1.8-0.8-1.8C92.4,415.2,92,415.8,92,416.9z"/>
		<path id="XMLID_10619_" class="st0" d="M98.9,422.9v-2.1h-3v-1.2l2.9-5.5h1.7v5.3h0.9v1.4h-0.9v2.1H98.9z M98.9,419.3v-1.8
			c0-0.5,0.1-1,0.1-1.5H99c-0.2,0.5-0.4,0.9-0.6,1.4l-1,1.9v0H98.9z"/>
		<path id="XMLID_10622_" class="st0" d="M101.8,424.5c0.8-1.3,1.4-3.1,1.4-5.6c0-2.5-0.7-4.2-1.4-5.5h1.3c0.8,1,1.6,2.8,1.6,5.5
			c-0.1,2.7-0.8,4.5-1.6,5.6H101.8z"/>
	</g>
	<g id="XMLID_10513_">
		<path id="XMLID_10514_" class="st0" d="M274.2,405.9c0.5-0.1,1.3-0.2,2-0.2c0.9,0,1.7,0.1,2.3,0.7c0.5,0.4,0.7,1,0.7,1.7
			c0,0.8-0.4,1.6-1.3,2v0.1c1.1,0.3,1.6,1.2,1.6,2.2c0,0.8-0.2,1.3-0.7,1.8c-0.5,0.6-1.5,0.9-3,0.9c-0.7,0-1.3,0-1.7-0.1V405.9z
			 M276,409.5h0.4c0.6,0,1.1-0.5,1.1-1.3c0-0.7-0.3-1.2-1-1.2c-0.2,0-0.4,0-0.5,0.1V409.5z M276,413.6c0.1,0,0.2,0,0.4,0
			c0.7,0,1.3-0.4,1.3-1.4c0-0.9-0.6-1.4-1.3-1.4H276V413.6z"/>
		<path id="XMLID_10518_" class="st0" d="M285.4,411.6c0,2.8-1.5,3.5-2.5,3.5c-1.6,0-2.5-1.3-2.5-3.4c0-2.4,1.3-3.5,2.6-3.5
			C284.5,408.2,285.4,409.5,285.4,411.6z M282.1,411.6c0,1.1,0.2,2.1,0.8,2.1c0.6,0,0.7-1.1,0.7-2.1c0-0.9-0.1-2.1-0.7-2.1
			C282.3,409.5,282.1,410.7,282.1,411.6z"/>
		<path id="XMLID_10521_" class="st0" d="M291.3,411.6c0,2.8-1.5,3.5-2.5,3.5c-1.6,0-2.5-1.3-2.5-3.4c0-2.4,1.3-3.5,2.6-3.5
			C290.4,408.2,291.3,409.5,291.3,411.6z M288,411.6c0,1.1,0.2,2.1,0.8,2.1c0.6,0,0.7-1.1,0.7-2.1c0-0.9-0.1-2.1-0.7-2.1
			C288.1,409.5,288,410.7,288,411.6z"/>
		<path id="XMLID_10524_" class="st0" d="M296,414.8c-0.2,0.1-0.6,0.2-1.1,0.2c-1.7,0-2.8-1.2-2.8-3.3c0-2.1,1.2-3.5,3-3.5
			c0.4,0,0.8,0.1,1,0.2l-0.2,1.4c-0.1-0.1-0.4-0.1-0.7-0.1c-0.9,0-1.4,0.8-1.4,2c0,1.2,0.5,1.9,1.3,1.9c0.3,0,0.5,0,0.7-0.1
			L296,414.8z"/>
		<path id="XMLID_10526_" class="st0" d="M296.7,405.5h1.8v3.5h0c0.1-0.2,0.4-0.4,0.6-0.6c0.3-0.1,0.6-0.2,0.9-0.2
			c1.2,0,1.7,1,1.7,2.7v4h-1.8v-4c0-0.7-0.1-1.2-0.7-1.2c-0.3,0-0.6,0.2-0.7,0.6c0,0.1-0.1,0.4-0.1,0.5v4.1h-1.8V405.5z"/>
	</g>
	<g id="XMLID_10495_">
		<path id="XMLID_10496_" class="st0" d="M350.3,362v6c0,1.3,0.4,1.8,0.9,1.8c0.5,0,0.9-0.4,0.9-1.8v-6h1.8v5.6
			c0,2.4-0.9,3.6-2.7,3.6c-1.9,0-2.7-1.3-2.7-3.6V362H350.3z"/>
		<path id="XMLID_10498_" class="st0" d="M355,369.5c0.3,0.2,0.7,0.4,1.2,0.4c0.5,0,0.7-0.2,0.7-0.6c0-0.3-0.2-0.6-0.8-0.9
			c-1.1-0.6-1.3-1.3-1.3-1.9c0-1.2,0.9-2.1,2.2-2.1c0.6,0,1,0.1,1.3,0.3L358,366c-0.3-0.1-0.6-0.3-0.9-0.3c-0.4,0-0.7,0.3-0.7,0.6
			c0,0.3,0.2,0.5,0.8,0.8c1,0.6,1.3,1.3,1.3,2c0,1.4-1,2.1-2.4,2.1c-0.6,0-1.2-0.1-1.5-0.4L355,369.5z"/>
		<path id="XMLID_10500_" class="st0" d="M360.9,368.4c0,1,0.6,1.4,1.4,1.4c0.5,0,1-0.1,1.3-0.2l0.2,1.3c-0.5,0.2-1.2,0.3-1.8,0.3
			c-1.8,0-2.8-1.2-2.8-3.3c0-2.2,1.2-3.6,2.7-3.6c1.4,0,2.3,1.1,2.3,3.1c0,0.5,0,0.7-0.1,0.9H360.9z M362.5,367.2
			c0-0.9-0.2-1.5-0.7-1.5c-0.6,0-0.8,0.9-0.8,1.5H362.5z"/>
		<path id="XMLID_10503_" class="st0" d="M371.9,371c-0.3,0.1-0.8,0.2-1.4,0.2c-2.3,0-3.5-1.9-3.5-4.5c0-3.5,1.9-4.8,3.7-4.8
			c0.6,0,1.1,0.1,1.2,0.2l-0.3,1.5c-0.2-0.1-0.4-0.2-0.8-0.2c-1,0-1.9,0.9-1.9,3.1c0,2.2,0.8,3,1.9,3c0.3,0,0.6-0.1,0.9-0.1
			L371.9,371z"/>
		<path id="XMLID_10505_" class="st0" d="M375.7,371.1l-0.1-0.7h0c-0.4,0.5-0.9,0.8-1.5,0.8c-1,0-1.8-0.8-1.8-2c0-1.7,1.5-2.5,3-2.5
			v-0.1c0-0.5-0.3-0.9-0.9-0.9c-0.5,0-1,0.1-1.4,0.4l-0.3-1.2c0.4-0.2,1.1-0.5,2.1-0.5c2,0,2.4,1.4,2.4,2.8v2.5c0,0.5,0,1.1,0.1,1.5
			H375.7z M375.5,367.9c-0.6,0-1.4,0.2-1.4,1.1c0,0.7,0.4,0.9,0.6,0.9c0.3,0,0.6-0.2,0.7-0.6c0-0.1,0-0.2,0-0.3V367.9z"/>
		<path id="XMLID_10508_" class="st0" d="M378.4,369.5c0.3,0.2,0.7,0.4,1.2,0.4c0.5,0,0.7-0.2,0.7-0.6c0-0.3-0.2-0.6-0.8-0.9
			c-1.1-0.6-1.3-1.3-1.3-1.9c0-1.2,0.9-2.1,2.2-2.1c0.6,0,1,0.1,1.3,0.3l-0.3,1.3c-0.3-0.1-0.6-0.3-0.9-0.3c-0.4,0-0.7,0.3-0.7,0.6
			c0,0.3,0.2,0.5,0.8,0.8c1,0.6,1.3,1.3,1.3,2c0,1.4-1,2.1-2.4,2.1c-0.6,0-1.2-0.1-1.5-0.4L378.4,369.5z"/>
		<path id="XMLID_10510_" class="st0" d="M384.4,368.4c0,1,0.6,1.4,1.4,1.4c0.5,0,1-0.1,1.3-0.2l0.2,1.3c-0.5,0.2-1.2,0.3-1.8,0.3
			c-1.8,0-2.8-1.2-2.8-3.3c0-2.2,1.2-3.6,2.7-3.6c1.4,0,2.3,1.1,2.3,3.1c0,0.5,0,0.7-0.1,0.9H384.4z M386,367.2
			c0-0.9-0.2-1.5-0.7-1.5c-0.6,0-0.8,0.9-0.8,1.5H386z"/>
	</g>
	<g id="XMLID_10451_">
		<path id="XMLID_10452_" class="st0" d="M463.5,110.4c0.6-0.1,1.3-0.2,1.9-0.2c1,0,1.9,0.1,2.4,0.7c0.6,0.5,0.7,1.1,0.7,1.9
			c0,1-0.5,1.9-1.4,2.3v0c0.6,0.2,0.9,0.8,1.1,1.8c0.2,1,0.4,2.1,0.6,2.5h-1.9c-0.1-0.3-0.3-1.2-0.4-2.2c-0.2-1.1-0.4-1.5-1-1.5
			h-0.3v3.7h-1.8V110.4z M465.3,114.4h0.3c0.8,0,1.2-0.6,1.2-1.4c0-0.8-0.3-1.3-1.1-1.4c-0.1,0-0.3,0-0.4,0.1V114.4z"/>
		<path id="XMLID_10455_" class="st0" d="M471.2,116.7c0,1,0.6,1.4,1.4,1.4c0.5,0,1-0.1,1.3-0.2l0.2,1.3c-0.5,0.2-1.2,0.3-1.8,0.3
			c-1.8,0-2.8-1.2-2.8-3.3c0-2.2,1.2-3.6,2.7-3.6c1.4,0,2.3,1.1,2.3,3.1c0,0.5,0,0.7-0.1,0.9H471.2z M472.8,115.5
			c0-0.9-0.2-1.5-0.7-1.5c-0.6,0-0.8,0.9-0.8,1.5H472.8z"/>
		<path id="XMLID_10458_" class="st0" d="M476.7,112.8l0.5,3c0.1,0.6,0.2,1.2,0.3,1.9h0c0.1-0.7,0.2-1.2,0.3-1.9l0.5-3h1.8l-1.8,6.7
			h-1.6l-1.8-6.7H476.7z"/>
		<path id="XMLID_10460_" class="st0" d="M482.5,111c0,0.6-0.4,1-0.9,1c-0.5,0-0.9-0.4-0.9-1c0-0.6,0.4-1,0.9-1
			C482.1,110,482.5,110.4,482.5,111z M480.7,119.4v-6.7h1.8v6.7H480.7z"/>
		<path id="XMLID_10463_" class="st0" d="M483.7,117.8c0.3,0.2,0.7,0.4,1.2,0.4c0.5,0,0.7-0.2,0.7-0.6c0-0.3-0.2-0.6-0.8-0.9
			c-1.1-0.6-1.3-1.3-1.3-1.9c0-1.2,0.9-2.1,2.2-2.1c0.6,0,1,0.1,1.3,0.3l-0.3,1.3c-0.3-0.1-0.6-0.3-0.9-0.3c-0.4,0-0.7,0.3-0.7,0.6
			s0.2,0.5,0.8,0.8c1,0.6,1.3,1.3,1.3,2c0,1.4-1,2.1-2.4,2.1c-0.6,0-1.2-0.1-1.5-0.4L483.7,117.8z"/>
		<path id="XMLID_10465_" class="st0" d="M489.9,111c0,0.6-0.4,1-0.9,1c-0.5,0-0.9-0.4-0.9-1c0-0.6,0.4-1,0.9-1
			C489.5,110,489.9,110.4,489.9,111z M488.1,119.4v-6.7h1.8v6.7H488.1z"/>
		<path id="XMLID_10468_" class="st0" d="M496,116.1c0,2.8-1.5,3.5-2.5,3.5c-1.6,0-2.5-1.3-2.5-3.4c0-2.4,1.3-3.5,2.6-3.5
			C495.1,112.7,496,114,496,116.1z M492.7,116.1c0,1.1,0.2,2.1,0.8,2.1c0.6,0,0.7-1.1,0.7-2.1c0-0.9-0.1-2.1-0.7-2.1
			C492.8,114,492.7,115.2,492.7,116.1z"/>
		<path id="XMLID_10471_" class="st0" d="M497,114.8c0-0.7,0-1.4-0.1-2h1.5l0.1,0.8h0c0.4-0.5,0.9-0.9,1.6-0.9c1.3,0,1.8,1,1.8,2.5
			v4.3h-1.8v-4.2c0-0.6-0.1-1.1-0.7-1.1c-0.3,0-0.5,0.2-0.7,0.6c-0.1,0.1-0.1,0.4-0.1,0.6v4.1H497V114.8z"/>
		<path id="XMLID_10473_" class="st0" d="M504.7,116.7c0,1,0.6,1.4,1.4,1.4c0.5,0,1-0.1,1.3-0.2l0.2,1.3c-0.5,0.2-1.2,0.3-1.8,0.3
			c-1.8,0-2.8-1.2-2.8-3.3c0-2.2,1.2-3.6,2.7-3.6c1.4,0,2.3,1.1,2.3,3.1c0,0.5,0,0.7-0.1,0.9H504.7z M506.3,115.5
			c0-0.9-0.2-1.5-0.7-1.5c-0.6,0-0.8,0.9-0.8,1.5H506.3z"/>
		<path id="XMLID_10476_" class="st0" d="M508.9,117.8c0.3,0.2,0.7,0.4,1.2,0.4c0.5,0,0.7-0.2,0.7-0.6c0-0.3-0.2-0.6-0.8-0.9
			c-1.1-0.6-1.3-1.3-1.3-1.9c0-1.2,0.9-2.1,2.2-2.1c0.6,0,1,0.1,1.3,0.3l-0.3,1.3c-0.3-0.1-0.6-0.3-0.9-0.3c-0.4,0-0.7,0.3-0.7,0.6
			s0.2,0.5,0.8,0.8c1,0.6,1.3,1.3,1.3,2c0,1.4-1,2.1-2.4,2.1c-0.6,0-1.2-0.1-1.5-0.4L508.9,117.8z"/>
		<path id="XMLID_10478_" class="st0" d="M467.8,128.4c0-0.7,0-1.4-0.1-2h1.6l0.1,0.8h0c0.3-0.5,0.9-0.9,1.6-0.9
			c0.7,0,1.2,0.3,1.5,0.9h0c0.2-0.3,0.4-0.5,0.7-0.7c0.3-0.1,0.6-0.2,0.9-0.2c1.2,0,1.7,0.9,1.7,2.5v4.2h-1.8v-3.9
			c0-0.8-0.1-1.4-0.6-1.4c-0.3,0-0.5,0.2-0.7,0.6c0,0.1-0.1,0.3-0.1,0.5v4.2h-1.8v-4.2c0-0.5-0.1-1.1-0.6-1.1
			c-0.3,0-0.5,0.2-0.7,0.6c0,0.1-0.1,0.3-0.1,0.5v4.2h-1.8V128.4z"/>
		<path id="XMLID_10480_" class="st0" d="M478.6,130.3c0,1,0.6,1.4,1.4,1.4c0.5,0,1-0.1,1.3-0.2l0.2,1.3c-0.5,0.2-1.2,0.3-1.8,0.3
			c-1.8,0-2.8-1.2-2.8-3.3c0-2.2,1.2-3.6,2.7-3.6c1.4,0,2.3,1.1,2.3,3.1c0,0.5,0,0.7-0.1,0.9H478.6z M480.1,129.1
			c0-0.9-0.2-1.5-0.7-1.5c-0.6,0-0.8,0.9-0.8,1.5H480.1z"/>
		<path id="XMLID_10483_" class="st0" d="M482.8,128.4c0-0.7,0-1.4-0.1-2h1.5l0.1,0.8h0c0.4-0.5,0.9-0.9,1.6-0.9
			c1.3,0,1.8,1,1.8,2.5v4.3H486v-4.2c0-0.6-0.1-1.1-0.7-1.1c-0.3,0-0.5,0.2-0.7,0.6c-0.1,0.1-0.1,0.4-0.1,0.6v4.1h-1.8V128.4z"/>
		<path id="XMLID_10485_" class="st0" d="M493.9,129.7c0,2.8-1.5,3.5-2.5,3.5c-1.6,0-2.5-1.3-2.5-3.4c0-2.4,1.3-3.5,2.6-3.5
			C492.9,126.3,493.9,127.6,493.9,129.7z M490.5,129.7c0,1.1,0.2,2.1,0.8,2.1c0.6,0,0.7-1.1,0.7-2.1c0-0.9-0.1-2.1-0.7-2.1
			C490.7,127.6,490.5,128.8,490.5,129.7z"/>
		<path id="XMLID_10488_" class="st0" d="M494.8,128.4c0-0.7,0-1.4-0.1-2h1.6l0.1,1h0c0.3-0.7,0.8-1.1,1.3-1.1c0.2,0,0.3,0,0.4,0
			v1.8c-0.1,0-0.2,0-0.4,0c-0.4,0-0.9,0.3-1.1,1c0,0.1-0.1,0.4-0.1,0.7v3.4h-1.8V128.4z"/>
		<path id="XMLID_10490_" class="st0" d="M500.3,130.3c0,1,0.6,1.4,1.4,1.4c0.5,0,1-0.1,1.3-0.2l0.2,1.3c-0.5,0.2-1.2,0.3-1.8,0.3
			c-1.8,0-2.8-1.2-2.8-3.3c0-2.2,1.2-3.6,2.7-3.6c1.4,0,2.3,1.1,2.3,3.1c0,0.5,0,0.7-0.1,0.9H500.3z M501.9,129.1
			c0-0.9-0.2-1.5-0.7-1.5c-0.6,0-0.8,0.9-0.8,1.5H501.9z"/>
		<path id="XMLID_10493_" class="st0" d="M504.4,131.4c0.3,0.2,0.7,0.4,1.2,0.4c0.5,0,0.7-0.2,0.7-0.6c0-0.3-0.2-0.6-0.8-0.9
			c-1.1-0.6-1.3-1.3-1.3-1.9c0-1.2,0.9-2.1,2.2-2.1c0.6,0,1,0.1,1.3,0.3l-0.3,1.3c-0.3-0.1-0.6-0.3-0.9-0.3c-0.4,0-0.7,0.3-0.7,0.6
			c0,0.3,0.2,0.5,0.8,0.8c1,0.6,1.3,1.3,1.3,2c0,1.4-1,2.1-2.4,2.1c-0.6,0-1.2-0.1-1.5-0.4L504.4,131.4z"/>
	</g>
	<g id="XMLID_10328_">
		<path id="XMLID_10329_" class="st0" d="M374.2,300.9c0-0.9-0.1-2.1-0.1-3h0c-0.2,1-0.4,2.1-0.6,2.8l-0.8,3.3h-1.3l-0.8-3.2
			c-0.2-0.7-0.4-1.9-0.6-2.9h0c0,1-0.1,2.1-0.1,3.1l-0.1,3.2h-1.5l0.7-9.2h1.9l0.7,3.3c0.3,1.2,0.5,2.2,0.7,3.2h0
			c0.1-1,0.3-2.1,0.6-3.2l0.7-3.3h1.9l0.6,9.2h-1.6L374.2,300.9z"/>
		<path id="XMLID_10331_" class="st0" d="M378.9,295.7c0,0.6-0.4,1-0.9,1c-0.5,0-0.9-0.4-0.9-1c0-0.6,0.4-1,0.9-1
			C378.5,294.7,378.9,295.1,378.9,295.7z M377.1,304.1v-6.7h1.8v6.7H377.1z"/>
		<path id="XMLID_10334_" class="st0" d="M383.8,304c-0.2,0.1-0.6,0.2-1.1,0.2c-1.7,0-2.8-1.2-2.8-3.3c0-2.1,1.2-3.5,3-3.5
			c0.4,0,0.8,0.1,1,0.2l-0.2,1.4c-0.1-0.1-0.4-0.1-0.7-0.1c-0.9,0-1.4,0.8-1.4,2c0,1.2,0.5,1.9,1.3,1.9c0.3,0,0.5,0,0.7-0.1
			L383.8,304z"/>
		<path id="XMLID_10336_" class="st0" d="M384.5,299.4c0-0.7,0-1.4-0.1-2h1.6l0.1,1h0c0.3-0.7,0.8-1.1,1.3-1.1c0.2,0,0.3,0,0.4,0
			v1.8c-0.1,0-0.2,0-0.4,0c-0.4,0-0.9,0.3-1.1,1c0,0.1-0.1,0.4-0.1,0.7v3.4h-1.8V299.4z"/>
		<path id="XMLID_10338_" class="st0" d="M393.3,300.7c0,2.8-1.5,3.5-2.5,3.5c-1.6,0-2.5-1.3-2.5-3.4c0-2.4,1.3-3.5,2.6-3.5
			C392.4,297.3,393.3,298.6,393.3,300.7z M390,300.7c0,1.1,0.2,2.1,0.8,2.1c0.6,0,0.7-1.1,0.7-2.1c0-0.9-0.1-2.1-0.7-2.1
			C390.1,298.7,390,299.8,390,300.7z"/>
		<path id="XMLID_10341_" class="st0" d="M394.3,302.5c0.3,0.2,0.7,0.4,1.2,0.4c0.5,0,0.7-0.2,0.7-0.6c0-0.3-0.2-0.6-0.8-0.9
			c-1.1-0.6-1.3-1.3-1.3-1.9c0-1.2,0.9-2.1,2.2-2.1c0.6,0,1,0.1,1.3,0.3l-0.3,1.3c-0.3-0.1-0.6-0.3-0.9-0.3c-0.4,0-0.7,0.3-0.7,0.6
			c0,0.3,0.2,0.5,0.8,0.8c1,0.6,1.3,1.3,1.3,2c0,1.4-1,2.1-2.4,2.1c-0.6,0-1.2-0.1-1.5-0.4L394.3,302.5z"/>
		<path id="XMLID_10343_" class="st0" d="M403.6,300.7c0,2.8-1.5,3.5-2.5,3.5c-1.6,0-2.5-1.3-2.5-3.4c0-2.4,1.3-3.5,2.6-3.5
			C402.6,297.3,403.6,298.6,403.6,300.7z M400.3,300.7c0,1.1,0.2,2.1,0.8,2.1c0.6,0,0.7-1.1,0.7-2.1c0-0.9-0.1-2.1-0.7-2.1
			C400.4,298.7,400.3,299.8,400.3,300.7z"/>
		<path id="XMLID_10346_" class="st0" d="M404.9,304.1v-5.4H404v-1.3h0.9v-0.3c0-0.7,0.1-1.4,0.7-2c0.4-0.4,1-0.6,1.6-0.6
			c0.5,0,0.8,0.1,1.1,0.1l-0.2,1.4c-0.1-0.1-0.3-0.1-0.5-0.1c-0.6,0-0.8,0.5-0.8,1.1v0.3h1.2v1.3h-1.2v5.4H404.9z"/>
		<path id="XMLID_10348_" class="st0" d="M410.7,295.6v1.8h1.3v1.3h-1.3v3c0,0.8,0.3,1,0.7,1c0.2,0,0.3,0,0.5,0l0,1.4
			c-0.2,0.1-0.6,0.1-1.1,0.1c-0.5,0-1-0.1-1.3-0.4c-0.4-0.4-0.6-0.9-0.6-1.9v-3.1h-0.8v-1.3h0.8V296L410.7,295.6z"/>
		<path id="XMLID_10350_" class="st0" d="M412.2,305.8c0.4-1.1,0.8-2.5,0.9-3.6l1.8-0.1c-0.4,1.2-1,2.7-1.6,3.6L412.2,305.8z"/>
		<path id="XMLID_10352_" class="st0" d="M423.6,299.3c0,3.5-1.2,4.9-3,4.9c-2.1,0-2.9-2.2-2.9-4.7c0-2.5,1-4.7,3-4.7
			C422.9,294.8,423.6,297.2,423.6,299.3z M419.5,299.5c0,2.1,0.4,3.1,1.1,3.1c0.7,0,1-1.4,1-3.2c0-1.6-0.2-3.1-1-3.1
			C419.9,296.3,419.5,297.5,419.5,299.5z"/>
		<path id="XMLID_10355_" class="st0" d="M424.6,299.4c0-0.7,0-1.4-0.1-2h1.6l0.1,1h0c0.3-0.7,0.8-1.1,1.3-1.1c0.2,0,0.3,0,0.4,0
			v1.8c-0.1,0-0.2,0-0.4,0c-0.4,0-0.9,0.3-1.1,1c0,0.1-0.1,0.4-0.1,0.7v3.4h-1.8V299.4z"/>
		<path id="XMLID_10357_" class="st0" d="M431.6,304.1l-0.1-0.7h0c-0.4,0.5-0.9,0.8-1.5,0.8c-1,0-1.8-0.8-1.8-2c0-1.7,1.5-2.5,3-2.5
			v-0.1c0-0.5-0.3-0.9-0.9-0.9c-0.5,0-1,0.1-1.4,0.4l-0.3-1.2c0.4-0.2,1.1-0.5,2.1-0.5c2,0,2.4,1.4,2.4,2.8v2.5c0,0.5,0,1.1,0.1,1.5
			H431.6z M431.3,300.8c-0.6,0-1.4,0.2-1.4,1.1c0,0.7,0.4,0.9,0.6,0.9c0.3,0,0.6-0.2,0.7-0.6c0-0.1,0-0.2,0-0.3V300.8z"/>
		<path id="XMLID_10360_" class="st0" d="M438,304c-0.2,0.1-0.6,0.2-1.1,0.2c-1.7,0-2.8-1.2-2.8-3.3c0-2.1,1.2-3.5,3-3.5
			c0.4,0,0.8,0.1,1,0.2l-0.2,1.4c-0.1-0.1-0.4-0.1-0.7-0.1c-0.9,0-1.4,0.8-1.4,2c0,1.2,0.5,1.9,1.3,1.9c0.3,0,0.5,0,0.7-0.1L438,304
			z"/>
		<path id="XMLID_10362_" class="st0" d="M438.7,294.7h1.8v9.4h-1.8V294.7z"/>
		<path id="XMLID_10364_" class="st0" d="M443.3,301.4c0,1,0.6,1.4,1.4,1.4c0.5,0,1-0.1,1.3-0.2l0.2,1.3c-0.5,0.2-1.2,0.3-1.8,0.3
			c-1.8,0-2.8-1.2-2.8-3.3c0-2.2,1.2-3.6,2.7-3.6c1.4,0,2.3,1.1,2.3,3.1c0,0.5,0,0.7-0.1,0.9H443.3z M444.9,300.1
			c0-0.9-0.2-1.5-0.7-1.5c-0.6,0-0.8,0.9-0.8,1.5H444.9z"/>
		<path id="XMLID_10367_" class="st0" d="M446.9,305.8c0.4-1.1,0.8-2.5,0.9-3.6l1.8-0.1c-0.4,1.2-1,2.7-1.6,3.6L446.9,305.8z"/>
		<path id="XMLID_10369_" class="st0" d="M454.6,294.9v9.2h-1.8v-9.2H454.6z"/>
		<path id="XMLID_10371_" class="st0" d="M456.2,295c0.5-0.1,1.3-0.2,2-0.2c0.9,0,1.7,0.1,2.3,0.7c0.5,0.4,0.7,1,0.7,1.7
			c0,0.8-0.4,1.6-1.3,2v0.1c1.1,0.3,1.6,1.2,1.6,2.2c0,0.8-0.2,1.3-0.7,1.8c-0.5,0.6-1.5,0.9-3,0.9c-0.7,0-1.3,0-1.7-0.1V295z
			 M458,298.7h0.4c0.6,0,1.1-0.5,1.1-1.3c0-0.7-0.3-1.2-1-1.2c-0.2,0-0.4,0-0.5,0.1V298.7z M458,302.7c0.1,0,0.2,0,0.4,0
			c0.7,0,1.3-0.4,1.3-1.4c0-0.9-0.6-1.4-1.3-1.4H458V302.7z"/>
		<path id="XMLID_10375_" class="st0" d="M468.4,300.9c0-0.9-0.1-2.1-0.1-3h0c-0.2,1-0.4,2.1-0.6,2.8l-0.8,3.3h-1.3l-0.8-3.2
			c-0.2-0.7-0.4-1.9-0.6-2.9h0c0,1-0.1,2.1-0.1,3.1l-0.1,3.2h-1.5l0.7-9.2h1.9l0.7,3.3c0.3,1.2,0.5,2.2,0.7,3.2h0
			c0.1-1,0.3-2.1,0.6-3.2l0.7-3.3h1.9l0.6,9.2h-1.6L468.4,300.9z"/>
		<path id="XMLID_10377_" class="st0" d="M470.8,305.8c0.4-1.1,0.8-2.5,0.9-3.6l1.8-0.1c-0.4,1.2-1,2.7-1.6,3.6L470.8,305.8z"/>
		<path id="XMLID_10379_" class="st0" d="M478.6,294.9v3.7h1.9v-3.7h1.8v9.2h-1.8v-3.8h-1.9v3.8h-1.8v-9.2H478.6z"/>
		<path id="XMLID_10381_" class="st0" d="M483.8,295c0.5-0.1,1.2-0.2,1.9-0.2c1.1,0,1.9,0.1,2.5,0.7c0.5,0.5,0.8,1.2,0.8,2
			c0,1-0.3,1.7-0.8,2.2c-0.6,0.6-1.5,0.9-2.2,0.9c-0.1,0-0.2,0-0.4,0v3.4h-1.8V295z M485.6,299.2c0.1,0,0.2,0,0.3,0
			c0.9,0,1.3-0.6,1.3-1.5c0-0.8-0.3-1.4-1.2-1.4c-0.2,0-0.3,0-0.4,0.1V299.2z"/>
		<path id="XMLID_10384_" class="st0" d="M493.4,297.4l0.7,3.5c0.1,0.4,0.1,0.8,0.2,1.1h0c0.1-0.3,0.1-0.7,0.2-1.1l0.6-3.5h1.7
			l-1.4,5.1c-0.3,1.3-0.8,2.5-1.5,3.4c-0.6,0.7-1.2,1-1.5,1l-0.5-1.5c0.3-0.1,0.6-0.3,0.9-0.6c0.2-0.2,0.4-0.5,0.6-0.8
			c0.1-0.1,0.1-0.2,0.1-0.3c0-0.1,0-0.2-0.1-0.2l-1.8-6.2H493.4z"/>
		<path id="XMLID_10386_" class="st0" d="M372,314.3c0,2.8-1.5,3.5-2.5,3.5c-1.6,0-2.5-1.3-2.5-3.4c0-2.4,1.3-3.5,2.6-3.5
			C371,310.9,372,312.2,372,314.3z M368.7,314.3c0,1.1,0.2,2.1,0.8,2.1c0.6,0,0.7-1.1,0.7-2.1c0-0.9-0.1-2.1-0.7-2.1
			C368.8,312.3,368.7,313.4,368.7,314.3z"/>
		<path id="XMLID_10389_" class="st0" d="M375.1,309.2v1.8h1.3v1.3h-1.3v3c0,0.8,0.3,1,0.7,1c0.2,0,0.3,0,0.5,0l0,1.4
			c-0.2,0.1-0.6,0.1-1.1,0.1c-0.5,0-1-0.1-1.3-0.4c-0.4-0.4-0.6-0.9-0.6-1.9v-3.1h-0.8V311h0.8v-1.4L375.1,309.2z"/>
		<path id="XMLID_10391_" class="st0" d="M377.2,313c0-0.7,0-1.4-0.1-2h1.6l0.1,1h0c0.3-0.7,0.8-1.1,1.3-1.1c0.2,0,0.3,0,0.4,0v1.8
			c-0.1,0-0.2,0-0.4,0c-0.4,0-0.9,0.3-1.1,1c0,0.1-0.1,0.4-0.1,0.7v3.4h-1.8V313z"/>
		<path id="XMLID_10393_" class="st0" d="M386,314.3c0,2.8-1.5,3.5-2.5,3.5c-1.6,0-2.5-1.3-2.5-3.4c0-2.4,1.3-3.5,2.6-3.5
			C385.1,310.9,386,312.2,386,314.3z M382.7,314.3c0,1.1,0.2,2.1,0.8,2.1c0.6,0,0.7-1.1,0.7-2.1c0-0.9-0.1-2.1-0.7-2.1
			C382.8,312.3,382.7,313.4,382.7,314.3z"/>
		<path id="XMLID_10396_" class="st0" d="M387,316.1c0.3,0.2,0.7,0.4,1.2,0.4c0.5,0,0.7-0.2,0.7-0.6c0-0.3-0.2-0.6-0.8-0.9
			c-1.1-0.6-1.3-1.3-1.3-1.9c0-1.2,0.9-2.1,2.2-2.1c0.6,0,1,0.1,1.3,0.3l-0.3,1.3c-0.3-0.1-0.6-0.3-0.9-0.3c-0.4,0-0.7,0.3-0.7,0.6
			s0.2,0.5,0.8,0.8c1,0.6,1.3,1.3,1.3,2c0,1.4-1,2.1-2.4,2.1c-0.6,0-1.2-0.1-1.5-0.4L387,316.1z"/>
		<path id="XMLID_10398_" class="st0" d="M393.6,308.3h1.8v9.4h-1.8V308.3z"/>
		<path id="XMLID_10400_" class="st0" d="M396.7,317.7V311h1.8v6.7H396.7z M399.4,308.3l-1.4,1.9h-1.1l0.9-1.9H399.4z"/>
		<path id="XMLID_10403_" class="st0" d="M404.5,308.3v7.4c0,0.6,0,1.4,0.1,2H403l-0.1-0.7h0c-0.2,0.5-0.8,0.9-1.4,0.9
			c-1.4,0-2.1-1.6-2.1-3.4c0-2.3,1-3.4,2.1-3.4c0.6,0,1,0.3,1.1,0.7h0v-3.3H404.5z M402.7,313.6c0-0.1,0-0.3,0-0.4
			c-0.1-0.4-0.3-0.8-0.6-0.8c-0.6,0-0.9,0.9-0.9,2c0,1.3,0.3,1.9,0.8,1.9c0.2,0,0.5-0.1,0.6-0.6c0-0.1,0.1-0.2,0.1-0.4V313.6z"/>
		<path id="XMLID_10406_" class="st0" d="M407.2,315c0,1,0.6,1.4,1.4,1.4c0.5,0,1-0.1,1.3-0.2l0.2,1.3c-0.5,0.2-1.2,0.3-1.8,0.3
			c-1.8,0-2.8-1.2-2.8-3.3c0-2.2,1.2-3.6,2.7-3.6c1.4,0,2.3,1.1,2.3,3.1c0,0.5,0,0.7-0.1,0.9H407.2z M408.8,313.7
			c0-0.9-0.2-1.5-0.7-1.5c-0.6,0-0.8,0.9-0.8,1.5H408.8z"/>
		<path id="XMLID_10409_" class="st0" d="M411.5,313c0-0.7,0-1.4-0.1-2h1.6l0.1,1h0c0.3-0.7,0.8-1.1,1.3-1.1c0.2,0,0.3,0,0.4,0v1.8
			c-0.1,0-0.2,0-0.4,0c-0.4,0-0.9,0.3-1.1,1c0,0.1-0.1,0.4-0.1,0.7v3.4h-1.8V313z"/>
		<path id="XMLID_10411_" class="st0" d="M416.9,315c0,1,0.6,1.4,1.4,1.4c0.5,0,1-0.1,1.3-0.2l0.2,1.3c-0.5,0.2-1.2,0.3-1.8,0.3
			c-1.8,0-2.8-1.2-2.8-3.3c0-2.2,1.2-3.6,2.7-3.6c1.4,0,2.3,1.1,2.3,3.1c0,0.5,0,0.7-0.1,0.9H416.9z M418.5,313.7
			c0-0.9-0.2-1.5-0.7-1.5c-0.6,0-0.8,0.9-0.8,1.5H418.5z"/>
		<path id="XMLID_10414_" class="st0" d="M421.1,316.1c0.3,0.2,0.7,0.4,1.2,0.4c0.5,0,0.7-0.2,0.7-0.6c0-0.3-0.2-0.6-0.8-0.9
			c-1.1-0.6-1.3-1.3-1.3-1.9c0-1.2,0.9-2.1,2.2-2.1c0.6,0,1,0.1,1.3,0.3l-0.3,1.3c-0.3-0.1-0.6-0.3-0.9-0.3c-0.4,0-0.7,0.3-0.7,0.6
			s0.2,0.5,0.8,0.8c1,0.6,1.3,1.3,1.3,2c0,1.4-1,2.1-2.4,2.1c-0.6,0-1.2-0.1-1.5-0.4L421.1,316.1z"/>
		<path id="XMLID_10416_" class="st0" d="M432.5,308.3v7.4c0,0.6,0,1.4,0.1,2H431l-0.1-0.7h0c-0.2,0.5-0.8,0.9-1.4,0.9
			c-1.4,0-2.1-1.6-2.1-3.4c0-2.3,1-3.4,2.1-3.4c0.6,0,1,0.3,1.1,0.7h0v-3.3H432.5z M430.7,313.6c0-0.1,0-0.3,0-0.4
			c-0.1-0.4-0.3-0.8-0.6-0.8c-0.6,0-0.9,0.9-0.9,2c0,1.3,0.3,1.9,0.8,1.9c0.2,0,0.5-0.1,0.6-0.6c0-0.1,0.1-0.2,0.1-0.4V313.6z"/>
		<path id="XMLID_10419_" class="st0" d="M435.2,315c0,1,0.6,1.4,1.4,1.4c0.5,0,1-0.1,1.3-0.2l0.2,1.3c-0.5,0.2-1.2,0.3-1.8,0.3
			c-1.8,0-2.8-1.2-2.8-3.3c0-2.2,1.2-3.6,2.7-3.6c1.4,0,2.3,1.1,2.3,3.1c0,0.5,0,0.7-0.1,0.9H435.2z M436.8,313.7
			c0-0.9-0.2-1.5-0.7-1.5c-0.6,0-0.8,0.9-0.8,1.5H436.8z"/>
		<path id="XMLID_10422_" class="st0" d="M441.6,308.3h1.8v9.4h-1.8V308.3z"/>
		<path id="XMLID_10424_" class="st0" d="M447.7,317.7l-0.1-0.7h0c-0.4,0.5-0.9,0.8-1.5,0.8c-1,0-1.8-0.8-1.8-2c0-1.7,1.5-2.5,3-2.5
			v-0.1c0-0.5-0.3-0.9-0.9-0.9c-0.5,0-1,0.1-1.4,0.4l-0.3-1.2c0.4-0.2,1.1-0.5,2.1-0.5c2,0,2.4,1.4,2.4,2.8v2.5c0,0.5,0,1.1,0.1,1.5
			H447.7z M447.4,314.4c-0.6,0-1.4,0.2-1.4,1.1c0,0.7,0.4,0.9,0.6,0.9c0.3,0,0.6-0.2,0.7-0.6c0-0.1,0-0.2,0-0.3V314.4z"/>
		<path id="XMLID_10427_" class="st0" d="M454.4,309.3c0,0.6-0.4,1-0.9,1c-0.5,0-0.9-0.4-0.9-1c0-0.6,0.4-1,0.9-1
			C454,308.3,454.4,308.7,454.4,309.3z M452.6,317.7V311h1.8v6.7H452.6z"/>
		<path id="XMLID_10430_" class="st0" d="M455.6,313c0-0.7,0-1.4-0.1-2h1.5l0.1,0.8h0c0.4-0.5,0.9-0.9,1.6-0.9c1.3,0,1.8,1,1.8,2.5
			v4.3h-1.8v-4.2c0-0.6-0.1-1.1-0.7-1.1c-0.3,0-0.5,0.2-0.7,0.6c-0.1,0.1-0.1,0.4-0.1,0.6v4.1h-1.8V313z"/>
		<path id="XMLID_10432_" class="st0" d="M466.7,308.3v7.4c0,0.6,0,1.4,0.1,2h-1.5l-0.1-0.7h0c-0.2,0.5-0.8,0.9-1.4,0.9
			c-1.4,0-2.1-1.6-2.1-3.4c0-2.3,1-3.4,2.1-3.4c0.6,0,1,0.3,1.1,0.7h0v-3.3H466.7z M464.9,313.6c0-0.1,0-0.3,0-0.4
			c-0.1-0.4-0.3-0.8-0.6-0.8c-0.6,0-0.9,0.9-0.9,2c0,1.3,0.3,1.9,0.8,1.9c0.2,0,0.5-0.1,0.6-0.6c0-0.1,0.1-0.2,0.1-0.4V313.6z"/>
		<path id="XMLID_10435_" class="st0" d="M472.8,315.6c0,0.7,0,1.4,0.1,2h-1.5l-0.1-0.7h0c-0.3,0.4-0.9,0.8-1.5,0.8
			c-1.3,0-1.8-0.9-1.8-2.7v-4h1.8v3.8c0,0.9,0.2,1.4,0.7,1.4c0.3,0,0.5-0.2,0.6-0.4c0.1-0.1,0.1-0.3,0.1-0.6V311h1.8V315.6z"/>
		<path id="XMLID_10437_" class="st0" d="M474,316.1c0.3,0.2,0.7,0.4,1.2,0.4c0.5,0,0.7-0.2,0.7-0.6c0-0.3-0.2-0.6-0.8-0.9
			c-1.1-0.6-1.3-1.3-1.3-1.9c0-1.2,0.9-2.1,2.2-2.1c0.6,0,1,0.1,1.3,0.3l-0.3,1.3c-0.3-0.1-0.6-0.3-0.9-0.3c-0.4,0-0.7,0.3-0.7,0.6
			s0.2,0.5,0.8,0.8c1,0.6,1.3,1.3,1.3,2c0,1.4-1,2.1-2.4,2.1c-0.6,0-1.2-0.1-1.5-0.4L474,316.1z"/>
		<path id="XMLID_10439_" class="st0" d="M480.6,309.2v1.8h1.3v1.3h-1.3v3c0,0.8,0.3,1,0.7,1c0.2,0,0.3,0,0.5,0l0,1.4
			c-0.2,0.1-0.6,0.1-1.1,0.1c-0.5,0-1-0.1-1.3-0.4c-0.4-0.4-0.6-0.9-0.6-1.9v-3.1H478V311h0.8v-1.4L480.6,309.2z"/>
		<path id="XMLID_10441_" class="st0" d="M482.7,313c0-0.7,0-1.4-0.1-2h1.6l0.1,1h0c0.3-0.7,0.8-1.1,1.3-1.1c0.2,0,0.3,0,0.4,0v1.8
			c-0.1,0-0.2,0-0.4,0c-0.4,0-0.9,0.3-1.1,1c0,0.1-0.1,0.4-0.1,0.7v3.4h-1.8V313z"/>
		<path id="XMLID_10443_" class="st0" d="M488.5,309.3c0,0.6-0.4,1-0.9,1c-0.5,0-0.9-0.4-0.9-1c0-0.6,0.4-1,0.9-1
			C488.1,308.3,488.5,308.7,488.5,309.3z M486.7,317.7V311h1.8v6.7H486.7z"/>
		<path id="XMLID_10446_" class="st0" d="M492.7,317.7l-0.1-0.7h0c-0.4,0.5-0.9,0.8-1.5,0.8c-1,0-1.8-0.8-1.8-2c0-1.7,1.5-2.5,3-2.5
			v-0.1c0-0.5-0.3-0.9-0.9-0.9c-0.5,0-1,0.1-1.4,0.4l-0.3-1.2c0.4-0.2,1.1-0.5,2.1-0.5c2,0,2.4,1.4,2.4,2.8v2.5c0,0.5,0,1.1,0.1,1.5
			H492.7z M492.5,314.4c-0.6,0-1.4,0.2-1.4,1.1c0,0.7,0.4,0.9,0.6,0.9c0.3,0,0.6-0.2,0.7-0.6c0-0.1,0-0.2,0-0.3V314.4z"/>
		<path id="XMLID_10449_" class="st0" d="M495.5,316.6c0-0.7,0.5-1.2,1-1.2c0.6,0,1,0.4,1,1.2c0,0.7-0.4,1.2-1,1.2
			C496,317.8,495.5,317.3,495.5,316.6z"/>
	</g>
	<g id="XMLID_10118_">
		<g id="XMLID_10120_">
			<path id="XMLID_57_" class="st0" d="M186.4,341.6c-1.7,0-3-1.3-3-3v-16.1c0-1.7,1.3-3,3-3h104.7c1.7,0,3,1.3,3,3v16.1
				c0,1.7-1.3,3-3,3H186.4z"/>
			<path id="XMLID_54_" class="st1" d="M291.1,320.4c1.1,0,2,0.9,2,2v16.1c0,1.1-0.9,2-2,2H186.4c-1.1,0-2-0.9-2-2v-16.1
				c0-1.1,0.9-2,2-2H291.1 M291.1,318.4H186.4c-2.2,0-4,1.8-4,4v16.1c0,2.2,1.8,4,4,4h104.7c2.2,0,4-1.8,4-4v-16.1
				C295.1,320.2,293.3,318.4,291.1,318.4L291.1,318.4z"/>
		</g>
		<g id="XMLID_10288_">
			<path id="XMLID_10289_" class="st1" d="M196.2,326.5v6c0,1.3,0.4,1.8,0.9,1.8c0.5,0,0.9-0.4,0.9-1.8v-6h1.8v5.6
				c0,2.4-0.9,3.6-2.7,3.6c-1.9,0-2.7-1.3-2.7-3.6v-5.7H196.2z"/>
			<path id="XMLID_10291_" class="st1" d="M201.1,331.1c0-0.7,0-1.4-0.1-2h1.5l0.1,0.8h0c0.4-0.5,0.9-0.9,1.6-0.9
				c1.3,0,1.8,1,1.8,2.5v4.3h-1.8v-4.2c0-0.6-0.1-1.1-0.7-1.1c-0.3,0-0.5,0.2-0.7,0.6c-0.1,0.1-0.1,0.4-0.1,0.6v4.1h-1.8V331.1z"/>
			<path id="XMLID_10293_" class="st1" d="M209.1,327.3c0,0.6-0.4,1-0.9,1c-0.5,0-0.9-0.4-0.9-1c0-0.6,0.4-1,0.9-1
				C208.7,326.3,209.1,326.7,209.1,327.3z M207.3,335.7v-6.7h1.8v6.7H207.3z"/>
			<path id="XMLID_10296_" class="st1" d="M210.7,335.7v-5.4h-0.9v-1.3h0.9v-0.4c0-0.9,0.5-2.5,3-2.5c0.6,0,1.2,0.1,1.6,0.3
				l-0.3,1.4c-0.3-0.1-0.7-0.2-1.3-0.2c-1,0-1.2,0.5-1.2,1.2v0.2h3.3v6.7H214v-5.4h-1.5v5.4H210.7z"/>
			<path id="XMLID_10298_" class="st1" d="M218.5,333c0,1,0.6,1.4,1.4,1.4c0.5,0,1-0.1,1.3-0.2l0.2,1.3c-0.5,0.2-1.2,0.3-1.8,0.3
				c-1.8,0-2.8-1.2-2.8-3.3c0-2.2,1.2-3.6,2.7-3.6c1.4,0,2.3,1.1,2.3,3.1c0,0.5,0,0.7-0.1,0.9H218.5z M220.1,331.8
				c0-0.9-0.2-1.5-0.7-1.5c-0.6,0-0.8,0.9-0.8,1.5H220.1z"/>
			<path id="XMLID_10301_" class="st1" d="M227.5,326.3v7.4c0,0.6,0,1.4,0.1,2h-1.5L226,335h0c-0.2,0.5-0.8,0.9-1.4,0.9
				c-1.4,0-2.1-1.6-2.1-3.4c0-2.3,1-3.4,2.1-3.4c0.6,0,1,0.3,1.1,0.7h0v-3.3H227.5z M225.8,331.6c0-0.1,0-0.3,0-0.4
				c-0.1-0.4-0.3-0.8-0.6-0.8c-0.6,0-0.9,0.9-0.9,2c0,1.3,0.3,1.9,0.8,1.9c0.2,0,0.5-0.1,0.6-0.6c0-0.1,0.1-0.2,0.1-0.4V331.6z"/>
			<path id="XMLID_10304_" class="st1" d="M236.7,332.5c0-0.9-0.1-2.1-0.1-3h0c-0.2,1-0.4,2.1-0.6,2.8l-0.8,3.3H234l-0.8-3.2
				c-0.2-0.7-0.4-1.9-0.6-2.9h0c0,1-0.1,2.1-0.1,3.1l-0.1,3.2h-1.5l0.7-9.2h1.9l0.7,3.3c0.3,1.2,0.5,2.2,0.7,3.2h0
				c0.1-1,0.3-2.1,0.6-3.2l0.7-3.3h1.9l0.6,9.2h-1.6L236.7,332.5z"/>
			<path id="XMLID_10306_" class="st1" d="M241.1,333c0,1,0.6,1.4,1.4,1.4c0.5,0,1-0.1,1.3-0.2l0.2,1.3c-0.5,0.2-1.2,0.3-1.8,0.3
				c-1.8,0-2.8-1.2-2.8-3.3c0-2.2,1.2-3.6,2.7-3.6c1.4,0,2.3,1.1,2.3,3.1c0,0.5,0,0.7-0.1,0.9H241.1z M242.7,331.8
				c0-0.9-0.2-1.5-0.7-1.5c-0.6,0-0.8,0.9-0.8,1.5H242.7z"/>
			<path id="XMLID_10309_" class="st1" d="M247.4,327.3v1.8h1.3v1.3h-1.3v3c0,0.8,0.3,1,0.7,1c0.2,0,0.3,0,0.5,0l0,1.4
				c-0.2,0.1-0.6,0.1-1.1,0.1c-0.5,0-1-0.1-1.3-0.4c-0.4-0.4-0.6-0.9-0.6-1.9v-3.1h-0.8v-1.3h0.8v-1.4L247.4,327.3z"/>
			<path id="XMLID_10311_" class="st1" d="M249.5,326.3h1.8v3.5h0c0.1-0.2,0.4-0.4,0.6-0.6c0.3-0.1,0.6-0.2,0.9-0.2
				c1.2,0,1.7,1,1.7,2.7v4h-1.8v-4c0-0.7-0.1-1.2-0.7-1.2c-0.3,0-0.6,0.2-0.7,0.6c0,0.1-0.1,0.4-0.1,0.5v4.1h-1.8V326.3z"/>
			<path id="XMLID_10313_" class="st1" d="M260.6,332.4c0,2.8-1.5,3.5-2.5,3.5c-1.6,0-2.5-1.3-2.5-3.4c0-2.4,1.3-3.5,2.6-3.5
				C259.7,328.9,260.6,330.3,260.6,332.4z M257.3,332.4c0,1.1,0.2,2.1,0.8,2.1c0.6,0,0.7-1.1,0.7-2.1c0-0.9-0.1-2.1-0.7-2.1
				C257.4,330.3,257.3,331.4,257.3,332.4z"/>
			<path id="XMLID_10316_" class="st1" d="M266.5,326.3v7.4c0,0.6,0,1.4,0.1,2H265l-0.1-0.7h0c-0.2,0.5-0.8,0.9-1.4,0.9
				c-1.4,0-2.1-1.6-2.1-3.4c0-2.3,1-3.4,2.1-3.4c0.6,0,1,0.3,1.1,0.7h0v-3.3H266.5z M264.7,331.6c0-0.1,0-0.3,0-0.4
				c-0.1-0.4-0.3-0.8-0.6-0.8c-0.6,0-0.9,0.9-0.9,2c0,1.3,0.3,1.9,0.8,1.9c0.2,0,0.5-0.1,0.6-0.6c0-0.1,0.1-0.2,0.1-0.4V331.6z"/>
			<path id="XMLID_10319_" class="st1" d="M274.7,331.2c0,3.2-1.2,4.6-2.6,4.6c-1.9,0-2.6-2.2-2.6-4.5c0-2.5,0.8-4.6,2.7-4.6
				C274.3,326.8,274.7,329.1,274.7,331.2z M271.4,331.3c0,2.1,0.2,3,0.8,3c0.6,0,0.7-1,0.7-3c0-1.9-0.2-3-0.7-3
				C271.6,328.3,271.3,329.2,271.4,331.3z"/>
			<path id="XMLID_10322_" class="st1" d="M275.7,334.6c0-0.7,0.5-1.2,1-1.2c0.6,0,1,0.4,1,1.2c0,0.7-0.4,1.2-1,1.2
				C276.2,335.8,275.7,335.4,275.7,334.6z"/>
			<path id="XMLID_10324_" class="st1" d="M278.5,333.4c0-1.1,0.6-1.9,1.3-2.4v0c-0.7-0.5-1.1-1.3-1.1-1.9c0-1.4,1.1-2.3,2.5-2.3
				c1.3,0,2.3,0.9,2.3,2.2c0,0.6-0.2,1.4-1.2,2v0c0.8,0.4,1.4,1.3,1.4,2.3c0,1.6-1.2,2.6-2.7,2.6
				C279.6,335.8,278.5,334.8,278.5,333.4z M282,333.3c0-0.8-0.5-1.4-1-1.6c-0.4,0.3-0.8,0.9-0.8,1.5c0,0.8,0.3,1.4,0.9,1.4
				C281.7,334.6,282,334,282,333.3z M280.4,329c0,0.6,0.4,1.1,0.9,1.3c0.4-0.2,0.6-0.7,0.6-1.3c0-0.6-0.2-1.1-0.7-1.1
				C280.6,327.9,280.4,328.5,280.4,329z"/>
		</g>
	</g>
	<g id="XMLID_10110_">
		<g id="XMLID_10112_">
			<path id="XMLID_52_" class="st0" d="M286.4,222.2c-1.7,0-3-1.3-3-3V203c0-1.7,1.3-3,3-3h62.2c1.7,0,3,1.3,3,3v16.1
				c0,1.7-1.3,3-3,3H286.4z"/>
			<path id="XMLID_49_" class="st2" d="M348.5,201c1.1,0,2,0.9,2,2v16.1c0,1.1-0.9,2-2,2h-62.2c-1.1,0-2-0.9-2-2V203
				c0-1.1,0.9-2,2-2H348.5 M348.5,199h-62.2c-2.2,0-4,1.8-4,4v16.1c0,2.2,1.8,4,4,4h62.2c2.2,0,4-1.8,4-4V203
				C352.5,200.8,350.7,199,348.5,199L348.5,199z"/>
		</g>
		<g id="XMLID_10275_">
			<path id="XMLID_10276_" class="st2" d="M302,206.7v6c0,1.3,0.4,1.8,0.9,1.8c0.5,0,0.9-0.4,0.9-1.8v-6h1.8v5.6
				c0,2.4-0.9,3.6-2.7,3.6c-1.9,0-2.7-1.3-2.7-3.6v-5.7H302z"/>
			<path id="XMLID_10278_" class="st2" d="M312.7,212.7c0-0.9-0.1-2.1-0.1-3h0c-0.2,1-0.4,2.1-0.6,2.8l-0.8,3.3H310l-0.8-3.2
				c-0.2-0.7-0.4-1.9-0.6-2.9h0c0,1-0.1,2.1-0.1,3.1l-0.1,3.2h-1.5l0.7-9.2h1.9l0.7,3.3c0.3,1.2,0.5,2.2,0.7,3.2h0
				c0.1-1,0.3-2.1,0.6-3.2l0.7-3.3h1.9l0.6,9.2h-1.6L312.7,212.7z"/>
			<path id="XMLID_10280_" class="st2" d="M315.8,206.7h1.8v7.7h2.4v1.5h-4.1V206.7z"/>
			<path id="XMLID_10282_" class="st2" d="M324.7,208.7L324.7,208.7l-1.5,0.8l-0.3-1.4l2-1h1.6v8.8h-1.8V208.7z"/>
			<path id="XMLID_10284_" class="st2" d="M328.8,214.8c0-0.7,0.5-1.2,1-1.2c0.6,0,1,0.4,1,1.2c0,0.7-0.4,1.2-1,1.2
				C329.2,216,328.8,215.5,328.8,214.8z"/>
			<path id="XMLID_10286_" class="st2" d="M333.7,208.7L333.7,208.7l-1.5,0.8l-0.3-1.4l2-1h1.6v8.8h-1.8V208.7z"/>
		</g>
	</g>
	<g id="XMLID_10102_">
		<g id="XMLID_10104_">
			<path id="XMLID_47_" class="st0" d="M259.9,262c-1.7,0-3-1.3-3-3v-16.1c0-1.7,1.3-3,3-3h62.2c1.7,0,3,1.3,3,3V259
				c0,1.7-1.3,3-3,3H259.9z"/>
			<path id="XMLID_44_" class="st3" d="M322.1,240.8c1.1,0,2,0.9,2,2V259c0,1.1-0.9,2-2,2h-62.2c-1.1,0-2-0.9-2-2v-16.1
				c0-1.1,0.9-2,2-2H322.1 M322.1,238.8h-62.2c-2.2,0-4,1.8-4,4V259c0,2.2,1.8,4,4,4h62.2c2.2,0,4-1.8,4-4v-16.1
				C326.1,240.6,324.3,238.8,322.1,238.8L322.1,238.8z"/>
		</g>
		<g id="XMLID_10261_">
			<path id="XMLID_10262_" class="st3" d="M275.6,246.5v6c0,1.3,0.4,1.8,0.9,1.8c0.5,0,0.9-0.4,0.9-1.8v-6h1.8v5.6
				c0,2.4-0.9,3.6-2.7,3.6c-1.9,0-2.7-1.3-2.7-3.6v-5.7H275.6z"/>
			<path id="XMLID_10264_" class="st3" d="M286.3,252.5c0-0.9-0.1-2.1-0.1-3h0c-0.2,1-0.4,2.1-0.6,2.8l-0.8,3.3h-1.3l-0.8-3.2
				c-0.2-0.7-0.4-1.9-0.6-2.9h0c0,1-0.1,2.1-0.1,3.1l-0.1,3.2h-1.5l0.7-9.2h1.9l0.7,3.3c0.3,1.2,0.5,2.2,0.7,3.2h0
				c0.1-1,0.3-2.1,0.6-3.2l0.7-3.3h1.9l0.6,9.2h-1.6L286.3,252.5z"/>
			<path id="XMLID_10266_" class="st3" d="M289.4,246.5h1.8v7.7h2.4v1.5h-4.1V246.5z"/>
			<path id="XMLID_10268_" class="st3" d="M298.3,248.5L298.3,248.5l-1.5,0.8l-0.3-1.4l2-1h1.6v8.8h-1.8V248.5z"/>
			<path id="XMLID_10270_" class="st3" d="M302.3,254.6c0-0.7,0.5-1.2,1-1.2c0.6,0,1,0.4,1,1.2c0,0.7-0.4,1.2-1,1.2
				C302.8,255.8,302.3,255.4,302.3,254.6z"/>
			<path id="XMLID_10272_" class="st3" d="M310.3,251.2c0,3.2-1.2,4.6-2.6,4.6c-1.9,0-2.6-2.2-2.6-4.5c0-2.5,0.8-4.6,2.7-4.6
				C309.9,246.8,310.3,249.1,310.3,251.2z M307,251.3c0,2.1,0.2,3,0.8,3c0.6,0,0.7-1,0.7-3c0-1.9-0.2-3-0.7-3
				C307.2,248.3,306.9,249.2,307,251.3z"/>
		</g>
	</g>
	<g id="XMLID_10094_">
		<g id="XMLID_10096_">
			<path id="XMLID_42_" class="st0" d="M233.4,301.8c-1.7,0-3-1.3-3-3v-16.1c0-1.7,1.3-3,3-3h62.2c1.7,0,3,1.3,3,3v16.1
				c0,1.7-1.3,3-3,3H233.4z"/>
			<path id="XMLID_39_" class="st4" d="M295.5,280.6c1.1,0,2,0.9,2,2v16.1c0,1.1-0.9,2-2,2h-62.2c-1.1,0-2-0.9-2-2v-16.1
				c0-1.1,0.9-2,2-2H295.5 M295.5,278.6h-62.2c-2.2,0-4,1.8-4,4v16.1c0,2.2,1.8,4,4,4h62.2c2.2,0,4-1.8,4-4v-16.1
				C299.5,280.4,297.7,278.6,295.5,278.6L295.5,278.6z"/>
		</g>
		<g id="XMLID_10246_">
			<path id="XMLID_10247_" class="st4" d="M249.1,286.3v6c0,1.3,0.4,1.8,0.9,1.8c0.5,0,0.9-0.4,0.9-1.8v-6h1.8v5.6
				c0,2.4-0.9,3.6-2.7,3.6c-1.9,0-2.7-1.3-2.7-3.6v-5.7H249.1z"/>
			<path id="XMLID_10249_" class="st4" d="M259.7,292.3c0-0.9-0.1-2.1-0.1-3h0c-0.2,1-0.4,2.1-0.6,2.8l-0.8,3.3H257l-0.8-3.2
				c-0.2-0.7-0.4-1.9-0.6-2.9h0c0,1-0.1,2.1-0.1,3.1l-0.1,3.2h-1.5l0.7-9.2h1.9l0.7,3.3c0.3,1.2,0.5,2.2,0.7,3.2h0
				c0.1-1,0.3-2.1,0.6-3.2l0.7-3.3h1.9l0.6,9.2h-1.6L259.7,292.3z"/>
			<path id="XMLID_10251_" class="st4" d="M262.8,286.3h1.8v7.7h2.4v1.5h-4.1V286.3z"/>
			<path id="XMLID_10253_" class="st4" d="M274.8,291c0,3.2-1.2,4.6-2.6,4.6c-1.9,0-2.6-2.2-2.6-4.5c0-2.5,0.8-4.6,2.7-4.6
				C274.3,286.6,274.8,288.9,274.8,291z M271.4,291.1c0,2.1,0.2,3,0.8,3c0.6,0,0.7-1,0.7-3c0-1.9-0.2-3-0.7-3
				C271.7,288.1,271.4,289,271.4,291.1z"/>
			<path id="XMLID_10256_" class="st4" d="M275.8,294.4c0-0.7,0.5-1.2,1-1.2c0.6,0,1,0.4,1,1.2c0,0.7-0.4,1.2-1,1.2
				C276.3,295.6,275.8,295.2,275.8,294.4z"/>
			<path id="XMLID_10258_" class="st4" d="M279.3,294.1c0.3,0,0.5,0,0.8-0.1c0.3-0.1,0.7-0.2,1-0.5c0.4-0.4,0.7-1,0.9-1.8h0
				c-0.3,0.3-0.7,0.5-1.3,0.5c-1.1,0-2.1-1-2.1-2.6c0-1.5,0.9-3.1,2.6-3.1c1.6,0,2.5,1.5,2.5,3.6c0,2-0.6,3.4-1.5,4.3
				c-0.5,0.6-1.3,1-2.2,1.1c-0.3,0-0.6,0-0.8,0V294.1z M280.4,289.5c0,0.9,0.3,1.6,0.8,1.6c0.3,0,0.6-0.2,0.7-0.5
				c0.1-0.2,0.1-0.4,0.1-0.9c0-1.2-0.3-1.8-0.8-1.8C280.7,287.9,280.4,288.4,280.4,289.5z"/>
		</g>
	</g>
	<g id="XMLID_10086_">
		<g id="XMLID_10088_">
			<path id="XMLID_37_" class="st0" d="M415.7,23.1c-1.7,0-3-1.3-3-3V4c0-1.7,1.3-3,3-3h62.2c1.7,0,3,1.3,3,3v16.1c0,1.7-1.3,3-3,3
				H415.7z"/>
			<path id="XMLID_34_" class="st5" d="M477.8,2c1.1,0,2,0.9,2,2v16.1c0,1.1-0.9,2-2,2h-62.2c-1.1,0-2-0.9-2-2V4c0-1.1,0.9-2,2-2
				H477.8 M477.8,0h-62.2c-2.2,0-4,1.8-4,4v16.1c0,2.2,1.8,4,4,4h62.2c2.2,0,4-1.8,4-4V4C481.8,1.8,480,0,477.8,0L477.8,0z"/>
		</g>
		<g id="XMLID_10232_">
			<path id="XMLID_10233_" class="st5" d="M430.5,8v6c0,1.3,0.4,1.8,0.9,1.8c0.5,0,0.9-0.4,0.9-1.8V8h1.8v5.6c0,2.4-0.9,3.6-2.7,3.6
				c-1.9,0-2.7-1.3-2.7-3.6V8H430.5z"/>
			<path id="XMLID_10235_" class="st5" d="M441.2,13.9c0-0.9-0.1-2.1-0.1-3h0c-0.2,1-0.4,2.1-0.6,2.8l-0.8,3.3h-1.3l-0.8-3.2
				c-0.2-0.7-0.4-1.9-0.6-2.9h0c0,1-0.1,2.1-0.1,3.1l-0.1,3.2h-1.5l0.7-9.2h1.9l0.7,3.3c0.3,1.2,0.5,2.2,0.7,3.2h0
				c0.1-1,0.3-2.1,0.6-3.2l0.7-3.3h1.9l0.6,9.2h-1.6L441.2,13.9z"/>
			<path id="XMLID_10237_" class="st5" d="M444.2,8h1.8v7.7h2.4v1.5h-4.1V8z"/>
			<path id="XMLID_10239_" class="st5" d="M451.1,17.1v-1.2l0.9-1.1c1.1-1.5,2.1-2.7,2.1-3.9c0-0.7-0.4-1.2-1.1-1.2
				c-0.6,0-1,0.2-1.3,0.4l-0.3-1.4c0.4-0.3,1.2-0.5,2-0.5c1.9,0,2.6,1.3,2.6,2.6c0,1.7-1,3-2.1,4.2l-0.5,0.6v0h2.7v1.6H451.1z"/>
			<path id="XMLID_10241_" class="st5" d="M457.2,16.1c0-0.7,0.5-1.2,1-1.2c0.6,0,1,0.4,1,1.2c0,0.7-0.4,1.2-1,1.2
				C457.7,17.2,457.2,16.8,457.2,16.1z"/>
			<path id="XMLID_10243_" class="st5" d="M465.2,12.7c0,3.2-1.2,4.6-2.6,4.6c-1.9,0-2.6-2.2-2.6-4.5c0-2.5,0.8-4.6,2.7-4.6
				C464.7,8.2,465.2,10.6,465.2,12.7z M461.8,12.7c0,2.1,0.2,3,0.8,3c0.6,0,0.7-1,0.7-3c0-1.9-0.2-3-0.7-3
				C462.1,9.7,461.8,10.7,461.8,12.7z"/>
		</g>
	</g>
	<g id="XMLID_10078_">
		<g id="XMLID_10080_">
			<path id="XMLID_33_" class="st0" d="M389.9,62.9c-1.7,0-3-1.3-3-3V43.8c0-1.7,1.3-3,3-3H452c1.7,0,3,1.3,3,3v16.1
				c0,1.7-1.3,3-3,3H389.9z"/>
			<path id="XMLID_30_" class="st6" d="M452,41.8c1.1,0,2,0.9,2,2v16.1c0,1.1-0.9,2-2,2h-62.2c-1.1,0-2-0.9-2-2V43.8
				c0-1.1,0.9-2,2-2H452 M452,39.8h-62.2c-2.2,0-4,1.8-4,4v16.1c0,2.2,1.8,4,4,4H452c2.2,0,4-1.8,4-4V43.8
				C456,41.6,454.2,39.8,452,39.8L452,39.8z"/>
		</g>
		<g id="XMLID_10218_">
			<path id="XMLID_10219_" class="st6" d="M404.7,47.7v6c0,1.3,0.4,1.8,0.9,1.8c0.5,0,0.9-0.4,0.9-1.8v-6h1.8v5.6
				c0,2.4-0.9,3.6-2.7,3.6c-1.9,0-2.7-1.3-2.7-3.6v-5.7H404.7z"/>
			<path id="XMLID_10221_" class="st6" d="M415.4,53.6c0-0.9-0.1-2.1-0.1-3h0c-0.2,1-0.4,2.1-0.6,2.8l-0.8,3.3h-1.3l-0.8-3.2
				c-0.2-0.7-0.4-1.9-0.6-2.9h0c0,1-0.1,2.1-0.1,3.1l-0.1,3.2h-1.5l0.7-9.2h1.9l0.7,3.3c0.3,1.2,0.5,2.2,0.7,3.2h0
				c0.1-1,0.3-2.1,0.6-3.2l0.7-3.3h1.9l0.6,9.2h-1.6L415.4,53.6z"/>
			<path id="XMLID_10223_" class="st6" d="M418.4,47.7h1.8v7.7h2.4v1.5h-4.1V47.7z"/>
			<path id="XMLID_10225_" class="st6" d="M427.4,49.7L427.4,49.7l-1.5,0.8l-0.3-1.4l2-1h1.6v8.8h-1.8V49.7z"/>
			<path id="XMLID_10227_" class="st6" d="M431.4,55.7c0-0.7,0.5-1.2,1-1.2c0.6,0,1,0.4,1,1.2c0,0.7-0.4,1.2-1,1.2
				C431.9,56.9,431.4,56.5,431.4,55.7z"/>
			<path id="XMLID_10229_" class="st6" d="M437.1,56.8v-2.1h-3v-1.2L437,48h1.7v5.3h0.9v1.4h-0.9v2.1H437.1z M437.1,53.3v-1.8
				c0-0.5,0.1-1,0.1-1.5h-0.1c-0.2,0.5-0.4,0.9-0.6,1.4l-1,1.9v0H437.1z"/>
		</g>
	</g>
	<g id="XMLID_10070_">
		<g id="XMLID_10072_">
			<path id="XMLID_101_" class="st0" d="M338.2,142.6c-1.7,0-3-1.3-3-3v-16.1c0-1.7,1.3-3,3-3h62.2c1.7,0,3,1.3,3,3v16.1
				c0,1.7-1.3,3-3,3H338.2z"/>
			<path id="XMLID_38_" class="st7" d="M400.4,121.4c1.1,0,2,0.9,2,2v16.1c0,1.1-0.9,2-2,2h-62.2c-1.1,0-2-0.9-2-2v-16.1
				c0-1.1,0.9-2,2-2H400.4 M400.4,119.4h-62.2c-2.2,0-4,1.8-4,4v16.1c0,2.2,1.8,4,4,4h62.2c2.2,0,4-1.8,4-4v-16.1
				C404.4,121.2,402.6,119.4,400.4,119.4L400.4,119.4z"/>
		</g>
		<g id="XMLID_10205_">
			<path id="XMLID_10206_" class="st7" d="M353,127v6c0,1.3,0.4,1.8,0.9,1.8c0.5,0,0.9-0.4,0.9-1.8v-6h1.8v5.6
				c0,2.4-0.9,3.6-2.7,3.6c-1.9,0-2.7-1.3-2.7-3.6V127H353z"/>
			<path id="XMLID_10208_" class="st7" d="M363.7,132.9c0-0.9-0.1-2.1-0.1-3h0c-0.2,1-0.4,2.1-0.6,2.8l-0.8,3.3H361l-0.8-3.2
				c-0.2-0.7-0.4-1.9-0.6-2.9h0c0,1-0.1,2.1-0.1,3.1l-0.1,3.2h-1.5l0.7-9.2h1.9l0.7,3.3c0.3,1.2,0.5,2.2,0.7,3.2h0
				c0.1-1,0.3-2.1,0.6-3.2l0.7-3.3h1.9l0.6,9.2h-1.6L363.7,132.9z"/>
			<path id="XMLID_10210_" class="st7" d="M366.8,127h1.8v7.7h2.4v1.5h-4.1V127z"/>
			<path id="XMLID_10212_" class="st7" d="M375.8,129L375.8,129l-1.5,0.8l-0.3-1.4l2-1h1.6v8.8h-1.8V129z"/>
			<path id="XMLID_10214_" class="st7" d="M379.8,135.1c0-0.7,0.5-1.2,1-1.2c0.6,0,1,0.4,1,1.2c0,0.7-0.4,1.2-1,1.2
				C380.2,136.2,379.8,135.8,379.8,135.1z"/>
			<path id="XMLID_10216_" class="st7" d="M382.6,136.1v-1.2l0.9-1.1c1.1-1.5,2.1-2.7,2.1-3.9c0-0.7-0.4-1.2-1.1-1.2
				c-0.6,0-1,0.2-1.3,0.4l-0.3-1.4c0.4-0.3,1.2-0.5,2-0.5c1.9,0,2.6,1.3,2.6,2.6c0,1.7-1,3-2.1,4.2l-0.5,0.6v0h2.7v1.6H382.6z"/>
		</g>
	</g>
	<g id="XMLID_10155_">
		<path id="XMLID_10156_" class="st0" d="M151.6,168.9v6c0,1.3,0.4,1.8,0.9,1.8c0.5,0,0.9-0.4,0.9-1.8v-6h1.8v5.6
			c0,2.4-0.9,3.6-2.7,3.6c-1.9,0-2.7-1.3-2.7-3.6v-5.7H151.6z"/>
		<path id="XMLID_10158_" class="st0" d="M162.3,174.8c0-0.9-0.1-2.1-0.1-3h0c-0.2,1-0.4,2.1-0.6,2.8l-0.8,3.3h-1.3l-0.8-3.2
			c-0.2-0.7-0.4-1.9-0.6-2.9h0c0,1-0.1,2.1-0.1,3.1l-0.1,3.2h-1.5l0.7-9.2h1.9l0.7,3.3c0.3,1.2,0.5,2.2,0.7,3.2h0
			c0.1-1,0.3-2.1,0.6-3.2l0.7-3.3h1.9l0.6,9.2h-1.6L162.3,174.8z"/>
		<path id="XMLID_10160_" class="st0" d="M165.4,168.9h1.8v7.7h2.4v1.5h-4.1V168.9z"/>
		<path id="XMLID_10162_" class="st0" d="M175.5,178.1l-0.1-0.7h0c-0.4,0.5-0.9,0.8-1.5,0.8c-1,0-1.8-0.8-1.8-2c0-1.7,1.5-2.5,3-2.5
			v-0.1c0-0.5-0.3-0.9-0.9-0.9c-0.5,0-1,0.1-1.4,0.4l-0.3-1.2c0.4-0.2,1.1-0.5,2.1-0.5c2,0,2.4,1.4,2.4,2.8v2.5c0,0.5,0,1.1,0.1,1.5
			H175.5z M175.3,174.8c-0.6,0-1.4,0.2-1.4,1.1c0,0.7,0.4,0.9,0.6,0.9c0.3,0,0.6-0.2,0.7-0.6c0-0.1,0-0.2,0-0.3V174.8z"/>
		<path id="XMLID_10165_" class="st0" d="M178.3,173.5c0-0.8,0-1.5-0.1-2.1h1.6l0.1,0.8h0c0.3-0.5,0.8-0.9,1.4-0.9
			c1.5,0,2.1,1.6,2.1,3.4c0,2.4-1,3.4-2.2,3.4c-0.5,0-0.9-0.3-1.1-0.7h0v3.2h-1.8V173.5z M180,175.6c0,0.2,0,0.4,0.1,0.6
			c0.1,0.4,0.4,0.5,0.6,0.5c0.6,0,0.8-0.9,0.8-2c0-1.3-0.3-1.9-0.8-1.9c-0.3,0-0.5,0.3-0.6,0.6c-0.1,0.1-0.1,0.3-0.1,0.5V175.6z"/>
		<path id="XMLID_10168_" class="st0" d="M184.3,173.4c0-0.7,0-1.4-0.1-2h1.6l0.1,1h0c0.3-0.7,0.8-1.1,1.3-1.1c0.2,0,0.3,0,0.4,0
			v1.8c-0.1,0-0.2,0-0.4,0c-0.4,0-0.9,0.3-1.1,1c0,0.1-0.1,0.4-0.1,0.7v3.4h-1.8V173.4z"/>
		<path id="XMLID_10170_" class="st0" d="M193.1,174.7c0,2.8-1.5,3.5-2.5,3.5c-1.6,0-2.5-1.3-2.5-3.4c0-2.4,1.3-3.5,2.6-3.5
			C192.2,171.3,193.1,172.6,193.1,174.7z M189.8,174.7c0,1.1,0.2,2.1,0.8,2.1c0.6,0,0.7-1.1,0.7-2.1c0-0.9-0.1-2.1-0.7-2.1
			C190,172.6,189.8,173.8,189.8,174.7z"/>
		<path id="XMLID_10173_" class="st0" d="M194.1,178.1c0-0.6,0.1-1.3,0.1-2v-7.4h1.8v3.4h0c0.3-0.5,0.7-0.8,1.4-0.8
			c1.3,0,1.9,1.5,1.9,3.3c0,2.3-0.9,3.6-2.2,3.6c-0.6,0-1-0.2-1.3-0.9h0l-0.1,0.8H194.1z M195.9,175.7c0,0.2,0,0.3,0.1,0.4
			c0.1,0.5,0.4,0.6,0.6,0.6c0.6,0,0.8-0.7,0.8-2c0-1.1-0.3-1.9-0.9-1.9c-0.3,0-0.5,0.3-0.6,0.6c0,0.1-0.1,0.3-0.1,0.4V175.7z"/>
		<path id="XMLID_10176_" class="st0" d="M203.2,178.1l-0.1-0.7h0c-0.4,0.5-0.9,0.8-1.5,0.8c-1,0-1.8-0.8-1.8-2c0-1.7,1.5-2.5,3-2.5
			v-0.1c0-0.5-0.3-0.9-0.9-0.9c-0.5,0-1,0.1-1.4,0.4l-0.3-1.2c0.4-0.2,1.1-0.5,2.1-0.5c2,0,2.4,1.4,2.4,2.8v2.5c0,0.5,0,1.1,0.1,1.5
			H203.2z M203,174.8c-0.6,0-1.4,0.2-1.4,1.1c0,0.7,0.4,0.9,0.6,0.9c0.3,0,0.6-0.2,0.7-0.6c0-0.1,0-0.2,0-0.3V174.8z"/>
		<path id="XMLID_10179_" class="st0" d="M210.8,168.6v7.4c0,0.6,0,1.4,0.1,2h-1.5l-0.1-0.7h0c-0.2,0.5-0.8,0.9-1.4,0.9
			c-1.4,0-2.1-1.6-2.1-3.4c0-2.3,1-3.4,2.1-3.4c0.6,0,1,0.3,1.1,0.7h0v-3.3H210.8z M209,174c0-0.1,0-0.3,0-0.4
			c-0.1-0.4-0.3-0.8-0.6-0.8c-0.6,0-0.9,0.9-0.9,2c0,1.3,0.3,1.9,0.8,1.9c0.2,0,0.5-0.1,0.6-0.6c0-0.1,0.1-0.2,0.1-0.4V174z"/>
		<path id="XMLID_10182_" class="st0" d="M216.9,174.7c0,2.8-1.5,3.5-2.5,3.5c-1.6,0-2.5-1.3-2.5-3.4c0-2.4,1.3-3.5,2.6-3.5
			C216,171.3,216.9,172.6,216.9,174.7z M213.6,174.7c0,1.1,0.2,2.1,0.8,2.1c0.6,0,0.7-1.1,0.7-2.1c0-0.9-0.1-2.1-0.7-2.1
			C213.7,172.6,213.6,173.8,213.6,174.7z"/>
		<path id="XMLID_10185_" class="st0" d="M220.1,173.5c0-0.8,0-1.5-0.1-2.1h1.6l0.1,0.8h0c0.3-0.5,0.8-0.9,1.4-0.9
			c1.5,0,2.1,1.6,2.1,3.4c0,2.4-1,3.4-2.2,3.4c-0.5,0-0.9-0.3-1.1-0.7h0v3.2h-1.8V173.5z M221.8,175.6c0,0.2,0,0.4,0.1,0.6
			c0.1,0.4,0.4,0.5,0.6,0.5c0.6,0,0.8-0.9,0.8-2c0-1.3-0.3-1.9-0.8-1.9c-0.3,0-0.5,0.3-0.6,0.6c-0.1,0.1-0.1,0.3-0.1,0.5V175.6z"/>
		<path id="XMLID_10188_" class="st0" d="M231,174.7c0,2.8-1.5,3.5-2.5,3.5c-1.6,0-2.5-1.3-2.5-3.4c0-2.4,1.3-3.5,2.6-3.5
			C230.1,171.3,231,172.6,231,174.7z M227.7,174.7c0,1.1,0.2,2.1,0.8,2.1c0.6,0,0.7-1.1,0.7-2.1c0-0.9-0.1-2.1-0.7-2.1
			C227.8,172.6,227.7,173.8,227.7,174.7z"/>
		<path id="XMLID_10191_" class="st0" d="M232,173.4c0-0.7,0-1.4-0.1-2h1.6l0.1,1h0c0.3-0.7,0.8-1.1,1.3-1.1c0.2,0,0.3,0,0.4,0v1.8
			c-0.1,0-0.2,0-0.4,0c-0.4,0-0.9,0.3-1.1,1c0,0.1-0.1,0.4-0.1,0.7v3.4H232V173.4z"/>
		<path id="XMLID_10193_" class="st0" d="M239.7,175.4c0,1,0.6,1.4,1.4,1.4c0.5,0,1-0.1,1.3-0.2l0.2,1.3c-0.5,0.2-1.2,0.3-1.8,0.3
			c-1.8,0-2.8-1.2-2.8-3.3c0-2.2,1.2-3.6,2.7-3.6c1.4,0,2.3,1.1,2.3,3.1c0,0.5,0,0.7-0.1,0.9H239.7z M241.2,174.1
			c0-0.9-0.2-1.5-0.7-1.5c-0.6,0-0.8,0.9-0.8,1.5H241.2z"/>
		<path id="XMLID_10196_" class="st0" d="M243.9,168.6h1.8v9.4h-1.8V168.6z"/>
		<path id="XMLID_10198_" class="st0" d="M254.7,173.3c0,3.5-1.2,4.9-3,4.9c-2.1,0-2.9-2.2-2.9-4.7c0-2.5,1-4.7,3-4.7
			C254,168.8,254.7,171.2,254.7,173.3z M250.7,173.5c0,2.1,0.4,3.1,1.1,3.1c0.7,0,1-1.4,1-3.2c0-1.6-0.2-3.1-1-3.1
			C251.1,170.3,250.7,171.5,250.7,173.5z"/>
		<path id="XMLID_10201_" class="st0" d="M261.4,174.8c0-0.9-0.1-2.1-0.1-3h0c-0.2,1-0.4,2.1-0.6,2.8l-0.8,3.3h-1.3l-0.8-3.2
			c-0.2-0.7-0.4-1.9-0.6-2.9h0c0,1-0.1,2.1-0.1,3.1l-0.1,3.2h-1.5l0.7-9.2h1.9l0.7,3.3c0.3,1.2,0.5,2.2,0.7,3.2h0
			c0.1-1,0.3-2.1,0.6-3.2l0.7-3.3h1.9l0.6,9.2h-1.6L261.4,174.8z"/>
		<path id="XMLID_10203_" class="st0" d="M269.5,177.8c-0.4,0.2-1.2,0.3-1.9,0.3c-1,0-1.8-0.3-2.4-0.9c-0.8-0.8-1.2-2.1-1.2-3.7
			c0-3.3,1.9-4.7,3.9-4.7c0.7,0,1.2,0.1,1.5,0.3l-0.3,1.5c-0.3-0.1-0.6-0.2-1-0.2c-1.2,0-2.2,0.8-2.2,3.2c0,2.2,0.9,3,1.7,3
			c0.2,0,0.3,0,0.4,0v-2.2h-0.8v-1.5h2.5V177.8z"/>
	</g>
	<g id="XMLID_10061_">
		<g id="XMLID_10063_">
			<path id="XMLID_105_" class="st0" d="M364.2,102.8c-1.7,0-3-1.3-3-3V83.6c0-1.7,1.3-3,3-3h62.2c1.7,0,3,1.3,3,3v16.1
				c0,1.7-1.3,3-3,3H364.2z"/>
			<path id="XMLID_102_" class="st8" d="M426.4,81.6c1.1,0,2,0.9,2,2v16.1c0,1.1-0.9,2-2,2h-62.2c-1.1,0-2-0.9-2-2V83.6
				c0-1.1,0.9-2,2-2H426.4 M426.4,79.6h-62.2c-2.2,0-4,1.8-4,4v16.1c0,2.2,1.8,4,4,4h62.2c2.2,0,4-1.8,4-4V83.6
				C430.4,81.4,428.6,79.6,426.4,79.6L426.4,79.6z"/>
		</g>
		<g id="XMLID_10142_">
			<path id="XMLID_10143_" class="st8" d="M379,87.6v6c0,1.3,0.4,1.8,0.9,1.8c0.5,0,0.9-0.4,0.9-1.8v-6h1.8v5.6
				c0,2.4-0.9,3.6-2.7,3.6c-1.9,0-2.7-1.3-2.7-3.6v-5.7H379z"/>
			<path id="XMLID_10145_" class="st8" d="M389.7,93.6c0-0.9-0.1-2.1-0.1-3h0c-0.2,1-0.4,2.1-0.6,2.8l-0.8,3.3h-1.3l-0.8-3.2
				c-0.2-0.7-0.4-1.9-0.6-2.9h0c0,1-0.1,2.1-0.1,3.1l-0.1,3.2h-1.5l0.7-9.2h1.9l0.7,3.3c0.3,1.2,0.5,2.2,0.7,3.2h0
				c0.1-1,0.3-2.1,0.6-3.2l0.7-3.3h1.9l0.6,9.2h-1.6L389.7,93.6z"/>
			<path id="XMLID_10147_" class="st8" d="M392.7,87.6h1.8v7.7h2.4v1.5h-4.1V87.6z"/>
			<path id="XMLID_10149_" class="st8" d="M401.7,89.6L401.7,89.6l-1.5,0.8l-0.3-1.4l2-1h1.6v8.8h-1.8V89.6z"/>
			<path id="XMLID_10151_" class="st8" d="M405.7,95.7c0-0.7,0.5-1.2,1-1.2c0.6,0,1,0.4,1,1.2c0,0.7-0.4,1.2-1,1.2
				C406.2,96.9,405.7,96.4,405.7,95.7z"/>
			<path id="XMLID_10153_" class="st8" d="M408.8,95.1c0.4,0.2,0.8,0.3,1.3,0.3c0.9,0,1.3-0.5,1.3-1.3c0-1-0.7-1.4-1.7-1.4h-0.2
				v-1.3h0.2c0.7,0,1.5-0.3,1.5-1.1c0-0.6-0.4-1-1-1c-0.4,0-0.8,0.1-1.1,0.4l-0.2-1.3c0.4-0.2,1.1-0.5,1.8-0.5c1.6,0,2.3,1,2.3,2.1
				c0,0.9-0.5,1.6-1.3,2v0c0.9,0.3,1.5,1,1.5,2.2c0,1.3-1,2.7-3,2.7c-0.7,0-1.3-0.2-1.7-0.4L408.8,95.1z"/>
		</g>
	</g>
	<g id="XMLID_10053_">
		<g id="XMLID_10055_">
			<path id="XMLID_109_" class="st0" d="M155.3,421.2c-1.7,0-3-1.3-3-3V402c0-1.7,1.3-3,3-3h62.2c1.7,0,3,1.3,3,3v16.1
				c0,1.7-1.3,3-3,3H155.3z"/>
			<path id="XMLID_106_" class="st5" d="M217.5,400c1.1,0,2,0.9,2,2v16.1c0,1.1-0.9,2-2,2h-62.2c-1.1,0-2-0.9-2-2V402
				c0-1.1,0.9-2,2-2H217.5 M217.5,398h-62.2c-2.2,0-4,1.8-4,4v16.1c0,2.2,1.8,4,4,4h62.2c2.2,0,4-1.8,4-4V402
				C221.5,399.8,219.7,398,217.5,398L217.5,398z"/>
		</g>
		<g id="XMLID_1293_">
			<path id="XMLID_10135_" class="st5" d="M183.3,410.2c0,3.5-1.2,4.9-3,4.9c-2.1,0-2.9-2.2-2.9-4.7c0-2.5,1-4.7,3-4.7
				C182.7,405.6,183.3,408.1,183.3,410.2z M179.3,410.3c0,2.1,0.4,3.1,1.1,3.1c0.7,0,1-1.4,1-3.2c0-1.6-0.2-3.1-1-3.1
				C179.7,407.2,179.3,408.4,179.3,410.3z"/>
			<path id="XMLID_10138_" class="st5" d="M190,411.7c0-0.9-0.1-2.1-0.1-3h0c-0.2,1-0.4,2.1-0.6,2.8l-0.8,3.3h-1.3l-0.8-3.2
				c-0.2-0.7-0.4-1.9-0.6-2.9h0c0,1-0.1,2.1-0.1,3.1l-0.1,3.2h-1.5l0.7-9.2h1.9l0.7,3.3c0.3,1.2,0.5,2.2,0.7,3.2h0
				c0.1-1,0.3-2.1,0.6-3.2l0.7-3.3h1.9l0.6,9.2h-1.6L190,411.7z"/>
			<path id="XMLID_10140_" class="st5" d="M193.8,407.4h-1.6v-1.6h5v1.6h-1.6v7.5h-1.8V407.4z"/>
		</g>
	</g>
	<g id="XMLID_10022_">
		<path id="XMLID_10052_" class="st9" d="M408,12.1l-9.5-5.2c0,1.8,0,3.1,0,4H86.1v2.4h312.4c0,0.9,0,2.2,0,4L408,12.1z"/>
		<path id="XMLID_10051_" class="st9" d="M384.2,52.2l-9.5-5.2c0,1.8,0,3.1,0,4H86.1v2.4h288.6c0,0.9,0,2.2,0,4L384.2,52.2z"/>
		<path id="XMLID_10050_" class="st9" d="M359.6,91.7l-9.5-5.2c0,1.8,0,3.1,0,4h-264v2.4h264c0,0.9,0,2.2,0,4L359.6,91.7z"/>
		<path id="XMLID_10039_" class="st9" d="M333.8,131.5l-9.5-5.2c0,1.8,0,3.1,0,4H86.1v2.4h238.1c0,0.9,0,2.2,0,4L333.8,131.5z"/>
		<path id="XMLID_10038_" class="st9" d="M281.5,211.9l-9.5-5.2c0,1.8,0,3.1,0,4H86.1v2.4h185.8c0,0.9,0,2.2,0,4L281.5,211.9z"/>
		<path id="XMLID_10037_" class="st9" d="M255,251.7l-9.5-5.2c0,1.8,0,3.1,0,4H86.1v2.4h159.3c0,0.9,0,2.2,0,4L255,251.7z"/>
		<path id="XMLID_10036_" class="st9" d="M229.4,291.1l-9.5-5.2c0,1.8,0,3.1,0,4H86.1v2.4h133.7c0,0.9,0,2.2,0,4L229.4,291.1z"/>
		<path id="XMLID_10035_" class="st9" d="M181.5,330.5l-9.5-5.2c0,1.8,0,3.1,0,4H86.1v2.4H172c0,0.9,0,2.2,0,4L181.5,330.5z"/>
		<path id="XMLID_10034_" class="st9" d="M342.2,366.9l-9.5-5.2c0,1.8,0,3.1,0,4H126.3v2.4h206.3c0,0.9,0,2.2,0,4L342.2,366.9z"/>
		<g id="XMLID_10023_">
			<path id="XMLID_10033_" class="st9" d="M150.1,411l-9.5-5.2c0,1.8,0,3.1,0,4h-14v2.4h14c0,0.9,0,2.2,0,4L150.1,411z"/>
		</g>
	</g>
	<path id="XMLID_10021_" class="st9" d="M305.4,313.9l37.8,37.8l1.3-2.1l-37.4-37.4c0.7-0.7,1.6-1.6,2.9-2.9l-10.4-3l3,10.4
		C303.9,315.5,304.8,314.6,305.4,313.9z"/>
	<path id="XMLID_10019_" class="st9" d="M331.4,272l29.7,29.7l1.3-2.1l-29.3-29.3c0.7-0.7,1.6-1.6,2.9-2.9l-10.4-3l3,10.4
		C329.9,273.6,330.8,272.7,331.4,272z"/>
	<path id="XMLID_10018_" class="st9" d="M461.9,71.5l29.7,29.7l1.3-2.1l-29.3-29.3c0.7-0.7,1.6-1.6,2.9-2.9l-10.4-3l3,10.4
		C460.4,73.1,461.3,72.2,461.9,71.5z"/>
	<path id="XMLID_10017_" class="st9" d="M417,131.9l39.9-13.1l-1.2-2.1l-39.4,12.9c-0.3-0.9-0.7-2.1-1.3-3.8l-7.4,7.9l10.7,2
		C417.7,134,417.3,132.8,417,131.9z"/>
	<g id="XMLID_10009_">
		<line id="XMLID_117_" class="st0" x1="435.2" y1="41.7" x2="446.7" y2="24.1"/>
		<g id="XMLID_113_">
			<line id="XMLID_116_" class="st10" x1="435.2" y1="41.7" x2="443.5" y2="29.1"/>
			<g id="XMLID_114_">
				<polygon id="XMLID_115_" class="st6" points="446.7,24.1 445,33 443.2,29.5 439.3,29.3 				"/>
			</g>
		</g>
	</g>
	<g id="XMLID_10002_">
		<line id="XMLID_158_" class="st0" x1="408.9" y1="81.7" x2="420.4" y2="64.2"/>
		<g id="XMLID_154_">
			<line id="XMLID_157_" class="st11" x1="408.9" y1="81.7" x2="416.1" y2="70.8"/>
			<g id="XMLID_155_">
				<polygon id="XMLID_156_" class="st8" points="420.4,64.2 418.1,76 415.7,71.3 410.5,71 				"/>
			</g>
		</g>
	</g>
	<g id="XMLID_9995_">
		<line id="XMLID_152_" class="st0" x1="383.1" y1="121" x2="394.6" y2="103.4"/>
		<g id="XMLID_148_">
			<line id="XMLID_151_" class="st12" x1="383.1" y1="121" x2="390.3" y2="110.1"/>
			<g id="XMLID_149_">
				<polygon id="XMLID_150_" class="st7" points="394.6,103.4 392.3,115.3 389.9,110.6 384.7,110.3 				"/>
			</g>
		</g>
	</g>
	<g id="XMLID_9988_">
		<line id="XMLID_146_" class="st0" x1="331.2" y1="200.8" x2="368.5" y2="144.2"/>
		<g id="XMLID_142_">
			<line id="XMLID_145_" class="st13" x1="331.2" y1="200.8" x2="364.1" y2="150.8"/>
			<g id="XMLID_143_">
				<polygon id="XMLID_144_" class="st2" points="368.5,144.2 366.2,156 363.8,151.3 358.5,151 				"/>
			</g>
		</g>
	</g>
	<g id="XMLID_9981_">
		<line id="XMLID_140_" class="st0" x1="305.5" y1="240.7" x2="317" y2="223.2"/>
		<g id="XMLID_136_">
			<line id="XMLID_139_" class="st14" x1="305.5" y1="240.7" x2="312.6" y2="229.8"/>
			<g id="XMLID_137_">
				<polygon id="XMLID_138_" class="st3" points="317,223.2 314.7,235 312.3,230.3 307,230 				"/>
			</g>
		</g>
	</g>
	<g id="XMLID_9968_">
		<line id="XMLID_134_" class="st0" x1="279" y1="280.5" x2="290.5" y2="263"/>
		<g id="XMLID_130_">
			<line id="XMLID_133_" class="st15" x1="279" y1="280.5" x2="286.2" y2="269.6"/>
			<g id="XMLID_131_">
				<polygon id="XMLID_132_" class="st4" points="290.5,263 288.2,274.8 285.9,270.1 280.6,269.8 				"/>
			</g>
		</g>
	</g>
	<g id="XMLID_1915_">
		<line id="XMLID_128_" class="st0" x1="253" y1="320.2" x2="264.5" y2="302.7"/>
		<g id="XMLID_124_">
			<line id="XMLID_127_" class="st16" x1="253" y1="320.2" x2="260.1" y2="309.3"/>
			<g id="XMLID_125_">
				<polygon id="XMLID_126_" class="st1" points="264.5,302.7 262.1,314.5 259.8,309.8 254.5,309.5 				"/>
			</g>
		</g>
	</g>
	<g id="XMLID_1301_">
		<line id="XMLID_164_" class="st0" x1="201.6" y1="399.4" x2="239.2" y2="342.3"/>
		<g id="XMLID_160_">
			<line id="XMLID_163_" class="st17" x1="201.6" y1="399.4" x2="234.9" y2="348.9"/>
			<g id="XMLID_161_">
				<polygon id="XMLID_162_" class="st5" points="239.2,342.3 236.9,354.2 234.6,349.4 229.3,349.1 				"/>
			</g>
		</g>
	</g>
</g>
</svg>
