<?xml version="1.0" encoding="utf-8"?>
<!-- Generator: Adobe Illustrator 19.0.0, SVG Export Plug-In . SVG Version: 6.00 Build 0)  -->
<svg version="1.1" id="Capa_1" xmlns="http://www.w3.org/2000/svg" xmlns:xlink="http://www.w3.org/1999/xlink" x="0px" y="0px"
	 viewBox="0 0 456 267.1" style="enable-background:new 0 0 456 267.1;" xml:space="preserve">
<style type="text/css">
	.st0{fill:#0367A6;}
	.st1{fill:#FFFFFF;stroke:#0367A6;stroke-width:2;stroke-miterlimit:10;}
	.st2{fill:#FFFFFF;}
	.st3{fill:#8BBE33;}
	.st4{fill:#FFFFFF;stroke:#8BBE33;stroke-width:2;stroke-miterlimit:10;}
	.st5{fill:#D93D4A;}
	.st6{fill:#FFFFFF;stroke:#D93D4A;stroke-width:2;stroke-miterlimit:10;}
	.st7{fill:#F29422;}
	.st8{fill:#FFFFFF;stroke:#F29422;stroke-width:2;stroke-miterlimit:10;}
	.st9{fill:none;stroke:#706F6F;stroke-width:2;stroke-miterlimit:10;}
	.st10{fill:#706F6F;}
</style>
<g id="XMLID_12188_">
	<g id="XMLID_11681_">
		<g id="XMLID_610_">
			<g id="XMLID_9599_">
				<path id="XMLID_29_" class="st0" d="M294.6,3v99.6H161.4V3H294.6 M297.6,0H158.4v105.6h139.2V0L297.6,0z"/>
			</g>
			<line id="XMLID_627_" class="st1" x1="158.4" y1="35.5" x2="297.6" y2="35.5"/>
			<line id="XMLID_628_" class="st1" x1="158.4" y1="70.6" x2="297.6" y2="70.6"/>
		</g>
		<g id="XMLID_405_">
			<path id="XMLID_406_" d="M189.2,23.5v-8.8h1.2l4.6,6.9v-6.9h1.1v8.8H195l-4.6-6.9v6.9H189.2z"/>
			<path id="XMLID_408_" d="M197.6,20.3c0-1.2,0.3-2.1,1-2.6c0.5-0.5,1.2-0.7,2-0.7c0.9,0,1.6,0.3,2.2,0.9s0.8,1.4,0.8,2.4
				c0,0.8-0.1,1.5-0.4,1.9c-0.2,0.5-0.6,0.8-1.1,1.1s-1,0.4-1.5,0.4c-0.9,0-1.6-0.3-2.2-0.9S197.6,21.4,197.6,20.3z M198.7,20.3
				c0,0.8,0.2,1.4,0.5,1.8c0.4,0.4,0.8,0.6,1.3,0.6c0.5,0,1-0.2,1.3-0.6c0.4-0.4,0.5-1,0.5-1.9c0-0.8-0.2-1.4-0.5-1.8
				c-0.4-0.4-0.8-0.6-1.3-0.6c-0.5,0-1,0.2-1.3,0.6C198.9,18.9,198.7,19.5,198.7,20.3z"/>
			<path id="XMLID_411_" d="M204.9,23.5v-6.4h1V18c0.2-0.3,0.5-0.6,0.8-0.8c0.3-0.2,0.7-0.3,1.1-0.3c0.5,0,0.9,0.1,1.2,0.3
				s0.5,0.5,0.6,0.8c0.5-0.7,1.2-1.1,2-1.1c0.6,0,1.1,0.2,1.5,0.5c0.3,0.4,0.5,0.9,0.5,1.6v4.4h-1.1v-4c0-0.4,0-0.7-0.1-0.9
				c-0.1-0.2-0.2-0.3-0.4-0.5c-0.2-0.1-0.4-0.2-0.6-0.2c-0.4,0-0.8,0.1-1.1,0.4c-0.3,0.3-0.4,0.8-0.4,1.4v3.7h-1.1v-4.1
				c0-0.5-0.1-0.8-0.3-1.1c-0.2-0.2-0.5-0.4-0.9-0.4c-0.3,0-0.6,0.1-0.8,0.2c-0.3,0.2-0.4,0.4-0.6,0.7s-0.2,0.8-0.2,1.3v3.3H204.9z"
				/>
			<path id="XMLID_413_" d="M216.1,23.5h-1v-8.8h1.1v3.1c0.5-0.6,1-0.9,1.8-0.9c0.4,0,0.8,0.1,1.1,0.2c0.4,0.2,0.6,0.4,0.9,0.7
				c0.2,0.3,0.4,0.6,0.5,1c0.1,0.4,0.2,0.8,0.2,1.3c0,1.1-0.3,1.9-0.8,2.5s-1.2,0.9-1.9,0.9c-0.8,0-1.3-0.3-1.8-0.9V23.5z
				 M216.1,20.3c0,0.8,0.1,1.3,0.3,1.7c0.3,0.6,0.8,0.8,1.4,0.8c0.5,0,0.9-0.2,1.2-0.6s0.5-1,0.5-1.8c0-0.8-0.2-1.4-0.5-1.8
				c-0.3-0.4-0.7-0.6-1.2-0.6c-0.5,0-0.9,0.2-1.2,0.6S216.1,19.5,216.1,20.3z"/>
			<path id="XMLID_416_" d="M222,23.5v-6.4h1v1c0.2-0.5,0.5-0.8,0.7-0.9s0.4-0.2,0.7-0.2c0.4,0,0.7,0.1,1.1,0.3l-0.4,1
				c-0.3-0.2-0.5-0.2-0.8-0.2c-0.2,0-0.4,0.1-0.6,0.2c-0.2,0.1-0.3,0.3-0.4,0.6c-0.1,0.4-0.2,0.8-0.2,1.3v3.3H222z"/>
			<path id="XMLID_418_" d="M230.4,21.5l1.1,0.1c-0.2,0.7-0.5,1.2-1,1.5c-0.5,0.4-1.1,0.5-1.8,0.5c-0.9,0-1.7-0.3-2.2-0.9
				c-0.5-0.6-0.8-1.4-0.8-2.4c0-1.1,0.3-1.9,0.8-2.5c0.6-0.6,1.3-0.9,2.2-0.9c0.9,0,1.6,0.3,2.1,0.9c0.5,0.6,0.8,1.4,0.8,2.5
				c0,0.1,0,0.2,0,0.3h-4.8c0,0.7,0.2,1.2,0.6,1.6c0.4,0.4,0.8,0.6,1.3,0.6c0.4,0,0.7-0.1,1-0.3C230.1,22.3,230.3,21.9,230.4,21.5z
				 M226.9,19.7h3.6c0-0.5-0.2-0.9-0.4-1.2c-0.3-0.4-0.8-0.6-1.3-0.6c-0.5,0-0.9,0.2-1.3,0.5S226.9,19.2,226.9,19.7z"/>
			<path id="XMLID_421_" d="M240.5,21.2l1.1,0.1c-0.1,0.7-0.4,1.3-0.9,1.7s-1.1,0.6-1.8,0.6c-0.9,0-1.6-0.3-2.1-0.9
				s-0.8-1.4-0.8-2.5c0-0.7,0.1-1.3,0.3-1.8c0.2-0.5,0.6-0.9,1-1.2c0.5-0.3,1-0.4,1.5-0.4c0.7,0,1.3,0.2,1.7,0.5
				c0.4,0.4,0.7,0.8,0.8,1.5l-1.1,0.2c-0.1-0.4-0.3-0.8-0.5-1c-0.3-0.2-0.6-0.3-0.9-0.3c-0.5,0-1,0.2-1.3,0.6
				c-0.3,0.4-0.5,1-0.5,1.9c0,0.9,0.2,1.5,0.5,1.9c0.3,0.4,0.8,0.6,1.3,0.6c0.4,0,0.8-0.1,1.1-0.4C240.3,22.1,240.4,21.7,240.5,21.2
				z"/>
			<path id="XMLID_423_" d="M242.5,23.5v-8.8h1.1v8.8H242.5z"/>
			<path id="XMLID_425_" d="M249.4,22.7c-0.4,0.3-0.8,0.6-1.2,0.7c-0.4,0.1-0.8,0.2-1.2,0.2c-0.7,0-1.2-0.2-1.6-0.5
				s-0.6-0.8-0.6-1.3c0-0.3,0.1-0.6,0.2-0.9s0.3-0.5,0.6-0.6s0.5-0.3,0.8-0.4c0.2-0.1,0.5-0.1,1-0.2c0.9-0.1,1.5-0.2,1.9-0.4
				c0-0.1,0-0.2,0-0.3c0-0.4-0.1-0.8-0.3-0.9c-0.3-0.2-0.7-0.4-1.2-0.4c-0.5,0-0.9,0.1-1.1,0.3c-0.2,0.2-0.4,0.5-0.5,0.9l-1.1-0.1
				c0.1-0.5,0.3-0.8,0.5-1.1c0.2-0.3,0.5-0.5,1-0.6c0.4-0.1,0.9-0.2,1.4-0.2c0.5,0,1,0.1,1.3,0.2c0.3,0.1,0.6,0.3,0.8,0.5
				s0.3,0.4,0.3,0.7c0,0.2,0.1,0.5,0.1,1v1.4c0,1,0,1.6,0.1,1.9c0,0.3,0.1,0.5,0.3,0.8h-1.1C249.5,23.3,249.4,23,249.4,22.7z
				 M249.3,20.3c-0.4,0.2-1,0.3-1.8,0.4c-0.4,0.1-0.8,0.1-0.9,0.2s-0.3,0.2-0.4,0.4c-0.1,0.2-0.2,0.3-0.2,0.5c0,0.3,0.1,0.5,0.3,0.7
				c0.2,0.2,0.5,0.3,1,0.3c0.4,0,0.8-0.1,1.1-0.3s0.6-0.4,0.7-0.7c0.1-0.2,0.2-0.6,0.2-1.1V20.3z"/>
			<path id="XMLID_428_" d="M251.6,21.6l1.1-0.2c0.1,0.4,0.2,0.8,0.5,1c0.3,0.2,0.7,0.3,1.2,0.3c0.5,0,0.9-0.1,1.1-0.3
				c0.2-0.2,0.4-0.4,0.4-0.7c0-0.2-0.1-0.4-0.3-0.6c-0.1-0.1-0.5-0.2-1.1-0.4c-0.8-0.2-1.3-0.4-1.7-0.5s-0.5-0.3-0.7-0.6
				c-0.2-0.3-0.2-0.5-0.2-0.9c0-0.3,0.1-0.5,0.2-0.8c0.1-0.2,0.3-0.4,0.5-0.6c0.2-0.1,0.4-0.2,0.7-0.3s0.6-0.1,0.9-0.1
				c0.5,0,0.9,0.1,1.3,0.2s0.7,0.3,0.8,0.6c0.2,0.2,0.3,0.6,0.4,1l-1.1,0.1c0-0.3-0.2-0.6-0.4-0.8s-0.6-0.3-1-0.3
				c-0.5,0-0.9,0.1-1.1,0.2c-0.2,0.2-0.3,0.4-0.3,0.6c0,0.1,0,0.3,0.1,0.4c0.1,0.1,0.2,0.2,0.4,0.3c0.1,0,0.4,0.1,1,0.3
				c0.8,0.2,1.3,0.4,1.6,0.5c0.3,0.1,0.5,0.3,0.7,0.6c0.2,0.2,0.3,0.6,0.3,0.9c0,0.4-0.1,0.7-0.3,1c-0.2,0.3-0.5,0.6-0.9,0.7
				c-0.4,0.2-0.8,0.3-1.3,0.3c-0.8,0-1.5-0.2-1.9-0.5C252,22.8,251.8,22.3,251.6,21.6z"/>
			<path id="XMLID_430_" d="M262.6,21.5l1.1,0.1c-0.2,0.7-0.5,1.2-1,1.5c-0.5,0.4-1.1,0.5-1.8,0.5c-0.9,0-1.7-0.3-2.2-0.9
				c-0.5-0.6-0.8-1.4-0.8-2.4c0-1.1,0.3-1.9,0.8-2.5c0.6-0.6,1.3-0.9,2.2-0.9c0.9,0,1.6,0.3,2.1,0.9c0.5,0.6,0.8,1.4,0.8,2.5
				c0,0.1,0,0.2,0,0.3H259c0,0.7,0.2,1.2,0.6,1.6c0.4,0.4,0.8,0.6,1.3,0.6c0.4,0,0.7-0.1,1-0.3C262.2,22.3,262.4,21.9,262.6,21.5z
				 M259.1,19.7h3.6c0-0.5-0.2-0.9-0.4-1.2c-0.3-0.4-0.8-0.6-1.3-0.6c-0.5,0-0.9,0.2-1.3,0.5C259.3,18.7,259.1,19.2,259.1,19.7z"/>
		</g>
		<g id="XMLID_382_">
			<path id="XMLID_383_" d="M202,58.5l3.4-8.8h1.3l3.6,8.8h-1.3l-1-2.7h-3.7l-1,2.7H202z M204.5,54.9h3l-0.9-2.4
				c-0.3-0.7-0.5-1.4-0.6-1.8c-0.1,0.6-0.3,1.1-0.5,1.7L204.5,54.9z"/>
			<path id="XMLID_386_" d="M213.4,57.6l0.2,1c-0.3,0.1-0.6,0.1-0.8,0.1c-0.4,0-0.7-0.1-0.9-0.2s-0.4-0.3-0.5-0.5
				c-0.1-0.2-0.1-0.6-0.1-1.3V53h-0.8v-0.8h0.8v-1.6l1.1-0.6v2.2h1.1V53h-1.1v3.7c0,0.3,0,0.5,0.1,0.6s0.1,0.2,0.2,0.2
				c0.1,0.1,0.2,0.1,0.4,0.1C213,57.6,213.2,57.6,213.4,57.6z"/>
			<path id="XMLID_388_" d="M214.4,58.5v-6.4h1v1c0.2-0.5,0.5-0.8,0.7-0.9s0.4-0.2,0.7-0.2c0.4,0,0.7,0.1,1.1,0.3l-0.4,1
				c-0.3-0.2-0.5-0.2-0.8-0.2c-0.2,0-0.4,0.1-0.6,0.2c-0.2,0.1-0.3,0.3-0.4,0.6c-0.1,0.4-0.2,0.8-0.2,1.3v3.3H214.4z"/>
			<path id="XMLID_390_" d="M218.5,51v-1.2h1.1V51H218.5z M218.5,58.5v-6.4h1.1v6.4H218.5z"/>
			<path id="XMLID_393_" d="M222.3,58.5h-1v-8.8h1.1v3.1c0.5-0.6,1-0.9,1.8-0.9c0.4,0,0.8,0.1,1.1,0.2c0.4,0.2,0.6,0.4,0.9,0.7
				c0.2,0.3,0.4,0.6,0.5,1c0.1,0.4,0.2,0.8,0.2,1.3c0,1.1-0.3,1.9-0.8,2.5s-1.2,0.9-1.9,0.9c-0.8,0-1.3-0.3-1.8-0.9V58.5z
				 M222.3,55.3c0,0.8,0.1,1.3,0.3,1.7c0.3,0.6,0.8,0.8,1.4,0.8c0.5,0,0.9-0.2,1.2-0.6s0.5-1,0.5-1.8c0-0.8-0.2-1.4-0.5-1.8
				c-0.3-0.4-0.7-0.6-1.2-0.6c-0.5,0-0.9,0.2-1.2,0.6S222.3,54.5,222.3,55.3z"/>
			<path id="XMLID_396_" d="M232.3,58.5v-0.9c-0.5,0.7-1.2,1.1-2,1.1c-0.4,0-0.7-0.1-1.1-0.2c-0.3-0.1-0.6-0.3-0.7-0.5
				c-0.2-0.2-0.3-0.5-0.3-0.8c0-0.2-0.1-0.5-0.1-1v-4h1.1v3.5c0,0.6,0,0.9,0.1,1.1c0.1,0.3,0.2,0.5,0.4,0.7c0.2,0.2,0.5,0.2,0.8,0.2
				c0.3,0,0.6-0.1,0.9-0.2c0.3-0.2,0.5-0.4,0.6-0.7c0.1-0.3,0.2-0.7,0.2-1.2v-3.4h1.1v6.4H232.3z"/>
			<path id="XMLID_398_" d="M237.3,57.6l0.2,1c-0.3,0.1-0.6,0.1-0.8,0.1c-0.4,0-0.7-0.1-0.9-0.2s-0.4-0.3-0.5-0.5
				c-0.1-0.2-0.1-0.6-0.1-1.3V53h-0.8v-0.8h0.8v-1.6l1.1-0.6v2.2h1.1V53h-1.1v3.7c0,0.3,0,0.5,0.1,0.6s0.1,0.2,0.2,0.2
				c0.1,0.1,0.2,0.1,0.4,0.1C237,57.6,237.1,57.6,237.3,57.6z"/>
			<path id="XMLID_400_" d="M238,55.3c0-1.2,0.3-2.1,1-2.6c0.5-0.5,1.2-0.7,2-0.7c0.9,0,1.6,0.3,2.2,0.9s0.8,1.4,0.8,2.4
				c0,0.8-0.1,1.5-0.4,1.9c-0.2,0.5-0.6,0.8-1.1,1.1s-1,0.4-1.5,0.4c-0.9,0-1.6-0.3-2.2-0.9S238,56.4,238,55.3z M239.1,55.3
				c0,0.8,0.2,1.4,0.5,1.8c0.4,0.4,0.8,0.6,1.3,0.6c0.5,0,1-0.2,1.3-0.6s0.5-1,0.5-1.9c0-0.8-0.2-1.4-0.5-1.8
				c-0.4-0.4-0.8-0.6-1.3-0.6c-0.5,0-1,0.2-1.3,0.6C239.3,53.9,239.1,54.5,239.1,55.3z"/>
			<path id="XMLID_403_" d="M244.8,56.6l1.1-0.2c0.1,0.4,0.2,0.8,0.5,1c0.3,0.2,0.7,0.3,1.2,0.3c0.5,0,0.9-0.1,1.1-0.3
				c0.2-0.2,0.4-0.4,0.4-0.7c0-0.2-0.1-0.4-0.3-0.6c-0.1-0.1-0.5-0.2-1.1-0.4c-0.8-0.2-1.3-0.4-1.7-0.5s-0.5-0.3-0.7-0.6
				s-0.2-0.5-0.2-0.9c0-0.3,0.1-0.5,0.2-0.8s0.3-0.4,0.5-0.6c0.2-0.1,0.4-0.2,0.7-0.3c0.3-0.1,0.6-0.1,0.9-0.1
				c0.5,0,0.9,0.1,1.3,0.2s0.7,0.3,0.8,0.6c0.2,0.2,0.3,0.6,0.4,1l-1.1,0.1c0-0.3-0.2-0.6-0.4-0.8s-0.6-0.3-1-0.3
				c-0.5,0-0.9,0.1-1.1,0.2c-0.2,0.2-0.3,0.4-0.3,0.6c0,0.1,0,0.3,0.1,0.4c0.1,0.1,0.2,0.2,0.4,0.3c0.1,0,0.4,0.1,1,0.3
				c0.8,0.2,1.3,0.4,1.6,0.5c0.3,0.1,0.5,0.3,0.7,0.6c0.2,0.2,0.3,0.6,0.3,0.9c0,0.4-0.1,0.7-0.3,1c-0.2,0.3-0.5,0.6-0.9,0.7
				c-0.4,0.2-0.8,0.3-1.3,0.3c-0.8,0-1.5-0.2-1.9-0.5S244.9,57.3,244.8,56.6z"/>
		</g>
		<g id="XMLID_330_">
			<path id="XMLID_331_" d="M192,79.8c0-1.5,0.4-2.6,1.2-3.4s1.8-1.2,3-1.2c0.8,0,1.5,0.2,2.2,0.6s1.2,0.9,1.5,1.6
				c0.3,0.7,0.5,1.5,0.5,2.4c0,0.9-0.2,1.7-0.5,2.4c-0.4,0.7-0.9,1.2-1.5,1.6c-0.7,0.4-1.4,0.5-2.1,0.5c-0.8,0-1.6-0.2-2.2-0.6
				c-0.7-0.4-1.1-0.9-1.5-1.6C192.1,81.3,192,80.6,192,79.8z M193.2,79.8c0,1.1,0.3,1.9,0.9,2.5c0.6,0.6,1.3,0.9,2.1,0.9
				c0.9,0,1.6-0.3,2.2-0.9c0.6-0.6,0.9-1.5,0.9-2.6c0-0.7-0.1-1.3-0.4-1.9s-0.6-1-1.1-1.2c-0.5-0.3-1-0.4-1.6-0.4
				c-0.8,0-1.5,0.3-2.1,0.9S193.2,78.5,193.2,79.8z"/>
			<path id="XMLID_334_" d="M201.8,86.6v-8.8h1v0.8c0.2-0.3,0.5-0.6,0.8-0.7c0.3-0.2,0.6-0.2,1.1-0.2c0.5,0,1,0.1,1.4,0.4
				c0.4,0.3,0.7,0.7,0.9,1.2c0.2,0.5,0.3,1.1,0.3,1.7c0,0.7-0.1,1.2-0.4,1.8c-0.2,0.5-0.6,0.9-1,1.2c-0.4,0.3-0.9,0.4-1.4,0.4
				c-0.4,0-0.7-0.1-1-0.2s-0.5-0.3-0.7-0.6v3.1H201.8z M202.7,81c0,0.8,0.2,1.4,0.5,1.8c0.3,0.4,0.7,0.6,1.2,0.6
				c0.5,0,0.9-0.2,1.2-0.6c0.3-0.4,0.5-1,0.5-1.9c0-0.8-0.2-1.4-0.5-1.8c-0.3-0.4-0.7-0.6-1.2-0.6c-0.5,0-0.9,0.2-1.2,0.6
				C202.9,79.5,202.7,80.1,202.7,81z"/>
			<path id="XMLID_337_" d="M213,82.1l1.1,0.1c-0.2,0.7-0.5,1.2-1,1.5c-0.5,0.4-1.1,0.5-1.8,0.5c-0.9,0-1.7-0.3-2.2-0.9
				c-0.5-0.6-0.8-1.4-0.8-2.4c0-1.1,0.3-1.9,0.8-2.5c0.6-0.6,1.3-0.9,2.2-0.9c0.9,0,1.6,0.3,2.1,0.9c0.5,0.6,0.8,1.4,0.8,2.5
				c0,0.1,0,0.2,0,0.3h-4.8c0,0.7,0.2,1.2,0.6,1.6c0.4,0.4,0.8,0.6,1.3,0.6c0.4,0,0.7-0.1,1-0.3C212.6,82.8,212.8,82.5,213,82.1z
				 M209.4,80.3h3.6c0-0.5-0.2-0.9-0.4-1.2c-0.3-0.4-0.8-0.6-1.3-0.6c-0.5,0-0.9,0.2-1.3,0.5S209.5,79.7,209.4,80.3z"/>
			<path id="XMLID_340_" d="M215.5,84.1v-6.4h1v1c0.2-0.5,0.5-0.8,0.7-0.9s0.4-0.2,0.7-0.2c0.4,0,0.7,0.1,1.1,0.3l-0.4,1
				c-0.3-0.2-0.5-0.2-0.8-0.2c-0.2,0-0.4,0.1-0.6,0.2c-0.2,0.1-0.3,0.3-0.4,0.6c-0.1,0.4-0.2,0.8-0.2,1.3v3.3H215.5z"/>
			<path id="XMLID_342_" d="M223.7,83.3c-0.4,0.3-0.8,0.6-1.2,0.7c-0.4,0.1-0.8,0.2-1.2,0.2c-0.7,0-1.2-0.2-1.6-0.5
				s-0.6-0.8-0.6-1.3c0-0.3,0.1-0.6,0.2-0.9c0.1-0.3,0.3-0.5,0.6-0.6s0.5-0.3,0.8-0.4c0.2-0.1,0.5-0.1,1-0.2
				c0.9-0.1,1.5-0.2,1.9-0.4c0-0.1,0-0.2,0-0.3c0-0.4-0.1-0.8-0.3-0.9c-0.3-0.2-0.7-0.4-1.2-0.4c-0.5,0-0.9,0.1-1.1,0.3
				c-0.2,0.2-0.4,0.5-0.5,0.9l-1.1-0.1c0.1-0.5,0.3-0.8,0.5-1.1c0.2-0.3,0.5-0.5,1-0.6c0.4-0.1,0.9-0.2,1.4-0.2c0.5,0,1,0.1,1.3,0.2
				c0.3,0.1,0.6,0.3,0.8,0.5s0.3,0.4,0.3,0.7c0,0.2,0.1,0.5,0.1,1v1.4c0,1,0,1.6,0.1,1.9c0,0.3,0.1,0.5,0.3,0.8H224
				C223.8,83.9,223.8,83.6,223.7,83.3z M223.6,80.9c-0.4,0.2-1,0.3-1.8,0.4c-0.4,0.1-0.8,0.1-0.9,0.2s-0.3,0.2-0.4,0.4
				c-0.1,0.2-0.2,0.3-0.2,0.5c0,0.3,0.1,0.5,0.3,0.7c0.2,0.2,0.5,0.3,1,0.3c0.4,0,0.8-0.1,1.1-0.3s0.6-0.4,0.7-0.7
				c0.1-0.2,0.2-0.6,0.2-1.1V80.9z"/>
			<path id="XMLID_345_" d="M230.6,81.8l1.1,0.1c-0.1,0.7-0.4,1.3-0.9,1.7c-0.5,0.4-1.1,0.6-1.8,0.6c-0.9,0-1.6-0.3-2.1-0.9
				s-0.8-1.4-0.8-2.5c0-0.7,0.1-1.3,0.3-1.8c0.2-0.5,0.6-0.9,1-1.2c0.5-0.3,1-0.4,1.5-0.4c0.7,0,1.3,0.2,1.7,0.5
				c0.4,0.4,0.7,0.8,0.8,1.5l-1.1,0.2c-0.1-0.4-0.3-0.8-0.5-1c-0.3-0.2-0.6-0.3-0.9-0.3c-0.5,0-1,0.2-1.3,0.6
				c-0.3,0.4-0.5,1-0.5,1.9c0,0.9,0.2,1.5,0.5,1.9s0.8,0.6,1.3,0.6c0.4,0,0.8-0.1,1.1-0.4S230.5,82.3,230.6,81.8z"/>
			<path id="XMLID_347_" d="M232.6,76.5v-1.2h1.1v1.2H232.6z M232.6,84.1v-6.4h1.1v6.4H232.6z"/>
			<path id="XMLID_350_" d="M234.9,80.9c0-1.2,0.3-2.1,1-2.6c0.5-0.5,1.2-0.7,2-0.7c0.9,0,1.6,0.3,2.2,0.9c0.6,0.6,0.8,1.4,0.8,2.4
				c0,0.8-0.1,1.5-0.4,1.9c-0.2,0.5-0.6,0.8-1.1,1.1c-0.5,0.3-1,0.4-1.5,0.4c-0.9,0-1.6-0.3-2.2-0.9C235.2,82.8,234.9,82,234.9,80.9
				z M236,80.9c0,0.8,0.2,1.4,0.5,1.8c0.4,0.4,0.8,0.6,1.3,0.6c0.5,0,1-0.2,1.3-0.6c0.4-0.4,0.5-1,0.5-1.9c0-0.8-0.2-1.4-0.5-1.8
				c-0.4-0.4-0.8-0.6-1.3-0.6c-0.5,0-1,0.2-1.3,0.6C236.2,79.5,236,80.1,236,80.9z"/>
			<path id="XMLID_353_" d="M242.2,84.1v-6.4h1v0.9c0.5-0.7,1.1-1.1,2-1.1c0.4,0,0.7,0.1,1.1,0.2c0.3,0.1,0.6,0.3,0.7,0.5
				s0.3,0.5,0.3,0.8c0,0.2,0.1,0.6,0.1,1.1v3.9h-1.1v-3.9c0-0.4,0-0.8-0.1-1c-0.1-0.2-0.2-0.4-0.4-0.5c-0.2-0.1-0.5-0.2-0.8-0.2
				c-0.5,0-0.9,0.1-1.2,0.4c-0.3,0.3-0.5,0.8-0.5,1.7v3.5H242.2z"/>
			<path id="XMLID_355_" d="M253.4,82.1l1.1,0.1c-0.2,0.7-0.5,1.2-1,1.5c-0.5,0.4-1.1,0.5-1.8,0.5c-0.9,0-1.7-0.3-2.2-0.9
				c-0.5-0.6-0.8-1.4-0.8-2.4c0-1.1,0.3-1.9,0.8-2.5c0.6-0.6,1.3-0.9,2.2-0.9c0.9,0,1.6,0.3,2.1,0.9c0.5,0.6,0.8,1.4,0.8,2.5
				c0,0.1,0,0.2,0,0.3h-4.8c0,0.7,0.2,1.2,0.6,1.6c0.4,0.4,0.8,0.6,1.3,0.6c0.4,0,0.7-0.1,1-0.3C253,82.8,253.2,82.5,253.4,82.1z
				 M249.8,80.3h3.6c0-0.5-0.2-0.9-0.4-1.2c-0.3-0.4-0.8-0.6-1.3-0.6c-0.5,0-0.9,0.2-1.3,0.5C250.1,79.3,249.9,79.7,249.8,80.3z"/>
			<path id="XMLID_358_" d="M255.4,82.2l1.1-0.2c0.1,0.4,0.2,0.8,0.5,1c0.3,0.2,0.7,0.3,1.2,0.3c0.5,0,0.9-0.1,1.1-0.3
				c0.2-0.2,0.4-0.4,0.4-0.7c0-0.2-0.1-0.4-0.3-0.6c-0.1-0.1-0.5-0.2-1.1-0.4c-0.8-0.2-1.3-0.4-1.7-0.5s-0.5-0.3-0.7-0.6
				s-0.2-0.5-0.2-0.9c0-0.3,0.1-0.5,0.2-0.8c0.1-0.2,0.3-0.4,0.5-0.6c0.2-0.1,0.4-0.2,0.7-0.3c0.3-0.1,0.6-0.1,0.9-0.1
				c0.5,0,0.9,0.1,1.3,0.2s0.7,0.3,0.8,0.6c0.2,0.2,0.3,0.6,0.4,1l-1.1,0.1c0-0.3-0.2-0.6-0.4-0.8s-0.6-0.3-1-0.3
				c-0.5,0-0.9,0.1-1.1,0.2c-0.2,0.2-0.3,0.4-0.3,0.6c0,0.1,0,0.3,0.1,0.4c0.1,0.1,0.2,0.2,0.4,0.3c0.1,0,0.4,0.1,1,0.3
				c0.8,0.2,1.3,0.4,1.6,0.5c0.3,0.1,0.5,0.3,0.7,0.6c0.2,0.2,0.3,0.6,0.3,0.9c0,0.4-0.1,0.7-0.3,1c-0.2,0.3-0.5,0.6-0.9,0.7
				c-0.4,0.2-0.8,0.3-1.3,0.3c-0.8,0-1.5-0.2-1.9-0.5C255.8,83.4,255.5,82.9,255.4,82.2z"/>
			<path id="XMLID_360_" d="M197.9,95.7c0-1.2,0.3-2.1,1-2.6c0.5-0.5,1.2-0.7,2-0.7c0.9,0,1.6,0.3,2.2,0.9s0.8,1.4,0.8,2.4
				c0,0.8-0.1,1.5-0.4,1.9c-0.2,0.5-0.6,0.8-1.1,1.1s-1,0.4-1.5,0.4c-0.9,0-1.6-0.3-2.2-0.9S197.9,96.8,197.9,95.7z M199.1,95.7
				c0,0.8,0.2,1.4,0.5,1.8c0.4,0.4,0.8,0.6,1.3,0.6c0.5,0,1-0.2,1.3-0.6c0.4-0.4,0.5-1,0.5-1.9c0-0.8-0.2-1.4-0.5-1.8
				c-0.4-0.4-0.8-0.6-1.3-0.6c-0.5,0-1,0.2-1.3,0.6C199.2,94.3,199.1,94.9,199.1,95.7z"/>
			<path id="XMLID_363_" d="M208.6,98.9v-6.4h1v0.9c0.2-0.3,0.5-0.6,0.8-0.8c0.3-0.2,0.7-0.3,1.1-0.3c0.5,0,0.9,0.1,1.2,0.3
				s0.5,0.5,0.6,0.8c0.5-0.7,1.2-1.1,2-1.1c0.6,0,1.1,0.2,1.5,0.5c0.3,0.4,0.5,0.9,0.5,1.6v4.4h-1.1v-4c0-0.4,0-0.7-0.1-0.9
				c-0.1-0.2-0.2-0.3-0.4-0.5c-0.2-0.1-0.4-0.2-0.6-0.2c-0.4,0-0.8,0.1-1.1,0.4c-0.3,0.3-0.4,0.8-0.4,1.4v3.7h-1.1v-4.1
				c0-0.5-0.1-0.8-0.3-1.1c-0.2-0.2-0.5-0.4-0.9-0.4c-0.3,0-0.6,0.1-0.8,0.2c-0.3,0.2-0.4,0.4-0.6,0.7s-0.2,0.8-0.2,1.3v3.3H208.6z"
				/>
			<path id="XMLID_365_" d="M223.3,96.8l1.1,0.1c-0.2,0.7-0.5,1.2-1,1.5c-0.5,0.4-1.1,0.5-1.8,0.5c-0.9,0-1.7-0.3-2.2-0.9
				c-0.5-0.6-0.8-1.4-0.8-2.4c0-1.1,0.3-1.9,0.8-2.5c0.6-0.6,1.3-0.9,2.2-0.9c0.9,0,1.6,0.3,2.1,0.9c0.5,0.6,0.8,1.4,0.8,2.5
				c0,0.1,0,0.2,0,0.3h-4.8c0,0.7,0.2,1.2,0.6,1.6c0.4,0.4,0.8,0.6,1.3,0.6c0.4,0,0.7-0.1,1-0.3C222.9,97.6,223.1,97.3,223.3,96.8z
				 M219.7,95.1h3.6c0-0.5-0.2-0.9-0.4-1.2c-0.3-0.4-0.8-0.6-1.3-0.6c-0.5,0-0.9,0.2-1.3,0.5S219.7,94.5,219.7,95.1z M220.9,91.7
				l0.8-1.7h1.4l-1.3,1.7H220.9z"/>
			<path id="XMLID_369_" d="M228.1,97.9l0.2,1c-0.3,0.1-0.6,0.1-0.8,0.1c-0.4,0-0.7-0.1-0.9-0.2s-0.4-0.3-0.5-0.5
				c-0.1-0.2-0.1-0.6-0.1-1.3v-3.7h-0.8v-0.8h0.8v-1.6l1.1-0.6v2.2h1.1v0.8H227v3.7c0,0.3,0,0.5,0.1,0.6s0.1,0.2,0.2,0.2
				c0.1,0.1,0.2,0.1,0.4,0.1C227.7,98,227.9,97.9,228.1,97.9z"/>
			<path id="XMLID_371_" d="M228.7,95.7c0-1.2,0.3-2.1,1-2.6c0.5-0.5,1.2-0.7,2-0.7c0.9,0,1.6,0.3,2.2,0.9s0.8,1.4,0.8,2.4
				c0,0.8-0.1,1.5-0.4,1.9c-0.2,0.5-0.6,0.8-1.1,1.1s-1,0.4-1.5,0.4c-0.9,0-1.6-0.3-2.2-0.9C229,97.6,228.7,96.8,228.7,95.7z
				 M229.9,95.7c0,0.8,0.2,1.4,0.5,1.8c0.4,0.4,0.8,0.6,1.3,0.6c0.5,0,1-0.2,1.3-0.6c0.4-0.4,0.5-1,0.5-1.9c0-0.8-0.2-1.4-0.5-1.8
				s-0.8-0.6-1.3-0.6c-0.5,0-1,0.2-1.3,0.6C230,94.3,229.9,94.9,229.9,95.7z"/>
			<path id="XMLID_374_" d="M240.1,98.9v-0.8c-0.4,0.6-1,1-1.8,1c-0.5,0-1-0.1-1.4-0.4c-0.4-0.3-0.8-0.7-1-1.2s-0.4-1.1-0.4-1.7
				c0-0.6,0.1-1.2,0.3-1.7c0.2-0.5,0.5-0.9,1-1.2c0.4-0.3,0.9-0.4,1.4-0.4c0.4,0,0.7,0.1,1,0.2s0.5,0.4,0.7,0.6v-3.2h1.1v8.8H240.1z
				 M236.7,95.7c0,0.8,0.2,1.4,0.5,1.8c0.3,0.4,0.8,0.6,1.2,0.6c0.5,0,0.9-0.2,1.2-0.6c0.3-0.4,0.5-1,0.5-1.8c0-0.9-0.2-1.5-0.5-1.9
				c-0.3-0.4-0.8-0.6-1.2-0.6c-0.5,0-0.9,0.2-1.2,0.6C236.9,94.2,236.7,94.9,236.7,95.7z"/>
			<path id="XMLID_377_" d="M242.4,95.7c0-1.2,0.3-2.1,1-2.6c0.5-0.5,1.2-0.7,2-0.7c0.9,0,1.6,0.3,2.2,0.9s0.8,1.4,0.8,2.4
				c0,0.8-0.1,1.5-0.4,1.9c-0.2,0.5-0.6,0.8-1.1,1.1s-1,0.4-1.5,0.4c-0.9,0-1.6-0.3-2.2-0.9S242.4,96.8,242.4,95.7z M243.6,95.7
				c0,0.8,0.2,1.4,0.5,1.8c0.4,0.4,0.8,0.6,1.3,0.6c0.5,0,1-0.2,1.3-0.6s0.5-1,0.5-1.9c0-0.8-0.2-1.4-0.5-1.8
				c-0.4-0.4-0.8-0.6-1.3-0.6c-0.5,0-1,0.2-1.3,0.6C243.7,94.3,243.6,94.9,243.6,95.7z"/>
			<path id="XMLID_380_" d="M249.3,97l1.1-0.2c0.1,0.4,0.2,0.8,0.5,1c0.3,0.2,0.7,0.3,1.2,0.3c0.5,0,0.9-0.1,1.1-0.3
				c0.2-0.2,0.4-0.4,0.4-0.7c0-0.2-0.1-0.4-0.3-0.6c-0.1-0.1-0.5-0.2-1.1-0.4c-0.8-0.2-1.3-0.4-1.7-0.5s-0.5-0.3-0.7-0.6
				s-0.2-0.5-0.2-0.9c0-0.3,0.1-0.5,0.2-0.8s0.3-0.4,0.5-0.6c0.2-0.1,0.4-0.2,0.7-0.3c0.3-0.1,0.6-0.1,0.9-0.1
				c0.5,0,0.9,0.1,1.3,0.2s0.7,0.3,0.8,0.6c0.2,0.2,0.3,0.6,0.4,1l-1.1,0.1c0-0.3-0.2-0.6-0.4-0.8s-0.6-0.3-1-0.3
				c-0.5,0-0.9,0.1-1.1,0.2c-0.2,0.2-0.3,0.4-0.3,0.6c0,0.1,0,0.3,0.1,0.4c0.1,0.1,0.2,0.2,0.4,0.3c0.1,0,0.4,0.1,1,0.3
				c0.8,0.2,1.3,0.4,1.6,0.5c0.3,0.1,0.5,0.3,0.7,0.6c0.2,0.2,0.3,0.6,0.3,0.9c0,0.4-0.1,0.7-0.3,1c-0.2,0.3-0.5,0.6-0.9,0.7
				c-0.4,0.2-0.8,0.3-1.3,0.3c-0.8,0-1.5-0.2-1.9-0.5S249.4,97.7,249.3,97z"/>
		</g>
	</g>
	<g id="XMLID_11956_">
		<rect id="XMLID_487_" x="159.9" y="163.1" class="st2" width="136.2" height="102.6"/>
		<path id="XMLID_27_" class="st3" d="M294.6,164.6v99.6H161.4v-99.6H294.6 M297.6,161.6H158.4v105.6h139.2V161.6L297.6,161.6z"/>
	</g>
	<line id="XMLID_11955_" class="st4" x1="158.4" y1="197" x2="297.6" y2="197"/>
	<line id="XMLID_11953_" class="st4" x1="158.4" y1="232.1" x2="297.6" y2="232.1"/>
	<g id="XMLID_302_">
		<path id="XMLID_303_" d="M189.2,185.1v-8.8h1.2l4.6,6.9v-6.9h1.1v8.8H195l-4.6-6.9v6.9H189.2z"/>
		<path id="XMLID_305_" d="M197.6,181.9c0-1.2,0.3-2.1,1-2.6c0.5-0.5,1.2-0.7,2-0.7c0.9,0,1.6,0.3,2.2,0.9s0.8,1.4,0.8,2.4
			c0,0.8-0.1,1.5-0.4,1.9c-0.2,0.5-0.6,0.8-1.1,1.1s-1,0.4-1.5,0.4c-0.9,0-1.6-0.3-2.2-0.9S197.6,183,197.6,181.9z M198.7,181.9
			c0,0.8,0.2,1.4,0.5,1.8c0.4,0.4,0.8,0.6,1.3,0.6c0.5,0,1-0.2,1.3-0.6c0.4-0.4,0.5-1,0.5-1.9c0-0.8-0.2-1.4-0.5-1.8
			c-0.4-0.4-0.8-0.6-1.3-0.6c-0.5,0-1,0.2-1.3,0.6C198.9,180.5,198.7,181.1,198.7,181.9z"/>
		<path id="XMLID_308_" d="M204.9,185.1v-6.4h1v0.9c0.2-0.3,0.5-0.6,0.8-0.8c0.3-0.2,0.7-0.3,1.1-0.3c0.5,0,0.9,0.1,1.2,0.3
			s0.5,0.5,0.6,0.8c0.5-0.7,1.2-1.1,2-1.1c0.6,0,1.1,0.2,1.5,0.5c0.3,0.4,0.5,0.9,0.5,1.6v4.4h-1.1v-4c0-0.4,0-0.7-0.1-0.9
			c-0.1-0.2-0.2-0.3-0.4-0.5c-0.2-0.1-0.4-0.2-0.6-0.2c-0.4,0-0.8,0.1-1.1,0.4c-0.3,0.3-0.4,0.8-0.4,1.4v3.7h-1.1v-4.1
			c0-0.5-0.1-0.8-0.3-1.1c-0.2-0.2-0.5-0.4-0.9-0.4c-0.3,0-0.6,0.1-0.8,0.2c-0.3,0.2-0.4,0.4-0.6,0.7s-0.2,0.8-0.2,1.3v3.3H204.9z"
			/>
		<path id="XMLID_310_" d="M216.1,185.1h-1v-8.8h1.1v3.1c0.5-0.6,1-0.9,1.8-0.9c0.4,0,0.8,0.1,1.1,0.2c0.4,0.2,0.6,0.4,0.9,0.7
			c0.2,0.3,0.4,0.6,0.5,1c0.1,0.4,0.2,0.8,0.2,1.3c0,1.1-0.3,1.9-0.8,2.5s-1.2,0.9-1.9,0.9c-0.8,0-1.3-0.3-1.8-0.9V185.1z
			 M216.1,181.9c0,0.8,0.1,1.3,0.3,1.7c0.3,0.6,0.8,0.8,1.4,0.8c0.5,0,0.9-0.2,1.2-0.6s0.5-1,0.5-1.8c0-0.8-0.2-1.4-0.5-1.8
			c-0.3-0.4-0.7-0.6-1.2-0.6c-0.5,0-0.9,0.2-1.2,0.6S216.1,181.1,216.1,181.9z"/>
		<path id="XMLID_313_" d="M222,185.1v-6.4h1v1c0.2-0.5,0.5-0.8,0.7-0.9s0.4-0.2,0.7-0.2c0.4,0,0.7,0.1,1.1,0.3l-0.4,1
			c-0.3-0.2-0.5-0.2-0.8-0.2c-0.2,0-0.4,0.1-0.6,0.2c-0.2,0.1-0.3,0.3-0.4,0.6c-0.1,0.4-0.2,0.8-0.2,1.3v3.3H222z"/>
		<path id="XMLID_315_" d="M230.4,183l1.1,0.1c-0.2,0.7-0.5,1.2-1,1.5c-0.5,0.4-1.1,0.5-1.8,0.5c-0.9,0-1.7-0.3-2.2-0.9
			c-0.5-0.6-0.8-1.4-0.8-2.4c0-1.1,0.3-1.9,0.8-2.5c0.6-0.6,1.3-0.9,2.2-0.9c0.9,0,1.6,0.3,2.1,0.9c0.5,0.6,0.8,1.4,0.8,2.5
			c0,0.1,0,0.2,0,0.3h-4.8c0,0.7,0.2,1.2,0.6,1.6c0.4,0.4,0.8,0.6,1.3,0.6c0.4,0,0.7-0.1,1-0.3C230.1,183.8,230.3,183.5,230.4,183z
			 M226.9,181.3h3.6c0-0.5-0.2-0.9-0.4-1.2c-0.3-0.4-0.8-0.6-1.3-0.6c-0.5,0-0.9,0.2-1.3,0.5S226.9,180.7,226.9,181.3z"/>
		<path id="XMLID_318_" d="M240.5,182.8l1.1,0.1c-0.1,0.7-0.4,1.3-0.9,1.7s-1.1,0.6-1.8,0.6c-0.9,0-1.6-0.3-2.1-0.9
			s-0.8-1.4-0.8-2.5c0-0.7,0.1-1.3,0.3-1.8c0.2-0.5,0.6-0.9,1-1.2c0.5-0.3,1-0.4,1.5-0.4c0.7,0,1.3,0.2,1.7,0.5
			c0.4,0.4,0.7,0.8,0.8,1.5l-1.1,0.2c-0.1-0.4-0.3-0.8-0.5-1c-0.3-0.2-0.6-0.3-0.9-0.3c-0.5,0-1,0.2-1.3,0.6c-0.3,0.4-0.5,1-0.5,1.9
			c0,0.9,0.2,1.5,0.5,1.9c0.3,0.4,0.8,0.6,1.3,0.6c0.4,0,0.8-0.1,1.1-0.4C240.3,183.7,240.4,183.3,240.5,182.8z"/>
		<path id="XMLID_320_" d="M242.5,185.1v-8.8h1.1v8.8H242.5z"/>
		<path id="XMLID_322_" d="M249.4,184.3c-0.4,0.3-0.8,0.6-1.2,0.7c-0.4,0.1-0.8,0.2-1.2,0.2c-0.7,0-1.2-0.2-1.6-0.5
			s-0.6-0.8-0.6-1.3c0-0.3,0.1-0.6,0.2-0.9s0.3-0.5,0.6-0.6s0.5-0.3,0.8-0.4c0.2-0.1,0.5-0.1,1-0.2c0.9-0.1,1.5-0.2,1.9-0.4
			c0-0.1,0-0.2,0-0.3c0-0.4-0.1-0.8-0.3-0.9c-0.3-0.2-0.7-0.4-1.2-0.4c-0.5,0-0.9,0.1-1.1,0.3c-0.2,0.2-0.4,0.5-0.5,0.9l-1.1-0.1
			c0.1-0.5,0.3-0.8,0.5-1.1c0.2-0.3,0.5-0.5,1-0.6c0.4-0.1,0.9-0.2,1.4-0.2c0.5,0,1,0.1,1.3,0.2c0.3,0.1,0.6,0.3,0.8,0.5
			s0.3,0.4,0.3,0.7c0,0.2,0.1,0.5,0.1,1v1.4c0,1,0,1.6,0.1,1.9c0,0.3,0.1,0.5,0.3,0.8h-1.1C249.5,184.9,249.4,184.6,249.4,184.3z
			 M249.3,181.9c-0.4,0.2-1,0.3-1.8,0.4c-0.4,0.1-0.8,0.1-0.9,0.2s-0.3,0.2-0.4,0.4c-0.1,0.2-0.2,0.3-0.2,0.5c0,0.3,0.1,0.5,0.3,0.7
			c0.2,0.2,0.5,0.3,1,0.3c0.4,0,0.8-0.1,1.1-0.3s0.6-0.4,0.7-0.7c0.1-0.2,0.2-0.6,0.2-1.1V181.9z"/>
		<path id="XMLID_325_" d="M251.6,183.2l1.1-0.2c0.1,0.4,0.2,0.8,0.5,1c0.3,0.2,0.7,0.3,1.2,0.3c0.5,0,0.9-0.1,1.1-0.3
			c0.2-0.2,0.4-0.4,0.4-0.7c0-0.2-0.1-0.4-0.3-0.6c-0.1-0.1-0.5-0.2-1.1-0.4c-0.8-0.2-1.3-0.4-1.7-0.5s-0.5-0.3-0.7-0.6
			c-0.2-0.3-0.2-0.5-0.2-0.9c0-0.3,0.1-0.5,0.2-0.8c0.1-0.2,0.3-0.4,0.5-0.6c0.2-0.1,0.4-0.2,0.7-0.3s0.6-0.1,0.9-0.1
			c0.5,0,0.9,0.1,1.3,0.2s0.7,0.3,0.8,0.6c0.2,0.2,0.3,0.6,0.4,1l-1.1,0.1c0-0.3-0.2-0.6-0.4-0.8s-0.6-0.3-1-0.3
			c-0.5,0-0.9,0.1-1.1,0.2c-0.2,0.2-0.3,0.4-0.3,0.6c0,0.1,0,0.3,0.1,0.4c0.1,0.1,0.2,0.2,0.4,0.3c0.1,0,0.4,0.1,1,0.3
			c0.8,0.2,1.3,0.4,1.6,0.5c0.3,0.1,0.5,0.3,0.7,0.6c0.2,0.2,0.3,0.6,0.3,0.9c0,0.4-0.1,0.7-0.3,1c-0.2,0.3-0.5,0.6-0.9,0.7
			c-0.4,0.2-0.8,0.3-1.3,0.3c-0.8,0-1.5-0.2-1.9-0.5C252,184.4,251.8,183.9,251.6,183.2z"/>
		<path id="XMLID_327_" d="M262.6,183l1.1,0.1c-0.2,0.7-0.5,1.2-1,1.5c-0.5,0.4-1.1,0.5-1.8,0.5c-0.9,0-1.7-0.3-2.2-0.9
			c-0.5-0.6-0.8-1.4-0.8-2.4c0-1.1,0.3-1.9,0.8-2.5c0.6-0.6,1.3-0.9,2.2-0.9c0.9,0,1.6,0.3,2.1,0.9c0.5,0.6,0.8,1.4,0.8,2.5
			c0,0.1,0,0.2,0,0.3H259c0,0.7,0.2,1.2,0.6,1.6c0.4,0.4,0.8,0.6,1.3,0.6c0.4,0,0.7-0.1,1-0.3C262.2,183.8,262.4,183.5,262.6,183z
			 M259.1,181.3h3.6c0-0.5-0.2-0.9-0.4-1.2c-0.3-0.4-0.8-0.6-1.3-0.6c-0.5,0-0.9,0.2-1.3,0.5C259.3,180.3,259.1,180.7,259.1,181.3z"
			/>
	</g>
	<g id="XMLID_279_">
		<path id="XMLID_280_" d="M202,220.1l3.4-8.8h1.3l3.6,8.8h-1.3l-1-2.7h-3.7l-1,2.7H202z M204.5,216.5h3l-0.9-2.4
			c-0.3-0.7-0.5-1.4-0.6-1.8c-0.1,0.6-0.3,1.1-0.5,1.7L204.5,216.5z"/>
		<path id="XMLID_283_" d="M213.4,219.1l0.2,1c-0.3,0.1-0.6,0.1-0.8,0.1c-0.4,0-0.7-0.1-0.9-0.2s-0.4-0.3-0.5-0.5
			c-0.1-0.2-0.1-0.6-0.1-1.3v-3.7h-0.8v-0.8h0.8v-1.6l1.1-0.6v2.2h1.1v0.8h-1.1v3.7c0,0.3,0,0.5,0.1,0.6s0.1,0.2,0.2,0.2
			c0.1,0.1,0.2,0.1,0.4,0.1C213,219.2,213.2,219.1,213.4,219.1z"/>
		<path id="XMLID_285_" d="M214.4,220.1v-6.4h1v1c0.2-0.5,0.5-0.8,0.7-0.9s0.4-0.2,0.7-0.2c0.4,0,0.7,0.1,1.1,0.3l-0.4,1
			c-0.3-0.2-0.5-0.2-0.8-0.2c-0.2,0-0.4,0.1-0.6,0.2c-0.2,0.1-0.3,0.3-0.4,0.6c-0.1,0.4-0.2,0.8-0.2,1.3v3.3H214.4z"/>
		<path id="XMLID_287_" d="M218.5,212.5v-1.2h1.1v1.2H218.5z M218.5,220.1v-6.4h1.1v6.4H218.5z"/>
		<path id="XMLID_290_" d="M222.3,220.1h-1v-8.8h1.1v3.1c0.5-0.6,1-0.9,1.8-0.9c0.4,0,0.8,0.1,1.1,0.2c0.4,0.2,0.6,0.4,0.9,0.7
			c0.2,0.3,0.4,0.6,0.5,1c0.1,0.4,0.2,0.8,0.2,1.3c0,1.1-0.3,1.9-0.8,2.5s-1.2,0.9-1.9,0.9c-0.8,0-1.3-0.3-1.8-0.9V220.1z
			 M222.3,216.8c0,0.8,0.1,1.3,0.3,1.7c0.3,0.6,0.8,0.8,1.4,0.8c0.5,0,0.9-0.2,1.2-0.6s0.5-1,0.5-1.8c0-0.8-0.2-1.4-0.5-1.8
			c-0.3-0.4-0.7-0.6-1.2-0.6c-0.5,0-0.9,0.2-1.2,0.6S222.3,216.1,222.3,216.8z"/>
		<path id="XMLID_293_" d="M232.3,220.1v-0.9c-0.5,0.7-1.2,1.1-2,1.1c-0.4,0-0.7-0.1-1.1-0.2c-0.3-0.1-0.6-0.3-0.7-0.5
			c-0.2-0.2-0.3-0.5-0.3-0.8c0-0.2-0.1-0.5-0.1-1v-4h1.1v3.5c0,0.6,0,0.9,0.1,1.1c0.1,0.3,0.2,0.5,0.4,0.7c0.2,0.2,0.5,0.2,0.8,0.2
			c0.3,0,0.6-0.1,0.9-0.2c0.3-0.2,0.5-0.4,0.6-0.7c0.1-0.3,0.2-0.7,0.2-1.2v-3.4h1.1v6.4H232.3z"/>
		<path id="XMLID_295_" d="M237.3,219.1l0.2,1c-0.3,0.1-0.6,0.1-0.8,0.1c-0.4,0-0.7-0.1-0.9-0.2s-0.4-0.3-0.5-0.5
			c-0.1-0.2-0.1-0.6-0.1-1.3v-3.7h-0.8v-0.8h0.8v-1.6l1.1-0.6v2.2h1.1v0.8h-1.1v3.7c0,0.3,0,0.5,0.1,0.6s0.1,0.2,0.2,0.2
			c0.1,0.1,0.2,0.1,0.4,0.1C237,219.2,237.1,219.1,237.3,219.1z"/>
		<path id="XMLID_297_" d="M238,216.9c0-1.2,0.3-2.1,1-2.6c0.5-0.5,1.2-0.7,2-0.7c0.9,0,1.6,0.3,2.2,0.9s0.8,1.4,0.8,2.4
			c0,0.8-0.1,1.5-0.4,1.9c-0.2,0.5-0.6,0.8-1.1,1.1s-1,0.4-1.5,0.4c-0.9,0-1.6-0.3-2.2-0.9S238,218,238,216.9z M239.1,216.9
			c0,0.8,0.2,1.4,0.5,1.8c0.4,0.4,0.8,0.6,1.3,0.6c0.5,0,1-0.2,1.3-0.6s0.5-1,0.5-1.9c0-0.8-0.2-1.4-0.5-1.8
			c-0.4-0.4-0.8-0.6-1.3-0.6c-0.5,0-1,0.2-1.3,0.6C239.3,215.5,239.1,216.1,239.1,216.9z"/>
		<path id="XMLID_300_" d="M244.8,218.2l1.1-0.2c0.1,0.4,0.2,0.8,0.5,1c0.3,0.2,0.7,0.3,1.2,0.3c0.5,0,0.9-0.1,1.1-0.3
			c0.2-0.2,0.4-0.4,0.4-0.7c0-0.2-0.1-0.4-0.3-0.6c-0.1-0.1-0.5-0.2-1.1-0.4c-0.8-0.2-1.3-0.4-1.7-0.5s-0.5-0.3-0.7-0.6
			s-0.2-0.5-0.2-0.9c0-0.3,0.1-0.5,0.2-0.8s0.3-0.4,0.5-0.6c0.2-0.1,0.4-0.2,0.7-0.3c0.3-0.1,0.6-0.1,0.9-0.1c0.5,0,0.9,0.1,1.3,0.2
			s0.7,0.3,0.8,0.6c0.2,0.2,0.3,0.6,0.4,1l-1.1,0.1c0-0.3-0.2-0.6-0.4-0.8s-0.6-0.3-1-0.3c-0.5,0-0.9,0.1-1.1,0.2
			c-0.2,0.2-0.3,0.4-0.3,0.6c0,0.1,0,0.3,0.1,0.4c0.1,0.1,0.2,0.2,0.4,0.3c0.1,0,0.4,0.1,1,0.3c0.8,0.2,1.3,0.4,1.6,0.5
			c0.3,0.1,0.5,0.3,0.7,0.6c0.2,0.2,0.3,0.6,0.3,0.9c0,0.4-0.1,0.7-0.3,1c-0.2,0.3-0.5,0.6-0.9,0.7c-0.4,0.2-0.8,0.3-1.3,0.3
			c-0.8,0-1.5-0.2-1.9-0.5S244.9,218.9,244.8,218.2z"/>
	</g>
	<g id="XMLID_227_">
		<path id="XMLID_228_" d="M192,241.4c0-1.5,0.4-2.6,1.2-3.4c0.8-0.8,1.8-1.2,3-1.2c0.8,0,1.5,0.2,2.2,0.6c0.7,0.4,1.2,0.9,1.5,1.6
			s0.5,1.5,0.5,2.4c0,0.9-0.2,1.7-0.5,2.4c-0.4,0.7-0.9,1.2-1.5,1.6c-0.7,0.4-1.4,0.5-2.1,0.5c-0.8,0-1.6-0.2-2.2-0.6
			c-0.7-0.4-1.1-0.9-1.5-1.6C192.1,242.9,192,242.1,192,241.4z M193.2,241.4c0,1.1,0.3,1.9,0.9,2.5s1.3,0.9,2.1,0.9
			c0.9,0,1.6-0.3,2.2-0.9c0.6-0.6,0.9-1.5,0.9-2.6c0-0.7-0.1-1.3-0.4-1.9s-0.6-1-1.1-1.2c-0.5-0.3-1-0.4-1.6-0.4
			c-0.8,0-1.5,0.3-2.1,0.9S193.2,240.1,193.2,241.4z"/>
		<path id="XMLID_231_" d="M201.8,248.1v-8.8h1v0.8c0.2-0.3,0.5-0.6,0.8-0.7c0.3-0.2,0.6-0.2,1.1-0.2c0.5,0,1,0.1,1.4,0.4
			s0.7,0.7,0.9,1.2c0.2,0.5,0.3,1.1,0.3,1.7c0,0.7-0.1,1.2-0.4,1.8c-0.2,0.5-0.6,0.9-1,1.2c-0.4,0.3-0.9,0.4-1.4,0.4
			c-0.4,0-0.7-0.1-1-0.2s-0.5-0.3-0.7-0.6v3.1H201.8z M202.7,242.5c0,0.8,0.2,1.4,0.5,1.8c0.3,0.4,0.7,0.6,1.2,0.6
			c0.5,0,0.9-0.2,1.2-0.6c0.3-0.4,0.5-1,0.5-1.9c0-0.8-0.2-1.4-0.5-1.8c-0.3-0.4-0.7-0.6-1.2-0.6c-0.5,0-0.9,0.2-1.2,0.6
			C202.9,241.1,202.7,241.7,202.7,242.5z"/>
		<path id="XMLID_234_" d="M213,243.6l1.1,0.1c-0.2,0.7-0.5,1.2-1,1.5c-0.5,0.4-1.1,0.5-1.8,0.5c-0.9,0-1.7-0.3-2.2-0.9
			c-0.5-0.6-0.8-1.4-0.8-2.4c0-1.1,0.3-1.9,0.8-2.5c0.6-0.6,1.3-0.9,2.2-0.9c0.9,0,1.6,0.3,2.1,0.9c0.5,0.6,0.8,1.4,0.8,2.5
			c0,0.1,0,0.2,0,0.3h-4.8c0,0.7,0.2,1.2,0.6,1.6c0.4,0.4,0.8,0.6,1.3,0.6c0.4,0,0.7-0.1,1-0.3C212.6,244.4,212.8,244.1,213,243.6z
			 M209.4,241.9h3.6c0-0.5-0.2-0.9-0.4-1.2c-0.3-0.4-0.8-0.6-1.3-0.6c-0.5,0-0.9,0.2-1.3,0.5C209.7,240.9,209.5,241.3,209.4,241.9z"
			/>
		<path id="XMLID_237_" d="M215.5,245.7v-6.4h1v1c0.2-0.5,0.5-0.8,0.7-0.9s0.4-0.2,0.7-0.2c0.4,0,0.7,0.1,1.1,0.3l-0.4,1
			c-0.3-0.2-0.5-0.2-0.8-0.2c-0.2,0-0.4,0.1-0.6,0.2s-0.3,0.3-0.4,0.6c-0.1,0.4-0.2,0.8-0.2,1.3v3.3H215.5z"/>
		<path id="XMLID_239_" d="M223.7,244.9c-0.4,0.3-0.8,0.6-1.2,0.7c-0.4,0.1-0.8,0.2-1.2,0.2c-0.7,0-1.2-0.2-1.6-0.5
			s-0.6-0.8-0.6-1.3c0-0.3,0.1-0.6,0.2-0.9c0.1-0.3,0.3-0.5,0.6-0.6s0.5-0.3,0.8-0.4c0.2-0.1,0.5-0.1,1-0.2c0.9-0.1,1.5-0.2,1.9-0.4
			c0-0.1,0-0.2,0-0.3c0-0.4-0.1-0.8-0.3-0.9c-0.3-0.2-0.7-0.4-1.2-0.4c-0.5,0-0.9,0.1-1.1,0.3c-0.2,0.2-0.4,0.5-0.5,0.9l-1.1-0.1
			c0.1-0.5,0.3-0.8,0.5-1.1c0.2-0.3,0.5-0.5,1-0.6s0.9-0.2,1.4-0.2c0.5,0,1,0.1,1.3,0.2c0.3,0.1,0.6,0.3,0.8,0.5s0.3,0.4,0.3,0.7
			c0,0.2,0.1,0.5,0.1,1v1.4c0,1,0,1.6,0.1,1.9c0,0.3,0.1,0.5,0.3,0.8H224C223.8,245.4,223.8,245.2,223.7,244.9z M223.6,242.5
			c-0.4,0.2-1,0.3-1.8,0.4c-0.4,0.1-0.8,0.1-0.9,0.2s-0.3,0.2-0.4,0.4c-0.1,0.2-0.2,0.3-0.2,0.5c0,0.3,0.1,0.5,0.3,0.7
			c0.2,0.2,0.5,0.3,1,0.3c0.4,0,0.8-0.1,1.1-0.3c0.3-0.2,0.6-0.4,0.7-0.7c0.1-0.2,0.2-0.6,0.2-1.1V242.5z"/>
		<path id="XMLID_242_" d="M230.6,243.3l1.1,0.1c-0.1,0.7-0.4,1.3-0.9,1.7c-0.5,0.4-1.1,0.6-1.8,0.6c-0.9,0-1.6-0.3-2.1-0.9
			s-0.8-1.4-0.8-2.5c0-0.7,0.1-1.3,0.3-1.8c0.2-0.5,0.6-0.9,1-1.2c0.5-0.3,1-0.4,1.5-0.4c0.7,0,1.3,0.2,1.7,0.5s0.7,0.8,0.8,1.5
			l-1.1,0.2c-0.1-0.4-0.3-0.8-0.5-1c-0.3-0.2-0.6-0.3-0.9-0.3c-0.5,0-1,0.2-1.3,0.6s-0.5,1-0.5,1.9c0,0.9,0.2,1.5,0.5,1.9
			c0.3,0.4,0.8,0.6,1.3,0.6c0.4,0,0.8-0.1,1.1-0.4C230.3,244.3,230.5,243.9,230.6,243.3z"/>
		<path id="XMLID_244_" d="M232.6,238.1v-1.2h1.1v1.2H232.6z M232.6,245.7v-6.4h1.1v6.4H232.6z"/>
		<path id="XMLID_247_" d="M234.9,242.5c0-1.2,0.3-2.1,1-2.6c0.5-0.5,1.2-0.7,2-0.7c0.9,0,1.6,0.3,2.2,0.9c0.6,0.6,0.8,1.4,0.8,2.4
			c0,0.8-0.1,1.5-0.4,1.9s-0.6,0.8-1.1,1.1c-0.5,0.3-1,0.4-1.5,0.4c-0.9,0-1.6-0.3-2.2-0.9C235.2,244.4,234.9,243.5,234.9,242.5z
			 M236,242.5c0,0.8,0.2,1.4,0.5,1.8c0.4,0.4,0.8,0.6,1.3,0.6c0.5,0,1-0.2,1.3-0.6c0.4-0.4,0.5-1,0.5-1.9c0-0.8-0.2-1.4-0.5-1.8
			c-0.4-0.4-0.8-0.6-1.3-0.6c-0.5,0-1,0.2-1.3,0.6C236.2,241,236,241.7,236,242.5z"/>
		<path id="XMLID_250_" d="M242.2,245.7v-6.4h1v0.9c0.5-0.7,1.1-1.1,2-1.1c0.4,0,0.7,0.1,1.1,0.2c0.3,0.1,0.6,0.3,0.7,0.5
			s0.3,0.5,0.3,0.8c0,0.2,0.1,0.6,0.1,1.1v3.9h-1.1v-3.9c0-0.4,0-0.8-0.1-1c-0.1-0.2-0.2-0.4-0.4-0.5c-0.2-0.1-0.5-0.2-0.8-0.2
			c-0.5,0-0.9,0.1-1.2,0.4c-0.3,0.3-0.5,0.8-0.5,1.7v3.5H242.2z"/>
		<path id="XMLID_252_" d="M253.4,243.6l1.1,0.1c-0.2,0.7-0.5,1.2-1,1.5c-0.5,0.4-1.1,0.5-1.8,0.5c-0.9,0-1.7-0.3-2.2-0.9
			c-0.5-0.6-0.8-1.4-0.8-2.4c0-1.1,0.3-1.9,0.8-2.5c0.6-0.6,1.3-0.9,2.2-0.9c0.9,0,1.6,0.3,2.1,0.9s0.8,1.4,0.8,2.5
			c0,0.1,0,0.2,0,0.3h-4.8c0,0.7,0.2,1.2,0.6,1.6c0.4,0.4,0.8,0.6,1.3,0.6c0.4,0,0.7-0.1,1-0.3C253,244.4,253.2,244.1,253.4,243.6z
			 M249.8,241.9h3.6c0-0.5-0.2-0.9-0.4-1.2c-0.3-0.4-0.8-0.6-1.3-0.6c-0.5,0-0.9,0.2-1.3,0.5C250.1,240.9,249.9,241.3,249.8,241.9z"
			/>
		<path id="XMLID_255_" d="M255.4,243.8l1.1-0.2c0.1,0.4,0.2,0.8,0.5,1c0.3,0.2,0.7,0.3,1.2,0.3c0.5,0,0.9-0.1,1.1-0.3
			c0.2-0.2,0.4-0.4,0.4-0.7c0-0.2-0.1-0.4-0.3-0.6c-0.1-0.1-0.5-0.2-1.1-0.4c-0.8-0.2-1.3-0.4-1.7-0.5s-0.5-0.3-0.7-0.6
			s-0.2-0.5-0.2-0.9c0-0.3,0.1-0.5,0.2-0.8c0.1-0.2,0.3-0.4,0.5-0.6c0.2-0.1,0.4-0.2,0.7-0.3c0.3-0.1,0.6-0.1,0.9-0.1
			c0.5,0,0.9,0.1,1.3,0.2s0.7,0.3,0.8,0.6c0.2,0.2,0.3,0.6,0.4,1l-1.1,0.1c0-0.3-0.2-0.6-0.4-0.8s-0.6-0.3-1-0.3
			c-0.5,0-0.9,0.1-1.1,0.2s-0.3,0.4-0.3,0.6c0,0.1,0,0.3,0.1,0.4c0.1,0.1,0.2,0.2,0.4,0.3c0.1,0,0.4,0.1,1,0.3
			c0.8,0.2,1.3,0.4,1.6,0.5s0.5,0.3,0.7,0.6c0.2,0.2,0.3,0.6,0.3,0.9c0,0.4-0.1,0.7-0.3,1c-0.2,0.3-0.5,0.6-0.9,0.7
			c-0.4,0.2-0.8,0.3-1.3,0.3c-0.8,0-1.5-0.2-1.9-0.5C255.8,244.9,255.5,244.4,255.4,243.8z"/>
		<path id="XMLID_257_" d="M197.9,257.2c0-1.2,0.3-2.1,1-2.6c0.5-0.5,1.2-0.7,2-0.7c0.9,0,1.6,0.3,2.2,0.9s0.8,1.4,0.8,2.4
			c0,0.8-0.1,1.5-0.4,1.9s-0.6,0.8-1.1,1.1s-1,0.4-1.5,0.4c-0.9,0-1.6-0.3-2.2-0.9C198.2,259.2,197.9,258.3,197.9,257.2z
			 M199.1,257.2c0,0.8,0.2,1.4,0.5,1.8c0.4,0.4,0.8,0.6,1.3,0.6c0.5,0,1-0.2,1.3-0.6c0.4-0.4,0.5-1,0.5-1.9c0-0.8-0.2-1.4-0.5-1.8
			c-0.4-0.4-0.8-0.6-1.3-0.6c-0.5,0-1,0.2-1.3,0.6C199.2,255.8,199.1,256.4,199.1,257.2z"/>
		<path id="XMLID_260_" d="M208.6,260.4v-6.4h1v0.9c0.2-0.3,0.5-0.6,0.8-0.8c0.3-0.2,0.7-0.3,1.1-0.3c0.5,0,0.9,0.1,1.2,0.3
			s0.5,0.5,0.6,0.8c0.5-0.7,1.2-1.1,2-1.1c0.6,0,1.1,0.2,1.5,0.5s0.5,0.9,0.5,1.6v4.4h-1.1v-4c0-0.4,0-0.7-0.1-0.9
			c-0.1-0.2-0.2-0.3-0.4-0.5c-0.2-0.1-0.4-0.2-0.6-0.2c-0.4,0-0.8,0.1-1.1,0.4c-0.3,0.3-0.4,0.8-0.4,1.4v3.7h-1.1v-4.1
			c0-0.5-0.1-0.8-0.3-1.1c-0.2-0.2-0.5-0.4-0.9-0.4c-0.3,0-0.6,0.1-0.8,0.2c-0.3,0.2-0.4,0.4-0.6,0.7c-0.1,0.3-0.2,0.8-0.2,1.3v3.3
			H208.6z"/>
		<path id="XMLID_262_" d="M223.3,258.4l1.1,0.1c-0.2,0.7-0.5,1.2-1,1.5c-0.5,0.4-1.1,0.5-1.8,0.5c-0.9,0-1.7-0.3-2.2-0.9
			c-0.5-0.6-0.8-1.4-0.8-2.4c0-1.1,0.3-1.9,0.8-2.5c0.6-0.6,1.3-0.9,2.2-0.9c0.9,0,1.6,0.3,2.1,0.9c0.5,0.6,0.8,1.4,0.8,2.5
			c0,0.1,0,0.2,0,0.3h-4.8c0,0.7,0.2,1.2,0.6,1.6c0.4,0.4,0.8,0.6,1.3,0.6c0.4,0,0.7-0.1,1-0.3C222.9,259.2,223.1,258.8,223.3,258.4
			z M219.7,256.6h3.6c0-0.5-0.2-0.9-0.4-1.2c-0.3-0.4-0.8-0.6-1.3-0.6c-0.5,0-0.9,0.2-1.3,0.5C219.9,255.6,219.7,256.1,219.7,256.6z
			 M220.9,253.3l0.8-1.7h1.4l-1.3,1.7H220.9z"/>
		<path id="XMLID_266_" d="M228.1,259.5l0.2,1c-0.3,0.1-0.6,0.1-0.8,0.1c-0.4,0-0.7-0.1-0.9-0.2c-0.2-0.1-0.4-0.3-0.5-0.5
			c-0.1-0.2-0.1-0.6-0.1-1.3v-3.7h-0.8v-0.8h0.8v-1.6l1.1-0.6v2.2h1.1v0.8H227v3.7c0,0.3,0,0.5,0.1,0.6c0,0.1,0.1,0.2,0.2,0.2
			c0.1,0.1,0.2,0.1,0.4,0.1C227.7,259.5,227.9,259.5,228.1,259.5z"/>
		<path id="XMLID_268_" d="M228.7,257.2c0-1.2,0.3-2.1,1-2.6c0.5-0.5,1.2-0.7,2-0.7c0.9,0,1.6,0.3,2.2,0.9s0.8,1.4,0.8,2.4
			c0,0.8-0.1,1.5-0.4,1.9c-0.2,0.5-0.6,0.8-1.1,1.1s-1,0.4-1.5,0.4c-0.9,0-1.6-0.3-2.2-0.9C229,259.2,228.7,258.3,228.7,257.2z
			 M229.9,257.2c0,0.8,0.2,1.4,0.5,1.8c0.4,0.4,0.8,0.6,1.3,0.6c0.5,0,1-0.2,1.3-0.6c0.4-0.4,0.5-1,0.5-1.9c0-0.8-0.2-1.4-0.5-1.8
			c-0.4-0.4-0.8-0.6-1.3-0.6c-0.5,0-1,0.2-1.3,0.6C230,255.8,229.9,256.4,229.9,257.2z"/>
		<path id="XMLID_271_" d="M240.1,260.4v-0.8c-0.4,0.6-1,1-1.8,1c-0.5,0-1-0.1-1.4-0.4c-0.4-0.3-0.8-0.7-1-1.2s-0.4-1.1-0.4-1.7
			c0-0.6,0.1-1.2,0.3-1.7c0.2-0.5,0.5-0.9,1-1.2c0.4-0.3,0.9-0.4,1.4-0.4c0.4,0,0.7,0.1,1,0.2c0.3,0.2,0.5,0.4,0.7,0.6v-3.2h1.1v8.8
			H240.1z M236.7,257.3c0,0.8,0.2,1.4,0.5,1.8c0.3,0.4,0.8,0.6,1.2,0.6c0.5,0,0.9-0.2,1.2-0.6c0.3-0.4,0.5-1,0.5-1.8
			c0-0.9-0.2-1.5-0.5-1.9c-0.3-0.4-0.8-0.6-1.2-0.6c-0.5,0-0.9,0.2-1.2,0.6S236.7,256.4,236.7,257.3z"/>
		<path id="XMLID_274_" d="M242.4,257.2c0-1.2,0.3-2.1,1-2.6c0.5-0.5,1.2-0.7,2-0.7c0.9,0,1.6,0.3,2.2,0.9s0.8,1.4,0.8,2.4
			c0,0.8-0.1,1.5-0.4,1.9c-0.2,0.5-0.6,0.8-1.1,1.1s-1,0.4-1.5,0.4c-0.9,0-1.6-0.3-2.2-0.9C242.7,259.2,242.4,258.3,242.4,257.2z
			 M243.6,257.2c0,0.8,0.2,1.4,0.5,1.8c0.4,0.4,0.8,0.6,1.3,0.6c0.5,0,1-0.2,1.3-0.6c0.4-0.4,0.5-1,0.5-1.9c0-0.8-0.2-1.4-0.5-1.8
			c-0.4-0.4-0.8-0.6-1.3-0.6c-0.5,0-1,0.2-1.3,0.6C243.7,255.8,243.6,256.4,243.6,257.2z"/>
		<path id="XMLID_277_" d="M249.3,258.5l1.1-0.2c0.1,0.4,0.2,0.8,0.5,1c0.3,0.2,0.7,0.3,1.2,0.3c0.5,0,0.9-0.1,1.1-0.3
			s0.4-0.4,0.4-0.7c0-0.2-0.1-0.4-0.3-0.6c-0.1-0.1-0.5-0.2-1.1-0.4c-0.8-0.2-1.3-0.4-1.7-0.5s-0.5-0.3-0.7-0.6s-0.2-0.5-0.2-0.9
			c0-0.3,0.1-0.5,0.2-0.8c0.1-0.2,0.3-0.4,0.5-0.6c0.2-0.1,0.4-0.2,0.7-0.3c0.3-0.1,0.6-0.1,0.9-0.1c0.5,0,0.9,0.1,1.3,0.2
			s0.7,0.3,0.8,0.6c0.2,0.2,0.3,0.6,0.4,1l-1.1,0.1c0-0.3-0.2-0.6-0.4-0.8s-0.6-0.3-1-0.3c-0.5,0-0.9,0.1-1.1,0.2
			c-0.2,0.2-0.3,0.4-0.3,0.6c0,0.1,0,0.3,0.1,0.4c0.1,0.1,0.2,0.2,0.4,0.3c0.1,0,0.4,0.1,1,0.3c0.8,0.2,1.3,0.4,1.6,0.5
			s0.5,0.3,0.7,0.6c0.2,0.2,0.3,0.6,0.3,0.9c0,0.4-0.1,0.7-0.3,1c-0.2,0.3-0.5,0.6-0.9,0.7c-0.4,0.2-0.8,0.3-1.3,0.3
			c-0.8,0-1.5-0.2-1.9-0.5C249.7,259.7,249.4,259.2,249.3,258.5z"/>
	</g>
	<g id="XMLID_12044_">
		<g id="XMLID_12047_">
			<rect id="XMLID_491_" x="318.3" y="163.1" class="st2" width="136.2" height="102.6"/>
			<path id="XMLID_488_" class="st5" d="M453,164.6v99.6H319.8v-99.6H453 M456,161.6H316.8v105.6H456V161.6L456,161.6z"/>
		</g>
		<line id="XMLID_12046_" class="st6" x1="316.8" y1="197" x2="456" y2="197"/>
		<line id="XMLID_12045_" class="st6" x1="316.8" y1="232.1" x2="456" y2="232.1"/>
	</g>
	<g id="XMLID_199_">
		<path id="XMLID_200_" d="M347.6,185.1v-8.8h1.2l4.6,6.9v-6.9h1.1v8.8h-1.2l-4.6-6.9v6.9H347.6z"/>
		<path id="XMLID_202_" d="M356,181.9c0-1.2,0.3-2.1,1-2.6c0.5-0.5,1.2-0.7,2-0.7c0.9,0,1.6,0.3,2.2,0.9s0.8,1.4,0.8,2.4
			c0,0.8-0.1,1.5-0.4,1.9c-0.2,0.5-0.6,0.8-1.1,1.1s-1,0.4-1.5,0.4c-0.9,0-1.6-0.3-2.2-0.9S356,183,356,181.9z M357.1,181.9
			c0,0.8,0.2,1.4,0.5,1.8c0.4,0.4,0.8,0.6,1.3,0.6c0.5,0,1-0.2,1.3-0.6c0.4-0.4,0.5-1,0.5-1.9c0-0.8-0.2-1.4-0.5-1.8
			s-0.8-0.6-1.3-0.6c-0.5,0-1,0.2-1.3,0.6C357.3,180.5,357.1,181.1,357.1,181.9z"/>
		<path id="XMLID_205_" d="M363.3,185.1v-6.4h1v0.9c0.2-0.3,0.5-0.6,0.8-0.8c0.3-0.2,0.7-0.3,1.1-0.3c0.5,0,0.9,0.1,1.2,0.3
			s0.5,0.5,0.6,0.8c0.5-0.7,1.2-1.1,2-1.1c0.6,0,1.1,0.2,1.5,0.5c0.3,0.4,0.5,0.9,0.5,1.6v4.4h-1.1v-4c0-0.4,0-0.7-0.1-0.9
			c-0.1-0.2-0.2-0.3-0.4-0.5c-0.2-0.1-0.4-0.2-0.6-0.2c-0.4,0-0.8,0.1-1.1,0.4s-0.4,0.8-0.4,1.4v3.7h-1.1v-4.1
			c0-0.5-0.1-0.8-0.3-1.1c-0.2-0.2-0.5-0.4-0.9-0.4c-0.3,0-0.6,0.1-0.8,0.2c-0.3,0.2-0.4,0.4-0.6,0.7s-0.2,0.8-0.2,1.3v3.3H363.3z"
			/>
		<path id="XMLID_207_" d="M374.5,185.1h-1v-8.8h1.1v3.1c0.5-0.6,1-0.9,1.8-0.9c0.4,0,0.8,0.1,1.1,0.2c0.4,0.2,0.6,0.4,0.9,0.7
			c0.2,0.3,0.4,0.6,0.5,1c0.1,0.4,0.2,0.8,0.2,1.3c0,1.1-0.3,1.9-0.8,2.5s-1.2,0.9-1.9,0.9c-0.8,0-1.3-0.3-1.8-0.9V185.1z
			 M374.5,181.9c0,0.8,0.1,1.3,0.3,1.7c0.3,0.6,0.8,0.8,1.4,0.8c0.5,0,0.9-0.2,1.2-0.6c0.3-0.4,0.5-1,0.5-1.8c0-0.8-0.2-1.4-0.5-1.8
			c-0.3-0.4-0.7-0.6-1.2-0.6c-0.5,0-0.9,0.2-1.2,0.6C374.7,180.5,374.5,181.1,374.5,181.9z"/>
		<path id="XMLID_210_" d="M380.4,185.1v-6.4h1v1c0.2-0.5,0.5-0.8,0.7-0.9s0.4-0.2,0.7-0.2c0.4,0,0.7,0.1,1.1,0.3l-0.4,1
			c-0.3-0.2-0.5-0.2-0.8-0.2c-0.2,0-0.4,0.1-0.6,0.2c-0.2,0.1-0.3,0.3-0.4,0.6c-0.1,0.4-0.2,0.8-0.2,1.3v3.3H380.4z"/>
		<path id="XMLID_212_" d="M388.8,183l1.1,0.1c-0.2,0.7-0.5,1.2-1,1.5c-0.5,0.4-1.1,0.5-1.8,0.5c-0.9,0-1.7-0.3-2.2-0.9
			c-0.5-0.6-0.8-1.4-0.8-2.4c0-1.1,0.3-1.9,0.8-2.5c0.6-0.6,1.3-0.9,2.2-0.9c0.9,0,1.6,0.3,2.1,0.9c0.5,0.6,0.8,1.4,0.8,2.5
			c0,0.1,0,0.2,0,0.3h-4.8c0,0.7,0.2,1.2,0.6,1.6c0.4,0.4,0.8,0.6,1.3,0.6c0.4,0,0.7-0.1,1-0.3C388.5,183.8,388.7,183.5,388.8,183z
			 M385.3,181.3h3.6c0-0.5-0.2-0.9-0.4-1.2c-0.3-0.4-0.8-0.6-1.3-0.6c-0.5,0-0.9,0.2-1.3,0.5C385.5,180.3,385.3,180.7,385.3,181.3z"
			/>
		<path id="XMLID_215_" d="M398.9,182.8l1.1,0.1c-0.1,0.7-0.4,1.3-0.9,1.7c-0.5,0.4-1.1,0.6-1.8,0.6c-0.9,0-1.6-0.3-2.1-0.9
			s-0.8-1.4-0.8-2.5c0-0.7,0.1-1.3,0.3-1.8c0.2-0.5,0.6-0.9,1-1.2s1-0.4,1.5-0.4c0.7,0,1.3,0.2,1.7,0.5c0.4,0.4,0.7,0.8,0.8,1.5
			l-1.1,0.2c-0.1-0.4-0.3-0.8-0.5-1c-0.3-0.2-0.6-0.3-0.9-0.3c-0.5,0-1,0.2-1.3,0.6c-0.3,0.4-0.5,1-0.5,1.9c0,0.9,0.2,1.5,0.5,1.9
			s0.8,0.6,1.3,0.6c0.4,0,0.8-0.1,1.1-0.4S398.8,183.3,398.9,182.8z"/>
		<path id="XMLID_217_" d="M400.9,185.1v-8.8h1.1v8.8H400.9z"/>
		<path id="XMLID_219_" d="M407.8,184.3c-0.4,0.3-0.8,0.6-1.2,0.7c-0.4,0.1-0.8,0.2-1.2,0.2c-0.7,0-1.2-0.2-1.6-0.5
			s-0.6-0.8-0.6-1.3c0-0.3,0.1-0.6,0.2-0.9s0.3-0.5,0.6-0.6s0.5-0.3,0.8-0.4c0.2-0.1,0.5-0.1,1-0.2c0.9-0.1,1.5-0.2,1.9-0.4
			c0-0.1,0-0.2,0-0.3c0-0.4-0.1-0.8-0.3-0.9c-0.3-0.2-0.7-0.4-1.2-0.4c-0.5,0-0.9,0.1-1.1,0.3c-0.2,0.2-0.4,0.5-0.5,0.9l-1.1-0.1
			c0.1-0.5,0.3-0.8,0.5-1.1c0.2-0.3,0.5-0.5,1-0.6c0.4-0.1,0.9-0.2,1.4-0.2c0.5,0,1,0.1,1.3,0.2c0.3,0.1,0.6,0.3,0.8,0.5
			s0.3,0.4,0.3,0.7c0,0.2,0.1,0.5,0.1,1v1.4c0,1,0,1.6,0.1,1.9s0.1,0.5,0.3,0.8H408C407.9,184.9,407.8,184.6,407.8,184.3z
			 M407.7,181.9c-0.4,0.2-1,0.3-1.8,0.4c-0.4,0.1-0.8,0.1-0.9,0.2c-0.2,0.1-0.3,0.2-0.4,0.4c-0.1,0.2-0.2,0.3-0.2,0.5
			c0,0.3,0.1,0.5,0.3,0.7c0.2,0.2,0.5,0.3,1,0.3c0.4,0,0.8-0.1,1.1-0.3c0.3-0.2,0.6-0.4,0.7-0.7c0.1-0.2,0.2-0.6,0.2-1.1V181.9z"/>
		<path id="XMLID_222_" d="M410.1,183.2l1.1-0.2c0.1,0.4,0.2,0.8,0.5,1s0.7,0.3,1.2,0.3c0.5,0,0.9-0.1,1.1-0.3
			c0.2-0.2,0.4-0.4,0.4-0.7c0-0.2-0.1-0.4-0.3-0.6c-0.1-0.1-0.5-0.2-1.1-0.4c-0.8-0.2-1.3-0.4-1.7-0.5s-0.5-0.3-0.7-0.6
			c-0.2-0.3-0.2-0.5-0.2-0.9c0-0.3,0.1-0.5,0.2-0.8c0.1-0.2,0.3-0.4,0.5-0.6c0.2-0.1,0.4-0.2,0.7-0.3s0.6-0.1,0.9-0.1
			c0.5,0,0.9,0.1,1.3,0.2s0.7,0.3,0.8,0.6c0.2,0.2,0.3,0.6,0.4,1l-1.1,0.1c0-0.3-0.2-0.6-0.4-0.8s-0.6-0.3-1-0.3
			c-0.5,0-0.9,0.1-1.1,0.2c-0.2,0.2-0.3,0.4-0.3,0.6c0,0.1,0,0.3,0.1,0.4c0.1,0.1,0.2,0.2,0.4,0.3c0.1,0,0.4,0.1,1,0.3
			c0.8,0.2,1.3,0.4,1.6,0.5c0.3,0.1,0.5,0.3,0.7,0.6c0.2,0.2,0.3,0.6,0.3,0.9c0,0.4-0.1,0.7-0.3,1c-0.2,0.3-0.5,0.6-0.9,0.7
			c-0.4,0.2-0.8,0.3-1.3,0.3c-0.8,0-1.5-0.2-1.9-0.5C410.5,184.4,410.2,183.9,410.1,183.2z"/>
		<path id="XMLID_224_" d="M421,183l1.1,0.1c-0.2,0.7-0.5,1.2-1,1.5c-0.5,0.4-1.1,0.5-1.8,0.5c-0.9,0-1.7-0.3-2.2-0.9
			c-0.5-0.6-0.8-1.4-0.8-2.4c0-1.1,0.3-1.9,0.8-2.5c0.6-0.6,1.3-0.9,2.2-0.9c0.9,0,1.6,0.3,2.1,0.9c0.5,0.6,0.8,1.4,0.8,2.5
			c0,0.1,0,0.2,0,0.3h-4.8c0,0.7,0.2,1.2,0.6,1.6c0.4,0.4,0.8,0.6,1.3,0.6c0.4,0,0.7-0.1,1-0.3C420.6,183.8,420.9,183.5,421,183z
			 M417.5,181.3h3.6c0-0.5-0.2-0.9-0.4-1.2c-0.3-0.4-0.8-0.6-1.3-0.6c-0.5,0-0.9,0.2-1.3,0.5S417.5,180.7,417.5,181.3z"/>
	</g>
	<g id="XMLID_176_">
		<path id="XMLID_177_" d="M360.4,220.1l3.4-8.8h1.3l3.6,8.8h-1.3l-1-2.7h-3.7l-1,2.7H360.4z M362.9,216.5h3L365,214
			c-0.3-0.7-0.5-1.4-0.6-1.8c-0.1,0.6-0.3,1.1-0.5,1.7L362.9,216.5z"/>
		<path id="XMLID_180_" d="M371.8,219.1l0.2,1c-0.3,0.1-0.6,0.1-0.8,0.1c-0.4,0-0.7-0.1-0.9-0.2c-0.2-0.1-0.4-0.3-0.5-0.5
			c-0.1-0.2-0.1-0.6-0.1-1.3v-3.7h-0.8v-0.8h0.8v-1.6l1.1-0.6v2.2h1.1v0.8h-1.1v3.7c0,0.3,0,0.5,0.1,0.6c0,0.1,0.1,0.2,0.2,0.2
			c0.1,0.1,0.2,0.1,0.4,0.1C371.4,219.2,371.6,219.1,371.8,219.1z"/>
		<path id="XMLID_182_" d="M372.8,220.1v-6.4h1v1c0.2-0.5,0.5-0.8,0.7-0.9c0.2-0.1,0.4-0.2,0.7-0.2c0.4,0,0.7,0.1,1.1,0.3l-0.4,1
			c-0.3-0.2-0.5-0.2-0.8-0.2c-0.2,0-0.4,0.1-0.6,0.2c-0.2,0.1-0.3,0.3-0.4,0.6c-0.1,0.4-0.2,0.8-0.2,1.3v3.3H372.8z"/>
		<path id="XMLID_184_" d="M376.9,212.5v-1.2h1.1v1.2H376.9z M376.9,220.1v-6.4h1.1v6.4H376.9z"/>
		<path id="XMLID_187_" d="M380.7,220.1h-1v-8.8h1.1v3.1c0.5-0.6,1-0.9,1.8-0.9c0.4,0,0.8,0.1,1.1,0.2c0.4,0.2,0.6,0.4,0.9,0.7
			c0.2,0.3,0.4,0.6,0.5,1c0.1,0.4,0.2,0.8,0.2,1.3c0,1.1-0.3,1.9-0.8,2.5s-1.2,0.9-1.9,0.9c-0.8,0-1.3-0.3-1.8-0.9V220.1z
			 M380.7,216.8c0,0.8,0.1,1.3,0.3,1.7c0.3,0.6,0.8,0.8,1.4,0.8c0.5,0,0.9-0.2,1.2-0.6c0.3-0.4,0.5-1,0.5-1.8c0-0.8-0.2-1.4-0.5-1.8
			c-0.3-0.4-0.7-0.6-1.2-0.6c-0.5,0-0.9,0.2-1.2,0.6C380.8,215.5,380.7,216.1,380.7,216.8z"/>
		<path id="XMLID_190_" d="M390.7,220.1v-0.9c-0.5,0.7-1.2,1.1-2,1.1c-0.4,0-0.7-0.1-1.1-0.2c-0.3-0.1-0.6-0.3-0.7-0.5
			c-0.2-0.2-0.3-0.5-0.3-0.8c0-0.2-0.1-0.5-0.1-1v-4h1.1v3.5c0,0.6,0,0.9,0.1,1.1c0.1,0.3,0.2,0.5,0.4,0.7c0.2,0.2,0.5,0.2,0.8,0.2
			s0.6-0.1,0.9-0.2c0.3-0.2,0.5-0.4,0.6-0.7c0.1-0.3,0.2-0.7,0.2-1.2v-3.4h1.1v6.4H390.7z"/>
		<path id="XMLID_192_" d="M395.7,219.1l0.2,1c-0.3,0.1-0.6,0.1-0.8,0.1c-0.4,0-0.7-0.1-0.9-0.2s-0.4-0.3-0.5-0.5
			c-0.1-0.2-0.1-0.6-0.1-1.3v-3.7h-0.8v-0.8h0.8v-1.6l1.1-0.6v2.2h1.1v0.8h-1.1v3.7c0,0.3,0,0.5,0.1,0.6s0.1,0.2,0.2,0.2
			c0.1,0.1,0.2,0.1,0.4,0.1C395.4,219.2,395.5,219.1,395.7,219.1z"/>
		<path id="XMLID_194_" d="M396.4,216.9c0-1.2,0.3-2.1,1-2.6c0.5-0.5,1.2-0.7,2-0.7c0.9,0,1.6,0.3,2.2,0.9c0.6,0.6,0.8,1.4,0.8,2.4
			c0,0.8-0.1,1.5-0.4,1.9c-0.2,0.5-0.6,0.8-1.1,1.1c-0.5,0.3-1,0.4-1.5,0.4c-0.9,0-1.6-0.3-2.2-0.9
			C396.7,218.8,396.4,218,396.4,216.9z M397.5,216.9c0,0.8,0.2,1.4,0.5,1.8c0.4,0.4,0.8,0.6,1.3,0.6c0.5,0,1-0.2,1.3-0.6
			c0.4-0.4,0.5-1,0.5-1.9c0-0.8-0.2-1.4-0.5-1.8c-0.4-0.4-0.8-0.6-1.3-0.6c-0.5,0-1,0.2-1.3,0.6
			C397.7,215.5,397.5,216.1,397.5,216.9z"/>
		<path id="XMLID_197_" d="M403.2,218.2l1.1-0.2c0.1,0.4,0.2,0.8,0.5,1c0.3,0.2,0.7,0.3,1.2,0.3c0.5,0,0.9-0.1,1.1-0.3
			c0.2-0.2,0.4-0.4,0.4-0.7c0-0.2-0.1-0.4-0.3-0.6c-0.1-0.1-0.5-0.2-1.1-0.4c-0.8-0.2-1.3-0.4-1.7-0.5s-0.5-0.3-0.7-0.6
			c-0.2-0.3-0.2-0.5-0.2-0.9c0-0.3,0.1-0.5,0.2-0.8c0.1-0.2,0.3-0.4,0.5-0.6c0.2-0.1,0.4-0.2,0.7-0.3s0.6-0.1,0.9-0.1
			c0.5,0,0.9,0.1,1.3,0.2s0.7,0.3,0.8,0.6c0.2,0.2,0.3,0.6,0.4,1l-1.1,0.1c0-0.3-0.2-0.6-0.4-0.8s-0.6-0.3-1-0.3
			c-0.5,0-0.9,0.1-1.1,0.2c-0.2,0.2-0.3,0.4-0.3,0.6c0,0.1,0,0.3,0.1,0.4c0.1,0.1,0.2,0.2,0.4,0.3c0.1,0,0.4,0.1,1,0.3
			c0.8,0.2,1.3,0.4,1.6,0.5c0.3,0.1,0.5,0.3,0.7,0.6c0.2,0.2,0.3,0.6,0.3,0.9c0,0.4-0.1,0.7-0.3,1c-0.2,0.3-0.5,0.6-0.9,0.7
			c-0.4,0.2-0.8,0.3-1.3,0.3c-0.8,0-1.5-0.2-1.9-0.5C403.6,219.4,403.3,218.9,403.2,218.2z"/>
	</g>
	<g id="XMLID_124_">
		<path id="XMLID_125_" d="M350.4,241.4c0-1.5,0.4-2.6,1.2-3.4c0.8-0.8,1.8-1.2,3-1.2c0.8,0,1.5,0.2,2.2,0.6
			c0.7,0.4,1.2,0.9,1.5,1.6s0.5,1.5,0.5,2.4c0,0.9-0.2,1.7-0.5,2.4c-0.4,0.7-0.9,1.2-1.5,1.6c-0.7,0.4-1.4,0.5-2.1,0.5
			c-0.8,0-1.6-0.2-2.2-0.6c-0.7-0.4-1.1-0.9-1.5-1.6C350.5,242.9,350.4,242.1,350.4,241.4z M351.6,241.4c0,1.1,0.3,1.9,0.9,2.5
			c0.6,0.6,1.3,0.9,2.1,0.9c0.9,0,1.6-0.3,2.2-0.9s0.9-1.5,0.9-2.6c0-0.7-0.1-1.3-0.4-1.9c-0.2-0.5-0.6-1-1.1-1.2s-1-0.4-1.6-0.4
			c-0.8,0-1.5,0.3-2.1,0.9C351.9,239.1,351.6,240.1,351.6,241.4z"/>
		<path id="XMLID_128_" d="M360.2,248.1v-8.8h1v0.8c0.2-0.3,0.5-0.6,0.8-0.7c0.3-0.2,0.6-0.2,1.1-0.2c0.5,0,1,0.1,1.4,0.4
			c0.4,0.3,0.7,0.7,0.9,1.2c0.2,0.5,0.3,1.1,0.3,1.7c0,0.7-0.1,1.2-0.4,1.8c-0.2,0.5-0.6,0.9-1,1.2s-0.9,0.4-1.4,0.4
			c-0.4,0-0.7-0.1-1-0.2s-0.5-0.3-0.7-0.6v3.1H360.2z M361.2,242.5c0,0.8,0.2,1.4,0.5,1.8c0.3,0.4,0.7,0.6,1.2,0.6
			c0.5,0,0.9-0.2,1.2-0.6c0.3-0.4,0.5-1,0.5-1.9c0-0.8-0.2-1.4-0.5-1.8c-0.3-0.4-0.7-0.6-1.2-0.6c-0.5,0-0.9,0.2-1.2,0.6
			C361.3,241.1,361.2,241.7,361.2,242.5z"/>
		<path id="XMLID_131_" d="M371.4,243.6l1.1,0.1c-0.2,0.7-0.5,1.2-1,1.5c-0.5,0.4-1.1,0.5-1.8,0.5c-0.9,0-1.7-0.3-2.2-0.9
			c-0.5-0.6-0.8-1.4-0.8-2.4c0-1.1,0.3-1.9,0.8-2.5c0.6-0.6,1.3-0.9,2.2-0.9c0.9,0,1.6,0.3,2.1,0.9s0.8,1.4,0.8,2.5
			c0,0.1,0,0.2,0,0.3h-4.8c0,0.7,0.2,1.2,0.6,1.6c0.4,0.4,0.8,0.6,1.3,0.6c0.4,0,0.7-0.1,1-0.3C371,244.4,371.2,244.1,371.4,243.6z
			 M367.8,241.9h3.6c0-0.5-0.2-0.9-0.4-1.2c-0.3-0.4-0.8-0.6-1.3-0.6c-0.5,0-0.9,0.2-1.3,0.5C368.1,240.9,367.9,241.3,367.8,241.9z"
			/>
		<path id="XMLID_134_" d="M373.9,245.7v-6.4h1v1c0.2-0.5,0.5-0.8,0.7-0.9c0.2-0.1,0.4-0.2,0.7-0.2c0.4,0,0.7,0.1,1.1,0.3l-0.4,1
			c-0.3-0.2-0.5-0.2-0.8-0.2c-0.2,0-0.4,0.1-0.6,0.2c-0.2,0.1-0.3,0.3-0.4,0.6c-0.1,0.4-0.2,0.8-0.2,1.3v3.3H373.9z"/>
		<path id="XMLID_136_" d="M382.1,244.9c-0.4,0.3-0.8,0.6-1.2,0.7c-0.4,0.1-0.8,0.2-1.2,0.2c-0.7,0-1.2-0.2-1.6-0.5
			s-0.6-0.8-0.6-1.3c0-0.3,0.1-0.6,0.2-0.9c0.1-0.3,0.3-0.5,0.6-0.6s0.5-0.3,0.8-0.4c0.2-0.1,0.5-0.1,1-0.2c0.9-0.1,1.5-0.2,1.9-0.4
			c0-0.1,0-0.2,0-0.3c0-0.4-0.1-0.8-0.3-0.9c-0.3-0.2-0.7-0.4-1.2-0.4c-0.5,0-0.9,0.1-1.1,0.3c-0.2,0.2-0.4,0.5-0.5,0.9l-1.1-0.1
			c0.1-0.5,0.3-0.8,0.5-1.1c0.2-0.3,0.5-0.5,1-0.6c0.4-0.2,0.9-0.2,1.4-0.2c0.5,0,1,0.1,1.3,0.2c0.3,0.1,0.6,0.3,0.8,0.5
			s0.3,0.4,0.3,0.7c0,0.2,0.1,0.5,0.1,1v1.4c0,1,0,1.6,0.1,1.9c0,0.3,0.1,0.5,0.3,0.8h-1.1C382.2,245.4,382.2,245.2,382.1,244.9z
			 M382,242.5c-0.4,0.2-1,0.3-1.8,0.4c-0.4,0.1-0.8,0.1-0.9,0.2c-0.2,0.1-0.3,0.2-0.4,0.4c-0.1,0.2-0.2,0.3-0.2,0.5
			c0,0.3,0.1,0.5,0.3,0.7s0.5,0.3,1,0.3c0.4,0,0.8-0.1,1.1-0.3c0.3-0.2,0.6-0.4,0.7-0.7c0.1-0.2,0.2-0.6,0.2-1.1V242.5z"/>
		<path id="XMLID_139_" d="M389,243.3l1.1,0.1c-0.1,0.7-0.4,1.3-0.9,1.7s-1.1,0.6-1.8,0.6c-0.9,0-1.6-0.3-2.1-0.9s-0.8-1.4-0.8-2.5
			c0-0.7,0.1-1.3,0.3-1.8c0.2-0.5,0.6-0.9,1-1.2s1-0.4,1.5-0.4c0.7,0,1.3,0.2,1.7,0.5c0.4,0.4,0.7,0.8,0.8,1.5l-1.1,0.2
			c-0.1-0.4-0.3-0.8-0.5-1s-0.6-0.3-0.9-0.3c-0.5,0-1,0.2-1.3,0.6s-0.5,1-0.5,1.9c0,0.9,0.2,1.5,0.5,1.9c0.3,0.4,0.8,0.6,1.3,0.6
			c0.4,0,0.8-0.1,1.1-0.4C388.7,244.3,388.9,243.9,389,243.3z"/>
		<path id="XMLID_141_" d="M391,238.1v-1.2h1.1v1.2H391z M391,245.7v-6.4h1.1v6.4H391z"/>
		<path id="XMLID_144_" d="M393.3,242.5c0-1.2,0.3-2.1,1-2.6c0.5-0.5,1.2-0.7,2-0.7c0.9,0,1.6,0.3,2.2,0.9s0.8,1.4,0.8,2.4
			c0,0.8-0.1,1.5-0.4,1.9c-0.2,0.5-0.6,0.8-1.1,1.1s-1,0.4-1.5,0.4c-0.9,0-1.6-0.3-2.2-0.9C393.6,244.4,393.3,243.5,393.3,242.5z
			 M394.4,242.5c0,0.8,0.2,1.4,0.5,1.8c0.4,0.4,0.8,0.6,1.3,0.6c0.5,0,1-0.2,1.3-0.6c0.4-0.4,0.5-1,0.5-1.9c0-0.8-0.2-1.4-0.5-1.8
			c-0.4-0.4-0.8-0.6-1.3-0.6c-0.5,0-1,0.2-1.3,0.6C394.6,241,394.4,241.7,394.4,242.5z"/>
		<path id="XMLID_147_" d="M400.6,245.7v-6.4h1v0.9c0.5-0.7,1.1-1.1,2-1.1c0.4,0,0.7,0.1,1.1,0.2c0.3,0.1,0.6,0.3,0.7,0.5
			s0.3,0.5,0.3,0.8c0,0.2,0.1,0.6,0.1,1.1v3.9h-1.1v-3.9c0-0.4,0-0.8-0.1-1c-0.1-0.2-0.2-0.4-0.4-0.5c-0.2-0.1-0.5-0.2-0.8-0.2
			c-0.5,0-0.9,0.1-1.2,0.4c-0.3,0.3-0.5,0.8-0.5,1.7v3.5H400.6z"/>
		<path id="XMLID_149_" d="M411.8,243.6l1.1,0.1c-0.2,0.7-0.5,1.2-1,1.5c-0.5,0.4-1.1,0.5-1.8,0.5c-0.9,0-1.7-0.3-2.2-0.9
			c-0.5-0.6-0.8-1.4-0.8-2.4c0-1.1,0.3-1.9,0.8-2.5c0.6-0.6,1.3-0.9,2.2-0.9c0.9,0,1.6,0.3,2.1,0.9c0.5,0.6,0.8,1.4,0.8,2.5
			c0,0.1,0,0.2,0,0.3h-4.8c0,0.7,0.2,1.2,0.6,1.6s0.8,0.6,1.3,0.6c0.4,0,0.7-0.1,1-0.3C411.4,244.4,411.6,244.1,411.8,243.6z
			 M408.2,241.9h3.6c0-0.5-0.2-0.9-0.4-1.2c-0.3-0.4-0.8-0.6-1.3-0.6c-0.5,0-0.9,0.2-1.3,0.5C408.5,240.9,408.3,241.3,408.2,241.9z"
			/>
		<path id="XMLID_152_" d="M413.8,243.8l1.1-0.2c0.1,0.4,0.2,0.8,0.5,1c0.3,0.2,0.7,0.3,1.2,0.3c0.5,0,0.9-0.1,1.1-0.3
			s0.4-0.4,0.4-0.7c0-0.2-0.1-0.4-0.3-0.6c-0.1-0.1-0.5-0.2-1.1-0.4c-0.8-0.2-1.3-0.4-1.7-0.5s-0.5-0.3-0.7-0.6s-0.2-0.5-0.2-0.9
			c0-0.3,0.1-0.5,0.2-0.8c0.1-0.2,0.3-0.4,0.5-0.6c0.2-0.1,0.4-0.2,0.7-0.3c0.3-0.1,0.6-0.1,0.9-0.1c0.5,0,0.9,0.1,1.3,0.2
			s0.7,0.3,0.8,0.6c0.2,0.2,0.3,0.6,0.4,1l-1.1,0.1c0-0.3-0.2-0.6-0.4-0.8s-0.6-0.3-1-0.3c-0.5,0-0.9,0.1-1.1,0.2
			c-0.2,0.2-0.3,0.4-0.3,0.6c0,0.1,0,0.3,0.1,0.4c0.1,0.1,0.2,0.2,0.4,0.3c0.1,0,0.4,0.1,1,0.3c0.8,0.2,1.3,0.4,1.6,0.5
			s0.5,0.3,0.7,0.6c0.2,0.2,0.3,0.6,0.3,0.9c0,0.4-0.1,0.7-0.3,1c-0.2,0.3-0.5,0.6-0.9,0.7c-0.4,0.2-0.8,0.3-1.3,0.3
			c-0.8,0-1.5-0.2-1.9-0.5C414.2,244.9,413.9,244.4,413.8,243.8z"/>
		<path id="XMLID_154_" d="M356.4,257.2c0-1.2,0.3-2.1,1-2.6c0.5-0.5,1.2-0.7,2-0.7c0.9,0,1.6,0.3,2.2,0.9s0.8,1.4,0.8,2.4
			c0,0.8-0.1,1.5-0.4,1.9c-0.2,0.5-0.6,0.8-1.1,1.1s-1,0.4-1.5,0.4c-0.9,0-1.6-0.3-2.2-0.9C356.6,259.2,356.4,258.3,356.4,257.2z
			 M357.5,257.2c0,0.8,0.2,1.4,0.5,1.8c0.4,0.4,0.8,0.6,1.3,0.6c0.5,0,1-0.2,1.3-0.6c0.4-0.4,0.5-1,0.5-1.9c0-0.8-0.2-1.4-0.5-1.8
			c-0.4-0.4-0.8-0.6-1.3-0.6c-0.5,0-1,0.2-1.3,0.6C357.6,255.8,357.5,256.4,357.5,257.2z"/>
		<path id="XMLID_157_" d="M367,260.4v-6.4h1v0.9c0.2-0.3,0.5-0.6,0.8-0.8c0.3-0.2,0.7-0.3,1.1-0.3c0.5,0,0.9,0.1,1.2,0.3
			s0.5,0.5,0.6,0.8c0.5-0.7,1.2-1.1,2-1.1c0.6,0,1.1,0.2,1.5,0.5s0.5,0.9,0.5,1.6v4.4h-1.1v-4c0-0.4,0-0.7-0.1-0.9
			c-0.1-0.2-0.2-0.3-0.4-0.5c-0.2-0.1-0.4-0.2-0.7-0.2c-0.4,0-0.8,0.1-1.1,0.4c-0.3,0.3-0.4,0.8-0.4,1.4v3.7h-1.1v-4.1
			c0-0.5-0.1-0.8-0.3-1.1c-0.2-0.2-0.5-0.4-0.9-0.4c-0.3,0-0.6,0.1-0.8,0.2c-0.3,0.2-0.4,0.4-0.6,0.7c-0.1,0.3-0.2,0.8-0.2,1.3v3.3
			H367z"/>
		<path id="XMLID_159_" d="M381.7,258.4l1.1,0.1c-0.2,0.7-0.5,1.2-1,1.5c-0.5,0.4-1.1,0.5-1.8,0.5c-0.9,0-1.7-0.3-2.2-0.9
			c-0.5-0.6-0.8-1.4-0.8-2.4c0-1.1,0.3-1.9,0.8-2.5c0.6-0.6,1.3-0.9,2.2-0.9c0.9,0,1.6,0.3,2.1,0.9s0.8,1.4,0.8,2.5
			c0,0.1,0,0.2,0,0.3H378c0,0.7,0.2,1.2,0.6,1.6c0.4,0.4,0.8,0.6,1.3,0.6c0.4,0,0.7-0.1,1-0.3C381.3,259.2,381.5,258.8,381.7,258.4z
			 M378.1,256.6h3.6c0-0.5-0.2-0.9-0.4-1.2c-0.3-0.4-0.8-0.6-1.3-0.6c-0.5,0-0.9,0.2-1.3,0.5C378.3,255.6,378.1,256.1,378.1,256.6z
			 M379.3,253.3l0.8-1.7h1.4l-1.3,1.7H379.3z"/>
		<path id="XMLID_163_" d="M386.5,259.5l0.2,1c-0.3,0.1-0.6,0.1-0.8,0.1c-0.4,0-0.7-0.1-0.9-0.2c-0.2-0.1-0.4-0.3-0.5-0.5
			c-0.1-0.2-0.1-0.6-0.1-1.3v-3.7h-0.8v-0.8h0.8v-1.6l1.1-0.6v2.2h1.1v0.8h-1.1v3.7c0,0.3,0,0.5,0.1,0.6c0,0.1,0.1,0.2,0.2,0.2
			c0.1,0.1,0.2,0.1,0.4,0.1C386.1,259.5,386.3,259.5,386.5,259.5z"/>
		<path id="XMLID_165_" d="M387.2,257.2c0-1.2,0.3-2.1,1-2.6c0.5-0.5,1.2-0.7,2-0.7c0.9,0,1.6,0.3,2.2,0.9c0.6,0.6,0.8,1.4,0.8,2.4
			c0,0.8-0.1,1.5-0.4,1.9s-0.6,0.8-1.1,1.1c-0.5,0.3-1,0.4-1.5,0.4c-0.9,0-1.6-0.3-2.2-0.9C387.4,259.2,387.2,258.3,387.2,257.2z
			 M388.3,257.2c0,0.8,0.2,1.4,0.5,1.8c0.4,0.4,0.8,0.6,1.3,0.6c0.5,0,1-0.2,1.3-0.6c0.4-0.4,0.5-1,0.5-1.9c0-0.8-0.2-1.4-0.5-1.8
			c-0.4-0.4-0.8-0.6-1.3-0.6c-0.5,0-1,0.2-1.3,0.6C388.4,255.8,388.3,256.4,388.3,257.2z"/>
		<path id="XMLID_168_" d="M398.5,260.4v-0.8c-0.4,0.6-1,1-1.8,1c-0.5,0-1-0.1-1.4-0.4c-0.4-0.3-0.8-0.7-1-1.2s-0.4-1.1-0.4-1.7
			c0-0.6,0.1-1.2,0.3-1.7c0.2-0.5,0.5-0.9,1-1.2s0.9-0.4,1.4-0.4c0.4,0,0.7,0.1,1,0.2c0.3,0.2,0.5,0.4,0.7,0.6v-3.2h1.1v8.8H398.5z
			 M395.1,257.3c0,0.8,0.2,1.4,0.5,1.8c0.3,0.4,0.8,0.6,1.2,0.6c0.5,0,0.9-0.2,1.2-0.6c0.3-0.4,0.5-1,0.5-1.8c0-0.9-0.2-1.5-0.5-1.9
			c-0.3-0.4-0.8-0.6-1.2-0.6c-0.5,0-0.9,0.2-1.2,0.6C395.3,255.8,395.1,256.4,395.1,257.3z"/>
		<path id="XMLID_171_" d="M400.8,257.2c0-1.2,0.3-2.1,1-2.6c0.5-0.5,1.2-0.7,2-0.7c0.9,0,1.6,0.3,2.2,0.9c0.6,0.6,0.8,1.4,0.8,2.4
			c0,0.8-0.1,1.5-0.4,1.9s-0.6,0.8-1.1,1.1c-0.5,0.3-1,0.4-1.5,0.4c-0.9,0-1.6-0.3-2.2-0.9C401.1,259.2,400.8,258.3,400.8,257.2z
			 M402,257.2c0,0.8,0.2,1.4,0.5,1.8c0.4,0.4,0.8,0.6,1.3,0.6c0.5,0,1-0.2,1.3-0.6c0.4-0.4,0.5-1,0.5-1.9c0-0.8-0.2-1.4-0.5-1.8
			c-0.4-0.4-0.8-0.6-1.3-0.6c-0.5,0-1,0.2-1.3,0.6C402.1,255.8,402,256.4,402,257.2z"/>
		<path id="XMLID_174_" d="M407.7,258.5l1.1-0.2c0.1,0.4,0.2,0.8,0.5,1c0.3,0.2,0.7,0.3,1.2,0.3c0.5,0,0.9-0.1,1.1-0.3
			s0.4-0.4,0.4-0.7c0-0.2-0.1-0.4-0.3-0.6c-0.1-0.1-0.5-0.2-1.1-0.4c-0.8-0.2-1.3-0.4-1.7-0.5s-0.5-0.3-0.7-0.6
			c-0.2-0.3-0.2-0.5-0.2-0.9c0-0.3,0.1-0.5,0.2-0.8c0.1-0.2,0.3-0.4,0.5-0.6c0.2-0.1,0.4-0.2,0.7-0.3c0.3-0.1,0.6-0.1,0.9-0.1
			c0.5,0,0.9,0.1,1.3,0.2s0.7,0.3,0.8,0.6c0.2,0.2,0.3,0.6,0.4,1l-1.1,0.1c0-0.3-0.2-0.6-0.4-0.8s-0.6-0.3-1-0.3
			c-0.5,0-0.9,0.1-1.1,0.2s-0.3,0.4-0.3,0.6c0,0.1,0,0.3,0.1,0.4c0.1,0.1,0.2,0.2,0.4,0.3c0.1,0,0.4,0.1,1,0.3
			c0.8,0.2,1.3,0.4,1.6,0.5s0.5,0.3,0.7,0.6c0.2,0.2,0.3,0.6,0.3,0.9c0,0.4-0.1,0.7-0.3,1c-0.2,0.3-0.5,0.6-0.9,0.7
			c-0.4,0.2-0.8,0.3-1.3,0.3c-0.8,0-1.5-0.2-1.9-0.5C408.1,259.7,407.8,259.2,407.7,258.5z"/>
	</g>
	<g id="XMLID_12059_">
		<g id="XMLID_12106_">
			<g id="XMLID_12115_">
				<rect id="XMLID_495_" x="1.5" y="163.1" class="st2" width="136.2" height="102.6"/>
				<path id="XMLID_492_" class="st7" d="M136.2,164.6v99.6H3v-99.6H136.2 M139.2,161.6H0v105.6h139.2V161.6L139.2,161.6z"/>
			</g>
			<line id="XMLID_12108_" class="st8" x1="0" y1="197" x2="139.2" y2="197"/>
			<line id="XMLID_12107_" class="st8" x1="0" y1="232.1" x2="139.2" y2="232.1"/>
		</g>
		<g id="XMLID_96_">
			<path id="XMLID_97_" d="M30.8,185.1v-8.8H32l4.6,6.9v-6.9h1.1v8.8h-1.2l-4.6-6.9v6.9H30.8z"/>
			<path id="XMLID_99_" d="M39.2,181.9c0-1.2,0.3-2.1,1-2.6c0.5-0.5,1.2-0.7,2-0.7c0.9,0,1.6,0.3,2.2,0.9s0.8,1.4,0.8,2.4
				c0,0.8-0.1,1.5-0.4,1.9c-0.2,0.5-0.6,0.8-1.1,1.1s-1,0.4-1.5,0.4c-0.9,0-1.6-0.3-2.2-0.9S39.2,183,39.2,181.9z M40.3,181.9
				c0,0.8,0.2,1.4,0.5,1.8c0.4,0.4,0.8,0.6,1.3,0.6c0.5,0,1-0.2,1.3-0.6c0.4-0.4,0.5-1,0.5-1.9c0-0.8-0.2-1.4-0.5-1.8
				c-0.4-0.4-0.8-0.6-1.3-0.6c-0.5,0-1,0.2-1.3,0.6C40.5,180.5,40.3,181.1,40.3,181.9z"/>
			<path id="XMLID_102_" d="M46.5,185.1v-6.4h1v0.9c0.2-0.3,0.5-0.6,0.8-0.8c0.3-0.2,0.7-0.3,1.1-0.3c0.5,0,0.9,0.1,1.2,0.3
				s0.5,0.5,0.6,0.8c0.5-0.7,1.2-1.1,2-1.1c0.6,0,1.1,0.2,1.5,0.5c0.3,0.4,0.5,0.9,0.5,1.6v4.4H54v-4c0-0.4,0-0.7-0.1-0.9
				c-0.1-0.2-0.2-0.3-0.4-0.5c-0.2-0.1-0.4-0.2-0.6-0.2c-0.4,0-0.8,0.1-1.1,0.4c-0.3,0.3-0.4,0.8-0.4,1.4v3.7h-1.1v-4.1
				c0-0.5-0.1-0.8-0.3-1.1c-0.2-0.2-0.5-0.4-0.9-0.4c-0.3,0-0.6,0.1-0.8,0.2c-0.3,0.2-0.4,0.4-0.6,0.7s-0.2,0.8-0.2,1.3v3.3H46.5z"
				/>
			<path id="XMLID_104_" d="M57.7,185.1h-1v-8.8h1.1v3.1c0.5-0.6,1-0.9,1.8-0.9c0.4,0,0.8,0.1,1.1,0.2c0.4,0.2,0.6,0.4,0.9,0.7
				c0.2,0.3,0.4,0.6,0.5,1c0.1,0.4,0.2,0.8,0.2,1.3c0,1.1-0.3,1.9-0.8,2.5s-1.2,0.9-1.9,0.9c-0.8,0-1.3-0.3-1.8-0.9V185.1z
				 M57.7,181.9c0,0.8,0.1,1.3,0.3,1.7c0.3,0.6,0.8,0.8,1.4,0.8c0.5,0,0.9-0.2,1.2-0.6s0.5-1,0.5-1.8c0-0.8-0.2-1.4-0.5-1.8
				c-0.3-0.4-0.7-0.6-1.2-0.6c-0.5,0-0.9,0.2-1.2,0.6S57.7,181.1,57.7,181.9z"/>
			<path id="XMLID_107_" d="M63.6,185.1v-6.4h1v1c0.2-0.5,0.5-0.8,0.7-0.9s0.4-0.2,0.7-0.2c0.4,0,0.7,0.1,1.1,0.3l-0.4,1
				c-0.3-0.2-0.5-0.2-0.8-0.2c-0.2,0-0.4,0.1-0.6,0.2c-0.2,0.1-0.3,0.3-0.4,0.6c-0.1,0.4-0.2,0.8-0.2,1.3v3.3H63.6z"/>
			<path id="XMLID_109_" d="M72,183l1.1,0.1c-0.2,0.7-0.5,1.2-1,1.5c-0.5,0.4-1.1,0.5-1.8,0.5c-0.9,0-1.7-0.3-2.2-0.9
				c-0.5-0.6-0.8-1.4-0.8-2.4c0-1.1,0.3-1.9,0.8-2.5c0.6-0.6,1.3-0.9,2.2-0.9c0.9,0,1.6,0.3,2.1,0.9c0.5,0.6,0.8,1.4,0.8,2.5
				c0,0.1,0,0.2,0,0.3h-4.8c0,0.7,0.2,1.2,0.6,1.6c0.4,0.4,0.8,0.6,1.3,0.6c0.4,0,0.7-0.1,1-0.3C71.6,183.8,71.9,183.5,72,183z
				 M68.5,181.3H72c0-0.5-0.2-0.9-0.4-1.2c-0.3-0.4-0.8-0.6-1.3-0.6c-0.5,0-0.9,0.2-1.3,0.5S68.5,180.7,68.5,181.3z"/>
			<path id="XMLID_112_" d="M82.1,182.8l1.1,0.1c-0.1,0.7-0.4,1.3-0.9,1.7s-1.1,0.6-1.8,0.6c-0.9,0-1.6-0.3-2.1-0.9
				s-0.8-1.4-0.8-2.5c0-0.7,0.1-1.3,0.3-1.8c0.2-0.5,0.6-0.9,1-1.2c0.5-0.3,1-0.4,1.5-0.4c0.7,0,1.3,0.2,1.7,0.5
				c0.4,0.4,0.7,0.8,0.8,1.5l-1.1,0.2c-0.1-0.4-0.3-0.8-0.5-1c-0.3-0.2-0.6-0.3-0.9-0.3c-0.5,0-1,0.2-1.3,0.6
				c-0.3,0.4-0.5,1-0.5,1.9c0,0.9,0.2,1.5,0.5,1.9s0.8,0.6,1.3,0.6c0.4,0,0.8-0.1,1.1-0.4S82,183.3,82.1,182.8z"/>
			<path id="XMLID_114_" d="M84.1,185.1v-8.8h1.1v8.8H84.1z"/>
			<path id="XMLID_116_" d="M91,184.3c-0.4,0.3-0.8,0.6-1.2,0.7c-0.4,0.1-0.8,0.2-1.2,0.2c-0.7,0-1.2-0.2-1.6-0.5s-0.6-0.8-0.6-1.3
				c0-0.3,0.1-0.6,0.2-0.9c0.1-0.3,0.3-0.5,0.6-0.6s0.5-0.3,0.8-0.4c0.2-0.1,0.5-0.1,1-0.2c0.9-0.1,1.5-0.2,1.9-0.4
				c0-0.1,0-0.2,0-0.3c0-0.4-0.1-0.8-0.3-0.9c-0.3-0.2-0.7-0.4-1.2-0.4c-0.5,0-0.9,0.1-1.1,0.3c-0.2,0.2-0.4,0.5-0.5,0.9l-1.1-0.1
				c0.1-0.5,0.3-0.8,0.5-1.1c0.2-0.3,0.5-0.5,1-0.6c0.4-0.1,0.9-0.2,1.4-0.2c0.5,0,1,0.1,1.3,0.2c0.3,0.1,0.6,0.3,0.8,0.5
				s0.3,0.4,0.3,0.7c0,0.2,0.1,0.5,0.1,1v1.4c0,1,0,1.6,0.1,1.9c0,0.3,0.1,0.5,0.3,0.8h-1.1C91.1,184.9,91,184.6,91,184.3z
				 M90.9,181.9c-0.4,0.2-1,0.3-1.8,0.4c-0.4,0.1-0.8,0.1-0.9,0.2s-0.3,0.2-0.4,0.4c-0.1,0.2-0.2,0.3-0.2,0.5c0,0.3,0.1,0.5,0.3,0.7
				c0.2,0.2,0.5,0.3,1,0.3c0.4,0,0.8-0.1,1.1-0.3s0.6-0.4,0.7-0.7c0.1-0.2,0.2-0.6,0.2-1.1V181.9z"/>
			<path id="XMLID_119_" d="M93.2,183.2l1.1-0.2c0.1,0.4,0.2,0.8,0.5,1c0.3,0.2,0.7,0.3,1.2,0.3c0.5,0,0.9-0.1,1.1-0.3
				c0.2-0.2,0.4-0.4,0.4-0.7c0-0.2-0.1-0.4-0.3-0.6c-0.1-0.1-0.5-0.2-1.1-0.4c-0.8-0.2-1.3-0.4-1.7-0.5s-0.5-0.3-0.7-0.6
				c-0.2-0.3-0.2-0.5-0.2-0.9c0-0.3,0.1-0.5,0.2-0.8c0.1-0.2,0.3-0.4,0.5-0.6c0.2-0.1,0.4-0.2,0.7-0.3c0.3-0.1,0.6-0.1,0.9-0.1
				c0.5,0,0.9,0.1,1.3,0.2s0.7,0.3,0.8,0.6c0.2,0.2,0.3,0.6,0.4,1l-1.1,0.1c0-0.3-0.2-0.6-0.4-0.8s-0.6-0.3-1-0.3
				c-0.5,0-0.9,0.1-1.1,0.2c-0.2,0.2-0.3,0.4-0.3,0.6c0,0.1,0,0.3,0.1,0.4c0.1,0.1,0.2,0.2,0.4,0.3c0.1,0,0.4,0.1,1,0.3
				c0.8,0.2,1.3,0.4,1.6,0.5c0.3,0.1,0.5,0.3,0.7,0.6c0.2,0.2,0.3,0.6,0.3,0.9c0,0.4-0.1,0.7-0.3,1c-0.2,0.3-0.5,0.6-0.9,0.7
				c-0.4,0.2-0.8,0.3-1.3,0.3c-0.8,0-1.5-0.2-1.9-0.5C93.6,184.4,93.4,183.9,93.2,183.2z"/>
			<path id="XMLID_121_" d="M104.2,183l1.1,0.1c-0.2,0.7-0.5,1.2-1,1.5c-0.5,0.4-1.1,0.5-1.8,0.5c-0.9,0-1.7-0.3-2.2-0.9
				c-0.5-0.6-0.8-1.4-0.8-2.4c0-1.1,0.3-1.9,0.8-2.5c0.6-0.6,1.3-0.9,2.2-0.9c0.9,0,1.6,0.3,2.1,0.9c0.5,0.6,0.8,1.4,0.8,2.5
				c0,0.1,0,0.2,0,0.3h-4.8c0,0.7,0.2,1.2,0.6,1.6c0.4,0.4,0.8,0.6,1.3,0.6c0.4,0,0.7-0.1,1-0.3C103.8,183.8,104,183.5,104.2,183z
				 M100.7,181.3h3.6c0-0.5-0.2-0.9-0.4-1.2c-0.3-0.4-0.8-0.6-1.3-0.6c-0.5,0-0.9,0.2-1.3,0.5S100.7,180.7,100.7,181.3z"/>
		</g>
		<g id="XMLID_73_">
			<path id="XMLID_74_" d="M43.6,220.1l3.4-8.8h1.3l3.6,8.8h-1.3l-1-2.7h-3.7l-1,2.7H43.6z M46.1,216.5h3l-0.9-2.4
				c-0.3-0.7-0.5-1.4-0.6-1.8c-0.1,0.6-0.3,1.1-0.5,1.7L46.1,216.5z"/>
			<path id="XMLID_77_" d="M55,219.1l0.2,1c-0.3,0.1-0.6,0.1-0.8,0.1c-0.4,0-0.7-0.1-0.9-0.2s-0.4-0.3-0.5-0.5
				c-0.1-0.2-0.1-0.6-0.1-1.3v-3.7H52v-0.8h0.8v-1.6l1.1-0.6v2.2H55v0.8h-1.1v3.7c0,0.3,0,0.5,0.1,0.6s0.1,0.2,0.2,0.2
				c0.1,0.1,0.2,0.1,0.4,0.1C54.6,219.2,54.8,219.1,55,219.1z"/>
			<path id="XMLID_79_" d="M56,220.1v-6.4h1v1c0.2-0.5,0.5-0.8,0.7-0.9s0.4-0.2,0.7-0.2c0.4,0,0.7,0.1,1.1,0.3l-0.4,1
				c-0.3-0.2-0.5-0.2-0.8-0.2c-0.2,0-0.4,0.1-0.6,0.2c-0.2,0.1-0.3,0.3-0.4,0.6c-0.1,0.4-0.2,0.8-0.2,1.3v3.3H56z"/>
			<path id="XMLID_81_" d="M60.1,212.5v-1.2h1.1v1.2H60.1z M60.1,220.1v-6.4h1.1v6.4H60.1z"/>
			<path id="XMLID_84_" d="M63.9,220.1h-1v-8.8h1.1v3.1c0.5-0.6,1-0.9,1.8-0.9c0.4,0,0.8,0.1,1.1,0.2c0.4,0.2,0.6,0.4,0.9,0.7
				c0.2,0.3,0.4,0.6,0.5,1c0.1,0.4,0.2,0.8,0.2,1.3c0,1.1-0.3,1.9-0.8,2.5s-1.2,0.9-1.9,0.9c-0.8,0-1.3-0.3-1.8-0.9V220.1z
				 M63.9,216.8c0,0.8,0.1,1.3,0.3,1.7c0.3,0.6,0.8,0.8,1.4,0.8c0.5,0,0.9-0.2,1.2-0.6s0.5-1,0.5-1.8c0-0.8-0.2-1.4-0.5-1.8
				c-0.3-0.4-0.7-0.6-1.2-0.6c-0.5,0-0.9,0.2-1.2,0.6S63.9,216.1,63.9,216.8z"/>
			<path id="XMLID_87_" d="M73.9,220.1v-0.9c-0.5,0.7-1.2,1.1-2,1.1c-0.4,0-0.7-0.1-1.1-0.2s-0.6-0.3-0.7-0.5
				c-0.2-0.2-0.3-0.5-0.3-0.8c0-0.2-0.1-0.5-0.1-1v-4h1.1v3.5c0,0.6,0,0.9,0.1,1.1c0.1,0.3,0.2,0.5,0.4,0.7c0.2,0.2,0.5,0.2,0.8,0.2
				s0.6-0.1,0.9-0.2c0.3-0.2,0.5-0.4,0.6-0.7c0.1-0.3,0.2-0.7,0.2-1.2v-3.4h1.1v6.4H73.9z"/>
			<path id="XMLID_89_" d="M78.9,219.1l0.2,1c-0.3,0.1-0.6,0.1-0.8,0.1c-0.4,0-0.7-0.1-0.9-0.2s-0.4-0.3-0.5-0.5
				c-0.1-0.2-0.1-0.6-0.1-1.3v-3.7H76v-0.8h0.8v-1.6l1.1-0.6v2.2h1.1v0.8h-1.1v3.7c0,0.3,0,0.5,0.1,0.6s0.1,0.2,0.2,0.2
				c0.1,0.1,0.2,0.1,0.4,0.1C78.6,219.2,78.7,219.1,78.9,219.1z"/>
			<path id="XMLID_91_" d="M79.6,216.9c0-1.2,0.3-2.1,1-2.6c0.5-0.5,1.2-0.7,2-0.7c0.9,0,1.6,0.3,2.2,0.9s0.8,1.4,0.8,2.4
				c0,0.8-0.1,1.5-0.4,1.9c-0.2,0.5-0.6,0.8-1.1,1.1s-1,0.4-1.5,0.4c-0.9,0-1.6-0.3-2.2-0.9S79.6,218,79.6,216.9z M80.7,216.9
				c0,0.8,0.2,1.4,0.5,1.8c0.4,0.4,0.8,0.6,1.3,0.6c0.5,0,1-0.2,1.3-0.6c0.4-0.4,0.5-1,0.5-1.9c0-0.8-0.2-1.4-0.5-1.8
				c-0.4-0.4-0.8-0.6-1.3-0.6c-0.5,0-1,0.2-1.3,0.6C80.9,215.5,80.7,216.1,80.7,216.9z"/>
			<path id="XMLID_94_" d="M86.4,218.2l1.1-0.2c0.1,0.4,0.2,0.8,0.5,1c0.3,0.2,0.7,0.3,1.2,0.3c0.5,0,0.9-0.1,1.1-0.3
				c0.2-0.2,0.4-0.4,0.4-0.7c0-0.2-0.1-0.4-0.3-0.6c-0.1-0.1-0.5-0.2-1.1-0.4c-0.8-0.2-1.3-0.4-1.7-0.5s-0.5-0.3-0.7-0.6
				c-0.2-0.3-0.2-0.5-0.2-0.9c0-0.3,0.1-0.5,0.2-0.8c0.1-0.2,0.3-0.4,0.5-0.6c0.2-0.1,0.4-0.2,0.7-0.3c0.3-0.1,0.6-0.1,0.9-0.1
				c0.5,0,0.9,0.1,1.3,0.2s0.7,0.3,0.8,0.6c0.2,0.2,0.3,0.6,0.4,1l-1.1,0.1c0-0.3-0.2-0.6-0.4-0.8s-0.6-0.3-1-0.3
				c-0.5,0-0.9,0.1-1.1,0.2c-0.2,0.2-0.3,0.4-0.3,0.6c0,0.1,0,0.3,0.1,0.4c0.1,0.1,0.2,0.2,0.4,0.3c0.1,0,0.4,0.1,1,0.3
				c0.8,0.2,1.3,0.4,1.6,0.5c0.3,0.1,0.5,0.3,0.7,0.6c0.2,0.2,0.3,0.6,0.3,0.9c0,0.4-0.1,0.7-0.3,1c-0.2,0.3-0.5,0.6-0.9,0.7
				c-0.4,0.2-0.8,0.3-1.3,0.3c-0.8,0-1.5-0.2-1.9-0.5C86.8,219.4,86.5,218.9,86.4,218.2z"/>
		</g>
		<g id="XMLID_2_">
			<path id="XMLID_3_" d="M33.6,241.4c0-1.5,0.4-2.6,1.2-3.4c0.8-0.8,1.8-1.2,3-1.2c0.8,0,1.5,0.2,2.2,0.6c0.7,0.4,1.2,0.9,1.5,1.6
				s0.5,1.5,0.5,2.4c0,0.9-0.2,1.7-0.5,2.4c-0.4,0.7-0.9,1.2-1.5,1.6c-0.7,0.4-1.4,0.5-2.1,0.5c-0.8,0-1.6-0.2-2.2-0.6
				c-0.7-0.4-1.1-0.9-1.5-1.6C33.7,242.9,33.6,242.1,33.6,241.4z M34.8,241.4c0,1.1,0.3,1.9,0.9,2.5s1.3,0.9,2.1,0.9
				c0.9,0,1.6-0.3,2.2-0.9c0.6-0.6,0.9-1.5,0.9-2.6c0-0.7-0.1-1.3-0.4-1.9s-0.6-1-1.1-1.2c-0.5-0.3-1-0.4-1.6-0.4
				c-0.8,0-1.5,0.3-2.1,0.9S34.8,240.1,34.8,241.4z"/>
			<path id="XMLID_6_" d="M43.4,248.1v-8.8h1v0.8c0.2-0.3,0.5-0.6,0.8-0.7c0.3-0.2,0.6-0.2,1.1-0.2c0.5,0,1,0.1,1.4,0.4
				s0.7,0.7,0.9,1.2c0.2,0.5,0.3,1.1,0.3,1.7c0,0.7-0.1,1.2-0.4,1.8c-0.2,0.5-0.6,0.9-1,1.2c-0.4,0.3-0.9,0.4-1.4,0.4
				c-0.4,0-0.7-0.1-1-0.2s-0.5-0.3-0.7-0.6v3.1H43.4z M44.3,242.5c0,0.8,0.2,1.4,0.5,1.8c0.3,0.4,0.7,0.6,1.2,0.6
				c0.5,0,0.9-0.2,1.2-0.6c0.3-0.4,0.5-1,0.5-1.9c0-0.8-0.2-1.4-0.5-1.8c-0.3-0.4-0.7-0.6-1.2-0.6c-0.5,0-0.9,0.2-1.2,0.6
				C44.5,241.1,44.3,241.7,44.3,242.5z"/>
			<path id="XMLID_9_" d="M54.6,243.6l1.1,0.1c-0.2,0.7-0.5,1.2-1,1.5c-0.5,0.4-1.1,0.5-1.8,0.5c-0.9,0-1.7-0.3-2.2-0.9
				c-0.5-0.6-0.8-1.4-0.8-2.4c0-1.1,0.3-1.9,0.8-2.5c0.6-0.6,1.3-0.9,2.2-0.9c0.9,0,1.6,0.3,2.1,0.9c0.5,0.6,0.8,1.4,0.8,2.5
				c0,0.1,0,0.2,0,0.3H51c0,0.7,0.2,1.2,0.6,1.6c0.4,0.4,0.8,0.6,1.3,0.6c0.4,0,0.7-0.1,1-0.3C54.2,244.4,54.4,244.1,54.6,243.6z
				 M51,241.9h3.6c0-0.5-0.2-0.9-0.4-1.2c-0.3-0.4-0.8-0.6-1.3-0.6c-0.5,0-0.9,0.2-1.3,0.5C51.3,240.9,51.1,241.3,51,241.9z"/>
			<path id="XMLID_28_" d="M57.1,245.7v-6.4h1v1c0.2-0.5,0.5-0.8,0.7-0.9s0.4-0.2,0.7-0.2c0.4,0,0.7,0.1,1.1,0.3l-0.4,1
				c-0.3-0.2-0.5-0.2-0.8-0.2c-0.2,0-0.4,0.1-0.6,0.2s-0.3,0.3-0.4,0.6c-0.1,0.4-0.2,0.8-0.2,1.3v3.3H57.1z"/>
			<path id="XMLID_33_" d="M65.3,244.9c-0.4,0.3-0.8,0.6-1.2,0.7c-0.4,0.1-0.8,0.2-1.2,0.2c-0.7,0-1.2-0.2-1.6-0.5s-0.6-0.8-0.6-1.3
				c0-0.3,0.1-0.6,0.2-0.9c0.1-0.3,0.3-0.5,0.6-0.6s0.5-0.3,0.8-0.4c0.2-0.1,0.5-0.1,1-0.2c0.9-0.1,1.5-0.2,1.9-0.4
				c0-0.1,0-0.2,0-0.3c0-0.4-0.1-0.8-0.3-0.9c-0.3-0.2-0.7-0.4-1.2-0.4c-0.5,0-0.9,0.1-1.1,0.3c-0.2,0.2-0.4,0.5-0.5,0.9l-1.1-0.1
				c0.1-0.5,0.3-0.8,0.5-1.1c0.2-0.3,0.5-0.5,1-0.6s0.9-0.2,1.4-0.2c0.5,0,1,0.1,1.3,0.2c0.3,0.1,0.6,0.3,0.8,0.5s0.3,0.4,0.3,0.7
				c0,0.2,0.1,0.5,0.1,1v1.4c0,1,0,1.6,0.1,1.9c0,0.3,0.1,0.5,0.3,0.8h-1.1C65.4,245.4,65.4,245.2,65.3,244.9z M65.2,242.5
				c-0.4,0.2-1,0.3-1.8,0.4c-0.4,0.1-0.8,0.1-0.9,0.2s-0.3,0.2-0.4,0.4c-0.1,0.2-0.2,0.3-0.2,0.5c0,0.3,0.1,0.5,0.3,0.7
				c0.2,0.2,0.5,0.3,1,0.3c0.4,0,0.8-0.1,1.1-0.3c0.3-0.2,0.6-0.4,0.7-0.7c0.1-0.2,0.2-0.6,0.2-1.1V242.5z"/>
			<path id="XMLID_36_" d="M72.2,243.3l1.1,0.1c-0.1,0.7-0.4,1.3-0.9,1.7s-1.1,0.6-1.8,0.6c-0.9,0-1.6-0.3-2.1-0.9s-0.8-1.4-0.8-2.5
				c0-0.7,0.1-1.3,0.3-1.8c0.2-0.5,0.6-0.9,1-1.2c0.5-0.3,1-0.4,1.5-0.4c0.7,0,1.3,0.2,1.7,0.5s0.7,0.8,0.8,1.5l-1.1,0.2
				c-0.1-0.4-0.3-0.8-0.5-1c-0.3-0.2-0.6-0.3-0.9-0.3c-0.5,0-1,0.2-1.3,0.6s-0.5,1-0.5,1.9c0,0.9,0.2,1.5,0.5,1.9
				c0.3,0.4,0.8,0.6,1.3,0.6c0.4,0,0.8-0.1,1.1-0.4C71.9,244.3,72.1,243.9,72.2,243.3z"/>
			<path id="XMLID_38_" d="M74.2,238.1v-1.2h1.1v1.2H74.2z M74.2,245.7v-6.4h1.1v6.4H74.2z"/>
			<path id="XMLID_41_" d="M76.5,242.5c0-1.2,0.3-2.1,1-2.6c0.5-0.5,1.2-0.7,2-0.7c0.9,0,1.6,0.3,2.2,0.9s0.8,1.4,0.8,2.4
				c0,0.8-0.1,1.5-0.4,1.9s-0.6,0.8-1.1,1.1s-1,0.4-1.5,0.4c-0.9,0-1.6-0.3-2.2-0.9C76.8,244.4,76.5,243.5,76.5,242.5z M77.6,242.5
				c0,0.8,0.2,1.4,0.5,1.8c0.4,0.4,0.8,0.6,1.3,0.6c0.5,0,1-0.2,1.3-0.6c0.4-0.4,0.5-1,0.5-1.9c0-0.8-0.2-1.4-0.5-1.8
				c-0.4-0.4-0.8-0.6-1.3-0.6c-0.5,0-1,0.2-1.3,0.6C77.8,241,77.6,241.7,77.6,242.5z"/>
			<path id="XMLID_44_" d="M83.8,245.7v-6.4h1v0.9c0.5-0.7,1.1-1.1,2-1.1c0.4,0,0.7,0.1,1.1,0.2c0.3,0.1,0.6,0.3,0.7,0.5
				c0.2,0.2,0.3,0.5,0.3,0.8c0,0.2,0.1,0.6,0.1,1.1v3.9h-1.1v-3.9c0-0.4,0-0.8-0.1-1c-0.1-0.2-0.2-0.4-0.4-0.5
				c-0.2-0.1-0.5-0.2-0.8-0.2c-0.5,0-0.9,0.1-1.2,0.4c-0.3,0.3-0.5,0.8-0.5,1.7v3.5H83.8z"/>
			<path id="XMLID_46_" d="M95,243.6l1.1,0.1c-0.2,0.7-0.5,1.2-1,1.5c-0.5,0.4-1.1,0.5-1.8,0.5c-0.9,0-1.7-0.3-2.2-0.9
				c-0.5-0.6-0.8-1.4-0.8-2.4c0-1.1,0.3-1.9,0.8-2.5c0.6-0.6,1.3-0.9,2.2-0.9c0.9,0,1.6,0.3,2.1,0.9c0.5,0.6,0.8,1.4,0.8,2.5
				c0,0.1,0,0.2,0,0.3h-4.8c0,0.7,0.2,1.2,0.6,1.6c0.4,0.4,0.8,0.6,1.3,0.6c0.4,0,0.7-0.1,1-0.3C94.6,244.4,94.8,244.1,95,243.6z
				 M91.4,241.9H95c0-0.5-0.2-0.9-0.4-1.2c-0.3-0.4-0.8-0.6-1.3-0.6c-0.5,0-0.9,0.2-1.3,0.5C91.6,240.9,91.5,241.3,91.4,241.9z"/>
			<path id="XMLID_49_" d="M97,243.8l1.1-0.2c0.1,0.4,0.2,0.8,0.5,1c0.3,0.2,0.7,0.3,1.2,0.3c0.5,0,0.9-0.1,1.1-0.3
				c0.2-0.2,0.4-0.4,0.4-0.7c0-0.2-0.1-0.4-0.3-0.6c-0.1-0.1-0.5-0.2-1.1-0.4c-0.8-0.2-1.3-0.4-1.7-0.5s-0.5-0.3-0.7-0.6
				c-0.2-0.3-0.2-0.5-0.2-0.9c0-0.3,0.1-0.5,0.2-0.8c0.1-0.2,0.3-0.4,0.5-0.6c0.2-0.1,0.4-0.2,0.7-0.3c0.3-0.1,0.6-0.1,0.9-0.1
				c0.5,0,0.9,0.1,1.3,0.2s0.7,0.3,0.8,0.6c0.2,0.2,0.3,0.6,0.4,1l-1.1,0.1c0-0.3-0.2-0.6-0.4-0.8s-0.6-0.3-1-0.3
				c-0.5,0-0.9,0.1-1.1,0.2s-0.3,0.4-0.3,0.6c0,0.1,0,0.3,0.1,0.4c0.1,0.1,0.2,0.2,0.4,0.3c0.1,0,0.4,0.1,1,0.3
				c0.8,0.2,1.3,0.4,1.6,0.5s0.5,0.3,0.7,0.6c0.2,0.2,0.3,0.6,0.3,0.9c0,0.4-0.1,0.7-0.3,1c-0.2,0.3-0.5,0.6-0.9,0.7
				c-0.4,0.2-0.8,0.3-1.3,0.3c-0.8,0-1.5-0.2-1.9-0.5C97.4,244.9,97.1,244.4,97,243.8z"/>
			<path id="XMLID_51_" d="M39.5,257.2c0-1.2,0.3-2.1,1-2.6c0.5-0.5,1.2-0.7,2-0.7c0.9,0,1.6,0.3,2.2,0.9s0.8,1.4,0.8,2.4
				c0,0.8-0.1,1.5-0.4,1.9s-0.6,0.8-1.1,1.1s-1,0.4-1.5,0.4c-0.9,0-1.6-0.3-2.2-0.9C39.8,259.2,39.5,258.3,39.5,257.2z M40.7,257.2
				c0,0.8,0.2,1.4,0.5,1.8c0.4,0.4,0.8,0.6,1.3,0.6c0.5,0,1-0.2,1.3-0.6c0.4-0.4,0.5-1,0.5-1.9c0-0.8-0.2-1.4-0.5-1.8
				c-0.4-0.4-0.8-0.6-1.3-0.6c-0.5,0-1,0.2-1.3,0.6C40.8,255.8,40.7,256.4,40.7,257.2z"/>
			<path id="XMLID_54_" d="M50.2,260.4v-6.4h1v0.9c0.2-0.3,0.5-0.6,0.8-0.8c0.3-0.2,0.7-0.3,1.1-0.3c0.5,0,0.9,0.1,1.2,0.3
				s0.5,0.5,0.6,0.8c0.5-0.7,1.2-1.1,2-1.1c0.6,0,1.1,0.2,1.5,0.5s0.5,0.9,0.5,1.6v4.4h-1.1v-4c0-0.4,0-0.7-0.1-0.9
				c-0.1-0.2-0.2-0.3-0.4-0.5c-0.2-0.1-0.4-0.2-0.6-0.2c-0.4,0-0.8,0.1-1.1,0.4c-0.3,0.3-0.4,0.8-0.4,1.4v3.7H54v-4.1
				c0-0.5-0.1-0.8-0.3-1.1c-0.2-0.2-0.5-0.4-0.9-0.4c-0.3,0-0.6,0.1-0.8,0.2c-0.3,0.2-0.4,0.4-0.6,0.7c-0.1,0.3-0.2,0.8-0.2,1.3v3.3
				H50.2z"/>
			<path id="XMLID_56_" d="M64.8,258.4l1.1,0.1c-0.2,0.7-0.5,1.2-1,1.5c-0.5,0.4-1.1,0.5-1.8,0.5c-0.9,0-1.7-0.3-2.2-0.9
				c-0.5-0.6-0.8-1.4-0.8-2.4c0-1.1,0.3-1.9,0.8-2.5c0.6-0.6,1.3-0.9,2.2-0.9c0.9,0,1.6,0.3,2.1,0.9c0.5,0.6,0.8,1.4,0.8,2.5
				c0,0.1,0,0.2,0,0.3h-4.8c0,0.7,0.2,1.2,0.6,1.6c0.4,0.4,0.8,0.6,1.3,0.6c0.4,0,0.7-0.1,1-0.3C64.5,259.2,64.7,258.8,64.8,258.4z
				 M61.3,256.6h3.6c0-0.5-0.2-0.9-0.4-1.2c-0.3-0.4-0.8-0.6-1.3-0.6c-0.5,0-0.9,0.2-1.3,0.5C61.5,255.6,61.3,256.1,61.3,256.6z
				 M62.5,253.3l0.8-1.7h1.4l-1.3,1.7H62.5z"/>
			<path id="XMLID_60_" d="M69.7,259.5l0.2,1c-0.3,0.1-0.6,0.1-0.8,0.1c-0.4,0-0.7-0.1-0.9-0.2c-0.2-0.1-0.4-0.3-0.5-0.5
				c-0.1-0.2-0.1-0.6-0.1-1.3v-3.7h-0.8v-0.8h0.8v-1.6l1.1-0.6v2.2h1.1v0.8h-1.1v3.7c0,0.3,0,0.5,0.1,0.6c0,0.1,0.1,0.2,0.2,0.2
				c0.1,0.1,0.2,0.1,0.4,0.1C69.3,259.5,69.5,259.5,69.7,259.5z"/>
			<path id="XMLID_62_" d="M70.3,257.2c0-1.2,0.3-2.1,1-2.6c0.5-0.5,1.2-0.7,2-0.7c0.9,0,1.6,0.3,2.2,0.9s0.8,1.4,0.8,2.4
				c0,0.8-0.1,1.5-0.4,1.9s-0.6,0.8-1.1,1.1s-1,0.4-1.5,0.4c-0.9,0-1.6-0.3-2.2-0.9C70.6,259.2,70.3,258.3,70.3,257.2z M71.5,257.2
				c0,0.8,0.2,1.4,0.5,1.8c0.4,0.4,0.8,0.6,1.3,0.6c0.5,0,1-0.2,1.3-0.6c0.4-0.4,0.5-1,0.5-1.9c0-0.8-0.2-1.4-0.5-1.8
				c-0.4-0.4-0.8-0.6-1.3-0.6c-0.5,0-1,0.2-1.3,0.6C71.6,255.8,71.5,256.4,71.5,257.2z"/>
			<path id="XMLID_65_" d="M81.7,260.4v-0.8c-0.4,0.6-1,1-1.8,1c-0.5,0-1-0.1-1.4-0.4c-0.4-0.3-0.8-0.7-1-1.2
				c-0.2-0.5-0.4-1.1-0.4-1.7c0-0.6,0.1-1.2,0.3-1.7c0.2-0.5,0.5-0.9,1-1.2s0.9-0.4,1.4-0.4c0.4,0,0.7,0.1,1,0.2
				c0.3,0.2,0.5,0.4,0.7,0.6v-3.2h1.1v8.8H81.7z M78.3,257.3c0,0.8,0.2,1.4,0.5,1.8c0.3,0.4,0.8,0.6,1.2,0.6c0.5,0,0.9-0.2,1.2-0.6
				c0.3-0.4,0.5-1,0.5-1.8c0-0.9-0.2-1.5-0.5-1.9c-0.3-0.4-0.8-0.6-1.2-0.6c-0.5,0-0.9,0.2-1.2,0.6S78.3,256.4,78.3,257.3z"/>
			<path id="XMLID_68_" d="M84,257.2c0-1.2,0.3-2.1,1-2.6c0.5-0.5,1.2-0.7,2-0.7c0.9,0,1.6,0.3,2.2,0.9s0.8,1.4,0.8,2.4
				c0,0.8-0.1,1.5-0.4,1.9s-0.6,0.8-1.1,1.1s-1,0.4-1.5,0.4c-0.9,0-1.6-0.3-2.2-0.9C84.3,259.2,84,258.3,84,257.2z M85.2,257.2
				c0,0.8,0.2,1.4,0.5,1.8c0.4,0.4,0.8,0.6,1.3,0.6c0.5,0,1-0.2,1.3-0.6c0.4-0.4,0.5-1,0.5-1.9c0-0.8-0.2-1.4-0.5-1.8
				c-0.4-0.4-0.8-0.6-1.3-0.6c-0.5,0-1,0.2-1.3,0.6C85.3,255.8,85.2,256.4,85.2,257.2z"/>
			<path id="XMLID_71_" d="M90.9,258.5l1.1-0.2c0.1,0.4,0.2,0.8,0.5,1c0.3,0.2,0.7,0.3,1.2,0.3c0.5,0,0.9-0.1,1.1-0.3
				c0.2-0.2,0.4-0.4,0.4-0.7c0-0.2-0.1-0.4-0.3-0.6c-0.1-0.1-0.5-0.2-1.1-0.4c-0.8-0.2-1.3-0.4-1.7-0.5s-0.5-0.3-0.7-0.6
				c-0.2-0.3-0.2-0.5-0.2-0.9c0-0.3,0.1-0.5,0.2-0.8c0.1-0.2,0.3-0.4,0.5-0.6c0.2-0.1,0.4-0.2,0.7-0.3c0.3-0.1,0.6-0.1,0.9-0.1
				c0.5,0,0.9,0.1,1.3,0.2s0.7,0.3,0.8,0.6c0.2,0.2,0.3,0.6,0.4,1l-1.1,0.1c0-0.3-0.2-0.6-0.4-0.8s-0.6-0.3-1-0.3
				c-0.5,0-0.9,0.1-1.1,0.2s-0.3,0.4-0.3,0.6c0,0.1,0,0.3,0.1,0.4c0.1,0.1,0.2,0.2,0.4,0.3c0.1,0,0.4,0.1,1,0.3
				c0.8,0.2,1.3,0.4,1.6,0.5s0.5,0.3,0.7,0.6c0.2,0.2,0.3,0.6,0.3,0.9c0,0.4-0.1,0.7-0.3,1c-0.2,0.3-0.5,0.6-0.9,0.7
				c-0.4,0.2-0.8,0.3-1.3,0.3c-0.8,0-1.5-0.2-1.9-0.5C91.3,259.7,91,259.2,90.9,258.5z"/>
		</g>
	</g>
	<polyline id="XMLID_11957_" class="st9" points="67.5,161.6 67.5,136.4 388.6,136.4 388.6,161.6 	"/>
	<g id="XMLID_12036_">
		<g id="XMLID_499_">
			<line id="XMLID_502_" class="st9" x1="228" y1="113.1" x2="228" y2="162.9"/>
			<g id="XMLID_500_">
				<polygon id="XMLID_501_" class="st10" points="222.5,117.4 228,115 233.6,117.4 228,104.2 				"/>
			</g>
		</g>
	</g>
</g>
</svg>
