<?xml version="1.0" encoding="utf-8"?>
<!-- Generator: Adobe Illustrator 19.0.0, SVG Export Plug-In . SVG Version: 6.00 Build 0)  -->
<svg version="1.1" id="Capa_1" xmlns="http://www.w3.org/2000/svg" xmlns:xlink="http://www.w3.org/1999/xlink" x="0px" y="0px"
	 viewBox="0 0 1113.2 361.9" style="enable-background:new 0 0 1113.2 361.9;" xml:space="preserve">
<style type="text/css">
	.st0{fill:#E8A91C;}
	.st1{fill:#FFFFFF;}
	.st2{fill:#F9D523;stroke:#E8A91C;stroke-width:2;stroke-miterlimit:10;}
	.st3{fill:none;stroke:#FFFFFF;stroke-width:2;stroke-linecap:round;stroke-miterlimit:10;}
	.st4{fill:#FFFFFF;stroke:#F29422;stroke-width:2;stroke-miterlimit:10;}
	.st5{fill:#F9D523;}
	.st6{fill:none;stroke:#F9D523;stroke-width:2;stroke-miterlimit:10;}
	.st7{fill:#FFFFFF;stroke:#0367A6;stroke-width:2;stroke-miterlimit:10;}
	.st8{fill:none;stroke:#B2B2B2;stroke-width:2;stroke-miterlimit:10;}
	.st9{fill:#B2B2B2;}
	.st10{stroke:#B2B2B2;stroke-width:5;stroke-miterlimit:10;}
</style>
<g id="XMLID_2_">
	<g id="XMLID_9341_">
		<g id="XMLID_9366_">
			<path id="XMLID_9531_" class="st0" d="M42.9,324.9l-13.8-18.7v-12.4h11.1c0.6,0,1.1-0.5,1.1-1.1c0-0.6-0.5-1.1-1.1-1.1H29.1v-9.4
				c0-0.6-0.5-1.1-1.1-1.1c-0.6,0-1.1,0.5-1.1,1.1v9.4H15.8c-0.6,0-1.1,0.5-1.1,1.1c0,0.6,0.5,1.1,1.1,1.1h11.1v12.4l-14.1,18.7
				c-0.4,0.5-0.3,1.2,0.2,1.5c0.2,0.2,0.4,0.2,0.7,0.2c0.3,0,0.7-0.2,0.9-0.4L28,308.4l13.1,17.8c0.2,0.3,0.6,0.4,0.9,0.4
				c0.2,0,0.5-0.1,0.7-0.2C43.1,326,43.2,325.3,42.9,324.9z"/>
			<circle id="XMLID_9530_" class="st1" cx="28" cy="274.1" r="11.4"/>
			<path id="XMLID_9367_" class="st0" d="M28,286.3c-6.7,0-12.2-5.5-12.2-12.2c0-6.7,5.5-12.2,12.2-12.2c6.7,0,12.2,5.5,12.2,12.2
				C40.2,280.8,34.7,286.3,28,286.3z M28,263.4c-5.9,0-10.7,4.8-10.7,10.7c0,5.9,4.8,10.7,10.7,10.7c5.9,0,10.7-4.8,10.7-10.7
				C38.7,268.2,33.9,263.4,28,263.4z"/>
		</g>
		<rect id="XMLID_9365_" x="95.9" y="113" class="st2" width="308.9" height="247.9"/>
		<g id="XMLID_531_">
			<path id="XMLID_532_" class="st1" d="M0,350.5v-9.2h6.8v1.6h-5v2h4.6v1.6H1.9v2.5H7v1.6H0z"/>
			<path id="XMLID_534_" class="st1" d="M8.4,343.9h1.6v0.9c0.6-0.7,1.3-1.1,2.1-1.1c0.4,0,0.8,0.1,1.1,0.3s0.6,0.4,0.8,0.8
				c0.3-0.4,0.6-0.6,0.9-0.8c0.3-0.2,0.7-0.3,1.1-0.3c0.5,0,0.9,0.1,1.2,0.3c0.3,0.2,0.6,0.5,0.8,0.9c0.1,0.3,0.2,0.7,0.2,1.4v4.3
				h-1.8v-3.8c0-0.7-0.1-1.1-0.2-1.3c-0.2-0.3-0.4-0.4-0.8-0.4c-0.2,0-0.5,0.1-0.7,0.2c-0.2,0.2-0.4,0.4-0.5,0.7s-0.1,0.8-0.1,1.4
				v3.2h-1.8v-3.7c0-0.6,0-1.1-0.1-1.3s-0.2-0.3-0.3-0.4c-0.1-0.1-0.3-0.1-0.5-0.1c-0.3,0-0.5,0.1-0.7,0.2c-0.2,0.1-0.4,0.4-0.5,0.6
				c-0.1,0.3-0.1,0.7-0.1,1.4v3.2H8.4V343.9z"/>
			<path id="XMLID_536_" class="st1" d="M20,343.9h1.6v1c0.2-0.3,0.5-0.6,0.9-0.8c0.4-0.2,0.8-0.3,1.2-0.3c0.8,0,1.4,0.3,2,0.9
				c0.5,0.6,0.8,1.5,0.8,2.5c0,1.1-0.3,2-0.8,2.6c-0.5,0.6-1.2,0.9-2,0.9c-0.4,0-0.7-0.1-1-0.2c-0.3-0.1-0.6-0.4-0.9-0.8v3.4H20
				V343.9z M21.7,347.1c0,0.8,0.1,1.3,0.4,1.7c0.3,0.4,0.7,0.5,1.1,0.5c0.4,0,0.8-0.2,1-0.5s0.4-0.9,0.4-1.6c0-0.7-0.1-1.2-0.4-1.6
				c-0.3-0.3-0.6-0.5-1-0.5c-0.4,0-0.8,0.2-1.1,0.5C21.9,345.9,21.7,346.4,21.7,347.1z"/>
			<path id="XMLID_539_" class="st1" d="M27.9,350.5v-9.2h1.8v9.2H27.9z"/>
			<path id="XMLID_541_" class="st1" d="M35.3,348.4l1.8,0.3c-0.2,0.6-0.6,1.1-1.1,1.5c-0.5,0.3-1.1,0.5-1.8,0.5
				c-1.2,0-2-0.4-2.6-1.1c-0.4-0.6-0.7-1.4-0.7-2.3c0-1.1,0.3-2,0.9-2.6c0.6-0.6,1.3-0.9,2.2-0.9c1,0,1.8,0.3,2.4,1
				c0.6,0.7,0.8,1.7,0.8,3h-4.4c0,0.5,0.2,0.9,0.4,1.2c0.3,0.3,0.6,0.4,1,0.4c0.3,0,0.5-0.1,0.7-0.2C35.1,349,35.2,348.8,35.3,348.4
				z M35.4,346.6c0-0.5-0.1-0.9-0.4-1.2c-0.3-0.3-0.6-0.4-0.9-0.4c-0.4,0-0.7,0.1-1,0.4c-0.3,0.3-0.4,0.7-0.4,1.1H35.4z"/>
			<path id="XMLID_544_" class="st1" d="M39.9,345.9l-1.6-0.3c0.2-0.6,0.5-1.1,0.9-1.4c0.4-0.3,1.1-0.5,2-0.5c0.8,0,1.4,0.1,1.8,0.3
				s0.7,0.4,0.8,0.7s0.2,0.8,0.2,1.6l0,2.1c0,0.6,0,1,0.1,1.3c0.1,0.3,0.2,0.6,0.3,0.9h-1.7c0-0.1-0.1-0.3-0.2-0.5
				c0-0.1,0-0.2-0.1-0.2c-0.3,0.3-0.6,0.5-1,0.7s-0.7,0.2-1.1,0.2c-0.7,0-1.2-0.2-1.6-0.6c-0.4-0.4-0.6-0.8-0.6-1.4
				c0-0.4,0.1-0.7,0.3-1c0.2-0.3,0.4-0.5,0.8-0.7c0.3-0.2,0.8-0.3,1.4-0.4c0.8-0.2,1.4-0.3,1.7-0.4V346c0-0.3-0.1-0.6-0.3-0.7
				s-0.5-0.2-0.9-0.2c-0.3,0-0.6,0.1-0.7,0.2C40.2,345.4,40,345.6,39.9,345.9z M42.3,347.3c-0.2,0.1-0.6,0.2-1.1,0.3
				c-0.5,0.1-0.8,0.2-1,0.3c-0.2,0.2-0.3,0.4-0.3,0.6c0,0.2,0.1,0.5,0.3,0.6c0.2,0.2,0.4,0.3,0.7,0.3c0.3,0,0.6-0.1,0.9-0.3
				c0.2-0.2,0.4-0.4,0.4-0.6c0-0.2,0.1-0.4,0.1-0.9V347.3z"/>
			<path id="XMLID_547_" class="st1" d="M51.9,350.5h-1.6v-1c-0.3,0.4-0.6,0.7-1,0.9s-0.7,0.3-1.1,0.3c-0.8,0-1.4-0.3-2-0.9
				c-0.5-0.6-0.8-1.5-0.8-2.6c0-1.1,0.3-2,0.8-2.6s1.2-0.9,2-0.9c0.7,0,1.4,0.3,1.9,0.9v-3.3h1.8V350.5z M47.2,347.1
				c0,0.7,0.1,1.2,0.3,1.5c0.3,0.5,0.7,0.7,1.2,0.7c0.4,0,0.8-0.2,1-0.5c0.3-0.3,0.4-0.9,0.4-1.5c0-0.8-0.1-1.3-0.4-1.7
				c-0.3-0.3-0.6-0.5-1.1-0.5c-0.4,0-0.8,0.2-1.1,0.5S47.2,346.4,47.2,347.1z"/>
			<path id="XMLID_550_" class="st1" d="M53.2,347.1c0-0.6,0.1-1.2,0.4-1.7s0.7-1,1.2-1.3s1.1-0.4,1.8-0.4c1,0,1.8,0.3,2.5,1
				c0.6,0.7,1,1.5,1,2.5c0,1-0.3,1.8-1,2.5c-0.7,0.7-1.5,1-2.5,1c-0.6,0-1.2-0.1-1.8-0.4c-0.6-0.3-1-0.7-1.3-1.2
				S53.2,347.9,53.2,347.1z M55,347.2c0,0.7,0.2,1.2,0.5,1.5c0.3,0.4,0.7,0.5,1.2,0.5c0.5,0,0.8-0.2,1.2-0.5
				c0.3-0.4,0.5-0.9,0.5-1.5c0-0.7-0.2-1.2-0.5-1.5c-0.3-0.4-0.7-0.5-1.2-0.5c-0.5,0-0.8,0.2-1.2,0.5C55.2,346,55,346.5,55,347.2z"
				/>
		</g>
		<g id="XMLID_9358_">
			<path id="XMLID_9363_" class="st0" d="M42.9,179.5l-13.8-18.7v-12.4h11.1c0.6,0,1.1-0.5,1.1-1.1c0-0.6-0.5-1.1-1.1-1.1H29.1v-9.4
				c0-0.6-0.5-1.1-1.1-1.1c-0.6,0-1.1,0.5-1.1,1.1v9.4H15.8c-0.6,0-1.1,0.5-1.1,1.1c0,0.6,0.5,1.1,1.1,1.1h11.1v12.4l-14.1,18.7
				c-0.4,0.5-0.3,1.2,0.2,1.5c0.2,0.1,0.4,0.2,0.7,0.2c0.3,0,0.7-0.2,0.9-0.4L28,163.1l13.1,17.8c0.2,0.3,0.6,0.4,0.9,0.4
				c0.2,0,0.5-0.1,0.7-0.2C43.1,180.7,43.2,180,42.9,179.5z"/>
			<circle id="XMLID_9362_" class="st1" cx="28" cy="128.7" r="11.4"/>
			<path id="XMLID_9359_" class="st0" d="M28,140.9c-6.7,0-12.2-5.5-12.2-12.2c0-6.7,5.5-12.2,12.2-12.2c6.7,0,12.2,5.5,12.2,12.2
				C40.2,135.4,34.7,140.9,28,140.9z M28,118c-5.9,0-10.7,4.8-10.7,10.7c0,5.9,4.8,10.7,10.7,10.7c5.9,0,10.7-4.8,10.7-10.7
				C38.7,122.8,33.9,118,28,118z"/>
		</g>
		<g id="XMLID_513_">
			<path id="XMLID_514_" class="st1" d="M8.6,202.4v-9.2h2.8l1.7,6.3l1.7-6.3h2.8v9.2h-1.7v-7.3l-1.8,7.3h-1.8l-1.8-7.3v7.3H8.6z"/>
			<path id="XMLID_516_" class="st1" d="M23.2,200.3l1.8,0.3c-0.2,0.6-0.6,1.1-1.1,1.5c-0.5,0.3-1.1,0.5-1.8,0.5
				c-1.2,0-2-0.4-2.6-1.1c-0.4-0.6-0.7-1.4-0.7-2.3c0-1.1,0.3-2,0.9-2.6c0.6-0.6,1.3-0.9,2.2-0.9c1,0,1.8,0.3,2.4,1
				c0.6,0.7,0.8,1.7,0.8,3h-4.4c0,0.5,0.2,0.9,0.4,1.2c0.3,0.3,0.6,0.4,1,0.4c0.3,0,0.5-0.1,0.7-0.2
				C22.9,200.8,23.1,200.6,23.2,200.3z M23.3,198.5c0-0.5-0.1-0.9-0.4-1.2c-0.3-0.3-0.6-0.4-0.9-0.4c-0.4,0-0.7,0.1-1,0.4
				c-0.3,0.3-0.4,0.7-0.4,1.1H23.3z M21,194.9l0.9-1.9h2l-1.7,1.9H21z"/>
			<path id="XMLID_520_" class="st1" d="M32.6,202.4h-1.6v-1c-0.3,0.4-0.6,0.7-1,0.9s-0.7,0.3-1.1,0.3c-0.8,0-1.4-0.3-2-0.9
				c-0.5-0.6-0.8-1.5-0.8-2.6c0-1.1,0.3-2,0.8-2.6s1.2-0.9,2-0.9c0.7,0,1.4,0.3,1.9,0.9v-3.3h1.8V202.4z M27.9,198.9
				c0,0.7,0.1,1.2,0.3,1.5c0.3,0.5,0.7,0.7,1.2,0.7c0.4,0,0.8-0.2,1-0.5s0.4-0.9,0.4-1.5c0-0.8-0.1-1.3-0.4-1.7
				c-0.3-0.3-0.6-0.5-1.1-0.5c-0.4,0-0.8,0.2-1.1,0.5S27.9,198.2,27.9,198.9z"/>
			<path id="XMLID_523_" class="st1" d="M34.3,194.8v-1.6h1.8v1.6H34.3z M34.3,202.4v-6.7h1.8v6.7H34.3z"/>
			<path id="XMLID_526_" class="st1" d="M43.7,197.7L42,198c-0.1-0.3-0.2-0.6-0.4-0.8c-0.2-0.2-0.5-0.3-0.8-0.3
				c-0.4,0-0.8,0.2-1.1,0.5s-0.4,0.8-0.4,1.5c0,0.8,0.1,1.4,0.4,1.7c0.3,0.3,0.6,0.5,1.1,0.5c0.3,0,0.6-0.1,0.8-0.3s0.4-0.5,0.5-1
				l1.7,0.3c-0.2,0.8-0.5,1.4-1,1.8c-0.5,0.4-1.2,0.6-2.1,0.6c-1,0-1.8-0.3-2.3-0.9c-0.6-0.6-0.9-1.5-0.9-2.6c0-1.1,0.3-2,0.9-2.6
				c0.6-0.6,1.4-0.9,2.4-0.9c0.8,0,1.5,0.2,1.9,0.5C43.2,196.4,43.5,197,43.7,197.7z"/>
			<path id="XMLID_528_" class="st1" d="M44.6,199c0-0.6,0.1-1.2,0.4-1.7s0.7-1,1.2-1.3s1.1-0.4,1.8-0.4c1,0,1.8,0.3,2.5,1
				c0.6,0.7,1,1.5,1,2.5c0,1-0.3,1.8-1,2.5c-0.7,0.7-1.5,1-2.5,1c-0.6,0-1.2-0.1-1.8-0.4c-0.6-0.3-1-0.7-1.3-1.2
				S44.6,199.7,44.6,199z M46.5,199.1c0,0.7,0.2,1.2,0.5,1.5c0.3,0.4,0.7,0.5,1.2,0.5c0.5,0,0.8-0.2,1.2-0.5
				c0.3-0.4,0.5-0.9,0.5-1.5c0-0.7-0.2-1.2-0.5-1.5c-0.3-0.4-0.7-0.5-1.2-0.5c-0.5,0-0.8,0.2-1.2,0.5
				C46.6,197.9,46.5,198.4,46.5,199.1z"/>
		</g>
		<g id="XMLID_497_">
			<path id="XMLID_498_" d="M217.6,137.9l2.1-0.2c0.1,0.7,0.4,1.2,0.8,1.6c0.4,0.3,0.9,0.5,1.6,0.5c0.7,0,1.2-0.1,1.6-0.4
				c0.4-0.3,0.5-0.6,0.5-1c0-0.3-0.1-0.5-0.2-0.6c-0.1-0.2-0.4-0.3-0.8-0.5c-0.3-0.1-0.8-0.2-1.7-0.5c-1.2-0.3-2-0.6-2.4-1.1
				c-0.7-0.6-1-1.3-1-2.2c0-0.5,0.2-1.1,0.5-1.5c0.3-0.5,0.8-0.8,1.3-1.1c0.6-0.2,1.3-0.4,2.1-0.4c1.3,0,2.4,0.3,3,0.9
				s1,1.4,1.1,2.4l-2.2,0.1c-0.1-0.6-0.3-0.9-0.6-1.2s-0.8-0.4-1.4-0.4c-0.6,0-1.1,0.1-1.5,0.4c-0.2,0.2-0.3,0.4-0.3,0.7
				c0,0.3,0.1,0.5,0.3,0.7c0.3,0.2,0.9,0.5,2,0.7c1.1,0.2,1.8,0.5,2.3,0.8c0.5,0.3,0.9,0.6,1.2,1.1c0.3,0.5,0.4,1,0.4,1.7
				c0,0.6-0.2,1.2-0.5,1.7c-0.3,0.5-0.8,0.9-1.4,1.2s-1.4,0.4-2.3,0.4c-1.4,0-2.4-0.3-3.1-0.9C218.2,140.1,217.7,139.1,217.6,137.9z
				"/>
			<path id="XMLID_500_" d="M228.1,141.4v-10.7h2.2v10.7H228.1z"/>
			<path id="XMLID_502_" d="M231.7,137.9l2.1-0.2c0.1,0.7,0.4,1.2,0.8,1.6c0.4,0.3,0.9,0.5,1.6,0.5c0.7,0,1.2-0.1,1.6-0.4
				c0.4-0.3,0.5-0.6,0.5-1c0-0.3-0.1-0.5-0.2-0.6c-0.1-0.2-0.4-0.3-0.8-0.5c-0.3-0.1-0.8-0.2-1.7-0.5c-1.2-0.3-2-0.6-2.4-1.1
				c-0.7-0.6-1-1.3-1-2.2c0-0.5,0.2-1.1,0.5-1.5c0.3-0.5,0.8-0.8,1.3-1.1c0.6-0.2,1.3-0.4,2.1-0.4c1.3,0,2.4,0.3,3,0.9
				s1,1.4,1.1,2.4l-2.2,0.1c-0.1-0.6-0.3-0.9-0.6-1.2s-0.8-0.4-1.4-0.4c-0.6,0-1.1,0.1-1.5,0.4c-0.2,0.2-0.3,0.4-0.3,0.7
				c0,0.3,0.1,0.5,0.3,0.7c0.3,0.2,0.9,0.5,2,0.7c1.1,0.2,1.8,0.5,2.3,0.8c0.5,0.3,0.9,0.6,1.2,1.1c0.3,0.5,0.4,1,0.4,1.7
				c0,0.6-0.2,1.2-0.5,1.7c-0.3,0.5-0.8,0.9-1.4,1.2s-1.4,0.4-2.3,0.4c-1.4,0-2.4-0.3-3.1-0.9C232.3,140.1,231.9,139.1,231.7,137.9z
				"/>
			<path id="XMLID_504_" d="M244.7,141.4v-8.9h-3.2v-1.8h8.5v1.8h-3.2v8.9H244.7z"/>
			<path id="XMLID_506_" d="M251.4,141.4v-10.7h8v1.8h-5.8v2.4h5.4v1.8h-5.4v2.9h6v1.8H251.4z"/>
			<path id="XMLID_508_" d="M261.4,141.4v-10.7h3.2l1.9,7.3l1.9-7.3h3.2v10.7h-2V133l-2.1,8.4h-2.1l-2.1-8.4v8.4H261.4z"/>
			<path id="XMLID_510_" d="M283.6,141.4h-2.4l-0.9-2.4H276l-0.9,2.4h-2.3l4.2-10.7h2.3L283.6,141.4z M279.6,137.2l-1.5-4l-1.4,4
				H279.6z"/>
		</g>
		<line id="XMLID_9355_" class="st3" x1="152.5" y1="176.7" x2="57.4" y2="190.3"/>
		<line id="XMLID_9354_" class="st3" x1="147.7" y1="226.7" x2="57.4" y2="196.5"/>
		<line id="XMLID_9353_" class="st3" x1="152.5" y1="277" x2="57.4" y2="288.4"/>
		<line id="XMLID_9352_" class="st3" x1="147.7" y1="326.1" x2="57.4" y2="294.6"/>
		<line id="XMLID_9351_" class="st3" x1="147.7" y1="274.1" x2="57.4" y2="205.3"/>
		<line id="XMLID_9350_" class="st3" x1="147.7" y1="321.7" x2="57.4" y2="211.4"/>
		<ellipse id="XMLID_9349_" cx="250.4" cy="324.8" rx="105.9" ry="21.7"/>
		<ellipse id="XMLID_9348_" cx="250.4" cy="275.5" rx="105.9" ry="21.7"/>
		<ellipse id="XMLID_9347_" cx="250.4" cy="226.1" rx="105.9" ry="21.7"/>
		<ellipse id="XMLID_9346_" cx="250.4" cy="176.7" rx="105.9" ry="21.7"/>
		<g id="XMLID_430_">
			<path id="XMLID_431_" class="st1" d="M183.9,181.3l2.8-7.4h1.1l3,7.4h-1.1l-0.9-2.2h-3.1l-0.8,2.2H183.9z M186,178.3h2.5l-0.8-2
				c-0.2-0.6-0.4-1.1-0.5-1.5c-0.1,0.5-0.2,0.9-0.4,1.4L186,178.3z"/>
			<path id="XMLID_434_" class="st1" d="M194.9,181.3v-0.7c-0.3,0.5-0.8,0.8-1.5,0.8c-0.4,0-0.8-0.1-1.2-0.4s-0.6-0.6-0.8-1
				s-0.3-0.9-0.3-1.5c0-0.5,0.1-1,0.3-1.5c0.2-0.4,0.4-0.8,0.8-1s0.8-0.3,1.2-0.3c0.3,0,0.6,0.1,0.9,0.2c0.3,0.1,0.5,0.3,0.6,0.5
				v-2.6h0.9v7.4H194.9z M192.1,178.6c0,0.7,0.1,1.2,0.4,1.5c0.3,0.3,0.6,0.5,1,0.5c0.4,0,0.7-0.2,1-0.5c0.3-0.3,0.4-0.8,0.4-1.5
				c0-0.7-0.1-1.3-0.4-1.6c-0.3-0.3-0.6-0.5-1-0.5c-0.4,0-0.7,0.2-1,0.5C192.2,177.4,192.1,177.9,192.1,178.6z"/>
			<path id="XMLID_437_" class="st1" d="M197.2,181.3v-5.3h0.8v0.7c0.2-0.3,0.4-0.5,0.7-0.6c0.3-0.2,0.6-0.2,1-0.2
				c0.4,0,0.7,0.1,1,0.2c0.3,0.2,0.4,0.4,0.5,0.7c0.4-0.6,1-0.9,1.7-0.9c0.5,0,0.9,0.1,1.2,0.4c0.3,0.3,0.4,0.7,0.4,1.4v3.7h-0.9
				v-3.4c0-0.4,0-0.6-0.1-0.8s-0.2-0.3-0.3-0.4s-0.3-0.1-0.5-0.1c-0.4,0-0.7,0.1-0.9,0.4c-0.2,0.3-0.4,0.6-0.4,1.2v3.1h-0.9v-3.5
				c0-0.4-0.1-0.7-0.2-0.9s-0.4-0.3-0.7-0.3c-0.3,0-0.5,0.1-0.7,0.2c-0.2,0.1-0.4,0.3-0.5,0.6s-0.1,0.6-0.1,1.1v2.8H197.2z"/>
			<path id="XMLID_439_" class="st1" d="M205.8,174.9v-1h0.9v1H205.8z M205.8,181.3v-5.3h0.9v5.3H205.8z"/>
			<path id="XMLID_442_" class="st1" d="M208.1,181.3v-5.3h0.8v0.8c0.4-0.6,1-0.9,1.7-0.9c0.3,0,0.6,0.1,0.9,0.2
				c0.3,0.1,0.5,0.3,0.6,0.5c0.1,0.2,0.2,0.4,0.3,0.7c0,0.2,0,0.5,0,0.9v3.3h-0.9V178c0-0.4,0-0.6-0.1-0.8c-0.1-0.2-0.2-0.3-0.4-0.4
				s-0.4-0.2-0.6-0.2c-0.4,0-0.7,0.1-1,0.4c-0.3,0.2-0.4,0.7-0.4,1.4v2.9H208.1z"/>
			<path id="XMLID_444_" class="st1" d="M213.8,174.9v-1h0.9v1H213.8z M213.8,181.3v-5.3h0.9v5.3H213.8z"/>
			<path id="XMLID_447_" class="st1" d="M215.7,179.7l0.9-0.1c0,0.4,0.2,0.6,0.4,0.8c0.2,0.2,0.6,0.3,1,0.3c0.4,0,0.7-0.1,0.9-0.3
				s0.3-0.4,0.3-0.6c0-0.2-0.1-0.4-0.3-0.5c-0.1-0.1-0.4-0.2-0.9-0.3c-0.7-0.2-1.1-0.3-1.4-0.4c-0.3-0.1-0.5-0.3-0.6-0.5
				c-0.1-0.2-0.2-0.5-0.2-0.7c0-0.2,0.1-0.5,0.2-0.7c0.1-0.2,0.3-0.4,0.4-0.5c0.1-0.1,0.3-0.2,0.6-0.3c0.2-0.1,0.5-0.1,0.8-0.1
				c0.4,0,0.8,0.1,1.1,0.2c0.3,0.1,0.6,0.3,0.7,0.5c0.2,0.2,0.3,0.5,0.3,0.8l-0.9,0.1c0-0.3-0.2-0.5-0.3-0.6
				c-0.2-0.2-0.5-0.2-0.8-0.2c-0.4,0-0.7,0.1-0.9,0.2c-0.2,0.1-0.3,0.3-0.3,0.5c0,0.1,0,0.2,0.1,0.3c0.1,0.1,0.2,0.2,0.3,0.2
				c0.1,0,0.4,0.1,0.8,0.2c0.6,0.2,1.1,0.3,1.3,0.4s0.5,0.3,0.6,0.5c0.1,0.2,0.2,0.5,0.2,0.8c0,0.3-0.1,0.6-0.3,0.9
				c-0.2,0.3-0.4,0.5-0.8,0.6s-0.7,0.2-1.1,0.2c-0.7,0-1.2-0.1-1.6-0.4C216.1,180.7,215.8,180.3,215.7,179.7z"/>
			<path id="XMLID_449_" class="st1" d="M223.2,180.5l0.1,0.8c-0.3,0.1-0.5,0.1-0.7,0.1c-0.3,0-0.6-0.1-0.8-0.2
				c-0.2-0.1-0.3-0.2-0.4-0.4c-0.1-0.2-0.1-0.5-0.1-1.1v-3.1h-0.7v-0.7h0.7v-1.3l0.9-0.5v1.9h0.9v0.7h-0.9v3.1c0,0.3,0,0.4,0,0.5
				c0,0.1,0.1,0.1,0.2,0.2c0.1,0,0.2,0.1,0.3,0.1C222.9,180.5,223.1,180.5,223.2,180.5z"/>
			<path id="XMLID_451_" class="st1" d="M224.1,181.3v-5.3h0.8v0.8c0.2-0.4,0.4-0.6,0.6-0.7c0.2-0.1,0.4-0.2,0.6-0.2
				c0.3,0,0.6,0.1,0.9,0.3l-0.3,0.8c-0.2-0.1-0.4-0.2-0.7-0.2c-0.2,0-0.4,0.1-0.5,0.2c-0.2,0.1-0.3,0.3-0.3,0.5
				c-0.1,0.3-0.2,0.7-0.2,1.1v2.8H224.1z"/>
			<path id="XMLID_453_" class="st1" d="M231,180.6c-0.3,0.3-0.7,0.5-1,0.6c-0.3,0.1-0.6,0.2-1,0.2c-0.6,0-1-0.1-1.4-0.4
				c-0.3-0.3-0.5-0.7-0.5-1.1c0-0.3,0.1-0.5,0.2-0.7s0.3-0.4,0.5-0.5c0.2-0.1,0.4-0.2,0.7-0.3c0.2,0,0.4-0.1,0.8-0.1
				c0.7-0.1,1.3-0.2,1.6-0.3c0-0.1,0-0.2,0-0.2c0-0.4-0.1-0.6-0.3-0.8c-0.2-0.2-0.6-0.3-1-0.3c-0.4,0-0.7,0.1-0.9,0.2
				c-0.2,0.1-0.4,0.4-0.5,0.8l-0.9-0.1c0.1-0.4,0.2-0.7,0.4-0.9c0.2-0.2,0.5-0.4,0.8-0.5c0.3-0.1,0.8-0.2,1.2-0.2
				c0.5,0,0.8,0.1,1.1,0.2s0.5,0.2,0.6,0.4s0.2,0.4,0.3,0.6c0,0.2,0,0.4,0,0.8v1.2c0,0.8,0,1.4,0.1,1.6c0,0.2,0.1,0.4,0.2,0.6h-0.9
				C231.1,181.1,231.1,180.9,231,180.6z M231,178.6c-0.3,0.1-0.8,0.2-1.5,0.3c-0.4,0.1-0.6,0.1-0.8,0.2s-0.3,0.2-0.4,0.3
				c-0.1,0.1-0.1,0.3-0.1,0.4c0,0.2,0.1,0.4,0.3,0.6s0.5,0.2,0.8,0.2c0.3,0,0.7-0.1,0.9-0.2c0.3-0.2,0.5-0.4,0.6-0.6
				c0.1-0.2,0.1-0.5,0.1-0.9V178.6z"/>
			<path id="XMLID_456_" class="st1" d="M233.3,181.3v-5.3h0.8v0.8c0.2-0.4,0.4-0.6,0.6-0.7c0.2-0.1,0.4-0.2,0.6-0.2
				c0.3,0,0.6,0.1,0.9,0.3l-0.3,0.8c-0.2-0.1-0.4-0.2-0.7-0.2c-0.2,0-0.4,0.1-0.5,0.2c-0.2,0.1-0.3,0.3-0.3,0.5
				c-0.1,0.3-0.2,0.7-0.2,1.1v2.8H233.3z"/>
			<path id="XMLID_458_" class="st1" d="M240.2,180.6c-0.3,0.3-0.7,0.5-1,0.6c-0.3,0.1-0.6,0.2-1,0.2c-0.6,0-1-0.1-1.4-0.4
				c-0.3-0.3-0.5-0.7-0.5-1.1c0-0.3,0.1-0.5,0.2-0.7s0.3-0.4,0.5-0.5c0.2-0.1,0.4-0.2,0.7-0.3c0.2,0,0.4-0.1,0.8-0.1
				c0.7-0.1,1.3-0.2,1.6-0.3c0-0.1,0-0.2,0-0.2c0-0.4-0.1-0.6-0.3-0.8c-0.2-0.2-0.6-0.3-1-0.3c-0.4,0-0.7,0.1-0.9,0.2
				c-0.2,0.1-0.4,0.4-0.5,0.8l-0.9-0.1c0.1-0.4,0.2-0.7,0.4-0.9c0.2-0.2,0.5-0.4,0.8-0.5c0.3-0.1,0.8-0.2,1.2-0.2
				c0.5,0,0.8,0.1,1.1,0.2s0.5,0.2,0.6,0.4s0.2,0.4,0.3,0.6c0,0.2,0,0.4,0,0.8v1.2c0,0.8,0,1.4,0.1,1.6c0,0.2,0.1,0.4,0.2,0.6h-0.9
				C240.3,181.1,240.2,180.9,240.2,180.6z M240.1,178.6c-0.3,0.1-0.8,0.2-1.5,0.3c-0.4,0.1-0.6,0.1-0.8,0.2s-0.3,0.2-0.4,0.3
				c-0.1,0.1-0.1,0.3-0.1,0.4c0,0.2,0.1,0.4,0.3,0.6s0.5,0.2,0.8,0.2c0.3,0,0.7-0.1,0.9-0.2c0.3-0.2,0.5-0.4,0.6-0.6
				c0.1-0.2,0.1-0.5,0.1-0.9V178.6z"/>
			<path id="XMLID_461_" class="st1" d="M248.8,181.3v-0.7c-0.3,0.5-0.8,0.8-1.5,0.8c-0.4,0-0.8-0.1-1.2-0.4s-0.6-0.6-0.8-1
				s-0.3-0.9-0.3-1.5c0-0.5,0.1-1,0.3-1.5c0.2-0.4,0.4-0.8,0.8-1s0.8-0.3,1.2-0.3c0.3,0,0.6,0.1,0.9,0.2c0.3,0.1,0.5,0.3,0.6,0.5
				v-2.6h0.9v7.4H248.8z M245.9,178.6c0,0.7,0.1,1.2,0.4,1.5c0.3,0.3,0.6,0.5,1,0.5c0.4,0,0.7-0.2,1-0.5c0.3-0.3,0.4-0.8,0.4-1.5
				c0-0.7-0.1-1.3-0.4-1.6c-0.3-0.3-0.6-0.5-1-0.5c-0.4,0-0.7,0.2-1,0.5C246,177.4,245.9,177.9,245.9,178.6z"/>
			<path id="XMLID_464_" class="st1" d="M254.5,180.6c-0.3,0.3-0.7,0.5-1,0.6c-0.3,0.1-0.6,0.2-1,0.2c-0.6,0-1-0.1-1.4-0.4
				c-0.3-0.3-0.5-0.7-0.5-1.1c0-0.3,0.1-0.5,0.2-0.7s0.3-0.4,0.5-0.5c0.2-0.1,0.4-0.2,0.7-0.3c0.2,0,0.4-0.1,0.8-0.1
				c0.7-0.1,1.3-0.2,1.6-0.3c0-0.1,0-0.2,0-0.2c0-0.4-0.1-0.6-0.3-0.8c-0.2-0.2-0.6-0.3-1-0.3c-0.4,0-0.7,0.1-0.9,0.2
				c-0.2,0.1-0.4,0.4-0.5,0.8l-0.9-0.1c0.1-0.4,0.2-0.7,0.4-0.9c0.2-0.2,0.5-0.4,0.8-0.5c0.3-0.1,0.8-0.2,1.2-0.2
				c0.5,0,0.8,0.1,1.1,0.2s0.5,0.2,0.6,0.4s0.2,0.4,0.3,0.6c0,0.2,0,0.4,0,0.8v1.2c0,0.8,0,1.4,0.1,1.6c0,0.2,0.1,0.4,0.2,0.6h-0.9
				C254.6,181.1,254.5,180.9,254.5,180.6z M254.4,178.6c-0.3,0.1-0.8,0.2-1.5,0.3c-0.4,0.1-0.6,0.1-0.8,0.2s-0.3,0.2-0.4,0.3
				c-0.1,0.1-0.1,0.3-0.1,0.4c0,0.2,0.1,0.4,0.3,0.6s0.5,0.2,0.8,0.2c0.3,0,0.7-0.1,0.9-0.2c0.3-0.2,0.5-0.4,0.6-0.6
				c0.1-0.2,0.1-0.5,0.1-0.9V178.6z"/>
			<path id="XMLID_467_" class="st1" d="M258.7,180.5l0.1,0.8c-0.3,0.1-0.5,0.1-0.7,0.1c-0.3,0-0.6-0.1-0.8-0.2
				c-0.2-0.1-0.3-0.2-0.4-0.4c-0.1-0.2-0.1-0.5-0.1-1.1v-3.1h-0.7v-0.7h0.7v-1.3l0.9-0.5v1.9h0.9v0.7h-0.9v3.1c0,0.3,0,0.4,0,0.5
				c0,0.1,0.1,0.1,0.2,0.2c0.1,0,0.2,0.1,0.3,0.1C258.4,180.5,258.6,180.5,258.7,180.5z"/>
			<path id="XMLID_469_" class="st1" d="M259.3,178.6c0-1,0.3-1.7,0.8-2.2c0.5-0.4,1-0.6,1.7-0.6c0.7,0,1.3,0.2,1.8,0.7
				c0.5,0.5,0.7,1.1,0.7,2c0,0.7-0.1,1.2-0.3,1.6s-0.5,0.7-0.9,0.9c-0.4,0.2-0.8,0.3-1.3,0.3c-0.7,0-1.4-0.2-1.8-0.7
				C259.5,180.2,259.3,179.5,259.3,178.6z M260.2,178.6c0,0.7,0.1,1.2,0.4,1.5c0.3,0.3,0.7,0.5,1.1,0.5c0.4,0,0.8-0.2,1.1-0.5
				c0.3-0.3,0.4-0.9,0.4-1.6c0-0.7-0.2-1.2-0.5-1.5s-0.7-0.5-1.1-0.5c-0.5,0-0.8,0.2-1.1,0.5C260.4,177.4,260.2,177.9,260.2,178.6z"
				/>
			<path id="XMLID_472_" class="st1" d="M265,179.7l0.9-0.1c0,0.4,0.2,0.6,0.4,0.8c0.2,0.2,0.6,0.3,1,0.3c0.4,0,0.7-0.1,0.9-0.3
				s0.3-0.4,0.3-0.6c0-0.2-0.1-0.4-0.3-0.5c-0.1-0.1-0.4-0.2-0.9-0.3c-0.7-0.2-1.1-0.3-1.4-0.4c-0.3-0.1-0.5-0.3-0.6-0.5
				c-0.1-0.2-0.2-0.5-0.2-0.7c0-0.2,0.1-0.5,0.2-0.7c0.1-0.2,0.3-0.4,0.4-0.5c0.1-0.1,0.3-0.2,0.6-0.3c0.2-0.1,0.5-0.1,0.8-0.1
				c0.4,0,0.8,0.1,1.1,0.2c0.3,0.1,0.6,0.3,0.7,0.5c0.2,0.2,0.3,0.5,0.3,0.8l-0.9,0.1c0-0.3-0.2-0.5-0.3-0.6
				c-0.2-0.2-0.5-0.2-0.8-0.2c-0.4,0-0.7,0.1-0.9,0.2c-0.2,0.1-0.3,0.3-0.3,0.5c0,0.1,0,0.2,0.1,0.3c0.1,0.1,0.2,0.2,0.3,0.2
				c0.1,0,0.4,0.1,0.8,0.2c0.6,0.2,1.1,0.3,1.3,0.4s0.5,0.3,0.6,0.5c0.1,0.2,0.2,0.5,0.2,0.8c0,0.3-0.1,0.6-0.3,0.9
				c-0.2,0.3-0.4,0.5-0.8,0.6s-0.7,0.2-1.1,0.2c-0.7,0-1.2-0.1-1.6-0.4C265.3,180.7,265.1,180.3,265,179.7z"/>
			<path id="XMLID_474_" class="st1" d="M273.4,183.3v-7.4h0.8v0.7c0.2-0.3,0.4-0.5,0.7-0.6s0.5-0.2,0.9-0.2c0.5,0,0.9,0.1,1.2,0.4
				s0.6,0.6,0.8,1s0.3,0.9,0.3,1.4c0,0.5-0.1,1-0.3,1.5c-0.2,0.4-0.5,0.8-0.9,1c-0.4,0.2-0.8,0.3-1.2,0.3c-0.3,0-0.6-0.1-0.8-0.2
				s-0.4-0.3-0.6-0.5v2.6H273.4z M274.2,178.6c0,0.7,0.1,1.2,0.4,1.5s0.6,0.5,1,0.5c0.4,0,0.7-0.2,1-0.5c0.3-0.3,0.4-0.9,0.4-1.6
				c0-0.7-0.1-1.2-0.4-1.5c-0.3-0.3-0.6-0.5-1-0.5c-0.4,0-0.7,0.2-1,0.5C274.3,177.4,274.2,178,274.2,178.6z"/>
			<path id="XMLID_477_" class="st1" d="M282.6,180.6c-0.3,0.3-0.7,0.5-1,0.6c-0.3,0.1-0.6,0.2-1,0.2c-0.6,0-1-0.1-1.4-0.4
				c-0.3-0.3-0.5-0.7-0.5-1.1c0-0.3,0.1-0.5,0.2-0.7s0.3-0.4,0.5-0.5c0.2-0.1,0.4-0.2,0.7-0.3c0.2,0,0.4-0.1,0.8-0.1
				c0.7-0.1,1.3-0.2,1.6-0.3c0-0.1,0-0.2,0-0.2c0-0.4-0.1-0.6-0.3-0.8c-0.2-0.2-0.6-0.3-1-0.3c-0.4,0-0.7,0.1-0.9,0.2
				c-0.2,0.1-0.4,0.4-0.5,0.8l-0.9-0.1c0.1-0.4,0.2-0.7,0.4-0.9c0.2-0.2,0.5-0.4,0.8-0.5c0.3-0.1,0.8-0.2,1.2-0.2
				c0.5,0,0.8,0.1,1.1,0.2s0.5,0.2,0.6,0.4s0.2,0.4,0.3,0.6c0,0.2,0,0.4,0,0.8v1.2c0,0.8,0,1.4,0.1,1.6c0,0.2,0.1,0.4,0.2,0.6h-0.9
				C282.7,181.1,282.6,180.9,282.6,180.6z M282.5,178.6c-0.3,0.1-0.8,0.2-1.5,0.3c-0.4,0.1-0.6,0.1-0.8,0.2s-0.3,0.2-0.4,0.3
				c-0.1,0.1-0.1,0.3-0.1,0.4c0,0.2,0.1,0.4,0.3,0.6s0.5,0.2,0.8,0.2c0.3,0,0.7-0.1,0.9-0.2c0.3-0.2,0.5-0.4,0.6-0.6
				c0.1-0.2,0.1-0.5,0.1-0.9V178.6z"/>
			<path id="XMLID_480_" class="st1" d="M288.3,179.3l0.9,0.1c-0.1,0.6-0.3,1.1-0.7,1.4c-0.4,0.3-0.9,0.5-1.5,0.5
				c-0.7,0-1.3-0.2-1.8-0.7s-0.7-1.2-0.7-2.1c0-0.6,0.1-1.1,0.3-1.5s0.5-0.8,0.9-1c0.4-0.2,0.8-0.3,1.3-0.3c0.6,0,1.1,0.1,1.4,0.4
				c0.4,0.3,0.6,0.7,0.7,1.3l-0.9,0.1c-0.1-0.4-0.2-0.6-0.4-0.8s-0.5-0.3-0.8-0.3c-0.5,0-0.8,0.2-1.1,0.5c-0.3,0.3-0.4,0.8-0.4,1.6
				c0,0.7,0.1,1.2,0.4,1.6c0.3,0.3,0.6,0.5,1.1,0.5c0.4,0,0.7-0.1,0.9-0.3C288.1,180.1,288.2,179.8,288.3,179.3z"/>
			<path id="XMLID_482_" class="st1" d="M290,174.9v-1h0.9v1H290z M290,181.3v-5.3h0.9v5.3H290z"/>
			<path id="XMLID_485_" class="st1" d="M295.9,179.6l0.9,0.1c-0.1,0.5-0.4,1-0.8,1.3s-0.9,0.5-1.5,0.5c-0.8,0-1.4-0.2-1.9-0.7
				c-0.5-0.5-0.7-1.2-0.7-2c0-0.9,0.2-1.6,0.7-2.1c0.5-0.5,1.1-0.7,1.8-0.7c0.7,0,1.3,0.2,1.8,0.7c0.5,0.5,0.7,1.2,0.7,2.1
				c0,0.1,0,0.1,0,0.2h-4c0,0.6,0.2,1,0.5,1.3c0.3,0.3,0.7,0.5,1.1,0.5c0.3,0,0.6-0.1,0.9-0.3C295.6,180.2,295.8,179.9,295.9,179.6z
				 M293,178.1h3c0-0.4-0.2-0.8-0.3-1c-0.3-0.3-0.7-0.5-1.1-0.5c-0.4,0-0.8,0.1-1,0.4C293.1,177.3,293,177.6,293,178.1z"/>
			<path id="XMLID_488_" class="st1" d="M298,181.3v-5.3h0.8v0.8c0.4-0.6,1-0.9,1.7-0.9c0.3,0,0.6,0.1,0.9,0.2
				c0.3,0.1,0.5,0.3,0.6,0.5c0.1,0.2,0.2,0.4,0.3,0.7c0,0.2,0,0.5,0,0.9v3.3h-0.9V178c0-0.4,0-0.6-0.1-0.8c-0.1-0.2-0.2-0.3-0.4-0.4
				s-0.4-0.2-0.6-0.2c-0.4,0-0.7,0.1-1,0.4c-0.3,0.2-0.4,0.7-0.4,1.4v2.9H298z"/>
			<path id="XMLID_490_" class="st1" d="M305.7,180.5l0.1,0.8c-0.3,0.1-0.5,0.1-0.7,0.1c-0.3,0-0.6-0.1-0.8-0.2
				c-0.2-0.1-0.3-0.2-0.4-0.4c-0.1-0.2-0.1-0.5-0.1-1.1v-3.1h-0.7v-0.7h0.7v-1.3l0.9-0.5v1.9h0.9v0.7h-0.9v3.1c0,0.3,0,0.4,0,0.5
				c0,0.1,0.1,0.1,0.2,0.2c0.1,0,0.2,0.1,0.3,0.1C305.4,180.5,305.5,180.5,305.7,180.5z"/>
			<path id="XMLID_492_" class="st1" d="M310.2,179.6l0.9,0.1c-0.1,0.5-0.4,1-0.8,1.3s-0.9,0.5-1.5,0.5c-0.8,0-1.4-0.2-1.9-0.7
				c-0.5-0.5-0.7-1.2-0.7-2c0-0.9,0.2-1.6,0.7-2.1c0.5-0.5,1.1-0.7,1.8-0.7c0.7,0,1.3,0.2,1.8,0.7c0.5,0.5,0.7,1.2,0.7,2.1
				c0,0.1,0,0.1,0,0.2h-4c0,0.6,0.2,1,0.5,1.3c0.3,0.3,0.7,0.5,1.1,0.5c0.3,0,0.6-0.1,0.9-0.3C309.9,180.2,310.1,179.9,310.2,179.6z
				 M307.3,178.1h3c0-0.4-0.2-0.8-0.3-1c-0.3-0.3-0.7-0.5-1.1-0.5c-0.4,0-0.8,0.1-1,0.4C307.5,177.3,307.3,177.6,307.3,178.1z"/>
			<path id="XMLID_495_" class="st1" d="M312,179.7l0.9-0.1c0,0.4,0.2,0.6,0.4,0.8c0.2,0.2,0.6,0.3,1,0.3c0.4,0,0.7-0.1,0.9-0.3
				s0.3-0.4,0.3-0.6c0-0.2-0.1-0.4-0.3-0.5c-0.1-0.1-0.4-0.2-0.9-0.3c-0.7-0.2-1.1-0.3-1.4-0.4c-0.3-0.1-0.5-0.3-0.6-0.5
				c-0.1-0.2-0.2-0.5-0.2-0.7c0-0.2,0.1-0.5,0.2-0.7c0.1-0.2,0.3-0.4,0.4-0.5c0.1-0.1,0.3-0.2,0.6-0.3c0.2-0.1,0.5-0.1,0.8-0.1
				c0.4,0,0.8,0.1,1.1,0.2c0.3,0.1,0.6,0.3,0.7,0.5c0.2,0.2,0.3,0.5,0.3,0.8l-0.9,0.1c0-0.3-0.2-0.5-0.3-0.6
				c-0.2-0.2-0.5-0.2-0.8-0.2c-0.4,0-0.7,0.1-0.9,0.2c-0.2,0.1-0.3,0.3-0.3,0.5c0,0.1,0,0.2,0.1,0.3c0.1,0.1,0.2,0.2,0.3,0.2
				c0.1,0,0.4,0.1,0.8,0.2c0.6,0.2,1.1,0.3,1.3,0.4s0.5,0.3,0.6,0.5c0.1,0.2,0.2,0.5,0.2,0.8c0,0.3-0.1,0.6-0.3,0.9
				c-0.2,0.3-0.4,0.5-0.8,0.6s-0.7,0.2-1.1,0.2c-0.7,0-1.2-0.1-1.6-0.4C312.3,180.7,312.1,180.3,312,179.7z"/>
		</g>
		<g id="XMLID_357_">
			<path id="XMLID_358_" class="st1" d="M177.6,229.5l2.8-7.4h1.1l3,7.4h-1.1l-0.9-2.2h-3.1l-0.8,2.2H177.6z M179.7,226.5h2.5
				l-0.8-2c-0.2-0.6-0.4-1.1-0.5-1.5c-0.1,0.5-0.2,0.9-0.4,1.4L179.7,226.5z"/>
			<path id="XMLID_361_" class="st1" d="M188.7,229.5v-0.7c-0.3,0.5-0.8,0.8-1.5,0.8c-0.4,0-0.8-0.1-1.2-0.4c-0.4-0.2-0.6-0.6-0.8-1
				s-0.3-0.9-0.3-1.5c0-0.5,0.1-1,0.3-1.5s0.4-0.8,0.8-1s0.8-0.3,1.2-0.3c0.3,0,0.6,0.1,0.9,0.2c0.3,0.1,0.5,0.3,0.6,0.5v-2.6h0.9
				v7.4H188.7z M185.8,226.8c0,0.7,0.1,1.2,0.4,1.5c0.3,0.3,0.6,0.5,1,0.5c0.4,0,0.7-0.2,1-0.5c0.3-0.3,0.4-0.8,0.4-1.5
				c0-0.7-0.1-1.3-0.4-1.6c-0.3-0.3-0.6-0.5-1-0.5c-0.4,0-0.7,0.2-1,0.5C185.9,225.6,185.8,226.1,185.8,226.8z"/>
			<path id="XMLID_364_" class="st1" d="M190.9,229.5v-5.3h0.8v0.8c0.2-0.3,0.4-0.5,0.7-0.6c0.3-0.2,0.6-0.2,1-0.2
				c0.4,0,0.7,0.1,1,0.2c0.3,0.2,0.4,0.4,0.5,0.7c0.4-0.6,1-0.9,1.7-0.9c0.5,0,0.9,0.1,1.2,0.4c0.3,0.3,0.4,0.7,0.4,1.4v3.7h-0.9
				v-3.4c0-0.4,0-0.6-0.1-0.8s-0.2-0.3-0.3-0.4c-0.2-0.1-0.3-0.1-0.5-0.1c-0.4,0-0.7,0.1-0.9,0.4c-0.2,0.3-0.4,0.7-0.4,1.2v3.1h-0.9
				V226c0-0.4-0.1-0.7-0.2-0.9s-0.4-0.3-0.7-0.3c-0.3,0-0.5,0.1-0.7,0.2c-0.2,0.1-0.4,0.3-0.5,0.6c-0.1,0.3-0.1,0.6-0.1,1.1v2.8
				H190.9z"/>
			<path id="XMLID_366_" class="st1" d="M199.5,223.2v-1h0.9v1H199.5z M199.5,229.5v-5.3h0.9v5.3H199.5z"/>
			<path id="XMLID_369_" class="st1" d="M201.8,229.5v-5.3h0.8v0.8c0.4-0.6,1-0.9,1.7-0.9c0.3,0,0.6,0.1,0.9,0.2
				c0.3,0.1,0.5,0.3,0.6,0.5c0.1,0.2,0.2,0.4,0.3,0.7c0,0.2,0,0.5,0,0.9v3.3h-0.9v-3.3c0-0.4,0-0.6-0.1-0.8s-0.2-0.3-0.4-0.4
				c-0.2-0.1-0.4-0.2-0.6-0.2c-0.4,0-0.7,0.1-1,0.4c-0.3,0.2-0.4,0.7-0.4,1.4v2.9H201.8z"/>
			<path id="XMLID_371_" class="st1" d="M207.5,223.2v-1h0.9v1H207.5z M207.5,229.5v-5.3h0.9v5.3H207.5z"/>
			<path id="XMLID_374_" class="st1" d="M209.4,227.9l0.9-0.1c0,0.4,0.2,0.6,0.4,0.8c0.2,0.2,0.6,0.3,1,0.3c0.4,0,0.7-0.1,0.9-0.3
				c0.2-0.2,0.3-0.4,0.3-0.6c0-0.2-0.1-0.4-0.3-0.5c-0.1-0.1-0.4-0.2-0.9-0.3c-0.7-0.2-1.1-0.3-1.4-0.4c-0.3-0.1-0.5-0.3-0.6-0.5
				c-0.1-0.2-0.2-0.5-0.2-0.7c0-0.2,0.1-0.5,0.2-0.7c0.1-0.2,0.3-0.4,0.4-0.5c0.1-0.1,0.3-0.2,0.6-0.3c0.2-0.1,0.5-0.1,0.8-0.1
				c0.4,0,0.8,0.1,1.1,0.2c0.3,0.1,0.6,0.3,0.7,0.5c0.2,0.2,0.3,0.5,0.3,0.8l-0.9,0.1c0-0.3-0.2-0.5-0.3-0.6
				c-0.2-0.2-0.5-0.2-0.8-0.2c-0.4,0-0.7,0.1-0.9,0.2c-0.2,0.1-0.3,0.3-0.3,0.5c0,0.1,0,0.2,0.1,0.3c0.1,0.1,0.2,0.2,0.3,0.2
				c0.1,0,0.4,0.1,0.8,0.2c0.6,0.2,1.1,0.3,1.3,0.4c0.3,0.1,0.5,0.3,0.6,0.5c0.1,0.2,0.2,0.5,0.2,0.8c0,0.3-0.1,0.6-0.3,0.9
				c-0.2,0.3-0.4,0.5-0.8,0.6c-0.3,0.1-0.7,0.2-1.1,0.2c-0.7,0-1.2-0.1-1.6-0.4S209.5,228.5,209.4,227.9z"/>
			<path id="XMLID_376_" class="st1" d="M216.9,228.7l0.1,0.8c-0.3,0.1-0.5,0.1-0.7,0.1c-0.3,0-0.6-0.1-0.8-0.2
				c-0.2-0.1-0.3-0.2-0.4-0.4c-0.1-0.2-0.1-0.5-0.1-1.1v-3.1h-0.7v-0.7h0.7v-1.3l0.9-0.5v1.9h0.9v0.7H216v3.1c0,0.3,0,0.4,0,0.5
				c0,0.1,0.1,0.1,0.2,0.2s0.2,0.1,0.3,0.1C216.6,228.7,216.8,228.7,216.9,228.7z"/>
			<path id="XMLID_378_" class="st1" d="M217.8,229.5v-5.3h0.8v0.8c0.2-0.4,0.4-0.6,0.6-0.8c0.2-0.1,0.4-0.2,0.6-0.2
				c0.3,0,0.6,0.1,0.9,0.3l-0.3,0.8c-0.2-0.1-0.4-0.2-0.7-0.2c-0.2,0-0.4,0.1-0.5,0.2c-0.2,0.1-0.3,0.3-0.3,0.5
				c-0.1,0.3-0.2,0.7-0.2,1.1v2.8H217.8z"/>
			<path id="XMLID_380_" class="st1" d="M224.7,228.8c-0.3,0.3-0.7,0.5-1,0.6c-0.3,0.1-0.6,0.2-1,0.2c-0.6,0-1-0.1-1.4-0.4
				c-0.3-0.3-0.5-0.7-0.5-1.1c0-0.3,0.1-0.5,0.2-0.7c0.1-0.2,0.3-0.4,0.5-0.5c0.2-0.1,0.4-0.2,0.7-0.3c0.2,0,0.4-0.1,0.8-0.1
				c0.7-0.1,1.3-0.2,1.6-0.3c0-0.1,0-0.2,0-0.2c0-0.4-0.1-0.6-0.3-0.8c-0.2-0.2-0.6-0.3-1-0.3c-0.4,0-0.7,0.1-0.9,0.2
				c-0.2,0.1-0.4,0.4-0.5,0.8l-0.9-0.1c0.1-0.4,0.2-0.7,0.4-0.9s0.5-0.4,0.8-0.5s0.8-0.2,1.2-0.2c0.5,0,0.8,0.1,1.1,0.2
				s0.5,0.2,0.6,0.4c0.1,0.2,0.2,0.4,0.3,0.6c0,0.2,0,0.4,0,0.8v1.2c0,0.8,0,1.4,0.1,1.6c0,0.2,0.1,0.4,0.2,0.6h-0.9
				C224.8,229.3,224.8,229.1,224.7,228.8z M224.7,226.8c-0.3,0.1-0.8,0.2-1.5,0.3c-0.4,0.1-0.6,0.1-0.8,0.2
				c-0.2,0.1-0.3,0.2-0.4,0.3c-0.1,0.1-0.1,0.3-0.1,0.4c0,0.2,0.1,0.4,0.3,0.6s0.5,0.2,0.8,0.2c0.3,0,0.7-0.1,0.9-0.2
				s0.5-0.4,0.6-0.6c0.1-0.2,0.1-0.5,0.1-0.9V226.8z"/>
			<path id="XMLID_383_" class="st1" d="M227,229.5v-5.3h0.8v0.8c0.2-0.4,0.4-0.6,0.6-0.8c0.2-0.1,0.4-0.2,0.6-0.2
				c0.3,0,0.6,0.1,0.9,0.3l-0.3,0.8c-0.2-0.1-0.4-0.2-0.7-0.2c-0.2,0-0.4,0.1-0.5,0.2c-0.2,0.1-0.3,0.3-0.3,0.5
				c-0.1,0.3-0.2,0.7-0.2,1.1v2.8H227z"/>
			<path id="XMLID_385_" class="st1" d="M233.9,228.8c-0.3,0.3-0.7,0.5-1,0.6c-0.3,0.1-0.6,0.2-1,0.2c-0.6,0-1-0.1-1.4-0.4
				c-0.3-0.3-0.5-0.7-0.5-1.1c0-0.3,0.1-0.5,0.2-0.7c0.1-0.2,0.3-0.4,0.5-0.5c0.2-0.1,0.4-0.2,0.7-0.3c0.2,0,0.4-0.1,0.8-0.1
				c0.7-0.1,1.3-0.2,1.6-0.3c0-0.1,0-0.2,0-0.2c0-0.4-0.1-0.6-0.3-0.8c-0.2-0.2-0.6-0.3-1-0.3c-0.4,0-0.7,0.1-0.9,0.2
				c-0.2,0.1-0.4,0.4-0.5,0.8l-0.9-0.1c0.1-0.4,0.2-0.7,0.4-0.9s0.5-0.4,0.8-0.5s0.8-0.2,1.2-0.2c0.5,0,0.8,0.1,1.1,0.2
				s0.5,0.2,0.6,0.4c0.1,0.2,0.2,0.4,0.3,0.6c0,0.2,0,0.4,0,0.8v1.2c0,0.8,0,1.4,0.1,1.6c0,0.2,0.1,0.4,0.2,0.6h-0.9
				C234,229.3,233.9,229.1,233.9,228.8z M233.8,226.8c-0.3,0.1-0.8,0.2-1.5,0.3c-0.4,0.1-0.6,0.1-0.8,0.2c-0.2,0.1-0.3,0.2-0.4,0.3
				c-0.1,0.1-0.1,0.3-0.1,0.4c0,0.2,0.1,0.4,0.3,0.6s0.5,0.2,0.8,0.2c0.3,0,0.7-0.1,0.9-0.2s0.5-0.4,0.6-0.6
				c0.1-0.2,0.1-0.5,0.1-0.9V226.8z"/>
			<path id="XMLID_388_" class="st1" d="M242.5,229.5v-0.7c-0.3,0.5-0.8,0.8-1.5,0.8c-0.4,0-0.8-0.1-1.2-0.4c-0.4-0.2-0.6-0.6-0.8-1
				s-0.3-0.9-0.3-1.5c0-0.5,0.1-1,0.3-1.5s0.4-0.8,0.8-1s0.8-0.3,1.2-0.3c0.3,0,0.6,0.1,0.9,0.2c0.3,0.1,0.5,0.3,0.6,0.5v-2.6h0.9
				v7.4H242.5z M239.6,226.8c0,0.7,0.1,1.2,0.4,1.5c0.3,0.3,0.6,0.5,1,0.5c0.4,0,0.7-0.2,1-0.5c0.3-0.3,0.4-0.8,0.4-1.5
				c0-0.7-0.1-1.3-0.4-1.6c-0.3-0.3-0.6-0.5-1-0.5c-0.4,0-0.7,0.2-1,0.5C239.7,225.6,239.6,226.1,239.6,226.8z"/>
			<path id="XMLID_391_" class="st1" d="M248.2,228.8c-0.3,0.3-0.7,0.5-1,0.6c-0.3,0.1-0.6,0.2-1,0.2c-0.6,0-1-0.1-1.4-0.4
				c-0.3-0.3-0.5-0.7-0.5-1.1c0-0.3,0.1-0.5,0.2-0.7c0.1-0.2,0.3-0.4,0.5-0.5c0.2-0.1,0.4-0.2,0.7-0.3c0.2,0,0.4-0.1,0.8-0.1
				c0.7-0.1,1.3-0.2,1.6-0.3c0-0.1,0-0.2,0-0.2c0-0.4-0.1-0.6-0.3-0.8c-0.2-0.2-0.6-0.3-1-0.3c-0.4,0-0.7,0.1-0.9,0.2
				c-0.2,0.1-0.4,0.4-0.5,0.8l-0.9-0.1c0.1-0.4,0.2-0.7,0.4-0.9s0.5-0.4,0.8-0.5s0.8-0.2,1.2-0.2c0.5,0,0.8,0.1,1.1,0.2
				s0.5,0.2,0.6,0.4c0.1,0.2,0.2,0.4,0.3,0.6c0,0.2,0,0.4,0,0.8v1.2c0,0.8,0,1.4,0.1,1.6c0,0.2,0.1,0.4,0.2,0.6h-0.9
				C248.3,229.3,248.2,229.1,248.2,228.8z M248.1,226.8c-0.3,0.1-0.8,0.2-1.5,0.3c-0.4,0.1-0.6,0.1-0.8,0.2
				c-0.2,0.1-0.3,0.2-0.4,0.3c-0.1,0.1-0.1,0.3-0.1,0.4c0,0.2,0.1,0.4,0.3,0.6s0.5,0.2,0.8,0.2c0.3,0,0.7-0.1,0.9-0.2
				s0.5-0.4,0.6-0.6c0.1-0.2,0.1-0.5,0.1-0.9V226.8z"/>
			<path id="XMLID_394_" class="st1" d="M252.4,228.7l0.1,0.8c-0.3,0.1-0.5,0.1-0.7,0.1c-0.3,0-0.6-0.1-0.8-0.2
				c-0.2-0.1-0.3-0.2-0.4-0.4c-0.1-0.2-0.1-0.5-0.1-1.1v-3.1H250v-0.7h0.7v-1.3l0.9-0.5v1.9h0.9v0.7h-0.9v3.1c0,0.3,0,0.4,0,0.5
				c0,0.1,0.1,0.1,0.2,0.2s0.2,0.1,0.3,0.1C252.1,228.7,252.3,228.7,252.4,228.7z"/>
			<path id="XMLID_396_" class="st1" d="M253,226.8c0-1,0.3-1.7,0.8-2.2c0.5-0.4,1-0.6,1.7-0.6c0.7,0,1.3,0.2,1.8,0.7s0.7,1.1,0.7,2
				c0,0.7-0.1,1.2-0.3,1.6c-0.2,0.4-0.5,0.7-0.9,0.9c-0.4,0.2-0.8,0.3-1.3,0.3c-0.7,0-1.4-0.2-1.8-0.7
				C253.2,228.4,253,227.7,253,226.8z M253.9,226.8c0,0.7,0.1,1.2,0.4,1.5c0.3,0.3,0.7,0.5,1.1,0.5c0.4,0,0.8-0.2,1.1-0.5
				c0.3-0.3,0.4-0.9,0.4-1.6c0-0.7-0.2-1.2-0.5-1.5c-0.3-0.3-0.7-0.5-1.1-0.5c-0.5,0-0.8,0.2-1.1,0.5
				C254.1,225.6,253.9,226.1,253.9,226.8z"/>
			<path id="XMLID_399_" class="st1" d="M258.7,227.9l0.9-0.1c0,0.4,0.2,0.6,0.4,0.8c0.2,0.2,0.6,0.3,1,0.3c0.4,0,0.7-0.1,0.9-0.3
				c0.2-0.2,0.3-0.4,0.3-0.6c0-0.2-0.1-0.4-0.3-0.5c-0.1-0.1-0.4-0.2-0.9-0.3c-0.7-0.2-1.1-0.3-1.4-0.4c-0.3-0.1-0.5-0.3-0.6-0.5
				c-0.1-0.2-0.2-0.5-0.2-0.7c0-0.2,0.1-0.5,0.2-0.7c0.1-0.2,0.3-0.4,0.4-0.5c0.1-0.1,0.3-0.2,0.6-0.3c0.2-0.1,0.5-0.1,0.8-0.1
				c0.4,0,0.8,0.1,1.1,0.2c0.3,0.1,0.6,0.3,0.7,0.5c0.2,0.2,0.3,0.5,0.3,0.8l-0.9,0.1c0-0.3-0.2-0.5-0.3-0.6
				c-0.2-0.2-0.5-0.2-0.8-0.2c-0.4,0-0.7,0.1-0.9,0.2c-0.2,0.1-0.3,0.3-0.3,0.5c0,0.1,0,0.2,0.1,0.3c0.1,0.1,0.2,0.2,0.3,0.2
				c0.1,0,0.4,0.1,0.8,0.2c0.6,0.2,1.1,0.3,1.3,0.4c0.3,0.1,0.5,0.3,0.6,0.5c0.1,0.2,0.2,0.5,0.2,0.8c0,0.3-0.1,0.6-0.3,0.9
				c-0.2,0.3-0.4,0.5-0.8,0.6c-0.3,0.1-0.7,0.2-1.1,0.2c-0.7,0-1.2-0.1-1.6-0.4S258.8,228.5,258.7,227.9z"/>
			<path id="XMLID_401_" class="st1" d="M269.1,228.7l0.1,0.8c-0.3,0.1-0.5,0.1-0.7,0.1c-0.3,0-0.6-0.1-0.8-0.2
				c-0.2-0.1-0.3-0.2-0.4-0.4c-0.1-0.2-0.1-0.5-0.1-1.1v-3.1h-0.7v-0.7h0.7v-1.3l0.9-0.5v1.9h0.9v0.7h-0.9v3.1c0,0.3,0,0.4,0,0.5
				c0,0.1,0.1,0.1,0.2,0.2s0.2,0.1,0.3,0.1C268.8,228.7,268.9,228.7,269.1,228.7z"/>
			<path id="XMLID_403_" class="st1" d="M269.9,229.5v-5.3h0.8v0.8c0.2-0.4,0.4-0.6,0.6-0.8c0.2-0.1,0.4-0.2,0.6-0.2
				c0.3,0,0.6,0.1,0.9,0.3l-0.3,0.8c-0.2-0.1-0.4-0.2-0.7-0.2c-0.2,0-0.4,0.1-0.5,0.2c-0.2,0.1-0.3,0.3-0.3,0.5
				c-0.1,0.3-0.2,0.7-0.2,1.1v2.8H269.9z"/>
			<path id="XMLID_405_" class="st1" d="M276.9,228.8c-0.3,0.3-0.7,0.5-1,0.6c-0.3,0.1-0.6,0.2-1,0.2c-0.6,0-1-0.1-1.4-0.4
				c-0.3-0.3-0.5-0.7-0.5-1.1c0-0.3,0.1-0.5,0.2-0.7c0.1-0.2,0.3-0.4,0.5-0.5c0.2-0.1,0.4-0.2,0.7-0.3c0.2,0,0.4-0.1,0.8-0.1
				c0.7-0.1,1.3-0.2,1.6-0.3c0-0.1,0-0.2,0-0.2c0-0.4-0.1-0.6-0.3-0.8c-0.2-0.2-0.6-0.3-1-0.3c-0.4,0-0.7,0.1-0.9,0.2
				c-0.2,0.1-0.4,0.4-0.5,0.8l-0.9-0.1c0.1-0.4,0.2-0.7,0.4-0.9s0.5-0.4,0.8-0.5s0.8-0.2,1.2-0.2c0.5,0,0.8,0.1,1.1,0.2
				s0.5,0.2,0.6,0.4c0.1,0.2,0.2,0.4,0.3,0.6c0,0.2,0,0.4,0,0.8v1.2c0,0.8,0,1.4,0.1,1.6c0,0.2,0.1,0.4,0.2,0.6H277
				C276.9,229.3,276.9,229.1,276.9,228.8z M276.8,226.8c-0.3,0.1-0.8,0.2-1.5,0.3c-0.4,0.1-0.6,0.1-0.8,0.2
				c-0.2,0.1-0.3,0.2-0.4,0.3c-0.1,0.1-0.1,0.3-0.1,0.4c0,0.2,0.1,0.4,0.3,0.6s0.5,0.2,0.8,0.2c0.3,0,0.7-0.1,0.9-0.2
				s0.5-0.4,0.6-0.6c0.1-0.2,0.1-0.5,0.1-0.9V226.8z"/>
			<path id="XMLID_408_" class="st1" d="M281.1,228.7l0.1,0.8c-0.3,0.1-0.5,0.1-0.7,0.1c-0.3,0-0.6-0.1-0.8-0.2
				c-0.2-0.1-0.3-0.2-0.4-0.4c-0.1-0.2-0.1-0.5-0.1-1.1v-3.1h-0.7v-0.7h0.7v-1.3l0.9-0.5v1.9h0.9v0.7h-0.9v3.1c0,0.3,0,0.4,0,0.5
				c0,0.1,0.1,0.1,0.2,0.2s0.2,0.1,0.3,0.1C280.8,228.7,280.9,228.7,281.1,228.7z"/>
			<path id="XMLID_410_" class="st1" d="M285.4,228.8c-0.3,0.3-0.7,0.5-1,0.6c-0.3,0.1-0.6,0.2-1,0.2c-0.6,0-1-0.1-1.4-0.4
				c-0.3-0.3-0.5-0.7-0.5-1.1c0-0.3,0.1-0.5,0.2-0.7c0.1-0.2,0.3-0.4,0.5-0.5c0.2-0.1,0.4-0.2,0.7-0.3c0.2,0,0.4-0.1,0.8-0.1
				c0.7-0.1,1.3-0.2,1.6-0.3c0-0.1,0-0.2,0-0.2c0-0.4-0.1-0.6-0.3-0.8c-0.2-0.2-0.6-0.3-1-0.3c-0.4,0-0.7,0.1-0.9,0.2
				c-0.2,0.1-0.4,0.4-0.5,0.8l-0.9-0.1c0.1-0.4,0.2-0.7,0.4-0.9s0.5-0.4,0.8-0.5s0.8-0.2,1.2-0.2c0.5,0,0.8,0.1,1.1,0.2
				s0.5,0.2,0.6,0.4c0.1,0.2,0.2,0.4,0.3,0.6c0,0.2,0,0.4,0,0.8v1.2c0,0.8,0,1.4,0.1,1.6c0,0.2,0.1,0.4,0.2,0.6h-0.9
				C285.5,229.3,285.5,229.1,285.4,228.8z M285.4,226.8c-0.3,0.1-0.8,0.2-1.5,0.3c-0.4,0.1-0.6,0.1-0.8,0.2
				c-0.2,0.1-0.3,0.2-0.4,0.3c-0.1,0.1-0.1,0.3-0.1,0.4c0,0.2,0.1,0.4,0.3,0.6s0.5,0.2,0.8,0.2c0.3,0,0.7-0.1,0.9-0.2
				s0.5-0.4,0.6-0.6c0.1-0.2,0.1-0.5,0.1-0.9V226.8z"/>
			<path id="XMLID_413_" class="st1" d="M287.7,229.5v-5.3h0.8v0.8c0.2-0.3,0.4-0.5,0.7-0.6c0.3-0.2,0.6-0.2,1-0.2
				c0.4,0,0.7,0.1,1,0.2c0.3,0.2,0.4,0.4,0.5,0.7c0.4-0.6,1-0.9,1.7-0.9c0.5,0,0.9,0.1,1.2,0.4c0.3,0.3,0.4,0.7,0.4,1.4v3.7H294
				v-3.4c0-0.4,0-0.6-0.1-0.8s-0.2-0.3-0.3-0.4c-0.2-0.1-0.3-0.1-0.5-0.1c-0.4,0-0.7,0.1-0.9,0.4c-0.2,0.3-0.4,0.7-0.4,1.2v3.1h-0.9
				V226c0-0.4-0.1-0.7-0.2-0.9s-0.4-0.3-0.7-0.3c-0.3,0-0.5,0.1-0.7,0.2c-0.2,0.1-0.4,0.3-0.5,0.6c-0.1,0.3-0.1,0.6-0.1,1.1v2.8
				H287.7z"/>
			<path id="XMLID_415_" class="st1" d="M296.3,223.2v-1h0.9v1H296.3z M296.3,229.5v-5.3h0.9v5.3H296.3z"/>
			<path id="XMLID_418_" class="st1" d="M302.2,227.8l0.9,0.1c-0.1,0.5-0.4,1-0.8,1.3s-0.9,0.5-1.5,0.5c-0.8,0-1.4-0.2-1.9-0.7
				c-0.5-0.5-0.7-1.2-0.7-2c0-0.9,0.2-1.6,0.7-2.1s1.1-0.7,1.8-0.7c0.7,0,1.3,0.2,1.8,0.7c0.5,0.5,0.7,1.2,0.7,2.1
				c0,0.1,0,0.1,0,0.2h-4c0,0.6,0.2,1,0.5,1.3c0.3,0.3,0.7,0.5,1.1,0.5c0.3,0,0.6-0.1,0.9-0.3C301.9,228.4,302.1,228.2,302.2,227.8z
				 M299.2,226.3h3c0-0.4-0.2-0.8-0.3-1c-0.3-0.3-0.7-0.5-1.1-0.5c-0.4,0-0.8,0.1-1,0.4C299.4,225.5,299.3,225.8,299.2,226.3z"/>
			<path id="XMLID_421_" class="st1" d="M304.3,229.5v-5.3h0.8v0.8c0.4-0.6,1-0.9,1.7-0.9c0.3,0,0.6,0.1,0.9,0.2
				c0.3,0.1,0.5,0.3,0.6,0.5c0.1,0.2,0.2,0.4,0.3,0.7c0,0.2,0,0.5,0,0.9v3.3h-0.9v-3.3c0-0.4,0-0.6-0.1-0.8s-0.2-0.3-0.4-0.4
				c-0.2-0.1-0.4-0.2-0.6-0.2c-0.4,0-0.7,0.1-1,0.4c-0.3,0.2-0.4,0.7-0.4,1.4v2.9H304.3z"/>
			<path id="XMLID_423_" class="st1" d="M312,228.7l0.1,0.8c-0.3,0.1-0.5,0.1-0.7,0.1c-0.3,0-0.6-0.1-0.8-0.2
				c-0.2-0.1-0.3-0.2-0.4-0.4c-0.1-0.2-0.1-0.5-0.1-1.1v-3.1h-0.7v-0.7h0.7v-1.3l0.9-0.5v1.9h0.9v0.7h-0.9v3.1c0,0.3,0,0.4,0,0.5
				c0,0.1,0.1,0.1,0.2,0.2s0.2,0.1,0.3,0.1C311.7,228.7,311.8,228.7,312,228.7z"/>
			<path id="XMLID_425_" class="st1" d="M312.5,226.8c0-1,0.3-1.7,0.8-2.2c0.5-0.4,1-0.6,1.7-0.6c0.7,0,1.3,0.2,1.8,0.7
				s0.7,1.1,0.7,2c0,0.7-0.1,1.2-0.3,1.6c-0.2,0.4-0.5,0.7-0.9,0.9c-0.4,0.2-0.8,0.3-1.3,0.3c-0.7,0-1.4-0.2-1.8-0.7
				C312.8,228.4,312.5,227.7,312.5,226.8z M313.5,226.8c0,0.7,0.1,1.2,0.4,1.5c0.3,0.3,0.7,0.5,1.1,0.5c0.4,0,0.8-0.2,1.1-0.5
				c0.3-0.3,0.4-0.9,0.4-1.6c0-0.7-0.2-1.2-0.5-1.5c-0.3-0.3-0.7-0.5-1.1-0.5c-0.5,0-0.8,0.2-1.1,0.5
				C313.6,225.6,313.5,226.1,313.5,226.8z"/>
			<path id="XMLID_428_" class="st1" d="M318.3,227.9l0.9-0.1c0,0.4,0.2,0.6,0.4,0.8c0.2,0.2,0.6,0.3,1,0.3c0.4,0,0.7-0.1,0.9-0.3
				c0.2-0.2,0.3-0.4,0.3-0.6c0-0.2-0.1-0.4-0.3-0.5c-0.1-0.1-0.4-0.2-0.9-0.3c-0.7-0.2-1.1-0.3-1.4-0.4c-0.3-0.1-0.5-0.3-0.6-0.5
				c-0.1-0.2-0.2-0.5-0.2-0.7c0-0.2,0.1-0.5,0.2-0.7c0.1-0.2,0.3-0.4,0.4-0.5c0.1-0.1,0.3-0.2,0.6-0.3c0.2-0.1,0.5-0.1,0.8-0.1
				c0.4,0,0.8,0.1,1.1,0.2c0.3,0.1,0.6,0.3,0.7,0.5c0.2,0.2,0.3,0.5,0.3,0.8l-0.9,0.1c0-0.3-0.2-0.5-0.3-0.6
				c-0.2-0.2-0.5-0.2-0.8-0.2c-0.4,0-0.7,0.1-0.9,0.2c-0.2,0.1-0.3,0.3-0.3,0.5c0,0.1,0,0.2,0.1,0.3c0.1,0.1,0.2,0.2,0.3,0.2
				c0.1,0,0.4,0.1,0.8,0.2c0.6,0.2,1.1,0.3,1.3,0.4c0.3,0.1,0.5,0.3,0.6,0.5c0.1,0.2,0.2,0.5,0.2,0.8c0,0.3-0.1,0.6-0.3,0.9
				c-0.2,0.3-0.4,0.5-0.8,0.6c-0.3,0.1-0.7,0.2-1.1,0.2c-0.7,0-1.2-0.1-1.6-0.4S318.4,228.5,318.3,227.9z"/>
		</g>
		<g id="XMLID_322_">
			<path id="XMLID_323_" class="st1" d="M220.2,277.3v-0.9l3.1,0v2.7c-0.5,0.4-1,0.7-1.5,0.9c-0.5,0.2-1,0.3-1.6,0.3
				c-0.7,0-1.4-0.2-2-0.5s-1-0.8-1.3-1.3s-0.5-1.2-0.5-2c0-0.7,0.1-1.4,0.5-2c0.3-0.6,0.7-1.1,1.3-1.4c0.6-0.3,1.2-0.5,1.9-0.5
				c0.5,0,1,0.1,1.4,0.3c0.4,0.2,0.8,0.4,1,0.7c0.2,0.3,0.4,0.7,0.6,1.2l-0.9,0.2c-0.1-0.4-0.2-0.7-0.4-0.9
				c-0.2-0.2-0.4-0.4-0.7-0.5c-0.3-0.1-0.6-0.2-1-0.2c-0.4,0-0.8,0.1-1.2,0.2s-0.6,0.3-0.8,0.5c-0.2,0.2-0.4,0.5-0.5,0.7
				c-0.2,0.5-0.3,1-0.3,1.5c0,0.7,0.1,1.2,0.3,1.7c0.2,0.4,0.6,0.8,1,1c0.4,0.2,0.9,0.3,1.4,0.3c0.4,0,0.8-0.1,1.2-0.2
				c0.4-0.2,0.7-0.3,0.9-0.5v-1.4H220.2z"/>
			<path id="XMLID_325_" class="st1" d="M228.3,278.5l0.9,0.1c-0.1,0.5-0.4,1-0.8,1.3s-0.9,0.5-1.5,0.5c-0.8,0-1.4-0.2-1.9-0.7
				c-0.5-0.5-0.7-1.2-0.7-2c0-0.9,0.2-1.6,0.7-2.1c0.5-0.5,1.1-0.7,1.8-0.7c0.7,0,1.3,0.2,1.8,0.7c0.5,0.5,0.7,1.2,0.7,2.1
				c0,0.1,0,0.1,0,0.2h-4c0,0.6,0.2,1,0.5,1.3c0.3,0.3,0.7,0.5,1.1,0.5c0.3,0,0.6-0.1,0.9-0.3C228,279.2,228.2,278.9,228.3,278.5z
				 M225.4,277h3c0-0.4-0.2-0.8-0.3-1c-0.3-0.3-0.7-0.5-1.1-0.5c-0.4,0-0.8,0.1-1,0.4C225.6,276.2,225.4,276.6,225.4,277z"/>
			<path id="XMLID_328_" class="st1" d="M230.1,278.6l0.9-0.1c0,0.4,0.2,0.6,0.4,0.8c0.2,0.2,0.6,0.3,1,0.3c0.4,0,0.7-0.1,0.9-0.3
				c0.2-0.2,0.3-0.4,0.3-0.6c0-0.2-0.1-0.4-0.3-0.5c-0.1-0.1-0.4-0.2-0.9-0.3c-0.7-0.2-1.1-0.3-1.4-0.4s-0.5-0.3-0.6-0.5
				c-0.1-0.2-0.2-0.5-0.2-0.7c0-0.2,0.1-0.5,0.2-0.7c0.1-0.2,0.3-0.4,0.4-0.5c0.1-0.1,0.3-0.2,0.6-0.3s0.5-0.1,0.8-0.1
				c0.4,0,0.8,0.1,1.1,0.2c0.3,0.1,0.6,0.3,0.7,0.5c0.2,0.2,0.3,0.5,0.3,0.8l-0.9,0.1c0-0.3-0.2-0.5-0.3-0.6
				c-0.2-0.2-0.5-0.2-0.8-0.2c-0.4,0-0.7,0.1-0.9,0.2s-0.3,0.3-0.3,0.5c0,0.1,0,0.2,0.1,0.3c0.1,0.1,0.2,0.2,0.3,0.2
				c0.1,0,0.4,0.1,0.8,0.2c0.6,0.2,1.1,0.3,1.3,0.4c0.3,0.1,0.5,0.3,0.6,0.5c0.1,0.2,0.2,0.5,0.2,0.8c0,0.3-0.1,0.6-0.3,0.9
				c-0.2,0.3-0.4,0.5-0.8,0.6c-0.3,0.1-0.7,0.2-1.1,0.2c-0.7,0-1.2-0.1-1.6-0.4C230.4,279.6,230.2,279.2,230.1,278.6z"/>
			<path id="XMLID_330_" class="st1" d="M237.5,279.4l0.1,0.8c-0.3,0.1-0.5,0.1-0.7,0.1c-0.3,0-0.6-0.1-0.8-0.2
				c-0.2-0.1-0.3-0.2-0.4-0.4c-0.1-0.2-0.1-0.5-0.1-1.1v-3.1h-0.7v-0.7h0.7v-1.3l0.9-0.5v1.9h0.9v0.7h-0.9v3.1c0,0.3,0,0.4,0,0.5
				c0,0.1,0.1,0.1,0.2,0.2c0.1,0,0.2,0.1,0.3,0.1C237.3,279.4,237.4,279.4,237.5,279.4z"/>
			<path id="XMLID_332_" class="st1" d="M238.4,273.9v-1h0.9v1H238.4z M238.4,280.2v-5.3h0.9v5.3H238.4z"/>
			<path id="XMLID_335_" class="st1" d="M240.4,277.5c0-1,0.3-1.7,0.8-2.2c0.5-0.4,1-0.6,1.7-0.6c0.7,0,1.3,0.2,1.8,0.7
				c0.5,0.5,0.7,1.1,0.7,2c0,0.7-0.1,1.2-0.3,1.6c-0.2,0.4-0.5,0.7-0.9,0.9c-0.4,0.2-0.8,0.3-1.3,0.3c-0.7,0-1.4-0.2-1.8-0.7
				C240.6,279.1,240.4,278.5,240.4,277.5z M241.3,277.5c0,0.7,0.1,1.2,0.4,1.5c0.3,0.3,0.7,0.5,1.1,0.5c0.4,0,0.8-0.2,1.1-0.5
				c0.3-0.3,0.4-0.9,0.4-1.6c0-0.7-0.2-1.2-0.5-1.5c-0.3-0.3-0.7-0.5-1.1-0.5c-0.5,0-0.8,0.2-1.1,0.5
				C241.5,276.4,241.3,276.9,241.3,277.5z"/>
			<path id="XMLID_338_" class="st1" d="M246.5,280.2v-5.3h0.8v0.8c0.4-0.6,1-0.9,1.7-0.9c0.3,0,0.6,0.1,0.9,0.2
				c0.3,0.1,0.5,0.3,0.6,0.5c0.1,0.2,0.2,0.4,0.3,0.7c0,0.2,0,0.5,0,0.9v3.3h-0.9V277c0-0.4,0-0.6-0.1-0.8c-0.1-0.2-0.2-0.3-0.4-0.4
				c-0.2-0.1-0.4-0.2-0.6-0.2c-0.4,0-0.7,0.1-1,0.4s-0.4,0.7-0.4,1.4v2.9H246.5z"/>
			<path id="XMLID_340_" class="st1" d="M255.7,279.6c-0.3,0.3-0.7,0.5-1,0.6c-0.3,0.1-0.6,0.2-1,0.2c-0.6,0-1-0.1-1.4-0.4
				c-0.3-0.3-0.5-0.7-0.5-1.1c0-0.3,0.1-0.5,0.2-0.7c0.1-0.2,0.3-0.4,0.5-0.5c0.2-0.1,0.4-0.2,0.7-0.3c0.2,0,0.4-0.1,0.8-0.1
				c0.7-0.1,1.3-0.2,1.6-0.3c0-0.1,0-0.2,0-0.2c0-0.4-0.1-0.6-0.3-0.8c-0.2-0.2-0.6-0.3-1-0.3c-0.4,0-0.7,0.1-0.9,0.2
				c-0.2,0.1-0.4,0.4-0.5,0.8l-0.9-0.1c0.1-0.4,0.2-0.7,0.4-0.9c0.2-0.2,0.5-0.4,0.8-0.5c0.3-0.1,0.8-0.2,1.2-0.2
				c0.5,0,0.8,0.1,1.1,0.2s0.5,0.2,0.6,0.4c0.1,0.2,0.2,0.4,0.3,0.6c0,0.2,0,0.4,0,0.8v1.2c0,0.8,0,1.4,0.1,1.6
				c0,0.2,0.1,0.4,0.2,0.6h-0.9C255.8,280,255.7,279.8,255.7,279.6z M255.6,277.5c-0.3,0.1-0.8,0.2-1.5,0.3
				c-0.4,0.1-0.6,0.1-0.8,0.2c-0.2,0.1-0.3,0.2-0.4,0.3s-0.1,0.3-0.1,0.4c0,0.2,0.1,0.4,0.3,0.6s0.5,0.2,0.8,0.2
				c0.3,0,0.7-0.1,0.9-0.2c0.3-0.2,0.5-0.4,0.6-0.6c0.1-0.2,0.1-0.5,0.1-0.9V277.5z"/>
			<path id="XMLID_343_" class="st1" d="M257.9,280.2v-5.3h0.8v0.8c0.2-0.4,0.4-0.6,0.6-0.7c0.2-0.1,0.4-0.2,0.6-0.2
				c0.3,0,0.6,0.1,0.9,0.3l-0.3,0.8c-0.2-0.1-0.4-0.2-0.7-0.2c-0.2,0-0.4,0.1-0.5,0.2c-0.2,0.1-0.3,0.3-0.3,0.5
				c-0.1,0.3-0.2,0.7-0.2,1.1v2.8H257.9z"/>
			<path id="XMLID_345_" class="st1" d="M267.7,278.3l0.9,0.1c-0.1,0.6-0.3,1.1-0.7,1.4c-0.4,0.3-0.9,0.5-1.5,0.5
				c-0.7,0-1.3-0.2-1.8-0.7c-0.4-0.5-0.7-1.2-0.7-2.1c0-0.6,0.1-1.1,0.3-1.5s0.5-0.8,0.9-1c0.4-0.2,0.8-0.3,1.3-0.3
				c0.6,0,1.1,0.1,1.4,0.4c0.4,0.3,0.6,0.7,0.7,1.3l-0.9,0.1c-0.1-0.4-0.2-0.6-0.4-0.8c-0.2-0.2-0.5-0.3-0.8-0.3
				c-0.5,0-0.8,0.2-1.1,0.5s-0.4,0.8-0.4,1.6c0,0.7,0.1,1.2,0.4,1.6c0.3,0.3,0.6,0.5,1.1,0.5c0.4,0,0.7-0.1,0.9-0.3
				S267.6,278.7,267.7,278.3z"/>
			<path id="XMLID_347_" class="st1" d="M269.4,273.9v-1h0.9v1H269.4z M269.4,280.2v-5.3h0.9v5.3H269.4z"/>
			<path id="XMLID_350_" class="st1" d="M273.6,279.4l0.1,0.8c-0.3,0.1-0.5,0.1-0.7,0.1c-0.3,0-0.6-0.1-0.8-0.2
				c-0.2-0.1-0.3-0.2-0.4-0.4c-0.1-0.2-0.1-0.5-0.1-1.1v-3.1h-0.7v-0.7h0.7v-1.3l0.9-0.5v1.9h0.9v0.7h-0.9v3.1c0,0.3,0,0.4,0,0.5
				c0,0.1,0.1,0.1,0.2,0.2c0.1,0,0.2,0.1,0.3,0.1C273.3,279.4,273.5,279.4,273.6,279.4z"/>
			<path id="XMLID_352_" class="st1" d="M278,279.6c-0.3,0.3-0.7,0.5-1,0.6c-0.3,0.1-0.6,0.2-1,0.2c-0.6,0-1-0.1-1.4-0.4
				c-0.3-0.3-0.5-0.7-0.5-1.1c0-0.3,0.1-0.5,0.2-0.7c0.1-0.2,0.3-0.4,0.5-0.5c0.2-0.1,0.4-0.2,0.7-0.3c0.2,0,0.4-0.1,0.8-0.1
				c0.7-0.1,1.3-0.2,1.6-0.3c0-0.1,0-0.2,0-0.2c0-0.4-0.1-0.6-0.3-0.8c-0.2-0.2-0.6-0.3-1-0.3c-0.4,0-0.7,0.1-0.9,0.2
				c-0.2,0.1-0.4,0.4-0.5,0.8l-0.9-0.1c0.1-0.4,0.2-0.7,0.4-0.9c0.2-0.2,0.5-0.4,0.8-0.5c0.3-0.1,0.8-0.2,1.2-0.2
				c0.5,0,0.8,0.1,1.1,0.2s0.5,0.2,0.6,0.4c0.1,0.2,0.2,0.4,0.3,0.6c0,0.2,0,0.4,0,0.8v1.2c0,0.8,0,1.4,0.1,1.6
				c0,0.2,0.1,0.4,0.2,0.6h-0.9C278.1,280,278,279.8,278,279.6z M277.9,277.5c-0.3,0.1-0.8,0.2-1.5,0.3c-0.4,0.1-0.6,0.1-0.8,0.2
				c-0.2,0.1-0.3,0.2-0.4,0.3s-0.1,0.3-0.1,0.4c0,0.2,0.1,0.4,0.3,0.6s0.5,0.2,0.8,0.2c0.3,0,0.7-0.1,0.9-0.2
				c0.3-0.2,0.5-0.4,0.6-0.6c0.1-0.2,0.1-0.5,0.1-0.9V277.5z"/>
			<path id="XMLID_355_" class="st1" d="M279.9,278.6l0.9-0.1c0,0.4,0.2,0.6,0.4,0.8c0.2,0.2,0.6,0.3,1,0.3c0.4,0,0.7-0.1,0.9-0.3
				c0.2-0.2,0.3-0.4,0.3-0.6c0-0.2-0.1-0.4-0.3-0.5c-0.1-0.1-0.4-0.2-0.9-0.3c-0.7-0.2-1.1-0.3-1.4-0.4s-0.5-0.3-0.6-0.5
				c-0.1-0.2-0.2-0.5-0.2-0.7c0-0.2,0.1-0.5,0.2-0.7c0.1-0.2,0.3-0.4,0.4-0.5c0.1-0.1,0.3-0.2,0.6-0.3s0.5-0.1,0.8-0.1
				c0.4,0,0.8,0.1,1.1,0.2c0.3,0.1,0.6,0.3,0.7,0.5c0.2,0.2,0.3,0.5,0.3,0.8l-0.9,0.1c0-0.3-0.2-0.5-0.3-0.6
				c-0.2-0.2-0.5-0.2-0.8-0.2c-0.4,0-0.7,0.1-0.9,0.2s-0.3,0.3-0.3,0.5c0,0.1,0,0.2,0.1,0.3c0.1,0.1,0.2,0.2,0.3,0.2
				c0.1,0,0.4,0.1,0.8,0.2c0.6,0.2,1.1,0.3,1.3,0.4c0.3,0.1,0.5,0.3,0.6,0.5c0.1,0.2,0.2,0.5,0.2,0.8c0,0.3-0.1,0.6-0.3,0.9
				c-0.2,0.3-0.4,0.5-0.8,0.6c-0.3,0.1-0.7,0.2-1.1,0.2c-0.7,0-1.2-0.1-1.6-0.4C280.2,279.6,280,279.2,279.9,278.6z"/>
		</g>
		<g id="XMLID_284_">
			<path id="XMLID_285_" class="st1" d="M215.4,326.4v-0.9l3.1,0v2.7c-0.5,0.4-1,0.7-1.5,0.9c-0.5,0.2-1,0.3-1.6,0.3
				c-0.7,0-1.4-0.2-2-0.5s-1-0.8-1.3-1.3s-0.5-1.2-0.5-2c0-0.7,0.1-1.4,0.5-2c0.3-0.6,0.7-1.1,1.3-1.4c0.6-0.3,1.2-0.5,1.9-0.5
				c0.5,0,1,0.1,1.4,0.3c0.4,0.2,0.8,0.4,1,0.7c0.2,0.3,0.4,0.7,0.6,1.2l-0.9,0.2c-0.1-0.4-0.2-0.7-0.4-0.9
				c-0.2-0.2-0.4-0.4-0.7-0.5c-0.3-0.1-0.6-0.2-1-0.2c-0.4,0-0.8,0.1-1.2,0.2s-0.6,0.3-0.8,0.5c-0.2,0.2-0.4,0.5-0.5,0.7
				c-0.2,0.5-0.3,1-0.3,1.5c0,0.7,0.1,1.2,0.3,1.7c0.2,0.4,0.6,0.8,1,1c0.4,0.2,0.9,0.3,1.4,0.3c0.4,0,0.8-0.1,1.2-0.2
				c0.4-0.2,0.7-0.3,0.9-0.5v-1.4H215.4z"/>
			<path id="XMLID_287_" class="st1" d="M223.5,327.6l0.9,0.1c-0.1,0.5-0.4,1-0.8,1.3s-0.9,0.5-1.5,0.5c-0.8,0-1.4-0.2-1.9-0.7
				c-0.5-0.5-0.7-1.2-0.7-2c0-0.9,0.2-1.6,0.7-2.1c0.5-0.5,1.1-0.7,1.8-0.7c0.7,0,1.3,0.2,1.8,0.7c0.5,0.5,0.7,1.2,0.7,2.1
				c0,0.1,0,0.1,0,0.2h-4c0,0.6,0.2,1,0.5,1.3c0.3,0.3,0.7,0.5,1.1,0.5c0.3,0,0.6-0.1,0.9-0.3C223.2,328.3,223.3,328,223.5,327.6z
				 M220.5,326.1h3c0-0.4-0.2-0.8-0.3-1c-0.3-0.3-0.7-0.5-1.1-0.5c-0.4,0-0.8,0.1-1,0.4C220.7,325.3,220.5,325.7,220.5,326.1z"/>
			<path id="XMLID_290_" class="st1" d="M225.5,329.3V324h0.8v0.8c0.4-0.6,1-0.9,1.7-0.9c0.3,0,0.6,0.1,0.9,0.2
				c0.3,0.1,0.5,0.3,0.6,0.5c0.1,0.2,0.2,0.4,0.3,0.7c0,0.2,0,0.5,0,0.9v3.3H229v-3.3c0-0.4,0-0.6-0.1-0.8c-0.1-0.2-0.2-0.3-0.4-0.4
				c-0.2-0.1-0.4-0.2-0.6-0.2c-0.4,0-0.7,0.1-1,0.4s-0.4,0.7-0.4,1.4v2.9H225.5z"/>
			<path id="XMLID_292_" class="st1" d="M234.9,327.6l0.9,0.1c-0.1,0.5-0.4,1-0.8,1.3s-0.9,0.5-1.5,0.5c-0.8,0-1.4-0.2-1.9-0.7
				c-0.5-0.5-0.7-1.2-0.7-2c0-0.9,0.2-1.6,0.7-2.1c0.5-0.5,1.1-0.7,1.8-0.7c0.7,0,1.3,0.2,1.8,0.7c0.5,0.5,0.7,1.2,0.7,2.1
				c0,0.1,0,0.1,0,0.2h-4c0,0.6,0.2,1,0.5,1.3c0.3,0.3,0.7,0.5,1.1,0.5c0.3,0,0.6-0.1,0.9-0.3C234.6,328.3,234.8,328,234.9,327.6z
				 M232,326.1h3c0-0.4-0.2-0.8-0.3-1c-0.3-0.3-0.7-0.5-1.1-0.5c-0.4,0-0.8,0.1-1,0.4C232.1,325.3,232,325.7,232,326.1z"/>
			<path id="XMLID_295_" class="st1" d="M237,329.3V324h0.8v0.8c0.2-0.4,0.4-0.6,0.6-0.7c0.2-0.1,0.4-0.2,0.6-0.2
				c0.3,0,0.6,0.1,0.9,0.3l-0.3,0.8c-0.2-0.1-0.4-0.2-0.7-0.2c-0.2,0-0.4,0.1-0.5,0.2c-0.2,0.1-0.3,0.3-0.3,0.5
				c-0.1,0.3-0.2,0.7-0.2,1.1v2.8H237z"/>
			<path id="XMLID_297_" class="st1" d="M243.9,328.7c-0.3,0.3-0.7,0.5-1,0.6c-0.3,0.1-0.6,0.2-1,0.2c-0.6,0-1-0.1-1.4-0.4
				c-0.3-0.3-0.5-0.7-0.5-1.1c0-0.3,0.1-0.5,0.2-0.7c0.1-0.2,0.3-0.4,0.5-0.5c0.2-0.1,0.4-0.2,0.7-0.3c0.2,0,0.4-0.1,0.8-0.1
				c0.7-0.1,1.3-0.2,1.6-0.3c0-0.1,0-0.2,0-0.2c0-0.4-0.1-0.6-0.3-0.8c-0.2-0.2-0.6-0.3-1-0.3c-0.4,0-0.7,0.1-0.9,0.2
				c-0.2,0.1-0.4,0.4-0.5,0.8l-0.9-0.1c0.1-0.4,0.2-0.7,0.4-0.9c0.2-0.2,0.5-0.4,0.8-0.5c0.3-0.1,0.8-0.2,1.2-0.2
				c0.5,0,0.8,0.1,1.1,0.2s0.5,0.2,0.6,0.4c0.1,0.2,0.2,0.4,0.3,0.6c0,0.2,0,0.4,0,0.8v1.2c0,0.8,0,1.4,0.1,1.6
				c0,0.2,0.1,0.4,0.2,0.6h-0.9C244,329.1,244,328.9,243.9,328.7z M243.9,326.6c-0.3,0.1-0.8,0.2-1.5,0.3c-0.4,0.1-0.6,0.1-0.8,0.2
				c-0.2,0.1-0.3,0.2-0.4,0.3s-0.1,0.3-0.1,0.4c0,0.2,0.1,0.4,0.3,0.6s0.5,0.2,0.8,0.2c0.3,0,0.7-0.1,0.9-0.2
				c0.3-0.2,0.5-0.4,0.6-0.6c0.1-0.2,0.1-0.5,0.1-0.9V326.6z"/>
			<path id="XMLID_300_" class="st1" d="M246.2,329.3V324h0.8v0.8c0.2-0.4,0.4-0.6,0.6-0.7c0.2-0.1,0.4-0.2,0.6-0.2
				c0.3,0,0.6,0.1,0.9,0.3l-0.3,0.8c-0.2-0.1-0.4-0.2-0.7-0.2c-0.2,0-0.4,0.1-0.5,0.2c-0.2,0.1-0.3,0.3-0.3,0.5
				c-0.1,0.3-0.2,0.7-0.2,1.1v2.8H246.2z"/>
			<path id="XMLID_302_" class="st1" d="M252.5,329.3V324h0.8v0.8c0.2-0.4,0.4-0.6,0.6-0.7c0.2-0.1,0.4-0.2,0.6-0.2
				c0.3,0,0.6,0.1,0.9,0.3L255,325c-0.2-0.1-0.4-0.2-0.7-0.2c-0.2,0-0.4,0.1-0.5,0.2c-0.2,0.1-0.3,0.3-0.3,0.5
				c-0.1,0.3-0.2,0.7-0.2,1.1v2.8H252.5z"/>
			<path id="XMLID_304_" class="st1" d="M259.6,327.6l0.9,0.1c-0.1,0.5-0.4,1-0.8,1.3s-0.9,0.5-1.5,0.5c-0.8,0-1.4-0.2-1.9-0.7
				c-0.5-0.5-0.7-1.2-0.7-2c0-0.9,0.2-1.6,0.7-2.1c0.5-0.5,1.1-0.7,1.8-0.7c0.7,0,1.3,0.2,1.8,0.7c0.5,0.5,0.7,1.2,0.7,2.1
				c0,0.1,0,0.1,0,0.2h-4c0,0.6,0.2,1,0.5,1.3c0.3,0.3,0.7,0.5,1.1,0.5c0.3,0,0.6-0.1,0.9-0.3C259.2,328.3,259.4,328,259.6,327.6z
				 M256.6,326.1h3c0-0.4-0.2-0.8-0.3-1c-0.3-0.3-0.7-0.5-1.1-0.5c-0.4,0-0.8,0.1-1,0.4C256.8,325.3,256.6,325.7,256.6,326.1z"/>
			<path id="XMLID_307_" class="st1" d="M261.6,331.4V324h0.8v0.7c0.2-0.3,0.4-0.5,0.7-0.6s0.5-0.2,0.9-0.2c0.5,0,0.9,0.1,1.2,0.4
				c0.3,0.2,0.6,0.6,0.8,1s0.3,0.9,0.3,1.4c0,0.5-0.1,1-0.3,1.5s-0.5,0.8-0.9,1c-0.4,0.2-0.8,0.3-1.2,0.3c-0.3,0-0.6-0.1-0.8-0.2
				c-0.2-0.1-0.4-0.3-0.6-0.5v2.6H261.6z M262.4,326.7c0,0.7,0.1,1.2,0.4,1.5c0.3,0.3,0.6,0.5,1,0.5c0.4,0,0.7-0.2,1-0.5
				c0.3-0.3,0.4-0.9,0.4-1.6c0-0.7-0.1-1.2-0.4-1.5s-0.6-0.5-1-0.5c-0.4,0-0.7,0.2-1,0.5C262.6,325.5,262.4,326,262.4,326.7z"/>
			<path id="XMLID_310_" class="st1" d="M267,326.6c0-1,0.3-1.7,0.8-2.2c0.5-0.4,1-0.6,1.7-0.6c0.7,0,1.3,0.2,1.8,0.7
				c0.5,0.5,0.7,1.1,0.7,2c0,0.7-0.1,1.2-0.3,1.6c-0.2,0.4-0.5,0.7-0.9,0.9c-0.4,0.2-0.8,0.3-1.3,0.3c-0.7,0-1.4-0.2-1.8-0.7
				C267.2,328.2,267,327.5,267,326.6z M267.9,326.6c0,0.7,0.1,1.2,0.4,1.5c0.3,0.3,0.7,0.5,1.1,0.5c0.4,0,0.8-0.2,1.1-0.5
				c0.3-0.3,0.4-0.9,0.4-1.6c0-0.7-0.2-1.2-0.5-1.5c-0.3-0.3-0.7-0.5-1.1-0.5c-0.5,0-0.8,0.2-1.1,0.5
				C268.1,325.4,267.9,326,267.9,326.6z"/>
			<path id="XMLID_313_" class="st1" d="M273.1,329.3V324h0.8v0.8c0.2-0.4,0.4-0.6,0.6-0.7c0.2-0.1,0.4-0.2,0.6-0.2
				c0.3,0,0.6,0.1,0.9,0.3l-0.3,0.8c-0.2-0.1-0.4-0.2-0.7-0.2c-0.2,0-0.4,0.1-0.5,0.2c-0.2,0.1-0.3,0.3-0.3,0.5
				c-0.1,0.3-0.2,0.7-0.2,1.1v2.8H273.1z"/>
			<path id="XMLID_315_" class="st1" d="M278.5,328.5l0.1,0.8c-0.3,0.1-0.5,0.1-0.7,0.1c-0.3,0-0.6-0.1-0.8-0.2
				c-0.2-0.1-0.3-0.2-0.4-0.4c-0.1-0.2-0.1-0.5-0.1-1.1v-3.1H276V324h0.7v-1.3l0.9-0.5v1.9h0.9v0.7h-0.9v3.1c0,0.3,0,0.4,0,0.5
				c0,0.1,0.1,0.1,0.2,0.2c0.1,0,0.2,0.1,0.3,0.1C278.2,328.5,278.3,328.5,278.5,328.5z"/>
			<path id="XMLID_317_" class="st1" d="M283,327.6l0.9,0.1c-0.1,0.5-0.4,1-0.8,1.3s-0.9,0.5-1.5,0.5c-0.8,0-1.4-0.2-1.9-0.7
				c-0.5-0.5-0.7-1.2-0.7-2c0-0.9,0.2-1.6,0.7-2.1c0.5-0.5,1.1-0.7,1.8-0.7c0.7,0,1.3,0.2,1.8,0.7c0.5,0.5,0.7,1.2,0.7,2.1
				c0,0.1,0,0.1,0,0.2h-4c0,0.6,0.2,1,0.5,1.3c0.3,0.3,0.7,0.5,1.1,0.5c0.3,0,0.6-0.1,0.9-0.3C282.7,328.3,282.9,328,283,327.6z
				 M280.1,326.1h3c0-0.4-0.2-0.8-0.3-1c-0.3-0.3-0.7-0.5-1.1-0.5c-0.4,0-0.8,0.1-1,0.4C280.2,325.3,280.1,325.7,280.1,326.1z"/>
			<path id="XMLID_320_" class="st1" d="M284.7,327.7l0.9-0.1c0,0.4,0.2,0.6,0.4,0.8c0.2,0.2,0.6,0.3,1,0.3c0.4,0,0.7-0.1,0.9-0.3
				c0.2-0.2,0.3-0.4,0.3-0.6c0-0.2-0.1-0.4-0.3-0.5c-0.1-0.1-0.4-0.2-0.9-0.3c-0.7-0.2-1.1-0.3-1.4-0.4s-0.5-0.3-0.6-0.5
				c-0.1-0.2-0.2-0.5-0.2-0.7c0-0.2,0.1-0.5,0.2-0.7c0.1-0.2,0.3-0.4,0.4-0.5c0.1-0.1,0.3-0.2,0.6-0.3s0.5-0.1,0.8-0.1
				c0.4,0,0.8,0.1,1.1,0.2c0.3,0.1,0.6,0.3,0.7,0.5c0.2,0.2,0.3,0.5,0.3,0.8l-0.9,0.1c0-0.3-0.2-0.5-0.3-0.6
				c-0.2-0.2-0.5-0.2-0.8-0.2c-0.4,0-0.7,0.1-0.9,0.2s-0.3,0.3-0.3,0.5c0,0.1,0,0.2,0.1,0.3c0.1,0.1,0.2,0.2,0.3,0.2
				c0.1,0,0.4,0.1,0.8,0.2c0.6,0.2,1.1,0.3,1.3,0.4c0.3,0.1,0.5,0.3,0.6,0.5c0.1,0.2,0.2,0.5,0.2,0.8c0,0.3-0.1,0.6-0.3,0.9
				c-0.2,0.3-0.4,0.5-0.8,0.6c-0.3,0.1-0.7,0.2-1.1,0.2c-0.7,0-1.2-0.1-1.6-0.4C285.1,328.7,284.8,328.3,284.7,327.7z"/>
		</g>
	</g>
	<g id="XMLID_8553_">
		<path id="XMLID_9081_" class="st4" d="M625.6,87.1h-92.2c-8.6,0-15.7-7.1-15.7-15.7v0c0-8.6,7.1-15.7,15.7-15.7h92.2
			c8.6,0,15.7,7.1,15.7,15.7v0C641.3,80,634.2,87.1,625.6,87.1z"/>
		<g id="XMLID_9534_">
			<circle id="XMLID_9535_" class="st5" cx="579.5" cy="10.8" r="10.8"/>
		</g>
		<g id="XMLID_9277_">
			<circle id="XMLID_9328_" class="st5" cx="481.1" cy="346.7" r="10.8"/>
			<circle id="XMLID_9279_" class="st6" cx="481.1" cy="346.7" r="13.6"/>
		</g>
		<g id="XMLID_248_">
			<path id="XMLID_249_" d="M539.3,75.5V67h1.1v8.6H539.3z"/>
			<path id="XMLID_251_" d="M542.3,75.5v-6.2h0.9v0.9c0.5-0.7,1.1-1,2-1c0.4,0,0.7,0.1,1,0.2s0.5,0.3,0.7,0.5s0.3,0.5,0.3,0.8
				c0,0.2,0.1,0.5,0.1,1v3.8h-1.1v-3.8c0-0.4,0-0.8-0.1-1s-0.2-0.4-0.4-0.5s-0.5-0.2-0.7-0.2c-0.4,0-0.8,0.1-1.2,0.4
				s-0.5,0.8-0.5,1.6v3.4H542.3z"/>
			<path id="XMLID_253_" d="M548.8,76.1l1,0.2c0,0.3,0.2,0.5,0.4,0.7c0.3,0.2,0.6,0.3,1.1,0.3c0.5,0,0.9-0.1,1.1-0.3
				s0.4-0.5,0.5-0.8c0.1-0.2,0.1-0.7,0.1-1.4c-0.5,0.5-1,0.8-1.7,0.8c-0.9,0-1.5-0.3-2-0.9s-0.7-1.4-0.7-2.2c0-0.6,0.1-1.1,0.3-1.6
				s0.5-0.9,0.9-1.2s0.9-0.4,1.4-0.4c0.7,0,1.3,0.3,1.8,0.9v-0.8h1v5.4c0,1-0.1,1.7-0.3,2.1s-0.5,0.7-0.9,1s-1,0.4-1.6,0.4
				c-0.7,0-1.3-0.2-1.8-0.5S548.7,76.7,548.8,76.1z M549.6,72.3c0,0.8,0.2,1.4,0.5,1.8s0.7,0.6,1.2,0.6c0.5,0,0.9-0.2,1.2-0.6
				s0.5-1,0.5-1.8c0-0.8-0.2-1.3-0.5-1.7s-0.7-0.6-1.2-0.6c-0.5,0-0.9,0.2-1.2,0.6S549.6,71.6,549.6,72.3z"/>
			<path id="XMLID_256_" d="M555.6,75.5v-6.2h0.9v0.9c0.2-0.4,0.5-0.7,0.7-0.9s0.4-0.2,0.7-0.2c0.4,0,0.7,0.1,1.1,0.3l-0.4,1
				c-0.3-0.2-0.5-0.2-0.8-0.2c-0.2,0-0.4,0.1-0.6,0.2s-0.3,0.3-0.4,0.6c-0.1,0.4-0.2,0.8-0.2,1.2v3.3H555.6z"/>
			<path id="XMLID_258_" d="M563.9,73.5l1.1,0.1c-0.2,0.6-0.5,1.1-1,1.5s-1.1,0.5-1.8,0.5c-0.9,0-1.6-0.3-2.2-0.8s-0.8-1.3-0.8-2.4
				c0-1,0.3-1.9,0.8-2.4s1.2-0.9,2.1-0.9c0.8,0,1.5,0.3,2,0.8s0.8,1.4,0.8,2.4c0,0.1,0,0.2,0,0.3h-4.6c0,0.7,0.2,1.2,0.6,1.6
				s0.8,0.5,1.3,0.5c0.4,0,0.7-0.1,1-0.3S563.7,74,563.9,73.5z M560.4,71.8h3.5c0-0.5-0.2-0.9-0.4-1.2c-0.3-0.4-0.8-0.6-1.3-0.6
				c-0.5,0-0.9,0.2-1.2,0.5S560.4,71.3,560.4,71.8z"/>
			<path id="XMLID_261_" d="M565.9,73.7l1-0.2c0.1,0.4,0.2,0.7,0.5,1s0.6,0.3,1.1,0.3c0.5,0,0.8-0.1,1.1-0.3s0.4-0.4,0.4-0.7
				c0-0.2-0.1-0.4-0.3-0.6c-0.1-0.1-0.5-0.2-1.1-0.4c-0.8-0.2-1.3-0.4-1.6-0.5s-0.5-0.3-0.7-0.6S566,71.3,566,71
				c0-0.3,0.1-0.5,0.2-0.8s0.3-0.4,0.5-0.6c0.2-0.1,0.4-0.2,0.7-0.3s0.6-0.1,0.9-0.1c0.5,0,0.9,0.1,1.3,0.2s0.6,0.3,0.8,0.6
				s0.3,0.6,0.4,1l-1,0.1c0-0.3-0.2-0.6-0.4-0.8s-0.5-0.3-1-0.3c-0.5,0-0.8,0.1-1,0.2s-0.3,0.3-0.3,0.6c0,0.1,0,0.3,0.1,0.4
				c0.1,0.1,0.2,0.2,0.4,0.3c0.1,0,0.4,0.1,0.9,0.3c0.7,0.2,1.3,0.4,1.6,0.5s0.5,0.3,0.7,0.6s0.3,0.5,0.3,0.9c0,0.4-0.1,0.7-0.3,1
				s-0.5,0.6-0.9,0.7s-0.8,0.3-1.3,0.3c-0.8,0-1.4-0.2-1.8-0.5S566,74.3,565.9,73.7z"/>
			<path id="XMLID_263_" d="M576.4,74.8c-0.4,0.3-0.8,0.6-1.1,0.7s-0.7,0.2-1.2,0.2c-0.7,0-1.2-0.2-1.6-0.5s-0.6-0.8-0.6-1.3
				c0-0.3,0.1-0.6,0.2-0.8s0.3-0.5,0.5-0.6s0.5-0.3,0.8-0.3c0.2-0.1,0.5-0.1,0.9-0.2c0.9-0.1,1.5-0.2,1.9-0.4c0-0.1,0-0.2,0-0.3
				c0-0.4-0.1-0.7-0.3-0.9c-0.3-0.2-0.7-0.4-1.2-0.4c-0.5,0-0.9,0.1-1.1,0.3s-0.4,0.5-0.5,0.9l-1-0.1c0.1-0.4,0.2-0.8,0.5-1.1
				s0.5-0.5,0.9-0.6s0.9-0.2,1.4-0.2c0.5,0,1,0.1,1.3,0.2s0.6,0.3,0.7,0.5s0.3,0.4,0.3,0.7c0,0.2,0.1,0.5,0.1,1v1.4
				c0,1,0,1.6,0.1,1.9s0.1,0.5,0.3,0.7h-1.1C576.5,75.3,576.4,75.1,576.4,74.8z M576.3,72.4c-0.4,0.2-1,0.3-1.7,0.4
				c-0.4,0.1-0.7,0.1-0.9,0.2s-0.3,0.2-0.4,0.3s-0.1,0.3-0.1,0.5c0,0.3,0.1,0.5,0.3,0.7s0.5,0.3,0.9,0.3c0.4,0,0.8-0.1,1.1-0.3
				s0.5-0.4,0.7-0.7c0.1-0.2,0.2-0.6,0.2-1.1V72.4z"/>
			<path id="XMLID_266_" d="M579,75.5v-6.2h0.9v0.9c0.2-0.4,0.5-0.7,0.7-0.9s0.4-0.2,0.7-0.2c0.4,0,0.7,0.1,1.1,0.3l-0.4,1
				c-0.3-0.2-0.5-0.2-0.8-0.2c-0.2,0-0.4,0.1-0.6,0.2s-0.3,0.3-0.4,0.6c-0.1,0.4-0.2,0.8-0.2,1.2v3.3H579z"/>
			<path id="XMLID_268_" d="M590.4,73.3l1,0.1c-0.1,0.7-0.4,1.3-0.9,1.7s-1,0.6-1.7,0.6c-0.9,0-1.5-0.3-2.1-0.8s-0.8-1.4-0.8-2.4
				c0-0.7,0.1-1.3,0.3-1.8s0.6-0.9,1-1.1s1-0.4,1.5-0.4c0.7,0,1.2,0.2,1.7,0.5s0.7,0.8,0.8,1.5l-1,0.2c-0.1-0.4-0.3-0.7-0.5-0.9
				s-0.5-0.3-0.9-0.3c-0.5,0-1,0.2-1.3,0.6s-0.5,1-0.5,1.8c0,0.8,0.2,1.4,0.5,1.8s0.7,0.6,1.3,0.6c0.4,0,0.8-0.1,1-0.4
				S590.3,73.8,590.4,73.3z"/>
			<path id="XMLID_270_" d="M596.6,73.5l1.1,0.1c-0.2,0.6-0.5,1.1-1,1.5s-1.1,0.5-1.8,0.5c-0.9,0-1.6-0.3-2.2-0.8s-0.8-1.3-0.8-2.4
				c0-1,0.3-1.9,0.8-2.4s1.2-0.9,2.1-0.9c0.8,0,1.5,0.3,2,0.8s0.8,1.4,0.8,2.4c0,0.1,0,0.2,0,0.3H593c0,0.7,0.2,1.2,0.6,1.6
				s0.8,0.5,1.3,0.5c0.4,0,0.7-0.1,1-0.3S596.4,74,596.6,73.5z M593.1,71.8h3.5c0-0.5-0.2-0.9-0.4-1.2c-0.3-0.4-0.8-0.6-1.3-0.6
				c-0.5,0-0.9,0.2-1.2,0.5S593.1,71.3,593.1,71.8z M594.2,68.6l0.8-1.6h1.4l-1.3,1.6H594.2z"/>
			<path id="XMLID_274_" d="M603,75.5v-0.8c-0.4,0.6-1,0.9-1.7,0.9c-0.5,0-1-0.1-1.4-0.4s-0.7-0.7-1-1.1s-0.3-1.1-0.3-1.7
				c0-0.6,0.1-1.2,0.3-1.7s0.5-0.9,0.9-1.2s0.9-0.4,1.4-0.4c0.4,0,0.7,0.1,1,0.2s0.5,0.4,0.7,0.6V67h1v8.6H603z M599.7,72.4
				c0,0.8,0.2,1.4,0.5,1.8s0.7,0.6,1.2,0.6c0.5,0,0.9-0.2,1.2-0.6s0.5-1,0.5-1.7c0-0.9-0.2-1.5-0.5-1.9s-0.7-0.6-1.2-0.6
				c-0.5,0-0.9,0.2-1.2,0.6S599.7,71.6,599.7,72.4z"/>
			<path id="XMLID_277_" d="M609.7,75.5v-0.9c-0.5,0.7-1.1,1.1-2,1.1c-0.4,0-0.7-0.1-1-0.2s-0.6-0.3-0.7-0.5s-0.3-0.5-0.3-0.8
				c0-0.2-0.1-0.5-0.1-1v-3.9h1.1v3.5c0,0.6,0,0.9,0.1,1.1c0.1,0.3,0.2,0.5,0.4,0.7s0.5,0.2,0.8,0.2s0.6-0.1,0.9-0.2
				s0.5-0.4,0.6-0.7s0.2-0.7,0.2-1.2v-3.3h1.1v6.2H609.7z"/>
			<path id="XMLID_279_" d="M612.3,75.5V67h1.1v8.6H612.3z"/>
			<path id="XMLID_281_" d="M619,74.8c-0.4,0.3-0.8,0.6-1.1,0.7s-0.7,0.2-1.2,0.2c-0.7,0-1.2-0.2-1.6-0.5s-0.6-0.8-0.6-1.3
				c0-0.3,0.1-0.6,0.2-0.8s0.3-0.5,0.5-0.6s0.5-0.3,0.8-0.3c0.2-0.1,0.5-0.1,0.9-0.2c0.9-0.1,1.5-0.2,1.9-0.4c0-0.1,0-0.2,0-0.3
				c0-0.4-0.1-0.7-0.3-0.9c-0.3-0.2-0.7-0.4-1.2-0.4c-0.5,0-0.9,0.1-1.1,0.3s-0.4,0.5-0.5,0.9l-1-0.1c0.1-0.4,0.2-0.8,0.5-1.1
				s0.5-0.5,0.9-0.6s0.9-0.2,1.4-0.2c0.5,0,1,0.1,1.3,0.2s0.6,0.3,0.7,0.5s0.3,0.4,0.3,0.7c0,0.2,0.1,0.5,0.1,1v1.4
				c0,1,0,1.6,0.1,1.9s0.1,0.5,0.3,0.7h-1.1C619.1,75.3,619.1,75.1,619,74.8z M619,72.4c-0.4,0.2-1,0.3-1.7,0.4
				c-0.4,0.1-0.7,0.1-0.9,0.2s-0.3,0.2-0.4,0.3s-0.1,0.3-0.1,0.5c0,0.3,0.1,0.5,0.3,0.7s0.5,0.3,0.9,0.3c0.4,0,0.8-0.1,1.1-0.3
				s0.5-0.4,0.7-0.7c0.1-0.2,0.2-0.6,0.2-1.1V72.4z"/>
		</g>
		<path id="XMLID_9253_" class="st7" d="M819,249h-92.2c-8.6,0-15.7-7.1-15.7-15.7v0c0-8.6,7.1-15.7,15.7-15.7H819
			c8.6,0,15.7,7.1,15.7,15.7v0C834.7,241.9,827.6,249,819,249z"/>
		<g id="XMLID_212_">
			<path id="XMLID_213_" d="M732.7,237.4v-8.6h1.1v8.6H732.7z"/>
			<path id="XMLID_215_" d="M735.7,237.4v-6.2h0.9v0.9c0.5-0.7,1.1-1,2-1c0.4,0,0.7,0.1,1,0.2s0.5,0.3,0.7,0.5s0.3,0.5,0.3,0.8
				c0,0.2,0.1,0.5,0.1,1v3.8h-1.1v-3.8c0-0.4,0-0.8-0.1-1s-0.2-0.4-0.4-0.5s-0.5-0.2-0.7-0.2c-0.4,0-0.8,0.1-1.2,0.4
				s-0.5,0.8-0.5,1.6v3.4H735.7z"/>
			<path id="XMLID_217_" d="M742.1,238l1,0.2c0,0.3,0.2,0.5,0.4,0.7c0.3,0.2,0.6,0.3,1.1,0.3c0.5,0,0.9-0.1,1.1-0.3s0.4-0.5,0.5-0.8
				c0.1-0.2,0.1-0.7,0.1-1.4c-0.5,0.5-1,0.8-1.7,0.8c-0.9,0-1.5-0.3-2-0.9s-0.7-1.4-0.7-2.2c0-0.6,0.1-1.1,0.3-1.6s0.5-0.9,0.9-1.2
				s0.9-0.4,1.4-0.4c0.7,0,1.3,0.3,1.8,0.9v-0.8h1v5.4c0,1-0.1,1.7-0.3,2.1s-0.5,0.7-0.9,1s-1,0.4-1.6,0.4c-0.7,0-1.3-0.2-1.8-0.5
				S742.1,238.6,742.1,238z M743,234.2c0,0.8,0.2,1.4,0.5,1.8s0.7,0.6,1.2,0.6c0.5,0,0.9-0.2,1.2-0.6s0.5-1,0.5-1.8
				c0-0.8-0.2-1.3-0.5-1.7s-0.7-0.6-1.2-0.6c-0.5,0-0.9,0.2-1.2,0.6S743,233.5,743,234.2z"/>
			<path id="XMLID_220_" d="M749,237.4v-6.2h0.9v0.9c0.2-0.4,0.5-0.7,0.7-0.9s0.4-0.2,0.7-0.2c0.4,0,0.7,0.1,1.1,0.3l-0.4,1
				c-0.3-0.2-0.5-0.2-0.8-0.2c-0.2,0-0.4,0.1-0.6,0.2s-0.3,0.3-0.4,0.6c-0.1,0.4-0.2,0.8-0.2,1.2v3.3H749z"/>
			<path id="XMLID_222_" d="M757.3,235.4l1.1,0.1c-0.2,0.6-0.5,1.1-1,1.5s-1.1,0.5-1.8,0.5c-0.9,0-1.6-0.3-2.2-0.8s-0.8-1.3-0.8-2.4
				c0-1,0.3-1.9,0.8-2.4s1.2-0.9,2.1-0.9c0.8,0,1.5,0.3,2,0.8s0.8,1.4,0.8,2.4c0,0.1,0,0.2,0,0.3h-4.6c0,0.7,0.2,1.2,0.6,1.6
				s0.8,0.5,1.3,0.5c0.4,0,0.7-0.1,1-0.3S757.1,235.9,757.3,235.4z M753.8,233.7h3.5c0-0.5-0.2-0.9-0.4-1.2
				c-0.3-0.4-0.8-0.6-1.3-0.6c-0.5,0-0.9,0.2-1.2,0.5S753.8,233.2,753.8,233.7z"/>
			<path id="XMLID_225_" d="M759.3,235.6l1-0.2c0.1,0.4,0.2,0.7,0.5,1s0.6,0.3,1.1,0.3c0.5,0,0.8-0.1,1.1-0.3s0.4-0.4,0.4-0.7
				c0-0.2-0.1-0.4-0.3-0.6c-0.1-0.1-0.5-0.2-1.1-0.4c-0.8-0.2-1.3-0.4-1.6-0.5s-0.5-0.3-0.7-0.6s-0.2-0.5-0.2-0.8
				c0-0.3,0.1-0.5,0.2-0.8s0.3-0.4,0.5-0.6c0.2-0.1,0.4-0.2,0.7-0.3s0.6-0.1,0.9-0.1c0.5,0,0.9,0.1,1.3,0.2s0.6,0.3,0.8,0.6
				s0.3,0.6,0.4,1l-1,0.1c0-0.3-0.2-0.6-0.4-0.8s-0.5-0.3-1-0.3c-0.5,0-0.8,0.1-1,0.2s-0.3,0.3-0.3,0.6c0,0.1,0,0.3,0.1,0.4
				c0.1,0.1,0.2,0.2,0.4,0.3c0.1,0,0.4,0.1,0.9,0.3c0.7,0.2,1.3,0.4,1.6,0.5s0.5,0.3,0.7,0.6s0.3,0.5,0.3,0.9c0,0.4-0.1,0.7-0.3,1
				s-0.5,0.6-0.9,0.7s-0.8,0.3-1.3,0.3c-0.8,0-1.4-0.2-1.8-0.5S759.4,236.2,759.3,235.6z"/>
			<path id="XMLID_227_" d="M769.7,236.7c-0.4,0.3-0.8,0.6-1.1,0.7s-0.8,0.2-1.2,0.2c-0.7,0-1.2-0.2-1.6-0.5s-0.6-0.8-0.6-1.3
				c0-0.3,0.1-0.6,0.2-0.8s0.3-0.5,0.5-0.6s0.5-0.3,0.8-0.3c0.2-0.1,0.5-0.1,0.9-0.2c0.9-0.1,1.5-0.2,1.9-0.4c0-0.1,0-0.2,0-0.3
				c0-0.4-0.1-0.7-0.3-0.9c-0.3-0.2-0.7-0.4-1.2-0.4c-0.5,0-0.9,0.1-1.1,0.3s-0.4,0.5-0.5,0.9l-1-0.1c0.1-0.4,0.2-0.8,0.5-1.1
				s0.5-0.5,0.9-0.6s0.9-0.2,1.4-0.2c0.5,0,1,0.1,1.3,0.2s0.6,0.3,0.7,0.5s0.3,0.4,0.3,0.7c0,0.2,0.1,0.5,0.1,1v1.4
				c0,1,0,1.6,0.1,1.9s0.1,0.5,0.3,0.7H770C769.8,237.2,769.8,237,769.7,236.7z M769.7,234.3c-0.4,0.2-1,0.3-1.7,0.4
				c-0.4,0.1-0.7,0.1-0.9,0.2s-0.3,0.2-0.4,0.3s-0.1,0.3-0.1,0.5c0,0.3,0.1,0.5,0.3,0.7s0.5,0.3,0.9,0.3c0.4,0,0.8-0.1,1.1-0.3
				s0.5-0.4,0.7-0.7c0.1-0.2,0.2-0.6,0.2-1.1V234.3z"/>
			<path id="XMLID_230_" d="M772.3,237.4v-6.2h0.9v0.9c0.2-0.4,0.5-0.7,0.7-0.9s0.4-0.2,0.7-0.2c0.4,0,0.7,0.1,1.1,0.3l-0.4,1
				c-0.3-0.2-0.5-0.2-0.8-0.2c-0.2,0-0.4,0.1-0.6,0.2s-0.3,0.3-0.4,0.6c-0.1,0.4-0.2,0.8-0.2,1.2v3.3H772.3z"/>
			<path id="XMLID_232_" d="M783.7,235.2l1,0.1c-0.1,0.7-0.4,1.3-0.9,1.7s-1,0.6-1.7,0.6c-0.9,0-1.5-0.3-2.1-0.8s-0.8-1.4-0.8-2.4
				c0-0.7,0.1-1.3,0.3-1.8s0.6-0.9,1-1.1s0.9-0.4,1.5-0.4c0.7,0,1.2,0.2,1.7,0.5s0.7,0.8,0.8,1.5l-1,0.2c-0.1-0.4-0.3-0.7-0.5-0.9
				s-0.5-0.3-0.9-0.3c-0.5,0-1,0.2-1.3,0.6s-0.5,1-0.5,1.8c0,0.8,0.2,1.4,0.5,1.8s0.7,0.6,1.3,0.6c0.4,0,0.8-0.1,1-0.4
				S783.7,235.7,783.7,235.2z"/>
			<path id="XMLID_234_" d="M789.9,235.4l1.1,0.1c-0.2,0.6-0.5,1.1-1,1.5s-1.1,0.5-1.8,0.5c-0.9,0-1.6-0.3-2.2-0.8s-0.8-1.3-0.8-2.4
				c0-1,0.3-1.9,0.8-2.4s1.2-0.9,2.1-0.9c0.8,0,1.5,0.3,2,0.8s0.8,1.4,0.8,2.4c0,0.1,0,0.2,0,0.3h-4.6c0,0.7,0.2,1.2,0.6,1.6
				s0.8,0.5,1.3,0.5c0.4,0,0.7-0.1,1-0.3S789.8,235.9,789.9,235.4z M786.5,233.7h3.5c0-0.5-0.2-0.9-0.4-1.2
				c-0.3-0.4-0.8-0.6-1.3-0.6c-0.5,0-0.9,0.2-1.2,0.5S786.5,233.2,786.5,233.7z M787.6,230.4l0.8-1.6h1.4l-1.3,1.6H787.6z"/>
			<path id="XMLID_238_" d="M796.4,237.4v-0.8c-0.4,0.6-1,0.9-1.7,0.9c-0.5,0-1-0.1-1.4-0.4s-0.7-0.7-1-1.1s-0.3-1.1-0.3-1.7
				c0-0.6,0.1-1.2,0.3-1.7s0.5-0.9,0.9-1.2s0.9-0.4,1.4-0.4c0.4,0,0.7,0.1,1,0.2s0.5,0.4,0.7,0.6v-3.1h1v8.6H796.4z M793.1,234.3
				c0,0.8,0.2,1.4,0.5,1.8s0.7,0.6,1.2,0.6c0.5,0,0.9-0.2,1.2-0.6s0.5-1,0.5-1.7c0-0.9-0.2-1.5-0.5-1.9s-0.7-0.6-1.2-0.6
				c-0.5,0-0.9,0.2-1.2,0.6S793.1,233.5,793.1,234.3z"/>
			<path id="XMLID_241_" d="M803.1,237.4v-0.9c-0.5,0.7-1.1,1.1-2,1.1c-0.4,0-0.7-0.1-1-0.2s-0.6-0.3-0.7-0.5s-0.3-0.5-0.3-0.8
				c0-0.2-0.1-0.5-0.1-1v-3.9h1.1v3.5c0,0.6,0,0.9,0.1,1.1c0.1,0.3,0.2,0.5,0.4,0.7s0.5,0.2,0.8,0.2s0.6-0.1,0.9-0.2
				s0.5-0.4,0.6-0.7s0.2-0.7,0.2-1.2v-3.3h1.1v6.2H803.1z"/>
			<path id="XMLID_243_" d="M805.7,237.4v-8.6h1.1v8.6H805.7z"/>
			<path id="XMLID_245_" d="M812.4,236.7c-0.4,0.3-0.8,0.6-1.1,0.7s-0.8,0.2-1.2,0.2c-0.7,0-1.2-0.2-1.6-0.5s-0.6-0.8-0.6-1.3
				c0-0.3,0.1-0.6,0.2-0.8s0.3-0.5,0.5-0.6s0.5-0.3,0.8-0.3c0.2-0.1,0.5-0.1,0.9-0.2c0.9-0.1,1.5-0.2,1.9-0.4c0-0.1,0-0.2,0-0.3
				c0-0.4-0.1-0.7-0.3-0.9c-0.3-0.2-0.7-0.4-1.2-0.4c-0.5,0-0.9,0.1-1.1,0.3s-0.4,0.5-0.5,0.9l-1-0.1c0.1-0.4,0.2-0.8,0.5-1.1
				s0.5-0.5,0.9-0.6s0.9-0.2,1.4-0.2c0.5,0,1,0.1,1.3,0.2s0.6,0.3,0.7,0.5s0.3,0.4,0.3,0.7c0,0.2,0.1,0.5,0.1,1v1.4
				c0,1,0,1.6,0.1,1.9s0.1,0.5,0.3,0.7h-1.1C812.5,237.2,812.5,237,812.4,236.7z M812.3,234.3c-0.4,0.2-1,0.3-1.7,0.4
				c-0.4,0.1-0.7,0.1-0.9,0.2s-0.3,0.2-0.4,0.3s-0.1,0.3-0.1,0.5c0,0.3,0.1,0.5,0.3,0.7s0.5,0.3,0.9,0.3c0.4,0,0.8-0.1,1.1-0.3
				s0.5-0.4,0.7-0.7c0.1-0.2,0.2-0.6,0.2-1.1V234.3z"/>
		</g>
		<path id="XMLID_9274_" class="st7" d="M958.5,249h-92.2c-8.6,0-15.7-7.1-15.7-15.7v0c0-8.6,7.1-15.7,15.7-15.7h92.2
			c8.6,0,15.7,7.1,15.7,15.7v0C974.2,241.9,967.1,249,958.5,249z"/>
		<g id="XMLID_173_">
			<path id="XMLID_174_" d="M867,237.4v-8.6h3.8c0.8,0,1.3,0.1,1.7,0.2s0.7,0.4,1,0.8s0.4,0.8,0.4,1.3c0,0.6-0.2,1.1-0.6,1.5
				s-1,0.7-1.8,0.8c0.3,0.1,0.5,0.3,0.7,0.4c0.3,0.3,0.6,0.7,0.9,1.1l1.5,2.3h-1.4l-1.1-1.8c-0.3-0.5-0.6-0.9-0.8-1.2
				s-0.4-0.5-0.6-0.6s-0.3-0.2-0.5-0.2c-0.1,0-0.3,0-0.6,0h-1.3v3.8H867z M868.1,232.6h2.4c0.5,0,0.9-0.1,1.2-0.2s0.5-0.3,0.7-0.5
				s0.2-0.5,0.2-0.8c0-0.4-0.1-0.7-0.4-1s-0.8-0.4-1.4-0.4h-2.7V232.6z"/>
			<path id="XMLID_177_" d="M879.8,235.4l1.1,0.1c-0.2,0.6-0.5,1.1-1,1.5s-1.1,0.5-1.8,0.5c-0.9,0-1.6-0.3-2.2-0.8s-0.8-1.3-0.8-2.4
				c0-1,0.3-1.9,0.8-2.4s1.2-0.9,2.1-0.9c0.8,0,1.5,0.3,2,0.8s0.8,1.4,0.8,2.4c0,0.1,0,0.2,0,0.3h-4.6c0,0.7,0.2,1.2,0.6,1.6
				s0.8,0.5,1.3,0.5c0.4,0,0.7-0.1,1-0.3S879.6,235.9,879.8,235.4z M876.3,233.7h3.5c0-0.5-0.2-0.9-0.4-1.2
				c-0.3-0.4-0.8-0.6-1.3-0.6c-0.5,0-0.9,0.2-1.2,0.5S876.3,233.2,876.3,233.7z"/>
			<path id="XMLID_180_" d="M882,238l1,0.2c0,0.3,0.2,0.5,0.4,0.7c0.3,0.2,0.6,0.3,1.1,0.3c0.5,0,0.9-0.1,1.1-0.3s0.4-0.5,0.5-0.8
				c0.1-0.2,0.1-0.7,0.1-1.4c-0.5,0.5-1,0.8-1.7,0.8c-0.9,0-1.5-0.3-2-0.9s-0.7-1.4-0.7-2.2c0-0.6,0.1-1.1,0.3-1.6s0.5-0.9,0.9-1.2
				s0.9-0.4,1.4-0.4c0.7,0,1.3,0.3,1.8,0.9v-0.8h1v5.4c0,1-0.1,1.7-0.3,2.1s-0.5,0.7-0.9,1s-1,0.4-1.6,0.4c-0.7,0-1.3-0.2-1.8-0.5
				S882,238.6,882,238z M882.9,234.2c0,0.8,0.2,1.4,0.5,1.8s0.7,0.6,1.2,0.6c0.5,0,0.9-0.2,1.2-0.6s0.5-1,0.5-1.8
				c0-0.8-0.2-1.3-0.5-1.7s-0.7-0.6-1.2-0.6c-0.5,0-0.9,0.2-1.2,0.6S882.9,233.5,882.9,234.2z"/>
			<path id="XMLID_183_" d="M888.9,230.1v-1.2h1.1v1.2H888.9z M888.9,237.4v-6.2h1.1v6.2H888.9z"/>
			<path id="XMLID_186_" d="M891.1,235.6l1-0.2c0.1,0.4,0.2,0.7,0.5,1s0.6,0.3,1.1,0.3c0.5,0,0.8-0.1,1.1-0.3s0.4-0.4,0.4-0.7
				c0-0.2-0.1-0.4-0.3-0.6c-0.1-0.1-0.5-0.2-1.1-0.4c-0.8-0.2-1.3-0.4-1.6-0.5s-0.5-0.3-0.7-0.6s-0.2-0.5-0.2-0.8
				c0-0.3,0.1-0.5,0.2-0.8s0.3-0.4,0.5-0.6c0.2-0.1,0.4-0.2,0.7-0.3s0.6-0.1,0.9-0.1c0.5,0,0.9,0.1,1.3,0.2s0.6,0.3,0.8,0.6
				s0.3,0.6,0.4,1l-1,0.1c0-0.3-0.2-0.6-0.4-0.8s-0.5-0.3-1-0.3c-0.5,0-0.8,0.1-1,0.2s-0.3,0.3-0.3,0.6c0,0.1,0,0.3,0.1,0.4
				c0.1,0.1,0.2,0.2,0.4,0.3c0.1,0,0.4,0.1,0.9,0.3c0.7,0.2,1.3,0.4,1.6,0.5s0.5,0.3,0.7,0.6s0.3,0.5,0.3,0.9c0,0.4-0.1,0.7-0.3,1
				s-0.5,0.6-0.9,0.7s-0.8,0.3-1.3,0.3c-0.8,0-1.4-0.2-1.8-0.5S891.2,236.2,891.1,235.6z"/>
			<path id="XMLID_188_" d="M899.8,236.5l0.2,0.9c-0.3,0.1-0.6,0.1-0.8,0.1c-0.4,0-0.7-0.1-0.9-0.2s-0.4-0.3-0.4-0.5
				s-0.1-0.6-0.1-1.2V232h-0.8v-0.8h0.8v-1.5l1-0.6v2.2h1.1v0.8h-1.1v3.6c0,0.3,0,0.5,0.1,0.6s0.1,0.2,0.2,0.2s0.2,0.1,0.4,0.1
				C899.5,236.5,899.6,236.5,899.8,236.5z"/>
			<path id="XMLID_190_" d="M900.8,237.4v-6.2h0.9v0.9c0.2-0.4,0.5-0.7,0.7-0.9s0.4-0.2,0.7-0.2c0.4,0,0.7,0.1,1.1,0.3l-0.4,1
				c-0.3-0.2-0.5-0.2-0.8-0.2c-0.2,0-0.4,0.1-0.6,0.2s-0.3,0.3-0.4,0.6c-0.1,0.4-0.2,0.8-0.2,1.2v3.3H900.8z"/>
			<path id="XMLID_192_" d="M908.9,236.7c-0.4,0.3-0.8,0.6-1.1,0.7s-0.7,0.2-1.2,0.2c-0.7,0-1.2-0.2-1.6-0.5s-0.6-0.8-0.6-1.3
				c0-0.3,0.1-0.6,0.2-0.8s0.3-0.5,0.5-0.6s0.5-0.3,0.8-0.3c0.2-0.1,0.5-0.1,0.9-0.2c0.9-0.1,1.5-0.2,1.9-0.4c0-0.1,0-0.2,0-0.3
				c0-0.4-0.1-0.7-0.3-0.9c-0.3-0.2-0.7-0.4-1.2-0.4c-0.5,0-0.9,0.1-1.1,0.3s-0.4,0.5-0.5,0.9l-1-0.1c0.1-0.4,0.2-0.8,0.5-1.1
				s0.5-0.5,0.9-0.6s0.9-0.2,1.4-0.2c0.5,0,1,0.1,1.3,0.2s0.6,0.3,0.7,0.5s0.3,0.4,0.3,0.7c0,0.2,0.1,0.5,0.1,1v1.4
				c0,1,0,1.6,0.1,1.9s0.1,0.5,0.3,0.7h-1.1C909,237.2,908.9,237,908.9,236.7z M908.8,234.3c-0.4,0.2-1,0.3-1.7,0.4
				c-0.4,0.1-0.7,0.1-0.9,0.2s-0.3,0.2-0.4,0.3s-0.1,0.3-0.1,0.5c0,0.3,0.1,0.5,0.3,0.7s0.5,0.3,0.9,0.3c0.4,0,0.8-0.1,1.1-0.3
				s0.5-0.4,0.7-0.7c0.1-0.2,0.2-0.6,0.2-1.1V234.3z"/>
			<path id="XMLID_195_" d="M911.5,237.4v-6.2h0.9v0.9c0.2-0.4,0.5-0.7,0.7-0.9s0.4-0.2,0.7-0.2c0.4,0,0.7,0.1,1.1,0.3l-0.4,1
				c-0.3-0.2-0.5-0.2-0.8-0.2c-0.2,0-0.4,0.1-0.6,0.2s-0.3,0.3-0.4,0.6c-0.1,0.4-0.2,0.8-0.2,1.2v3.3H911.5z"/>
			<path id="XMLID_197_" d="M918.8,237.4v-6.2h0.9v0.9c0.5-0.7,1.1-1,2-1c0.4,0,0.7,0.1,1,0.2s0.5,0.3,0.7,0.5s0.3,0.5,0.3,0.8
				c0,0.2,0.1,0.5,0.1,1v3.8h-1.1v-3.8c0-0.4,0-0.8-0.1-1s-0.2-0.4-0.4-0.5s-0.5-0.2-0.7-0.2c-0.4,0-0.8,0.1-1.2,0.4
				s-0.5,0.8-0.5,1.6v3.4H918.8z"/>
			<path id="XMLID_199_" d="M925.1,234.3c0-1.2,0.3-2,1-2.6c0.5-0.5,1.2-0.7,2-0.7c0.9,0,1.6,0.3,2.1,0.8s0.8,1.3,0.8,2.3
				c0,0.8-0.1,1.4-0.4,1.9s-0.6,0.8-1,1.1s-1,0.4-1.5,0.4c-0.9,0-1.6-0.3-2.1-0.8S925.1,235.4,925.1,234.3z M926.2,234.3
				c0,0.8,0.2,1.4,0.5,1.8s0.8,0.6,1.3,0.6c0.5,0,1-0.2,1.3-0.6s0.5-1,0.5-1.8c0-0.8-0.2-1.4-0.5-1.7s-0.8-0.6-1.3-0.6
				c-0.5,0-1,0.2-1.3,0.6S926.2,233.5,926.2,234.3z"/>
			<path id="XMLID_202_" d="M932.2,237.4v-6.2h0.9v0.9c0.2-0.3,0.5-0.5,0.8-0.7s0.7-0.3,1.1-0.3c0.5,0,0.8,0.1,1.1,0.3
				s0.5,0.5,0.6,0.8c0.5-0.7,1.1-1.1,1.9-1.1c0.6,0,1.1,0.2,1.4,0.5s0.5,0.9,0.5,1.6v4.3h-1v-3.9c0-0.4,0-0.7-0.1-0.9
				s-0.2-0.3-0.4-0.4s-0.4-0.2-0.6-0.2c-0.4,0-0.8,0.1-1.1,0.4s-0.4,0.8-0.4,1.4v3.6h-1.1v-4c0-0.5-0.1-0.8-0.3-1.1
				s-0.5-0.4-0.8-0.4c-0.3,0-0.6,0.1-0.8,0.2s-0.4,0.4-0.5,0.7s-0.2,0.7-0.2,1.3v3.2H932.2z"/>
			<path id="XMLID_204_" d="M943.2,237.4h-1v-8.6h1.1v3.1c0.4-0.6,1-0.8,1.7-0.8c0.4,0,0.7,0.1,1.1,0.2s0.6,0.4,0.8,0.7
				s0.4,0.6,0.5,1s0.2,0.8,0.2,1.3c0,1.1-0.3,1.9-0.8,2.5s-1.2,0.9-1.9,0.9c-0.7,0-1.3-0.3-1.7-0.9V237.4z M943.1,234.3
				c0,0.7,0.1,1.3,0.3,1.6c0.3,0.5,0.8,0.8,1.3,0.8c0.5,0,0.9-0.2,1.2-0.6s0.5-1,0.5-1.8c0-0.8-0.2-1.4-0.5-1.8s-0.7-0.6-1.2-0.6
				c-0.5,0-0.9,0.2-1.2,0.6S943.1,233.5,943.1,234.3z"/>
			<path id="XMLID_207_" d="M948.9,237.4v-6.2h0.9v0.9c0.2-0.4,0.5-0.7,0.7-0.9s0.4-0.2,0.7-0.2c0.4,0,0.7,0.1,1.1,0.3l-0.4,1
				c-0.3-0.2-0.5-0.2-0.8-0.2c-0.2,0-0.4,0.1-0.6,0.2s-0.3,0.3-0.4,0.6c-0.1,0.4-0.2,0.8-0.2,1.2v3.3H948.9z"/>
			<path id="XMLID_209_" d="M957.1,235.4l1.1,0.1c-0.2,0.6-0.5,1.1-1,1.5s-1.1,0.5-1.8,0.5c-0.9,0-1.6-0.3-2.2-0.8s-0.8-1.3-0.8-2.4
				c0-1,0.3-1.9,0.8-2.4s1.2-0.9,2.1-0.9c0.8,0,1.5,0.3,2,0.8s0.8,1.4,0.8,2.4c0,0.1,0,0.2,0,0.3h-4.6c0,0.7,0.2,1.2,0.6,1.6
				s0.8,0.5,1.3,0.5c0.4,0,0.7-0.1,1-0.3S957,235.9,957.1,235.4z M953.7,233.7h3.5c0-0.5-0.2-0.9-0.4-1.2c-0.3-0.4-0.8-0.6-1.3-0.6
				c-0.5,0-0.9,0.2-1.2,0.5S953.7,233.2,953.7,233.7z"/>
		</g>
		<path id="XMLID_9372_" class="st7" d="M1096.5,249h-92.2c-8.6,0-15.7-7.1-15.7-15.7v0c0-8.6,7.1-15.7,15.7-15.7h92.2
			c8.6,0,15.7,7.1,15.7,15.7v0C1112.2,241.9,1105.1,249,1096.5,249z"/>
		<g id="XMLID_125_">
			<path id="XMLID_126_" d="M1001.3,237.4v-8.6h3.8c0.8,0,1.3,0.1,1.7,0.2s0.7,0.4,1,0.8s0.4,0.8,0.4,1.3c0,0.6-0.2,1.1-0.6,1.5
				s-1,0.7-1.8,0.8c0.3,0.1,0.5,0.3,0.7,0.4c0.3,0.3,0.6,0.7,0.9,1.1l1.5,2.3h-1.4l-1.1-1.8c-0.3-0.5-0.6-0.9-0.8-1.2
				s-0.4-0.5-0.6-0.6s-0.3-0.2-0.5-0.2c-0.1,0-0.3,0-0.6,0h-1.3v3.8H1001.3z M1002.4,232.6h2.4c0.5,0,0.9-0.1,1.2-0.2
				s0.5-0.3,0.7-0.5s0.2-0.5,0.2-0.8c0-0.4-0.1-0.7-0.4-1s-0.8-0.4-1.4-0.4h-2.7V232.6z"/>
			<path id="XMLID_129_" d="M1014.1,235.4l1.1,0.1c-0.2,0.6-0.5,1.1-1,1.5s-1.1,0.5-1.8,0.5c-0.9,0-1.6-0.3-2.2-0.8
				s-0.8-1.3-0.8-2.4c0-1,0.3-1.9,0.8-2.4s1.2-0.9,2.1-0.9c0.8,0,1.5,0.3,2,0.8s0.8,1.4,0.8,2.4c0,0.1,0,0.2,0,0.3h-4.6
				c0,0.7,0.2,1.2,0.6,1.6s0.8,0.5,1.3,0.5c0.4,0,0.7-0.1,1-0.3S1013.9,235.9,1014.1,235.4z M1010.6,233.7h3.5
				c0-0.5-0.2-0.9-0.4-1.2c-0.3-0.4-0.8-0.6-1.3-0.6c-0.5,0-0.9,0.2-1.2,0.5S1010.7,233.2,1010.6,233.7z"/>
			<path id="XMLID_132_" d="M1016.3,238l1,0.2c0,0.3,0.2,0.5,0.4,0.7c0.3,0.2,0.6,0.3,1.1,0.3c0.5,0,0.9-0.1,1.1-0.3
				s0.4-0.5,0.5-0.8c0.1-0.2,0.1-0.7,0.1-1.4c-0.5,0.5-1,0.8-1.7,0.8c-0.9,0-1.5-0.3-2-0.9s-0.7-1.4-0.7-2.2c0-0.6,0.1-1.1,0.3-1.6
				s0.5-0.9,0.9-1.2s0.9-0.4,1.4-0.4c0.7,0,1.3,0.3,1.8,0.9v-0.8h1v5.4c0,1-0.1,1.7-0.3,2.1s-0.5,0.7-0.9,1s-1,0.4-1.6,0.4
				c-0.7,0-1.3-0.2-1.8-0.5S1016.3,238.6,1016.3,238z M1017.2,234.2c0,0.8,0.2,1.4,0.5,1.8s0.7,0.6,1.2,0.6c0.5,0,0.9-0.2,1.2-0.6
				s0.5-1,0.5-1.8c0-0.8-0.2-1.3-0.5-1.7s-0.7-0.6-1.2-0.6c-0.5,0-0.9,0.2-1.2,0.6S1017.2,233.5,1017.2,234.2z"/>
			<path id="XMLID_135_" d="M1023.2,230.1v-1.2h1.1v1.2H1023.2z M1023.2,237.4v-6.2h1.1v6.2H1023.2z"/>
			<path id="XMLID_138_" d="M1025.4,235.6l1-0.2c0.1,0.4,0.2,0.7,0.5,1s0.6,0.3,1.1,0.3c0.5,0,0.8-0.1,1.1-0.3s0.4-0.4,0.4-0.7
				c0-0.2-0.1-0.4-0.3-0.6c-0.1-0.1-0.5-0.2-1.1-0.4c-0.8-0.2-1.3-0.4-1.6-0.5s-0.5-0.3-0.7-0.6s-0.2-0.5-0.2-0.8
				c0-0.3,0.1-0.5,0.2-0.8s0.3-0.4,0.5-0.6c0.2-0.1,0.4-0.2,0.7-0.3s0.6-0.1,0.9-0.1c0.5,0,0.9,0.1,1.3,0.2s0.6,0.3,0.8,0.6
				s0.3,0.6,0.4,1l-1,0.1c0-0.3-0.2-0.6-0.4-0.8s-0.5-0.3-1-0.3c-0.5,0-0.8,0.1-1,0.2s-0.3,0.3-0.3,0.6c0,0.1,0,0.3,0.1,0.4
				c0.1,0.1,0.2,0.2,0.4,0.3c0.1,0,0.4,0.1,0.9,0.3c0.7,0.2,1.3,0.4,1.6,0.5s0.5,0.3,0.7,0.6s0.3,0.5,0.3,0.9c0,0.4-0.1,0.7-0.3,1
				s-0.5,0.6-0.9,0.7s-0.8,0.3-1.3,0.3c-0.8,0-1.4-0.2-1.8-0.5S1025.5,236.2,1025.4,235.6z"/>
			<path id="XMLID_140_" d="M1034.1,236.5l0.2,0.9c-0.3,0.1-0.6,0.1-0.8,0.1c-0.4,0-0.7-0.1-0.9-0.2s-0.4-0.3-0.4-0.5
				s-0.1-0.6-0.1-1.2V232h-0.8v-0.8h0.8v-1.5l1-0.6v2.2h1.1v0.8h-1.1v3.6c0,0.3,0,0.5,0.1,0.6s0.1,0.2,0.2,0.2s0.2,0.1,0.4,0.1
				C1033.8,236.5,1033.9,236.5,1034.1,236.5z"/>
			<path id="XMLID_142_" d="M1035.2,237.4v-6.2h0.9v0.9c0.2-0.4,0.5-0.7,0.7-0.9s0.4-0.2,0.7-0.2c0.4,0,0.7,0.1,1.1,0.3l-0.4,1
				c-0.3-0.2-0.5-0.2-0.8-0.2c-0.2,0-0.4,0.1-0.6,0.2s-0.3,0.3-0.4,0.6c-0.1,0.4-0.2,0.8-0.2,1.2v3.3H1035.2z"/>
			<path id="XMLID_144_" d="M1043.2,236.7c-0.4,0.3-0.8,0.6-1.1,0.7s-0.7,0.2-1.2,0.2c-0.7,0-1.2-0.2-1.6-0.5s-0.6-0.8-0.6-1.3
				c0-0.3,0.1-0.6,0.2-0.8s0.3-0.5,0.5-0.6s0.5-0.3,0.8-0.3c0.2-0.1,0.5-0.1,0.9-0.2c0.9-0.1,1.5-0.2,1.9-0.4c0-0.1,0-0.2,0-0.3
				c0-0.4-0.1-0.7-0.3-0.9c-0.3-0.2-0.7-0.4-1.2-0.4c-0.5,0-0.9,0.1-1.1,0.3s-0.4,0.5-0.5,0.9l-1-0.1c0.1-0.4,0.2-0.8,0.5-1.1
				s0.5-0.5,0.9-0.6s0.9-0.2,1.4-0.2c0.5,0,1,0.1,1.3,0.2s0.6,0.3,0.7,0.5s0.3,0.4,0.3,0.7c0,0.2,0.1,0.5,0.1,1v1.4
				c0,1,0,1.6,0.1,1.9s0.1,0.5,0.3,0.7h-1.1C1043.3,237.2,1043.3,237,1043.2,236.7z M1043.1,234.3c-0.4,0.2-1,0.3-1.7,0.4
				c-0.4,0.1-0.7,0.1-0.9,0.2s-0.3,0.2-0.4,0.3s-0.1,0.3-0.1,0.5c0,0.3,0.1,0.5,0.3,0.7s0.5,0.3,0.9,0.3c0.4,0,0.8-0.1,1.1-0.3
				s0.5-0.4,0.7-0.7c0.1-0.2,0.2-0.6,0.2-1.1V234.3z"/>
			<path id="XMLID_147_" d="M1045.8,237.4v-6.2h0.9v0.9c0.2-0.4,0.5-0.7,0.7-0.9s0.4-0.2,0.7-0.2c0.4,0,0.7,0.1,1.1,0.3l-0.4,1
				c-0.3-0.2-0.5-0.2-0.8-0.2c-0.2,0-0.4,0.1-0.6,0.2s-0.3,0.3-0.4,0.6c-0.1,0.4-0.2,0.8-0.2,1.2v3.3H1045.8z"/>
			<path id="XMLID_149_" d="M1057.2,237.4v-0.8c-0.4,0.6-1,0.9-1.7,0.9c-0.5,0-1-0.1-1.4-0.4s-0.7-0.7-1-1.1s-0.3-1.1-0.3-1.7
				c0-0.6,0.1-1.2,0.3-1.7s0.5-0.9,0.9-1.2s0.9-0.4,1.4-0.4c0.4,0,0.7,0.1,1,0.2s0.5,0.4,0.7,0.6v-3.1h1v8.6H1057.2z M1053.9,234.3
				c0,0.8,0.2,1.4,0.5,1.8s0.7,0.6,1.2,0.6c0.5,0,0.9-0.2,1.2-0.6s0.5-1,0.5-1.7c0-0.9-0.2-1.5-0.5-1.9s-0.7-0.6-1.2-0.6
				c-0.5,0-0.9,0.2-1.2,0.6S1053.9,233.5,1053.9,234.3z"/>
			<path id="XMLID_152_" d="M1059.8,230.1v-1.2h1.1v1.2H1059.8z M1059.8,237.4v-6.2h1.1v6.2H1059.8z"/>
			<path id="XMLID_155_" d="M1062.5,237.4v-6.2h0.9v0.9c0.2-0.4,0.5-0.7,0.7-0.9s0.4-0.2,0.7-0.2c0.4,0,0.7,0.1,1.1,0.3l-0.4,1
				c-0.3-0.2-0.5-0.2-0.8-0.2c-0.2,0-0.4,0.1-0.6,0.2s-0.3,0.3-0.4,0.6c-0.1,0.4-0.2,0.8-0.2,1.2v3.3H1062.5z"/>
			<path id="XMLID_157_" d="M1070.8,235.4l1.1,0.1c-0.2,0.6-0.5,1.1-1,1.5s-1.1,0.5-1.8,0.5c-0.9,0-1.6-0.3-2.2-0.8
				s-0.8-1.3-0.8-2.4c0-1,0.3-1.9,0.8-2.4s1.2-0.9,2.1-0.9c0.8,0,1.5,0.3,2,0.8s0.8,1.4,0.8,2.4c0,0.1,0,0.2,0,0.3h-4.6
				c0,0.7,0.2,1.2,0.6,1.6s0.8,0.5,1.3,0.5c0.4,0,0.7-0.1,1-0.3S1070.6,235.9,1070.8,235.4z M1067.3,233.7h3.5
				c0-0.5-0.2-0.9-0.4-1.2c-0.3-0.4-0.8-0.6-1.3-0.6c-0.5,0-0.9,0.2-1.2,0.5S1067.3,233.2,1067.3,233.7z"/>
			<path id="XMLID_160_" d="M1077.2,235.2l1,0.1c-0.1,0.7-0.4,1.3-0.9,1.7s-1,0.6-1.7,0.6c-0.9,0-1.5-0.3-2.1-0.8s-0.8-1.4-0.8-2.4
				c0-0.7,0.1-1.3,0.3-1.8s0.6-0.9,1-1.1s1-0.4,1.5-0.4c0.7,0,1.2,0.2,1.7,0.5s0.7,0.8,0.8,1.5l-1,0.2c-0.1-0.4-0.3-0.7-0.5-0.9
				s-0.5-0.3-0.9-0.3c-0.5,0-1,0.2-1.3,0.6s-0.5,1-0.5,1.8c0,0.8,0.2,1.4,0.5,1.8s0.7,0.6,1.3,0.6c0.4,0,0.8-0.1,1-0.4
				S1077.2,235.7,1077.2,235.2z"/>
			<path id="XMLID_162_" d="M1083.2,235.2l1,0.1c-0.1,0.7-0.4,1.3-0.9,1.7s-1,0.6-1.7,0.6c-0.9,0-1.5-0.3-2.1-0.8s-0.8-1.4-0.8-2.4
				c0-0.7,0.1-1.3,0.3-1.8s0.6-0.9,1-1.1s1-0.4,1.5-0.4c0.7,0,1.2,0.2,1.7,0.5s0.7,0.8,0.8,1.5l-1,0.2c-0.1-0.4-0.3-0.7-0.5-0.9
				s-0.5-0.3-0.9-0.3c-0.5,0-1,0.2-1.3,0.6s-0.5,1-0.5,1.8c0,0.8,0.2,1.4,0.5,1.8s0.7,0.6,1.3,0.6c0.4,0,0.8-0.1,1-0.4
				S1083.2,235.7,1083.2,235.2z"/>
			<path id="XMLID_164_" d="M1085.2,230.1v-1.2h1.1v1.2H1085.2z M1085.2,237.4v-6.2h1.1v6.2H1085.2z"/>
			<path id="XMLID_167_" d="M1087.5,234.3c0-1.2,0.3-2,1-2.6c0.5-0.5,1.2-0.7,2-0.7c0.9,0,1.6,0.3,2.1,0.8s0.8,1.3,0.8,2.3
				c0,0.8-0.1,1.4-0.4,1.9s-0.6,0.8-1,1.1s-1,0.4-1.5,0.4c-0.9,0-1.6-0.3-2.1-0.8S1087.5,235.4,1087.5,234.3z M1088.5,234.3
				c0,0.8,0.2,1.4,0.5,1.8s0.8,0.6,1.3,0.6c0.5,0,1-0.2,1.3-0.6s0.5-1,0.5-1.8c0-0.8-0.2-1.4-0.5-1.7s-0.8-0.6-1.3-0.6
				c-0.5,0-1,0.2-1.3,0.6S1088.5,233.5,1088.5,234.3z M1089.8,230.4l0.8-1.6h1.4l-1.3,1.6H1089.8z"/>
			<path id="XMLID_171_" d="M1094.5,237.4v-6.2h0.9v0.9c0.5-0.7,1.1-1,2-1c0.4,0,0.7,0.1,1,0.2s0.5,0.3,0.7,0.5s0.3,0.5,0.3,0.8
				c0,0.2,0.1,0.5,0.1,1v3.8h-1.1v-3.8c0-0.4,0-0.8-0.1-1s-0.2-0.4-0.4-0.5s-0.5-0.2-0.7-0.2c-0.4,0-0.8,0.1-1.2,0.4
				s-0.5,0.8-0.5,1.6v3.4H1094.5z"/>
		</g>
		<g id="XMLID_9210_">
			<g id="XMLID_72_">
				<line id="XMLID_75_" class="st8" x1="579.5" y1="22.5" x2="579.5" y2="45.6"/>
				<g id="XMLID_73_">
					<polygon id="XMLID_74_" class="st9" points="579.5,52.7 575.4,42.7 579.5,45.1 583.6,42.7 					"/>
				</g>
			</g>
		</g>
		<g id="XMLID_8666_">
			<g id="XMLID_67_">
				<line id="XMLID_70_" class="st8" x1="579.5" y1="89.8" x2="579.5" y2="112.9"/>
				<g id="XMLID_68_">
					<polygon id="XMLID_69_" class="st9" points="579.5,120 575.4,110 579.5,112.4 583.6,110 					"/>
				</g>
			</g>
		</g>
		<g id="XMLID_9215_">
			<g id="XMLID_62_">
				<line id="XMLID_65_" class="st8" x1="916.9" y1="157" x2="916.9" y2="209.5"/>
				<g id="XMLID_63_">
					<polygon id="XMLID_64_" class="st9" points="916.9,216.6 912.9,206.7 916.9,209 921,206.7 					"/>
				</g>
			</g>
		</g>
		<g id="XMLID_8551_">
			<g id="XMLID_57_">
				<line id="XMLID_60_" class="st8" x1="959" y1="157" x2="1044.5" y2="212.7"/>
				<g id="XMLID_58_">
					<polygon id="XMLID_59_" class="st9" points="1050.4,216.6 1039.8,214.6 1044,212.5 1044.3,207.8 					"/>
				</g>
			</g>
		</g>
		<g id="XMLID_1116_">
			<g id="XMLID_52_">
				<line id="XMLID_55_" class="st8" x1="869.1" y1="157" x2="778.9" y2="212.9"/>
				<g id="XMLID_53_">
					<polygon id="XMLID_54_" class="st9" points="772.9,216.6 779.2,207.9 779.3,212.6 783.5,214.8 					"/>
				</g>
			</g>
		</g>
		<polyline id="XMLID_9089_" class="st10" points="710.1,158.1 916.9,158.1 1111.2,158.1 		"/>
		<g id="XMLID_9060_">
			<g id="XMLID_47_">
				<line id="XMLID_50_" class="st8" x1="916.9" y1="311.3" x2="916.9" y2="258.7"/>
				<g id="XMLID_48_">
					<polygon id="XMLID_49_" class="st9" points="916.9,251.6 921,261.6 916.9,259.2 912.9,261.6 					"/>
				</g>
			</g>
		</g>
		<g id="XMLID_8674_">
			<g id="XMLID_42_">
				<line id="XMLID_45_" class="st8" x1="959" y1="311.3" x2="1044.5" y2="255.5"/>
				<g id="XMLID_43_">
					<polygon id="XMLID_44_" class="st9" points="1050.4,251.6 1044.3,260.4 1044,255.8 1039.8,253.6 					"/>
				</g>
			</g>
		</g>
		<g id="XMLID_8665_">
			<g id="XMLID_78_">
				<line id="XMLID_81_" class="st8" x1="869.1" y1="311.3" x2="778.9" y2="255.3"/>
				<g id="XMLID_79_">
					<polygon id="XMLID_80_" class="st9" points="772.9,251.6 783.5,253.4 779.3,255.6 779.2,260.3 					"/>
				</g>
			</g>
		</g>
		<polyline id="XMLID_8664_" class="st10" points="770.9,310.1 915,310.1 1050.4,310.1 		"/>
		
			<rect id="XMLID_9214_" x="570" y="125.5" transform="matrix(0.7071 0.7071 -0.7071 0.7071 265.1884 -370.2334)" class="st8" width="19" height="19"/>
		<path id="XMLID_9221_" class="st10" d="M917.9,132.6"/>
		<g id="XMLID_9373_">
			<g id="XMLID_27_">
				<polyline id="XMLID_30_" class="st8" points="594,135 916.9,135 916.9,151 				"/>
				<g id="XMLID_28_">
					<polygon id="XMLID_29_" class="st9" points="916.9,158.1 912.9,148.1 916.9,150.5 921,148.1 					"/>
				</g>
			</g>
		</g>
		<g id="XMLID_8661_">
			<g id="XMLID_22_">
				<polyline id="XMLID_25_" class="st8" points="503.9,346.7 917.9,346.7 917.9,311.3 				"/>
				<g id="XMLID_23_">
					<polygon id="XMLID_24_" class="st9" points="496.9,346.7 506.8,350.8 504.5,346.7 506.8,342.6 					"/>
				</g>
			</g>
		</g>
		<g id="XMLID_8808_">
			<g id="XMLID_33_">
				<polyline id="XMLID_76_" class="st8" points="566.1,135 481.1,135 481.1,324.3 				"/>
				<g id="XMLID_34_">
					<polygon id="XMLID_35_" class="st9" points="481.1,331.4 477.1,321.5 481.1,323.8 485.2,321.5 					"/>
				</g>
			</g>
		</g>
	</g>
	<g id="XMLID_97_">
		<path id="XMLID_98_" class="st1" d="M479.1,125.7v-10h4.4c0.9,0,1.6,0.1,2,0.3c0.5,0.2,0.8,0.5,1.1,1s0.4,1,0.4,1.5
			c0,0.7-0.2,1.3-0.7,1.8s-1.2,0.8-2.1,0.9c0.4,0.2,0.6,0.3,0.8,0.5c0.4,0.4,0.8,0.8,1.1,1.3l1.7,2.7h-1.7l-1.3-2.1
			c-0.4-0.6-0.7-1.1-1-1.4s-0.5-0.5-0.7-0.7s-0.4-0.2-0.6-0.3c-0.2,0-0.4,0-0.7,0h-1.5v4.5H479.1z M480.4,120.1h2.9
			c0.6,0,1.1-0.1,1.4-0.2c0.3-0.1,0.6-0.3,0.8-0.6c0.2-0.3,0.3-0.6,0.3-0.9c0-0.5-0.2-0.9-0.5-1.2s-0.9-0.5-1.6-0.5h-3.2V120.1z"/>
		<path id="XMLID_101_" class="st1" d="M494,123.4l1.3,0.2c-0.2,0.7-0.6,1.3-1.1,1.7s-1.2,0.6-2.1,0.6c-1.1,0-1.9-0.3-2.5-1
			c-0.6-0.7-0.9-1.6-0.9-2.8c0-1.2,0.3-2.2,0.9-2.8s1.4-1,2.4-1c1,0,1.8,0.3,2.4,1s0.9,1.6,0.9,2.8c0,0.1,0,0.2,0,0.3h-5.4
			c0,0.8,0.3,1.4,0.7,1.8s0.9,0.6,1.5,0.6c0.5,0,0.8-0.1,1.2-0.4S493.8,123.9,494,123.4z M489.9,121.4h4.1c-0.1-0.6-0.2-1.1-0.5-1.4
			c-0.4-0.5-0.9-0.7-1.5-0.7c-0.6,0-1,0.2-1.4,0.6S490,120.8,489.9,121.4z"/>
		<path id="XMLID_104_" class="st1" d="M496.6,126.3l1.2,0.2c0.1,0.4,0.2,0.6,0.4,0.8c0.3,0.2,0.7,0.3,1.3,0.3c0.6,0,1-0.1,1.3-0.3
			s0.5-0.5,0.6-1c0.1-0.3,0.1-0.8,0.1-1.6c-0.5,0.6-1.2,1-2,1c-1,0-1.8-0.4-2.3-1.1s-0.8-1.6-0.8-2.6c0-0.7,0.1-1.3,0.4-1.9
			c0.3-0.6,0.6-1,1.1-1.4s1-0.5,1.7-0.5c0.9,0,1.6,0.3,2.1,1v-0.9h1.1v6.3c0,1.1-0.1,1.9-0.3,2.4c-0.2,0.5-0.6,0.8-1.1,1.1
			c-0.5,0.3-1.1,0.4-1.8,0.4c-0.9,0-1.6-0.2-2.1-0.6C496.8,127.7,496.5,127.1,496.6,126.3z M497.6,122c0,1,0.2,1.6,0.6,2.1
			s0.9,0.7,1.4,0.7c0.6,0,1-0.2,1.4-0.7c0.4-0.4,0.6-1.1,0.6-2c0-0.9-0.2-1.6-0.6-2s-0.9-0.7-1.4-0.7c-0.5,0-1,0.2-1.4,0.7
			C497.8,120.4,497.6,121.1,497.6,122z"/>
		<path id="XMLID_107_" class="st1" d="M504.6,117.1v-1.4h1.2v1.4H504.6z M504.6,125.7v-7.3h1.2v7.3H504.6z"/>
		<path id="XMLID_110_" class="st1" d="M507.2,123.5l1.2-0.2c0.1,0.5,0.3,0.9,0.6,1.1s0.7,0.4,1.3,0.4c0.6,0,1-0.1,1.3-0.3
			c0.3-0.2,0.4-0.5,0.4-0.8c0-0.3-0.1-0.5-0.4-0.7c-0.2-0.1-0.6-0.2-1.3-0.4c-0.9-0.2-1.5-0.4-1.9-0.6c-0.3-0.2-0.6-0.4-0.8-0.7
			c-0.2-0.3-0.3-0.6-0.3-1c0-0.3,0.1-0.6,0.2-0.9c0.1-0.3,0.3-0.5,0.6-0.7c0.2-0.1,0.5-0.3,0.8-0.4c0.3-0.1,0.7-0.1,1.1-0.1
			c0.6,0,1.1,0.1,1.5,0.2s0.7,0.4,1,0.7c0.2,0.3,0.3,0.7,0.4,1.1l-1.2,0.2c-0.1-0.4-0.2-0.7-0.5-0.9s-0.6-0.3-1.1-0.3
			c-0.6,0-1,0.1-1.2,0.3s-0.4,0.4-0.4,0.7c0,0.2,0.1,0.3,0.2,0.4c0.1,0.1,0.3,0.2,0.5,0.3c0.1,0,0.5,0.2,1.1,0.3
			c0.9,0.2,1.5,0.4,1.8,0.6c0.3,0.1,0.6,0.4,0.8,0.6s0.3,0.6,0.3,1.1c0,0.4-0.1,0.8-0.4,1.2c-0.2,0.4-0.6,0.6-1,0.8
			c-0.5,0.2-1,0.3-1.5,0.3c-0.9,0-1.7-0.2-2.2-0.6S507.3,124.3,507.2,123.5z"/>
		<path id="XMLID_112_" class="st1" d="M517.4,124.6l0.2,1.1c-0.3,0.1-0.7,0.1-0.9,0.1c-0.4,0-0.8-0.1-1-0.2s-0.4-0.3-0.5-0.6
			c-0.1-0.2-0.2-0.7-0.2-1.5v-4.2H514v-1h0.9v-1.8l1.2-0.7v2.5h1.2v1h-1.2v4.2c0,0.4,0,0.6,0.1,0.7s0.1,0.2,0.2,0.2s0.2,0.1,0.4,0.1
			C517,124.7,517.2,124.6,517.4,124.6z"/>
		<path id="XMLID_114_" class="st1" d="M518.6,125.7v-7.3h1.1v1.1c0.3-0.5,0.5-0.9,0.8-1s0.5-0.2,0.8-0.2c0.4,0,0.8,0.1,1.3,0.4
			l-0.4,1.1c-0.3-0.2-0.6-0.3-0.9-0.3c-0.3,0-0.5,0.1-0.7,0.2c-0.2,0.2-0.4,0.4-0.5,0.7c-0.1,0.4-0.2,0.9-0.2,1.4v3.8H518.6z"/>
		<path id="XMLID_116_" class="st1" d="M528,124.8c-0.5,0.4-0.9,0.7-1.3,0.8s-0.9,0.2-1.4,0.2c-0.8,0-1.4-0.2-1.8-0.6
			c-0.4-0.4-0.6-0.9-0.6-1.5c0-0.4,0.1-0.7,0.2-1c0.2-0.3,0.4-0.5,0.6-0.7s0.6-0.3,0.9-0.4c0.2-0.1,0.6-0.1,1.1-0.2
			c1-0.1,1.7-0.3,2.2-0.4c0-0.2,0-0.3,0-0.3c0-0.5-0.1-0.9-0.3-1.1c-0.3-0.3-0.8-0.4-1.4-0.4c-0.6,0-1,0.1-1.3,0.3
			c-0.3,0.2-0.5,0.6-0.6,1.1l-1.2-0.2c0.1-0.5,0.3-0.9,0.5-1.2c0.3-0.3,0.6-0.6,1.1-0.7c0.5-0.2,1-0.3,1.6-0.3
			c0.6,0,1.1,0.1,1.5,0.2s0.7,0.3,0.9,0.6c0.2,0.2,0.3,0.5,0.4,0.8c0,0.2,0.1,0.6,0.1,1.1v1.6c0,1.1,0,1.9,0.1,2.2
			c0.1,0.3,0.2,0.6,0.3,0.9h-1.3C528.1,125.5,528,125.2,528,124.8z M527.9,122.1c-0.4,0.2-1.1,0.3-2,0.5c-0.5,0.1-0.9,0.2-1.1,0.2
			s-0.4,0.2-0.5,0.4c-0.1,0.2-0.2,0.4-0.2,0.6c0,0.3,0.1,0.6,0.4,0.8s0.6,0.3,1.1,0.3c0.5,0,0.9-0.1,1.3-0.3
			c0.4-0.2,0.6-0.5,0.8-0.9c0.1-0.3,0.2-0.7,0.2-1.2V122.1z"/>
		<path id="XMLID_119_" class="st1" d="M535.7,125.7v-0.9c-0.5,0.7-1.1,1.1-2,1.1c-0.6,0-1.1-0.2-1.6-0.5s-0.9-0.8-1.1-1.3
			c-0.3-0.6-0.4-1.2-0.4-2c0-0.7,0.1-1.4,0.4-2c0.2-0.6,0.6-1,1.1-1.4s1-0.5,1.6-0.5c0.4,0,0.8,0.1,1.2,0.3c0.3,0.2,0.6,0.4,0.8,0.7
			v-3.6h1.2v10H535.7z M531.8,122.1c0,0.9,0.2,1.6,0.6,2.1s0.9,0.7,1.4,0.7c0.5,0,1-0.2,1.4-0.7c0.4-0.4,0.6-1.1,0.6-2
			c0-1-0.2-1.7-0.6-2.2s-0.9-0.7-1.4-0.7c-0.5,0-1,0.2-1.4,0.7S531.8,121.1,531.8,122.1z"/>
		<path id="XMLID_122_" class="st1" d="M538.4,122.1c0-1.3,0.4-2.3,1.1-3c0.6-0.5,1.4-0.8,2.3-0.8c1,0,1.8,0.3,2.4,1
			c0.6,0.7,1,1.6,1,2.7c0,0.9-0.1,1.7-0.4,2.2c-0.3,0.5-0.7,1-1.2,1.2s-1.1,0.4-1.8,0.4c-1,0-1.8-0.3-2.5-1S538.4,123.3,538.4,122.1
			z M539.6,122.1c0,0.9,0.2,1.6,0.6,2.1c0.4,0.5,0.9,0.7,1.5,0.7c0.6,0,1.1-0.2,1.5-0.7s0.6-1.2,0.6-2.1c0-0.9-0.2-1.6-0.6-2
			c-0.4-0.5-0.9-0.7-1.5-0.7c-0.6,0-1.1,0.2-1.5,0.7S539.6,121.2,539.6,122.1z"/>
	</g>
	<g id="XMLID_3_">
		<path id="XMLID_4_" class="st1" d="M827,125.7v-10h1.4l5.3,7.9v-7.9h1.3v10h-1.4l-5.3-7.9v7.9H827z"/>
		<path id="XMLID_6_" class="st1" d="M836.5,122.1c0-1.3,0.4-2.3,1.1-3c0.6-0.5,1.4-0.8,2.3-0.8c1,0,1.8,0.3,2.4,1
			c0.6,0.7,1,1.6,1,2.7c0,0.9-0.1,1.7-0.4,2.2c-0.3,0.5-0.7,1-1.2,1.2s-1.1,0.4-1.8,0.4c-1,0-1.8-0.3-2.5-1S836.5,123.3,836.5,122.1
			z M837.8,122.1c0,0.9,0.2,1.6,0.6,2.1c0.4,0.5,0.9,0.7,1.5,0.7c0.6,0,1.1-0.2,1.5-0.7c0.4-0.5,0.6-1.2,0.6-2.1
			c0-0.9-0.2-1.6-0.6-2c-0.4-0.5-0.9-0.7-1.5-0.7c-0.6,0-1.1,0.2-1.5,0.7C838,120.5,837.8,121.2,837.8,122.1z"/>
		<path id="XMLID_9_" class="st1" d="M848.8,125.7v-10h4.4c0.9,0,1.6,0.1,2,0.3c0.5,0.2,0.8,0.5,1.1,1c0.3,0.5,0.4,1,0.4,1.5
			c0,0.7-0.2,1.3-0.7,1.8c-0.5,0.5-1.2,0.8-2.1,0.9c0.4,0.2,0.6,0.3,0.8,0.5c0.4,0.4,0.8,0.8,1.1,1.3l1.7,2.7H856l-1.3-2.1
			c-0.4-0.6-0.7-1.1-1-1.4c-0.3-0.3-0.5-0.5-0.7-0.7s-0.4-0.2-0.6-0.3c-0.2,0-0.4,0-0.7,0h-1.5v4.5H848.8z M850.1,120.1h2.8
			c0.6,0,1.1-0.1,1.4-0.2c0.3-0.1,0.6-0.3,0.8-0.6c0.2-0.3,0.3-0.6,0.3-0.9c0-0.5-0.2-0.9-0.5-1.2s-0.9-0.5-1.6-0.5h-3.2V120.1z"/>
		<path id="XMLID_18_" class="st1" d="M863.7,123.4l1.3,0.2c-0.2,0.7-0.6,1.3-1.1,1.7c-0.5,0.4-1.2,0.6-2.1,0.6
			c-1.1,0-1.9-0.3-2.5-1c-0.6-0.7-0.9-1.6-0.9-2.8c0-1.2,0.3-2.2,0.9-2.8s1.4-1,2.4-1c1,0,1.8,0.3,2.4,1s0.9,1.6,0.9,2.8
			c0,0.1,0,0.2,0,0.3h-5.4c0,0.8,0.3,1.4,0.7,1.8c0.4,0.4,0.9,0.6,1.5,0.6c0.5,0,0.8-0.1,1.2-0.4
			C863.3,124.3,863.5,123.9,863.7,123.4z M859.7,121.4h4.1c-0.1-0.6-0.2-1.1-0.5-1.4c-0.4-0.5-0.9-0.7-1.5-0.7c-0.6,0-1,0.2-1.4,0.6
			S859.7,120.8,859.7,121.4z"/>
		<path id="XMLID_32_" class="st1" d="M866.3,126.3l1.2,0.2c0,0.4,0.2,0.6,0.4,0.8c0.3,0.2,0.7,0.3,1.3,0.3c0.6,0,1-0.1,1.3-0.3
			c0.3-0.2,0.5-0.5,0.6-1c0.1-0.3,0.1-0.8,0.1-1.6c-0.5,0.6-1.2,1-2,1c-1,0-1.8-0.4-2.3-1.1s-0.8-1.6-0.8-2.6c0-0.7,0.1-1.3,0.4-1.9
			c0.3-0.6,0.6-1,1.1-1.4s1-0.5,1.7-0.5c0.9,0,1.6,0.3,2.1,1v-0.9h1.1v6.3c0,1.1-0.1,1.9-0.3,2.4c-0.2,0.5-0.6,0.8-1.1,1.1
			c-0.5,0.3-1.1,0.4-1.8,0.4c-0.9,0-1.6-0.2-2.1-0.6C866.6,127.7,866.3,127.1,866.3,126.3z M867.3,122c0,1,0.2,1.6,0.6,2.1
			c0.4,0.4,0.9,0.7,1.4,0.7c0.6,0,1-0.2,1.4-0.7c0.4-0.4,0.6-1.1,0.6-2c0-0.9-0.2-1.6-0.6-2s-0.9-0.7-1.4-0.7c-0.5,0-1,0.2-1.4,0.7
			C867.5,120.4,867.3,121.1,867.3,122z"/>
		<path id="XMLID_38_" class="st1" d="M874.3,117.1v-1.4h1.2v1.4H874.3z M874.3,125.7v-7.3h1.2v7.3H874.3z"/>
		<path id="XMLID_82_" class="st1" d="M876.9,123.5l1.2-0.2c0.1,0.5,0.3,0.9,0.6,1.1s0.7,0.4,1.3,0.4c0.6,0,1-0.1,1.3-0.3
			c0.3-0.2,0.4-0.5,0.4-0.8c0-0.3-0.1-0.5-0.4-0.7c-0.2-0.1-0.6-0.2-1.3-0.4c-0.9-0.2-1.5-0.4-1.9-0.6c-0.3-0.2-0.6-0.4-0.8-0.7
			c-0.2-0.3-0.3-0.6-0.3-1c0-0.3,0.1-0.6,0.2-0.9c0.1-0.3,0.3-0.5,0.6-0.7c0.2-0.1,0.5-0.3,0.8-0.4c0.3-0.1,0.7-0.1,1.1-0.1
			c0.6,0,1.1,0.1,1.5,0.2s0.7,0.4,1,0.7c0.2,0.3,0.3,0.7,0.4,1.1l-1.2,0.2c-0.1-0.4-0.2-0.7-0.5-0.9s-0.6-0.3-1.1-0.3
			c-0.6,0-1,0.1-1.2,0.3c-0.2,0.2-0.4,0.4-0.4,0.7c0,0.2,0,0.3,0.2,0.4c0.1,0.1,0.3,0.2,0.5,0.3c0.1,0,0.5,0.2,1.1,0.3
			c0.9,0.2,1.5,0.4,1.8,0.6c0.3,0.1,0.6,0.4,0.8,0.6c0.2,0.3,0.3,0.6,0.3,1.1c0,0.4-0.1,0.8-0.4,1.2c-0.2,0.4-0.6,0.6-1,0.8
			c-0.5,0.2-1,0.3-1.5,0.3c-0.9,0-1.7-0.2-2.2-0.6S877.1,124.3,876.9,123.5z"/>
		<path id="XMLID_84_" class="st1" d="M887.1,124.6l0.2,1.1c-0.3,0.1-0.7,0.1-0.9,0.1c-0.4,0-0.8-0.1-1-0.2s-0.4-0.3-0.5-0.6
			c-0.1-0.2-0.2-0.7-0.2-1.5v-4.2h-0.9v-1h0.9v-1.8l1.2-0.7v2.5h1.2v1h-1.2v4.2c0,0.4,0,0.6,0.1,0.7s0.1,0.2,0.2,0.2
			s0.2,0.1,0.4,0.1C886.7,124.7,886.9,124.6,887.1,124.6z"/>
		<path id="XMLID_86_" class="st1" d="M888.3,125.7v-7.3h1.1v1.1c0.3-0.5,0.5-0.9,0.8-1s0.5-0.2,0.8-0.2c0.4,0,0.8,0.1,1.3,0.4
			l-0.4,1.1c-0.3-0.2-0.6-0.3-0.9-0.3c-0.3,0-0.5,0.1-0.7,0.2c-0.2,0.2-0.4,0.4-0.5,0.7c-0.1,0.4-0.2,0.9-0.2,1.4v3.8H888.3z"/>
		<path id="XMLID_88_" class="st1" d="M897.7,124.8c-0.5,0.4-0.9,0.7-1.3,0.8s-0.9,0.2-1.4,0.2c-0.8,0-1.4-0.2-1.8-0.6
			c-0.4-0.4-0.6-0.9-0.6-1.5c0-0.4,0.1-0.7,0.2-1c0.2-0.3,0.4-0.5,0.6-0.7s0.6-0.3,0.9-0.4c0.2-0.1,0.6-0.1,1.1-0.2
			c1-0.1,1.7-0.3,2.2-0.4c0-0.2,0-0.3,0-0.3c0-0.5-0.1-0.9-0.3-1.1c-0.3-0.3-0.8-0.4-1.4-0.4c-0.6,0-1,0.1-1.3,0.3
			c-0.3,0.2-0.5,0.6-0.6,1.1l-1.2-0.2c0.1-0.5,0.3-0.9,0.5-1.2c0.3-0.3,0.6-0.6,1.1-0.7c0.5-0.2,1-0.3,1.6-0.3
			c0.6,0,1.1,0.1,1.5,0.2c0.4,0.1,0.7,0.3,0.9,0.6c0.2,0.2,0.3,0.5,0.4,0.8c0,0.2,0.1,0.6,0.1,1.1v1.6c0,1.1,0,1.9,0.1,2.2
			c0.1,0.3,0.2,0.6,0.3,0.9H898C897.8,125.5,897.8,125.2,897.7,124.8z M897.6,122.1c-0.4,0.2-1.1,0.3-2,0.5
			c-0.5,0.1-0.9,0.2-1.1,0.2c-0.2,0.1-0.4,0.2-0.5,0.4c-0.1,0.2-0.2,0.4-0.2,0.6c0,0.3,0.1,0.6,0.4,0.8s0.6,0.3,1.1,0.3
			c0.5,0,0.9-0.1,1.3-0.3c0.4-0.2,0.6-0.5,0.8-0.9c0.1-0.3,0.2-0.7,0.2-1.2V122.1z"/>
		<path id="XMLID_91_" class="st1" d="M905.5,125.7v-0.9c-0.5,0.7-1.1,1.1-2,1.1c-0.6,0-1.1-0.2-1.6-0.5s-0.9-0.8-1.1-1.3
			c-0.3-0.6-0.4-1.2-0.4-2c0-0.7,0.1-1.4,0.4-2c0.2-0.6,0.6-1,1.1-1.4c0.5-0.3,1-0.5,1.6-0.5c0.4,0,0.8,0.1,1.2,0.3
			c0.3,0.2,0.6,0.4,0.8,0.7v-3.6h1.2v10H905.5z M901.6,122.1c0,0.9,0.2,1.6,0.6,2.1c0.4,0.5,0.9,0.7,1.4,0.7c0.5,0,1-0.2,1.4-0.7
			c0.4-0.4,0.6-1.1,0.6-2c0-1-0.2-1.7-0.6-2.2s-0.9-0.7-1.4-0.7c-0.5,0-1,0.2-1.4,0.7S901.6,121.1,901.6,122.1z"/>
		<path id="XMLID_94_" class="st1" d="M908.1,122.1c0-1.3,0.4-2.3,1.1-3c0.6-0.5,1.4-0.8,2.3-0.8c1,0,1.8,0.3,2.4,1
			c0.6,0.7,0.9,1.6,0.9,2.7c0,0.9-0.1,1.7-0.4,2.2c-0.3,0.5-0.7,1-1.2,1.2s-1.1,0.4-1.8,0.4c-1,0-1.8-0.3-2.5-1
			S908.1,123.3,908.1,122.1z M909.4,122.1c0,0.9,0.2,1.6,0.6,2.1c0.4,0.5,0.9,0.7,1.5,0.7c0.6,0,1.1-0.2,1.5-0.7
			c0.4-0.5,0.6-1.2,0.6-2.1c0-0.9-0.2-1.6-0.6-2c-0.4-0.5-0.9-0.7-1.5-0.7c-0.6,0-1.1,0.2-1.5,0.7
			C909.6,120.5,909.4,121.2,909.4,122.1z"/>
	</g>
</g>
</svg>
