<?xml version="1.0" encoding="utf-8"?>
<!-- Generator: Adobe Illustrator 19.0.0, SVG Export Plug-In . SVG Version: 6.00 Build 0)  -->
<svg version="1.1" id="Capa_1" xmlns="http://www.w3.org/2000/svg" xmlns:xlink="http://www.w3.org/1999/xlink" x="0px" y="0px"
	 viewBox="0 0 468.1 177.8" style="enable-background:new 0 0 468.1 177.8;" xml:space="preserve">
<style type="text/css">
	.st0{fill:#F9D523;}
	.st1{fill:#252527;}
	.st2{fill:none;stroke:#252527;stroke-width:2;stroke-miterlimit:10;}
</style>
<g id="XMLID_1_">
	<g id="XMLID_8349_">
		<rect id="XMLID_40_" x="319.1" y="1.5" class="st0" width="147.5" height="133.6"/>
		<g id="XMLID_36_">
			<path id="XMLID_37_" class="st1" d="M465.1,3v130.6H320.6V3H465.1 M468.1,0h-3H320.6h-3v3v130.6v3h3h144.5h3v-3V3V0L468.1,0z"/>
		</g>
	</g>
	<g id="XMLID_8348_">
		<rect id="XMLID_33_" x="160.5" y="1.5" class="st0" width="147.5" height="174.8"/>
		<g id="XMLID_27_">
			<path id="XMLID_28_" class="st1" d="M306.5,3v171.8H162V3H306.5 M309.5,0h-3H162h-3v3v171.8v3h3h144.5h3v-3V3V0L309.5,0z"/>
		</g>
	</g>
	<g id="XMLID_2607_">
		<rect id="XMLID_41_" x="1.5" y="1.5" class="st0" width="147.5" height="148.2"/>
		<g id="XMLID_20_">
			<path id="XMLID_22_" class="st1" d="M147.5,3v145.2H3V3H147.5 M150.5,0h-3H3H0v3v145.2v3h3h144.5h3v-3V3V0L150.5,0z"/>
		</g>
	</g>
	<g id="XMLID_590_">
		<path id="XMLID_591_" class="st1" d="M16,19.5v-10h1.3v10H16z"/>
		<path id="XMLID_593_" class="st1" d="M19.5,19.5v-7.3h1.1v1C21.2,12.4,22,12,23,12c0.4,0,0.8,0.1,1.2,0.2c0.4,0.2,0.6,0.4,0.8,0.6
			s0.3,0.6,0.4,0.9c0,0.2,0.1,0.6,0.1,1.2v4.5h-1.2v-4.4c0-0.5,0-0.9-0.1-1.1c-0.1-0.2-0.3-0.4-0.5-0.6c-0.2-0.1-0.5-0.2-0.9-0.2
			c-0.5,0-1,0.2-1.4,0.5c-0.4,0.3-0.6,1-0.6,1.9v4H19.5z"/>
		<path id="XMLID_595_" class="st1" d="M26.8,17.3l1.2-0.2c0.1,0.5,0.3,0.9,0.6,1.1c0.3,0.3,0.7,0.4,1.3,0.4c0.6,0,1-0.1,1.3-0.3
			c0.3-0.2,0.4-0.5,0.4-0.8c0-0.3-0.1-0.5-0.4-0.7c-0.2-0.1-0.6-0.2-1.3-0.4c-0.9-0.2-1.5-0.4-1.9-0.6c-0.3-0.2-0.6-0.4-0.8-0.7
			c-0.2-0.3-0.3-0.6-0.3-1c0-0.3,0.1-0.6,0.2-0.9c0.1-0.3,0.4-0.5,0.6-0.7c0.2-0.1,0.5-0.3,0.8-0.4c0.3-0.1,0.7-0.1,1.1-0.1
			c0.6,0,1.1,0.1,1.5,0.2c0.4,0.2,0.7,0.4,1,0.7c0.2,0.3,0.3,0.7,0.4,1.1l-1.2,0.2c-0.1-0.4-0.2-0.7-0.5-0.9
			c-0.3-0.2-0.6-0.3-1.1-0.3c-0.6,0-1,0.1-1.2,0.3s-0.4,0.4-0.4,0.7c0,0.2,0,0.3,0.2,0.4c0.1,0.1,0.3,0.2,0.5,0.3
			c0.1,0,0.5,0.2,1.1,0.3c0.9,0.2,1.5,0.4,1.8,0.6c0.3,0.1,0.6,0.4,0.8,0.6s0.3,0.6,0.3,1.1c0,0.4-0.1,0.8-0.4,1.2
			c-0.2,0.4-0.6,0.6-1,0.8c-0.5,0.2-1,0.3-1.5,0.3c-0.9,0-1.7-0.2-2.2-0.6C27.3,18.7,27,18.1,26.8,17.3z"/>
		<path id="XMLID_597_" class="st1" d="M37,18.4l0.2,1.1c-0.3,0.1-0.7,0.1-0.9,0.1c-0.4,0-0.8-0.1-1-0.2s-0.4-0.3-0.5-0.6
			c-0.1-0.2-0.2-0.7-0.2-1.5v-4.2h-0.9v-1h0.9v-1.8l1.2-0.7v2.5H37v1h-1.2v4.2c0,0.4,0,0.6,0.1,0.7c0,0.1,0.1,0.2,0.2,0.2
			c0.1,0.1,0.2,0.1,0.4,0.1C36.6,18.4,36.8,18.4,37,18.4z"/>
		<path id="XMLID_599_" class="st1" d="M38.2,19.5v-7.3h1.1v1.1c0.3-0.5,0.5-0.9,0.8-1c0.2-0.2,0.5-0.2,0.8-0.2
			c0.4,0,0.8,0.1,1.3,0.4l-0.4,1.1c-0.3-0.2-0.6-0.3-0.9-0.3c-0.3,0-0.5,0.1-0.7,0.2c-0.2,0.2-0.4,0.4-0.5,0.7
			c-0.1,0.4-0.2,0.9-0.2,1.4v3.8H38.2z"/>
		<path id="XMLID_601_" class="st1" d="M47.6,19.5v-1.1c-0.6,0.8-1.3,1.2-2.3,1.2c-0.4,0-0.8-0.1-1.2-0.2c-0.4-0.2-0.6-0.4-0.8-0.6
			c-0.2-0.2-0.3-0.6-0.4-0.9c0-0.2-0.1-0.6-0.1-1.1v-4.5h1.2v4c0,0.6,0,1.1,0.1,1.3c0.1,0.3,0.2,0.6,0.5,0.8
			c0.3,0.2,0.6,0.3,0.9,0.3s0.7-0.1,1-0.3c0.3-0.2,0.6-0.4,0.7-0.8c0.1-0.3,0.2-0.8,0.2-1.4v-3.9h1.2v7.3H47.6z"/>
		<path id="XMLID_603_" class="st1" d="M50.7,19.5v-7.3h1.1v1c0.2-0.4,0.5-0.6,0.9-0.9c0.4-0.2,0.8-0.3,1.3-0.3c0.5,0,1,0.1,1.3,0.3
			c0.3,0.2,0.6,0.5,0.7,0.9c0.6-0.8,1.3-1.3,2.2-1.3c0.7,0,1.3,0.2,1.7,0.6c0.4,0.4,0.6,1,0.6,1.8v5h-1.2v-4.6c0-0.5,0-0.8-0.1-1.1
			c-0.1-0.2-0.2-0.4-0.4-0.5s-0.5-0.2-0.7-0.2c-0.5,0-0.9,0.2-1.3,0.5c-0.3,0.3-0.5,0.9-0.5,1.6v4.2H55v-4.7c0-0.5-0.1-1-0.3-1.2
			s-0.5-0.4-1-0.4c-0.3,0-0.7,0.1-1,0.3c-0.3,0.2-0.5,0.4-0.6,0.8s-0.2,0.9-0.2,1.5v3.8H50.7z"/>
		<path id="XMLID_605_" class="st1" d="M67.3,17.1l1.3,0.2C68.4,18,68,18.6,67.5,19s-1.2,0.6-2.1,0.6c-1.1,0-1.9-0.3-2.5-1
			c-0.6-0.7-0.9-1.6-0.9-2.8c0-1.2,0.3-2.2,0.9-2.8s1.4-1,2.4-1c1,0,1.8,0.3,2.4,1s0.9,1.6,0.9,2.8c0,0.1,0,0.2,0,0.3h-5.4
			c0,0.8,0.3,1.4,0.7,1.8c0.4,0.4,0.9,0.6,1.5,0.6c0.5,0,0.8-0.1,1.2-0.4S67.1,17.6,67.3,17.1z M63.3,15.1h4.1
			c-0.1-0.6-0.2-1.1-0.5-1.4c-0.4-0.5-0.9-0.7-1.5-0.7c-0.6,0-1,0.2-1.4,0.6C63.5,14,63.3,14.5,63.3,15.1z"/>
		<path id="XMLID_608_" class="st1" d="M70.1,19.5v-7.3h1.1v1c0.5-0.8,1.3-1.2,2.3-1.2c0.4,0,0.8,0.1,1.2,0.2
			c0.4,0.2,0.6,0.4,0.8,0.6s0.3,0.6,0.4,0.9C76,14,76,14.4,76,15v4.5h-1.2v-4.4c0-0.5,0-0.9-0.1-1.1c-0.1-0.2-0.3-0.4-0.5-0.6
			c-0.2-0.1-0.5-0.2-0.9-0.2c-0.5,0-1,0.2-1.4,0.5c-0.4,0.3-0.6,1-0.6,1.9v4H70.1z"/>
		<path id="XMLID_610_" class="st1" d="M80.6,18.4l0.2,1.1c-0.3,0.1-0.7,0.1-0.9,0.1c-0.4,0-0.8-0.1-1-0.2s-0.4-0.3-0.5-0.6
			c-0.1-0.2-0.2-0.7-0.2-1.5v-4.2h-0.9v-1h0.9v-1.8l1.2-0.7v2.5h1.2v1h-1.2v4.2c0,0.4,0,0.6,0.1,0.7c0,0.1,0.1,0.2,0.2,0.2
			c0.1,0.1,0.2,0.1,0.4,0.1C80.2,18.4,80.4,18.4,80.6,18.4z"/>
		<path id="XMLID_612_" class="st1" d="M81.3,15.8c0-1.3,0.4-2.3,1.1-3c0.6-0.5,1.4-0.8,2.3-0.8c1,0,1.8,0.3,2.4,1
			c0.6,0.7,1,1.6,1,2.7c0,0.9-0.1,1.7-0.4,2.2c-0.3,0.5-0.7,1-1.2,1.2c-0.5,0.3-1.1,0.4-1.8,0.4c-1,0-1.8-0.3-2.5-1
			C81.6,18,81.3,17.1,81.3,15.8z M82.6,15.8c0,0.9,0.2,1.6,0.6,2.1c0.4,0.5,0.9,0.7,1.5,0.7c0.6,0,1.1-0.2,1.5-0.7s0.6-1.2,0.6-2.1
			c0-0.9-0.2-1.6-0.6-2c-0.4-0.5-0.9-0.7-1.5-0.7c-0.6,0-1.1,0.2-1.5,0.7S82.6,14.9,82.6,15.8z"/>
		<path id="XMLID_615_" class="st1" d="M89.7,19.5v-10h2l2.4,7.1c0.2,0.7,0.4,1.2,0.5,1.5c0.1-0.4,0.3-0.9,0.5-1.6l2.4-7h1.8v10H98
			v-8.4l-2.9,8.4h-1.2L91,10.9v8.5H89.7z"/>
		<path id="XMLID_617_" class="st1" d="M106,19.5v-1.1c-0.6,0.8-1.3,1.2-2.3,1.2c-0.4,0-0.8-0.1-1.2-0.2c-0.4-0.2-0.6-0.4-0.8-0.6
			c-0.2-0.2-0.3-0.6-0.4-0.9c0-0.2-0.1-0.6-0.1-1.1v-4.5h1.2v4c0,0.6,0,1.1,0.1,1.3c0.1,0.3,0.2,0.6,0.5,0.8
			c0.3,0.2,0.6,0.3,0.9,0.3s0.7-0.1,1-0.3c0.3-0.2,0.6-0.4,0.7-0.8c0.1-0.3,0.2-0.8,0.2-1.4v-3.9h1.2v7.3H106z"/>
		<path id="XMLID_619_" class="st1" d="M108.5,17.3l1.2-0.2c0.1,0.5,0.3,0.9,0.6,1.1c0.3,0.3,0.7,0.4,1.3,0.4c0.6,0,1-0.1,1.3-0.3
			c0.3-0.2,0.4-0.5,0.4-0.8c0-0.3-0.1-0.5-0.4-0.7c-0.2-0.1-0.6-0.2-1.3-0.4c-0.9-0.2-1.5-0.4-1.9-0.6c-0.3-0.2-0.6-0.4-0.8-0.7
			c-0.2-0.3-0.3-0.6-0.3-1c0-0.3,0.1-0.6,0.2-0.9c0.1-0.3,0.4-0.5,0.6-0.7c0.2-0.1,0.5-0.3,0.8-0.4c0.3-0.1,0.7-0.1,1.1-0.1
			c0.6,0,1.1,0.1,1.5,0.2c0.4,0.2,0.7,0.4,1,0.7c0.2,0.3,0.3,0.7,0.4,1.1l-1.2,0.2c-0.1-0.4-0.2-0.7-0.5-0.9
			c-0.3-0.2-0.6-0.3-1.1-0.3c-0.6,0-1,0.1-1.2,0.3s-0.4,0.4-0.4,0.7c0,0.2,0,0.3,0.2,0.4c0.1,0.1,0.3,0.2,0.5,0.3
			c0.1,0,0.5,0.2,1.1,0.3c0.9,0.2,1.5,0.4,1.8,0.6c0.3,0.1,0.6,0.4,0.8,0.6s0.3,0.6,0.3,1.1c0,0.4-0.1,0.8-0.4,1.2
			c-0.2,0.4-0.6,0.6-1,0.8c-0.5,0.2-1,0.3-1.5,0.3c-0.9,0-1.7-0.2-2.2-0.6C109,18.7,108.7,18.1,108.5,17.3z"/>
		<path id="XMLID_621_" class="st1" d="M116,10.9V9.4h1.2v1.4H116z M116,19.5v-7.3h1.2v7.3H116z"/>
		<path id="XMLID_624_" class="st1" d="M123.9,16.8l1.2,0.2c-0.1,0.8-0.5,1.5-1,2c-0.5,0.5-1.2,0.7-2,0.7c-1,0-1.8-0.3-2.4-1
			c-0.6-0.6-0.9-1.6-0.9-2.8c0-0.8,0.1-1.5,0.4-2.1s0.7-1,1.2-1.3c0.5-0.3,1.1-0.4,1.7-0.4c0.8,0,1.4,0.2,1.9,0.6
			c0.5,0.4,0.8,1,1,1.7l-1.2,0.2c-0.1-0.5-0.3-0.9-0.6-1.1c-0.3-0.2-0.6-0.4-1-0.4c-0.6,0-1.1,0.2-1.5,0.7c-0.4,0.4-0.6,1.1-0.6,2.1
			c0,1,0.2,1.7,0.6,2.1s0.9,0.7,1.5,0.7c0.5,0,0.9-0.1,1.2-0.4S123.8,17.4,123.9,16.8z"/>
		<path id="XMLID_626_" class="st1" d="M130.9,18.6c-0.5,0.4-0.9,0.7-1.3,0.8c-0.4,0.2-0.9,0.2-1.4,0.2c-0.8,0-1.4-0.2-1.8-0.6
			c-0.4-0.4-0.6-0.9-0.6-1.5c0-0.4,0.1-0.7,0.2-1c0.2-0.3,0.4-0.5,0.6-0.7c0.3-0.2,0.6-0.3,0.9-0.4c0.2-0.1,0.6-0.1,1.1-0.2
			c1-0.1,1.7-0.3,2.2-0.4c0-0.2,0-0.3,0-0.3c0-0.5-0.1-0.9-0.3-1.1c-0.3-0.3-0.8-0.4-1.4-0.4c-0.6,0-1,0.1-1.3,0.3
			c-0.3,0.2-0.5,0.6-0.6,1.1l-1.2-0.2c0.1-0.5,0.3-0.9,0.5-1.2c0.3-0.3,0.6-0.6,1.1-0.7c0.5-0.2,1-0.3,1.6-0.3
			c0.6,0,1.1,0.1,1.5,0.2s0.7,0.3,0.9,0.6c0.2,0.2,0.3,0.5,0.4,0.8c0,0.2,0.1,0.6,0.1,1.1v1.6c0,1.1,0,1.9,0.1,2.2
			c0.1,0.3,0.2,0.6,0.3,0.9h-1.3C131,19.2,130.9,18.9,130.9,18.6z M130.8,15.8c-0.4,0.2-1.1,0.3-2,0.5c-0.5,0.1-0.9,0.2-1.1,0.2
			s-0.4,0.2-0.5,0.4c-0.1,0.2-0.2,0.4-0.2,0.6c0,0.3,0.1,0.6,0.4,0.8c0.2,0.2,0.6,0.3,1.1,0.3c0.5,0,0.9-0.1,1.3-0.3
			c0.4-0.2,0.6-0.5,0.8-0.9c0.1-0.3,0.2-0.7,0.2-1.2V15.8z"/>
		<path id="XMLID_629_" class="st1" d="M133.9,19.5v-10h1.2v10H133.9z"/>
	</g>
	<g id="XMLID_509_">
		<path id="XMLID_510_" class="st1" d="M14.4,42.1v-2.7h-2.7v-1.1h2.7v-2.7h1.2v2.7h2.7v1.1h-2.7v2.7H14.4z"/>
		<path id="XMLID_512_" class="st1" d="M20,43.8v-7.3h1.1v1c0.5-0.8,1.3-1.2,2.3-1.2c0.4,0,0.8,0.1,1.2,0.2c0.4,0.2,0.6,0.4,0.8,0.6
			s0.3,0.6,0.4,0.9c0,0.2,0.1,0.6,0.1,1.2v4.5h-1.2v-4.4c0-0.5,0-0.9-0.1-1.1c-0.1-0.2-0.3-0.4-0.5-0.6c-0.2-0.1-0.5-0.2-0.9-0.2
			c-0.5,0-1,0.2-1.4,0.5c-0.4,0.3-0.6,1-0.6,1.9v4H20z"/>
		<path id="XMLID_514_" class="st1" d="M27.3,40.1c0-1.3,0.4-2.3,1.1-3c0.6-0.5,1.4-0.8,2.3-0.8c1,0,1.8,0.3,2.4,1
			c0.6,0.7,1,1.6,1,2.7c0,0.9-0.1,1.7-0.4,2.2c-0.3,0.5-0.7,1-1.2,1.2c-0.5,0.3-1.1,0.4-1.8,0.4c-1,0-1.8-0.3-2.5-1
			C27.6,42.3,27.3,41.4,27.3,40.1z M28.6,40.1c0,0.9,0.2,1.6,0.6,2.1c0.4,0.5,0.9,0.7,1.5,0.7c0.6,0,1.1-0.2,1.5-0.7
			s0.6-1.2,0.6-2.1c0-0.9-0.2-1.6-0.6-2c-0.4-0.5-0.9-0.7-1.5-0.7c-0.6,0-1.1,0.2-1.5,0.7S28.6,39.2,28.6,40.1z"/>
		<path id="XMLID_517_" class="st1" d="M35.6,43.8v-7.3h1.1v1c0.2-0.4,0.5-0.6,0.9-0.9c0.4-0.2,0.8-0.3,1.3-0.3c0.5,0,1,0.1,1.3,0.3
			c0.3,0.2,0.6,0.5,0.7,0.9c0.6-0.8,1.3-1.3,2.2-1.3c0.7,0,1.3,0.2,1.7,0.6c0.4,0.4,0.6,1,0.6,1.8v5h-1.2v-4.6c0-0.5,0-0.8-0.1-1.1
			c-0.1-0.2-0.2-0.4-0.4-0.5s-0.5-0.2-0.7-0.2c-0.5,0-0.9,0.2-1.3,0.5c-0.3,0.3-0.5,0.9-0.5,1.6v4.2h-1.2V39c0-0.5-0.1-1-0.3-1.2
			s-0.5-0.4-1-0.4c-0.3,0-0.7,0.1-1,0.3c-0.3,0.2-0.5,0.4-0.6,0.8s-0.2,0.9-0.2,1.5v3.8H35.6z"/>
		<path id="XMLID_519_" class="st1" d="M48.4,43.8h-1.1v-10h1.2v3.6c0.5-0.7,1.2-1,2-1c0.4,0,0.9,0.1,1.3,0.3c0.4,0.2,0.7,0.4,1,0.8
			c0.3,0.3,0.5,0.7,0.6,1.2s0.2,1,0.2,1.5c0,1.2-0.3,2.2-0.9,2.9s-1.4,1-2.2,1c-0.9,0-1.5-0.4-2-1.1V43.8z M48.3,40.1
			c0,0.9,0.1,1.5,0.4,1.9c0.4,0.6,0.9,1,1.6,1c0.5,0,1-0.2,1.4-0.7c0.4-0.5,0.6-1.2,0.6-2.1c0-0.9-0.2-1.6-0.6-2.1
			c-0.4-0.5-0.8-0.7-1.4-0.7c-0.5,0-1,0.2-1.4,0.7C48.5,38.5,48.3,39.2,48.3,40.1z"/>
		<path id="XMLID_522_" class="st1" d="M55,43.8v-7.3h1.1v1.1c0.3-0.5,0.5-0.9,0.8-1c0.2-0.2,0.5-0.2,0.8-0.2c0.4,0,0.8,0.1,1.3,0.4
			l-0.4,1.1c-0.3-0.2-0.6-0.3-0.9-0.3c-0.3,0-0.5,0.1-0.7,0.2c-0.2,0.2-0.4,0.4-0.5,0.7c-0.1,0.4-0.2,0.9-0.2,1.4v3.8H55z"/>
		<path id="XMLID_524_" class="st1" d="M64.6,41.4l1.3,0.2c-0.2,0.7-0.6,1.3-1.1,1.7s-1.2,0.6-2.1,0.6c-1.1,0-1.9-0.3-2.5-1
			c-0.6-0.7-0.9-1.6-0.9-2.8c0-1.2,0.3-2.2,0.9-2.8s1.4-1,2.4-1c1,0,1.8,0.3,2.4,1s0.9,1.6,0.9,2.8c0,0.1,0,0.2,0,0.3h-5.4
			c0,0.8,0.3,1.4,0.7,1.8s0.9,0.6,1.5,0.6c0.5,0,0.8-0.1,1.2-0.4C64.2,42.3,64.5,41.9,64.6,41.4z M60.6,39.4h4.1
			c-0.1-0.6-0.2-1.1-0.5-1.4c-0.4-0.5-0.9-0.7-1.5-0.7c-0.6,0-1,0.2-1.4,0.6C60.9,38.3,60.6,38.8,60.6,39.4z"/>
		<path id="XMLID_527_" class="st1" d="M14.4,56.1v-2.7h-2.7v-1.1h2.7v-2.7h1.2v2.7h2.7v1.1h-2.7v2.7H14.4z"/>
		<path id="XMLID_529_" class="st1" d="M19.5,54.1c0-1.3,0.4-2.3,1.1-3c0.6-0.5,1.4-0.8,2.3-0.8c1,0,1.8,0.3,2.4,1
			c0.6,0.7,1,1.6,1,2.7c0,0.9-0.1,1.7-0.4,2.2c-0.3,0.5-0.7,1-1.2,1.2c-0.5,0.3-1.1,0.4-1.8,0.4c-1,0-1.8-0.3-2.5-1
			C19.8,56.3,19.5,55.4,19.5,54.1z M20.8,54.1c0,0.9,0.2,1.6,0.6,2.1c0.4,0.5,0.9,0.7,1.5,0.7c0.6,0,1.1-0.2,1.5-0.7
			s0.6-1.2,0.6-2.1c0-0.9-0.2-1.6-0.6-2c-0.4-0.5-0.9-0.7-1.5-0.7c-0.6,0-1.1,0.2-1.5,0.7S20.8,53.2,20.8,54.1z"/>
		<path id="XMLID_532_" class="st1" d="M27.8,57.8v-7.3h1.1v1.1c0.3-0.5,0.5-0.9,0.8-1c0.2-0.2,0.5-0.2,0.8-0.2
			c0.4,0,0.8,0.1,1.3,0.4l-0.4,1.1c-0.3-0.2-0.6-0.3-0.9-0.3c-0.3,0-0.5,0.1-0.7,0.2c-0.2,0.2-0.4,0.4-0.5,0.7
			C29.1,53,29,53.4,29,54v3.8H27.8z"/>
		<path id="XMLID_534_" class="st1" d="M32.4,49.1v-1.4h1.2v1.4H32.4z M32.4,57.8v-7.3h1.2v7.3H32.4z"/>
		<path id="XMLID_537_" class="st1" d="M35.3,58.4l1.2,0.2c0,0.4,0.2,0.6,0.4,0.8c0.3,0.2,0.7,0.3,1.3,0.3c0.6,0,1-0.1,1.3-0.3
			s0.5-0.5,0.6-1c0.1-0.3,0.1-0.8,0.1-1.6c-0.5,0.6-1.2,1-2,1c-1,0-1.8-0.4-2.3-1.1s-0.8-1.6-0.8-2.6c0-0.7,0.1-1.3,0.4-1.9
			c0.3-0.6,0.6-1,1.1-1.4c0.5-0.3,1-0.5,1.7-0.5c0.9,0,1.6,0.3,2.1,1v-0.9h1.1v6.3c0,1.1-0.1,1.9-0.3,2.4c-0.2,0.5-0.6,0.8-1.1,1.1
			c-0.5,0.3-1.1,0.4-1.8,0.4c-0.9,0-1.6-0.2-2.1-0.6C35.6,59.7,35.3,59.1,35.3,58.4z M36.3,54c0,1,0.2,1.6,0.6,2.1s0.9,0.7,1.4,0.7
			c0.6,0,1-0.2,1.4-0.7c0.4-0.4,0.6-1.1,0.6-2c0-0.9-0.2-1.6-0.6-2c-0.4-0.5-0.9-0.7-1.4-0.7c-0.5,0-1,0.2-1.4,0.7
			C36.5,52.5,36.3,53.1,36.3,54z"/>
		<path id="XMLID_540_" class="st1" d="M48.3,55.4l1.3,0.2c-0.2,0.7-0.6,1.3-1.1,1.7s-1.2,0.6-2.1,0.6c-1.1,0-1.9-0.3-2.5-1
			c-0.6-0.7-0.9-1.6-0.9-2.8c0-1.2,0.3-2.2,0.9-2.8s1.4-1,2.4-1c1,0,1.8,0.3,2.4,1s0.9,1.6,0.9,2.8c0,0.1,0,0.2,0,0.3h-5.4
			c0,0.8,0.3,1.4,0.7,1.8s0.9,0.6,1.5,0.6c0.5,0,0.8-0.1,1.2-0.4S48.1,55.9,48.3,55.4z M44.3,53.4h4.1c-0.1-0.6-0.2-1.1-0.5-1.4
			c-0.4-0.5-0.9-0.7-1.5-0.7c-0.6,0-1,0.2-1.4,0.6C44.5,52.3,44.3,52.8,44.3,53.4z"/>
		<path id="XMLID_543_" class="st1" d="M51.1,57.8v-7.3h1.1v1c0.5-0.8,1.3-1.2,2.3-1.2c0.4,0,0.8,0.1,1.2,0.2
			c0.4,0.2,0.6,0.4,0.8,0.6s0.3,0.6,0.4,0.9c0,0.2,0.1,0.6,0.1,1.2v4.5h-1.2v-4.4c0-0.5,0-0.9-0.1-1.1c-0.1-0.2-0.3-0.4-0.5-0.6
			c-0.2-0.1-0.5-0.2-0.9-0.2c-0.5,0-1,0.2-1.4,0.5c-0.4,0.3-0.6,1-0.6,1.9v4H51.1z"/>
		<path id="XMLID_545_" class="st1" d="M14.4,70.1v-2.7h-2.7v-1.1h2.7v-2.7h1.2v2.7h2.7v1.1h-2.7v2.7H14.4z"/>
		<path id="XMLID_547_" class="st1" d="M20,71.8v-7.3h1.1v1.1c0.3-0.5,0.5-0.9,0.8-1c0.2-0.2,0.5-0.2,0.8-0.2c0.4,0,0.8,0.1,1.3,0.4
			l-0.4,1.1c-0.3-0.2-0.6-0.3-0.9-0.3c-0.3,0-0.5,0.1-0.7,0.2c-0.2,0.2-0.4,0.4-0.5,0.7c-0.1,0.4-0.2,0.9-0.2,1.4v3.8H20z"/>
		<path id="XMLID_549_" class="st1" d="M29.6,69.4l1.3,0.2c-0.2,0.7-0.6,1.3-1.1,1.7s-1.2,0.6-2.1,0.6c-1.1,0-1.9-0.3-2.5-1
			c-0.6-0.7-0.9-1.6-0.9-2.8c0-1.2,0.3-2.2,0.9-2.8s1.4-1,2.4-1c1,0,1.8,0.3,2.4,1s0.9,1.6,0.9,2.8c0,0.1,0,0.2,0,0.3h-5.4
			c0,0.8,0.3,1.4,0.7,1.8s0.9,0.6,1.5,0.6c0.5,0,0.8-0.1,1.2-0.4S29.4,69.9,29.6,69.4z M25.6,67.4h4.1c-0.1-0.6-0.2-1.1-0.5-1.4
			c-0.4-0.5-0.9-0.7-1.5-0.7c-0.6,0-1,0.2-1.4,0.6C25.8,66.3,25.6,66.8,25.6,67.4z"/>
		<path id="XMLID_552_" class="st1" d="M32.7,71.8v-6.3h-1.1v-1h1.1v-0.8c0-0.5,0-0.8,0.1-1.1c0.1-0.3,0.3-0.6,0.6-0.8
			c0.3-0.2,0.7-0.3,1.3-0.3c0.3,0,0.7,0,1.1,0.1l-0.2,1.1c-0.3,0-0.5-0.1-0.7-0.1c-0.4,0-0.6,0.1-0.8,0.2S34,63.4,34,63.8v0.7h1.4v1
			H34v6.3H32.7z"/>
		<path id="XMLID_554_" class="st1" d="M41.3,69.4l1.3,0.2c-0.2,0.7-0.6,1.3-1.1,1.7s-1.2,0.6-2.1,0.6c-1.1,0-1.9-0.3-2.5-1
			c-0.6-0.7-0.9-1.6-0.9-2.8c0-1.2,0.3-2.2,0.9-2.8s1.4-1,2.4-1c1,0,1.8,0.3,2.4,1s0.9,1.6,0.9,2.8c0,0.1,0,0.2,0,0.3h-5.4
			c0,0.8,0.3,1.4,0.7,1.8s0.9,0.6,1.5,0.6c0.5,0,0.8-0.1,1.2-0.4S41.1,69.9,41.3,69.4z M37.3,67.4h4.1c-0.1-0.6-0.2-1.1-0.5-1.4
			c-0.4-0.5-0.9-0.7-1.5-0.7c-0.6,0-1,0.2-1.4,0.6C37.5,66.3,37.3,66.8,37.3,67.4z"/>
		<path id="XMLID_557_" class="st1" d="M44.1,71.8v-7.3h1.1v1.1c0.3-0.5,0.5-0.9,0.8-1c0.2-0.2,0.5-0.2,0.8-0.2
			c0.4,0,0.8,0.1,1.3,0.4l-0.4,1.1c-0.3-0.2-0.6-0.3-0.9-0.3c-0.3,0-0.5,0.1-0.7,0.2c-0.2,0.2-0.4,0.4-0.5,0.7
			c-0.1,0.4-0.2,0.9-0.2,1.4v3.8H44.1z"/>
		<path id="XMLID_559_" class="st1" d="M53.7,69.4l1.3,0.2c-0.2,0.7-0.6,1.3-1.1,1.7s-1.2,0.6-2.1,0.6c-1.1,0-1.9-0.3-2.5-1
			c-0.6-0.7-0.9-1.6-0.9-2.8c0-1.2,0.3-2.2,0.9-2.8s1.4-1,2.4-1c1,0,1.8,0.3,2.4,1s0.9,1.6,0.9,2.8c0,0.1,0,0.2,0,0.3h-5.4
			c0,0.8,0.3,1.4,0.7,1.8s0.9,0.6,1.5,0.6c0.5,0,0.8-0.1,1.2-0.4S53.6,69.9,53.7,69.4z M49.7,67.4h4.1c-0.1-0.6-0.2-1.1-0.5-1.4
			c-0.4-0.5-0.9-0.7-1.5-0.7c-0.6,0-1,0.2-1.4,0.6C50,66.3,49.7,66.8,49.7,67.4z"/>
		<path id="XMLID_562_" class="st1" d="M56.6,71.8v-7.3h1.1v1c0.5-0.8,1.3-1.2,2.3-1.2c0.4,0,0.8,0.1,1.2,0.2
			c0.4,0.2,0.6,0.4,0.8,0.6s0.3,0.6,0.4,0.9c0,0.2,0.1,0.6,0.1,1.2v4.5h-1.2v-4.4c0-0.5,0-0.9-0.1-1.1c-0.1-0.2-0.3-0.4-0.5-0.6
			c-0.2-0.1-0.5-0.2-0.9-0.2c-0.5,0-1,0.2-1.4,0.5c-0.4,0.3-0.6,1-0.6,1.9v4H56.6z"/>
		<path id="XMLID_564_" class="st1" d="M69.1,69.1l1.2,0.2c-0.1,0.8-0.5,1.5-1,2c-0.5,0.5-1.2,0.7-2,0.7c-1,0-1.8-0.3-2.4-1
			c-0.6-0.6-0.9-1.6-0.9-2.8c0-0.8,0.1-1.5,0.4-2.1s0.7-1,1.2-1.3c0.5-0.3,1.1-0.4,1.7-0.4c0.8,0,1.4,0.2,1.9,0.6
			c0.5,0.4,0.8,1,1,1.7L69,66.8c-0.1-0.5-0.3-0.9-0.6-1.1c-0.3-0.2-0.6-0.4-1-0.4c-0.6,0-1.1,0.2-1.5,0.7c-0.4,0.4-0.6,1.1-0.6,2.1
			c0,1,0.2,1.7,0.6,2.1s0.9,0.7,1.5,0.7c0.5,0,0.9-0.1,1.2-0.4S69,69.7,69.1,69.1z"/>
		<path id="XMLID_566_" class="st1" d="M71.4,63.1v-1.4h1.2v1.4H71.4z M71.4,71.8v-7.3h1.2v7.3H71.4z"/>
		<path id="XMLID_569_" class="st1" d="M79.2,70.9c-0.5,0.4-0.9,0.7-1.3,0.8c-0.4,0.2-0.9,0.2-1.4,0.2c-0.8,0-1.4-0.2-1.8-0.6
			c-0.4-0.4-0.6-0.9-0.6-1.5c0-0.4,0.1-0.7,0.2-1c0.2-0.3,0.4-0.5,0.6-0.7c0.3-0.2,0.6-0.3,0.9-0.4c0.2-0.1,0.6-0.1,1.1-0.2
			c1-0.1,1.7-0.3,2.2-0.4c0-0.2,0-0.3,0-0.3c0-0.5-0.1-0.9-0.3-1.1c-0.3-0.3-0.8-0.4-1.4-0.4c-0.6,0-1,0.1-1.3,0.3
			c-0.3,0.2-0.5,0.6-0.6,1.1l-1.2-0.2c0.1-0.5,0.3-0.9,0.5-1.2c0.3-0.3,0.6-0.6,1.1-0.7c0.5-0.2,1-0.3,1.6-0.3
			c0.6,0,1.1,0.1,1.5,0.2s0.7,0.3,0.9,0.6c0.2,0.2,0.3,0.5,0.4,0.8c0,0.2,0.1,0.6,0.1,1.1v1.6c0,1.1,0,1.9,0.1,2.2
			c0.1,0.3,0.2,0.6,0.3,0.9h-1.3C79.3,71.5,79.2,71.2,79.2,70.9z M79.1,68.1c-0.4,0.2-1.1,0.3-2,0.5c-0.5,0.1-0.9,0.2-1.1,0.2
			s-0.4,0.2-0.5,0.4c-0.1,0.2-0.2,0.4-0.2,0.6c0,0.3,0.1,0.6,0.4,0.8c0.2,0.2,0.6,0.3,1.1,0.3c0.5,0,0.9-0.1,1.3-0.3
			c0.4-0.2,0.6-0.5,0.8-0.9c0.1-0.3,0.2-0.7,0.2-1.2V68.1z"/>
		<path id="XMLID_572_" class="st1" d="M11.3,82.7v-1.2h3.8v1.2H11.3z"/>
		<path id="XMLID_574_" class="st1" d="M16.5,88.5v-10h1.1v0.9c0.3-0.4,0.6-0.6,0.9-0.8c0.3-0.2,0.7-0.3,1.2-0.3
			c0.6,0,1.2,0.2,1.6,0.5s0.8,0.8,1.1,1.3c0.2,0.6,0.4,1.2,0.4,1.9c0,0.7-0.1,1.4-0.4,2c-0.3,0.6-0.7,1-1.2,1.4
			c-0.5,0.3-1,0.5-1.6,0.5c-0.4,0-0.8-0.1-1.1-0.3c-0.3-0.2-0.6-0.4-0.8-0.7v3.5H16.5z M17.6,82.2c0,0.9,0.2,1.6,0.6,2.1
			s0.8,0.7,1.4,0.7c0.5,0,1-0.2,1.4-0.7c0.4-0.5,0.6-1.2,0.6-2.2c0-0.9-0.2-1.6-0.6-2.1c-0.4-0.5-0.8-0.7-1.4-0.7
			c-0.5,0-1,0.2-1.4,0.7C17.8,80.5,17.6,81.2,17.6,82.2z"/>
		<path id="XMLID_577_" class="st1" d="M24.2,85.8v-7.3h1.1v1.1c0.3-0.5,0.5-0.9,0.8-1c0.2-0.2,0.5-0.2,0.8-0.2
			c0.4,0,0.8,0.1,1.3,0.4l-0.4,1.1c-0.3-0.2-0.6-0.3-0.9-0.3c-0.3,0-0.5,0.1-0.7,0.2c-0.2,0.2-0.4,0.4-0.5,0.7
			c-0.1,0.4-0.2,0.9-0.2,1.4v3.8H24.2z"/>
		<path id="XMLID_579_" class="st1" d="M33.9,83.4l1.3,0.2c-0.2,0.7-0.6,1.3-1.1,1.7s-1.2,0.6-2.1,0.6c-1.1,0-1.9-0.3-2.5-1
			c-0.6-0.7-0.9-1.6-0.9-2.8c0-1.2,0.3-2.2,0.9-2.8s1.4-1,2.4-1c1,0,1.8,0.3,2.4,1s0.9,1.6,0.9,2.8c0,0.1,0,0.2,0,0.3h-5.4
			c0,0.8,0.3,1.4,0.7,1.8s0.9,0.6,1.5,0.6c0.5,0,0.8-0.1,1.2-0.4S33.7,83.9,33.9,83.4z M29.8,81.4h4.1c-0.1-0.6-0.2-1.1-0.5-1.4
			c-0.4-0.5-0.9-0.7-1.5-0.7c-0.6,0-1,0.2-1.4,0.6C30.1,80.3,29.9,80.8,29.8,81.4z"/>
		<path id="XMLID_582_" class="st1" d="M41.4,83.1l1.2,0.2c-0.1,0.8-0.5,1.5-1,2c-0.5,0.5-1.2,0.7-2,0.7c-1,0-1.8-0.3-2.4-1
			c-0.6-0.6-0.9-1.6-0.9-2.8c0-0.8,0.1-1.5,0.4-2.1s0.7-1,1.2-1.3c0.5-0.3,1.1-0.4,1.7-0.4c0.8,0,1.4,0.2,1.9,0.6
			c0.5,0.4,0.8,1,1,1.7l-1.2,0.2c-0.1-0.5-0.3-0.9-0.6-1.1c-0.3-0.2-0.6-0.4-1-0.4c-0.6,0-1.1,0.2-1.5,0.7c-0.4,0.4-0.6,1.1-0.6,2.1
			c0,1,0.2,1.7,0.6,2.1s0.9,0.7,1.5,0.7c0.5,0,0.9-0.1,1.2-0.4S41.4,83.7,41.4,83.1z"/>
		<path id="XMLID_584_" class="st1" d="M43.7,77.1v-1.4h1.2v1.4H43.7z M43.7,85.8v-7.3h1.2v7.3H43.7z"/>
		<path id="XMLID_587_" class="st1" d="M46.4,82.1c0-1.3,0.4-2.3,1.1-3c0.6-0.5,1.4-0.8,2.3-0.8c1,0,1.8,0.3,2.4,1
			c0.6,0.7,1,1.6,1,2.7c0,0.9-0.1,1.7-0.4,2.2c-0.3,0.5-0.7,1-1.2,1.2c-0.5,0.3-1.1,0.4-1.8,0.4c-1,0-1.8-0.3-2.5-1
			C46.7,84.3,46.4,83.4,46.4,82.1z M47.6,82.1c0,0.9,0.2,1.6,0.6,2.1c0.4,0.5,0.9,0.7,1.5,0.7c0.6,0,1.1-0.2,1.5-0.7
			s0.6-1.2,0.6-2.1c0-0.9-0.2-1.6-0.6-2c-0.4-0.5-0.9-0.7-1.5-0.7c-0.6,0-1.1,0.2-1.5,0.7S47.6,81.2,47.6,82.1z"/>
	</g>
	<g id="XMLID_443_">
		<path id="XMLID_444_" class="st1" d="M14.4,110.8v-2.7h-2.7v-1.1h2.7v-2.7h1.2v2.7h2.7v1.1h-2.7v2.7H14.4z"/>
		<path id="XMLID_446_" class="st1" d="M24.7,111.5c-0.5,0.4-0.9,0.7-1.3,0.8c-0.4,0.2-0.9,0.2-1.4,0.2c-0.8,0-1.4-0.2-1.8-0.6
			c-0.4-0.4-0.6-0.9-0.6-1.5c0-0.4,0.1-0.7,0.2-1c0.2-0.3,0.4-0.5,0.6-0.7c0.3-0.2,0.6-0.3,0.9-0.4c0.2-0.1,0.6-0.1,1.1-0.2
			c1-0.1,1.7-0.3,2.2-0.4c0-0.2,0-0.3,0-0.3c0-0.5-0.1-0.9-0.3-1.1c-0.3-0.3-0.8-0.4-1.4-0.4c-0.6,0-1,0.1-1.3,0.3
			c-0.3,0.2-0.5,0.6-0.6,1.1l-1.2-0.2c0.1-0.5,0.3-0.9,0.5-1.2c0.3-0.3,0.6-0.6,1.1-0.7c0.5-0.2,1-0.3,1.6-0.3
			c0.6,0,1.1,0.1,1.5,0.2s0.7,0.3,0.9,0.6c0.2,0.2,0.3,0.5,0.4,0.8c0,0.2,0.1,0.6,0.1,1.1v1.6c0,1.1,0,1.9,0.1,2.2
			c0.1,0.3,0.2,0.6,0.3,0.9H25C24.8,112.2,24.8,111.9,24.7,111.5z M24.6,108.8c-0.4,0.2-1.1,0.3-2,0.5c-0.5,0.1-0.9,0.2-1.1,0.2
			s-0.4,0.2-0.5,0.4c-0.1,0.2-0.2,0.4-0.2,0.6c0,0.3,0.1,0.6,0.4,0.8c0.2,0.2,0.6,0.3,1.1,0.3c0.5,0,0.9-0.1,1.3-0.3
			c0.4-0.2,0.6-0.5,0.8-0.9c0.1-0.3,0.2-0.7,0.2-1.2V108.8z"/>
		<path id="XMLID_449_" class="st1" d="M28.1,112.4v-6.3H27v-1h1.1v-0.8c0-0.5,0-0.8,0.1-1.1c0.1-0.3,0.3-0.6,0.6-0.8
			c0.3-0.2,0.7-0.3,1.3-0.3c0.3,0,0.7,0,1.1,0.1l-0.2,1.1c-0.3,0-0.5-0.1-0.7-0.1c-0.4,0-0.6,0.1-0.8,0.2s-0.2,0.5-0.2,0.9v0.7h1.4
			v1h-1.4v6.3H28.1z"/>
		<path id="XMLID_451_" class="st1" d="M31.7,103.8v-1.4h1.2v1.4H31.7z M31.7,112.4v-7.3h1.2v7.3H31.7z"/>
		<path id="XMLID_454_" class="st1" d="M34.8,112.4v-7.3h1.1v1c0.5-0.8,1.3-1.2,2.3-1.2c0.4,0,0.8,0.1,1.2,0.2
			c0.4,0.2,0.6,0.4,0.8,0.6s0.3,0.6,0.4,0.9c0,0.2,0.1,0.6,0.1,1.2v4.5h-1.2V108c0-0.5,0-0.9-0.1-1.1c-0.1-0.2-0.3-0.4-0.5-0.6
			c-0.2-0.1-0.5-0.2-0.9-0.2c-0.5,0-1,0.2-1.4,0.5c-0.4,0.3-0.6,1-0.6,1.9v4H34.8z"/>
		<path id="XMLID_456_" class="st1" d="M47.3,111.5c-0.5,0.4-0.9,0.7-1.3,0.8c-0.4,0.2-0.9,0.2-1.4,0.2c-0.8,0-1.4-0.2-1.8-0.6
			c-0.4-0.4-0.6-0.9-0.6-1.5c0-0.4,0.1-0.7,0.2-1c0.2-0.3,0.4-0.5,0.6-0.7c0.3-0.2,0.6-0.3,0.9-0.4c0.2-0.1,0.6-0.1,1.1-0.2
			c1-0.1,1.7-0.3,2.2-0.4c0-0.2,0-0.3,0-0.3c0-0.5-0.1-0.9-0.3-1.1c-0.3-0.3-0.8-0.4-1.4-0.4c-0.6,0-1,0.1-1.3,0.3
			c-0.3,0.2-0.5,0.6-0.6,1.1l-1.2-0.2c0.1-0.5,0.3-0.9,0.5-1.2c0.3-0.3,0.6-0.6,1.1-0.7c0.5-0.2,1-0.3,1.6-0.3
			c0.6,0,1.1,0.1,1.5,0.2s0.7,0.3,0.9,0.6c0.2,0.2,0.3,0.5,0.4,0.8c0,0.2,0.1,0.6,0.1,1.1v1.6c0,1.1,0,1.9,0.1,2.2
			c0.1,0.3,0.2,0.6,0.3,0.9h-1.3C47.4,112.2,47.3,111.9,47.3,111.5z M47.2,108.8c-0.4,0.2-1.1,0.3-2,0.5c-0.5,0.1-0.9,0.2-1.1,0.2
			s-0.4,0.2-0.5,0.4c-0.1,0.2-0.2,0.4-0.2,0.6c0,0.3,0.1,0.6,0.4,0.8c0.2,0.2,0.6,0.3,1.1,0.3c0.5,0,0.9-0.1,1.3-0.3
			c0.4-0.2,0.6-0.5,0.8-0.9c0.1-0.3,0.2-0.7,0.2-1.2V108.8z"/>
		<path id="XMLID_459_" class="st1" d="M50.3,112.4v-7.3h1.1v1.1c0.3-0.5,0.5-0.9,0.8-1c0.2-0.2,0.5-0.2,0.8-0.2
			c0.4,0,0.8,0.1,1.3,0.4l-0.4,1.1c-0.3-0.2-0.6-0.3-0.9-0.3c-0.3,0-0.5,0.1-0.7,0.2c-0.2,0.2-0.4,0.4-0.5,0.7
			c-0.1,0.4-0.2,0.9-0.2,1.4v3.8H50.3z"/>
		<path id="XMLID_461_" class="st1" d="M57.4,115.4c-0.7-0.9-1.3-1.9-1.7-3s-0.7-2.3-0.7-3.6c0-1.1,0.2-2.1,0.5-3.1
			c0.4-1.2,1-2.3,1.9-3.4h0.9c-0.6,0.9-0.9,1.6-1.1,2c-0.3,0.6-0.5,1.3-0.7,2c-0.2,0.9-0.3,1.7-0.3,2.6c0,2.2,0.7,4.4,2,6.6H57.4z"
			/>
		<path id="XMLID_463_" class="st1" d="M60.5,115.4h-0.9c1.4-2.2,2-4.4,2-6.6c0-0.9-0.1-1.7-0.3-2.5c-0.2-0.7-0.4-1.3-0.6-2
			c-0.2-0.4-0.5-1.1-1.1-2.1h0.9c0.9,1.1,1.5,2.3,1.9,3.4c0.4,1,0.5,2,0.5,3.1c0,1.2-0.2,2.4-0.7,3.6
			C61.7,113.5,61.1,114.5,60.5,115.4z"/>
		<path id="XMLID_465_" class="st1" d="M14.4,124.8v-2.7h-2.7v-1.1h2.7v-2.7h1.2v2.7h2.7v1.1h-2.7v2.7H14.4z"/>
		<path id="XMLID_467_" class="st1" d="M19.5,124.3l1.2-0.2c0.1,0.5,0.3,0.9,0.6,1.1c0.3,0.3,0.7,0.4,1.3,0.4c0.6,0,1-0.1,1.3-0.3
			c0.3-0.2,0.4-0.5,0.4-0.8c0-0.3-0.1-0.5-0.4-0.7c-0.2-0.1-0.6-0.2-1.3-0.4c-0.9-0.2-1.5-0.4-1.9-0.6c-0.3-0.2-0.6-0.4-0.8-0.7
			c-0.2-0.3-0.3-0.6-0.3-1c0-0.3,0.1-0.6,0.2-0.9c0.1-0.3,0.4-0.5,0.6-0.7c0.2-0.1,0.5-0.3,0.8-0.4c0.3-0.1,0.7-0.1,1.1-0.1
			c0.6,0,1.1,0.1,1.5,0.2c0.4,0.2,0.7,0.4,1,0.7c0.2,0.3,0.3,0.7,0.4,1.1l-1.2,0.2c-0.1-0.4-0.2-0.7-0.5-0.9
			c-0.3-0.2-0.6-0.3-1.1-0.3c-0.6,0-1,0.1-1.2,0.3s-0.4,0.4-0.4,0.7c0,0.2,0,0.3,0.2,0.4c0.1,0.1,0.3,0.2,0.5,0.3
			c0.1,0,0.5,0.2,1.1,0.3c0.9,0.2,1.5,0.4,1.8,0.6c0.3,0.1,0.6,0.4,0.8,0.6s0.3,0.6,0.3,1.1c0,0.4-0.1,0.8-0.4,1.2
			c-0.2,0.4-0.6,0.6-1,0.8c-0.5,0.2-1,0.3-1.5,0.3c-0.9,0-1.7-0.2-2.2-0.6C19.9,125.6,19.6,125,19.5,124.3z"/>
		<path id="XMLID_469_" class="st1" d="M26.5,122.8c0-1.3,0.4-2.3,1.1-3c0.6-0.5,1.4-0.8,2.3-0.8c1,0,1.8,0.3,2.4,1
			c0.6,0.7,1,1.6,1,2.7c0,0.9-0.1,1.7-0.4,2.2c-0.3,0.5-0.7,1-1.2,1.2c-0.5,0.3-1.1,0.4-1.8,0.4c-1,0-1.8-0.3-2.5-1
			C26.8,125,26.5,124,26.5,122.8z M27.8,122.8c0,0.9,0.2,1.6,0.6,2.1c0.4,0.5,0.9,0.7,1.5,0.7c0.6,0,1.1-0.2,1.5-0.7
			s0.6-1.2,0.6-2.1c0-0.9-0.2-1.6-0.6-2c-0.4-0.5-0.9-0.7-1.5-0.7c-0.6,0-1.1,0.2-1.5,0.7S27.8,121.9,27.8,122.8z"/>
		<path id="XMLID_472_" class="st1" d="M34.8,126.4v-7.3h1.1v1c0.5-0.8,1.3-1.2,2.3-1.2c0.4,0,0.8,0.1,1.2,0.2
			c0.4,0.2,0.6,0.4,0.8,0.6s0.3,0.6,0.4,0.9c0,0.2,0.1,0.6,0.1,1.2v4.5h-1.2V122c0-0.5,0-0.9-0.1-1.1c-0.1-0.2-0.3-0.4-0.5-0.6
			c-0.2-0.1-0.5-0.2-0.9-0.2c-0.5,0-1,0.2-1.4,0.5c-0.4,0.3-0.6,1-0.6,1.9v4H34.8z"/>
		<path id="XMLID_474_" class="st1" d="M47.3,125.5c-0.5,0.4-0.9,0.7-1.3,0.8c-0.4,0.2-0.9,0.2-1.4,0.2c-0.8,0-1.4-0.2-1.8-0.6
			c-0.4-0.4-0.6-0.9-0.6-1.5c0-0.4,0.1-0.7,0.2-1c0.2-0.3,0.4-0.5,0.6-0.7c0.3-0.2,0.6-0.3,0.9-0.4c0.2-0.1,0.6-0.1,1.1-0.2
			c1-0.1,1.7-0.3,2.2-0.4c0-0.2,0-0.3,0-0.3c0-0.5-0.1-0.9-0.3-1.1c-0.3-0.3-0.8-0.4-1.4-0.4c-0.6,0-1,0.1-1.3,0.3
			c-0.3,0.2-0.5,0.6-0.6,1.1l-1.2-0.2c0.1-0.5,0.3-0.9,0.5-1.2c0.3-0.3,0.6-0.6,1.1-0.7c0.5-0.2,1-0.3,1.6-0.3
			c0.6,0,1.1,0.1,1.5,0.2s0.7,0.3,0.9,0.6c0.2,0.2,0.3,0.5,0.4,0.8c0,0.2,0.1,0.6,0.1,1.1v1.6c0,1.1,0,1.9,0.1,2.2
			c0.1,0.3,0.2,0.6,0.3,0.9h-1.3C47.4,126.2,47.3,125.9,47.3,125.5z M47.2,122.8c-0.4,0.2-1.1,0.3-2,0.5c-0.5,0.1-0.9,0.2-1.1,0.2
			s-0.4,0.2-0.5,0.4c-0.1,0.2-0.2,0.4-0.2,0.6c0,0.3,0.1,0.6,0.4,0.8c0.2,0.2,0.6,0.3,1.1,0.3c0.5,0,0.9-0.1,1.3-0.3
			c0.4-0.2,0.6-0.5,0.8-0.9c0.1-0.3,0.2-0.7,0.2-1.2V122.8z"/>
		<path id="XMLID_477_" class="st1" d="M50.3,126.4v-7.3h1.1v1.1c0.3-0.5,0.5-0.9,0.8-1c0.2-0.2,0.5-0.2,0.8-0.2
			c0.4,0,0.8,0.1,1.3,0.4l-0.4,1.1c-0.3-0.2-0.6-0.3-0.9-0.3c-0.3,0-0.5,0.1-0.7,0.2c-0.2,0.2-0.4,0.4-0.5,0.7
			c-0.1,0.4-0.2,0.9-0.2,1.4v3.8H50.3z"/>
		<path id="XMLID_479_" class="st1" d="M57.4,129.4c-0.7-0.9-1.3-1.9-1.7-3s-0.7-2.3-0.7-3.6c0-1.1,0.2-2.1,0.5-3.1
			c0.4-1.2,1-2.3,1.9-3.4h0.9c-0.6,0.9-0.9,1.6-1.1,2c-0.3,0.6-0.5,1.3-0.7,2c-0.2,0.9-0.3,1.7-0.3,2.6c0,2.2,0.7,4.4,2,6.6H57.4z"
			/>
		<path id="XMLID_481_" class="st1" d="M60.5,129.4h-0.9c1.4-2.2,2-4.4,2-6.6c0-0.9-0.1-1.7-0.3-2.5c-0.2-0.7-0.4-1.3-0.6-2
			c-0.2-0.4-0.5-1.1-1.1-2.1h0.9c0.9,1.1,1.5,2.3,1.9,3.4c0.4,1,0.5,2,0.5,3.1c0,1.2-0.2,2.4-0.7,3.6
			C61.7,127.5,61.1,128.5,60.5,129.4z"/>
		<path id="XMLID_483_" class="st1" d="M14.4,138.8v-2.7h-2.7v-1.1h2.7v-2.7h1.2v2.7h2.7v1.1h-2.7v2.7H14.4z"/>
		<path id="XMLID_485_" class="st1" d="M24.7,137.8l1.2,0.2c-0.1,0.8-0.5,1.5-1,2c-0.5,0.5-1.2,0.7-2,0.7c-1,0-1.8-0.3-2.4-1
			c-0.6-0.6-0.9-1.6-0.9-2.8c0-0.8,0.1-1.5,0.4-2.1s0.7-1,1.2-1.3c0.5-0.3,1.1-0.4,1.7-0.4c0.8,0,1.4,0.2,1.9,0.6
			c0.5,0.4,0.8,1,1,1.7l-1.2,0.2c-0.1-0.5-0.3-0.9-0.6-1.1c-0.3-0.2-0.6-0.4-1-0.4c-0.6,0-1.1,0.2-1.5,0.7c-0.4,0.4-0.6,1.1-0.6,2.1
			c0,1,0.2,1.7,0.6,2.1s0.9,0.7,1.5,0.7c0.5,0,0.9-0.1,1.2-0.4S24.6,138.4,24.7,137.8z"/>
		<path id="XMLID_487_" class="st1" d="M31.7,139.5c-0.5,0.4-0.9,0.7-1.3,0.8c-0.4,0.2-0.9,0.2-1.4,0.2c-0.8,0-1.4-0.2-1.8-0.6
			c-0.4-0.4-0.6-0.9-0.6-1.5c0-0.4,0.1-0.7,0.2-1c0.2-0.3,0.4-0.5,0.6-0.7c0.3-0.2,0.6-0.3,0.9-0.4c0.2-0.1,0.6-0.1,1.1-0.2
			c1-0.1,1.7-0.3,2.2-0.4c0-0.2,0-0.3,0-0.3c0-0.5-0.1-0.9-0.3-1.1c-0.3-0.3-0.8-0.4-1.4-0.4c-0.6,0-1,0.1-1.3,0.3
			c-0.3,0.2-0.5,0.6-0.6,1.1l-1.2-0.2c0.1-0.5,0.3-0.9,0.5-1.2c0.3-0.3,0.6-0.6,1.1-0.7c0.5-0.2,1-0.3,1.6-0.3
			c0.6,0,1.1,0.1,1.5,0.2s0.7,0.3,0.9,0.6c0.2,0.2,0.3,0.5,0.4,0.8c0,0.2,0.1,0.6,0.1,1.1v1.6c0,1.1,0,1.9,0.1,2.2
			c0.1,0.3,0.2,0.6,0.3,0.9H32C31.8,140.2,31.8,139.9,31.7,139.5z M31.6,136.8c-0.4,0.2-1.1,0.3-2,0.5c-0.5,0.1-0.9,0.2-1.1,0.2
			s-0.4,0.2-0.5,0.4c-0.1,0.2-0.2,0.4-0.2,0.6c0,0.3,0.1,0.6,0.4,0.8c0.2,0.2,0.6,0.3,1.1,0.3c0.5,0,0.9-0.1,1.3-0.3
			c0.4-0.2,0.6-0.5,0.8-0.9c0.1-0.3,0.2-0.7,0.2-1.2V136.8z"/>
		<path id="XMLID_490_" class="st1" d="M34.7,140.4v-10H36v10H34.7z"/>
		<path id="XMLID_492_" class="st1" d="M37.9,131.8v-1.4h1.2v1.4H37.9z M37.9,140.4v-7.3h1.2v7.3H37.9z"/>
		<path id="XMLID_495_" class="st1" d="M42.1,140.4H41v-10h1.2v3.6c0.5-0.7,1.2-1,2-1c0.4,0,0.9,0.1,1.3,0.3c0.4,0.2,0.7,0.4,1,0.8
			c0.3,0.3,0.5,0.7,0.6,1.2s0.2,1,0.2,1.5c0,1.2-0.3,2.2-0.9,2.9s-1.4,1-2.2,1c-0.9,0-1.5-0.4-2-1.1V140.4z M42.1,136.7
			c0,0.9,0.1,1.5,0.4,1.9c0.4,0.6,0.9,1,1.6,1c0.5,0,1-0.2,1.4-0.7c0.4-0.5,0.6-1.2,0.6-2.1c0-0.9-0.2-1.6-0.6-2.1
			c-0.4-0.5-0.8-0.7-1.4-0.7c-0.5,0-1,0.2-1.4,0.7C42.3,135.2,42.1,135.9,42.1,136.7z"/>
		<path id="XMLID_498_" class="st1" d="M48.8,140.4v-7.3h1.1v1.1c0.3-0.5,0.5-0.9,0.8-1c0.2-0.2,0.5-0.2,0.8-0.2
			c0.4,0,0.8,0.1,1.3,0.4l-0.4,1.1c-0.3-0.2-0.6-0.3-0.9-0.3c-0.3,0-0.5,0.1-0.7,0.2c-0.2,0.2-0.4,0.4-0.5,0.7
			c-0.1,0.4-0.2,0.9-0.2,1.4v3.8H48.8z"/>
		<path id="XMLID_500_" class="st1" d="M58.2,139.5c-0.5,0.4-0.9,0.7-1.3,0.8c-0.4,0.2-0.9,0.2-1.4,0.2c-0.8,0-1.4-0.2-1.8-0.6
			c-0.4-0.4-0.6-0.9-0.6-1.5c0-0.4,0.1-0.7,0.2-1c0.2-0.3,0.4-0.5,0.6-0.7c0.3-0.2,0.6-0.3,0.9-0.4c0.2-0.1,0.6-0.1,1.1-0.2
			c1-0.1,1.7-0.3,2.2-0.4c0-0.2,0-0.3,0-0.3c0-0.5-0.1-0.9-0.3-1.1c-0.3-0.3-0.8-0.4-1.4-0.4c-0.6,0-1,0.1-1.3,0.3
			c-0.3,0.2-0.5,0.6-0.6,1.1l-1.2-0.2c0.1-0.5,0.3-0.9,0.5-1.2c0.3-0.3,0.6-0.6,1.1-0.7c0.5-0.2,1-0.3,1.6-0.3
			c0.6,0,1.1,0.1,1.5,0.2s0.7,0.3,0.9,0.6c0.2,0.2,0.3,0.5,0.4,0.8c0,0.2,0.1,0.6,0.1,1.1v1.6c0,1.1,0,1.9,0.1,2.2
			c0.1,0.3,0.2,0.6,0.3,0.9h-1.3C58.3,140.2,58.2,139.9,58.2,139.5z M58.1,136.8c-0.4,0.2-1.1,0.3-2,0.5c-0.5,0.1-0.9,0.2-1.1,0.2
			s-0.4,0.2-0.5,0.4c-0.1,0.2-0.2,0.4-0.2,0.6c0,0.3,0.1,0.6,0.4,0.8c0.2,0.2,0.6,0.3,1.1,0.3c0.5,0,0.9-0.1,1.3-0.3
			c0.4-0.2,0.6-0.5,0.8-0.9c0.1-0.3,0.2-0.7,0.2-1.2V136.8z"/>
		<path id="XMLID_503_" class="st1" d="M61.2,140.4v-7.3h1.1v1.1c0.3-0.5,0.5-0.9,0.8-1c0.2-0.2,0.5-0.2,0.8-0.2
			c0.4,0,0.8,0.1,1.3,0.4l-0.4,1.1c-0.3-0.2-0.6-0.3-0.9-0.3c-0.3,0-0.5,0.1-0.7,0.2c-0.2,0.2-0.4,0.4-0.5,0.7
			c-0.1,0.4-0.2,0.9-0.2,1.4v3.8H61.2z"/>
		<path id="XMLID_505_" class="st1" d="M68.2,143.4c-0.7-0.9-1.3-1.9-1.7-3s-0.7-2.3-0.7-3.6c0-1.1,0.2-2.1,0.5-3.1
			c0.4-1.2,1-2.3,1.9-3.4h0.9c-0.6,0.9-0.9,1.6-1.1,2c-0.3,0.6-0.5,1.3-0.7,2c-0.2,0.9-0.3,1.7-0.3,2.6c0,2.2,0.7,4.4,2,6.6H68.2z"
			/>
		<path id="XMLID_507_" class="st1" d="M71.4,143.4h-0.9c1.4-2.2,2-4.4,2-6.6c0-0.9-0.1-1.7-0.3-2.5c-0.2-0.7-0.4-1.3-0.6-2
			c-0.2-0.4-0.5-1.1-1.1-2.1h0.9c0.9,1.1,1.5,2.3,1.9,3.4c0.4,1,0.5,2,0.5,3.1c0,1.2-0.2,2.4-0.7,3.6
			C72.6,141.5,72,142.5,71.4,143.4z"/>
	</g>
	<line id="XMLID_1191_" class="st2" x1="3" y1="26.3" x2="147.5" y2="26.3"/>
	<line id="XMLID_1192_" class="st2" x1="3" y1="95.6" x2="147.5" y2="95.6"/>
	<g id="XMLID_400_">
		<path id="XMLID_401_" class="st1" d="M339.7,19.5v-10h6.8v1.2H341v3.1h4.7v1.2H341v4.6H339.7z"/>
		<path id="XMLID_403_" class="st1" d="M348,10.9V9.4h1.2v1.4H348z M348,19.5v-7.3h1.2v7.3H348z"/>
		<path id="XMLID_406_" class="st1" d="M350.9,20.1l1.2,0.2c0,0.4,0.2,0.6,0.4,0.8c0.3,0.2,0.7,0.3,1.3,0.3c0.6,0,1-0.1,1.3-0.3
			s0.5-0.5,0.6-1c0.1-0.3,0.1-0.8,0.1-1.6c-0.5,0.6-1.2,1-2,1c-1,0-1.8-0.4-2.3-1.1s-0.8-1.6-0.8-2.6c0-0.7,0.1-1.3,0.4-1.9
			c0.3-0.6,0.6-1,1.1-1.4c0.5-0.3,1-0.5,1.7-0.5c0.9,0,1.6,0.3,2.1,1v-0.9h1.1v6.3c0,1.1-0.1,1.9-0.3,2.4c-0.2,0.5-0.6,0.8-1.1,1.1
			c-0.5,0.3-1.1,0.4-1.8,0.4c-0.9,0-1.6-0.2-2.1-0.6C351.1,21.4,350.9,20.9,350.9,20.1z M351.9,15.7c0,1,0.2,1.6,0.6,2.1
			s0.9,0.7,1.4,0.7c0.6,0,1-0.2,1.4-0.7c0.4-0.4,0.6-1.1,0.6-2c0-0.9-0.2-1.6-0.6-2c-0.4-0.5-0.9-0.7-1.4-0.7c-0.5,0-1,0.2-1.4,0.7
			C352.1,14.2,351.9,14.8,351.9,15.7z"/>
		<path id="XMLID_409_" class="st1" d="M363.7,19.5v-1.1c-0.6,0.8-1.3,1.2-2.3,1.2c-0.4,0-0.8-0.1-1.2-0.2c-0.4-0.2-0.6-0.4-0.8-0.6
			c-0.2-0.2-0.3-0.6-0.4-0.9c0-0.2-0.1-0.6-0.1-1.1v-4.5h1.2v4c0,0.6,0,1.1,0.1,1.3c0.1,0.3,0.2,0.6,0.5,0.8
			c0.3,0.2,0.6,0.3,0.9,0.3s0.7-0.1,1-0.3c0.3-0.2,0.6-0.4,0.7-0.8c0.1-0.3,0.2-0.8,0.2-1.4v-3.9h1.2v7.3H363.7z"/>
		<path id="XMLID_411_" class="st1" d="M366.7,19.5v-7.3h1.1v1.1c0.3-0.5,0.5-0.9,0.8-1c0.2-0.2,0.5-0.2,0.8-0.2
			c0.4,0,0.8,0.1,1.3,0.4l-0.4,1.1c-0.3-0.2-0.6-0.3-0.9-0.3c-0.3,0-0.5,0.1-0.7,0.2c-0.2,0.2-0.4,0.4-0.5,0.7
			c-0.1,0.4-0.2,0.9-0.2,1.4v3.8H366.7z"/>
		<path id="XMLID_413_" class="st1" d="M376.1,18.6c-0.5,0.4-0.9,0.7-1.3,0.8c-0.4,0.2-0.9,0.2-1.4,0.2c-0.8,0-1.4-0.2-1.8-0.6
			c-0.4-0.4-0.6-0.9-0.6-1.5c0-0.4,0.1-0.7,0.2-1c0.2-0.3,0.4-0.5,0.6-0.7c0.3-0.2,0.6-0.3,0.9-0.4c0.2-0.1,0.6-0.1,1.1-0.2
			c1-0.1,1.7-0.3,2.2-0.4c0-0.2,0-0.3,0-0.3c0-0.5-0.1-0.9-0.3-1.1c-0.3-0.3-0.8-0.4-1.4-0.4c-0.6,0-1,0.1-1.3,0.3
			c-0.3,0.2-0.5,0.6-0.6,1.1l-1.2-0.2c0.1-0.5,0.3-0.9,0.5-1.2c0.3-0.3,0.6-0.6,1.1-0.7c0.5-0.2,1-0.3,1.6-0.3
			c0.6,0,1.1,0.1,1.5,0.2s0.7,0.3,0.9,0.6c0.2,0.2,0.3,0.5,0.4,0.8c0,0.2,0.1,0.6,0.1,1.1v1.6c0,1.1,0,1.9,0.1,2.2
			c0.1,0.3,0.2,0.6,0.3,0.9h-1.3C376.2,19.2,376.1,18.9,376.1,18.6z M376,15.8c-0.4,0.2-1.1,0.3-2,0.5c-0.5,0.1-0.9,0.2-1.1,0.2
			s-0.4,0.2-0.5,0.4c-0.1,0.2-0.2,0.4-0.2,0.6c0,0.3,0.1,0.6,0.4,0.8c0.2,0.2,0.6,0.3,1.1,0.3c0.5,0,0.9-0.1,1.3-0.3
			c0.4-0.2,0.6-0.5,0.8-0.9c0.1-0.3,0.2-0.7,0.2-1.2V15.8z"/>
		<path id="XMLID_416_" class="st1" d="M378.9,20.1l1.2,0.2c0,0.4,0.2,0.6,0.4,0.8c0.3,0.2,0.7,0.3,1.3,0.3c0.6,0,1-0.1,1.3-0.3
			s0.5-0.5,0.6-1c0.1-0.3,0.1-0.8,0.1-1.6c-0.5,0.6-1.2,1-2,1c-1,0-1.8-0.4-2.3-1.1s-0.8-1.6-0.8-2.6c0-0.7,0.1-1.3,0.4-1.9
			c0.3-0.6,0.6-1,1.1-1.4c0.5-0.3,1-0.5,1.7-0.5c0.9,0,1.6,0.3,2.1,1v-0.9h1.1v6.3c0,1.1-0.1,1.9-0.3,2.4c-0.2,0.5-0.6,0.8-1.1,1.1
			c-0.5,0.3-1.1,0.4-1.8,0.4c-0.9,0-1.6-0.2-2.1-0.6C379.2,21.4,378.9,20.9,378.9,20.1z M379.9,15.7c0,1,0.2,1.6,0.6,2.1
			s0.9,0.7,1.4,0.7c0.6,0,1-0.2,1.4-0.7c0.4-0.4,0.6-1.1,0.6-2c0-0.9-0.2-1.6-0.6-2c-0.4-0.5-0.9-0.7-1.4-0.7c-0.5,0-1,0.2-1.4,0.7
			C380.1,14.2,379.9,14.8,379.9,15.7z"/>
		<path id="XMLID_419_" class="st1" d="M391.9,17.1l1.3,0.2c-0.2,0.7-0.6,1.3-1.1,1.7s-1.2,0.6-2.1,0.6c-1.1,0-1.9-0.3-2.5-1
			c-0.6-0.7-0.9-1.6-0.9-2.8c0-1.2,0.3-2.2,0.9-2.8s1.4-1,2.4-1c1,0,1.8,0.3,2.4,1s0.9,1.6,0.9,2.8c0,0.1,0,0.2,0,0.3h-5.4
			c0,0.8,0.3,1.4,0.7,1.8s0.9,0.6,1.5,0.6c0.5,0,0.8-0.1,1.2-0.4S391.7,17.6,391.9,17.1z M387.9,15.1h4.1c-0.1-0.6-0.2-1.1-0.5-1.4
			c-0.4-0.5-0.9-0.7-1.5-0.7c-0.6,0-1,0.2-1.4,0.6C388.1,14,387.9,14.5,387.9,15.1z"/>
		<path id="XMLID_422_" class="st1" d="M394.3,15.8c0-1.3,0.4-2.3,1.1-3c0.6-0.5,1.4-0.8,2.3-0.8c1,0,1.8,0.3,2.4,1
			c0.6,0.7,1,1.6,1,2.7c0,0.9-0.1,1.7-0.4,2.2c-0.3,0.5-0.7,1-1.2,1.2c-0.5,0.3-1.1,0.4-1.8,0.4c-1,0-1.8-0.3-2.5-1
			C394.6,18,394.3,17.1,394.3,15.8z M395.5,15.8c0,0.9,0.2,1.6,0.6,2.1c0.4,0.5,0.9,0.7,1.5,0.7c0.6,0,1.1-0.2,1.5-0.7
			s0.6-1.2,0.6-2.1c0-0.9-0.2-1.6-0.6-2c-0.4-0.5-0.9-0.7-1.5-0.7c-0.6,0-1.1,0.2-1.5,0.7S395.5,14.9,395.5,15.8z"/>
		<path id="XMLID_425_" class="st1" d="M402.5,19.5v-7.3h1.1v1c0.2-0.4,0.5-0.6,0.9-0.9c0.4-0.2,0.8-0.3,1.3-0.3
			c0.5,0,1,0.1,1.3,0.3c0.3,0.2,0.6,0.5,0.7,0.9c0.6-0.8,1.3-1.3,2.2-1.3c0.7,0,1.3,0.2,1.7,0.6c0.4,0.4,0.6,1,0.6,1.8v5h-1.2v-4.6
			c0-0.5,0-0.8-0.1-1.1c-0.1-0.2-0.2-0.4-0.4-0.5s-0.5-0.2-0.7-0.2c-0.5,0-0.9,0.2-1.3,0.5c-0.3,0.3-0.5,0.9-0.5,1.6v4.2h-1.2v-4.7
			c0-0.5-0.1-1-0.3-1.2s-0.5-0.4-1-0.4c-0.3,0-0.7,0.1-1,0.3c-0.3,0.2-0.5,0.4-0.6,0.8s-0.2,0.9-0.2,1.5v3.8H402.5z"/>
		<path id="XMLID_427_" class="st1" d="M419.1,17.1l1.3,0.2c-0.2,0.7-0.6,1.3-1.1,1.7s-1.2,0.6-2.1,0.6c-1.1,0-1.9-0.3-2.5-1
			c-0.6-0.7-0.9-1.6-0.9-2.8c0-1.2,0.3-2.2,0.9-2.8s1.4-1,2.4-1c1,0,1.8,0.3,2.4,1s0.9,1.6,0.9,2.8c0,0.1,0,0.2,0,0.3H415
			c0,0.8,0.3,1.4,0.7,1.8s0.9,0.6,1.5,0.6c0.5,0,0.8-0.1,1.2-0.4S419,17.6,419.1,17.1z M415.1,15.1h4.1c-0.1-0.6-0.2-1.1-0.5-1.4
			c-0.4-0.5-0.9-0.7-1.5-0.7c-0.6,0-1,0.2-1.4,0.6C415.4,14,415.1,14.5,415.1,15.1z M416.4,11.3l0.9-1.9h1.6l-1.5,1.9H416.4z"/>
		<path id="XMLID_431_" class="st1" d="M424.6,18.4l0.2,1.1c-0.3,0.1-0.7,0.1-0.9,0.1c-0.4,0-0.8-0.1-1-0.2s-0.4-0.3-0.5-0.6
			c-0.1-0.2-0.2-0.7-0.2-1.5v-4.2h-0.9v-1h0.9v-1.8l1.2-0.7v2.5h1.2v1h-1.2v4.2c0,0.4,0,0.6,0.1,0.7c0,0.1,0.1,0.2,0.2,0.2
			c0.1,0.1,0.2,0.1,0.4,0.1C424.2,18.4,424.4,18.4,424.6,18.4z"/>
		<path id="XMLID_433_" class="st1" d="M425.8,19.5v-7.3h1.1v1.1c0.3-0.5,0.5-0.9,0.8-1c0.2-0.2,0.5-0.2,0.8-0.2
			c0.4,0,0.8,0.1,1.3,0.4l-0.4,1.1c-0.3-0.2-0.6-0.3-0.9-0.3c-0.3,0-0.5,0.1-0.7,0.2c-0.2,0.2-0.4,0.4-0.5,0.7
			c-0.1,0.4-0.2,0.9-0.2,1.4v3.8H425.8z"/>
		<path id="XMLID_435_" class="st1" d="M430.5,10.9V9.4h1.2v1.4H430.5z M430.5,19.5v-7.3h1.2v7.3H430.5z"/>
		<path id="XMLID_438_" class="st1" d="M438.4,16.8l1.2,0.2c-0.1,0.8-0.5,1.5-1,2c-0.5,0.5-1.2,0.7-2,0.7c-1,0-1.8-0.3-2.4-1
			c-0.6-0.6-0.9-1.6-0.9-2.8c0-0.8,0.1-1.5,0.4-2.1s0.7-1,1.2-1.3c0.5-0.3,1.1-0.4,1.7-0.4c0.8,0,1.4,0.2,1.9,0.6
			c0.5,0.4,0.8,1,1,1.7l-1.2,0.2c-0.1-0.5-0.3-0.9-0.6-1.1c-0.3-0.2-0.6-0.4-1-0.4c-0.6,0-1.1,0.2-1.5,0.7c-0.4,0.4-0.6,1.1-0.6,2.1
			c0,1,0.2,1.7,0.6,2.1s0.9,0.7,1.5,0.7c0.5,0,0.9-0.1,1.2-0.4S438.3,17.4,438.4,16.8z"/>
		<path id="XMLID_440_" class="st1" d="M445.4,18.6c-0.5,0.4-0.9,0.7-1.3,0.8c-0.4,0.2-0.9,0.2-1.4,0.2c-0.8,0-1.4-0.2-1.8-0.6
			c-0.4-0.4-0.6-0.9-0.6-1.5c0-0.4,0.1-0.7,0.2-1c0.2-0.3,0.4-0.5,0.6-0.7c0.3-0.2,0.6-0.3,0.9-0.4c0.2-0.1,0.6-0.1,1.1-0.2
			c1-0.1,1.7-0.3,2.2-0.4c0-0.2,0-0.3,0-0.3c0-0.5-0.1-0.9-0.3-1.1c-0.3-0.3-0.8-0.4-1.4-0.4c-0.6,0-1,0.1-1.3,0.3
			c-0.3,0.2-0.5,0.6-0.6,1.1l-1.2-0.2c0.1-0.5,0.3-0.9,0.5-1.2c0.3-0.3,0.6-0.6,1.1-0.7c0.5-0.2,1-0.3,1.6-0.3
			c0.6,0,1.1,0.1,1.5,0.2s0.7,0.3,0.9,0.6c0.2,0.2,0.3,0.5,0.4,0.8c0,0.2,0.1,0.6,0.1,1.1v1.6c0,1.1,0,1.9,0.1,2.2
			c0.1,0.3,0.2,0.6,0.3,0.9h-1.3C445.5,19.2,445.4,18.9,445.4,18.6z M445.3,15.8c-0.4,0.2-1.1,0.3-2,0.5c-0.5,0.1-0.9,0.2-1.1,0.2
			s-0.4,0.2-0.5,0.4c-0.1,0.2-0.2,0.4-0.2,0.6c0,0.3,0.1,0.6,0.4,0.8c0.2,0.2,0.6,0.3,1.1,0.3c0.5,0,0.9-0.1,1.3-0.3
			c0.4-0.2,0.6-0.5,0.8-0.9c0.1-0.3,0.2-0.7,0.2-1.2V15.8z"/>
	</g>
	<g id="XMLID_326_">
		<path id="XMLID_327_" class="st1" d="M332,42.1v-2.7h-2.7v-1.1h2.7v-2.7h1.2v2.7h2.7v1.1h-2.7v2.7H332z"/>
		<path id="XMLID_329_" class="st1" d="M337.6,43.8v-7.3h1.1v1c0.5-0.8,1.3-1.2,2.3-1.2c0.4,0,0.8,0.1,1.2,0.2
			c0.4,0.2,0.6,0.4,0.8,0.6s0.3,0.6,0.4,0.9c0,0.2,0.1,0.6,0.1,1.2v4.5h-1.2v-4.4c0-0.5,0-0.9-0.1-1.1c-0.1-0.2-0.3-0.4-0.5-0.6
			c-0.2-0.1-0.5-0.2-0.9-0.2c-0.5,0-1,0.2-1.4,0.5c-0.4,0.3-0.6,1-0.6,1.9v4H337.6z"/>
		<path id="XMLID_331_" class="st1" d="M344.9,40.1c0-1.3,0.4-2.3,1.1-3c0.6-0.5,1.4-0.8,2.3-0.8c1,0,1.8,0.3,2.4,1
			c0.6,0.7,1,1.6,1,2.7c0,0.9-0.1,1.7-0.4,2.2c-0.3,0.5-0.7,1-1.2,1.2c-0.5,0.3-1.1,0.4-1.8,0.4c-1,0-1.8-0.3-2.5-1
			C345.2,42.3,344.9,41.4,344.9,40.1z M346.2,40.1c0,0.9,0.2,1.6,0.6,2.1c0.4,0.5,0.9,0.7,1.5,0.7c0.6,0,1.1-0.2,1.5-0.7
			s0.6-1.2,0.6-2.1c0-0.9-0.2-1.6-0.6-2c-0.4-0.5-0.9-0.7-1.5-0.7c-0.6,0-1.1,0.2-1.5,0.7S346.2,39.2,346.2,40.1z"/>
		<path id="XMLID_334_" class="st1" d="M353.2,43.8v-7.3h1.1v1c0.2-0.4,0.5-0.6,0.9-0.9c0.4-0.2,0.8-0.3,1.3-0.3
			c0.5,0,1,0.1,1.3,0.3c0.3,0.2,0.6,0.5,0.7,0.9c0.6-0.8,1.3-1.3,2.2-1.3c0.7,0,1.3,0.2,1.7,0.6c0.4,0.4,0.6,1,0.6,1.8v5h-1.2v-4.6
			c0-0.5,0-0.8-0.1-1.1c-0.1-0.2-0.2-0.4-0.4-0.5s-0.5-0.2-0.7-0.2c-0.5,0-0.9,0.2-1.3,0.5c-0.3,0.3-0.5,0.9-0.5,1.6v4.2h-1.2V39
			c0-0.5-0.1-1-0.3-1.2s-0.5-0.4-1-0.4c-0.3,0-0.7,0.1-1,0.3c-0.3,0.2-0.5,0.4-0.6,0.8s-0.2,0.9-0.2,1.5v3.8H353.2z"/>
		<path id="XMLID_336_" class="st1" d="M366,43.8h-1.1v-10h1.2v3.6c0.5-0.7,1.2-1,2-1c0.4,0,0.9,0.1,1.3,0.3c0.4,0.2,0.7,0.4,1,0.8
			c0.3,0.3,0.5,0.7,0.6,1.2s0.2,1,0.2,1.5c0,1.2-0.3,2.2-0.9,2.9s-1.4,1-2.2,1c-0.9,0-1.5-0.4-2-1.1V43.8z M365.9,40.1
			c0,0.9,0.1,1.5,0.4,1.9c0.4,0.6,0.9,1,1.6,1c0.5,0,1-0.2,1.4-0.7c0.4-0.5,0.6-1.2,0.6-2.1c0-0.9-0.2-1.6-0.6-2.1
			c-0.4-0.5-0.8-0.7-1.4-0.7c-0.5,0-1,0.2-1.4,0.7C366.1,38.5,365.9,39.2,365.9,40.1z"/>
		<path id="XMLID_339_" class="st1" d="M372.6,43.8v-7.3h1.1v1.1c0.3-0.5,0.5-0.9,0.8-1c0.2-0.2,0.5-0.2,0.8-0.2
			c0.4,0,0.8,0.1,1.3,0.4l-0.4,1.1c-0.3-0.2-0.6-0.3-0.9-0.3c-0.3,0-0.5,0.1-0.7,0.2c-0.2,0.2-0.4,0.4-0.5,0.7
			c-0.1,0.4-0.2,0.9-0.2,1.4v3.8H372.6z"/>
		<path id="XMLID_341_" class="st1" d="M382.2,41.4l1.3,0.2c-0.2,0.7-0.6,1.3-1.1,1.7s-1.2,0.6-2.1,0.6c-1.1,0-1.9-0.3-2.5-1
			c-0.6-0.7-0.9-1.6-0.9-2.8c0-1.2,0.3-2.2,0.9-2.8s1.4-1,2.4-1c1,0,1.8,0.3,2.4,1s0.9,1.6,0.9,2.8c0,0.1,0,0.2,0,0.3h-5.4
			c0,0.8,0.3,1.4,0.7,1.8s0.9,0.6,1.5,0.6c0.5,0,0.8-0.1,1.2-0.4S382.1,41.9,382.2,41.4z M378.2,39.4h4.1c-0.1-0.6-0.2-1.1-0.5-1.4
			c-0.4-0.5-0.9-0.7-1.5-0.7c-0.6,0-1,0.2-1.4,0.6C378.5,38.3,378.2,38.8,378.2,39.4z"/>
		<path id="XMLID_344_" class="st1" d="M332,56.1v-2.7h-2.7v-1.1h2.7v-2.7h1.2v2.7h2.7v1.1h-2.7v2.7H332z"/>
		<path id="XMLID_346_" class="st1" d="M337.6,57.8v-7.3h1.1v1.1c0.3-0.5,0.5-0.9,0.8-1c0.2-0.2,0.5-0.2,0.8-0.2
			c0.4,0,0.8,0.1,1.3,0.4l-0.4,1.1c-0.3-0.2-0.6-0.3-0.9-0.3c-0.3,0-0.5,0.1-0.7,0.2c-0.2,0.2-0.4,0.4-0.5,0.7
			c-0.1,0.4-0.2,0.9-0.2,1.4v3.8H337.6z"/>
		<path id="XMLID_348_" class="st1" d="M347.2,55.4l1.3,0.2c-0.2,0.7-0.6,1.3-1.1,1.7s-1.2,0.6-2.1,0.6c-1.1,0-1.9-0.3-2.5-1
			c-0.6-0.7-0.9-1.6-0.9-2.8c0-1.2,0.3-2.2,0.9-2.8s1.4-1,2.4-1c1,0,1.8,0.3,2.4,1s0.9,1.6,0.9,2.8c0,0.1,0,0.2,0,0.3h-5.4
			c0,0.8,0.3,1.4,0.7,1.8s0.9,0.6,1.5,0.6c0.5,0,0.8-0.1,1.2-0.4S347,55.9,347.2,55.4z M343.2,53.4h4.1c-0.1-0.6-0.2-1.1-0.5-1.4
			c-0.4-0.5-0.9-0.7-1.5-0.7c-0.6,0-1,0.2-1.4,0.6C343.4,52.3,343.2,52.8,343.2,53.4z"/>
		<path id="XMLID_351_" class="st1" d="M350.3,57.8v-6.3h-1.1v-1h1.1v-0.8c0-0.5,0-0.8,0.1-1.1c0.1-0.3,0.3-0.6,0.6-0.8
			c0.3-0.2,0.7-0.3,1.3-0.3c0.3,0,0.7,0,1.1,0.1l-0.2,1.1c-0.3,0-0.5-0.1-0.7-0.1c-0.4,0-0.6,0.1-0.8,0.2s-0.2,0.5-0.2,0.9v0.7h1.4
			v1h-1.4v6.3H350.3z"/>
		<path id="XMLID_353_" class="st1" d="M358.9,55.4l1.3,0.2c-0.2,0.7-0.6,1.3-1.1,1.7s-1.2,0.6-2.1,0.6c-1.1,0-1.9-0.3-2.5-1
			c-0.6-0.7-0.9-1.6-0.9-2.8c0-1.2,0.3-2.2,0.9-2.8s1.4-1,2.4-1c1,0,1.8,0.3,2.4,1s0.9,1.6,0.9,2.8c0,0.1,0,0.2,0,0.3h-5.4
			c0,0.8,0.3,1.4,0.7,1.8s0.9,0.6,1.5,0.6c0.5,0,0.8-0.1,1.2-0.4S358.7,55.9,358.9,55.4z M354.9,53.4h4.1c-0.1-0.6-0.2-1.1-0.5-1.4
			c-0.4-0.5-0.9-0.7-1.5-0.7c-0.6,0-1,0.2-1.4,0.6C355.1,52.3,354.9,52.8,354.9,53.4z"/>
		<path id="XMLID_356_" class="st1" d="M361.7,57.8v-7.3h1.1v1.1c0.3-0.5,0.5-0.9,0.8-1c0.2-0.2,0.5-0.2,0.8-0.2
			c0.4,0,0.8,0.1,1.3,0.4l-0.4,1.1c-0.3-0.2-0.6-0.3-0.9-0.3c-0.3,0-0.5,0.1-0.7,0.2c-0.2,0.2-0.4,0.4-0.5,0.7
			c-0.1,0.4-0.2,0.9-0.2,1.4v3.8H361.7z"/>
		<path id="XMLID_358_" class="st1" d="M371.3,55.4l1.3,0.2c-0.2,0.7-0.6,1.3-1.1,1.7s-1.2,0.6-2.1,0.6c-1.1,0-1.9-0.3-2.5-1
			c-0.6-0.7-0.9-1.6-0.9-2.8c0-1.2,0.3-2.2,0.9-2.8s1.4-1,2.4-1c1,0,1.8,0.3,2.4,1s0.9,1.6,0.9,2.8c0,0.1,0,0.2,0,0.3h-5.4
			c0,0.8,0.3,1.4,0.7,1.8s0.9,0.6,1.5,0.6c0.5,0,0.8-0.1,1.2-0.4S371.2,55.9,371.3,55.4z M367.3,53.4h4.1c-0.1-0.6-0.2-1.1-0.5-1.4
			c-0.4-0.5-0.9-0.7-1.5-0.7c-0.6,0-1,0.2-1.4,0.6C367.6,52.3,367.3,52.8,367.3,53.4z"/>
		<path id="XMLID_361_" class="st1" d="M374.2,57.8v-7.3h1.1v1c0.5-0.8,1.3-1.2,2.3-1.2c0.4,0,0.8,0.1,1.2,0.2
			c0.4,0.2,0.6,0.4,0.8,0.6s0.3,0.6,0.4,0.9c0,0.2,0.1,0.6,0.1,1.2v4.5h-1.2v-4.4c0-0.5,0-0.9-0.1-1.1c-0.1-0.2-0.3-0.4-0.5-0.6
			c-0.2-0.1-0.5-0.2-0.9-0.2c-0.5,0-1,0.2-1.4,0.5c-0.4,0.3-0.6,1-0.6,1.9v4H374.2z"/>
		<path id="XMLID_363_" class="st1" d="M386.7,55.1l1.2,0.2c-0.1,0.8-0.5,1.5-1,2c-0.5,0.5-1.2,0.7-2,0.7c-1,0-1.8-0.3-2.4-1
			c-0.6-0.6-0.9-1.6-0.9-2.8c0-0.8,0.1-1.5,0.4-2.1s0.7-1,1.2-1.3c0.5-0.3,1.1-0.4,1.7-0.4c0.8,0,1.4,0.2,1.9,0.6
			c0.5,0.4,0.8,1,1,1.7l-1.2,0.2c-0.1-0.5-0.3-0.9-0.6-1.1c-0.3-0.2-0.6-0.4-1-0.4c-0.6,0-1.1,0.2-1.5,0.7c-0.4,0.4-0.6,1.1-0.6,2.1
			c0,1,0.2,1.7,0.6,2.1s0.9,0.7,1.5,0.7c0.5,0,0.9-0.1,1.2-0.4S386.6,55.7,386.7,55.1z"/>
		<path id="XMLID_365_" class="st1" d="M389,49.1v-1.4h1.2v1.4H389z M389,57.8v-7.3h1.2v7.3H389z"/>
		<path id="XMLID_368_" class="st1" d="M396.8,56.9c-0.5,0.4-0.9,0.7-1.3,0.8c-0.4,0.2-0.9,0.2-1.4,0.2c-0.8,0-1.4-0.2-1.8-0.6
			c-0.4-0.4-0.6-0.9-0.6-1.5c0-0.4,0.1-0.7,0.2-1c0.2-0.3,0.4-0.5,0.6-0.7c0.3-0.2,0.6-0.3,0.9-0.4c0.2-0.1,0.6-0.1,1.1-0.2
			c1-0.1,1.7-0.3,2.2-0.4c0-0.2,0-0.3,0-0.3c0-0.5-0.1-0.9-0.3-1.1c-0.3-0.3-0.8-0.4-1.4-0.4c-0.6,0-1,0.1-1.3,0.3
			c-0.3,0.2-0.5,0.6-0.6,1.1l-1.2-0.2c0.1-0.5,0.3-0.9,0.5-1.2c0.3-0.3,0.6-0.6,1.1-0.7c0.5-0.2,1-0.3,1.6-0.3
			c0.6,0,1.1,0.1,1.5,0.2s0.7,0.3,0.9,0.6c0.2,0.2,0.3,0.5,0.4,0.8c0,0.2,0.1,0.6,0.1,1.1v1.6c0,1.1,0,1.9,0.1,2.2
			c0.1,0.3,0.2,0.6,0.3,0.9H397C396.9,57.5,396.8,57.2,396.8,56.9z M396.7,54.1c-0.4,0.2-1.1,0.3-2,0.5c-0.5,0.1-0.9,0.2-1.1,0.2
			s-0.4,0.2-0.5,0.4c-0.1,0.2-0.2,0.4-0.2,0.6c0,0.3,0.1,0.6,0.4,0.8c0.2,0.2,0.6,0.3,1.1,0.3c0.5,0,0.9-0.1,1.3-0.3
			c0.4-0.2,0.6-0.5,0.8-0.9c0.1-0.3,0.2-0.7,0.2-1.2V54.1z"/>
		<path id="XMLID_371_" class="st1" d="M332,70.1v-2.7h-2.7v-1.1h2.7v-2.7h1.2v2.7h2.7v1.1h-2.7v2.7H332z"/>
		<path id="XMLID_373_" class="st1" d="M342.3,70.9c-0.5,0.4-0.9,0.7-1.3,0.8c-0.4,0.2-0.9,0.2-1.4,0.2c-0.8,0-1.4-0.2-1.8-0.6
			c-0.4-0.4-0.6-0.9-0.6-1.5c0-0.4,0.1-0.7,0.2-1c0.2-0.3,0.4-0.5,0.6-0.7c0.3-0.2,0.6-0.3,0.9-0.4c0.2-0.1,0.6-0.1,1.1-0.2
			c1-0.1,1.7-0.3,2.2-0.4c0-0.2,0-0.3,0-0.3c0-0.5-0.1-0.9-0.3-1.1c-0.3-0.3-0.8-0.4-1.4-0.4c-0.6,0-1,0.1-1.3,0.3
			c-0.3,0.2-0.5,0.6-0.6,1.1l-1.2-0.2c0.1-0.5,0.3-0.9,0.5-1.2c0.3-0.3,0.6-0.6,1.1-0.7c0.5-0.2,1-0.3,1.6-0.3
			c0.6,0,1.1,0.1,1.5,0.2s0.7,0.3,0.9,0.6c0.2,0.2,0.3,0.5,0.4,0.8c0,0.2,0.1,0.6,0.1,1.1v1.6c0,1.1,0,1.9,0.1,2.2
			c0.1,0.3,0.2,0.6,0.3,0.9h-1.3C342.4,71.5,342.4,71.2,342.3,70.9z M342.2,68.1c-0.4,0.2-1.1,0.3-2,0.5c-0.5,0.1-0.9,0.2-1.1,0.2
			s-0.4,0.2-0.5,0.4c-0.1,0.2-0.2,0.4-0.2,0.6c0,0.3,0.1,0.6,0.4,0.8c0.2,0.2,0.6,0.3,1.1,0.3c0.5,0,0.9-0.1,1.3-0.3
			c0.4-0.2,0.6-0.5,0.8-0.9c0.1-0.3,0.2-0.7,0.2-1.2V68.1z"/>
		<path id="XMLID_376_" class="st1" d="M345.4,71.8v-7.3h1.1v1.1c0.3-0.5,0.5-0.9,0.8-1c0.2-0.2,0.5-0.2,0.8-0.2
			c0.4,0,0.8,0.1,1.3,0.4l-0.4,1.1c-0.3-0.2-0.6-0.3-0.9-0.3c-0.3,0-0.5,0.1-0.7,0.2c-0.2,0.2-0.4,0.4-0.5,0.7
			c-0.1,0.4-0.2,0.9-0.2,1.4v3.8H345.4z"/>
		<path id="XMLID_378_" class="st1" d="M355,69.4l1.3,0.2c-0.2,0.7-0.6,1.3-1.1,1.7s-1.2,0.6-2.1,0.6c-1.1,0-1.9-0.3-2.5-1
			c-0.6-0.7-0.9-1.6-0.9-2.8c0-1.2,0.3-2.2,0.9-2.8s1.4-1,2.4-1c1,0,1.8,0.3,2.4,1s0.9,1.6,0.9,2.8c0,0.1,0,0.2,0,0.3h-5.4
			c0,0.8,0.3,1.4,0.7,1.8s0.9,0.6,1.5,0.6c0.5,0,0.8-0.1,1.2-0.4S354.8,69.9,355,69.4z M351,67.4h4.1c-0.1-0.6-0.2-1.1-0.5-1.4
			c-0.4-0.5-0.9-0.7-1.5-0.7c-0.6,0-1,0.2-1.4,0.6C351.2,66.3,351,66.8,351,67.4z"/>
		<path id="XMLID_381_" class="st1" d="M362.6,70.9c-0.5,0.4-0.9,0.7-1.3,0.8c-0.4,0.2-0.9,0.2-1.4,0.2c-0.8,0-1.4-0.2-1.8-0.6
			c-0.4-0.4-0.6-0.9-0.6-1.5c0-0.4,0.1-0.7,0.2-1c0.2-0.3,0.4-0.5,0.6-0.7c0.3-0.2,0.6-0.3,0.9-0.4c0.2-0.1,0.6-0.1,1.1-0.2
			c1-0.1,1.7-0.3,2.2-0.4c0-0.2,0-0.3,0-0.3c0-0.5-0.1-0.9-0.3-1.1c-0.3-0.3-0.8-0.4-1.4-0.4c-0.6,0-1,0.1-1.3,0.3
			c-0.3,0.2-0.5,0.6-0.6,1.1l-1.2-0.2c0.1-0.5,0.3-0.9,0.5-1.2c0.3-0.3,0.6-0.6,1.1-0.7c0.5-0.2,1-0.3,1.6-0.3
			c0.6,0,1.1,0.1,1.5,0.2s0.7,0.3,0.9,0.6c0.2,0.2,0.3,0.5,0.4,0.8c0,0.2,0.1,0.6,0.1,1.1v1.6c0,1.1,0,1.9,0.1,2.2
			c0.1,0.3,0.2,0.6,0.3,0.9h-1.3C362.7,71.5,362.6,71.2,362.6,70.9z M362.5,68.1c-0.4,0.2-1.1,0.3-2,0.5c-0.5,0.1-0.9,0.2-1.1,0.2
			s-0.4,0.2-0.5,0.4c-0.1,0.2-0.2,0.4-0.2,0.6c0,0.3,0.1,0.6,0.4,0.8c0.2,0.2,0.6,0.3,1.1,0.3c0.5,0,0.9-0.1,1.3-0.3
			c0.4-0.2,0.6-0.5,0.8-0.9c0.1-0.3,0.2-0.7,0.2-1.2V68.1z"/>
		<path id="XMLID_384_" class="st1" d="M332,84.1v-2.7h-2.7v-1.1h2.7v-2.7h1.2v2.7h2.7v1.1h-2.7v2.7H332z"/>
		<path id="XMLID_386_" class="st1" d="M339.6,85.8l-2.8-7.3h1.3l1.6,4.3c0.2,0.5,0.3,1,0.5,1.5c0.1-0.4,0.3-0.8,0.5-1.4l1.6-4.4
			h1.3l-2.7,7.3H339.6z"/>
		<path id="XMLID_388_" class="st1" d="M344.1,82.1c0-1.3,0.4-2.3,1.1-3c0.6-0.5,1.4-0.8,2.3-0.8c1,0,1.8,0.3,2.4,1
			c0.6,0.7,1,1.6,1,2.7c0,0.9-0.1,1.7-0.4,2.2c-0.3,0.5-0.7,1-1.2,1.2c-0.5,0.3-1.1,0.4-1.8,0.4c-1,0-1.8-0.3-2.5-1
			C344.4,84.3,344.1,83.4,344.1,82.1z M345.4,82.1c0,0.9,0.2,1.6,0.6,2.1c0.4,0.5,0.9,0.7,1.5,0.7c0.6,0,1.1-0.2,1.5-0.7
			s0.6-1.2,0.6-2.1c0-0.9-0.2-1.6-0.6-2c-0.4-0.5-0.9-0.7-1.5-0.7c-0.6,0-1.1,0.2-1.5,0.7S345.4,81.2,345.4,82.1z"/>
		<path id="XMLID_391_" class="st1" d="M352.3,85.8v-10h1.2v10H352.3z"/>
		<path id="XMLID_393_" class="st1" d="M360.2,85.8v-1.1c-0.6,0.8-1.3,1.2-2.3,1.2c-0.4,0-0.8-0.1-1.2-0.2c-0.4-0.2-0.6-0.4-0.8-0.6
			c-0.2-0.2-0.3-0.6-0.4-0.9c0-0.2-0.1-0.6-0.1-1.1v-4.5h1.2v4c0,0.6,0,1.1,0.1,1.3c0.1,0.3,0.2,0.6,0.5,0.8
			c0.3,0.2,0.6,0.3,0.9,0.3s0.7-0.1,1-0.3c0.3-0.2,0.6-0.4,0.7-0.8c0.1-0.3,0.2-0.8,0.2-1.4v-3.9h1.2v7.3H360.2z"/>
		<path id="XMLID_395_" class="st1" d="M363.3,85.8v-7.3h1.1v1c0.2-0.4,0.5-0.6,0.9-0.9c0.4-0.2,0.8-0.3,1.3-0.3
			c0.5,0,1,0.1,1.3,0.3c0.3,0.2,0.6,0.5,0.7,0.9c0.6-0.8,1.3-1.3,2.2-1.3c0.7,0,1.3,0.2,1.7,0.6c0.4,0.4,0.6,1,0.6,1.8v5h-1.2v-4.6
			c0-0.5,0-0.8-0.1-1.1c-0.1-0.2-0.2-0.4-0.4-0.5s-0.5-0.2-0.7-0.2c-0.5,0-0.9,0.2-1.3,0.5c-0.3,0.3-0.5,0.9-0.5,1.6v4.2h-1.2V81
			c0-0.5-0.1-1-0.3-1.2s-0.5-0.4-1-0.4c-0.3,0-0.7,0.1-1,0.3c-0.3,0.2-0.5,0.4-0.6,0.8s-0.2,0.9-0.2,1.5v3.8H363.3z"/>
		<path id="XMLID_397_" class="st1" d="M379.9,83.4l1.3,0.2c-0.2,0.7-0.6,1.3-1.1,1.7s-1.2,0.6-2.1,0.6c-1.1,0-1.9-0.3-2.5-1
			c-0.6-0.7-0.9-1.6-0.9-2.8c0-1.2,0.3-2.2,0.9-2.8s1.4-1,2.4-1c1,0,1.8,0.3,2.4,1s0.9,1.6,0.9,2.8c0,0.1,0,0.2,0,0.3h-5.4
			c0,0.8,0.3,1.4,0.7,1.8s0.9,0.6,1.5,0.6c0.5,0,0.8-0.1,1.2-0.4S379.7,83.9,379.9,83.4z M375.9,81.4h4.1c-0.1-0.6-0.2-1.1-0.5-1.4
			c-0.4-0.5-0.9-0.7-1.5-0.7c-0.6,0-1,0.2-1.4,0.6C376.1,80.3,375.9,80.8,375.9,81.4z"/>
	</g>
	<g id="XMLID_250_">
		<path id="XMLID_251_" class="st1" d="M332,110.8v-2.7h-2.7v-1.1h2.7v-2.7h1.2v2.7h2.7v1.1h-2.7v2.7H332z"/>
		<path id="XMLID_253_" class="st1" d="M342.3,109.8l1.2,0.2c-0.1,0.8-0.5,1.5-1,2c-0.5,0.5-1.2,0.7-2,0.7c-1,0-1.8-0.3-2.4-1
			c-0.6-0.6-0.9-1.6-0.9-2.8c0-0.8,0.1-1.5,0.4-2.1s0.7-1,1.2-1.3c0.5-0.3,1.1-0.4,1.7-0.4c0.8,0,1.4,0.2,1.9,0.6
			c0.5,0.4,0.8,1,1,1.7l-1.2,0.2c-0.1-0.5-0.3-0.9-0.6-1.1c-0.3-0.2-0.6-0.4-1-0.4c-0.6,0-1.1,0.2-1.5,0.7c-0.4,0.4-0.6,1.1-0.6,2.1
			c0,1,0.2,1.7,0.6,2.1s0.9,0.7,1.5,0.7c0.5,0,0.9-0.1,1.2-0.4S342.2,110.4,342.3,109.8z"/>
		<path id="XMLID_255_" class="st1" d="M349.3,111.5c-0.5,0.4-0.9,0.7-1.3,0.8c-0.4,0.2-0.9,0.2-1.4,0.2c-0.8,0-1.4-0.2-1.8-0.6
			c-0.4-0.4-0.6-0.9-0.6-1.5c0-0.4,0.1-0.7,0.2-1c0.2-0.3,0.4-0.5,0.6-0.7c0.3-0.2,0.6-0.3,0.9-0.4c0.2-0.1,0.6-0.1,1.1-0.2
			c1-0.1,1.7-0.3,2.2-0.4c0-0.2,0-0.3,0-0.3c0-0.5-0.1-0.9-0.3-1.1c-0.3-0.3-0.8-0.4-1.4-0.4c-0.6,0-1,0.1-1.3,0.3
			c-0.3,0.2-0.5,0.6-0.6,1.1l-1.2-0.2c0.1-0.5,0.3-0.9,0.5-1.2c0.3-0.3,0.6-0.6,1.1-0.7c0.5-0.2,1-0.3,1.6-0.3
			c0.6,0,1.1,0.1,1.5,0.2s0.7,0.3,0.9,0.6c0.2,0.2,0.3,0.5,0.4,0.8c0,0.2,0.1,0.6,0.1,1.1v1.6c0,1.1,0,1.9,0.1,2.2
			c0.1,0.3,0.2,0.6,0.3,0.9h-1.3C349.4,112.2,349.4,111.9,349.3,111.5z M349.2,108.8c-0.4,0.2-1.1,0.3-2,0.5
			c-0.5,0.1-0.9,0.2-1.1,0.2s-0.4,0.2-0.5,0.4c-0.1,0.2-0.2,0.4-0.2,0.6c0,0.3,0.1,0.6,0.4,0.8c0.2,0.2,0.6,0.3,1.1,0.3
			c0.5,0,0.9-0.1,1.3-0.3c0.4-0.2,0.6-0.5,0.8-0.9c0.1-0.3,0.2-0.7,0.2-1.2V108.8z"/>
		<path id="XMLID_258_" class="st1" d="M352.3,112.4v-10h1.2v10H352.3z"/>
		<path id="XMLID_260_" class="st1" d="M360.2,109.8l1.2,0.2c-0.1,0.8-0.5,1.5-1,2c-0.5,0.5-1.2,0.7-2,0.7c-1,0-1.8-0.3-2.4-1
			c-0.6-0.6-0.9-1.6-0.9-2.8c0-0.8,0.1-1.5,0.4-2.1s0.7-1,1.2-1.3c0.5-0.3,1.1-0.4,1.7-0.4c0.8,0,1.4,0.2,1.9,0.6
			c0.5,0.4,0.8,1,1,1.7l-1.2,0.2c-0.1-0.5-0.3-0.9-0.6-1.1c-0.3-0.2-0.6-0.4-1-0.4c-0.6,0-1.1,0.2-1.5,0.7c-0.4,0.4-0.6,1.1-0.6,2.1
			c0,1,0.2,1.7,0.6,2.1s0.9,0.7,1.5,0.7c0.5,0,0.9-0.1,1.2-0.4S360.1,110.4,360.2,109.8z"/>
		<path id="XMLID_262_" class="st1" d="M367.2,112.4v-1.1c-0.6,0.8-1.3,1.2-2.3,1.2c-0.4,0-0.8-0.1-1.2-0.2
			c-0.4-0.2-0.6-0.4-0.8-0.6c-0.2-0.2-0.3-0.6-0.4-0.9c0-0.2-0.1-0.6-0.1-1.1v-4.5h1.2v4c0,0.6,0,1.1,0.1,1.3
			c0.1,0.3,0.2,0.6,0.5,0.8c0.3,0.2,0.6,0.3,0.9,0.3s0.7-0.1,1-0.3c0.3-0.2,0.6-0.4,0.7-0.8c0.1-0.3,0.2-0.8,0.2-1.4v-3.9h1.2v7.3
			H367.2z"/>
		<path id="XMLID_264_" class="st1" d="M370.2,112.4v-10h1.2v10H370.2z"/>
		<path id="XMLID_266_" class="st1" d="M378.1,111.5c-0.5,0.4-0.9,0.7-1.3,0.8c-0.4,0.2-0.9,0.2-1.4,0.2c-0.8,0-1.4-0.2-1.8-0.6
			c-0.4-0.4-0.6-0.9-0.6-1.5c0-0.4,0.1-0.7,0.2-1c0.2-0.3,0.4-0.5,0.6-0.7c0.3-0.2,0.6-0.3,0.9-0.4c0.2-0.1,0.6-0.1,1.1-0.2
			c1-0.1,1.7-0.3,2.2-0.4c0-0.2,0-0.3,0-0.3c0-0.5-0.1-0.9-0.3-1.1c-0.3-0.3-0.8-0.4-1.4-0.4c-0.6,0-1,0.1-1.3,0.3
			c-0.3,0.2-0.5,0.6-0.6,1.1l-1.2-0.2c0.1-0.5,0.3-0.9,0.5-1.2c0.3-0.3,0.6-0.6,1.1-0.7c0.5-0.2,1-0.3,1.6-0.3
			c0.6,0,1.1,0.1,1.5,0.2s0.7,0.3,0.9,0.6c0.2,0.2,0.3,0.5,0.4,0.8c0,0.2,0.1,0.6,0.1,1.1v1.6c0,1.1,0,1.9,0.1,2.2
			c0.1,0.3,0.2,0.6,0.3,0.9h-1.3C378.2,112.2,378.2,111.9,378.1,111.5z M378,108.8c-0.4,0.2-1.1,0.3-2,0.5c-0.5,0.1-0.9,0.2-1.1,0.2
			s-0.4,0.2-0.5,0.4c-0.1,0.2-0.2,0.4-0.2,0.6c0,0.3,0.1,0.6,0.4,0.8c0.2,0.2,0.6,0.3,1.1,0.3c0.5,0,0.9-0.1,1.3-0.3
			c0.4-0.2,0.6-0.5,0.8-0.9c0.1-0.3,0.2-0.7,0.2-1.2V108.8z"/>
		<path id="XMLID_269_" class="st1" d="M381.2,112.4v-7.3h1.1v1.1c0.3-0.5,0.5-0.9,0.8-1c0.2-0.2,0.5-0.2,0.8-0.2
			c0.4,0,0.8,0.1,1.3,0.4l-0.4,1.1c-0.3-0.2-0.6-0.3-0.9-0.3c-0.3,0-0.5,0.1-0.7,0.2c-0.2,0.2-0.4,0.4-0.5,0.7
			c-0.1,0.4-0.2,0.9-0.2,1.4v3.8H381.2z"/>
		<path id="XMLID_271_" class="st1" d="M384.9,112.4l3.8-10h1.4l4.1,10h-1.5l-1.2-3h-4.2l-1.1,3H384.9z M387.8,108.3h3.4l-1-2.8
			c-0.3-0.8-0.6-1.5-0.7-2.1c-0.1,0.6-0.3,1.3-0.5,1.9L387.8,108.3z"/>
		<path id="XMLID_274_" class="st1" d="M395.2,112.4v-7.3h1.1v1.1c0.3-0.5,0.5-0.9,0.8-1c0.2-0.2,0.5-0.2,0.8-0.2
			c0.4,0,0.8,0.1,1.3,0.4l-0.4,1.1c-0.3-0.2-0.6-0.3-0.9-0.3c-0.3,0-0.5,0.1-0.7,0.2c-0.2,0.2-0.4,0.4-0.5,0.7
			c-0.1,0.4-0.2,0.9-0.2,1.4v3.8H395.2z"/>
		<path id="XMLID_276_" class="st1" d="M404.8,110.1l1.3,0.2c-0.2,0.7-0.6,1.3-1.1,1.7s-1.2,0.6-2.1,0.6c-1.1,0-1.9-0.3-2.5-1
			c-0.6-0.7-0.9-1.6-0.9-2.8c0-1.2,0.3-2.2,0.9-2.8s1.4-1,2.4-1c1,0,1.8,0.3,2.4,1s0.9,1.6,0.9,2.8c0,0.1,0,0.2,0,0.3h-5.4
			c0,0.8,0.3,1.4,0.7,1.8s0.9,0.6,1.5,0.6c0.5,0,0.8-0.1,1.2-0.4S404.6,110.6,404.8,110.1z M400.8,108.1h4.1
			c-0.1-0.6-0.2-1.1-0.5-1.4c-0.4-0.5-0.9-0.7-1.5-0.7c-0.6,0-1,0.2-1.4,0.6C401,107,400.8,107.5,400.8,108.1z"/>
		<path id="XMLID_279_" class="st1" d="M412.4,111.5c-0.5,0.4-0.9,0.7-1.3,0.8c-0.4,0.2-0.9,0.2-1.4,0.2c-0.8,0-1.4-0.2-1.8-0.6
			c-0.4-0.4-0.6-0.9-0.6-1.5c0-0.4,0.1-0.7,0.2-1c0.2-0.3,0.4-0.5,0.6-0.7c0.3-0.2,0.6-0.3,0.9-0.4c0.2-0.1,0.6-0.1,1.1-0.2
			c1-0.1,1.7-0.3,2.2-0.4c0-0.2,0-0.3,0-0.3c0-0.5-0.1-0.9-0.3-1.1c-0.3-0.3-0.8-0.4-1.4-0.4c-0.6,0-1,0.1-1.3,0.3
			c-0.3,0.2-0.5,0.6-0.6,1.1l-1.2-0.2c0.1-0.5,0.3-0.9,0.5-1.2c0.3-0.3,0.6-0.6,1.1-0.7c0.5-0.2,1-0.3,1.6-0.3
			c0.6,0,1.1,0.1,1.5,0.2s0.7,0.3,0.9,0.6c0.2,0.2,0.3,0.5,0.4,0.8c0,0.2,0.1,0.6,0.1,1.1v1.6c0,1.1,0,1.9,0.1,2.2
			c0.1,0.3,0.2,0.6,0.3,0.9h-1.3C412.5,112.2,412.4,111.9,412.4,111.5z M412.2,108.8c-0.4,0.2-1.1,0.3-2,0.5
			c-0.5,0.1-0.9,0.2-1.1,0.2s-0.4,0.2-0.5,0.4c-0.1,0.2-0.2,0.4-0.2,0.6c0,0.3,0.1,0.6,0.4,0.8c0.2,0.2,0.6,0.3,1.1,0.3
			c0.5,0,0.9-0.1,1.3-0.3c0.4-0.2,0.6-0.5,0.8-0.9c0.1-0.3,0.2-0.7,0.2-1.2V108.8z"/>
		<path id="XMLID_282_" class="st1" d="M417.8,115.4c-0.7-0.9-1.3-1.9-1.7-3s-0.7-2.3-0.7-3.6c0-1.1,0.2-2.1,0.5-3.1
			c0.4-1.2,1-2.3,1.9-3.4h0.9c-0.6,0.9-0.9,1.6-1.1,2c-0.3,0.6-0.5,1.3-0.7,2c-0.2,0.9-0.3,1.7-0.3,2.6c0,2.2,0.7,4.4,2,6.6H417.8z"
			/>
		<path id="XMLID_284_" class="st1" d="M420.9,115.4H420c1.4-2.2,2-4.4,2-6.6c0-0.9-0.1-1.7-0.3-2.5c-0.2-0.7-0.4-1.3-0.6-2
			c-0.2-0.4-0.5-1.1-1.1-2.1h0.9c0.9,1.1,1.5,2.3,1.9,3.4c0.4,1,0.5,2,0.5,3.1c0,1.2-0.2,2.4-0.7,3.6
			C422.1,113.5,421.5,114.5,420.9,115.4z"/>
		<path id="XMLID_286_" class="st1" d="M332,124.8v-2.7h-2.7v-1.1h2.7v-2.7h1.2v2.7h2.7v1.1h-2.7v2.7H332z"/>
		<path id="XMLID_288_" class="st1" d="M342.3,123.8l1.2,0.2c-0.1,0.8-0.5,1.5-1,2c-0.5,0.5-1.2,0.7-2,0.7c-1,0-1.8-0.3-2.4-1
			c-0.6-0.6-0.9-1.6-0.9-2.8c0-0.8,0.1-1.5,0.4-2.1s0.7-1,1.2-1.3c0.5-0.3,1.1-0.4,1.7-0.4c0.8,0,1.4,0.2,1.9,0.6
			c0.5,0.4,0.8,1,1,1.7l-1.2,0.2c-0.1-0.5-0.3-0.9-0.6-1.1c-0.3-0.2-0.6-0.4-1-0.4c-0.6,0-1.1,0.2-1.5,0.7c-0.4,0.4-0.6,1.1-0.6,2.1
			c0,1,0.2,1.7,0.6,2.1s0.9,0.7,1.5,0.7c0.5,0,0.9-0.1,1.2-0.4S342.2,124.4,342.3,123.8z"/>
		<path id="XMLID_290_" class="st1" d="M349.3,125.5c-0.5,0.4-0.9,0.7-1.3,0.8c-0.4,0.2-0.9,0.2-1.4,0.2c-0.8,0-1.4-0.2-1.8-0.6
			c-0.4-0.4-0.6-0.9-0.6-1.5c0-0.4,0.1-0.7,0.2-1c0.2-0.3,0.4-0.5,0.6-0.7c0.3-0.2,0.6-0.3,0.9-0.4c0.2-0.1,0.6-0.1,1.1-0.2
			c1-0.1,1.7-0.3,2.2-0.4c0-0.2,0-0.3,0-0.3c0-0.5-0.1-0.9-0.3-1.1c-0.3-0.3-0.8-0.4-1.4-0.4c-0.6,0-1,0.1-1.3,0.3
			c-0.3,0.2-0.5,0.6-0.6,1.1l-1.2-0.2c0.1-0.5,0.3-0.9,0.5-1.2c0.3-0.3,0.6-0.6,1.1-0.7c0.5-0.2,1-0.3,1.6-0.3
			c0.6,0,1.1,0.1,1.5,0.2s0.7,0.3,0.9,0.6c0.2,0.2,0.3,0.5,0.4,0.8c0,0.2,0.1,0.6,0.1,1.1v1.6c0,1.1,0,1.9,0.1,2.2
			c0.1,0.3,0.2,0.6,0.3,0.9h-1.3C349.4,126.2,349.4,125.9,349.3,125.5z M349.2,122.8c-0.4,0.2-1.1,0.3-2,0.5
			c-0.5,0.1-0.9,0.2-1.1,0.2s-0.4,0.2-0.5,0.4c-0.1,0.2-0.2,0.4-0.2,0.6c0,0.3,0.1,0.6,0.4,0.8c0.2,0.2,0.6,0.3,1.1,0.3
			c0.5,0,0.9-0.1,1.3-0.3c0.4-0.2,0.6-0.5,0.8-0.9c0.1-0.3,0.2-0.7,0.2-1.2V122.8z"/>
		<path id="XMLID_293_" class="st1" d="M352.3,126.4v-10h1.2v10H352.3z"/>
		<path id="XMLID_295_" class="st1" d="M360.2,123.8l1.2,0.2c-0.1,0.8-0.5,1.5-1,2c-0.5,0.5-1.2,0.7-2,0.7c-1,0-1.8-0.3-2.4-1
			c-0.6-0.6-0.9-1.6-0.9-2.8c0-0.8,0.1-1.5,0.4-2.1s0.7-1,1.2-1.3c0.5-0.3,1.1-0.4,1.7-0.4c0.8,0,1.4,0.2,1.9,0.6
			c0.5,0.4,0.8,1,1,1.7l-1.2,0.2c-0.1-0.5-0.3-0.9-0.6-1.1c-0.3-0.2-0.6-0.4-1-0.4c-0.6,0-1.1,0.2-1.5,0.7c-0.4,0.4-0.6,1.1-0.6,2.1
			c0,1,0.2,1.7,0.6,2.1s0.9,0.7,1.5,0.7c0.5,0,0.9-0.1,1.2-0.4S360.1,124.4,360.2,123.8z"/>
		<path id="XMLID_297_" class="st1" d="M367.2,126.4v-1.1c-0.6,0.8-1.3,1.2-2.3,1.2c-0.4,0-0.8-0.1-1.2-0.2
			c-0.4-0.2-0.6-0.4-0.8-0.6c-0.2-0.2-0.3-0.6-0.4-0.9c0-0.2-0.1-0.6-0.1-1.1v-4.5h1.2v4c0,0.6,0,1.1,0.1,1.3
			c0.1,0.3,0.2,0.6,0.5,0.8c0.3,0.2,0.6,0.3,0.9,0.3s0.7-0.1,1-0.3c0.3-0.2,0.6-0.4,0.7-0.8c0.1-0.3,0.2-0.8,0.2-1.4v-3.9h1.2v7.3
			H367.2z"/>
		<path id="XMLID_299_" class="st1" d="M370.2,126.4v-10h1.2v10H370.2z"/>
		<path id="XMLID_301_" class="st1" d="M378.1,125.5c-0.5,0.4-0.9,0.7-1.3,0.8c-0.4,0.2-0.9,0.2-1.4,0.2c-0.8,0-1.4-0.2-1.8-0.6
			c-0.4-0.4-0.6-0.9-0.6-1.5c0-0.4,0.1-0.7,0.2-1c0.2-0.3,0.4-0.5,0.6-0.7c0.3-0.2,0.6-0.3,0.9-0.4c0.2-0.1,0.6-0.1,1.1-0.2
			c1-0.1,1.7-0.3,2.2-0.4c0-0.2,0-0.3,0-0.3c0-0.5-0.1-0.9-0.3-1.1c-0.3-0.3-0.8-0.4-1.4-0.4c-0.6,0-1,0.1-1.3,0.3
			c-0.3,0.2-0.5,0.6-0.6,1.1l-1.2-0.2c0.1-0.5,0.3-0.9,0.5-1.2c0.3-0.3,0.6-0.6,1.1-0.7c0.5-0.2,1-0.3,1.6-0.3
			c0.6,0,1.1,0.1,1.5,0.2s0.7,0.3,0.9,0.6c0.2,0.2,0.3,0.5,0.4,0.8c0,0.2,0.1,0.6,0.1,1.1v1.6c0,1.1,0,1.9,0.1,2.2
			c0.1,0.3,0.2,0.6,0.3,0.9h-1.3C378.2,126.2,378.2,125.9,378.1,125.5z M378,122.8c-0.4,0.2-1.1,0.3-2,0.5c-0.5,0.1-0.9,0.2-1.1,0.2
			s-0.4,0.2-0.5,0.4c-0.1,0.2-0.2,0.4-0.2,0.6c0,0.3,0.1,0.6,0.4,0.8c0.2,0.2,0.6,0.3,1.1,0.3c0.5,0,0.9-0.1,1.3-0.3
			c0.4-0.2,0.6-0.5,0.8-0.9c0.1-0.3,0.2-0.7,0.2-1.2V122.8z"/>
		<path id="XMLID_304_" class="st1" d="M381.2,126.4v-7.3h1.1v1.1c0.3-0.5,0.5-0.9,0.8-1c0.2-0.2,0.5-0.2,0.8-0.2
			c0.4,0,0.8,0.1,1.3,0.4l-0.4,1.1c-0.3-0.2-0.6-0.3-0.9-0.3c-0.3,0-0.5,0.1-0.7,0.2c-0.2,0.2-0.4,0.4-0.5,0.7
			c-0.1,0.4-0.2,0.9-0.2,1.4v3.8H381.2z"/>
		<path id="XMLID_306_" class="st1" d="M388.8,126.4l-3.9-10h1.4l2.6,7.3c0.2,0.6,0.4,1.1,0.5,1.6c0.2-0.5,0.3-1.1,0.5-1.6l2.7-7.3
			h1.4l-3.9,10H388.8z"/>
		<path id="XMLID_308_" class="st1" d="M393.9,122.8c0-1.3,0.4-2.3,1.1-3c0.6-0.5,1.4-0.8,2.3-0.8c1,0,1.8,0.3,2.4,1
			c0.6,0.7,1,1.6,1,2.7c0,0.9-0.1,1.7-0.4,2.2c-0.3,0.5-0.7,1-1.2,1.2c-0.5,0.3-1.1,0.4-1.8,0.4c-1,0-1.8-0.3-2.5-1
			C394.2,125,393.9,124,393.9,122.8z M395.2,122.8c0,0.9,0.2,1.6,0.6,2.1c0.4,0.5,0.9,0.7,1.5,0.7c0.6,0,1.1-0.2,1.5-0.7
			s0.6-1.2,0.6-2.1c0-0.9-0.2-1.6-0.6-2c-0.4-0.5-0.9-0.7-1.5-0.7c-0.6,0-1.1,0.2-1.5,0.7S395.2,121.9,395.2,122.8z"/>
		<path id="XMLID_311_" class="st1" d="M402.2,126.4v-10h1.2v10H402.2z"/>
		<path id="XMLID_313_" class="st1" d="M410,126.4v-1.1c-0.6,0.8-1.3,1.2-2.3,1.2c-0.4,0-0.8-0.1-1.2-0.2c-0.4-0.2-0.6-0.4-0.8-0.6
			c-0.2-0.2-0.3-0.6-0.4-0.9c0-0.2-0.1-0.6-0.1-1.1v-4.5h1.2v4c0,0.6,0,1.1,0.1,1.3c0.1,0.3,0.2,0.6,0.5,0.8
			c0.3,0.2,0.6,0.3,0.9,0.3s0.7-0.1,1-0.3c0.3-0.2,0.6-0.4,0.7-0.8c0.1-0.3,0.2-0.8,0.2-1.4v-3.9h1.2v7.3H410z"/>
		<path id="XMLID_315_" class="st1" d="M413.1,126.4v-7.3h1.1v1c0.2-0.4,0.5-0.6,0.9-0.9c0.4-0.2,0.8-0.3,1.3-0.3
			c0.5,0,1,0.1,1.3,0.3c0.3,0.2,0.6,0.5,0.7,0.9c0.6-0.8,1.3-1.3,2.2-1.3c0.7,0,1.3,0.2,1.7,0.6c0.4,0.4,0.6,1,0.6,1.8v5h-1.2v-4.6
			c0-0.5,0-0.8-0.1-1.1c-0.1-0.2-0.2-0.4-0.4-0.5s-0.5-0.2-0.7-0.2c-0.5,0-0.9,0.2-1.3,0.5c-0.3,0.3-0.5,0.9-0.5,1.6v4.2h-1.2v-4.7
			c0-0.5-0.1-1-0.3-1.2s-0.5-0.4-1-0.4c-0.3,0-0.7,0.1-1,0.3c-0.3,0.2-0.5,0.4-0.6,0.8s-0.2,0.9-0.2,1.5v3.8H413.1z"/>
		<path id="XMLID_317_" class="st1" d="M429.7,124.1l1.3,0.2c-0.2,0.7-0.6,1.3-1.1,1.7s-1.2,0.6-2.1,0.6c-1.1,0-1.9-0.3-2.5-1
			c-0.6-0.7-0.9-1.6-0.9-2.8c0-1.2,0.3-2.2,0.9-2.8s1.4-1,2.4-1c1,0,1.8,0.3,2.4,1s0.9,1.6,0.9,2.8c0,0.1,0,0.2,0,0.3h-5.4
			c0,0.8,0.3,1.4,0.7,1.8s0.9,0.6,1.5,0.6c0.5,0,0.8-0.1,1.2-0.4S429.5,124.6,429.7,124.1z M425.7,122.1h4.1
			c-0.1-0.6-0.2-1.1-0.5-1.4c-0.4-0.5-0.9-0.7-1.5-0.7c-0.6,0-1,0.2-1.4,0.6C425.9,121,425.7,121.5,425.7,122.1z"/>
		<path id="XMLID_320_" class="st1" d="M432.5,126.4v-7.3h1.1v1c0.5-0.8,1.3-1.2,2.3-1.2c0.4,0,0.8,0.1,1.2,0.2
			c0.4,0.2,0.6,0.4,0.8,0.6s0.3,0.6,0.4,0.9c0,0.2,0.1,0.6,0.1,1.2v4.5h-1.2V122c0-0.5,0-0.9-0.1-1.1c-0.1-0.2-0.3-0.4-0.5-0.6
			c-0.2-0.1-0.5-0.2-0.9-0.2c-0.5,0-1,0.2-1.4,0.5c-0.4,0.3-0.6,1-0.6,1.9v4H432.5z"/>
		<path id="XMLID_322_" class="st1" d="M442.7,129.4c-0.7-0.9-1.3-1.9-1.7-3s-0.7-2.3-0.7-3.6c0-1.1,0.2-2.1,0.5-3.1
			c0.4-1.2,1-2.3,1.9-3.4h0.9c-0.6,0.9-0.9,1.6-1.1,2c-0.3,0.6-0.5,1.3-0.7,2c-0.2,0.9-0.3,1.7-0.3,2.6c0,2.2,0.7,4.4,2,6.6H442.7z"
			/>
		<path id="XMLID_324_" class="st1" d="M445.8,129.4h-0.9c1.4-2.2,2-4.4,2-6.6c0-0.9-0.1-1.7-0.3-2.5c-0.2-0.7-0.4-1.3-0.6-2
			c-0.2-0.4-0.5-1.1-1.1-2.1h0.9c0.9,1.1,1.5,2.3,1.9,3.4c0.4,1,0.5,2,0.5,3.1c0,1.2-0.2,2.4-0.7,3.6
			C447,127.5,446.5,128.5,445.8,129.4z"/>
	</g>
	<line id="XMLID_7278_" class="st2" x1="320.6" y1="26.3" x2="465.1" y2="26.3"/>
	<line id="XMLID_2615_" class="st2" x1="320.6" y1="95.6" x2="465.1" y2="95.6"/>
	<g id="XMLID_230_">
		<path id="XMLID_231_" class="st1" d="M211.5,19.5l-3.9-10h1.4l2.6,7.3c0.2,0.6,0.4,1.1,0.5,1.6c0.2-0.5,0.3-1.1,0.5-1.6l2.7-7.3
			h1.4l-3.9,10H211.5z"/>
		<path id="XMLID_233_" class="st1" d="M222,17.1l1.3,0.2c-0.2,0.7-0.6,1.3-1.1,1.7s-1.2,0.6-2.1,0.6c-1.1,0-1.9-0.3-2.5-1
			c-0.6-0.7-0.9-1.6-0.9-2.8c0-1.2,0.3-2.2,0.9-2.8s1.4-1,2.4-1c1,0,1.8,0.3,2.4,1s0.9,1.6,0.9,2.8c0,0.1,0,0.2,0,0.3h-5.4
			c0,0.8,0.3,1.4,0.7,1.8s0.9,0.6,1.5,0.6c0.5,0,0.8-0.1,1.2-0.4S221.9,17.6,222,17.1z M218,15.1h4.1c-0.1-0.6-0.2-1.1-0.5-1.4
			c-0.4-0.5-0.9-0.7-1.5-0.7c-0.6,0-1,0.2-1.4,0.6C218.3,14,218,14.5,218,15.1z"/>
		<path id="XMLID_236_" class="st1" d="M224.9,19.5v-10h1.2V13c0.6-0.7,1.3-1,2.2-1c0.5,0,1,0.1,1.4,0.3c0.4,0.2,0.7,0.5,0.9,0.9
			c0.2,0.4,0.3,0.9,0.3,1.6v4.6h-1.2v-4.6c0-0.6-0.1-1.1-0.4-1.3c-0.3-0.3-0.6-0.4-1.1-0.4c-0.4,0-0.7,0.1-1,0.3
			c-0.3,0.2-0.5,0.4-0.7,0.8s-0.2,0.8-0.2,1.3v4H224.9z"/>
		<path id="XMLID_238_" class="st1" d="M233,11.3l0.9-1.9h1.6l-1.5,1.9H233z M233.1,19.5v-7.3h1.2v7.3H233.1z"/>
		<path id="XMLID_241_" class="st1" d="M241.3,16.8l1.2,0.2c-0.1,0.8-0.5,1.5-1,2c-0.5,0.5-1.2,0.7-2,0.7c-1,0-1.8-0.3-2.4-1
			c-0.6-0.6-0.9-1.6-0.9-2.8c0-0.8,0.1-1.5,0.4-2.1s0.7-1,1.2-1.3c0.5-0.3,1.1-0.4,1.7-0.4c0.8,0,1.4,0.2,1.9,0.6
			c0.5,0.4,0.8,1,1,1.7l-1.2,0.2c-0.1-0.5-0.3-0.9-0.6-1.1c-0.3-0.2-0.6-0.4-1-0.4c-0.6,0-1.1,0.2-1.5,0.7c-0.4,0.4-0.6,1.1-0.6,2.1
			c0,1,0.2,1.7,0.6,2.1s0.9,0.7,1.5,0.7c0.5,0,0.9-0.1,1.2-0.4S241.2,17.4,241.3,16.8z"/>
		<path id="XMLID_243_" class="st1" d="M248.3,19.5v-1.1c-0.6,0.8-1.3,1.2-2.3,1.2c-0.4,0-0.8-0.1-1.2-0.2c-0.4-0.2-0.6-0.4-0.8-0.6
			c-0.2-0.2-0.3-0.6-0.4-0.9c0-0.2-0.1-0.6-0.1-1.1v-4.5h1.2v4c0,0.6,0,1.1,0.1,1.3c0.1,0.3,0.2,0.6,0.5,0.8
			c0.3,0.2,0.6,0.3,0.9,0.3s0.7-0.1,1-0.3c0.3-0.2,0.6-0.4,0.7-0.8c0.1-0.3,0.2-0.8,0.2-1.4v-3.9h1.2v7.3H248.3z"/>
		<path id="XMLID_245_" class="st1" d="M251.3,19.5v-10h1.2v10H251.3z"/>
		<path id="XMLID_247_" class="st1" d="M254,15.8c0-1.3,0.4-2.3,1.1-3c0.6-0.5,1.4-0.8,2.3-0.8c1,0,1.8,0.3,2.4,1
			c0.6,0.7,1,1.6,1,2.7c0,0.9-0.1,1.7-0.4,2.2c-0.3,0.5-0.7,1-1.2,1.2c-0.5,0.3-1.1,0.4-1.8,0.4c-1,0-1.8-0.3-2.5-1
			C254.3,18,254,17.1,254,15.8z M255.2,15.8c0,0.9,0.2,1.6,0.6,2.1c0.4,0.5,0.9,0.7,1.5,0.7c0.6,0,1.1-0.2,1.5-0.7s0.6-1.2,0.6-2.1
			c0-0.9-0.2-1.6-0.6-2c-0.4-0.5-0.9-0.7-1.5-0.7c-0.6,0-1.1,0.2-1.5,0.7S255.2,14.9,255.2,15.8z"/>
	</g>
	<g id="XMLID_125_">
		<path id="XMLID_126_" class="st1" d="M173.4,42.1v-2.7h-2.7v-1.1h2.7v-2.7h1.2v2.7h2.7v1.1h-2.7v2.7H173.4z"/>
		<path id="XMLID_128_" class="st1" d="M179,43.8v-7.3h1.1v1c0.2-0.4,0.5-0.6,0.9-0.9c0.4-0.2,0.8-0.3,1.3-0.3c0.5,0,1,0.1,1.3,0.3
			c0.3,0.2,0.6,0.5,0.7,0.9c0.6-0.8,1.3-1.3,2.2-1.3c0.7,0,1.3,0.2,1.7,0.6c0.4,0.4,0.6,1,0.6,1.8v5h-1.2v-4.6c0-0.5,0-0.8-0.1-1.1
			c-0.1-0.2-0.2-0.4-0.4-0.5s-0.5-0.2-0.7-0.2c-0.5,0-0.9,0.2-1.3,0.5c-0.3,0.3-0.5,0.9-0.5,1.6v4.2h-1.2V39c0-0.5-0.1-1-0.3-1.2
			s-0.5-0.4-1-0.4c-0.3,0-0.7,0.1-1,0.3c-0.3,0.2-0.5,0.4-0.6,0.8s-0.2,0.9-0.2,1.5v3.8H179z"/>
		<path id="XMLID_130_" class="st1" d="M190.2,40.1c0-1.3,0.4-2.3,1.1-3c0.6-0.5,1.4-0.8,2.3-0.8c1,0,1.8,0.3,2.4,1
			c0.6,0.7,1,1.6,1,2.7c0,0.9-0.1,1.7-0.4,2.2c-0.3,0.5-0.7,1-1.2,1.2c-0.5,0.3-1.1,0.4-1.8,0.4c-1,0-1.8-0.3-2.5-1
			C190.5,42.3,190.2,41.4,190.2,40.1z M191.5,40.1c0,0.9,0.2,1.6,0.6,2.1c0.4,0.5,0.9,0.7,1.5,0.7c0.6,0,1.1-0.2,1.5-0.7
			s0.6-1.2,0.6-2.1c0-0.9-0.2-1.6-0.6-2c-0.4-0.5-0.9-0.7-1.5-0.7c-0.6,0-1.1,0.2-1.5,0.7S191.5,39.2,191.5,40.1z"/>
		<path id="XMLID_133_" class="st1" d="M203.2,43.8v-0.9c-0.5,0.7-1.1,1.1-2,1.1c-0.6,0-1.1-0.2-1.6-0.5c-0.5-0.3-0.9-0.8-1.1-1.3
			c-0.3-0.6-0.4-1.2-0.4-2c0-0.7,0.1-1.4,0.4-2c0.2-0.6,0.6-1,1.1-1.4s1-0.5,1.6-0.5c0.4,0,0.8,0.1,1.2,0.3c0.3,0.2,0.6,0.4,0.8,0.7
			v-3.6h1.2v10H203.2z M199.3,40.1c0,0.9,0.2,1.6,0.6,2.1s0.9,0.7,1.4,0.7c0.5,0,1-0.2,1.4-0.7c0.4-0.4,0.6-1.1,0.6-2
			c0-1-0.2-1.7-0.6-2.2s-0.9-0.7-1.4-0.7c-0.5,0-1,0.2-1.4,0.7C199.5,38.5,199.3,39.2,199.3,40.1z"/>
		<path id="XMLID_136_" class="st1" d="M211.2,41.4l1.3,0.2c-0.2,0.7-0.6,1.3-1.1,1.7s-1.2,0.6-2.1,0.6c-1.1,0-1.9-0.3-2.5-1
			c-0.6-0.7-0.9-1.6-0.9-2.8c0-1.2,0.3-2.2,0.9-2.8s1.4-1,2.4-1c1,0,1.8,0.3,2.4,1s0.9,1.6,0.9,2.8c0,0.1,0,0.2,0,0.3h-5.4
			c0,0.8,0.3,1.4,0.7,1.8s0.9,0.6,1.5,0.6c0.5,0,0.8-0.1,1.2-0.4S211,41.9,211.2,41.4z M207.2,39.4h4.1c-0.1-0.6-0.2-1.1-0.5-1.4
			c-0.4-0.5-0.9-0.7-1.5-0.7c-0.6,0-1,0.2-1.4,0.6C207.4,38.3,207.2,38.8,207.2,39.4z"/>
		<path id="XMLID_139_" class="st1" d="M214,43.8v-10h1.2v10H214z"/>
		<path id="XMLID_141_" class="st1" d="M216.7,40.1c0-1.3,0.4-2.3,1.1-3c0.6-0.5,1.4-0.8,2.3-0.8c1,0,1.8,0.3,2.4,1
			c0.6,0.7,1,1.6,1,2.7c0,0.9-0.1,1.7-0.4,2.2c-0.3,0.5-0.7,1-1.2,1.2c-0.5,0.3-1.1,0.4-1.8,0.4c-1,0-1.8-0.3-2.5-1
			C217,42.3,216.7,41.4,216.7,40.1z M217.9,40.1c0,0.9,0.2,1.6,0.6,2.1c0.4,0.5,0.9,0.7,1.5,0.7c0.6,0,1.1-0.2,1.5-0.7
			s0.6-1.2,0.6-2.1c0-0.9-0.2-1.6-0.6-2c-0.4-0.5-0.9-0.7-1.5-0.7c-0.6,0-1.1,0.2-1.5,0.7S217.9,39.2,217.9,40.1z"/>
		<path id="XMLID_144_" class="st1" d="M173.4,56.1v-2.7h-2.7v-1.1h2.7v-2.7h1.2v2.7h2.7v1.1h-2.7v2.7H173.4z"/>
		<path id="XMLID_146_" class="st1" d="M179,57.8v-7.3h1.1v1c0.2-0.4,0.5-0.6,0.9-0.9c0.4-0.2,0.8-0.3,1.3-0.3c0.5,0,1,0.1,1.3,0.3
			c0.3,0.2,0.6,0.5,0.7,0.9c0.6-0.8,1.3-1.3,2.2-1.3c0.7,0,1.3,0.2,1.7,0.6c0.4,0.4,0.6,1,0.6,1.8v5h-1.2v-4.6c0-0.5,0-0.8-0.1-1.1
			c-0.1-0.2-0.2-0.4-0.4-0.5s-0.5-0.2-0.7-0.2c-0.5,0-0.9,0.2-1.3,0.5c-0.3,0.3-0.5,0.9-0.5,1.6v4.2h-1.2V53c0-0.5-0.1-1-0.3-1.2
			s-0.5-0.4-1-0.4c-0.3,0-0.7,0.1-1,0.3c-0.3,0.2-0.5,0.4-0.6,0.8s-0.2,0.9-0.2,1.5v3.8H179z"/>
		<path id="XMLID_148_" class="st1" d="M195.4,56.9c-0.5,0.4-0.9,0.7-1.3,0.8c-0.4,0.2-0.9,0.2-1.4,0.2c-0.8,0-1.4-0.2-1.8-0.6
			c-0.4-0.4-0.6-0.9-0.6-1.5c0-0.4,0.1-0.7,0.2-1c0.2-0.3,0.4-0.5,0.6-0.7c0.3-0.2,0.6-0.3,0.9-0.4c0.2-0.1,0.6-0.1,1.1-0.2
			c1-0.1,1.7-0.3,2.2-0.4c0-0.2,0-0.3,0-0.3c0-0.5-0.1-0.9-0.3-1.1c-0.3-0.3-0.8-0.4-1.4-0.4c-0.6,0-1,0.1-1.3,0.3
			c-0.3,0.2-0.5,0.6-0.6,1.1l-1.2-0.2c0.1-0.5,0.3-0.9,0.5-1.2c0.3-0.3,0.6-0.6,1.1-0.7c0.5-0.2,1-0.3,1.6-0.3
			c0.6,0,1.1,0.1,1.5,0.2s0.7,0.3,0.9,0.6c0.2,0.2,0.3,0.5,0.4,0.8c0,0.2,0.1,0.6,0.1,1.1v1.6c0,1.1,0,1.9,0.1,2.2
			c0.1,0.3,0.2,0.6,0.3,0.9h-1.3C195.5,57.5,195.4,57.2,195.4,56.9z M195.3,54.1c-0.4,0.2-1.1,0.3-2,0.5c-0.5,0.1-0.9,0.2-1.1,0.2
			s-0.4,0.2-0.5,0.4c-0.1,0.2-0.2,0.4-0.2,0.6c0,0.3,0.1,0.6,0.4,0.8c0.2,0.2,0.6,0.3,1.1,0.3c0.5,0,0.9-0.1,1.3-0.3
			c0.4-0.2,0.6-0.5,0.8-0.9c0.1-0.3,0.2-0.7,0.2-1.2V54.1z"/>
		<path id="XMLID_151_" class="st1" d="M198.4,57.8v-7.3h1.1v1.1c0.3-0.5,0.5-0.9,0.8-1c0.2-0.2,0.5-0.2,0.8-0.2
			c0.4,0,0.8,0.1,1.3,0.4l-0.4,1.1c-0.3-0.2-0.6-0.3-0.9-0.3c-0.3,0-0.5,0.1-0.7,0.2c-0.2,0.2-0.4,0.4-0.5,0.7
			c-0.1,0.4-0.2,0.9-0.2,1.4v3.8H198.4z"/>
		<path id="XMLID_153_" class="st1" d="M207.9,55.1l1.2,0.2c-0.1,0.8-0.5,1.5-1,2c-0.5,0.5-1.2,0.7-2,0.7c-1,0-1.8-0.3-2.4-1
			c-0.6-0.6-0.9-1.6-0.9-2.8c0-0.8,0.1-1.5,0.4-2.1s0.7-1,1.2-1.3c0.5-0.3,1.1-0.4,1.7-0.4c0.8,0,1.4,0.2,1.9,0.6
			c0.5,0.4,0.8,1,1,1.7l-1.2,0.2c-0.1-0.5-0.3-0.9-0.6-1.1c-0.3-0.2-0.6-0.4-1-0.4c-0.6,0-1.1,0.2-1.5,0.7c-0.4,0.4-0.6,1.1-0.6,2.1
			c0,1,0.2,1.7,0.6,2.1s0.9,0.7,1.5,0.7c0.5,0,0.9-0.1,1.2-0.4S207.8,55.7,207.9,55.1z"/>
		<path id="XMLID_155_" class="st1" d="M214.9,56.9c-0.5,0.4-0.9,0.7-1.3,0.8c-0.4,0.2-0.9,0.2-1.4,0.2c-0.8,0-1.4-0.2-1.8-0.6
			c-0.4-0.4-0.6-0.9-0.6-1.5c0-0.4,0.1-0.7,0.2-1c0.2-0.3,0.4-0.5,0.6-0.7c0.3-0.2,0.6-0.3,0.9-0.4c0.2-0.1,0.6-0.1,1.1-0.2
			c1-0.1,1.7-0.3,2.2-0.4c0-0.2,0-0.3,0-0.3c0-0.5-0.1-0.9-0.3-1.1c-0.3-0.3-0.8-0.4-1.4-0.4c-0.6,0-1,0.1-1.3,0.3
			c-0.3,0.2-0.5,0.6-0.6,1.1l-1.2-0.2c0.1-0.5,0.3-0.9,0.5-1.2c0.3-0.3,0.6-0.6,1.1-0.7c0.5-0.2,1-0.3,1.6-0.3
			c0.6,0,1.1,0.1,1.5,0.2s0.7,0.3,0.9,0.6c0.2,0.2,0.3,0.5,0.4,0.8c0,0.2,0.1,0.6,0.1,1.1v1.6c0,1.1,0,1.9,0.1,2.2
			c0.1,0.3,0.2,0.6,0.3,0.9h-1.3C215,57.5,214.9,57.2,214.9,56.9z M214.8,54.1c-0.4,0.2-1.1,0.3-2,0.5c-0.5,0.1-0.9,0.2-1.1,0.2
			s-0.4,0.2-0.5,0.4c-0.1,0.2-0.2,0.4-0.2,0.6c0,0.3,0.1,0.6,0.4,0.8c0.2,0.2,0.6,0.3,1.1,0.3c0.5,0,0.9-0.1,1.3-0.3
			c0.4-0.2,0.6-0.5,0.8-0.9c0.1-0.3,0.2-0.7,0.2-1.2V54.1z"/>
		<path id="XMLID_158_" class="st1" d="M173.4,70.1v-2.7h-2.7v-1.1h2.7v-2.7h1.2v2.7h2.7v1.1h-2.7v2.7H173.4z"/>
		<path id="XMLID_160_" class="st1" d="M183.7,69.1l1.2,0.2c-0.1,0.8-0.5,1.5-1,2c-0.5,0.5-1.2,0.7-2,0.7c-1,0-1.8-0.3-2.4-1
			c-0.6-0.6-0.9-1.6-0.9-2.8c0-0.8,0.1-1.5,0.4-2.1s0.7-1,1.2-1.3c0.5-0.3,1.1-0.4,1.7-0.4c0.8,0,1.4,0.2,1.9,0.6
			c0.5,0.4,0.8,1,1,1.7l-1.2,0.2c-0.1-0.5-0.3-0.9-0.6-1.1c-0.3-0.2-0.6-0.4-1-0.4c-0.6,0-1.1,0.2-1.5,0.7c-0.4,0.4-0.6,1.1-0.6,2.1
			c0,1,0.2,1.7,0.6,2.1s0.9,0.7,1.5,0.7c0.5,0,0.9-0.1,1.2-0.4S183.7,69.7,183.7,69.1z"/>
		<path id="XMLID_162_" class="st1" d="M186,63.1v-1.4h1.2v1.4H186z M186,71.8v-7.3h1.2v7.3H186z"/>
		<path id="XMLID_165_" class="st1" d="M189.1,71.8v-10h1.2v10H189.1z"/>
		<path id="XMLID_167_" class="st1" d="M192.2,63.1v-1.4h1.2v1.4H192.2z M192.2,71.8v-7.3h1.2v7.3H192.2z"/>
		<path id="XMLID_170_" class="st1" d="M195.3,71.8v-7.3h1.1v1c0.5-0.8,1.3-1.2,2.3-1.2c0.4,0,0.8,0.1,1.2,0.2
			c0.4,0.2,0.6,0.4,0.8,0.6s0.3,0.6,0.4,0.9c0,0.2,0.1,0.6,0.1,1.2v4.5H200v-4.4c0-0.5,0-0.9-0.1-1.1c-0.1-0.2-0.3-0.4-0.5-0.6
			c-0.2-0.1-0.5-0.2-0.9-0.2c-0.5,0-1,0.2-1.4,0.5c-0.4,0.3-0.6,1-0.6,1.9v4H195.3z"/>
		<path id="XMLID_172_" class="st1" d="M207.8,71.8v-0.9c-0.5,0.7-1.1,1.1-2,1.1c-0.6,0-1.1-0.2-1.6-0.5c-0.5-0.3-0.9-0.8-1.1-1.3
			c-0.3-0.6-0.4-1.2-0.4-2c0-0.7,0.1-1.4,0.4-2c0.2-0.6,0.6-1,1.1-1.4s1-0.5,1.6-0.5c0.4,0,0.8,0.1,1.2,0.3c0.3,0.2,0.6,0.4,0.8,0.7
			v-3.6h1.2v10H207.8z M203.9,68.1c0,0.9,0.2,1.6,0.6,2.1s0.9,0.7,1.4,0.7c0.5,0,1-0.2,1.4-0.7c0.4-0.4,0.6-1.1,0.6-2
			c0-1-0.2-1.7-0.6-2.2s-0.9-0.7-1.4-0.7c-0.5,0-1,0.2-1.4,0.7C204.1,66.5,203.9,67.2,203.9,68.1z"/>
		<path id="XMLID_175_" class="st1" d="M210.9,71.8v-7.3h1.1v1.1c0.3-0.5,0.5-0.9,0.8-1c0.2-0.2,0.5-0.2,0.8-0.2
			c0.4,0,0.8,0.1,1.3,0.4l-0.4,1.1c-0.3-0.2-0.6-0.3-0.9-0.3c-0.3,0-0.5,0.1-0.7,0.2c-0.2,0.2-0.4,0.4-0.5,0.7
			c-0.1,0.4-0.2,0.9-0.2,1.4v3.8H210.9z"/>
		<path id="XMLID_177_" class="st1" d="M220.3,70.9c-0.5,0.4-0.9,0.7-1.3,0.8c-0.4,0.2-0.9,0.2-1.4,0.2c-0.8,0-1.4-0.2-1.8-0.6
			c-0.4-0.4-0.6-0.9-0.6-1.5c0-0.4,0.1-0.7,0.2-1c0.2-0.3,0.4-0.5,0.6-0.7c0.3-0.2,0.6-0.3,0.9-0.4c0.2-0.1,0.6-0.1,1.1-0.2
			c1-0.1,1.7-0.3,2.2-0.4c0-0.2,0-0.3,0-0.3c0-0.5-0.1-0.9-0.3-1.1c-0.3-0.3-0.8-0.4-1.4-0.4c-0.6,0-1,0.1-1.3,0.3
			c-0.3,0.2-0.5,0.6-0.6,1.1l-1.2-0.2c0.1-0.5,0.3-0.9,0.5-1.2c0.3-0.3,0.6-0.6,1.1-0.7c0.5-0.2,1-0.3,1.6-0.3
			c0.6,0,1.1,0.1,1.5,0.2s0.7,0.3,0.9,0.6c0.2,0.2,0.3,0.5,0.4,0.8c0,0.2,0.1,0.6,0.1,1.1v1.6c0,1.1,0,1.9,0.1,2.2
			c0.1,0.3,0.2,0.6,0.3,0.9h-1.3C220.4,71.5,220.3,71.2,220.3,70.9z M220.2,68.1c-0.4,0.2-1.1,0.3-2,0.5c-0.5,0.1-0.9,0.2-1.1,0.2
			s-0.4,0.2-0.5,0.4c-0.1,0.2-0.2,0.4-0.2,0.6c0,0.3,0.1,0.6,0.4,0.8c0.2,0.2,0.6,0.3,1.1,0.3c0.5,0,0.9-0.1,1.3-0.3
			c0.4-0.2,0.6-0.5,0.8-0.9c0.1-0.3,0.2-0.7,0.2-1.2V68.1z"/>
		<path id="XMLID_180_" class="st1" d="M221.8,74.6l0.2-1c0.2,0.1,0.4,0.1,0.6,0.1c0.3,0,0.4-0.1,0.6-0.2c0.1-0.2,0.2-0.6,0.2-1.2
			v-7.6h1.2v7.7c0,0.9-0.1,1.5-0.3,1.9c-0.3,0.5-0.8,0.7-1.5,0.7C222.4,74.7,222.1,74.7,221.8,74.6z M223.4,63.2v-1.4h1.2v1.4H223.4
			z"/>
		<path id="XMLID_183_" class="st1" d="M231.4,69.4l1.3,0.2c-0.2,0.7-0.6,1.3-1.1,1.7s-1.2,0.6-2.1,0.6c-1.1,0-1.9-0.3-2.5-1
			c-0.6-0.7-0.9-1.6-0.9-2.8c0-1.2,0.3-2.2,0.9-2.8s1.4-1,2.4-1c1,0,1.8,0.3,2.4,1s0.9,1.6,0.9,2.8c0,0.1,0,0.2,0,0.3h-5.4
			c0,0.8,0.3,1.4,0.7,1.8s0.9,0.6,1.5,0.6c0.5,0,0.8-0.1,1.2-0.4S231.3,69.9,231.4,69.4z M227.4,67.4h4.1c-0.1-0.6-0.2-1.1-0.5-1.4
			c-0.4-0.5-0.9-0.7-1.5-0.7c-0.6,0-1,0.2-1.4,0.6C227.7,66.3,227.4,66.8,227.4,67.4z"/>
		<path id="XMLID_186_" class="st1" d="M173.4,84.1v-2.7h-2.7v-1.1h2.7v-2.7h1.2v2.7h2.7v1.1h-2.7v2.7H173.4z"/>
		<path id="XMLID_188_" class="st1" d="M179,85.8v-7.3h1.1v1c0.5-0.8,1.3-1.2,2.3-1.2c0.4,0,0.8,0.1,1.2,0.2
			c0.4,0.2,0.6,0.4,0.8,0.6s0.3,0.6,0.4,0.9c0,0.2,0.1,0.6,0.1,1.2v4.5h-1.2v-4.4c0-0.5,0-0.9-0.1-1.1c-0.1-0.2-0.3-0.4-0.5-0.6
			c-0.2-0.1-0.5-0.2-0.9-0.2c-0.5,0-1,0.2-1.4,0.5c-0.4,0.3-0.6,1-0.6,1.9v4H179z"/>
		<path id="XMLID_190_" class="st1" d="M186.8,85.8v-7.3h1.1v1.1c0.3-0.5,0.5-0.9,0.8-1c0.2-0.2,0.5-0.2,0.8-0.2
			c0.4,0,0.8,0.1,1.3,0.4l-0.4,1.1c-0.3-0.2-0.6-0.3-0.9-0.3c-0.3,0-0.5,0.1-0.7,0.2c-0.2,0.2-0.4,0.4-0.5,0.7
			c-0.1,0.4-0.2,0.9-0.2,1.4v3.8H186.8z"/>
		<path id="XMLID_192_" class="st1" d="M191,82.1c0-1.3,0.4-2.3,1.1-3c0.6-0.5,1.4-0.8,2.3-0.8c1,0,1.8,0.3,2.4,1
			c0.6,0.7,1,1.6,1,2.7c0,0.9-0.1,1.7-0.4,2.2c-0.3,0.5-0.7,1-1.2,1.2c-0.5,0.3-1.1,0.4-1.8,0.4c-1,0-1.8-0.3-2.5-1
			C191.3,84.3,191,83.4,191,82.1z M192.3,82.1c0,0.9,0.2,1.6,0.6,2.1c0.4,0.5,0.9,0.7,1.5,0.7c0.6,0,1.1-0.2,1.5-0.7
			s0.6-1.2,0.6-2.1c0-0.9-0.2-1.6-0.6-2c-0.4-0.5-0.9-0.7-1.5-0.7c-0.6,0-1.1,0.2-1.5,0.7S192.3,81.2,192.3,82.1z"/>
		<path id="XMLID_195_" class="st1" d="M203.1,85.8v-7.3h1.1v1c0.2-0.4,0.5-0.6,0.9-0.9c0.4-0.2,0.8-0.3,1.3-0.3
			c0.5,0,1,0.1,1.3,0.3c0.3,0.2,0.6,0.5,0.7,0.9c0.6-0.8,1.3-1.3,2.2-1.3c0.7,0,1.3,0.2,1.7,0.6c0.4,0.4,0.6,1,0.6,1.8v5h-1.2v-4.6
			c0-0.5,0-0.8-0.1-1.1c-0.1-0.2-0.2-0.4-0.4-0.5s-0.5-0.2-0.7-0.2c-0.5,0-0.9,0.2-1.3,0.5c-0.3,0.3-0.5,0.9-0.5,1.6v4.2h-1.2V81
			c0-0.5-0.1-1-0.3-1.2s-0.5-0.4-1-0.4c-0.3,0-0.7,0.1-1,0.3c-0.3,0.2-0.5,0.4-0.6,0.8s-0.2,0.9-0.2,1.5v3.8H203.1z"/>
		<path id="XMLID_197_" class="st1" d="M219.5,84.9c-0.5,0.4-0.9,0.7-1.3,0.8c-0.4,0.2-0.9,0.2-1.4,0.2c-0.8,0-1.4-0.2-1.8-0.6
			c-0.4-0.4-0.6-0.9-0.6-1.5c0-0.4,0.1-0.7,0.2-1c0.2-0.3,0.4-0.5,0.6-0.7c0.3-0.2,0.6-0.3,0.9-0.4c0.2-0.1,0.6-0.1,1.1-0.2
			c1-0.1,1.7-0.3,2.2-0.4c0-0.2,0-0.3,0-0.3c0-0.5-0.1-0.9-0.3-1.1c-0.3-0.3-0.8-0.4-1.4-0.4c-0.6,0-1,0.1-1.3,0.3
			c-0.3,0.2-0.5,0.6-0.6,1.1l-1.2-0.2c0.1-0.5,0.3-0.9,0.5-1.2c0.3-0.3,0.6-0.6,1.1-0.7c0.5-0.2,1-0.3,1.6-0.3
			c0.6,0,1.1,0.1,1.5,0.2s0.7,0.3,0.9,0.6c0.2,0.2,0.3,0.5,0.4,0.8c0,0.2,0.1,0.6,0.1,1.1v1.6c0,1.1,0,1.9,0.1,2.2
			c0.1,0.3,0.2,0.6,0.3,0.9h-1.3C219.6,85.5,219.6,85.2,219.5,84.9z M219.4,82.1c-0.4,0.2-1.1,0.3-2,0.5c-0.5,0.1-0.9,0.2-1.1,0.2
			s-0.4,0.2-0.5,0.4c-0.1,0.2-0.2,0.4-0.2,0.6c0,0.3,0.1,0.6,0.4,0.8c0.2,0.2,0.6,0.3,1.1,0.3c0.5,0,0.9-0.1,1.3-0.3
			c0.4-0.2,0.6-0.5,0.8-0.9c0.1-0.3,0.2-0.7,0.2-1.2V82.1z"/>
		<path id="XMLID_200_" class="st1" d="M225.3,84.7l0.2,1.1c-0.3,0.1-0.7,0.1-0.9,0.1c-0.4,0-0.8-0.1-1-0.2s-0.4-0.3-0.5-0.6
			c-0.1-0.2-0.2-0.7-0.2-1.5v-4.2h-0.9v-1h0.9v-1.8L224,76v2.5h1.2v1H224v4.2c0,0.4,0,0.6,0.1,0.7c0,0.1,0.1,0.2,0.2,0.2
			c0.1,0.1,0.2,0.1,0.4,0.1C224.9,84.7,225,84.7,225.3,84.7z"/>
		<path id="XMLID_202_" class="st1" d="M226.5,85.8v-7.3h1.1v1.1c0.3-0.5,0.5-0.9,0.8-1c0.2-0.2,0.5-0.2,0.8-0.2
			c0.4,0,0.8,0.1,1.3,0.4l-0.4,1.1c-0.3-0.2-0.6-0.3-0.9-0.3c-0.3,0-0.5,0.1-0.7,0.2c-0.2,0.2-0.4,0.4-0.5,0.7
			c-0.1,0.4-0.2,0.9-0.2,1.4v3.8H226.5z"/>
		<path id="XMLID_204_" class="st1" d="M231.1,77.1v-1.4h1.2v1.4H231.1z M231.1,85.8v-7.3h1.2v7.3H231.1z"/>
		<path id="XMLID_207_" class="st1" d="M239,83.1l1.2,0.2c-0.1,0.8-0.5,1.5-1,2c-0.5,0.5-1.2,0.7-2,0.7c-1,0-1.8-0.3-2.4-1
			c-0.6-0.6-0.9-1.6-0.9-2.8c0-0.8,0.1-1.5,0.4-2.1s0.7-1,1.2-1.3c0.5-0.3,1.1-0.4,1.7-0.4c0.8,0,1.4,0.2,1.9,0.6
			c0.5,0.4,0.8,1,1,1.7l-1.2,0.2c-0.1-0.5-0.3-0.9-0.6-1.1c-0.3-0.2-0.6-0.4-1-0.4c-0.6,0-1.1,0.2-1.5,0.7c-0.4,0.4-0.6,1.1-0.6,2.1
			c0,1,0.2,1.7,0.6,2.1s0.9,0.7,1.5,0.7c0.5,0,0.9-0.1,1.2-0.4S238.9,83.7,239,83.1z"/>
		<path id="XMLID_209_" class="st1" d="M246,85.8v-1.1c-0.6,0.8-1.3,1.2-2.3,1.2c-0.4,0-0.8-0.1-1.2-0.2c-0.4-0.2-0.6-0.4-0.8-0.6
			c-0.2-0.2-0.3-0.6-0.4-0.9c0-0.2-0.1-0.6-0.1-1.1v-4.5h1.2v4c0,0.6,0,1.1,0.1,1.3c0.1,0.3,0.2,0.6,0.5,0.8
			c0.3,0.2,0.6,0.3,0.9,0.3s0.7-0.1,1-0.3c0.3-0.2,0.6-0.4,0.7-0.8c0.1-0.3,0.2-0.8,0.2-1.4v-3.9h1.2v7.3H246z"/>
		<path id="XMLID_211_" class="st1" d="M249,85.8v-10h1.2v10H249z"/>
		<path id="XMLID_213_" class="st1" d="M256.9,84.9c-0.5,0.4-0.9,0.7-1.3,0.8c-0.4,0.2-0.9,0.2-1.4,0.2c-0.8,0-1.4-0.2-1.8-0.6
			c-0.4-0.4-0.6-0.9-0.6-1.5c0-0.4,0.1-0.7,0.2-1c0.2-0.3,0.4-0.5,0.6-0.7c0.3-0.2,0.6-0.3,0.9-0.4c0.2-0.1,0.6-0.1,1.1-0.2
			c1-0.1,1.7-0.3,2.2-0.4c0-0.2,0-0.3,0-0.3c0-0.5-0.1-0.9-0.3-1.1c-0.3-0.3-0.8-0.4-1.4-0.4c-0.6,0-1,0.1-1.3,0.3
			c-0.3,0.2-0.5,0.6-0.6,1.1l-1.2-0.2c0.1-0.5,0.3-0.9,0.5-1.2c0.3-0.3,0.6-0.6,1.1-0.7c0.5-0.2,1-0.3,1.6-0.3
			c0.6,0,1.1,0.1,1.5,0.2s0.7,0.3,0.9,0.6c0.2,0.2,0.3,0.5,0.4,0.8c0,0.2,0.1,0.6,0.1,1.1v1.6c0,1.1,0,1.9,0.1,2.2
			c0.1,0.3,0.2,0.6,0.3,0.9h-1.3C257,85.5,256.9,85.2,256.9,84.9z M256.8,82.1c-0.4,0.2-1.1,0.3-2,0.5c-0.5,0.1-0.9,0.2-1.1,0.2
			s-0.4,0.2-0.5,0.4c-0.1,0.2-0.2,0.4-0.2,0.6c0,0.3,0.1,0.6,0.4,0.8c0.2,0.2,0.6,0.3,1.1,0.3c0.5,0,0.9-0.1,1.3-0.3
			c0.4-0.2,0.6-0.5,0.8-0.9c0.1-0.3,0.2-0.7,0.2-1.2V82.1z"/>
		<path id="XMLID_216_" class="st1" d="M173.4,98.1v-2.7h-2.7v-1.1h2.7v-2.7h1.2v2.7h2.7v1.1h-2.7v2.7H173.4z"/>
		<path id="XMLID_218_" class="st1" d="M183.7,97.1l1.2,0.2c-0.1,0.8-0.5,1.5-1,2c-0.5,0.5-1.2,0.7-2,0.7c-1,0-1.8-0.3-2.4-1
			c-0.6-0.6-0.9-1.6-0.9-2.8c0-0.8,0.1-1.5,0.4-2.1s0.7-1,1.2-1.3c0.5-0.3,1.1-0.4,1.7-0.4c0.8,0,1.4,0.2,1.9,0.6
			c0.5,0.4,0.8,1,1,1.7l-1.2,0.2c-0.1-0.5-0.3-0.9-0.6-1.1c-0.3-0.2-0.6-0.4-1-0.4c-0.6,0-1.1,0.2-1.5,0.7c-0.4,0.4-0.6,1.1-0.6,2.1
			c0,1,0.2,1.7,0.6,2.1s0.9,0.7,1.5,0.7c0.5,0,0.9-0.1,1.2-0.4S183.7,97.7,183.7,97.1z"/>
		<path id="XMLID_220_" class="st1" d="M185.5,96.1c0-1.3,0.4-2.3,1.1-3c0.6-0.5,1.4-0.8,2.3-0.8c1,0,1.8,0.3,2.4,1
			c0.6,0.7,1,1.6,1,2.7c0,0.9-0.1,1.7-0.4,2.2c-0.3,0.5-0.7,1-1.2,1.2c-0.5,0.3-1.1,0.4-1.8,0.4c-1,0-1.8-0.3-2.5-1
			C185.9,98.3,185.5,97.4,185.5,96.1z M186.8,96.1c0,0.9,0.2,1.6,0.6,2.1c0.4,0.5,0.9,0.7,1.5,0.7c0.6,0,1.1-0.2,1.5-0.7
			s0.6-1.2,0.6-2.1c0-0.9-0.2-1.6-0.6-2c-0.4-0.5-0.9-0.7-1.5-0.7c-0.6,0-1.1,0.2-1.5,0.7S186.8,95.2,186.8,96.1z"/>
		<path id="XMLID_223_" class="st1" d="M193.8,99.8v-10h1.2v10H193.8z"/>
		<path id="XMLID_225_" class="st1" d="M196.4,96.1c0-1.3,0.4-2.3,1.1-3c0.6-0.5,1.4-0.8,2.3-0.8c1,0,1.8,0.3,2.4,1
			c0.6,0.7,1,1.6,1,2.7c0,0.9-0.1,1.7-0.4,2.2c-0.3,0.5-0.7,1-1.2,1.2c-0.5,0.3-1.1,0.4-1.8,0.4c-1,0-1.8-0.3-2.5-1
			C196.8,98.3,196.4,97.4,196.4,96.1z M197.7,96.1c0,0.9,0.2,1.6,0.6,2.1c0.4,0.5,0.9,0.7,1.5,0.7c0.6,0,1.1-0.2,1.5-0.7
			s0.6-1.2,0.6-2.1c0-0.9-0.2-1.6-0.6-2c-0.4-0.5-0.9-0.7-1.5-0.7c-0.6,0-1.1,0.2-1.5,0.7S197.7,95.2,197.7,96.1z"/>
		<path id="XMLID_228_" class="st1" d="M204.7,99.8v-7.3h1.1v1.1c0.3-0.5,0.5-0.9,0.8-1c0.2-0.2,0.5-0.2,0.8-0.2
			c0.4,0,0.8,0.1,1.3,0.4l-0.4,1.1c-0.3-0.2-0.6-0.3-0.9-0.3c-0.3,0-0.5,0.1-0.7,0.2c-0.2,0.2-0.4,0.4-0.5,0.7
			c-0.1,0.4-0.2,0.9-0.2,1.4v3.8H204.7z"/>
	</g>
	<g id="XMLID_2_">
		<path id="XMLID_3_" class="st1" d="M173.4,122.8v-2.7h-2.7v-1.1h2.7v-2.7h1.2v2.7h2.7v1.1h-2.7v2.7H173.4z"/>
		<path id="XMLID_5_" class="st1" d="M183.7,123.5c-0.5,0.4-0.9,0.7-1.3,0.8c-0.4,0.2-0.9,0.2-1.4,0.2c-0.8,0-1.4-0.2-1.8-0.6
			c-0.4-0.4-0.6-0.9-0.6-1.5c0-0.4,0.1-0.7,0.2-1c0.2-0.3,0.4-0.5,0.6-0.7c0.3-0.2,0.6-0.3,0.9-0.4c0.2-0.1,0.6-0.1,1.1-0.2
			c1-0.1,1.7-0.3,2.2-0.4c0-0.2,0-0.3,0-0.3c0-0.5-0.1-0.9-0.3-1.1c-0.3-0.3-0.8-0.4-1.4-0.4c-0.6,0-1,0.1-1.3,0.3
			c-0.3,0.2-0.5,0.6-0.6,1.1l-1.2-0.2c0.1-0.5,0.3-0.9,0.5-1.2c0.3-0.3,0.6-0.6,1.1-0.7c0.5-0.2,1-0.3,1.6-0.3
			c0.6,0,1.1,0.1,1.5,0.2s0.7,0.3,0.9,0.6c0.2,0.2,0.3,0.5,0.4,0.8c0,0.2,0.1,0.6,0.1,1.1v1.6c0,1.1,0,1.9,0.1,2.2
			c0.1,0.3,0.2,0.6,0.3,0.9H184C183.9,124.2,183.8,123.9,183.7,123.5z M183.6,120.8c-0.4,0.2-1.1,0.3-2,0.5
			c-0.5,0.1-0.9,0.2-1.1,0.2s-0.4,0.2-0.5,0.4c-0.1,0.2-0.2,0.4-0.2,0.6c0,0.3,0.1,0.6,0.4,0.8c0.2,0.2,0.6,0.3,1.1,0.3
			c0.5,0,0.9-0.1,1.3-0.3c0.4-0.2,0.6-0.5,0.8-0.9c0.1-0.3,0.2-0.7,0.2-1.2V120.8z"/>
		<path id="XMLID_8_" class="st1" d="M186.8,124.4v-7.3h1.1v1.1c0.3-0.5,0.5-0.9,0.8-1c0.2-0.2,0.5-0.2,0.8-0.2
			c0.4,0,0.8,0.1,1.3,0.4l-0.4,1.1c-0.3-0.2-0.6-0.3-0.9-0.3c-0.3,0-0.5,0.1-0.7,0.2c-0.2,0.2-0.4,0.4-0.5,0.7
			c-0.1,0.4-0.2,0.9-0.2,1.4v3.8H186.8z"/>
		<path id="XMLID_10_" class="st1" d="M191.4,124.4v-7.3h1.1v1.1c0.3-0.5,0.5-0.9,0.8-1c0.2-0.2,0.5-0.2,0.8-0.2
			c0.4,0,0.8,0.1,1.3,0.4l-0.4,1.1c-0.3-0.2-0.6-0.3-0.9-0.3c-0.3,0-0.5,0.1-0.7,0.2c-0.2,0.2-0.4,0.4-0.5,0.7
			c-0.1,0.4-0.2,0.9-0.2,1.4v3.8H191.4z"/>
		<path id="XMLID_12_" class="st1" d="M200.9,123.5c-0.5,0.4-0.9,0.7-1.3,0.8c-0.4,0.2-0.9,0.2-1.4,0.2c-0.8,0-1.4-0.2-1.8-0.6
			c-0.4-0.4-0.6-0.9-0.6-1.5c0-0.4,0.1-0.7,0.2-1c0.2-0.3,0.4-0.5,0.6-0.7c0.3-0.2,0.6-0.3,0.9-0.4c0.2-0.1,0.6-0.1,1.1-0.2
			c1-0.1,1.7-0.3,2.2-0.4c0-0.2,0-0.3,0-0.3c0-0.5-0.1-0.9-0.3-1.1c-0.3-0.3-0.8-0.4-1.4-0.4c-0.6,0-1,0.1-1.3,0.3
			c-0.3,0.2-0.5,0.6-0.6,1.1l-1.2-0.2c0.1-0.5,0.3-0.9,0.5-1.2c0.3-0.3,0.6-0.6,1.1-0.7c0.5-0.2,1-0.3,1.6-0.3
			c0.6,0,1.1,0.1,1.5,0.2s0.7,0.3,0.9,0.6c0.2,0.2,0.3,0.5,0.4,0.8c0,0.2,0.1,0.6,0.1,1.1v1.6c0,1.1,0,1.9,0.1,2.2
			c0.1,0.3,0.2,0.6,0.3,0.9h-1.3C201,124.2,200.9,123.9,200.9,123.5z M200.8,120.8c-0.4,0.2-1.1,0.3-2,0.5c-0.5,0.1-0.9,0.2-1.1,0.2
			s-0.4,0.2-0.5,0.4c-0.1,0.2-0.2,0.4-0.2,0.6c0,0.3,0.1,0.6,0.4,0.8c0.2,0.2,0.6,0.3,1.1,0.3c0.5,0,0.9-0.1,1.3-0.3
			c0.4-0.2,0.6-0.5,0.8-0.9c0.1-0.3,0.2-0.7,0.2-1.2V120.8z"/>
		<path id="XMLID_15_" class="st1" d="M203.9,124.4v-7.3h1.1v1c0.5-0.8,1.3-1.2,2.3-1.2c0.4,0,0.8,0.1,1.2,0.2
			c0.4,0.2,0.6,0.4,0.8,0.6s0.3,0.6,0.4,0.9c0,0.2,0.1,0.6,0.1,1.2v4.5h-1.2V120c0-0.5,0-0.9-0.1-1.1c-0.1-0.2-0.3-0.4-0.5-0.6
			c-0.2-0.1-0.5-0.2-0.9-0.2c-0.5,0-1,0.2-1.4,0.5c-0.4,0.3-0.6,1-0.6,1.9v4H203.9z"/>
		<path id="XMLID_18_" class="st1" d="M216.4,121.8l1.2,0.2c-0.1,0.8-0.5,1.5-1,2c-0.5,0.5-1.2,0.7-2,0.7c-1,0-1.8-0.3-2.4-1
			c-0.6-0.6-0.9-1.6-0.9-2.8c0-0.8,0.1-1.5,0.4-2.1s0.7-1,1.2-1.3c0.5-0.3,1.1-0.4,1.7-0.4c0.8,0,1.4,0.2,1.9,0.6
			c0.5,0.4,0.8,1,1,1.7l-1.2,0.2c-0.1-0.5-0.3-0.9-0.6-1.1c-0.3-0.2-0.6-0.4-1-0.4c-0.6,0-1.1,0.2-1.5,0.7c-0.4,0.4-0.6,1.1-0.6,2.1
			c0,1,0.2,1.7,0.6,2.1s0.9,0.7,1.5,0.7c0.5,0,0.9-0.1,1.2-0.4S216.3,122.4,216.4,121.8z"/>
		<path id="XMLID_43_" class="st1" d="M223.4,123.5c-0.5,0.4-0.9,0.7-1.3,0.8c-0.4,0.2-0.9,0.2-1.4,0.2c-0.8,0-1.4-0.2-1.8-0.6
			c-0.4-0.4-0.6-0.9-0.6-1.5c0-0.4,0.1-0.7,0.2-1c0.2-0.3,0.4-0.5,0.6-0.7c0.3-0.2,0.6-0.3,0.9-0.4c0.2-0.1,0.6-0.1,1.1-0.2
			c1-0.1,1.7-0.3,2.2-0.4c0-0.2,0-0.3,0-0.3c0-0.5-0.1-0.9-0.3-1.1c-0.3-0.3-0.8-0.4-1.4-0.4c-0.6,0-1,0.1-1.3,0.3
			c-0.3,0.2-0.5,0.6-0.6,1.1l-1.2-0.2c0.1-0.5,0.3-0.9,0.5-1.2c0.3-0.3,0.6-0.6,1.1-0.7c0.5-0.2,1-0.3,1.6-0.3
			c0.6,0,1.1,0.1,1.5,0.2s0.7,0.3,0.9,0.6c0.2,0.2,0.3,0.5,0.4,0.8c0,0.2,0.1,0.6,0.1,1.1v1.6c0,1.1,0,1.9,0.1,2.2
			c0.1,0.3,0.2,0.6,0.3,0.9h-1.3C223.5,124.2,223.5,123.9,223.4,123.5z M223.3,120.8c-0.4,0.2-1.1,0.3-2,0.5
			c-0.5,0.1-0.9,0.2-1.1,0.2s-0.4,0.2-0.5,0.4c-0.1,0.2-0.2,0.4-0.2,0.6c0,0.3,0.1,0.6,0.4,0.8c0.2,0.2,0.6,0.3,1.1,0.3
			c0.5,0,0.9-0.1,1.3-0.3c0.4-0.2,0.6-0.5,0.8-0.9c0.1-0.3,0.2-0.7,0.2-1.2V120.8z"/>
		<path id="XMLID_46_" class="st1" d="M226.5,124.4v-7.3h1.1v1.1c0.3-0.5,0.5-0.9,0.8-1c0.2-0.2,0.5-0.2,0.8-0.2
			c0.4,0,0.8,0.1,1.3,0.4l-0.4,1.1c-0.3-0.2-0.6-0.3-0.9-0.3c-0.3,0-0.5,0.1-0.7,0.2c-0.2,0.2-0.4,0.4-0.5,0.7
			c-0.1,0.4-0.2,0.9-0.2,1.4v3.8H226.5z"/>
		<path id="XMLID_48_" class="st1" d="M233.5,127.4c-0.7-0.9-1.3-1.9-1.7-3s-0.7-2.3-0.7-3.6c0-1.1,0.2-2.1,0.5-3.1
			c0.4-1.2,1-2.3,1.9-3.4h0.9c-0.6,0.9-0.9,1.6-1.1,2c-0.3,0.6-0.5,1.3-0.7,2c-0.2,0.9-0.3,1.7-0.3,2.6c0,2.2,0.7,4.4,2,6.6H233.5z"
			/>
		<path id="XMLID_50_" class="st1" d="M236.6,127.4h-0.9c1.4-2.2,2-4.4,2-6.6c0-0.9-0.1-1.7-0.3-2.5c-0.2-0.7-0.4-1.3-0.6-2
			c-0.2-0.4-0.5-1.1-1.1-2.1h0.9c0.9,1.1,1.5,2.3,1.9,3.4c0.4,1,0.5,2,0.5,3.1c0,1.2-0.2,2.4-0.7,3.6
			C237.9,125.5,237.3,126.5,236.6,127.4z"/>
		<path id="XMLID_52_" class="st1" d="M173.4,136.8v-2.7h-2.7v-1.1h2.7v-2.7h1.2v2.7h2.7v1.1h-2.7v2.7H173.4z"/>
		<path id="XMLID_54_" class="st1" d="M183.7,137.5c-0.5,0.4-0.9,0.7-1.3,0.8c-0.4,0.2-0.9,0.2-1.4,0.2c-0.8,0-1.4-0.2-1.8-0.6
			c-0.4-0.4-0.6-0.9-0.6-1.5c0-0.4,0.1-0.7,0.2-1c0.2-0.3,0.4-0.5,0.6-0.7c0.3-0.2,0.6-0.3,0.9-0.4c0.2-0.1,0.6-0.1,1.1-0.2
			c1-0.1,1.7-0.3,2.2-0.4c0-0.2,0-0.3,0-0.3c0-0.5-0.1-0.9-0.3-1.1c-0.3-0.3-0.8-0.4-1.4-0.4c-0.6,0-1,0.1-1.3,0.3
			c-0.3,0.2-0.5,0.6-0.6,1.1l-1.2-0.2c0.1-0.5,0.3-0.9,0.5-1.2c0.3-0.3,0.6-0.6,1.1-0.7c0.5-0.2,1-0.3,1.6-0.3
			c0.6,0,1.1,0.1,1.5,0.2s0.7,0.3,0.9,0.6c0.2,0.2,0.3,0.5,0.4,0.8c0,0.2,0.1,0.6,0.1,1.1v1.6c0,1.1,0,1.9,0.1,2.2
			c0.1,0.3,0.2,0.6,0.3,0.9H184C183.9,138.2,183.8,137.9,183.7,137.5z M183.6,134.8c-0.4,0.2-1.1,0.3-2,0.5
			c-0.5,0.1-0.9,0.2-1.1,0.2s-0.4,0.2-0.5,0.4c-0.1,0.2-0.2,0.4-0.2,0.6c0,0.3,0.1,0.6,0.4,0.8c0.2,0.2,0.6,0.3,1.1,0.3
			c0.5,0,0.9-0.1,1.3-0.3c0.4-0.2,0.6-0.5,0.8-0.9c0.1-0.3,0.2-0.7,0.2-1.2V134.8z"/>
		<path id="XMLID_57_" class="st1" d="M191.5,135.8l1.2,0.2c-0.1,0.8-0.5,1.5-1,2c-0.5,0.5-1.2,0.7-2,0.7c-1,0-1.8-0.3-2.4-1
			c-0.6-0.6-0.9-1.6-0.9-2.8c0-0.8,0.1-1.5,0.4-2.1s0.7-1,1.2-1.3c0.5-0.3,1.1-0.4,1.7-0.4c0.8,0,1.4,0.2,1.9,0.6
			c0.5,0.4,0.8,1,1,1.7l-1.2,0.2c-0.1-0.5-0.3-0.9-0.6-1.1c-0.3-0.2-0.6-0.4-1-0.4c-0.6,0-1.1,0.2-1.5,0.7c-0.4,0.4-0.6,1.1-0.6,2.1
			c0,1,0.2,1.7,0.6,2.1s0.9,0.7,1.5,0.7c0.5,0,0.9-0.1,1.2-0.4S191.4,136.4,191.5,135.8z"/>
		<path id="XMLID_59_" class="st1" d="M198.8,136.1l1.3,0.2c-0.2,0.7-0.6,1.3-1.1,1.7s-1.2,0.6-2.1,0.6c-1.1,0-1.9-0.3-2.5-1
			c-0.6-0.7-0.9-1.6-0.9-2.8c0-1.2,0.3-2.2,0.9-2.8s1.4-1,2.4-1c1,0,1.8,0.3,2.4,1s0.9,1.6,0.9,2.8c0,0.1,0,0.2,0,0.3h-5.4
			c0,0.8,0.3,1.4,0.7,1.8s0.9,0.6,1.5,0.6c0.5,0,0.8-0.1,1.2-0.4S198.6,136.6,198.8,136.1z M194.7,134.1h4.1
			c-0.1-0.6-0.2-1.1-0.5-1.4c-0.4-0.5-0.9-0.7-1.5-0.7c-0.6,0-1,0.2-1.4,0.6C195,133,194.8,133.5,194.7,134.1z"/>
		<path id="XMLID_65_" class="st1" d="M201.6,138.4v-10h1.2v10H201.6z"/>
		<path id="XMLID_67_" class="st1" d="M209.7,136.1l1.3,0.2c-0.2,0.7-0.6,1.3-1.1,1.7s-1.2,0.6-2.1,0.6c-1.1,0-1.9-0.3-2.5-1
			c-0.6-0.7-0.9-1.6-0.9-2.8c0-1.2,0.3-2.2,0.9-2.8s1.4-1,2.4-1c1,0,1.8,0.3,2.4,1s0.9,1.6,0.9,2.8c0,0.1,0,0.2,0,0.3h-5.4
			c0,0.8,0.3,1.4,0.7,1.8s0.9,0.6,1.5,0.6c0.5,0,0.8-0.1,1.2-0.4S209.5,136.6,209.7,136.1z M205.6,134.1h4.1
			c-0.1-0.6-0.2-1.1-0.5-1.4c-0.4-0.5-0.9-0.7-1.5-0.7c-0.6,0-1,0.2-1.4,0.6C205.9,133,205.7,133.5,205.6,134.1z"/>
		<path id="XMLID_70_" class="st1" d="M212.5,138.4v-7.3h1.1v1.1c0.3-0.5,0.5-0.9,0.8-1c0.2-0.2,0.5-0.2,0.8-0.2
			c0.4,0,0.8,0.1,1.3,0.4l-0.4,1.1c-0.3-0.2-0.6-0.3-0.9-0.3c-0.3,0-0.5,0.1-0.7,0.2c-0.2,0.2-0.4,0.4-0.5,0.7
			c-0.1,0.4-0.2,0.9-0.2,1.4v3.8H212.5z"/>
		<path id="XMLID_72_" class="st1" d="M221.9,137.5c-0.5,0.4-0.9,0.7-1.3,0.8c-0.4,0.2-0.9,0.2-1.4,0.2c-0.8,0-1.4-0.2-1.8-0.6
			c-0.4-0.4-0.6-0.9-0.6-1.5c0-0.4,0.1-0.7,0.2-1c0.2-0.3,0.4-0.5,0.6-0.7c0.3-0.2,0.6-0.3,0.9-0.4c0.2-0.1,0.6-0.1,1.1-0.2
			c1-0.1,1.7-0.3,2.2-0.4c0-0.2,0-0.3,0-0.3c0-0.5-0.1-0.9-0.3-1.1c-0.3-0.3-0.8-0.4-1.4-0.4c-0.6,0-1,0.1-1.3,0.3
			c-0.3,0.2-0.5,0.6-0.6,1.1l-1.2-0.2c0.1-0.5,0.3-0.9,0.5-1.2c0.3-0.3,0.6-0.6,1.1-0.7c0.5-0.2,1-0.3,1.6-0.3
			c0.6,0,1.1,0.1,1.5,0.2s0.7,0.3,0.9,0.6c0.2,0.2,0.3,0.5,0.4,0.8c0,0.2,0.1,0.6,0.1,1.1v1.6c0,1.1,0,1.9,0.1,2.2
			c0.1,0.3,0.2,0.6,0.3,0.9h-1.3C222,138.2,221.9,137.9,221.9,137.5z M221.8,134.8c-0.4,0.2-1.1,0.3-2,0.5c-0.5,0.1-0.9,0.2-1.1,0.2
			s-0.4,0.2-0.5,0.4c-0.1,0.2-0.2,0.4-0.2,0.6c0,0.3,0.1,0.6,0.4,0.8c0.2,0.2,0.6,0.3,1.1,0.3c0.5,0,0.9-0.1,1.3-0.3
			c0.4-0.2,0.6-0.5,0.8-0.9c0.1-0.3,0.2-0.7,0.2-1.2V134.8z"/>
		<path id="XMLID_75_" class="st1" d="M224.9,138.4v-7.3h1.1v1.1c0.3-0.5,0.5-0.9,0.8-1c0.2-0.2,0.5-0.2,0.8-0.2
			c0.4,0,0.8,0.1,1.3,0.4l-0.4,1.1c-0.3-0.2-0.6-0.3-0.9-0.3c-0.3,0-0.5,0.1-0.7,0.2c-0.2,0.2-0.4,0.4-0.5,0.7
			c-0.1,0.4-0.2,0.9-0.2,1.4v3.8H224.9z"/>
		<path id="XMLID_77_" class="st1" d="M231.9,141.4c-0.7-0.9-1.3-1.9-1.7-3s-0.7-2.3-0.7-3.6c0-1.1,0.2-2.1,0.5-3.1
			c0.4-1.2,1-2.3,1.9-3.4h0.9c-0.6,0.9-0.9,1.6-1.1,2c-0.3,0.6-0.5,1.3-0.7,2c-0.2,0.9-0.3,1.7-0.3,2.6c0,2.2,0.7,4.4,2,6.6H231.9z"
			/>
		<path id="XMLID_79_" class="st1" d="M235.1,141.4h-0.9c1.4-2.2,2-4.4,2-6.6c0-0.9-0.1-1.7-0.3-2.5c-0.2-0.7-0.4-1.3-0.6-2
			c-0.2-0.4-0.5-1.1-1.1-2.1h0.9c0.9,1.1,1.5,2.3,1.9,3.4c0.4,1,0.5,2,0.5,3.1c0,1.2-0.2,2.4-0.7,3.6
			C236.3,139.5,235.7,140.5,235.1,141.4z"/>
		<path id="XMLID_81_" class="st1" d="M173.4,150.8v-2.7h-2.7v-1.1h2.7v-2.7h1.2v2.7h2.7v1.1h-2.7v2.7H173.4z"/>
		<path id="XMLID_83_" class="st1" d="M179.3,152.4v-6.3h-1.1v-1h1.1v-0.8c0-0.5,0-0.8,0.1-1.1c0.1-0.3,0.3-0.6,0.6-0.8
			c0.3-0.2,0.7-0.3,1.3-0.3c0.3,0,0.7,0,1.1,0.1l-0.2,1.1c-0.3,0-0.5-0.1-0.7-0.1c-0.4,0-0.6,0.1-0.8,0.2s-0.2,0.5-0.2,0.9v0.7h1.4
			v1h-1.4v6.3H179.3z"/>
		<path id="XMLID_85_" class="st1" d="M182.9,152.4v-7.3h1.1v1.1c0.3-0.5,0.5-0.9,0.8-1c0.2-0.2,0.5-0.2,0.8-0.2
			c0.4,0,0.8,0.1,1.3,0.4l-0.4,1.1c-0.3-0.2-0.6-0.3-0.9-0.3c-0.3,0-0.5,0.1-0.7,0.2c-0.2,0.2-0.4,0.4-0.5,0.7
			c-0.1,0.4-0.2,0.9-0.2,1.4v3.8H182.9z"/>
		<path id="XMLID_87_" class="st1" d="M192.5,150.1l1.3,0.2c-0.2,0.7-0.6,1.3-1.1,1.7s-1.2,0.6-2.1,0.6c-1.1,0-1.9-0.3-2.5-1
			c-0.6-0.7-0.9-1.6-0.9-2.8c0-1.2,0.3-2.2,0.9-2.8s1.4-1,2.4-1c1,0,1.8,0.3,2.4,1s0.9,1.6,0.9,2.8c0,0.1,0,0.2,0,0.3h-5.4
			c0,0.8,0.3,1.4,0.7,1.8s0.9,0.6,1.5,0.6c0.5,0,0.8-0.1,1.2-0.4S192.3,150.6,192.5,150.1z M188.5,148.1h4.1
			c-0.1-0.6-0.2-1.1-0.5-1.4c-0.4-0.5-0.9-0.7-1.5-0.7c-0.6,0-1,0.2-1.4,0.6C188.7,147,188.5,147.5,188.5,148.1z"/>
		<path id="XMLID_90_" class="st1" d="M195.3,152.4v-7.3h1.1v1c0.5-0.8,1.3-1.2,2.3-1.2c0.4,0,0.8,0.1,1.2,0.2
			c0.4,0.2,0.6,0.4,0.8,0.6s0.3,0.6,0.4,0.9c0,0.2,0.1,0.6,0.1,1.2v4.5H200V148c0-0.5,0-0.9-0.1-1.1c-0.1-0.2-0.3-0.4-0.5-0.6
			c-0.2-0.1-0.5-0.2-0.9-0.2c-0.5,0-1,0.2-1.4,0.5c-0.4,0.3-0.6,1-0.6,1.9v4H195.3z"/>
		<path id="XMLID_92_" class="st1" d="M207.9,151.5c-0.5,0.4-0.9,0.7-1.3,0.8c-0.4,0.2-0.9,0.2-1.4,0.2c-0.8,0-1.4-0.2-1.8-0.6
			c-0.4-0.4-0.6-0.9-0.6-1.5c0-0.4,0.1-0.7,0.2-1c0.2-0.3,0.4-0.5,0.6-0.7c0.3-0.2,0.6-0.3,0.9-0.4c0.2-0.1,0.6-0.1,1.1-0.2
			c1-0.1,1.7-0.3,2.2-0.4c0-0.2,0-0.3,0-0.3c0-0.5-0.1-0.9-0.3-1.1c-0.3-0.3-0.8-0.4-1.4-0.4c-0.6,0-1,0.1-1.3,0.3
			c-0.3,0.2-0.5,0.6-0.6,1.1l-1.2-0.2c0.1-0.5,0.3-0.9,0.5-1.2c0.3-0.3,0.6-0.6,1.1-0.7c0.5-0.2,1-0.3,1.6-0.3
			c0.6,0,1.1,0.1,1.5,0.2s0.7,0.3,0.9,0.6c0.2,0.2,0.3,0.5,0.4,0.8c0,0.2,0.1,0.6,0.1,1.1v1.6c0,1.1,0,1.9,0.1,2.2
			c0.1,0.3,0.2,0.6,0.3,0.9h-1.3C208,152.2,207.9,151.9,207.9,151.5z M207.8,148.8c-0.4,0.2-1.1,0.3-2,0.5c-0.5,0.1-0.9,0.2-1.1,0.2
			s-0.4,0.2-0.5,0.4c-0.1,0.2-0.2,0.4-0.2,0.6c0,0.3,0.1,0.6,0.4,0.8c0.2,0.2,0.6,0.3,1.1,0.3c0.5,0,0.9-0.1,1.3-0.3
			c0.4-0.2,0.6-0.5,0.8-0.9c0.1-0.3,0.2-0.7,0.2-1.2V148.8z"/>
		<path id="XMLID_95_" class="st1" d="M210.9,152.4v-7.3h1.1v1.1c0.3-0.5,0.5-0.9,0.8-1c0.2-0.2,0.5-0.2,0.8-0.2
			c0.4,0,0.8,0.1,1.3,0.4l-0.4,1.1c-0.3-0.2-0.6-0.3-0.9-0.3c-0.3,0-0.5,0.1-0.7,0.2c-0.2,0.2-0.4,0.4-0.5,0.7
			c-0.1,0.4-0.2,0.9-0.2,1.4v3.8H210.9z"/>
		<path id="XMLID_97_" class="st1" d="M217.9,155.4c-0.7-0.9-1.3-1.9-1.7-3s-0.7-2.3-0.7-3.6c0-1.1,0.2-2.1,0.5-3.1
			c0.4-1.2,1-2.3,1.9-3.4h0.9c-0.6,0.9-0.9,1.6-1.1,2c-0.3,0.6-0.5,1.3-0.7,2c-0.2,0.9-0.3,1.7-0.3,2.6c0,2.2,0.7,4.4,2,6.6H217.9z"
			/>
		<path id="XMLID_99_" class="st1" d="M221,155.4h-0.9c1.4-2.2,2-4.4,2-6.6c0-0.9-0.1-1.7-0.3-2.5c-0.2-0.7-0.4-1.3-0.6-2
			c-0.2-0.4-0.5-1.1-1.1-2.1h0.9c0.9,1.1,1.5,2.3,1.9,3.4c0.4,1,0.5,2,0.5,3.1c0,1.2-0.2,2.4-0.7,3.6
			C222.3,153.5,221.7,154.5,221,155.4z"/>
		<path id="XMLID_101_" class="st1" d="M173.4,164.8v-2.7h-2.7v-1.1h2.7v-2.7h1.2v2.7h2.7v1.1h-2.7v2.7H173.4z"/>
		<path id="XMLID_103_" class="st1" d="M183.7,166.4v-0.9c-0.5,0.7-1.1,1.1-2,1.1c-0.6,0-1.1-0.2-1.6-0.5c-0.5-0.3-0.9-0.8-1.1-1.3
			c-0.3-0.6-0.4-1.2-0.4-2c0-0.7,0.1-1.4,0.4-2c0.2-0.6,0.6-1,1.1-1.4s1-0.5,1.6-0.5c0.4,0,0.8,0.1,1.2,0.3c0.3,0.2,0.6,0.4,0.8,0.7
			v-3.6h1.2v10H183.7z M179.8,162.8c0,0.9,0.2,1.6,0.6,2.1s0.9,0.7,1.4,0.7c0.5,0,1-0.2,1.4-0.7c0.4-0.4,0.6-1.1,0.6-2
			c0-1-0.2-1.7-0.6-2.2s-0.9-0.7-1.4-0.7c-0.5,0-1,0.2-1.4,0.7C180,161.1,179.8,161.8,179.8,162.8z"/>
		<path id="XMLID_106_" class="st1" d="M191.8,164.1l1.3,0.2c-0.2,0.7-0.6,1.3-1.1,1.7s-1.2,0.6-2.1,0.6c-1.1,0-1.9-0.3-2.5-1
			c-0.6-0.7-0.9-1.6-0.9-2.8c0-1.2,0.3-2.2,0.9-2.8s1.4-1,2.4-1c1,0,1.8,0.3,2.4,1s0.9,1.6,0.9,2.8c0,0.1,0,0.2,0,0.3h-5.4
			c0,0.8,0.3,1.4,0.7,1.8s0.9,0.6,1.5,0.6c0.5,0,0.8-0.1,1.2-0.4S191.6,164.6,191.8,164.1z M187.7,162.1h4.1
			c-0.1-0.6-0.2-1.1-0.5-1.4c-0.4-0.5-0.9-0.7-1.5-0.7c-0.6,0-1,0.2-1.4,0.6C188,161,187.8,161.5,187.7,162.1z"/>
		<path id="XMLID_109_" class="st1" d="M197.3,165.3l0.2,1.1c-0.3,0.1-0.7,0.1-0.9,0.1c-0.4,0-0.8-0.1-1-0.2s-0.4-0.3-0.5-0.6
			c-0.1-0.2-0.2-0.7-0.2-1.5v-4.2h-0.9v-1h0.9v-1.8l1.2-0.7v2.5h1.2v1H196v4.2c0,0.4,0,0.6,0.1,0.7c0,0.1,0.1,0.2,0.2,0.2
			c0.1,0.1,0.2,0.1,0.4,0.1C196.9,165.4,197,165.4,197.3,165.3z"/>
		<path id="XMLID_111_" class="st1" d="M203.4,164.1l1.3,0.2c-0.2,0.7-0.6,1.3-1.1,1.7s-1.2,0.6-2.1,0.6c-1.1,0-1.9-0.3-2.5-1
			c-0.6-0.7-0.9-1.6-0.9-2.8c0-1.2,0.3-2.2,0.9-2.8s1.4-1,2.4-1c1,0,1.8,0.3,2.4,1s0.9,1.6,0.9,2.8c0,0.1,0,0.2,0,0.3h-5.4
			c0,0.8,0.3,1.4,0.7,1.8s0.9,0.6,1.5,0.6c0.5,0,0.8-0.1,1.2-0.4S203.3,164.6,203.4,164.1z M199.4,162.1h4.1
			c-0.1-0.6-0.2-1.1-0.5-1.4c-0.4-0.5-0.9-0.7-1.5-0.7c-0.6,0-1,0.2-1.4,0.6C199.7,161,199.4,161.5,199.4,162.1z"/>
		<path id="XMLID_114_" class="st1" d="M206.3,166.4v-7.3h1.1v1c0.5-0.8,1.3-1.2,2.3-1.2c0.4,0,0.8,0.1,1.2,0.2
			c0.4,0.2,0.6,0.4,0.8,0.6s0.3,0.6,0.4,0.9c0,0.2,0.1,0.6,0.1,1.2v4.5h-1.2V162c0-0.5,0-0.9-0.1-1.1c-0.1-0.2-0.3-0.4-0.5-0.6
			c-0.2-0.1-0.5-0.2-0.9-0.2c-0.5,0-1,0.2-1.4,0.5c-0.4,0.3-0.6,1-0.6,1.9v4H206.3z"/>
		<path id="XMLID_116_" class="st1" d="M219,164.1l1.3,0.2c-0.2,0.7-0.6,1.3-1.1,1.7s-1.2,0.6-2.1,0.6c-1.1,0-1.9-0.3-2.5-1
			c-0.6-0.7-0.9-1.6-0.9-2.8c0-1.2,0.3-2.2,0.9-2.8s1.4-1,2.4-1c1,0,1.8,0.3,2.4,1s0.9,1.6,0.9,2.8c0,0.1,0,0.2,0,0.3h-5.4
			c0,0.8,0.3,1.4,0.7,1.8s0.9,0.6,1.5,0.6c0.5,0,0.8-0.1,1.2-0.4S218.8,164.6,219,164.1z M215,162.1h4.1c-0.1-0.6-0.2-1.1-0.5-1.4
			c-0.4-0.5-0.9-0.7-1.5-0.7c-0.6,0-1,0.2-1.4,0.6C215.2,161,215,161.5,215,162.1z"/>
		<path id="XMLID_119_" class="st1" d="M221.8,166.4v-7.3h1.1v1.1c0.3-0.5,0.5-0.9,0.8-1c0.2-0.2,0.5-0.2,0.8-0.2
			c0.4,0,0.8,0.1,1.3,0.4l-0.4,1.1c-0.3-0.2-0.6-0.3-0.9-0.3c-0.3,0-0.5,0.1-0.7,0.2c-0.2,0.2-0.4,0.4-0.5,0.7
			c-0.1,0.4-0.2,0.9-0.2,1.4v3.8H221.8z"/>
		<path id="XMLID_121_" class="st1" d="M228.8,169.4c-0.7-0.9-1.3-1.9-1.7-3s-0.7-2.3-0.7-3.6c0-1.1,0.2-2.1,0.5-3.1
			c0.4-1.2,1-2.3,1.9-3.4h0.9c-0.6,0.9-0.9,1.6-1.1,2c-0.3,0.6-0.5,1.3-0.7,2c-0.2,0.9-0.3,1.7-0.3,2.6c0,2.2,0.7,4.4,2,6.6H228.8z"
			/>
		<path id="XMLID_123_" class="st1" d="M232,169.4h-0.9c1.4-2.2,2-4.4,2-6.6c0-0.9-0.1-1.7-0.3-2.5c-0.2-0.7-0.4-1.3-0.6-2
			c-0.2-0.4-0.5-1.1-1.1-2.1h0.9c0.9,1.1,1.5,2.3,1.9,3.4c0.4,1,0.5,2,0.5,3.1c0,1.2-0.2,2.4-0.7,3.6
			C233.2,167.5,232.6,168.5,232,169.4z"/>
	</g>
	<line id="XMLID_1196_" class="st2" x1="162" y1="26.3" x2="306.5" y2="26.3"/>
	<line id="XMLID_1193_" class="st2" x1="162" y1="108.6" x2="306.5" y2="108.6"/>
</g>
</svg>
