<?xml version="1.0" encoding="utf-8"?>
<!-- Generator: Adobe Illustrator 19.0.0, SVG Export Plug-In . SVG Version: 6.00 Build 0)  -->
<svg version="1.1" id="Capa_1" xmlns="http://www.w3.org/2000/svg" xmlns:xlink="http://www.w3.org/1999/xlink" x="0px" y="0px"
	 viewBox="0 0 421.3 153.9" style="enable-background:new 0 0 421.3 153.9;" xml:space="preserve">
<style type="text/css">
	.st0{fill:none;stroke:#282828;stroke-width:2;stroke-miterlimit:10;}
	.st1{fill:#FFFFFF;stroke:#0367A6;stroke-width:3;stroke-miterlimit:10;}
	.st2{fill:#FFFFFF;stroke:#F29422;stroke-width:3;stroke-miterlimit:10;}
	.st3{fill:#FFFFFF;stroke:#CD2D00;stroke-width:3;stroke-miterlimit:10;}
	.st4{fill:#FFFFFF;stroke:#8BBE33;stroke-width:3;stroke-miterlimit:10;}
</style>
<g id="XMLID_15743_">
	<polyline id="XMLID_17251_" class="st0" points="248.1,27.3 168.5,27.3 168.5,12.9 106.1,12.9 	"/>
	<polyline id="XMLID_17249_" class="st0" points="53.8,45 53.8,66.8 53.8,90 149,90 149,108.8 	"/>
	<rect id="XMLID_15747_" x="241.9" y="87" class="st1" width="171.7" height="43.6"/>
	<rect id="XMLID_15746_" x="91.1" y="108.8" class="st2" width="115.8" height="43.6"/>
	<rect id="XMLID_15744_" x="248.1" y="1.5" class="st3" width="171.7" height="43.6"/>
	<rect id="XMLID_12008_" x="1.5" y="1.5" class="st4" width="104.6" height="43.6"/>
	<g id="XMLID_201_">
		<path id="XMLID_202_" d="M14.6,29.6l0.2-1c0.2,0.1,0.4,0.1,0.6,0.1c0.3,0,0.4-0.1,0.6-0.2c0.1-0.2,0.2-0.6,0.2-1.2v-7.6h1.2v7.7
			c0,0.9-0.1,1.5-0.3,1.9c-0.3,0.5-0.8,0.7-1.5,0.7C15.2,29.8,14.9,29.7,14.6,29.6z M16.1,18.2v-1.4h1.2v1.4H16.1z"/>
		<path id="XMLID_205_" d="M24,26.8v-1.1c-0.6,0.8-1.3,1.2-2.3,1.2c-0.4,0-0.8-0.1-1.2-0.2c-0.4-0.2-0.6-0.4-0.8-0.6
			c-0.2-0.2-0.3-0.6-0.4-0.9c0-0.2-0.1-0.6-0.1-1.1v-4.5h1.2v4c0,0.6,0,1.1,0.1,1.3c0.1,0.3,0.2,0.6,0.5,0.8
			c0.3,0.2,0.6,0.3,0.9,0.3s0.7-0.1,1-0.3c0.3-0.2,0.6-0.4,0.7-0.8c0.1-0.3,0.2-0.8,0.2-1.4v-3.9h1.2v7.3H24z"/>
		<path id="XMLID_207_" d="M31.8,25.9c-0.5,0.4-0.9,0.7-1.3,0.8C30,26.9,29.6,27,29.1,27c-0.8,0-1.4-0.2-1.8-0.6
			c-0.4-0.4-0.6-0.9-0.6-1.5c0-0.4,0.1-0.7,0.2-1c0.2-0.3,0.4-0.5,0.6-0.7c0.3-0.2,0.6-0.3,0.9-0.4c0.2-0.1,0.6-0.1,1.1-0.2
			c1-0.1,1.7-0.3,2.2-0.4c0-0.2,0-0.3,0-0.3c0-0.5-0.1-0.9-0.3-1.1c-0.3-0.3-0.8-0.4-1.4-0.4c-0.6,0-1,0.1-1.3,0.3
			c-0.3,0.2-0.5,0.6-0.6,1.1l-1.2-0.2c0.1-0.5,0.3-0.9,0.5-1.2c0.3-0.3,0.6-0.6,1.1-0.7c0.5-0.2,1-0.3,1.6-0.3
			c0.6,0,1.1,0.1,1.5,0.2c0.4,0.1,0.7,0.3,0.9,0.6c0.2,0.2,0.3,0.5,0.4,0.8c0,0.2,0.1,0.6,0.1,1.1v1.6c0,1.1,0,1.9,0.1,2.2
			c0.1,0.3,0.2,0.6,0.3,0.9H32C31.9,26.6,31.8,26.3,31.8,25.9z M31.7,23.2c-0.4,0.2-1.1,0.3-2,0.5c-0.5,0.1-0.9,0.2-1.1,0.2
			s-0.4,0.2-0.5,0.4c-0.1,0.2-0.2,0.4-0.2,0.6c0,0.3,0.1,0.6,0.4,0.8c0.2,0.2,0.6,0.3,1.1,0.3c0.5,0,0.9-0.1,1.3-0.3
			c0.4-0.2,0.6-0.5,0.8-0.9c0.1-0.3,0.2-0.7,0.2-1.2V23.2z"/>
		<path id="XMLID_210_" d="M34.8,26.8v-7.3h1.1v1c0.5-0.8,1.3-1.2,2.3-1.2c0.4,0,0.8,0.1,1.2,0.2c0.4,0.2,0.6,0.4,0.8,0.6
			s0.3,0.6,0.4,0.9c0,0.2,0.1,0.6,0.1,1.2v4.5h-1.2v-4.4c0-0.5,0-0.9-0.1-1.1c-0.1-0.2-0.3-0.4-0.5-0.6c-0.2-0.1-0.5-0.2-0.9-0.2
			c-0.5,0-1,0.2-1.4,0.5c-0.4,0.3-0.6,1-0.6,1.9v4H34.8z"/>
		<path id="XMLID_212_" d="M42.9,21v-1.4h1.4V21H42.9z M42.9,26.8v-1.4h1.4v1.4H42.9z"/>
		<path id="XMLID_215_" d="M45.6,26.8l3.8-10h1.4l4.1,10h-1.5l-1.2-3h-4.2l-1.1,3H45.6z M48.4,22.7h3.4l-1-2.8
			c-0.3-0.8-0.6-1.5-0.7-2.1c-0.1,0.6-0.3,1.3-0.5,1.9L48.4,22.7z"/>
		<path id="XMLID_218_" d="M55.8,26.8v-10H57v10H55.8z"/>
		<path id="XMLID_220_" d="M63.7,26.8v-1.1c-0.6,0.8-1.3,1.2-2.3,1.2c-0.4,0-0.8-0.1-1.2-0.2c-0.4-0.2-0.6-0.4-0.8-0.6
			c-0.2-0.2-0.3-0.6-0.4-0.9c0-0.2-0.1-0.6-0.1-1.1v-4.5h1.2v4c0,0.6,0,1.1,0.1,1.3c0.1,0.3,0.2,0.6,0.5,0.8
			c0.3,0.2,0.6,0.3,0.9,0.3s0.7-0.1,1-0.3c0.3-0.2,0.6-0.4,0.7-0.8c0.1-0.3,0.2-0.8,0.2-1.4v-3.9h1.2v7.3H63.7z"/>
		<path id="XMLID_222_" d="M66.7,26.8v-7.3h1.1v1c0.2-0.4,0.5-0.6,0.9-0.9c0.4-0.2,0.8-0.3,1.3-0.3c0.5,0,1,0.1,1.3,0.3
			c0.3,0.2,0.6,0.5,0.7,0.9c0.6-0.8,1.3-1.3,2.2-1.3c0.7,0,1.3,0.2,1.7,0.6c0.4,0.4,0.6,1,0.6,1.8v5h-1.2v-4.6c0-0.5,0-0.8-0.1-1.1
			c-0.1-0.2-0.2-0.4-0.4-0.5s-0.5-0.2-0.7-0.2c-0.5,0-0.9,0.2-1.3,0.5c-0.3,0.3-0.5,0.9-0.5,1.6v4.2H71v-4.7c0-0.5-0.1-1-0.3-1.2
			s-0.5-0.4-1-0.4c-0.3,0-0.7,0.1-1,0.3c-0.3,0.2-0.5,0.4-0.6,0.8S68,22.4,68,23.1v3.8H66.7z"/>
		<path id="XMLID_224_" d="M78.4,26.8v-7.3h1.1v1c0.5-0.8,1.3-1.2,2.3-1.2c0.4,0,0.8,0.1,1.2,0.2c0.4,0.2,0.6,0.4,0.8,0.6
			s0.3,0.6,0.4,0.9c0,0.2,0.1,0.6,0.1,1.2v4.5h-1.2v-4.4c0-0.5,0-0.9-0.1-1.1c-0.1-0.2-0.3-0.4-0.5-0.6c-0.2-0.1-0.5-0.2-0.9-0.2
			c-0.5,0-1,0.2-1.4,0.5c-0.4,0.3-0.6,1-0.6,1.9v4H78.4z"/>
		<path id="XMLID_226_" d="M85.7,23.2c0-1.3,0.4-2.3,1.1-3c0.6-0.5,1.4-0.8,2.3-0.8c1,0,1.8,0.3,2.4,1c0.6,0.7,1,1.6,1,2.7
			c0,0.9-0.1,1.7-0.4,2.2c-0.3,0.5-0.7,1-1.2,1.2c-0.5,0.3-1.1,0.4-1.8,0.4c-1,0-1.8-0.3-2.5-1C86,25.4,85.7,24.4,85.7,23.2z
			 M87,23.2c0,0.9,0.2,1.6,0.6,2.1c0.4,0.5,0.9,0.7,1.5,0.7c0.6,0,1.1-0.2,1.5-0.7s0.6-1.2,0.6-2.1c0-0.9-0.2-1.6-0.6-2
			c-0.4-0.5-0.9-0.7-1.5-0.7c-0.6,0-1.1,0.2-1.5,0.7S87,22.3,87,23.2z"/>
	</g>
	<g id="XMLID_182_">
		<path id="XMLID_183_" d="M188,19.2l1.3,0.2c-0.2,0.7-0.6,1.3-1.1,1.7s-1.2,0.6-2.1,0.6c-1.1,0-1.9-0.3-2.5-1
			c-0.6-0.7-0.9-1.6-0.9-2.8c0-1.2,0.3-2.2,0.9-2.8s1.4-1,2.4-1c1,0,1.8,0.3,2.4,1s0.9,1.6,0.9,2.8c0,0.1,0,0.2,0,0.3h-5.4
			c0,0.8,0.3,1.4,0.7,1.8s0.9,0.6,1.5,0.6c0.5,0,0.8-0.1,1.2-0.4S187.8,19.7,188,19.2z M183.9,17.2h4.1c-0.1-0.6-0.2-1.1-0.5-1.4
			c-0.4-0.5-0.9-0.7-1.5-0.7c-0.6,0-1,0.2-1.4,0.6C184.2,16.1,184,16.6,183.9,17.2z"/>
		<path id="XMLID_186_" d="M190.3,19.4l1.2-0.2c0.1,0.5,0.3,0.9,0.6,1.1c0.3,0.3,0.7,0.4,1.3,0.4c0.6,0,1-0.1,1.3-0.3
			c0.3-0.2,0.4-0.5,0.4-0.8c0-0.3-0.1-0.5-0.4-0.7c-0.2-0.1-0.6-0.2-1.3-0.4c-0.9-0.2-1.5-0.4-1.9-0.6c-0.3-0.2-0.6-0.4-0.8-0.7
			c-0.2-0.3-0.3-0.6-0.3-1c0-0.3,0.1-0.6,0.2-0.9c0.1-0.3,0.4-0.5,0.6-0.7c0.2-0.1,0.5-0.3,0.8-0.4c0.3-0.1,0.7-0.1,1.1-0.1
			c0.6,0,1.1,0.1,1.5,0.2c0.4,0.2,0.7,0.4,1,0.7c0.2,0.3,0.3,0.7,0.4,1.1l-1.2,0.2c-0.1-0.4-0.2-0.7-0.5-0.9
			c-0.3-0.2-0.6-0.3-1.1-0.3c-0.6,0-1,0.1-1.2,0.3s-0.4,0.4-0.4,0.7c0,0.2,0,0.3,0.2,0.4c0.1,0.1,0.3,0.2,0.5,0.3
			c0.1,0,0.5,0.2,1.1,0.3c0.9,0.2,1.5,0.4,1.8,0.6c0.3,0.1,0.6,0.4,0.8,0.6s0.3,0.6,0.3,1.1c0,0.4-0.1,0.8-0.4,1.2
			c-0.2,0.4-0.6,0.6-1,0.8c-0.5,0.2-1,0.3-1.5,0.3c-0.9,0-1.7-0.2-2.2-0.6C190.7,20.7,190.4,20.2,190.3,19.4z"/>
		<path id="XMLID_188_" d="M200.5,20.5l0.2,1.1c-0.3,0.1-0.7,0.1-0.9,0.1c-0.4,0-0.8-0.1-1-0.2s-0.4-0.3-0.5-0.6
			c-0.1-0.2-0.2-0.7-0.2-1.5v-4.2h-0.9v-1h0.9v-1.8l1.2-0.7v2.5h1.2v1h-1.2v4.2c0,0.4,0,0.6,0.1,0.7c0,0.1,0.1,0.2,0.2,0.2
			c0.1,0.1,0.2,0.1,0.4,0.1C200.1,20.5,200.2,20.5,200.5,20.5z"/>
		<path id="XMLID_190_" d="M206.4,21.6v-1.1c-0.6,0.8-1.3,1.2-2.3,1.2c-0.4,0-0.8-0.1-1.2-0.2c-0.4-0.2-0.6-0.4-0.8-0.6
			c-0.2-0.2-0.3-0.6-0.4-0.9c0-0.2-0.1-0.6-0.1-1.1v-4.5h1.2v4c0,0.6,0,1.1,0.1,1.3c0.1,0.3,0.2,0.6,0.5,0.8
			c0.3,0.2,0.6,0.3,0.9,0.3s0.7-0.1,1-0.3c0.3-0.2,0.6-0.4,0.7-0.8c0.1-0.3,0.2-0.8,0.2-1.4v-3.9h1.2v7.3H206.4z"/>
		<path id="XMLID_192_" d="M214.2,21.6v-0.9c-0.5,0.7-1.1,1.1-2,1.1c-0.6,0-1.1-0.2-1.6-0.5c-0.5-0.3-0.9-0.8-1.1-1.3
			c-0.3-0.6-0.4-1.2-0.4-2c0-0.7,0.1-1.4,0.4-2c0.2-0.6,0.6-1,1.1-1.4s1-0.5,1.6-0.5c0.4,0,0.8,0.1,1.2,0.3c0.3,0.2,0.6,0.4,0.8,0.7
			v-3.6h1.2v10H214.2z M210.3,17.9c0,0.9,0.2,1.6,0.6,2.1s0.9,0.7,1.4,0.7c0.5,0,1-0.2,1.4-0.7c0.4-0.4,0.6-1.1,0.6-2
			c0-1-0.2-1.7-0.6-2.2s-0.9-0.7-1.4-0.7c-0.5,0-1,0.2-1.4,0.7C210.5,16.3,210.3,17,210.3,17.9z"/>
		<path id="XMLID_195_" d="M217.2,13v-1.4h1.2V13H217.2z M217.2,21.6v-7.3h1.2v7.3H217.2z"/>
		<path id="XMLID_198_" d="M225.1,20.7c-0.5,0.4-0.9,0.7-1.3,0.8c-0.4,0.2-0.9,0.2-1.4,0.2c-0.8,0-1.4-0.2-1.8-0.6
			c-0.4-0.4-0.6-0.9-0.6-1.5c0-0.4,0.1-0.7,0.2-1c0.2-0.3,0.4-0.5,0.6-0.7c0.3-0.2,0.6-0.3,0.9-0.4c0.2-0.1,0.6-0.1,1.1-0.2
			c1-0.1,1.7-0.3,2.2-0.4c0-0.2,0-0.3,0-0.3c0-0.5-0.1-0.9-0.3-1.1c-0.3-0.3-0.8-0.4-1.4-0.4c-0.6,0-1,0.1-1.3,0.3
			c-0.3,0.2-0.5,0.6-0.6,1.1l-1.2-0.2c0.1-0.5,0.3-0.9,0.5-1.2c0.3-0.3,0.6-0.6,1.1-0.7c0.5-0.2,1-0.3,1.6-0.3
			c0.6,0,1.1,0.1,1.5,0.2s0.7,0.3,0.9,0.6c0.2,0.2,0.3,0.5,0.4,0.8c0,0.2,0.1,0.6,0.1,1.1v1.6c0,1.1,0,1.9,0.1,2.2
			c0.1,0.3,0.2,0.6,0.3,0.9h-1.3C225.2,21.3,225.1,21,225.1,20.7z M225,17.9c-0.4,0.2-1.1,0.3-2,0.5c-0.5,0.1-0.9,0.2-1.1,0.2
			s-0.4,0.2-0.5,0.4c-0.1,0.2-0.2,0.4-0.2,0.6c0,0.3,0.1,0.6,0.4,0.8c0.2,0.2,0.6,0.3,1.1,0.3c0.5,0,0.9-0.1,1.3-0.3
			c0.4-0.2,0.6-0.5,0.8-0.9c0.1-0.3,0.2-0.7,0.2-1.2V17.9z"/>
	</g>
	<g id="XMLID_163_">
		<path id="XMLID_164_" d="M166,57.1l1.3,0.2c-0.2,0.7-0.6,1.3-1.1,1.7s-1.2,0.6-2.1,0.6c-1.1,0-1.9-0.3-2.5-1
			c-0.6-0.7-0.9-1.6-0.9-2.8c0-1.2,0.3-2.2,0.9-2.8s1.4-1,2.4-1c1,0,1.8,0.3,2.4,1s0.9,1.6,0.9,2.8c0,0.1,0,0.2,0,0.3h-5.4
			c0,0.8,0.3,1.4,0.7,1.8s0.9,0.6,1.5,0.6c0.5,0,0.8-0.1,1.2-0.4S165.8,57.7,166,57.1z M162,55.1h4.1c-0.1-0.6-0.2-1.1-0.5-1.4
			c-0.4-0.5-0.9-0.7-1.5-0.7c-0.6,0-1,0.2-1.4,0.6C162.2,54,162,54.5,162,55.1z"/>
		<path id="XMLID_167_" d="M168.3,57.3l1.2-0.2c0.1,0.5,0.3,0.9,0.6,1.1c0.3,0.3,0.7,0.4,1.3,0.4c0.6,0,1-0.1,1.3-0.3
			c0.3-0.2,0.4-0.5,0.4-0.8c0-0.3-0.1-0.5-0.4-0.7c-0.2-0.1-0.6-0.2-1.3-0.4c-0.9-0.2-1.5-0.4-1.9-0.6c-0.3-0.2-0.6-0.4-0.8-0.7
			c-0.2-0.3-0.3-0.6-0.3-1c0-0.3,0.1-0.6,0.2-0.9c0.1-0.3,0.4-0.5,0.6-0.7c0.2-0.1,0.5-0.3,0.8-0.4c0.3-0.1,0.7-0.1,1.1-0.1
			c0.6,0,1.1,0.1,1.5,0.2c0.4,0.2,0.7,0.4,1,0.7c0.2,0.3,0.3,0.7,0.4,1.1l-1.2,0.2c-0.1-0.4-0.2-0.7-0.5-0.9
			c-0.3-0.2-0.6-0.3-1.1-0.3c-0.6,0-1,0.1-1.2,0.3s-0.4,0.4-0.4,0.7c0,0.2,0,0.3,0.2,0.4c0.1,0.1,0.3,0.2,0.5,0.3
			c0.1,0,0.5,0.2,1.1,0.3c0.9,0.2,1.5,0.4,1.8,0.6c0.3,0.1,0.6,0.4,0.8,0.6s0.3,0.6,0.3,1.1c0,0.4-0.1,0.8-0.4,1.2
			c-0.2,0.4-0.6,0.6-1,0.8c-0.5,0.2-1,0.3-1.5,0.3c-0.9,0-1.7-0.2-2.2-0.6C168.8,58.7,168.5,58.1,168.3,57.3z"/>
		<path id="XMLID_169_" d="M178.5,58.4l0.2,1.1c-0.3,0.1-0.7,0.1-0.9,0.1c-0.4,0-0.8-0.1-1-0.2s-0.4-0.3-0.5-0.6
			c-0.1-0.2-0.2-0.7-0.2-1.5v-4.2h-0.9v-1h0.9v-1.8l1.2-0.7v2.5h1.2v1h-1.2v4.2c0,0.4,0,0.6,0.1,0.7c0,0.1,0.1,0.2,0.2,0.2
			c0.1,0.1,0.2,0.1,0.4,0.1C178.1,58.4,178.3,58.4,178.5,58.4z"/>
		<path id="XMLID_171_" d="M184.5,59.5v-1.1c-0.6,0.8-1.3,1.2-2.3,1.2c-0.4,0-0.8-0.1-1.2-0.2c-0.4-0.2-0.6-0.4-0.8-0.6
			c-0.2-0.2-0.3-0.6-0.4-0.9c0-0.2-0.1-0.6-0.1-1.1v-4.5h1.2v4c0,0.6,0,1.1,0.1,1.3c0.1,0.3,0.2,0.6,0.5,0.8
			c0.3,0.2,0.6,0.3,0.9,0.3s0.7-0.1,1-0.3c0.3-0.2,0.6-0.4,0.7-0.8c0.1-0.3,0.2-0.8,0.2-1.4v-3.9h1.2v7.3H184.5z"/>
		<path id="XMLID_173_" d="M192.2,59.5v-0.9c-0.5,0.7-1.1,1.1-2,1.1c-0.6,0-1.1-0.2-1.6-0.5c-0.5-0.3-0.9-0.8-1.1-1.3
			c-0.3-0.6-0.4-1.2-0.4-2c0-0.7,0.1-1.4,0.4-2c0.2-0.6,0.6-1,1.1-1.4s1-0.5,1.6-0.5c0.4,0,0.8,0.1,1.2,0.3c0.3,0.2,0.6,0.4,0.8,0.7
			v-3.6h1.2v10H192.2z M188.3,55.8c0,0.9,0.2,1.6,0.6,2.1s0.9,0.7,1.4,0.7c0.5,0,1-0.2,1.4-0.7c0.4-0.4,0.6-1.1,0.6-2
			c0-1-0.2-1.7-0.6-2.2s-0.9-0.7-1.4-0.7c-0.5,0-1,0.2-1.4,0.7C188.5,54.2,188.3,54.9,188.3,55.8z"/>
		<path id="XMLID_176_" d="M195.3,50.9v-1.4h1.2v1.4H195.3z M195.3,59.5v-7.3h1.2v7.3H195.3z"/>
		<path id="XMLID_179_" d="M203.1,58.6c-0.5,0.4-0.9,0.7-1.3,0.8c-0.4,0.2-0.9,0.2-1.4,0.2c-0.8,0-1.4-0.2-1.8-0.6
			c-0.4-0.4-0.6-0.9-0.6-1.5c0-0.4,0.1-0.7,0.2-1c0.2-0.3,0.4-0.5,0.6-0.7c0.3-0.2,0.6-0.3,0.9-0.4c0.2-0.1,0.6-0.1,1.1-0.2
			c1-0.1,1.7-0.3,2.2-0.4c0-0.2,0-0.3,0-0.3c0-0.5-0.1-0.9-0.3-1.1c-0.3-0.3-0.8-0.4-1.4-0.4c-0.6,0-1,0.1-1.3,0.3
			c-0.3,0.2-0.5,0.6-0.6,1.1l-1.2-0.2c0.1-0.5,0.3-0.9,0.5-1.2c0.3-0.3,0.6-0.6,1.1-0.7c0.5-0.2,1-0.3,1.6-0.3
			c0.6,0,1.1,0.1,1.5,0.2s0.7,0.3,0.9,0.6c0.2,0.2,0.3,0.5,0.4,0.8c0,0.2,0.1,0.6,0.1,1.1v1.6c0,1.1,0,1.9,0.1,2.2
			c0.1,0.3,0.2,0.6,0.3,0.9h-1.3C203.3,59.2,203.2,58.9,203.1,58.6z M203,55.8c-0.4,0.2-1.1,0.3-2,0.5c-0.5,0.1-0.9,0.2-1.1,0.2
			s-0.4,0.2-0.5,0.4c-0.1,0.2-0.2,0.4-0.2,0.6c0,0.3,0.1,0.6,0.4,0.8c0.2,0.2,0.6,0.3,1.1,0.3c0.5,0,0.9-0.1,1.3-0.3
			c0.4-0.2,0.6-0.5,0.8-0.9c0.1-0.3,0.2-0.7,0.2-1.2V55.8z"/>
	</g>
	<g id="XMLID_144_">
		<path id="XMLID_145_" d="M85.7,81.2l1.3,0.2c-0.2,0.7-0.6,1.3-1.1,1.7s-1.2,0.6-2.1,0.6c-1.1,0-1.9-0.3-2.5-1
			c-0.6-0.7-0.9-1.6-0.9-2.8c0-1.2,0.3-2.2,0.9-2.8s1.4-1,2.4-1c1,0,1.8,0.3,2.4,1s0.9,1.6,0.9,2.8c0,0.1,0,0.2,0,0.3h-5.4
			c0,0.8,0.3,1.4,0.7,1.8s0.9,0.6,1.5,0.6c0.5,0,0.8-0.1,1.2-0.4C85.2,82.1,85.5,81.7,85.7,81.2z M81.6,79.2h4.1
			c-0.1-0.6-0.2-1.1-0.5-1.4c-0.4-0.5-0.9-0.7-1.5-0.7c-0.6,0-1,0.2-1.4,0.6C81.9,78.1,81.7,78.6,81.6,79.2z"/>
		<path id="XMLID_148_" d="M88,81.4l1.2-0.2c0.1,0.5,0.3,0.9,0.6,1.1c0.3,0.3,0.7,0.4,1.3,0.4c0.6,0,1-0.1,1.3-0.3
			c0.3-0.2,0.4-0.5,0.4-0.8c0-0.3-0.1-0.5-0.4-0.7c-0.2-0.1-0.6-0.2-1.3-0.4c-0.9-0.2-1.5-0.4-1.9-0.6c-0.3-0.2-0.6-0.4-0.8-0.7
			c-0.2-0.3-0.3-0.6-0.3-1c0-0.3,0.1-0.6,0.2-0.9c0.1-0.3,0.4-0.5,0.6-0.7c0.2-0.1,0.5-0.3,0.8-0.4c0.3-0.1,0.7-0.1,1.1-0.1
			c0.6,0,1.1,0.1,1.5,0.2c0.4,0.2,0.7,0.4,1,0.7c0.2,0.3,0.3,0.7,0.4,1.1l-1.2,0.2c-0.1-0.4-0.2-0.7-0.5-0.9
			c-0.3-0.2-0.6-0.3-1.1-0.3c-0.6,0-1,0.1-1.2,0.3s-0.4,0.4-0.4,0.7c0,0.2,0,0.3,0.2,0.4c0.1,0.1,0.3,0.2,0.5,0.3
			c0.1,0,0.5,0.2,1.1,0.3c0.9,0.2,1.5,0.4,1.8,0.6c0.3,0.1,0.6,0.4,0.8,0.6c0.2,0.3,0.3,0.6,0.3,1.1c0,0.4-0.1,0.8-0.4,1.2
			c-0.2,0.4-0.6,0.6-1,0.8c-0.5,0.2-1,0.3-1.5,0.3c-0.9,0-1.7-0.2-2.2-0.6C88.4,82.7,88.1,82.1,88,81.4z"/>
		<path id="XMLID_150_" d="M98.2,82.4l0.2,1.1c-0.3,0.1-0.7,0.1-0.9,0.1c-0.4,0-0.8-0.1-1-0.2c-0.2-0.1-0.4-0.3-0.5-0.6
			c-0.1-0.2-0.2-0.7-0.2-1.5v-4.2h-0.9v-1h0.9v-1.8l1.2-0.7v2.5h1.2v1h-1.2v4.2c0,0.3,0,0.6,0.1,0.7c0,0.1,0.1,0.2,0.2,0.2
			c0.1,0.1,0.2,0.1,0.4,0.1C97.8,82.5,97.9,82.5,98.2,82.4z"/>
		<path id="XMLID_152_" d="M104.1,83.5v-1.1c-0.6,0.8-1.3,1.2-2.3,1.2c-0.4,0-0.8-0.1-1.2-0.2c-0.4-0.2-0.6-0.4-0.8-0.6
			c-0.2-0.2-0.3-0.6-0.4-0.9c0-0.2-0.1-0.6-0.1-1.1v-4.5h1.2v4c0,0.6,0,1.1,0.1,1.3c0.1,0.3,0.2,0.6,0.5,0.8
			c0.3,0.2,0.6,0.3,0.9,0.3s0.7-0.1,1-0.3c0.3-0.2,0.6-0.4,0.7-0.8c0.1-0.3,0.2-0.8,0.2-1.4v-3.9h1.2v7.3H104.1z"/>
		<path id="XMLID_154_" d="M111.9,83.5v-0.9c-0.5,0.7-1.1,1.1-2,1.1c-0.6,0-1.1-0.2-1.6-0.5c-0.5-0.3-0.9-0.8-1.1-1.3
			c-0.3-0.6-0.4-1.2-0.4-2c0-0.7,0.1-1.4,0.4-2c0.2-0.6,0.6-1,1.1-1.4s1-0.5,1.6-0.5c0.4,0,0.8,0.1,1.2,0.3c0.3,0.2,0.6,0.4,0.8,0.7
			v-3.6h1.2v10H111.9z M108,79.9c0,0.9,0.2,1.6,0.6,2.1c0.4,0.5,0.9,0.7,1.4,0.7c0.5,0,1-0.2,1.4-0.7c0.4-0.4,0.6-1.1,0.6-2
			c0-1-0.2-1.7-0.6-2.2c-0.4-0.5-0.9-0.7-1.4-0.7c-0.5,0-1,0.2-1.4,0.7C108.2,78.2,108,78.9,108,79.9z"/>
		<path id="XMLID_157_" d="M114.9,74.9v-1.4h1.2v1.4H114.9z M114.9,83.5v-7.3h1.2v7.3H114.9z"/>
		<path id="XMLID_160_" d="M122.8,82.6c-0.5,0.4-0.9,0.7-1.3,0.8c-0.4,0.2-0.9,0.2-1.4,0.2c-0.8,0-1.4-0.2-1.8-0.6
			c-0.4-0.4-0.6-0.9-0.6-1.5c0-0.4,0.1-0.7,0.2-1c0.2-0.3,0.4-0.5,0.6-0.7c0.3-0.2,0.6-0.3,0.9-0.4c0.2-0.1,0.6-0.1,1.1-0.2
			c1-0.1,1.7-0.3,2.2-0.4c0-0.2,0-0.3,0-0.3c0-0.5-0.1-0.9-0.3-1.1c-0.3-0.3-0.8-0.4-1.4-0.4c-0.6,0-1,0.1-1.3,0.3
			c-0.3,0.2-0.5,0.6-0.6,1.1l-1.2-0.2c0.1-0.5,0.3-0.9,0.5-1.2c0.3-0.3,0.6-0.6,1.1-0.7c0.5-0.2,1-0.3,1.6-0.3
			c0.6,0,1.1,0.1,1.5,0.2s0.7,0.3,0.9,0.6c0.2,0.2,0.3,0.5,0.4,0.8c0,0.2,0.1,0.6,0.1,1.1v1.6c0,1.1,0,1.9,0.1,2.2
			c0.1,0.3,0.2,0.6,0.3,0.9H123C122.9,83.3,122.8,83,122.8,82.6z M122.7,79.9c-0.4,0.2-1.1,0.3-2,0.5c-0.5,0.1-0.9,0.2-1.1,0.2
			c-0.2,0.1-0.4,0.2-0.5,0.4c-0.1,0.2-0.2,0.4-0.2,0.6c0,0.3,0.1,0.6,0.4,0.8c0.2,0.2,0.6,0.3,1.1,0.3c0.5,0,0.9-0.1,1.3-0.3
			c0.4-0.2,0.6-0.5,0.8-0.8c0.1-0.3,0.2-0.7,0.2-1.2V79.9z"/>
	</g>
	<g id="XMLID_88_">
		<path id="XMLID_89_" d="M259.8,26.8v-7.3h1.1v1c0.2-0.4,0.5-0.6,0.9-0.9c0.4-0.2,0.8-0.3,1.3-0.3c0.5,0,1,0.1,1.3,0.3
			c0.3,0.2,0.6,0.5,0.7,0.9c0.6-0.8,1.3-1.3,2.2-1.3c0.7,0,1.3,0.2,1.7,0.6c0.4,0.4,0.6,1,0.6,1.8v5h-1.2v-4.6c0-0.5,0-0.8-0.1-1.1
			c-0.1-0.2-0.2-0.4-0.4-0.5s-0.5-0.2-0.7-0.2c-0.5,0-0.9,0.2-1.3,0.5c-0.3,0.3-0.5,0.9-0.5,1.6v4.2h-1.2v-4.7c0-0.5-0.1-1-0.3-1.2
			s-0.5-0.4-1-0.4c-0.3,0-0.7,0.1-1,0.3c-0.3,0.2-0.5,0.4-0.6,0.8s-0.2,0.9-0.2,1.5v3.8H259.8z"/>
		<path id="XMLID_91_" d="M276.2,25.9c-0.5,0.4-0.9,0.7-1.3,0.8c-0.4,0.2-0.9,0.2-1.4,0.2c-0.8,0-1.4-0.2-1.8-0.6
			c-0.4-0.4-0.6-0.9-0.6-1.5c0-0.4,0.1-0.7,0.2-1c0.2-0.3,0.4-0.5,0.6-0.7c0.3-0.2,0.6-0.3,0.9-0.4c0.2-0.1,0.6-0.1,1.1-0.2
			c1-0.1,1.7-0.3,2.2-0.4c0-0.2,0-0.3,0-0.3c0-0.5-0.1-0.9-0.3-1.1c-0.3-0.3-0.8-0.4-1.4-0.4c-0.6,0-1,0.1-1.3,0.3
			c-0.3,0.2-0.5,0.6-0.6,1.1l-1.2-0.2c0.1-0.5,0.3-0.9,0.5-1.2c0.3-0.3,0.6-0.6,1.1-0.7c0.5-0.2,1-0.3,1.6-0.3
			c0.6,0,1.1,0.1,1.5,0.2s0.7,0.3,0.9,0.6c0.2,0.2,0.3,0.5,0.4,0.8c0,0.2,0.1,0.6,0.1,1.1v1.6c0,1.1,0,1.9,0.1,2.2
			c0.1,0.3,0.2,0.6,0.3,0.9h-1.3C276.3,26.6,276.2,26.3,276.2,25.9z M276.1,23.2c-0.4,0.2-1.1,0.3-2,0.5c-0.5,0.1-0.9,0.2-1.1,0.2
			s-0.4,0.2-0.5,0.4c-0.1,0.2-0.2,0.4-0.2,0.6c0,0.3,0.1,0.6,0.4,0.8c0.2,0.2,0.6,0.3,1.1,0.3c0.5,0,0.9-0.1,1.3-0.3
			c0.4-0.2,0.6-0.5,0.8-0.9c0.1-0.3,0.2-0.7,0.2-1.2V23.2z"/>
		<path id="XMLID_94_" d="M281.9,25.7l0.2,1.1c-0.3,0.1-0.7,0.1-0.9,0.1c-0.4,0-0.8-0.1-1-0.2s-0.4-0.3-0.5-0.6
			c-0.1-0.2-0.2-0.7-0.2-1.5v-4.2h-0.9v-1h0.9v-1.8l1.2-0.7v2.5h1.2v1h-1.2v4.2c0,0.4,0,0.6,0.1,0.7c0,0.1,0.1,0.2,0.2,0.2
			c0.1,0.1,0.2,0.1,0.4,0.1C281.5,25.8,281.7,25.8,281.9,25.7z"/>
		<path id="XMLID_96_" d="M288.1,24.5l1.3,0.2c-0.2,0.7-0.6,1.3-1.1,1.7S287,27,286.2,27c-1.1,0-1.9-0.3-2.5-1
			c-0.6-0.7-0.9-1.6-0.9-2.8c0-1.2,0.3-2.2,0.9-2.8s1.4-1,2.4-1c1,0,1.8,0.3,2.4,1s0.9,1.6,0.9,2.8c0,0.1,0,0.2,0,0.3H284
			c0,0.8,0.3,1.4,0.7,1.8s0.9,0.6,1.5,0.6c0.5,0,0.8-0.1,1.2-0.4S287.9,25,288.1,24.5z M284.1,22.5h4.1c-0.1-0.6-0.2-1.1-0.5-1.4
			c-0.4-0.5-0.9-0.7-1.5-0.7c-0.6,0-1,0.2-1.4,0.6C284.3,21.4,284.1,21.9,284.1,22.5z"/>
		<path id="XMLID_99_" d="M290.9,26.8v-7.3h1.1v1c0.2-0.4,0.5-0.6,0.9-0.9c0.4-0.2,0.8-0.3,1.3-0.3c0.5,0,1,0.1,1.3,0.3
			c0.3,0.2,0.6,0.5,0.7,0.9c0.6-0.8,1.3-1.3,2.2-1.3c0.7,0,1.3,0.2,1.7,0.6c0.4,0.4,0.6,1,0.6,1.8v5h-1.2v-4.6c0-0.5,0-0.8-0.1-1.1
			c-0.1-0.2-0.2-0.4-0.4-0.5s-0.5-0.2-0.7-0.2c-0.5,0-0.9,0.2-1.3,0.5c-0.3,0.3-0.5,0.9-0.5,1.6v4.2h-1.2v-4.7c0-0.5-0.1-1-0.3-1.2
			s-0.5-0.4-1-0.4c-0.3,0-0.7,0.1-1,0.3c-0.3,0.2-0.5,0.4-0.6,0.8s-0.2,0.9-0.2,1.5v3.8H290.9z"/>
		<path id="XMLID_101_" d="M307.3,25.9c-0.5,0.4-0.9,0.7-1.3,0.8c-0.4,0.2-0.9,0.2-1.4,0.2c-0.8,0-1.4-0.2-1.8-0.6
			c-0.4-0.4-0.6-0.9-0.6-1.5c0-0.4,0.1-0.7,0.2-1c0.2-0.3,0.4-0.5,0.6-0.7c0.3-0.2,0.6-0.3,0.9-0.4c0.2-0.1,0.6-0.1,1.1-0.2
			c1-0.1,1.7-0.3,2.2-0.4c0-0.2,0-0.3,0-0.3c0-0.5-0.1-0.9-0.3-1.1c-0.3-0.3-0.8-0.4-1.4-0.4c-0.6,0-1,0.1-1.3,0.3
			c-0.3,0.2-0.5,0.6-0.6,1.1l-1.2-0.2c0.1-0.5,0.3-0.9,0.5-1.2c0.3-0.3,0.6-0.6,1.1-0.7c0.5-0.2,1-0.3,1.6-0.3
			c0.6,0,1.1,0.1,1.5,0.2s0.7,0.3,0.9,0.6c0.2,0.2,0.3,0.5,0.4,0.8c0,0.2,0.1,0.6,0.1,1.1v1.6c0,1.1,0,1.9,0.1,2.2
			c0.1,0.3,0.2,0.6,0.3,0.9h-1.3C307.4,26.6,307.3,26.3,307.3,25.9z M307.2,23.2c-0.4,0.2-1.1,0.3-2,0.5c-0.5,0.1-0.9,0.2-1.1,0.2
			s-0.4,0.2-0.5,0.4c-0.1,0.2-0.2,0.4-0.2,0.6c0,0.3,0.1,0.6,0.4,0.8c0.2,0.2,0.6,0.3,1.1,0.3c0.5,0,0.9-0.1,1.3-0.3
			c0.4-0.2,0.6-0.5,0.8-0.9c0.1-0.3,0.2-0.7,0.2-1.2V23.2z"/>
		<path id="XMLID_104_" d="M313,25.7l0.2,1.1c-0.3,0.1-0.7,0.1-0.9,0.1c-0.4,0-0.8-0.1-1-0.2s-0.4-0.3-0.5-0.6
			c-0.1-0.2-0.2-0.7-0.2-1.5v-4.2h-0.9v-1h0.9v-1.8l1.2-0.7v2.5h1.2v1h-1.2v4.2c0,0.4,0,0.6,0.1,0.7c0,0.1,0.1,0.2,0.2,0.2
			c0.1,0.1,0.2,0.1,0.4,0.1C312.6,25.8,312.8,25.8,313,25.7z"/>
		<path id="XMLID_106_" d="M314.3,18.2v-1.4h1.2v1.4H314.3z M314.3,26.8v-7.3h1.2v7.3H314.3z"/>
		<path id="XMLID_109_" d="M322.1,24.2l1.2,0.2c-0.1,0.8-0.5,1.5-1,2c-0.5,0.5-1.2,0.7-2,0.7c-1,0-1.8-0.3-2.4-1
			c-0.6-0.6-0.9-1.6-0.9-2.8c0-0.8,0.1-1.5,0.4-2.1s0.7-1,1.2-1.3c0.5-0.3,1.1-0.4,1.7-0.4c0.8,0,1.4,0.2,1.9,0.6
			c0.5,0.4,0.8,1,1,1.7l-1.2,0.2c-0.1-0.5-0.3-0.9-0.6-1.1c-0.3-0.2-0.6-0.4-1-0.4c-0.6,0-1.1,0.2-1.5,0.7c-0.4,0.4-0.6,1.1-0.6,2.1
			c0,1,0.2,1.7,0.6,2.1s0.9,0.7,1.5,0.7c0.5,0,0.9-0.1,1.2-0.4S322,24.8,322.1,24.2z"/>
		<path id="XMLID_111_" d="M329.1,25.9c-0.5,0.4-0.9,0.7-1.3,0.8c-0.4,0.2-0.9,0.2-1.4,0.2c-0.8,0-1.4-0.2-1.8-0.6
			c-0.4-0.4-0.6-0.9-0.6-1.5c0-0.4,0.1-0.7,0.2-1c0.2-0.3,0.4-0.5,0.6-0.7c0.3-0.2,0.6-0.3,0.9-0.4c0.2-0.1,0.6-0.1,1.1-0.2
			c1-0.1,1.7-0.3,2.2-0.4c0-0.2,0-0.3,0-0.3c0-0.5-0.1-0.9-0.3-1.1c-0.3-0.3-0.8-0.4-1.4-0.4c-0.6,0-1,0.1-1.3,0.3
			c-0.3,0.2-0.5,0.6-0.6,1.1l-1.2-0.2c0.1-0.5,0.3-0.9,0.5-1.2c0.3-0.3,0.6-0.6,1.1-0.7c0.5-0.2,1-0.3,1.6-0.3
			c0.6,0,1.1,0.1,1.5,0.2s0.7,0.3,0.9,0.6c0.2,0.2,0.3,0.5,0.4,0.8c0,0.2,0.1,0.6,0.1,1.1v1.6c0,1.1,0,1.9,0.1,2.2
			c0.1,0.3,0.2,0.6,0.3,0.9h-1.3C329.2,26.6,329.1,26.3,329.1,25.9z M329,23.2c-0.4,0.2-1.1,0.3-2,0.5c-0.5,0.1-0.9,0.2-1.1,0.2
			s-0.4,0.2-0.5,0.4c-0.1,0.2-0.2,0.4-0.2,0.6c0,0.3,0.1,0.6,0.4,0.8c0.2,0.2,0.6,0.3,1.1,0.3c0.5,0,0.9-0.1,1.3-0.3
			c0.4-0.2,0.6-0.5,0.8-0.9c0.1-0.3,0.2-0.7,0.2-1.2V23.2z"/>
		<path id="XMLID_114_" d="M331.7,24.7l1.2-0.2c0.1,0.5,0.3,0.9,0.6,1.1c0.3,0.3,0.7,0.4,1.3,0.4c0.6,0,1-0.1,1.3-0.3
			c0.3-0.2,0.4-0.5,0.4-0.8c0-0.3-0.1-0.5-0.4-0.7c-0.2-0.1-0.6-0.2-1.3-0.4c-0.9-0.2-1.5-0.4-1.9-0.6c-0.3-0.2-0.6-0.4-0.8-0.7
			c-0.2-0.3-0.3-0.6-0.3-1c0-0.3,0.1-0.6,0.2-0.9c0.1-0.3,0.4-0.5,0.6-0.7c0.2-0.1,0.5-0.3,0.8-0.4c0.3-0.1,0.7-0.1,1.1-0.1
			c0.6,0,1.1,0.1,1.5,0.2c0.4,0.2,0.7,0.4,1,0.7c0.2,0.3,0.3,0.7,0.4,1.1l-1.2,0.2c-0.1-0.4-0.2-0.7-0.5-0.9
			c-0.3-0.2-0.6-0.3-1.1-0.3c-0.6,0-1,0.1-1.2,0.3s-0.4,0.4-0.4,0.7c0,0.2,0,0.3,0.2,0.4c0.1,0.1,0.3,0.2,0.5,0.3
			c0.1,0,0.5,0.2,1.1,0.3c0.9,0.2,1.5,0.4,1.8,0.6c0.3,0.1,0.6,0.4,0.8,0.6s0.3,0.6,0.3,1.1c0,0.4-0.1,0.8-0.4,1.2
			c-0.2,0.4-0.6,0.6-1,0.8c-0.5,0.2-1,0.3-1.5,0.3c-0.9,0-1.7-0.2-2.2-0.6C332.1,26,331.8,25.4,331.7,24.7z"/>
		<path id="XMLID_116_" d="M339.5,21v-1.4h1.4V21H339.5z M339.5,26.8v-1.4h1.4v1.4H339.5z"/>
		<path id="XMLID_119_" d="M342.1,26.8l3.8-10h1.4l4.1,10H350l-1.2-3h-4.2l-1.1,3H342.1z M345,22.7h3.4l-1-2.8
			c-0.3-0.8-0.6-1.5-0.7-2.1c-0.1,0.6-0.3,1.3-0.5,1.9L345,22.7z"/>
		<path id="XMLID_122_" d="M351.9,24.7l1.2-0.2c0.1,0.5,0.3,0.9,0.6,1.1c0.3,0.3,0.7,0.4,1.3,0.4c0.6,0,1-0.1,1.3-0.3
			c0.3-0.2,0.4-0.5,0.4-0.8c0-0.3-0.1-0.5-0.4-0.7c-0.2-0.1-0.6-0.2-1.3-0.4c-0.9-0.2-1.5-0.4-1.9-0.6c-0.3-0.2-0.6-0.4-0.8-0.7
			c-0.2-0.3-0.3-0.6-0.3-1c0-0.3,0.1-0.6,0.2-0.9c0.1-0.3,0.4-0.5,0.6-0.7c0.2-0.1,0.5-0.3,0.8-0.4c0.3-0.1,0.7-0.1,1.1-0.1
			c0.6,0,1.1,0.1,1.5,0.2c0.4,0.2,0.7,0.4,1,0.7c0.2,0.3,0.3,0.7,0.4,1.1l-1.2,0.2c-0.1-0.4-0.2-0.7-0.5-0.9
			c-0.3-0.2-0.6-0.3-1.1-0.3c-0.6,0-1,0.1-1.2,0.3s-0.4,0.4-0.4,0.7c0,0.2,0,0.3,0.2,0.4c0.1,0.1,0.3,0.2,0.5,0.3
			c0.1,0,0.5,0.2,1.1,0.3c0.9,0.2,1.5,0.4,1.8,0.6c0.3,0.1,0.6,0.4,0.8,0.6s0.3,0.6,0.3,1.1c0,0.4-0.1,0.8-0.4,1.2
			c-0.2,0.4-0.6,0.6-1,0.8c-0.5,0.2-1,0.3-1.5,0.3c-0.9,0-1.7-0.2-2.2-0.6C352.3,26,352,25.4,351.9,24.7z"/>
		<path id="XMLID_124_" d="M359.4,18.2v-1.4h1.2v1.4H359.4z M359.4,26.8v-7.3h1.2v7.3H359.4z"/>
		<path id="XMLID_127_" d="M362.3,27.4l1.2,0.2c0,0.4,0.2,0.6,0.4,0.8c0.3,0.2,0.7,0.3,1.3,0.3c0.6,0,1-0.1,1.3-0.3s0.5-0.5,0.6-1
			c0.1-0.3,0.1-0.8,0.1-1.6c-0.5,0.6-1.2,1-2,1c-1,0-1.8-0.4-2.3-1.1s-0.8-1.6-0.8-2.6c0-0.7,0.1-1.3,0.4-1.9c0.3-0.6,0.6-1,1.1-1.4
			c0.5-0.3,1-0.5,1.7-0.5c0.9,0,1.6,0.3,2.1,1v-0.9h1.1v6.3c0,1.1-0.1,1.9-0.3,2.4c-0.2,0.5-0.6,0.8-1.1,1.1
			c-0.5,0.3-1.1,0.4-1.8,0.4c-0.9,0-1.6-0.2-2.1-0.6C362.5,28.8,362.2,28.2,362.3,27.4z M363.3,23.1c0,1,0.2,1.6,0.6,2.1
			s0.9,0.7,1.4,0.7c0.6,0,1-0.2,1.4-0.7c0.4-0.4,0.6-1.1,0.6-2c0-0.9-0.2-1.6-0.6-2c-0.4-0.5-0.9-0.7-1.4-0.7c-0.5,0-1,0.2-1.4,0.7
			C363.5,21.5,363.3,22.2,363.3,23.1z"/>
		<path id="XMLID_130_" d="M370.3,26.8v-7.3h1.1v1c0.5-0.8,1.3-1.2,2.3-1.2c0.4,0,0.8,0.1,1.2,0.2c0.4,0.2,0.6,0.4,0.8,0.6
			s0.3,0.6,0.4,0.9c0,0.2,0.1,0.6,0.1,1.2v4.5h-1.2v-4.4c0-0.5,0-0.9-0.1-1.1c-0.1-0.2-0.3-0.4-0.5-0.6c-0.2-0.1-0.5-0.2-0.9-0.2
			c-0.5,0-1,0.2-1.4,0.5c-0.4,0.3-0.6,1-0.6,1.9v4H370.3z"/>
		<path id="XMLID_132_" d="M382.8,25.9c-0.5,0.4-0.9,0.7-1.3,0.8c-0.4,0.2-0.9,0.2-1.4,0.2c-0.8,0-1.4-0.2-1.8-0.6
			c-0.4-0.4-0.6-0.9-0.6-1.5c0-0.4,0.1-0.7,0.2-1c0.2-0.3,0.4-0.5,0.6-0.7c0.3-0.2,0.6-0.3,0.9-0.4c0.2-0.1,0.6-0.1,1.1-0.2
			c1-0.1,1.7-0.3,2.2-0.4c0-0.2,0-0.3,0-0.3c0-0.5-0.1-0.9-0.3-1.1c-0.3-0.3-0.8-0.4-1.4-0.4c-0.6,0-1,0.1-1.3,0.3
			c-0.3,0.2-0.5,0.6-0.6,1.1l-1.2-0.2c0.1-0.5,0.3-0.9,0.5-1.2c0.3-0.3,0.6-0.6,1.1-0.7c0.5-0.2,1-0.3,1.6-0.3
			c0.6,0,1.1,0.1,1.5,0.2s0.7,0.3,0.9,0.6c0.2,0.2,0.3,0.5,0.4,0.8c0,0.2,0.1,0.6,0.1,1.1v1.6c0,1.1,0,1.9,0.1,2.2
			c0.1,0.3,0.2,0.6,0.3,0.9H383C382.9,26.6,382.8,26.3,382.8,25.9z M382.7,23.2c-0.4,0.2-1.1,0.3-2,0.5c-0.5,0.1-0.9,0.2-1.1,0.2
			s-0.4,0.2-0.5,0.4c-0.1,0.2-0.2,0.4-0.2,0.6c0,0.3,0.1,0.6,0.4,0.8c0.2,0.2,0.6,0.3,1.1,0.3c0.5,0,0.9-0.1,1.3-0.3
			c0.4-0.2,0.6-0.5,0.8-0.9c0.1-0.3,0.2-0.7,0.2-1.2V23.2z"/>
		<path id="XMLID_135_" d="M388.5,25.7l0.2,1.1c-0.3,0.1-0.7,0.1-0.9,0.1c-0.4,0-0.8-0.1-1-0.2s-0.4-0.3-0.5-0.6
			c-0.1-0.2-0.2-0.7-0.2-1.5v-4.2h-0.9v-1h0.9v-1.8l1.2-0.7v2.5h1.2v1h-1.2v4.2c0,0.4,0,0.6,0.1,0.7c0,0.1,0.1,0.2,0.2,0.2
			c0.1,0.1,0.2,0.1,0.4,0.1C388.1,25.8,388.3,25.8,388.5,25.7z"/>
		<path id="XMLID_137_" d="M394.5,26.8v-1.1c-0.6,0.8-1.3,1.2-2.3,1.2c-0.4,0-0.8-0.1-1.2-0.2c-0.4-0.2-0.6-0.4-0.8-0.6
			c-0.2-0.2-0.3-0.6-0.4-0.9c0-0.2-0.1-0.6-0.1-1.1v-4.5h1.2v4c0,0.6,0,1.1,0.1,1.3c0.1,0.3,0.2,0.6,0.5,0.8
			c0.3,0.2,0.6,0.3,0.9,0.3s0.7-0.1,1-0.3c0.3-0.2,0.6-0.4,0.7-0.8c0.1-0.3,0.2-0.8,0.2-1.4v-3.9h1.2v7.3H394.5z"/>
		<path id="XMLID_139_" d="M397.5,26.8v-7.3h1.1v1.1c0.3-0.5,0.5-0.9,0.8-1c0.2-0.2,0.5-0.2,0.8-0.2c0.4,0,0.8,0.1,1.3,0.4l-0.4,1.1
			c-0.3-0.2-0.6-0.3-0.9-0.3c-0.3,0-0.5,0.1-0.7,0.2c-0.2,0.2-0.4,0.4-0.5,0.7c-0.1,0.4-0.2,0.9-0.2,1.4v3.8H397.5z"/>
		<path id="XMLID_141_" d="M406.9,25.9c-0.5,0.4-0.9,0.7-1.3,0.8c-0.4,0.2-0.9,0.2-1.4,0.2c-0.8,0-1.4-0.2-1.8-0.6
			c-0.4-0.4-0.6-0.9-0.6-1.5c0-0.4,0.1-0.7,0.2-1c0.2-0.3,0.4-0.5,0.6-0.7c0.3-0.2,0.6-0.3,0.9-0.4c0.2-0.1,0.6-0.1,1.1-0.2
			c1-0.1,1.7-0.3,2.2-0.4c0-0.2,0-0.3,0-0.3c0-0.5-0.1-0.9-0.3-1.1c-0.3-0.3-0.8-0.4-1.4-0.4c-0.6,0-1,0.1-1.3,0.3
			c-0.3,0.2-0.5,0.6-0.6,1.1l-1.2-0.2c0.1-0.5,0.3-0.9,0.5-1.2c0.3-0.3,0.6-0.6,1.1-0.7c0.5-0.2,1-0.3,1.6-0.3
			c0.6,0,1.1,0.1,1.5,0.2s0.7,0.3,0.9,0.6c0.2,0.2,0.3,0.5,0.4,0.8c0,0.2,0.1,0.6,0.1,1.1v1.6c0,1.1,0,1.9,0.1,2.2
			c0.1,0.3,0.2,0.6,0.3,0.9h-1.3C407,26.6,407,26.3,406.9,25.9z M406.8,23.2c-0.4,0.2-1.1,0.3-2,0.5c-0.5,0.1-0.9,0.2-1.1,0.2
			s-0.4,0.2-0.5,0.4c-0.1,0.2-0.2,0.4-0.2,0.6c0,0.3,0.1,0.6,0.4,0.8c0.2,0.2,0.6,0.3,1.1,0.3c0.5,0,0.9-0.1,1.3-0.3
			c0.4-0.2,0.6-0.5,0.8-0.9c0.1-0.3,0.2-0.7,0.2-1.2V23.2z"/>
	</g>
	<g id="XMLID_49_">
		<path id="XMLID_50_" d="M107.2,134.7c-0.5,0.4-0.9,0.7-1.3,0.8c-0.4,0.2-0.9,0.2-1.4,0.2c-0.8,0-1.4-0.2-1.8-0.6
			c-0.4-0.4-0.6-0.9-0.6-1.5c0-0.4,0.1-0.7,0.2-1c0.2-0.3,0.4-0.5,0.6-0.7c0.3-0.2,0.6-0.3,0.9-0.4c0.2-0.1,0.6-0.1,1.1-0.2
			c1-0.1,1.7-0.3,2.2-0.4c0-0.2,0-0.3,0-0.3c0-0.5-0.1-0.9-0.3-1.1c-0.3-0.3-0.8-0.4-1.4-0.4c-0.6,0-1,0.1-1.3,0.3
			c-0.3,0.2-0.5,0.6-0.6,1.1l-1.2-0.2c0.1-0.5,0.3-0.9,0.5-1.2c0.3-0.3,0.6-0.6,1.1-0.7c0.5-0.2,1-0.3,1.6-0.3
			c0.6,0,1.1,0.1,1.5,0.2s0.7,0.3,0.9,0.6c0.2,0.2,0.3,0.5,0.4,0.8c0,0.2,0.1,0.6,0.1,1.1v1.6c0,1.1,0,1.9,0.1,2.2
			c0.1,0.3,0.2,0.6,0.3,0.9h-1.3C107.3,135.3,107.2,135,107.2,134.7z M107,131.9c-0.4,0.2-1.1,0.3-2,0.5c-0.5,0.1-0.9,0.2-1.1,0.2
			s-0.4,0.2-0.5,0.4c-0.1,0.2-0.2,0.4-0.2,0.6c0,0.3,0.1,0.6,0.4,0.8c0.2,0.2,0.6,0.3,1.1,0.3c0.5,0,0.9-0.1,1.3-0.3
			c0.4-0.2,0.6-0.5,0.8-0.9c0.1-0.3,0.2-0.7,0.2-1.2V131.9z"/>
		<path id="XMLID_53_" d="M110.2,135.6v-7.3h1.1v1.1c0.3-0.5,0.5-0.9,0.8-1c0.2-0.2,0.5-0.2,0.8-0.2c0.4,0,0.8,0.1,1.3,0.4l-0.4,1.1
			c-0.3-0.2-0.6-0.3-0.9-0.3c-0.3,0-0.5,0.1-0.7,0.2c-0.2,0.2-0.4,0.4-0.5,0.7c-0.1,0.4-0.2,0.9-0.2,1.4v3.8H110.2z"/>
		<path id="XMLID_55_" d="M117.5,134.5l0.2,1.1c-0.3,0.1-0.7,0.1-0.9,0.1c-0.4,0-0.8-0.1-1-0.2s-0.4-0.3-0.5-0.6
			c-0.1-0.2-0.2-0.7-0.2-1.5v-4.2h-0.9v-1h0.9v-1.8l1.2-0.7v2.5h1.2v1h-1.2v4.2c0,0.4,0,0.6,0.1,0.7c0,0.1,0.1,0.2,0.2,0.2
			c0.1,0.1,0.2,0.1,0.4,0.1C117.1,134.5,117.3,134.5,117.5,134.5z"/>
		<path id="XMLID_57_" d="M123.7,133.2l1.3,0.2c-0.2,0.7-0.6,1.3-1.1,1.7s-1.2,0.6-2.1,0.6c-1.1,0-1.9-0.3-2.5-1
			c-0.6-0.7-0.9-1.6-0.9-2.8c0-1.2,0.3-2.2,0.9-2.8s1.4-1,2.4-1c1,0,1.8,0.3,2.4,1s0.9,1.6,0.9,2.8c0,0.1,0,0.2,0,0.3h-5.4
			c0,0.8,0.3,1.4,0.7,1.8s0.9,0.6,1.5,0.6c0.5,0,0.8-0.1,1.2-0.4S123.5,133.8,123.7,133.2z M119.7,131.3h4.1
			c-0.1-0.6-0.2-1.1-0.5-1.4c-0.4-0.5-0.9-0.7-1.5-0.7c-0.6,0-1,0.2-1.4,0.6C119.9,130.1,119.7,130.6,119.7,131.3z"/>
		<path id="XMLID_60_" d="M126.9,129.7v-1.4h1.4v1.4H126.9z M126.9,135.6v-1.4h1.4v1.4H126.9z"/>
		<path id="XMLID_63_" d="M129.5,135.6l3.8-10h1.4l4.1,10h-1.5l-1.2-3H132l-1.1,3H129.5z M132.4,131.5h3.4l-1-2.8
			c-0.3-0.8-0.6-1.5-0.7-2.1c-0.1,0.6-0.3,1.3-0.5,1.9L132.4,131.5z"/>
		<path id="XMLID_66_" d="M139.3,133.4l1.2-0.2c0.1,0.5,0.3,0.9,0.6,1.1c0.3,0.3,0.7,0.4,1.3,0.4c0.6,0,1-0.1,1.3-0.3
			c0.3-0.2,0.4-0.5,0.4-0.8c0-0.3-0.1-0.5-0.4-0.7c-0.2-0.1-0.6-0.2-1.3-0.4c-0.9-0.2-1.5-0.4-1.9-0.6c-0.3-0.2-0.6-0.4-0.8-0.7
			c-0.2-0.3-0.3-0.6-0.3-1c0-0.3,0.1-0.6,0.2-0.9c0.1-0.3,0.4-0.5,0.6-0.7c0.2-0.1,0.5-0.3,0.8-0.4c0.3-0.1,0.7-0.1,1.1-0.1
			c0.6,0,1.1,0.1,1.5,0.2c0.4,0.2,0.7,0.4,1,0.7c0.2,0.3,0.3,0.7,0.4,1.1l-1.2,0.2c-0.1-0.4-0.2-0.7-0.5-0.9
			c-0.3-0.2-0.6-0.3-1.1-0.3c-0.6,0-1,0.1-1.2,0.3s-0.4,0.4-0.4,0.7c0,0.2,0,0.3,0.2,0.4c0.1,0.1,0.3,0.2,0.5,0.3
			c0.1,0,0.5,0.2,1.1,0.3c0.9,0.2,1.5,0.4,1.8,0.6c0.3,0.1,0.6,0.4,0.8,0.6s0.3,0.6,0.3,1.1c0,0.4-0.1,0.8-0.4,1.2
			c-0.2,0.4-0.6,0.6-1,0.8c-0.5,0.2-1,0.3-1.5,0.3c-0.9,0-1.7-0.2-2.2-0.6C139.7,134.8,139.4,134.2,139.3,133.4z"/>
		<path id="XMLID_68_" d="M146.8,127v-1.4h1.2v1.4H146.8z M146.8,135.6v-7.3h1.2v7.3H146.8z"/>
		<path id="XMLID_71_" d="M149.7,136.2l1.2,0.2c0,0.4,0.2,0.6,0.4,0.8c0.3,0.2,0.7,0.3,1.3,0.3c0.6,0,1-0.1,1.3-0.3s0.5-0.5,0.6-1
			c0.1-0.3,0.1-0.8,0.1-1.6c-0.5,0.6-1.2,1-2,1c-1,0-1.8-0.4-2.3-1.1s-0.8-1.6-0.8-2.6c0-0.7,0.1-1.3,0.4-1.9c0.3-0.6,0.6-1,1.1-1.4
			c0.5-0.3,1-0.5,1.7-0.5c0.9,0,1.6,0.3,2.1,1v-0.9h1.1v6.3c0,1.1-0.1,1.9-0.3,2.4c-0.2,0.5-0.6,0.8-1.1,1.1
			c-0.5,0.3-1.1,0.4-1.8,0.4c-0.9,0-1.6-0.2-2.1-0.6C149.9,137.6,149.6,137,149.7,136.2z M150.7,131.8c0,1,0.2,1.6,0.6,2.1
			s0.9,0.7,1.4,0.7c0.6,0,1-0.2,1.4-0.7c0.4-0.4,0.6-1.1,0.6-2c0-0.9-0.2-1.6-0.6-2c-0.4-0.5-0.9-0.7-1.4-0.7c-0.5,0-1,0.2-1.4,0.7
			C150.9,130.3,150.7,131,150.7,131.8z"/>
		<path id="XMLID_74_" d="M157.7,135.6v-7.3h1.1v1c0.5-0.8,1.3-1.2,2.3-1.2c0.4,0,0.8,0.1,1.2,0.2c0.4,0.2,0.6,0.4,0.8,0.6
			s0.3,0.6,0.4,0.9c0,0.2,0.1,0.6,0.1,1.2v4.5h-1.2v-4.4c0-0.5,0-0.9-0.1-1.1c-0.1-0.2-0.3-0.4-0.5-0.6c-0.2-0.1-0.5-0.2-0.9-0.2
			c-0.5,0-1,0.2-1.4,0.5c-0.4,0.3-0.6,1-0.6,1.9v4H157.7z"/>
		<path id="XMLID_76_" d="M170.2,134.7c-0.5,0.4-0.9,0.7-1.3,0.8c-0.4,0.2-0.9,0.2-1.4,0.2c-0.8,0-1.4-0.2-1.8-0.6
			c-0.4-0.4-0.6-0.9-0.6-1.5c0-0.4,0.1-0.7,0.2-1c0.2-0.3,0.4-0.5,0.6-0.7c0.3-0.2,0.6-0.3,0.9-0.4c0.2-0.1,0.6-0.1,1.1-0.2
			c1-0.1,1.7-0.3,2.2-0.4c0-0.2,0-0.3,0-0.3c0-0.5-0.1-0.9-0.3-1.1c-0.3-0.3-0.8-0.4-1.4-0.4c-0.6,0-1,0.1-1.3,0.3
			c-0.3,0.2-0.5,0.6-0.6,1.1l-1.2-0.2c0.1-0.5,0.3-0.9,0.5-1.2c0.3-0.3,0.6-0.6,1.1-0.7c0.5-0.2,1-0.3,1.6-0.3
			c0.6,0,1.1,0.1,1.5,0.2s0.7,0.3,0.9,0.6c0.2,0.2,0.3,0.5,0.4,0.8c0,0.2,0.1,0.6,0.1,1.1v1.6c0,1.1,0,1.9,0.1,2.2
			c0.1,0.3,0.2,0.6,0.3,0.9h-1.3C170.3,135.3,170.2,135,170.2,134.7z M170.1,131.9c-0.4,0.2-1.1,0.3-2,0.5c-0.5,0.1-0.9,0.2-1.1,0.2
			s-0.4,0.2-0.5,0.4c-0.1,0.2-0.2,0.4-0.2,0.6c0,0.3,0.1,0.6,0.4,0.8c0.2,0.2,0.6,0.3,1.1,0.3c0.5,0,0.9-0.1,1.3-0.3
			c0.4-0.2,0.6-0.5,0.8-0.9c0.1-0.3,0.2-0.7,0.2-1.2V131.9z"/>
		<path id="XMLID_79_" d="M175.9,134.5l0.2,1.1c-0.3,0.1-0.7,0.1-0.9,0.1c-0.4,0-0.8-0.1-1-0.2s-0.4-0.3-0.5-0.6
			c-0.1-0.2-0.2-0.7-0.2-1.5v-4.2h-0.9v-1h0.9v-1.8l1.2-0.7v2.5h1.2v1h-1.2v4.2c0,0.4,0,0.6,0.1,0.7c0,0.1,0.1,0.2,0.2,0.2
			c0.1,0.1,0.2,0.1,0.4,0.1C175.5,134.5,175.7,134.5,175.9,134.5z"/>
		<path id="XMLID_81_" d="M181.9,135.6v-1.1c-0.6,0.8-1.3,1.2-2.3,1.2c-0.4,0-0.8-0.1-1.2-0.2c-0.4-0.2-0.6-0.4-0.8-0.6
			c-0.2-0.2-0.3-0.6-0.4-0.9c0-0.2-0.1-0.6-0.1-1.1v-4.5h1.2v4c0,0.6,0,1.1,0.1,1.3c0.1,0.3,0.2,0.6,0.5,0.8
			c0.3,0.2,0.6,0.3,0.9,0.3s0.7-0.1,1-0.3c0.3-0.2,0.6-0.4,0.7-0.8c0.1-0.3,0.2-0.8,0.2-1.4v-3.9h1.2v7.3H181.9z"/>
		<path id="XMLID_83_" d="M184.9,135.6v-7.3h1.1v1.1c0.3-0.5,0.5-0.9,0.8-1c0.2-0.2,0.5-0.2,0.8-0.2c0.4,0,0.8,0.1,1.3,0.4l-0.4,1.1
			c-0.3-0.2-0.6-0.3-0.9-0.3c-0.3,0-0.5,0.1-0.7,0.2c-0.2,0.2-0.4,0.4-0.5,0.7c-0.1,0.4-0.2,0.9-0.2,1.4v3.8H184.9z"/>
		<path id="XMLID_85_" d="M194.3,134.7c-0.5,0.4-0.9,0.7-1.3,0.8c-0.4,0.2-0.9,0.2-1.4,0.2c-0.8,0-1.4-0.2-1.8-0.6
			c-0.4-0.4-0.6-0.9-0.6-1.5c0-0.4,0.1-0.7,0.2-1c0.2-0.3,0.4-0.5,0.6-0.7c0.3-0.2,0.6-0.3,0.9-0.4c0.2-0.1,0.6-0.1,1.1-0.2
			c1-0.1,1.7-0.3,2.2-0.4c0-0.2,0-0.3,0-0.3c0-0.5-0.1-0.9-0.3-1.1c-0.3-0.3-0.8-0.4-1.4-0.4c-0.6,0-1,0.1-1.3,0.3
			c-0.3,0.2-0.5,0.6-0.6,1.1l-1.2-0.2c0.1-0.5,0.3-0.9,0.5-1.2c0.3-0.3,0.6-0.6,1.1-0.7c0.5-0.2,1-0.3,1.6-0.3
			c0.6,0,1.1,0.1,1.5,0.2s0.7,0.3,0.9,0.6c0.2,0.2,0.3,0.5,0.4,0.8c0,0.2,0.1,0.6,0.1,1.1v1.6c0,1.1,0,1.9,0.1,2.2
			c0.1,0.3,0.2,0.6,0.3,0.9h-1.3C194.4,135.3,194.3,135,194.3,134.7z M194.2,131.9c-0.4,0.2-1.1,0.3-2,0.5c-0.5,0.1-0.9,0.2-1.1,0.2
			s-0.4,0.2-0.5,0.4c-0.1,0.2-0.2,0.4-0.2,0.6c0,0.3,0.1,0.6,0.4,0.8c0.2,0.2,0.6,0.3,1.1,0.3c0.5,0,0.9-0.1,1.3-0.3
			c0.4-0.2,0.6-0.5,0.8-0.9c0.1-0.3,0.2-0.7,0.2-1.2V131.9z"/>
	</g>
	<g id="XMLID_1_">
		<path id="XMLID_2_" d="M269.2,105v-1.4h1.2v1.4H269.2z M269.2,113.6v-7.3h1.2v7.3H269.2z"/>
		<path id="XMLID_5_" d="M277,113.6v-0.9c-0.5,0.7-1.1,1.1-2,1.1c-0.6,0-1.1-0.2-1.6-0.5c-0.5-0.3-0.9-0.8-1.1-1.3
			c-0.3-0.6-0.4-1.2-0.4-2c0-0.7,0.1-1.4,0.4-2c0.2-0.6,0.6-1,1.1-1.4s1-0.5,1.6-0.5c0.4,0,0.8,0.1,1.2,0.3c0.3,0.2,0.6,0.4,0.8,0.7
			v-3.6h1.2v10H277z M273.1,110c0,0.9,0.2,1.6,0.6,2.1s0.9,0.7,1.4,0.7c0.5,0,1-0.2,1.4-0.7c0.4-0.4,0.6-1.1,0.6-2
			c0-1-0.2-1.7-0.6-2.2s-0.9-0.7-1.4-0.7c-0.5,0-1,0.2-1.4,0.7C273.3,108.4,273.1,109.1,273.1,110z"/>
		<path id="XMLID_8_" d="M280.1,105v-1.4h1.2v1.4H280.1z M280.1,113.6v-7.3h1.2v7.3H280.1z"/>
		<path id="XMLID_11_" d="M282.7,110c0-1.3,0.4-2.3,1.1-3c0.6-0.5,1.4-0.8,2.3-0.8c1,0,1.8,0.3,2.4,1c0.6,0.7,1,1.6,1,2.7
			c0,0.9-0.1,1.7-0.4,2.2c-0.3,0.5-0.7,1-1.2,1.2c-0.5,0.3-1.1,0.4-1.8,0.4c-1,0-1.8-0.3-2.5-1C283,112.2,282.7,111.2,282.7,110z
			 M284,110c0,0.9,0.2,1.6,0.6,2.1c0.4,0.5,0.9,0.7,1.5,0.7c0.6,0,1.1-0.2,1.5-0.7s0.6-1.2,0.6-2.1c0-0.9-0.2-1.6-0.6-2
			c-0.4-0.5-0.9-0.7-1.5-0.7c-0.6,0-1.1,0.2-1.5,0.7S284,109.1,284,110z"/>
		<path id="XMLID_14_" d="M291,113.6v-7.3h1.1v1c0.2-0.4,0.5-0.6,0.9-0.9c0.4-0.2,0.8-0.3,1.3-0.3c0.5,0,1,0.1,1.3,0.3
			c0.3,0.2,0.6,0.5,0.7,0.9c0.6-0.8,1.3-1.3,2.2-1.3c0.7,0,1.3,0.2,1.7,0.6c0.4,0.4,0.6,1,0.6,1.8v5h-1.2v-4.6c0-0.5,0-0.8-0.1-1.1
			c-0.1-0.2-0.2-0.4-0.4-0.5s-0.5-0.2-0.7-0.2c-0.5,0-0.9,0.2-1.3,0.5c-0.3,0.3-0.5,0.9-0.5,1.6v4.2h-1.2v-4.7c0-0.5-0.1-1-0.3-1.2
			s-0.5-0.4-1-0.4c-0.3,0-0.7,0.1-1,0.3c-0.3,0.2-0.5,0.4-0.6,0.8s-0.2,0.9-0.2,1.5v3.8H291z"/>
		<path id="XMLID_16_" d="M307.4,112.7c-0.5,0.4-0.9,0.7-1.3,0.8c-0.4,0.2-0.9,0.2-1.4,0.2c-0.8,0-1.4-0.2-1.8-0.6
			c-0.4-0.4-0.6-0.9-0.6-1.5c0-0.4,0.1-0.7,0.2-1c0.2-0.3,0.4-0.5,0.6-0.7c0.3-0.2,0.6-0.3,0.9-0.4c0.2-0.1,0.6-0.1,1.1-0.2
			c1-0.1,1.7-0.3,2.2-0.4c0-0.2,0-0.3,0-0.3c0-0.5-0.1-0.9-0.3-1.1c-0.3-0.3-0.8-0.4-1.4-0.4c-0.6,0-1,0.1-1.3,0.3
			c-0.3,0.2-0.5,0.6-0.6,1.1l-1.2-0.2c0.1-0.5,0.3-0.9,0.5-1.2c0.3-0.3,0.6-0.6,1.1-0.7c0.5-0.2,1-0.3,1.6-0.3
			c0.6,0,1.1,0.1,1.5,0.2s0.7,0.3,0.9,0.6c0.2,0.2,0.3,0.5,0.4,0.8c0,0.2,0.1,0.6,0.1,1.1v1.6c0,1.1,0,1.9,0.1,2.2
			c0.1,0.3,0.2,0.6,0.3,0.9h-1.3C307.5,113.4,307.4,113.1,307.4,112.7z M307.3,110c-0.4,0.2-1.1,0.3-2,0.5c-0.5,0.1-0.9,0.2-1.1,0.2
			s-0.4,0.2-0.5,0.4c-0.1,0.2-0.2,0.4-0.2,0.6c0,0.3,0.1,0.6,0.4,0.8c0.2,0.2,0.6,0.3,1.1,0.3c0.5,0,0.9-0.1,1.3-0.3
			c0.4-0.2,0.6-0.5,0.8-0.9c0.1-0.3,0.2-0.7,0.2-1.2V110z"/>
		<path id="XMLID_19_" d="M309.9,111.5l1.2-0.2c0.1,0.5,0.3,0.9,0.6,1.1c0.3,0.3,0.7,0.4,1.3,0.4c0.6,0,1-0.1,1.3-0.3
			c0.3-0.2,0.4-0.5,0.4-0.8c0-0.3-0.1-0.5-0.4-0.7c-0.2-0.1-0.6-0.2-1.3-0.4c-0.9-0.2-1.5-0.4-1.9-0.6c-0.3-0.2-0.6-0.4-0.8-0.7
			c-0.2-0.3-0.3-0.6-0.3-1c0-0.3,0.1-0.6,0.2-0.9c0.1-0.3,0.4-0.5,0.6-0.7c0.2-0.1,0.5-0.3,0.8-0.4c0.3-0.1,0.7-0.1,1.1-0.1
			c0.6,0,1.1,0.1,1.5,0.2c0.4,0.2,0.7,0.4,1,0.7c0.2,0.3,0.3,0.7,0.4,1.1l-1.2,0.2c-0.1-0.4-0.2-0.7-0.5-0.9
			c-0.3-0.2-0.6-0.3-1.1-0.3c-0.6,0-1,0.1-1.2,0.3s-0.4,0.4-0.4,0.7c0,0.2,0,0.3,0.2,0.4c0.1,0.1,0.3,0.2,0.5,0.3
			c0.1,0,0.5,0.2,1.1,0.3c0.9,0.2,1.5,0.4,1.8,0.6c0.3,0.1,0.6,0.4,0.8,0.6s0.3,0.6,0.3,1.1c0,0.4-0.1,0.8-0.4,1.2
			c-0.2,0.4-0.6,0.6-1,0.8c-0.5,0.2-1,0.3-1.5,0.3c-0.9,0-1.7-0.2-2.2-0.6C310.4,112.8,310.1,112.2,309.9,111.5z"/>
		<path id="XMLID_21_" d="M317.8,107.8v-1.4h1.4v1.4H317.8z M317.8,113.6v-1.4h1.4v1.4H317.8z"/>
		<path id="XMLID_24_" d="M320.4,113.6l3.8-10h1.4l4.1,10h-1.5l-1.2-3h-4.2l-1.1,3H320.4z M323.2,109.5h3.4l-1-2.8
			c-0.3-0.8-0.6-1.5-0.7-2.1c-0.1,0.6-0.3,1.3-0.5,1.9L323.2,109.5z"/>
		<path id="XMLID_27_" d="M330.1,111.5l1.2-0.2c0.1,0.5,0.3,0.9,0.6,1.1c0.3,0.3,0.7,0.4,1.3,0.4c0.6,0,1-0.1,1.3-0.3
			c0.3-0.2,0.4-0.5,0.4-0.8c0-0.3-0.1-0.5-0.4-0.7c-0.2-0.1-0.6-0.2-1.3-0.4c-0.9-0.2-1.5-0.4-1.9-0.6c-0.3-0.2-0.6-0.4-0.8-0.7
			c-0.2-0.3-0.3-0.6-0.3-1c0-0.3,0.1-0.6,0.2-0.9c0.1-0.3,0.4-0.5,0.6-0.7c0.2-0.1,0.5-0.3,0.8-0.4c0.3-0.1,0.7-0.1,1.1-0.1
			c0.6,0,1.1,0.1,1.5,0.2c0.4,0.2,0.7,0.4,1,0.7c0.2,0.3,0.3,0.7,0.4,1.1l-1.2,0.2c-0.1-0.4-0.2-0.7-0.5-0.9
			c-0.3-0.2-0.6-0.3-1.1-0.3c-0.6,0-1,0.1-1.2,0.3s-0.4,0.4-0.4,0.7c0,0.2,0,0.3,0.2,0.4c0.1,0.1,0.3,0.2,0.5,0.3
			c0.1,0,0.5,0.2,1.1,0.3c0.9,0.2,1.5,0.4,1.8,0.6c0.3,0.1,0.6,0.4,0.8,0.6s0.3,0.6,0.3,1.1c0,0.4-0.1,0.8-0.4,1.2
			c-0.2,0.4-0.6,0.6-1,0.8c-0.5,0.2-1,0.3-1.5,0.3c-0.9,0-1.7-0.2-2.2-0.6C330.6,112.8,330.3,112.2,330.1,111.5z"/>
		<path id="XMLID_29_" d="M337.6,105v-1.4h1.2v1.4H337.6z M337.6,113.6v-7.3h1.2v7.3H337.6z"/>
		<path id="XMLID_32_" d="M340.5,114.2l1.2,0.2c0,0.4,0.2,0.6,0.4,0.8c0.3,0.2,0.7,0.3,1.3,0.3c0.6,0,1-0.1,1.3-0.3s0.5-0.5,0.6-1
			c0.1-0.3,0.1-0.8,0.1-1.6c-0.5,0.6-1.2,1-2,1c-1,0-1.8-0.4-2.3-1.1s-0.8-1.6-0.8-2.6c0-0.7,0.1-1.3,0.4-1.9c0.3-0.6,0.6-1,1.1-1.4
			c0.5-0.3,1-0.5,1.7-0.5c0.9,0,1.6,0.3,2.1,1v-0.9h1.1v6.3c0,1.1-0.1,1.9-0.3,2.4c-0.2,0.5-0.6,0.8-1.1,1.1
			c-0.5,0.3-1.1,0.4-1.8,0.4c-0.9,0-1.6-0.2-2.1-0.6C340.8,115.6,340.5,115,340.5,114.2z M341.5,109.9c0,1,0.2,1.6,0.6,2.1
			s0.9,0.7,1.4,0.7c0.6,0,1-0.2,1.4-0.7c0.4-0.4,0.6-1.1,0.6-2c0-0.9-0.2-1.6-0.6-2c-0.4-0.5-0.9-0.7-1.4-0.7c-0.5,0-1,0.2-1.4,0.7
			C341.7,108.3,341.5,109,341.5,109.9z"/>
		<path id="XMLID_35_" d="M348.5,113.6v-7.3h1.1v1c0.5-0.8,1.3-1.2,2.3-1.2c0.4,0,0.8,0.1,1.2,0.2c0.4,0.2,0.6,0.4,0.8,0.6
			s0.3,0.6,0.4,0.9c0,0.2,0.1,0.6,0.1,1.2v4.5h-1.2v-4.4c0-0.5,0-0.9-0.1-1.1c-0.1-0.2-0.3-0.4-0.5-0.6c-0.2-0.1-0.5-0.2-0.9-0.2
			c-0.5,0-1,0.2-1.4,0.5c-0.4,0.3-0.6,1-0.6,1.9v4H348.5z"/>
		<path id="XMLID_37_" d="M361.1,112.7c-0.5,0.4-0.9,0.7-1.3,0.8c-0.4,0.2-0.9,0.2-1.4,0.2c-0.8,0-1.4-0.2-1.8-0.6
			c-0.4-0.4-0.6-0.9-0.6-1.5c0-0.4,0.1-0.7,0.2-1c0.2-0.3,0.4-0.5,0.6-0.7c0.3-0.2,0.6-0.3,0.9-0.4c0.2-0.1,0.6-0.1,1.1-0.2
			c1-0.1,1.7-0.3,2.2-0.4c0-0.2,0-0.3,0-0.3c0-0.5-0.1-0.9-0.3-1.1c-0.3-0.3-0.8-0.4-1.4-0.4c-0.6,0-1,0.1-1.3,0.3
			c-0.3,0.2-0.5,0.6-0.6,1.1l-1.2-0.2c0.1-0.5,0.3-0.9,0.5-1.2c0.3-0.3,0.6-0.6,1.1-0.7c0.5-0.2,1-0.3,1.6-0.3
			c0.6,0,1.1,0.1,1.5,0.2s0.7,0.3,0.9,0.6c0.2,0.2,0.3,0.5,0.4,0.8c0,0.2,0.1,0.6,0.1,1.1v1.6c0,1.1,0,1.9,0.1,2.2
			c0.1,0.3,0.2,0.6,0.3,0.9h-1.3C361.2,113.4,361.1,113.1,361.1,112.7z M361,110c-0.4,0.2-1.1,0.3-2,0.5c-0.5,0.1-0.9,0.2-1.1,0.2
			s-0.4,0.2-0.5,0.4c-0.1,0.2-0.2,0.4-0.2,0.6c0,0.3,0.1,0.6,0.4,0.8c0.2,0.2,0.6,0.3,1.1,0.3c0.5,0,0.9-0.1,1.3-0.3
			c0.4-0.2,0.6-0.5,0.8-0.9c0.1-0.3,0.2-0.7,0.2-1.2V110z"/>
		<path id="XMLID_40_" d="M366.8,112.5l0.2,1.1c-0.3,0.1-0.7,0.1-0.9,0.1c-0.4,0-0.8-0.1-1-0.2s-0.4-0.3-0.5-0.6
			c-0.1-0.2-0.2-0.7-0.2-1.5v-4.2h-0.9v-1h0.9v-1.8l1.2-0.7v2.5h1.2v1h-1.2v4.2c0,0.4,0,0.6,0.1,0.7c0,0.1,0.1,0.2,0.2,0.2
			c0.1,0.1,0.2,0.1,0.4,0.1C366.4,112.6,366.6,112.6,366.8,112.5z"/>
		<path id="XMLID_42_" d="M372.8,113.6v-1.1c-0.6,0.8-1.3,1.2-2.3,1.2c-0.4,0-0.8-0.1-1.2-0.2c-0.4-0.2-0.6-0.4-0.8-0.6
			c-0.2-0.2-0.3-0.6-0.4-0.9c0-0.2-0.1-0.6-0.1-1.1v-4.5h1.2v4c0,0.6,0,1.1,0.1,1.3c0.1,0.3,0.2,0.6,0.5,0.8
			c0.3,0.2,0.6,0.3,0.9,0.3s0.7-0.1,1-0.3c0.3-0.2,0.6-0.4,0.7-0.8c0.1-0.3,0.2-0.8,0.2-1.4v-3.9h1.2v7.3H372.8z"/>
		<path id="XMLID_44_" d="M375.8,113.6v-7.3h1.1v1.1c0.3-0.5,0.5-0.9,0.8-1c0.2-0.2,0.5-0.2,0.8-0.2c0.4,0,0.8,0.1,1.3,0.4l-0.4,1.1
			c-0.3-0.2-0.6-0.3-0.9-0.3c-0.3,0-0.5,0.1-0.7,0.2c-0.2,0.2-0.4,0.4-0.5,0.7c-0.1,0.4-0.2,0.9-0.2,1.4v3.8H375.8z"/>
		<path id="XMLID_46_" d="M385.2,112.7c-0.5,0.4-0.9,0.7-1.3,0.8c-0.4,0.2-0.9,0.2-1.4,0.2c-0.8,0-1.4-0.2-1.8-0.6
			c-0.4-0.4-0.6-0.9-0.6-1.5c0-0.4,0.1-0.7,0.2-1c0.2-0.3,0.4-0.5,0.6-0.7c0.3-0.2,0.6-0.3,0.9-0.4c0.2-0.1,0.6-0.1,1.1-0.2
			c1-0.1,1.7-0.3,2.2-0.4c0-0.2,0-0.3,0-0.3c0-0.5-0.1-0.9-0.3-1.1c-0.3-0.3-0.8-0.4-1.4-0.4c-0.6,0-1,0.1-1.3,0.3
			c-0.3,0.2-0.5,0.6-0.6,1.1l-1.2-0.2c0.1-0.5,0.3-0.9,0.5-1.2c0.3-0.3,0.6-0.6,1.1-0.7c0.5-0.2,1-0.3,1.6-0.3
			c0.6,0,1.1,0.1,1.5,0.2s0.7,0.3,0.9,0.6c0.2,0.2,0.3,0.5,0.4,0.8c0,0.2,0.1,0.6,0.1,1.1v1.6c0,1.1,0,1.9,0.1,2.2
			c0.1,0.3,0.2,0.6,0.3,0.9h-1.3C385.3,113.4,385.2,113.1,385.2,112.7z M385.1,110c-0.4,0.2-1.1,0.3-2,0.5c-0.5,0.1-0.9,0.2-1.1,0.2
			s-0.4,0.2-0.5,0.4c-0.1,0.2-0.2,0.4-0.2,0.6c0,0.3,0.1,0.6,0.4,0.8c0.2,0.2,0.6,0.3,1.1,0.3c0.5,0,0.9-0.1,1.3-0.3
			c0.4-0.2,0.6-0.5,0.8-0.9c0.1-0.3,0.2-0.7,0.2-1.2V110z"/>
	</g>
	<polyline id="XMLID_17250_" class="st0" points="327.8,87 327.8,64.8 53.8,64.8 	"/>
</g>
</svg>
