<?xml version="1.0" encoding="utf-8"?>
<!-- Generator: Adobe Illustrator 19.0.0, SVG Export Plug-In . SVG Version: 6.00 Build 0)  -->
<svg version="1.1" id="Capa_1" xmlns="http://www.w3.org/2000/svg" xmlns:xlink="http://www.w3.org/1999/xlink" x="0px" y="0px"
	 viewBox="0 0 350.8 214.7" style="enable-background:new 0 0 350.8 214.7;" xml:space="preserve">
<style type="text/css">
	.st0{fill:none;stroke:#494949;stroke-width:2;stroke-miterlimit:10;}
	.st1{fill:#494949;}
	.st2{fill:#FFFFFF;}
	.st3{fill:#F29422;}
	.st4{fill:#0367A6;}
</style>
<g id="XMLID_17920_">
	<g id="XMLID_17927_">
		<g id="XMLID_26_">
			<polyline id="XMLID_29_" class="st0" points="61,171.2 61,117.6 289.8,117.6 289.8,61.4 			"/>
			<g id="XMLID_27_">
				<polygon id="XMLID_28_" class="st1" points="289.8,50.8 295.9,65.7 289.8,62.2 283.7,65.7 				"/>
			</g>
		</g>
	</g>
	<g id="XMLID_17940_">
		<path id="XMLID_22_" class="st2" d="M243.2,49.3c-7.1,0-12.8-5.7-12.8-12.8V14.3c0-7.1,5.7-12.8,12.8-12.8h93.3
			c7.1,0,12.8,5.7,12.8,12.8v22.2c0,7.1-5.7,12.8-12.8,12.8H243.2z"/>
		<path id="XMLID_19_" class="st3" d="M336.5,3c6.2,0,11.3,5.1,11.3,11.3v22.2c0,6.2-5.1,11.3-11.3,11.3h-93.3
			c-6.2,0-11.3-5.1-11.3-11.3V14.3c0-6.2,5.1-11.3,11.3-11.3H336.5 M336.5,0h-93.3c-7.9,0-14.3,6.4-14.3,14.3v22.2
			c0,7.9,6.4,14.3,14.3,14.3h93.3c7.9,0,14.3-6.4,14.3-14.3V14.3C350.8,6.4,344.4,0,336.5,0L336.5,0z"/>
	</g>
	<g id="XMLID_61_">
		<path id="XMLID_62_" d="M260,31.7V20.5h8.1v1.3h-6.6v3.4h6.2v1.3h-6.2v3.8h6.9v1.3H260z"/>
		<path id="XMLID_64_" d="M269.7,29.3l1.4-0.2c0.1,0.5,0.3,1,0.6,1.3s0.8,0.4,1.5,0.4c0.6,0,1.1-0.1,1.4-0.4
			c0.3-0.3,0.5-0.6,0.5-0.9c0-0.3-0.1-0.6-0.4-0.7c-0.2-0.1-0.7-0.3-1.4-0.5c-1-0.3-1.7-0.5-2.1-0.7s-0.7-0.4-0.9-0.8
			c-0.2-0.3-0.3-0.7-0.3-1.1c0-0.4,0.1-0.7,0.2-1s0.4-0.6,0.7-0.8c0.2-0.2,0.5-0.3,0.9-0.4c0.4-0.1,0.8-0.2,1.2-0.2
			c0.6,0,1.2,0.1,1.7,0.3c0.5,0.2,0.8,0.4,1.1,0.7c0.2,0.3,0.4,0.7,0.5,1.3l-1.3,0.2c-0.1-0.4-0.2-0.7-0.5-1
			c-0.3-0.2-0.7-0.4-1.2-0.4c-0.6,0-1.1,0.1-1.4,0.3s-0.4,0.5-0.4,0.7c0,0.2,0.1,0.3,0.2,0.5c0.1,0.1,0.3,0.3,0.5,0.4
			c0.1,0.1,0.5,0.2,1.2,0.4c1,0.3,1.7,0.5,2,0.6c0.4,0.2,0.7,0.4,0.9,0.7c0.2,0.3,0.3,0.7,0.3,1.2c0,0.5-0.1,0.9-0.4,1.3
			c-0.3,0.4-0.7,0.7-1.2,0.9c-0.5,0.2-1.1,0.3-1.7,0.3c-1.1,0-1.9-0.2-2.4-0.7S269.9,30.1,269.7,29.3z"/>
		<path id="XMLID_66_" d="M281.1,30.5l0.2,1.2c-0.4,0.1-0.7,0.1-1,0.1c-0.5,0-0.9-0.1-1.2-0.2c-0.3-0.2-0.5-0.4-0.6-0.6
			c-0.1-0.3-0.2-0.8-0.2-1.6v-4.7h-1v-1.1h1v-2l1.4-0.8v2.8h1.4v1.1h-1.4v4.8c0,0.4,0,0.6,0.1,0.8c0,0.1,0.1,0.2,0.2,0.3
			c0.1,0.1,0.3,0.1,0.5,0.1C280.7,30.5,280.9,30.5,281.1,30.5z"/>
		<path id="XMLID_68_" d="M287.8,30.7c-0.5,0.4-1,0.7-1.5,0.9s-1,0.3-1.5,0.3c-0.9,0-1.6-0.2-2.1-0.7s-0.7-1-0.7-1.7
			c0-0.4,0.1-0.8,0.3-1.1c0.2-0.3,0.4-0.6,0.7-0.8c0.3-0.2,0.6-0.3,1-0.5c0.3-0.1,0.7-0.1,1.2-0.2c1.1-0.1,1.9-0.3,2.5-0.5
			c0-0.2,0-0.3,0-0.4c0-0.6-0.1-1-0.4-1.2c-0.4-0.3-0.9-0.5-1.6-0.5c-0.6,0-1.1,0.1-1.4,0.3c-0.3,0.2-0.5,0.6-0.7,1.2l-1.3-0.2
			c0.1-0.6,0.3-1,0.6-1.4c0.3-0.4,0.7-0.6,1.2-0.8c0.5-0.2,1.1-0.3,1.8-0.3c0.7,0,1.3,0.1,1.7,0.2s0.8,0.4,1,0.6
			c0.2,0.2,0.3,0.6,0.4,0.9c0,0.2,0.1,0.7,0.1,1.3v1.8c0,1.3,0,2.1,0.1,2.4c0.1,0.3,0.2,0.7,0.3,1h-1.4
			C287.9,31.4,287.8,31.1,287.8,30.7z M287.7,27.6c-0.5,0.2-1.3,0.4-2.3,0.5c-0.6,0.1-1,0.2-1.2,0.3c-0.2,0.1-0.4,0.3-0.5,0.4
			c-0.1,0.2-0.2,0.4-0.2,0.7c0,0.4,0.1,0.7,0.4,0.9c0.3,0.2,0.7,0.4,1.2,0.4c0.5,0,1-0.1,1.4-0.3c0.4-0.2,0.7-0.5,0.9-1
			c0.1-0.3,0.2-0.8,0.2-1.4V27.6z"/>
		<path id="XMLID_71_" d="M296.5,31.7v-1c-0.5,0.8-1.3,1.2-2.3,1.2c-0.6,0-1.2-0.2-1.8-0.5c-0.5-0.4-1-0.9-1.3-1.5
			c-0.3-0.6-0.4-1.4-0.4-2.2c0-0.8,0.1-1.5,0.4-2.2c0.3-0.7,0.7-1.2,1.2-1.5c0.5-0.4,1.1-0.5,1.8-0.5c0.5,0,0.9,0.1,1.3,0.3
			c0.4,0.2,0.7,0.5,0.9,0.8v-4h1.4v11.2H296.5z M292.1,27.6c0,1,0.2,1.8,0.7,2.3c0.4,0.5,1,0.8,1.6,0.8c0.6,0,1.1-0.2,1.5-0.7
			c0.4-0.5,0.6-1.2,0.6-2.3c0-1.1-0.2-1.9-0.6-2.5s-1-0.8-1.6-0.8c-0.6,0-1.1,0.3-1.5,0.8C292.3,25.8,292.1,26.6,292.1,27.6z"/>
		<path id="XMLID_74_" d="M299.4,27.6c0-1.5,0.4-2.6,1.3-3.3c0.7-0.6,1.6-0.9,2.6-0.9c1.1,0,2,0.4,2.7,1.1c0.7,0.7,1.1,1.7,1.1,3
			c0,1-0.2,1.9-0.5,2.5c-0.3,0.6-0.8,1.1-1.4,1.4c-0.6,0.3-1.3,0.5-2,0.5c-1.1,0-2.1-0.4-2.8-1.1C299.7,30.1,299.4,29,299.4,27.6z
			 M300.8,27.6c0,1,0.2,1.8,0.7,2.3c0.5,0.5,1,0.8,1.7,0.8c0.7,0,1.3-0.3,1.7-0.8c0.5-0.5,0.7-1.3,0.7-2.4c0-1-0.2-1.8-0.7-2.3
			c-0.5-0.5-1-0.8-1.7-0.8c-0.7,0-1.3,0.3-1.7,0.8S300.8,26.6,300.8,27.6z"/>
		<path id="XMLID_77_" d="M319.8,30.4v1.3h-7.4c0-0.3,0-0.7,0.2-1c0.2-0.5,0.5-1,0.9-1.5c0.4-0.5,1-1.1,1.8-1.7c1.2-1,2-1.8,2.5-2.4
			c0.4-0.6,0.6-1.1,0.6-1.7c0-0.5-0.2-1-0.6-1.4c-0.4-0.4-0.9-0.6-1.5-0.6c-0.7,0-1.2,0.2-1.6,0.6c-0.4,0.4-0.6,0.9-0.6,1.7
			l-1.4-0.1c0.1-1.1,0.5-1.9,1.1-2.4s1.5-0.8,2.5-0.8c1.1,0,1.9,0.3,2.6,0.9c0.6,0.6,0.9,1.3,0.9,2.2c0,0.4-0.1,0.9-0.3,1.3
			s-0.5,0.9-0.9,1.4c-0.4,0.5-1.1,1.1-2.1,2c-0.8,0.7-1.4,1.2-1.6,1.4c-0.2,0.2-0.4,0.5-0.6,0.7H319.8z"/>
	</g>
	<g id="XMLID_35_">
		<path id="XMLID_36_" d="M147.5,109.8l0.2,1.2c-0.4,0.1-0.7,0.1-1,0.1c-0.5,0-0.9-0.1-1.2-0.2c-0.3-0.2-0.5-0.4-0.6-0.6
			c-0.1-0.3-0.2-0.8-0.2-1.6v-4.7h-1v-1.1h1v-2l1.4-0.8v2.8h1.4v1.1h-1.4v4.8c0,0.4,0,0.6,0.1,0.8c0,0.1,0.1,0.2,0.2,0.3
			c0.1,0.1,0.3,0.1,0.5,0.1C147,109.8,147.2,109.8,147.5,109.8z"/>
		<path id="XMLID_38_" d="M148.8,111v-8.1h1.2v1.2c0.3-0.6,0.6-1,0.9-1.1c0.3-0.2,0.6-0.3,0.9-0.3c0.5,0,0.9,0.1,1.4,0.4l-0.5,1.3
			c-0.3-0.2-0.7-0.3-1-0.3c-0.3,0-0.6,0.1-0.8,0.3c-0.2,0.2-0.4,0.4-0.5,0.8c-0.2,0.5-0.2,1-0.2,1.6v4.3H148.8z"/>
		<path id="XMLID_40_" d="M159.3,110c-0.5,0.4-1,0.7-1.5,0.9s-1,0.3-1.5,0.3c-0.9,0-1.6-0.2-2.1-0.7s-0.7-1-0.7-1.7
			c0-0.4,0.1-0.8,0.3-1.1c0.2-0.3,0.4-0.6,0.7-0.8c0.3-0.2,0.6-0.3,1-0.5c0.3-0.1,0.7-0.1,1.2-0.2c1.1-0.1,1.9-0.3,2.5-0.5
			c0-0.2,0-0.3,0-0.4c0-0.6-0.1-1-0.4-1.2c-0.4-0.3-0.9-0.5-1.6-0.5c-0.6,0-1.1,0.1-1.4,0.3c-0.3,0.2-0.5,0.6-0.7,1.2l-1.3-0.2
			c0.1-0.6,0.3-1,0.6-1.4c0.3-0.4,0.7-0.6,1.2-0.8c0.5-0.2,1.1-0.3,1.8-0.3c0.7,0,1.3,0.1,1.7,0.2s0.8,0.4,1,0.6
			c0.2,0.2,0.3,0.6,0.4,0.9c0,0.2,0.1,0.7,0.1,1.3v1.8c0,1.3,0,2.1,0.1,2.4c0.1,0.3,0.2,0.7,0.3,1h-1.4
			C159.5,110.7,159.4,110.4,159.3,110z M159.2,106.9c-0.5,0.2-1.3,0.4-2.3,0.5c-0.6,0.1-1,0.2-1.2,0.3c-0.2,0.1-0.4,0.3-0.5,0.4
			c-0.1,0.2-0.2,0.4-0.2,0.7c0,0.4,0.1,0.7,0.4,0.9c0.3,0.2,0.7,0.4,1.2,0.4c0.5,0,1-0.1,1.4-0.3c0.4-0.2,0.7-0.5,0.9-1
			c0.1-0.3,0.2-0.8,0.2-1.4V106.9z"/>
		<path id="XMLID_43_" d="M162.7,111v-8.1h1.2v1.2c0.6-0.9,1.5-1.3,2.6-1.3c0.5,0,0.9,0.1,1.4,0.3c0.4,0.2,0.7,0.4,0.9,0.7
			c0.2,0.3,0.3,0.6,0.4,1c0.1,0.3,0.1,0.7,0.1,1.3v5H168V106c0-0.6-0.1-1-0.2-1.3s-0.3-0.5-0.6-0.7s-0.6-0.2-1-0.2
			c-0.6,0-1.1,0.2-1.5,0.6c-0.4,0.4-0.6,1.1-0.6,2.1v4.4H162.7z"/>
		<path id="XMLID_45_" d="M170.9,108.6l1.4-0.2c0.1,0.5,0.3,1,0.6,1.3s0.8,0.4,1.5,0.4c0.6,0,1.1-0.1,1.4-0.4
			c0.3-0.3,0.5-0.6,0.5-0.9c0-0.3-0.1-0.6-0.4-0.7c-0.2-0.1-0.7-0.3-1.4-0.5c-1-0.3-1.7-0.5-2.1-0.7s-0.7-0.4-0.9-0.8
			c-0.2-0.3-0.3-0.7-0.3-1.1c0-0.4,0.1-0.7,0.2-1s0.4-0.6,0.7-0.8c0.2-0.2,0.5-0.3,0.9-0.4c0.4-0.1,0.8-0.2,1.2-0.2
			c0.6,0,1.2,0.1,1.7,0.3c0.5,0.2,0.8,0.4,1.1,0.7c0.2,0.3,0.4,0.7,0.5,1.3l-1.3,0.2c-0.1-0.4-0.2-0.7-0.5-1
			c-0.3-0.2-0.7-0.4-1.2-0.4c-0.6,0-1.1,0.1-1.4,0.3s-0.4,0.5-0.4,0.7c0,0.2,0.1,0.3,0.2,0.5c0.1,0.1,0.3,0.3,0.5,0.4
			c0.1,0.1,0.5,0.2,1.2,0.4c1,0.3,1.7,0.5,2,0.6c0.4,0.2,0.7,0.4,0.9,0.7c0.2,0.3,0.3,0.7,0.3,1.2c0,0.5-0.1,0.9-0.4,1.3
			c-0.3,0.4-0.7,0.7-1.2,0.9c-0.5,0.2-1.1,0.3-1.7,0.3c-1.1,0-1.9-0.2-2.4-0.7S171.1,109.4,170.9,108.6z"/>
		<path id="XMLID_47_" d="M179.3,101.4v-1.6h1.4v1.6H179.3z M179.3,111v-8.1h1.4v8.1H179.3z"/>
		<path id="XMLID_50_" d="M188.1,108l1.4,0.2c-0.1,0.9-0.5,1.7-1.1,2.2c-0.6,0.5-1.4,0.8-2.2,0.8c-1.1,0-2-0.4-2.7-1.1
			c-0.7-0.7-1-1.8-1-3.1c0-0.9,0.1-1.6,0.4-2.3s0.7-1.2,1.3-1.5s1.2-0.5,1.9-0.5c0.9,0,1.6,0.2,2.2,0.7c0.6,0.4,0.9,1.1,1.1,1.9
			l-1.3,0.2c-0.1-0.5-0.4-1-0.7-1.2s-0.7-0.4-1.2-0.4c-0.7,0-1.3,0.2-1.7,0.7c-0.4,0.5-0.7,1.3-0.7,2.4c0,1.1,0.2,1.9,0.6,2.4
			c0.4,0.5,1,0.7,1.6,0.7c0.5,0,1-0.2,1.4-0.5C187.8,109.2,188,108.7,188.1,108z"/>
		<path id="XMLID_52_" d="M190.6,101.4v-1.6h1.4v1.6H190.6z M190.6,111v-8.1h1.4v8.1H190.6z"/>
		<path id="XMLID_55_" d="M193.6,106.9c0-1.5,0.4-2.6,1.3-3.3c0.7-0.6,1.6-0.9,2.6-0.9c1.1,0,2,0.4,2.7,1.1c0.7,0.7,1.1,1.7,1.1,3
			c0,1-0.2,1.9-0.5,2.5c-0.3,0.6-0.8,1.1-1.4,1.4c-0.6,0.3-1.3,0.5-2,0.5c-1.1,0-2.1-0.4-2.8-1.1
			C193.9,109.4,193.6,108.3,193.6,106.9z M195,106.9c0,1,0.2,1.8,0.7,2.3c0.5,0.5,1,0.8,1.7,0.8c0.7,0,1.3-0.3,1.7-0.8
			c0.5-0.5,0.7-1.3,0.7-2.4c0-1-0.2-1.8-0.7-2.3c-0.5-0.5-1-0.8-1.7-0.8c-0.7,0-1.3,0.3-1.7,0.8S195,105.9,195,106.9z M196.6,101.9
			l1-2.1h1.8l-1.7,2.1H196.6z"/>
		<path id="XMLID_59_" d="M202.8,111v-8.1h1.2v1.2c0.6-0.9,1.5-1.3,2.6-1.3c0.5,0,0.9,0.1,1.4,0.3c0.4,0.2,0.7,0.4,0.9,0.7
			c0.2,0.3,0.3,0.6,0.4,1c0.1,0.3,0.1,0.7,0.1,1.3v5h-1.4V106c0-0.6-0.1-1-0.2-1.3s-0.3-0.5-0.6-0.7s-0.6-0.2-1-0.2
			c-0.6,0-1.1,0.2-1.5,0.6c-0.4,0.4-0.6,1.1-0.6,2.1v4.4H202.8z"/>
	</g>
	<g id="XMLID_17938_">
		<path id="XMLID_18_" class="st2" d="M14.3,213.2c-7.1,0-12.8-5.7-12.8-12.8v-22.2c0-7.1,5.7-12.8,12.8-12.8h93.3
			c7.1,0,12.8,5.7,12.8,12.8v22.2c0,7.1-5.7,12.8-12.8,12.8H14.3z"/>
		<path id="XMLID_15_" class="st4" d="M107.6,166.9c6.2,0,11.3,5.1,11.3,11.3v22.2c0,6.2-5.1,11.3-11.3,11.3l-93.3,0
			c-6.2,0-11.3-5.1-11.3-11.3v-22.2c0-6.2,5.1-11.3,11.3-11.3H107.6 M107.6,163.9H14.3c-7.9,0-14.3,6.4-14.3,14.3v22.2
			c0,7.9,6.4,14.3,14.3,14.3l93.3,0c7.9,0,14.3-6.4,14.3-14.3v-22.2C121.9,170.3,115.5,163.9,107.6,163.9L107.6,163.9z"/>
	</g>
	<g id="XMLID_2_">
		<path id="XMLID_3_" d="M31.3,194.9v-11.2h8.1v1.3h-6.6v3.4H39v1.3h-6.2v3.8h6.9v1.3H31.3z"/>
		<path id="XMLID_5_" d="M41,192.5l1.4-0.2c0.1,0.5,0.3,1,0.6,1.3s0.8,0.4,1.5,0.4c0.6,0,1.1-0.1,1.4-0.4c0.3-0.3,0.5-0.6,0.5-0.9
			c0-0.3-0.1-0.6-0.4-0.7c-0.2-0.1-0.7-0.3-1.4-0.5c-1-0.3-1.7-0.5-2.1-0.7s-0.7-0.4-0.9-0.8c-0.2-0.3-0.3-0.7-0.3-1.1
			c0-0.4,0.1-0.7,0.2-1s0.4-0.6,0.7-0.8c0.2-0.2,0.5-0.3,0.9-0.4c0.4-0.1,0.8-0.2,1.2-0.2c0.6,0,1.2,0.1,1.7,0.3
			c0.5,0.2,0.8,0.4,1.1,0.7c0.2,0.3,0.4,0.7,0.5,1.3l-1.3,0.2c-0.1-0.4-0.2-0.7-0.5-1c-0.3-0.2-0.7-0.4-1.2-0.4
			c-0.6,0-1.1,0.1-1.4,0.3s-0.4,0.5-0.4,0.7c0,0.2,0.1,0.3,0.2,0.5c0.1,0.1,0.3,0.3,0.5,0.4c0.1,0.1,0.5,0.2,1.2,0.4
			c1,0.3,1.7,0.5,2,0.6c0.4,0.2,0.7,0.4,0.9,0.7c0.2,0.3,0.3,0.7,0.3,1.2c0,0.5-0.1,0.9-0.4,1.3c-0.3,0.4-0.7,0.7-1.2,0.9
			c-0.5,0.2-1.1,0.3-1.7,0.3c-1.1,0-1.9-0.2-2.4-0.7S41.1,193.4,41,192.5z"/>
		<path id="XMLID_7_" d="M52.4,193.7l0.2,1.2c-0.4,0.1-0.7,0.1-1,0.1c-0.5,0-0.9-0.1-1.2-0.2c-0.3-0.2-0.5-0.4-0.6-0.6
			c-0.1-0.3-0.2-0.8-0.2-1.6v-4.7h-1v-1.1h1v-2L51,184v2.8h1.4v1.1H51v4.8c0,0.4,0,0.6,0.1,0.8c0,0.1,0.1,0.2,0.2,0.3
			c0.1,0.1,0.3,0.1,0.5,0.1C51.9,193.7,52.1,193.7,52.4,193.7z"/>
		<path id="XMLID_9_" d="M59,193.9c-0.5,0.4-1,0.7-1.5,0.9s-1,0.3-1.5,0.3c-0.9,0-1.6-0.2-2.1-0.7s-0.7-1-0.7-1.7
			c0-0.4,0.1-0.8,0.3-1.1c0.2-0.3,0.4-0.6,0.7-0.8c0.3-0.2,0.6-0.3,1-0.5c0.3-0.1,0.7-0.1,1.2-0.2c1.1-0.1,1.9-0.3,2.5-0.5
			c0-0.2,0-0.3,0-0.4c0-0.6-0.1-1-0.4-1.2c-0.4-0.3-0.9-0.5-1.6-0.5c-0.6,0-1.1,0.1-1.4,0.3c-0.3,0.2-0.5,0.6-0.7,1.2l-1.3-0.2
			c0.1-0.6,0.3-1,0.6-1.4c0.3-0.4,0.7-0.6,1.2-0.8c0.5-0.2,1.1-0.3,1.8-0.3c0.7,0,1.3,0.1,1.7,0.2s0.8,0.4,1,0.6
			c0.2,0.2,0.3,0.6,0.4,0.9c0,0.2,0.1,0.7,0.1,1.3v1.8c0,1.3,0,2.1,0.1,2.4c0.1,0.3,0.2,0.7,0.3,1h-1.4
			C59.2,194.6,59.1,194.3,59,193.9z M58.9,190.8c-0.5,0.2-1.3,0.4-2.3,0.5c-0.6,0.1-1,0.2-1.2,0.3c-0.2,0.1-0.4,0.3-0.5,0.4
			c-0.1,0.2-0.2,0.4-0.2,0.7c0,0.4,0.1,0.7,0.4,0.9c0.3,0.2,0.7,0.4,1.2,0.4c0.5,0,1-0.1,1.4-0.3c0.4-0.2,0.7-0.5,0.9-1
			c0.1-0.3,0.2-0.8,0.2-1.4V190.8z"/>
		<path id="XMLID_14_" d="M67.7,194.9v-1c-0.5,0.8-1.3,1.2-2.3,1.2c-0.6,0-1.2-0.2-1.8-0.5c-0.5-0.4-1-0.9-1.3-1.5
			c-0.3-0.6-0.4-1.4-0.4-2.2c0-0.8,0.1-1.5,0.4-2.2c0.3-0.7,0.7-1.2,1.2-1.5c0.5-0.4,1.1-0.5,1.8-0.5c0.5,0,0.9,0.1,1.3,0.3
			c0.4,0.2,0.7,0.5,0.9,0.8v-4H69v11.2H67.7z M63.4,190.9c0,1,0.2,1.8,0.7,2.3c0.4,0.5,1,0.8,1.6,0.8c0.6,0,1.1-0.2,1.5-0.7
			c0.4-0.5,0.6-1.2,0.6-2.3c0-1.1-0.2-1.9-0.6-2.5s-1-0.8-1.6-0.8c-0.6,0-1.1,0.3-1.5,0.8C63.6,189,63.4,189.8,63.4,190.9z"/>
		<path id="XMLID_30_" d="M70.7,190.9c0-1.5,0.4-2.6,1.3-3.3c0.7-0.6,1.6-0.9,2.6-0.9c1.1,0,2,0.4,2.7,1.1c0.7,0.7,1.1,1.7,1.1,3
			c0,1-0.2,1.9-0.5,2.5c-0.3,0.6-0.8,1.1-1.4,1.4c-0.6,0.3-1.3,0.5-2,0.5c-1.1,0-2.1-0.4-2.8-1.1C71,193.3,70.7,192.2,70.7,190.9z
			 M72.1,190.9c0,1,0.2,1.8,0.7,2.3c0.5,0.5,1,0.8,1.7,0.8c0.7,0,1.3-0.3,1.7-0.8c0.5-0.5,0.7-1.3,0.7-2.4c0-1-0.2-1.8-0.7-2.3
			c-0.5-0.5-1-0.8-1.7-0.8c-0.7,0-1.3,0.3-1.7,0.8S72.1,189.8,72.1,190.9z"/>
		<path id="XMLID_33_" d="M89.1,194.9h-1.4v-8.8c-0.3,0.3-0.8,0.6-1.3,0.9c-0.5,0.3-1,0.6-1.5,0.7v-1.3c0.8-0.4,1.4-0.8,2-1.3
			c0.6-0.5,1-1,1.2-1.5h0.9V194.9z"/>
	</g>
</g>
</svg>
