<?xml version="1.0" encoding="utf-8"?>
<!-- Generator: Adobe Illustrator 19.0.0, SVG Export Plug-In . SVG Version: 6.00 Build 0)  -->
<svg version="1.1" id="Capa_1" xmlns="http://www.w3.org/2000/svg" xmlns:xlink="http://www.w3.org/1999/xlink" x="0px" y="0px"
	 viewBox="0 0 276.8 260.7" style="enable-background:new 0 0 276.8 260.7;" xml:space="preserve">
<style type="text/css">
	.st0{fill:none;stroke:#494949;stroke-width:2;stroke-miterlimit:10;}
	.st1{fill:#494949;}
	.st2{fill:#FFFFFF;}
	.st3{fill:#F29422;}
	.st4{fill:#0367A6;}
	.st5{fill:none;stroke:#494949;stroke-width:1.5;stroke-miterlimit:10;}
	.st6{fill:#E8A91C;}
</style>
<g id="XMLID_14346_">
	<g id="XMLID_12516_">
		<g id="XMLID_36_">
			<polyline id="XMLID_39_" class="st0" points="254.5,18.8 273.8,18.8 273.8,131 257.8,131 			"/>
			<g id="XMLID_37_">
				<polygon id="XMLID_38_" class="st1" points="247.3,131 262.2,124.9 258.6,131 262.2,137.1 				"/>
			</g>
		</g>
	</g>
	<g id="XMLID_18189_">
		<g id="XMLID_31_">
			<polyline id="XMLID_34_" class="st0" points="45.1,126.7 45.1,87 214.6,87 214.6,48.2 			"/>
			<g id="XMLID_32_">
				<polygon id="XMLID_33_" class="st1" points="214.6,37.6 220.7,52.5 214.6,49 208.5,52.5 				"/>
			</g>
		</g>
	</g>
	<g id="XMLID_18188_">
		<path id="XMLID_22_" class="st2" d="M183.8,36.1c-7.1,0-12.8-5.7-12.8-12.8v-9c0-7.1,5.7-12.8,12.8-12.8h61.7
			c7.1,0,12.8,5.7,12.8,12.8v9c0,7.1-5.7,12.8-12.8,12.8H183.8z"/>
		<path id="XMLID_19_" class="st3" d="M245.4,3c6.2,0,11.3,5.1,11.3,11.3v9c0,6.2-5.1,11.3-11.3,11.3h-61.7
			c-6.2,0-11.3-5.1-11.3-11.3v-9c0-6.2,5.1-11.3,11.3-11.3H245.4 M245.4,0h-61.7c-7.9,0-14.3,6.4-14.3,14.3v9
			c0,7.9,6.4,14.3,14.3,14.3h61.7c7.9,0,14.3-6.4,14.3-14.3v-9C259.7,6.4,253.3,0,245.4,0L245.4,0z"/>
	</g>
	<g id="XMLID_135_">
		<path id="XMLID_136_" d="M192.5,23.5v-8.3h6v1h-4.9v2.5h4.6v1h-4.6v2.8h5.1v1H192.5z"/>
		<path id="XMLID_138_" d="M199.7,21.7l1-0.2c0.1,0.4,0.2,0.7,0.5,0.9c0.3,0.2,0.6,0.3,1.1,0.3c0.5,0,0.8-0.1,1-0.3
			c0.2-0.2,0.3-0.4,0.3-0.7c0-0.2-0.1-0.4-0.3-0.5c-0.1-0.1-0.5-0.2-1-0.3c-0.7-0.2-1.3-0.4-1.6-0.5s-0.5-0.3-0.7-0.6
			c-0.1-0.2-0.2-0.5-0.2-0.8c0-0.3,0.1-0.5,0.2-0.7s0.3-0.4,0.5-0.6c0.2-0.1,0.4-0.2,0.6-0.3c0.3-0.1,0.6-0.1,0.9-0.1
			c0.5,0,0.9,0.1,1.2,0.2c0.4,0.1,0.6,0.3,0.8,0.6s0.3,0.5,0.4,0.9l-1,0.1c0-0.3-0.2-0.6-0.4-0.7c-0.2-0.2-0.5-0.3-0.9-0.3
			c-0.5,0-0.8,0.1-1,0.2c-0.2,0.2-0.3,0.3-0.3,0.5c0,0.1,0,0.3,0.1,0.4c0.1,0.1,0.2,0.2,0.4,0.3c0.1,0,0.4,0.1,0.9,0.3
			c0.7,0.2,1.2,0.4,1.5,0.5c0.3,0.1,0.5,0.3,0.7,0.5c0.2,0.2,0.2,0.5,0.2,0.9c0,0.3-0.1,0.7-0.3,1c-0.2,0.3-0.5,0.5-0.9,0.7
			c-0.4,0.2-0.8,0.2-1.3,0.2c-0.8,0-1.4-0.2-1.8-0.5S199.8,22.3,199.7,21.7z"/>
		<path id="XMLID_140_" d="M208.2,22.6l0.1,0.9c-0.3,0.1-0.5,0.1-0.8,0.1c-0.4,0-0.7-0.1-0.9-0.2s-0.3-0.3-0.4-0.5
			c-0.1-0.2-0.1-0.6-0.1-1.2v-3.5h-0.7v-0.8h0.7V16l1-0.6v2.1h1v0.8h-1v3.5c0,0.3,0,0.5,0.1,0.6c0,0.1,0.1,0.1,0.2,0.2
			c0.1,0,0.2,0.1,0.3,0.1C207.8,22.6,208,22.6,208.2,22.6z"/>
		<path id="XMLID_142_" d="M213.1,22.7c-0.4,0.3-0.7,0.5-1.1,0.7c-0.3,0.1-0.7,0.2-1.1,0.2c-0.7,0-1.2-0.2-1.5-0.5s-0.5-0.7-0.5-1.2
			c0-0.3,0.1-0.6,0.2-0.8c0.1-0.2,0.3-0.4,0.5-0.6c0.2-0.1,0.5-0.3,0.7-0.3c0.2-0.1,0.5-0.1,0.9-0.2c0.8-0.1,1.4-0.2,1.8-0.4
			c0-0.1,0-0.2,0-0.3c0-0.4-0.1-0.7-0.3-0.9c-0.3-0.2-0.6-0.3-1.2-0.3c-0.5,0-0.8,0.1-1.1,0.3c-0.2,0.2-0.4,0.5-0.5,0.9l-1-0.1
			c0.1-0.4,0.2-0.8,0.4-1s0.5-0.5,0.9-0.6c0.4-0.1,0.8-0.2,1.4-0.2c0.5,0,0.9,0.1,1.3,0.2c0.3,0.1,0.6,0.3,0.7,0.5
			c0.2,0.2,0.3,0.4,0.3,0.7c0,0.2,0.1,0.5,0.1,0.9v1.4c0,0.9,0,1.5,0.1,1.8c0,0.3,0.1,0.5,0.3,0.7h-1.1
			C213.2,23.3,213.1,23,213.1,22.7z M213,20.4c-0.4,0.2-0.9,0.3-1.7,0.4c-0.4,0.1-0.7,0.1-0.9,0.2c-0.2,0.1-0.3,0.2-0.4,0.3
			s-0.1,0.3-0.1,0.5c0,0.3,0.1,0.5,0.3,0.7s0.5,0.3,0.9,0.3c0.4,0,0.7-0.1,1-0.3c0.3-0.2,0.5-0.4,0.7-0.7c0.1-0.2,0.2-0.6,0.2-1
			V20.4z"/>
		<path id="XMLID_145_" d="M219.5,23.5v-0.8c-0.4,0.6-0.9,0.9-1.7,0.9c-0.5,0-0.9-0.1-1.3-0.4s-0.7-0.6-0.9-1.1
			c-0.2-0.5-0.3-1-0.3-1.6c0-0.6,0.1-1.1,0.3-1.6s0.5-0.9,0.9-1.1s0.8-0.4,1.3-0.4c0.4,0,0.7,0.1,1,0.2c0.3,0.2,0.5,0.4,0.7,0.6v-3
			h1v8.3H219.5z M216.3,20.5c0,0.8,0.2,1.3,0.5,1.7c0.3,0.4,0.7,0.6,1.2,0.6c0.4,0,0.8-0.2,1.1-0.5c0.3-0.4,0.5-0.9,0.5-1.7
			c0-0.8-0.2-1.4-0.5-1.8s-0.7-0.6-1.2-0.6c-0.5,0-0.8,0.2-1.1,0.6C216.4,19.1,216.3,19.7,216.3,20.5z"/>
		<path id="XMLID_148_" d="M221.7,20.5c0-1.1,0.3-1.9,0.9-2.5c0.5-0.4,1.1-0.7,1.9-0.7c0.8,0,1.5,0.3,2,0.8s0.8,1.3,0.8,2.2
			c0,0.8-0.1,1.4-0.3,1.8c-0.2,0.4-0.6,0.8-1,1c-0.4,0.2-0.9,0.4-1.5,0.4c-0.8,0-1.5-0.3-2-0.8C221.9,22.3,221.7,21.5,221.7,20.5z
			 M222.7,20.5c0,0.8,0.2,1.3,0.5,1.7c0.3,0.4,0.8,0.6,1.3,0.6c0.5,0,0.9-0.2,1.3-0.6c0.3-0.4,0.5-1,0.5-1.8c0-0.7-0.2-1.3-0.5-1.7
			c-0.3-0.4-0.8-0.6-1.3-0.6c-0.5,0-0.9,0.2-1.3,0.6C222.9,19.1,222.7,19.7,222.7,20.5z"/>
		<path id="XMLID_151_" d="M236.8,22.5v1h-5.5c0-0.2,0-0.5,0.1-0.7c0.1-0.4,0.4-0.7,0.7-1.1c0.3-0.4,0.8-0.8,1.3-1.3
			c0.9-0.7,1.5-1.3,1.8-1.8s0.5-0.8,0.5-1.2c0-0.4-0.1-0.7-0.4-1c-0.3-0.3-0.7-0.4-1.1-0.4c-0.5,0-0.9,0.1-1.2,0.4
			c-0.3,0.3-0.4,0.7-0.4,1.2l-1-0.1c0.1-0.8,0.3-1.4,0.8-1.8c0.5-0.4,1.1-0.6,1.9-0.6c0.8,0,1.4,0.2,1.9,0.7s0.7,1,0.7,1.6
			c0,0.3-0.1,0.7-0.2,1c-0.1,0.3-0.4,0.7-0.7,1c-0.3,0.4-0.8,0.8-1.6,1.5c-0.6,0.5-1,0.9-1.2,1s-0.3,0.4-0.4,0.6H236.8z"/>
	</g>
	<g id="XMLID_109_">
		<path id="XMLID_110_" d="M109.2,81.3l0.1,0.9c-0.3,0.1-0.5,0.1-0.8,0.1c-0.4,0-0.7-0.1-0.9-0.2s-0.3-0.3-0.4-0.5
			c-0.1-0.2-0.1-0.6-0.1-1.2V77h-0.7v-0.8h0.7v-1.5l1-0.6v2.1h1V77h-1v3.5c0,0.3,0,0.5,0.1,0.6c0,0.1,0.1,0.1,0.2,0.2
			c0.1,0,0.2,0.1,0.3,0.1C108.8,81.3,109,81.3,109.2,81.3z"/>
		<path id="XMLID_112_" d="M110.2,82.2v-6h0.9v0.9c0.2-0.4,0.5-0.7,0.6-0.8s0.4-0.2,0.7-0.2c0.3,0,0.7,0.1,1,0.3l-0.4,0.9
			c-0.2-0.1-0.5-0.2-0.7-0.2c-0.2,0-0.4,0.1-0.6,0.2c-0.2,0.1-0.3,0.3-0.4,0.6c-0.1,0.4-0.2,0.8-0.2,1.2v3.2H110.2z"/>
		<path id="XMLID_114_" d="M118,81.4c-0.4,0.3-0.7,0.5-1.1,0.7c-0.3,0.1-0.7,0.2-1.1,0.2c-0.7,0-1.2-0.2-1.5-0.5
			c-0.4-0.3-0.5-0.7-0.5-1.2c0-0.3,0.1-0.6,0.2-0.8c0.1-0.2,0.3-0.4,0.5-0.6c0.2-0.1,0.5-0.3,0.7-0.3c0.2-0.1,0.5-0.1,0.9-0.2
			c0.8-0.1,1.4-0.2,1.8-0.4c0-0.1,0-0.2,0-0.3c0-0.4-0.1-0.7-0.3-0.9c-0.3-0.2-0.6-0.3-1.2-0.3c-0.5,0-0.8,0.1-1.1,0.3
			c-0.2,0.2-0.4,0.5-0.5,0.9l-1-0.1c0.1-0.4,0.2-0.8,0.4-1s0.5-0.5,0.9-0.6c0.4-0.1,0.8-0.2,1.4-0.2c0.5,0,0.9,0.1,1.3,0.2
			s0.6,0.3,0.7,0.5c0.2,0.2,0.3,0.4,0.3,0.7c0,0.2,0.1,0.5,0.1,0.9v1.4c0,0.9,0,1.5,0.1,1.8c0,0.3,0.1,0.5,0.3,0.7h-1.1
			C118.1,82,118,81.7,118,81.4z M117.9,79.2c-0.4,0.2-0.9,0.3-1.7,0.4c-0.4,0.1-0.7,0.1-0.9,0.2c-0.2,0.1-0.3,0.2-0.4,0.3
			c-0.1,0.1-0.1,0.3-0.1,0.5c0,0.3,0.1,0.5,0.3,0.7s0.5,0.3,0.9,0.3c0.4,0,0.7-0.1,1-0.3c0.3-0.2,0.5-0.4,0.7-0.7
			c0.1-0.2,0.2-0.6,0.2-1V79.2z"/>
		<path id="XMLID_117_" d="M120.5,82.2v-6h0.9V77c0.4-0.7,1.1-1,1.9-1c0.4,0,0.7,0.1,1,0.2c0.3,0.1,0.5,0.3,0.7,0.5
			c0.2,0.2,0.3,0.5,0.3,0.8c0,0.2,0.1,0.5,0.1,1v3.7h-1v-3.7c0-0.4,0-0.7-0.1-0.9s-0.2-0.4-0.4-0.5c-0.2-0.1-0.4-0.2-0.7-0.2
			c-0.4,0-0.8,0.1-1.1,0.4c-0.3,0.3-0.5,0.8-0.5,1.6v3.3H120.5z"/>
		<path id="XMLID_119_" d="M126.6,80.4l1-0.2c0.1,0.4,0.2,0.7,0.5,0.9c0.3,0.2,0.6,0.3,1.1,0.3c0.5,0,0.8-0.1,1-0.3
			c0.2-0.2,0.3-0.4,0.3-0.7c0-0.2-0.1-0.4-0.3-0.5c-0.1-0.1-0.5-0.2-1-0.3c-0.7-0.2-1.3-0.4-1.6-0.5s-0.5-0.3-0.7-0.6
			c-0.1-0.2-0.2-0.5-0.2-0.8c0-0.3,0.1-0.5,0.2-0.7c0.1-0.2,0.3-0.4,0.5-0.6c0.2-0.1,0.4-0.2,0.6-0.3s0.6-0.1,0.9-0.1
			c0.5,0,0.9,0.1,1.2,0.2c0.4,0.1,0.6,0.3,0.8,0.6c0.2,0.2,0.3,0.5,0.4,0.9l-1,0.1c0-0.3-0.2-0.6-0.4-0.7c-0.2-0.2-0.5-0.3-0.9-0.3
			c-0.5,0-0.8,0.1-1,0.2c-0.2,0.2-0.3,0.3-0.3,0.5c0,0.1,0,0.3,0.1,0.4c0.1,0.1,0.2,0.2,0.4,0.3c0.1,0,0.4,0.1,0.9,0.3
			c0.7,0.2,1.2,0.4,1.5,0.5c0.3,0.1,0.5,0.3,0.7,0.5s0.2,0.5,0.2,0.9c0,0.3-0.1,0.7-0.3,1c-0.2,0.3-0.5,0.5-0.9,0.7
			c-0.4,0.2-0.8,0.2-1.3,0.2c-0.8,0-1.4-0.2-1.8-0.5S126.7,81,126.6,80.4z"/>
		<path id="XMLID_121_" d="M132.8,75v-1.2h1V75H132.8z M132.8,82.2v-6h1v6H132.8z"/>
		<path id="XMLID_124_" d="M139.3,80l1,0.1c-0.1,0.7-0.4,1.2-0.8,1.6c-0.5,0.4-1,0.6-1.7,0.6c-0.8,0-1.5-0.3-2-0.8
			c-0.5-0.5-0.8-1.3-0.8-2.3c0-0.7,0.1-1.2,0.3-1.7c0.2-0.5,0.5-0.9,1-1.1c0.4-0.2,0.9-0.4,1.4-0.4c0.7,0,1.2,0.2,1.6,0.5
			c0.4,0.3,0.7,0.8,0.8,1.4l-1,0.2c-0.1-0.4-0.3-0.7-0.5-0.9c-0.2-0.2-0.5-0.3-0.9-0.3c-0.5,0-0.9,0.2-1.3,0.6
			c-0.3,0.4-0.5,1-0.5,1.7c0,0.8,0.2,1.4,0.5,1.8c0.3,0.4,0.7,0.5,1.2,0.5c0.4,0,0.7-0.1,1-0.4S139.2,80.5,139.3,80z"/>
		<path id="XMLID_126_" d="M141.2,75v-1.2h1V75H141.2z M141.2,82.2v-6h1v6H141.2z"/>
		<path id="XMLID_129_" d="M143.3,79.2c0-1.1,0.3-1.9,0.9-2.5c0.5-0.4,1.1-0.7,1.9-0.7c0.8,0,1.5,0.3,2,0.8s0.8,1.3,0.8,2.2
			c0,0.8-0.1,1.4-0.3,1.8c-0.2,0.4-0.6,0.8-1,1c-0.4,0.2-0.9,0.4-1.5,0.4c-0.8,0-1.5-0.3-2-0.8C143.6,81,143.3,80.2,143.3,79.2z
			 M144.4,79.2c0,0.8,0.2,1.3,0.5,1.7c0.3,0.4,0.8,0.6,1.3,0.6c0.5,0,0.9-0.2,1.3-0.6s0.5-1,0.5-1.8c0-0.7-0.2-1.3-0.5-1.7
			c-0.3-0.4-0.8-0.6-1.3-0.6c-0.5,0-0.9,0.2-1.3,0.6C144.6,77.8,144.4,78.4,144.4,79.2z M145.6,75.4l0.8-1.6h1.3l-1.2,1.6H145.6z"/>
		<path id="XMLID_133_" d="M150.2,82.2v-6h0.9V77c0.4-0.7,1.1-1,1.9-1c0.4,0,0.7,0.1,1,0.2c0.3,0.1,0.5,0.3,0.7,0.5
			c0.2,0.2,0.3,0.5,0.3,0.8c0,0.2,0.1,0.5,0.1,1v3.7h-1v-3.7c0-0.4,0-0.7-0.1-0.9s-0.2-0.4-0.4-0.5c-0.2-0.1-0.4-0.2-0.7-0.2
			c-0.4,0-0.8,0.1-1.1,0.4c-0.3,0.3-0.5,0.8-0.5,1.6v3.3H150.2z"/>
	</g>
	<g id="XMLID_74_">
		<path id="XMLID_75_" d="M67.9,239.6l1,0.1c-0.2,0.6-0.4,1-0.9,1.3s-1,0.5-1.6,0.5c-0.8,0-1.5-0.3-1.9-0.8s-0.7-1.2-0.7-2.1
			c0-0.9,0.2-1.7,0.7-2.2c0.5-0.5,1.1-0.8,1.9-0.8c0.7,0,1.4,0.3,1.8,0.8c0.5,0.5,0.7,1.2,0.7,2.2c0,0.1,0,0.1,0,0.3h-4.2
			c0,0.6,0.2,1.1,0.5,1.4c0.3,0.3,0.7,0.5,1.2,0.5c0.3,0,0.6-0.1,0.9-0.3C67.6,240.3,67.8,240,67.9,239.6z M64.8,238.1h3.1
			c0-0.5-0.2-0.8-0.4-1.1c-0.3-0.4-0.7-0.5-1.2-0.5c-0.4,0-0.8,0.1-1.1,0.4C65,237.2,64.8,237.6,64.8,238.1z"/>
		<path id="XMLID_78_" d="M69.7,239.7l0.9-0.1c0.1,0.4,0.2,0.7,0.4,0.9c0.2,0.2,0.6,0.3,1,0.3c0.4,0,0.8-0.1,1-0.3s0.3-0.4,0.3-0.6
			c0-0.2-0.1-0.4-0.3-0.5c-0.1-0.1-0.5-0.2-1-0.3c-0.7-0.2-1.2-0.3-1.4-0.5s-0.5-0.3-0.6-0.5s-0.2-0.5-0.2-0.8
			c0-0.3,0.1-0.5,0.2-0.7s0.3-0.4,0.5-0.5c0.1-0.1,0.3-0.2,0.6-0.3c0.3-0.1,0.5-0.1,0.8-0.1c0.4,0,0.8,0.1,1.2,0.2
			c0.3,0.1,0.6,0.3,0.7,0.5c0.2,0.2,0.3,0.5,0.3,0.9l-0.9,0.1c0-0.3-0.2-0.5-0.4-0.7s-0.5-0.2-0.9-0.2c-0.4,0-0.7,0.1-0.9,0.2
			c-0.2,0.1-0.3,0.3-0.3,0.5c0,0.1,0,0.2,0.1,0.3c0.1,0.1,0.2,0.2,0.4,0.3c0.1,0,0.4,0.1,0.8,0.2c0.7,0.2,1.1,0.3,1.4,0.4
			c0.3,0.1,0.5,0.3,0.6,0.5c0.2,0.2,0.2,0.5,0.2,0.8c0,0.3-0.1,0.6-0.3,0.9s-0.5,0.5-0.8,0.6c-0.3,0.2-0.7,0.2-1.2,0.2
			c-0.7,0-1.3-0.2-1.7-0.5C70.1,240.8,69.8,240.3,69.7,239.7z"/>
		<path id="XMLID_80_" d="M77.6,240.5l0.1,0.8c-0.3,0.1-0.5,0.1-0.7,0.1c-0.3,0-0.6-0.1-0.8-0.2s-0.3-0.3-0.4-0.4s-0.1-0.6-0.1-1.1
			v-3.2H75v-0.7h0.7v-1.4l0.9-0.6v2h1v0.7h-1v3.3c0,0.3,0,0.4,0.1,0.5c0,0.1,0.1,0.1,0.2,0.2c0.1,0,0.2,0.1,0.3,0.1
			C77.2,240.6,77.4,240.6,77.6,240.5z"/>
		<path id="XMLID_82_" d="M82.1,240.7c-0.4,0.3-0.7,0.5-1,0.6c-0.3,0.1-0.7,0.2-1,0.2c-0.6,0-1.1-0.2-1.4-0.5s-0.5-0.7-0.5-1.2
			c0-0.3,0.1-0.5,0.2-0.8s0.3-0.4,0.5-0.5c0.2-0.1,0.4-0.2,0.7-0.3c0.2,0,0.5-0.1,0.8-0.1c0.8-0.1,1.3-0.2,1.7-0.3
			c0-0.1,0-0.2,0-0.2c0-0.4-0.1-0.7-0.3-0.8c-0.2-0.2-0.6-0.3-1.1-0.3c-0.4,0-0.8,0.1-1,0.2c-0.2,0.2-0.4,0.4-0.5,0.8l-0.9-0.1
			c0.1-0.4,0.2-0.7,0.4-1s0.5-0.4,0.8-0.6c0.4-0.1,0.8-0.2,1.3-0.2c0.5,0,0.9,0.1,1.2,0.2c0.3,0.1,0.5,0.3,0.7,0.4s0.2,0.4,0.3,0.6
			c0,0.2,0,0.5,0,0.9v1.3c0,0.9,0,1.4,0.1,1.7c0,0.2,0.1,0.5,0.2,0.7h-1C82.2,241.2,82.2,241,82.1,240.7z M82.1,238.6
			c-0.3,0.1-0.9,0.3-1.5,0.4c-0.4,0.1-0.7,0.1-0.8,0.2c-0.2,0.1-0.3,0.2-0.4,0.3s-0.1,0.3-0.1,0.5c0,0.3,0.1,0.5,0.3,0.6
			c0.2,0.2,0.5,0.3,0.8,0.3c0.4,0,0.7-0.1,1-0.2s0.5-0.4,0.6-0.7c0.1-0.2,0.2-0.5,0.2-0.9V238.6z"/>
		<path id="XMLID_85_" d="M88.1,241.4v-0.7c-0.4,0.6-0.9,0.8-1.6,0.8c-0.4,0-0.9-0.1-1.2-0.4s-0.7-0.6-0.9-1
			c-0.2-0.4-0.3-0.9-0.3-1.5c0-0.6,0.1-1.1,0.3-1.5s0.5-0.8,0.8-1s0.8-0.4,1.2-0.4c0.3,0,0.6,0.1,0.9,0.2s0.5,0.3,0.6,0.6v-2.8H89
			v7.7H88.1z M85.1,238.6c0,0.7,0.2,1.3,0.5,1.6c0.3,0.4,0.7,0.5,1.1,0.5c0.4,0,0.8-0.2,1.1-0.5c0.3-0.3,0.4-0.9,0.4-1.6
			c0-0.8-0.1-1.3-0.4-1.7c-0.3-0.4-0.7-0.5-1.1-0.5c-0.4,0-0.8,0.2-1.1,0.5C85.3,237.3,85.1,237.9,85.1,238.6z"/>
		<path id="XMLID_88_" d="M90.1,238.6c0-1,0.3-1.8,0.9-2.3c0.5-0.4,1.1-0.6,1.8-0.6c0.8,0,1.4,0.3,1.9,0.8s0.7,1.2,0.7,2.1
			c0,0.7-0.1,1.3-0.3,1.7c-0.2,0.4-0.5,0.7-0.9,1c-0.4,0.2-0.9,0.3-1.4,0.3c-0.8,0-1.4-0.3-1.9-0.8
			C90.4,240.3,90.1,239.5,90.1,238.6z M91.1,238.6c0,0.7,0.2,1.3,0.5,1.6c0.3,0.4,0.7,0.5,1.2,0.5c0.5,0,0.9-0.2,1.2-0.5
			c0.3-0.4,0.5-0.9,0.5-1.6c0-0.7-0.2-1.2-0.5-1.6c-0.3-0.4-0.7-0.5-1.2-0.5c-0.5,0-0.9,0.2-1.2,0.5
			C91.3,237.3,91.1,237.9,91.1,238.6z"/>
		<path id="XMLID_91_" d="M66.8,245.6v-1.1h0.9v1.1H66.8z M66.8,252.2v-5.6h0.9v5.6H66.8z"/>
		<path id="XMLID_94_" d="M69.2,252.2v-5.6H70v0.8c0.4-0.6,1-0.9,1.8-0.9c0.3,0,0.6,0.1,0.9,0.2c0.3,0.1,0.5,0.3,0.6,0.5
			c0.1,0.2,0.2,0.4,0.3,0.7c0,0.2,0.1,0.5,0.1,0.9v3.4h-0.9v-3.4c0-0.4,0-0.7-0.1-0.9c-0.1-0.2-0.2-0.3-0.4-0.5
			c-0.2-0.1-0.4-0.2-0.7-0.2c-0.4,0-0.8,0.1-1,0.4c-0.3,0.3-0.4,0.7-0.4,1.5v3.1H69.2z"/>
		<path id="XMLID_96_" d="M75.2,245.6v-1.1h0.9v1.1H75.2z M75.2,252.2v-5.6h0.9v5.6H75.2z"/>
		<path id="XMLID_99_" d="M81.2,250.1l0.9,0.1c-0.1,0.6-0.4,1.1-0.8,1.5s-0.9,0.5-1.5,0.5c-0.8,0-1.4-0.3-1.8-0.8
			c-0.5-0.5-0.7-1.2-0.7-2.2c0-0.6,0.1-1.1,0.3-1.6s0.5-0.8,0.9-1c0.4-0.2,0.9-0.3,1.3-0.3c0.6,0,1.1,0.2,1.5,0.5
			c0.4,0.3,0.6,0.7,0.7,1.3l-0.9,0.1c-0.1-0.4-0.2-0.7-0.5-0.8c-0.2-0.2-0.5-0.3-0.8-0.3c-0.5,0-0.9,0.2-1.2,0.5
			c-0.3,0.3-0.4,0.9-0.4,1.6c0,0.8,0.1,1.3,0.4,1.6c0.3,0.3,0.7,0.5,1.1,0.5c0.4,0,0.7-0.1,0.9-0.3C81,251,81.2,250.6,81.2,250.1z"
			/>
		<path id="XMLID_101_" d="M83,245.6v-1.1h0.9v1.1H83z M83,252.2v-5.6h0.9v5.6H83z"/>
		<path id="XMLID_104_" d="M89,251.5c-0.4,0.3-0.7,0.5-1,0.6c-0.3,0.1-0.7,0.2-1,0.2c-0.6,0-1.1-0.2-1.4-0.5s-0.5-0.7-0.5-1.2
			c0-0.3,0.1-0.5,0.2-0.8s0.3-0.4,0.5-0.5c0.2-0.1,0.4-0.2,0.7-0.3c0.2,0,0.5-0.1,0.8-0.1c0.8-0.1,1.3-0.2,1.7-0.3
			c0-0.1,0-0.2,0-0.2c0-0.4-0.1-0.7-0.3-0.8c-0.2-0.2-0.6-0.3-1.1-0.3c-0.4,0-0.8,0.1-1,0.2c-0.2,0.2-0.4,0.4-0.5,0.8l-0.9-0.1
			c0.1-0.4,0.2-0.7,0.4-1s0.5-0.4,0.8-0.6c0.4-0.1,0.8-0.2,1.3-0.2c0.5,0,0.9,0.1,1.2,0.2c0.3,0.1,0.5,0.3,0.7,0.4s0.2,0.4,0.3,0.6
			c0,0.2,0,0.5,0,0.9v1.3c0,0.9,0,1.4,0.1,1.7c0,0.2,0.1,0.5,0.2,0.7h-1C89.1,252,89.1,251.8,89,251.5z M89,249.4
			c-0.3,0.1-0.9,0.3-1.5,0.4c-0.4,0.1-0.7,0.1-0.8,0.2c-0.2,0.1-0.3,0.2-0.4,0.3s-0.1,0.3-0.1,0.5c0,0.3,0.1,0.5,0.3,0.6
			c0.2,0.2,0.5,0.3,0.8,0.3c0.4,0,0.7-0.1,1-0.2s0.5-0.4,0.6-0.7c0.1-0.2,0.2-0.5,0.2-0.9V249.4z"/>
		<path id="XMLID_107_" d="M91.4,252.2v-7.7h0.9v7.7H91.4z"/>
	</g>
	<g id="XMLID_18185_">
		<path id="XMLID_18_" class="st2" d="M14.3,157.5c-7.1,0-12.8-5.7-12.8-12.8v-9c0-7.1,5.7-12.8,12.8-12.8H76
			c7.1,0,12.8,5.7,12.8,12.8v9c0,7.1-5.7,12.8-12.8,12.8H14.3z"/>
		<path id="XMLID_15_" class="st4" d="M76,124.3c6.2,0,11.3,5.1,11.3,11.3v9c0,6.2-5.1,11.3-11.3,11.3H14.3C8.1,156,3,150.9,3,144.7
			v-9c0-6.2,5.1-11.3,11.3-11.3H76 M76,121.3H14.3c-7.9,0-14.3,6.4-14.3,14.3v9c0,7.9,6.4,14.3,14.3,14.3H76
			c7.9,0,14.3-6.4,14.3-14.3v-9C90.3,127.8,83.9,121.3,76,121.3L76,121.3z"/>
	</g>
	<g id="XMLID_56_">
		<path id="XMLID_57_" d="M23.2,144.3V136h6v1h-4.9v2.5h4.6v1h-4.6v2.8h5.1v1H23.2z"/>
		<path id="XMLID_59_" d="M30.3,142.5l1-0.2c0.1,0.4,0.2,0.7,0.5,0.9c0.3,0.2,0.6,0.3,1.1,0.3c0.5,0,0.8-0.1,1-0.3
			c0.2-0.2,0.3-0.4,0.3-0.7c0-0.2-0.1-0.4-0.3-0.5c-0.1-0.1-0.5-0.2-1-0.3c-0.7-0.2-1.3-0.4-1.6-0.5c-0.3-0.1-0.5-0.3-0.7-0.6
			c-0.1-0.2-0.2-0.5-0.2-0.8c0-0.3,0.1-0.5,0.2-0.7s0.3-0.4,0.5-0.6c0.2-0.1,0.4-0.2,0.6-0.3c0.3-0.1,0.6-0.1,0.9-0.1
			c0.5,0,0.9,0.1,1.2,0.2c0.4,0.1,0.6,0.3,0.8,0.6s0.3,0.5,0.4,0.9l-1,0.1c0-0.3-0.2-0.6-0.4-0.7c-0.2-0.2-0.5-0.3-0.9-0.3
			c-0.5,0-0.8,0.1-1,0.2c-0.2,0.2-0.3,0.3-0.3,0.5c0,0.1,0,0.3,0.1,0.4c0.1,0.1,0.2,0.2,0.4,0.3c0.1,0,0.4,0.1,0.9,0.3
			c0.7,0.2,1.2,0.3,1.5,0.5c0.3,0.1,0.5,0.3,0.7,0.5c0.2,0.2,0.2,0.5,0.2,0.9c0,0.3-0.1,0.7-0.3,1c-0.2,0.3-0.5,0.5-0.9,0.7
			s-0.8,0.2-1.3,0.2c-0.8,0-1.4-0.2-1.8-0.5C30.7,143.6,30.5,143.2,30.3,142.5z"/>
		<path id="XMLID_61_" d="M38.8,143.4l0.1,0.9c-0.3,0.1-0.5,0.1-0.8,0.1c-0.4,0-0.7-0.1-0.9-0.2s-0.3-0.3-0.4-0.5
			c-0.1-0.2-0.1-0.6-0.1-1.2v-3.5H36v-0.8h0.7v-1.5l1-0.6v2.1h1v0.8h-1v3.5c0,0.3,0,0.5,0.1,0.6c0,0.1,0.1,0.2,0.2,0.2
			s0.2,0.1,0.3,0.1C38.5,143.5,38.6,143.4,38.8,143.4z"/>
		<path id="XMLID_63_" d="M43.7,143.6c-0.4,0.3-0.7,0.5-1.1,0.7c-0.3,0.1-0.7,0.2-1.1,0.2c-0.7,0-1.2-0.2-1.5-0.5
			c-0.4-0.3-0.5-0.7-0.5-1.2c0-0.3,0.1-0.6,0.2-0.8c0.1-0.2,0.3-0.4,0.5-0.6c0.2-0.1,0.5-0.3,0.7-0.3c0.2-0.1,0.5-0.1,0.9-0.2
			c0.8-0.1,1.4-0.2,1.8-0.4c0-0.1,0-0.2,0-0.3c0-0.4-0.1-0.7-0.3-0.9c-0.3-0.2-0.6-0.3-1.2-0.3c-0.5,0-0.8,0.1-1.1,0.3
			c-0.2,0.2-0.4,0.5-0.5,0.9l-1-0.1c0.1-0.4,0.2-0.8,0.4-1c0.2-0.3,0.5-0.5,0.9-0.6c0.4-0.1,0.8-0.2,1.4-0.2c0.5,0,0.9,0.1,1.3,0.2
			c0.3,0.1,0.6,0.3,0.7,0.5c0.2,0.2,0.3,0.4,0.3,0.7c0,0.2,0.1,0.5,0.1,0.9v1.4c0,0.9,0,1.5,0.1,1.8c0,0.3,0.1,0.5,0.3,0.7h-1.1
			C43.8,144.1,43.7,143.9,43.7,143.6z M43.6,141.3c-0.4,0.2-0.9,0.3-1.7,0.4c-0.4,0.1-0.7,0.1-0.9,0.2c-0.2,0.1-0.3,0.2-0.4,0.3
			c-0.1,0.1-0.1,0.3-0.1,0.5c0,0.3,0.1,0.5,0.3,0.7s0.5,0.3,0.9,0.3c0.4,0,0.7-0.1,1-0.3c0.3-0.2,0.5-0.4,0.7-0.7
			c0.1-0.2,0.2-0.6,0.2-1V141.3z"/>
		<path id="XMLID_66_" d="M50.1,144.3v-0.8c-0.4,0.6-0.9,0.9-1.7,0.9c-0.5,0-0.9-0.1-1.3-0.4c-0.4-0.3-0.7-0.6-0.9-1.1
			c-0.2-0.5-0.3-1-0.3-1.6c0-0.6,0.1-1.1,0.3-1.6c0.2-0.5,0.5-0.9,0.9-1.1c0.4-0.3,0.8-0.4,1.3-0.4c0.4,0,0.7,0.1,1,0.2
			c0.3,0.2,0.5,0.4,0.7,0.6v-3h1v8.3H50.1z M46.9,141.3c0,0.8,0.2,1.3,0.5,1.7c0.3,0.4,0.7,0.6,1.2,0.6c0.4,0,0.8-0.2,1.1-0.5
			s0.5-0.9,0.5-1.7c0-0.8-0.2-1.4-0.5-1.8c-0.3-0.4-0.7-0.6-1.2-0.6c-0.5,0-0.8,0.2-1.1,0.6C47.1,139.9,46.9,140.5,46.9,141.3z"/>
		<path id="XMLID_69_" d="M52.3,141.3c0-1.1,0.3-1.9,0.9-2.5c0.5-0.4,1.1-0.7,1.9-0.7c0.8,0,1.5,0.3,2,0.8c0.5,0.5,0.8,1.3,0.8,2.2
			c0,0.8-0.1,1.4-0.3,1.8s-0.6,0.8-1,1s-0.9,0.4-1.5,0.4c-0.8,0-1.5-0.3-2-0.8C52.6,143.1,52.3,142.3,52.3,141.3z M53.4,141.3
			c0,0.8,0.2,1.3,0.5,1.7c0.3,0.4,0.8,0.6,1.3,0.6c0.5,0,0.9-0.2,1.3-0.6c0.3-0.4,0.5-1,0.5-1.8c0-0.7-0.2-1.3-0.5-1.7
			c-0.3-0.4-0.8-0.6-1.3-0.6c-0.5,0-0.9,0.2-1.3,0.6C53.5,140,53.4,140.5,53.4,141.3z"/>
		<path id="XMLID_72_" d="M65.9,144.3h-1v-6.5c-0.2,0.2-0.6,0.5-1,0.7s-0.8,0.4-1.1,0.5v-1c0.6-0.3,1.1-0.6,1.5-1
			c0.4-0.4,0.7-0.8,0.9-1.1h0.7V144.3z"/>
	</g>
	<circle id="XMLID_18505_" class="st1" cx="62.1" cy="213.2" r="9.3"/>
	<circle id="XMLID_18511_" class="st1" cx="233.8" cy="131" r="9.3"/>
	<circle id="XMLID_18510_" class="st5" cx="233.8" cy="131" r="11.8"/>
	<g id="XMLID_12040_">
		<g id="XMLID_26_">
			<polyline id="XMLID_29_" class="st0" points="62.1,217.4 62.1,185.8 27.8,185.8 27.8,169.6 			"/>
			<g id="XMLID_27_">
				<polygon id="XMLID_28_" class="st1" points="27.8,159 33.9,173.9 27.8,170.3 21.7,173.9 				"/>
			</g>
		</g>
	</g>
	<g id="XMLID_12027_">
		<path id="XMLID_12527_" class="st6" d="M102,233.3v-3l3.2,3H102z M99.9,229.1v5.2c0,0.6,0.4,1,1,1h5.8v22.9c0,0.2-0.2,0.4-0.4,0.4
			h-50c-0.2,0-0.4-0.2-0.4-0.4v-28.8c0-0.2,0.2-0.4,0.4-0.4H99.9z M101.4,227.1h-45c-1.3,0-2.4,1.1-2.4,2.4v28.8
			c0,1.3,1.1,2.4,2.4,2.4h50c1.3,0,2.4-1.1,2.4-2.4v-24.4L101.4,227.1z"/>
	</g>
	<g id="XMLID_2_">
		<path id="XMLID_3_" d="M236,161.8l1,0.1c-0.2,0.6-0.4,1-0.9,1.3c-0.4,0.3-1,0.5-1.6,0.5c-0.8,0-1.5-0.3-1.9-0.8s-0.7-1.2-0.7-2.1
			c0-0.9,0.2-1.7,0.7-2.2c0.5-0.5,1.1-0.8,1.9-0.8c0.7,0,1.4,0.3,1.8,0.8s0.7,1.2,0.7,2.2c0,0.1,0,0.1,0,0.3h-4.2
			c0,0.6,0.2,1.1,0.5,1.4c0.3,0.3,0.7,0.5,1.2,0.5c0.3,0,0.6-0.1,0.9-0.3C235.6,162.5,235.8,162.2,236,161.8z M232.9,160.3h3.1
			c0-0.5-0.2-0.8-0.4-1.1c-0.3-0.4-0.7-0.5-1.2-0.5c-0.4,0-0.8,0.1-1.1,0.4C233,159.4,232.9,159.8,232.9,160.3z"/>
		<path id="XMLID_6_" d="M237.8,162l0.9-0.1c0.1,0.4,0.2,0.7,0.4,0.9c0.2,0.2,0.6,0.3,1,0.3c0.4,0,0.8-0.1,1-0.3
			c0.2-0.2,0.3-0.4,0.3-0.6c0-0.2-0.1-0.4-0.3-0.5c-0.1-0.1-0.5-0.2-1-0.3c-0.7-0.2-1.2-0.3-1.4-0.5c-0.3-0.1-0.5-0.3-0.6-0.5
			s-0.2-0.5-0.2-0.8c0-0.3,0.1-0.5,0.2-0.7c0.1-0.2,0.3-0.4,0.5-0.5c0.1-0.1,0.3-0.2,0.6-0.3s0.5-0.1,0.8-0.1c0.4,0,0.8,0.1,1.2,0.2
			s0.6,0.3,0.7,0.5c0.2,0.2,0.3,0.5,0.3,0.9l-0.9,0.1c0-0.3-0.2-0.5-0.4-0.7c-0.2-0.2-0.5-0.2-0.9-0.2c-0.4,0-0.7,0.1-0.9,0.2
			s-0.3,0.3-0.3,0.5c0,0.1,0,0.2,0.1,0.3c0.1,0.1,0.2,0.2,0.4,0.3c0.1,0,0.4,0.1,0.8,0.2c0.7,0.2,1.1,0.3,1.4,0.4
			c0.3,0.1,0.5,0.3,0.6,0.5c0.2,0.2,0.2,0.5,0.2,0.8c0,0.3-0.1,0.6-0.3,0.9s-0.5,0.5-0.8,0.6c-0.3,0.2-0.7,0.2-1.2,0.2
			c-0.7,0-1.3-0.2-1.7-0.5C238.1,163,237.9,162.5,237.8,162z"/>
		<path id="XMLID_8_" d="M245.6,162.8l0.1,0.8c-0.3,0.1-0.5,0.1-0.7,0.1c-0.3,0-0.6-0.1-0.8-0.2c-0.2-0.1-0.3-0.3-0.4-0.4
			c-0.1-0.2-0.1-0.5-0.1-1.1v-3.2H243V158h0.7v-1.4l0.9-0.6v2h1v0.7h-1v3.3c0,0.3,0,0.4,0,0.5c0,0.1,0.1,0.1,0.2,0.2
			c0.1,0,0.2,0.1,0.3,0.1C245.3,162.8,245.4,162.8,245.6,162.8z"/>
		<path id="XMLID_12_" d="M250.2,162.9c-0.4,0.3-0.7,0.5-1,0.6s-0.7,0.2-1,0.2c-0.6,0-1.1-0.2-1.4-0.5c-0.3-0.3-0.5-0.7-0.5-1.2
			c0-0.3,0.1-0.5,0.2-0.8c0.1-0.2,0.3-0.4,0.5-0.5c0.2-0.1,0.4-0.2,0.7-0.3c0.2,0,0.5-0.1,0.8-0.1c0.8-0.1,1.3-0.2,1.7-0.3
			c0-0.1,0-0.2,0-0.2c0-0.4-0.1-0.7-0.3-0.8c-0.2-0.2-0.6-0.3-1.1-0.3c-0.4,0-0.8,0.1-1,0.2s-0.4,0.4-0.5,0.8l-0.9-0.1
			c0.1-0.4,0.2-0.7,0.4-1s0.5-0.4,0.8-0.6c0.4-0.1,0.8-0.2,1.3-0.2c0.5,0,0.9,0.1,1.2,0.2c0.3,0.1,0.5,0.3,0.7,0.4
			c0.1,0.2,0.2,0.4,0.3,0.6c0,0.2,0,0.5,0,0.9v1.3c0,0.9,0,1.4,0.1,1.7c0,0.2,0.1,0.5,0.2,0.7h-1
			C250.3,163.4,250.2,163.2,250.2,162.9z M250.1,160.8c-0.3,0.1-0.9,0.3-1.5,0.4c-0.4,0.1-0.7,0.1-0.8,0.2c-0.2,0.1-0.3,0.2-0.4,0.3
			c-0.1,0.1-0.1,0.3-0.1,0.4c0,0.3,0.1,0.5,0.3,0.6s0.5,0.3,0.8,0.3c0.4,0,0.7-0.1,1-0.2c0.3-0.2,0.5-0.4,0.6-0.7
			c0.1-0.2,0.2-0.5,0.2-0.9V160.8z"/>
		<path id="XMLID_23_" d="M256.2,163.6v-0.7c-0.4,0.6-0.9,0.8-1.6,0.8c-0.4,0-0.9-0.1-1.2-0.4c-0.4-0.2-0.7-0.6-0.9-1
			c-0.2-0.4-0.3-0.9-0.3-1.5c0-0.6,0.1-1.1,0.3-1.5c0.2-0.5,0.5-0.8,0.8-1c0.4-0.2,0.8-0.4,1.2-0.4c0.3,0,0.6,0.1,0.9,0.2
			c0.3,0.1,0.5,0.3,0.6,0.6v-2.8h0.9v7.7H256.2z M253.2,160.8c0,0.7,0.2,1.3,0.5,1.6s0.7,0.5,1.1,0.5c0.4,0,0.8-0.2,1.1-0.5
			c0.3-0.3,0.4-0.9,0.4-1.6c0-0.8-0.1-1.3-0.4-1.7c-0.3-0.4-0.7-0.5-1.1-0.5c-0.4,0-0.8,0.2-1.1,0.5
			C253.3,159.5,253.2,160.1,253.2,160.8z"/>
		<path id="XMLID_41_" d="M258.2,160.8c0-1,0.3-1.8,0.9-2.3c0.5-0.4,1.1-0.6,1.8-0.6c0.8,0,1.4,0.3,1.9,0.8s0.7,1.2,0.7,2.1
			c0,0.7-0.1,1.3-0.3,1.7c-0.2,0.4-0.5,0.7-0.9,1s-0.9,0.3-1.4,0.3c-0.8,0-1.4-0.3-1.9-0.8C258.4,162.5,258.2,161.8,258.2,160.8z
			 M259.2,160.8c0,0.7,0.2,1.3,0.5,1.6c0.3,0.4,0.7,0.5,1.2,0.5c0.5,0,0.9-0.2,1.2-0.5c0.3-0.4,0.5-0.9,0.5-1.6
			c0-0.7-0.2-1.2-0.5-1.6c-0.3-0.4-0.7-0.5-1.2-0.5c-0.5,0-0.9,0.2-1.2,0.5C259.3,159.6,259.2,160.1,259.2,160.8z"/>
		<path id="XMLID_44_" d="M238.7,174.4v-4.9h-0.8v-0.7h0.8v-0.6c0-0.4,0-0.7,0.1-0.8c0.1-0.2,0.3-0.4,0.5-0.6c0.2-0.2,0.6-0.2,1-0.2
			c0.3,0,0.6,0,0.9,0.1l-0.1,0.8c-0.2,0-0.4-0.1-0.6-0.1c-0.3,0-0.5,0.1-0.6,0.2c-0.1,0.1-0.2,0.4-0.2,0.7v0.5h1.1v0.7h-1.1v4.9
			H238.7z"/>
		<path id="XMLID_46_" d="M241.4,167.8v-1.1h0.9v1.1H241.4z M241.4,174.4v-5.6h0.9v5.6H241.4z"/>
		<path id="XMLID_49_" d="M243.8,174.4v-5.6h0.9v0.8c0.4-0.6,1-0.9,1.8-0.9c0.3,0,0.6,0.1,0.9,0.2s0.5,0.3,0.6,0.5
			c0.1,0.2,0.2,0.4,0.3,0.7c0,0.2,0.1,0.5,0.1,0.9v3.4h-0.9V171c0-0.4,0-0.7-0.1-0.9c-0.1-0.2-0.2-0.3-0.4-0.5
			c-0.2-0.1-0.4-0.2-0.7-0.2c-0.4,0-0.8,0.1-1,0.4c-0.3,0.3-0.4,0.7-0.4,1.5v3.1H243.8z"/>
		<path id="XMLID_51_" d="M253.5,173.7c-0.4,0.3-0.7,0.5-1,0.6c-0.3,0.1-0.7,0.2-1,0.2c-0.6,0-1.1-0.2-1.4-0.5
			c-0.3-0.3-0.5-0.7-0.5-1.2c0-0.3,0.1-0.5,0.2-0.8s0.3-0.4,0.5-0.5s0.4-0.2,0.7-0.3c0.2,0,0.5-0.1,0.8-0.1c0.8-0.1,1.3-0.2,1.7-0.3
			c0-0.1,0-0.2,0-0.2c0-0.4-0.1-0.7-0.3-0.8c-0.2-0.2-0.6-0.3-1.1-0.3c-0.4,0-0.8,0.1-1,0.2c-0.2,0.2-0.4,0.4-0.5,0.8l-0.9-0.1
			c0.1-0.4,0.2-0.7,0.4-1s0.5-0.4,0.8-0.6c0.4-0.1,0.8-0.2,1.3-0.2c0.5,0,0.9,0.1,1.2,0.2c0.3,0.1,0.5,0.3,0.7,0.4
			c0.1,0.2,0.2,0.4,0.3,0.6c0,0.2,0,0.5,0,0.9v1.3c0,0.9,0,1.4,0.1,1.7c0,0.2,0.1,0.5,0.2,0.7h-1C253.6,174.2,253.5,174,253.5,173.7
			z M253.4,171.6c-0.3,0.1-0.9,0.3-1.5,0.4c-0.4,0.1-0.7,0.1-0.8,0.2c-0.2,0.1-0.3,0.2-0.4,0.3c-0.1,0.1-0.1,0.3-0.1,0.4
			c0,0.3,0.1,0.5,0.3,0.6s0.5,0.3,0.8,0.3c0.4,0,0.7-0.1,1-0.2s0.5-0.4,0.6-0.7c0.1-0.2,0.2-0.5,0.2-0.9V171.6z"/>
		<path id="XMLID_54_" d="M255.8,174.4v-7.7h0.9v7.7H255.8z"/>
	</g>
	<g id="XMLID_15621_">
		<path id="XMLID_17167_" class="st6" d="M270,155.6v-3l3.2,3H270z M268,151.3v5.2c0,0.6,0.4,1,1,1h5.8v22.9c0,0.2-0.2,0.4-0.4,0.4
			h-50c-0.2,0-0.4-0.2-0.4-0.4v-28.8c0-0.2,0.2-0.4,0.4-0.4H268z M269.4,149.3h-45c-1.3,0-2.4,1.1-2.4,2.4v28.8
			c0,1.3,1.1,2.4,2.4,2.4h50c1.3,0,2.4-1.1,2.4-2.4v-24.4L269.4,149.3z"/>
	</g>
</g>
</svg>
