<?xml version="1.0" encoding="utf-8"?>
<!-- Generator: Adobe Illustrator 19.0.0, SVG Export Plug-In . SVG Version: 6.00 Build 0)  -->
<svg version="1.1" id="Capa_1" xmlns="http://www.w3.org/2000/svg" xmlns:xlink="http://www.w3.org/1999/xlink" x="0px" y="0px"
	 viewBox="0 0 558.3 320.5" style="enable-background:new 0 0 558.3 320.5;" xml:space="preserve">
<style type="text/css">
	.st0{fill:#FFFFFF;}
	.st1{fill:none;stroke:#FFFFFF;stroke-width:2.5;stroke-miterlimit:10;}
	.st2{fill:#0367A6;}
	.st3{fill:#F29422;}
	.st4{fill:#F9D523;}
	.st5{fill:none;stroke:#F9D523;stroke-width:2;stroke-miterlimit:10;}
</style>
<g id="XMLID_2_">
	<g id="XMLID_15742_">
		<line id="XMLID_311_" class="st0" x1="77.8" y1="13.9" x2="77.8" y2="88.1"/>
		<g id="XMLID_307_">
			<line id="XMLID_310_" class="st1" x1="77.8" y1="13.9" x2="77.8" y2="74.9"/>
			<g id="XMLID_308_">
				<polygon id="XMLID_309_" class="st0" points="77.8,88.1 70.2,69.5 77.8,73.9 85.4,69.5 				"/>
			</g>
		</g>
	</g>
	<g id="XMLID_18011_">
		<line id="XMLID_305_" class="st0" x1="77.8" y1="151.5" x2="200.5" y2="282.1"/>
		<g id="XMLID_301_">
			<line id="XMLID_304_" class="st1" x1="77.8" y1="151.5" x2="191.5" y2="272.5"/>
			<g id="XMLID_302_">
				<polygon id="XMLID_303_" class="st0" points="200.5,282.1 182.2,273.7 190.8,271.8 193.3,263.3 				"/>
			</g>
		</g>
	</g>
	<g id="XMLID_18012_">
		<line id="XMLID_299_" class="st0" x1="479.5" y1="151.5" x2="356.8" y2="282.1"/>
		<g id="XMLID_65_">
			<line id="XMLID_71_" class="st1" x1="479.5" y1="151.5" x2="365.9" y2="272.5"/>
			<g id="XMLID_69_">
				<polygon id="XMLID_70_" class="st0" points="356.8,282.1 364,263.3 366.5,271.8 375.1,273.7 				"/>
			</g>
		</g>
	</g>
	<g id="XMLID_18174_">
		<path id="XMLID_49_" class="st0" d="M14.3,151.4c-7.1,0-12.8-5.7-12.8-12.8v-36.2c0-7.1,5.7-12.8,12.8-12.8h127
			c7.1,0,12.8,5.7,12.8,12.8v36.2c0,7.1-5.7,12.8-12.8,12.8H14.3z"/>
		<path id="XMLID_28_" class="st2" d="M141.3,91.1c6.2,0,11.3,5.1,11.3,11.3v36.2c0,6.2-5.1,11.3-11.3,11.3h-127
			c-6.2,0-11.3-5.1-11.3-11.3v-36.2c0-6.2,5.1-11.3,11.3-11.3H141.3 M141.3,88.1h-127C6.4,88.1,0,94.6,0,102.4v36.2
			c0,7.9,6.4,14.3,14.3,14.3h127c7.9,0,14.3-6.4,14.3-14.3v-36.2C155.6,94.6,149.1,88.1,141.3,88.1L141.3,88.1z"/>
	</g>
	<g id="XMLID_242_">
		<path id="XMLID_243_" d="M17.6,127.7v-14.3h4.9c1.1,0,2,0.1,2.5,0.2c0.8,0.2,1.5,0.5,2.1,1c0.8,0.6,1.3,1.5,1.7,2.4
			s0.6,2.1,0.6,3.4c0,1.1-0.1,2.1-0.4,2.9c-0.3,0.8-0.6,1.5-1,2.1c-0.4,0.5-0.8,1-1.3,1.3s-1,0.6-1.7,0.7s-1.4,0.2-2.3,0.2H17.6z
			 M19.5,126h3.1c0.9,0,1.7-0.1,2.2-0.3s1-0.4,1.3-0.7c0.4-0.4,0.8-1.1,1.1-1.8c0.3-0.8,0.4-1.7,0.4-2.8c0-1.5-0.2-2.6-0.7-3.5
			c-0.5-0.8-1.1-1.3-1.8-1.6c-0.5-0.2-1.3-0.3-2.5-0.3h-3V126z"/>
		<path id="XMLID_246_" d="M38.9,124.4l1.8,0.2c-0.3,1.1-0.8,1.9-1.6,2.5s-1.8,0.9-3,0.9c-1.5,0-2.7-0.5-3.6-1.4
			c-0.9-0.9-1.3-2.2-1.3-3.9c0-1.7,0.4-3.1,1.3-4.1c0.9-1,2.1-1.4,3.5-1.4c1.4,0,2.5,0.5,3.4,1.4s1.3,2.3,1.3,4c0,0.1,0,0.3,0,0.5
			h-7.7c0.1,1.1,0.4,2,1,2.6s1.3,0.9,2.2,0.9c0.6,0,1.2-0.2,1.7-0.5C38.3,125.7,38.7,125.1,38.9,124.4z M33.2,121.5H39
			c-0.1-0.9-0.3-1.5-0.7-2c-0.6-0.7-1.3-1-2.2-1c-0.8,0-1.5,0.3-2,0.8C33.5,119.9,33.2,120.6,33.2,121.5z"/>
		<path id="XMLID_249_" d="M42.3,124.6l1.7-0.3c0.1,0.7,0.4,1.2,0.8,1.6c0.4,0.4,1.1,0.6,1.9,0.6c0.8,0,1.4-0.2,1.8-0.5
			c0.4-0.3,0.6-0.7,0.6-1.2c0-0.4-0.2-0.7-0.5-0.9c-0.2-0.2-0.8-0.4-1.8-0.6c-1.3-0.3-2.2-0.6-2.7-0.8c-0.5-0.2-0.9-0.6-1.1-1
			s-0.4-0.9-0.4-1.4c0-0.5,0.1-0.9,0.3-1.3s0.5-0.7,0.9-1c0.3-0.2,0.6-0.4,1.1-0.5c0.5-0.1,1-0.2,1.5-0.2c0.8,0,1.5,0.1,2.1,0.4
			c0.6,0.2,1.1,0.6,1.4,1s0.5,0.9,0.6,1.6l-1.7,0.2c-0.1-0.5-0.3-1-0.7-1.3c-0.4-0.3-0.9-0.4-1.6-0.4c-0.8,0-1.4,0.1-1.7,0.4
			c-0.3,0.3-0.5,0.6-0.5,0.9c0,0.2,0.1,0.4,0.2,0.6c0.1,0.2,0.4,0.3,0.7,0.5c0.2,0.1,0.7,0.2,1.6,0.4c1.2,0.3,2.1,0.6,2.6,0.8
			c0.5,0.2,0.9,0.5,1.2,0.9c0.3,0.4,0.4,0.9,0.4,1.5c0,0.6-0.2,1.1-0.5,1.7s-0.8,0.9-1.5,1.2s-1.4,0.4-2.2,0.4
			c-1.3,0-2.4-0.3-3.1-0.8S42.5,125.7,42.3,124.6z"/>
		<path id="XMLID_251_" d="M60.1,124.4l1.8,0.2c-0.3,1.1-0.8,1.9-1.6,2.5s-1.8,0.9-3,0.9c-1.5,0-2.7-0.5-3.6-1.4
			c-0.9-0.9-1.3-2.2-1.3-3.9c0-1.7,0.4-3.1,1.3-4.1c0.9-1,2.1-1.4,3.5-1.4c1.4,0,2.5,0.5,3.4,1.4s1.3,2.3,1.3,4c0,0.1,0,0.3,0,0.5
			h-7.7c0.1,1.1,0.4,2,1,2.6s1.3,0.9,2.2,0.9c0.6,0,1.2-0.2,1.7-0.5C59.4,125.7,59.8,125.1,60.1,124.4z M54.3,121.5h5.8
			c-0.1-0.9-0.3-1.5-0.7-2c-0.6-0.7-1.3-1-2.2-1c-0.8,0-1.5,0.3-2,0.8C54.7,119.9,54.4,120.6,54.3,121.5z"/>
		<path id="XMLID_254_" d="M64.1,127.7v-10.4h1.6v1.5c0.3-0.5,0.8-0.9,1.3-1.2s1.2-0.5,1.8-0.5c0.8,0,1.4,0.2,1.9,0.5
			c0.5,0.3,0.8,0.8,1,1.3c0.8-1.2,1.9-1.8,3.2-1.8c1,0,1.8,0.3,2.4,0.9c0.6,0.6,0.8,1.4,0.8,2.6v7.1h-1.7v-6.5
			c0-0.7-0.1-1.2-0.2-1.5s-0.3-0.6-0.6-0.7c-0.3-0.2-0.7-0.3-1.1-0.3c-0.7,0-1.3,0.2-1.8,0.7s-0.7,1.3-0.7,2.3v6h-1.8V121
			c0-0.8-0.1-1.4-0.4-1.8c-0.3-0.4-0.8-0.6-1.4-0.6c-0.5,0-1,0.1-1.4,0.4s-0.7,0.6-0.9,1.1c-0.2,0.5-0.3,1.2-0.3,2.2v5.4H64.1z"/>
		<path id="XMLID_256_" d="M80.7,131.7v-14.3h1.6v1.3c0.4-0.5,0.8-0.9,1.3-1.2c0.5-0.3,1.1-0.4,1.7-0.4c0.9,0,1.7,0.2,2.3,0.7
			s1.2,1.1,1.5,1.9s0.5,1.7,0.5,2.7c0,1.1-0.2,2-0.6,2.9s-0.9,1.5-1.7,2S86,128,85.2,128c-0.6,0-1.1-0.1-1.6-0.4
			c-0.5-0.2-0.8-0.6-1.1-0.9v5H80.7z M82.3,122.6c0,1.3,0.3,2.3,0.8,3c0.5,0.6,1.2,1,2,1c0.8,0,1.5-0.3,2-1s0.8-1.7,0.8-3.1
			c0-1.3-0.3-2.3-0.8-3c-0.5-0.7-1.2-1-1.9-1c-0.7,0-1.4,0.3-2,1S82.3,121.3,82.3,122.6z"/>
		<path id="XMLID_259_" d="M91.8,127.7v-14.3h1.8v14.3H91.8z"/>
		<path id="XMLID_261_" d="M103.4,124.4l1.8,0.2c-0.3,1.1-0.8,1.9-1.6,2.5s-1.8,0.9-3,0.9c-1.5,0-2.7-0.5-3.6-1.4
			c-0.9-0.9-1.3-2.2-1.3-3.9c0-1.7,0.4-3.1,1.3-4.1c0.9-1,2.1-1.4,3.5-1.4c1.4,0,2.5,0.5,3.4,1.4s1.3,2.3,1.3,4c0,0.1,0,0.3,0,0.5
			h-7.7c0.1,1.1,0.4,2,1,2.6s1.3,0.9,2.2,0.9c0.6,0,1.2-0.2,1.7-0.5C102.8,125.7,103.2,125.1,103.4,124.4z M97.6,121.5h5.8
			c-0.1-0.9-0.3-1.5-0.7-2c-0.6-0.7-1.3-1-2.2-1c-0.8,0-1.5,0.3-2,0.8C98,119.9,97.7,120.6,97.6,121.5z"/>
		<path id="XMLID_264_" d="M114.2,126.4c-0.7,0.6-1.3,0.9-1.9,1.2c-0.6,0.2-1.2,0.3-1.9,0.3c-1.1,0-2-0.3-2.6-0.8
			c-0.6-0.6-0.9-1.3-0.9-2.1c0-0.5,0.1-1,0.3-1.4c0.2-0.4,0.5-0.8,0.9-1s0.8-0.4,1.3-0.6c0.3-0.1,0.9-0.2,1.6-0.3
			c1.4-0.2,2.5-0.4,3.1-0.6c0-0.2,0-0.4,0-0.5c0-0.7-0.2-1.2-0.5-1.5c-0.4-0.4-1.1-0.6-2-0.6c-0.8,0-1.4,0.1-1.8,0.4
			c-0.4,0.3-0.7,0.8-0.9,1.5l-1.7-0.2c0.2-0.7,0.4-1.3,0.8-1.8c0.4-0.5,0.9-0.8,1.6-1c0.7-0.2,1.5-0.4,2.4-0.4
			c0.9,0,1.6,0.1,2.2,0.3c0.6,0.2,1,0.5,1.2,0.8s0.4,0.7,0.5,1.2c0.1,0.3,0.1,0.8,0.1,1.6v2.3c0,1.6,0,2.7,0.1,3.1s0.2,0.8,0.4,1.2
			h-1.8C114.4,127.4,114.3,126.9,114.2,126.4z M114.1,122.5c-0.6,0.3-1.6,0.5-2.9,0.7c-0.7,0.1-1.2,0.2-1.5,0.4
			c-0.3,0.1-0.5,0.3-0.7,0.6c-0.2,0.3-0.2,0.5-0.2,0.8c0,0.5,0.2,0.9,0.5,1.2c0.4,0.3,0.9,0.5,1.6,0.5c0.7,0,1.3-0.1,1.8-0.4
			c0.5-0.3,0.9-0.7,1.2-1.2c0.2-0.4,0.3-1,0.3-1.8V122.5z"/>
		<path id="XMLID_267_" d="M125.3,127.7v-1.3c-0.7,1-1.6,1.5-2.9,1.5c-0.8,0-1.6-0.2-2.3-0.7c-0.7-0.5-1.2-1.1-1.6-1.9
			s-0.6-1.8-0.6-2.8c0-1,0.2-2,0.5-2.8c0.3-0.8,0.9-1.5,1.6-1.9c0.7-0.4,1.5-0.7,2.3-0.7c0.6,0,1.2,0.1,1.7,0.4
			c0.5,0.3,0.9,0.6,1.2,1v-5.1h1.7v14.3H125.3z M119.7,122.5c0,1.3,0.3,2.3,0.8,3c0.6,0.7,1.2,1,2,1c0.8,0,1.4-0.3,2-0.9
			c0.5-0.6,0.8-1.6,0.8-2.9c0-1.4-0.3-2.5-0.8-3.1s-1.2-1-2-1c-0.8,0-1.4,0.3-2,1C120,120.2,119.7,121.2,119.7,122.5z"/>
		<path id="XMLID_270_" d="M129,122.5c0-1.9,0.5-3.3,1.6-4.3c0.9-0.8,2-1.2,3.3-1.2c1.4,0,2.6,0.5,3.5,1.4c0.9,0.9,1.4,2.2,1.4,3.9
			c0,1.3-0.2,2.4-0.6,3.2c-0.4,0.8-1,1.4-1.7,1.8s-1.6,0.6-2.5,0.6c-1.5,0-2.6-0.5-3.5-1.4C129.5,125.6,129,124.3,129,122.5z
			 M130.8,122.5c0,1.3,0.3,2.3,0.9,3c0.6,0.7,1.3,1,2.2,1c0.9,0,1.6-0.3,2.2-1c0.6-0.7,0.9-1.7,0.9-3c0-1.3-0.3-2.3-0.9-2.9
			c-0.6-0.7-1.3-1-2.2-1c-0.9,0-1.6,0.3-2.2,1C131.1,120.2,130.8,121.2,130.8,122.5z"/>
	</g>
	<g id="XMLID_188_">
		<path id="XMLID_189_" class="st0" d="M257.5,32.3l1.6,0.2c-0.2,1.1-0.6,1.9-1.3,2.5c-0.7,0.6-1.6,0.9-2.6,0.9
			c-1.3,0-2.3-0.4-3.1-1.3c-0.8-0.8-1.2-2-1.2-3.6c0-1,0.2-1.9,0.5-2.6s0.8-1.3,1.5-1.7c0.7-0.4,1.4-0.6,2.2-0.6
			c1,0,1.8,0.3,2.5,0.8s1.1,1.2,1.2,2.2l-1.5,0.2c-0.1-0.6-0.4-1.1-0.8-1.4s-0.8-0.5-1.3-0.5c-0.8,0-1.4,0.3-1.9,0.9
			c-0.5,0.6-0.7,1.5-0.7,2.7c0,1.3,0.2,2.2,0.7,2.7s1.1,0.9,1.9,0.9c0.6,0,1.1-0.2,1.6-0.6S257.4,33.1,257.5,32.3z"/>
		<path id="XMLID_191_" class="st0" d="M259.9,31.1c0-1.7,0.5-3,1.4-3.8c0.8-0.7,1.8-1,2.9-1c1.3,0,2.3,0.4,3.1,1.3s1.2,2,1.2,3.5
			c0,1.2-0.2,2.1-0.5,2.8c-0.4,0.7-0.9,1.2-1.6,1.6s-1.4,0.6-2.3,0.6c-1.3,0-2.4-0.4-3.2-1.3S259.9,32.6,259.9,31.1z M261.5,31.1
			c0,1.2,0.3,2.1,0.8,2.7c0.5,0.6,1.2,0.9,2,0.9c0.8,0,1.4-0.3,2-0.9s0.8-1.5,0.8-2.7c0-1.2-0.3-2-0.8-2.6c-0.5-0.6-1.2-0.9-2-0.9
			c-0.8,0-1.4,0.3-2,0.9S261.5,29.9,261.5,31.1z"/>
		<path id="XMLID_194_" class="st0" d="M270.5,35.7v-9.3h1.4v1.3c0.7-1,1.7-1.5,3-1.5c0.6,0,1.1,0.1,1.6,0.3
			c0.5,0.2,0.8,0.5,1.1,0.8s0.4,0.7,0.5,1.2c0.1,0.3,0.1,0.8,0.1,1.5v5.7h-1.6V30c0-0.6-0.1-1.1-0.2-1.4s-0.3-0.6-0.7-0.8
			c-0.3-0.2-0.7-0.3-1.1-0.3c-0.7,0-1.3,0.2-1.7,0.6s-0.7,1.2-0.7,2.4v5.1H270.5z"/>
		<path id="XMLID_196_" class="st0" d="M283.9,34.3l0.2,1.4c-0.4,0.1-0.8,0.1-1.2,0.1c-0.6,0-1-0.1-1.3-0.3s-0.5-0.4-0.7-0.7
			s-0.2-0.9-0.2-1.9v-5.4h-1.2v-1.2h1.2v-2.3l1.6-0.9v3.3h1.6v1.2h-1.6v5.5c0,0.5,0,0.7,0.1,0.9s0.1,0.2,0.3,0.3s0.3,0.1,0.5,0.1
			C283.4,34.4,283.6,34.3,283.9,34.3z"/>
		<path id="XMLID_198_" class="st0" d="M285.5,35.7v-9.3h1.4v1.4c0.4-0.7,0.7-1.1,1-1.3s0.6-0.3,1-0.3c0.5,0,1.1,0.2,1.6,0.5
			l-0.5,1.5c-0.4-0.2-0.8-0.3-1.2-0.3c-0.3,0-0.7,0.1-0.9,0.3s-0.5,0.5-0.6,0.9c-0.2,0.6-0.3,1.2-0.3,1.8v4.9H285.5z"/>
		<path id="XMLID_200_" class="st0" d="M297.6,34.6c-0.6,0.5-1.1,0.8-1.7,1.1s-1.1,0.3-1.7,0.3c-1,0-1.8-0.3-2.4-0.8
			c-0.6-0.5-0.8-1.1-0.8-1.9c0-0.5,0.1-0.9,0.3-1.3c0.2-0.4,0.5-0.7,0.8-0.9s0.7-0.4,1.1-0.5c0.3-0.1,0.8-0.2,1.4-0.2
			c1.3-0.2,2.2-0.3,2.8-0.5c0-0.2,0-0.4,0-0.4c0-0.6-0.1-1.1-0.4-1.4c-0.4-0.4-1-0.5-1.8-0.5c-0.7,0-1.3,0.1-1.6,0.4
			s-0.6,0.7-0.8,1.4l-1.5-0.2c0.1-0.7,0.4-1.2,0.7-1.6c0.3-0.4,0.8-0.7,1.4-0.9c0.6-0.2,1.3-0.3,2.1-0.3c0.8,0,1.4,0.1,1.9,0.3
			s0.9,0.4,1.1,0.7c0.2,0.3,0.4,0.6,0.5,1.1c0.1,0.3,0.1,0.8,0.1,1.5v2.1c0,1.5,0,2.4,0.1,2.8c0.1,0.4,0.2,0.8,0.4,1.1h-1.7
			C297.7,35.4,297.6,35,297.6,34.6z M297.4,31c-0.6,0.2-1.4,0.4-2.6,0.6c-0.7,0.1-1.1,0.2-1.4,0.3c-0.3,0.1-0.5,0.3-0.6,0.5
			s-0.2,0.5-0.2,0.8c0,0.4,0.2,0.8,0.5,1.1s0.8,0.4,1.4,0.4c0.6,0,1.2-0.1,1.6-0.4s0.8-0.6,1-1.1c0.2-0.4,0.3-0.9,0.3-1.6V31z"/>
		<path id="XMLID_203_" class="st0" d="M304.9,34.3l0.2,1.4c-0.4,0.1-0.8,0.1-1.2,0.1c-0.6,0-1-0.1-1.3-0.3s-0.5-0.4-0.7-0.7
			s-0.2-0.9-0.2-1.9v-5.4h-1.2v-1.2h1.2v-2.3l1.6-0.9v3.3h1.6v1.2h-1.6v5.5c0,0.5,0,0.7,0.1,0.9s0.1,0.2,0.3,0.3s0.3,0.1,0.5,0.1
			C304.4,34.4,304.6,34.3,304.9,34.3z"/>
		<path id="XMLID_205_" class="st0" d="M312.6,34.6c-0.6,0.5-1.1,0.8-1.7,1.1s-1.1,0.3-1.7,0.3c-1,0-1.8-0.3-2.4-0.8
			c-0.6-0.5-0.8-1.1-0.8-1.9c0-0.5,0.1-0.9,0.3-1.3c0.2-0.4,0.5-0.7,0.8-0.9s0.7-0.4,1.1-0.5c0.3-0.1,0.8-0.2,1.4-0.2
			c1.3-0.2,2.2-0.3,2.8-0.5c0-0.2,0-0.4,0-0.4c0-0.6-0.1-1.1-0.4-1.4c-0.4-0.4-1-0.5-1.8-0.5c-0.7,0-1.3,0.1-1.6,0.4
			s-0.6,0.7-0.8,1.4l-1.5-0.2c0.1-0.7,0.4-1.2,0.7-1.6c0.3-0.4,0.8-0.7,1.4-0.9c0.6-0.2,1.3-0.3,2.1-0.3c0.8,0,1.4,0.1,1.9,0.3
			s0.9,0.4,1.1,0.7c0.2,0.3,0.4,0.6,0.5,1.1c0.1,0.3,0.1,0.8,0.1,1.5v2.1c0,1.5,0,2.4,0.1,2.8c0.1,0.4,0.2,0.8,0.4,1.1h-1.7
			C312.7,35.4,312.6,35,312.6,34.6z M312.4,31c-0.6,0.2-1.4,0.4-2.6,0.6c-0.7,0.1-1.1,0.2-1.4,0.3c-0.3,0.1-0.5,0.3-0.6,0.5
			s-0.2,0.5-0.2,0.8c0,0.4,0.2,0.8,0.5,1.1s0.8,0.4,1.4,0.4c0.6,0,1.2-0.1,1.6-0.4s0.8-0.6,1-1.1c0.2-0.4,0.3-0.9,0.3-1.6V31z"/>
		<path id="XMLID_208_" class="st0" d="M316.5,35.7v-9.3h1.4v1.4c0.4-0.7,0.7-1.1,1-1.3s0.6-0.3,1-0.3c0.5,0,1.1,0.2,1.6,0.5
			l-0.5,1.5c-0.4-0.2-0.8-0.3-1.2-0.3c-0.3,0-0.7,0.1-0.9,0.3s-0.5,0.5-0.6,0.9c-0.2,0.6-0.3,1.2-0.3,1.8v4.9H316.5z"/>
		<path id="XMLID_210_" class="st0" d="M228.9,60.9V48h1.4v1.2c0.3-0.5,0.7-0.8,1.2-1.1c0.4-0.2,0.9-0.4,1.6-0.4
			c0.8,0,1.5,0.2,2.1,0.6s1.1,1,1.4,1.7c0.3,0.7,0.5,1.6,0.5,2.5c0,1-0.2,1.8-0.5,2.6c-0.3,0.8-0.8,1.4-1.5,1.8
			c-0.7,0.4-1.3,0.6-2.1,0.6c-0.5,0-1-0.1-1.4-0.3s-0.8-0.5-1-0.8v4.5H228.9z M230.4,52.7c0,1.2,0.2,2.1,0.7,2.7s1.1,0.9,1.8,0.9
			c0.7,0,1.3-0.3,1.8-0.9c0.5-0.6,0.8-1.5,0.8-2.8c0-1.2-0.2-2.1-0.7-2.7s-1.1-0.9-1.8-0.9c-0.7,0-1.3,0.3-1.8,0.9
			C230.6,50.6,230.4,51.5,230.4,52.7z"/>
		<path id="XMLID_213_" class="st0" d="M245.3,54.3l1.6,0.2c-0.3,1-0.7,1.7-1.4,2.2s-1.6,0.8-2.7,0.8c-1.4,0-2.4-0.4-3.2-1.3
			c-0.8-0.8-1.2-2-1.2-3.5c0-1.6,0.4-2.8,1.2-3.7s1.9-1.3,3.1-1.3c1.2,0,2.3,0.4,3.1,1.3s1.2,2,1.2,3.6c0,0.1,0,0.2,0,0.4h-7
			c0.1,1,0.3,1.8,0.9,2.4s1.2,0.8,2,0.8c0.6,0,1.1-0.2,1.5-0.5S245.1,55,245.3,54.3z M240.1,51.8h5.2c-0.1-0.8-0.3-1.4-0.6-1.8
			c-0.5-0.6-1.2-0.9-2-0.9c-0.7,0-1.3,0.2-1.8,0.7S240.2,50.9,240.1,51.8z"/>
		<path id="XMLID_216_" class="st0" d="M248.9,57.3V48h1.4v1.4c0.4-0.7,0.7-1.1,1-1.3s0.6-0.3,1-0.3c0.5,0,1.1,0.2,1.6,0.5l-0.5,1.5
			c-0.4-0.2-0.8-0.3-1.2-0.3c-0.3,0-0.7,0.1-0.9,0.3s-0.5,0.5-0.6,0.9c-0.2,0.6-0.3,1.2-0.3,1.8v4.9H248.9z"/>
		<path id="XMLID_218_" class="st0" d="M261,57.3v-1.2c-0.6,0.9-1.5,1.4-2.6,1.4c-0.7,0-1.4-0.2-2.1-0.6s-1.1-1-1.5-1.7
			c-0.3-0.7-0.5-1.6-0.5-2.5c0-0.9,0.2-1.8,0.5-2.5s0.8-1.3,1.4-1.7s1.3-0.6,2.1-0.6c0.6,0,1.1,0.1,1.5,0.4c0.4,0.2,0.8,0.5,1.1,0.9
			v-4.6h1.6v12.9H261z M256,52.7c0,1.2,0.3,2.1,0.8,2.7s1.1,0.9,1.8,0.9c0.7,0,1.3-0.3,1.8-0.8s0.7-1.4,0.7-2.6
			c0-1.3-0.2-2.2-0.7-2.8s-1.1-0.9-1.8-0.9c-0.7,0-1.3,0.3-1.8,0.9S256,51.4,256,52.7z"/>
		<path id="XMLID_221_" class="st0" d="M271.4,54.3l1.6,0.2c-0.3,1-0.7,1.7-1.4,2.2s-1.6,0.8-2.7,0.8c-1.4,0-2.4-0.4-3.2-1.3
			c-0.8-0.8-1.2-2-1.2-3.5c0-1.6,0.4-2.8,1.2-3.7s1.9-1.3,3.1-1.3c1.2,0,2.3,0.4,3.1,1.3s1.2,2,1.2,3.6c0,0.1,0,0.2,0,0.4h-7
			c0.1,1,0.3,1.8,0.9,2.4s1.2,0.8,2,0.8c0.6,0,1.1-0.2,1.5-0.5S271.1,55,271.4,54.3z M266.2,51.8h5.2c-0.1-0.8-0.3-1.4-0.6-1.8
			c-0.5-0.6-1.2-0.9-2-0.9c-0.7,0-1.3,0.2-1.8,0.7S266.2,50.9,266.2,51.8z"/>
		<path id="XMLID_224_" class="st0" d="M275,57.3V48h1.4v1.4c0.4-0.7,0.7-1.1,1-1.3s0.6-0.3,1-0.3c0.5,0,1.1,0.2,1.6,0.5l-0.5,1.5
			c-0.4-0.2-0.8-0.3-1.2-0.3c-0.3,0-0.7,0.1-0.9,0.3s-0.5,0.5-0.6,0.9c-0.2,0.6-0.3,1.2-0.3,1.8v4.9H275z"/>
		<path id="XMLID_226_" class="st0" d="M292.4,54.3l1.6,0.2c-0.3,1-0.7,1.7-1.4,2.2s-1.6,0.8-2.7,0.8c-1.4,0-2.4-0.4-3.2-1.3
			c-0.8-0.8-1.2-2-1.2-3.5c0-1.6,0.4-2.8,1.2-3.7s1.9-1.3,3.1-1.3c1.2,0,2.3,0.4,3.1,1.3s1.2,2,1.2,3.6c0,0.1,0,0.2,0,0.4h-7
			c0.1,1,0.3,1.8,0.9,2.4s1.2,0.8,2,0.8c0.6,0,1.1-0.2,1.5-0.5S292.1,55,292.4,54.3z M287.2,51.8h5.2c-0.1-0.8-0.3-1.4-0.6-1.8
			c-0.5-0.6-1.2-0.9-2-0.9c-0.7,0-1.3,0.2-1.8,0.7S287.2,50.9,287.2,51.8z"/>
		<path id="XMLID_229_" class="st0" d="M296,57.3V48h1.4v1.3c0.3-0.5,0.7-0.8,1.2-1.1s1-0.4,1.7-0.4c0.7,0,1.3,0.1,1.7,0.4
			s0.8,0.7,0.9,1.2c0.7-1.1,1.7-1.6,2.9-1.6c0.9,0,1.6,0.3,2.1,0.8s0.7,1.3,0.7,2.4v6.4h-1.6v-5.9c0-0.6-0.1-1.1-0.2-1.4
			s-0.3-0.5-0.6-0.7s-0.6-0.3-0.9-0.3c-0.7,0-1.2,0.2-1.6,0.7c-0.4,0.4-0.7,1.1-0.7,2.1v5.4h-1.6v-6.1c0-0.7-0.1-1.2-0.4-1.6
			s-0.7-0.5-1.3-0.5c-0.4,0-0.9,0.1-1.2,0.4s-0.7,0.6-0.8,1s-0.3,1.1-0.3,2v4.8H296z"/>
		<path id="XMLID_231_" class="st0" d="M311,60.9V48h1.4v1.2c0.3-0.5,0.7-0.8,1.2-1.1c0.4-0.2,0.9-0.4,1.6-0.4
			c0.8,0,1.5,0.2,2.1,0.6s1.1,1,1.4,1.7c0.3,0.7,0.5,1.6,0.5,2.5c0,1-0.2,1.8-0.5,2.6c-0.3,0.8-0.8,1.4-1.5,1.8
			c-0.7,0.4-1.3,0.6-2.1,0.6c-0.5,0-1-0.1-1.4-0.3s-0.8-0.5-1-0.8v4.5H311z M312.4,52.7c0,1.2,0.2,2.1,0.7,2.7s1.1,0.9,1.8,0.9
			c0.7,0,1.3-0.3,1.8-0.9c0.5-0.6,0.8-1.5,0.8-2.8c0-1.2-0.2-2.1-0.7-2.7S315.7,49,315,49c-0.7,0-1.3,0.3-1.8,0.9
			C312.7,50.6,312.4,51.5,312.4,52.7z"/>
		<path id="XMLID_234_" class="st0" d="M321,57.3V44.4h1.6v12.9H321z"/>
		<path id="XMLID_236_" class="st0" d="M331.4,54.3l1.6,0.2c-0.3,1-0.7,1.7-1.4,2.2s-1.6,0.8-2.7,0.8c-1.4,0-2.4-0.4-3.2-1.3
			c-0.8-0.8-1.2-2-1.2-3.5c0-1.6,0.4-2.8,1.2-3.7s1.9-1.3,3.1-1.3c1.2,0,2.3,0.4,3.1,1.3s1.2,2,1.2,3.6c0,0.1,0,0.2,0,0.4h-7
			c0.1,1,0.3,1.8,0.9,2.4s1.2,0.8,2,0.8c0.6,0,1.1-0.2,1.5-0.5S331.1,55,331.4,54.3z M326.2,51.8h5.2c-0.1-0.8-0.3-1.4-0.6-1.8
			c-0.5-0.6-1.2-0.9-2-0.9c-0.7,0-1.3,0.2-1.8,0.7S326.2,50.9,326.2,51.8z"/>
		<path id="XMLID_239_" class="st0" d="M334.4,52.7c0-1.7,0.5-3,1.4-3.8c0.8-0.7,1.8-1,2.9-1c1.3,0,2.3,0.4,3.1,1.3s1.2,2,1.2,3.5
			c0,1.2-0.2,2.1-0.5,2.8c-0.4,0.7-0.9,1.2-1.6,1.6s-1.4,0.6-2.3,0.6c-1.3,0-2.4-0.4-3.2-1.3S334.4,54.2,334.4,52.7z M336,52.7
			c0,1.2,0.3,2.1,0.8,2.7c0.5,0.6,1.2,0.9,2,0.9c0.8,0,1.4-0.3,2-0.9s0.8-1.5,0.8-2.7c0-1.2-0.3-2-0.8-2.6c-0.5-0.6-1.2-0.9-2-0.9
			c-0.8,0-1.4,0.3-2,0.9S336,51.5,336,52.7z"/>
	</g>
	<g id="XMLID_164_">
		<path id="XMLID_165_" class="st0" d="M8.4,220.3l0.3-1.3c0.3,0.1,0.6,0.1,0.7,0.1c0.3,0,0.6-0.1,0.7-0.3s0.2-0.7,0.2-1.6v-9.8H12
			v9.8c0,1.1-0.1,1.9-0.4,2.4c-0.4,0.6-1,0.9-1.9,0.9C9.3,220.5,8.8,220.4,8.4,220.3z M10.4,205.6v-1.8H12v1.8H10.4z"/>
		<path id="XMLID_168_" class="st0" d="M20.6,216.7v-1.4c-0.7,1.1-1.7,1.6-3,1.6c-0.6,0-1.1-0.1-1.5-0.3s-0.8-0.5-1.1-0.8
			s-0.4-0.7-0.5-1.2c-0.1-0.3-0.1-0.8-0.1-1.5v-5.8H16v5.2c0,0.8,0,1.4,0.1,1.7c0.1,0.4,0.3,0.7,0.6,1c0.3,0.2,0.7,0.4,1.2,0.4
			s0.9-0.1,1.3-0.4s0.7-0.6,0.9-1c0.2-0.4,0.3-1,0.3-1.8v-5H22v9.3H20.6z"/>
		<path id="XMLID_170_" class="st0" d="M25.9,216.7h-1.5v-12.9H26v4.6c0.7-0.8,1.5-1.3,2.6-1.3c0.6,0,1.1,0.1,1.6,0.3s0.9,0.6,1.3,1
			c0.3,0.4,0.6,0.9,0.8,1.5s0.3,1.2,0.3,1.9c0,1.6-0.4,2.8-1.2,3.7s-1.7,1.3-2.8,1.3c-1.1,0-2-0.5-2.6-1.4V216.7z M25.9,211.9
			c0,1.1,0.2,1.9,0.5,2.4c0.5,0.8,1.2,1.2,2,1.2c0.7,0,1.3-0.3,1.8-0.9s0.8-1.5,0.8-2.7c0-1.2-0.2-2.1-0.7-2.7s-1.1-0.9-1.8-0.9
			c-0.7,0-1.3,0.3-1.8,0.9C26.2,209.9,25.9,210.8,25.9,211.9z"/>
		<path id="XMLID_173_" class="st0" d="M34.5,205.6v-1.8h1.6v1.8H34.5z M34.5,216.7v-9.3h1.6v9.3H34.5z"/>
		<path id="XMLID_176_" class="st0" d="M38.4,216.7v-12.9H40v12.9H38.4z"/>
		<path id="XMLID_178_" class="st0" d="M48.6,215.5c-0.6,0.5-1.1,0.8-1.7,1.1s-1.1,0.3-1.7,0.3c-1,0-1.8-0.3-2.4-0.8
			c-0.6-0.5-0.8-1.1-0.8-1.9c0-0.5,0.1-0.9,0.3-1.3c0.2-0.4,0.5-0.7,0.8-0.9s0.7-0.4,1.1-0.5c0.3-0.1,0.8-0.2,1.4-0.2
			c1.3-0.2,2.2-0.3,2.8-0.5c0-0.2,0-0.4,0-0.4c0-0.6-0.1-1.1-0.4-1.4c-0.4-0.4-1-0.5-1.8-0.5c-0.7,0-1.3,0.1-1.6,0.4
			s-0.6,0.7-0.8,1.4l-1.5-0.2c0.1-0.7,0.4-1.2,0.7-1.6c0.3-0.4,0.8-0.7,1.4-0.9c0.6-0.2,1.3-0.3,2.1-0.3c0.8,0,1.4,0.1,1.9,0.3
			s0.9,0.4,1.1,0.7c0.2,0.3,0.4,0.6,0.5,1.1c0.1,0.3,0.1,0.8,0.1,1.5v2.1c0,1.5,0,2.4,0.1,2.8c0.1,0.4,0.2,0.8,0.4,1.1h-1.7
			C48.7,216.3,48.6,216,48.6,215.5z M48.4,212c-0.6,0.2-1.4,0.4-2.6,0.6c-0.7,0.1-1.1,0.2-1.4,0.3s-0.5,0.3-0.6,0.5
			s-0.2,0.5-0.2,0.8c0,0.4,0.2,0.8,0.5,1.1s0.8,0.4,1.4,0.4c0.6,0,1.2-0.1,1.6-0.4s0.8-0.6,1-1.1c0.2-0.4,0.3-0.9,0.3-1.6V212z"/>
		<path id="XMLID_181_" class="st0" d="M52.5,216.7v-9.3h1.4v1.4c0.4-0.7,0.7-1.1,1-1.3s0.6-0.3,1-0.3c0.5,0,1.1,0.2,1.6,0.5
			l-0.5,1.5c-0.4-0.2-0.8-0.3-1.2-0.3c-0.3,0-0.7,0.1-0.9,0.3s-0.5,0.5-0.6,0.9c-0.2,0.6-0.3,1.2-0.3,1.8v4.9H52.5z"/>
		<path id="XMLID_183_" class="st0" d="M57.8,213.9l1.6-0.2c0.1,0.6,0.3,1.1,0.7,1.4s1,0.5,1.7,0.5c0.7,0,1.3-0.1,1.6-0.4
			s0.5-0.6,0.5-1c0-0.4-0.2-0.6-0.5-0.8c-0.2-0.1-0.8-0.3-1.6-0.5c-1.2-0.3-2-0.5-2.4-0.8s-0.8-0.5-1-0.9c-0.2-0.4-0.3-0.8-0.3-1.3
			c0-0.4,0.1-0.8,0.3-1.2c0.2-0.4,0.4-0.6,0.8-0.9c0.2-0.2,0.6-0.3,1-0.5s0.9-0.2,1.4-0.2c0.7,0,1.4,0.1,1.9,0.3
			c0.6,0.2,1,0.5,1.2,0.9c0.3,0.4,0.4,0.8,0.5,1.4l-1.5,0.2c-0.1-0.5-0.3-0.9-0.6-1.1s-0.8-0.4-1.4-0.4c-0.7,0-1.2,0.1-1.6,0.4
			s-0.5,0.5-0.5,0.8c0,0.2,0.1,0.4,0.2,0.6c0.1,0.2,0.3,0.3,0.6,0.4c0.2,0.1,0.6,0.2,1.4,0.4c1.1,0.3,1.9,0.5,2.3,0.7
			c0.4,0.2,0.8,0.5,1,0.8s0.4,0.8,0.4,1.4c0,0.5-0.2,1-0.5,1.5c-0.3,0.5-0.8,0.8-1.3,1.1c-0.6,0.3-1.2,0.4-2,0.4
			c-1.2,0-2.1-0.3-2.8-0.8S58,214.9,57.8,213.9z"/>
		<path id="XMLID_185_" class="st0" d="M73.9,213.7l1.6,0.2c-0.3,1-0.7,1.7-1.4,2.2s-1.6,0.8-2.7,0.8c-1.4,0-2.4-0.4-3.2-1.3
			c-0.8-0.8-1.2-2-1.2-3.5c0-1.6,0.4-2.8,1.2-3.7s1.9-1.3,3.1-1.3c1.2,0,2.3,0.4,3.1,1.3s1.2,2,1.2,3.6c0,0.1,0,0.2,0,0.4h-7
			c0.1,1,0.3,1.8,0.9,2.4s1.2,0.8,2,0.8c0.6,0,1.1-0.2,1.5-0.5S73.6,214.3,73.9,213.7z M68.7,211.1h5.2c-0.1-0.8-0.3-1.4-0.6-1.8
			c-0.5-0.6-1.2-0.9-2-0.9c-0.7,0-1.3,0.2-1.8,0.7S68.7,210.3,68.7,211.1z"/>
	</g>
	<g id="XMLID_140_">
		<path id="XMLID_141_" class="st0" d="M462.8,220.3l0.3-1.3c0.3,0.1,0.6,0.1,0.7,0.1c0.3,0,0.6-0.1,0.7-0.3s0.2-0.7,0.2-1.6v-9.8
			h1.6v9.8c0,1.1-0.1,1.9-0.4,2.4c-0.4,0.6-1,0.9-1.9,0.9C463.6,220.5,463.2,220.4,462.8,220.3z M464.8,205.6v-1.8h1.6v1.8H464.8z"
			/>
		<path id="XMLID_144_" class="st0" d="M474.9,216.7v-1.4c-0.7,1.1-1.7,1.6-3,1.6c-0.6,0-1.1-0.1-1.5-0.3s-0.8-0.5-1.1-0.8
			s-0.4-0.7-0.5-1.2c-0.1-0.3-0.1-0.8-0.1-1.5v-5.8h1.6v5.2c0,0.8,0,1.4,0.1,1.7c0.1,0.4,0.3,0.7,0.6,1c0.3,0.2,0.7,0.4,1.2,0.4
			s0.9-0.1,1.3-0.4s0.7-0.6,0.9-1c0.2-0.4,0.3-1,0.3-1.8v-5h1.6v9.3H474.9z"/>
		<path id="XMLID_146_" class="st0" d="M480.3,216.7h-1.5v-12.9h1.6v4.6c0.7-0.8,1.5-1.3,2.6-1.3c0.6,0,1.1,0.1,1.6,0.3
			s0.9,0.6,1.3,1c0.3,0.4,0.6,0.9,0.8,1.5s0.3,1.2,0.3,1.9c0,1.6-0.4,2.8-1.2,3.7s-1.7,1.3-2.8,1.3c-1.1,0-2-0.5-2.6-1.4V216.7z
			 M480.3,211.9c0,1.1,0.2,1.9,0.5,2.4c0.5,0.8,1.2,1.2,2,1.2c0.7,0,1.3-0.3,1.8-0.9s0.8-1.5,0.8-2.7c0-1.2-0.2-2.1-0.7-2.7
			s-1.1-0.9-1.8-0.9c-0.7,0-1.3,0.3-1.8,0.9C480.5,209.9,480.3,210.8,480.3,211.9z"/>
		<path id="XMLID_149_" class="st0" d="M488.9,205.6v-1.8h1.6v1.8H488.9z M488.9,216.7v-9.3h1.6v9.3H488.9z"/>
		<path id="XMLID_152_" class="st0" d="M492.8,216.7v-12.9h1.6v12.9H492.8z"/>
		<path id="XMLID_154_" class="st0" d="M502.9,215.5c-0.6,0.5-1.1,0.8-1.7,1.1s-1.1,0.3-1.7,0.3c-1,0-1.8-0.3-2.4-0.8
			c-0.6-0.5-0.8-1.1-0.8-1.9c0-0.5,0.1-0.9,0.3-1.3c0.2-0.4,0.5-0.7,0.8-0.9s0.7-0.4,1.1-0.5c0.3-0.1,0.8-0.2,1.4-0.2
			c1.3-0.2,2.2-0.3,2.8-0.5c0-0.2,0-0.4,0-0.4c0-0.6-0.1-1.1-0.4-1.4c-0.4-0.4-1-0.5-1.8-0.5c-0.7,0-1.3,0.1-1.6,0.4
			s-0.6,0.7-0.8,1.4l-1.5-0.2c0.1-0.7,0.4-1.2,0.7-1.6c0.3-0.4,0.8-0.7,1.4-0.9c0.6-0.2,1.3-0.3,2.1-0.3c0.8,0,1.4,0.1,1.9,0.3
			s0.9,0.4,1.1,0.7c0.2,0.3,0.4,0.6,0.5,1.1c0.1,0.3,0.1,0.8,0.1,1.5v2.1c0,1.5,0,2.4,0.1,2.8c0.1,0.4,0.2,0.8,0.4,1.1h-1.7
			C503.1,216.3,503,216,502.9,215.5z M502.8,212c-0.6,0.2-1.4,0.4-2.6,0.6c-0.7,0.1-1.1,0.2-1.4,0.3s-0.5,0.3-0.6,0.5
			s-0.2,0.5-0.2,0.8c0,0.4,0.2,0.8,0.5,1.1s0.8,0.4,1.4,0.4c0.6,0,1.2-0.1,1.6-0.4s0.8-0.6,1-1.1c0.2-0.4,0.3-0.9,0.3-1.6V212z"/>
		<path id="XMLID_157_" class="st0" d="M506.8,216.7v-9.3h1.4v1.4c0.4-0.7,0.7-1.1,1-1.3s0.6-0.3,1-0.3c0.5,0,1.1,0.2,1.6,0.5
			l-0.5,1.5c-0.4-0.2-0.8-0.3-1.2-0.3c-0.3,0-0.7,0.1-0.9,0.3s-0.5,0.5-0.6,0.9c-0.2,0.6-0.3,1.2-0.3,1.8v4.9H506.8z"/>
		<path id="XMLID_159_" class="st0" d="M512.2,213.9l1.6-0.2c0.1,0.6,0.3,1.1,0.7,1.4s1,0.5,1.7,0.5c0.7,0,1.3-0.1,1.6-0.4
			s0.5-0.6,0.5-1c0-0.4-0.2-0.6-0.5-0.8c-0.2-0.1-0.8-0.3-1.6-0.5c-1.2-0.3-2-0.5-2.4-0.8s-0.8-0.5-1-0.9c-0.2-0.4-0.3-0.8-0.3-1.3
			c0-0.4,0.1-0.8,0.3-1.2c0.2-0.4,0.4-0.6,0.8-0.9c0.2-0.2,0.6-0.3,1-0.5s0.9-0.2,1.4-0.2c0.7,0,1.4,0.1,1.9,0.3s1,0.5,1.2,0.9
			c0.3,0.4,0.4,0.8,0.5,1.4l-1.5,0.2c-0.1-0.5-0.3-0.9-0.6-1.1s-0.8-0.4-1.4-0.4c-0.7,0-1.2,0.1-1.6,0.4s-0.5,0.5-0.5,0.8
			c0,0.2,0.1,0.4,0.2,0.6c0.1,0.2,0.3,0.3,0.6,0.4c0.2,0.1,0.6,0.2,1.4,0.4c1.1,0.3,1.9,0.5,2.3,0.7s0.8,0.5,1,0.8s0.4,0.8,0.4,1.4
			c0,0.5-0.2,1-0.5,1.5c-0.3,0.5-0.8,0.8-1.3,1.1c-0.6,0.3-1.2,0.4-2,0.4c-1.2,0-2.1-0.3-2.8-0.8S512.4,214.9,512.2,213.9z"/>
		<path id="XMLID_161_" class="st0" d="M528.2,213.7l1.6,0.2c-0.3,1-0.7,1.7-1.4,2.2s-1.6,0.8-2.7,0.8c-1.4,0-2.4-0.4-3.2-1.3
			c-0.8-0.8-1.2-2-1.2-3.5c0-1.6,0.4-2.8,1.2-3.7s1.9-1.3,3.1-1.3c1.2,0,2.3,0.4,3.1,1.3s1.2,2,1.2,3.6c0,0.1,0,0.2,0,0.4h-7
			c0.1,1,0.3,1.8,0.9,2.4s1.2,0.8,2,0.8c0.6,0,1.1-0.2,1.5-0.5S528,214.3,528.2,213.7z M523,211.1h5.2c-0.1-0.8-0.3-1.4-0.6-1.8
			c-0.5-0.6-1.2-0.9-2-0.9c-0.7,0-1.3,0.2-1.8,0.7S523.1,210.3,523,211.1z"/>
	</g>
	<g id="XMLID_17996_">
		<path id="XMLID_61_" class="st0" d="M417,151.4c-7.1,0-12.8-5.7-12.8-12.8v-36.2c0-7.1,5.7-12.8,12.8-12.8h127
			c7.1,0,12.8,5.7,12.8,12.8v36.2c0,7.1-5.7,12.8-12.8,12.8H417z"/>
		<g id="XMLID_57_">
			<path id="XMLID_58_" class="st3" d="M544,91.1c6.2,0,11.3,5.1,11.3,11.3v36.2c0,6.2-5.1,11.3-11.3,11.3H417
				c-6.2,0-11.3-5.1-11.3-11.3v-36.2c0-6.2,5.1-11.3,11.3-11.3H544 M544,88.1H417c-7.9,0-14.3,6.4-14.3,14.3v36.2
				c0,7.9,6.4,14.3,14.3,14.3h127c7.9,0,14.3-6.4,14.3-14.3v-36.2C558.3,94.6,551.9,88.1,544,88.1L544,88.1z"/>
		</g>
	</g>
	<g id="XMLID_124_">
		<path id="XMLID_125_" d="M453.3,127.7l5.5-14.3h2l5.9,14.3h-2.2l-1.7-4.3h-6l-1.6,4.3H453.3z M457.4,121.8h4.9l-1.5-4
			c-0.5-1.2-0.8-2.2-1-3c-0.2,0.9-0.4,1.8-0.8,2.7L457.4,121.8z"/>
		<path id="XMLID_128_" d="M474.7,123.9l1.7,0.2c-0.2,1.2-0.7,2.1-1.5,2.8s-1.7,1-2.9,1c-1.4,0-2.6-0.5-3.4-1.4
			c-0.9-0.9-1.3-2.3-1.3-4c0-1.1,0.2-2.1,0.6-2.9s0.9-1.5,1.7-1.9c0.8-0.4,1.6-0.6,2.5-0.6c1.1,0,2,0.3,2.8,0.9
			c0.7,0.6,1.2,1.4,1.4,2.4l-1.7,0.3c-0.2-0.7-0.5-1.2-0.9-1.6c-0.4-0.4-0.9-0.5-1.5-0.5c-0.9,0-1.6,0.3-2.2,1
			c-0.6,0.6-0.8,1.6-0.8,3c0,1.4,0.3,2.4,0.8,3c0.5,0.6,1.2,0.9,2.1,0.9c0.7,0,1.3-0.2,1.7-0.6C474.3,125.5,474.6,124.8,474.7,123.9
			z"/>
		<path id="XMLID_130_" d="M481.8,126.1l0.3,1.6c-0.5,0.1-0.9,0.2-1.3,0.2c-0.6,0-1.1-0.1-1.5-0.3s-0.6-0.5-0.7-0.8s-0.2-1-0.2-2.1
			v-6H477v-1.4h1.3v-2.6l1.7-1.1v3.6h1.8v1.4H480v6.1c0,0.5,0,0.8,0.1,1c0.1,0.1,0.2,0.3,0.3,0.3c0.1,0.1,0.3,0.1,0.6,0.1
			C481.2,126.2,481.5,126.2,481.8,126.1z"/>
		<path id="XMLID_132_" d="M483.5,115.4v-2h1.8v2H483.5z M483.5,127.7v-10.4h1.8v10.4H483.5z"/>
		<path id="XMLID_135_" d="M490.8,127.7l-3.9-10.4h1.9l2.2,6.2c0.2,0.7,0.5,1.4,0.7,2.1c0.2-0.5,0.4-1.2,0.7-2l2.3-6.3h1.8
			l-3.9,10.4H490.8z"/>
		<path id="XMLID_137_" d="M497.3,122.5c0-1.9,0.5-3.3,1.6-4.3c0.9-0.8,2-1.2,3.3-1.2c1.4,0,2.6,0.5,3.5,1.4s1.4,2.2,1.4,3.9
			c0,1.3-0.2,2.4-0.6,3.2c-0.4,0.8-1,1.4-1.7,1.8c-0.8,0.4-1.6,0.6-2.5,0.6c-1.5,0-2.6-0.5-3.5-1.4
			C497.8,125.6,497.3,124.3,497.3,122.5z M499.1,122.5c0,1.3,0.3,2.3,0.9,3c0.6,0.7,1.3,1,2.2,1c0.9,0,1.6-0.3,2.2-1
			c0.6-0.7,0.9-1.7,0.9-3c0-1.3-0.3-2.3-0.9-2.9s-1.3-1-2.2-1c-0.9,0-1.6,0.3-2.2,1C499.4,120.2,499.1,121.2,499.1,122.5z"/>
	</g>
	<g id="XMLID_18014_">
		<g id="XMLID_17999_">
			<path id="XMLID_55_" class="st0" d="M214.8,319c-7.1,0-12.8-5.7-12.8-12.8V270c0-7.1,5.7-12.8,12.8-12.8h127
				c7.1,0,12.8,5.7,12.8,12.8v36.2c0,7.1-5.7,12.8-12.8,12.8H214.8z"/>
			<g id="XMLID_51_">
				<path id="XMLID_52_" class="st3" d="M341.8,258.7c6.2,0,11.3,5.1,11.3,11.3v36.2c0,6.2-5.1,11.3-11.3,11.3h-127
					c-6.2,0-11.3-5.1-11.3-11.3V270c0-6.2,5.1-11.3,11.3-11.3H341.8 M341.8,255.7h-127c-7.9,0-14.3,6.4-14.3,14.3v36.2
					c0,7.9,6.4,14.3,14.3,14.3h127c7.9,0,14.3-6.4,14.3-14.3V270C356.1,262.2,349.7,255.7,341.8,255.7L341.8,255.7z"/>
			</g>
		</g>
		<g id="XMLID_108_">
			<path id="XMLID_109_" d="M251.1,295.3l5.5-14.3h2l5.9,14.3h-2.2l-1.7-4.3h-6l-1.6,4.3H251.1z M255.2,289.4h4.9l-1.5-4
				c-0.5-1.2-0.8-2.2-1-3c-0.2,0.9-0.4,1.8-0.8,2.7L255.2,289.4z"/>
			<path id="XMLID_112_" d="M272.5,291.5l1.7,0.2c-0.2,1.2-0.7,2.1-1.5,2.8c-0.8,0.7-1.7,1-2.9,1c-1.4,0-2.6-0.5-3.4-1.4
				s-1.3-2.3-1.3-4c0-1.1,0.2-2.1,0.6-2.9s0.9-1.5,1.7-1.9c0.8-0.4,1.6-0.6,2.5-0.6c1.1,0,2,0.3,2.8,0.9s1.2,1.4,1.4,2.4l-1.7,0.3
				c-0.2-0.7-0.5-1.2-0.9-1.6c-0.4-0.4-0.9-0.5-1.5-0.5c-0.9,0-1.6,0.3-2.2,1c-0.6,0.6-0.8,1.6-0.8,3c0,1.4,0.3,2.4,0.8,3
				c0.5,0.6,1.2,0.9,2.1,0.9c0.7,0,1.3-0.2,1.7-0.6C272.1,293,272.4,292.4,272.5,291.5z"/>
			<path id="XMLID_114_" d="M279.6,293.7l0.3,1.6c-0.5,0.1-0.9,0.2-1.3,0.2c-0.6,0-1.1-0.1-1.5-0.3s-0.6-0.5-0.7-0.8
				c-0.1-0.3-0.2-1-0.2-2.1v-6h-1.3v-1.4h1.3v-2.6l1.7-1.1v3.6h1.8v1.4h-1.8v6.1c0,0.5,0,0.8,0.1,1c0.1,0.1,0.2,0.3,0.3,0.3
				c0.1,0.1,0.3,0.1,0.6,0.1C279,293.8,279.3,293.8,279.6,293.7z"/>
			<path id="XMLID_116_" d="M281.3,283v-2h1.8v2H281.3z M281.3,295.3v-10.4h1.8v10.4H281.3z"/>
			<path id="XMLID_119_" d="M288.7,295.3l-3.9-10.4h1.9l2.2,6.2c0.2,0.7,0.5,1.4,0.7,2.1c0.2-0.5,0.4-1.2,0.7-2l2.3-6.3h1.8
				l-3.9,10.4H288.7z"/>
			<path id="XMLID_121_" d="M295.1,290.1c0-1.9,0.5-3.3,1.6-4.3c0.9-0.8,2-1.2,3.3-1.2c1.4,0,2.6,0.5,3.5,1.4s1.4,2.2,1.4,3.9
				c0,1.3-0.2,2.4-0.6,3.2c-0.4,0.8-1,1.4-1.7,1.8c-0.8,0.4-1.6,0.6-2.5,0.6c-1.5,0-2.6-0.5-3.5-1.4
				C295.6,293.2,295.1,291.9,295.1,290.1z M296.9,290.1c0,1.3,0.3,2.3,0.9,3c0.6,0.7,1.3,1,2.2,1c0.9,0,1.6-0.3,2.2-1
				c0.6-0.7,0.9-1.7,0.9-3c0-1.3-0.3-2.3-0.9-2.9s-1.3-1-2.2-1c-0.9,0-1.6,0.3-2.2,1C297.2,287.8,296.9,288.8,296.9,290.1z"/>
		</g>
	</g>
	<circle id="XMLID_18142_" class="st4" cx="77.8" cy="13.9" r="13.9"/>
	<g id="XMLID_17993_">
		<circle id="XMLID_18138_" class="st4" cx="467.5" cy="288.1" r="13.9"/>
		<circle id="XMLID_18137_" class="st5" cx="467.5" cy="288.1" r="18"/>
	</g>
	<g id="XMLID_18013_">
		<line id="XMLID_46_" class="st0" x1="356.1" y1="288.1" x2="446.3" y2="288.1"/>
		<g id="XMLID_42_">
			<line id="XMLID_45_" class="st1" x1="356.1" y1="288.1" x2="433.1" y2="288.1"/>
			<g id="XMLID_43_">
				<polygon id="XMLID_44_" class="st0" points="446.3,288.1 427.7,295.7 432.1,288.1 427.7,280.5 				"/>
			</g>
		</g>
	</g>
	<g id="XMLID_18030_">
		<line id="XMLID_40_" class="st0" x1="157.1" y1="109.4" x2="401.3" y2="109.4"/>
		<g id="XMLID_36_">
			<line id="XMLID_39_" class="st1" x1="157.1" y1="109.4" x2="388.1" y2="109.4"/>
			<g id="XMLID_37_">
				<polygon id="XMLID_38_" class="st0" points="401.3,109.4 382.7,117.1 387.1,109.4 382.7,101.8 				"/>
			</g>
		</g>
	</g>
	<g id="XMLID_15641_">
		<line id="XMLID_34_" class="st0" x1="401.3" y1="137.7" x2="157.1" y2="137.7"/>
		<g id="XMLID_30_">
			<line id="XMLID_33_" class="st1" x1="401.3" y1="137.7" x2="170.3" y2="137.7"/>
			<g id="XMLID_31_">
				<polygon id="XMLID_32_" class="st0" points="157.1,137.7 175.8,130.1 171.3,137.7 175.8,145.3 				"/>
			</g>
		</g>
	</g>
</g>
</svg>
