<?xml version="1.0" encoding="utf-8"?>
<!-- Generator: Adobe Illustrator 19.0.0, SVG Export Plug-In . SVG Version: 6.00 Build 0)  -->
<svg version="1.1" id="Capa_1" xmlns="http://www.w3.org/2000/svg" xmlns:xlink="http://www.w3.org/1999/xlink" x="0px" y="0px"
	 viewBox="0 0 428 263.8" style="enable-background:new 0 0 428 263.8;" xml:space="preserve">
<style type="text/css">
	.st0{fill:#F9D523;}
	.st1{fill:#252527;}
	.st2{fill:none;stroke:#252527;stroke-width:2;stroke-miterlimit:10;}
	.st3{fill:none;stroke:#252527;stroke-width:2.5;stroke-miterlimit:10;}
</style>
<g id="XMLID_2_">
	<g id="XMLID_12637_">
		<g id="XMLID_11959_">
			<rect id="XMLID_44_" x="152.8" y="1.3" class="st0" width="122.5" height="135.1"/>
			<g id="XMLID_40_">
				<path id="XMLID_41_" class="st1" d="M274,2.5v132.6H154V2.5H274 M276.5,0H274H154h-2.5v2.5v132.6v2.5h2.5h120h2.5v-2.5V2.5V0
					L276.5,0z"/>
			</g>
		</g>
		<g id="XMLID_481_">
			<path id="XMLID_482_" class="st1" d="M193,16.2V7.9h1.7l2,5.9c0.2,0.5,0.3,1,0.4,1.2c0.1-0.3,0.2-0.7,0.4-1.3l2-5.8h1.5v8.3h-1.1
				v-7l-2.4,7h-1l-2.4-7.1v7.1H193z"/>
			<path id="XMLID_484_" class="st1" d="M206.6,16.2v-0.9c-0.5,0.7-1.1,1-1.9,1c-0.4,0-0.7-0.1-1-0.2c-0.3-0.1-0.5-0.3-0.7-0.5
				c-0.1-0.2-0.3-0.5-0.3-0.8c0-0.2-0.1-0.5-0.1-1v-3.7h1v3.3c0,0.5,0,0.9,0.1,1.1c0.1,0.3,0.2,0.5,0.4,0.6c0.2,0.2,0.5,0.2,0.8,0.2
				s0.6-0.1,0.9-0.2c0.3-0.2,0.5-0.4,0.6-0.6s0.2-0.7,0.2-1.2v-3.2h1v6H206.6z"/>
			<path id="XMLID_486_" class="st1" d="M213.2,14.2l1.1,0.1c-0.2,0.6-0.5,1.1-0.9,1.4s-1,0.5-1.7,0.5c-0.9,0-1.6-0.3-2.1-0.8
				c-0.5-0.5-0.8-1.3-0.8-2.3c0-1,0.3-1.8,0.8-2.4c0.5-0.6,1.2-0.8,2-0.8c0.8,0,1.5,0.3,2,0.8c0.5,0.5,0.8,1.3,0.8,2.3
				c0,0.1,0,0.2,0,0.3h-4.5c0,0.7,0.2,1.2,0.6,1.5c0.3,0.4,0.8,0.5,1.3,0.5c0.4,0,0.7-0.1,1-0.3C212.9,15,213.1,14.7,213.2,14.2z
				 M209.9,12.6h3.4c0-0.5-0.2-0.9-0.4-1.1c-0.3-0.4-0.7-0.6-1.3-0.6c-0.5,0-0.9,0.2-1.2,0.5C210.1,11.6,209.9,12.1,209.9,12.6z"/>
			<path id="XMLID_489_" class="st1" d="M216.5,16.2h-0.9V7.9h1v3c0.4-0.5,1-0.8,1.7-0.8c0.4,0,0.7,0.1,1.1,0.2
				c0.3,0.2,0.6,0.4,0.8,0.6s0.4,0.6,0.5,1c0.1,0.4,0.2,0.8,0.2,1.2c0,1-0.3,1.8-0.8,2.4c-0.5,0.6-1.1,0.8-1.8,0.8
				c-0.7,0-1.3-0.3-1.7-0.9V16.2z M216.5,13.1c0,0.7,0.1,1.2,0.3,1.6c0.3,0.5,0.8,0.8,1.3,0.8c0.4,0,0.8-0.2,1.2-0.6
				c0.3-0.4,0.5-1,0.5-1.7c0-0.8-0.2-1.4-0.5-1.7s-0.7-0.6-1.1-0.6c-0.4,0-0.8,0.2-1.2,0.6C216.7,11.8,216.5,12.4,216.5,13.1z"/>
			<path id="XMLID_492_" class="st1" d="M222,16.2V7.9h1v8.3H222z"/>
			<path id="XMLID_494_" class="st1" d="M228.7,14.2l1.1,0.1c-0.2,0.6-0.5,1.1-0.9,1.4s-1,0.5-1.7,0.5c-0.9,0-1.6-0.3-2.1-0.8
				s-0.8-1.3-0.8-2.3c0-1,0.3-1.8,0.8-2.4c0.5-0.6,1.2-0.8,2-0.8c0.8,0,1.5,0.3,2,0.8c0.5,0.5,0.8,1.3,0.8,2.3c0,0.1,0,0.2,0,0.3
				h-4.5c0,0.7,0.2,1.2,0.6,1.5c0.3,0.4,0.8,0.5,1.3,0.5c0.4,0,0.7-0.1,1-0.3C228.4,15,228.6,14.7,228.7,14.2z M225.4,12.6h3.4
				c0-0.5-0.2-0.9-0.4-1.1c-0.3-0.4-0.7-0.6-1.3-0.6c-0.5,0-0.9,0.2-1.2,0.5C225.6,11.6,225.4,12.1,225.4,12.6z"/>
			<path id="XMLID_497_" class="st1" d="M230.7,14.4l1-0.2c0.1,0.4,0.2,0.7,0.5,0.9c0.3,0.2,0.6,0.3,1.1,0.3c0.5,0,0.8-0.1,1-0.3
				c0.2-0.2,0.3-0.4,0.3-0.7c0-0.2-0.1-0.4-0.3-0.5c-0.1-0.1-0.5-0.2-1-0.3c-0.7-0.2-1.3-0.4-1.6-0.5c-0.3-0.1-0.5-0.3-0.7-0.6
				c-0.1-0.2-0.2-0.5-0.2-0.8c0-0.3,0.1-0.5,0.2-0.7c0.1-0.2,0.3-0.4,0.5-0.6c0.2-0.1,0.4-0.2,0.7-0.3s0.6-0.1,0.9-0.1
				c0.5,0,0.9,0.1,1.2,0.2c0.4,0.1,0.6,0.3,0.8,0.6c0.2,0.2,0.3,0.5,0.4,0.9l-1,0.1c0-0.3-0.2-0.6-0.4-0.7c-0.2-0.2-0.5-0.3-0.9-0.3
				c-0.5,0-0.8,0.1-1,0.2c-0.2,0.2-0.3,0.3-0.3,0.5c0,0.1,0,0.3,0.1,0.4c0.1,0.1,0.2,0.2,0.4,0.3c0.1,0,0.4,0.1,0.9,0.3
				c0.7,0.2,1.2,0.4,1.5,0.5c0.3,0.1,0.5,0.3,0.7,0.5c0.2,0.2,0.2,0.5,0.2,0.9c0,0.3-0.1,0.7-0.3,1c-0.2,0.3-0.5,0.5-0.9,0.7
				c-0.4,0.2-0.8,0.2-1.3,0.2c-0.8,0-1.4-0.2-1.8-0.5C231,15.5,230.8,15,230.7,14.4z"/>
		</g>
		<g id="XMLID_417_">
			<path id="XMLID_418_" class="st1" d="M163.5,35v-2.3h-2.3v-1h2.3v-2.3h1v2.3h2.3v1h-2.3V35H163.5z"/>
			<path id="XMLID_420_" class="st1" d="M168.1,36.4v-6h0.9v0.9c0.4-0.7,1.1-1,1.9-1c0.4,0,0.7,0.1,1,0.2c0.3,0.1,0.5,0.3,0.7,0.5
				c0.2,0.2,0.3,0.5,0.3,0.8c0,0.2,0.1,0.5,0.1,1v3.7h-1v-3.7c0-0.4,0-0.7-0.1-0.9c-0.1-0.2-0.2-0.4-0.4-0.5
				c-0.2-0.1-0.4-0.2-0.7-0.2c-0.4,0-0.8,0.1-1.1,0.4s-0.5,0.8-0.5,1.6v3.3H168.1z"/>
			<path id="XMLID_422_" class="st1" d="M174.2,33.3c0-1.1,0.3-1.9,0.9-2.5c0.5-0.4,1.2-0.7,1.9-0.7c0.8,0,1.5,0.3,2,0.8
				c0.5,0.5,0.8,1.3,0.8,2.3c0,0.8-0.1,1.4-0.3,1.8c-0.2,0.4-0.6,0.8-1,1s-0.9,0.4-1.5,0.4c-0.8,0-1.5-0.3-2-0.8
				C174.5,35.1,174.2,34.4,174.2,33.3z M175.2,33.3c0,0.8,0.2,1.4,0.5,1.7s0.8,0.6,1.3,0.6c0.5,0,0.9-0.2,1.3-0.6s0.5-1,0.5-1.8
				c0-0.7-0.2-1.3-0.5-1.7c-0.3-0.4-0.8-0.6-1.3-0.6c-0.5,0-0.9,0.2-1.3,0.6C175.4,32,175.2,32.6,175.2,33.3z"/>
			<path id="XMLID_425_" class="st1" d="M181,36.4v-6h0.9v0.8c0.2-0.3,0.4-0.5,0.8-0.7c0.3-0.2,0.7-0.3,1.1-0.3
				c0.4,0,0.8,0.1,1.1,0.3c0.3,0.2,0.5,0.4,0.6,0.8c0.5-0.7,1.1-1.1,1.9-1.1c0.6,0,1.1,0.2,1.4,0.5c0.3,0.3,0.5,0.8,0.5,1.5v4.1h-1
				v-3.8c0-0.4,0-0.7-0.1-0.9s-0.2-0.3-0.4-0.4c-0.2-0.1-0.4-0.2-0.6-0.2c-0.4,0-0.8,0.1-1.1,0.4c-0.3,0.3-0.4,0.7-0.4,1.4v3.5h-1
				v-3.9c0-0.5-0.1-0.8-0.2-1c-0.2-0.2-0.4-0.3-0.8-0.3c-0.3,0-0.6,0.1-0.8,0.2s-0.4,0.4-0.5,0.7c-0.1,0.3-0.2,0.7-0.2,1.3v3.1H181z
				"/>
			<path id="XMLID_427_" class="st1" d="M191.7,36.4h-0.9V28h1v3c0.4-0.5,1-0.8,1.7-0.8c0.4,0,0.7,0.1,1.1,0.2
				c0.3,0.2,0.6,0.4,0.8,0.6s0.4,0.6,0.5,1c0.1,0.4,0.2,0.8,0.2,1.2c0,1-0.3,1.8-0.8,2.4c-0.5,0.6-1.1,0.8-1.8,0.8
				c-0.7,0-1.3-0.3-1.7-0.9V36.4z M191.7,33.3c0,0.7,0.1,1.2,0.3,1.6c0.3,0.5,0.8,0.8,1.3,0.8c0.4,0,0.8-0.2,1.2-0.6s0.5-1,0.5-1.7
				c0-0.8-0.2-1.4-0.5-1.7c-0.3-0.4-0.7-0.6-1.1-0.6c-0.4,0-0.8,0.2-1.2,0.6C191.8,32,191.7,32.6,191.7,33.3z"/>
			<path id="XMLID_430_" class="st1" d="M197.2,36.4v-6h0.9v0.9c0.2-0.4,0.5-0.7,0.7-0.8c0.2-0.1,0.4-0.2,0.7-0.2
				c0.3,0,0.7,0.1,1.1,0.3l-0.4,0.9c-0.2-0.1-0.5-0.2-0.7-0.2c-0.2,0-0.4,0.1-0.6,0.2c-0.2,0.1-0.3,0.3-0.4,0.6
				c-0.1,0.4-0.2,0.8-0.2,1.2v3.2H197.2z"/>
			<path id="XMLID_432_" class="st1" d="M205.2,34.4l1.1,0.1c-0.2,0.6-0.5,1.1-0.9,1.4s-1,0.5-1.7,0.5c-0.9,0-1.6-0.3-2.1-0.8
				c-0.5-0.5-0.8-1.3-0.8-2.3c0-1,0.3-1.8,0.8-2.4c0.5-0.6,1.2-0.8,2-0.8c0.8,0,1.5,0.3,2,0.8c0.5,0.5,0.8,1.3,0.8,2.3
				c0,0.1,0,0.2,0,0.3h-4.5c0,0.7,0.2,1.2,0.6,1.5c0.3,0.4,0.8,0.5,1.3,0.5c0.4,0,0.7-0.1,1-0.3C204.8,35.2,205,34.8,205.2,34.4z
				 M201.8,32.8h3.4c0-0.5-0.2-0.9-0.4-1.1c-0.3-0.4-0.7-0.6-1.3-0.6c-0.5,0-0.9,0.2-1.2,0.5C202.1,31.8,201.9,32.2,201.8,32.8z"/>
			<path id="XMLID_435_" class="st1" d="M163.5,46.6v-2.3h-2.3v-1h2.3v-2.3h1v2.3h2.3v1h-2.3v2.3H163.5z"/>
			<path id="XMLID_437_" class="st1" d="M168.1,50.3v-8.3h0.9v0.8c0.2-0.3,0.5-0.5,0.7-0.7s0.6-0.2,1-0.2c0.5,0,1,0.1,1.4,0.4
				s0.7,0.6,0.9,1.1s0.3,1,0.3,1.6c0,0.6-0.1,1.2-0.3,1.7c-0.2,0.5-0.5,0.9-1,1.1c-0.4,0.3-0.9,0.4-1.3,0.4c-0.3,0-0.6-0.1-0.9-0.2
				c-0.3-0.1-0.5-0.3-0.7-0.5v2.9H168.1z M169,45c0,0.8,0.2,1.3,0.5,1.7c0.3,0.4,0.7,0.6,1.1,0.6c0.5,0,0.8-0.2,1.2-0.6
				s0.5-1,0.5-1.8c0-0.8-0.2-1.3-0.5-1.7c-0.3-0.4-0.7-0.6-1.1-0.6c-0.4,0-0.8,0.2-1.2,0.6C169.2,43.6,169,44.2,169,45z"/>
			<path id="XMLID_440_" class="st1" d="M178.7,46l1.1,0.1c-0.2,0.6-0.5,1.1-0.9,1.4s-1,0.5-1.7,0.5c-0.9,0-1.6-0.3-2.1-0.8
				c-0.5-0.5-0.8-1.3-0.8-2.3c0-1,0.3-1.8,0.8-2.4c0.5-0.6,1.2-0.8,2-0.8c0.8,0,1.5,0.3,2,0.8c0.5,0.5,0.8,1.3,0.8,2.3
				c0,0.1,0,0.2,0,0.3h-4.5c0,0.7,0.2,1.2,0.6,1.5c0.3,0.4,0.8,0.5,1.3,0.5c0.4,0,0.7-0.1,1-0.3C178.3,46.8,178.6,46.5,178.7,46z
				 M175.3,44.4h3.4c0-0.5-0.2-0.9-0.4-1.1c-0.3-0.4-0.7-0.6-1.3-0.6c-0.5,0-0.9,0.2-1.2,0.5C175.6,43.4,175.4,43.9,175.3,44.4z"/>
			<path id="XMLID_443_" class="st1" d="M180.6,46.2l1-0.2c0.1,0.4,0.2,0.7,0.5,0.9s0.6,0.3,1.1,0.3c0.5,0,0.8-0.1,1-0.3
				c0.2-0.2,0.3-0.4,0.3-0.7c0-0.2-0.1-0.4-0.3-0.5c-0.1-0.1-0.5-0.2-1-0.3c-0.7-0.2-1.3-0.4-1.6-0.5c-0.3-0.1-0.5-0.3-0.7-0.6
				c-0.1-0.2-0.2-0.5-0.2-0.8c0-0.3,0.1-0.5,0.2-0.7c0.1-0.2,0.3-0.4,0.5-0.6c0.2-0.1,0.4-0.2,0.7-0.3s0.6-0.1,0.9-0.1
				c0.5,0,0.9,0.1,1.2,0.2c0.4,0.1,0.6,0.3,0.8,0.6s0.3,0.5,0.4,0.9l-1,0.1c0-0.3-0.2-0.6-0.4-0.7s-0.5-0.3-0.9-0.3
				c-0.5,0-0.8,0.1-1,0.2s-0.3,0.3-0.3,0.5c0,0.1,0,0.3,0.1,0.4c0.1,0.1,0.2,0.2,0.4,0.3c0.1,0,0.4,0.1,0.9,0.3
				c0.7,0.2,1.2,0.4,1.5,0.5c0.3,0.1,0.5,0.3,0.7,0.5c0.2,0.2,0.2,0.5,0.2,0.9c0,0.3-0.1,0.7-0.3,1c-0.2,0.3-0.5,0.5-0.9,0.7
				c-0.4,0.2-0.8,0.2-1.3,0.2c-0.8,0-1.4-0.2-1.8-0.5C181,47.3,180.7,46.8,180.6,46.2z"/>
			<path id="XMLID_445_" class="st1" d="M186.5,45c0-1.1,0.3-1.9,0.9-2.5c0.5-0.4,1.2-0.7,1.9-0.7c0.8,0,1.5,0.3,2,0.8
				c0.5,0.5,0.8,1.3,0.8,2.3c0,0.8-0.1,1.4-0.3,1.8c-0.2,0.4-0.6,0.8-1,1s-0.9,0.4-1.5,0.4c-0.8,0-1.5-0.3-2-0.8
				C186.7,46.8,186.5,46,186.5,45z M187.5,45c0,0.8,0.2,1.4,0.5,1.7s0.8,0.6,1.3,0.6c0.5,0,0.9-0.2,1.3-0.6s0.5-1,0.5-1.8
				c0-0.7-0.2-1.3-0.5-1.7c-0.3-0.4-0.8-0.6-1.3-0.6c-0.5,0-0.9,0.2-1.3,0.6C187.7,43.6,187.5,44.2,187.5,45z"/>
			<path id="XMLID_448_" class="st1" d="M163.5,58.3V56h-2.3v-1h2.3v-2.3h1V55h2.3v1h-2.3v2.3H163.5z"/>
			<path id="XMLID_450_" class="st1" d="M172,57.4l1,0.1c-0.1,0.7-0.4,1.2-0.8,1.6c-0.5,0.4-1,0.6-1.7,0.6c-0.8,0-1.5-0.3-2-0.8
				s-0.8-1.3-0.8-2.3c0-0.7,0.1-1.2,0.3-1.7s0.5-0.9,1-1.1c0.4-0.2,0.9-0.4,1.4-0.4c0.7,0,1.2,0.2,1.6,0.5c0.4,0.3,0.7,0.8,0.8,1.4
				l-1,0.2c-0.1-0.4-0.3-0.7-0.5-0.9c-0.2-0.2-0.5-0.3-0.9-0.3c-0.5,0-0.9,0.2-1.3,0.6s-0.5,1-0.5,1.8c0,0.8,0.2,1.4,0.5,1.8
				s0.7,0.6,1.2,0.6c0.4,0,0.7-0.1,1-0.4C171.8,58.3,172,57.9,172,57.4z"/>
			<path id="XMLID_452_" class="st1" d="M173.5,56.6c0-1.1,0.3-1.9,0.9-2.5c0.5-0.4,1.2-0.7,1.9-0.7c0.8,0,1.5,0.3,2,0.8
				c0.5,0.5,0.8,1.3,0.8,2.3c0,0.8-0.1,1.4-0.3,1.8c-0.2,0.4-0.6,0.8-1,1s-0.9,0.4-1.5,0.4c-0.8,0-1.5-0.3-2-0.8
				C173.8,58.4,173.5,57.6,173.5,56.6z M174.6,56.6c0,0.8,0.2,1.4,0.5,1.7s0.8,0.6,1.3,0.6c0.5,0,0.9-0.2,1.3-0.6s0.5-1,0.5-1.8
				c0-0.7-0.2-1.3-0.5-1.7c-0.3-0.4-0.8-0.6-1.3-0.6c-0.5,0-0.9,0.2-1.3,0.6C174.8,55.2,174.6,55.8,174.6,56.6z"/>
			<path id="XMLID_455_" class="st1" d="M180.4,59.6v-8.3h1v8.3H180.4z"/>
			<path id="XMLID_457_" class="st1" d="M182.6,56.6c0-1.1,0.3-1.9,0.9-2.5c0.5-0.4,1.2-0.7,1.9-0.7c0.8,0,1.5,0.3,2,0.8
				c0.5,0.5,0.8,1.3,0.8,2.3c0,0.8-0.1,1.4-0.3,1.8c-0.2,0.4-0.6,0.8-1,1s-0.9,0.4-1.5,0.4c-0.8,0-1.5-0.3-2-0.8
				C182.9,58.4,182.6,57.6,182.6,56.6z M183.6,56.6c0,0.8,0.2,1.4,0.5,1.7s0.8,0.6,1.3,0.6c0.5,0,0.9-0.2,1.3-0.6s0.5-1,0.5-1.8
				c0-0.7-0.2-1.3-0.5-1.7c-0.3-0.4-0.8-0.6-1.3-0.6c-0.5,0-0.9,0.2-1.3,0.6C183.8,55.2,183.6,55.8,183.6,56.6z"/>
			<path id="XMLID_460_" class="st1" d="M189.4,59.6v-6h0.9v0.9c0.2-0.4,0.5-0.7,0.7-0.8c0.2-0.1,0.4-0.2,0.7-0.2
				c0.3,0,0.7,0.1,1.1,0.3l-0.4,0.9c-0.2-0.1-0.5-0.2-0.7-0.2c-0.2,0-0.4,0.1-0.6,0.2c-0.2,0.1-0.3,0.3-0.4,0.6
				c-0.1,0.4-0.2,0.8-0.2,1.2v3.2H189.4z"/>
			<path id="XMLID_462_" class="st1" d="M163.5,69.9v-2.3h-2.3v-1h2.3v-2.3h1v2.3h2.3v1h-2.3v2.3H163.5z"/>
			<path id="XMLID_464_" class="st1" d="M172,71.2v-0.8c-0.4,0.6-0.9,0.9-1.7,0.9c-0.5,0-0.9-0.1-1.3-0.4c-0.4-0.3-0.7-0.6-0.9-1.1
				c-0.2-0.5-0.3-1-0.3-1.6c0-0.6,0.1-1.1,0.3-1.6s0.5-0.9,0.9-1.1s0.8-0.4,1.3-0.4c0.4,0,0.7,0.1,1,0.2c0.3,0.2,0.5,0.4,0.7,0.6v-3
				h1v8.3H172z M168.8,68.2c0,0.8,0.2,1.3,0.5,1.7c0.3,0.4,0.7,0.6,1.2,0.6c0.4,0,0.8-0.2,1.1-0.5c0.3-0.4,0.5-0.9,0.5-1.7
				c0-0.8-0.2-1.4-0.5-1.8c-0.3-0.4-0.7-0.6-1.2-0.6c-0.5,0-0.8,0.2-1.1,0.6S168.8,67.4,168.8,68.2z"/>
			<path id="XMLID_467_" class="st1" d="M174.6,64.1v-1.2h1v1.2H174.6z M174.6,71.2v-6h1v6H174.6z"/>
			<path id="XMLID_470_" class="st1" d="M176.8,69.4l1-0.2c0.1,0.4,0.2,0.7,0.5,0.9s0.6,0.3,1.1,0.3c0.5,0,0.8-0.1,1-0.3
				c0.2-0.2,0.3-0.4,0.3-0.7c0-0.2-0.1-0.4-0.3-0.5c-0.1-0.1-0.5-0.2-1-0.3c-0.7-0.2-1.3-0.4-1.6-0.5c-0.3-0.1-0.5-0.3-0.7-0.6
				c-0.1-0.2-0.2-0.5-0.2-0.8c0-0.3,0.1-0.5,0.2-0.7c0.1-0.2,0.3-0.4,0.5-0.6c0.2-0.1,0.4-0.2,0.7-0.3s0.6-0.1,0.9-0.1
				c0.5,0,0.9,0.1,1.2,0.2c0.4,0.1,0.6,0.3,0.8,0.6s0.3,0.5,0.4,0.9l-1,0.1c0-0.3-0.2-0.6-0.4-0.7s-0.5-0.3-0.9-0.3
				c-0.5,0-0.8,0.1-1,0.2s-0.3,0.3-0.3,0.5c0,0.1,0,0.3,0.1,0.4c0.1,0.1,0.2,0.2,0.4,0.3c0.1,0,0.4,0.1,0.9,0.3
				c0.7,0.2,1.2,0.4,1.5,0.5c0.3,0.1,0.5,0.3,0.7,0.5c0.2,0.2,0.2,0.5,0.2,0.9c0,0.3-0.1,0.7-0.3,1c-0.2,0.3-0.5,0.5-0.9,0.7
				c-0.4,0.2-0.8,0.2-1.3,0.2c-0.8,0-1.4-0.2-1.8-0.5C177.1,70.6,176.9,70.1,176.8,69.4z"/>
			<path id="XMLID_472_" class="st1" d="M187.1,69.3l1.1,0.1c-0.2,0.6-0.5,1.1-0.9,1.4s-1,0.5-1.7,0.5c-0.9,0-1.6-0.3-2.1-0.8
				c-0.5-0.5-0.8-1.3-0.8-2.3c0-1,0.3-1.8,0.8-2.4c0.5-0.6,1.2-0.8,2-0.8c0.8,0,1.5,0.3,2,0.8c0.5,0.5,0.8,1.3,0.8,2.3
				c0,0.1,0,0.2,0,0.3h-4.5c0,0.7,0.2,1.2,0.6,1.5c0.3,0.4,0.8,0.5,1.3,0.5c0.4,0,0.7-0.1,1-0.3C186.7,70,186.9,69.7,187.1,69.3z
				 M183.7,67.6h3.4c0-0.5-0.2-0.9-0.4-1.1c-0.3-0.4-0.7-0.6-1.3-0.6c-0.5,0-0.9,0.2-1.2,0.5C184,66.7,183.8,67.1,183.7,67.6z"/>
			<path id="XMLID_475_" class="st1" d="M189.4,71.2v-6h0.9v0.9c0.4-0.7,1.1-1,1.9-1c0.4,0,0.7,0.1,1,0.2c0.3,0.1,0.5,0.3,0.7,0.5
				c0.2,0.2,0.3,0.5,0.3,0.8c0,0.2,0.1,0.5,0.1,1v3.7h-1v-3.7c0-0.4,0-0.7-0.1-0.9c-0.1-0.2-0.2-0.4-0.4-0.5
				c-0.2-0.1-0.4-0.2-0.7-0.2c-0.4,0-0.8,0.1-1.1,0.4s-0.5,0.8-0.5,1.6v3.3H189.4z M190.2,64.3c0-0.4,0.1-0.7,0.3-0.9
				c0.2-0.2,0.5-0.4,0.8-0.4c0.2,0,0.6,0.1,1,0.3c0.2,0.1,0.4,0.2,0.5,0.2c0.1,0,0.2,0,0.3-0.1c0.1-0.1,0.1-0.2,0.1-0.4h0.7
				c0,0.4-0.1,0.8-0.3,1c-0.2,0.2-0.5,0.3-0.8,0.3c-0.2,0-0.6-0.1-0.9-0.3c-0.3-0.1-0.4-0.2-0.6-0.2c-0.1,0-0.2,0-0.3,0.1
				c-0.1,0.1-0.1,0.2-0.1,0.4H190.2z"/>
			<path id="XMLID_478_" class="st1" d="M195.5,68.2c0-1.1,0.3-1.9,0.9-2.5c0.5-0.4,1.2-0.7,1.9-0.7c0.8,0,1.5,0.3,2,0.8
				c0.5,0.5,0.8,1.3,0.8,2.3c0,0.8-0.1,1.4-0.3,1.8c-0.2,0.4-0.6,0.8-1,1s-0.9,0.4-1.5,0.4c-0.8,0-1.5-0.3-2-0.8
				C195.8,70,195.5,69.2,195.5,68.2z M196.6,68.2c0,0.8,0.2,1.4,0.5,1.7s0.8,0.6,1.3,0.6c0.5,0,0.9-0.2,1.3-0.6s0.5-1,0.5-1.8
				c0-0.7-0.2-1.3-0.5-1.7c-0.3-0.4-0.8-0.6-1.3-0.6c-0.5,0-0.9,0.2-1.3,0.6C196.7,66.9,196.6,67.4,196.6,68.2z"/>
		</g>
		<g id="XMLID_322_">
			<path id="XMLID_323_" class="st1" d="M163.5,92v-2.3h-2.3v-1h2.3v-2.3h1v2.3h2.3v1h-2.3V92H163.5z"/>
			<path id="XMLID_325_" class="st1" d="M172,91.2l1,0.1c-0.1,0.7-0.4,1.2-0.8,1.6c-0.5,0.4-1,0.6-1.7,0.6c-0.8,0-1.5-0.3-2-0.8
				s-0.8-1.3-0.8-2.3c0-0.7,0.1-1.2,0.3-1.7s0.5-0.9,1-1.1c0.4-0.2,0.9-0.4,1.4-0.4c0.7,0,1.2,0.2,1.6,0.5c0.4,0.3,0.7,0.8,0.8,1.4
				l-1,0.2c-0.1-0.4-0.3-0.7-0.5-0.9c-0.2-0.2-0.5-0.3-0.9-0.3c-0.5,0-0.9,0.2-1.3,0.6s-0.5,1-0.5,1.8c0,0.8,0.2,1.4,0.5,1.8
				s0.7,0.6,1.2,0.6c0.4,0,0.7-0.1,1-0.4C171.8,92.1,172,91.7,172,91.2z"/>
			<path id="XMLID_327_" class="st1" d="M173.5,90.4c0-1.1,0.3-1.9,0.9-2.5c0.5-0.4,1.2-0.7,1.9-0.7c0.8,0,1.5,0.3,2,0.8
				c0.5,0.5,0.8,1.3,0.8,2.3c0,0.8-0.1,1.4-0.3,1.8c-0.2,0.4-0.6,0.8-1,1s-0.9,0.4-1.5,0.4c-0.8,0-1.5-0.3-2-0.8
				C173.8,92.2,173.5,91.4,173.5,90.4z M174.6,90.4c0,0.8,0.2,1.4,0.5,1.7s0.8,0.6,1.3,0.6c0.5,0,0.9-0.2,1.3-0.6s0.5-1,0.5-1.8
				c0-0.7-0.2-1.3-0.5-1.7c-0.3-0.4-0.8-0.6-1.3-0.6c-0.5,0-0.9,0.2-1.3,0.6C174.8,89,174.6,89.6,174.6,90.4z"/>
			<path id="XMLID_330_" class="st1" d="M180.4,93.4v-6h0.9v0.9c0.4-0.7,1.1-1,1.9-1c0.4,0,0.7,0.1,1,0.2c0.3,0.1,0.5,0.3,0.7,0.5
				c0.2,0.2,0.3,0.5,0.3,0.8c0,0.2,0.1,0.5,0.1,1v3.7h-1v-3.7c0-0.4,0-0.7-0.1-0.9c-0.1-0.2-0.2-0.4-0.4-0.5
				c-0.2-0.1-0.4-0.2-0.7-0.2c-0.4,0-0.8,0.1-1.1,0.4s-0.5,0.8-0.5,1.6v3.3H180.4z"/>
			<path id="XMLID_332_" class="st1" d="M189.1,92.5l0.1,0.9c-0.3,0.1-0.5,0.1-0.8,0.1c-0.4,0-0.7-0.1-0.9-0.2
				c-0.2-0.1-0.3-0.3-0.4-0.5c-0.1-0.2-0.1-0.6-0.1-1.2v-3.5h-0.7v-0.8h0.7v-1.5l1-0.6v2.1h1v0.8h-1v3.5c0,0.3,0,0.5,0.1,0.6
				c0,0.1,0.1,0.1,0.2,0.2s0.2,0.1,0.3,0.1C188.8,92.5,188.9,92.5,189.1,92.5z"/>
			<path id="XMLID_334_" class="st1" d="M194.2,91.5l1.1,0.1c-0.2,0.6-0.5,1.1-0.9,1.4s-1,0.5-1.7,0.5c-0.9,0-1.6-0.3-2.1-0.8
				c-0.5-0.5-0.8-1.3-0.8-2.3c0-1,0.3-1.8,0.8-2.4c0.5-0.6,1.2-0.8,2-0.8c0.8,0,1.5,0.3,2,0.8c0.5,0.5,0.8,1.3,0.8,2.3
				c0,0.1,0,0.2,0,0.3h-4.5c0,0.7,0.2,1.2,0.6,1.5c0.3,0.4,0.8,0.5,1.3,0.5c0.4,0,0.7-0.1,1-0.3C193.9,92.2,194.1,91.9,194.2,91.5z
				 M190.9,89.8h3.4c0-0.5-0.2-0.9-0.4-1.1c-0.3-0.4-0.7-0.6-1.3-0.6c-0.5,0-0.9,0.2-1.2,0.5C191.1,88.9,190.9,89.3,190.9,89.8z"/>
			<path id="XMLID_337_" class="st1" d="M196.6,93.4v-6h0.9v0.9c0.4-0.7,1.1-1,1.9-1c0.4,0,0.7,0.1,1,0.2c0.3,0.1,0.5,0.3,0.7,0.5
				c0.2,0.2,0.3,0.5,0.3,0.8c0,0.2,0.1,0.5,0.1,1v3.7h-1v-3.7c0-0.4,0-0.7-0.1-0.9c-0.1-0.2-0.2-0.4-0.4-0.5
				c-0.2-0.1-0.4-0.2-0.7-0.2c-0.4,0-0.8,0.1-1.1,0.4s-0.5,0.8-0.5,1.6v3.3H196.6z"/>
			<path id="XMLID_339_" class="st1" d="M207.2,91.5l1.1,0.1c-0.2,0.6-0.5,1.1-0.9,1.4s-1,0.5-1.7,0.5c-0.9,0-1.6-0.3-2.1-0.8
				c-0.5-0.5-0.8-1.3-0.8-2.3c0-1,0.3-1.8,0.8-2.4c0.5-0.6,1.2-0.8,2-0.8c0.8,0,1.5,0.3,2,0.8c0.5,0.5,0.8,1.3,0.8,2.3
				c0,0.1,0,0.2,0,0.3h-4.5c0,0.7,0.2,1.2,0.6,1.5c0.3,0.4,0.8,0.5,1.3,0.5c0.4,0,0.7-0.1,1-0.3C206.8,92.2,207,91.9,207.2,91.5z
				 M203.8,89.8h3.4c0-0.5-0.2-0.9-0.4-1.1c-0.3-0.4-0.7-0.6-1.3-0.6c-0.5,0-0.9,0.2-1.2,0.5C204,88.9,203.8,89.3,203.8,89.8z"/>
			<path id="XMLID_342_" class="st1" d="M209.5,93.4v-6h0.9v0.9c0.2-0.4,0.5-0.7,0.7-0.8c0.2-0.1,0.4-0.2,0.7-0.2
				c0.3,0,0.7,0.1,1.1,0.3l-0.4,0.9c-0.2-0.1-0.5-0.2-0.7-0.2c-0.2,0-0.4,0.1-0.6,0.2c-0.2,0.1-0.3,0.3-0.4,0.6
				c-0.1,0.4-0.2,0.8-0.2,1.2v3.2H209.5z"/>
			<path id="XMLID_344_" class="st1" d="M215.3,95.8c-0.6-0.7-1-1.5-1.4-2.5c-0.4-1-0.6-1.9-0.6-3c0-0.9,0.1-1.8,0.4-2.6
				c0.3-1,0.9-1.9,1.6-2.9h0.7c-0.5,0.8-0.8,1.3-0.9,1.7c-0.2,0.5-0.4,1.1-0.5,1.6c-0.2,0.7-0.2,1.4-0.2,2.1c0,1.8,0.6,3.6,1.7,5.5
				H215.3z"/>
			<path id="XMLID_346_" class="st1" d="M217.9,95.8h-0.7c1.1-1.8,1.7-3.6,1.7-5.5c0-0.7-0.1-1.4-0.2-2.1c-0.1-0.6-0.3-1.1-0.5-1.6
				c-0.1-0.3-0.5-0.9-0.9-1.7h0.7c0.7,1,1.2,1.9,1.6,2.9c0.3,0.8,0.4,1.7,0.4,2.6c0,1-0.2,2-0.6,3C218.9,94.3,218.5,95.1,217.9,95.8
				z"/>
			<path id="XMLID_348_" class="st1" d="M163.5,103.7v-2.3h-2.3v-1h2.3v-2.3h1v2.3h2.3v1h-2.3v2.3H163.5z"/>
			<path id="XMLID_350_" class="st1" d="M167.7,103.2l1-0.2c0.1,0.4,0.2,0.7,0.5,0.9s0.6,0.3,1.1,0.3c0.5,0,0.8-0.1,1-0.3
				c0.2-0.2,0.3-0.4,0.3-0.7c0-0.2-0.1-0.4-0.3-0.5c-0.1-0.1-0.5-0.2-1-0.3c-0.7-0.2-1.3-0.4-1.6-0.5c-0.3-0.1-0.5-0.3-0.7-0.6
				c-0.1-0.2-0.2-0.5-0.2-0.8c0-0.3,0.1-0.5,0.2-0.7c0.1-0.2,0.3-0.4,0.5-0.6c0.2-0.1,0.4-0.2,0.7-0.3s0.6-0.1,0.9-0.1
				c0.5,0,0.9,0.1,1.2,0.2c0.4,0.1,0.6,0.3,0.8,0.6s0.3,0.5,0.4,0.9l-1,0.1c0-0.3-0.2-0.6-0.4-0.7s-0.5-0.3-0.9-0.3
				c-0.5,0-0.8,0.1-1,0.2s-0.3,0.3-0.3,0.5c0,0.1,0,0.3,0.1,0.4c0.1,0.1,0.2,0.2,0.4,0.3c0.1,0,0.4,0.1,0.9,0.3
				c0.7,0.2,1.2,0.4,1.5,0.5c0.3,0.1,0.5,0.3,0.7,0.5c0.2,0.2,0.2,0.5,0.2,0.9c0,0.3-0.1,0.7-0.3,1c-0.2,0.3-0.5,0.5-0.9,0.7
				c-0.4,0.2-0.8,0.2-1.3,0.2c-0.8,0-1.4-0.2-1.8-0.5C168.1,104.3,167.8,103.9,167.7,103.2z"/>
			<path id="XMLID_352_" class="st1" d="M173.5,102c0-1.1,0.3-1.9,0.9-2.5c0.5-0.4,1.2-0.7,1.9-0.7c0.8,0,1.5,0.3,2,0.8
				c0.5,0.5,0.8,1.3,0.8,2.3c0,0.8-0.1,1.4-0.3,1.8c-0.2,0.4-0.6,0.8-1,1s-0.9,0.4-1.5,0.4c-0.8,0-1.5-0.3-2-0.8
				C173.8,103.8,173.5,103,173.5,102z M174.6,102c0,0.8,0.2,1.4,0.5,1.7s0.8,0.6,1.3,0.6c0.5,0,0.9-0.2,1.3-0.6s0.5-1,0.5-1.8
				c0-0.7-0.2-1.3-0.5-1.7c-0.3-0.4-0.8-0.6-1.3-0.6c-0.5,0-0.9,0.2-1.3,0.6C174.8,100.7,174.6,101.2,174.6,102z"/>
			<path id="XMLID_355_" class="st1" d="M180,103.2l1-0.2c0.1,0.4,0.2,0.7,0.5,0.9s0.6,0.3,1.1,0.3c0.5,0,0.8-0.1,1-0.3
				c0.2-0.2,0.3-0.4,0.3-0.7c0-0.2-0.1-0.4-0.3-0.5c-0.1-0.1-0.5-0.2-1-0.3c-0.7-0.2-1.3-0.4-1.6-0.5c-0.3-0.1-0.5-0.3-0.7-0.6
				c-0.1-0.2-0.2-0.5-0.2-0.8c0-0.3,0.1-0.5,0.2-0.7c0.1-0.2,0.3-0.4,0.5-0.6c0.2-0.1,0.4-0.2,0.7-0.3s0.6-0.1,0.9-0.1
				c0.5,0,0.9,0.1,1.2,0.2c0.4,0.1,0.6,0.3,0.8,0.6s0.3,0.5,0.4,0.9l-1,0.1c0-0.3-0.2-0.6-0.4-0.7s-0.5-0.3-0.9-0.3
				c-0.5,0-0.8,0.1-1,0.2s-0.3,0.3-0.3,0.5c0,0.1,0,0.3,0.1,0.4c0.1,0.1,0.2,0.2,0.4,0.3c0.1,0,0.4,0.1,0.9,0.3
				c0.7,0.2,1.2,0.4,1.5,0.5c0.3,0.1,0.5,0.3,0.7,0.5c0.2,0.2,0.2,0.5,0.2,0.9c0,0.3-0.1,0.7-0.3,1c-0.2,0.3-0.5,0.5-0.9,0.7
				c-0.4,0.2-0.8,0.2-1.3,0.2c-0.8,0-1.4-0.2-1.8-0.5C180.4,104.3,180.1,103.9,180,103.2z"/>
			<path id="XMLID_357_" class="st1" d="M188.4,104.1l0.1,0.9c-0.3,0.1-0.5,0.1-0.8,0.1c-0.4,0-0.7-0.1-0.9-0.2
				c-0.2-0.1-0.3-0.3-0.4-0.5c-0.1-0.2-0.1-0.6-0.1-1.2v-3.5h-0.7V99h0.7v-1.5l1-0.6V99h1v0.8h-1v3.5c0,0.3,0,0.5,0.1,0.6
				c0,0.1,0.1,0.1,0.2,0.2s0.2,0.1,0.3,0.1C188.1,104.1,188.3,104.1,188.4,104.1z"/>
			<path id="XMLID_359_" class="st1" d="M193.6,103.1l1.1,0.1c-0.2,0.6-0.5,1.1-0.9,1.4s-1,0.5-1.7,0.5c-0.9,0-1.6-0.3-2.1-0.8
				c-0.5-0.5-0.8-1.3-0.8-2.3c0-1,0.3-1.8,0.8-2.4c0.5-0.6,1.2-0.8,2-0.8c0.8,0,1.5,0.3,2,0.8c0.5,0.5,0.8,1.3,0.8,2.3
				c0,0.1,0,0.2,0,0.3h-4.5c0,0.7,0.2,1.2,0.6,1.5c0.3,0.4,0.8,0.5,1.3,0.5c0.4,0,0.7-0.1,1-0.3
				C193.2,103.8,193.4,103.5,193.6,103.1z M190.2,101.4h3.4c0-0.5-0.2-0.9-0.4-1.1c-0.3-0.4-0.7-0.6-1.3-0.6c-0.5,0-0.9,0.2-1.2,0.5
				C190.4,100.5,190.2,100.9,190.2,101.4z"/>
			<path id="XMLID_362_" class="st1" d="M195.9,105v-6h0.9v0.9c0.4-0.7,1.1-1,1.9-1c0.4,0,0.7,0.1,1,0.2c0.3,0.1,0.5,0.3,0.7,0.5
				c0.2,0.2,0.3,0.5,0.3,0.8c0,0.2,0.1,0.5,0.1,1v3.7h-1v-3.7c0-0.4,0-0.7-0.1-0.9c-0.1-0.2-0.2-0.4-0.4-0.5
				c-0.2-0.1-0.4-0.2-0.7-0.2c-0.4,0-0.8,0.1-1.1,0.4s-0.5,0.8-0.5,1.6v3.3H195.9z"/>
			<path id="XMLID_364_" class="st1" d="M206.5,103.1l1.1,0.1c-0.2,0.6-0.5,1.1-0.9,1.4s-1,0.5-1.7,0.5c-0.9,0-1.6-0.3-2.1-0.8
				c-0.5-0.5-0.8-1.3-0.8-2.3c0-1,0.3-1.8,0.8-2.4c0.5-0.6,1.2-0.8,2-0.8c0.8,0,1.5,0.3,2,0.8c0.5,0.5,0.8,1.3,0.8,2.3
				c0,0.1,0,0.2,0,0.3h-4.5c0,0.7,0.2,1.2,0.6,1.5c0.3,0.4,0.8,0.5,1.3,0.5c0.4,0,0.7-0.1,1-0.3
				C206.1,103.8,206.3,103.5,206.5,103.1z M203.1,101.4h3.4c0-0.5-0.2-0.9-0.4-1.1c-0.3-0.4-0.7-0.6-1.3-0.6c-0.5,0-0.9,0.2-1.2,0.5
				C203.4,100.5,203.2,100.9,203.1,101.4z"/>
			<path id="XMLID_367_" class="st1" d="M208.8,105v-6h0.9v0.9c0.2-0.4,0.5-0.7,0.7-0.8c0.2-0.1,0.4-0.2,0.7-0.2
				c0.3,0,0.7,0.1,1.1,0.3l-0.4,0.9c-0.2-0.1-0.5-0.2-0.7-0.2c-0.2,0-0.4,0.1-0.6,0.2c-0.2,0.1-0.3,0.3-0.4,0.6
				c-0.1,0.4-0.2,0.8-0.2,1.2v3.2H208.8z"/>
			<path id="XMLID_369_" class="st1" d="M214.7,107.5c-0.6-0.7-1-1.5-1.4-2.5c-0.4-1-0.6-1.9-0.6-3c0-0.9,0.1-1.8,0.4-2.6
				c0.3-1,0.9-1.9,1.6-2.9h0.7c-0.5,0.8-0.8,1.3-0.9,1.7c-0.2,0.5-0.4,1.1-0.5,1.6c-0.2,0.7-0.2,1.4-0.2,2.1c0,1.8,0.6,3.6,1.7,5.5
				H214.7z"/>
			<path id="XMLID_371_" class="st1" d="M217.3,107.5h-0.7c1.1-1.8,1.7-3.6,1.7-5.5c0-0.7-0.1-1.4-0.2-2.1c-0.1-0.6-0.3-1.1-0.5-1.6
				c-0.1-0.3-0.5-0.9-0.9-1.7h0.7c0.7,1,1.2,1.9,1.6,2.9c0.3,0.8,0.4,1.7,0.4,2.6c0,1-0.2,2-0.6,3
				C218.3,105.9,217.8,106.8,217.3,107.5z"/>
			<path id="XMLID_373_" class="st1" d="M163.5,115.3V113h-2.3v-1h2.3v-2.3h1v2.3h2.3v1h-2.3v2.3H163.5z"/>
			<path id="XMLID_375_" class="st1" d="M172,115.9c-0.4,0.3-0.7,0.5-1.1,0.7s-0.7,0.2-1.1,0.2c-0.7,0-1.2-0.2-1.5-0.5
				c-0.4-0.3-0.5-0.7-0.5-1.2c0-0.3,0.1-0.6,0.2-0.8s0.3-0.4,0.5-0.6c0.2-0.1,0.5-0.3,0.7-0.3c0.2-0.1,0.5-0.1,0.9-0.2
				c0.8-0.1,1.4-0.2,1.8-0.4c0-0.1,0-0.2,0-0.3c0-0.4-0.1-0.7-0.3-0.9c-0.3-0.2-0.6-0.3-1.2-0.3c-0.5,0-0.8,0.1-1.1,0.3
				c-0.2,0.2-0.4,0.5-0.5,0.9l-1-0.1c0.1-0.4,0.2-0.8,0.4-1c0.2-0.3,0.5-0.5,0.9-0.6c0.4-0.1,0.8-0.2,1.4-0.2c0.5,0,0.9,0.1,1.3,0.2
				s0.6,0.3,0.7,0.5s0.3,0.4,0.3,0.7c0,0.2,0.1,0.5,0.1,0.9v1.4c0,1,0,1.6,0.1,1.8s0.1,0.5,0.3,0.7h-1.1
				C172.1,116.4,172.1,116.2,172,115.9z M172,113.6c-0.4,0.2-0.9,0.3-1.7,0.4c-0.4,0.1-0.7,0.1-0.9,0.2c-0.2,0.1-0.3,0.2-0.4,0.3
				s-0.1,0.3-0.1,0.5c0,0.3,0.1,0.5,0.3,0.7c0.2,0.2,0.5,0.3,0.9,0.3c0.4,0,0.7-0.1,1.1-0.3c0.3-0.2,0.5-0.4,0.7-0.7
				c0.1-0.2,0.2-0.6,0.2-1V113.6z"/>
			<path id="XMLID_378_" class="st1" d="M178.5,116.6v-0.8c-0.4,0.6-0.9,0.9-1.7,0.9c-0.5,0-0.9-0.1-1.3-0.4
				c-0.4-0.3-0.7-0.6-0.9-1.1c-0.2-0.5-0.3-1-0.3-1.6c0-0.6,0.1-1.1,0.3-1.6s0.5-0.9,0.9-1.1s0.8-0.4,1.3-0.4c0.4,0,0.7,0.1,1,0.2
				c0.3,0.2,0.5,0.4,0.7,0.6v-3h1v8.3H178.5z M175.3,113.6c0,0.8,0.2,1.3,0.5,1.7c0.3,0.4,0.7,0.6,1.2,0.6c0.4,0,0.8-0.2,1.1-0.5
				c0.3-0.4,0.5-0.9,0.5-1.7c0-0.8-0.2-1.4-0.5-1.8c-0.3-0.4-0.7-0.6-1.2-0.6c-0.5,0-0.8,0.2-1.1,0.6S175.3,112.8,175.3,113.6z"/>
			<path id="XMLID_381_" class="st1" d="M180.7,113.6c0-1.1,0.3-1.9,0.9-2.5c0.5-0.4,1.2-0.7,1.9-0.7c0.8,0,1.5,0.3,2,0.8
				c0.5,0.5,0.8,1.3,0.8,2.3c0,0.8-0.1,1.4-0.3,1.8c-0.2,0.4-0.6,0.8-1,1s-0.9,0.4-1.5,0.4c-0.8,0-1.5-0.3-2-0.8
				C180.9,115.4,180.7,114.7,180.7,113.6z M181.7,113.6c0,0.8,0.2,1.4,0.5,1.7s0.8,0.6,1.3,0.6c0.5,0,0.9-0.2,1.3-0.6s0.5-1,0.5-1.8
				c0-0.7-0.2-1.3-0.5-1.7c-0.3-0.4-0.8-0.6-1.3-0.6c-0.5,0-0.9,0.2-1.3,0.6C181.9,112.3,181.7,112.9,181.7,113.6z"/>
			<path id="XMLID_384_" class="st1" d="M187.5,116.6v-6h0.9v0.9c0.2-0.4,0.5-0.7,0.7-0.8c0.2-0.1,0.4-0.2,0.7-0.2
				c0.3,0,0.7,0.1,1.1,0.3l-0.4,0.9c-0.2-0.1-0.5-0.2-0.7-0.2c-0.2,0-0.4,0.1-0.6,0.2c-0.2,0.1-0.3,0.3-0.4,0.6
				c-0.1,0.4-0.2,0.8-0.2,1.2v3.2H187.5z"/>
			<path id="XMLID_386_" class="st1" d="M191.4,116.6v-6h0.9v0.8c0.2-0.3,0.4-0.5,0.8-0.7c0.3-0.2,0.7-0.3,1.1-0.3
				c0.4,0,0.8,0.1,1.1,0.3c0.3,0.2,0.5,0.4,0.6,0.8c0.5-0.7,1.1-1.1,1.9-1.1c0.6,0,1.1,0.2,1.4,0.5c0.3,0.3,0.5,0.8,0.5,1.5v4.1h-1
				v-3.8c0-0.4,0-0.7-0.1-0.9s-0.2-0.3-0.4-0.4c-0.2-0.1-0.4-0.2-0.6-0.2c-0.4,0-0.8,0.1-1.1,0.4c-0.3,0.3-0.4,0.7-0.4,1.4v3.5h-1
				v-3.9c0-0.5-0.1-0.8-0.2-1c-0.2-0.2-0.4-0.3-0.8-0.3c-0.3,0-0.6,0.1-0.8,0.2s-0.4,0.4-0.5,0.7c-0.1,0.3-0.2,0.7-0.2,1.3v3.1
				H191.4z"/>
			<path id="XMLID_388_" class="st1" d="M205,115.9c-0.4,0.3-0.7,0.5-1.1,0.7s-0.7,0.2-1.1,0.2c-0.7,0-1.2-0.2-1.5-0.5
				c-0.4-0.3-0.5-0.7-0.5-1.2c0-0.3,0.1-0.6,0.2-0.8s0.3-0.4,0.5-0.6c0.2-0.1,0.5-0.3,0.7-0.3c0.2-0.1,0.5-0.1,0.9-0.2
				c0.8-0.1,1.4-0.2,1.8-0.4c0-0.1,0-0.2,0-0.3c0-0.4-0.1-0.7-0.3-0.9c-0.3-0.2-0.6-0.3-1.2-0.3c-0.5,0-0.8,0.1-1.1,0.3
				c-0.2,0.2-0.4,0.5-0.5,0.9l-1-0.1c0.1-0.4,0.2-0.8,0.4-1c0.2-0.3,0.5-0.5,0.9-0.6c0.4-0.1,0.8-0.2,1.4-0.2c0.5,0,0.9,0.1,1.3,0.2
				s0.6,0.3,0.7,0.5s0.3,0.4,0.3,0.7c0,0.2,0.1,0.5,0.1,0.9v1.4c0,1,0,1.6,0.1,1.8s0.1,0.5,0.3,0.7h-1.1
				C205.1,116.4,205,116.2,205,115.9z M204.9,113.6c-0.4,0.2-0.9,0.3-1.7,0.4c-0.4,0.1-0.7,0.1-0.9,0.2c-0.2,0.1-0.3,0.2-0.4,0.3
				s-0.1,0.3-0.1,0.5c0,0.3,0.1,0.5,0.3,0.7c0.2,0.2,0.5,0.3,0.9,0.3c0.4,0,0.7-0.1,1.1-0.3c0.3-0.2,0.5-0.4,0.7-0.7
				c0.1-0.2,0.2-0.6,0.2-1V113.6z"/>
			<path id="XMLID_391_" class="st1" d="M207.5,116.6v-6h0.9v0.9c0.2-0.4,0.5-0.7,0.7-0.8c0.2-0.1,0.4-0.2,0.7-0.2
				c0.3,0,0.7,0.1,1.1,0.3l-0.4,0.9c-0.2-0.1-0.5-0.2-0.7-0.2c-0.2,0-0.4,0.1-0.6,0.2c-0.2,0.1-0.3,0.3-0.4,0.6
				c-0.1,0.4-0.2,0.8-0.2,1.2v3.2H207.5z"/>
			<path id="XMLID_393_" class="st1" d="M213.4,119.1c-0.6-0.7-1-1.5-1.4-2.5c-0.4-1-0.6-1.9-0.6-3c0-0.9,0.1-1.8,0.4-2.6
				c0.3-1,0.9-1.9,1.6-2.9h0.7c-0.5,0.8-0.8,1.3-0.9,1.7c-0.2,0.5-0.4,1.1-0.5,1.6c-0.2,0.7-0.2,1.4-0.2,2.1c0,1.8,0.6,3.6,1.7,5.5
				H213.4z"/>
			<path id="XMLID_395_" class="st1" d="M216,119.1h-0.7c1.1-1.8,1.7-3.6,1.7-5.5c0-0.7-0.1-1.4-0.2-2.1c-0.1-0.6-0.3-1.1-0.5-1.6
				c-0.1-0.3-0.5-0.9-0.9-1.7h0.7c0.7,1,1.2,1.9,1.6,2.9c0.3,0.8,0.4,1.7,0.4,2.6c0,1-0.2,2-0.6,3C217,117.6,216.5,118.4,216,119.1z
				"/>
			<path id="XMLID_397_" class="st1" d="M163.5,126.9v-2.3h-2.3v-1h2.3v-2.3h1v2.3h2.3v1h-2.3v2.3H163.5z"/>
			<path id="XMLID_399_" class="st1" d="M168.1,128.3v-6h0.9v0.9c0.2-0.4,0.5-0.7,0.7-0.8c0.2-0.1,0.4-0.2,0.7-0.2
				c0.3,0,0.7,0.1,1.1,0.3l-0.4,0.9c-0.2-0.1-0.5-0.2-0.7-0.2c-0.2,0-0.4,0.1-0.6,0.2c-0.2,0.1-0.3,0.3-0.4,0.6
				c-0.1,0.4-0.2,0.8-0.2,1.2v3.2H168.1z"/>
			<path id="XMLID_401_" class="st1" d="M176.1,126.3l1.1,0.1c-0.2,0.6-0.5,1.1-0.9,1.4s-1,0.5-1.7,0.5c-0.9,0-1.6-0.3-2.1-0.8
				c-0.5-0.5-0.8-1.3-0.8-2.3c0-1,0.3-1.8,0.8-2.4c0.5-0.6,1.2-0.8,2-0.8c0.8,0,1.5,0.3,2,0.8c0.5,0.5,0.8,1.3,0.8,2.3
				c0,0.1,0,0.2,0,0.3h-4.5c0,0.7,0.2,1.2,0.6,1.5c0.3,0.4,0.8,0.5,1.3,0.5c0.4,0,0.7-0.1,1-0.3C175.7,127.1,176,126.8,176.1,126.3z
				 M172.8,124.7h3.4c0-0.5-0.2-0.9-0.4-1.1c-0.3-0.4-0.7-0.6-1.3-0.6c-0.5,0-0.9,0.2-1.2,0.5C173,123.7,172.8,124.2,172.8,124.7z"
				/>
			<path id="XMLID_404_" class="st1" d="M182.4,126.1l1,0.1c-0.1,0.7-0.4,1.2-0.8,1.6c-0.5,0.4-1,0.6-1.7,0.6c-0.8,0-1.5-0.3-2-0.8
				s-0.8-1.3-0.8-2.3c0-0.7,0.1-1.2,0.3-1.7s0.5-0.9,1-1.1c0.4-0.2,0.9-0.4,1.4-0.4c0.7,0,1.2,0.2,1.6,0.5c0.4,0.3,0.7,0.8,0.8,1.4
				l-1,0.2c-0.1-0.4-0.3-0.7-0.5-0.9c-0.2-0.2-0.5-0.3-0.9-0.3c-0.5,0-0.9,0.2-1.3,0.6s-0.5,1-0.5,1.8c0,0.8,0.2,1.4,0.5,1.8
				s0.7,0.6,1.2,0.6c0.4,0,0.7-0.1,1-0.4C182.1,127,182.3,126.6,182.4,126.1z"/>
			<path id="XMLID_406_" class="st1" d="M184.3,121.1V120h1v1.2H184.3z M184.3,128.3v-6h1v6H184.3z"/>
			<path id="XMLID_409_" class="st1" d="M187.8,128.3h-0.9V120h1v3c0.4-0.5,1-0.8,1.7-0.8c0.4,0,0.7,0.1,1.1,0.2
				c0.3,0.2,0.6,0.4,0.8,0.6s0.4,0.6,0.5,1c0.1,0.4,0.2,0.8,0.2,1.2c0,1-0.3,1.8-0.8,2.4c-0.5,0.6-1.1,0.8-1.8,0.8
				c-0.7,0-1.3-0.3-1.7-0.9V128.3z M187.8,125.2c0,0.7,0.1,1.2,0.3,1.6c0.3,0.5,0.8,0.8,1.3,0.8c0.4,0,0.8-0.2,1.2-0.6
				s0.5-1,0.5-1.7c0-0.8-0.2-1.4-0.5-1.7c-0.3-0.4-0.7-0.6-1.1-0.6c-0.4,0-0.8,0.2-1.2,0.6C187.9,123.9,187.8,124.5,187.8,125.2z"/>
			<path id="XMLID_412_" class="st1" d="M193.3,121.1V120h1v1.2H193.3z M193.3,128.3v-6h1v6H193.3z"/>
			<path id="XMLID_415_" class="st1" d="M195.9,128.3v-6h0.9v0.9c0.2-0.4,0.5-0.7,0.7-0.8c0.2-0.1,0.4-0.2,0.7-0.2
				c0.3,0,0.7,0.1,1.1,0.3l-0.4,0.9c-0.2-0.1-0.5-0.2-0.7-0.2c-0.2,0-0.4,0.1-0.6,0.2c-0.2,0.1-0.3,0.3-0.4,0.6
				c-0.1,0.4-0.2,0.8-0.2,1.2v3.2H195.9z"/>
		</g>
		<line id="XMLID_11059_" class="st2" x1="154" y1="21.8" x2="274" y2="21.8"/>
		<line id="XMLID_11058_" class="st2" x1="154" y1="79.5" x2="274" y2="79.5"/>
	</g>
	<g id="XMLID_10381_">
		<g id="XMLID_14592_">
			<rect id="XMLID_38_" x="152.8" y="175.8" class="st0" width="122.5" height="86.7"/>
			<g id="XMLID_34_">
				<path id="XMLID_35_" class="st1" d="M274,177.1v84.2H154v-84.2H274 M276.5,174.6H274H154h-2.5v2.5v84.2v2.5h2.5h120h2.5v-2.5
					v-84.2V174.6L276.5,174.6z"/>
			</g>
		</g>
		<g id="XMLID_311_">
			<path id="XMLID_312_" class="st1" d="M200.8,190.8v-8.3h1.7l2,5.9c0.2,0.5,0.3,1,0.4,1.2c0.1-0.3,0.2-0.7,0.4-1.3l2-5.8h1.5v8.3
				h-1.1v-7l-2.4,7h-1l-2.4-7.1v7.1H200.8z"/>
			<path id="XMLID_314_" class="st1" d="M214.5,188.8l1.1,0.1c-0.2,0.6-0.5,1.1-0.9,1.4s-1,0.5-1.7,0.5c-0.9,0-1.6-0.3-2.1-0.8
				c-0.5-0.5-0.8-1.3-0.8-2.3c0-1,0.3-1.8,0.8-2.4c0.5-0.6,1.2-0.8,2-0.8c0.8,0,1.5,0.3,2,0.8c0.5,0.5,0.8,1.3,0.8,2.3
				c0,0.1,0,0.2,0,0.3h-4.5c0,0.7,0.2,1.2,0.6,1.5c0.3,0.4,0.8,0.5,1.3,0.5c0.4,0,0.7-0.1,1-0.3
				C214.1,189.6,214.4,189.3,214.5,188.8z M211.2,187.2h3.4c0-0.5-0.2-0.9-0.4-1.1c-0.3-0.4-0.7-0.6-1.3-0.6c-0.5,0-0.9,0.2-1.2,0.5
				C211.4,186.2,211.2,186.7,211.2,187.2z"/>
			<path id="XMLID_317_" class="st1" d="M216.4,189l1-0.2c0.1,0.4,0.2,0.7,0.5,0.9c0.3,0.2,0.6,0.3,1.1,0.3c0.5,0,0.8-0.1,1-0.3
				c0.2-0.2,0.3-0.4,0.3-0.7c0-0.2-0.1-0.4-0.3-0.5c-0.1-0.1-0.5-0.2-1-0.3c-0.7-0.2-1.3-0.4-1.6-0.5c-0.3-0.1-0.5-0.3-0.7-0.6
				c-0.1-0.2-0.2-0.5-0.2-0.8c0-0.3,0.1-0.5,0.2-0.7c0.1-0.2,0.3-0.4,0.5-0.6c0.2-0.1,0.4-0.2,0.7-0.3s0.6-0.1,0.9-0.1
				c0.5,0,0.9,0.1,1.2,0.2c0.4,0.1,0.6,0.3,0.8,0.6c0.2,0.2,0.3,0.5,0.4,0.9l-1,0.1c0-0.3-0.2-0.6-0.4-0.7c-0.2-0.2-0.5-0.3-0.9-0.3
				c-0.5,0-0.8,0.1-1,0.2c-0.2,0.2-0.3,0.3-0.3,0.5c0,0.1,0,0.3,0.1,0.4c0.1,0.1,0.2,0.2,0.4,0.3c0.1,0,0.4,0.1,0.9,0.3
				c0.7,0.2,1.2,0.4,1.5,0.5c0.3,0.1,0.5,0.3,0.7,0.5c0.2,0.2,0.2,0.5,0.2,0.9c0,0.3-0.1,0.7-0.3,1c-0.2,0.3-0.5,0.5-0.9,0.7
				c-0.4,0.2-0.8,0.2-1.3,0.2c-0.8,0-1.4-0.2-1.8-0.5C216.8,190.1,216.6,189.6,216.4,189z"/>
			<path id="XMLID_319_" class="st1" d="M226.6,190c-0.4,0.3-0.7,0.5-1.1,0.7c-0.3,0.1-0.7,0.2-1.1,0.2c-0.7,0-1.2-0.2-1.5-0.5
				c-0.4-0.3-0.5-0.7-0.5-1.2c0-0.3,0.1-0.6,0.2-0.8s0.3-0.4,0.5-0.6s0.5-0.3,0.7-0.3c0.2-0.1,0.5-0.1,0.9-0.2
				c0.8-0.1,1.4-0.2,1.8-0.4c0-0.1,0-0.2,0-0.3c0-0.4-0.1-0.7-0.3-0.9c-0.3-0.2-0.6-0.3-1.2-0.3c-0.5,0-0.8,0.1-1.1,0.3
				c-0.2,0.2-0.4,0.5-0.5,0.9l-1-0.1c0.1-0.4,0.2-0.8,0.4-1c0.2-0.3,0.5-0.5,0.9-0.6c0.4-0.1,0.8-0.2,1.4-0.2c0.5,0,0.9,0.1,1.3,0.2
				s0.6,0.3,0.7,0.5c0.2,0.2,0.3,0.4,0.3,0.7c0,0.2,0.1,0.5,0.1,0.9v1.4c0,1,0,1.6,0.1,1.8c0,0.3,0.1,0.5,0.3,0.7h-1.1
				C226.7,190.6,226.6,190.3,226.6,190z M226.5,187.8c-0.4,0.2-0.9,0.3-1.7,0.4c-0.4,0.1-0.7,0.1-0.9,0.2c-0.2,0.1-0.3,0.2-0.4,0.3
				c-0.1,0.1-0.1,0.3-0.1,0.5c0,0.3,0.1,0.5,0.3,0.7s0.5,0.3,0.9,0.3c0.4,0,0.7-0.1,1.1-0.3c0.3-0.2,0.5-0.4,0.7-0.7
				c0.1-0.2,0.2-0.6,0.2-1V187.8z"/>
		</g>
		<g id="XMLID_250_">
			<path id="XMLID_251_" class="st1" d="M163.5,209.6v-2.3h-2.3v-1h2.3v-2.3h1v2.3h2.3v1h-2.3v2.3H163.5z"/>
			<path id="XMLID_253_" class="st1" d="M168.1,211v-6h0.9v0.9c0.4-0.7,1.1-1,1.9-1c0.4,0,0.7,0.1,1,0.2c0.3,0.1,0.5,0.3,0.7,0.5
				c0.2,0.2,0.3,0.5,0.3,0.8c0,0.2,0.1,0.5,0.1,1v3.7h-1v-3.7c0-0.4,0-0.7-0.1-0.9c-0.1-0.2-0.2-0.4-0.4-0.5
				c-0.2-0.1-0.4-0.2-0.7-0.2c-0.4,0-0.8,0.1-1.1,0.4s-0.5,0.8-0.5,1.6v3.3H168.1z"/>
			<path id="XMLID_255_" class="st1" d="M174.6,211v-6h0.9v0.9c0.2-0.4,0.5-0.7,0.7-0.8c0.2-0.1,0.4-0.2,0.7-0.2
				c0.3,0,0.7,0.1,1.1,0.3l-0.4,0.9c-0.2-0.1-0.5-0.2-0.7-0.2c-0.2,0-0.4,0.1-0.6,0.2c-0.2,0.1-0.3,0.3-0.4,0.6
				c-0.1,0.4-0.2,0.8-0.2,1.2v3.2H174.6z"/>
			<path id="XMLID_257_" class="st1" d="M178.1,207.9c0-1.1,0.3-1.9,0.9-2.5c0.5-0.4,1.2-0.7,1.9-0.7c0.8,0,1.5,0.3,2,0.8
				c0.5,0.5,0.8,1.3,0.8,2.3c0,0.8-0.1,1.4-0.3,1.8c-0.2,0.4-0.6,0.8-1,1s-0.9,0.4-1.5,0.4c-0.8,0-1.5-0.3-2-0.8
				C178.3,209.7,178.1,209,178.1,207.9z M179.1,207.9c0,0.8,0.2,1.4,0.5,1.7s0.8,0.6,1.3,0.6c0.5,0,0.9-0.2,1.3-0.6s0.5-1,0.5-1.8
				c0-0.7-0.2-1.3-0.5-1.7c-0.3-0.4-0.8-0.6-1.3-0.6c-0.5,0-0.9,0.2-1.3,0.6C179.3,206.6,179.1,207.2,179.1,207.9z"/>
			<path id="XMLID_260_" class="st1" d="M184,213.3v-0.7h6.8v0.7H184z"/>
			<path id="XMLID_262_" class="st1" d="M191.4,213.3v-8.3h0.9v0.8c0.2-0.3,0.5-0.5,0.7-0.7s0.6-0.2,1-0.2c0.5,0,1,0.1,1.4,0.4
				s0.7,0.6,0.9,1.1s0.3,1,0.3,1.6c0,0.6-0.1,1.2-0.3,1.7c-0.2,0.5-0.5,0.9-1,1.1c-0.4,0.3-0.9,0.4-1.3,0.4c-0.3,0-0.6-0.1-0.9-0.2
				c-0.3-0.1-0.5-0.3-0.7-0.5v2.9H191.4z M192.3,208c0,0.8,0.2,1.3,0.5,1.7c0.3,0.4,0.7,0.6,1.1,0.6c0.5,0,0.8-0.2,1.2-0.6
				s0.5-1,0.5-1.8c0-0.8-0.2-1.3-0.5-1.7c-0.3-0.4-0.7-0.6-1.1-0.6c-0.4,0-0.8,0.2-1.2,0.6C192.5,206.6,192.3,207.2,192.3,208z"/>
			<path id="XMLID_265_" class="st1" d="M201.8,210.2c-0.4,0.3-0.7,0.5-1.1,0.7s-0.7,0.2-1.1,0.2c-0.7,0-1.2-0.2-1.5-0.5
				c-0.4-0.3-0.5-0.7-0.5-1.2c0-0.3,0.1-0.6,0.2-0.8s0.3-0.4,0.5-0.6c0.2-0.1,0.5-0.3,0.7-0.3c0.2-0.1,0.5-0.1,0.9-0.2
				c0.8-0.1,1.4-0.2,1.8-0.4c0-0.1,0-0.2,0-0.3c0-0.4-0.1-0.7-0.3-0.9c-0.3-0.2-0.6-0.3-1.2-0.3c-0.5,0-0.8,0.1-1.1,0.3
				c-0.2,0.2-0.4,0.5-0.5,0.9l-1-0.1c0.1-0.4,0.2-0.8,0.4-1c0.2-0.3,0.5-0.5,0.9-0.6c0.4-0.1,0.8-0.2,1.4-0.2c0.5,0,0.9,0.1,1.3,0.2
				s0.6,0.3,0.7,0.5s0.3,0.4,0.3,0.7c0,0.2,0.1,0.5,0.1,0.9v1.4c0,1,0,1.6,0.1,1.8s0.1,0.5,0.3,0.7H202
				C201.9,210.7,201.8,210.5,201.8,210.2z M201.7,207.9c-0.4,0.2-0.9,0.3-1.7,0.4c-0.4,0.1-0.7,0.1-0.9,0.2
				c-0.2,0.1-0.3,0.2-0.4,0.3s-0.1,0.3-0.1,0.5c0,0.3,0.1,0.5,0.3,0.7c0.2,0.2,0.5,0.3,0.9,0.3c0.4,0,0.7-0.1,1.1-0.3
				c0.3-0.2,0.5-0.4,0.7-0.7c0.1-0.2,0.2-0.6,0.2-1V207.9z"/>
			<path id="XMLID_268_" class="st1" d="M206.6,210l0.1,0.9c-0.3,0.1-0.5,0.1-0.8,0.1c-0.4,0-0.7-0.1-0.9-0.2
				c-0.2-0.1-0.3-0.3-0.4-0.5c-0.1-0.2-0.1-0.6-0.1-1.2v-3.5h-0.7v-0.8h0.7v-1.5l1-0.6v2.1h1v0.8h-1v3.5c0,0.3,0,0.5,0.1,0.6
				c0,0.1,0.1,0.1,0.2,0.2s0.2,0.1,0.3,0.1C206.2,210.1,206.4,210.1,206.6,210z"/>
			<path id="XMLID_270_" class="st1" d="M211.5,210.2c-0.4,0.3-0.7,0.5-1.1,0.7s-0.7,0.2-1.1,0.2c-0.7,0-1.2-0.2-1.5-0.5
				c-0.4-0.3-0.5-0.7-0.5-1.2c0-0.3,0.1-0.6,0.2-0.8s0.3-0.4,0.5-0.6c0.2-0.1,0.5-0.3,0.7-0.3c0.2-0.1,0.5-0.1,0.9-0.2
				c0.8-0.1,1.4-0.2,1.8-0.4c0-0.1,0-0.2,0-0.3c0-0.4-0.1-0.7-0.3-0.9c-0.3-0.2-0.6-0.3-1.2-0.3c-0.5,0-0.8,0.1-1.1,0.3
				c-0.2,0.2-0.4,0.5-0.5,0.9l-1-0.1c0.1-0.4,0.2-0.8,0.4-1c0.2-0.3,0.5-0.5,0.9-0.6c0.4-0.1,0.8-0.2,1.4-0.2c0.5,0,0.9,0.1,1.3,0.2
				s0.6,0.3,0.7,0.5s0.3,0.4,0.3,0.7c0,0.2,0.1,0.5,0.1,0.9v1.4c0,1,0,1.6,0.1,1.8s0.1,0.5,0.3,0.7h-1.1
				C211.6,210.7,211.5,210.5,211.5,210.2z M211.4,207.9c-0.4,0.2-0.9,0.3-1.7,0.4c-0.4,0.1-0.7,0.1-0.9,0.2
				c-0.2,0.1-0.3,0.2-0.4,0.3s-0.1,0.3-0.1,0.5c0,0.3,0.1,0.5,0.3,0.7c0.2,0.2,0.5,0.3,0.9,0.3c0.4,0,0.7-0.1,1.1-0.3
				c0.3-0.2,0.5-0.4,0.7-0.7c0.1-0.2,0.2-0.6,0.2-1V207.9z"/>
			<path id="XMLID_273_" class="st1" d="M213.6,209.2l1-0.2c0.1,0.4,0.2,0.7,0.5,0.9s0.6,0.3,1.1,0.3c0.5,0,0.8-0.1,1-0.3
				c0.2-0.2,0.3-0.4,0.3-0.7c0-0.2-0.1-0.4-0.3-0.5c-0.1-0.1-0.5-0.2-1-0.3c-0.8-0.2-1.3-0.4-1.6-0.5c-0.3-0.1-0.5-0.3-0.7-0.6
				c-0.1-0.2-0.2-0.5-0.2-0.8c0-0.3,0.1-0.5,0.2-0.7c0.1-0.2,0.3-0.4,0.5-0.6c0.2-0.1,0.4-0.2,0.7-0.3c0.3-0.1,0.6-0.1,0.9-0.1
				c0.5,0,0.9,0.1,1.2,0.2c0.4,0.1,0.6,0.3,0.8,0.6s0.3,0.5,0.4,0.9l-1,0.1c0-0.3-0.2-0.6-0.4-0.7s-0.5-0.3-0.9-0.3
				c-0.5,0-0.8,0.1-1,0.2s-0.3,0.3-0.3,0.5c0,0.1,0,0.3,0.1,0.4c0.1,0.1,0.2,0.2,0.4,0.3c0.1,0,0.4,0.1,0.9,0.3
				c0.7,0.2,1.2,0.4,1.5,0.5c0.3,0.1,0.5,0.3,0.7,0.5c0.2,0.2,0.2,0.5,0.2,0.9c0,0.3-0.1,0.7-0.3,1c-0.2,0.3-0.5,0.5-0.9,0.7
				c-0.4,0.2-0.8,0.2-1.3,0.2c-0.8,0-1.4-0.2-1.8-0.5C214,210.3,213.7,209.8,213.6,209.2z"/>
			<path id="XMLID_275_" class="st1" d="M163.5,221.2V219h-2.3v-1h2.3v-2.3h1v2.3h2.3v1h-2.3v2.3H163.5z"/>
			<path id="XMLID_277_" class="st1" d="M168.4,222.6v-5.2h-0.9v-0.8h0.9v-0.6c0-0.4,0-0.7,0.1-0.9c0.1-0.3,0.3-0.5,0.5-0.6
				c0.2-0.2,0.6-0.2,1-0.2c0.3,0,0.6,0,1,0.1l-0.2,0.9c-0.2,0-0.4-0.1-0.6-0.1c-0.3,0-0.5,0.1-0.7,0.2c-0.1,0.1-0.2,0.4-0.2,0.7v0.6
				h1.2v0.8h-1.2v5.2H168.4z"/>
			<path id="XMLID_279_" class="st1" d="M171,219.6c0-1.1,0.3-1.9,0.9-2.5c0.5-0.4,1.2-0.7,1.9-0.7c0.8,0,1.5,0.3,2,0.8
				c0.5,0.5,0.8,1.3,0.8,2.3c0,0.8-0.1,1.4-0.3,1.8c-0.2,0.4-0.6,0.8-1,1s-0.9,0.4-1.5,0.4c-0.8,0-1.5-0.3-2-0.8
				C171.2,221.4,171,220.6,171,219.6z M172,219.6c0,0.8,0.2,1.4,0.5,1.7s0.8,0.6,1.3,0.6c0.5,0,0.9-0.2,1.3-0.6s0.5-1,0.5-1.8
				c0-0.7-0.2-1.3-0.5-1.7c-0.3-0.4-0.8-0.6-1.3-0.6c-0.5,0-0.9,0.2-1.3,0.6C172.2,218.2,172,218.8,172,219.6z"/>
			<path id="XMLID_282_" class="st1" d="M177.8,222.6v-6h0.9v0.9c0.2-0.4,0.5-0.7,0.7-0.8c0.2-0.1,0.4-0.2,0.7-0.2
				c0.3,0,0.7,0.1,1.1,0.3l-0.4,0.9c-0.2-0.1-0.5-0.2-0.7-0.2c-0.2,0-0.4,0.1-0.6,0.2c-0.2,0.1-0.3,0.3-0.4,0.6
				c-0.1,0.4-0.2,0.8-0.2,1.2v3.2H177.8z"/>
			<path id="XMLID_284_" class="st1" d="M181.7,222.6v-6h0.9v0.8c0.2-0.3,0.4-0.5,0.8-0.7c0.3-0.2,0.7-0.3,1.1-0.3
				c0.4,0,0.8,0.1,1.1,0.3c0.3,0.2,0.5,0.4,0.6,0.8c0.5-0.7,1.1-1.1,1.9-1.1c0.6,0,1.1,0.2,1.4,0.5c0.3,0.3,0.5,0.8,0.5,1.5v4.1h-1
				v-3.8c0-0.4,0-0.7-0.1-0.9s-0.2-0.3-0.4-0.4c-0.2-0.1-0.4-0.2-0.6-0.2c-0.4,0-0.8,0.1-1.1,0.4c-0.3,0.3-0.4,0.7-0.4,1.4v3.5h-1
				v-3.9c0-0.5-0.1-0.8-0.2-1c-0.2-0.2-0.4-0.3-0.8-0.3c-0.3,0-0.6,0.1-0.8,0.2s-0.4,0.4-0.5,0.7c-0.1,0.3-0.2,0.7-0.2,1.3v3.1
				H181.7z"/>
			<path id="XMLID_286_" class="st1" d="M195.3,221.8c-0.4,0.3-0.7,0.5-1.1,0.7s-0.7,0.2-1.1,0.2c-0.7,0-1.2-0.2-1.5-0.5
				c-0.4-0.3-0.5-0.7-0.5-1.2c0-0.3,0.1-0.6,0.2-0.8s0.3-0.4,0.5-0.6c0.2-0.1,0.5-0.3,0.7-0.3c0.2-0.1,0.5-0.1,0.9-0.2
				c0.8-0.1,1.4-0.2,1.8-0.4c0-0.1,0-0.2,0-0.3c0-0.4-0.1-0.7-0.3-0.9c-0.3-0.2-0.6-0.3-1.2-0.3c-0.5,0-0.8,0.1-1.1,0.3
				c-0.2,0.2-0.4,0.5-0.5,0.9l-1-0.1c0.1-0.4,0.2-0.8,0.4-1c0.2-0.3,0.5-0.5,0.9-0.6c0.4-0.1,0.8-0.2,1.4-0.2c0.5,0,0.9,0.1,1.3,0.2
				s0.6,0.3,0.7,0.5s0.3,0.4,0.3,0.7c0,0.2,0.1,0.5,0.1,0.9v1.4c0,1,0,1.6,0.1,1.8s0.1,0.5,0.3,0.7h-1.1
				C195.4,222.4,195.3,222.1,195.3,221.8z M195.2,219.6c-0.4,0.2-0.9,0.3-1.7,0.4c-0.4,0.1-0.7,0.1-0.9,0.2
				c-0.2,0.1-0.3,0.2-0.4,0.3s-0.1,0.3-0.1,0.5c0,0.3,0.1,0.5,0.3,0.7c0.2,0.2,0.5,0.3,0.9,0.3c0.4,0,0.7-0.1,1.1-0.3
				c0.3-0.2,0.5-0.4,0.7-0.7c0.1-0.2,0.2-0.6,0.2-1V219.6z"/>
			<path id="XMLID_289_" class="st1" d="M160.9,231.7v-1h3.1v1H160.9z"/>
			<path id="XMLID_291_" class="st1" d="M165.2,234.2v-6h0.9v0.8c0.2-0.3,0.4-0.5,0.8-0.7c0.3-0.2,0.7-0.3,1.1-0.3
				c0.4,0,0.8,0.1,1.1,0.3c0.3,0.2,0.5,0.4,0.6,0.8c0.5-0.7,1.1-1.1,1.9-1.1c0.6,0,1.1,0.2,1.4,0.5c0.3,0.3,0.5,0.8,0.5,1.5v4.1h-1
				v-3.8c0-0.4,0-0.7-0.1-0.9s-0.2-0.3-0.4-0.4c-0.2-0.1-0.4-0.2-0.6-0.2c-0.4,0-0.8,0.1-1.1,0.4c-0.3,0.3-0.4,0.7-0.4,1.4v3.5h-1
				v-3.9c0-0.5-0.1-0.8-0.2-1c-0.2-0.2-0.4-0.3-0.8-0.3c-0.3,0-0.6,0.1-0.8,0.2s-0.4,0.4-0.5,0.7c-0.1,0.3-0.2,0.7-0.2,1.3v3.1
				H165.2z"/>
			<path id="XMLID_293_" class="st1" d="M178.8,233.5c-0.4,0.3-0.7,0.5-1.1,0.7s-0.7,0.2-1.1,0.2c-0.7,0-1.2-0.2-1.5-0.5
				c-0.4-0.3-0.5-0.7-0.5-1.2c0-0.3,0.1-0.6,0.2-0.8s0.3-0.4,0.5-0.6c0.2-0.1,0.5-0.3,0.7-0.3c0.2-0.1,0.5-0.1,0.9-0.2
				c0.8-0.1,1.4-0.2,1.8-0.4c0-0.1,0-0.2,0-0.3c0-0.4-0.1-0.7-0.3-0.9c-0.3-0.2-0.6-0.3-1.2-0.3c-0.5,0-0.8,0.1-1.1,0.3
				c-0.2,0.2-0.4,0.5-0.5,0.9l-1-0.1c0.1-0.4,0.2-0.8,0.4-1c0.2-0.3,0.5-0.5,0.9-0.6c0.4-0.1,0.8-0.2,1.4-0.2c0.5,0,0.9,0.1,1.3,0.2
				s0.6,0.3,0.7,0.5s0.3,0.4,0.3,0.7c0,0.2,0.1,0.5,0.1,0.9v1.4c0,1,0,1.6,0.1,1.8s0.1,0.5,0.3,0.7H179
				C178.9,234,178.8,233.7,178.8,233.5z M178.7,231.2c-0.4,0.2-0.9,0.3-1.7,0.4c-0.4,0.1-0.7,0.1-0.9,0.2c-0.2,0.1-0.3,0.2-0.4,0.3
				s-0.1,0.3-0.1,0.5c0,0.3,0.1,0.5,0.3,0.7c0.2,0.2,0.5,0.3,0.9,0.3c0.4,0,0.7-0.1,1.1-0.3c0.3-0.2,0.5-0.4,0.7-0.7
				c0.1-0.2,0.2-0.6,0.2-1V231.2z"/>
			<path id="XMLID_296_" class="st1" d="M183.6,233.3l0.1,0.9c-0.3,0.1-0.5,0.1-0.8,0.1c-0.4,0-0.7-0.1-0.9-0.2
				c-0.2-0.1-0.3-0.3-0.4-0.5c-0.1-0.2-0.1-0.6-0.1-1.2V229h-0.7v-0.8h0.7v-1.5l1-0.6v2.1h1v0.8h-1v3.5c0,0.3,0,0.5,0.1,0.6
				c0,0.1,0.1,0.1,0.2,0.2s0.2,0.1,0.3,0.1C183.2,233.3,183.4,233.3,183.6,233.3z"/>
			<path id="XMLID_298_" class="st1" d="M188.7,232.3l1.1,0.1c-0.2,0.6-0.5,1.1-0.9,1.4s-1,0.5-1.7,0.5c-0.9,0-1.6-0.3-2.1-0.8
				c-0.5-0.5-0.8-1.3-0.8-2.3c0-1,0.3-1.8,0.8-2.4c0.5-0.6,1.2-0.8,2-0.8c0.8,0,1.5,0.3,2,0.8c0.5,0.5,0.8,1.3,0.8,2.3
				c0,0.1,0,0.2,0,0.3h-4.5c0,0.7,0.2,1.2,0.6,1.5c0.3,0.4,0.8,0.5,1.3,0.5c0.4,0,0.7-0.1,1-0.3C188.3,233,188.6,232.7,188.7,232.3z
				 M185.3,230.6h3.4c0-0.5-0.2-0.9-0.4-1.1c-0.3-0.4-0.7-0.6-1.3-0.6c-0.5,0-0.9,0.2-1.2,0.5C185.6,229.7,185.4,230.1,185.3,230.6z
				"/>
			<path id="XMLID_301_" class="st1" d="M191,234.2v-6h0.9v0.9c0.2-0.4,0.5-0.7,0.7-0.8c0.2-0.1,0.4-0.2,0.7-0.2
				c0.3,0,0.7,0.1,1.1,0.3l-0.4,0.9c-0.2-0.1-0.5-0.2-0.7-0.2c-0.2,0-0.4,0.1-0.6,0.2c-0.2,0.1-0.3,0.3-0.4,0.6
				c-0.1,0.4-0.2,0.8-0.2,1.2v3.2H191z"/>
			<path id="XMLID_303_" class="st1" d="M194.9,227.1v-1.2h1v1.2H194.9z M194.9,234.2v-6h1v6H194.9z"/>
			<path id="XMLID_306_" class="st1" d="M201.4,233.5c-0.4,0.3-0.7,0.5-1.1,0.7s-0.7,0.2-1.1,0.2c-0.7,0-1.2-0.2-1.5-0.5
				c-0.4-0.3-0.5-0.7-0.5-1.2c0-0.3,0.1-0.6,0.2-0.8s0.3-0.4,0.5-0.6c0.2-0.1,0.5-0.3,0.7-0.3c0.2-0.1,0.5-0.1,0.9-0.2
				c0.8-0.1,1.4-0.2,1.8-0.4c0-0.1,0-0.2,0-0.3c0-0.4-0.1-0.7-0.3-0.9c-0.3-0.2-0.6-0.3-1.2-0.3c-0.5,0-0.8,0.1-1.1,0.3
				c-0.2,0.2-0.4,0.5-0.5,0.9l-1-0.1c0.1-0.4,0.2-0.8,0.4-1c0.2-0.3,0.5-0.5,0.9-0.6c0.4-0.1,0.8-0.2,1.4-0.2c0.5,0,0.9,0.1,1.3,0.2
				s0.6,0.3,0.7,0.5s0.3,0.4,0.3,0.7c0,0.2,0.1,0.5,0.1,0.9v1.4c0,1,0,1.6,0.1,1.8s0.1,0.5,0.3,0.7h-1.1
				C201.5,234,201.5,233.7,201.4,233.5z M201.4,231.2c-0.4,0.2-0.9,0.3-1.7,0.4c-0.4,0.1-0.7,0.1-0.9,0.2c-0.2,0.1-0.3,0.2-0.4,0.3
				s-0.1,0.3-0.1,0.5c0,0.3,0.1,0.5,0.3,0.7c0.2,0.2,0.5,0.3,0.9,0.3c0.4,0,0.7-0.1,1.1-0.3c0.3-0.2,0.5-0.4,0.7-0.7
				c0.1-0.2,0.2-0.6,0.2-1V231.2z"/>
			<path id="XMLID_309_" class="st1" d="M203.9,234.2v-8.3h1v8.3H203.9z"/>
		</g>
		<g id="XMLID_229_">
			<path id="XMLID_230_" class="st1" d="M163.5,254.6v-2.3h-2.3v-1h2.3v-2.3h1v2.3h2.3v1h-2.3v2.3H163.5z"/>
			<path id="XMLID_232_" class="st1" d="M168.1,256v-6h0.9v0.9c0.2-0.4,0.5-0.7,0.7-0.8c0.2-0.1,0.4-0.2,0.7-0.2
				c0.3,0,0.7,0.1,1.1,0.3l-0.4,0.9c-0.2-0.1-0.5-0.2-0.7-0.2c-0.2,0-0.4,0.1-0.6,0.2c-0.2,0.1-0.3,0.3-0.4,0.6
				c-0.1,0.4-0.2,0.8-0.2,1.2v3.2H168.1z"/>
			<path id="XMLID_234_" class="st1" d="M176.1,254.1l1.1,0.1c-0.2,0.6-0.5,1.1-0.9,1.4s-1,0.5-1.7,0.5c-0.9,0-1.6-0.3-2.1-0.8
				c-0.5-0.5-0.8-1.3-0.8-2.3c0-1,0.3-1.8,0.8-2.4c0.5-0.6,1.2-0.8,2-0.8c0.8,0,1.5,0.3,2,0.8c0.5,0.5,0.8,1.3,0.8,2.3
				c0,0.1,0,0.2,0,0.3h-4.5c0,0.7,0.2,1.2,0.6,1.5c0.3,0.4,0.8,0.5,1.3,0.5c0.4,0,0.7-0.1,1-0.3C175.7,254.8,176,254.5,176.1,254.1z
				 M172.8,252.4h3.4c0-0.5-0.2-0.9-0.4-1.1c-0.3-0.4-0.7-0.6-1.3-0.6c-0.5,0-0.9,0.2-1.2,0.5C173,251.5,172.8,251.9,172.8,252.4z"
				/>
			<path id="XMLID_237_" class="st1" d="M182.4,256v-0.9c-0.5,0.7-1.1,1-1.9,1c-0.4,0-0.7-0.1-1-0.2c-0.3-0.1-0.5-0.3-0.7-0.5
				c-0.1-0.2-0.3-0.5-0.3-0.8c0-0.2-0.1-0.5-0.1-1V250h1v3.3c0,0.5,0,0.9,0.1,1.1c0.1,0.3,0.2,0.5,0.4,0.6c0.2,0.2,0.5,0.2,0.8,0.2
				s0.6-0.1,0.9-0.2c0.3-0.2,0.5-0.4,0.6-0.6s0.2-0.7,0.2-1.2V250h1v6H182.4z"/>
			<path id="XMLID_239_" class="st1" d="M184.9,256v-6h0.9v0.9c0.4-0.7,1.1-1,1.9-1c0.4,0,0.7,0.1,1,0.2c0.3,0.1,0.5,0.3,0.7,0.5
				c0.2,0.2,0.3,0.5,0.3,0.8c0,0.2,0.1,0.5,0.1,1v3.7h-1v-3.7c0-0.4,0-0.7-0.1-0.9c-0.1-0.2-0.2-0.4-0.4-0.5
				c-0.2-0.1-0.4-0.2-0.7-0.2c-0.4,0-0.8,0.1-1.1,0.4s-0.5,0.8-0.5,1.6v3.3H184.9z"/>
			<path id="XMLID_241_" class="st1" d="M191.4,248.8v-1.2h1v1.2H191.4z M191.4,256v-6h1v6H191.4z"/>
			<path id="XMLID_244_" class="st1" d="M194,256v-6h0.9v0.9c0.2-0.4,0.5-0.7,0.7-0.8c0.2-0.1,0.4-0.2,0.7-0.2
				c0.3,0,0.7,0.1,1.1,0.3l-0.4,0.9c-0.2-0.1-0.5-0.2-0.7-0.2c-0.2,0-0.4,0.1-0.6,0.2c-0.2,0.1-0.3,0.3-0.4,0.6
				c-0.1,0.4-0.2,0.8-0.2,1.2v3.2H194z"/>
			<path id="XMLID_246_" class="st1" d="M199.8,258.4c-0.6-0.7-1-1.5-1.4-2.5c-0.4-1-0.6-1.9-0.6-3c0-0.9,0.1-1.8,0.4-2.6
				c0.3-1,0.9-1.9,1.6-2.9h0.7c-0.5,0.8-0.8,1.3-0.9,1.7c-0.2,0.5-0.4,1.1-0.5,1.6c-0.2,0.7-0.2,1.4-0.2,2.1c0,1.8,0.6,3.6,1.7,5.5
				H199.8z"/>
			<path id="XMLID_248_" class="st1" d="M202.4,258.4h-0.7c1.1-1.8,1.7-3.6,1.7-5.5c0-0.7-0.1-1.4-0.2-2.1c-0.1-0.6-0.3-1.1-0.5-1.6
				c-0.1-0.3-0.5-0.9-0.9-1.7h0.7c0.7,1,1.2,1.9,1.6,2.9c0.3,0.8,0.4,1.7,0.4,2.6c0,1-0.2,2-0.6,3
				C203.4,256.9,202.9,257.7,202.4,258.4z"/>
		</g>
		<line id="XMLID_14584_" class="st2" x1="154" y1="196.4" x2="274" y2="196.4"/>
		<line id="XMLID_14583_" class="st2" x1="154" y1="242.1" x2="274" y2="242.1"/>
	</g>
	<g id="XMLID_10384_">
		<g id="XMLID_10022_">
			<rect id="XMLID_31_" x="1.2" y="175.8" class="st0" width="122.5" height="86.7"/>
			<g id="XMLID_25_">
				<path id="XMLID_27_" class="st1" d="M122.5,177.1v84.2H2.5v-84.2H122.5 M125,174.6h-2.5H2.5H0v2.5v84.2v2.5h2.5h120h2.5v-2.5
					v-84.2V174.6L125,174.6z"/>
			</g>
		</g>
		<g id="XMLID_216_">
			<path id="XMLID_217_" class="st1" d="M52.2,188.1l1-0.1c0,0.4,0.2,0.8,0.3,1s0.5,0.5,0.8,0.6c0.4,0.2,0.8,0.2,1.3,0.2
				c0.4,0,0.8-0.1,1.1-0.2c0.3-0.1,0.6-0.3,0.7-0.5s0.2-0.5,0.2-0.7c0-0.3-0.1-0.5-0.2-0.7c-0.2-0.2-0.4-0.4-0.7-0.5
				c-0.2-0.1-0.7-0.2-1.5-0.4s-1.3-0.4-1.6-0.5c-0.4-0.2-0.7-0.5-0.9-0.8s-0.3-0.7-0.3-1c0-0.4,0.1-0.8,0.4-1.2s0.6-0.6,1-0.8
				s1-0.3,1.5-0.3c0.6,0,1.2,0.1,1.6,0.3c0.5,0.2,0.8,0.5,1.1,0.9c0.3,0.4,0.4,0.8,0.4,1.3l-1.1,0.1c-0.1-0.5-0.2-0.9-0.6-1.2
				s-0.8-0.4-1.5-0.4c-0.7,0-1.2,0.1-1.5,0.4s-0.5,0.5-0.5,0.9c0,0.3,0.1,0.5,0.3,0.7c0.2,0.2,0.8,0.4,1.7,0.6s1.5,0.4,1.8,0.5
				c0.5,0.2,0.8,0.5,1.1,0.8c0.2,0.3,0.3,0.7,0.3,1.2c0,0.4-0.1,0.9-0.4,1.3c-0.3,0.4-0.6,0.7-1.1,0.9c-0.5,0.2-1,0.3-1.6,0.3
				c-0.8,0-1.4-0.1-1.9-0.3s-0.9-0.5-1.2-1C52.4,189.2,52.2,188.7,52.2,188.1z"/>
			<path id="XMLID_219_" class="st1" d="M60.2,183.6v-1.2h1v1.2H60.2z M60.2,190.8v-6h1v6H60.2z"/>
			<path id="XMLID_222_" class="st1" d="M62.7,190.8v-8.3h1v8.3H62.7z"/>
			<path id="XMLID_224_" class="st1" d="M65.3,190.8v-8.3h1v8.3H65.3z"/>
			<path id="XMLID_226_" class="st1" d="M71.9,190c-0.4,0.3-0.7,0.5-1.1,0.7c-0.4,0.1-0.7,0.2-1.1,0.2c-0.7,0-1.2-0.2-1.5-0.5
				c-0.4-0.3-0.5-0.7-0.5-1.2c0-0.3,0.1-0.6,0.2-0.8c0.1-0.2,0.3-0.4,0.5-0.6s0.5-0.3,0.7-0.3c0.2-0.1,0.5-0.1,0.9-0.2
				c0.8-0.1,1.4-0.2,1.8-0.4c0-0.1,0-0.2,0-0.3c0-0.4-0.1-0.7-0.3-0.9c-0.3-0.2-0.6-0.3-1.2-0.3c-0.5,0-0.8,0.1-1.1,0.3
				c-0.2,0.2-0.4,0.5-0.5,0.9l-1-0.1c0.1-0.4,0.2-0.8,0.4-1c0.2-0.3,0.5-0.5,0.9-0.6c0.4-0.1,0.8-0.2,1.4-0.2c0.5,0,0.9,0.1,1.3,0.2
				c0.3,0.1,0.6,0.3,0.7,0.5s0.3,0.4,0.3,0.7c0,0.2,0.1,0.5,0.1,0.9v1.4c0,1,0,1.6,0.1,1.8c0,0.3,0.1,0.5,0.3,0.7h-1.1
				C72,190.6,71.9,190.3,71.9,190z M71.8,187.8c-0.4,0.2-0.9,0.3-1.7,0.4c-0.4,0.1-0.7,0.1-0.9,0.2c-0.2,0.1-0.3,0.2-0.4,0.3
				s-0.1,0.3-0.1,0.5c0,0.3,0.1,0.5,0.3,0.7s0.5,0.3,0.9,0.3c0.4,0,0.7-0.1,1-0.3c0.3-0.2,0.5-0.4,0.7-0.7c0.1-0.2,0.2-0.6,0.2-1
				V187.8z"/>
		</g>
		<g id="XMLID_178_">
			<path id="XMLID_179_" class="st1" d="M12,214.6v-2.3H9.7v-1H12v-2.3h1v2.3h2.3v1h-2.3v2.3H12z"/>
			<path id="XMLID_181_" class="st1" d="M16.6,216v-6h0.9v0.9c0.4-0.7,1.1-1,1.9-1c0.4,0,0.7,0.1,1,0.2c0.3,0.1,0.5,0.3,0.7,0.5
				s0.3,0.5,0.3,0.8c0,0.2,0.1,0.5,0.1,1v3.7h-1v-3.7c0-0.4,0-0.7-0.1-0.9c-0.1-0.2-0.2-0.4-0.4-0.5s-0.4-0.2-0.7-0.2
				c-0.4,0-0.8,0.1-1.1,0.4c-0.3,0.3-0.5,0.8-0.5,1.6v3.3H16.6z"/>
			<path id="XMLID_183_" class="st1" d="M23.1,216v-6H24v0.9c0.2-0.4,0.5-0.7,0.7-0.8c0.2-0.1,0.4-0.2,0.7-0.2
				c0.3,0,0.7,0.1,1.1,0.3l-0.4,0.9c-0.2-0.1-0.5-0.2-0.7-0.2c-0.2,0-0.4,0.1-0.6,0.2c-0.2,0.1-0.3,0.3-0.4,0.6
				c-0.1,0.4-0.2,0.8-0.2,1.2v3.2H23.1z"/>
			<path id="XMLID_185_" class="st1" d="M26.6,212.9c0-1.1,0.3-1.9,0.9-2.5c0.5-0.4,1.2-0.7,1.9-0.7c0.8,0,1.5,0.3,2,0.8
				c0.5,0.5,0.8,1.3,0.8,2.3c0,0.8-0.1,1.4-0.3,1.8c-0.2,0.4-0.6,0.8-1,1c-0.4,0.2-0.9,0.4-1.5,0.4c-0.8,0-1.5-0.3-2-0.8
				S26.6,214,26.6,212.9z M27.6,212.9c0,0.8,0.2,1.4,0.5,1.7s0.8,0.6,1.3,0.6c0.5,0,0.9-0.2,1.3-0.6s0.5-1,0.5-1.8
				c0-0.7-0.2-1.3-0.5-1.7c-0.3-0.4-0.8-0.6-1.3-0.6c-0.5,0-0.9,0.2-1.3,0.6C27.8,211.6,27.6,212.2,27.6,212.9z"/>
			<path id="XMLID_188_" class="st1" d="M32.5,218.3v-0.7h6.8v0.7H32.5z"/>
			<path id="XMLID_190_" class="st1" d="M39.9,218.3v-8.3h0.9v0.8c0.2-0.3,0.5-0.5,0.7-0.7s0.6-0.2,1-0.2c0.5,0,1,0.1,1.4,0.4
				s0.7,0.6,0.9,1.1c0.2,0.5,0.3,1,0.3,1.6c0,0.6-0.1,1.2-0.3,1.7c-0.2,0.5-0.5,0.9-1,1.1c-0.4,0.3-0.9,0.4-1.3,0.4
				c-0.3,0-0.6-0.1-0.9-0.2c-0.3-0.1-0.5-0.3-0.7-0.5v2.9H39.9z M40.8,213c0,0.8,0.2,1.3,0.5,1.7c0.3,0.4,0.7,0.6,1.1,0.6
				c0.5,0,0.8-0.2,1.2-0.6c0.3-0.4,0.5-1,0.5-1.8c0-0.8-0.2-1.3-0.5-1.7c-0.3-0.4-0.7-0.6-1.1-0.6c-0.4,0-0.8,0.2-1.2,0.6
				C41,211.6,40.8,212.2,40.8,213z"/>
			<path id="XMLID_193_" class="st1" d="M50.3,215.2c-0.4,0.3-0.7,0.5-1.1,0.7c-0.4,0.1-0.7,0.2-1.1,0.2c-0.7,0-1.2-0.2-1.5-0.5
				c-0.4-0.3-0.5-0.7-0.5-1.2c0-0.3,0.1-0.6,0.2-0.8c0.1-0.2,0.3-0.4,0.5-0.6s0.5-0.3,0.7-0.3c0.2-0.1,0.5-0.1,0.9-0.2
				c0.8-0.1,1.4-0.2,1.8-0.4c0-0.1,0-0.2,0-0.3c0-0.4-0.1-0.7-0.3-0.9c-0.3-0.2-0.6-0.3-1.2-0.3c-0.5,0-0.8,0.1-1.1,0.3
				c-0.2,0.2-0.4,0.5-0.5,0.9l-1-0.1c0.1-0.4,0.2-0.8,0.4-1c0.2-0.3,0.5-0.5,0.9-0.6c0.4-0.1,0.8-0.2,1.4-0.2c0.5,0,0.9,0.1,1.3,0.2
				c0.3,0.1,0.6,0.3,0.7,0.5s0.3,0.4,0.3,0.7c0,0.2,0.1,0.5,0.1,0.9v1.4c0,1,0,1.6,0.1,1.8c0,0.3,0.1,0.5,0.3,0.7h-1.1
				C50.4,215.7,50.3,215.5,50.3,215.2z M50.2,212.9c-0.4,0.2-0.9,0.3-1.7,0.4c-0.4,0.1-0.7,0.1-0.9,0.2c-0.2,0.1-0.3,0.2-0.4,0.3
				s-0.1,0.3-0.1,0.5c0,0.3,0.1,0.5,0.3,0.7s0.5,0.3,0.9,0.3c0.4,0,0.7-0.1,1-0.3c0.3-0.2,0.5-0.4,0.7-0.7c0.1-0.2,0.2-0.6,0.2-1
				V212.9z"/>
			<path id="XMLID_196_" class="st1" d="M55,215l0.1,0.9c-0.3,0.1-0.5,0.1-0.8,0.1c-0.4,0-0.7-0.1-0.9-0.2s-0.3-0.3-0.4-0.5
				c-0.1-0.2-0.1-0.6-0.1-1.2v-3.5h-0.7v-0.8H53v-1.5l1-0.6v2.1h1v0.8h-1v3.5c0,0.3,0,0.5,0.1,0.6c0,0.1,0.1,0.1,0.2,0.2
				c0.1,0,0.2,0.1,0.3,0.1C54.7,215.1,54.9,215.1,55,215z"/>
			<path id="XMLID_198_" class="st1" d="M60,215.2c-0.4,0.3-0.7,0.5-1.1,0.7c-0.3,0.1-0.7,0.2-1.1,0.2c-0.7,0-1.2-0.2-1.5-0.5
				c-0.4-0.3-0.5-0.7-0.5-1.2c0-0.3,0.1-0.6,0.2-0.8c0.1-0.2,0.3-0.4,0.5-0.6c0.2-0.1,0.5-0.3,0.7-0.3c0.2-0.1,0.5-0.1,0.9-0.2
				c0.8-0.1,1.4-0.2,1.8-0.4c0-0.1,0-0.2,0-0.3c0-0.4-0.1-0.7-0.3-0.9c-0.3-0.2-0.6-0.3-1.2-0.3c-0.5,0-0.8,0.1-1.1,0.3
				c-0.2,0.2-0.4,0.5-0.5,0.9l-1-0.1c0.1-0.4,0.2-0.8,0.4-1s0.5-0.5,0.9-0.6c0.4-0.1,0.8-0.2,1.4-0.2c0.5,0,0.9,0.1,1.3,0.2
				c0.3,0.1,0.6,0.3,0.7,0.5s0.3,0.4,0.3,0.7c0,0.2,0.1,0.5,0.1,0.9v1.4c0,1,0,1.6,0.1,1.8c0,0.3,0.1,0.5,0.3,0.7h-1.1
				C60.1,215.7,60,215.5,60,215.2z M59.9,212.9c-0.4,0.2-0.9,0.3-1.7,0.4c-0.4,0.1-0.7,0.1-0.9,0.2c-0.2,0.1-0.3,0.2-0.4,0.3
				s-0.1,0.3-0.1,0.5c0,0.3,0.1,0.5,0.3,0.7c0.2,0.2,0.5,0.3,0.9,0.3c0.4,0,0.7-0.1,1.1-0.3c0.3-0.2,0.5-0.4,0.7-0.7
				c0.1-0.2,0.2-0.6,0.2-1V212.9z"/>
			<path id="XMLID_201_" class="st1" d="M62.1,214.2l1-0.2c0.1,0.4,0.2,0.7,0.5,0.9c0.3,0.2,0.6,0.3,1.1,0.3c0.5,0,0.8-0.1,1-0.3
				c0.2-0.2,0.3-0.4,0.3-0.7c0-0.2-0.1-0.4-0.3-0.5c-0.1-0.1-0.5-0.2-1-0.3c-0.8-0.2-1.3-0.4-1.6-0.5c-0.3-0.1-0.5-0.3-0.7-0.6
				s-0.2-0.5-0.2-0.8c0-0.3,0.1-0.5,0.2-0.7c0.1-0.2,0.3-0.4,0.5-0.6c0.2-0.1,0.4-0.2,0.7-0.3s0.6-0.1,0.9-0.1
				c0.5,0,0.9,0.1,1.2,0.2c0.4,0.1,0.6,0.3,0.8,0.6c0.2,0.2,0.3,0.5,0.4,0.9l-1,0.1c0-0.3-0.2-0.6-0.4-0.7s-0.5-0.3-0.9-0.3
				c-0.5,0-0.8,0.1-1,0.2c-0.2,0.2-0.3,0.3-0.3,0.5c0,0.1,0,0.3,0.1,0.4c0.1,0.1,0.2,0.2,0.4,0.3c0.1,0,0.4,0.1,0.9,0.3
				c0.7,0.2,1.2,0.4,1.5,0.5s0.5,0.3,0.7,0.5c0.2,0.2,0.2,0.5,0.2,0.9c0,0.3-0.1,0.7-0.3,1c-0.2,0.3-0.5,0.5-0.9,0.7
				c-0.4,0.2-0.8,0.2-1.3,0.2c-0.8,0-1.4-0.2-1.8-0.5C62.5,215.3,62.2,214.8,62.1,214.2z"/>
			<path id="XMLID_203_" class="st1" d="M9.4,225.1v-1h3.1v1H9.4z"/>
			<path id="XMLID_205_" class="st1" d="M15.9,226.7l0.1,0.9c-0.3,0.1-0.5,0.1-0.8,0.1c-0.4,0-0.7-0.1-0.9-0.2s-0.3-0.3-0.4-0.5
				c-0.1-0.2-0.1-0.6-0.1-1.2v-3.5h-0.7v-0.8h0.7v-1.5l1-0.6v2.1h1v0.8h-1v3.5c0,0.3,0,0.5,0.1,0.6c0,0.1,0.1,0.1,0.2,0.2
				c0.1,0,0.2,0.1,0.3,0.1C15.6,226.7,15.7,226.7,15.9,226.7z"/>
			<path id="XMLID_207_" class="st1" d="M16.9,220.4v-1.2h1v1.2H16.9z M16.9,227.6v-6h1v6H16.9z"/>
			<path id="XMLID_210_" class="st1" d="M19.5,229.9v-8.3h0.9v0.8c0.2-0.3,0.5-0.5,0.7-0.7s0.6-0.2,1-0.2c0.5,0,1,0.1,1.4,0.4
				s0.7,0.6,0.9,1.1c0.2,0.5,0.3,1,0.3,1.6c0,0.6-0.1,1.2-0.3,1.7c-0.2,0.5-0.5,0.9-1,1.1c-0.4,0.3-0.9,0.4-1.3,0.4
				c-0.3,0-0.6-0.1-0.9-0.2c-0.3-0.1-0.5-0.3-0.7-0.5v2.9H19.5z M20.4,224.6c0,0.8,0.2,1.3,0.5,1.7s0.7,0.6,1.1,0.6
				c0.5,0,0.8-0.2,1.2-0.6c0.3-0.4,0.5-1,0.5-1.8c0-0.8-0.2-1.3-0.5-1.7c-0.3-0.4-0.7-0.6-1.1-0.6c-0.4,0-0.8,0.2-1.2,0.6
				C20.6,223.2,20.4,223.8,20.4,224.6z"/>
			<path id="XMLID_213_" class="st1" d="M25.6,224.6c0-1.1,0.3-1.9,0.9-2.5c0.5-0.4,1.2-0.7,1.9-0.7c0.8,0,1.5,0.3,2,0.8
				c0.5,0.5,0.8,1.3,0.8,2.3c0,0.8-0.1,1.4-0.3,1.8c-0.2,0.4-0.6,0.8-1,1c-0.4,0.2-0.9,0.4-1.5,0.4c-0.8,0-1.5-0.3-2-0.8
				S25.6,225.6,25.6,224.6z M26.6,224.6c0,0.8,0.2,1.4,0.5,1.7s0.8,0.6,1.3,0.6c0.5,0,0.9-0.2,1.3-0.6s0.5-1,0.5-1.8
				c0-0.7-0.2-1.3-0.5-1.7c-0.3-0.4-0.8-0.6-1.3-0.6c-0.5,0-0.9,0.2-1.3,0.6C26.8,223.2,26.6,223.8,26.6,224.6z"/>
		</g>
		<g id="XMLID_153_">
			<path id="XMLID_154_" class="st1" d="M12,254.6v-2.3H9.7v-1H12v-2.3h1v2.3h2.3v1h-2.3v2.3H12z"/>
			<path id="XMLID_156_" class="st1" d="M20.5,256v-0.8c-0.4,0.6-0.9,0.9-1.7,0.9c-0.5,0-0.9-0.1-1.3-0.4c-0.4-0.3-0.7-0.6-0.9-1.1
				c-0.2-0.5-0.3-1-0.3-1.6c0-0.6,0.1-1.1,0.3-1.6c0.2-0.5,0.5-0.9,0.9-1.1s0.8-0.4,1.3-0.4c0.4,0,0.7,0.1,1,0.2s0.5,0.4,0.7,0.6v-3
				h1v8.3H20.5z M17.3,253c0,0.8,0.2,1.3,0.5,1.7c0.3,0.4,0.7,0.6,1.2,0.6c0.4,0,0.8-0.2,1.1-0.5s0.5-0.9,0.5-1.7
				c0-0.8-0.2-1.4-0.5-1.8c-0.3-0.4-0.7-0.6-1.2-0.6c-0.5,0-0.8,0.2-1.1,0.6S17.3,252.2,17.3,253z"/>
			<path id="XMLID_159_" class="st1" d="M27.2,254.1l1.1,0.1c-0.2,0.6-0.5,1.1-0.9,1.4c-0.5,0.3-1,0.5-1.7,0.5
				c-0.9,0-1.6-0.3-2.1-0.8c-0.5-0.5-0.8-1.3-0.8-2.3c0-1,0.3-1.8,0.8-2.4c0.5-0.6,1.2-0.8,2-0.8c0.8,0,1.5,0.3,2,0.8
				s0.8,1.3,0.8,2.3c0,0.1,0,0.2,0,0.3h-4.5c0,0.7,0.2,1.2,0.6,1.5c0.3,0.4,0.8,0.5,1.3,0.5c0.4,0,0.7-0.1,1-0.3
				C26.8,254.8,27,254.5,27.2,254.1z M23.8,252.4h3.4c0-0.5-0.2-0.9-0.4-1.1c-0.3-0.4-0.7-0.6-1.3-0.6c-0.5,0-0.9,0.2-1.2,0.5
				S23.9,251.9,23.8,252.4z"/>
			<path id="XMLID_162_" class="st1" d="M33.5,253.8l1,0.1c-0.1,0.7-0.4,1.2-0.8,1.6s-1,0.6-1.7,0.6c-0.8,0-1.5-0.3-2-0.8
				c-0.5-0.5-0.8-1.3-0.8-2.3c0-0.7,0.1-1.2,0.3-1.7s0.5-0.9,1-1.1c0.4-0.2,0.9-0.4,1.4-0.4c0.7,0,1.2,0.2,1.6,0.5
				c0.4,0.3,0.7,0.8,0.8,1.4l-1,0.2c-0.1-0.4-0.3-0.7-0.5-0.9c-0.2-0.2-0.5-0.3-0.9-0.3c-0.5,0-0.9,0.2-1.3,0.6
				c-0.3,0.4-0.5,1-0.5,1.8c0,0.8,0.2,1.4,0.5,1.8s0.7,0.6,1.2,0.6c0.4,0,0.7-0.1,1-0.4S33.4,254.3,33.5,253.8z"/>
			<path id="XMLID_164_" class="st1" d="M35,253c0-1.1,0.3-1.9,0.9-2.5c0.5-0.4,1.2-0.7,1.9-0.7c0.8,0,1.5,0.3,2,0.8
				s0.8,1.3,0.8,2.3c0,0.8-0.1,1.4-0.3,1.8c-0.2,0.4-0.6,0.8-1,1c-0.4,0.2-0.9,0.4-1.5,0.4c-0.8,0-1.5-0.3-2-0.8
				C35.2,254.8,35,254,35,253z M36,253c0,0.8,0.2,1.4,0.5,1.7s0.8,0.6,1.3,0.6c0.5,0,0.9-0.2,1.3-0.6s0.5-1,0.5-1.8
				c0-0.7-0.2-1.3-0.5-1.7c-0.3-0.4-0.8-0.6-1.3-0.6c-0.5,0-0.9,0.2-1.3,0.6C36.2,251.6,36,252.2,36,253z"/>
			<path id="XMLID_167_" class="st1" d="M41.8,256v-6h0.9v0.9c0.2-0.4,0.5-0.7,0.7-0.8c0.2-0.1,0.4-0.2,0.7-0.2c0.3,0,0.7,0.1,1,0.3
				l-0.4,0.9c-0.3-0.1-0.5-0.2-0.8-0.2c-0.2,0-0.4,0.1-0.6,0.2c-0.2,0.1-0.3,0.3-0.4,0.6c-0.1,0.4-0.2,0.8-0.2,1.2v3.2H41.8z"/>
			<path id="XMLID_169_" class="st1" d="M49.6,255.2c-0.4,0.3-0.7,0.5-1.1,0.7c-0.3,0.1-0.7,0.2-1.1,0.2c-0.7,0-1.2-0.2-1.5-0.5
				c-0.4-0.3-0.5-0.7-0.5-1.2c0-0.3,0.1-0.6,0.2-0.8c0.1-0.2,0.3-0.4,0.5-0.6c0.2-0.1,0.5-0.3,0.7-0.3c0.2-0.1,0.5-0.1,0.9-0.2
				c0.8-0.1,1.4-0.2,1.8-0.4c0-0.1,0-0.2,0-0.3c0-0.4-0.1-0.7-0.3-0.9c-0.3-0.2-0.6-0.3-1.2-0.3c-0.5,0-0.8,0.1-1.1,0.3
				c-0.2,0.2-0.4,0.5-0.5,0.9l-1-0.1c0.1-0.4,0.2-0.8,0.4-1s0.5-0.5,0.9-0.6c0.4-0.1,0.8-0.2,1.4-0.2c0.5,0,0.9,0.1,1.3,0.2
				c0.3,0.1,0.6,0.3,0.7,0.5s0.3,0.4,0.3,0.7c0,0.2,0.1,0.5,0.1,0.9v1.4c0,1,0,1.6,0.1,1.8c0,0.3,0.1,0.5,0.3,0.7h-1.1
				C49.7,255.8,49.7,255.5,49.6,255.2z M49.5,253c-0.4,0.2-0.9,0.3-1.7,0.4c-0.4,0.1-0.7,0.1-0.9,0.2c-0.2,0.1-0.3,0.2-0.4,0.3
				s-0.1,0.3-0.1,0.5c0,0.3,0.1,0.5,0.3,0.7c0.2,0.2,0.5,0.3,0.9,0.3c0.4,0,0.7-0.1,1.1-0.3c0.3-0.2,0.5-0.4,0.7-0.7
				c0.1-0.2,0.2-0.6,0.2-1V253z"/>
			<path id="XMLID_172_" class="st1" d="M52.2,256v-6h0.9v0.9c0.2-0.4,0.5-0.7,0.7-0.8c0.2-0.1,0.4-0.2,0.7-0.2
				c0.3,0,0.7,0.1,1.1,0.3l-0.4,0.9c-0.2-0.1-0.5-0.2-0.7-0.2c-0.2,0-0.4,0.1-0.6,0.2c-0.2,0.1-0.3,0.3-0.4,0.6
				c-0.1,0.4-0.2,0.8-0.2,1.2v3.2H52.2z"/>
			<path id="XMLID_174_" class="st1" d="M58,258.4c-0.6-0.7-1-1.5-1.4-2.5c-0.4-1-0.6-1.9-0.6-3c0-0.9,0.1-1.8,0.4-2.6
				c0.3-1,0.9-1.9,1.6-2.9h0.7c-0.5,0.8-0.8,1.3-0.9,1.7c-0.2,0.5-0.4,1.1-0.5,1.6c-0.2,0.7-0.2,1.4-0.2,2.1c0,1.8,0.6,3.6,1.7,5.5
				H58z"/>
			<path id="XMLID_176_" class="st1" d="M60.6,258.4h-0.7c1.1-1.8,1.7-3.6,1.7-5.5c0-0.7-0.1-1.4-0.2-2.1c-0.1-0.6-0.3-1.1-0.5-1.6
				c-0.1-0.3-0.5-0.9-0.9-1.7h0.7c0.7,1,1.2,1.9,1.6,2.9c0.3,0.8,0.4,1.7,0.4,2.6c0,1-0.2,2-0.6,3C61.6,256.9,61.1,257.7,60.6,258.4
				z"/>
		</g>
		<line id="XMLID_9614_" class="st2" x1="2.5" y1="196.4" x2="122.5" y2="196.4"/>
		<line id="XMLID_9605_" class="st2" x1="2.5" y1="242.1" x2="122.5" y2="242.1"/>
	</g>
	<g id="XMLID_9604_">
		<g id="XMLID_10352_">
			<rect id="XMLID_50_" x="304.3" y="175.8" class="st0" width="122.5" height="86.7"/>
			<g id="XMLID_46_">
				<path id="XMLID_47_" class="st1" d="M425.5,177.1v84.2h-120v-84.2H425.5 M428,174.6h-2.5h-120H303v2.5v84.2v2.5h2.5h120h2.5
					v-2.5v-84.2V174.6L428,174.6z"/>
			</g>
		</g>
		<g id="XMLID_142_">
			<path id="XMLID_143_" class="st1" d="M354.2,188.1l1-0.1c0,0.4,0.2,0.8,0.3,1s0.5,0.5,0.8,0.6c0.4,0.2,0.8,0.2,1.3,0.2
				c0.4,0,0.8-0.1,1.1-0.2c0.3-0.1,0.6-0.3,0.7-0.5s0.2-0.5,0.2-0.7c0-0.3-0.1-0.5-0.2-0.7c-0.2-0.2-0.4-0.4-0.8-0.5
				c-0.2-0.1-0.7-0.2-1.5-0.4s-1.3-0.4-1.6-0.5c-0.4-0.2-0.7-0.5-0.9-0.8c-0.2-0.3-0.3-0.7-0.3-1c0-0.4,0.1-0.8,0.4-1.2
				c0.2-0.4,0.6-0.6,1-0.8s1-0.3,1.5-0.3c0.6,0,1.2,0.1,1.6,0.3c0.5,0.2,0.8,0.5,1.1,0.9c0.3,0.4,0.4,0.8,0.4,1.3l-1.1,0.1
				c-0.1-0.5-0.2-0.9-0.6-1.2c-0.3-0.3-0.8-0.4-1.5-0.4c-0.7,0-1.2,0.1-1.5,0.4c-0.3,0.2-0.5,0.5-0.5,0.9c0,0.3,0.1,0.5,0.3,0.7
				c0.2,0.2,0.8,0.4,1.7,0.6c0.9,0.2,1.5,0.4,1.8,0.5c0.5,0.2,0.8,0.5,1.1,0.8s0.3,0.7,0.3,1.2c0,0.4-0.1,0.9-0.4,1.3
				s-0.6,0.7-1.1,0.9s-1,0.3-1.6,0.3c-0.8,0-1.4-0.1-1.9-0.3c-0.5-0.2-0.9-0.5-1.2-1C354.4,189.2,354.2,188.7,354.2,188.1z"/>
			<path id="XMLID_145_" class="st1" d="M361.8,187.8c0-1.1,0.3-1.9,0.9-2.5c0.5-0.4,1.2-0.7,1.9-0.7c0.8,0,1.5,0.3,2,0.8
				s0.8,1.3,0.8,2.3c0,0.8-0.1,1.4-0.3,1.8c-0.2,0.4-0.6,0.8-1,1c-0.4,0.2-0.9,0.4-1.5,0.4c-0.8,0-1.5-0.3-2-0.8
				C362.1,189.6,361.8,188.8,361.8,187.8z M362.9,187.8c0,0.8,0.2,1.4,0.5,1.7s0.8,0.6,1.3,0.6c0.5,0,0.9-0.2,1.3-0.6s0.5-1,0.5-1.8
				c0-0.7-0.2-1.3-0.5-1.7c-0.3-0.4-0.8-0.6-1.3-0.6c-0.5,0-0.9,0.2-1.3,0.6C363.1,186.4,362.9,187,362.9,187.8z"/>
			<path id="XMLID_148_" class="st1" d="M368.9,190.8v-5.2H368v-0.8h0.9v-0.6c0-0.4,0-0.7,0.1-0.9c0.1-0.3,0.3-0.5,0.5-0.6
				c0.2-0.2,0.6-0.2,1-0.2c0.3,0,0.6,0,1,0.1l-0.2,0.9c-0.2,0-0.4-0.1-0.6-0.1c-0.3,0-0.5,0.1-0.7,0.2c-0.1,0.1-0.2,0.4-0.2,0.7v0.6
				h1.2v0.8h-1.2v5.2H368.9z"/>
			<path id="XMLID_150_" class="st1" d="M375.9,190c-0.4,0.3-0.7,0.5-1.1,0.7c-0.4,0.1-0.7,0.2-1.1,0.2c-0.7,0-1.2-0.2-1.5-0.5
				c-0.4-0.3-0.5-0.7-0.5-1.2c0-0.3,0.1-0.6,0.2-0.8c0.1-0.2,0.3-0.4,0.5-0.6s0.5-0.3,0.7-0.3c0.2-0.1,0.5-0.1,0.9-0.2
				c0.8-0.1,1.4-0.2,1.8-0.4c0-0.1,0-0.2,0-0.3c0-0.4-0.1-0.7-0.3-0.9c-0.3-0.2-0.6-0.3-1.2-0.3c-0.5,0-0.8,0.1-1.1,0.3
				c-0.2,0.2-0.4,0.5-0.5,0.9l-1-0.1c0.1-0.4,0.2-0.8,0.4-1c0.2-0.3,0.5-0.5,0.9-0.6c0.4-0.1,0.8-0.2,1.4-0.2c0.5,0,0.9,0.1,1.3,0.2
				c0.3,0.1,0.6,0.3,0.7,0.5s0.3,0.4,0.3,0.7c0,0.2,0.1,0.5,0.1,0.9v1.4c0,1,0,1.6,0.1,1.8c0,0.3,0.1,0.5,0.3,0.7h-1.1
				C375.9,190.6,375.9,190.3,375.9,190z M375.8,187.8c-0.4,0.2-0.9,0.3-1.7,0.4c-0.4,0.1-0.7,0.1-0.9,0.2c-0.2,0.1-0.3,0.2-0.4,0.3
				s-0.1,0.3-0.1,0.5c0,0.3,0.1,0.5,0.3,0.7s0.5,0.3,0.9,0.3c0.4,0,0.7-0.1,1-0.3c0.3-0.2,0.5-0.4,0.7-0.7c0.1-0.2,0.2-0.6,0.2-1
				V187.8z"/>
		</g>
		<g id="XMLID_92_">
			<path id="XMLID_94_" class="st1" d="M312.4,208.5v-1h3.1v1H312.4z"/>
			<path id="XMLID_97_" class="st1" d="M320.6,208.7l1,0.1c-0.1,0.7-0.4,1.2-0.8,1.6c-0.5,0.4-1,0.6-1.7,0.6c-0.8,0-1.5-0.3-2-0.8
				c-0.5-0.5-0.8-1.3-0.8-2.3c0-0.7,0.1-1.2,0.3-1.7s0.5-0.9,1-1.1s0.9-0.4,1.4-0.4c0.7,0,1.2,0.2,1.6,0.5c0.4,0.3,0.7,0.8,0.8,1.4
				l-1,0.2c-0.1-0.4-0.3-0.7-0.5-0.9c-0.2-0.2-0.5-0.3-0.9-0.3c-0.5,0-0.9,0.2-1.3,0.6c-0.3,0.4-0.5,1-0.5,1.8
				c0,0.8,0.2,1.4,0.5,1.8s0.7,0.6,1.2,0.6c0.4,0,0.7-0.1,1-0.4C320.4,209.6,320.6,209.3,320.6,208.7z"/>
			<path id="XMLID_99_" class="st1" d="M326.4,210.2c-0.4,0.3-0.7,0.5-1.1,0.7c-0.3,0.1-0.7,0.2-1.1,0.2c-0.7,0-1.2-0.2-1.5-0.5
				c-0.4-0.3-0.5-0.7-0.5-1.2c0-0.3,0.1-0.6,0.2-0.8c0.1-0.2,0.3-0.4,0.5-0.6c0.2-0.1,0.5-0.3,0.7-0.3c0.2-0.1,0.5-0.1,0.9-0.2
				c0.8-0.1,1.4-0.2,1.8-0.4c0-0.1,0-0.2,0-0.3c0-0.4-0.1-0.7-0.3-0.9c-0.3-0.2-0.6-0.3-1.2-0.3c-0.5,0-0.8,0.1-1.1,0.3
				c-0.2,0.2-0.4,0.5-0.5,0.9l-1-0.1c0.1-0.4,0.2-0.8,0.4-1s0.5-0.5,0.9-0.6c0.4-0.1,0.8-0.2,1.4-0.2c0.5,0,0.9,0.1,1.3,0.2
				c0.3,0.1,0.6,0.3,0.7,0.5s0.3,0.4,0.3,0.7c0,0.2,0.1,0.5,0.1,0.9v1.4c0,1,0,1.6,0.1,1.8c0,0.3,0.1,0.5,0.3,0.7h-1.1
				C326.5,210.7,326.5,210.5,326.4,210.2z M326.4,207.9c-0.4,0.2-0.9,0.3-1.7,0.4c-0.4,0.1-0.7,0.1-0.9,0.2
				c-0.2,0.1-0.3,0.2-0.4,0.3s-0.1,0.3-0.1,0.5c0,0.3,0.1,0.5,0.3,0.7c0.2,0.2,0.5,0.3,0.9,0.3c0.4,0,0.7-0.1,1.1-0.3
				c0.3-0.2,0.5-0.4,0.7-0.7c0.1-0.2,0.2-0.6,0.2-1V207.9z"/>
			<path id="XMLID_102_" class="st1" d="M329,213.3v-8.3h0.9v0.8c0.2-0.3,0.5-0.5,0.7-0.7s0.6-0.2,1-0.2c0.5,0,1,0.1,1.4,0.4
				s0.7,0.6,0.9,1.1c0.2,0.5,0.3,1,0.3,1.6c0,0.6-0.1,1.2-0.3,1.7c-0.2,0.5-0.5,0.9-1,1.1c-0.4,0.3-0.9,0.4-1.3,0.4
				c-0.3,0-0.6-0.1-0.9-0.2c-0.3-0.1-0.5-0.3-0.7-0.5v2.9H329z M329.9,208c0,0.8,0.2,1.3,0.5,1.7s0.7,0.6,1.1,0.6
				c0.5,0,0.8-0.2,1.2-0.6c0.3-0.4,0.5-1,0.5-1.8c0-0.8-0.2-1.3-0.5-1.7c-0.3-0.4-0.7-0.6-1.1-0.6c-0.4,0-0.8,0.2-1.2,0.6
				C330.1,206.6,329.9,207.2,329.9,208z"/>
			<path id="XMLID_105_" class="st1" d="M339.4,210.2c-0.4,0.3-0.7,0.5-1.1,0.7c-0.3,0.1-0.7,0.2-1.1,0.2c-0.7,0-1.2-0.2-1.5-0.5
				c-0.4-0.3-0.5-0.7-0.5-1.2c0-0.3,0.1-0.6,0.2-0.8c0.1-0.2,0.3-0.4,0.5-0.6c0.2-0.1,0.5-0.3,0.7-0.3c0.2-0.1,0.5-0.1,0.9-0.2
				c0.8-0.1,1.4-0.2,1.8-0.4c0-0.1,0-0.2,0-0.3c0-0.4-0.1-0.7-0.3-0.9c-0.3-0.2-0.6-0.3-1.2-0.3c-0.5,0-0.8,0.1-1.1,0.3
				c-0.2,0.2-0.4,0.5-0.5,0.9l-1-0.1c0.1-0.4,0.2-0.8,0.4-1s0.5-0.5,0.9-0.6c0.4-0.1,0.8-0.2,1.4-0.2c0.5,0,0.9,0.1,1.3,0.2
				c0.3,0.1,0.6,0.3,0.7,0.5s0.3,0.4,0.3,0.7c0,0.2,0.1,0.5,0.1,0.9v1.4c0,1,0,1.6,0.1,1.8c0,0.3,0.1,0.5,0.3,0.7h-1.1
				C339.5,210.7,339.4,210.5,339.4,210.2z M339.3,207.9c-0.4,0.2-0.9,0.3-1.7,0.4c-0.4,0.1-0.7,0.1-0.9,0.2
				c-0.2,0.1-0.3,0.2-0.4,0.3s-0.1,0.3-0.1,0.5c0,0.3,0.1,0.5,0.3,0.7c0.2,0.2,0.5,0.3,0.9,0.3c0.4,0,0.7-0.1,1.1-0.3
				c0.3-0.2,0.5-0.4,0.7-0.7c0.1-0.2,0.2-0.6,0.2-1V207.9z"/>
			<path id="XMLID_108_" class="st1" d="M345.8,208.7l1,0.1c-0.1,0.7-0.4,1.2-0.8,1.6c-0.5,0.4-1,0.6-1.7,0.6c-0.8,0-1.5-0.3-2-0.8
				c-0.5-0.5-0.8-1.3-0.8-2.3c0-0.7,0.1-1.2,0.3-1.7s0.5-0.9,1-1.1s0.9-0.4,1.4-0.4c0.7,0,1.2,0.2,1.6,0.5c0.4,0.3,0.7,0.8,0.8,1.4
				l-1,0.2c-0.1-0.4-0.3-0.7-0.5-0.9c-0.2-0.2-0.5-0.3-0.9-0.3c-0.5,0-0.9,0.2-1.3,0.6c-0.3,0.4-0.5,1-0.5,1.8
				c0,0.8,0.2,1.4,0.5,1.8s0.7,0.6,1.2,0.6c0.4,0,0.7-0.1,1-0.4C345.6,209.6,345.8,209.3,345.8,208.7z"/>
			<path id="XMLID_111_" class="st1" d="M347.7,203.8v-1.2h1v1.2H347.7z M347.7,211v-6h1v6H347.7z"/>
			<path id="XMLID_116_" class="st1" d="M354.2,211v-0.8c-0.4,0.6-0.9,0.9-1.7,0.9c-0.5,0-0.9-0.1-1.3-0.4c-0.4-0.3-0.7-0.6-0.9-1.1
				c-0.2-0.5-0.3-1-0.3-1.6c0-0.6,0.1-1.1,0.3-1.6c0.2-0.5,0.5-0.9,0.9-1.1s0.8-0.4,1.3-0.4c0.4,0,0.7,0.1,1,0.2
				c0.3,0.2,0.5,0.4,0.7,0.6v-3h1v8.3H354.2z M351,207.9c0,0.8,0.2,1.3,0.5,1.7c0.3,0.4,0.7,0.6,1.2,0.6c0.4,0,0.8-0.2,1.1-0.5
				c0.3-0.4,0.5-0.9,0.5-1.7c0-0.8-0.2-1.4-0.5-1.8c-0.3-0.4-0.7-0.6-1.2-0.6c-0.5,0-0.8,0.2-1.1,0.6S351,207.1,351,207.9z"/>
			<path id="XMLID_119_" class="st1" d="M360.7,210.2c-0.4,0.3-0.7,0.5-1.1,0.7c-0.3,0.1-0.7,0.2-1.1,0.2c-0.7,0-1.2-0.2-1.5-0.5
				c-0.4-0.3-0.5-0.7-0.5-1.2c0-0.3,0.1-0.6,0.2-0.8c0.1-0.2,0.3-0.4,0.5-0.6c0.2-0.1,0.5-0.3,0.7-0.3c0.2-0.1,0.5-0.1,0.9-0.2
				c0.8-0.1,1.4-0.2,1.8-0.4c0-0.1,0-0.2,0-0.3c0-0.4-0.1-0.7-0.3-0.9c-0.3-0.2-0.6-0.3-1.2-0.3c-0.5,0-0.8,0.1-1.1,0.3
				c-0.2,0.2-0.4,0.5-0.5,0.9l-1-0.1c0.1-0.4,0.2-0.8,0.4-1s0.5-0.5,0.9-0.6c0.4-0.1,0.8-0.2,1.4-0.2c0.5,0,0.9,0.1,1.3,0.2
				c0.3,0.1,0.6,0.3,0.7,0.5s0.3,0.4,0.3,0.7c0,0.2,0.1,0.5,0.1,0.9v1.4c0,1,0,1.6,0.1,1.8c0,0.3,0.1,0.5,0.3,0.7h-1.1
				C360.8,210.7,360.7,210.5,360.7,210.2z M360.6,207.9c-0.4,0.2-0.9,0.3-1.7,0.4c-0.4,0.1-0.7,0.1-0.9,0.2
				c-0.2,0.1-0.3,0.2-0.4,0.3s-0.1,0.3-0.1,0.5c0,0.3,0.1,0.5,0.3,0.7c0.2,0.2,0.5,0.3,0.9,0.3c0.4,0,0.7-0.1,1.1-0.3
				c0.3-0.2,0.5-0.4,0.7-0.7c0.1-0.2,0.2-0.6,0.2-1V207.9z"/>
			<path id="XMLID_122_" class="st1" d="M367.2,211v-0.8c-0.4,0.6-0.9,0.9-1.7,0.9c-0.5,0-0.9-0.1-1.3-0.4c-0.4-0.3-0.7-0.6-0.9-1.1
				c-0.2-0.5-0.3-1-0.3-1.6c0-0.6,0.1-1.1,0.3-1.6c0.2-0.5,0.5-0.9,0.9-1.1s0.8-0.4,1.3-0.4c0.4,0,0.7,0.1,1,0.2
				c0.3,0.2,0.5,0.4,0.7,0.6v-3h1v8.3H367.2z M363.9,207.9c0,0.8,0.2,1.3,0.5,1.7c0.3,0.4,0.7,0.6,1.2,0.6c0.4,0,0.8-0.2,1.1-0.5
				c0.3-0.4,0.5-0.9,0.5-1.7c0-0.8-0.2-1.4-0.5-1.8c-0.3-0.4-0.7-0.6-1.2-0.6c-0.5,0-0.8,0.2-1.1,0.6S363.9,207.1,363.9,207.9z"/>
			<path id="XMLID_125_" class="st1" d="M312.4,220.1v-1h3.1v1H312.4z"/>
			<path id="XMLID_127_" class="st1" d="M320.8,220.6l1.1,0.1c-0.2,0.6-0.5,1.1-0.9,1.4c-0.5,0.3-1,0.5-1.7,0.5
				c-0.9,0-1.6-0.3-2.1-0.8c-0.5-0.5-0.8-1.3-0.8-2.3c0-1,0.3-1.8,0.8-2.4c0.5-0.6,1.2-0.8,2-0.8c0.8,0,1.5,0.3,2,0.8
				s0.8,1.3,0.8,2.3c0,0.1,0,0.2,0,0.3h-4.5c0,0.7,0.2,1.2,0.6,1.5c0.3,0.4,0.8,0.5,1.3,0.5c0.4,0,0.7-0.1,1-0.3
				C320.5,221.4,320.7,221.1,320.8,220.6z M317.5,219h3.4c0-0.5-0.2-0.9-0.4-1.1c-0.3-0.4-0.7-0.6-1.3-0.6c-0.5,0-0.9,0.2-1.2,0.5
				S317.5,218.5,317.5,219z"/>
			<path id="XMLID_130_" class="st1" d="M322.8,220.8l1-0.2c0.1,0.4,0.2,0.7,0.5,0.9c0.3,0.2,0.6,0.3,1.1,0.3c0.5,0,0.8-0.1,1-0.3
				c0.2-0.2,0.3-0.4,0.3-0.7c0-0.2-0.1-0.4-0.3-0.5c-0.1-0.1-0.5-0.2-1-0.3c-0.7-0.2-1.3-0.4-1.6-0.5c-0.3-0.1-0.5-0.3-0.7-0.6
				c-0.2-0.2-0.2-0.5-0.2-0.8c0-0.3,0.1-0.5,0.2-0.7c0.1-0.2,0.3-0.4,0.5-0.6c0.2-0.1,0.4-0.2,0.7-0.3s0.6-0.1,0.9-0.1
				c0.5,0,0.9,0.1,1.2,0.2c0.4,0.1,0.6,0.3,0.8,0.6c0.2,0.2,0.3,0.5,0.4,0.9l-1,0.1c0-0.3-0.2-0.6-0.4-0.7s-0.5-0.3-0.9-0.3
				c-0.5,0-0.8,0.1-1,0.2c-0.2,0.2-0.3,0.3-0.3,0.5c0,0.1,0,0.3,0.1,0.4c0.1,0.1,0.2,0.2,0.4,0.3c0.1,0,0.4,0.1,0.9,0.3
				c0.7,0.2,1.2,0.4,1.5,0.5c0.3,0.1,0.5,0.3,0.7,0.5c0.2,0.2,0.2,0.5,0.2,0.9c0,0.3-0.1,0.7-0.3,1c-0.2,0.3-0.5,0.5-0.9,0.7
				c-0.4,0.2-0.8,0.2-1.3,0.2c-0.8,0-1.4-0.2-1.8-0.5C323.1,221.9,322.9,221.4,322.8,220.8z"/>
			<path id="XMLID_132_" class="st1" d="M331.2,221.7l0.1,0.9c-0.3,0.1-0.5,0.1-0.8,0.1c-0.4,0-0.7-0.1-0.9-0.2
				c-0.2-0.1-0.3-0.3-0.4-0.5c-0.1-0.2-0.1-0.6-0.1-1.2v-3.5h-0.8v-0.8h0.8v-1.5l1-0.6v2.1h1v0.8h-1v3.5c0,0.3,0,0.5,0.1,0.6
				c0,0.1,0.1,0.1,0.2,0.2c0.1,0,0.2,0.1,0.3,0.1C330.9,221.7,331,221.7,331.2,221.7z"/>
			<path id="XMLID_134_" class="st1" d="M332.2,215.4v-1.2h1v1.2H332.2z M332.2,222.6v-6h1v6H332.2z"/>
			<path id="XMLID_137_" class="st1" d="M334.8,222.6v-8.3h1v8.3H334.8z"/>
			<path id="XMLID_139_" class="st1" d="M337,219.6c0-1.1,0.3-1.9,0.9-2.5c0.5-0.4,1.2-0.7,1.9-0.7c0.8,0,1.5,0.3,2,0.8
				s0.8,1.3,0.8,2.3c0,0.8-0.1,1.4-0.3,1.8c-0.2,0.4-0.6,0.8-1,1c-0.4,0.2-0.9,0.4-1.5,0.4c-0.8,0-1.5-0.3-2-0.8
				C337.3,221.4,337,220.6,337,219.6z M338,219.6c0,0.8,0.2,1.4,0.5,1.7s0.8,0.6,1.3,0.6c0.5,0,0.9-0.2,1.3-0.6s0.5-1,0.5-1.8
				c0-0.7-0.2-1.3-0.5-1.7c-0.3-0.4-0.8-0.6-1.3-0.6c-0.5,0-0.9,0.2-1.3,0.6C338.2,218.2,338,218.8,338,219.6z"/>
		</g>
		<g id="XMLID_3_">
			<path id="XMLID_4_" class="st1" d="M315,242.6v-2.3h-2.3v-1h2.3v-2.3h1v2.3h2.3v1h-2.3v2.3H315z"/>
			<path id="XMLID_6_" class="st1" d="M323.5,243.2c-0.4,0.3-0.7,0.5-1.1,0.7c-0.3,0.1-0.7,0.2-1.1,0.2c-0.7,0-1.2-0.2-1.5-0.5
				c-0.4-0.3-0.5-0.7-0.5-1.2c0-0.3,0.1-0.6,0.2-0.8c0.1-0.2,0.3-0.4,0.5-0.6c0.2-0.1,0.5-0.3,0.7-0.3c0.2-0.1,0.5-0.1,0.9-0.2
				c0.8-0.1,1.4-0.2,1.8-0.4c0-0.1,0-0.2,0-0.3c0-0.4-0.1-0.7-0.3-0.9c-0.3-0.2-0.6-0.3-1.2-0.3c-0.5,0-0.8,0.1-1.1,0.3
				c-0.2,0.2-0.4,0.5-0.5,0.9l-1-0.1c0.1-0.4,0.2-0.8,0.4-1s0.5-0.5,0.9-0.6c0.4-0.1,0.8-0.2,1.4-0.2c0.5,0,0.9,0.1,1.3,0.2
				c0.3,0.1,0.6,0.3,0.7,0.5s0.3,0.4,0.3,0.7c0,0.2,0.1,0.5,0.1,0.9v1.4c0,1,0,1.6,0.1,1.8c0,0.3,0.1,0.5,0.3,0.7h-1.1
				C323.6,243.7,323.6,243.5,323.5,243.2z M323.5,240.9c-0.4,0.2-0.9,0.3-1.7,0.4c-0.4,0.1-0.7,0.1-0.9,0.2
				c-0.2,0.1-0.3,0.2-0.4,0.3s-0.1,0.3-0.1,0.5c0,0.3,0.1,0.5,0.3,0.7c0.2,0.2,0.5,0.3,0.9,0.3c0.4,0,0.7-0.1,1.1-0.3
				c0.3-0.2,0.5-0.4,0.7-0.7c0.1-0.2,0.2-0.6,0.2-1V240.9z"/>
			<path id="XMLID_9_" class="st1" d="M325.9,244.5l1,0.1c0,0.3,0.2,0.5,0.3,0.7c0.3,0.2,0.6,0.3,1,0.3c0.5,0,0.8-0.1,1.1-0.3
				s0.4-0.5,0.5-0.8c0.1-0.2,0.1-0.6,0.1-1.3c-0.4,0.5-1,0.8-1.7,0.8c-0.8,0-1.5-0.3-1.9-0.9c-0.5-0.6-0.7-1.3-0.7-2.2
				c0-0.6,0.1-1.1,0.3-1.6s0.5-0.9,0.9-1.1s0.9-0.4,1.4-0.4c0.7,0,1.3,0.3,1.8,0.9v-0.7h0.9v5.2c0,0.9-0.1,1.6-0.3,2
				c-0.2,0.4-0.5,0.7-0.9,0.9c-0.4,0.2-0.9,0.3-1.5,0.3c-0.7,0-1.3-0.2-1.7-0.5C326.1,245.6,325.9,245.1,325.9,244.5z M326.7,240.8
				c0,0.8,0.2,1.4,0.5,1.7c0.3,0.4,0.7,0.5,1.2,0.5c0.5,0,0.9-0.2,1.2-0.5c0.3-0.4,0.5-0.9,0.5-1.7c0-0.7-0.2-1.3-0.5-1.7
				c-0.3-0.4-0.7-0.6-1.2-0.6c-0.5,0-0.8,0.2-1.2,0.6C326.9,239.6,326.7,240.1,326.7,240.8z"/>
			<path id="XMLID_12_" class="st1" d="M332.5,244v-6h0.9v0.9c0.2-0.4,0.5-0.7,0.7-0.8c0.2-0.1,0.4-0.2,0.7-0.2c0.3,0,0.7,0.1,1,0.3
				l-0.4,0.9c-0.3-0.1-0.5-0.2-0.8-0.2c-0.2,0-0.4,0.1-0.6,0.2c-0.2,0.1-0.3,0.3-0.4,0.6c-0.1,0.4-0.2,0.8-0.2,1.2v3.2H332.5z"/>
			<path id="XMLID_14_" class="st1" d="M340.4,244v-0.9c-0.5,0.7-1.1,1-1.9,1c-0.4,0-0.7-0.1-1-0.2c-0.3-0.1-0.5-0.3-0.7-0.5
				s-0.3-0.5-0.3-0.8c0-0.2-0.1-0.5-0.1-1v-3.7h1v3.3c0,0.5,0,0.9,0.1,1.1c0.1,0.3,0.2,0.5,0.4,0.6c0.2,0.2,0.5,0.2,0.8,0.2
				s0.6-0.1,0.9-0.2s0.5-0.4,0.6-0.6c0.1-0.3,0.2-0.7,0.2-1.2v-3.2h1v6H340.4z"/>
			<path id="XMLID_21_" class="st1" d="M342.9,246.3v-8.3h0.9v0.8c0.2-0.3,0.5-0.5,0.7-0.7s0.6-0.2,1-0.2c0.5,0,1,0.1,1.4,0.4
				s0.7,0.6,0.9,1.1c0.2,0.5,0.3,1,0.3,1.6c0,0.6-0.1,1.2-0.3,1.7c-0.2,0.5-0.5,0.9-1,1.1c-0.4,0.3-0.9,0.4-1.3,0.4
				c-0.3,0-0.6-0.1-0.9-0.2c-0.3-0.1-0.5-0.3-0.7-0.5v2.9H342.9z M343.8,241c0,0.8,0.2,1.3,0.5,1.7c0.3,0.4,0.7,0.6,1.1,0.6
				c0.5,0,0.8-0.2,1.2-0.6c0.3-0.4,0.5-1,0.5-1.8c0-0.8-0.2-1.3-0.5-1.7c-0.3-0.4-0.7-0.6-1.1-0.6c-0.4,0-0.8,0.2-1.2,0.6
				C344,239.6,343.8,240.2,343.8,241z"/>
			<path id="XMLID_51_" class="st1" d="M353.3,243.2c-0.4,0.3-0.7,0.5-1.1,0.7c-0.4,0.1-0.7,0.2-1.1,0.2c-0.7,0-1.2-0.2-1.5-0.5
				c-0.4-0.3-0.5-0.7-0.5-1.2c0-0.3,0.1-0.6,0.2-0.8c0.1-0.2,0.3-0.4,0.5-0.6s0.5-0.3,0.7-0.3c0.2-0.1,0.5-0.1,0.9-0.2
				c0.8-0.1,1.4-0.2,1.8-0.4c0-0.1,0-0.2,0-0.3c0-0.4-0.1-0.7-0.3-0.9c-0.3-0.2-0.6-0.3-1.2-0.3c-0.5,0-0.8,0.1-1.1,0.3
				c-0.2,0.2-0.4,0.5-0.5,0.9l-1-0.1c0.1-0.4,0.2-0.8,0.4-1c0.2-0.3,0.5-0.5,0.9-0.6c0.4-0.1,0.8-0.2,1.4-0.2c0.5,0,0.9,0.1,1.3,0.2
				c0.3,0.1,0.6,0.3,0.7,0.5s0.3,0.4,0.3,0.7c0,0.2,0.1,0.5,0.1,0.9v1.4c0,1,0,1.6,0.1,1.8c0,0.3,0.1,0.5,0.3,0.7h-1.1
				C353.4,243.7,353.3,243.5,353.3,243.2z M353.2,240.9c-0.4,0.2-0.9,0.3-1.7,0.4c-0.4,0.1-0.7,0.1-0.9,0.2
				c-0.2,0.1-0.3,0.2-0.4,0.3s-0.1,0.3-0.1,0.5c0,0.3,0.1,0.5,0.3,0.7s0.5,0.3,0.9,0.3c0.4,0,0.7-0.1,1-0.3c0.3-0.2,0.5-0.4,0.7-0.7
				c0.1-0.2,0.2-0.6,0.2-1V240.9z"/>
			<path id="XMLID_54_" class="st1" d="M355.8,244v-6h0.9v0.9c0.2-0.4,0.5-0.7,0.7-0.8c0.2-0.1,0.4-0.2,0.7-0.2c0.3,0,0.7,0.1,1,0.3
				l-0.4,0.9c-0.3-0.1-0.5-0.2-0.8-0.2c-0.2,0-0.4,0.1-0.6,0.2c-0.2,0.1-0.3,0.3-0.4,0.6c-0.1,0.4-0.2,0.8-0.2,1.2v3.2H355.8z"/>
			<path id="XMLID_56_" class="st1" d="M361.6,246.4c-0.6-0.7-1-1.5-1.4-2.5c-0.4-1-0.6-1.9-0.6-3c0-0.9,0.1-1.8,0.4-2.6
				c0.3-1,0.9-1.9,1.6-2.9h0.7c-0.5,0.8-0.8,1.3-0.9,1.7c-0.2,0.5-0.4,1.1-0.5,1.6c-0.2,0.7-0.2,1.4-0.2,2.1c0,1.8,0.6,3.6,1.7,5.5
				H361.6z"/>
			<path id="XMLID_58_" class="st1" d="M364.2,246.4h-0.7c1.1-1.8,1.7-3.6,1.7-5.5c0-0.7-0.1-1.4-0.2-2.1c-0.1-0.6-0.3-1.1-0.5-1.6
				c-0.1-0.3-0.5-0.9-0.9-1.7h0.7c0.7,1,1.2,1.9,1.6,2.9c0.3,0.8,0.4,1.7,0.4,2.6c0,1-0.2,2-0.6,3
				C365.3,244.9,364.8,245.7,364.2,246.4z"/>
			<path id="XMLID_60_" class="st1" d="M315,254.2V252h-2.3v-1h2.3v-2.3h1v2.3h2.3v1h-2.3v2.3H315z"/>
			<path id="XMLID_62_" class="st1" d="M323.5,255.6v-0.8c-0.4,0.6-0.9,0.9-1.7,0.9c-0.5,0-0.9-0.1-1.3-0.4
				c-0.4-0.3-0.7-0.6-0.9-1.1c-0.2-0.5-0.3-1-0.3-1.6c0-0.6,0.1-1.1,0.3-1.6c0.2-0.5,0.5-0.9,0.9-1.1s0.8-0.4,1.3-0.4
				c0.4,0,0.7,0.1,1,0.2s0.5,0.4,0.7,0.6v-3h1v8.3H323.5z M320.3,252.6c0,0.8,0.2,1.3,0.5,1.7c0.3,0.4,0.7,0.6,1.2,0.6
				c0.4,0,0.8-0.2,1.1-0.5s0.5-0.9,0.5-1.7c0-0.8-0.2-1.4-0.5-1.8c-0.3-0.4-0.7-0.6-1.2-0.6c-0.5,0-0.8,0.2-1.1,0.6
				S320.3,251.8,320.3,252.6z"/>
			<path id="XMLID_65_" class="st1" d="M330.2,253.6l1.1,0.1c-0.2,0.6-0.5,1.1-0.9,1.4c-0.5,0.3-1,0.5-1.7,0.5
				c-0.9,0-1.6-0.3-2.1-0.8c-0.5-0.5-0.8-1.3-0.8-2.3c0-1,0.3-1.8,0.8-2.4c0.5-0.6,1.2-0.8,2-0.8c0.8,0,1.5,0.3,2,0.8
				s0.8,1.3,0.8,2.3c0,0.1,0,0.2,0,0.3h-4.5c0,0.7,0.2,1.2,0.6,1.5c0.3,0.4,0.8,0.5,1.3,0.5c0.4,0,0.7-0.1,1-0.3
				C329.8,254.4,330.1,254.1,330.2,253.6z M326.9,252h3.4c0-0.5-0.2-0.9-0.4-1.1c-0.3-0.4-0.7-0.6-1.3-0.6c-0.5,0-0.9,0.2-1.2,0.5
				S326.9,251.5,326.9,252z"/>
			<path id="XMLID_68_" class="st1" d="M332.1,253.8l1-0.2c0.1,0.4,0.2,0.7,0.5,0.9c0.3,0.2,0.6,0.3,1.1,0.3c0.5,0,0.8-0.1,1-0.3
				c0.2-0.2,0.3-0.4,0.3-0.7c0-0.2-0.1-0.4-0.3-0.5c-0.1-0.1-0.5-0.2-1-0.3c-0.7-0.2-1.3-0.4-1.6-0.5c-0.3-0.1-0.5-0.3-0.7-0.6
				c-0.2-0.2-0.2-0.5-0.2-0.8c0-0.3,0.1-0.5,0.2-0.7c0.1-0.2,0.3-0.4,0.5-0.6c0.2-0.1,0.4-0.2,0.7-0.3s0.6-0.1,0.9-0.1
				c0.5,0,0.9,0.1,1.2,0.2c0.4,0.1,0.6,0.3,0.8,0.6c0.2,0.2,0.3,0.5,0.4,0.9l-1,0.1c0-0.3-0.2-0.6-0.4-0.7s-0.5-0.3-0.9-0.3
				c-0.5,0-0.8,0.1-1,0.2c-0.2,0.2-0.3,0.3-0.3,0.5c0,0.1,0,0.3,0.1,0.4c0.1,0.1,0.2,0.2,0.4,0.3c0.1,0,0.4,0.1,0.9,0.3
				c0.7,0.2,1.2,0.4,1.5,0.5c0.3,0.1,0.5,0.3,0.7,0.5c0.2,0.2,0.2,0.5,0.2,0.9c0,0.3-0.1,0.7-0.3,1c-0.2,0.3-0.5,0.5-0.9,0.7
				c-0.4,0.2-0.8,0.2-1.3,0.2c-0.8,0-1.4-0.2-1.8-0.5C332.5,254.9,332.3,254.4,332.1,253.8z"/>
			<path id="XMLID_70_" class="st1" d="M342.3,253.4l1,0.1c-0.1,0.7-0.4,1.2-0.8,1.6c-0.5,0.4-1,0.6-1.7,0.6c-0.8,0-1.5-0.3-2-0.8
				c-0.5-0.5-0.8-1.3-0.8-2.3c0-0.7,0.1-1.2,0.3-1.7s0.5-0.9,1-1.1s0.9-0.4,1.4-0.4c0.7,0,1.2,0.2,1.6,0.5c0.4,0.3,0.7,0.8,0.8,1.4
				l-1,0.2c-0.1-0.4-0.3-0.7-0.5-0.9c-0.2-0.2-0.5-0.3-0.9-0.3c-0.5,0-0.9,0.2-1.3,0.6c-0.3,0.4-0.5,1-0.5,1.8
				c0,0.8,0.2,1.4,0.5,1.8s0.7,0.6,1.2,0.6c0.4,0,0.7-0.1,1-0.4C342.1,254.3,342.2,253.9,342.3,253.4z"/>
			<path id="XMLID_73_" class="st1" d="M348.1,254.8c-0.4,0.3-0.7,0.5-1.1,0.7c-0.3,0.1-0.7,0.2-1.1,0.2c-0.7,0-1.2-0.2-1.5-0.5
				c-0.4-0.3-0.5-0.7-0.5-1.2c0-0.3,0.1-0.6,0.2-0.8c0.1-0.2,0.3-0.4,0.5-0.6c0.2-0.1,0.5-0.3,0.7-0.3c0.2-0.1,0.5-0.1,0.9-0.2
				c0.8-0.1,1.4-0.2,1.8-0.4c0-0.1,0-0.2,0-0.3c0-0.4-0.1-0.7-0.3-0.9c-0.3-0.2-0.6-0.3-1.2-0.3c-0.5,0-0.8,0.1-1.1,0.3
				c-0.2,0.2-0.4,0.5-0.5,0.9l-1-0.1c0.1-0.4,0.2-0.8,0.4-1s0.5-0.5,0.9-0.6c0.4-0.1,0.8-0.2,1.4-0.2c0.5,0,0.9,0.1,1.3,0.2
				c0.3,0.1,0.6,0.3,0.7,0.5s0.3,0.4,0.3,0.7c0,0.2,0.1,0.5,0.1,0.9v1.4c0,1,0,1.6,0.1,1.8c0,0.3,0.1,0.5,0.3,0.7h-1.1
				C348.2,255.4,348.1,255.1,348.1,254.8z M348,252.6c-0.4,0.2-0.9,0.3-1.7,0.4c-0.4,0.1-0.7,0.1-0.9,0.2c-0.2,0.1-0.3,0.2-0.4,0.3
				s-0.1,0.3-0.1,0.5c0,0.3,0.1,0.5,0.3,0.7c0.2,0.2,0.5,0.3,0.9,0.3c0.4,0,0.7-0.1,1.1-0.3c0.3-0.2,0.5-0.4,0.7-0.7
				c0.1-0.2,0.2-0.6,0.2-1V252.6z"/>
			<path id="XMLID_78_" class="st1" d="M350.6,255.6v-6h0.9v0.9c0.4-0.7,1.1-1,1.9-1c0.4,0,0.7,0.1,1,0.2c0.3,0.1,0.5,0.3,0.7,0.5
				c0.2,0.2,0.3,0.5,0.3,0.8c0,0.2,0.1,0.5,0.1,1v3.7h-1v-3.7c0-0.4,0-0.7-0.1-0.9c-0.1-0.2-0.2-0.4-0.4-0.5
				c-0.2-0.1-0.4-0.2-0.7-0.2c-0.4,0-0.8,0.1-1.1,0.4c-0.3,0.3-0.5,0.8-0.5,1.6v3.3H350.6z"/>
			<path id="XMLID_80_" class="st1" d="M356.7,253.8l1-0.2c0.1,0.4,0.2,0.7,0.5,0.9c0.3,0.2,0.6,0.3,1.1,0.3c0.5,0,0.8-0.1,1-0.3
				c0.2-0.2,0.3-0.4,0.3-0.7c0-0.2-0.1-0.4-0.3-0.5c-0.1-0.1-0.5-0.2-1-0.3c-0.7-0.2-1.3-0.4-1.6-0.5c-0.3-0.1-0.5-0.3-0.7-0.6
				c-0.2-0.2-0.2-0.5-0.2-0.8c0-0.3,0.1-0.5,0.2-0.7c0.1-0.2,0.3-0.4,0.5-0.6c0.2-0.1,0.4-0.2,0.7-0.3s0.6-0.1,0.9-0.1
				c0.5,0,0.9,0.1,1.2,0.2c0.4,0.1,0.6,0.3,0.8,0.6c0.2,0.2,0.3,0.5,0.4,0.9l-1,0.1c0-0.3-0.2-0.6-0.4-0.7s-0.5-0.3-0.9-0.3
				c-0.5,0-0.8,0.1-1,0.2c-0.2,0.2-0.3,0.3-0.3,0.5c0,0.1,0,0.3,0.1,0.4c0.1,0.1,0.2,0.2,0.4,0.3c0.1,0,0.4,0.1,0.9,0.3
				c0.7,0.2,1.2,0.4,1.5,0.5c0.3,0.1,0.5,0.3,0.7,0.5c0.2,0.2,0.2,0.5,0.2,0.9c0,0.3-0.1,0.7-0.3,1c-0.2,0.3-0.5,0.5-0.9,0.7
				c-0.4,0.2-0.8,0.2-1.3,0.2c-0.8,0-1.4-0.2-1.8-0.5C357.1,254.9,356.8,254.4,356.7,253.8z"/>
			<path id="XMLID_82_" class="st1" d="M366.9,254.8c-0.4,0.3-0.7,0.5-1.1,0.7c-0.4,0.1-0.7,0.2-1.1,0.2c-0.7,0-1.2-0.2-1.5-0.5
				c-0.4-0.3-0.5-0.7-0.5-1.2c0-0.3,0.1-0.6,0.2-0.8c0.1-0.2,0.3-0.4,0.5-0.6s0.5-0.3,0.7-0.3c0.2-0.1,0.5-0.1,0.9-0.2
				c0.8-0.1,1.4-0.2,1.8-0.4c0-0.1,0-0.2,0-0.3c0-0.4-0.1-0.7-0.3-0.9c-0.3-0.2-0.6-0.3-1.2-0.3c-0.5,0-0.8,0.1-1.1,0.3
				c-0.2,0.2-0.4,0.5-0.5,0.9l-1-0.1c0.1-0.4,0.2-0.8,0.4-1c0.2-0.3,0.5-0.5,0.9-0.6c0.4-0.1,0.8-0.2,1.4-0.2c0.5,0,0.9,0.1,1.3,0.2
				c0.3,0.1,0.6,0.3,0.7,0.5s0.3,0.4,0.3,0.7c0,0.2,0.1,0.5,0.1,0.9v1.4c0,1,0,1.6,0.1,1.8c0,0.3,0.1,0.5,0.3,0.7h-1.1
				C367,255.4,366.9,255.1,366.9,254.8z M366.8,252.6c-0.4,0.2-0.9,0.3-1.7,0.4c-0.4,0.1-0.7,0.1-0.9,0.2c-0.2,0.1-0.3,0.2-0.4,0.3
				s-0.1,0.3-0.1,0.5c0,0.3,0.1,0.5,0.3,0.7s0.5,0.3,0.9,0.3c0.4,0,0.7-0.1,1-0.3c0.3-0.2,0.5-0.4,0.7-0.7c0.1-0.2,0.2-0.6,0.2-1
				V252.6z"/>
			<path id="XMLID_85_" class="st1" d="M369.4,255.6v-6h0.9v0.9c0.2-0.4,0.5-0.7,0.7-0.8c0.2-0.1,0.4-0.2,0.7-0.2
				c0.3,0,0.7,0.1,1,0.3l-0.4,0.9c-0.3-0.1-0.5-0.2-0.8-0.2c-0.2,0-0.4,0.1-0.6,0.2c-0.2,0.1-0.3,0.3-0.4,0.6
				c-0.1,0.4-0.2,0.8-0.2,1.2v3.2H369.4z"/>
			<path id="XMLID_87_" class="st1" d="M375.2,258c-0.6-0.7-1-1.5-1.4-2.5c-0.4-1-0.6-1.9-0.6-3c0-0.9,0.1-1.8,0.4-2.6
				c0.3-1,0.9-1.9,1.6-2.9h0.7c-0.5,0.8-0.8,1.3-0.9,1.7c-0.2,0.5-0.4,1.1-0.5,1.6c-0.2,0.7-0.2,1.4-0.2,2.1c0,1.8,0.6,3.6,1.7,5.5
				H375.2z"/>
			<path id="XMLID_89_" class="st1" d="M377.8,258h-0.7c1.1-1.8,1.7-3.6,1.7-5.5c0-0.7-0.1-1.4-0.2-2.1c-0.1-0.6-0.3-1.1-0.5-1.6
				c-0.1-0.3-0.5-0.9-0.9-1.7h0.7c0.7,1,1.2,1.9,1.6,2.9c0.3,0.8,0.4,1.7,0.4,2.6c0,1-0.2,2-0.6,3
				C378.8,256.5,378.4,257.3,377.8,258z"/>
		</g>
		<line id="XMLID_10210_" class="st2" x1="305.5" y1="196.4" x2="425.5" y2="196.4"/>
		<line id="XMLID_10209_" class="st2" x1="305.5" y1="230.1" x2="425.5" y2="230.1"/>
	</g>
	<polyline id="XMLID_10032_" class="st3" points="62.6,177.1 62.6,158.3 365.7,158.3 365.7,177.1 	"/>
	<g id="XMLID_10033_">
		<g id="XMLID_17_">
			<line id="XMLID_20_" class="st3" x1="216.1" y1="175.1" x2="216.1" y2="145.5"/>
			<g id="XMLID_18_">
				<polygon id="XMLID_19_" class="st1" points="216.1,136.7 221.2,149.1 216.1,146.1 211,149.1 				"/>
			</g>
		</g>
	</g>
</g>
</svg>
