<?xml version="1.0" encoding="utf-8"?>
<!-- Generator: Adobe Illustrator 19.0.0, SVG Export Plug-In . SVG Version: 6.00 Build 0)  -->
<svg version="1.1" id="Capa_1" xmlns="http://www.w3.org/2000/svg" xmlns:xlink="http://www.w3.org/1999/xlink" x="0px" y="0px"
	 viewBox="0 0 299 191.3" style="enable-background:new 0 0 299 191.3;" xml:space="preserve">
<style type="text/css">
	.st0{fill:#F9D523;}
	.st1{fill:#252527;}
	.st2{fill:none;stroke:#252527;stroke-width:2;stroke-miterlimit:10;}
	.st3{fill:#F9D523;stroke:#252527;stroke-width:2;stroke-miterlimit:10;}
	.st4{fill:#FFFFFF;}
</style>
<g id="XMLID_19_">
	<g id="XMLID_15175_">
		<g id="XMLID_15389_">
			<rect id="XMLID_97_" x="88.3" y="1.3" class="st0" width="122.5" height="75.3"/>
			<g id="XMLID_40_">
				<path id="XMLID_56_" class="st1" d="M209.5,2.5v72.8h-120V2.5H209.5 M212,0h-2.5h-120H87v2.5v72.8v2.5h2.5h120h2.5v-2.5V2.5V0
					L212,0z"/>
			</g>
		</g>
		<g id="XMLID_67_">
			<path id="XMLID_68_" class="st1" d="M118.9,18.2V9.9h3.7c0.7,0,1.3,0.1,1.7,0.2s0.7,0.4,0.9,0.8c0.2,0.4,0.3,0.8,0.3,1.3
				c0,0.6-0.2,1.1-0.6,1.5c-0.4,0.4-1,0.7-1.8,0.8c0.3,0.1,0.5,0.3,0.7,0.4c0.3,0.3,0.6,0.7,0.9,1.1l1.4,2.3h-1.4l-1.1-1.7
				c-0.3-0.5-0.6-0.9-0.8-1.1c-0.2-0.3-0.4-0.5-0.6-0.6c-0.2-0.1-0.3-0.2-0.5-0.2c-0.1,0-0.3,0-0.6,0H120v3.7H118.9z M120,13.5h2.4
				c0.5,0,0.9-0.1,1.2-0.2c0.3-0.1,0.5-0.3,0.6-0.5c0.1-0.2,0.2-0.5,0.2-0.7c0-0.4-0.1-0.7-0.4-1s-0.7-0.4-1.4-0.4H120V13.5z"/>
			<path id="XMLID_71_" class="st1" d="M131.3,16.2l1.1,0.1c-0.2,0.6-0.5,1.1-0.9,1.4s-1,0.5-1.7,0.5c-0.9,0-1.6-0.3-2.1-0.8
				c-0.5-0.5-0.8-1.3-0.8-2.3c0-1,0.3-1.8,0.8-2.4c0.5-0.6,1.2-0.8,2-0.8c0.8,0,1.5,0.3,2,0.8c0.5,0.5,0.8,1.3,0.8,2.3
				c0,0.1,0,0.2,0,0.3h-4.5c0,0.7,0.2,1.2,0.6,1.5c0.3,0.4,0.8,0.5,1.3,0.5c0.4,0,0.7-0.1,1-0.3C130.9,17,131.1,16.7,131.3,16.2z
				 M127.9,14.6h3.4c0-0.5-0.2-0.9-0.4-1.1c-0.3-0.4-0.7-0.6-1.3-0.6c-0.5,0-0.9,0.2-1.2,0.5C128.1,13.6,127.9,14.1,127.9,14.6z"/>
			<path id="XMLID_74_" class="st1" d="M133.2,16.4l1-0.2c0.1,0.4,0.2,0.7,0.5,0.9s0.6,0.3,1.1,0.3c0.5,0,0.8-0.1,1-0.3
				c0.2-0.2,0.3-0.4,0.3-0.7c0-0.2-0.1-0.4-0.3-0.5c-0.1-0.1-0.5-0.2-1-0.3c-0.7-0.2-1.3-0.4-1.6-0.5c-0.3-0.1-0.5-0.3-0.7-0.6
				c-0.1-0.2-0.2-0.5-0.2-0.8c0-0.3,0.1-0.5,0.2-0.7c0.1-0.2,0.3-0.4,0.5-0.6c0.2-0.1,0.4-0.2,0.7-0.3s0.6-0.1,0.9-0.1
				c0.5,0,0.9,0.1,1.2,0.2c0.4,0.1,0.6,0.3,0.8,0.6s0.3,0.5,0.4,0.9l-1,0.1c0-0.3-0.2-0.6-0.4-0.7s-0.5-0.3-0.9-0.3
				c-0.5,0-0.8,0.1-1,0.2s-0.3,0.3-0.3,0.5c0,0.1,0,0.3,0.1,0.4c0.1,0.1,0.2,0.2,0.4,0.3c0.1,0,0.4,0.1,0.9,0.3
				c0.7,0.2,1.2,0.4,1.5,0.5c0.3,0.1,0.5,0.3,0.7,0.5c0.2,0.2,0.2,0.5,0.2,0.9c0,0.3-0.1,0.7-0.3,1c-0.2,0.3-0.5,0.5-0.9,0.7
				c-0.4,0.2-0.8,0.2-1.3,0.2c-0.8,0-1.4-0.2-1.8-0.5C133.6,17.5,133.3,17,133.2,16.4z"/>
			<path id="XMLID_76_" class="st1" d="M141.7,17.3l0.1,0.9c-0.3,0.1-0.5,0.1-0.8,0.1c-0.4,0-0.7-0.1-0.9-0.2
				c-0.2-0.1-0.3-0.3-0.4-0.5c-0.1-0.2-0.1-0.6-0.1-1.2v-3.5h-0.7v-0.8h0.7v-1.5l1-0.6v2.1h1v0.8h-1v3.5c0,0.3,0,0.5,0.1,0.6
				c0,0.1,0.1,0.1,0.2,0.2s0.2,0.1,0.3,0.1C141.3,17.3,141.5,17.3,141.7,17.3z"/>
			<path id="XMLID_78_" class="st1" d="M146.6,17.4c-0.4,0.3-0.7,0.5-1.1,0.7s-0.7,0.2-1.1,0.2c-0.7,0-1.2-0.2-1.5-0.5
				c-0.4-0.3-0.5-0.7-0.5-1.2c0-0.3,0.1-0.6,0.2-0.8s0.3-0.4,0.5-0.6c0.2-0.1,0.5-0.3,0.7-0.3c0.2-0.1,0.5-0.1,0.9-0.2
				c0.8-0.1,1.4-0.2,1.8-0.4c0-0.1,0-0.2,0-0.3c0-0.4-0.1-0.7-0.3-0.9c-0.3-0.2-0.6-0.3-1.2-0.3c-0.5,0-0.8,0.1-1.1,0.3
				c-0.2,0.2-0.4,0.5-0.5,0.9l-1-0.1c0.1-0.4,0.2-0.8,0.4-1c0.2-0.3,0.5-0.5,0.9-0.6c0.4-0.1,0.8-0.2,1.4-0.2c0.5,0,0.9,0.1,1.3,0.2
				s0.6,0.3,0.7,0.5s0.3,0.4,0.3,0.7c0,0.2,0.1,0.5,0.1,0.9v1.4c0,1,0,1.6,0.1,1.8s0.1,0.5,0.3,0.7h-1.1
				C146.7,18,146.6,17.7,146.6,17.4z M146.5,15.2c-0.4,0.2-0.9,0.3-1.7,0.4c-0.4,0.1-0.7,0.1-0.9,0.2c-0.2,0.1-0.3,0.2-0.4,0.3
				s-0.1,0.3-0.1,0.5c0,0.3,0.1,0.5,0.3,0.7c0.2,0.2,0.5,0.3,0.9,0.3c0.4,0,0.7-0.1,1.1-0.3c0.3-0.2,0.5-0.4,0.7-0.7
				c0.1-0.2,0.2-0.6,0.2-1V15.2z"/>
			<path id="XMLID_82_" class="st1" d="M153.1,18.2v-0.9c-0.5,0.7-1.1,1-1.9,1c-0.4,0-0.7-0.1-1-0.2c-0.3-0.1-0.5-0.3-0.7-0.5
				c-0.1-0.2-0.3-0.5-0.3-0.8c0-0.2-0.1-0.5-0.1-1v-3.7h1v3.3c0,0.5,0,0.9,0.1,1.1c0.1,0.3,0.2,0.5,0.4,0.6c0.2,0.2,0.5,0.2,0.8,0.2
				s0.6-0.1,0.9-0.2c0.3-0.2,0.5-0.4,0.6-0.6s0.2-0.7,0.2-1.2v-3.2h1v6H153.1z"/>
			<path id="XMLID_84_" class="st1" d="M155.6,18.2v-6h0.9v0.9c0.2-0.4,0.5-0.7,0.7-0.8c0.2-0.1,0.4-0.2,0.7-0.2
				c0.3,0,0.7,0.1,1,0.3l-0.4,0.9c-0.2-0.1-0.5-0.2-0.7-0.2c-0.2,0-0.4,0.1-0.6,0.2c-0.2,0.1-0.3,0.3-0.4,0.6
				c-0.1,0.4-0.2,0.8-0.2,1.2v3.2H155.6z"/>
			<path id="XMLID_86_" class="st1" d="M163.4,17.4c-0.4,0.3-0.7,0.5-1.1,0.7s-0.7,0.2-1.1,0.2c-0.7,0-1.2-0.2-1.5-0.5
				c-0.4-0.3-0.5-0.7-0.5-1.2c0-0.3,0.1-0.6,0.2-0.8c0.1-0.2,0.3-0.4,0.5-0.6c0.2-0.1,0.5-0.3,0.7-0.3c0.2-0.1,0.5-0.1,0.9-0.2
				c0.8-0.1,1.4-0.2,1.8-0.4c0-0.1,0-0.2,0-0.3c0-0.4-0.1-0.7-0.3-0.9c-0.3-0.2-0.6-0.3-1.2-0.3c-0.5,0-0.8,0.1-1.1,0.3
				c-0.2,0.2-0.4,0.5-0.5,0.9l-1-0.1c0.1-0.4,0.2-0.8,0.4-1c0.2-0.3,0.5-0.5,0.9-0.6c0.4-0.1,0.8-0.2,1.4-0.2c0.5,0,0.9,0.1,1.3,0.2
				c0.3,0.1,0.6,0.3,0.7,0.5s0.3,0.4,0.3,0.7c0,0.2,0.1,0.5,0.1,0.9v1.4c0,1,0,1.6,0.1,1.8s0.1,0.5,0.3,0.7h-1.1
				C163.5,18,163.4,17.7,163.4,17.4z M163.3,15.2c-0.4,0.2-0.9,0.3-1.7,0.4c-0.4,0.1-0.7,0.1-0.9,0.2c-0.2,0.1-0.3,0.2-0.4,0.3
				s-0.1,0.3-0.1,0.5c0,0.3,0.1,0.5,0.3,0.7c0.2,0.2,0.5,0.3,0.9,0.3c0.4,0,0.7-0.1,1-0.3c0.3-0.2,0.5-0.4,0.7-0.7
				c0.1-0.2,0.2-0.6,0.2-1V15.2z"/>
			<path id="XMLID_89_" class="st1" d="M165.9,18.2v-6h0.9V13c0.4-0.7,1.1-1,1.9-1c0.4,0,0.7,0.1,1,0.2c0.3,0.1,0.5,0.3,0.7,0.5
				c0.2,0.2,0.3,0.5,0.3,0.8c0,0.2,0.1,0.5,0.1,1v3.7h-1v-3.7c0-0.4,0-0.7-0.1-0.9c-0.1-0.2-0.2-0.4-0.4-0.5s-0.4-0.2-0.7-0.2
				c-0.4,0-0.8,0.1-1.1,0.4c-0.3,0.3-0.5,0.8-0.5,1.6v3.3H165.9z"/>
			<path id="XMLID_91_" class="st1" d="M174.6,17.3l0.1,0.9c-0.3,0.1-0.5,0.1-0.8,0.1c-0.4,0-0.7-0.1-0.9-0.2
				c-0.2-0.1-0.3-0.3-0.4-0.5c-0.1-0.2-0.1-0.6-0.1-1.2v-3.5h-0.8v-0.8h0.8v-1.5l1-0.6v2.1h1v0.8h-1v3.5c0,0.3,0,0.5,0.1,0.6
				c0,0.1,0.1,0.1,0.2,0.2s0.2,0.1,0.3,0.1C174.3,17.3,174.4,17.3,174.6,17.3z"/>
			<path id="XMLID_93_" class="st1" d="M179.7,16.2l1.1,0.1c-0.2,0.6-0.5,1.1-0.9,1.4c-0.5,0.3-1,0.5-1.7,0.5
				c-0.9,0-1.6-0.3-2.1-0.8c-0.5-0.5-0.8-1.3-0.8-2.3c0-1,0.3-1.8,0.8-2.4c0.5-0.6,1.2-0.8,2-0.8c0.8,0,1.5,0.3,2,0.8
				c0.5,0.5,0.8,1.3,0.8,2.3c0,0.1,0,0.2,0,0.3h-4.5c0,0.7,0.2,1.2,0.6,1.5c0.3,0.4,0.8,0.5,1.3,0.5c0.4,0,0.7-0.1,1-0.3
				C179.4,17,179.6,16.7,179.7,16.2z M176.4,14.6h3.4c0-0.5-0.2-0.9-0.4-1.1c-0.3-0.4-0.7-0.6-1.3-0.6c-0.5,0-0.9,0.2-1.2,0.5
				S176.4,14.1,176.4,14.6z"/>
		</g>
		<line id="XMLID_15177_" class="st2" x1="89.5" y1="27" x2="209.5" y2="27"/>
		<line id="XMLID_15176_" class="st2" x1="89.5" y1="51.4" x2="209.5" y2="51.4"/>
	</g>
	<g id="XMLID_7710_">
		<g id="XMLID_15831_">
			<polygon id="XMLID_15830_" class="st1" points="121.8,89.5 108.2,92.6 113.6,79.8 127.2,76.7 			"/>
			<line id="XMLID_15811_" class="st3" x1="110.1" y1="91.1" x2="63.8" y2="129.9"/>
		</g>
		<g id="XMLID_15803_">
			<g id="XMLID_15810_">
				<polygon id="XMLID_28_" class="st4" points="177.9,88.7 173.5,78.1 184.6,80.7 189.1,91.2 				"/>
				<path id="XMLID_25_" class="st1" d="M175.2,79.5l8.8,2l3.5,8.3l-8.8-2L175.2,79.5 M171.8,76.7l5.4,12.8l13.6,3.1l-5.4-12.8
					L171.8,76.7L171.8,76.7z"/>
			</g>
			<line id="XMLID_15802_" class="st3" x1="188.9" y1="91.1" x2="235.2" y2="129.9"/>
		</g>
	</g>
	<g id="XMLID_15178_">
		<g id="XMLID_15179_">
			<g id="XMLID_15492_">
				<rect id="XMLID_103_" x="1.3" y="114.7" class="st0" width="122.5" height="75.3"/>
				<g id="XMLID_99_">
					<path id="XMLID_100_" class="st1" d="M122.5,116v72.8H2.5V116H122.5 M125,113.5h-2.5H2.5H0v2.5v72.8v2.5h2.5h120h2.5v-2.5V116
						V113.5L125,113.5z"/>
				</g>
			</g>
			<g id="XMLID_45_">
				<path id="XMLID_46_" class="st1" d="M42.5,131.6v-8.3h3.1c0.6,0,1,0,1.3,0.1c0.4,0.1,0.8,0.2,1,0.4c0.3,0.2,0.5,0.5,0.7,0.8
					c0.2,0.3,0.3,0.7,0.3,1.1c0,0.7-0.2,1.3-0.7,1.8c-0.5,0.5-1.3,0.7-2.4,0.7h-2.1v3.4H42.5z M43.6,127.3h2.2
					c0.7,0,1.2-0.1,1.5-0.4c0.3-0.3,0.4-0.6,0.4-1.1c0-0.3-0.1-0.6-0.3-0.9s-0.4-0.4-0.7-0.5c-0.2,0-0.5-0.1-1-0.1h-2.1V127.3z"/>
				<path id="XMLID_49_" class="st1" d="M54.3,129.7l1.1,0.1c-0.2,0.6-0.5,1.1-0.9,1.4c-0.5,0.3-1,0.5-1.7,0.5
					c-0.9,0-1.6-0.3-2.1-0.8c-0.5-0.5-0.8-1.3-0.8-2.3c0-1,0.3-1.8,0.8-2.4s1.2-0.8,2-0.8c0.8,0,1.5,0.3,2,0.8s0.8,1.3,0.8,2.3
					c0,0.1,0,0.2,0,0.3h-4.5c0,0.7,0.2,1.2,0.6,1.5s0.8,0.5,1.3,0.5c0.4,0,0.7-0.1,1-0.3S54.1,130.1,54.3,129.7z M50.9,128h3.4
					c0-0.5-0.2-0.9-0.4-1.1c-0.3-0.4-0.7-0.6-1.3-0.6c-0.5,0-0.9,0.2-1.2,0.5S51,127.5,50.9,128z"/>
				<path id="XMLID_52_" class="st1" d="M60.5,131.6v-0.8c-0.4,0.6-0.9,0.9-1.7,0.9c-0.5,0-0.9-0.1-1.3-0.4s-0.7-0.6-0.9-1.1
					c-0.2-0.5-0.3-1-0.3-1.6c0-0.6,0.1-1.1,0.3-1.6c0.2-0.5,0.5-0.9,0.9-1.1c0.4-0.3,0.8-0.4,1.3-0.4c0.4,0,0.7,0.1,1,0.2
					c0.3,0.2,0.5,0.4,0.7,0.6v-3h1v8.3H60.5z M57.3,128.6c0,0.8,0.2,1.3,0.5,1.7c0.3,0.4,0.7,0.6,1.2,0.6c0.4,0,0.8-0.2,1.1-0.5
					s0.5-0.9,0.5-1.7c0-0.8-0.2-1.4-0.5-1.8c-0.3-0.4-0.7-0.6-1.2-0.6c-0.5,0-0.8,0.2-1.1,0.6S57.3,127.8,57.3,128.6z"/>
				<path id="XMLID_55_" class="st1" d="M63.1,124.5v-1.2h1v1.2H63.1z M63.1,131.6v-6h1v6H63.1z"/>
				<path id="XMLID_59_" class="st1" d="M69.6,131.6v-0.8c-0.4,0.6-0.9,0.9-1.7,0.9c-0.5,0-0.9-0.1-1.3-0.4s-0.7-0.6-0.9-1.1
					c-0.2-0.5-0.3-1-0.3-1.6c0-0.6,0.1-1.1,0.3-1.6c0.2-0.5,0.5-0.9,0.9-1.1c0.4-0.3,0.8-0.4,1.3-0.4c0.4,0,0.7,0.1,1,0.2
					c0.3,0.2,0.5,0.4,0.7,0.6v-3h1v8.3H69.6z M66.4,128.6c0,0.8,0.2,1.3,0.5,1.7c0.3,0.4,0.7,0.6,1.2,0.6c0.4,0,0.8-0.2,1.1-0.5
					s0.5-0.9,0.5-1.7c0-0.8-0.2-1.4-0.5-1.8c-0.3-0.4-0.7-0.6-1.2-0.6c-0.5,0-0.8,0.2-1.1,0.6S66.4,127.8,66.4,128.6z"/>
				<path id="XMLID_62_" class="st1" d="M71.8,128.6c0-1.1,0.3-1.9,0.9-2.5c0.5-0.4,1.2-0.7,1.9-0.7c0.8,0,1.5,0.3,2,0.8
					s0.8,1.3,0.8,2.3c0,0.8-0.1,1.4-0.3,1.8c-0.2,0.4-0.6,0.8-1,1c-0.4,0.2-0.9,0.4-1.5,0.4c-0.8,0-1.5-0.3-2-0.8
					C72,130.4,71.8,129.6,71.8,128.6z M72.8,128.6c0,0.8,0.2,1.4,0.5,1.7c0.3,0.4,0.8,0.6,1.3,0.6c0.5,0,0.9-0.2,1.3-0.6
					c0.3-0.4,0.5-1,0.5-1.8c0-0.7-0.2-1.3-0.5-1.7s-0.8-0.6-1.3-0.6c-0.5,0-0.9,0.2-1.3,0.6C73,127.3,72.8,127.8,72.8,128.6z"/>
				<path id="XMLID_65_" class="st1" d="M78.2,129.8l1-0.2c0.1,0.4,0.2,0.7,0.5,0.9c0.3,0.2,0.6,0.3,1.1,0.3c0.5,0,0.8-0.1,1-0.3
					c0.2-0.2,0.3-0.4,0.3-0.7c0-0.2-0.1-0.4-0.3-0.5c-0.1-0.1-0.5-0.2-1-0.3c-0.7-0.2-1.3-0.4-1.6-0.5c-0.3-0.1-0.5-0.3-0.7-0.6
					c-0.2-0.2-0.2-0.5-0.2-0.8c0-0.3,0.1-0.5,0.2-0.7s0.3-0.4,0.5-0.6c0.2-0.1,0.4-0.2,0.7-0.3c0.3-0.1,0.6-0.1,0.9-0.1
					c0.5,0,0.9,0.1,1.2,0.2c0.4,0.1,0.6,0.3,0.8,0.6c0.2,0.2,0.3,0.5,0.4,0.9l-1,0.1c0-0.3-0.2-0.6-0.4-0.7s-0.5-0.3-0.9-0.3
					c-0.5,0-0.8,0.1-1,0.2c-0.2,0.2-0.3,0.3-0.3,0.5c0,0.1,0,0.3,0.1,0.4c0.1,0.1,0.2,0.2,0.4,0.3c0.1,0,0.4,0.1,0.9,0.3
					c0.7,0.2,1.2,0.3,1.5,0.5c0.3,0.1,0.5,0.3,0.7,0.5c0.2,0.2,0.2,0.5,0.2,0.9c0,0.3-0.1,0.7-0.3,1c-0.2,0.3-0.5,0.5-0.9,0.7
					c-0.4,0.2-0.8,0.2-1.3,0.2c-0.8,0-1.4-0.2-1.8-0.5C78.6,131,78.3,130.5,78.2,129.8z"/>
			</g>
			<line id="XMLID_15361_" class="st2" x1="2.5" y1="140.4" x2="122.5" y2="140.4"/>
			<line id="XMLID_15360_" class="st2" x1="2.5" y1="164.9" x2="122.5" y2="164.9"/>
		</g>
		<g id="XMLID_15549_">
			<g id="XMLID_15619_">
				<rect id="XMLID_109_" x="175.2" y="114.7" class="st0" width="122.5" height="75.3"/>
				<g id="XMLID_105_">
					<path id="XMLID_106_" class="st1" d="M296.5,116v72.8h-120V116H296.5 M299,113.5h-2.5h-120H174v2.5v72.8v2.5h2.5h120h2.5v-2.5
						V116V113.5L299,113.5z"/>
				</g>
			</g>
			<g id="XMLID_1_">
				<path id="XMLID_2_" class="st1" d="M222.5,128.7l1.1,0.3c-0.2,0.9-0.6,1.6-1.2,2.1c-0.6,0.5-1.3,0.7-2.2,0.7
					c-0.9,0-1.6-0.2-2.2-0.5c-0.6-0.4-1-0.9-1.3-1.6c-0.3-0.7-0.4-1.4-0.4-2.2c0-0.9,0.2-1.6,0.5-2.3c0.3-0.6,0.8-1.1,1.4-1.5
					c0.6-0.3,1.3-0.5,2-0.5c0.8,0,1.5,0.2,2.1,0.6c0.6,0.4,1,1,1.2,1.8l-1.1,0.3c-0.2-0.6-0.5-1-0.8-1.3c-0.4-0.3-0.8-0.4-1.4-0.4
					c-0.6,0-1.2,0.2-1.6,0.5s-0.7,0.7-0.9,1.2c-0.2,0.5-0.3,1-0.3,1.6c0,0.7,0.1,1.3,0.3,1.9c0.2,0.5,0.5,0.9,1,1.2
					c0.4,0.3,0.9,0.4,1.4,0.4c0.6,0,1.1-0.2,1.6-0.5C222,129.9,222.3,129.4,222.5,128.7z"/>
				<path id="XMLID_4_" class="st1" d="M224.8,131.6v-8.3h1v8.3H224.8z"/>
				<path id="XMLID_6_" class="st1" d="M227.4,124.5v-1.2h1v1.2H227.4z M227.4,131.6v-6h1v6H227.4z"/>
				<path id="XMLID_10_" class="st1" d="M234.1,129.7l1.1,0.1c-0.2,0.6-0.5,1.1-0.9,1.4c-0.5,0.3-1,0.5-1.7,0.5
					c-0.9,0-1.6-0.3-2.1-0.8c-0.5-0.5-0.8-1.3-0.8-2.3c0-1,0.3-1.8,0.8-2.4s1.2-0.8,2-0.8c0.8,0,1.5,0.3,2,0.8s0.8,1.3,0.8,2.3
					c0,0.1,0,0.2,0,0.3h-4.5c0,0.7,0.2,1.2,0.6,1.5s0.8,0.5,1.3,0.5c0.4,0,0.7-0.1,1-0.3S233.9,130.1,234.1,129.7z M230.7,128h3.4
					c0-0.5-0.2-0.9-0.4-1.1c-0.3-0.4-0.7-0.6-1.3-0.6c-0.5,0-0.9,0.2-1.2,0.5S230.8,127.5,230.7,128z"/>
				<path id="XMLID_30_" class="st1" d="M236.4,131.6v-6h0.9v0.9c0.4-0.7,1.1-1,1.9-1c0.4,0,0.7,0.1,1,0.2s0.5,0.3,0.7,0.5
					c0.2,0.2,0.3,0.5,0.3,0.8c0,0.2,0.1,0.5,0.1,1v3.7h-1V128c0-0.4,0-0.7-0.1-0.9c-0.1-0.2-0.2-0.4-0.4-0.5s-0.4-0.2-0.7-0.2
					c-0.4,0-0.8,0.1-1.1,0.4c-0.3,0.3-0.5,0.8-0.5,1.6v3.3H236.4z"/>
				<path id="XMLID_32_" class="st1" d="M245.1,130.7l0.1,0.9c-0.3,0.1-0.5,0.1-0.8,0.1c-0.4,0-0.7-0.1-0.9-0.2
					c-0.2-0.1-0.3-0.3-0.4-0.5c-0.1-0.2-0.1-0.6-0.1-1.2v-3.5h-0.8v-0.8h0.8v-1.5l1-0.6v2.1h1v0.8h-1v3.5c0,0.3,0,0.5,0.1,0.6
					c0,0.1,0.1,0.1,0.2,0.2c0.1,0,0.2,0.1,0.3,0.1C244.8,130.8,245,130.7,245.1,130.7z"/>
				<path id="XMLID_34_" class="st1" d="M250.3,129.7l1.1,0.1c-0.2,0.6-0.5,1.1-0.9,1.4c-0.5,0.3-1,0.5-1.7,0.5
					c-0.9,0-1.6-0.3-2.1-0.8c-0.5-0.5-0.8-1.3-0.8-2.3c0-1,0.3-1.8,0.8-2.4s1.2-0.8,2-0.8c0.8,0,1.5,0.3,2,0.8s0.8,1.3,0.8,2.3
					c0,0.1,0,0.2,0,0.3h-4.5c0,0.7,0.2,1.2,0.6,1.5s0.8,0.5,1.3,0.5c0.4,0,0.7-0.1,1-0.3S250.1,130.1,250.3,129.7z M246.9,128h3.4
					c0-0.5-0.2-0.9-0.4-1.1c-0.3-0.4-0.7-0.6-1.3-0.6c-0.5,0-0.9,0.2-1.2,0.5S246.9,127.5,246.9,128z"/>
				<path id="XMLID_43_" class="st1" d="M252.2,129.8l1-0.2c0.1,0.4,0.2,0.7,0.5,0.9c0.3,0.2,0.6,0.3,1.1,0.3c0.5,0,0.8-0.1,1-0.3
					c0.2-0.2,0.3-0.4,0.3-0.7c0-0.2-0.1-0.4-0.3-0.5c-0.1-0.1-0.5-0.2-1-0.3c-0.7-0.2-1.3-0.4-1.6-0.5c-0.3-0.1-0.5-0.3-0.7-0.6
					c-0.2-0.2-0.2-0.5-0.2-0.8c0-0.3,0.1-0.5,0.2-0.7s0.3-0.4,0.5-0.6c0.2-0.1,0.4-0.2,0.7-0.3c0.3-0.1,0.6-0.1,0.9-0.1
					c0.5,0,0.9,0.1,1.2,0.2c0.4,0.1,0.6,0.3,0.8,0.6c0.2,0.2,0.3,0.5,0.4,0.9l-1,0.1c0-0.3-0.2-0.6-0.4-0.7s-0.5-0.3-0.9-0.3
					c-0.5,0-0.8,0.1-1,0.2c-0.2,0.2-0.3,0.3-0.3,0.5c0,0.1,0,0.3,0.1,0.4c0.1,0.1,0.2,0.2,0.4,0.3c0.1,0,0.4,0.1,0.9,0.3
					c0.7,0.2,1.2,0.3,1.5,0.5c0.3,0.1,0.5,0.3,0.7,0.5c0.2,0.2,0.2,0.5,0.2,0.9c0,0.3-0.1,0.7-0.3,1c-0.2,0.3-0.5,0.5-0.9,0.7
					c-0.4,0.2-0.8,0.2-1.3,0.2c-0.8,0-1.4-0.2-1.8-0.5C252.6,131,252.3,130.5,252.2,129.8z"/>
			</g>
			<line id="XMLID_15551_" class="st2" x1="176.5" y1="140.4" x2="296.5" y2="140.4"/>
			<line id="XMLID_15550_" class="st2" x1="176.5" y1="164.9" x2="296.5" y2="164.9"/>
		</g>
	</g>
</g>
</svg>
