<?xml version="1.0" encoding="utf-8"?>
<!-- Generator: Adobe Illustrator 19.0.0, SVG Export Plug-In . SVG Version: 6.00 Build 0)  -->
<svg version="1.1" id="Capa_1" xmlns="http://www.w3.org/2000/svg" xmlns:xlink="http://www.w3.org/1999/xlink" x="0px" y="0px"
	 viewBox="0 0 251.3 246" style="enable-background:new 0 0 251.3 246;" xml:space="preserve">
<style type="text/css">
	.st0{fill:none;stroke:#0367A6;stroke-width:3;stroke-miterlimit:10;}
	.st1{fill:#FFFFFF;stroke:#F29422;stroke-width:3;stroke-miterlimit:10;}
	.st2{fill:#FFFFFF;stroke:#8BBE33;stroke-width:3;stroke-miterlimit:10;}
	.st3{fill:#252527;}
	.st4{fill:none;stroke:#252527;stroke-width:2;stroke-miterlimit:10;}
	.st5{fill:none;stroke:#706F6F;stroke-width:2;stroke-miterlimit:10;}
	.st6{fill:#706F6F;}
</style>
<g id="XMLID_1181_">
	<g id="XMLID_645_">
		<path id="XMLID_11959_" class="st0" d="M243.8,36.8H77.6c-3.3,0-6-2.7-6-6V7.5c0-3.3,2.7-6,6-6h166.3c3.3,0,6,2.7,6,6v23.3
			C249.8,34.1,247.1,36.8,243.8,36.8z"/>
		<g id="XMLID_131_">
			<g id="XMLID_330_">
				<path id="XMLID_354_" d="M129.8,21.9v-8.8h6.4v1H131v2.7h4.9v1H131v3h5.4v1H129.8z"/>
				<path id="XMLID_352_" d="M137.9,21.9v-8.8h1.1v8.8H137.9z"/>
				<path id="XMLID_349_" d="M145,19.9l1.1,0.1c-0.2,0.7-0.5,1.2-1,1.5c-0.5,0.4-1.1,0.5-1.8,0.5c-0.9,0-1.7-0.3-2.2-0.9
					c-0.5-0.6-0.8-1.4-0.8-2.4c0-1.1,0.3-1.9,0.8-2.5c0.6-0.6,1.3-0.9,2.2-0.9c0.9,0,1.6,0.3,2.1,0.9c0.5,0.6,0.8,1.4,0.8,2.5
					c0,0.1,0,0.2,0,0.3h-4.8c0,0.7,0.2,1.2,0.6,1.6c0.4,0.4,0.8,0.6,1.3,0.6c0.4,0,0.7-0.1,1-0.3S144.8,20.3,145,19.9z M141.5,18.1
					h3.6c0-0.5-0.2-0.9-0.4-1.2c-0.3-0.4-0.8-0.6-1.3-0.6c-0.5,0-0.9,0.2-1.3,0.5C141.7,17.1,141.5,17.6,141.5,18.1z"/>
				<path id="XMLID_346_" d="M147.3,22.5l1.1,0.2c0,0.3,0.2,0.6,0.4,0.7c0.3,0.2,0.6,0.3,1.1,0.3c0.5,0,0.9-0.1,1.2-0.3
					c0.3-0.2,0.5-0.5,0.6-0.8c0.1-0.2,0.1-0.7,0.1-1.4c-0.5,0.6-1.1,0.8-1.8,0.8c-0.9,0-1.6-0.3-2-1c-0.5-0.6-0.7-1.4-0.7-2.3
					c0-0.6,0.1-1.2,0.3-1.7c0.2-0.5,0.5-0.9,1-1.2c0.4-0.3,0.9-0.4,1.5-0.4c0.8,0,1.4,0.3,1.9,0.9v-0.8h1v5.5c0,1-0.1,1.7-0.3,2.1
					c-0.2,0.4-0.5,0.7-1,1c-0.4,0.2-1,0.4-1.6,0.4c-0.8,0-1.4-0.2-1.8-0.5S147.3,23.2,147.3,22.5z M148.2,18.6
					c0,0.8,0.2,1.4,0.5,1.8s0.7,0.6,1.3,0.6c0.5,0,0.9-0.2,1.3-0.6c0.3-0.4,0.5-1,0.5-1.8c0-0.8-0.2-1.4-0.5-1.8s-0.8-0.6-1.3-0.6
					c-0.5,0-0.9,0.2-1.2,0.6C148.4,17.3,148.2,17.9,148.2,18.6z"/>
				<path id="XMLID_343_" d="M154.3,14.4v-1.2h1.1v1.2H154.3z M154.3,21.9v-6.4h1.1v6.4H154.3z"/>
				<path id="XMLID_341_" d="M157.1,21.9v-6.4h1v1c0.2-0.5,0.5-0.8,0.7-0.9c0.2-0.1,0.4-0.2,0.7-0.2c0.4,0,0.7,0.1,1.1,0.3l-0.4,1
					c-0.3-0.2-0.5-0.2-0.8-0.2c-0.2,0-0.4,0.1-0.6,0.2c-0.2,0.1-0.3,0.3-0.4,0.6c-0.1,0.4-0.2,0.8-0.2,1.3v3.3H157.1z"/>
				<path id="XMLID_339_" d="M164.6,21.9v-6.4h1v0.9c0.2-0.3,0.5-0.6,0.8-0.8s0.7-0.3,1.1-0.3c0.5,0,0.9,0.1,1.2,0.3
					s0.5,0.5,0.6,0.8c0.5-0.7,1.2-1.1,2-1.1c0.6,0,1.1,0.2,1.5,0.5c0.3,0.4,0.5,0.9,0.5,1.6v4.4h-1.1v-4c0-0.4,0-0.7-0.1-0.9
					c-0.1-0.2-0.2-0.3-0.4-0.5c-0.2-0.1-0.4-0.2-0.6-0.2c-0.4,0-0.8,0.1-1.1,0.4c-0.3,0.3-0.4,0.8-0.4,1.4v3.7h-1.1v-4.1
					c0-0.5-0.1-0.8-0.3-1.1c-0.2-0.2-0.5-0.4-0.9-0.4c-0.3,0-0.6,0.1-0.8,0.2c-0.3,0.2-0.4,0.4-0.6,0.7c-0.1,0.3-0.2,0.8-0.2,1.3
					v3.3H164.6z"/>
				<path id="XMLID_336_" d="M179.2,19.9l1.1,0.1c-0.2,0.7-0.5,1.2-1,1.5c-0.5,0.4-1.1,0.5-1.8,0.5c-0.9,0-1.7-0.3-2.2-0.9
					c-0.5-0.6-0.8-1.4-0.8-2.4c0-1.1,0.3-1.9,0.8-2.5c0.6-0.6,1.3-0.9,2.2-0.9c0.9,0,1.6,0.3,2.1,0.9c0.5,0.6,0.8,1.4,0.8,2.5
					c0,0.1,0,0.2,0,0.3h-4.8c0,0.7,0.2,1.2,0.6,1.6c0.4,0.4,0.8,0.6,1.3,0.6c0.4,0,0.7-0.1,1-0.3C178.8,20.7,179.1,20.3,179.2,19.9z
					 M175.7,18.1h3.6c0-0.5-0.2-0.9-0.4-1.2c-0.3-0.4-0.8-0.6-1.3-0.6c-0.5,0-0.9,0.2-1.3,0.5C175.9,17.1,175.7,17.6,175.7,18.1z"/>
				<path id="XMLID_334_" d="M181.7,21.9v-6.4h1v0.9c0.5-0.7,1.1-1.1,2-1.1c0.4,0,0.7,0.1,1.1,0.2c0.3,0.1,0.6,0.3,0.7,0.5
					c0.2,0.2,0.3,0.5,0.3,0.8c0,0.2,0.1,0.6,0.1,1.1v3.9h-1.1V18c0-0.4,0-0.8-0.1-1c-0.1-0.2-0.2-0.4-0.4-0.5
					c-0.2-0.1-0.5-0.2-0.8-0.2c-0.5,0-0.9,0.1-1.2,0.4c-0.3,0.3-0.5,0.8-0.5,1.7v3.5H181.7z"/>
				<path id="XMLID_331_" d="M192.7,21.9V21c-0.5,0.7-1.2,1.1-2,1.1c-0.4,0-0.7-0.1-1.1-0.2c-0.3-0.1-0.6-0.3-0.7-0.5
					c-0.2-0.2-0.3-0.5-0.3-0.8c0-0.2-0.1-0.5-0.1-1v-4h1.1v3.5c0,0.6,0,0.9,0.1,1.1c0.1,0.3,0.2,0.5,0.4,0.7
					c0.2,0.2,0.5,0.2,0.8,0.2c0.3,0,0.6-0.1,0.9-0.2c0.3-0.2,0.5-0.4,0.6-0.7c0.1-0.3,0.2-0.7,0.2-1.2v-3.4h1.1v6.4H192.7z
					 M190.5,14.8l0.8-1.7h1.4l-1.3,1.7H190.5z"/>
			</g>
		</g>
	</g>
	<g id="XMLID_644_">
		<path id="XMLID_2566_" class="st1" d="M243.8,106H77.6c-3.3,0-6-2.7-6-6V76.7c0-3.3,2.7-6,6-6h166.3c3.3,0,6,2.7,6,6V100
			C249.8,103.3,247.1,106,243.8,106z"/>
		<g id="XMLID_77_">
			<g id="XMLID_567_">
				<path id="XMLID_619_" d="M91.8,91.8V83h6.4v1H93v2.7h4.9v1H93v3h5.4v1H91.8z"/>
				<path id="XMLID_617_" d="M99.9,91.8V83h1.1v8.8H99.9z"/>
				<path id="XMLID_614_" d="M107,89.8l1.1,0.1c-0.2,0.7-0.5,1.2-1,1.5S106,92,105.3,92c-0.9,0-1.7-0.3-2.2-0.9
					c-0.5-0.6-0.8-1.4-0.8-2.4c0-1.1,0.3-1.9,0.8-2.5s1.3-0.9,2.2-0.9c0.9,0,1.6,0.3,2.1,0.9c0.5,0.6,0.8,1.4,0.8,2.5
					c0,0.1,0,0.2,0,0.3h-4.8c0,0.7,0.2,1.2,0.6,1.6c0.4,0.4,0.8,0.6,1.3,0.6c0.4,0,0.7-0.1,1-0.3C106.6,90.6,106.8,90.2,107,89.8z
					 M103.4,88h3.6c0-0.5-0.2-0.9-0.4-1.2c-0.3-0.4-0.8-0.6-1.3-0.6c-0.5,0-0.9,0.2-1.3,0.5C103.7,87,103.5,87.5,103.4,88z"/>
				<path id="XMLID_611_" d="M109.3,92.4l1.1,0.2c0,0.3,0.2,0.6,0.4,0.7c0.3,0.2,0.6,0.3,1.1,0.3c0.5,0,0.9-0.1,1.2-0.3
					c0.3-0.2,0.5-0.5,0.6-0.8c0.1-0.2,0.1-0.7,0.1-1.4c-0.5,0.6-1.1,0.8-1.8,0.8c-0.9,0-1.6-0.3-2-1c-0.5-0.6-0.7-1.4-0.7-2.3
					c0-0.6,0.1-1.2,0.3-1.7c0.2-0.5,0.5-0.9,1-1.2c0.4-0.3,0.9-0.4,1.5-0.4c0.8,0,1.4,0.3,1.9,0.9v-0.8h1V91c0,1-0.1,1.7-0.3,2.1
					c-0.2,0.4-0.5,0.7-1,1s-1,0.4-1.6,0.4c-0.8,0-1.4-0.2-1.8-0.5C109.5,93.6,109.3,93,109.3,92.4z M110.2,88.5
					c0,0.8,0.2,1.4,0.5,1.8c0.3,0.4,0.7,0.6,1.3,0.6c0.5,0,0.9-0.2,1.3-0.6c0.3-0.4,0.5-1,0.5-1.8c0-0.8-0.2-1.4-0.5-1.8
					c-0.3-0.4-0.8-0.6-1.3-0.6c-0.5,0-0.9,0.2-1.2,0.6C110.3,87.2,110.2,87.8,110.2,88.5z"/>
				<path id="XMLID_608_" d="M116.3,84.3V83h1.1v1.2H116.3z M116.3,91.8v-6.4h1.1v6.4H116.3z"/>
				<path id="XMLID_606_" d="M119,91.8v-6.4h1v1c0.2-0.5,0.5-0.8,0.7-0.9s0.4-0.2,0.7-0.2c0.4,0,0.7,0.1,1.1,0.3l-0.4,1
					c-0.3-0.2-0.5-0.2-0.8-0.2c-0.2,0-0.4,0.1-0.6,0.2c-0.2,0.1-0.3,0.3-0.4,0.6c-0.1,0.4-0.2,0.8-0.2,1.3v3.3H119z"/>
				<path id="XMLID_603_" d="M130.9,89.8l1.1,0.1c-0.2,0.7-0.5,1.2-1,1.5c-0.5,0.4-1.1,0.5-1.8,0.5c-0.9,0-1.7-0.3-2.2-0.9
					c-0.5-0.6-0.8-1.4-0.8-2.4c0-1.1,0.3-1.9,0.8-2.5c0.6-0.6,1.3-0.9,2.2-0.9c0.9,0,1.6,0.3,2.1,0.9c0.5,0.6,0.8,1.4,0.8,2.5
					c0,0.1,0,0.2,0,0.3h-4.8c0,0.7,0.2,1.2,0.6,1.6c0.4,0.4,0.8,0.6,1.3,0.6c0.4,0,0.7-0.1,1-0.3C130.6,90.6,130.8,90.2,130.9,89.8z
					 M127.4,88h3.6c0-0.5-0.2-0.9-0.4-1.2c-0.3-0.4-0.8-0.6-1.3-0.6c-0.5,0-0.9,0.2-1.3,0.5C127.6,87,127.4,87.5,127.4,88z"/>
				<path id="XMLID_601_" d="M133.4,91.8V83h1.1v8.8H133.4z"/>
				<path id="XMLID_598_" d="M140.5,89.8l1.1,0.1c-0.2,0.7-0.5,1.2-1,1.5c-0.5,0.4-1.1,0.5-1.8,0.5c-0.9,0-1.7-0.3-2.2-0.9
					c-0.5-0.6-0.8-1.4-0.8-2.4c0-1.1,0.3-1.9,0.8-2.5c0.6-0.6,1.3-0.9,2.2-0.9c0.9,0,1.6,0.3,2.1,0.9c0.5,0.6,0.8,1.4,0.8,2.5
					c0,0.1,0,0.2,0,0.3h-4.8c0,0.7,0.2,1.2,0.6,1.6c0.4,0.4,0.8,0.6,1.3,0.6c0.4,0,0.7-0.1,1-0.3C140.1,90.6,140.4,90.2,140.5,89.8z
					 M137,88h3.6c0-0.5-0.2-0.9-0.4-1.2c-0.3-0.4-0.8-0.6-1.3-0.6c-0.5,0-0.9,0.2-1.3,0.5C137.2,87,137,87.5,137,88z"/>
				<path id="XMLID_596_" d="M143,91.8v-6.4h1v0.9c0.2-0.3,0.5-0.6,0.8-0.8c0.3-0.2,0.7-0.3,1.1-0.3c0.5,0,0.9,0.1,1.2,0.3
					s0.5,0.5,0.6,0.8c0.5-0.7,1.2-1.1,2-1.1c0.6,0,1.1,0.2,1.5,0.5c0.3,0.4,0.5,0.9,0.5,1.6v4.4h-1.1v-4c0-0.4,0-0.7-0.1-0.9
					s-0.2-0.3-0.4-0.5s-0.4-0.2-0.6-0.2c-0.4,0-0.8,0.1-1.1,0.4c-0.3,0.3-0.4,0.8-0.4,1.4v3.7h-1.1v-4.1c0-0.5-0.1-0.8-0.3-1.1
					c-0.2-0.2-0.5-0.4-0.9-0.4c-0.3,0-0.6,0.1-0.8,0.2c-0.3,0.2-0.4,0.4-0.6,0.7c-0.1,0.3-0.2,0.8-0.2,1.3v3.3H143z"/>
				<path id="XMLID_593_" d="M157.6,89.8l1.1,0.1c-0.2,0.7-0.5,1.2-1,1.5c-0.5,0.4-1.1,0.5-1.8,0.5c-0.9,0-1.7-0.3-2.2-0.9
					c-0.5-0.6-0.8-1.4-0.8-2.4c0-1.1,0.3-1.9,0.8-2.5c0.6-0.6,1.3-0.9,2.2-0.9c0.9,0,1.6,0.3,2.1,0.9c0.5,0.6,0.8,1.4,0.8,2.5
					c0,0.1,0,0.2,0,0.3H154c0,0.7,0.2,1.2,0.6,1.6c0.4,0.4,0.8,0.6,1.3,0.6c0.4,0,0.7-0.1,1-0.3S157.5,90.2,157.6,89.8z M154.1,88
					h3.6c0-0.5-0.2-0.9-0.4-1.2c-0.3-0.4-0.8-0.6-1.3-0.6c-0.5,0-0.9,0.2-1.3,0.5C154.3,87,154.1,87.5,154.1,88z"/>
				<path id="XMLID_591_" d="M160.1,91.8v-6.4h1v0.9c0.5-0.7,1.1-1.1,2-1.1c0.4,0,0.7,0.1,1.1,0.2c0.3,0.1,0.6,0.3,0.7,0.5
					s0.3,0.5,0.3,0.8c0,0.2,0.1,0.6,0.1,1.1v3.9h-1.1v-3.9c0-0.4,0-0.8-0.1-1c-0.1-0.2-0.2-0.4-0.4-0.5s-0.5-0.2-0.8-0.2
					c-0.5,0-0.9,0.1-1.2,0.4s-0.5,0.8-0.5,1.7v3.5H160.1z"/>
				<path id="XMLID_589_" d="M169.3,90.9l0.2,1c-0.3,0.1-0.6,0.1-0.8,0.1c-0.4,0-0.7-0.1-0.9-0.2c-0.2-0.1-0.4-0.3-0.5-0.5
					c-0.1-0.2-0.1-0.6-0.1-1.3v-3.7h-0.8v-0.8h0.8v-1.6l1.1-0.6v2.2h1.1v0.8h-1.1V90c0,0.3,0,0.5,0.1,0.6c0,0.1,0.1,0.2,0.2,0.2
					c0.1,0.1,0.2,0.1,0.4,0.1C169,90.9,169.1,90.9,169.3,90.9z"/>
				<path id="XMLID_586_" d="M170,88.6c0-1.2,0.3-2.1,1-2.6c0.5-0.5,1.2-0.7,2-0.7c0.9,0,1.6,0.3,2.2,0.9c0.6,0.6,0.8,1.4,0.8,2.4
					c0,0.8-0.1,1.5-0.4,1.9c-0.2,0.5-0.6,0.8-1.1,1.1c-0.5,0.3-1,0.4-1.5,0.4c-0.9,0-1.6-0.3-2.2-0.9C170.3,90.5,170,89.7,170,88.6z
					 M171.1,88.6c0,0.8,0.2,1.4,0.5,1.8s0.8,0.6,1.3,0.6c0.5,0,1-0.2,1.3-0.6c0.4-0.4,0.5-1,0.5-1.9c0-0.8-0.2-1.4-0.5-1.8
					c-0.4-0.4-0.8-0.6-1.3-0.6c-0.5,0-1,0.2-1.3,0.6C171.3,87.2,171.1,87.8,171.1,88.6z"/>
				<path id="XMLID_583_" d="M184.8,91.8V91c-0.4,0.6-1,1-1.8,1c-0.5,0-1-0.1-1.4-0.4c-0.4-0.3-0.8-0.7-1-1.2
					c-0.2-0.5-0.4-1.1-0.4-1.7c0-0.6,0.1-1.2,0.3-1.7c0.2-0.5,0.5-0.9,1-1.2c0.4-0.3,0.9-0.4,1.4-0.4c0.4,0,0.7,0.1,1,0.2
					c0.3,0.2,0.5,0.4,0.7,0.6V83h1.1v8.8H184.8z M181.4,88.6c0,0.8,0.2,1.4,0.5,1.8s0.8,0.6,1.2,0.6c0.5,0,0.9-0.2,1.2-0.6
					c0.3-0.4,0.5-1,0.5-1.8c0-0.9-0.2-1.5-0.5-1.9c-0.3-0.4-0.8-0.6-1.2-0.6c-0.5,0-0.9,0.2-1.2,0.6
					C181.5,87.2,181.4,87.8,181.4,88.6z"/>
				<path id="XMLID_580_" d="M191.9,89.8l1.1,0.1c-0.2,0.7-0.5,1.2-1,1.5c-0.5,0.4-1.1,0.5-1.8,0.5c-0.9,0-1.7-0.3-2.2-0.9
					c-0.5-0.6-0.8-1.4-0.8-2.4c0-1.1,0.3-1.9,0.8-2.5c0.6-0.6,1.3-0.9,2.2-0.9c0.9,0,1.6,0.3,2.1,0.9c0.5,0.6,0.8,1.4,0.8,2.5
					c0,0.1,0,0.2,0,0.3h-4.8c0,0.7,0.2,1.2,0.6,1.6c0.4,0.4,0.8,0.6,1.3,0.6c0.4,0,0.7-0.1,1-0.3S191.7,90.2,191.9,89.8z M188.3,88
					h3.6c0-0.5-0.2-0.9-0.4-1.2c-0.3-0.4-0.8-0.6-1.3-0.6c-0.5,0-0.9,0.2-1.3,0.5C188.6,87,188.4,87.5,188.3,88z"/>
				<path id="XMLID_578_" d="M194.3,91.8V83h1.1v8.8H194.3z"/>
				<path id="XMLID_576_" d="M200.5,91.8v-6.4h1v0.9c0.2-0.3,0.5-0.6,0.8-0.8s0.7-0.3,1.1-0.3c0.5,0,0.9,0.1,1.2,0.3
					s0.5,0.5,0.6,0.8c0.5-0.7,1.2-1.1,2-1.1c0.6,0,1.1,0.2,1.5,0.5c0.3,0.4,0.5,0.9,0.5,1.6v4.4h-1.1v-4c0-0.4,0-0.7-0.1-0.9
					c-0.1-0.2-0.2-0.3-0.4-0.5c-0.2-0.1-0.4-0.2-0.6-0.2c-0.4,0-0.8,0.1-1.1,0.4c-0.3,0.3-0.4,0.8-0.4,1.4v3.7h-1.1v-4.1
					c0-0.5-0.1-0.8-0.3-1.1c-0.2-0.2-0.5-0.4-0.9-0.4c-0.3,0-0.6,0.1-0.8,0.2c-0.3,0.2-0.4,0.4-0.6,0.7c-0.1,0.3-0.2,0.8-0.2,1.3
					v3.3H200.5z"/>
				<path id="XMLID_573_" d="M215.1,89.8l1.1,0.1c-0.2,0.7-0.5,1.2-1,1.5c-0.5,0.4-1.1,0.5-1.8,0.5c-0.9,0-1.7-0.3-2.2-0.9
					c-0.5-0.6-0.8-1.4-0.8-2.4c0-1.1,0.3-1.9,0.8-2.5c0.6-0.6,1.3-0.9,2.2-0.9c0.9,0,1.6,0.3,2.1,0.9c0.5,0.6,0.8,1.4,0.8,2.5
					c0,0.1,0,0.2,0,0.3h-4.8c0,0.7,0.2,1.2,0.6,1.6c0.4,0.4,0.8,0.6,1.3,0.6c0.4,0,0.7-0.1,1-0.3C214.8,90.6,215,90.2,215.1,89.8z
					 M211.6,88h3.6c0-0.5-0.2-0.9-0.4-1.2c-0.3-0.4-0.8-0.6-1.3-0.6c-0.5,0-0.9,0.2-1.3,0.5C211.8,87,211.6,87.5,211.6,88z"/>
				<path id="XMLID_571_" d="M217.6,91.8v-6.4h1v0.9c0.5-0.7,1.1-1.1,2-1.1c0.4,0,0.7,0.1,1.1,0.2c0.3,0.1,0.6,0.3,0.7,0.5
					c0.2,0.2,0.3,0.5,0.3,0.8c0,0.2,0.1,0.6,0.1,1.1v3.9h-1.1v-3.9c0-0.4,0-0.8-0.1-1c-0.1-0.2-0.2-0.4-0.4-0.5
					c-0.2-0.1-0.5-0.2-0.8-0.2c-0.5,0-0.9,0.1-1.2,0.4c-0.3,0.3-0.5,0.8-0.5,1.7v3.5H217.6z"/>
				<path id="XMLID_568_" d="M228.7,91.8v-0.9c-0.5,0.7-1.2,1.1-2,1.1c-0.4,0-0.7-0.1-1.1-0.2c-0.3-0.1-0.6-0.3-0.7-0.5
					c-0.2-0.2-0.3-0.5-0.3-0.8c0-0.2-0.1-0.5-0.1-1v-4h1.1V89c0,0.6,0,0.9,0.1,1.1c0.1,0.3,0.2,0.5,0.4,0.7c0.2,0.2,0.5,0.2,0.8,0.2
					c0.3,0,0.6-0.1,0.9-0.2c0.3-0.2,0.5-0.4,0.6-0.7c0.1-0.3,0.2-0.7,0.2-1.2v-3.4h1.1v6.4H228.7z M226.4,84.6l0.8-1.7h1.4l-1.3,1.7
					H226.4z"/>
			</g>
		</g>
	</g>
	<g id="XMLID_68_">
		<path id="XMLID_2567_" class="st2" d="M243.8,175.5H77.6c-3.3,0-6-2.7-6-6v-23.3c0-3.3,2.7-6,6-6h166.3c3.3,0,6,2.7,6,6v23.3
			C249.8,172.8,247.1,175.5,243.8,175.5z"/>
		<g id="XMLID_2_">
			<g id="XMLID_428_">
				<path id="XMLID_466_" d="M120.7,158.6l1.2,0.3c-0.2,1-0.7,1.7-1.3,2.2c-0.6,0.5-1.4,0.8-2.3,0.8c-0.9,0-1.7-0.2-2.3-0.6
					s-1-0.9-1.4-1.7c-0.3-0.7-0.5-1.5-0.5-2.4c0-0.9,0.2-1.7,0.5-2.4c0.4-0.7,0.8-1.2,1.5-1.6c0.6-0.4,1.4-0.5,2.1-0.5
					c0.9,0,1.6,0.2,2.2,0.7c0.6,0.4,1,1.1,1.3,1.9l-1.1,0.3c-0.2-0.6-0.5-1.1-0.9-1.4c-0.4-0.3-0.9-0.4-1.5-0.4
					c-0.7,0-1.2,0.2-1.7,0.5s-0.8,0.8-1,1.3c-0.2,0.5-0.3,1.1-0.3,1.7c0,0.8,0.1,1.4,0.3,2c0.2,0.6,0.6,1,1,1.3s1,0.4,1.5,0.4
					c0.7,0,1.2-0.2,1.7-0.6S120.5,159.3,120.7,158.6z"/>
				<path id="XMLID_463_" d="M122.8,158.5c0-1.2,0.3-2.1,1-2.6c0.5-0.5,1.2-0.7,2-0.7c0.9,0,1.6,0.3,2.2,0.9
					c0.6,0.6,0.8,1.4,0.8,2.4c0,0.8-0.1,1.5-0.4,1.9c-0.2,0.5-0.6,0.8-1.1,1.1c-0.5,0.3-1,0.4-1.5,0.4c-0.9,0-1.6-0.3-2.2-0.9
					S122.8,159.6,122.8,158.5z M123.9,158.5c0,0.8,0.2,1.4,0.5,1.8c0.4,0.4,0.8,0.6,1.3,0.6c0.5,0,1-0.2,1.3-0.6
					c0.4-0.4,0.5-1,0.5-1.9c0-0.8-0.2-1.4-0.5-1.8c-0.4-0.4-0.8-0.6-1.3-0.6c-0.5,0-1,0.2-1.3,0.6
					C124,157.1,123.9,157.7,123.9,158.5z"/>
				<path id="XMLID_461_" d="M130,161.7v-6.4h1v0.9c0.5-0.7,1.1-1.1,2-1.1c0.4,0,0.7,0.1,1.1,0.2c0.3,0.1,0.6,0.3,0.7,0.5
					c0.2,0.2,0.3,0.5,0.3,0.8c0,0.2,0.1,0.6,0.1,1.1v3.9h-1.1v-3.9c0-0.4,0-0.8-0.1-1c-0.1-0.2-0.2-0.4-0.4-0.5
					c-0.2-0.1-0.5-0.2-0.8-0.2c-0.5,0-0.9,0.1-1.2,0.4c-0.3,0.3-0.5,0.8-0.5,1.7v3.5H130z"/>
				<path id="XMLID_459_" d="M137.1,161.7v-5.5h-1v-0.8h1v-0.7c0-0.4,0-0.7,0.1-1c0.1-0.3,0.3-0.5,0.6-0.7s0.6-0.3,1.1-0.3
					c0.3,0,0.6,0,1,0.1l-0.2,0.9c-0.2,0-0.4-0.1-0.6-0.1c-0.3,0-0.6,0.1-0.7,0.2c-0.1,0.1-0.2,0.4-0.2,0.8v0.6h1.2v0.8h-1.2v5.5
					H137.1z"/>
				<path id="XMLID_456_" d="M140.3,154.1v-1.2h1.1v1.2H140.3z M140.3,161.7v-6.4h1.1v6.4H140.3z"/>
				<path id="XMLID_454_" d="M143,161.7v-6.4h1v1c0.2-0.5,0.5-0.8,0.7-0.9c0.2-0.1,0.4-0.2,0.7-0.2c0.4,0,0.7,0.1,1.1,0.3l-0.4,1
					c-0.3-0.2-0.5-0.2-0.8-0.2c-0.2,0-0.4,0.1-0.6,0.2c-0.2,0.1-0.3,0.3-0.4,0.6c-0.1,0.4-0.2,0.8-0.2,1.3v3.3H143z"/>
				<path id="XMLID_452_" d="M147.1,161.7v-6.4h1v0.9c0.2-0.3,0.5-0.6,0.8-0.8c0.3-0.2,0.7-0.3,1.1-0.3c0.5,0,0.9,0.1,1.2,0.3
					c0.3,0.2,0.5,0.5,0.6,0.8c0.5-0.7,1.2-1.1,2-1.1c0.6,0,1.1,0.2,1.5,0.5c0.3,0.4,0.5,0.9,0.5,1.6v4.4h-1.1v-4
					c0-0.4,0-0.7-0.1-0.9s-0.2-0.3-0.4-0.5s-0.4-0.2-0.6-0.2c-0.4,0-0.8,0.1-1.1,0.4c-0.3,0.3-0.4,0.8-0.4,1.4v3.7h-1.1v-4.1
					c0-0.5-0.1-0.8-0.3-1.1c-0.2-0.2-0.5-0.4-0.9-0.4c-0.3,0-0.6,0.1-0.8,0.2c-0.3,0.2-0.4,0.4-0.6,0.7s-0.2,0.8-0.2,1.3v3.3H147.1z
					"/>
				<path id="XMLID_449_" d="M161.5,160.9c-0.4,0.3-0.8,0.6-1.2,0.7s-0.8,0.2-1.2,0.2c-0.7,0-1.2-0.2-1.6-0.5
					c-0.4-0.3-0.6-0.8-0.6-1.3c0-0.3,0.1-0.6,0.2-0.9c0.1-0.3,0.3-0.5,0.6-0.6s0.5-0.3,0.8-0.4c0.2-0.1,0.5-0.1,1-0.2
					c0.9-0.1,1.5-0.2,1.9-0.4c0-0.1,0-0.2,0-0.3c0-0.4-0.1-0.8-0.3-0.9c-0.3-0.2-0.7-0.4-1.2-0.4c-0.5,0-0.9,0.1-1.1,0.3
					c-0.2,0.2-0.4,0.5-0.5,0.9l-1.1-0.1c0.1-0.5,0.3-0.8,0.5-1.1c0.2-0.3,0.5-0.5,1-0.6s0.9-0.2,1.4-0.2c0.5,0,1,0.1,1.3,0.2
					s0.6,0.3,0.8,0.5c0.2,0.2,0.3,0.4,0.3,0.7c0,0.2,0.1,0.5,0.1,1v1.4c0,1,0,1.6,0.1,1.9c0,0.3,0.1,0.5,0.3,0.8h-1.1
					C161.6,161.5,161.6,161.2,161.5,160.9z M161.5,158.5c-0.4,0.2-1,0.3-1.8,0.4c-0.4,0.1-0.8,0.1-0.9,0.2s-0.3,0.2-0.4,0.4
					c-0.1,0.2-0.2,0.3-0.2,0.5c0,0.3,0.1,0.5,0.3,0.7s0.5,0.3,1,0.3c0.4,0,0.8-0.1,1.1-0.3c0.3-0.2,0.6-0.4,0.7-0.7
					c0.1-0.2,0.2-0.6,0.2-1.1V158.5z"/>
				<path id="XMLID_447_" d="M164.2,161.7v-6.4h1v1c0.2-0.5,0.5-0.8,0.7-0.9c0.2-0.1,0.4-0.2,0.7-0.2c0.4,0,0.7,0.1,1.1,0.3l-0.4,1
					c-0.3-0.2-0.5-0.2-0.8-0.2c-0.2,0-0.4,0.1-0.6,0.2c-0.2,0.1-0.3,0.3-0.4,0.6c-0.1,0.4-0.2,0.8-0.2,1.3v3.3H164.2z"/>
				<path id="XMLID_444_" d="M171.7,164.1v-8.8h1v0.8c0.2-0.3,0.5-0.6,0.8-0.7s0.6-0.2,1.1-0.2c0.5,0,1,0.1,1.4,0.4
					c0.4,0.3,0.7,0.7,0.9,1.2c0.2,0.5,0.3,1.1,0.3,1.7c0,0.7-0.1,1.2-0.4,1.8c-0.2,0.5-0.6,0.9-1,1.2c-0.4,0.3-0.9,0.4-1.4,0.4
					c-0.4,0-0.7-0.1-1-0.2c-0.3-0.2-0.5-0.3-0.7-0.6v3.1H171.7z M172.7,158.5c0,0.8,0.2,1.4,0.5,1.8c0.3,0.4,0.7,0.6,1.2,0.6
					c0.5,0,0.9-0.2,1.2-0.6c0.3-0.4,0.5-1,0.5-1.9c0-0.8-0.2-1.4-0.5-1.8c-0.3-0.4-0.7-0.6-1.2-0.6c-0.5,0-0.9,0.2-1.2,0.6
					S172.7,157.7,172.7,158.5z"/>
				<path id="XMLID_441_" d="M183,159.6l1.1,0.1c-0.2,0.7-0.5,1.2-1,1.5c-0.5,0.4-1.1,0.5-1.8,0.5c-0.9,0-1.7-0.3-2.2-0.9
					c-0.5-0.6-0.8-1.4-0.8-2.4c0-1.1,0.3-1.9,0.8-2.5c0.6-0.6,1.3-0.9,2.2-0.9c0.9,0,1.6,0.3,2.1,0.9c0.5,0.6,0.8,1.4,0.8,2.5
					c0,0.1,0,0.2,0,0.3h-4.8c0,0.7,0.2,1.2,0.6,1.6c0.4,0.4,0.8,0.6,1.3,0.6c0.4,0,0.7-0.1,1-0.3C182.6,160.4,182.8,160.1,183,159.6
					z M179.4,157.9h3.6c0-0.5-0.2-0.9-0.4-1.2c-0.3-0.4-0.8-0.6-1.3-0.6c-0.5,0-0.9,0.2-1.3,0.5S179.4,157.3,179.4,157.9z"/>
				<path id="XMLID_438_" d="M189.6,161.7v-0.8c-0.4,0.6-1,1-1.8,1c-0.5,0-1-0.1-1.4-0.4c-0.4-0.3-0.8-0.7-1-1.2
					c-0.2-0.5-0.4-1.1-0.4-1.7c0-0.6,0.1-1.2,0.3-1.7c0.2-0.5,0.5-0.9,1-1.2c0.4-0.3,0.9-0.4,1.4-0.4c0.4,0,0.7,0.1,1,0.2
					s0.5,0.4,0.7,0.6v-3.2h1.1v8.8H189.6z M186.2,158.5c0,0.8,0.2,1.4,0.5,1.8c0.3,0.4,0.8,0.6,1.2,0.6c0.5,0,0.9-0.2,1.2-0.6
					c0.3-0.4,0.5-1,0.5-1.8c0-0.9-0.2-1.5-0.5-1.9c-0.3-0.4-0.8-0.6-1.2-0.6c-0.5,0-0.9,0.2-1.2,0.6
					C186.3,157,186.2,157.7,186.2,158.5z"/>
				<path id="XMLID_435_" d="M192.3,154.1v-1.2h1.1v1.2H192.3z M192.3,161.7v-6.4h1.1v6.4H192.3z"/>
				<path id="XMLID_432_" d="M199.2,161.7v-0.8c-0.4,0.6-1,1-1.8,1c-0.5,0-1-0.1-1.4-0.4c-0.4-0.3-0.8-0.7-1-1.2
					c-0.2-0.5-0.4-1.1-0.4-1.7c0-0.6,0.1-1.2,0.3-1.7c0.2-0.5,0.5-0.9,1-1.2c0.4-0.3,0.9-0.4,1.4-0.4c0.4,0,0.7,0.1,1,0.2
					s0.5,0.4,0.7,0.6v-3.2h1.1v8.8H199.2z M195.8,158.5c0,0.8,0.2,1.4,0.5,1.8c0.3,0.4,0.8,0.6,1.2,0.6c0.5,0,0.9-0.2,1.2-0.6
					c0.3-0.4,0.5-1,0.5-1.8c0-0.9-0.2-1.5-0.5-1.9c-0.3-0.4-0.8-0.6-1.2-0.6c-0.5,0-0.9,0.2-1.2,0.6
					C195.9,157,195.8,157.7,195.8,158.5z"/>
				<path id="XMLID_429_" d="M201.5,158.5c0-1.2,0.3-2.1,1-2.6c0.5-0.5,1.2-0.7,2-0.7c0.9,0,1.6,0.3,2.2,0.9
					c0.6,0.6,0.8,1.4,0.8,2.4c0,0.8-0.1,1.5-0.4,1.9c-0.2,0.5-0.6,0.8-1.1,1.1c-0.5,0.3-1,0.4-1.5,0.4c-0.9,0-1.6-0.3-2.2-0.9
					C201.8,160.4,201.5,159.6,201.5,158.5z M202.6,158.5c0,0.8,0.2,1.4,0.5,1.8c0.4,0.4,0.8,0.6,1.3,0.6c0.5,0,1-0.2,1.3-0.6
					c0.4-0.4,0.5-1,0.5-1.9c0-0.8-0.2-1.4-0.5-1.8c-0.4-0.4-0.8-0.6-1.3-0.6c-0.5,0-1,0.2-1.3,0.6
					C202.8,157.1,202.6,157.7,202.6,158.5z"/>
			</g>
		</g>
	</g>
	<circle id="XMLID_1177_" class="st3" cx="160.7" cy="228" r="13"/>
	<circle id="XMLID_1119_" class="st4" cx="160.7" cy="228" r="17"/>
	<g id="XMLID_1187_">
		<g id="XMLID_35_">
			<line id="XMLID_38_" class="st5" x1="160.7" y1="36.6" x2="160.7" y2="59.1"/>
			<g id="XMLID_36_">
				<polygon id="XMLID_37_" class="st6" points="160.7,69.7 154.6,54.8 160.7,58.4 166.8,54.8 				"/>
			</g>
		</g>
	</g>
	<g id="XMLID_1442_">
		<g id="XMLID_30_">
			<line id="XMLID_33_" class="st5" x1="22.4" y1="19.2" x2="60" y2="19.2"/>
			<g id="XMLID_31_">
				<polygon id="XMLID_32_" class="st6" points="70.6,19.2 55.6,25.3 59.2,19.2 55.6,13.1 				"/>
			</g>
		</g>
	</g>
	<g id="XMLID_1225_">
		<g id="XMLID_23_">
			<line id="XMLID_26_" class="st5" x1="160.7" y1="107" x2="160.7" y2="129.5"/>
			<g id="XMLID_24_">
				<polygon id="XMLID_25_" class="st6" points="160.7,140.1 154.6,125.2 160.7,128.8 166.8,125.2 				"/>
			</g>
		</g>
	</g>
	<g id="XMLID_1405_">
		<g id="XMLID_18_">
			<line id="XMLID_21_" class="st5" x1="160.7" y1="176.9" x2="160.7" y2="199.4"/>
			<g id="XMLID_19_">
				<polygon id="XMLID_20_" class="st6" points="160.7,210 154.6,195.1 160.7,198.6 166.8,195.1 				"/>
			</g>
		</g>
	</g>
	<circle id="XMLID_982_" class="st3" cx="13" cy="19.2" r="13"/>
</g>
</svg>
