<?xml version="1.0" encoding="utf-8"?>
<!-- Generator: Adobe Illustrator 19.0.0, SVG Export Plug-In . SVG Version: 6.00 Build 0)  -->
<svg version="1.1" id="Capa_1" xmlns="http://www.w3.org/2000/svg" xmlns:xlink="http://www.w3.org/1999/xlink" x="0px" y="0px"
	 viewBox="0 0 368.3 95" style="enable-background:new 0 0 368.3 95;" xml:space="preserve">
<style type="text/css">
	.st0{fill:#F9D523;}
	.st1{fill:#252527;}
	.st2{fill:none;stroke:#252527;stroke-width:2;stroke-miterlimit:10;}
	.st3{fill:#F9D523;stroke:#252527;stroke-width:2.5;stroke-miterlimit:10;}
</style>
<g id="XMLID_22_">
	<g id="XMLID_10201_">
		<g id="XMLID_15706_">
			<g id="XMLID_15806_">
				<rect id="XMLID_76_" x="1.3" y="1.2" class="st0" width="150.8" height="92.5"/>
				<g id="XMLID_72_">
					<path id="XMLID_73_" class="st1" d="M150.8,2.5v45v45H2.5v-90H150.8 M153.3,0h-2.5H2.5H0v2.5v90V95h2.5h148.3h2.5v-2.5v-45v-45
						V0L153.3,0z"/>
				</g>
			</g>
			<g id="XMLID_46_">
				<path id="XMLID_47_" class="st1" d="M52,21.9V11.6h3.9c0.7,0,1.2,0,1.6,0.1c0.5,0.1,0.9,0.2,1.3,0.5c0.3,0.2,0.6,0.6,0.8,1
					c0.2,0.4,0.3,0.9,0.3,1.4c0,0.9-0.3,1.6-0.8,2.2c-0.6,0.6-1.6,0.9-3,0.9h-2.6v4.2H52z M53.3,16.5H56c0.9,0,1.5-0.2,1.9-0.5
					c0.4-0.3,0.6-0.8,0.6-1.4c0-0.4-0.1-0.8-0.3-1.1s-0.5-0.5-0.9-0.6c-0.2-0.1-0.7-0.1-1.3-0.1h-2.6V16.5z"/>
				<path id="XMLID_51_" class="st1" d="M66.5,19.5l1.3,0.2c-0.2,0.8-0.6,1.4-1.1,1.8S65.4,22,64.5,22c-1.1,0-2-0.3-2.6-1
					c-0.6-0.7-1-1.6-1-2.8c0-1.3,0.3-2.2,1-2.9c0.6-0.7,1.5-1,2.5-1c1,0,1.8,0.3,2.4,1s0.9,1.6,0.9,2.9c0,0.1,0,0.2,0,0.3h-5.6
					c0,0.8,0.3,1.4,0.7,1.9c0.4,0.4,0.9,0.7,1.6,0.7c0.5,0,0.9-0.1,1.2-0.4C66,20.4,66.3,20,66.5,19.5z M62.4,17.4h4.2
					c-0.1-0.6-0.2-1.1-0.5-1.4c-0.4-0.5-0.9-0.7-1.6-0.7c-0.6,0-1.1,0.2-1.5,0.6C62.6,16.3,62.4,16.8,62.4,17.4z"/>
				<path id="XMLID_54_" class="st1" d="M74.2,21.9v-0.9c-0.5,0.7-1.2,1.1-2.1,1.1c-0.6,0-1.1-0.2-1.6-0.5c-0.5-0.3-0.9-0.8-1.2-1.4
					s-0.4-1.3-0.4-2c0-0.7,0.1-1.4,0.4-2s0.6-1.1,1.1-1.4c0.5-0.3,1-0.5,1.7-0.5c0.4,0,0.8,0.1,1.2,0.3c0.4,0.2,0.6,0.4,0.9,0.7
					v-3.7h1.3v10.3H74.2z M70.2,18.2c0,1,0.2,1.7,0.6,2.1c0.4,0.5,0.9,0.7,1.4,0.7c0.6,0,1-0.2,1.4-0.7s0.6-1.1,0.6-2.1
					c0-1-0.2-1.8-0.6-2.2c-0.4-0.5-0.9-0.7-1.5-0.7c-0.6,0-1,0.2-1.4,0.7C70.4,16.4,70.2,17.2,70.2,18.2z"/>
				<path id="XMLID_57_" class="st1" d="M77.4,13v-1.5h1.3V13H77.4z M77.4,21.9v-7.5h1.3v7.5H77.4z"/>
				<path id="XMLID_60_" class="st1" d="M85.4,21.9v-0.9c-0.5,0.7-1.2,1.1-2.1,1.1c-0.6,0-1.1-0.2-1.6-0.5c-0.5-0.3-0.9-0.8-1.2-1.4
					s-0.4-1.3-0.4-2c0-0.7,0.1-1.4,0.4-2s0.6-1.1,1.1-1.4c0.5-0.3,1-0.5,1.7-0.5c0.4,0,0.8,0.1,1.2,0.3c0.4,0.2,0.6,0.4,0.9,0.7
					v-3.7h1.3v10.3H85.4z M81.4,18.2c0,1,0.2,1.7,0.6,2.1c0.4,0.5,0.9,0.7,1.4,0.7c0.6,0,1-0.2,1.4-0.7s0.6-1.1,0.6-2.1
					c0-1-0.2-1.8-0.6-2.2c-0.4-0.5-0.9-0.7-1.5-0.7c-0.6,0-1,0.2-1.4,0.7C81.6,16.4,81.4,17.2,81.4,18.2z"/>
				<path id="XMLID_63_" class="st1" d="M88.1,18.1c0-1.4,0.4-2.4,1.2-3.1c0.6-0.6,1.4-0.8,2.3-0.8c1,0,1.9,0.3,2.5,1
					c0.7,0.7,1,1.6,1,2.8c0,1-0.1,1.7-0.4,2.3c-0.3,0.5-0.7,1-1.3,1.3c-0.5,0.3-1.2,0.5-1.8,0.5c-1,0-1.9-0.3-2.5-1
					C88.4,20.4,88.1,19.4,88.1,18.1z M89.4,18.1c0,1,0.2,1.7,0.6,2.1c0.4,0.5,0.9,0.7,1.6,0.7c0.6,0,1.1-0.2,1.6-0.7
					c0.4-0.5,0.6-1.2,0.6-2.2c0-0.9-0.2-1.6-0.6-2.1c-0.4-0.5-0.9-0.7-1.6-0.7c-0.6,0-1.2,0.2-1.6,0.7
					C89.6,16.5,89.4,17.2,89.4,18.1z"/>
				<path id="XMLID_66_" class="st1" d="M96.1,19.7l1.2-0.2c0.1,0.5,0.3,0.9,0.6,1.2c0.3,0.3,0.8,0.4,1.3,0.4c0.6,0,1-0.1,1.3-0.4
					c0.3-0.2,0.4-0.5,0.4-0.8c0-0.3-0.1-0.5-0.4-0.7c-0.2-0.1-0.6-0.3-1.3-0.4c-0.9-0.2-1.6-0.4-1.9-0.6c-0.4-0.2-0.6-0.4-0.8-0.7
					s-0.3-0.6-0.3-1c0-0.3,0.1-0.6,0.2-0.9c0.2-0.3,0.4-0.5,0.6-0.7c0.2-0.1,0.5-0.3,0.8-0.4s0.7-0.2,1.1-0.2c0.6,0,1.1,0.1,1.5,0.3
					c0.4,0.2,0.8,0.4,1,0.7c0.2,0.3,0.4,0.7,0.4,1.2l-1.2,0.2c-0.1-0.4-0.2-0.7-0.5-0.9c-0.3-0.2-0.6-0.3-1.1-0.3
					c-0.6,0-1,0.1-1.2,0.3c-0.2,0.2-0.4,0.4-0.4,0.7c0,0.2,0.1,0.3,0.2,0.4c0.1,0.1,0.3,0.2,0.5,0.3c0.1,0,0.5,0.2,1.1,0.3
					c0.9,0.2,1.5,0.4,1.9,0.6c0.4,0.2,0.6,0.4,0.8,0.7s0.3,0.7,0.3,1.1c0,0.4-0.1,0.8-0.4,1.2c-0.2,0.4-0.6,0.7-1.1,0.9
					s-1,0.3-1.6,0.3c-1,0-1.7-0.2-2.2-0.6C96.5,21,96.2,20.4,96.1,19.7z"/>
			</g>
			<line id="XMLID_15739_" class="st2" x1="2.5" y1="32.7" x2="150.8" y2="32.7"/>
			<line id="XMLID_15738_" class="st2" x1="2.5" y1="62.9" x2="150.8" y2="62.9"/>
		</g>
		<g id="XMLID_13244_">
			<g id="XMLID_14612_">
				<rect id="XMLID_82_" x="216.3" y="1.2" class="st0" width="150.8" height="92.5"/>
				<g id="XMLID_78_">
					<path id="XMLID_79_" class="st1" d="M365.8,2.5v90H217.5v-90H365.8 M368.3,0h-2.5H217.5H215v2.5v90V95h2.5h148.3h2.5v-2.5v-90
						V0L368.3,0z"/>
				</g>
			</g>
			<g id="XMLID_10_">
				<path id="XMLID_11_" class="st1" d="M260.6,21.9V11.6h3.9c0.7,0,1.2,0,1.6,0.1c0.5,0.1,0.9,0.2,1.3,0.5c0.3,0.2,0.6,0.6,0.8,1
					c0.2,0.4,0.3,0.9,0.3,1.4c0,0.9-0.3,1.6-0.8,2.2c-0.6,0.6-1.6,0.9-3,0.9H262v4.2H260.6z M262,16.5h2.7c0.9,0,1.5-0.2,1.9-0.5
					c0.4-0.3,0.6-0.8,0.6-1.4c0-0.4-0.1-0.8-0.3-1.1s-0.5-0.5-0.9-0.6c-0.2-0.1-0.7-0.1-1.3-0.1H262V16.5z"/>
				<path id="XMLID_14_" class="st1" d="M270,21.9v-7.5h1.1v1.1c0.3-0.5,0.6-0.9,0.8-1c0.2-0.2,0.5-0.3,0.8-0.3
					c0.4,0,0.9,0.1,1.3,0.4l-0.4,1.2c-0.3-0.2-0.6-0.3-0.9-0.3c-0.3,0-0.5,0.1-0.7,0.2s-0.4,0.4-0.5,0.7c-0.1,0.4-0.2,0.9-0.2,1.5
					v3.9H270z"/>
				<path id="XMLID_16_" class="st1" d="M274.4,18.1c0-1.4,0.4-2.4,1.2-3.1c0.6-0.6,1.4-0.8,2.3-0.8c1,0,1.9,0.3,2.5,1
					c0.7,0.7,1,1.6,1,2.8c0,1-0.1,1.7-0.4,2.3c-0.3,0.5-0.7,1-1.3,1.3c-0.5,0.3-1.2,0.5-1.8,0.5c-1,0-1.9-0.3-2.5-1
					C274.7,20.4,274.4,19.4,274.4,18.1z M275.6,18.1c0,1,0.2,1.7,0.6,2.1c0.4,0.5,0.9,0.7,1.6,0.7c0.6,0,1.1-0.2,1.6-0.7
					c0.4-0.5,0.6-1.2,0.6-2.2c0-0.9-0.2-1.6-0.6-2.1c-0.4-0.5-0.9-0.7-1.6-0.7c-0.6,0-1.2,0.2-1.6,0.7
					C275.9,16.5,275.6,17.2,275.6,18.1z"/>
				<path id="XMLID_32_" class="st1" d="M287.6,21.9v-0.9c-0.5,0.7-1.2,1.1-2.1,1.1c-0.6,0-1.1-0.2-1.6-0.5
					c-0.5-0.3-0.9-0.8-1.2-1.4s-0.4-1.3-0.4-2c0-0.7,0.1-1.4,0.4-2s0.6-1.1,1.1-1.4c0.5-0.3,1-0.5,1.7-0.5c0.4,0,0.8,0.1,1.2,0.3
					c0.4,0.2,0.6,0.4,0.9,0.7v-3.7h1.3v10.3H287.6z M283.7,18.2c0,1,0.2,1.7,0.6,2.1c0.4,0.5,0.9,0.7,1.4,0.7c0.6,0,1-0.2,1.4-0.7
					s0.6-1.1,0.6-2.1c0-1-0.2-1.8-0.6-2.2c-0.4-0.5-0.9-0.7-1.5-0.7c-0.6,0-1,0.2-1.4,0.7C283.8,16.4,283.7,17.2,283.7,18.2z"/>
				<path id="XMLID_35_" class="st1" d="M295.7,21.9v-1.1c-0.6,0.8-1.4,1.3-2.4,1.3c-0.4,0-0.8-0.1-1.2-0.3
					c-0.4-0.2-0.7-0.4-0.8-0.6s-0.3-0.6-0.4-0.9c-0.1-0.2-0.1-0.6-0.1-1.2v-4.6h1.3v4.1c0,0.7,0,1.1,0.1,1.3
					c0.1,0.3,0.2,0.6,0.5,0.8c0.3,0.2,0.6,0.3,1,0.3s0.7-0.1,1.1-0.3c0.3-0.2,0.6-0.5,0.7-0.8c0.1-0.3,0.2-0.8,0.2-1.5v-4h1.3v7.5
					H295.7z"/>
				<path id="XMLID_37_" class="st1" d="M303.7,19.1l1.2,0.2c-0.1,0.9-0.5,1.5-1,2c-0.6,0.5-1.2,0.7-2.1,0.7c-1,0-1.8-0.3-2.5-1
					c-0.6-0.7-0.9-1.6-0.9-2.9c0-0.8,0.1-1.5,0.4-2.1s0.7-1.1,1.2-1.4s1.1-0.5,1.8-0.5c0.8,0,1.5,0.2,2,0.6s0.8,1,1,1.7l-1.2,0.2
					c-0.1-0.5-0.3-0.9-0.6-1.1c-0.3-0.3-0.7-0.4-1.1-0.4c-0.6,0-1.2,0.2-1.6,0.7s-0.6,1.2-0.6,2.2c0,1,0.2,1.7,0.6,2.2
					c0.4,0.5,0.9,0.7,1.5,0.7c0.5,0,0.9-0.2,1.2-0.5C303.4,20.2,303.6,19.8,303.7,19.1z"/>
				<path id="XMLID_39_" class="st1" d="M308.7,20.7l0.2,1.1c-0.4,0.1-0.7,0.1-1,0.1c-0.5,0-0.8-0.1-1.1-0.2
					c-0.3-0.1-0.4-0.3-0.5-0.6s-0.2-0.7-0.2-1.5v-4.3h-0.9v-1h0.9v-1.8l1.3-0.8v2.6h1.3v1h-1.3v4.4c0,0.4,0,0.6,0.1,0.7
					c0,0.1,0.1,0.2,0.2,0.2s0.2,0.1,0.4,0.1C308.3,20.8,308.5,20.8,308.7,20.7z"/>
				<path id="XMLID_41_" class="st1" d="M309.5,18.1c0-1.4,0.4-2.4,1.2-3.1c0.6-0.6,1.4-0.8,2.3-0.8c1,0,1.9,0.3,2.5,1
					c0.7,0.7,1,1.6,1,2.8c0,1-0.1,1.7-0.4,2.3c-0.3,0.5-0.7,1-1.3,1.3c-0.5,0.3-1.2,0.5-1.8,0.5c-1,0-1.9-0.3-2.5-1
					C309.8,20.4,309.5,19.4,309.5,18.1z M310.8,18.1c0,1,0.2,1.7,0.6,2.1c0.4,0.5,0.9,0.7,1.6,0.7c0.6,0,1.1-0.2,1.6-0.7
					c0.4-0.5,0.6-1.2,0.6-2.2c0-0.9-0.2-1.6-0.6-2.1c-0.4-0.5-0.9-0.7-1.6-0.7c-0.6,0-1.2,0.2-1.6,0.7
					C311,16.5,310.8,17.2,310.8,18.1z"/>
				<path id="XMLID_44_" class="st1" d="M317.5,19.7l1.2-0.2c0.1,0.5,0.3,0.9,0.6,1.2c0.3,0.3,0.8,0.4,1.3,0.4c0.6,0,1-0.1,1.3-0.4
					c0.3-0.2,0.4-0.5,0.4-0.8c0-0.3-0.1-0.5-0.4-0.7c-0.2-0.1-0.6-0.3-1.3-0.4c-0.9-0.2-1.6-0.4-1.9-0.6c-0.4-0.2-0.6-0.4-0.8-0.7
					s-0.3-0.6-0.3-1c0-0.3,0.1-0.6,0.2-0.9c0.2-0.3,0.4-0.5,0.6-0.7c0.2-0.1,0.5-0.3,0.8-0.4s0.7-0.2,1.1-0.2c0.6,0,1.1,0.1,1.5,0.3
					c0.4,0.2,0.8,0.4,1,0.7c0.2,0.3,0.4,0.7,0.4,1.2l-1.2,0.2c-0.1-0.4-0.2-0.7-0.5-0.9c-0.3-0.2-0.6-0.3-1.1-0.3
					c-0.6,0-1,0.1-1.2,0.3c-0.2,0.2-0.4,0.4-0.4,0.7c0,0.2,0.1,0.3,0.2,0.4c0.1,0.1,0.3,0.2,0.5,0.3c0.1,0,0.5,0.2,1.1,0.3
					c0.9,0.2,1.5,0.4,1.9,0.6c0.4,0.2,0.6,0.4,0.8,0.7s0.3,0.7,0.3,1.1c0,0.4-0.1,0.8-0.4,1.2c-0.2,0.4-0.6,0.7-1.1,0.9
					s-1,0.3-1.6,0.3c-1,0-1.7-0.2-2.2-0.6C317.9,21,317.6,20.4,317.5,19.7z"/>
			</g>
			<line id="XMLID_14153_" class="st2" x1="217.5" y1="32.7" x2="365.8" y2="32.7"/>
			<line id="XMLID_14150_" class="st2" x1="217.5" y1="62.9" x2="365.8" y2="62.9"/>
		</g>
	</g>
	<line id="XMLID_7832_" class="st3" x1="217.5" y1="47.5" x2="150.8" y2="47.5"/>
	<g id="XMLID_7_">
		<path id="XMLID_8_" d="M163.9,92.2h-2.1v-7.8c-0.8,0.7-1.6,1.2-2.7,1.6v-1.9c0.5-0.2,1.1-0.5,1.8-1c0.6-0.5,1.1-1.1,1.3-1.7h1.7
			V92.2z"/>
	</g>
	<g id="XMLID_1_">
		<path id="XMLID_2_" d="M200.8,81.4c1,0,1.9,0.4,2.4,1.1c0.7,0.9,1,2.3,1,4.4c0,2-0.4,3.5-1.1,4.4c-0.6,0.7-1.4,1.1-2.4,1.1
			c-1,0-1.9-0.4-2.5-1.2c-0.6-0.8-1-2.2-1-4.3c0-2,0.4-3.5,1.1-4.4C198.9,81.8,199.7,81.4,200.8,81.4z M200.8,83.1
			c-0.2,0-0.5,0.1-0.7,0.2c-0.2,0.2-0.3,0.4-0.5,0.9c-0.1,0.5-0.2,1.4-0.2,2.7s0.1,2.1,0.2,2.6c0.1,0.5,0.3,0.8,0.5,0.9
			c0.2,0.2,0.4,0.2,0.7,0.2s0.5-0.1,0.7-0.2c0.2-0.2,0.3-0.4,0.5-0.9c0.1-0.5,0.2-1.4,0.2-2.7s-0.1-2.1-0.2-2.6
			c-0.1-0.5-0.3-0.8-0.5-0.9C201.2,83.2,201,83.1,200.8,83.1z"/>
		<path id="XMLID_5_" d="M206.8,86.4l-1.1-0.9c0.4-0.4,0.7-0.8,1.1-1.1c0.2-0.1,0.2-0.2,0.3-0.3c-0.1,0-0.5-0.1-1-0.2
			c-0.4-0.1-0.7-0.2-0.8-0.2l0.4-1.3c0.6,0.3,1.2,0.5,1.7,0.9c-0.1-0.8-0.2-1.4-0.2-1.9h1.3c0,0.4-0.1,1-0.2,2
			c0.1,0,0.3-0.1,0.6-0.3c0.4-0.2,0.8-0.4,1.2-0.5l0.4,1.3c-0.5,0.1-1.2,0.2-1.9,0.4l0.9,1c0.2,0.2,0.3,0.4,0.4,0.5l-1.1,0.7l-1-1.6
			C207.5,85.2,207.2,85.8,206.8,86.4z"/>
	</g>
</g>
</svg>
