<?xml version="1.0" encoding="utf-8"?>
<!-- Generator: Adobe Illustrator 19.0.0, SVG Export Plug-In . SVG Version: 6.00 Build 0)  -->
<svg version="1.1" id="Capa_1" xmlns="http://www.w3.org/2000/svg" xmlns:xlink="http://www.w3.org/1999/xlink" x="0px" y="0px"
	 viewBox="0 0 368.3 95" style="enable-background:new 0 0 368.3 95;" xml:space="preserve">
<style type="text/css">
	.st0{fill:#F9D523;}
	.st1{fill:#252527;}
	.st2{fill:none;stroke:#252527;stroke-width:2;stroke-miterlimit:10;}
	.st3{fill:none;stroke:#252527;stroke-width:2.5;stroke-miterlimit:10;stroke-dasharray:4,3;}
</style>
<g id="XMLID_10548_">
	<g id="XMLID_10559_">
		<g id="XMLID_11361_">
			<g id="XMLID_11384_">
				<rect id="XMLID_75_" x="1.3" y="1.2" class="st0" width="150.8" height="92.5"/>
				<g id="XMLID_71_">
					<path id="XMLID_72_" class="st1" d="M150.8,2.5v45v45H2.5v-90H150.8 M153.3,0h-2.5H2.5H0v2.5v90V95h2.5h148.3h2.5v-2.5v-45v-45
						V0L153.3,0z"/>
				</g>
			</g>
			<g id="XMLID_36_">
				<path id="XMLID_37_" class="st1" d="M38.8,21.9V11.6h4.6c0.9,0,1.6,0.1,2.1,0.3c0.5,0.2,0.9,0.5,1.1,1s0.4,1,0.4,1.6
					c0,0.7-0.2,1.3-0.7,1.8c-0.5,0.5-1.2,0.8-2.2,1c0.4,0.2,0.6,0.3,0.8,0.5c0.4,0.4,0.8,0.8,1.1,1.4l1.8,2.8h-1.7l-1.4-2.1
					c-0.4-0.6-0.7-1.1-1-1.4c-0.3-0.3-0.5-0.6-0.7-0.7s-0.4-0.2-0.6-0.3c-0.2,0-0.4,0-0.8,0h-1.6v4.6H38.8z M40.2,16.1h2.9
					c0.6,0,1.1-0.1,1.5-0.2c0.4-0.1,0.6-0.3,0.8-0.6c0.2-0.3,0.3-0.6,0.3-0.9c0-0.5-0.2-0.9-0.5-1.2s-0.9-0.5-1.7-0.5h-3.3V16.1z"/>
				<path id="XMLID_40_" class="st1" d="M54.1,19.5l1.3,0.2c-0.2,0.8-0.6,1.4-1.1,1.8S53,22,52.1,22c-1.1,0-2-0.3-2.6-1
					c-0.6-0.7-1-1.6-1-2.8c0-1.3,0.3-2.2,1-2.9c0.6-0.7,1.5-1,2.5-1c1,0,1.8,0.3,2.4,1s0.9,1.6,0.9,2.9c0,0.1,0,0.2,0,0.3h-5.6
					c0,0.8,0.3,1.4,0.7,1.9c0.4,0.4,0.9,0.7,1.6,0.7c0.5,0,0.9-0.1,1.2-0.4C53.7,20.4,53.9,20,54.1,19.5z M50,17.4h4.2
					c-0.1-0.6-0.2-1.1-0.5-1.4c-0.4-0.5-0.9-0.7-1.6-0.7c-0.6,0-1.1,0.2-1.5,0.6C50.2,16.3,50,16.8,50,17.4z"/>
				<path id="XMLID_43_" class="st1" d="M56.5,19.7l1.2-0.2c0.1,0.5,0.3,0.9,0.6,1.2c0.3,0.3,0.8,0.4,1.3,0.4c0.6,0,1-0.1,1.3-0.4
					c0.3-0.2,0.4-0.5,0.4-0.8c0-0.3-0.1-0.5-0.4-0.7c-0.2-0.1-0.6-0.3-1.3-0.4c-0.9-0.2-1.6-0.4-1.9-0.6c-0.4-0.2-0.6-0.4-0.8-0.7
					s-0.3-0.6-0.3-1c0-0.3,0.1-0.6,0.2-0.9c0.2-0.3,0.4-0.5,0.6-0.7c0.2-0.1,0.5-0.3,0.8-0.4s0.7-0.2,1.1-0.2c0.6,0,1.1,0.1,1.5,0.3
					c0.4,0.2,0.8,0.4,1,0.7c0.2,0.3,0.4,0.7,0.4,1.2l-1.2,0.2c-0.1-0.4-0.2-0.7-0.5-0.9c-0.3-0.2-0.6-0.3-1.1-0.3
					c-0.6,0-1,0.1-1.2,0.3c-0.2,0.2-0.4,0.4-0.4,0.7c0,0.2,0.1,0.3,0.2,0.4c0.1,0.1,0.3,0.2,0.5,0.3c0.1,0,0.5,0.2,1.1,0.3
					c0.9,0.2,1.5,0.4,1.9,0.6c0.4,0.2,0.6,0.4,0.8,0.7s0.3,0.7,0.3,1.1c0,0.4-0.1,0.8-0.4,1.2c-0.2,0.4-0.6,0.7-1.1,0.9
					s-1,0.3-1.6,0.3c-1,0-1.7-0.2-2.2-0.6C57,21,56.6,20.4,56.5,19.7z"/>
				<path id="XMLID_45_" class="st1" d="M66.9,20.7l0.2,1.1c-0.4,0.1-0.7,0.1-1,0.1c-0.5,0-0.8-0.1-1.1-0.2
					c-0.3-0.1-0.4-0.3-0.5-0.6s-0.2-0.7-0.2-1.5v-4.3h-0.9v-1h0.9v-1.8l1.3-0.8v2.6h1.3v1h-1.3v4.4c0,0.4,0,0.6,0.1,0.7
					c0,0.1,0.1,0.2,0.2,0.2s0.2,0.1,0.4,0.1C66.5,20.8,66.7,20.8,66.9,20.7z"/>
				<path id="XMLID_47_" class="st1" d="M73,21c-0.5,0.4-0.9,0.7-1.4,0.8S70.8,22,70.3,22c-0.8,0-1.4-0.2-1.9-0.6
					c-0.4-0.4-0.7-0.9-0.7-1.5c0-0.4,0.1-0.7,0.2-1s0.4-0.5,0.7-0.7c0.3-0.2,0.6-0.3,0.9-0.4c0.2-0.1,0.6-0.1,1.1-0.2
					c1-0.1,1.8-0.3,2.3-0.4c0-0.2,0-0.3,0-0.3c0-0.5-0.1-0.9-0.4-1.1c-0.3-0.3-0.8-0.4-1.4-0.4c-0.6,0-1,0.1-1.3,0.3
					c-0.3,0.2-0.5,0.6-0.6,1.1L68,16.6c0.1-0.5,0.3-1,0.6-1.3s0.6-0.6,1.1-0.8c0.5-0.2,1.1-0.3,1.7-0.3c0.6,0,1.2,0.1,1.6,0.2
					s0.7,0.3,0.9,0.6c0.2,0.2,0.3,0.5,0.4,0.9c0,0.2,0.1,0.6,0.1,1.2v1.7c0,1.2,0,1.9,0.1,2.2s0.2,0.6,0.3,0.9h-1.3
					C73.2,21.6,73.1,21.3,73,21z M72.9,18.1c-0.5,0.2-1.1,0.3-2.1,0.5c-0.5,0.1-0.9,0.2-1.1,0.3s-0.4,0.2-0.5,0.4s-0.2,0.4-0.2,0.6
					c0,0.3,0.1,0.6,0.4,0.8c0.3,0.2,0.6,0.3,1.1,0.3c0.5,0,0.9-0.1,1.3-0.3c0.4-0.2,0.7-0.5,0.8-0.9c0.1-0.3,0.2-0.7,0.2-1.3V18.1z"
					/>
				<path id="XMLID_50_" class="st1" d="M81.1,21.9v-1.1c-0.6,0.8-1.4,1.3-2.4,1.3c-0.4,0-0.8-0.1-1.2-0.3c-0.4-0.2-0.7-0.4-0.8-0.6
					s-0.3-0.6-0.4-0.9c-0.1-0.2-0.1-0.6-0.1-1.2v-4.6h1.3v4.1c0,0.7,0,1.1,0.1,1.3c0.1,0.3,0.2,0.6,0.5,0.8c0.3,0.2,0.6,0.3,1,0.3
					s0.7-0.1,1.1-0.3c0.3-0.2,0.6-0.5,0.7-0.8c0.1-0.3,0.2-0.8,0.2-1.5v-4h1.3v7.5H81.1z"/>
				<path id="XMLID_52_" class="st1" d="M84.2,21.9v-7.5h1.1v1.1c0.3-0.5,0.6-0.9,0.8-1c0.2-0.2,0.5-0.3,0.8-0.3
					c0.4,0,0.9,0.1,1.3,0.4l-0.4,1.2c-0.3-0.2-0.6-0.3-0.9-0.3c-0.3,0-0.5,0.1-0.7,0.2s-0.4,0.4-0.5,0.7c-0.1,0.4-0.2,0.9-0.2,1.5
					v3.9H84.2z"/>
				<path id="XMLID_55_" class="st1" d="M93.8,21c-0.5,0.4-0.9,0.7-1.4,0.8S91.6,22,91.1,22c-0.8,0-1.4-0.2-1.9-0.6
					c-0.4-0.4-0.7-0.9-0.7-1.5c0-0.4,0.1-0.7,0.2-1s0.4-0.5,0.7-0.7c0.3-0.2,0.6-0.3,0.9-0.4c0.2-0.1,0.6-0.1,1.1-0.2
					c1-0.1,1.8-0.3,2.3-0.4c0-0.2,0-0.3,0-0.3c0-0.5-0.1-0.9-0.4-1.1c-0.3-0.3-0.8-0.4-1.4-0.4c-0.6,0-1,0.1-1.3,0.3
					c-0.3,0.2-0.5,0.6-0.6,1.1l-1.2-0.2c0.1-0.5,0.3-1,0.6-1.3s0.6-0.6,1.1-0.8c0.5-0.2,1.1-0.3,1.7-0.3c0.6,0,1.2,0.1,1.6,0.2
					s0.7,0.3,0.9,0.6c0.2,0.2,0.3,0.5,0.4,0.9c0,0.2,0.1,0.6,0.1,1.2v1.7c0,1.2,0,1.9,0.1,2.2s0.2,0.6,0.3,0.9h-1.3
					C93.9,21.6,93.9,21.3,93.8,21z M93.7,18.1c-0.5,0.2-1.1,0.3-2.1,0.5c-0.5,0.1-0.9,0.2-1.1,0.3s-0.4,0.2-0.5,0.4
					s-0.2,0.4-0.2,0.6c0,0.3,0.1,0.6,0.4,0.8c0.3,0.2,0.6,0.3,1.1,0.3c0.5,0,0.9-0.1,1.3-0.3c0.4-0.2,0.7-0.5,0.8-0.9
					c0.1-0.3,0.2-0.7,0.2-1.3V18.1z"/>
				<path id="XMLID_58_" class="st1" d="M96.9,21.9v-7.5h1.1v1.1c0.5-0.8,1.3-1.2,2.4-1.2c0.4,0,0.9,0.1,1.2,0.2
					c0.4,0.2,0.7,0.4,0.8,0.6c0.2,0.3,0.3,0.6,0.4,0.9c0,0.2,0.1,0.6,0.1,1.2v4.6h-1.3v-4.5c0-0.5,0-0.9-0.1-1.2
					c-0.1-0.3-0.3-0.5-0.5-0.6c-0.3-0.2-0.5-0.2-0.9-0.2c-0.5,0-1,0.2-1.4,0.5c-0.4,0.3-0.6,1-0.6,1.9v4.1H96.9z"/>
				<path id="XMLID_60_" class="st1" d="M107.7,20.7l0.2,1.1c-0.4,0.1-0.7,0.1-1,0.1c-0.5,0-0.8-0.1-1.1-0.2
					c-0.3-0.1-0.4-0.3-0.5-0.6s-0.2-0.7-0.2-1.5v-4.3h-0.9v-1h0.9v-1.8l1.3-0.8v2.6h1.3v1h-1.3v4.4c0,0.4,0,0.6,0.1,0.7
					c0,0.1,0.1,0.2,0.2,0.2s0.2,0.1,0.4,0.1C107.3,20.8,107.5,20.8,107.7,20.7z"/>
				<path id="XMLID_62_" class="st1" d="M114,19.5l1.3,0.2c-0.2,0.8-0.6,1.4-1.1,1.8s-1.3,0.6-2.1,0.6c-1.1,0-2-0.3-2.6-1
					c-0.6-0.7-1-1.6-1-2.8c0-1.3,0.3-2.2,1-2.9c0.6-0.7,1.5-1,2.5-1c1,0,1.8,0.3,2.4,1s0.9,1.6,0.9,2.9c0,0.1,0,0.2,0,0.3h-5.6
					c0,0.8,0.3,1.4,0.7,1.9c0.4,0.4,0.9,0.7,1.6,0.7c0.5,0,0.9-0.1,1.2-0.4C113.6,20.4,113.8,20,114,19.5z M109.9,17.4h4.2
					c-0.1-0.6-0.2-1.1-0.5-1.4c-0.4-0.5-0.9-0.7-1.6-0.7c-0.6,0-1.1,0.2-1.5,0.6C110.1,16.3,109.9,16.8,109.9,17.4z"/>
			</g>
			<line id="XMLID_11372_" class="st2" x1="2.5" y1="32.7" x2="150.8" y2="32.7"/>
			<line id="XMLID_11362_" class="st2" x1="2.5" y1="62.9" x2="150.8" y2="62.9"/>
		</g>
		<g id="XMLID_10685_">
			<g id="XMLID_11235_">
				<rect id="XMLID_84_" x="216.3" y="1.2" class="st0" width="150.8" height="92.5"/>
				<g id="XMLID_80_">
					<path id="XMLID_81_" class="st1" d="M365.8,2.5v90H217.5v-90H365.8 M368.3,0h-2.5H217.5H215v2.5v90V95h2.5h148.3h2.5v-2.5v-90
						V0L368.3,0z"/>
				</g>
			</g>
			<g id="XMLID_2_">
				<path id="XMLID_3_" class="st1" d="M266.9,18.6l1.3-0.1c0.1,0.5,0.2,0.9,0.4,1.3c0.2,0.3,0.6,0.6,1,0.8s1,0.3,1.6,0.3
					c0.5,0,1-0.1,1.4-0.2s0.7-0.4,0.9-0.6c0.2-0.3,0.3-0.6,0.3-0.9c0-0.3-0.1-0.6-0.3-0.8c-0.2-0.2-0.5-0.4-0.9-0.6
					c-0.3-0.1-0.9-0.3-1.8-0.5c-0.9-0.2-1.6-0.4-2-0.6c-0.5-0.3-0.9-0.6-1.1-1c-0.2-0.4-0.4-0.8-0.4-1.3c0-0.5,0.1-1,0.4-1.5
					s0.7-0.8,1.3-1c0.6-0.2,1.2-0.4,1.9-0.4c0.8,0,1.4,0.1,2,0.4c0.6,0.2,1,0.6,1.3,1.1c0.3,0.5,0.5,1,0.5,1.6l-1.3,0.1
					c-0.1-0.7-0.3-1.1-0.7-1.5s-1-0.5-1.8-0.5c-0.8,0-1.4,0.2-1.8,0.5c-0.4,0.3-0.6,0.7-0.6,1.1c0,0.4,0.1,0.7,0.4,0.9
					c0.3,0.2,0.9,0.5,2.1,0.7c1.1,0.3,1.9,0.5,2.3,0.7c0.6,0.3,1,0.6,1.3,1c0.3,0.4,0.4,0.9,0.4,1.5c0,0.5-0.2,1.1-0.5,1.5
					c-0.3,0.5-0.8,0.9-1.4,1.1c-0.6,0.3-1.2,0.4-2,0.4c-0.9,0-1.7-0.1-2.3-0.4c-0.6-0.3-1.1-0.7-1.5-1.2
					C267.2,19.9,267,19.3,266.9,18.6z"/>
				<path id="XMLID_5_" class="st1" d="M281.9,19.5l1.3,0.2c-0.2,0.8-0.6,1.4-1.1,1.8S280.8,22,280,22c-1.1,0-2-0.3-2.6-1
					c-0.6-0.7-1-1.6-1-2.8c0-1.3,0.3-2.2,1-2.9c0.6-0.7,1.5-1,2.5-1c1,0,1.8,0.3,2.4,1s0.9,1.6,0.9,2.9c0,0.1,0,0.2,0,0.3h-5.6
					c0,0.8,0.3,1.4,0.7,1.9c0.4,0.4,0.9,0.7,1.6,0.7c0.5,0,0.9-0.1,1.2-0.4C281.5,20.4,281.7,20,281.9,19.5z M277.8,17.4h4.2
					c-0.1-0.6-0.2-1.1-0.5-1.4c-0.4-0.5-0.9-0.7-1.6-0.7c-0.6,0-1.1,0.2-1.5,0.6C278,16.3,277.8,16.8,277.8,17.4z"/>
				<path id="XMLID_8_" class="st1" d="M284.8,21.9v-7.5h1.1v1.1c0.3-0.5,0.6-0.9,0.8-1c0.2-0.2,0.5-0.3,0.8-0.3
					c0.4,0,0.9,0.1,1.3,0.4l-0.4,1.2c-0.3-0.2-0.6-0.3-0.9-0.3c-0.3,0-0.5,0.1-0.7,0.2s-0.4,0.4-0.5,0.7c-0.1,0.4-0.2,0.9-0.2,1.5
					v3.9H284.8z"/>
				<path id="XMLID_10_" class="st1" d="M291.7,21.9l-2.8-7.5h1.3l1.6,4.5c0.2,0.5,0.3,1,0.5,1.5c0.1-0.4,0.3-0.9,0.5-1.4l1.7-4.5
					h1.3l-2.8,7.5H291.7z"/>
				<path id="XMLID_12_" class="st1" d="M296.8,13v-1.5h1.3V13H296.8z M296.8,21.9v-7.5h1.3v7.5H296.8z"/>
				<path id="XMLID_15_" class="st1" d="M304.8,19.1l1.2,0.2c-0.1,0.9-0.5,1.5-1,2c-0.6,0.5-1.2,0.7-2.1,0.7c-1,0-1.8-0.3-2.5-1
					c-0.6-0.7-0.9-1.6-0.9-2.9c0-0.8,0.1-1.5,0.4-2.1s0.7-1.1,1.2-1.4s1.1-0.5,1.8-0.5c0.8,0,1.5,0.2,2,0.6s0.8,1,1,1.7l-1.2,0.2
					c-0.1-0.5-0.3-0.9-0.6-1.1c-0.3-0.3-0.7-0.4-1.1-0.4c-0.6,0-1.2,0.2-1.6,0.7s-0.6,1.2-0.6,2.2c0,1,0.2,1.7,0.6,2.2
					c0.4,0.5,0.9,0.7,1.5,0.7c0.5,0,0.9-0.2,1.2-0.5C304.5,20.2,304.8,19.8,304.8,19.1z"/>
				<path id="XMLID_17_" class="st1" d="M307.2,13v-1.5h1.3V13H307.2z M307.2,21.9v-7.5h1.3v7.5H307.2z"/>
				<path id="XMLID_33_" class="st1" d="M309.9,18.1c0-1.4,0.4-2.4,1.2-3.1c0.6-0.6,1.4-0.8,2.3-0.8c1,0,1.9,0.3,2.5,1
					c0.7,0.7,1,1.6,1,2.8c0,1-0.1,1.7-0.4,2.3c-0.3,0.5-0.7,1-1.3,1.3c-0.5,0.3-1.2,0.5-1.8,0.5c-1,0-1.9-0.3-2.5-1
					C310.2,20.4,309.9,19.4,309.9,18.1z M311.2,18.1c0,1,0.2,1.7,0.6,2.1c0.4,0.5,0.9,0.7,1.6,0.7c0.6,0,1.1-0.2,1.6-0.7
					c0.4-0.5,0.6-1.2,0.6-2.2c0-0.9-0.2-1.6-0.6-2.1c-0.4-0.5-0.9-0.7-1.6-0.7c-0.6,0-1.2,0.2-1.6,0.7
					C311.4,16.5,311.2,17.2,311.2,18.1z"/>
			</g>
			<line id="XMLID_11204_" class="st2" x1="217.5" y1="32.7" x2="365.8" y2="32.7"/>
			<line id="XMLID_11067_" class="st2" x1="217.5" y1="62.9" x2="365.8" y2="62.9"/>
		</g>
	</g>
	<g id="XMLID_10552_">
		<line id="XMLID_78_" class="st0" x1="217.5" y1="47.5" x2="150.8" y2="47.5"/>
		<g id="XMLID_65_">
			<line id="XMLID_77_" class="st3" x1="204.3" y1="47.5" x2="150.8" y2="47.5"/>
			<g id="XMLID_66_">
				<polygon id="XMLID_76_" class="st1" points="217.5,47.5 198.9,39.9 203.3,47.5 198.9,55.1 				"/>
			</g>
		</g>
	</g>
</g>
</svg>
