<?xml version="1.0" encoding="utf-8"?>
<!-- Generator: Adobe Illustrator 21.0.0, SVG Export Plug-In . SVG Version: 6.00 Build 0)  -->
<svg version="1.1" id="Capa_1" xmlns="http://www.w3.org/2000/svg" xmlns:xlink="http://www.w3.org/1999/xlink" x="0px" y="0px"
	 viewBox="0 0 716.2 390.9" style="enable-background:new 0 0 716.2 390.9;" xml:space="preserve">
<style type="text/css">
	.st0{fill:none;stroke:#FFFFFF;stroke-width:2;stroke-miterlimit:10;}
	.st1{fill:#FFFFFF;}
	.st2{fill:none;stroke:#FCFCFC;stroke-width:2.5;stroke-miterlimit:10;}
	.st3{fill:#F9D523;}
	.st4{fill:#252527;}
	.st5{fill:none;stroke:#252527;stroke-width:2;stroke-miterlimit:10;}
	.st6{fill:none;}
	.st7{fill:none;stroke:#FFFFFF;stroke-width:2;stroke-miterlimit:10;stroke-dasharray:4,3;}
</style>
<g id="XMLID_12015_">
	<g id="XMLID_13308_">
		<g id="XMLID_14341_">
			<polygon id="XMLID_14345_" class="st0" points="331.6,277 318,280.1 323.4,267.3 337,264.2 			"/>
			<line id="XMLID_14343_" class="st0" x1="319.9" y1="278.5" x2="273.6" y2="317.4"/>
		</g>
		<g id="XMLID_14301_">
			<g id="XMLID_14339_">
				<path id="XMLID_26_" class="st1" d="M384.9,267l8.8,2l3.5,8.3l-8.8-2L384.9,267 M381.6,264.2L387,277l13.6,3.1l-5.4-12.8
					L381.6,264.2L381.6,264.2z"/>
			</g>
			<line id="XMLID_14302_" class="st0" x1="398.7" y1="278.5" x2="445" y2="317.4"/>
		</g>
	</g>
	<line id="XMLID_12630_" class="st2" x1="145.1" y1="46.5" x2="571.1" y2="46.5"/>
	<g id="XMLID_14308_">
		<g id="XMLID_14344_">
			<rect id="XMLID_53_" x="1.2" y="1.3" class="st3" width="145.1" height="102.5"/>
			<g id="XMLID_49_">
				<path id="XMLID_50_" class="st1" d="M145.1,2.5v100H2.5V2.5H145.1 M147.6,0h-2.5H2.5H0v2.5v100v2.5h2.5h142.6h2.5v-2.5V2.5V0
					L147.6,0z"/>
			</g>
		</g>
		<g id="XMLID_520_">
			<path id="XMLID_521_" class="st4" d="M48.2,18.8V8.9h3.7c0.7,0,1.2,0,1.5,0.1c0.5,0.1,0.9,0.2,1.2,0.5s0.6,0.5,0.8,1
				s0.3,0.9,0.3,1.3c0,0.8-0.3,1.6-0.8,2.1c-0.5,0.6-1.5,0.9-2.9,0.9h-2.5v4H48.2z M49.5,13.6H52c0.8,0,1.4-0.2,1.8-0.5
				c0.4-0.3,0.5-0.8,0.5-1.3c0-0.4-0.1-0.8-0.3-1.1s-0.5-0.5-0.8-0.6C53,10.1,52.6,10,52,10h-2.5V13.6z"/>
			<path id="XMLID_524_" class="st4" d="M61.9,17.9c-0.5,0.4-0.9,0.7-1.3,0.8s-0.9,0.2-1.3,0.2c-0.8,0-1.4-0.2-1.8-0.6
				s-0.6-0.9-0.6-1.5c0-0.4,0.1-0.7,0.2-1c0.2-0.3,0.4-0.5,0.6-0.7s0.5-0.3,0.9-0.4c0.2-0.1,0.6-0.1,1.1-0.2c1-0.1,1.7-0.3,2.2-0.4
				c0-0.2,0-0.3,0-0.3c0-0.5-0.1-0.8-0.3-1c-0.3-0.3-0.8-0.4-1.4-0.4c-0.6,0-1,0.1-1.3,0.3s-0.5,0.6-0.6,1.1L57,13.6
				c0.1-0.5,0.3-0.9,0.5-1.2s0.6-0.6,1.1-0.7c0.5-0.2,1-0.3,1.6-0.3s1.1,0.1,1.5,0.2c0.4,0.1,0.7,0.3,0.8,0.5
				c0.2,0.2,0.3,0.5,0.4,0.8c0,0.2,0.1,0.6,0.1,1.1v1.6c0,1.1,0,1.8,0.1,2.1s0.2,0.6,0.3,0.9h-1.3C62,18.5,61.9,18.2,61.9,17.9z
				 M61.8,15.2c-0.4,0.2-1.1,0.3-2,0.5c-0.5,0.1-0.9,0.2-1.1,0.2s-0.4,0.2-0.5,0.4c-0.1,0.2-0.2,0.4-0.2,0.6c0,0.3,0.1,0.6,0.4,0.8
				S59,18,59.5,18s0.9-0.1,1.2-0.3c0.4-0.2,0.6-0.5,0.8-0.8c0.1-0.3,0.2-0.7,0.2-1.2L61.8,15.2L61.8,15.2z"/>
			<path id="XMLID_527_" class="st4" d="M69.6,16.1l1.2,0.2c-0.1,0.8-0.5,1.5-1,1.9c-0.5,0.5-1.2,0.7-2,0.7c-1,0-1.8-0.3-2.4-1
				c-0.6-0.6-0.9-1.6-0.9-2.8c0-0.8,0.1-1.5,0.4-2c0.3-0.6,0.6-1,1.2-1.3c0.5-0.3,1.1-0.4,1.7-0.4c0.8,0,1.4,0.2,1.9,0.6
				c0.5,0.4,0.8,1,1,1.7l-1.2,0.2c-0.1-0.5-0.3-0.8-0.6-1.1c-0.3-0.2-0.6-0.4-1-0.4c-0.6,0-1.1,0.2-1.5,0.7
				c-0.4,0.4-0.6,1.1-0.6,2.1s0.2,1.7,0.6,2.1s0.8,0.7,1.4,0.7c0.5,0,0.9-0.1,1.2-0.4C69.3,17.2,69.5,16.7,69.6,16.1z"/>
			<path id="XMLID_529_" class="st4" d="M71.8,10.3V8.9H73v1.4C73,10.3,71.8,10.3,71.8,10.3z M71.8,18.8v-7.2H73v7.2H71.8z"/>
			<path id="XMLID_532_" class="st4" d="M79.8,16.4l1.3,0.2c-0.2,0.7-0.6,1.3-1.1,1.7c-0.5,0.4-1.2,0.6-2.1,0.6c-1,0-1.9-0.3-2.5-1
				c-0.6-0.6-0.9-1.5-0.9-2.7s0.3-2.1,0.9-2.8c0.6-0.7,1.4-1,2.4-1s1.7,0.3,2.3,1S81,14,81,15.2c0,0.1,0,0.2,0,0.3h-5.3
				c0,0.8,0.3,1.4,0.7,1.8s0.9,0.6,1.5,0.6c0.4,0,0.8-0.1,1.1-0.4C79.3,17.3,79.6,17,79.8,16.4z M75.8,14.5h4
				c-0.1-0.6-0.2-1.1-0.5-1.4c-0.4-0.5-0.9-0.7-1.5-0.7s-1,0.2-1.4,0.6C76,13.4,75.8,13.9,75.8,14.5z"/>
			<path id="XMLID_535_" class="st4" d="M82.6,18.8v-7.2h1.1v1c0.5-0.8,1.3-1.2,2.3-1.2c0.4,0,0.8,0.1,1.2,0.2
				c0.4,0.2,0.6,0.4,0.8,0.6s0.3,0.6,0.4,0.9c0,0.2,0.1,0.6,0.1,1.2v4.4h-1.2v-4.4c0-0.5,0-0.9-0.1-1.1c-0.1-0.2-0.3-0.4-0.5-0.6
				c-0.2-0.1-0.5-0.2-0.8-0.2c-0.5,0-1,0.2-1.3,0.5c-0.4,0.3-0.6,1-0.6,1.9v3.9h-1.4V18.8z"/>
			<path id="XMLID_537_" class="st4" d="M92.9,17.7l0.2,1.1c-0.3,0.1-0.6,0.1-0.9,0.1c-0.4,0-0.8-0.1-1-0.2s-0.4-0.3-0.5-0.5
				s-0.1-0.7-0.1-1.4v-4.1h-0.9v-0.9h0.9v-2l1.2-0.7v2.5H93v0.9h-1.2v4.2c0,0.3,0,0.6,0.1,0.7c0,0.1,0.1,0.2,0.2,0.2
				s0.2,0.1,0.4,0.1C92.5,17.7,92.7,17.7,92.9,17.7z"/>
			<path id="XMLID_539_" class="st4" d="M99,16.4l1.3,0.2c-0.2,0.7-0.6,1.3-1.1,1.7c-0.5,0.4-1.2,0.6-2.1,0.6c-1,0-1.9-0.3-2.5-1
				c-0.6-0.6-0.9-1.5-0.9-2.7s0.3-2.1,0.9-2.8c0.6-0.7,1.4-1,2.4-1s1.7,0.3,2.3,1s0.9,1.6,0.9,2.8c0,0.1,0,0.2,0,0.3h-5.3
				c0,0.8,0.3,1.4,0.7,1.8s0.9,0.6,1.5,0.6c0.4,0,0.8-0.1,1.1-0.4C98.6,17.3,98.8,17,99,16.4z M95,14.5h4c-0.1-0.6-0.2-1.1-0.5-1.4
				c-0.4-0.5-0.9-0.7-1.5-0.7s-1,0.2-1.4,0.6C95.3,13.4,95,13.9,95,14.5z"/>
		</g>
		<g id="XMLID_488_">
			<path id="XMLID_489_" class="st4" d="M10.7,39.8v-1.2h3.7v1.2H10.7z"/>
			<path id="XMLID_491_" class="st4" d="M15.8,42.7v-7.2h1.1v1c0.5-0.8,1.3-1.2,2.3-1.2c0.4,0,0.8,0.1,1.2,0.2s0.6,0.4,0.8,0.6
				c0.2,0.3,0.3,0.6,0.4,0.9c0,0.2,0.1,0.6,0.1,1.2v4.4h-1.2v-4.4c0-0.5,0-0.9-0.1-1.1s-0.3-0.4-0.5-0.6c-0.2-0.1-0.5-0.2-0.8-0.2
				c-0.5,0-1,0.2-1.3,0.5c-0.4,0.3-0.6,1-0.6,1.9v3.9L15.8,42.7L15.8,42.7z"/>
			<path id="XMLID_493_" class="st4" d="M23,39.1c0-1.3,0.4-2.3,1.1-2.9c0.6-0.5,1.4-0.8,2.3-0.8c1,0,1.8,0.3,2.4,1s0.9,1.5,0.9,2.7
				c0,0.9-0.1,1.6-0.4,2.2c-0.3,0.5-0.7,0.9-1.2,1.2s-1.1,0.4-1.7,0.4c-1,0-1.8-0.3-2.4-1C23.3,41.3,23,40.4,23,39.1z M24.3,39.1
				c0,0.9,0.2,1.6,0.6,2.1s0.9,0.7,1.5,0.7s1.1-0.2,1.5-0.7s0.6-1.2,0.6-2.1c0-0.9-0.2-1.6-0.6-2c-0.4-0.5-0.9-0.7-1.5-0.7
				s-1.1,0.2-1.5,0.7C24.5,37.5,24.3,38.2,24.3,39.1z"/>
			<path id="XMLID_496_" class="st4" d="M31.2,42.7v-7.2h1.1v1c0.2-0.4,0.5-0.6,0.9-0.8s0.8-0.3,1.3-0.3s1,0.1,1.3,0.3
				s0.6,0.5,0.7,0.9c0.6-0.8,1.3-1.3,2.2-1.3c0.7,0,1.3,0.2,1.6,0.6c0.4,0.4,0.6,1,0.6,1.8v4.9h-1.2v-4.5c0-0.5,0-0.8-0.1-1
				s-0.2-0.4-0.4-0.5s-0.5-0.2-0.7-0.2c-0.5,0-0.9,0.2-1.3,0.5c-0.3,0.3-0.5,0.9-0.5,1.6v4.2h-1.2V38c0-0.5-0.1-0.9-0.3-1.2
				s-0.5-0.4-1-0.4c-0.3,0-0.7,0.1-0.9,0.3c-0.3,0.2-0.5,0.4-0.6,0.8c-0.1,0.3-0.2,0.8-0.2,1.5v3.7C32.5,42.7,31.2,42.7,31.2,42.7z"
				/>
			<path id="XMLID_498_" class="st4" d="M43.8,42.7h-1.1v-9.9h1.2v3.5c0.5-0.6,1.2-1,2-1c0.4,0,0.9,0.1,1.3,0.3s0.7,0.4,1,0.7
				s0.5,0.7,0.6,1.2S49,38.4,49,39c0,1.2-0.3,2.2-0.9,2.8c-0.6,0.7-1.3,1-2.2,1c-0.8,0-1.5-0.4-2-1.1L43.8,42.7L43.8,42.7z
				 M43.8,39.1c0,0.9,0.1,1.5,0.4,1.9c0.4,0.6,0.9,0.9,1.6,0.9c0.5,0,1-0.2,1.4-0.7s0.6-1.1,0.6-2.1c0-0.9-0.2-1.6-0.6-2.1
				s-0.8-0.7-1.3-0.7s-1,0.2-1.4,0.7C44,37.5,43.8,38.2,43.8,39.1z"/>
			<path id="XMLID_501_" class="st4" d="M50.3,42.7v-7.2h1.1v1.1c0.3-0.5,0.5-0.8,0.8-1s0.5-0.2,0.8-0.2c0.4,0,0.8,0.1,1.2,0.4
				l-0.4,1.1c-0.3-0.2-0.6-0.3-0.9-0.3c-0.3,0-0.5,0.1-0.7,0.2c-0.2,0.2-0.4,0.4-0.5,0.7c-0.1,0.4-0.2,0.9-0.2,1.4v3.8H50.3z"/>
			<path id="XMLID_503_" class="st4" d="M59.9,40.4l1.3,0.2c-0.2,0.7-0.6,1.3-1.1,1.7s-1.2,0.6-2.1,0.6c-1,0-1.9-0.3-2.5-1
				c-0.6-0.6-0.9-1.5-0.9-2.7s0.3-2.1,0.9-2.8c0.6-0.7,1.4-1,2.4-1s1.7,0.3,2.3,1s0.9,1.6,0.9,2.8c0,0.1,0,0.2,0,0.3h-5.3
				c0,0.8,0.3,1.4,0.7,1.8s0.9,0.6,1.5,0.6c0.4,0,0.8-0.1,1.1-0.4C59.4,41.3,59.7,40.9,59.9,40.4z M55.9,38.5h4
				c-0.1-0.6-0.2-1.1-0.5-1.4c-0.4-0.5-0.9-0.7-1.5-0.7s-1,0.2-1.4,0.6C56.1,37.3,55.9,37.8,55.9,38.5z"/>
			<path id="XMLID_506_" class="st4" d="M10.7,53.6v-1.2h3.7v1.2H10.7z"/>
			<path id="XMLID_508_" class="st4" d="M20.7,54.2l1.3,0.2c-0.2,0.7-0.6,1.3-1.1,1.7s-1.2,0.6-2.1,0.6c-1,0-1.9-0.3-2.5-1
				c-0.6-0.6-0.9-1.5-0.9-2.7s0.3-2.1,0.9-2.8c0.6-0.7,1.4-1,2.4-1s1.7,0.3,2.3,1c0.6,0.7,0.9,1.6,0.9,2.8c0,0.1,0,0.2,0,0.3h-5.3
				c0,0.8,0.3,1.4,0.7,1.8s0.9,0.6,1.5,0.6c0.4,0,0.8-0.1,1.1-0.4C20.3,55.1,20.5,54.7,20.7,54.2z M16.7,52.3h4
				c-0.1-0.6-0.2-1.1-0.5-1.4c-0.4-0.5-0.9-0.7-1.5-0.7s-1,0.2-1.4,0.6C17,51.1,16.8,51.6,16.7,52.3z"/>
			<path id="XMLID_511_" class="st4" d="M28.1,56.5v-0.9c-0.5,0.7-1.1,1.1-2,1.1c-0.6,0-1.1-0.2-1.6-0.5s-0.8-0.8-1.1-1.3
				C23.2,54.3,23,53.7,23,53s0.1-1.4,0.4-1.9c0.2-0.6,0.6-1,1.1-1.3s1-0.5,1.6-0.5c0.4,0,0.8,0.1,1.2,0.3c0.3,0.2,0.6,0.4,0.8,0.7
				v-3.5h1.2v9.9h-1.2V56.5z M24.3,53c0,0.9,0.2,1.6,0.6,2.1s0.8,0.7,1.4,0.7c0.5,0,1-0.2,1.4-0.7c0.4-0.4,0.6-1.1,0.6-2
				c0-1-0.2-1.7-0.6-2.2s-0.8-0.7-1.4-0.7c-0.5,0-1,0.2-1.4,0.7C24.5,51.3,24.3,52,24.3,53z"/>
			<path id="XMLID_514_" class="st4" d="M35.8,55.7c-0.5,0.4-0.9,0.7-1.3,0.8s-0.9,0.2-1.3,0.2c-0.8,0-1.4-0.2-1.8-0.6
				s-0.6-0.9-0.6-1.5c0-0.4,0.1-0.7,0.2-1c0.2-0.3,0.4-0.5,0.6-0.7s0.5-0.3,0.9-0.4c0.2-0.1,0.6-0.1,1.1-0.2c1-0.1,1.7-0.3,2.2-0.4
				c0-0.2,0-0.3,0-0.3c0-0.5-0.1-0.8-0.3-1c-0.3-0.3-0.8-0.4-1.4-0.4c-0.6,0-1,0.1-1.3,0.3s-0.5,0.6-0.6,1.1L31,51.4
				c0.1-0.5,0.3-0.9,0.5-1.2s0.6-0.6,1.1-0.7c0.5-0.2,1-0.3,1.6-0.3s1.1,0.1,1.5,0.2c0.4,0.1,0.7,0.3,0.8,0.5
				c0.2,0.2,0.3,0.5,0.4,0.8c0,0.2,0.1,0.6,0.1,1.1v1.6c0,1.1,0,1.8,0.1,2.1s0.2,0.6,0.3,0.9h-1.3C36,56.3,35.9,56,35.8,55.7z
				 M35.7,52.9c-0.4,0.2-1.1,0.3-2,0.5c-0.5,0.1-0.9,0.2-1.1,0.2c-0.2,0.1-0.4,0.2-0.5,0.4s-0.2,0.4-0.2,0.6c0,0.3,0.1,0.6,0.4,0.8
				s0.6,0.3,1.1,0.3s0.9-0.1,1.2-0.3c0.4-0.2,0.6-0.5,0.8-0.8c0.1-0.3,0.2-0.7,0.2-1.2L35.7,52.9L35.7,52.9z"/>
			<path id="XMLID_517_" class="st4" d="M43.5,56.5v-0.9c-0.5,0.7-1.1,1.1-2,1.1c-0.6,0-1.1-0.2-1.6-0.5s-0.8-0.8-1.1-1.3
				c-0.3-0.6-0.4-1.2-0.4-1.9s0.1-1.4,0.4-1.9c0.2-0.6,0.6-1,1.1-1.3s1-0.5,1.6-0.5c0.4,0,0.8,0.1,1.2,0.3c0.3,0.2,0.6,0.4,0.8,0.7
				v-3.5h1.2v9.9h-1.2V56.5z M39.7,53c0,0.9,0.2,1.6,0.6,2.1c0.4,0.5,0.8,0.7,1.4,0.7c0.5,0,1-0.2,1.4-0.7c0.4-0.4,0.6-1.1,0.6-2
				c0-1-0.2-1.7-0.6-2.2c-0.4-0.5-0.8-0.7-1.4-0.7c-0.5,0-1,0.2-1.4,0.7C39.8,51.3,39.7,52,39.7,53z"/>
		</g>
		<g id="XMLID_448_">
			<path id="XMLID_449_" class="st4" d="M13.7,86.3v-2.7H11v-1.1h2.7v-2.7h1.1v2.7h2.7v1.1h-2.7v2.7H13.7z"/>
			<path id="XMLID_451_" class="st4" d="M23.9,85.3l1.2,0.2c-0.1,0.8-0.5,1.5-1,1.9c-0.5,0.5-1.2,0.7-2,0.7c-1,0-1.8-0.3-2.4-1
				c-0.6-0.6-0.9-1.6-0.9-2.8c0-0.8,0.1-1.5,0.4-2c0.3-0.6,0.6-1,1.2-1.3c0.5-0.3,1.1-0.4,1.7-0.4c0.8,0,1.4,0.2,1.9,0.6
				s0.8,1,1,1.7l-1.2,0.2c-0.1-0.5-0.3-0.8-0.6-1.1c-0.3-0.2-0.6-0.4-1-0.4c-0.6,0-1.1,0.2-1.5,0.7c-0.4,0.4-0.6,1.1-0.6,2.1
				s0.2,1.7,0.6,2.1s0.8,0.7,1.4,0.7c0.5,0,0.9-0.1,1.2-0.4C23.6,86.4,23.9,85.9,23.9,85.3z"/>
			<path id="XMLID_453_" class="st4" d="M25.7,84.4c0-1.3,0.4-2.3,1.1-2.9c0.6-0.5,1.4-0.8,2.3-0.8c1,0,1.8,0.3,2.4,1
				c0.6,0.6,0.9,1.5,0.9,2.7c0,0.9-0.1,1.6-0.4,2.2c-0.3,0.5-0.7,0.9-1.2,1.2c-0.5,0.3-1.1,0.4-1.7,0.4c-1,0-1.8-0.3-2.4-1
				S25.7,85.6,25.7,84.4z M27,84.4c0,0.9,0.2,1.6,0.6,2.1s0.9,0.7,1.5,0.7s1.1-0.2,1.5-0.7s0.6-1.2,0.6-2.1s-0.2-1.6-0.6-2
				c-0.4-0.5-0.9-0.7-1.5-0.7s-1.1,0.2-1.5,0.7C27.2,82.8,27,83.4,27,84.4z"/>
			<path id="XMLID_456_" class="st4" d="M33.9,87.9v-7.2H35v1c0.5-0.8,1.3-1.2,2.3-1.2c0.4,0,0.8,0.1,1.2,0.2
				c0.4,0.2,0.6,0.4,0.8,0.6s0.3,0.6,0.4,0.9c0,0.2,0.1,0.6,0.1,1.2v4.4h-1.2v-4.4c0-0.5,0-0.9-0.1-1.1s-0.3-0.4-0.5-0.6
				c-0.2-0.1-0.5-0.2-0.8-0.2c-0.5,0-1,0.2-1.3,0.5c-0.4,0.3-0.6,1-0.6,1.9v3.9L33.9,87.9L33.9,87.9z"/>
			<path id="XMLID_458_" class="st4" d="M41.1,85.8l1.2-0.2c0.1,0.5,0.3,0.8,0.6,1.1c0.3,0.3,0.7,0.4,1.3,0.4s1-0.1,1.2-0.3
				c0.3-0.2,0.4-0.5,0.4-0.8s-0.1-0.5-0.4-0.6c-0.2-0.1-0.6-0.2-1.2-0.4c-0.9-0.2-1.5-0.4-1.9-0.6c-0.3-0.2-0.6-0.4-0.8-0.7
				s-0.3-0.6-0.3-1c0-0.3,0.1-0.6,0.2-0.9c0.1-0.3,0.3-0.5,0.6-0.7c0.2-0.1,0.4-0.3,0.8-0.4s0.7-0.1,1-0.1c0.6,0,1.1,0.1,1.5,0.2
				c0.4,0.2,0.7,0.4,0.9,0.7c0.2,0.3,0.3,0.6,0.4,1.1l-1.2,0.2c-0.1-0.4-0.2-0.7-0.5-0.9c-0.3-0.2-0.6-0.3-1.1-0.3
				c-0.6,0-1,0.1-1.2,0.3s-0.4,0.4-0.4,0.6s0,0.3,0.1,0.4s0.3,0.2,0.5,0.3c0.1,0,0.5,0.1,1.1,0.3c0.9,0.2,1.5,0.4,1.8,0.6
				c0.3,0.1,0.6,0.4,0.8,0.6c0.2,0.3,0.3,0.6,0.3,1s-0.1,0.8-0.4,1.1c-0.2,0.4-0.6,0.6-1,0.8c-0.4,0.2-0.9,0.3-1.5,0.3
				c-0.9,0-1.6-0.2-2.1-0.6C41.5,87.1,41.2,86.6,41.1,85.8z"/>
			<path id="XMLID_460_" class="st4" d="M53.1,87.9v-1.1c-0.6,0.8-1.3,1.2-2.3,1.2c-0.4,0-0.8-0.1-1.2-0.2s-0.6-0.4-0.8-0.6
				s-0.3-0.5-0.4-0.9c0-0.2-0.1-0.6-0.1-1.1v-4.4h1.2v4c0,0.6,0,1.1,0.1,1.3c0.1,0.3,0.2,0.6,0.5,0.8c0.2,0.2,0.6,0.3,0.9,0.3
				s0.7-0.1,1-0.3s0.5-0.4,0.7-0.8c0.1-0.3,0.2-0.8,0.2-1.4v-3.8h1.2v7.2h-1V87.9z"/>
			<path id="XMLID_462_" class="st4" d="M56.1,87.9V78h1.2v9.9H56.1z"/>
			<path id="XMLID_464_" class="st4" d="M61.9,86.9l0.2,1.1c-0.4,0-0.7,0-1,0c-0.4,0-0.8-0.1-1-0.2s-0.4-0.3-0.5-0.5
				s-0.1-0.7-0.1-1.4v-4.1h-0.9v-0.9h0.9V79l1.2-0.7v2.5h1.2v0.9h-1.2v4.2c0,0.3,0,0.6,0.1,0.7c0,0.1,0.1,0.2,0.2,0.2
				s0.2,0.1,0.4,0.1C61.5,86.9,61.6,86.9,61.9,86.9z"/>
			<path id="XMLID_466_" class="st4" d="M67.7,87.1c-0.5,0.4-0.9,0.7-1.3,0.8s-0.9,0.2-1.3,0.2c-0.8,0-1.4-0.2-1.8-0.6
				s-0.6-0.9-0.6-1.5c0-0.4,0.1-0.7,0.2-1c0.2-0.3,0.4-0.5,0.6-0.7s0.5-0.3,0.9-0.4c0.2-0.1,0.6-0.1,1.1-0.2c1-0.1,1.7-0.3,2.2-0.4
				c0-0.2,0-0.3,0-0.3c0-0.5-0.1-0.8-0.3-1c-0.3-0.3-0.8-0.4-1.4-0.4s-1,0.1-1.3,0.3c-0.3,0.2-0.5,0.6-0.6,1.1l-1.2-0.2
				c0.1-0.5,0.3-0.9,0.5-1.2c0.2-0.3,0.6-0.6,1.1-0.7c0.5-0.2,1-0.3,1.6-0.3s1.1,0.1,1.5,0.2s0.7,0.3,0.8,0.5
				c0.2,0.2,0.3,0.5,0.4,0.8c0,0.2,0.1,0.6,0.1,1.1v1.6c0,1.1,0,1.8,0.1,2.1c0.1,0.3,0.2,0.6,0.3,0.9H68
				C67.8,87.7,67.8,87.4,67.7,87.1z M67.6,84.3c-0.4,0.2-1.1,0.3-2,0.5c-0.5,0.1-0.9,0.2-1.1,0.2s-0.4,0.2-0.5,0.4
				c-0.1,0.2-0.2,0.4-0.2,0.6c0,0.3,0.1,0.6,0.4,0.8c0.3,0.2,0.6,0.3,1.1,0.3s0.9-0.1,1.2-0.3c0.4-0.2,0.6-0.5,0.8-0.8
				c0.1-0.3,0.2-0.7,0.2-1.2v-0.5H67.6z"/>
			<path id="XMLID_469_" class="st4" d="M70.7,87.9v-7.2h1.1v1.1c0.3-0.5,0.5-0.8,0.8-1c0.2-0.2,0.5-0.2,0.8-0.2
				c0.4,0,0.8,0.1,1.2,0.4l-0.4,1.1c-0.3-0.2-0.6-0.3-0.9-0.3s-0.5,0.1-0.7,0.2c-0.2,0.2-0.4,0.4-0.5,0.7c-0.1,0.4-0.2,0.9-0.2,1.4
				v3.8H70.7z"/>
			<path id="XMLID_471_" class="st4" d="M75.5,87.9V78h3.4c0.8,0,1.4,0,1.8,0.1c0.6,0.1,1.1,0.4,1.5,0.7c0.5,0.4,0.9,1,1.2,1.7
				c0.3,0.7,0.4,1.5,0.4,2.4c0,0.8-0.1,1.4-0.3,2S83,86,82.7,86.4s-0.6,0.7-0.9,0.9c-0.3,0.2-0.7,0.4-1.2,0.5S79.6,88,79,88
				L75.5,87.9L75.5,87.9z M76.8,86.8h2.1c0.7,0,1.2-0.1,1.5-0.2c0.4-0.1,0.7-0.3,0.9-0.5c0.3-0.3,0.6-0.7,0.7-1.3
				c0.2-0.5,0.3-1.2,0.3-1.9c0-1-0.2-1.8-0.5-2.4s-0.8-0.9-1.2-1.1c-0.4-0.1-0.9-0.2-1.7-0.2h-2.1C76.8,79.2,76.8,86.8,76.8,86.8z"
				/>
			<path id="XMLID_474_" class="st4" d="M90,87.1c-0.5,0.4-0.9,0.7-1.3,0.8s-0.9,0.2-1.3,0.2c-0.8,0-1.4-0.2-1.8-0.6S85,86.6,85,86
				c0-0.4,0.1-0.7,0.2-1c0.2-0.3,0.4-0.5,0.6-0.7s0.5-0.3,0.9-0.4c0.2-0.1,0.6-0.1,1.1-0.2c1-0.1,1.7-0.3,2.2-0.4c0-0.2,0-0.3,0-0.3
				c0-0.5-0.1-0.8-0.3-1c-0.3-0.3-0.8-0.4-1.4-0.4s-1,0.1-1.3,0.3c-0.3,0.2-0.5,0.6-0.6,1.1l-1.2-0.2c0.1-0.5,0.3-0.9,0.5-1.2
				c0.2-0.3,0.6-0.6,1.1-0.7c0.5-0.2,1-0.3,1.6-0.3s1.1,0.1,1.5,0.2s0.7,0.3,0.8,0.5c0.2,0.2,0.3,0.5,0.4,0.8c0,0.2,0.1,0.6,0.1,1.1
				v1.6c0,1.1,0,1.8,0.1,2.1c0.1,0.3,0.2,0.6,0.3,0.9h-1.3C90.1,87.7,90,87.4,90,87.1z M89.9,84.3c-0.4,0.2-1.1,0.3-2,0.5
				C87.4,84.9,87,85,86.8,85s-0.4,0.2-0.5,0.4c-0.1,0.2-0.2,0.4-0.2,0.6c0,0.3,0.1,0.6,0.4,0.8s0.6,0.3,1.1,0.3s0.9-0.1,1.2-0.3
				c0.4-0.2,0.6-0.5,0.8-0.8c0.1-0.3,0.2-0.7,0.2-1.2L89.9,84.3L89.9,84.3z"/>
			<path id="XMLID_477_" class="st4" d="M95.6,86.9l0.2,1.1c-0.3,0-0.6,0-0.9,0c-0.4,0-0.8-0.1-1-0.2s-0.4-0.3-0.5-0.5
				s-0.1-0.7-0.1-1.4v-4.1h-0.9v-0.9h0.9V79l1.2-0.7v2.5h1.2v0.9h-1.2v4.2c0,0.3,0,0.6,0.1,0.7c0,0.1,0.1,0.2,0.2,0.2
				s0.2,0.1,0.4,0.1C95.2,86.9,95.4,86.9,95.6,86.9z"/>
			<path id="XMLID_479_" class="st4" d="M96.4,84.4c0-1.3,0.4-2.3,1.1-2.9c0.6-0.5,1.4-0.8,2.3-0.8c1,0,1.8,0.3,2.4,1
				s0.9,1.5,0.9,2.7c0,0.9-0.1,1.6-0.4,2.2s-0.7,0.9-1.2,1.2c-0.5,0.3-1.1,0.4-1.7,0.4c-1,0-1.8-0.3-2.4-1S96.4,85.6,96.4,84.4z
				 M97.6,84.4c0,0.9,0.2,1.6,0.6,2.1s0.9,0.7,1.5,0.7s1.1-0.2,1.5-0.7s0.6-1.2,0.6-2.1s-0.2-1.6-0.6-2c-0.4-0.5-0.9-0.7-1.5-0.7
				s-1.1,0.2-1.5,0.7C97.8,82.8,97.6,83.4,97.6,84.4z"/>
			<path id="XMLID_482_" class="st4" d="M104,85.8l1.2-0.2c0.1,0.5,0.3,0.8,0.6,1.1c0.3,0.3,0.7,0.4,1.3,0.4c0.6,0,1-0.1,1.2-0.3
				c0.3-0.2,0.4-0.5,0.4-0.8s-0.1-0.5-0.4-0.6c-0.2-0.1-0.6-0.2-1.2-0.4c-0.9-0.2-1.5-0.4-1.9-0.6c-0.3-0.2-0.6-0.4-0.8-0.7
				s-0.3-0.6-0.3-1c0-0.3,0.1-0.6,0.2-0.9s0.3-0.5,0.6-0.7c0.2-0.1,0.4-0.3,0.8-0.4s0.7-0.1,1-0.1c0.6,0,1.1,0.1,1.5,0.2
				c0.4,0.2,0.7,0.4,0.9,0.7c0.2,0.3,0.3,0.6,0.4,1.1l-1.2,0.2c-0.1-0.4-0.2-0.7-0.5-0.9c-0.3-0.2-0.6-0.3-1.1-0.3
				c-0.6,0-1,0.1-1.2,0.3s-0.4,0.4-0.4,0.6s0,0.3,0.1,0.4s0.3,0.2,0.5,0.3c0.1,0,0.5,0.1,1.1,0.3c0.9,0.2,1.5,0.4,1.8,0.6
				c0.3,0.1,0.6,0.4,0.8,0.6c0.2,0.3,0.3,0.6,0.3,1s-0.1,0.8-0.4,1.1c-0.2,0.4-0.6,0.6-1,0.8c-0.4,0.2-0.9,0.3-1.5,0.3
				c-0.9,0-1.6-0.2-2.1-0.6C104.5,87.1,104.2,86.6,104,85.8z"/>
			<path id="XMLID_484_" class="st4" d="M113.7,90.9c-0.7-0.8-1.2-1.8-1.7-3c-0.5-1.1-0.7-2.3-0.7-3.5c0-1.1,0.2-2.1,0.5-3.1
				c0.4-1.1,1-2.3,1.9-3.4h0.9c-0.5,0.9-0.9,1.6-1.1,2c-0.3,0.6-0.5,1.3-0.6,1.9c-0.2,0.8-0.3,1.7-0.3,2.5c0,2.2,0.7,4.3,2,6.5
				L113.7,90.9L113.7,90.9z"/>
			<path id="XMLID_486_" class="st4" d="M116.8,90.9h-0.9c1.3-2.2,2-4.3,2-6.5c0-0.8-0.1-1.7-0.3-2.5c-0.2-0.7-0.4-1.3-0.6-1.9
				c-0.2-0.4-0.5-1.1-1.1-2h0.9c0.8,1.1,1.5,2.3,1.9,3.4c0.3,1,0.5,2,0.5,3.1c0,1.2-0.2,2.4-0.7,3.5C118.1,89,117.5,90,116.8,90.9z"
				/>
		</g>
		<line id="XMLID_14332_" class="st5" x1="2.5" y1="25.5" x2="145.1" y2="25.5"/>
		<line id="XMLID_14331_" class="st5" x1="2.5" y1="65.4" x2="145.1" y2="65.4"/>
	</g>
	<g id="XMLID_15769_">
		<g id="XMLID_17113_">
			<rect id="XMLID_47_" x="285.5" y="1.3" class="st3" width="145.1" height="102.5"/>
			<g id="XMLID_43_">
				<path id="XMLID_44_" class="st1" d="M429.4,2.5v100H286.8V2.5H429.4 M431.9,0h-2.5H286.8h-2.5v2.5v100v2.5h2.5h142.6h2.5v-2.5
					V2.5V0L431.9,0z"/>
			</g>
		</g>
		<g id="XMLID_437_">
			<path id="XMLID_438_" class="st4" d="M352.2,15.3l1.3,0.3c-0.3,1.1-0.8,1.9-1.5,2.5s-1.6,0.8-2.6,0.8c-1.1,0-1.9-0.2-2.6-0.7
				c-0.7-0.4-1.2-1.1-1.5-1.9c-0.3-0.8-0.5-1.7-0.5-2.7s0.2-1.9,0.6-2.7s1-1.3,1.7-1.7s1.5-0.6,2.4-0.6c1,0,1.8,0.3,2.5,0.8
				s1.1,1.2,1.4,2.1l-1.3,0.3c-0.2-0.7-0.6-1.2-1-1.6c-0.4-0.3-1-0.5-1.6-0.5c-0.8,0-1.4,0.2-1.9,0.5c-0.5,0.4-0.9,0.9-1.1,1.5
				s-0.3,1.2-0.3,1.9c0,0.8,0.1,1.6,0.4,2.2c0.2,0.6,0.6,1.1,1.1,1.4s1.1,0.5,1.7,0.5c0.7,0,1.4-0.2,1.9-0.6
				C351.6,16.7,352,16.1,352.2,15.3z"/>
			<path id="XMLID_440_" class="st4" d="M354.9,10.3V8.9h1.2v1.4C356.1,10.3,354.9,10.3,354.9,10.3z M354.9,18.8v-7.2h1.2v7.2H354.9
				z"/>
			<path id="XMLID_4_" class="st4" d="M367.1,17.7c-0.5,0.4-0.9,0.7-1.3,0.8c-0.4,0.1-0.9,0.2-1.3,0.2c-0.8,0-1.4-0.2-1.8-0.6
				s-0.6-0.9-0.6-1.5c0-0.4,0.1-0.7,0.2-1c0.2-0.3,0.4-0.5,0.6-0.7c0.2-0.2,0.5-0.3,0.9-0.4c0.2-0.1,0.6-0.1,1.1-0.2
				c1-0.1,1.7-0.3,2.2-0.4c0-0.2,0-0.3,0-0.3c0-0.5-0.1-0.8-0.3-1c-0.3-0.3-0.8-0.4-1.4-0.4c-0.6,0-1,0.1-1.3,0.3s-0.5,0.6-0.6,1.1
				l-1.3-0.2c0.1-0.5,0.3-0.9,0.5-1.2c0.2-0.3,0.6-0.6,1.1-0.7c0.5-0.2,1-0.3,1.6-0.3s1.1,0.1,1.5,0.2c0.4,0.1,0.7,0.3,0.8,0.5
				c0.2,0.2,0.3,0.5,0.4,0.8c0,0.2,0.1,0.6,0.1,1.1v1.6c0,1.1,0,1.8,0.1,2.1c0.1,0.3,0.2,0.6,0.3,0.9h-1.3
				C367.2,18.3,367.1,18,367.1,17.7z M367,15c-0.4,0.2-1.1,0.3-2,0.5c-0.5,0.1-0.9,0.2-1.1,0.2c-0.2,0-0.4,0.2-0.5,0.4
				c-0.1,0.2-0.2,0.4-0.2,0.6c0,0.3,0.1,0.6,0.4,0.8c0.3,0.2,0.6,0.3,1.1,0.3s0.9-0.1,1.2-0.3c0.4-0.2,0.6-0.5,0.8-0.8
				c0.1-0.3,0.2-0.7,0.2-1.2V15H367z"/>
			<path id="XMLID_1_" class="st4" d="M360.6,17.5l0.2,1.1c-0.3,0.1-0.6,0.1-0.9,0.1c-0.4,0-0.8-0.1-1-0.2c-0.2-0.1-0.4-0.3-0.5-0.5
				c-0.1-0.2-0.1-0.7-0.1-1.4v-4.1h-0.9v-0.9h0.9v-2l1.2-0.7v2.5h1.2v0.9h-1.2v4.2c0,0.3,0,0.6,0.1,0.7c0,0.1,0.1,0.2,0.2,0.2
				c0.1,0,0.2,0.1,0.4,0.1C360.2,17.5,360.4,17.5,360.6,17.5z"/>
		</g>
		<g id="XMLID_406_">
			<path id="XMLID_407_" class="st4" d="M295,39.8v-1.2h3.7v1.2H295z"/>
			<path id="XMLID_409_" class="st4" d="M300.1,42.7v-7.2h1.1v1c0.5-0.8,1.3-1.2,2.3-1.2c0.4,0,0.8,0.1,1.2,0.2s0.6,0.4,0.8,0.6
				c0.2,0.3,0.3,0.6,0.4,0.9c0,0.2,0.1,0.6,0.1,1.2v4.4h-1.2v-4.4c0-0.5,0-0.9-0.1-1.1s-0.3-0.4-0.5-0.6c-0.2-0.1-0.5-0.2-0.8-0.2
				c-0.5,0-1,0.2-1.3,0.5c-0.4,0.3-0.6,1-0.6,1.9v3.9L300.1,42.7L300.1,42.7z"/>
			<path id="XMLID_411_" class="st4" d="M312.5,42.7v-1.1c-0.6,0.8-1.3,1.2-2.3,1.2c-0.4,0-0.8-0.1-1.2-0.2s-0.6-0.4-0.8-0.6
				s-0.3-0.5-0.4-0.9c0-0.2-0.1-0.6-0.1-1.1v-4.4h1.2v4c0,0.6,0,1.1,0.1,1.3c0.1,0.3,0.2,0.6,0.5,0.8c0.2,0.2,0.6,0.3,0.9,0.3
				s0.7-0.1,1-0.3s0.5-0.4,0.7-0.8c0.1-0.3,0.2-0.8,0.2-1.4v-3.8h1.2v7.2h-1V42.7z"/>
			<path id="XMLID_413_" class="st4" d="M315.4,42.7v-7.2h1.1v1c0.2-0.4,0.5-0.6,0.9-0.8s0.8-0.3,1.3-0.3s1,0.1,1.3,0.3
				s0.6,0.5,0.7,0.9c0.6-0.8,1.3-1.3,2.2-1.3c0.7,0,1.3,0.2,1.6,0.6c0.4,0.4,0.6,1,0.6,1.8v4.9h-1.2v-4.5c0-0.5,0-0.8-0.1-1
				s-0.2-0.4-0.4-0.5c-0.2-0.1-0.5-0.2-0.7-0.2c-0.5,0-0.9,0.2-1.3,0.5c-0.3,0.3-0.5,0.9-0.5,1.6v4.2h-1.2V38c0-0.5-0.1-0.9-0.3-1.2
				c-0.2-0.3-0.5-0.4-1-0.4c-0.3,0-0.7,0.1-0.9,0.3c-0.3,0.2-0.5,0.4-0.6,0.8c-0.1,0.3-0.2,0.8-0.2,1.5v3.7
				C316.7,42.7,315.4,42.7,315.4,42.7z"/>
			<path id="XMLID_415_" class="st4" d="M331.9,40.4l1.3,0.2c-0.2,0.7-0.6,1.3-1.1,1.7s-1.2,0.6-2.1,0.6c-1,0-1.9-0.3-2.5-1
				c-0.6-0.6-0.9-1.5-0.9-2.7s0.3-2.1,0.9-2.8s1.4-1,2.4-1s1.7,0.3,2.3,1c0.6,0.7,0.9,1.6,0.9,2.8c0,0.1,0,0.2,0,0.3h-5.3
				c0,0.8,0.3,1.4,0.7,1.8s0.9,0.6,1.5,0.6c0.4,0,0.8-0.1,1.1-0.4C331.4,41.3,331.7,40.9,331.9,40.4z M327.9,38.5h4
				c-0.1-0.6-0.2-1.1-0.5-1.4c-0.4-0.5-0.9-0.7-1.5-0.7s-1,0.2-1.4,0.6C328.1,37.3,327.9,37.8,327.9,38.5z"/>
			<path id="XMLID_418_" class="st4" d="M334.6,42.7v-7.2h1.1v1.1c0.3-0.5,0.5-0.8,0.8-1s0.5-0.2,0.8-0.2c0.4,0,0.8,0.1,1.2,0.4
				l-0.4,1.1c-0.3-0.2-0.6-0.3-0.9-0.3s-0.5,0.1-0.7,0.2c-0.2,0.2-0.4,0.4-0.5,0.7c-0.1,0.4-0.2,0.9-0.2,1.4v3.8H334.6z"/>
			<path id="XMLID_420_" class="st4" d="M338.8,39.1c0-1.3,0.4-2.3,1.1-2.9c0.6-0.5,1.4-0.8,2.3-0.8c1,0,1.8,0.3,2.4,1
				s0.9,1.5,0.9,2.7c0,0.9-0.1,1.6-0.4,2.2s-0.7,0.9-1.2,1.2s-1.1,0.4-1.7,0.4c-1,0-1.8-0.3-2.4-1S338.8,40.4,338.8,39.1z M340,39.1
				c0,0.9,0.2,1.6,0.6,2.1s0.9,0.7,1.5,0.7s1.1-0.2,1.5-0.7s0.6-1.2,0.6-2.1c0-0.9-0.2-1.6-0.6-2c-0.4-0.5-0.9-0.7-1.5-0.7
				s-1.1,0.2-1.5,0.7C340.2,37.5,340,38.2,340,39.1z"/>
			<path id="XMLID_423_" class="st4" d="M295,53.6v-1.2h3.7v1.2H295z"/>
			<path id="XMLID_425_" class="st4" d="M300.4,56.5v-6.2h-1.1v-0.9h1.1v-0.8c0-0.5,0-0.8,0.1-1.1s0.3-0.6,0.6-0.8
				c0.3-0.2,0.7-0.3,1.2-0.3c0.3,0,0.7,0,1.1,0.1l-0.2,1.1c-0.3,0-0.5-0.1-0.7-0.1c-0.4,0-0.6,0.1-0.8,0.2s-0.2,0.5-0.2,0.9v0.7h1.4
				v0.9h-1.4v6.2L300.4,56.5L300.4,56.5z"/>
			<path id="XMLID_427_" class="st4" d="M308.8,54.2l1.3,0.2c-0.2,0.7-0.6,1.3-1.1,1.7s-1.2,0.6-2.1,0.6c-1,0-1.9-0.3-2.5-1
				c-0.6-0.6-0.9-1.5-0.9-2.7s0.3-2.1,0.9-2.8s1.4-1,2.4-1s1.7,0.3,2.3,1c0.6,0.7,0.9,1.6,0.9,2.8c0,0.1,0,0.2,0,0.3h-5.3
				c0,0.8,0.3,1.4,0.7,1.8s0.9,0.6,1.5,0.6c0.4,0,0.8-0.1,1.1-0.4C308.4,55.1,308.6,54.7,308.8,54.2z M304.8,52.3h4
				c-0.1-0.6-0.2-1.1-0.5-1.4c-0.4-0.5-0.9-0.7-1.5-0.7s-1,0.2-1.4,0.6C305.1,51.1,304.9,51.6,304.8,52.3z"/>
			<path id="XMLID_430_" class="st4" d="M316.3,53.9l1.2,0.2c-0.1,0.8-0.5,1.5-1,1.9c-0.5,0.5-1.2,0.7-2,0.7c-1,0-1.8-0.3-2.4-1
				c-0.6-0.6-0.9-1.6-0.9-2.8c0-0.8,0.1-1.5,0.4-2c0.3-0.6,0.6-1,1.2-1.3c0.5-0.3,1.1-0.4,1.7-0.4c0.8,0,1.4,0.2,1.9,0.6
				c0.5,0.4,0.8,1,1,1.7l-1.2,0.2c-0.1-0.5-0.3-0.8-0.6-1.1c-0.3-0.2-0.6-0.4-1-0.4c-0.6,0-1.1,0.2-1.5,0.7
				c-0.4,0.4-0.6,1.1-0.6,2.1s0.2,1.7,0.6,2.1c0.4,0.4,0.8,0.7,1.4,0.7c0.5,0,0.9-0.1,1.2-0.4C316,55,316.2,54.5,316.3,53.9z"/>
			<path id="XMLID_432_" class="st4" d="M318.5,56.5v-9.9h1.2v3.5c0.6-0.7,1.3-1,2.1-1c0.5,0,1,0.1,1.4,0.3s0.7,0.5,0.8,0.9
				c0.2,0.4,0.3,0.9,0.3,1.6v4.5h-1.2V52c0-0.6-0.1-1-0.4-1.3s-0.6-0.4-1.1-0.4c-0.4,0-0.7,0.1-1,0.3s-0.5,0.4-0.7,0.8
				s-0.2,0.8-0.2,1.3v3.9L318.5,56.5L318.5,56.5z"/>
			<path id="XMLID_434_" class="st4" d="M330.9,55.7c-0.5,0.4-0.9,0.7-1.3,0.8s-0.9,0.2-1.3,0.2c-0.8,0-1.4-0.2-1.8-0.6
				s-0.6-0.9-0.6-1.5c0-0.4,0.1-0.7,0.2-1c0.2-0.3,0.4-0.5,0.6-0.7s0.5-0.3,0.9-0.4c0.2-0.1,0.6-0.1,1.1-0.2c1-0.1,1.7-0.3,2.2-0.4
				c0-0.2,0-0.3,0-0.3c0-0.5-0.1-0.8-0.3-1c-0.3-0.3-0.8-0.4-1.4-0.4s-1,0.1-1.3,0.3s-0.5,0.6-0.6,1.1l-1.2-0.2
				c0.1-0.5,0.3-0.9,0.5-1.2s0.6-0.6,1.1-0.7c0.5-0.2,1-0.3,1.6-0.3s1.1,0.1,1.5,0.2c0.4,0.1,0.7,0.3,0.8,0.5
				c0.2,0.2,0.3,0.5,0.4,0.8c0,0.2,0.1,0.6,0.1,1.1v1.6c0,1.1,0,1.8,0.1,2.1s0.2,0.6,0.3,0.9h-1.3C331,56.3,330.9,56,330.9,55.7z
				 M330.8,52.9c-0.4,0.2-1.1,0.3-2,0.5c-0.5,0.1-0.9,0.2-1.1,0.2s-0.4,0.2-0.5,0.4s-0.2,0.4-0.2,0.6c0,0.3,0.1,0.6,0.4,0.8
				s0.6,0.3,1.1,0.3s0.9-0.1,1.2-0.3c0.4-0.2,0.6-0.5,0.8-0.8c0.1-0.3,0.2-0.7,0.2-1.2v-0.5H330.8z"/>
		</g>
		<g id="XMLID_369_">
			<path id="XMLID_370_" class="st4" d="M298,86.3v-2.7h-2.7v-1.1h2.7v-2.7h1.1v2.7h2.7v1.1h-2.7v2.7H298z"/>
			<path id="XMLID_372_" class="st4" d="M308.2,85.3l1.2,0.2c-0.1,0.8-0.5,1.5-1,1.9c-0.5,0.5-1.2,0.7-2,0.7c-1,0-1.8-0.3-2.4-1
				c-0.6-0.6-0.9-1.6-0.9-2.8c0-0.8,0.1-1.5,0.4-2c0.3-0.6,0.6-1,1.2-1.3c0.5-0.3,1.1-0.4,1.7-0.4c0.8,0,1.4,0.2,1.9,0.6
				s0.8,1,1,1.7l-1.2,0.2c-0.1-0.5-0.3-0.8-0.6-1.1c-0.3-0.2-0.6-0.4-1-0.4c-0.6,0-1.1,0.2-1.5,0.7c-0.4,0.4-0.6,1.1-0.6,2.1
				s0.2,1.7,0.6,2.1s0.8,0.7,1.4,0.7c0.5,0,0.9-0.1,1.2-0.4C307.9,86.4,308.1,85.9,308.2,85.3z"/>
			<path id="XMLID_374_" class="st4" d="M315.1,87.1c-0.5,0.4-0.9,0.7-1.3,0.8s-0.9,0.2-1.3,0.2c-0.8,0-1.4-0.2-1.8-0.6
				s-0.6-0.9-0.6-1.5c0-0.4,0.1-0.7,0.2-1c0.2-0.3,0.4-0.5,0.6-0.7s0.5-0.3,0.9-0.4c0.2-0.1,0.6-0.1,1.1-0.2c1-0.1,1.7-0.3,2.2-0.4
				c0-0.2,0-0.3,0-0.3c0-0.5-0.1-0.8-0.3-1c-0.3-0.3-0.8-0.4-1.4-0.4s-1,0.1-1.3,0.3c-0.3,0.2-0.5,0.6-0.6,1.1l-1.2-0.2
				c0.1-0.5,0.3-0.9,0.5-1.2c0.2-0.3,0.6-0.6,1.1-0.7c0.5-0.2,1-0.3,1.6-0.3s1.1,0.1,1.5,0.2s0.7,0.3,0.8,0.5
				c0.2,0.2,0.3,0.5,0.4,0.8c0,0.2,0.1,0.6,0.1,1.1v1.6c0,1.1,0,1.8,0.1,2.1c0.1,0.3,0.2,0.6,0.3,0.9h-1.3
				C315.2,87.7,315.2,87.4,315.1,87.1z M315,84.3c-0.4,0.2-1.1,0.3-2,0.5c-0.5,0.1-0.9,0.2-1.1,0.2s-0.4,0.2-0.5,0.4
				c-0.1,0.2-0.2,0.4-0.2,0.6c0,0.3,0.1,0.6,0.4,0.8s0.6,0.3,1.1,0.3s0.9-0.1,1.2-0.3c0.4-0.2,0.6-0.5,0.8-0.8
				c0.1-0.3,0.2-0.7,0.2-1.2v-0.5H315z"/>
			<path id="XMLID_377_" class="st4" d="M318.1,87.9v-7.2h1.1v1c0.2-0.4,0.5-0.6,0.9-0.8c0.4-0.2,0.8-0.3,1.3-0.3s1,0.1,1.3,0.3
				c0.3,0.2,0.6,0.5,0.7,0.9c0.6-0.8,1.3-1.3,2.2-1.3c0.7,0,1.3,0.2,1.6,0.6c0.4,0.4,0.6,1,0.6,1.8v4.9h-1.2v-4.5c0-0.5,0-0.8-0.1-1
				s-0.2-0.4-0.4-0.5c-0.2-0.1-0.5-0.2-0.7-0.2c-0.5,0-0.9,0.2-1.3,0.5s-0.5,0.9-0.5,1.6v4.2h-1.2v-4.7c0-0.5-0.1-0.9-0.3-1.2
				c-0.2-0.3-0.5-0.4-1-0.4c-0.3,0-0.7,0.1-0.9,0.3c-0.3,0.2-0.5,0.4-0.6,0.8c-0.1,0.3-0.2,0.8-0.2,1.5v3.7
				C319.4,87.9,318.1,87.9,318.1,87.9z"/>
			<path id="XMLID_379_" class="st4" d="M330.8,87.9h-1.1V78h1.2v3.5c0.5-0.6,1.2-1,2-1c0.4,0,0.9,0.1,1.3,0.3s0.7,0.4,1,0.7
				s0.5,0.7,0.6,1.2s0.2,0.9,0.2,1.5c0,1.2-0.3,2.2-0.9,2.8c-0.6,0.7-1.3,1-2.2,1c-0.8,0-1.5-0.4-2-1.1v1H330.8z M330.8,84.3
				c0,0.9,0.1,1.5,0.4,1.9c0.4,0.6,0.9,0.9,1.6,0.9c0.5,0,1-0.2,1.4-0.7s0.6-1.1,0.6-2.1c0-0.9-0.2-1.6-0.6-2.1s-0.8-0.7-1.3-0.7
				s-1,0.2-1.4,0.7S330.8,83.4,330.8,84.3z"/>
			<path id="XMLID_382_" class="st4" d="M337.3,79.4V78h1.2v1.4H337.3z M337.3,87.9v-7.2h1.2v7.2H337.3z"/>
			<path id="XMLID_385_" class="st4" d="M345.1,87.1c-0.5,0.4-0.9,0.7-1.3,0.8s-0.9,0.2-1.3,0.2c-0.8,0-1.4-0.2-1.8-0.6
				s-0.6-0.9-0.6-1.5c0-0.4,0.1-0.7,0.2-1c0.2-0.3,0.4-0.5,0.6-0.7s0.5-0.3,0.9-0.4c0.2-0.1,0.6-0.1,1.1-0.2c1-0.1,1.7-0.3,2.2-0.4
				c0-0.2,0-0.3,0-0.3c0-0.5-0.1-0.8-0.3-1c-0.3-0.3-0.8-0.4-1.4-0.4s-1,0.1-1.3,0.3c-0.3,0.2-0.5,0.6-0.6,1.1l-1.2-0.2
				c0.1-0.5,0.3-0.9,0.5-1.2s0.6-0.6,1.1-0.7c0.5-0.2,1-0.3,1.6-0.3s1.1,0.1,1.5,0.2s0.7,0.3,0.8,0.5c0.2,0.2,0.3,0.5,0.4,0.8
				c0,0.2,0.1,0.6,0.1,1.1v1.6c0,1.1,0,1.8,0.1,2.1c0.1,0.3,0.2,0.6,0.3,0.9h-1.3C345.2,87.7,345.1,87.4,345.1,87.1z M345,84.3
				c-0.4,0.2-1.1,0.3-2,0.5c-0.5,0.1-0.9,0.2-1.1,0.2c-0.2,0.1-0.4,0.2-0.5,0.4c-0.1,0.2-0.2,0.4-0.2,0.6c0,0.3,0.1,0.6,0.4,0.8
				s0.6,0.3,1.1,0.3s0.9-0.1,1.2-0.3c0.4-0.2,0.6-0.5,0.8-0.8c0.1-0.3,0.2-0.7,0.2-1.2v-0.5H345z"/>
			<path id="XMLID_388_" class="st4" d="M348.1,87.9v-7.2h1.1v1.1c0.3-0.5,0.5-0.8,0.8-1s0.5-0.2,0.8-0.2c0.4,0,0.8,0.1,1.2,0.4
				l-0.4,1.1c-0.3-0.2-0.6-0.3-0.9-0.3s-0.5,0.1-0.7,0.2c-0.2,0.2-0.4,0.4-0.5,0.7c-0.1,0.4-0.2,0.9-0.2,1.4v3.8H348.1z"/>
			<path id="XMLID_390_" class="st4" d="M352.9,87.9V78h6.7v1.2h-5.4v3.1h4.6v1.2h-4.6V88L352.9,87.9L352.9,87.9z"/>
			<path id="XMLID_392_" class="st4" d="M366,85.6l1.3,0.2c-0.2,0.7-0.6,1.3-1.1,1.7c-0.5,0.4-1.2,0.6-2.1,0.6c-1,0-1.9-0.3-2.5-1
				c-0.6-0.6-0.9-1.5-0.9-2.7s0.3-2.1,0.9-2.8c0.6-0.7,1.4-1,2.4-1s1.7,0.3,2.3,1c0.6,0.7,0.9,1.6,0.9,2.8c0,0.1,0,0.2,0,0.3H362
				c0,0.8,0.3,1.4,0.7,1.8s0.9,0.6,1.5,0.6c0.4,0,0.8-0.1,1.1-0.4C365.6,86.5,365.9,86.1,366,85.6z M362,83.7h4
				c-0.1-0.6-0.2-1.1-0.5-1.4c-0.4-0.5-0.9-0.7-1.5-0.7s-1,0.2-1.4,0.6C362.3,82.5,362.1,83,362,83.7z"/>
			<path id="XMLID_395_" class="st4" d="M373.5,85.3l1.2,0.2c-0.1,0.8-0.5,1.5-1,1.9c-0.5,0.5-1.2,0.7-2,0.7c-1,0-1.8-0.3-2.4-1
				c-0.6-0.6-0.9-1.6-0.9-2.8c0-0.8,0.1-1.5,0.4-2c0.3-0.6,0.6-1,1.2-1.3c0.5-0.3,1.1-0.4,1.7-0.4c0.8,0,1.4,0.2,1.9,0.6
				s0.8,1,1,1.7l-1.2,0.2c-0.1-0.5-0.3-0.8-0.6-1.1c-0.3-0.2-0.6-0.4-1-0.4c-0.6,0-1.1,0.2-1.5,0.7c-0.4,0.4-0.6,1.1-0.6,2.1
				s0.2,1.7,0.6,2.1s0.8,0.7,1.4,0.7c0.5,0,0.9-0.1,1.2-0.4C373.2,86.4,373.4,85.9,373.5,85.3z"/>
			<path id="XMLID_397_" class="st4" d="M375.7,87.9V78h1.2v3.5c0.6-0.7,1.3-1,2.1-1c0.5,0,1,0.1,1.4,0.3c0.4,0.2,0.7,0.5,0.8,0.9
				c0.2,0.4,0.3,0.9,0.3,1.6v4.5h-1.2v-4.5c0-0.6-0.1-1-0.4-1.3s-0.6-0.4-1.1-0.4c-0.4,0-0.7,0.1-1,0.3s-0.5,0.4-0.7,0.8
				s-0.2,0.8-0.2,1.3v3.9C376.9,87.9,375.7,87.9,375.7,87.9z"/>
			<path id="XMLID_399_" class="st4" d="M388.1,87.1c-0.5,0.4-0.9,0.7-1.3,0.8s-0.9,0.2-1.3,0.2c-0.8,0-1.4-0.2-1.8-0.6
				s-0.6-0.9-0.6-1.5c0-0.4,0.1-0.7,0.2-1c0.2-0.3,0.4-0.5,0.6-0.7s0.5-0.3,0.9-0.4c0.2-0.1,0.6-0.1,1.1-0.2c1-0.1,1.7-0.3,2.2-0.4
				c0-0.2,0-0.3,0-0.3c0-0.5-0.1-0.8-0.3-1c-0.3-0.3-0.8-0.4-1.4-0.4s-1,0.1-1.3,0.3c-0.3,0.2-0.5,0.6-0.6,1.1l-1.2-0.2
				c0.1-0.5,0.3-0.9,0.5-1.2c0.2-0.3,0.6-0.6,1.1-0.7c0.5-0.2,1-0.3,1.6-0.3s1.1,0.1,1.5,0.2s0.7,0.3,0.8,0.5
				c0.2,0.2,0.3,0.5,0.4,0.8c0,0.2,0.1,0.6,0.1,1.1v1.6c0,1.1,0,1.8,0.1,2.1c0.1,0.3,0.2,0.6,0.3,0.9h-1.3
				C388.2,87.7,388.1,87.4,388.1,87.1z M388,84.3c-0.4,0.2-1.1,0.3-2,0.5c-0.5,0.1-0.9,0.2-1.1,0.2s-0.4,0.2-0.5,0.4
				c-0.1,0.2-0.2,0.4-0.2,0.6c0,0.3,0.1,0.6,0.4,0.8s0.6,0.3,1.1,0.3s0.9-0.1,1.2-0.3c0.4-0.2,0.6-0.5,0.8-0.8
				c0.1-0.3,0.2-0.7,0.2-1.2v-0.5H388z"/>
			<path id="XMLID_402_" class="st4" d="M393.4,90.9c-0.7-0.8-1.2-1.8-1.7-3c-0.5-1.1-0.7-2.3-0.7-3.5c0-1.1,0.2-2.1,0.5-3.1
				c0.4-1.1,1-2.3,1.9-3.4h0.9c-0.5,0.9-0.9,1.6-1.1,2c-0.3,0.6-0.5,1.3-0.6,1.9c-0.2,0.8-0.3,1.7-0.3,2.5c0,2.2,0.7,4.3,2,6.5
				L393.4,90.9L393.4,90.9z"/>
			<path id="XMLID_404_" class="st4" d="M396.5,90.9h-0.9c1.3-2.2,2-4.3,2-6.5c0-0.8-0.1-1.7-0.3-2.5c-0.2-0.7-0.4-1.3-0.6-1.9
				c-0.2-0.4-0.5-1.1-1.1-2h0.9c0.8,1.1,1.5,2.3,1.9,3.4c0.3,1,0.5,2,0.5,3.1c0,1.2-0.2,2.4-0.7,3.5C397.7,89,397.2,90,396.5,90.9z"
				/>
		</g>
		<line id="XMLID_17029_" class="st5" x1="286.8" y1="25.5" x2="429.4" y2="25.5"/>
		<line id="XMLID_17028_" class="st5" x1="286.8" y1="65.4" x2="429.4" y2="65.4"/>
	</g>
	<g id="XMLID_17114_">
		<g id="XMLID_17123_">
			<rect id="XMLID_73_" x="285.5" y="159.9" class="st3" width="145.1" height="102.5"/>
			<g id="XMLID_38_">
				<path id="XMLID_39_" class="st1" d="M429.4,161.2v100H286.8v-100L429.4,161.2 M431.9,158.7h-2.5H286.8h-2.5v2.5v100v2.5h2.5
					h142.6h2.5v-2.5v-100V158.7L431.9,158.7z"/>
			</g>
		</g>
		<g id="XMLID_341_">
			<path id="XMLID_342_" class="st4" d="M325.2,177.4v-8.7H322v-1.2h7.8v1.2h-3.3v8.7H325.2z"/>
			<path id="XMLID_344_" class="st4" d="M330.5,177.4v-7.2h1.1v1.1c0.3-0.5,0.5-0.8,0.8-1s0.5-0.2,0.8-0.2c0.4,0,0.8,0.1,1.2,0.4
				l-0.4,1.1c-0.3-0.2-0.6-0.3-0.9-0.3s-0.5,0.1-0.7,0.2c-0.2,0.2-0.4,0.4-0.5,0.7c-0.1,0.4-0.2,0.9-0.2,1.4v3.8H330.5z"/>
			<path id="XMLID_346_" class="st4" d="M339.8,176.5c-0.5,0.4-0.9,0.7-1.3,0.8s-0.9,0.2-1.3,0.2c-0.8,0-1.4-0.2-1.8-0.6
				s-0.6-0.9-0.6-1.5c0-0.4,0.1-0.7,0.2-1c0.2-0.3,0.4-0.5,0.6-0.7s0.5-0.3,0.9-0.4c0.2-0.1,0.6-0.1,1.1-0.2c1-0.1,1.7-0.3,2.2-0.4
				c0-0.2,0-0.3,0-0.3c0-0.5-0.1-0.8-0.3-1c-0.3-0.3-0.8-0.4-1.4-0.4s-1,0.1-1.3,0.3s-0.5,0.6-0.6,1.1l-1.2-0.2
				c0.1-0.5,0.3-0.9,0.5-1.2s0.6-0.6,1.1-0.7c0.5-0.2,1-0.3,1.6-0.3s1.1,0.1,1.5,0.2c0.4,0.1,0.7,0.3,0.8,0.5
				c0.2,0.2,0.3,0.5,0.4,0.8c0,0.2,0.1,0.6,0.1,1.1v1.6c0,1.1,0,1.8,0.1,2.1s0.2,0.6,0.3,0.9H340
				C339.9,177.2,339.8,176.9,339.8,176.5z M339.7,173.8c-0.4,0.2-1.1,0.3-2,0.5c-0.5,0.1-0.9,0.2-1.1,0.2s-0.4,0.2-0.5,0.4
				s-0.2,0.4-0.2,0.6c0,0.3,0.1,0.6,0.4,0.8s0.6,0.3,1.1,0.3s0.9-0.1,1.2-0.3c0.4-0.2,0.6-0.5,0.8-0.8c0.1-0.3,0.2-0.7,0.2-1.2v-0.5
				H339.7z"/>
			<path id="XMLID_349_" class="st4" d="M345.4,176.3l0.2,1.1c-0.3,0.1-0.6,0.1-0.9,0.1c-0.4,0-0.8-0.1-1-0.2
				c-0.2-0.1-0.4-0.3-0.5-0.5s-0.1-0.7-0.1-1.4v-4.1h-0.9v-0.9h0.9v-1.8l1.2-0.7v2.5h1.2v0.9h-1.2v4.2c0,0.3,0,0.6,0.1,0.7
				c0,0.1,0.1,0.2,0.2,0.2s0.2,0.1,0.4,0.1C345,176.4,345.2,176.4,345.4,176.3z"/>
			<path id="XMLID_351_" class="st4" d="M351.3,176.5c-0.5,0.4-0.9,0.7-1.3,0.8s-0.9,0.2-1.3,0.2c-0.8,0-1.4-0.2-1.8-0.6
				s-0.6-0.9-0.6-1.5c0-0.4,0.1-0.7,0.2-1c0.2-0.3,0.4-0.5,0.6-0.7s0.5-0.3,0.9-0.4c0.2-0.1,0.6-0.1,1.1-0.2c1-0.1,1.7-0.3,2.2-0.4
				c0-0.2,0-0.3,0-0.3c0-0.5-0.1-0.8-0.3-1c-0.3-0.3-0.8-0.4-1.4-0.4s-1,0.1-1.3,0.3s-0.5,0.6-0.6,1.1l-1.2-0.2
				c0.1-0.5,0.3-0.9,0.5-1.2s0.6-0.6,1.1-0.7c0.5-0.2,1-0.3,1.6-0.3s1.1,0.1,1.5,0.2c0.4,0.1,0.7,0.3,0.8,0.5
				c0.2,0.2,0.3,0.5,0.4,0.8c0,0.2,0.1,0.6,0.1,1.1v1.6c0,1.1,0,1.8,0.1,2.1s0.2,0.6,0.3,0.9h-1.3
				C351.4,177.2,351.3,176.9,351.3,176.5z M351.2,173.8c-0.4,0.2-1.1,0.3-2,0.5c-0.5,0.1-0.9,0.2-1.1,0.2s-0.4,0.2-0.5,0.4
				s-0.2,0.4-0.2,0.6c0,0.3,0.1,0.6,0.4,0.8s0.6,0.3,1.1,0.3s0.9-0.1,1.2-0.3c0.4-0.2,0.6-0.5,0.8-0.8c0.1-0.3,0.2-0.7,0.2-1.2v-0.5
				H351.2z"/>
			<path id="XMLID_354_" class="st4" d="M354.3,177.4v-7.2h1.1v1c0.2-0.4,0.5-0.6,0.9-0.8s0.8-0.3,1.3-0.3s1,0.1,1.3,0.3
				s0.6,0.5,0.7,0.9c0.6-0.8,1.3-1.3,2.2-1.3c0.7,0,1.3,0.2,1.6,0.6c0.4,0.4,0.6,1,0.6,1.8v4.9h-1.2v-4.5c0-0.5,0-0.8-0.1-1
				s-0.2-0.4-0.4-0.5c-0.2-0.1-0.5-0.2-0.7-0.2c-0.5,0-0.9,0.2-1.3,0.5s-0.5,0.9-0.5,1.6v4.2h-1.2v-4.7c0-0.5-0.1-0.9-0.3-1.2
				c-0.2-0.3-0.5-0.4-1-0.4c-0.3,0-0.7,0.1-0.9,0.3c-0.3,0.2-0.5,0.4-0.6,0.8c-0.1,0.3-0.2,0.8-0.2,1.5v3.7L354.3,177.4L354.3,177.4
				z"/>
			<path id="XMLID_356_" class="st4" d="M365.8,168.9v-1.4h1.2v1.4H365.8z M365.8,177.4v-7.2h1.2v7.2H365.8z"/>
			<path id="XMLID_359_" class="st4" d="M373.8,175.1l1.3,0.2c-0.2,0.7-0.6,1.3-1.1,1.7s-1.2,0.6-2.1,0.6c-1,0-1.9-0.3-2.5-1
				c-0.6-0.6-0.9-1.5-0.9-2.7s0.3-2.1,0.9-2.8s1.4-1,2.4-1s1.7,0.3,2.3,1c0.6,0.7,0.9,1.6,0.9,2.8c0,0.1,0,0.2,0,0.3h-5.3
				c0,0.8,0.3,1.4,0.7,1.8s0.9,0.6,1.5,0.6c0.4,0,0.8-0.1,1.1-0.4C373.3,176,373.6,175.6,373.8,175.1z M369.8,173.2h4
				c-0.1-0.6-0.2-1.1-0.5-1.4c-0.4-0.5-0.9-0.7-1.5-0.7s-1,0.2-1.4,0.6C370,172,369.8,172.5,369.8,173.2z"/>
			<path id="XMLID_362_" class="st4" d="M376.6,177.4v-7.2h1.1v1c0.5-0.8,1.3-1.2,2.3-1.2c0.4,0,0.8,0.1,1.2,0.2s0.6,0.4,0.8,0.6
				c0.2,0.3,0.3,0.6,0.4,0.9c0,0.2,0.1,0.6,0.1,1.2v4.4h-1.2v-4.4c0-0.5,0-0.9-0.1-1.1s-0.3-0.4-0.5-0.6c-0.2-0.1-0.5-0.2-0.8-0.2
				c-0.5,0-1,0.2-1.3,0.5c-0.4,0.3-0.6,1-0.6,1.9v3.9h-1.4V177.4z"/>
			<path id="XMLID_364_" class="st4" d="M386.9,176.3l0.2,1.1c-0.3,0.1-0.6,0.1-0.9,0.1c-0.4,0-0.8-0.1-1-0.2
				c-0.2-0.1-0.4-0.3-0.5-0.5s-0.1-0.7-0.1-1.4v-4.1h-0.9v-0.9h0.9v-1.8l1.2-0.7v2.5h1.2v0.9h-1.2v4.2c0,0.3,0,0.6,0.1,0.7
				c0,0.1,0.1,0.2,0.2,0.2s0.2,0.1,0.4,0.1C386.5,176.4,386.7,176.4,386.9,176.3z"/>
			<path id="XMLID_366_" class="st4" d="M387.6,173.8c0-1.3,0.4-2.3,1.1-2.9c0.6-0.5,1.4-0.8,2.3-0.8c1,0,1.8,0.3,2.4,1
				s0.9,1.5,0.9,2.7c0,0.9-0.1,1.6-0.4,2.2c-0.3,0.5-0.7,0.9-1.2,1.2s-1.1,0.4-1.7,0.4c-1,0-1.8-0.3-2.4-1
				C387.9,176,387.6,175,387.6,173.8z M388.9,173.8c0,0.9,0.2,1.6,0.6,2.1s0.9,0.7,1.5,0.7s1.1-0.2,1.5-0.7s0.6-1.2,0.6-2.1
				c0-0.9-0.2-1.6-0.6-2c-0.4-0.5-0.9-0.7-1.5-0.7s-1.1,0.2-1.5,0.7C389.1,172.2,388.9,172.9,388.9,173.8z"/>
		</g>
		<g id="XMLID_310_">
			<path id="XMLID_311_" class="st4" d="M295,204.4v-1.2h3.7v1.2H295z"/>
			<path id="XMLID_313_" class="st4" d="M304.7,207.4v-0.9c-0.5,0.7-1.1,1.1-2,1.1c-0.6,0-1.1-0.2-1.6-0.5s-0.9-0.8-1.1-1.3
				s-0.4-1.2-0.4-1.9s0.1-1.4,0.4-1.9c0.2-0.6,0.6-1,1.1-1.3s1-0.5,1.6-0.5c0.4,0,0.8,0.1,1.2,0.3c0.3,0.2,0.6,0.4,0.8,0.7v-3.5h1.2
				v9.9h-1.2V207.4z M300.9,203.8c0,0.9,0.2,1.6,0.6,2.1s0.8,0.7,1.4,0.7c0.5,0,1-0.2,1.4-0.7c0.4-0.4,0.6-1.1,0.6-2
				c0-1-0.2-1.7-0.6-2.2s-0.8-0.7-1.4-0.7c-0.5,0-1,0.2-1.4,0.7C301.1,202.2,300.9,202.9,300.9,203.8z"/>
			<path id="XMLID_316_" class="st4" d="M312.7,205.1l1.3,0.2c-0.2,0.7-0.6,1.3-1.1,1.7s-1.2,0.6-2.1,0.6c-1,0-1.9-0.3-2.5-1
				c-0.6-0.6-0.9-1.5-0.9-2.7s0.3-2.1,0.9-2.8s1.4-1,2.4-1s1.7,0.3,2.3,1s0.9,1.6,0.9,2.8c0,0.1,0,0.2,0,0.3h-5.3
				c0,0.8,0.3,1.4,0.7,1.8s0.9,0.6,1.5,0.6c0.4,0,0.8-0.1,1.1-0.4C312.2,206,312.5,205.6,312.7,205.1z M308.7,203.1h4
				c-0.1-0.6-0.2-1.1-0.5-1.4c-0.4-0.5-0.9-0.7-1.5-0.7s-1,0.2-1.4,0.6C308.9,202,308.7,202.5,308.7,203.1z"/>
			<path id="XMLID_319_" class="st4" d="M315,205.3l1.2-0.2c0.1,0.5,0.3,0.8,0.6,1.1c0.3,0.3,0.7,0.4,1.3,0.4c0.6,0,1-0.1,1.2-0.3
				c0.3-0.2,0.4-0.5,0.4-0.8s-0.1-0.5-0.4-0.6c-0.2-0.1-0.6-0.2-1.2-0.4c-0.9-0.2-1.5-0.4-1.9-0.6c-0.3-0.2-0.6-0.4-0.8-0.7
				s-0.3-0.6-0.3-1c0-0.3,0.1-0.6,0.2-0.9c0.1-0.3,0.3-0.5,0.6-0.7c0.2-0.1,0.4-0.3,0.8-0.4s0.7-0.1,1-0.1c0.6,0,1.1,0.1,1.5,0.2
				c0.4,0.2,0.7,0.4,0.9,0.7c0.2,0.3,0.3,0.6,0.4,1.1l-1.2,0.2c-0.1-0.4-0.2-0.7-0.5-0.9s-0.6-0.3-1.1-0.3c-0.6,0-1,0.1-1.2,0.3
				s-0.4,0.4-0.4,0.6c0,0.2,0,0.3,0.1,0.4c0.1,0.1,0.3,0.2,0.5,0.3c0.1,0,0.5,0.1,1.1,0.3c0.9,0.2,1.5,0.4,1.8,0.6
				c0.3,0.1,0.6,0.4,0.8,0.6c0.2,0.3,0.3,0.6,0.3,1s-0.1,0.8-0.4,1.1c-0.2,0.4-0.6,0.6-1,0.8s-0.9,0.3-1.5,0.3
				c-0.9,0-1.6-0.2-2.1-0.6C315.4,206.6,315.1,206,315,205.3z"/>
			<path id="XMLID_321_" class="st4" d="M327,204.8l1.2,0.2c-0.1,0.8-0.5,1.5-1,1.9c-0.5,0.5-1.2,0.7-2,0.7c-1,0-1.8-0.3-2.4-1
				c-0.6-0.6-0.9-1.6-0.9-2.8c0-0.8,0.1-1.5,0.4-2c0.3-0.6,0.6-1,1.2-1.3c0.5-0.3,1.1-0.4,1.7-0.4c0.8,0,1.4,0.2,1.9,0.6
				c0.5,0.4,0.8,1,1,1.7l-1.2,0.2c-0.1-0.5-0.3-0.8-0.6-1.1c-0.3-0.2-0.6-0.4-1-0.4c-0.6,0-1.1,0.2-1.5,0.7
				c-0.4,0.4-0.6,1.1-0.6,2.1s0.2,1.7,0.6,2.1c0.4,0.4,0.8,0.7,1.4,0.7c0.5,0,0.9-0.1,1.2-0.4C326.7,205.8,326.9,205.4,327,204.8z"
				/>
			<path id="XMLID_323_" class="st4" d="M329.3,207.4v-7.2h1.1v1.1c0.3-0.5,0.5-0.8,0.8-1c0.2-0.2,0.5-0.2,0.8-0.2
				c0.4,0,0.8,0.1,1.2,0.4l-0.4,1.1c-0.3-0.2-0.6-0.3-0.9-0.3s-0.5,0.1-0.7,0.2c-0.2,0.2-0.4,0.4-0.5,0.7c-0.1,0.4-0.2,0.9-0.2,1.4
				v3.8H329.3z"/>
			<path id="XMLID_325_" class="st4" d="M333.9,198.9v-1.4h1.2v1.4H333.9z M333.9,207.4v-7.2h1.2v7.2H333.9z"/>
			<path id="XMLID_328_" class="st4" d="M336.9,210.1v-9.9h1.1v0.9c0.3-0.4,0.6-0.6,0.9-0.8s0.7-0.3,1.2-0.3c0.6,0,1.2,0.2,1.6,0.5
				s0.8,0.8,1.1,1.3c0.2,0.6,0.4,1.2,0.4,1.9s-0.1,1.4-0.4,2s-0.6,1-1.1,1.3s-1,0.5-1.6,0.5c-0.4,0-0.8-0.1-1.1-0.3
				s-0.6-0.4-0.8-0.6v3.5L336.9,210.1L336.9,210.1z M338,203.8c0,0.9,0.2,1.6,0.6,2s0.8,0.7,1.4,0.7c0.5,0,1-0.2,1.4-0.7
				s0.6-1.2,0.6-2.1c0-0.9-0.2-1.6-0.6-2.1s-0.8-0.7-1.3-0.7s-1,0.2-1.4,0.7C338.2,202.2,338,202.9,338,203.8z"/>
			<path id="XMLID_331_" class="st4" d="M349.3,204.8l1.2,0.2c-0.1,0.8-0.5,1.5-1,1.9c-0.5,0.5-1.2,0.7-2,0.7c-1,0-1.8-0.3-2.4-1
				c-0.6-0.6-0.9-1.6-0.9-2.8c0-0.8,0.1-1.5,0.4-2c0.3-0.6,0.6-1,1.2-1.3c0.5-0.3,1.1-0.4,1.7-0.4c0.8,0,1.4,0.2,1.9,0.6
				c0.5,0.4,0.8,1,1,1.7l-1.2,0.2c-0.1-0.5-0.3-0.8-0.6-1.1c-0.3-0.2-0.6-0.4-1-0.4c-0.6,0-1.1,0.2-1.5,0.7
				c-0.4,0.4-0.6,1.1-0.6,2.1s0.2,1.7,0.6,2.1c0.4,0.4,0.8,0.7,1.4,0.7c0.5,0,0.9-0.1,1.2-0.4C349,205.8,349.2,205.4,349.3,204.8z"
				/>
			<path id="XMLID_333_" class="st4" d="M351.5,198.9v-1.4h1.2v1.4H351.5z M351.5,207.4v-7.2h1.2v7.2H351.5z"/>
			<path id="XMLID_336_" class="st4" d="M354.1,203.8c0-1.3,0.4-2.3,1.1-2.9c0.6-0.5,1.4-0.8,2.3-0.8c1,0,1.8,0.3,2.4,1
				s0.9,1.5,0.9,2.7c0,0.9-0.1,1.6-0.4,2.2s-0.7,0.9-1.2,1.2s-1.1,0.4-1.7,0.4c-1,0-1.8-0.3-2.4-1S354.1,205,354.1,203.8z
				 M355.4,203.8c0,0.9,0.2,1.6,0.6,2.1s0.9,0.7,1.5,0.7s1.1-0.2,1.5-0.7s0.6-1.2,0.6-2.1c0-0.9-0.2-1.6-0.6-2
				c-0.4-0.5-0.9-0.7-1.5-0.7s-1.1,0.2-1.5,0.7C355.6,202.2,355.4,202.9,355.4,203.8z"/>
			<path id="XMLID_339_" class="st4" d="M362.3,207.4v-7.2h1.1v1c0.5-0.8,1.3-1.2,2.3-1.2c0.4,0,0.8,0.1,1.2,0.2
				c0.4,0.2,0.6,0.4,0.8,0.6s0.3,0.6,0.4,0.9c0,0.2,0.1,0.6,0.1,1.2v4.4H367V203c0-0.5,0-0.9-0.1-1.1c-0.1-0.2-0.3-0.4-0.5-0.6
				c-0.2-0.1-0.5-0.2-0.8-0.2c-0.5,0-1,0.2-1.3,0.5c-0.4,0.3-0.6,1-0.6,1.9v3.9L362.3,207.4L362.3,207.4z"/>
		</g>
		<g id="XMLID_269_">
			<path id="XMLID_270_" class="st4" d="M298,245v-2.7h-2.7v-1.1h2.7v-2.7h1.1v2.7h2.7v1.1h-2.7v2.7H298z"/>
			<path id="XMLID_272_" class="st4" d="M305.5,246.6l-2.7-7.2h1.3l1.5,4.3c0.2,0.5,0.3,0.9,0.5,1.4c0.1-0.4,0.3-0.8,0.5-1.4
				l1.6-4.4h1.2l-2.7,7.2L305.5,246.6L305.5,246.6z"/>
			<path id="XMLID_274_" class="st4" d="M315.4,244.3l1.3,0.2c-0.2,0.7-0.6,1.3-1.1,1.7s-1.2,0.6-2.1,0.6c-1,0-1.9-0.3-2.5-1
				c-0.6-0.6-0.9-1.5-0.9-2.7s0.3-2.1,0.9-2.8s1.4-1,2.4-1s1.7,0.3,2.3,1s0.9,1.6,0.9,2.8c0,0.1,0,0.2,0,0.3h-5.3
				c0,0.8,0.3,1.4,0.7,1.8s0.9,0.6,1.5,0.6c0.4,0,0.8-0.1,1.1-0.4C314.9,245.2,315.2,244.8,315.4,244.3z M311.4,242.3h4
				c-0.1-0.6-0.2-1.1-0.5-1.4c-0.4-0.5-0.9-0.7-1.5-0.7s-1,0.2-1.4,0.6C311.6,241.2,311.4,241.7,311.4,242.3z"/>
			<path id="XMLID_277_" class="st4" d="M318.1,246.6v-7.2h1.1v1.1c0.3-0.5,0.5-0.8,0.8-1c0.2-0.2,0.5-0.2,0.8-0.2
				c0.4,0,0.8,0.1,1.2,0.4l-0.4,1.1c-0.3-0.2-0.6-0.3-0.9-0.3s-0.5,0.1-0.7,0.2c-0.2,0.2-0.4,0.4-0.5,0.7c-0.1,0.4-0.2,0.9-0.2,1.4
				v3.8H318.1z"/>
			<path id="XMLID_279_" class="st4" d="M325.4,246.6v-8.7h-3.3v-1.2h7.8v1.2h-3.3v8.7H325.4z"/>
			<path id="XMLID_281_" class="st4" d="M330.7,246.6v-7.2h1.1v1.1c0.3-0.5,0.5-0.8,0.8-1c0.2-0.2,0.5-0.2,0.8-0.2
				c0.4,0,0.8,0.1,1.2,0.4l-0.4,1.1c-0.3-0.2-0.6-0.3-0.9-0.3s-0.5,0.1-0.7,0.2c-0.2,0.2-0.4,0.4-0.5,0.7c-0.1,0.4-0.2,0.9-0.2,1.4
				v3.8H330.7z"/>
			<path id="XMLID_283_" class="st4" d="M339.9,245.7c-0.5,0.4-0.9,0.7-1.3,0.8s-0.9,0.2-1.3,0.2c-0.8,0-1.4-0.2-1.8-0.6
				s-0.6-0.9-0.6-1.5c0-0.4,0.1-0.7,0.2-1c0.2-0.3,0.4-0.5,0.6-0.7s0.5-0.3,0.9-0.4c0.2-0.1,0.6-0.1,1.1-0.2c1-0.1,1.7-0.3,2.2-0.4
				c0-0.2,0-0.3,0-0.3c0-0.5-0.1-0.8-0.3-1c-0.3-0.3-0.8-0.4-1.4-0.4s-1,0.1-1.3,0.3s-0.5,0.6-0.6,1.1l-1.2-0.2
				c0.1-0.5,0.3-0.9,0.5-1.2s0.6-0.6,1.1-0.7c0.5-0.2,1-0.3,1.6-0.3s1.1,0.1,1.5,0.2c0.4,0.1,0.7,0.3,0.8,0.5
				c0.2,0.2,0.3,0.5,0.4,0.8c0,0.2,0.1,0.6,0.1,1.1v1.6c0,1.1,0,1.8,0.1,2.1s0.2,0.6,0.3,0.9h-1.3
				C340.1,246.4,340,246.1,339.9,245.7z M339.8,243c-0.4,0.2-1.1,0.3-2,0.5c-0.5,0.1-0.9,0.2-1.1,0.2c-0.2,0.1-0.4,0.2-0.5,0.4
				s-0.2,0.4-0.2,0.6c0,0.3,0.1,0.6,0.4,0.8s0.6,0.3,1.1,0.3s0.9-0.1,1.2-0.3c0.4-0.2,0.6-0.5,0.8-0.8c0.1-0.3,0.2-0.7,0.2-1.2V243
				H339.8z"/>
			<path id="XMLID_286_" class="st4" d="M345.6,245.5l0.2,1.1c-0.3,0.1-0.6,0.1-0.9,0.1c-0.4,0-0.8-0.1-1-0.2
				c-0.2-0.1-0.4-0.3-0.5-0.5s-0.1-0.7-0.1-1.4v-4.1h-0.9v-0.9h0.9v-1.8l1.2-0.7v2.5h1.2v0.9h-1.2v4.2c0,0.3,0,0.6,0.1,0.7
				c0,0.1,0.1,0.2,0.2,0.2s0.2,0.1,0.4,0.1C345.2,245.6,345.4,245.6,345.6,245.5z"/>
			<path id="XMLID_288_" class="st4" d="M351.5,245.7c-0.5,0.4-0.9,0.7-1.3,0.8s-0.9,0.2-1.3,0.2c-0.8,0-1.4-0.2-1.8-0.6
				s-0.6-0.9-0.6-1.5c0-0.4,0.1-0.7,0.2-1c0.2-0.3,0.4-0.5,0.6-0.7s0.5-0.3,0.9-0.4c0.2-0.1,0.6-0.1,1.1-0.2c1-0.1,1.7-0.3,2.2-0.4
				c0-0.2,0-0.3,0-0.3c0-0.5-0.1-0.8-0.3-1c-0.3-0.3-0.8-0.4-1.4-0.4s-1,0.1-1.3,0.3s-0.5,0.6-0.6,1.1l-1.2-0.2
				c0.1-0.5,0.3-0.9,0.5-1.2s0.6-0.6,1.1-0.7c0.5-0.2,1-0.3,1.6-0.3s1.1,0.1,1.5,0.2c0.4,0.1,0.7,0.3,0.8,0.5
				c0.2,0.2,0.3,0.5,0.4,0.8c0,0.2,0.1,0.6,0.1,1.1v1.6c0,1.1,0,1.8,0.1,2.1s0.2,0.6,0.3,0.9h-1.3
				C351.6,246.4,351.5,246.1,351.5,245.7z M351.4,243c-0.4,0.2-1.1,0.3-2,0.5c-0.5,0.1-0.9,0.2-1.1,0.2c-0.2,0.1-0.4,0.2-0.5,0.4
				s-0.2,0.4-0.2,0.6c0,0.3,0.1,0.6,0.4,0.8s0.6,0.3,1.1,0.3s0.9-0.1,1.2-0.3c0.4-0.2,0.6-0.5,0.8-0.8c0.1-0.3,0.2-0.7,0.2-1.2V243
				H351.4z"/>
			<path id="XMLID_291_" class="st4" d="M354.5,246.6v-7.2h1.1v1c0.2-0.4,0.5-0.6,0.9-0.8s0.8-0.3,1.3-0.3s1,0.1,1.3,0.3
				s0.6,0.5,0.7,0.9c0.6-0.8,1.3-1.3,2.2-1.3c0.7,0,1.3,0.2,1.6,0.6c0.4,0.4,0.6,1,0.6,1.8v4.9H363V242c0-0.5,0-0.8-0.1-1
				s-0.2-0.4-0.4-0.5c-0.2-0.1-0.5-0.2-0.7-0.2c-0.5,0-0.9,0.2-1.3,0.5c-0.3,0.3-0.5,0.9-0.5,1.6v4.2h-1.2V242
				c0-0.5-0.1-0.9-0.3-1.2c-0.2-0.3-0.5-0.4-1-0.4c-0.3,0-0.7,0.1-0.9,0.3c-0.3,0.2-0.5,0.4-0.6,0.8c-0.1,0.3-0.2,0.8-0.2,1.5v3.7
				h-1.3V246.6z"/>
			<path id="XMLID_293_" class="st4" d="M366,238.1v-1.4h1.2v1.4H366z M366,246.6v-7.2h1.2v7.2H366z"/>
			<path id="XMLID_296_" class="st4" d="M374,244.3l1.3,0.2c-0.2,0.7-0.6,1.3-1.1,1.7s-1.2,0.6-2.1,0.6c-1,0-1.9-0.3-2.5-1
				c-0.6-0.6-0.9-1.5-0.9-2.7s0.3-2.1,0.9-2.8s1.4-1,2.4-1s1.7,0.3,2.3,1s0.9,1.6,0.9,2.8c0,0.1,0,0.2,0,0.3h-5.3
				c0,0.8,0.3,1.4,0.7,1.8s0.9,0.6,1.5,0.6c0.4,0,0.8-0.1,1.1-0.4C373.5,245.2,373.8,244.8,374,244.3z M370,242.3h4
				c-0.1-0.6-0.2-1.1-0.5-1.4c-0.4-0.5-0.9-0.7-1.5-0.7s-1,0.2-1.4,0.6C370.2,241.2,370,241.7,370,242.3z"/>
			<path id="XMLID_299_" class="st4" d="M376.7,246.6v-7.2h1.1v1c0.5-0.8,1.3-1.2,2.3-1.2c0.4,0,0.8,0.1,1.2,0.2
				c0.4,0.2,0.6,0.4,0.8,0.6s0.3,0.6,0.4,0.9c0,0.2,0.1,0.6,0.1,1.2v4.4h-1.2v-4.4c0-0.5,0-0.9-0.1-1.1c-0.1-0.2-0.3-0.4-0.5-0.6
				c-0.2-0.1-0.5-0.2-0.8-0.2c-0.5,0-1,0.2-1.3,0.5c-0.4,0.3-0.6,1-0.6,1.9v3.9h-1.4V246.6z"/>
			<path id="XMLID_301_" class="st4" d="M387.1,245.5l0.2,1.1c-0.3,0.1-0.6,0.1-0.9,0.1c-0.4,0-0.8-0.1-1-0.2
				c-0.2-0.1-0.4-0.3-0.5-0.5s-0.1-0.7-0.1-1.4v-4.1h-0.9v-0.9h0.9v-1.8l1.2-0.7v2.5h1.2v0.9H386v4.2c0,0.3,0,0.6,0.1,0.7
				c0,0.1,0.1,0.2,0.2,0.2s0.2,0.1,0.4,0.1C386.7,245.6,386.9,245.6,387.1,245.5z"/>
			<path id="XMLID_303_" class="st4" d="M387.8,243c0-1.3,0.4-2.3,1.1-2.9c0.6-0.5,1.4-0.8,2.3-0.8c1,0,1.8,0.3,2.4,1
				s0.9,1.5,0.9,2.7c0,0.9-0.1,1.6-0.4,2.2s-0.7,0.9-1.2,1.2s-1.1,0.4-1.7,0.4c-1,0-1.8-0.3-2.4-1S387.8,244.2,387.8,243z
				 M389.1,243c0,0.9,0.2,1.6,0.6,2.1s0.9,0.7,1.5,0.7s1.1-0.2,1.5-0.7s0.6-1.2,0.6-2.1c0-0.9-0.2-1.6-0.6-2
				c-0.4-0.5-0.9-0.7-1.5-0.7s-1.1,0.2-1.5,0.7C389.3,241.4,389.1,242.1,389.1,243z"/>
			<path id="XMLID_306_" class="st4" d="M398.3,249.5c-0.7-0.8-1.2-1.8-1.7-3c-0.5-1.1-0.7-2.3-0.7-3.5c0-1.1,0.2-2.1,0.5-3.1
				c0.4-1.1,1-2.3,1.9-3.4h0.9c-0.5,0.9-0.9,1.6-1.1,2c-0.3,0.6-0.5,1.3-0.6,1.9c-0.2,0.8-0.3,1.7-0.3,2.5c0,2.2,0.7,4.3,2,6.5h-0.9
				V249.5z"/>
			<path id="XMLID_308_" class="st4" d="M401.3,249.5h-0.9c1.3-2.2,2-4.3,2-6.5c0-0.8-0.1-1.7-0.3-2.5c-0.2-0.7-0.4-1.3-0.6-1.9
				c-0.2-0.4-0.5-1.1-1.1-2h0.9c0.8,1.1,1.5,2.3,1.9,3.4c0.3,1,0.5,2,0.5,3.1c0,1.2-0.2,2.4-0.7,3.5
				C402.6,247.7,402,248.7,401.3,249.5z"/>
		</g>
		<line id="XMLID_17116_" class="st5" x1="286.8" y1="184.1" x2="429.4" y2="184.1"/>
		<line id="XMLID_17115_" class="st5" x1="286.8" y1="224.1" x2="429.4" y2="224.1"/>
	</g>
	<g id="XMLID_17134_">
		<g id="XMLID_17148_">
			<rect id="XMLID_123_" x="569.8" y="1.3" class="st3" width="145.1" height="102.5"/>
			<g id="XMLID_101_">
				<path id="XMLID_104_" class="st1" d="M713.7,2.5v100H571.1V2.5H713.7 M716.2,0h-2.5H571.1h-2.5v2.5v100v2.5h2.5h142.6h2.5v-2.5
					V2.5L716.2,0L716.2,0z"/>
			</g>
		</g>
		<g id="XMLID_252_">
			<path id="XMLID_253_" class="st4" d="M621.3,18.8V8.9h2l2.3,7c0.2,0.7,0.4,1.1,0.5,1.5c0.1-0.4,0.3-0.9,0.5-1.6l2.4-6.9h1.8v9.9
				h-1.3v-8.3l-2.9,8.3h-1.2l-2.9-8.4v8.4H621.3z"/>
			<path id="XMLID_255_" class="st4" d="M637.6,16.4l1.3,0.2c-0.2,0.7-0.6,1.3-1.1,1.7c-0.5,0.4-1.2,0.6-2.1,0.6c-1,0-1.9-0.3-2.5-1
				c-0.6-0.6-0.9-1.5-0.9-2.7s0.3-2.1,0.9-2.8c0.6-0.7,1.4-1,2.4-1s1.7,0.3,2.3,1s0.9,1.6,0.9,2.8c0,0.1,0,0.2,0,0.3h-5.3
				c0,0.8,0.3,1.4,0.7,1.8s0.9,0.6,1.5,0.6c0.4,0,0.8-0.1,1.1-0.4C637.2,17.3,637.4,17,637.6,16.4z M633.6,14.5h4
				c-0.1-0.6-0.2-1.1-0.5-1.4c-0.4-0.5-0.9-0.7-1.5-0.7s-1,0.2-1.4,0.6C633.9,13.4,633.6,13.9,633.6,14.5z"/>
			<path id="XMLID_258_" class="st4" d="M645,18.8v-0.9c-0.5,0.7-1.1,1.1-2,1.1c-0.6,0-1.1-0.2-1.6-0.5s-0.8-0.8-1.1-1.3
				c-0.3-0.6-0.4-1.2-0.4-1.9c0-0.7,0.1-1.4,0.4-1.9c0.2-0.6,0.6-1,1.1-1.3s1-0.5,1.6-0.5c0.4,0,0.8,0.1,1.2,0.3
				c0.3,0.2,0.6,0.4,0.8,0.7V8.9h1.2v9.9H645z M641.2,15.2c0,0.9,0.2,1.6,0.6,2.1c0.4,0.5,0.8,0.7,1.4,0.7c0.5,0,1-0.2,1.4-0.7
				c0.4-0.4,0.6-1.1,0.6-2c0-1-0.2-1.7-0.6-2.2c-0.4-0.5-0.8-0.7-1.4-0.7c-0.5,0-1,0.2-1.4,0.7C641.4,13.5,641.2,14.2,641.2,15.2z"
				/>
			<path id="XMLID_261_" class="st4" d="M648.1,10.3V8.9h1.2v1.4C649.3,10.3,648.1,10.3,648.1,10.3z M648.1,18.8v-7.2h1.2v7.2H648.1
				z"/>
			<path id="XMLID_264_" class="st4" d="M655.8,16.1l1.2,0.2c-0.1,0.8-0.5,1.5-1,1.9c-0.5,0.5-1.2,0.7-2,0.7c-1,0-1.8-0.3-2.4-1
				c-0.6-0.6-0.9-1.6-0.9-2.8c0-0.8,0.1-1.5,0.4-2c0.3-0.6,0.6-1,1.2-1.3c0.5-0.3,1.1-0.4,1.7-0.4c0.8,0,1.4,0.2,1.9,0.6
				c0.5,0.4,0.8,1,1,1.7l-1.2,0.2c-0.1-0.5-0.3-0.8-0.6-1.1c-0.3-0.2-0.6-0.4-1-0.4c-0.6,0-1.1,0.2-1.5,0.7
				c-0.4,0.4-0.6,1.1-0.6,2.1s0.2,1.7,0.6,2.1c0.4,0.4,0.8,0.7,1.4,0.7c0.5,0,0.9-0.1,1.2-0.4C655.5,17.2,655.7,16.7,655.8,16.1z"/>
			<path id="XMLID_266_" class="st4" d="M657.6,15.2c0-1.3,0.4-2.3,1.1-2.9c0.6-0.5,1.4-0.8,2.3-0.8c1,0,1.8,0.3,2.4,1
				s0.9,1.5,0.9,2.7c0,0.9-0.1,1.6-0.4,2.2c-0.3,0.5-0.7,0.9-1.2,1.2c-0.5,0.3-1.1,0.4-1.7,0.4c-1,0-1.8-0.3-2.4-1
				C657.9,17.3,657.6,16.4,657.6,15.2z M658.8,15.2c0,0.9,0.2,1.6,0.6,2.1c0.4,0.5,0.9,0.7,1.5,0.7s1.1-0.2,1.5-0.7s0.6-1.2,0.6-2.1
				s-0.2-1.6-0.6-2c-0.4-0.5-0.9-0.7-1.5-0.7s-1.1,0.2-1.5,0.7C659,13.6,658.8,14.3,658.8,15.2z"/>
		</g>
		<g id="XMLID_200_">
			<path id="XMLID_201_" class="st4" d="M579.3,39.8v-1.2h3.7v1.2H579.3z"/>
			<path id="XMLID_203_" class="st4" d="M584.4,42.7v-7.2h1.1v1c0.5-0.8,1.3-1.2,2.3-1.2c0.4,0,0.8,0.1,1.2,0.2s0.6,0.4,0.8,0.6
				c0.2,0.3,0.3,0.6,0.4,0.9c0,0.2,0.1,0.6,0.1,1.2v4.4H589v-4.4c0-0.5,0-0.9-0.1-1.1s-0.3-0.4-0.5-0.6c-0.2-0.1-0.5-0.2-0.8-0.2
				c-0.5,0-1,0.2-1.3,0.5c-0.4,0.3-0.6,1-0.6,1.9v3.9L584.4,42.7L584.4,42.7z"/>
			<path id="XMLID_205_" class="st4" d="M596.7,42.7v-1.1c-0.6,0.8-1.3,1.2-2.3,1.2c-0.4,0-0.8-0.1-1.2-0.2s-0.6-0.4-0.8-0.6
				s-0.3-0.5-0.4-0.9c0-0.2-0.1-0.6-0.1-1.1v-4.4h1.2v4c0,0.6,0,1.1,0.1,1.3c0.1,0.3,0.2,0.6,0.5,0.8c0.2,0.2,0.6,0.3,0.9,0.3
				s0.7-0.1,1-0.3s0.5-0.4,0.7-0.8c0.1-0.3,0.2-0.8,0.2-1.4v-3.8h1.2v7.2h-1V42.7z"/>
			<path id="XMLID_207_" class="st4" d="M599.7,42.7v-7.2h1.1v1c0.2-0.4,0.5-0.6,0.9-0.8s0.8-0.3,1.3-0.3s1,0.1,1.3,0.3
				s0.6,0.5,0.7,0.9c0.6-0.8,1.3-1.3,2.2-1.3c0.7,0,1.3,0.2,1.6,0.6c0.4,0.4,0.6,1,0.6,1.8v4.9h-1.2v-4.5c0-0.5,0-0.8-0.1-1
				s-0.2-0.4-0.4-0.5s-0.5-0.2-0.7-0.2c-0.5,0-0.9,0.2-1.3,0.5c-0.3,0.3-0.5,0.9-0.5,1.6v4.2H604V38c0-0.5-0.1-0.9-0.3-1.2
				s-0.5-0.4-1-0.4c-0.3,0-0.7,0.1-0.9,0.3c-0.3,0.2-0.5,0.4-0.6,0.8c-0.1,0.3-0.2,0.8-0.2,1.5v3.7C601,42.7,599.7,42.7,599.7,42.7z
				"/>
			<path id="XMLID_209_" class="st4" d="M616.1,40.4l1.3,0.2c-0.2,0.7-0.6,1.3-1.1,1.7s-1.2,0.6-2.1,0.6c-1,0-1.9-0.3-2.5-1
				c-0.6-0.6-0.9-1.5-0.9-2.7s0.3-2.1,0.9-2.8c0.6-0.7,1.4-1,2.4-1s1.7,0.3,2.3,1s0.9,1.6,0.9,2.8c0,0.1,0,0.2,0,0.3H612
				c0,0.8,0.3,1.4,0.7,1.8s0.9,0.6,1.5,0.6c0.4,0,0.8-0.1,1.1-0.4C615.7,41.3,616,40.9,616.1,40.4z M612.2,38.5h4
				c-0.1-0.6-0.2-1.1-0.5-1.4c-0.4-0.5-0.9-0.7-1.5-0.7s-1,0.2-1.4,0.6C612.4,37.3,612.2,37.8,612.2,38.5z"/>
			<path id="XMLID_212_" class="st4" d="M618.9,42.7v-7.2h1.1v1.1c0.3-0.5,0.5-0.8,0.8-1s0.5-0.2,0.8-0.2c0.4,0,0.8,0.1,1.2,0.4
				l-0.4,1.1c-0.3-0.2-0.6-0.3-0.9-0.3c-0.3,0-0.5,0.1-0.7,0.2c-0.2,0.2-0.4,0.4-0.5,0.7c-0.1,0.4-0.2,0.9-0.2,1.4v3.8H618.9z"/>
			<path id="XMLID_214_" class="st4" d="M623.1,39.1c0-1.3,0.4-2.3,1.1-2.9c0.6-0.5,1.4-0.8,2.3-0.8c1,0,1.8,0.3,2.4,1
				s0.9,1.5,0.9,2.7c0,0.9-0.1,1.6-0.4,2.2s-0.7,0.9-1.2,1.2s-1.1,0.4-1.7,0.4c-1,0-1.8-0.3-2.4-1S623.1,40.4,623.1,39.1z
				 M624.3,39.1c0,0.9,0.2,1.6,0.6,2.1c0.4,0.5,0.9,0.7,1.5,0.7s1.1-0.2,1.5-0.7s0.6-1.2,0.6-2.1c0-0.9-0.2-1.6-0.6-2
				c-0.4-0.5-0.9-0.7-1.5-0.7s-1.1,0.2-1.5,0.7C624.5,37.5,624.3,38.2,624.3,39.1z"/>
			<path id="XMLID_217_" class="st4" d="M579.3,53.6v-1.2h3.7v1.2H579.3z"/>
			<path id="XMLID_219_" class="st4" d="M589.3,54.2l1.3,0.2c-0.2,0.7-0.6,1.3-1.1,1.7s-1.2,0.6-2.1,0.6c-1,0-1.9-0.3-2.5-1
				c-0.6-0.6-0.9-1.5-0.9-2.7s0.3-2.1,0.9-2.8c0.6-0.7,1.4-1,2.4-1s1.7,0.3,2.3,1s0.9,1.6,0.9,2.8c0,0.1,0,0.2,0,0.3h-5.3
				c0,0.8,0.3,1.4,0.7,1.8s0.9,0.6,1.5,0.6c0.4,0,0.8-0.1,1.1-0.4C588.8,55.1,589.1,54.7,589.3,54.2z M585.3,52.3h4
				c-0.1-0.6-0.2-1.1-0.5-1.4c-0.4-0.5-0.9-0.7-1.5-0.7s-1,0.2-1.4,0.6C585.5,51.1,585.3,51.6,585.3,52.3z"/>
			<path id="XMLID_222_" class="st4" d="M591.6,54.4l1.2-0.2c0.1,0.5,0.3,0.8,0.6,1.1s0.7,0.4,1.3,0.4s1-0.1,1.2-0.3
				c0.3-0.2,0.4-0.5,0.4-0.8s-0.1-0.5-0.4-0.6c-0.2-0.1-0.6-0.2-1.2-0.4c-0.9-0.2-1.5-0.4-1.9-0.6c-0.3-0.2-0.6-0.4-0.8-0.7
				s-0.3-0.6-0.3-1c0-0.3,0.1-0.6,0.2-0.9c0.1-0.3,0.3-0.5,0.6-0.7c0.2-0.1,0.4-0.3,0.8-0.4s0.7-0.1,1-0.1c0.6,0,1.1,0.1,1.5,0.2
				s0.7,0.4,0.9,0.7s0.3,0.6,0.4,1.1l-1.2,0.2c-0.1-0.4-0.2-0.7-0.5-0.9s-0.6-0.3-1.1-0.3c-0.6,0-1,0.1-1.2,0.3s-0.4,0.4-0.4,0.6
				c0,0.2,0,0.3,0.1,0.4c0.1,0.1,0.3,0.2,0.5,0.3c0.1,0,0.5,0.1,1.1,0.3c0.9,0.2,1.5,0.4,1.8,0.6c0.3,0.1,0.6,0.4,0.8,0.6
				c0.2,0.3,0.3,0.6,0.3,1s-0.1,0.8-0.4,1.1c-0.2,0.4-0.6,0.6-1,0.8s-0.9,0.3-1.5,0.3c-0.9,0-1.6-0.2-2.1-0.6S591.7,55.2,591.6,54.4
				z"/>
			<path id="XMLID_224_" class="st4" d="M599,59.3v-9.9h1.1v0.9c0.3-0.4,0.6-0.6,0.9-0.8c0.3-0.2,0.7-0.3,1.2-0.3
				c0.6,0,1.2,0.2,1.6,0.5s0.8,0.8,1.1,1.3c0.2,0.6,0.4,1.2,0.4,1.9s-0.1,1.4-0.4,2c-0.3,0.6-0.6,1-1.1,1.3s-1,0.5-1.6,0.5
				c-0.4,0-0.8-0.1-1.1-0.3s-0.6-0.4-0.8-0.6v3.5C600.3,59.3,599,59.3,599,59.3z M600.1,53c0,0.9,0.2,1.6,0.6,2
				c0.4,0.4,0.8,0.7,1.4,0.7c0.5,0,1-0.2,1.4-0.7s0.6-1.2,0.6-2.1c0-0.9-0.2-1.6-0.6-2.1c-0.4-0.5-0.8-0.7-1.3-0.7s-1,0.2-1.4,0.7
				C600.3,51.4,600.1,52.1,600.1,53z"/>
			<path id="XMLID_227_" class="st4" d="M611.5,54.2l1.3,0.2c-0.2,0.7-0.6,1.3-1.1,1.7s-1.2,0.6-2.1,0.6c-1,0-1.9-0.3-2.5-1
				c-0.6-0.6-0.9-1.5-0.9-2.7s0.3-2.1,0.9-2.8c0.6-0.7,1.4-1,2.4-1s1.7,0.3,2.3,1s0.9,1.6,0.9,2.8c0,0.1,0,0.2,0,0.3h-5.3
				c0,0.8,0.3,1.4,0.7,1.8s0.9,0.6,1.5,0.6c0.4,0,0.8-0.1,1.1-0.4C611.1,55.1,611.4,54.7,611.5,54.2z M607.6,52.3h4
				c-0.1-0.6-0.2-1.1-0.5-1.4c-0.4-0.5-0.9-0.7-1.5-0.7s-1,0.2-1.4,0.6C607.8,51.1,607.6,51.6,607.6,52.3z"/>
			<path id="XMLID_230_" class="st4" d="M619,53.9l1.2,0.2c-0.1,0.8-0.5,1.5-1,1.9c-0.5,0.5-1.2,0.7-2,0.7c-1,0-1.8-0.3-2.4-1
				c-0.6-0.6-0.9-1.6-0.9-2.8c0-0.8,0.1-1.5,0.4-2c0.3-0.6,0.6-1,1.2-1.3c0.5-0.3,1.1-0.4,1.7-0.4c0.8,0,1.4,0.2,1.9,0.6
				c0.5,0.4,0.8,1,1,1.7l-1.2,0.2c-0.1-0.5-0.3-0.8-0.6-1.1c-0.3-0.2-0.6-0.4-1-0.4c-0.6,0-1.1,0.2-1.5,0.7
				c-0.4,0.4-0.6,1.1-0.6,2.1s0.2,1.7,0.6,2.1c0.4,0.4,0.8,0.7,1.4,0.7c0.5,0,0.9-0.1,1.2-0.4C618.7,55,618.9,54.5,619,53.9z"/>
			<path id="XMLID_232_" class="st4" d="M621.2,48v-1.4h1.2V48H621.2z M621.2,56.5v-7.2h1.2v7.2H621.2z"/>
			<path id="XMLID_235_" class="st4" d="M629,55.7c-0.5,0.4-0.9,0.7-1.3,0.8s-0.9,0.2-1.3,0.2c-0.8,0-1.4-0.2-1.8-0.6
				s-0.6-0.9-0.6-1.5c0-0.4,0.1-0.7,0.2-1c0.2-0.3,0.4-0.5,0.6-0.7s0.5-0.3,0.9-0.4c0.2-0.1,0.6-0.1,1.1-0.2c1-0.1,1.7-0.3,2.2-0.4
				c0-0.2,0-0.3,0-0.3c0-0.5-0.1-0.8-0.3-1c-0.3-0.3-0.8-0.4-1.4-0.4c-0.6,0-1,0.1-1.3,0.3s-0.5,0.6-0.6,1.1l-1.2-0.2
				c0.1-0.5,0.3-0.9,0.5-1.2s0.6-0.6,1.1-0.7c0.5-0.2,1-0.3,1.6-0.3s1.1,0.1,1.5,0.2c0.4,0.1,0.7,0.3,0.8,0.5
				c0.2,0.2,0.3,0.5,0.4,0.8c0,0.2,0.1,0.6,0.1,1.1v1.6c0,1.1,0,1.8,0.1,2.1s0.2,0.6,0.3,0.9h-1.3C629.1,56.3,629,56,629,55.7z
				 M628.9,52.9c-0.4,0.2-1.1,0.3-2,0.5c-0.5,0.1-0.9,0.2-1.1,0.2s-0.4,0.2-0.5,0.4s-0.2,0.4-0.2,0.6c0,0.3,0.1,0.6,0.4,0.8
				s0.6,0.3,1.1,0.3s0.9-0.1,1.2-0.3c0.4-0.2,0.6-0.5,0.8-0.8c0.1-0.3,0.2-0.7,0.2-1.2L628.9,52.9L628.9,52.9z"/>
			<path id="XMLID_238_" class="st4" d="M632,56.5v-9.9h1.2v9.9H632z"/>
			<path id="XMLID_240_" class="st4" d="M635.1,48v-1.4h1.2V48H635.1z M635.1,56.5v-7.2h1.2v7.2H635.1z"/>
			<path id="XMLID_243_" class="st4" d="M642.8,56.5v-0.9c-0.5,0.7-1.1,1.1-2,1.1c-0.6,0-1.1-0.2-1.6-0.5s-0.9-0.8-1.1-1.3
				s-0.4-1.2-0.4-1.9s0.1-1.4,0.4-1.9c0.2-0.6,0.6-1,1.1-1.3s1-0.5,1.6-0.5c0.4,0,0.8,0.1,1.2,0.3c0.3,0.2,0.6,0.4,0.8,0.7v-3.5h1.2
				v9.9h-1.2V56.5z M638.9,53c0,0.9,0.2,1.6,0.6,2.1c0.4,0.5,0.8,0.7,1.4,0.7c0.5,0,1-0.2,1.4-0.7c0.4-0.4,0.6-1.1,0.6-2
				c0-1-0.2-1.7-0.6-2.2c-0.4-0.5-0.8-0.7-1.4-0.7c-0.5,0-1,0.2-1.4,0.7C639.1,51.3,638.9,52,638.9,53z"/>
			<path id="XMLID_246_" class="st4" d="M650.5,55.7c-0.5,0.4-0.9,0.7-1.3,0.8s-0.9,0.2-1.3,0.2c-0.8,0-1.4-0.2-1.8-0.6
				s-0.6-0.9-0.6-1.5c0-0.4,0.1-0.7,0.2-1c0.2-0.3,0.4-0.5,0.6-0.7s0.5-0.3,0.9-0.4c0.2-0.1,0.6-0.1,1.1-0.2c1-0.1,1.7-0.3,2.2-0.4
				c0-0.2,0-0.3,0-0.3c0-0.5-0.1-0.8-0.3-1c-0.3-0.3-0.8-0.4-1.4-0.4c-0.6,0-1,0.1-1.3,0.3s-0.5,0.6-0.6,1.1l-1.2-0.2
				c0.1-0.5,0.3-0.9,0.5-1.2s0.6-0.6,1.1-0.7c0.5-0.2,1-0.3,1.6-0.3s1.1,0.1,1.5,0.2c0.4,0.1,0.7,0.3,0.8,0.5
				c0.2,0.2,0.3,0.5,0.4,0.8c0,0.2,0.1,0.6,0.1,1.1v1.6c0,1.1,0,1.8,0.1,2.1s0.2,0.6,0.3,0.9h-1.3C650.6,56.3,650.5,56,650.5,55.7z
				 M650.4,52.9c-0.4,0.2-1.1,0.3-2,0.5c-0.5,0.1-0.9,0.2-1.1,0.2s-0.4,0.2-0.5,0.4s-0.2,0.4-0.2,0.6c0,0.3,0.1,0.6,0.4,0.8
				s0.6,0.3,1.1,0.3s0.9-0.1,1.2-0.3c0.4-0.2,0.6-0.5,0.8-0.8c0.1-0.3,0.2-0.7,0.2-1.2L650.4,52.9L650.4,52.9z"/>
			<path id="XMLID_249_" class="st4" d="M658.1,56.5v-0.9c-0.5,0.7-1.1,1.1-2,1.1c-0.6,0-1.1-0.2-1.6-0.5s-0.9-0.8-1.1-1.3
				S653,53.7,653,53s0.1-1.4,0.4-1.9c0.2-0.6,0.6-1,1.1-1.3s1-0.5,1.6-0.5c0.4,0,0.8,0.1,1.2,0.3c0.3,0.2,0.6,0.4,0.8,0.7v-3.5h1.2
				v9.9h-1.2V56.5z M654.3,53c0,0.9,0.2,1.6,0.6,2.1c0.4,0.5,0.8,0.7,1.4,0.7c0.5,0,1-0.2,1.4-0.7c0.4-0.4,0.6-1.1,0.6-2
				c0-1-0.2-1.7-0.6-2.2c-0.4-0.5-0.8-0.7-1.4-0.7c-0.5,0-1,0.2-1.4,0.7C654.5,51.3,654.3,52,654.3,53z"/>
		</g>
		<g id="XMLID_155_">
			<path id="XMLID_156_" class="st4" d="M582.3,86.3v-2.7h-2.7v-1.1h2.7v-2.7h1.1v2.7h2.7v1.1h-2.7v2.7H582.3z"/>
			<path id="XMLID_158_" class="st4" d="M592.5,85.3l1.2,0.2c-0.1,0.8-0.5,1.5-1,1.9c-0.5,0.5-1.2,0.7-2,0.7c-1,0-1.8-0.3-2.4-1
				c-0.6-0.6-0.9-1.6-0.9-2.8c0-0.8,0.1-1.5,0.4-2c0.3-0.6,0.6-1,1.2-1.3c0.5-0.3,1.1-0.4,1.7-0.4c0.8,0,1.4,0.2,1.9,0.6
				s0.8,1,1,1.7l-1.2,0.2c-0.1-0.5-0.3-0.8-0.6-1.1c-0.3-0.2-0.6-0.4-1-0.4c-0.6,0-1.1,0.2-1.5,0.7c-0.4,0.4-0.6,1.1-0.6,2.1
				s0.2,1.7,0.6,2.1c0.4,0.4,0.8,0.7,1.4,0.7c0.5,0,0.9-0.1,1.2-0.4C592.2,86.4,592.4,85.9,592.5,85.3z"/>
			<path id="XMLID_162_" class="st4" d="M594.3,84.4c0-1.3,0.4-2.3,1.1-2.9c0.6-0.5,1.4-0.8,2.3-0.8c1,0,1.8,0.3,2.4,1
				s0.9,1.5,0.9,2.7c0,0.9-0.1,1.6-0.4,2.2s-0.7,0.9-1.2,1.2c-0.5,0.3-1.1,0.4-1.7,0.4c-1,0-1.8-0.3-2.4-1S594.3,85.6,594.3,84.4z
				 M595.5,84.4c0,0.9,0.2,1.6,0.6,2.1c0.4,0.5,0.9,0.7,1.5,0.7s1.1-0.2,1.5-0.7s0.6-1.2,0.6-2.1s-0.2-1.6-0.6-2
				c-0.4-0.5-0.9-0.7-1.5-0.7s-1.1,0.2-1.5,0.7C595.7,82.8,595.5,83.4,595.5,84.4z"/>
			<path id="XMLID_166_" class="st4" d="M602.4,87.9v-7.2h1.1v1c0.5-0.8,1.3-1.2,2.3-1.2c0.4,0,0.8,0.1,1.2,0.2
				c0.4,0.2,0.6,0.4,0.8,0.6s0.3,0.6,0.4,0.9c0,0.2,0.1,0.6,0.1,1.2v4.4H607v-4.4c0-0.5,0-0.9-0.1-1.1s-0.3-0.4-0.5-0.6
				c-0.2-0.1-0.5-0.2-0.8-0.2c-0.5,0-1,0.2-1.3,0.5c-0.4,0.3-0.6,1-0.6,1.9v3.9L602.4,87.9L602.4,87.9z"/>
			<path id="XMLID_168_" class="st4" d="M609.6,85.8l1.2-0.2c0.1,0.5,0.3,0.8,0.6,1.1c0.3,0.3,0.7,0.4,1.3,0.4s1-0.1,1.2-0.3
				c0.3-0.2,0.4-0.5,0.4-0.8s-0.1-0.5-0.4-0.6c-0.2-0.1-0.6-0.2-1.2-0.4c-0.9-0.2-1.5-0.4-1.9-0.6c-0.3-0.2-0.6-0.4-0.8-0.7
				s-0.3-0.6-0.3-1c0-0.3,0.1-0.6,0.2-0.9c0.1-0.3,0.3-0.5,0.6-0.7c0.2-0.1,0.4-0.3,0.8-0.4s0.7-0.1,1-0.1c0.6,0,1.1,0.1,1.5,0.2
				c0.4,0.2,0.7,0.4,0.9,0.7c0.2,0.3,0.3,0.6,0.4,1.1l-1.2,0.2c-0.1-0.4-0.2-0.7-0.5-0.9c-0.3-0.2-0.6-0.3-1.1-0.3
				c-0.6,0-1,0.1-1.2,0.3s-0.4,0.4-0.4,0.6s0,0.3,0.1,0.4s0.3,0.2,0.5,0.3c0.1,0,0.5,0.1,1.1,0.3c0.9,0.2,1.5,0.4,1.8,0.6
				c0.3,0.1,0.6,0.4,0.8,0.6c0.2,0.3,0.3,0.6,0.3,1s-0.1,0.8-0.4,1.1c-0.2,0.4-0.6,0.6-1,0.8c-0.4,0.2-0.9,0.3-1.5,0.3
				c-0.9,0-1.6-0.2-2.1-0.6C610.1,87.1,609.8,86.6,609.6,85.8z"/>
			<path id="XMLID_170_" class="st4" d="M621.7,87.9v-1.1c-0.6,0.8-1.3,1.2-2.3,1.2c-0.4,0-0.8-0.1-1.2-0.2s-0.6-0.4-0.8-0.6
				s-0.3-0.5-0.4-0.9c0-0.2-0.1-0.6-0.1-1.1v-4.4h1.2v4c0,0.6,0,1.1,0.1,1.3c0.1,0.3,0.2,0.6,0.5,0.8c0.2,0.2,0.6,0.3,0.9,0.3
				s0.7-0.1,1-0.3s0.5-0.4,0.7-0.8c0.1-0.3,0.2-0.8,0.2-1.4v-3.8h1.2v7.2h-1V87.9z"/>
			<path id="XMLID_172_" class="st4" d="M624.7,87.9V78h1.2v9.9H624.7z"/>
			<path id="XMLID_174_" class="st4" d="M630.4,86.9l0.2,1.1c-0.3,0.1-0.6,0.1-0.9,0.1c-0.4,0-0.8-0.1-1-0.2s-0.4-0.3-0.5-0.5
				s-0.1-0.7-0.1-1.4v-4.1h-0.9V81h0.9v-2l1.2-0.7v2.5h1.2v0.9h-1.2v4.2c0,0.3,0,0.6,0.1,0.7c0,0.1,0.1,0.2,0.2,0.2s0.2,0.1,0.4,0.1
				C630,86.9,630.2,86.9,630.4,86.9z"/>
			<path id="XMLID_176_" class="st4" d="M636.3,87.1c-0.5,0.4-0.9,0.7-1.3,0.8s-0.9,0.2-1.3,0.2c-0.8,0-1.4-0.2-1.8-0.6
				s-0.6-0.9-0.6-1.5c0-0.4,0.1-0.7,0.2-1c0.2-0.3,0.4-0.5,0.6-0.7s0.5-0.3,0.9-0.4c0.2-0.1,0.6-0.1,1.1-0.2c1-0.1,1.7-0.3,2.2-0.4
				c0-0.2,0-0.3,0-0.3c0-0.5-0.1-0.8-0.3-1c-0.3-0.3-0.8-0.4-1.4-0.4c-0.6,0-1,0.1-1.3,0.3c-0.3,0.2-0.5,0.6-0.6,1.1l-1.2-0.2
				c0.1-0.5,0.3-0.9,0.5-1.2c0.2-0.3,0.6-0.6,1.1-0.7c0.5-0.2,1-0.3,1.6-0.3s1.1,0.1,1.5,0.2s0.7,0.3,0.8,0.5
				c0.2,0.2,0.3,0.5,0.4,0.8c0,0.2,0.1,0.6,0.1,1.1v1.6c0,1.1,0,1.8,0.1,2.1c0.1,0.3,0.2,0.6,0.3,0.9h-1.3
				C636.4,87.7,636.3,87.4,636.3,87.1z M636.2,84.3c-0.4,0.2-1.1,0.3-2,0.5c-0.5,0.1-0.9,0.2-1.1,0.2s-0.4,0.2-0.5,0.4
				c-0.1,0.2-0.2,0.4-0.2,0.6c0,0.3,0.1,0.6,0.4,0.8s0.6,0.3,1.1,0.3s0.9-0.1,1.2-0.3c0.4-0.2,0.6-0.5,0.8-0.8
				c0.1-0.3,0.2-0.7,0.2-1.2L636.2,84.3L636.2,84.3z"/>
			<path id="XMLID_179_" class="st4" d="M639.3,87.9v-7.2h1.1v1.1c0.3-0.5,0.5-0.8,0.8-1c0.2-0.2,0.5-0.2,0.8-0.2
				c0.4,0,0.8,0.1,1.2,0.4l-0.4,1.1c-0.3-0.2-0.6-0.3-0.9-0.3c-0.3,0-0.5,0.1-0.7,0.2c-0.2,0.2-0.4,0.4-0.5,0.7
				c-0.1,0.4-0.2,0.9-0.2,1.4v3.8H639.3z"/>
			<path id="XMLID_181_" class="st4" d="M644.1,87.9V78h3.7c0.7,0,1.2,0,1.5,0.1c0.5,0.1,0.9,0.2,1.2,0.5s0.6,0.5,0.8,1
				c0.2,0.4,0.3,0.9,0.3,1.3c0,0.8-0.3,1.6-0.8,2.1c-0.5,0.6-1.5,0.9-2.9,0.9h-2.5v4H644.1z M645.4,82.8h2.6c0.8,0,1.4-0.2,1.8-0.5
				c0.4-0.3,0.5-0.8,0.5-1.3c0-0.4-0.1-0.8-0.3-1.1c-0.2-0.3-0.5-0.5-0.8-0.6c-0.2-0.1-0.6-0.1-1.2-0.1h-2.5L645.4,82.8L645.4,82.8z
				"/>
			<path id="XMLID_184_" class="st4" d="M658,85.6l1.3,0.2c-0.2,0.7-0.6,1.3-1.1,1.7c-0.5,0.4-1.2,0.6-2.1,0.6c-1,0-1.9-0.3-2.5-1
				c-0.6-0.6-0.9-1.5-0.9-2.7s0.3-2.1,0.9-2.8c0.6-0.7,1.4-1,2.4-1s1.7,0.3,2.3,1s0.9,1.6,0.9,2.8c0,0.1,0,0.2,0,0.3H654
				c0,0.8,0.3,1.4,0.7,1.8s0.9,0.6,1.5,0.6c0.4,0,0.8-0.1,1.1-0.4C657.6,86.5,657.8,86.1,658,85.6z M654,83.7h4
				c-0.1-0.6-0.2-1.1-0.5-1.4c-0.4-0.5-0.9-0.7-1.5-0.7s-1,0.2-1.4,0.6C654.3,82.5,654.1,83,654,83.7z"/>
			<path id="XMLID_187_" class="st4" d="M660.8,87.9v-7.2h1.1v1.1c0.3-0.5,0.5-0.8,0.8-1s0.5-0.2,0.8-0.2c0.4,0,0.8,0.1,1.2,0.4
				l-0.4,1.1c-0.3-0.2-0.6-0.3-0.9-0.3c-0.3,0-0.5,0.1-0.7,0.2c-0.2,0.2-0.4,0.4-0.5,0.7c-0.1,0.4-0.2,0.9-0.2,1.4v3.8H660.8z"/>
			<path id="XMLID_189_" class="st4" d="M665.7,87.9v-6.2h-1.1v-0.9h1.1V80c0-0.5,0-0.8,0.1-1.1c0.1-0.3,0.3-0.6,0.6-0.8
				c0.3-0.2,0.7-0.3,1.2-0.3c0.3,0,0.7,0,1.1,0.1l-0.2,1.1c-0.3,0-0.5-0.1-0.7-0.1c-0.4,0-0.6,0.1-0.8,0.2c-0.2,0.2-0.2,0.5-0.2,0.9
				v0.7h1.4v0.9h-1.4v6.2h-1.1V87.9z"/>
			<path id="XMLID_191_" class="st4" d="M669.2,79.4V78h1.2v1.4H669.2z M669.2,87.9v-7.2h1.2v7.2H669.2z"/>
			<path id="XMLID_194_" class="st4" d="M672.3,87.9V78h1.2v9.9H672.3z"/>
			<path id="XMLID_196_" class="st4" d="M677.7,90.9c-0.7-0.8-1.2-1.8-1.7-3c-0.5-1.1-0.7-2.3-0.7-3.5c0-1.1,0.2-2.1,0.5-3.1
				c0.4-1.1,1-2.3,1.9-3.4h0.9c-0.5,0.9-0.9,1.6-1.1,2c-0.3,0.6-0.5,1.3-0.6,1.9c-0.2,0.8-0.3,1.7-0.3,2.5c0,2.2,0.7,4.3,2,6.5
				L677.7,90.9L677.7,90.9z"/>
			<path id="XMLID_198_" class="st4" d="M680.8,90.9h-0.9c1.3-2.2,2-4.3,2-6.5c0-0.8-0.1-1.7-0.3-2.5c-0.2-0.7-0.4-1.3-0.6-1.9
				c-0.2-0.4-0.5-1.1-1.1-2h0.9c0.8,1.1,1.5,2.3,1.9,3.4c0.3,1,0.5,2,0.5,3.1c0,1.2-0.2,2.4-0.7,3.5C682,89,681.4,90,680.8,90.9z"/>
		</g>
		<line id="XMLID_17136_" class="st5" x1="571.1" y1="25.5" x2="713.7" y2="25.5"/>
		<line id="XMLID_17135_" class="st5" x1="571.1" y1="65.4" x2="713.7" y2="65.4"/>
	</g>
	<g id="XMLID_17211_">
		<g id="XMLID_17216_">
			<rect id="XMLID_161_" x="209.8" y="314.4" class="st3" width="122.5" height="75.3"/>
			<g id="XMLID_140_">
				<path id="XMLID_142_" class="st1" d="M331.1,315.6v72.8h-120v-72.8L331.1,315.6 M333.6,313.1h-2.5h-120h-2.5v2.5v72.8v2.5h2.5
					h120h2.5v-2.5v-72.8V313.1L333.6,313.1z"/>
			</g>
		</g>
		<g id="XMLID_133_">
			<path id="XMLID_134_" class="st4" d="M259.6,328.4l1.1,0.3c-0.2,0.9-0.6,1.6-1.2,2.1s-1.3,0.7-2.2,0.7c-0.9,0-1.6-0.2-2.2-0.5
				c-0.6-0.4-1-0.9-1.3-1.6s-0.4-1.4-0.4-2.2c0-0.9,0.2-1.6,0.5-2.3c0.3-0.6,0.8-1.1,1.4-1.5s1.3-0.5,2-0.5c0.8,0,1.5,0.2,2.1,0.6
				s1,1,1.2,1.8l-1.1,0.3c-0.2-0.6-0.5-1-0.8-1.3s-0.8-0.4-1.4-0.4s-1.2,0.2-1.6,0.5s-0.7,0.7-0.9,1.2s-0.3,1-0.3,1.6
				c0,0.7,0.1,1.3,0.3,1.9c0.2,0.5,0.5,0.9,1,1.2c0.4,0.3,0.9,0.4,1.4,0.4c0.6,0,1.1-0.2,1.6-0.5
				C259.2,329.6,259.5,329.1,259.6,328.4z"/>
			<path id="XMLID_136_" class="st4" d="M262,324.1V323h1v1.2h-1V324.1z M262,331.3v-6h1v6H262z"/>
			<path id="XMLID_139_" class="st4" d="M264.5,331.3v-6h0.9v0.9c0.2-0.4,0.5-0.7,0.7-0.8c0.2-0.1,0.4-0.2,0.7-0.2
				c0.3,0,0.7,0.1,1.1,0.3l-0.4,0.9c-0.2-0.1-0.5-0.2-0.7-0.2s-0.4,0.1-0.6,0.2s-0.3,0.3-0.4,0.6c-0.1,0.4-0.2,0.8-0.2,1.2v3.2h-1.1
				V331.3z"/>
			<path id="XMLID_143_" class="st4" d="M272.4,331.3v-0.9c-0.5,0.7-1.1,1-1.9,1c-0.4,0-0.7-0.1-1-0.2s-0.5-0.3-0.7-0.5
				s-0.3-0.5-0.3-0.8c0-0.2-0.1-0.5-0.1-1v-3.7h1v3.3c0,0.5,0,0.9,0.1,1.1c0.1,0.3,0.2,0.5,0.4,0.6s0.5,0.2,0.8,0.2s0.6-0.1,0.9-0.2
				c0.3-0.2,0.5-0.4,0.6-0.6c0.1-0.3,0.2-0.7,0.2-1.2v-3.2h1v6h-1V331.3z"/>
			<path id="XMLID_146_" class="st4" d="M274.7,331.8l1,0.1c0,0.3,0.2,0.5,0.3,0.7c0.3,0.2,0.6,0.3,1,0.3c0.5,0,0.8-0.1,1.1-0.3
				s0.4-0.5,0.5-0.8c0.1-0.2,0.1-0.6,0.1-1.3c-0.4,0.5-1,0.8-1.7,0.8c-0.8,0-1.5-0.3-1.9-0.9c-0.5-0.6-0.7-1.3-0.7-2.2
				c0-0.6,0.1-1.1,0.3-1.6s0.5-0.9,0.9-1.1s0.9-0.4,1.4-0.4c0.7,0,1.3,0.3,1.8,0.9v-0.7h0.9v5.2c0,0.9-0.1,1.6-0.3,2
				c-0.2,0.4-0.5,0.7-0.9,0.9c-0.4,0.2-0.9,0.3-1.5,0.3c-0.7,0-1.3-0.2-1.7-0.5C274.9,332.9,274.7,332.4,274.7,331.8z M275.6,328.2
				c0,0.8,0.2,1.4,0.5,1.7c0.3,0.4,0.7,0.5,1.2,0.5s0.9-0.2,1.2-0.5c0.3-0.4,0.5-0.9,0.5-1.7c0-0.7-0.2-1.3-0.5-1.7
				c-0.3-0.4-0.7-0.6-1.2-0.6s-0.8,0.2-1.2,0.6C275.7,326.9,275.6,327.4,275.6,328.2z"/>
			<path id="XMLID_149_" class="st4" d="M281.4,324.1V323h1v1.2h-1V324.1z M281.4,331.3v-6h1v6H281.4z"/>
			<path id="XMLID_152_" class="st4" d="M287.9,330.6c-0.4,0.3-0.7,0.5-1.1,0.7c-0.4,0.1-0.7,0.2-1.1,0.2c-0.7,0-1.2-0.2-1.5-0.5
				c-0.4-0.3-0.5-0.7-0.5-1.2c0-0.3,0.1-0.6,0.2-0.8c0.1-0.2,0.3-0.4,0.5-0.6s0.5-0.3,0.7-0.3c0.2-0.1,0.5-0.1,0.9-0.2
				c0.8-0.1,1.4-0.2,1.8-0.4c0-0.1,0-0.2,0-0.3c0-0.4-0.1-0.7-0.3-0.9c-0.3-0.2-0.6-0.3-1.2-0.3c-0.5,0-0.8,0.1-1.1,0.3
				c-0.2,0.2-0.4,0.5-0.5,0.9l-1-0.1c0.1-0.4,0.2-0.8,0.4-1c0.2-0.3,0.5-0.5,0.9-0.6s0.8-0.2,1.4-0.2c0.5,0,0.9,0.1,1.3,0.2
				c0.3,0.1,0.6,0.3,0.7,0.5s0.3,0.4,0.3,0.7c0,0.2,0.1,0.5,0.1,0.9v1.4c0,1,0,1.6,0.1,1.8c0,0.3,0.1,0.5,0.3,0.7h-1.1
				C288,331.1,287.9,330.8,287.9,330.6z M287.8,328.3c-0.4,0.2-0.9,0.3-1.7,0.4c-0.4,0.1-0.7,0.1-0.9,0.2c-0.2,0.1-0.3,0.2-0.4,0.3
				s-0.1,0.3-0.1,0.5c0,0.3,0.1,0.5,0.3,0.7s0.5,0.3,0.9,0.3s0.7-0.1,1-0.3c0.3-0.2,0.5-0.4,0.7-0.7c0.1-0.2,0.2-0.6,0.2-1V328.3z"
				/>
		</g>
		<line id="XMLID_17213_" class="st5" x1="211.1" y1="340.1" x2="331.1" y2="340.1"/>
		<line id="XMLID_17212_" class="st5" x1="211.1" y1="364.5" x2="331.1" y2="364.5"/>
	</g>
	<g id="XMLID_17210_">
		<rect id="XMLID_549_" x="383.8" y="314.4" class="st3" width="122.5" height="75.3"/>
		<g id="XMLID_545_">
			<path id="XMLID_546_" class="st1" d="M505.1,315.6v72.8h-120v-72.8L505.1,315.6 M507.6,313.1h-2.5h-120h-2.5v2.5v72.8v2.5h2.5
				h120h2.5v-2.5v-72.8V313.1L507.6,313.1z"/>
		</g>
	</g>
	<g id="XMLID_98_">
		<path id="XMLID_99_" class="st4" d="M411.2,331.3V323h1.7l2,5.9c0.2,0.5,0.3,1,0.4,1.2c0.1-0.3,0.2-0.7,0.4-1.3l2-5.8h1.5v8.3
			h-1.1v-7l-2.4,7h-1l-2.4-7.1v7.1L411.2,331.3L411.2,331.3z"/>
		<path id="XMLID_102_" class="st4" d="M424.9,329.4l1.1,0.1c-0.2,0.6-0.5,1.1-0.9,1.4c-0.5,0.3-1,0.5-1.7,0.5
			c-0.9,0-1.6-0.3-2.1-0.8s-0.8-1.3-0.8-2.3s0.3-1.8,0.8-2.4s1.2-0.8,2-0.8s1.5,0.3,2,0.8s0.8,1.3,0.8,2.3c0,0.1,0,0.2,0,0.3h-4.5
			c0,0.7,0.2,1.2,0.6,1.5c0.3,0.4,0.8,0.5,1.3,0.5c0.4,0,0.7-0.1,1-0.3C424.5,330.1,424.8,329.8,424.9,329.4z M421.6,327.7h3.4
			c0-0.5-0.2-0.9-0.4-1.1c-0.3-0.4-0.7-0.6-1.3-0.6c-0.5,0-0.9,0.2-1.2,0.5S421.6,327.2,421.6,327.7z"/>
		<path id="XMLID_107_" class="st4" d="M431.2,331.3v-0.8c-0.4,0.6-0.9,0.9-1.7,0.9c-0.5,0-0.9-0.1-1.3-0.4s-0.7-0.6-0.9-1.1
			c-0.2-0.5-0.3-1-0.3-1.6s0.1-1.1,0.3-1.6c0.2-0.5,0.5-0.9,0.9-1.1s0.8-0.4,1.3-0.4c0.4,0,0.7,0.1,1,0.2c0.3,0.2,0.5,0.4,0.7,0.6
			v-3h1v8.3H431.2z M427.9,328.3c0,0.8,0.2,1.3,0.5,1.7c0.3,0.4,0.7,0.6,1.2,0.6c0.4,0,0.8-0.2,1.1-0.5c0.3-0.4,0.5-0.9,0.5-1.7
			c0-0.8-0.2-1.4-0.5-1.8s-0.7-0.6-1.2-0.6s-0.8,0.2-1.1,0.6S427.9,327.5,427.9,328.3z"/>
		<path id="XMLID_110_" class="st4" d="M433.7,324.1V323h1v1.2h-1V324.1z M433.7,331.3v-6h1v6H433.7z"/>
		<path id="XMLID_113_" class="st4" d="M440.2,329.1l1,0.1c-0.1,0.7-0.4,1.2-0.8,1.6c-0.5,0.4-1,0.6-1.7,0.6c-0.8,0-1.5-0.3-2-0.8
			s-0.8-1.3-0.8-2.3c0-0.7,0.1-1.2,0.3-1.7s0.5-0.9,1-1.1s0.9-0.4,1.4-0.4c0.7,0,1.2,0.2,1.6,0.5s0.7,0.8,0.8,1.4l-1,0.2
			c-0.1-0.4-0.3-0.7-0.5-0.9c-0.2-0.2-0.5-0.3-0.9-0.3c-0.5,0-0.9,0.2-1.3,0.6c-0.3,0.4-0.5,1-0.5,1.8s0.2,1.4,0.5,1.8
			s0.7,0.6,1.2,0.6c0.4,0,0.7-0.1,1-0.4C440,330,440.2,329.6,440.2,329.1z"/>
		<path id="XMLID_115_" class="st4" d="M446,330.6c-0.4,0.3-0.7,0.5-1.1,0.7c-0.3,0.1-0.7,0.2-1.1,0.2c-0.7,0-1.2-0.2-1.5-0.5
			c-0.4-0.3-0.5-0.7-0.5-1.2c0-0.3,0.1-0.6,0.2-0.8c0.1-0.2,0.3-0.4,0.5-0.6c0.2-0.1,0.5-0.3,0.7-0.3c0.2-0.1,0.5-0.1,0.9-0.2
			c0.8-0.1,1.4-0.2,1.8-0.4c0-0.1,0-0.2,0-0.3c0-0.4-0.1-0.7-0.3-0.9c-0.3-0.2-0.6-0.3-1.2-0.3c-0.5,0-0.8,0.1-1.1,0.3
			c-0.2,0.2-0.4,0.5-0.5,0.9l-1-0.1c0.1-0.4,0.2-0.8,0.4-1s0.5-0.5,0.9-0.6s0.8-0.2,1.4-0.2c0.5,0,0.9,0.1,1.3,0.2
			c0.3,0.1,0.6,0.3,0.7,0.5s0.3,0.4,0.3,0.7c0,0.2,0.1,0.5,0.1,0.9v1.4c0,1,0,1.6,0.1,1.8c0,0.3,0.1,0.5,0.3,0.7h-1.1
			C446.1,331.1,446.1,330.8,446,330.6z M446,328.3c-0.4,0.2-0.9,0.3-1.7,0.4c-0.4,0.1-0.7,0.1-0.9,0.2c-0.2,0.1-0.3,0.2-0.4,0.3
			s-0.1,0.3-0.1,0.5c0,0.3,0.1,0.5,0.3,0.7c0.2,0.2,0.5,0.3,0.9,0.3s0.7-0.1,1.1-0.3c0.3-0.2,0.5-0.4,0.7-0.7c0.1-0.2,0.2-0.6,0.2-1
			v-0.4H446z"/>
		<path id="XMLID_118_" class="st4" d="M448.6,331.3v-6h0.9v0.8c0.2-0.3,0.4-0.5,0.8-0.7s0.7-0.3,1.1-0.3s0.8,0.1,1.1,0.3
			s0.5,0.4,0.6,0.8c0.5-0.7,1.1-1.1,1.9-1.1c0.6,0,1.1,0.2,1.4,0.5s0.5,0.8,0.5,1.5v4.1h-1v-3.8c0-0.4,0-0.7-0.1-0.9
			s-0.2-0.3-0.4-0.4c-0.2-0.1-0.4-0.2-0.6-0.2c-0.4,0-0.8,0.1-1.1,0.4s-0.4,0.7-0.4,1.4v3.5h-1v-3.9c0-0.5-0.1-0.8-0.2-1
			c-0.2-0.2-0.4-0.3-0.8-0.3c-0.3,0-0.6,0.1-0.8,0.2s-0.4,0.4-0.5,0.7c-0.1,0.3-0.2,0.7-0.2,1.3v3.1H448.6z"/>
		<path id="XMLID_120_" class="st4" d="M462.4,329.4l1.1,0.1c-0.2,0.6-0.5,1.1-0.9,1.4c-0.5,0.3-1,0.5-1.7,0.5
			c-0.9,0-1.6-0.3-2.1-0.8s-0.8-1.3-0.8-2.3s0.3-1.8,0.8-2.4s1.2-0.8,2-0.8s1.5,0.3,2,0.8s0.8,1.3,0.8,2.3c0,0.1,0,0.2,0,0.3H459
			c0,0.7,0.2,1.2,0.6,1.5c0.3,0.4,0.8,0.5,1.3,0.5c0.4,0,0.7-0.1,1-0.3C462,330.1,462.2,329.8,462.4,329.4z M459,327.7h3.4
			c0-0.5-0.2-0.9-0.4-1.1c-0.3-0.4-0.7-0.6-1.3-0.6c-0.5,0-0.9,0.2-1.2,0.5S459.1,327.2,459,327.7z"/>
		<path id="XMLID_126_" class="st4" d="M464.7,331.3v-6h0.9v0.9c0.4-0.7,1.1-1,1.9-1c0.4,0,0.7,0.1,1,0.2s0.5,0.3,0.7,0.5
			s0.3,0.5,0.3,0.8c0,0.2,0.1,0.5,0.1,1v3.7h-1v-3.7c0-0.4,0-0.7-0.1-0.9c-0.1-0.2-0.2-0.4-0.4-0.5s-0.4-0.2-0.7-0.2
			c-0.4,0-0.8,0.1-1.1,0.4c-0.3,0.3-0.5,0.8-0.5,1.6v3.3L464.7,331.3L464.7,331.3z"/>
		<path id="XMLID_128_" class="st4" d="M473.4,330.4l0.1,0.9c-0.3,0.1-0.5,0.1-0.8,0.1c-0.4,0-0.7-0.1-0.9-0.2
			c-0.2-0.1-0.3-0.3-0.4-0.5s-0.1-0.6-0.1-1.2V326h-0.8v-0.8h0.8v-1.5l1-0.6v2.1h1v0.8h-1v3.5c0,0.3,0,0.5,0.1,0.6
			c0,0.1,0.1,0.1,0.2,0.2c0.1,0,0.2,0.1,0.3,0.1C473.1,330.4,473.2,330.4,473.4,330.4z"/>
		<path id="XMLID_130_" class="st4" d="M474,328.3c0-1.1,0.3-1.9,0.9-2.5c0.5-0.4,1.2-0.7,1.9-0.7c0.8,0,1.5,0.3,2,0.8
			s0.8,1.3,0.8,2.3c0,0.8-0.1,1.4-0.3,1.8c-0.2,0.4-0.6,0.8-1,1s-0.9,0.4-1.5,0.4c-0.8,0-1.5-0.3-2-0.8S474,329.3,474,328.3z
			 M475.1,328.3c0,0.8,0.2,1.4,0.5,1.7s0.8,0.6,1.3,0.6s0.9-0.2,1.3-0.6s0.5-1,0.5-1.8c0-0.7-0.2-1.3-0.5-1.7
			c-0.3-0.4-0.8-0.6-1.3-0.6s-0.9,0.2-1.3,0.6C475.3,326.9,475.1,327.5,475.1,328.3z"/>
	</g>
	<line id="XMLID_17207_" class="st5" x1="385.1" y1="340.1" x2="505.1" y2="340.1"/>
	<line id="XMLID_17206_" class="st5" x1="385.1" y1="364.5" x2="505.1" y2="364.5"/>
	<line id="XMLID_7760_" class="st0" x1="301.4" y1="161.2" x2="129" y2="104.5"/>
	<g id="XMLID_7763_">
		<line id="XMLID_543_" class="st6" x1="432" y1="158.2" x2="587.3" y2="104.5"/>
		<g id="XMLID_32_">
			<line id="XMLID_542_" class="st7" x1="442" y1="154.7" x2="587.3" y2="104.5"/>
			<g id="XMLID_33_">
				<polygon id="XMLID_163_" class="st1" points="432,158.2 448.1,159.1 442.7,154.5 444.1,147.5 				"/>
			</g>
		</g>
	</g>
	<g id="XMLID_81_">
		<path id="XMLID_82_" class="st1" d="M203.1,39.9c-0.5,0.4-1,0.7-1.4,0.9c-0.5,0.2-0.9,0.3-1.5,0.3c-0.9,0-1.5-0.2-2-0.6
			c-0.5-0.4-0.7-1-0.7-1.6c0-0.4,0.1-0.7,0.3-1s0.4-0.6,0.7-0.8s0.6-0.3,0.9-0.4c0.3-0.1,0.6-0.1,1.2-0.2c1.1-0.1,1.8-0.3,2.4-0.5
			c0-0.2,0-0.3,0-0.3c0-0.5-0.1-0.9-0.4-1.1c-0.3-0.3-0.8-0.4-1.5-0.4c-0.6,0-1.1,0.1-1.4,0.3c-0.3,0.2-0.5,0.6-0.7,1.2l-1.3-0.2
			c0.1-0.6,0.3-1,0.6-1.3s0.7-0.6,1.2-0.8s1.1-0.3,1.8-0.3s1.2,0.1,1.6,0.2s0.7,0.4,0.9,0.6c0.2,0.2,0.3,0.5,0.4,0.9
			c0,0.2,0.1,0.6,0.1,1.2v1.8c0,1.2,0,2,0.1,2.3s0.2,0.6,0.3,0.9h-1.4C203.2,40.6,203.1,40.3,203.1,39.9z M203,36.9
			c-0.5,0.2-1.2,0.4-2.2,0.5c-0.5,0.1-0.9,0.2-1.1,0.3c-0.2,0.1-0.4,0.2-0.5,0.4s-0.2,0.4-0.2,0.6c0,0.4,0.1,0.6,0.4,0.9
			c0.3,0.2,0.7,0.4,1.2,0.4s1-0.1,1.4-0.3s0.7-0.5,0.9-0.9c0.1-0.3,0.2-0.7,0.2-1.3L203,36.9L203,36.9z"/>
		<path id="XMLID_85_" class="st1" d="M205.8,38.5l1.3-0.2c0.1,0.5,0.3,0.9,0.6,1.2s0.8,0.4,1.4,0.4c0.6,0,1.1-0.1,1.3-0.4
			c0.3-0.2,0.4-0.5,0.4-0.9c0-0.3-0.1-0.5-0.4-0.7c-0.2-0.1-0.6-0.3-1.3-0.4c-1-0.2-1.6-0.5-2-0.6c-0.4-0.2-0.7-0.4-0.8-0.7
			c-0.2-0.3-0.3-0.7-0.3-1s0.1-0.7,0.2-1c0.2-0.3,0.4-0.5,0.6-0.7c0.2-0.2,0.5-0.3,0.8-0.4c0.4-0.1,0.7-0.2,1.1-0.2
			c0.6,0,1.1,0.1,1.6,0.3s0.8,0.4,1,0.7s0.4,0.7,0.5,1.2l-1.3,0.2c-0.1-0.4-0.2-0.7-0.5-0.9s-0.5-0.4-1-0.4c-0.6,0-1,0.1-1.3,0.3
			s-0.4,0.4-0.4,0.7c0,0.2,0.1,0.3,0.2,0.5c0.1,0.1,0.3,0.3,0.5,0.4c0.1,0,0.5,0.2,1.2,0.3c0.9,0.2,1.6,0.5,2,0.6
			c0.4,0.2,0.7,0.4,0.9,0.7s0.3,0.7,0.3,1.1c0,0.4-0.1,0.9-0.4,1.2c-0.3,0.4-0.6,0.7-1.1,0.9s-1,0.3-1.6,0.3c-1,0-1.8-0.2-2.3-0.6
			S206,39.4,205.8,38.5z"/>
		<path id="XMLID_88_" class="st1" d="M213.9,31.6v-1.5h1.3v1.5H213.9z M213.9,40.9v-7.8h1.3v7.8H213.9z"/>
		<path id="XMLID_91_" class="st1" d="M216.7,38.5l1.3-0.2c0.1,0.5,0.3,0.9,0.6,1.2s0.8,0.4,1.4,0.4c0.6,0,1.1-0.1,1.3-0.4
			c0.3-0.2,0.4-0.5,0.4-0.9c0-0.3-0.1-0.5-0.4-0.7c-0.2-0.1-0.6-0.3-1.3-0.4c-1-0.2-1.6-0.5-2-0.6c-0.4-0.2-0.7-0.4-0.8-0.7
			c-0.2-0.3-0.3-0.7-0.3-1s0.1-0.7,0.2-1c0.2-0.3,0.4-0.5,0.6-0.7c0.2-0.2,0.5-0.3,0.8-0.4c0.4-0.1,0.7-0.2,1.1-0.2
			c0.6,0,1.1,0.1,1.6,0.3s0.8,0.4,1,0.7s0.4,0.7,0.5,1.2l-1.3,0.2c-0.1-0.4-0.2-0.7-0.5-0.9s-0.7-0.3-1.2-0.3c-0.6,0-1,0.1-1.3,0.3
			s-0.4,0.4-0.4,0.7c0,0.2,0.1,0.3,0.2,0.5c0.1,0.1,0.3,0.3,0.5,0.4c0.1,0,0.5,0.2,1.2,0.3c0.9,0.2,1.6,0.5,2,0.6
			c0.4,0.2,0.7,0.4,0.9,0.7s0.3,0.7,0.3,1.1c0,0.4-0.1,0.9-0.4,1.2c-0.3,0.4-0.6,0.7-1.1,0.9s-1,0.3-1.6,0.3c-1,0-1.8-0.2-2.3-0.6
			S216.8,39.4,216.7,38.5z"/>
		<path id="XMLID_93_" class="st1" d="M227.6,39.7l0.2,1.2c-0.4,0.1-0.7,0.1-1,0.1c-0.5,0-0.8-0.1-1.1-0.2c-0.3-0.2-0.4-0.3-0.6-0.6
			c-0.1-0.2-0.2-0.8-0.2-1.6v-4.5h-1v-1h1v-1.9l1.3-0.8v2.7h1.3v1h-1.3v4.5c0,0.4,0,0.6,0.1,0.7c0,0.1,0.1,0.2,0.2,0.3
			s0.3,0.1,0.5,0.1C227.1,39.7,227.3,39.7,227.6,39.7z"/>
		<path id="XMLID_95_" class="st1" d="M234.2,38.3l1.4,0.2c-0.2,0.8-0.6,1.4-1.2,1.9S233,41,232.1,41c-1.1,0-2-0.4-2.7-1.1
			c-0.7-0.7-1-1.7-1-2.9c0-1.3,0.3-2.3,1-3s1.5-1.1,2.6-1.1c1,0,1.9,0.4,2.5,1.1c0.7,0.7,1,1.7,1,3c0,0.1,0,0.2,0,0.4h-5.8
			c0,0.9,0.3,1.5,0.7,2s1,0.7,1.6,0.7c0.5,0,0.9-0.1,1.2-0.4S234,38.9,234.2,38.3z M229.9,36.2h4.3c-0.1-0.7-0.2-1.1-0.5-1.5
			c-0.4-0.5-1-0.8-1.6-0.8s-1.1,0.2-1.5,0.6C230.1,35,229.9,35.5,229.9,36.2z"/>
	</g>
	<g id="XMLID_78_">
		<path id="XMLID_79_" class="st1" d="M163.2,100.9h-1.3v-8.4c-0.3,0.3-0.7,0.6-1.2,0.9s-1,0.5-1.4,0.7v-1.3
			c0.7-0.3,1.4-0.8,1.9-1.3s0.9-1,1.2-1.4h0.8V100.9z"/>
	</g>
	<g id="XMLID_68_">
		<path id="XMLID_69_" class="st1" d="M260.3,100.9H259v-8.4c-0.3,0.3-0.7,0.6-1.2,0.9s-1,0.5-1.4,0.7v-1.3c0.7-0.3,1.4-0.8,1.9-1.3
			s0.9-1,1.2-1.4h0.8V100.9z"/>
		<path id="XMLID_71_" class="st1" d="M264.4,100.9v-1.5h1.5v1.5H264.4z"/>
		<path id="XMLID_74_" class="st1" d="M268.6,100.9v-1.5h1.5v1.5H268.6z"/>
		<path id="XMLID_76_" class="st1" d="M271.9,92.2l0.3-1c0.8,0.3,1.3,0.5,1.7,0.7c-0.1-0.9-0.1-1.5-0.1-1.8h1.1
			c0,0.5-0.1,1.1-0.2,1.8c0.5-0.3,1.1-0.5,1.7-0.7l0.3,1c-0.6,0.2-1.2,0.3-1.8,0.4c0.3,0.3,0.7,0.7,1.3,1.4l-0.9,0.6
			c-0.3-0.4-0.6-0.9-1-1.6c-0.4,0.7-0.7,1.2-1,1.6l-0.9-0.6c0.6-0.7,1-1.2,1.2-1.4C273,92.5,272.4,92.3,271.9,92.2z"/>
	</g>
	<g id="XMLID_65_">
		<path id="XMLID_66_" class="st1" d="M443.6,92.2l0.3-1c0.8,0.3,1.3,0.5,1.7,0.7c-0.1-0.9-0.1-1.5-0.1-1.8h1.1
			c0,0.5-0.1,1.1-0.2,1.8c0.5-0.3,1.1-0.5,1.7-0.7l0.3,1c-0.6,0.2-1.2,0.3-1.8,0.4c0.3,0.3,0.7,0.7,1.3,1.4l-0.9,0.6
			c-0.3-0.4-0.6-0.9-1-1.6c-0.4,0.7-0.7,1.2-1,1.6l-0.9-0.6c0.6-0.7,1-1.2,1.2-1.4C444.8,92.5,444.2,92.3,443.6,92.2z"/>
	</g>
	<g id="XMLID_62_">
		<path id="XMLID_63_" class="st1" d="M558.8,100.9h-1.3v-8.4c-0.3,0.3-0.7,0.6-1.2,0.9s-1,0.5-1.4,0.7v-1.3
			c0.7-0.3,1.4-0.8,1.9-1.3s0.9-1,1.2-1.4h0.8V100.9z"/>
	</g>
	<g id="XMLID_2_">
		<path id="XMLID_3_" class="st1" d="M475.2,39.9c-0.5,0.4-1,0.7-1.4,0.9c-0.5,0.2-0.9,0.3-1.5,0.3c-0.9,0-1.5-0.2-2-0.6
			c-0.5-0.4-0.7-1-0.7-1.6c0-0.4,0.1-0.7,0.3-1c0.2-0.3,0.4-0.6,0.7-0.8s0.6-0.3,0.9-0.4c0.3-0.1,0.6-0.1,1.2-0.2
			c1.1-0.1,1.8-0.3,2.4-0.5c0-0.2,0-0.3,0-0.3c0-0.5-0.1-0.9-0.4-1.1c-0.3-0.3-0.8-0.4-1.5-0.4c-0.6,0-1.1,0.1-1.4,0.3
			s-0.5,0.6-0.7,1.2l-1.3-0.2c0.1-0.6,0.3-1,0.6-1.3c0.3-0.3,0.7-0.6,1.2-0.8s1.1-0.3,1.8-0.3c0.7,0,1.2,0.1,1.6,0.2
			s0.7,0.4,0.9,0.6c0.2,0.2,0.3,0.5,0.4,0.9c0,0.2,0.1,0.6,0.1,1.2v1.8c0,1.2,0,2,0.1,2.3s0.2,0.6,0.3,0.9h-1.4
			C475.4,40.6,475.3,40.3,475.2,39.9z M475.1,36.9c-0.5,0.2-1.2,0.4-2.2,0.5c-0.5,0.1-0.9,0.2-1.2,0.3c-0.2,0.1-0.4,0.2-0.5,0.4
			s-0.2,0.4-0.2,0.6c0,0.4,0.1,0.6,0.4,0.9c0.3,0.2,0.7,0.4,1.2,0.4s1-0.1,1.4-0.3s0.7-0.5,0.9-0.9c0.1-0.3,0.2-0.7,0.2-1.3
			L475.1,36.9L475.1,36.9z"/>
		<path id="XMLID_6_" class="st1" d="M481.4,39.7l0.2,1.2c-0.4,0.1-0.7,0.1-1,0.1c-0.5,0-0.8-0.1-1.1-0.2c-0.3-0.2-0.4-0.3-0.6-0.6
			c-0.1-0.2-0.2-0.8-0.2-1.6v-4.5h-1v-1h1v-1.9l1.3-0.8v2.7h1.3v1H480v4.5c0,0.4,0,0.6,0.1,0.7c0,0.1,0.1,0.2,0.2,0.3
			s0.3,0.1,0.5,0.1S481.1,39.7,481.4,39.7z"/>
		<path id="XMLID_8_" class="st1" d="M482.7,31.6v-1.5h1.3v1.5H482.7z M482.7,40.9v-7.8h1.3v7.8H482.7z"/>
		<path id="XMLID_12_" class="st1" d="M491.3,38.3l1.4,0.2c-0.2,0.8-0.6,1.4-1.2,1.9c-0.6,0.4-1.3,0.7-2.2,0.7c-1.1,0-2-0.4-2.7-1.1
			c-0.7-0.7-1-1.7-1-2.9c0-1.3,0.3-2.3,1-3s1.5-1.1,2.6-1.1c1,0,1.9,0.4,2.5,1.1c0.7,0.7,1,1.7,1,3c0,0.1,0,0.2,0,0.4h-5.8
			c0,0.9,0.3,1.5,0.7,2c0.4,0.5,1,0.7,1.6,0.7c0.5,0,0.9-0.1,1.2-0.4S491.1,38.9,491.3,38.3z M487,36.2h4.3
			c-0.1-0.7-0.2-1.1-0.5-1.5c-0.4-0.5-1-0.8-1.6-0.8s-1.1,0.2-1.5,0.6C487.3,35,487,35.5,487,36.2z"/>
		<path id="XMLID_54_" class="st1" d="M494.4,40.9v-7.8h1.2v1.1c0.6-0.9,1.4-1.3,2.5-1.3c0.5,0,0.9,0.1,1.3,0.3s0.7,0.4,0.9,0.7
			c0.2,0.3,0.3,0.6,0.4,1c0,0.2,0.1,0.7,0.1,1.3V41h-1.3v-4.7c0-0.5-0.1-0.9-0.2-1.2s-0.3-0.5-0.5-0.6c-0.3-0.2-0.6-0.2-0.9-0.2
			c-0.6,0-1,0.2-1.5,0.5c-0.4,0.4-0.6,1-0.6,2V41L494.4,40.9L494.4,40.9z"/>
		<path id="XMLID_56_" class="st1" d="M507.7,40.9v-1c-0.5,0.8-1.2,1.2-2.2,1.2c-0.6,0-1.2-0.2-1.7-0.5s-0.9-0.8-1.2-1.4
			c-0.3-0.6-0.4-1.3-0.4-2.1s0.1-1.5,0.4-2.1s0.6-1.1,1.2-1.5c0.5-0.3,1.1-0.5,1.7-0.5c0.5,0,0.9,0.1,1.3,0.3s0.7,0.5,0.9,0.8v-3.9
			h1.3v10.7H507.7z M503.6,37c0,1,0.2,1.7,0.6,2.2s0.9,0.7,1.5,0.7s1.1-0.2,1.5-0.7s0.6-1.2,0.6-2.2c0-1.1-0.2-1.8-0.6-2.3
			s-0.9-0.7-1.5-0.7s-1.1,0.2-1.5,0.7S503.6,35.9,503.6,37z"/>
		<path id="XMLID_59_" class="st1" d="M516.4,38.3l1.4,0.2c-0.2,0.8-0.6,1.4-1.2,1.9s-1.3,0.7-2.2,0.7c-1.1,0-2-0.4-2.7-1.1
			c-0.7-0.7-1-1.7-1-2.9c0-1.3,0.3-2.3,1-3s1.5-1.1,2.6-1.1c1,0,1.9,0.4,2.5,1.1c0.7,0.7,1,1.7,1,3c0,0.1,0,0.2,0,0.4H512
			c0,0.9,0.3,1.5,0.7,2s1,0.7,1.6,0.7c0.5,0,0.9-0.1,1.2-0.4S516.2,38.9,516.4,38.3z M512,36.2h4.3c-0.1-0.7-0.2-1.1-0.5-1.5
			c-0.4-0.5-1-0.8-1.6-0.8s-1.1,0.2-1.5,0.6C512.3,35,512.1,35.5,512,36.2z"/>
	</g>
</g>
</svg>
