<?xml version="1.0" encoding="utf-8"?>
<!-- Generator: Adobe Illustrator 19.0.0, SVG Export Plug-In . SVG Version: 6.00 Build 0)  -->
<svg version="1.1" id="Capa_1" xmlns="http://www.w3.org/2000/svg" xmlns:xlink="http://www.w3.org/1999/xlink" x="0px" y="0px"
	 viewBox="0 0 308.9 265.7" style="enable-background:new 0 0 308.9 265.7;" xml:space="preserve">
<style type="text/css">
	.st0{fill:#FFFFFF;stroke:#11100E;stroke-width:2;stroke-miterlimit:10;stroke-dasharray:5,5;}
	.st1{fill:#FFFFFF;stroke:#0367A6;stroke-width:3;stroke-miterlimit:10;}
	.st2{fill:#FFFFFF;stroke:#11100E;stroke-width:2;stroke-miterlimit:10;}
	.st3{fill:#FFFFFF;stroke:#F29422;stroke-width:3;stroke-miterlimit:10;}
	.st4{fill:#FFFFFF;stroke:#8BBE33;stroke-width:3;stroke-miterlimit:10;}
	.st5{fill:#FFFFFF;}
	.st6{fill:none;stroke:#706F6F;stroke-width:2;stroke-miterlimit:10;}
	.st7{fill:#706F6F;}
	.st8{fill:#24C900;stroke:#11100E;stroke-miterlimit:10;}
	.st9{fill:#FFFFFF;stroke:#11100E;stroke-miterlimit:10;}
	.st10{fill:#FFAA37;stroke:#11100E;stroke-miterlimit:10;}
</style>
<g id="XMLID_7548_">
	<g id="XMLID_7553_">
		<line id="XMLID_7564_" class="st0" x1="39.9" y1="26.3" x2="39.9" y2="232.9"/>
		<rect id="XMLID_7547_" x="1.5" y="1.5" class="st1" width="76.8" height="39.9"/>
		<rect id="XMLID_7551_" x="26.1" y="89" class="st2" width="27.5" height="27.5"/>
	</g>
	<g id="XMLID_7670_">
		<line id="XMLID_7678_" class="st0" x1="154.4" y1="26.3" x2="154.4" y2="226.9"/>
		<rect id="XMLID_7673_" x="116.1" y="1.5" class="st3" width="76.8" height="39.9"/>
		<rect id="XMLID_7671_" x="140.7" y="89" class="st2" width="27.5" height="27.5"/>
	</g>
	<g id="XMLID_7679_">
		<line id="XMLID_7682_" class="st0" x1="269" y1="26.3" x2="269" y2="232.9"/>
		<rect id="XMLID_7681_" x="230.6" y="1.5" class="st4" width="76.8" height="39.9"/>
		<rect id="XMLID_7680_" x="255.2" y="89" class="st2" width="27.5" height="27.5"/>
	</g>
	<g id="XMLID_7683_">
		<line id="XMLID_33_" class="st5" x1="39.9" y1="144.2" x2="152.9" y2="144.2"/>
		<g id="XMLID_28_">
			<line id="XMLID_32_" class="st6" x1="39.9" y1="144.2" x2="142.3" y2="144.2"/>
			<g id="XMLID_29_">
				<polygon id="XMLID_31_" class="st7" points="152.9,144.2 137.9,150.3 141.5,144.2 137.9,138.1 				"/>
			</g>
		</g>
	</g>
	<g id="XMLID_7691_">
		<line id="XMLID_25_" class="st5" x1="39.9" y1="226.1" x2="269" y2="226.1"/>
		<g id="XMLID_21_">
			<line id="XMLID_24_" class="st6" x1="50.5" y1="226.1" x2="269" y2="226.1"/>
			<g id="XMLID_22_">
				<polygon id="XMLID_23_" class="st7" points="39.9,226.1 54.8,232.2 51.3,226.1 54.8,220 				"/>
			</g>
		</g>
	</g>
	<g id="XMLID_7684_">
		<line id="XMLID_19_" class="st5" x1="156" y1="171.1" x2="269" y2="171.1"/>
		<g id="XMLID_15_">
			<line id="XMLID_18_" class="st6" x1="156" y1="171.1" x2="258.4" y2="171.1"/>
			<g id="XMLID_16_">
				<polygon id="XMLID_17_" class="st7" points="269,171.1 254.1,177.2 257.6,171.1 254.1,165 				"/>
			</g>
		</g>
	</g>
	<g id="XMLID_128_">
		<path id="XMLID_129_" d="M16.6,22c0-1.5,0.4-2.6,1.2-3.4c0.8-0.8,1.8-1.2,3-1.2c0.8,0,1.5,0.2,2.2,0.6c0.7,0.4,1.2,0.9,1.5,1.6
			c0.3,0.7,0.5,1.5,0.5,2.4c0,0.9-0.2,1.7-0.5,2.4c-0.4,0.7-0.9,1.2-1.5,1.6c-0.7,0.4-1.4,0.5-2.1,0.5c-0.8,0-1.6-0.2-2.2-0.6
			s-1.1-0.9-1.5-1.6C16.8,23.5,16.6,22.8,16.6,22z M17.8,22c0,1.1,0.3,1.9,0.9,2.5c0.6,0.6,1.3,0.9,2.1,0.9c0.9,0,1.6-0.3,2.2-0.9
			s0.9-1.5,0.9-2.6c0-0.7-0.1-1.3-0.4-1.9c-0.2-0.5-0.6-1-1.1-1.2c-0.5-0.3-1-0.4-1.6-0.4c-0.8,0-1.5,0.3-2.1,0.9
			C18.1,19.7,17.8,20.7,17.8,22z"/>
		<path id="XMLID_132_" d="M27.4,26.3h-1v-8.8h1.1v3.1c0.5-0.6,1-0.9,1.8-0.9c0.4,0,0.8,0.1,1.1,0.2c0.4,0.2,0.6,0.4,0.9,0.7
			s0.4,0.6,0.5,1c0.1,0.4,0.2,0.8,0.2,1.3c0,1.1-0.3,1.9-0.8,2.5c-0.5,0.6-1.2,0.9-1.9,0.9c-0.8,0-1.3-0.3-1.8-0.9V26.3z M27.4,23
			c0,0.8,0.1,1.3,0.3,1.7c0.3,0.6,0.8,0.8,1.4,0.8c0.5,0,0.9-0.2,1.2-0.6c0.3-0.4,0.5-1,0.5-1.8c0-0.8-0.2-1.4-0.5-1.8
			c-0.3-0.4-0.7-0.6-1.2-0.6c-0.5,0-0.9,0.2-1.2,0.6C27.6,21.7,27.4,22.3,27.4,23z"/>
		<path id="XMLID_135_" d="M31.9,28.8l0.2-0.9c0.2,0.1,0.4,0.1,0.5,0.1c0.2,0,0.4-0.1,0.5-0.2c0.1-0.1,0.2-0.5,0.2-1.1v-6.7h1.1v6.7
			c0,0.8-0.1,1.3-0.3,1.6c-0.3,0.4-0.7,0.6-1.3,0.6C32.5,28.9,32.2,28.8,31.9,28.8z M33.3,18.7v-1.3h1.1v1.3H33.3z"/>
		<path id="XMLID_138_" d="M40.4,24.2l1.1,0.1c-0.2,0.7-0.5,1.2-1,1.5c-0.5,0.4-1.1,0.5-1.8,0.5c-0.9,0-1.7-0.3-2.2-0.9
			c-0.5-0.6-0.8-1.4-0.8-2.4c0-1.1,0.3-1.9,0.8-2.5c0.6-0.6,1.3-0.9,2.2-0.9c0.9,0,1.6,0.3,2.1,0.9c0.5,0.6,0.8,1.4,0.8,2.5
			c0,0.1,0,0.2,0,0.3h-4.8c0,0.7,0.2,1.2,0.6,1.6c0.4,0.4,0.8,0.6,1.3,0.6c0.4,0,0.7-0.1,1-0.3C40,25,40.2,24.7,40.4,24.2z
			 M36.8,22.5h3.6c0-0.5-0.2-0.9-0.4-1.2c-0.3-0.4-0.8-0.6-1.3-0.6c-0.5,0-0.9,0.2-1.3,0.5C37.1,21.5,36.9,21.9,36.8,22.5z"/>
		<path id="XMLID_141_" d="M45.2,25.3l0.2,1c-0.3,0.1-0.6,0.1-0.8,0.1c-0.4,0-0.7-0.1-0.9-0.2c-0.2-0.1-0.4-0.3-0.5-0.5
			s-0.1-0.6-0.1-1.3v-3.7h-0.8v-0.8h0.8v-1.6l1.1-0.6v2.2h1.1v0.8h-1.1v3.7c0,0.3,0,0.5,0.1,0.6c0,0.1,0.1,0.2,0.2,0.2
			c0.1,0.1,0.2,0.1,0.4,0.1C44.9,25.4,45,25.3,45.2,25.3z"/>
		<path id="XMLID_143_" d="M45.9,23.1c0-1.2,0.3-2.1,1-2.6c0.5-0.5,1.2-0.7,2-0.7c0.9,0,1.6,0.3,2.2,0.9c0.6,0.6,0.8,1.4,0.8,2.4
			c0,0.8-0.1,1.5-0.4,1.9c-0.2,0.5-0.6,0.8-1.1,1.1c-0.5,0.3-1,0.4-1.5,0.4c-0.9,0-1.6-0.3-2.2-0.9C46.2,25,45.9,24.2,45.9,23.1z
			 M47,23.1c0,0.8,0.2,1.4,0.5,1.8c0.4,0.4,0.8,0.6,1.3,0.6c0.5,0,1-0.2,1.3-0.6c0.4-0.4,0.5-1,0.5-1.9c0-0.8-0.2-1.4-0.5-1.8
			c-0.4-0.4-0.8-0.6-1.3-0.6c-0.5,0-1,0.2-1.3,0.6C47.2,21.7,47,22.3,47,23.1z"/>
		<path id="XMLID_146_" d="M60.3,26.3h-1.1v-6.9c-0.3,0.2-0.6,0.5-1,0.7c-0.4,0.2-0.8,0.4-1.1,0.6v-1c0.6-0.3,1.1-0.6,1.6-1
			s0.8-0.8,1-1.2h0.7V26.3z"/>
	</g>
	<g id="XMLID_107_">
		<path id="XMLID_108_" d="M63,158.9v-6.4h1v0.9c0.2-0.3,0.5-0.6,0.8-0.8c0.3-0.2,0.7-0.3,1.1-0.3c0.5,0,0.9,0.1,1.2,0.3
			s0.5,0.5,0.6,0.8c0.5-0.7,1.2-1.1,2-1.1c0.6,0,1.1,0.2,1.5,0.5c0.3,0.4,0.5,0.9,0.5,1.6v4.4h-1.1v-4c0-0.4,0-0.7-0.1-0.9
			s-0.2-0.3-0.4-0.5s-0.4-0.2-0.6-0.2c-0.4,0-0.8,0.1-1.1,0.4s-0.4,0.8-0.4,1.4v3.7h-1.1v-4.1c0-0.5-0.1-0.8-0.3-1.1
			c-0.2-0.2-0.5-0.4-0.9-0.4c-0.3,0-0.6,0.1-0.8,0.2c-0.3,0.2-0.4,0.4-0.6,0.7s-0.2,0.8-0.2,1.3v3.3H63z"/>
		<path id="XMLID_110_" d="M77.6,156.8l1.1,0.1c-0.2,0.7-0.5,1.2-1,1.5c-0.5,0.4-1.1,0.5-1.8,0.5c-0.9,0-1.7-0.3-2.2-0.9
			c-0.5-0.6-0.8-1.4-0.8-2.4c0-1.1,0.3-1.9,0.8-2.5c0.6-0.6,1.3-0.9,2.2-0.9c0.9,0,1.6,0.3,2.1,0.9c0.5,0.6,0.8,1.4,0.8,2.5
			c0,0.1,0,0.2,0,0.3H74c0,0.7,0.2,1.2,0.6,1.6c0.4,0.4,0.8,0.6,1.3,0.6c0.4,0,0.7-0.1,1-0.3C77.2,157.6,77.5,157.3,77.6,156.8z
			 M74.1,155.1h3.6c0-0.5-0.2-0.9-0.4-1.2c-0.3-0.4-0.8-0.6-1.3-0.6c-0.5,0-0.9,0.2-1.3,0.5C74.3,154.1,74.1,154.5,74.1,155.1z"/>
		<path id="XMLID_113_" d="M80.1,158.9v-6.4h1v0.9c0.5-0.7,1.1-1.1,2-1.1c0.4,0,0.7,0.1,1.1,0.2c0.3,0.1,0.6,0.3,0.7,0.5
			s0.3,0.5,0.3,0.8c0,0.2,0.1,0.6,0.1,1.1v3.9h-1.1V155c0-0.4,0-0.8-0.1-1c-0.1-0.2-0.2-0.4-0.4-0.5c-0.2-0.1-0.5-0.2-0.8-0.2
			c-0.5,0-0.9,0.1-1.2,0.4c-0.3,0.3-0.5,0.8-0.5,1.7v3.5H80.1z"/>
		<path id="XMLID_115_" d="M86.5,157l1.1-0.2c0.1,0.4,0.2,0.8,0.5,1s0.7,0.3,1.2,0.3c0.5,0,0.9-0.1,1.1-0.3c0.2-0.2,0.4-0.4,0.4-0.7
			c0-0.2-0.1-0.4-0.3-0.6c-0.1-0.1-0.5-0.2-1.1-0.4c-0.8-0.2-1.3-0.4-1.7-0.5s-0.5-0.3-0.7-0.6s-0.2-0.5-0.2-0.9
			c0-0.3,0.1-0.5,0.2-0.8c0.1-0.2,0.3-0.4,0.5-0.6c0.2-0.1,0.4-0.2,0.7-0.3c0.3-0.1,0.6-0.1,0.9-0.1c0.5,0,0.9,0.1,1.3,0.2
			s0.7,0.3,0.8,0.6c0.2,0.2,0.3,0.6,0.4,1l-1.1,0.1c0-0.3-0.2-0.6-0.4-0.8s-0.6-0.3-1-0.3c-0.5,0-0.9,0.1-1.1,0.2
			c-0.2,0.2-0.3,0.4-0.3,0.6c0,0.1,0,0.3,0.1,0.4c0.1,0.1,0.2,0.2,0.4,0.3c0.1,0,0.4,0.1,1,0.3c0.8,0.2,1.3,0.4,1.6,0.5
			c0.3,0.1,0.5,0.3,0.7,0.6c0.2,0.2,0.3,0.6,0.3,0.9c0,0.4-0.1,0.7-0.3,1c-0.2,0.3-0.5,0.6-0.9,0.7c-0.4,0.2-0.8,0.3-1.3,0.3
			c-0.8,0-1.5-0.2-1.9-0.5C86.9,158.2,86.6,157.7,86.5,157z"/>
		<path id="XMLID_117_" d="M97.3,158.1c-0.4,0.3-0.8,0.6-1.2,0.7s-0.8,0.2-1.2,0.2c-0.7,0-1.2-0.2-1.6-0.5c-0.4-0.3-0.6-0.8-0.6-1.3
			c0-0.3,0.1-0.6,0.2-0.9s0.3-0.5,0.6-0.6s0.5-0.3,0.8-0.4c0.2-0.1,0.5-0.1,1-0.2c0.9-0.1,1.5-0.2,1.9-0.4c0-0.1,0-0.2,0-0.3
			c0-0.4-0.1-0.8-0.3-0.9c-0.3-0.2-0.7-0.4-1.2-0.4c-0.5,0-0.9,0.1-1.1,0.3c-0.2,0.2-0.4,0.5-0.5,0.9l-1.1-0.1
			c0.1-0.5,0.3-0.8,0.5-1.1c0.2-0.3,0.5-0.5,1-0.6c0.4-0.1,0.9-0.2,1.4-0.2c0.5,0,1,0.1,1.3,0.2c0.3,0.1,0.6,0.3,0.8,0.5
			c0.2,0.2,0.3,0.4,0.3,0.7c0,0.2,0.1,0.5,0.1,1v1.4c0,1,0,1.6,0.1,1.9c0,0.3,0.1,0.5,0.3,0.8h-1.1
			C97.4,158.7,97.3,158.4,97.3,158.1z M97.2,155.7c-0.4,0.2-1,0.3-1.8,0.4c-0.4,0.1-0.8,0.1-0.9,0.2s-0.3,0.2-0.4,0.4
			c-0.1,0.2-0.2,0.3-0.2,0.5c0,0.3,0.1,0.5,0.3,0.7c0.2,0.2,0.5,0.3,1,0.3c0.4,0,0.8-0.1,1.1-0.3c0.3-0.2,0.6-0.4,0.7-0.7
			c0.1-0.2,0.2-0.6,0.2-1.1V155.7z"/>
		<path id="XMLID_120_" d="M98.6,161.4l0.2-0.9c0.2,0.1,0.4,0.1,0.5,0.1c0.2,0,0.4-0.1,0.5-0.2s0.2-0.5,0.2-1.1v-6.7h1.1v6.7
			c0,0.8-0.1,1.3-0.3,1.6c-0.3,0.4-0.7,0.6-1.3,0.6C99.1,161.5,98.8,161.4,98.6,161.4z M99.9,151.3v-1.3h1.1v1.3H99.9z"/>
		<path id="XMLID_123_" d="M107.1,156.8l1.1,0.1c-0.2,0.7-0.5,1.2-1,1.5c-0.5,0.4-1.1,0.5-1.8,0.5c-0.9,0-1.7-0.3-2.2-0.9
			c-0.5-0.6-0.8-1.4-0.8-2.4c0-1.1,0.3-1.9,0.8-2.5c0.6-0.6,1.3-0.9,2.2-0.9c0.9,0,1.6,0.3,2.1,0.9c0.5,0.6,0.8,1.4,0.8,2.5
			c0,0.1,0,0.2,0,0.3h-4.8c0,0.7,0.2,1.2,0.6,1.6c0.4,0.4,0.8,0.6,1.3,0.6c0.4,0,0.7-0.1,1-0.3C106.7,157.6,106.9,157.3,107.1,156.8
			z M103.5,155.1h3.6c0-0.5-0.2-0.9-0.4-1.2c-0.3-0.4-0.8-0.6-1.3-0.6c-0.5,0-0.9,0.2-1.3,0.5C103.7,154.1,103.5,154.5,103.5,155.1z
			"/>
		<path id="XMLID_126_" d="M116.7,158.9h-1.1V152c-0.3,0.2-0.6,0.5-1,0.7c-0.4,0.2-0.8,0.4-1.1,0.6v-1c0.6-0.3,1.1-0.6,1.6-1
			c0.5-0.4,0.8-0.8,1-1.2h0.7V158.9z"/>
	</g>
	<g id="XMLID_86_">
		<path id="XMLID_87_" d="M177.3,187.8v-6.4h1v0.9c0.2-0.3,0.5-0.6,0.8-0.8c0.3-0.2,0.7-0.3,1.1-0.3c0.5,0,0.9,0.1,1.2,0.3
			c0.3,0.2,0.5,0.5,0.6,0.8c0.5-0.7,1.2-1.1,2-1.1c0.6,0,1.1,0.2,1.5,0.5c0.3,0.4,0.5,0.9,0.5,1.6v4.4h-1.1v-4c0-0.4,0-0.7-0.1-0.9
			s-0.2-0.3-0.4-0.5s-0.4-0.2-0.6-0.2c-0.4,0-0.8,0.2-1.1,0.4c-0.3,0.3-0.4,0.8-0.4,1.4v3.7h-1.1v-4.1c0-0.5-0.1-0.8-0.3-1.1
			c-0.2-0.2-0.5-0.4-0.9-0.4c-0.3,0-0.6,0.1-0.8,0.2c-0.3,0.2-0.4,0.4-0.6,0.7c-0.1,0.3-0.2,0.8-0.2,1.3v3.3H177.3z"/>
		<path id="XMLID_89_" d="M192,185.7l1.1,0.1c-0.2,0.7-0.5,1.2-1,1.5c-0.5,0.4-1.1,0.5-1.8,0.5c-0.9,0-1.7-0.3-2.2-0.9
			c-0.5-0.6-0.8-1.4-0.8-2.4c0-1.1,0.3-1.9,0.8-2.5c0.6-0.6,1.3-0.9,2.2-0.9c0.9,0,1.6,0.3,2.1,0.9c0.5,0.6,0.8,1.4,0.8,2.5
			c0,0.1,0,0.2,0,0.3h-4.8c0,0.7,0.2,1.2,0.6,1.6c0.4,0.4,0.8,0.6,1.3,0.6c0.4,0,0.7-0.1,1-0.3C191.6,186.5,191.8,186.2,192,185.7z
			 M188.4,184h3.6c0-0.5-0.2-0.9-0.4-1.2c-0.3-0.4-0.8-0.6-1.3-0.6c-0.5,0-0.9,0.2-1.3,0.5C188.6,183,188.4,183.4,188.4,184z"/>
		<path id="XMLID_92_" d="M194.4,187.8v-6.4h1v0.9c0.5-0.7,1.1-1.1,2-1.1c0.4,0,0.7,0.1,1.1,0.2c0.3,0.1,0.6,0.3,0.7,0.5
			s0.3,0.5,0.3,0.8c0,0.2,0.1,0.6,0.1,1.1v3.9h-1.1v-3.9c0-0.4,0-0.8-0.1-1c-0.1-0.2-0.2-0.4-0.4-0.5c-0.2-0.1-0.5-0.2-0.8-0.2
			c-0.5,0-0.9,0.1-1.2,0.4s-0.5,0.8-0.5,1.7v3.5H194.4z"/>
		<path id="XMLID_94_" d="M200.8,185.9l1.1-0.2c0.1,0.4,0.2,0.8,0.5,1s0.7,0.3,1.2,0.3c0.5,0,0.9-0.1,1.1-0.3
			c0.2-0.2,0.4-0.4,0.4-0.7c0-0.2-0.1-0.4-0.3-0.6c-0.1-0.1-0.5-0.2-1.1-0.4c-0.8-0.2-1.3-0.4-1.7-0.5s-0.5-0.3-0.7-0.6
			c-0.2-0.3-0.2-0.5-0.2-0.9c0-0.3,0.1-0.5,0.2-0.8c0.1-0.2,0.3-0.4,0.5-0.6c0.2-0.1,0.4-0.2,0.7-0.3c0.3-0.1,0.6-0.1,0.9-0.1
			c0.5,0,0.9,0.1,1.3,0.2s0.7,0.3,0.8,0.6s0.3,0.6,0.4,1l-1.1,0.1c0-0.3-0.2-0.6-0.4-0.8c-0.2-0.2-0.6-0.3-1-0.3
			c-0.5,0-0.9,0.1-1.1,0.2c-0.2,0.2-0.3,0.4-0.3,0.6c0,0.1,0,0.3,0.1,0.4c0.1,0.1,0.2,0.2,0.4,0.3c0.1,0,0.4,0.1,1,0.3
			c0.8,0.2,1.3,0.4,1.6,0.5c0.3,0.1,0.5,0.3,0.7,0.6c0.2,0.2,0.3,0.6,0.3,0.9c0,0.4-0.1,0.7-0.3,1c-0.2,0.3-0.5,0.6-0.9,0.7
			c-0.4,0.2-0.8,0.3-1.3,0.3c-0.8,0-1.5-0.2-1.9-0.5C201.2,187.1,201,186.5,200.8,185.9z"/>
		<path id="XMLID_96_" d="M211.6,187c-0.4,0.3-0.8,0.6-1.2,0.7c-0.4,0.1-0.8,0.2-1.2,0.2c-0.7,0-1.2-0.2-1.6-0.5
			c-0.4-0.3-0.6-0.8-0.6-1.3c0-0.3,0.1-0.6,0.2-0.9c0.1-0.3,0.3-0.5,0.6-0.6s0.5-0.3,0.8-0.4c0.2-0.1,0.5-0.1,1-0.2
			c0.9-0.1,1.5-0.2,1.9-0.4c0-0.1,0-0.2,0-0.3c0-0.4-0.1-0.8-0.3-0.9c-0.3-0.2-0.7-0.4-1.2-0.4c-0.5,0-0.9,0.1-1.1,0.3
			c-0.2,0.2-0.4,0.5-0.5,0.9l-1.1-0.1c0.1-0.5,0.3-0.8,0.5-1.1c0.2-0.3,0.5-0.5,1-0.6c0.4-0.1,0.9-0.2,1.4-0.2c0.5,0,1,0.1,1.3,0.2
			s0.6,0.3,0.8,0.5c0.2,0.2,0.3,0.4,0.3,0.7c0,0.2,0.1,0.5,0.1,1v1.4c0,1,0,1.6,0.1,1.9c0,0.3,0.1,0.5,0.3,0.8h-1.1
			C211.7,187.6,211.6,187.3,211.6,187z M211.5,184.6c-0.4,0.2-1,0.3-1.8,0.4c-0.4,0.1-0.8,0.1-0.9,0.2s-0.3,0.2-0.4,0.4
			c-0.1,0.2-0.2,0.3-0.2,0.5c0,0.3,0.1,0.5,0.3,0.7c0.2,0.2,0.5,0.3,1,0.3c0.4,0,0.8-0.1,1.1-0.3c0.3-0.2,0.6-0.4,0.7-0.7
			c0.1-0.2,0.2-0.6,0.2-1.1V184.6z"/>
		<path id="XMLID_99_" d="M212.9,190.3l0.2-0.9c0.2,0.1,0.4,0.1,0.5,0.1c0.2,0,0.4-0.1,0.5-0.2c0.1-0.1,0.2-0.5,0.2-1.1v-6.7h1.1
			v6.7c0,0.8-0.1,1.3-0.3,1.6c-0.3,0.4-0.7,0.6-1.3,0.6C213.5,190.4,213.2,190.3,212.9,190.3z M214.3,180.2V179h1.1v1.3H214.3z"/>
		<path id="XMLID_102_" d="M221.4,185.7l1.1,0.1c-0.2,0.7-0.5,1.2-1,1.5c-0.5,0.4-1.1,0.5-1.8,0.5c-0.9,0-1.7-0.3-2.2-0.9
			c-0.5-0.6-0.8-1.4-0.8-2.4c0-1.1,0.3-1.9,0.8-2.5c0.6-0.6,1.3-0.9,2.2-0.9c0.9,0,1.6,0.3,2.1,0.9c0.5,0.6,0.8,1.4,0.8,2.5
			c0,0.1,0,0.2,0,0.3h-4.8c0,0.7,0.2,1.2,0.6,1.6c0.4,0.4,0.8,0.6,1.3,0.6c0.4,0,0.7-0.1,1-0.3C221,186.5,221.2,186.2,221.4,185.7z
			 M217.8,184h3.6c0-0.5-0.2-0.9-0.4-1.2c-0.3-0.4-0.8-0.6-1.3-0.6c-0.5,0-0.9,0.2-1.3,0.5C218.1,183,217.9,183.4,217.8,184z"/>
		<path id="XMLID_105_" d="M232.7,186.7v1h-5.8c0-0.3,0-0.5,0.1-0.8c0.1-0.4,0.4-0.8,0.7-1.2c0.3-0.4,0.8-0.8,1.4-1.3
			c1-0.8,1.6-1.4,1.9-1.9s0.5-0.9,0.5-1.3c0-0.4-0.2-0.8-0.5-1.1c-0.3-0.3-0.7-0.4-1.2-0.4c-0.5,0-0.9,0.2-1.3,0.5
			c-0.3,0.3-0.5,0.7-0.5,1.3l-1.1-0.1c0.1-0.8,0.4-1.5,0.9-1.9s1.2-0.7,2-0.7c0.8,0,1.5,0.2,2,0.7c0.5,0.5,0.7,1,0.7,1.7
			c0,0.4-0.1,0.7-0.2,1c-0.1,0.3-0.4,0.7-0.7,1.1c-0.3,0.4-0.9,0.9-1.7,1.6c-0.6,0.5-1.1,0.9-1.3,1.1c-0.2,0.2-0.3,0.4-0.5,0.6
			H232.7z"/>
	</g>
	<g id="XMLID_65_">
		<path id="XMLID_66_" d="M128.4,245.7v-6.4h1v0.9c0.2-0.3,0.5-0.6,0.8-0.8c0.3-0.2,0.7-0.3,1.1-0.3c0.5,0,0.9,0.1,1.2,0.3
			s0.5,0.5,0.6,0.8c0.5-0.7,1.2-1.1,2-1.1c0.6,0,1.1,0.2,1.5,0.5c0.3,0.4,0.5,0.9,0.5,1.6v4.4H136v-4c0-0.4,0-0.7-0.1-0.9
			s-0.2-0.3-0.4-0.5s-0.4-0.2-0.6-0.2c-0.4,0-0.8,0.1-1.1,0.4s-0.4,0.8-0.4,1.4v3.7h-1.1v-4.1c0-0.5-0.1-0.8-0.3-1.1
			c-0.2-0.2-0.5-0.4-0.9-0.4c-0.3,0-0.6,0.1-0.8,0.2c-0.3,0.2-0.4,0.4-0.6,0.7s-0.2,0.8-0.2,1.3v3.3H128.4z"/>
		<path id="XMLID_68_" d="M143.1,243.6l1.1,0.1c-0.2,0.7-0.5,1.2-1,1.5c-0.5,0.4-1.1,0.5-1.8,0.5c-0.9,0-1.7-0.3-2.2-0.9
			c-0.5-0.6-0.8-1.4-0.8-2.4c0-1.1,0.3-1.9,0.8-2.5c0.6-0.6,1.3-0.9,2.2-0.9c0.9,0,1.6,0.3,2.1,0.9c0.5,0.6,0.8,1.4,0.8,2.5
			c0,0.1,0,0.2,0,0.3h-4.8c0,0.7,0.2,1.2,0.6,1.6c0.4,0.4,0.8,0.6,1.3,0.6c0.4,0,0.7-0.1,1-0.3C142.7,244.4,142.9,244.1,143.1,243.6
			z M139.5,241.9h3.6c0-0.5-0.2-0.9-0.4-1.2c-0.3-0.4-0.8-0.6-1.3-0.6c-0.5,0-0.9,0.2-1.3,0.5C139.7,240.9,139.5,241.3,139.5,241.9z
			"/>
		<path id="XMLID_71_" d="M145.5,245.7v-6.4h1v0.9c0.5-0.7,1.1-1.1,2-1.1c0.4,0,0.7,0.1,1.1,0.2c0.3,0.1,0.6,0.3,0.7,0.5
			s0.3,0.5,0.3,0.8c0,0.2,0.1,0.6,0.1,1.1v3.9h-1.1v-3.9c0-0.4,0-0.8-0.1-1c-0.1-0.2-0.2-0.4-0.4-0.5c-0.2-0.1-0.5-0.2-0.8-0.2
			c-0.5,0-0.9,0.1-1.2,0.4c-0.3,0.3-0.5,0.8-0.5,1.7v3.5H145.5z"/>
		<path id="XMLID_73_" d="M151.9,243.8l1.1-0.2c0.1,0.4,0.2,0.8,0.5,1s0.7,0.3,1.2,0.3c0.5,0,0.9-0.1,1.1-0.3
			c0.2-0.2,0.4-0.4,0.4-0.7c0-0.2-0.1-0.4-0.3-0.6c-0.1-0.1-0.5-0.2-1.1-0.4c-0.8-0.2-1.3-0.4-1.7-0.5s-0.5-0.3-0.7-0.6
			s-0.2-0.5-0.2-0.9c0-0.3,0.1-0.5,0.2-0.8c0.1-0.2,0.3-0.4,0.5-0.6c0.2-0.1,0.4-0.2,0.7-0.3c0.3-0.1,0.6-0.1,0.9-0.1
			c0.5,0,0.9,0.1,1.3,0.2s0.7,0.3,0.8,0.6c0.2,0.2,0.3,0.6,0.4,1l-1.1,0.1c0-0.3-0.2-0.6-0.4-0.8s-0.6-0.3-1-0.3
			c-0.5,0-0.9,0.1-1.1,0.2c-0.2,0.2-0.3,0.4-0.3,0.6c0,0.1,0,0.3,0.1,0.4c0.1,0.1,0.2,0.2,0.4,0.3c0.1,0,0.4,0.1,1,0.3
			c0.8,0.2,1.3,0.4,1.6,0.5c0.3,0.1,0.5,0.3,0.7,0.6c0.2,0.2,0.3,0.6,0.3,0.9c0,0.4-0.1,0.7-0.3,1c-0.2,0.3-0.5,0.6-0.9,0.7
			c-0.4,0.2-0.8,0.3-1.3,0.3c-0.8,0-1.5-0.2-1.9-0.5C152.3,245,152.1,244.5,151.9,243.8z"/>
		<path id="XMLID_75_" d="M162.7,244.9c-0.4,0.3-0.8,0.6-1.2,0.7s-0.8,0.2-1.2,0.2c-0.7,0-1.2-0.2-1.6-0.5c-0.4-0.3-0.6-0.8-0.6-1.3
			c0-0.3,0.1-0.6,0.2-0.9s0.3-0.5,0.6-0.6s0.5-0.3,0.8-0.4c0.2-0.1,0.5-0.1,1-0.2c0.9-0.1,1.5-0.2,1.9-0.4c0-0.1,0-0.2,0-0.3
			c0-0.4-0.1-0.8-0.3-0.9c-0.3-0.2-0.7-0.4-1.2-0.4c-0.5,0-0.9,0.1-1.1,0.3c-0.2,0.2-0.4,0.5-0.5,0.9l-1.1-0.1
			c0.1-0.5,0.3-0.8,0.5-1.1c0.2-0.3,0.5-0.5,1-0.6c0.4-0.1,0.9-0.2,1.4-0.2c0.5,0,1,0.1,1.3,0.2c0.3,0.1,0.6,0.3,0.8,0.5
			c0.2,0.2,0.3,0.4,0.3,0.7c0,0.2,0.1,0.5,0.1,1v1.4c0,1,0,1.6,0.1,1.9c0,0.3,0.1,0.5,0.3,0.8h-1.1
			C162.8,245.5,162.7,245.2,162.7,244.9z M162.6,242.5c-0.4,0.2-1,0.3-1.8,0.4c-0.4,0.1-0.8,0.1-0.9,0.2s-0.3,0.2-0.4,0.4
			c-0.1,0.2-0.2,0.3-0.2,0.5c0,0.3,0.1,0.5,0.3,0.7c0.2,0.2,0.5,0.3,1,0.3c0.4,0,0.8-0.1,1.1-0.3c0.3-0.2,0.6-0.4,0.7-0.7
			c0.1-0.2,0.2-0.6,0.2-1.1V242.5z"/>
		<path id="XMLID_78_" d="M164,248.2l0.2-0.9c0.2,0.1,0.4,0.1,0.5,0.1c0.2,0,0.4-0.1,0.5-0.2s0.2-0.5,0.2-1.1v-6.7h1.1v6.7
			c0,0.8-0.1,1.3-0.3,1.6c-0.3,0.4-0.7,0.6-1.3,0.6C164.6,248.3,164.3,248.3,164,248.2z M165.4,238.1v-1.3h1.1v1.3H165.4z"/>
		<path id="XMLID_81_" d="M172.5,243.6l1.1,0.1c-0.2,0.7-0.5,1.2-1,1.5c-0.5,0.4-1.1,0.5-1.8,0.5c-0.9,0-1.7-0.3-2.2-0.9
			c-0.5-0.6-0.8-1.4-0.8-2.4c0-1.1,0.3-1.9,0.8-2.5c0.6-0.6,1.3-0.9,2.2-0.9c0.9,0,1.6,0.3,2.1,0.9c0.5,0.6,0.8,1.4,0.8,2.5
			c0,0.1,0,0.2,0,0.3h-4.8c0,0.7,0.2,1.2,0.6,1.6c0.4,0.4,0.8,0.6,1.3,0.6c0.4,0,0.7-0.1,1-0.3C172.1,244.4,172.3,244.1,172.5,243.6
			z M168.9,241.9h3.6c0-0.5-0.2-0.9-0.4-1.2c-0.3-0.4-0.8-0.6-1.3-0.6c-0.5,0-0.9,0.2-1.3,0.5C169.2,240.9,169,241.3,168.9,241.9z"
			/>
		<path id="XMLID_84_" d="M178.1,243.4l1.1-0.1c0.1,0.6,0.3,1.1,0.6,1.3c0.3,0.3,0.7,0.4,1.1,0.4c0.5,0,0.9-0.2,1.3-0.5
			c0.4-0.4,0.5-0.8,0.5-1.3c0-0.5-0.2-0.9-0.5-1.2c-0.3-0.3-0.7-0.5-1.2-0.5c-0.2,0-0.5,0-0.8,0.1l0.1-1c0.1,0,0.1,0,0.2,0
			c0.5,0,0.9-0.1,1.2-0.4c0.4-0.2,0.6-0.6,0.6-1.1c0-0.4-0.1-0.7-0.4-1c-0.3-0.3-0.6-0.4-1-0.4c-0.4,0-0.8,0.1-1.1,0.4
			c-0.3,0.3-0.5,0.7-0.5,1.2l-1.1-0.2c0.1-0.7,0.4-1.3,0.9-1.7c0.5-0.4,1.1-0.6,1.8-0.6c0.5,0,0.9,0.1,1.3,0.3
			c0.4,0.2,0.7,0.5,0.9,0.8s0.3,0.7,0.3,1.1c0,0.4-0.1,0.7-0.3,1c-0.2,0.3-0.5,0.6-0.9,0.7c0.5,0.1,0.9,0.4,1.2,0.7
			c0.3,0.4,0.4,0.9,0.4,1.4c0,0.8-0.3,1.4-0.8,2c-0.6,0.5-1.3,0.8-2.1,0.8c-0.8,0-1.4-0.2-1.9-0.7
			C178.5,244.7,178.2,244.1,178.1,243.4z"/>
	</g>
	<g id="XMLID_45_">
		<path id="XMLID_46_" d="M131.8,22c0-1.5,0.4-2.6,1.2-3.4c0.8-0.8,1.8-1.2,3-1.2c0.8,0,1.5,0.2,2.2,0.6c0.7,0.4,1.2,0.9,1.5,1.6
			c0.3,0.7,0.5,1.5,0.5,2.4c0,0.9-0.2,1.7-0.5,2.4c-0.4,0.7-0.9,1.2-1.5,1.6c-0.7,0.4-1.4,0.5-2.1,0.5c-0.8,0-1.6-0.2-2.2-0.6
			s-1.1-0.9-1.5-1.6C131.9,23.5,131.8,22.8,131.8,22z M133,22c0,1.1,0.3,1.9,0.9,2.5c0.6,0.6,1.3,0.9,2.1,0.9c0.9,0,1.6-0.3,2.2-0.9
			s0.9-1.5,0.9-2.6c0-0.7-0.1-1.3-0.4-1.9c-0.2-0.5-0.6-1-1.1-1.2c-0.5-0.3-1-0.4-1.6-0.4c-0.8,0-1.5,0.3-2.1,0.9
			C133.3,19.7,133,20.7,133,22z"/>
		<path id="XMLID_49_" d="M142.5,26.3h-1v-8.8h1.1v3.1c0.5-0.6,1-0.9,1.8-0.9c0.4,0,0.8,0.1,1.1,0.2c0.4,0.2,0.6,0.4,0.9,0.7
			s0.4,0.6,0.5,1c0.1,0.4,0.2,0.8,0.2,1.3c0,1.1-0.3,1.9-0.8,2.5c-0.5,0.6-1.2,0.9-1.9,0.9c-0.8,0-1.3-0.3-1.8-0.9V26.3z M142.5,23
			c0,0.8,0.1,1.3,0.3,1.7c0.3,0.6,0.8,0.8,1.4,0.8c0.5,0,0.9-0.2,1.2-0.6c0.3-0.4,0.5-1,0.5-1.8c0-0.8-0.2-1.4-0.5-1.8
			c-0.3-0.4-0.7-0.6-1.2-0.6c-0.5,0-0.9,0.2-1.2,0.6C142.7,21.7,142.5,22.3,142.5,23z"/>
		<path id="XMLID_52_" d="M147,28.8l0.2-0.9c0.2,0.1,0.4,0.1,0.5,0.1c0.2,0,0.4-0.1,0.5-0.2c0.1-0.1,0.2-0.5,0.2-1.1v-6.7h1.1v6.7
			c0,0.8-0.1,1.3-0.3,1.6c-0.3,0.4-0.7,0.6-1.3,0.6C147.6,28.9,147.3,28.8,147,28.8z M148.4,18.7v-1.3h1.1v1.3H148.4z"/>
		<path id="XMLID_55_" d="M155.5,24.2l1.1,0.1c-0.2,0.7-0.5,1.2-1,1.5c-0.5,0.4-1.1,0.5-1.8,0.5c-0.9,0-1.7-0.3-2.2-0.9
			c-0.5-0.6-0.8-1.4-0.8-2.4c0-1.1,0.3-1.9,0.8-2.5c0.6-0.6,1.3-0.9,2.2-0.9c0.9,0,1.6,0.3,2.1,0.9c0.5,0.6,0.8,1.4,0.8,2.5
			c0,0.1,0,0.2,0,0.3h-4.8c0,0.7,0.2,1.2,0.6,1.6c0.4,0.4,0.8,0.6,1.3,0.6c0.4,0,0.7-0.1,1-0.3C155.1,25,155.3,24.7,155.5,24.2z
			 M152,22.5h3.6c0-0.5-0.2-0.9-0.4-1.2c-0.3-0.4-0.8-0.6-1.3-0.6c-0.5,0-0.9,0.2-1.3,0.5C152.2,21.5,152,21.9,152,22.5z"/>
		<path id="XMLID_58_" d="M160.3,25.3l0.2,1c-0.3,0.1-0.6,0.1-0.8,0.1c-0.4,0-0.7-0.1-0.9-0.2c-0.2-0.1-0.4-0.3-0.5-0.5
			s-0.1-0.6-0.1-1.3v-3.7h-0.8v-0.8h0.8v-1.6l1.1-0.6v2.2h1.1v0.8h-1.1v3.7c0,0.3,0,0.5,0.1,0.6c0,0.1,0.1,0.2,0.2,0.2
			c0.1,0.1,0.2,0.1,0.4,0.1C160,25.4,160.1,25.3,160.3,25.3z"/>
		<path id="XMLID_60_" d="M161,23.1c0-1.2,0.3-2.1,1-2.6c0.5-0.5,1.2-0.7,2-0.7c0.9,0,1.6,0.3,2.2,0.9c0.6,0.6,0.8,1.4,0.8,2.4
			c0,0.8-0.1,1.5-0.4,1.9c-0.2,0.5-0.6,0.8-1.1,1.1c-0.5,0.3-1,0.4-1.5,0.4c-0.9,0-1.6-0.3-2.2-0.9C161.3,25,161,24.2,161,23.1z
			 M162.1,23.1c0,0.8,0.2,1.4,0.5,1.8c0.4,0.4,0.8,0.6,1.3,0.6c0.5,0,1-0.2,1.3-0.6c0.4-0.4,0.5-1,0.5-1.9c0-0.8-0.2-1.4-0.5-1.8
			c-0.4-0.4-0.8-0.6-1.3-0.6c-0.5,0-1,0.2-1.3,0.6C162.3,21.7,162.1,22.3,162.1,23.1z"/>
		<path id="XMLID_63_" d="M177.1,25.2v1h-5.8c0-0.3,0-0.5,0.1-0.8c0.1-0.4,0.4-0.8,0.7-1.2c0.3-0.4,0.8-0.8,1.4-1.3
			c1-0.8,1.6-1.4,1.9-1.9s0.5-0.9,0.5-1.3c0-0.4-0.2-0.8-0.5-1.1c-0.3-0.3-0.7-0.4-1.2-0.4c-0.5,0-0.9,0.2-1.3,0.5
			c-0.3,0.3-0.5,0.7-0.5,1.3l-1.1-0.1c0.1-0.8,0.4-1.5,0.9-1.9s1.2-0.7,2-0.7c0.8,0,1.5,0.2,2,0.7c0.5,0.5,0.7,1.1,0.7,1.7
			c0,0.4-0.1,0.7-0.2,1c-0.1,0.3-0.4,0.7-0.7,1.1c-0.3,0.4-0.9,0.9-1.7,1.6c-0.6,0.5-1.1,0.9-1.3,1.1s-0.3,0.4-0.5,0.6H177.1z"/>
	</g>
	<g id="XMLID_1_">
		<path id="XMLID_2_" d="M247.9,22c0-1.5,0.4-2.6,1.2-3.4c0.8-0.8,1.8-1.2,3-1.2c0.8,0,1.5,0.2,2.2,0.6c0.7,0.4,1.2,0.9,1.5,1.6
			c0.3,0.7,0.5,1.5,0.5,2.4c0,0.9-0.2,1.7-0.5,2.4c-0.4,0.7-0.9,1.2-1.5,1.6c-0.7,0.4-1.4,0.5-2.1,0.5c-0.8,0-1.6-0.2-2.2-0.6
			s-1.1-0.9-1.5-1.6C248.1,23.5,247.9,22.8,247.9,22z M249.1,22c0,1.1,0.3,1.9,0.9,2.5c0.6,0.6,1.3,0.9,2.1,0.9
			c0.9,0,1.6-0.3,2.2-0.9s0.9-1.5,0.9-2.6c0-0.7-0.1-1.3-0.4-1.9c-0.2-0.5-0.6-1-1.1-1.2c-0.5-0.3-1-0.4-1.6-0.4
			c-0.8,0-1.5,0.3-2.1,0.9C249.4,19.7,249.1,20.7,249.1,22z"/>
		<path id="XMLID_5_" d="M258.7,26.3h-1v-8.8h1.1v3.1c0.5-0.6,1-0.9,1.8-0.9c0.4,0,0.8,0.1,1.1,0.2c0.4,0.2,0.6,0.4,0.9,0.7
			s0.4,0.6,0.5,1c0.1,0.4,0.2,0.8,0.2,1.3c0,1.1-0.3,1.9-0.8,2.5c-0.5,0.6-1.2,0.9-1.9,0.9c-0.8,0-1.3-0.3-1.8-0.9V26.3z M258.7,23
			c0,0.8,0.1,1.3,0.3,1.7c0.3,0.6,0.8,0.8,1.4,0.8c0.5,0,0.9-0.2,1.2-0.6c0.3-0.4,0.5-1,0.5-1.8c0-0.8-0.2-1.4-0.5-1.8
			c-0.3-0.4-0.7-0.6-1.2-0.6c-0.5,0-0.9,0.2-1.2,0.6C258.9,21.7,258.7,22.3,258.7,23z"/>
		<path id="XMLID_8_" d="M263.2,28.8l0.2-0.9c0.2,0.1,0.4,0.1,0.5,0.1c0.2,0,0.4-0.1,0.5-0.2c0.1-0.1,0.2-0.5,0.2-1.1v-6.7h1.1v6.7
			c0,0.8-0.1,1.3-0.3,1.6c-0.3,0.4-0.7,0.6-1.3,0.6C263.8,28.9,263.5,28.8,263.2,28.8z M264.6,18.7v-1.3h1.1v1.3H264.6z"/>
		<path id="XMLID_11_" d="M271.7,24.2l1.1,0.1c-0.2,0.7-0.5,1.2-1,1.5c-0.5,0.4-1.1,0.5-1.8,0.5c-0.9,0-1.7-0.3-2.2-0.9
			c-0.5-0.6-0.8-1.4-0.8-2.4c0-1.1,0.3-1.9,0.8-2.5c0.6-0.6,1.3-0.9,2.2-0.9c0.9,0,1.6,0.3,2.1,0.9c0.5,0.6,0.8,1.4,0.8,2.5
			c0,0.1,0,0.2,0,0.3h-4.8c0,0.7,0.2,1.2,0.6,1.6c0.4,0.4,0.8,0.6,1.3,0.6c0.4,0,0.7-0.1,1-0.3C271.3,25,271.5,24.7,271.7,24.2z
			 M268.1,22.5h3.6c0-0.5-0.2-0.9-0.4-1.2c-0.3-0.4-0.8-0.6-1.3-0.6c-0.5,0-0.9,0.2-1.3,0.5C268.4,21.5,268.2,21.9,268.1,22.5z"/>
		<path id="XMLID_35_" d="M276.5,25.3l0.2,1c-0.3,0.1-0.6,0.1-0.8,0.1c-0.4,0-0.7-0.1-0.9-0.2c-0.2-0.1-0.4-0.3-0.5-0.5
			s-0.1-0.6-0.1-1.3v-3.7h-0.8v-0.8h0.8v-1.6l1.1-0.6v2.2h1.1v0.8h-1.1v3.7c0,0.3,0,0.5,0.1,0.6c0,0.1,0.1,0.2,0.2,0.2
			c0.1,0.1,0.2,0.1,0.4,0.1C276.2,25.4,276.3,25.3,276.5,25.3z"/>
		<path id="XMLID_37_" d="M277.2,23.1c0-1.2,0.3-2.1,1-2.6c0.5-0.5,1.2-0.7,2-0.7c0.9,0,1.6,0.3,2.2,0.9c0.6,0.6,0.8,1.4,0.8,2.4
			c0,0.8-0.1,1.5-0.4,1.9c-0.2,0.5-0.6,0.8-1.1,1.1c-0.5,0.3-1,0.4-1.5,0.4c-0.9,0-1.6-0.3-2.2-0.9C277.5,25,277.2,24.2,277.2,23.1z
			 M278.3,23.1c0,0.8,0.2,1.4,0.5,1.8c0.4,0.4,0.8,0.6,1.3,0.6c0.5,0,1-0.2,1.3-0.6c0.4-0.4,0.5-1,0.5-1.9c0-0.8-0.2-1.4-0.5-1.8
			c-0.4-0.4-0.8-0.6-1.3-0.6c-0.5,0-1,0.2-1.3,0.6C278.5,21.7,278.3,22.3,278.3,23.1z"/>
		<path id="XMLID_43_" d="M287.9,26.3v-6.4h1v0.9c0.5-0.7,1.1-1.1,2-1.1c0.4,0,0.7,0.1,1.1,0.2c0.3,0.1,0.6,0.3,0.7,0.5
			s0.3,0.5,0.3,0.8c0,0.2,0.1,0.6,0.1,1.1v3.9H292v-3.9c0-0.4,0-0.8-0.1-1c-0.1-0.2-0.2-0.4-0.4-0.5c-0.2-0.1-0.5-0.2-0.8-0.2
			c-0.5,0-0.9,0.1-1.2,0.4S289,22,289,22.8v3.5H287.9z"/>
	</g>
	<g id="XMLID_8249_">
		<rect id="XMLID_2565_" x="257.2" y="220.5" class="st8" width="12.3" height="12.3"/>
		<line id="XMLID_8253_" class="st9" x1="269.5" y1="220.5" x2="257.2" y2="232.9"/>
		<line id="XMLID_8283_" class="st9" x1="269.5" y1="232.9" x2="257.2" y2="220.5"/>
	</g>
	<g id="XMLID_9602_">
		<rect id="XMLID_9802_" x="148.3" y="252.9" class="st10" width="12.3" height="12.3"/>
	</g>
	<g id="XMLID_8300_">
		<rect id="XMLID_8303_" x="28.4" y="220.5" class="st8" width="12.3" height="12.3"/>
		<line id="XMLID_8302_" class="st9" x1="40.7" y1="220.5" x2="28.4" y2="232.9"/>
		<line id="XMLID_8301_" class="st9" x1="40.7" y1="232.9" x2="28.4" y2="220.5"/>
	</g>
</g>
</svg>
