<?xml version="1.0" encoding="utf-8"?>
<!-- Generator: Adobe Illustrator 19.0.0, SVG Export Plug-In . SVG Version: 6.00 Build 0)  -->
<svg version="1.1" id="Capa_1" xmlns="http://www.w3.org/2000/svg" xmlns:xlink="http://www.w3.org/1999/xlink" x="0px" y="0px"
	 viewBox="0 0 299.6 395.3" style="enable-background:new 0 0 299.6 395.3;" xml:space="preserve">
<style type="text/css">
	.st0{fill-rule:evenodd;clip-rule:evenodd;fill:#FFFFFF;}
	.st1{fill:#F99B1C;}
	.st2{fill:#15B0BF;}
	.st3{fill:#A6DAE9;}
	.st4{fill:#4C8EB4;}
	.st5{fill:#CCCCCC;}
	.st6{opacity:0.2;fill-rule:evenodd;clip-rule:evenodd;fill:#2C5871;}
	.st7{fill-rule:evenodd;clip-rule:evenodd;fill:#D4DBDD;}
	.st8{fill-rule:evenodd;clip-rule:evenodd;fill:#F7F9F8;}
	.st9{fill-rule:evenodd;clip-rule:evenodd;fill:#6D6D6D;}
	.st10{fill:#E6E7E8;}
	.st11{fill:#FFFFFF;}
	.st12{fill:#E0DEDC;}
	.st13{fill:#8D4220;}
	.st14{fill:#512812;}
	.st15{fill:#3F7A93;}
	.st16{fill:#FECB9A;}
	.st17{fill:#2F4962;}
	.st18{fill:#103754;}
	.st19{fill:#252527;}
	.st20{fill:#3D3D3D;}
	.st21{fill:#F9A818;}
	.st22{fill:#F5E6B6;}
	.st23{fill:#F0B16C;}
	.st24{fill:#C62229;}
	.st25{fill:#F85A68;}
</style>
<g id="XMLID_18752_">
	<g id="paper_1_">
		<path id="XMLID_22571_" class="st0" d="M177.6,205.1l-95.6,0l0-135.1l95.6,0L177.6,205.1z"/>
		<g id="XMLID_22561_">
			
				<rect id="XMLID_22117_" x="92.9" y="192.5" transform="matrix(-1 6.479797e-004 -6.479797e-004 -1 260.7678 388.3937)" class="st1" width="74.8" height="3.5"/>
			
				<rect id="XMLID_22112_" x="92.9" y="184.6" transform="matrix(-1 6.420600e-004 -6.420600e-004 -1 260.7548 372.5326)" class="st2" width="74.8" height="3.5"/>
			
				<rect id="XMLID_22111_" x="92.9" y="176.6" transform="matrix(-1 6.453606e-004 -6.453606e-004 -1 260.7342 356.6728)" class="st3" width="74.8" height="3.5"/>
			
				<rect id="XMLID_22110_" x="92.9" y="168.7" transform="matrix(-1 6.420583e-004 -6.420583e-004 -1 260.7217 340.8128)" class="st4" width="74.8" height="3.5"/>
			<rect id="XMLID_22108_" x="91.9" y="104.3" class="st5" width="76.5" height="3.9"/>
			<rect id="XMLID_22106_" x="91.9" y="92.6" class="st5" width="76.5" height="3.9"/>
			<rect id="XMLID_20624_" x="91.9" y="80.9" class="st5" width="76.5" height="3.9"/>
			<rect id="XMLID_20614_" x="91.9" y="86.7" class="st5" width="76.5" height="3.9"/>
			<rect id="XMLID_20613_" x="91.9" y="98.4" class="st5" width="76.5" height="3.9"/>
		</g>
		
			<rect id="XMLID_20503_" x="115.5" y="72.6" transform="matrix(-1 9.711026e-005 -9.711026e-005 -1 293.1422 260.1824)" class="st6" width="62.1" height="115"/>
	</g>
	<g id="paper">
		<path id="XMLID_22558_" class="st0" d="M218.2,178.9l-95.6,0l0-135.1l95.6,0L218.2,178.9z"/>
		<g id="XMLID_22543_">
			
				<rect id="XMLID_20501_" x="196.4" y="166.3" transform="matrix(-1 6.694961e-004 -6.694961e-004 -1 404.802 335.9059)" class="st1" width="12" height="3.5"/>
			
				<rect id="XMLID_20500_" x="196.4" y="158.4" transform="matrix(-1 6.240648e-004 -6.240648e-004 -1 404.7798 320.0532)" class="st2" width="12" height="3.5"/>
			
				<rect id="XMLID_20498_" x="196.4" y="150.4" transform="matrix(-1 6.447266e-004 -6.447266e-004 -1 404.7668 304.1897)" class="st3" width="12" height="3.5"/>
			
				<rect id="XMLID_20496_" x="196.4" y="142.5" transform="matrix(-1 6.447269e-004 -6.447269e-004 -1 404.752 288.3292)" class="st4" width="12" height="3.5"/>
			<rect id="XMLID_20494_" x="132.6" y="165.7" class="st5" width="55.7" height="3.9"/>
			<rect id="XMLID_20491_" x="132.6" y="154" class="st5" width="55.7" height="3.9"/>
			<rect id="XMLID_20488_" x="132.6" y="142.3" class="st5" width="55.7" height="3.9"/>
			<rect id="XMLID_20487_" x="132.6" y="148.2" class="st5" width="55.7" height="3.9"/>
			<rect id="XMLID_20480_" x="132.6" y="159.9" class="st5" width="55.7" height="3.9"/>
			<rect id="XMLID_20479_" x="132.5" y="78.1" class="st5" width="76.5" height="3.9"/>
			<rect id="XMLID_20476_" x="132.5" y="66.4" class="st5" width="76.5" height="3.9"/>
			<rect id="XMLID_20475_" x="132.5" y="54.7" class="st5" width="76.5" height="3.9"/>
			<rect id="XMLID_20474_" x="132.5" y="60.5" class="st5" width="76.5" height="3.9"/>
			<rect id="XMLID_20467_" x="132.5" y="72.2" class="st5" width="76.5" height="3.9"/>
		</g>
		<g id="XMLID_22528_">
			<rect id="XMLID_20466_" x="205.8" y="94.1" class="st5" width="2.5" height="26.9"/>
			<rect id="XMLID_20457_" x="132.6" y="91.6" class="st5" width="75.7" height="2.5"/>
			<g id="XMLID_22538_">
				<rect id="XMLID_20456_" x="192.3" y="94.1" class="st2" width="6.8" height="12"/>
				<rect id="XMLID_20447_" x="192.3" y="106.1" class="st3" width="6.8" height="6"/>
			</g>
			<g id="XMLID_22535_">
				<rect id="XMLID_20446_" x="179.7" y="94.1" class="st2" width="6.8" height="17.1"/>
				<rect id="XMLID_20349_" x="179.7" y="111.2" class="st3" width="6.8" height="3.4"/>
			</g>
			<g id="XMLID_22532_">
				<rect id="XMLID_20348_" x="167" y="94.1" class="st2" width="6.8" height="8.7"/>
				<rect id="XMLID_20347_" x="167" y="102.8" class="st3" width="6.8" height="6.2"/>
			</g>
			<g id="XMLID_22529_">
				<rect id="XMLID_20346_" x="154.4" y="94.1" class="st2" width="6.8" height="5"/>
				<rect id="XMLID_20344_" x="154.4" y="99.1" class="st3" width="6.8" height="5"/>
			</g>
		</g>
	</g>
	<g id="laptop">
		<g id="XMLID_22221_">
			<path id="XMLID_22522_" class="st7" d="M95.3,240.8l167.4-0.1c2.1,0,3.9,1.8,3.9,3.9l0.1,108.6c0,2.1-1.8,3.9-3.9,3.9l-167.4,0.1
				c-2.1,0-3.9-1.8-3.9-3.9l-0.1-108.6C91.4,242.6,93.1,240.8,95.3,240.8z"/>
			<path id="XMLID_20340_" class="st8" d="M249.6,256.2l5.4,0c0.6,0,1.1,0.5,1.1,1.1l0,4c0,0.6-0.5,1.1-1.1,1.1l-5.4,0
				c-0.6,0-1.1-0.5-1.1-1.1l0-4C248.4,256.7,249,256.2,249.6,256.2z"/>
			<path id="XMLID_20337_" class="st8" d="M249.8,263.9l4.9,0c0.8,0,1.4,0.6,1.4,1.4l0,5.4c0,0.8-0.6,1.4-1.4,1.4l-4.9,0
				c-0.8,0-1.4-0.6-1.4-1.4l0-5.4C248.5,264.5,249.1,263.9,249.8,263.9z"/>
			<path id="XMLID_20182_" class="st8" d="M249.8,273.5l4.9,0c0.8,0,1.4,0.6,1.4,1.4l0,5.4c0,0.8-0.6,1.4-1.4,1.4l-4.9,0
				c-0.7,0-1.4-0.6-1.4-1.4v-5.4C248.5,274.1,249.1,273.5,249.8,273.5z"/>
			<path id="XMLID_20181_" class="st8" d="M249.8,283.1l4.9,0c0.7,0,1.4,0.6,1.4,1.4l0,5.4c0,0.8-0.6,1.4-1.4,1.4l-4.9,0
				c-0.7,0-1.4-0.6-1.4-1.4l0-5.4C248.5,283.7,249.1,283.1,249.8,283.1z"/>
			<path id="XMLID_20180_" class="st8" d="M249.8,292.7l4.9,0c0.7,0,1.4,0.6,1.4,1.4l0,5.4c0,0.8-0.6,1.4-1.4,1.4l-4.9,0
				c-0.8,0-1.4-0.6-1.4-1.4l0-5.4C248.5,293.3,249.1,292.7,249.8,292.7z"/>
			<path id="XMLID_20179_" class="st8" d="M249.8,302.2l4.9,0c0.8,0,1.4,0.6,1.4,1.4l0,5.4c0,0.8-0.6,1.4-1.4,1.4l-4.9,0
				c-0.8,0-1.4-0.6-1.4-1.4l0-5.4C248.5,302.9,249.1,302.2,249.8,302.2z"/>
			<path id="XMLID_20177_" class="st8" d="M240,256.2l5.4,0c0.6,0,1.1,0.5,1.1,1.1l0,4c0,0.6-0.5,1.1-1.1,1.1l-5.4,0
				c-0.6,0-1.1-0.5-1.1-1.1l0-4C238.9,256.7,239.4,256.2,240,256.2z"/>
			<path id="XMLID_20175_" class="st8" d="M231.5,263.9l13.5,0c0.8,0,1.5,0.7,1.5,1.5l0,5.3c0,0.8-0.7,1.5-1.5,1.5l-13.5,0
				c-0.8,0-1.5-0.7-1.5-1.5l0-5.2C230.1,264.6,230.7,263.9,231.5,263.9z"/>
			<path id="XMLID_20173_" class="st8" d="M237.8,273.5l7.3,0c0.8,0,1.5,0.7,1.5,1.5l0,5.3c0,0.8-0.7,1.5-1.5,1.5l-7.3,0
				c-0.8,0-1.5-0.7-1.5-1.5l0-5.3C236.3,274.1,237,273.5,237.8,273.5z"/>
			<path id="XMLID_20170_" class="st8" d="M230.5,283.1l14.6,0c0.8,0,1.5,0.7,1.5,1.5l0,5.3c0,0.8-0.7,1.5-1.5,1.5l-14.6,0
				c-0.8,0-1.5-0.7-1.5-1.5l0-5.3C229,283.7,229.7,283.1,230.5,283.1z"/>
			<path id="XMLID_20167_" class="st8" d="M240.3,292.7l4.9,0c0.7,0,1.4,0.6,1.4,1.4l0,5.4c0,0.8-0.6,1.4-1.4,1.4l-4.9,0
				c-0.8,0-1.4-0.6-1.4-1.4l0-5.4C238.9,293.3,239.5,292.7,240.3,292.7z"/>
			<path id="XMLID_20166_" class="st8" d="M240.3,302.2h4.9c0.7,0,1.4,0.6,1.4,1.4l0,5.4c0,0.7-0.6,1.4-1.4,1.4l-4.9,0
				c-0.8,0-1.4-0.6-1.4-1.4l0-5.4C238.9,302.9,239.5,302.3,240.3,302.2z"/>
			<path id="XMLID_20159_" class="st8" d="M231.2,256.2l4.7,0c0.6,0,1.1,0.5,1.1,1.1l0,4c0,0.6-0.5,1.1-1.1,1.1l-4.7,0
				c-0.6,0-1.1-0.5-1.1-1.1l0-4C230.1,256.8,230.6,256.2,231.2,256.2z"/>
			<path id="XMLID_20158_" class="st8" d="M222.2,256.2l4.7,0c0.6,0,1.1,0.5,1.1,1.1l0,4c0,0.6-0.5,1.1-1.1,1.1h-4.7
				c-0.6,0-1.1-0.5-1.1-1.1l0-4C221.1,256.8,221.6,256.2,222.2,256.2z"/>
			<path id="XMLID_20155_" class="st8" d="M213.3,256.3l4.7,0c0.6,0,1.1,0.5,1.1,1.1l0,4c0,0.6-0.5,1.1-1.1,1.1l-4.7,0
				c-0.6,0-1.1-0.5-1.1-1.1l0-4C212.1,256.8,212.6,256.3,213.3,256.3z"/>
			<path id="XMLID_20154_" class="st8" d="M204.3,256.3l4.7,0c0.6,0,1.1,0.5,1.1,1.1l0,4c0,0.6-0.5,1.1-1.1,1.1l-4.7,0
				c-0.6,0-1.1-0.5-1.1-1.1v-4C203.2,256.8,203.7,256.3,204.3,256.3z"/>
			<path id="XMLID_20153_" class="st8" d="M195.3,256.3l4.7,0c0.6,0,1.1,0.5,1.1,1.1l0,4c0,0.6-0.5,1.1-1.1,1.1l-4.7,0
				c-0.6,0-1.1-0.5-1.1-1.1l0-4C194.2,256.8,194.7,256.3,195.3,256.3z"/>
			<path id="XMLID_20146_" class="st8" d="M186.4,256.3l4.7,0c0.6,0,1.1,0.5,1.1,1.1l0,4c0,0.6-0.5,1.1-1.1,1.1l-4.7,0
				c-0.6,0-1.1-0.5-1.1-1.1l0-4C185.2,256.8,185.7,256.3,186.4,256.3z"/>
			<path id="XMLID_20145_" class="st8" d="M177.4,256.3l4.7,0c0.6,0,1.1,0.5,1.1,1.1l0,4c0,0.6-0.5,1.1-1.1,1.1l-4.7,0
				c-0.6,0-1.1-0.5-1.1-1.1l0-4C176.3,256.8,176.8,256.3,177.4,256.3z"/>
			<path id="XMLID_20136_" class="st8" d="M168.4,256.3l4.7,0c0.6,0,1.1,0.5,1.1,1.1l0,4c0,0.6-0.5,1.1-1.1,1.1l-4.7,0
				c-0.6,0-1.1-0.5-1.1-1.1l0-4C167.3,256.8,167.8,256.3,168.4,256.3z"/>
			<path id="XMLID_20135_" class="st8" d="M159.5,256.3l4.7,0c0.6,0,1.1,0.5,1.1,1.1l0,4c0,0.6-0.5,1.1-1.1,1.1l-4.7,0
				c-0.6,0-1.1-0.5-1.1-1.1l0-4C158.3,256.8,158.8,256.3,159.5,256.3z"/>
			<path id="XMLID_20003_" class="st8" d="M150.5,256.3l4.7,0c0.6,0,1.1,0.5,1.1,1.1l0,4c0,0.6-0.5,1.1-1.1,1.1l-4.7,0
				c-0.6,0-1.1-0.5-1.1-1.1l0-4C149.4,256.8,149.9,256.3,150.5,256.3z"/>
			<path id="XMLID_20000_" class="st8" d="M141.5,256.3l4.7,0c0.6,0,1.1,0.5,1.1,1.1l0,4c0,0.6-0.5,1.1-1.1,1.1l-4.7,0
				c-0.6,0-1.1-0.5-1.1-1.1l0-4C140.4,256.8,140.9,256.3,141.5,256.3z"/>
			<path id="XMLID_19999_" class="st8" d="M132.6,256.3l4.7,0c0.6,0,1.1,0.5,1.1,1.1l0,4c0,0.6-0.5,1.1-1.1,1.1l-4.7,0
				c-0.6,0-1.1-0.5-1.1-1.1l0-4C131.4,256.8,131.9,256.3,132.6,256.3z"/>
			<path id="XMLID_19992_" class="st8" d="M123.6,256.3l4.7,0c0.6,0,1.1,0.5,1.1,1.1l0,4c0,0.6-0.5,1.1-1.1,1.1l-4.7,0
				c-0.6,0-1.1-0.5-1.1-1.1l0-4C122.5,256.8,123,256.3,123.6,256.3z"/>
			<path id="XMLID_19991_" class="st8" d="M114.6,256.3l4.7,0c0.6,0,1.1,0.5,1.1,1.1l0,4c0,0.6-0.5,1.1-1.1,1.1l-4.7,0
				c-0.6,0-1.1-0.5-1.1-1.1l0-4C113.5,256.8,114,256.3,114.6,256.3z"/>
			<path id="XMLID_19988_" class="st8" d="M104.6,256.3l5.4,0c0.6,0,1.1,0.5,1.1,1.1l0,4c0,0.6-0.5,1.1-1.1,1.1l-5.4,0
				c-0.6,0-1.1-0.5-1.1-1.1l0-4C103.4,256.8,103.9,256.3,104.6,256.3z"/>
			<path id="XMLID_19987_" class="st8" d="M221.9,263.9l4.8,0c0.7,0,1.3,0.6,1.3,1.3l0,5.5c0,0.7-0.6,1.3-1.3,1.3l-4.8,0
				c-0.7,0-1.3-0.6-1.3-1.3l0-5.5C220.5,264.5,221.1,263.9,221.9,263.9z"/>
			<path id="XMLID_19986_" class="st8" d="M212.1,263.9l4.8,0c0.7,0,1.3,0.6,1.3,1.3l0,5.5c0,0.7-0.6,1.3-1.3,1.3l-4.8,0
				c-0.7,0-1.3-0.6-1.3-1.3l0-5.5C210.8,264.5,211.4,263.9,212.1,263.9z"/>
			<path id="XMLID_19979_" class="st8" d="M202.4,263.9l4.8,0c0.7,0,1.3,0.6,1.3,1.3l0,5.5c0,0.7-0.6,1.3-1.3,1.3l-4.8,0
				c-0.7,0-1.3-0.6-1.3-1.3l0-5.5C201.1,264.5,201.7,263.9,202.4,263.9z"/>
			<path id="XMLID_19978_" class="st8" d="M192.7,263.9l4.8,0c0.7,0,1.3,0.6,1.3,1.3l0,5.5c0,0.7-0.6,1.3-1.3,1.3l-4.8,0
				c-0.7,0-1.3-0.6-1.3-1.3l0-5.5C191.3,264.5,191.9,263.9,192.7,263.9z"/>
			<path id="XMLID_19969_" class="st8" d="M182.9,263.9l4.8,0c0.7,0,1.3,0.6,1.3,1.3l0,5.5c0,0.7-0.6,1.3-1.3,1.3l-4.8,0
				c-0.7,0-1.3-0.6-1.3-1.3l0-5.5C181.6,264.5,182.2,263.9,182.9,263.9z"/>
			<path id="XMLID_19968_" class="st8" d="M173.2,263.9h4.8c0.7,0,1.3,0.6,1.3,1.3l0,5.5c0,0.7-0.6,1.3-1.3,1.3l-4.8,0
				c-0.7,0-1.3-0.6-1.3-1.3l0-5.5C171.9,264.6,172.5,264,173.2,263.9z"/>
			<path id="XMLID_19959_" class="st8" d="M163.5,264l4.8,0c0.7,0,1.3,0.6,1.3,1.3l0,5.5c0,0.7-0.6,1.3-1.3,1.3l-4.8,0
				c-0.7,0-1.3-0.6-1.3-1.3l0-5.5C162.1,264.6,162.8,264,163.5,264z"/>
			<path id="XMLID_19958_" class="st8" d="M153.8,264l4.8,0c0.7,0,1.3,0.6,1.3,1.3l0,5.5c0,0.7-0.6,1.3-1.3,1.3l-4.8,0
				c-0.7,0-1.3-0.6-1.3-1.3l0-5.5C152.4,264.6,153,264,153.8,264z"/>
			<path id="XMLID_19845_" class="st8" d="M144,264l4.8,0c0.7,0,1.3,0.6,1.3,1.3l0,5.5c0,0.7-0.6,1.3-1.3,1.3l-4.8,0
				c-0.7,0-1.3-0.6-1.3-1.3l0-5.5C142.7,264.6,143.3,264,144,264z"/>
			<path id="XMLID_19843_" class="st8" d="M134.3,264l4.8,0c0.7,0,1.3,0.6,1.3,1.3l0,5.5c0,0.7-0.6,1.3-1.3,1.3l-4.8,0
				c-0.7,0-1.3-0.6-1.3-1.3l0-5.5C133,264.6,133.6,264,134.3,264z"/>
			<path id="XMLID_19841_" class="st8" d="M124.6,264l4.8,0c0.7,0,1.3,0.6,1.3,1.3l0,5.5c0,0.7-0.6,1.3-1.3,1.3l-4.8,0
				c-0.7,0-1.3-0.6-1.3-1.3l0-5.5C123.2,264.6,123.8,264,124.6,264z"/>
			<path id="XMLID_19833_" class="st8" d="M114.9,264l4.8,0c0.7,0,1.3,0.6,1.3,1.3l0,5.5c0,0.7-0.6,1.3-1.3,1.3l-4.8,0
				c-0.7,0-1.3-0.6-1.3-1.3l0-5.5C113.5,264.6,114.1,264,114.9,264z"/>
			<path id="XMLID_19832_" class="st8" d="M104.8,264l4.9,0c0.8,0,1.4,0.6,1.4,1.4l0,5.4c0,0.7-0.6,1.4-1.4,1.4l-4.9,0
				c-0.8,0-1.4-0.6-1.4-1.4l0-5.4C103.4,264.6,104.1,264,104.8,264z"/>
			<path id="XMLID_19824_" class="st8" d="M104.9,273.6l10.1,0c0.8,0,1.5,0.7,1.5,1.5l0,5.3c0,0.8-0.7,1.5-1.5,1.5l-10.1,0
				c-0.8,0-1.5-0.7-1.5-1.5l0-5.3C103.4,274.2,104.1,273.6,104.9,273.6z"/>
			<path id="XMLID_19541_" class="st8" d="M104.9,283.2l12,0c0.8,0,1.5,0.7,1.5,1.5l0,5.3c0,0.8-0.7,1.5-1.5,1.5l-12,0
				c-0.8,0-1.5-0.7-1.5-1.5l0-5.3C103.4,283.8,104.1,283.2,104.9,283.2z"/>
			<path id="XMLID_19539_" class="st8" d="M104.9,292.8l17.2,0c0.8,0,1.5,0.7,1.5,1.5l0,5.3c0,0.8-0.7,1.5-1.5,1.5l-17.2,0
				c-0.8,0-1.5-0.7-1.5-1.5l0-5.3C103.5,293.4,104.1,292.8,104.9,292.8z"/>
			<path id="XMLID_19538_" class="st8" d="M104.9,302.3l7.2,0c0.8,0,1.5,0.7,1.5,1.5l0,5.3c0,0.8-0.7,1.5-1.5,1.5l-7.2,0
				c-0.8,0-1.5-0.7-1.5-1.5v-5.3C103.5,303,104.1,302.3,104.9,302.3z"/>
			<path id="XMLID_19536_" class="st8" d="M119.1,273.6l5.2,0c0.8,0,1.4,0.6,1.4,1.4l0,5.3c0,0.8-0.6,1.4-1.4,1.4l-5.2,0
				c-0.8,0-1.4-0.6-1.4-1.4l0-5.3C117.7,274.2,118.3,273.6,119.1,273.6z"/>
			<path id="XMLID_19515_" class="st8" d="M129,273.6l5.2,0c0.8,0,1.4,0.6,1.4,1.4l0,5.3c0,0.8-0.6,1.4-1.4,1.4l-5.2,0
				c-0.8,0-1.4-0.6-1.4-1.4l0-5.3C127.6,274.2,128.2,273.6,129,273.6z"/>
			<path id="XMLID_19514_" class="st8" d="M138.9,273.6l5.2,0c0.8,0,1.4,0.6,1.4,1.4l0,5.3c0,0.8-0.6,1.4-1.4,1.4l-5.2,0
				c-0.8,0-1.4-0.6-1.4-1.4l0-5.3C137.5,274.2,138.2,273.6,138.9,273.6z"/>
			<path id="XMLID_19511_" class="st8" d="M148.9,273.6l5.2,0c0.8,0,1.4,0.6,1.4,1.4l0,5.3c0,0.8-0.6,1.4-1.4,1.4l-5.2,0
				c-0.8,0-1.4-0.6-1.4-1.4l0-5.3C147.4,274.2,148.1,273.5,148.9,273.6z"/>
			<path id="XMLID_19509_" class="st8" d="M158.8,273.5l5.2,0c0.8,0,1.4,0.6,1.4,1.4l0,5.3c0,0.8-0.6,1.4-1.4,1.4l-5.2,0
				c-0.8,0-1.4-0.6-1.4-1.4l0-5.3C157.3,274.2,158,273.5,158.8,273.5z"/>
			<path id="XMLID_19451_" class="st8" d="M168.7,273.5l5.2,0c0.8,0,1.4,0.6,1.4,1.4l0,5.3c0,0.8-0.6,1.4-1.4,1.4l-5.2,0
				c-0.8,0-1.4-0.6-1.4-1.4l0-5.3C167.2,274.2,167.9,273.5,168.7,273.5z"/>
			<path id="XMLID_19288_" class="st8" d="M178.6,273.5l5.2,0c0.8,0,1.4,0.6,1.4,1.4l0,5.3c0,0.8-0.6,1.4-1.4,1.4l-5.2,0
				c-0.8,0-1.4-0.6-1.4-1.4l0-5.3C177.2,274.2,177.8,273.5,178.6,273.5z"/>
			<path id="XMLID_19221_" class="st8" d="M188.5,273.5l5.2,0c0.8,0,1.4,0.6,1.4,1.4l0,5.3c0,0.8-0.6,1.4-1.4,1.4l-5.2,0
				c-0.8,0-1.4-0.6-1.4-1.4l0-5.3C187.1,274.2,187.7,273.5,188.5,273.5z"/>
			<path id="XMLID_19219_" class="st8" d="M198.4,273.5l5.2,0c0.8,0,1.4,0.6,1.4,1.4l0,5.3c0,0.8-0.6,1.4-1.4,1.4l-5.2,0
				c-0.8,0-1.4-0.6-1.4-1.4V275C197,274.2,197.6,273.5,198.4,273.5z"/>
			<path id="XMLID_19218_" class="st8" d="M208.3,273.5l5.2,0c0.8,0,1.4,0.6,1.4,1.4l0,5.3c0,0.8-0.6,1.4-1.4,1.4l-5.2,0
				c-0.8,0-1.4-0.6-1.4-1.4l0-5.3C206.9,274.2,207.5,273.5,208.3,273.5z"/>
			<path id="XMLID_19216_" class="st8" d="M218.2,273.5l5.2,0c0.8,0,1.4,0.6,1.4,1.4l0,5.3c0,0.8-0.6,1.4-1.4,1.4l-5.2,0
				c-0.8,0-1.4-0.6-1.4-1.4l0-5.3C216.8,274.2,217.4,273.5,218.2,273.5z"/>
			<path id="XMLID_19214_" class="st8" d="M228.1,273.5l5.2,0c0.8,0,1.4,0.6,1.4,1.4l0,5.3c0,0.8-0.6,1.4-1.4,1.4l-5.2,0
				c-0.8,0-1.4-0.6-1.4-1.4l0-5.3C226.7,274.1,227.4,273.5,228.1,273.5z"/>
			<path id="XMLID_19212_" class="st8" d="M121.9,283.2l5.2,0c0.8,0,1.4,0.6,1.4,1.4l0,5.3c0,0.8-0.6,1.4-1.4,1.4l-5.2,0
				c-0.8,0-1.4-0.6-1.4-1.4l0-5.3C120.4,283.8,121.1,283.2,121.9,283.2z"/>
			<path id="XMLID_19209_" class="st8" d="M131.8,283.1l5.2,0c0.8,0,1.4,0.6,1.4,1.4l0,5.3c0,0.8-0.6,1.4-1.4,1.4l-5.2,0
				c-0.8,0-1.4-0.6-1.4-1.4l0-5.3C130.4,283.8,131,283.2,131.8,283.1z"/>
			<path id="XMLID_19206_" class="st8" d="M141.7,283.1l5.2,0c0.8,0,1.4,0.6,1.4,1.4l0,5.3c0,0.8-0.6,1.4-1.4,1.4l-5.2,0
				c-0.8,0-1.4-0.6-1.4-1.4l0-5.3C140.3,283.8,140.9,283.1,141.7,283.1z"/>
			<path id="XMLID_19205_" class="st8" d="M151.6,283.1l5.2,0c0.8,0,1.4,0.6,1.4,1.4l0,5.3c0,0.8-0.6,1.4-1.4,1.4l-5.2,0
				c-0.8,0-1.4-0.6-1.4-1.4l0-5.3C150.2,283.8,150.8,283.1,151.6,283.1z"/>
			<path id="XMLID_19198_" class="st8" d="M161.5,283.1l5.2,0c0.8,0,1.4,0.6,1.4,1.4l0,5.3c0,0.8-0.6,1.4-1.4,1.4l-5.2,0
				c-0.8,0-1.4-0.6-1.4-1.4l0-5.3C160.1,283.8,160.7,283.1,161.5,283.1z"/>
			<path id="XMLID_19197_" class="st8" d="M171.4,283.1l5.2,0c0.8,0,1.4,0.6,1.4,1.4l0,5.3c0,0.8-0.6,1.4-1.4,1.4l-5.2,0
				c-0.8,0-1.4-0.6-1.4-1.4l0-5.3C170,283.8,170.6,283.1,171.4,283.1z"/>
			<path id="XMLID_19194_" class="st8" d="M181.3,283.1l5.2,0c0.8,0,1.4,0.6,1.4,1.4l0,5.3c0,0.8-0.6,1.4-1.4,1.4l-5.2,0
				c-0.8,0-1.4-0.6-1.4-1.4l0-5.3C179.9,283.8,180.6,283.1,181.3,283.1z"/>
			<path id="XMLID_19193_" class="st8" d="M191.3,283.1l5.2,0c0.8,0,1.4,0.6,1.4,1.4l0,5.3c0,0.8-0.6,1.4-1.4,1.4l-5.2,0
				c-0.8,0-1.4-0.6-1.4-1.4l0-5.3C189.8,283.8,190.5,283.1,191.3,283.1z"/>
			<path id="XMLID_19174_" class="st8" d="M201.2,283.1l5.2,0c0.8,0,1.4,0.6,1.4,1.4l0,5.3c0,0.8-0.6,1.4-1.4,1.4l-5.2,0
				c-0.8,0-1.4-0.6-1.4-1.4l0-5.3C199.7,283.8,200.4,283.1,201.2,283.1z"/>
			<path id="XMLID_19165_" class="st8" d="M211.1,283.1l5.2,0c0.8,0,1.4,0.6,1.4,1.4l0,5.3c0,0.8-0.6,1.4-1.4,1.4l-5.2,0
				c-0.8,0-1.4-0.6-1.4-1.4l0-5.3C209.6,283.7,210.3,283.1,211.1,283.1z"/>
			<path id="XMLID_19164_" class="st8" d="M221,283.1l5.2,0c0.8,0,1.4,0.6,1.4,1.4l0,5.3c0,0.8-0.6,1.4-1.4,1.4l-5.2,0
				c-0.8,0-1.4-0.6-1.4-1.4l0-5.3C219.6,283.7,220.2,283.1,221,283.1z"/>
			<path id="XMLID_19026_" class="st8" d="M127.1,292.7l5.2,0c0.8,0,1.4,0.6,1.4,1.4l0,5.3c0,0.8-0.6,1.4-1.4,1.4h-5.2
				c-0.8,0-1.4-0.6-1.4-1.4l0-5.3C125.6,293.4,126.3,292.7,127.1,292.7z"/>
			<path id="XMLID_19025_" class="st8" d="M137,292.7l5.2,0c0.8,0,1.4,0.6,1.4,1.4l0,5.3c0,0.8-0.6,1.4-1.4,1.4l-5.2,0
				c-0.8,0-1.4-0.6-1.4-1.4l0-5.3C135.6,293.4,136.2,292.7,137,292.7z"/>
			<path id="XMLID_19024_" class="st8" d="M146.9,292.7l5.2,0c0.8,0,1.4,0.6,1.4,1.4l0,5.3c0,0.8-0.6,1.4-1.4,1.4l-5.2,0
				c-0.8,0-1.4-0.6-1.4-1.4l0-5.3C145.5,293.4,146.1,292.7,146.9,292.7z"/>
			<path id="XMLID_19020_" class="st8" d="M156.8,292.7l5.2,0c0.8,0,1.4,0.6,1.4,1.4l0,5.3c0,0.8-0.6,1.4-1.4,1.4l-5.2,0
				c-0.8,0-1.4-0.6-1.4-1.4l0-5.3C155.4,293.4,156,292.7,156.8,292.7z"/>
			<path id="XMLID_19018_" class="st8" d="M166.7,292.7l5.2,0c0.8,0,1.4,0.6,1.4,1.4l0,5.3c0,0.8-0.6,1.4-1.4,1.4l-5.2,0
				c-0.8,0-1.4-0.6-1.4-1.4l0-5.3C165.3,293.4,165.9,292.7,166.7,292.7z"/>
			<path id="XMLID_19017_" class="st8" d="M176.6,292.7l5.2,0c0.8,0,1.4,0.6,1.4,1.4l0,5.3c0,0.8-0.6,1.4-1.4,1.4l-5.2,0
				c-0.8,0-1.4-0.6-1.4-1.4v-5.3C175.2,293.4,175.8,292.7,176.6,292.7z"/>
			<path id="XMLID_19016_" class="st8" d="M186.5,292.7l5.2,0c0.8,0,1.4,0.6,1.4,1.4l0,5.3c0,0.8-0.6,1.4-1.4,1.4l-5.2,0
				c-0.8,0-1.4-0.6-1.4-1.4l0-5.3C185.1,293.3,185.8,292.7,186.5,292.7z"/>
			<path id="XMLID_19012_" class="st8" d="M196.5,292.7l5.2,0c0.8,0,1.4,0.6,1.4,1.4l0,5.3c0,0.8-0.6,1.4-1.4,1.4l-5.2,0
				c-0.8,0-1.4-0.6-1.4-1.4v-5.3C195,293.3,195.7,292.7,196.5,292.7z"/>
			<path id="XMLID_19011_" class="st8" d="M206.4,292.7l5.2,0c0.8,0,1.4,0.6,1.4,1.4v5.3c0,0.8-0.6,1.4-1.4,1.4l-5.2,0
				c-0.8,0-1.4-0.6-1.4-1.4l0-5.3C204.9,293.3,205.6,292.7,206.4,292.7z"/>
			<path id="XMLID_19010_" class="st8" d="M216.3,292.7h5.2c0.8,0,1.4,0.6,1.4,1.4l0,5.3c0,0.8-0.6,1.4-1.4,1.4h-5.2
				c-0.8,0-1.4-0.6-1.4-1.4l0-5.3C214.8,293.3,215.5,292.7,216.3,292.7z"/>
			<path id="XMLID_19009_" class="st8" d="M226.2,292.7l9.3,0c0.8,0,1.5,0.7,1.5,1.5l0,5.3c0,0.8-0.7,1.5-1.5,1.5l-9.3,0
				c-0.8,0-1.5-0.7-1.5-1.5l0-5.3C224.8,293.3,225.4,292.7,226.2,292.7z"/>
			<path id="XMLID_19007_" class="st8" d="M117,302.3l5.2,0c0.8,0,1.4,0.6,1.4,1.4l0,5.3c0,0.8-0.6,1.4-1.4,1.4l-5.2,0
				c-0.8,0-1.4-0.6-1.4-1.4l0-5.3C115.6,303,116.2,302.3,117,302.3z"/>
			<path id="XMLID_19005_" class="st8" d="M126.9,302.3l5.2,0c0.8,0,1.4,0.6,1.4,1.4l0,5.3c0,0.8-0.6,1.4-1.4,1.4l-5.2,0
				c-0.8,0-1.4-0.6-1.4-1.4l0-5.3C125.5,303,126.1,302.3,126.9,302.3z"/>
			<path id="XMLID_19003_" class="st8" d="M136.8,302.3l5.2,0c0.8,0,1.4,0.6,1.4,1.4l0,5.3c0,0.8-0.6,1.4-1.4,1.4l-5.2,0
				c-0.8,0-1.4-0.6-1.4-1.4l0-5.3C135.4,303,136,302.3,136.8,302.3z"/>
			<path id="XMLID_19002_" class="st8" d="M146.7,302.3l5.2,0c0.8,0,1.4,0.6,1.4,1.4l0,5.3c0,0.8-0.6,1.4-1.4,1.4l-5.2,0
				c-0.8,0-1.4-0.6-1.4-1.4l0-5.3C145.3,303,146,302.3,146.7,302.3z"/>
			<path id="XMLID_18983_" class="st8" d="M156.7,302.3l5.2,0c0.8,0,1.4,0.6,1.4,1.4l0,5.3c0,0.8-0.6,1.4-1.4,1.4l-5.2,0
				c-0.8,0-1.4-0.6-1.4-1.4l0-5.3C155.2,303,155.9,302.3,156.7,302.3z"/>
			<path id="XMLID_18980_" class="st8" d="M166.6,302.3l5.2,0c0.8,0,1.4,0.6,1.4,1.4l0,5.3c0,0.8-0.6,1.4-1.4,1.4l-5.2,0
				c-0.8,0-1.4-0.6-1.4-1.4l0-5.3C165.1,302.9,165.8,302.3,166.6,302.3z"/>
			<path id="XMLID_18979_" class="st8" d="M176.5,302.3l5.2,0c0.8,0,1.4,0.6,1.4,1.4v5.3c0,0.8-0.6,1.4-1.4,1.4l-5.2,0
				c-0.8,0-1.4-0.6-1.4-1.4l0-5.3C175,302.9,175.7,302.3,176.5,302.3z"/>
			<path id="XMLID_18972_" class="st8" d="M186.4,302.3l5.2,0c0.8,0,1.4,0.6,1.4,1.4l0,5.3c0,0.8-0.6,1.4-1.4,1.4l-5.2,0
				c-0.8,0-1.4-0.6-1.4-1.4l0-5.3C185,302.9,185.6,302.3,186.4,302.3z"/>
			<path id="XMLID_18971_" class="st8" d="M196.3,302.3l5.2,0c0.8,0,1.4,0.6,1.4,1.4l0,5.3c0,0.8-0.6,1.4-1.4,1.4l-5.2,0
				c-0.8,0-1.4-0.6-1.4-1.4l0-5.3C194.9,302.9,195.5,302.3,196.3,302.3z"/>
			<path id="XMLID_18968_" class="st8" d="M206.2,302.3l5.2,0c0.8,0,1.4,0.6,1.4,1.4l0,5.3c0,0.8-0.6,1.4-1.4,1.4l-5.2,0
				c-0.8,0-1.4-0.6-1.4-1.4l0-5.3C204.8,302.9,205.4,302.3,206.2,302.3z"/>
			<path id="XMLID_18967_" class="st8" d="M216.1,302.3l9.3,0c0.8,0,1.5,0.7,1.5,1.5l0,5.3c0,0.8-0.7,1.5-1.5,1.5l-9.3,0
				c-0.8,0-1.5-0.7-1.5-1.5l0-5.3C214.7,302.9,215.3,302.3,216.1,302.3z"/>
			<path id="XMLID_18965_" class="st8" d="M230.7,302.3l4.9,0c0.7,0,1.4,0.6,1.4,1.4l0,5.4c0,0.8-0.6,1.4-1.4,1.4l-4.9,0
				c-0.8,0-1.4-0.6-1.4-1.4l0-5.4C229.4,302.9,230,302.3,230.7,302.3z"/>
			<path id="XMLID_18960_" class="st8" d="M153.3,317.4l51.5,0c0.8,0,1.4,0.6,1.4,1.4l0,24.8c0,0.8-0.6,1.4-1.4,1.4l-51.5,0
				c-0.8,0-1.4-0.6-1.4-1.4l0-24.8C151.9,318,152.5,317.4,153.3,317.4z"/>
			<path id="XMLID_18959_" class="st8" d="M152.2,346.8l25.6,0c0.2,0,0.3,0.1,0.3,0.3l0,5.1c0,0.2-0.1,0.3-0.3,0.3l-25.6,0
				c-0.2,0-0.3-0.1-0.3-0.3l0-5.1C151.9,347,152,346.8,152.2,346.8z"/>
			<path id="XMLID_18958_" class="st8" d="M180.3,346.8l25.6,0c0.2,0,0.3,0.1,0.3,0.3l0,5.1c0,0.2-0.1,0.3-0.3,0.3l-25.6,0
				c-0.2,0-0.3-0.1-0.3-0.3l0-5.1C180,346.9,180.2,346.8,180.3,346.8z"/>
		</g>
		<path id="XMLID_18957_" class="st9" d="M273.7,239.8c0,2.6-2.1,4.7-4.7,4.7H87.1c-2.6,0-4.7-2.1-4.7-4.7l0,0
			c0-2.6,2.1-4.7,4.7-4.7H269C271.6,235.1,273.7,237.2,273.7,239.8L273.7,239.8z"/>
	</g>
	<g id="XMLID_22207_">
		<path id="XMLID_18956_" class="st10" d="M31.5,323.7C14.1,323.7,0,309.5,0,292.1c0-17.4,14.1-31.5,31.5-31.5
			c17.4,0,31.5,14.1,31.5,31.5C63,309.5,48.9,323.7,31.5,323.7z"/>
		<path id="XMLID_18955_" class="st11" d="M22.6,324.7c-0.8-0.2-1.6-0.8-2.1-1.6c-0.5-0.8-0.6-1.7-0.3-2.6l2.7-9.9l6.6,1.8l-2.7,9.9
			c-0.2,0.8-0.8,1.6-1.6,2.1C24.4,324.8,23.5,324.9,22.6,324.7z"/>
		<path id="XMLID_18953_" class="st12" d="M29.5,312.4l-6.6-1.8l-1,3.7c2.1,0.9,4.3,1.5,6.6,1.8L29.5,312.4z"/>
		<path id="XMLID_18952_" class="st11" d="M31.5,313.4c-11.8,0-21.3-9.5-21.3-21.3c0-11.8,9.5-21.3,21.3-21.3
			c11.8,0,21.3,9.5,21.3,21.3C52.8,303.9,43.3,313.4,31.5,313.4z"/>
		<circle id="XMLID_18951_" class="st13" cx="31.5" cy="292.1" r="17.9"/>
		<path id="XMLID_18950_" class="st14" d="M26.4,279.4c9.9,0,17.9,8,17.9,17.9c0,3.6-1.1,7-2.9,9.8c4.9-3.2,8.1-8.7,8.1-14.9
			c0-9.9-8-17.9-17.9-17.9c-6.2,0-11.7,3.2-14.9,8.1C19.4,280.4,22.8,279.4,26.4,279.4z"/>
	</g>
	<polygon id="XMLID_18949_" class="st15" points="95.9,143.2 94.4,141.8 91.5,144.7 93,146.2 96.5,149.6 98,151.1 100.9,148.2 
		99.4,146.7 	"/>
	<g id="hand_1_">
		<path id="XMLID_18948_" class="st16" d="M198.4,316.5v-15.5c0-3.3-2.7-6-6-6h-2c-0.1,0-0.2,0-0.2,0v13.2L198.4,316.5z"/>
		<path id="XMLID_18947_" class="st16" d="M203.5,314.3l-10.1-10c-1-1-2.1-1.5-3.4-1.7v9.9l13.4,13.4V314.3z"/>
		<path id="XMLID_18946_" class="st16" d="M214.4,267c2.2,0,4.1,1.8,4.1,4.1v29.9c0,2.2-1.8,4.1-4.1,4.1l0,0c-2.2,0-4.1-1.8-4.1-4.1
			V271C210.3,268.8,212.1,267,214.4,267L214.4,267z"/>
		<path id="XMLID_18945_" class="st16" d="M200.2,318c0,5.8,4.7,10.5,10.5,10.5h17.1c5.8,0,10.5-4.7,10.5-10.5v-17.1
			c0-5.8-4.7-10.5-10.5-10.5h-17.1c-5.8,0-10.5,4.7-10.5,10.5V318z"/>
		<path id="XMLID_18944_" class="st16" d="M234.4,279.3c2.2,0,4,1.8,4,4.1v19.1c0,2.2-1.8,4.1-4,4.1l0,0c-2.2,0-4.1-1.8-4.1-4.1
			v-19.1C230.3,281.2,232.1,279.3,234.4,279.3L234.4,279.3z"/>
		<path id="XMLID_18943_" class="st16" d="M224.4,274c2.2,0,4.1,1.8,4.1,4.1v29.9c0,2.2-1.8,4.1-4.1,4.1l0,0c-2.2,0-4.1-1.8-4.1-4.1
			V278C220.4,275.8,222.2,274,224.4,274L224.4,274z"/>
		<path id="XMLID_18942_" class="st16" d="M204.3,272.7c2.2,0,4.1,1.8,4.1,4.1v23.7c0,2.2-1.8,4.1-4.1,4.1l0,0
			c-2.2,0-4.1-1.8-4.1-4.1v-23.7C200.3,274.5,202.1,272.7,204.3,272.7L204.3,272.7z"/>
		<path id="XMLID_18941_" class="st16" d="M234.2,356.8v-42c0-3.9-3.2-7.1-7.1-7.1h-11.6c-3.9,0-7.1,3.2-7.1,7.1v42H234.2z"/>
		<rect id="XMLID_18940_" x="203.6" y="339.1" class="st11" width="35.2" height="17.9"/>
		<rect id="XMLID_18936_" x="202.3" y="345.2" class="st17" width="37.9" height="50.1"/>
		<path id="XMLID_18935_" class="st18" d="M236.1,352.6c0,1-0.8,1.8-1.8,1.8c-1,0-1.8-0.8-1.8-1.8c0-1,0.8-1.8,1.8-1.8
			C235.3,350.8,236.1,351.6,236.1,352.6z"/>
	</g>
	<g id="hand">
		<path id="XMLID_18934_" class="st16" d="M165.8,316.5v-15.5c0-3.3,2.7-6,6-6h2c0.1,0,0.2,0,0.2,0v13.2L165.8,316.5z"/>
		<path id="XMLID_18933_" class="st16" d="M160.7,314.3l10.1-10c0.9-1,2.1-1.5,3.4-1.7v9.9L160.7,326V314.3z"/>
		<path id="XMLID_18932_" class="st16" d="M149.8,268.3c-2.2,0-4.1,1.8-4.1,4.1v29.8c0,2.2,1.8,4.1,4.1,4.1l0,0
			c2.2,0,4.1-1.8,4.1-4.1v-29.8C153.9,270.1,152.1,268.3,149.8,268.3L149.8,268.3z"/>
		<path id="XMLID_18931_" class="st16" d="M164,318c0,5.8-4.7,10.5-10.5,10.5h-17.1c-5.8,0-10.5-4.7-10.5-10.5v-17.1
			c0-5.8,4.7-10.5,10.5-10.5h17.1c5.8,0,10.5,4.7,10.5,10.5V318z"/>
		<path id="XMLID_18914_" class="st16" d="M129.9,279.3c-2.2,0-4.1,1.8-4.1,4.1v19.1c0,2.2,1.8,4.1,4.1,4.1l0,0
			c2.2,0,4.1-1.8,4.1-4.1v-19.1C133.9,281.2,132.1,279.3,129.9,279.3L129.9,279.3z"/>
		<path id="XMLID_18913_" class="st16" d="M139.8,273c-2.2,0-4.1,1.8-4.1,4.1v29.9c0,2.2,1.8,4.1,4.1,4.1l0,0c2.2,0,4.1-1.8,4.1-4.1
			v-29.9C143.8,274.9,142,273,139.8,273L139.8,273z"/>
		<path id="XMLID_18911_" class="st16" d="M159.9,267.5c-2.2,0-4.1,1.8-4.1,4.1v23.7c0,2.2,1.8,4.1,4.1,4.1l0,0
			c2.2,0,4.1-1.8,4.1-4.1v-23.7C163.9,269.3,162.1,267.5,159.9,267.5L159.9,267.5z"/>
		<path id="XMLID_18820_" class="st16" d="M130,356.8v-42c0-3.9,3.2-7.1,7.1-7.1h11.6c3.9,0,7.1,3.2,7.1,7.1v42H130z"/>
		<rect id="XMLID_18806_" x="125.4" y="339.1" class="st11" width="35.2" height="17.9"/>
		<rect id="XMLID_18802_" x="124" y="345.2" class="st17" width="37.9" height="50.1"/>
		<path id="XMLID_18801_" class="st18" d="M128.1,352.6c0,1,0.8,1.8,1.8,1.8c1,0,1.8-0.8,1.8-1.8c0-1-0.8-1.8-1.8-1.8
			C128.9,350.8,128.1,351.6,128.1,352.6z"/>
	</g>
	<g id="hand_3_">
		<g id="XMLID_22141_">
			<path id="XMLID_18800_" class="st16" d="M262.2,51c0,0-16.7,32.7-20.5,38.1c-10,9.2-18.7,16.5-18.7,16.5l-4.9-0.7l0.1-25.9
				c0,0-16.3,12.8-20.9,16.8c-4.6,4.1-15.7,1.9-8-8.5c7.7-10.4,19.7-18.1,24.6-24.5c4.9-6.4,7.9-12.1,13.8-16.8
				c5.9-4.8,12.7-11.2,12.7-11.2L262.2,51z"/>
			
				<rect id="XMLID_18778_" x="236.9" y="28.4" transform="matrix(0.8489 0.5285 -0.5285 0.8489 58.1398 -128.7837)" class="st11" width="34.8" height="17.7"/>
		</g>
		<polygon id="XMLID_18777_" class="st19" points="255.5,0 236.9,29.9 268.7,49.6 299.6,0 		"/>
		<circle id="XMLID_18773_" class="st20" cx="267.7" cy="40.3" r="1.8"/>
	</g>
	<g id="hand_2_">
		<g id="XMLID_20623_">
			<path id="XMLID_18768_" class="st16" d="M74.8,55.1l12,24.3l5.8,33c0,0,18.4,13.9,22,16.3c3.6,2.4,5,1.3,7.3,0
				c2.3-1.3,15.4-8.9,17.1-9.9c1.8-1,2.9-1.9,2.9-3.7c0-1.8,0-5.6,0-6.6c0-0.9-3.2-3.8-4.5,0.2c-1.3,4-1.3,4.2-1.3,4.2l-14,5.8
				l-10.7-14.7V92.6l3.4-27.9L95.4,44.6L74.8,55.1z"/>
			<path id="XMLID_18767_" class="st16" d="M95.1,106.9c0,0,9.9,12.1,13.5,14.6c3.6,2.4,5,1.3,7.3,0c2.3-1.3,15.4-8.9,17.1-9.9
				c1.8-1,2.9-1.9,2.9-3.7c0-1.8,0-5.6,0-6.6c0-0.9-3.2-3.8-4.5,0.2c-1.3,4-1.3,4.2-1.3,4.2l-14,5.8l-10.7-14.7"/>
			<g id="XMLID_22113_">
				<path id="XMLID_18766_" class="st21" d="M94.5,141.7L145,91.2c0.6,1,0.3,2.5-0.8,3.7l-48.3,48.3L94.5,141.7z"/>
				<path id="XMLID_18763_" class="st22" d="M99.4,146.7l-3.5-3.5L144.2,95l0,0c0,0,0,0,0,0c0,0,0,0,0,0c1.4-1.2,3.2-1.5,4.1-0.6
					c0.9,0.9,0.6,2.6-0.6,4.1c0,0,0,0,0,0c0,0,0,0,0,0l0,0L99.4,146.7z"/>
				<path id="XMLID_18762_" class="st21" d="M147.7,98.4c1.3-1.1,2.8-1.4,3.7-0.8l-50.5,50.5l-1.5-1.5L147.7,98.4z"/>
				<path id="XMLID_18761_" class="st23" d="M151.4,97.6c-0.9-0.6-2.5-0.3-3.8,0.8l0,0c0,0,0,0,0,0c0,0,0,0,0,0
					c1.2-1.4,1.5-3.2,0.6-4.1c-0.9-0.9-2.6-0.6-4.1,0.6c0,0,0,0,0,0c0,0,0,0,0,0l0,0c1.1-1.3,1.4-2.8,0.8-3.8l9.4-2.9L151.4,97.6z"
					/>
				<path id="XMLID_18757_" class="st18" d="M149.8,89.7l4.6-1.4l-1.4,4.6c-0.7-0.3-1.3-0.7-1.9-1.3C150.5,91,150.1,90.4,149.8,89.7
					z"/>
				<g id="XMLID_22116_">
					
						<rect id="XMLID_18755_" x="92.7" y="141.9" transform="matrix(-0.707 -0.7072 0.7072 -0.707 58.1811 312.0261)" class="st24" width="2.1" height="4.1"/>
					
						<rect id="XMLID_18750_" x="93.7" y="144.4" transform="matrix(-0.7071 -0.7071 0.7071 -0.7071 60.6829 318.0184)" class="st25" width="4.9" height="4.1"/>
					
						<rect id="XMLID_18747_" x="97.6" y="146.9" transform="matrix(-0.707 -0.7072 0.7072 -0.707 63.1408 324.0011)" class="st24" width="2.1" height="4.1"/>
				</g>
			</g>
			<g id="XMLID_22109_">
				
					<rect id="XMLID_18746_" x="67.2" y="38.2" transform="matrix(-0.8489 0.5285 -0.5285 -0.8489 181.2979 42.3758)" class="st11" width="34.8" height="17.7"/>
			</g>
			<path id="XMLID_18745_" class="st16" d="M114.8,64.7c0,0,9.4,8.9,12.7,17.8c3.2,8.9,9.6,27.5,9.6,27.5s1.2,6.1-2.5,7.2
				c-3.7,1.1-7.6-7.1-7.6-7.1s-4.4-18-17-19.4C105.5,86.2,114.8,64.7,114.8,64.7z"/>
		</g>
		<polygon id="XMLID_18716_" class="st19" points="33.2,0 70.2,59.4 102,39.7 77.3,0 		"/>
		<circle id="XMLID_18715_" class="st20" cx="71.3" cy="50.1" r="1.8"/>
	</g>
</g>
</svg>
