<?xml version="1.0" encoding="utf-8"?>
<!-- Generator: Adobe Illustrator 19.0.0, SVG Export Plug-In . SVG Version: 6.00 Build 0)  -->
<svg version="1.1" id="Capa_1" xmlns="http://www.w3.org/2000/svg" xmlns:xlink="http://www.w3.org/1999/xlink" x="0px" y="0px"
	 viewBox="0 0 524.4 300.5" style="enable-background:new 0 0 524.4 300.5;" xml:space="preserve">
<style type="text/css">
	.st0{fill:#F9D523;stroke:#E8A91C;stroke-width:2;stroke-miterlimit:10;}
	.st1{fill:none;stroke:#9E9E9E;stroke-miterlimit:10;}
	.st2{fill:none;stroke:#9E9E9E;stroke-miterlimit:10;stroke-dasharray:3.9935,2.9951;}
	.st3{fill:#252527;}
	.st4{fill:#E8A91C;}
	.st5{fill:#FFFFFF;}
	.st6{fill:none;stroke:#F9D523;stroke-width:2;stroke-linecap:round;stroke-miterlimit:10;}
	.st7{fill:#F9D523;}
</style>
<g id="XMLID_2_">
	<rect id="XMLID_18954_" x="12.7" y="22" class="st0" width="86.1" height="52.1"/>
	<ellipse id="XMLID_19450_" class="st0" cx="55.8" cy="262.9" rx="54.8" ry="24"/>
	<g id="XMLID_19460_">
		<g id="XMLID_13_">
			<line id="XMLID_16_" class="st1" x1="136.4" y1="0" x2="136.4" y2="2"/>
			<line id="XMLID_15_" class="st2" x1="136.4" y1="5" x2="136.4" y2="297"/>
			<line id="XMLID_14_" class="st1" x1="136.4" y1="298.5" x2="136.4" y2="300.5"/>
		</g>
	</g>
	<g id="XMLID_268_">
		<g id="XMLID_395_">
			<path id="XMLID_409_" class="st3" d="M31.8,50.4l1.5-0.2c0.1,0.5,0.3,0.9,0.6,1.1c0.3,0.2,0.7,0.4,1.2,0.4c0.5,0,0.9-0.1,1.2-0.3
				c0.3-0.2,0.4-0.5,0.4-0.8c0-0.2-0.1-0.3-0.2-0.5c-0.1-0.1-0.3-0.2-0.6-0.3c-0.2-0.1-0.6-0.2-1.3-0.3c-0.9-0.2-1.5-0.5-1.8-0.8
				c-0.5-0.4-0.7-1-0.7-1.6c0-0.4,0.1-0.8,0.3-1.1c0.2-0.3,0.6-0.6,1-0.8s0.9-0.3,1.5-0.3c1,0,1.7,0.2,2.2,0.6
				c0.5,0.4,0.8,1,0.8,1.7l-1.6,0.1c-0.1-0.4-0.2-0.7-0.4-0.9c-0.2-0.2-0.6-0.3-1-0.3c-0.5,0-0.8,0.1-1.1,0.3
				c-0.2,0.1-0.3,0.3-0.3,0.5c0,0.2,0.1,0.3,0.2,0.5c0.2,0.2,0.7,0.3,1.5,0.5s1.3,0.4,1.7,0.6c0.4,0.2,0.7,0.5,0.9,0.8
				c0.2,0.3,0.3,0.8,0.3,1.3c0,0.5-0.1,0.9-0.4,1.3s-0.6,0.7-1.1,0.9c-0.5,0.2-1,0.3-1.7,0.3c-1,0-1.8-0.2-2.3-0.7
				C32.2,51.9,31.9,51.3,31.8,50.4z"/>
			<path id="XMLID_407_" class="st3" d="M39.5,52.9v-7.9h1.6v7.9H39.5z"/>
			<path id="XMLID_405_" class="st3" d="M42.2,50.4l1.5-0.2c0.1,0.5,0.3,0.9,0.6,1.1c0.3,0.2,0.7,0.4,1.2,0.4c0.5,0,0.9-0.1,1.2-0.3
				c0.3-0.2,0.4-0.5,0.4-0.8c0-0.2-0.1-0.3-0.2-0.5c-0.1-0.1-0.3-0.2-0.6-0.3c-0.2-0.1-0.6-0.2-1.3-0.3c-0.9-0.2-1.5-0.5-1.8-0.8
				c-0.5-0.4-0.7-1-0.7-1.6c0-0.4,0.1-0.8,0.3-1.1c0.2-0.3,0.6-0.6,1-0.8s0.9-0.3,1.5-0.3c1,0,1.7,0.2,2.2,0.6
				c0.5,0.4,0.8,1,0.8,1.7l-1.6,0.1c-0.1-0.4-0.2-0.7-0.4-0.9c-0.2-0.2-0.6-0.3-1-0.3c-0.5,0-0.8,0.1-1.1,0.3
				C44.1,46.7,44,46.8,44,47c0,0.2,0.1,0.3,0.2,0.5c0.2,0.2,0.7,0.3,1.5,0.5s1.3,0.4,1.7,0.6c0.4,0.2,0.7,0.5,0.9,0.8
				c0.2,0.3,0.3,0.8,0.3,1.3c0,0.5-0.1,0.9-0.4,1.3s-0.6,0.7-1.1,0.9c-0.5,0.2-1,0.3-1.7,0.3c-1,0-1.8-0.2-2.3-0.7
				C42.6,51.9,42.3,51.3,42.2,50.4z"/>
			<path id="XMLID_403_" class="st3" d="M51.7,52.9v-6.5h-2.3v-1.3h6.3v1.3h-2.3v6.5H51.7z"/>
			<path id="XMLID_401_" class="st3" d="M56.6,52.9v-7.9h5.8v1.3h-4.2v1.7h4v1.3h-4v2.1h4.4v1.3H56.6z"/>
			<path id="XMLID_399_" class="st3" d="M64,52.9v-7.9h2.4l1.4,5.4l1.4-5.4h2.4v7.9h-1.5v-6.2l-1.6,6.2H67l-1.6-6.2v6.2H64z"/>
			<path id="XMLID_396_" class="st3" d="M80.2,52.9h-1.7l-0.7-1.8h-3.1L74,52.9h-1.7l3.1-7.9h1.7L80.2,52.9z M77.3,49.8l-1.1-2.9
				l-1.1,2.9H77.3z"/>
		</g>
	</g>
	<g id="XMLID_245_">
		<g id="XMLID_444_">
			<path id="XMLID_465_" class="st3" d="M23.1,265l1.5,0.5c-0.2,0.9-0.6,1.5-1.2,1.9c-0.5,0.4-1.2,0.6-2.1,0.6c-1,0-1.9-0.4-2.6-1.1
				c-0.7-0.7-1-1.7-1-2.9c0-1.3,0.3-2.3,1-3.1c0.7-0.7,1.6-1.1,2.7-1.1c1,0,1.7,0.3,2.3,0.9c0.4,0.3,0.6,0.8,0.8,1.5l-1.6,0.4
				c-0.1-0.4-0.3-0.7-0.6-1c-0.3-0.2-0.7-0.4-1.1-0.4c-0.6,0-1.1,0.2-1.4,0.6s-0.5,1.1-0.5,2c0,1,0.2,1.7,0.5,2.1
				c0.4,0.4,0.8,0.6,1.4,0.6c0.4,0,0.8-0.1,1.1-0.4C22.8,266,23,265.6,23.1,265z"/>
			<path id="XMLID_462_" class="st3" d="M33.2,267.9h-1.7l-0.7-1.8h-3.1l-0.6,1.8h-1.7l3.1-7.9H30L33.2,267.9z M30.2,264.8l-1.1-2.9
				l-1.1,2.9H30.2z"/>
			<path id="XMLID_460_" class="st3" d="M33.6,265.4l1.5-0.2c0.1,0.5,0.3,0.9,0.6,1.1c0.3,0.2,0.7,0.4,1.2,0.4
				c0.5,0,0.9-0.1,1.2-0.3s0.4-0.5,0.4-0.8c0-0.2-0.1-0.3-0.2-0.5s-0.3-0.2-0.6-0.3c-0.2-0.1-0.6-0.2-1.3-0.3
				c-0.9-0.2-1.5-0.5-1.8-0.8c-0.5-0.4-0.7-1-0.7-1.6c0-0.4,0.1-0.8,0.3-1.1c0.2-0.3,0.6-0.6,1-0.8s0.9-0.3,1.5-0.3
				c1,0,1.7,0.2,2.2,0.7c0.5,0.4,0.8,1,0.8,1.7l-1.6,0.1c-0.1-0.4-0.2-0.7-0.4-0.9c-0.2-0.2-0.6-0.3-1-0.3c-0.5,0-0.8,0.1-1.1,0.3
				c-0.2,0.1-0.3,0.3-0.3,0.5c0,0.2,0.1,0.3,0.2,0.5c0.2,0.2,0.7,0.3,1.5,0.5s1.3,0.4,1.7,0.6c0.4,0.2,0.7,0.5,0.9,0.8
				c0.2,0.3,0.3,0.8,0.3,1.3c0,0.5-0.1,0.9-0.4,1.3c-0.3,0.4-0.6,0.7-1.1,0.9c-0.5,0.2-1,0.3-1.7,0.3c-1,0-1.8-0.2-2.3-0.7
				S33.7,266.3,33.6,265.4z"/>
			<path id="XMLID_457_" class="st3" d="M41,264.1c0-0.8,0.1-1.5,0.4-2c0.2-0.4,0.4-0.8,0.7-1.1c0.3-0.3,0.6-0.6,1-0.7
				c0.5-0.2,1.1-0.3,1.7-0.3c1.2,0,2.1,0.4,2.8,1.1s1,1.7,1,3c0,1.3-0.3,2.3-1,3c-0.7,0.7-1.6,1.1-2.8,1.1c-1.2,0-2.1-0.4-2.8-1.1
				C41.4,266.3,41,265.3,41,264.1z M42.7,264c0,0.9,0.2,1.6,0.6,2c0.4,0.5,0.9,0.7,1.6,0.7c0.6,0,1.2-0.2,1.6-0.7
				c0.4-0.5,0.6-1.1,0.6-2.1c0-0.9-0.2-1.6-0.6-2c-0.4-0.4-0.9-0.7-1.6-0.7c-0.7,0-1.2,0.2-1.6,0.7S42.7,263.1,42.7,264z"/>
			<path id="XMLID_454_" class="st3" d="M52.9,260.1h2.9c0.7,0,1.2,0,1.5,0.2c0.5,0.1,0.9,0.4,1.2,0.7c0.3,0.3,0.6,0.8,0.8,1.3
				c0.2,0.5,0.3,1.1,0.3,1.9c0,0.6-0.1,1.2-0.2,1.7c-0.2,0.6-0.5,1-0.8,1.4c-0.3,0.3-0.6,0.5-1.1,0.6c-0.4,0.1-0.8,0.2-1.4,0.2h-3
				V260.1z M54.5,261.4v5.2h1.2c0.4,0,0.8,0,1-0.1c0.3-0.1,0.5-0.2,0.6-0.3c0.2-0.2,0.3-0.4,0.4-0.8c0.1-0.4,0.2-0.8,0.2-1.4
				c0-0.6-0.1-1.1-0.2-1.4c-0.1-0.3-0.3-0.6-0.5-0.8s-0.4-0.3-0.7-0.4c-0.2-0.1-0.7-0.1-1.3-0.1H54.5z"/>
			<path id="XMLID_452_" class="st3" d="M60.9,267.9v-7.9h5.8v1.3h-4.2v1.7h4v1.3h-4v2.1h4.4v1.3H60.9z"/>
			<path id="XMLID_450_" class="st3" d="M71.3,260.1h1.6v4.3c0,0.7,0,1.1,0.1,1.3c0.1,0.3,0.2,0.6,0.5,0.8s0.6,0.3,1,0.3
				c0.5,0,0.8-0.1,1-0.3c0.2-0.2,0.4-0.4,0.4-0.7c0-0.3,0.1-0.7,0.1-1.3v-4.4h1.6v4.1c0,0.9,0,1.6-0.1,2c-0.1,0.4-0.2,0.7-0.5,1
				c-0.2,0.3-0.5,0.5-0.9,0.6c-0.4,0.2-0.9,0.2-1.5,0.2c-0.8,0-1.3-0.1-1.7-0.3c-0.4-0.2-0.7-0.4-0.9-0.7c-0.2-0.3-0.4-0.6-0.4-0.9
				c-0.1-0.5-0.2-1.1-0.2-2V260.1z"/>
			<path id="XMLID_448_" class="st3" d="M78.8,265.4l1.5-0.2c0.1,0.5,0.3,0.9,0.6,1.1c0.3,0.2,0.7,0.4,1.2,0.4
				c0.5,0,0.9-0.1,1.2-0.3s0.4-0.5,0.4-0.8c0-0.2-0.1-0.3-0.2-0.5s-0.3-0.2-0.6-0.3c-0.2-0.1-0.6-0.2-1.3-0.3
				c-0.9-0.2-1.5-0.5-1.8-0.8c-0.5-0.4-0.7-1-0.7-1.6c0-0.4,0.1-0.8,0.3-1.1c0.2-0.3,0.6-0.6,1-0.8s0.9-0.3,1.5-0.3
				c1,0,1.7,0.2,2.2,0.7c0.5,0.4,0.8,1,0.8,1.7l-1.6,0.1c-0.1-0.4-0.2-0.7-0.4-0.9c-0.2-0.2-0.6-0.3-1-0.3c-0.5,0-0.8,0.1-1.1,0.3
				c-0.2,0.1-0.3,0.3-0.3,0.5c0,0.2,0.1,0.3,0.2,0.5c0.2,0.2,0.7,0.3,1.5,0.5s1.3,0.4,1.7,0.6c0.4,0.2,0.7,0.5,0.9,0.8
				c0.2,0.3,0.3,0.8,0.3,1.3c0,0.5-0.1,0.9-0.4,1.3c-0.3,0.4-0.6,0.7-1.1,0.9c-0.5,0.2-1,0.3-1.7,0.3c-1,0-1.8-0.2-2.3-0.7
				S78.9,266.3,78.8,265.4z"/>
			<path id="XMLID_445_" class="st3" d="M86.2,264.1c0-0.8,0.1-1.5,0.4-2c0.2-0.4,0.4-0.8,0.7-1.1c0.3-0.3,0.6-0.6,1-0.7
				c0.5-0.2,1.1-0.3,1.7-0.3c1.2,0,2.1,0.4,2.8,1.1s1,1.7,1,3c0,1.3-0.3,2.3-1,3c-0.7,0.7-1.6,1.1-2.8,1.1c-1.2,0-2.1-0.4-2.8-1.1
				C86.6,266.3,86.2,265.3,86.2,264.1z M87.9,264c0,0.9,0.2,1.6,0.6,2c0.4,0.5,0.9,0.7,1.6,0.7c0.6,0,1.2-0.2,1.6-0.7
				c0.4-0.5,0.6-1.1,0.6-2.1c0-0.9-0.2-1.6-0.6-2c-0.4-0.4-0.9-0.7-1.6-0.7c-0.7,0-1.2,0.2-1.6,0.7S87.9,263.1,87.9,264z"/>
		</g>
	</g>
	<g id="XMLID_16776_">
		<g id="XMLID_17987_">
			<g id="XMLID_18106_">
				<path id="XMLID_18150_" class="st4" d="M209.7,153.2l-11.9-16.1v-10.7h9.6c0.5,0,1-0.4,1-1s-0.4-1-1-1h-9.6v-8.1
					c0-0.5-0.4-1-1-1s-1,0.4-1,1v8.1h-9.6c-0.5,0-1,0.4-1,1s0.4,1,1,1h9.6v10.7l-12.1,16.1c-0.3,0.4-0.2,1,0.2,1.3
					c0.2,0.1,0.4,0.2,0.6,0.2c0.3,0,0.6-0.1,0.8-0.4l11.6-15.3l11.3,15.3c0.2,0.3,0.5,0.4,0.8,0.4c0.2,0,0.4-0.1,0.6-0.2
					C209.9,154.2,210,153.6,209.7,153.2z"/>
				<circle id="XMLID_18149_" class="st5" cx="196.8" cy="109.4" r="9.9"/>
				<path id="XMLID_18110_" class="st4" d="M196.8,119.9c-5.8,0-10.5-4.7-10.5-10.5s4.7-10.5,10.5-10.5c5.8,0,10.5,4.7,10.5,10.5
					S202.6,119.9,196.8,119.9z M196.8,100.2c-5.1,0-9.2,4.1-9.2,9.2c0,5.1,4.1,9.2,9.2,9.2c5.1,0,9.2-4.1,9.2-9.2
					C206,104.3,201.9,100.2,196.8,100.2z"/>
			</g>
			<g id="XMLID_18089_">
				<path id="XMLID_18105_" class="st4" d="M498.1,153.2l-11.9-16.1v-10.7h9.6c0.5,0,1-0.4,1-1s-0.4-1-1-1h-9.6v-8.1
					c0-0.5-0.4-1-1-1s-1,0.4-1,1v8.1h-9.6c-0.5,0-1,0.4-1,1s0.4,1,1,1h9.6v10.7l-12.1,16.1c-0.3,0.4-0.2,1,0.2,1.3
					c0.2,0.1,0.4,0.2,0.6,0.2c0.3,0,0.6-0.1,0.8-0.4l11.6-15.3l11.3,15.3c0.2,0.3,0.5,0.4,0.8,0.4c0.2,0,0.4-0.1,0.6-0.2
					C498.3,154.2,498.4,153.6,498.1,153.2z"/>
				<circle id="XMLID_18102_" class="st5" cx="485.2" cy="109.4" r="9.9"/>
				<path id="XMLID_18090_" class="st4" d="M485.2,119.9c-5.8,0-10.5-4.7-10.5-10.5s4.7-10.5,10.5-10.5c5.8,0,10.5,4.7,10.5,10.5
					S491,119.9,485.2,119.9z M485.2,100.2c-5.1,0-9.2,4.1-9.2,9.2c0,5.1,4.1,9.2,9.2,9.2c5.1,0,9.2-4.1,9.2-9.2
					C494.4,104.3,490.3,100.2,485.2,100.2z"/>
			</g>
		</g>
		<rect id="XMLID_17986_" x="257.6" y="58.3" class="st0" width="167.3" height="163"/>
		<g id="XMLID_230_">
			<path id="XMLID_231_" d="M190.1,175.4h-1.7l-0.7-1.8h-3.2l-0.7,1.8h-1.7l3.1-8h1.7L190.1,175.4z M187.1,172.2l-1.1-3l-1.1,3
				H187.1z"/>
			<path id="XMLID_234_" d="M195.9,171.3l-1.5,0.3c-0.1-0.3-0.2-0.5-0.3-0.7c-0.2-0.2-0.4-0.2-0.7-0.2c-0.4,0-0.7,0.1-0.9,0.4
				c-0.2,0.3-0.3,0.7-0.3,1.3c0,0.7,0.1,1.2,0.3,1.4c0.2,0.3,0.5,0.4,0.9,0.4c0.3,0,0.5-0.1,0.7-0.2c0.2-0.2,0.3-0.4,0.4-0.8
				l1.5,0.3c-0.2,0.7-0.5,1.2-0.9,1.6c-0.4,0.4-1,0.5-1.8,0.5c-0.8,0-1.5-0.3-2-0.8s-0.8-1.3-0.8-2.2c0-1,0.3-1.7,0.8-2.2
				c0.5-0.5,1.2-0.8,2-0.8c0.7,0,1.3,0.2,1.7,0.5S195.7,170.7,195.9,171.3z"/>
			<path id="XMLID_236_" d="M199.7,169.6v1.2h-1v2.3c0,0.5,0,0.7,0,0.8c0,0.1,0.1,0.1,0.1,0.2c0.1,0.1,0.2,0.1,0.3,0.1
				c0.1,0,0.3,0,0.6-0.1l0.1,1.2c-0.4,0.2-0.8,0.2-1.2,0.2c-0.3,0-0.5,0-0.7-0.1c-0.2-0.1-0.4-0.2-0.5-0.4c-0.1-0.1-0.2-0.3-0.2-0.6
				c0-0.2,0-0.5,0-1.1v-2.5h-0.7v-1.2h0.7v-1.1l1.5-0.9v2H199.7z"/>
			<path id="XMLID_238_" d="M200.4,172.4c0-0.5,0.1-1,0.4-1.5c0.3-0.5,0.6-0.8,1.1-1.1c0.5-0.2,1-0.4,1.5-0.4c0.9,0,1.6,0.3,2.1,0.8
				c0.6,0.6,0.8,1.3,0.8,2.1c0,0.9-0.3,1.6-0.8,2.2c-0.6,0.6-1.3,0.9-2.1,0.9c-0.5,0-1-0.1-1.5-0.4c-0.5-0.2-0.8-0.6-1.1-1
				C200.6,173.6,200.4,173.1,200.4,172.4z M202,172.5c0,0.6,0.1,1,0.4,1.3s0.6,0.5,1,0.5s0.7-0.2,1-0.5s0.4-0.7,0.4-1.3
				c0-0.6-0.1-1-0.4-1.3s-0.6-0.5-1-0.5s-0.7,0.2-1,0.5S202,171.9,202,172.5z"/>
			<path id="XMLID_241_" d="M209,175.4h-1.5v-5.8h1.4v0.8c0.2-0.4,0.5-0.6,0.7-0.8s0.4-0.2,0.7-0.2c0.3,0,0.7,0.1,1,0.3l-0.5,1.3
				c-0.3-0.2-0.5-0.2-0.7-0.2c-0.2,0-0.4,0.1-0.5,0.2c-0.1,0.1-0.3,0.3-0.4,0.6c-0.1,0.3-0.1,1-0.1,1.9V175.4z"/>
			<path id="XMLID_243_" d="M213.6,171.7h-0.9v-3.3c-0.3,0.3-0.7,0.5-1.1,0.7v-0.8c0.2-0.1,0.5-0.2,0.8-0.4c0.3-0.2,0.5-0.5,0.6-0.7
				h0.7V171.7z"/>
		</g>
		<g id="XMLID_191_">
			<path id="XMLID_192_" d="M285.1,81.7v-7.2h1.4l2.9,4.8v-4.8h1.3v7.2h-1.4l-2.9-4.7v4.7H285.1z"/>
			<path id="XMLID_194_" d="M292,78.2c0-0.7,0.1-1.3,0.3-1.8c0.2-0.4,0.4-0.7,0.7-1c0.3-0.3,0.6-0.5,0.9-0.6c0.4-0.2,1-0.3,1.5-0.3
				c1.1,0,1.9,0.3,2.5,1s0.9,1.6,0.9,2.7c0,1.2-0.3,2.1-0.9,2.7s-1.5,1-2.5,1c-1.1,0-1.9-0.3-2.5-1C292.3,80.2,292,79.3,292,78.2z
				 M293.5,78.1c0,0.8,0.2,1.4,0.6,1.8s0.8,0.6,1.4,0.6s1-0.2,1.4-0.6s0.6-1,0.6-1.9c0-0.8-0.2-1.4-0.5-1.8
				c-0.4-0.4-0.8-0.6-1.4-0.6s-1.1,0.2-1.4,0.6S293.5,77.3,293.5,78.1z"/>
			<path id="XMLID_197_" d="M300,81.7v-7.2h2.2l1.3,4.9l1.3-4.9h2.2v7.2h-1.3v-5.6l-1.4,5.6h-1.4l-1.4-5.6v5.6H300z"/>
			<path id="XMLID_199_" d="M308.4,74.6h2.9c0.6,0,1,0,1.3,0.1s0.5,0.1,0.7,0.3s0.4,0.3,0.5,0.6s0.2,0.5,0.2,0.8
				c0,0.3-0.1,0.6-0.3,0.9c-0.2,0.3-0.4,0.5-0.7,0.6c0.4,0.1,0.8,0.3,1,0.6c0.2,0.3,0.4,0.7,0.4,1.1c0,0.3-0.1,0.6-0.2,0.9
				s-0.4,0.6-0.6,0.7c-0.3,0.2-0.6,0.3-1,0.3c-0.2,0-0.8,0-1.7,0h-2.4V74.6z M309.8,75.7v1.7h0.9c0.6,0,0.9,0,1,0
				c0.2,0,0.4-0.1,0.6-0.3c0.1-0.1,0.2-0.3,0.2-0.6c0-0.2-0.1-0.4-0.2-0.5c-0.1-0.1-0.3-0.2-0.5-0.3c-0.1,0-0.6,0-1.2,0H309.8z
				 M309.8,78.6v1.9h1.3c0.5,0,0.9,0,1,0c0.2,0,0.4-0.1,0.5-0.3s0.2-0.4,0.2-0.6c0-0.2-0.1-0.4-0.2-0.5c-0.1-0.1-0.3-0.3-0.5-0.3
				c-0.2-0.1-0.6-0.1-1.3-0.1H309.8z"/>
			<path id="XMLID_203_" d="M315.6,81.7v-7.2h3c0.8,0,1.3,0.1,1.7,0.2c0.3,0.1,0.6,0.4,0.8,0.7c0.2,0.3,0.3,0.7,0.3,1.1
				c0,0.5-0.2,1-0.5,1.3s-0.8,0.6-1.4,0.7c0.3,0.2,0.6,0.4,0.8,0.6s0.5,0.6,0.8,1.2l0.9,1.4h-1.7l-1-1.6c-0.4-0.6-0.6-0.9-0.8-1.1
				c-0.1-0.1-0.3-0.2-0.4-0.3c-0.2-0.1-0.4-0.1-0.7-0.1H317v3H315.6z M317,77.6h1.1c0.7,0,1.1,0,1.3-0.1c0.2-0.1,0.3-0.2,0.4-0.3
				c0.1-0.1,0.1-0.3,0.1-0.5c0-0.2-0.1-0.4-0.2-0.6s-0.3-0.2-0.5-0.3c-0.1,0-0.5,0-1.1,0H317V77.6z"/>
			<path id="XMLID_206_" d="M322.8,81.7v-7.2h5.3v1.2h-3.9v1.6h3.6v1.2h-3.6v1.9h4v1.2H322.8z"/>
			<path id="XMLID_208_" d="M332.3,74.6h2.6c0.6,0,1,0,1.4,0.1c0.4,0.1,0.8,0.3,1.1,0.7c0.3,0.3,0.5,0.7,0.7,1.2s0.2,1,0.2,1.7
				c0,0.6-0.1,1.1-0.2,1.5c-0.2,0.5-0.4,0.9-0.8,1.3c-0.3,0.2-0.6,0.4-1,0.6c-0.3,0.1-0.7,0.2-1.3,0.2h-2.7V74.6z M333.7,75.8v4.7
				h1.1c0.4,0,0.7,0,0.9-0.1c0.2-0.1,0.4-0.2,0.6-0.3c0.2-0.1,0.3-0.4,0.4-0.7c0.1-0.3,0.1-0.8,0.1-1.3c0-0.6,0-1-0.1-1.3
				c-0.1-0.3-0.2-0.5-0.4-0.7c-0.2-0.2-0.4-0.3-0.7-0.3c-0.2,0-0.6-0.1-1.2-0.1H333.7z"/>
			<path id="XMLID_211_" d="M339.5,81.7v-7.2h5.3v1.2h-3.9v1.6h3.6v1.2h-3.6v1.9h4v1.2H339.5z"/>
			<path id="XMLID_213_" d="M346.2,81.7v-7.1h1.4v5.9h3.6v1.2H346.2z"/>
			<path id="XMLID_215_" d="M354.5,79.4l1.4-0.1c0.1,0.5,0.3,0.8,0.5,1c0.3,0.2,0.6,0.3,1,0.3c0.5,0,0.8-0.1,1.1-0.3
				c0.2-0.2,0.4-0.4,0.4-0.7c0-0.2,0-0.3-0.1-0.4c-0.1-0.1-0.3-0.2-0.5-0.3c-0.2-0.1-0.6-0.2-1.2-0.3c-0.8-0.2-1.3-0.4-1.6-0.7
				c-0.4-0.4-0.7-0.9-0.7-1.4c0-0.4,0.1-0.7,0.3-1c0.2-0.3,0.5-0.6,0.9-0.7c0.4-0.2,0.9-0.2,1.4-0.2c0.9,0,1.6,0.2,2,0.6
				s0.7,0.9,0.7,1.6l-1.4,0.1c-0.1-0.4-0.2-0.6-0.4-0.8c-0.2-0.2-0.5-0.2-0.9-0.2c-0.4,0-0.7,0.1-1,0.3c-0.2,0.1-0.2,0.3-0.2,0.4
				c0,0.2,0.1,0.3,0.2,0.4c0.2,0.2,0.6,0.3,1.3,0.5c0.7,0.2,1.2,0.3,1.6,0.5c0.3,0.2,0.6,0.4,0.8,0.7c0.2,0.3,0.3,0.7,0.3,1.1
				c0,0.4-0.1,0.8-0.3,1.2c-0.2,0.4-0.5,0.6-1,0.8c-0.4,0.2-0.9,0.3-1.6,0.3c-0.9,0-1.6-0.2-2.1-0.6
				C354.9,80.8,354.6,80.2,354.5,79.4z"/>
			<path id="XMLID_217_" d="M361.5,81.7v-7.2h1.4v7.2H361.5z"/>
			<path id="XMLID_219_" d="M363.9,79.4l1.4-0.1c0.1,0.5,0.3,0.8,0.5,1c0.3,0.2,0.6,0.3,1,0.3c0.5,0,0.8-0.1,1.1-0.3
				c0.2-0.2,0.4-0.4,0.4-0.7c0-0.2,0-0.3-0.1-0.4c-0.1-0.1-0.3-0.2-0.5-0.3c-0.2-0.1-0.6-0.2-1.2-0.3c-0.8-0.2-1.3-0.4-1.6-0.7
				c-0.4-0.4-0.7-0.9-0.7-1.4c0-0.4,0.1-0.7,0.3-1c0.2-0.3,0.5-0.6,0.9-0.7c0.4-0.2,0.9-0.2,1.4-0.2c0.9,0,1.6,0.2,2,0.6
				s0.7,0.9,0.7,1.6l-1.4,0.1c-0.1-0.4-0.2-0.6-0.4-0.8c-0.2-0.2-0.5-0.2-0.9-0.2c-0.4,0-0.7,0.1-1,0.3c-0.2,0.1-0.2,0.3-0.2,0.4
				c0,0.2,0.1,0.3,0.2,0.4c0.2,0.2,0.6,0.3,1.3,0.5c0.7,0.2,1.2,0.3,1.6,0.5c0.3,0.2,0.6,0.4,0.8,0.7c0.2,0.3,0.3,0.7,0.3,1.1
				c0,0.4-0.1,0.8-0.3,1.2c-0.2,0.4-0.5,0.6-1,0.8c-0.4,0.2-0.9,0.3-1.6,0.3c-0.9,0-1.6-0.2-2.1-0.6C364.3,80.8,364,80.2,363.9,79.4
				z"/>
			<path id="XMLID_221_" d="M372.6,81.7v-5.9h-2.1v-1.2h5.7v1.2H374v5.9H372.6z"/>
			<path id="XMLID_223_" d="M377.1,81.7v-7.2h5.3v1.2h-3.9v1.6h3.6v1.2h-3.6v1.9h4v1.2H377.1z"/>
			<path id="XMLID_225_" d="M383.7,81.7v-7.2h2.2l1.3,4.9l1.3-4.9h2.2v7.2h-1.3v-5.6l-1.4,5.6h-1.4l-1.4-5.6v5.6H383.7z"/>
			<path id="XMLID_227_" d="M398.5,81.7h-1.6l-0.6-1.6h-2.9l-0.6,1.6h-1.5l2.8-7.2h1.5L398.5,81.7z M395.8,78.9l-1-2.7l-1,2.7H395.8
				z"/>
		</g>
		<g id="XMLID_176_">
			<path id="XMLID_177_" d="M478.4,175.4h-1.7l-0.7-1.8h-3.2l-0.7,1.8h-1.7l3.1-8h1.7L478.4,175.4z M475.4,172.2l-1.1-3l-1.1,3
				H475.4z"/>
			<path id="XMLID_180_" d="M484.3,171.3l-1.5,0.3c-0.1-0.3-0.2-0.5-0.3-0.7c-0.2-0.2-0.4-0.2-0.7-0.2c-0.4,0-0.7,0.1-0.9,0.4
				c-0.2,0.3-0.3,0.7-0.3,1.3c0,0.7,0.1,1.2,0.3,1.4c0.2,0.3,0.5,0.4,0.9,0.4c0.3,0,0.5-0.1,0.7-0.2c0.2-0.2,0.3-0.4,0.4-0.8
				l1.5,0.3c-0.2,0.7-0.5,1.2-0.9,1.6c-0.4,0.4-1,0.5-1.8,0.5c-0.8,0-1.5-0.3-2-0.8s-0.8-1.3-0.8-2.2c0-1,0.3-1.7,0.8-2.2
				c0.5-0.5,1.2-0.8,2-0.8c0.7,0,1.3,0.2,1.7,0.5S484.1,170.7,484.3,171.3z"/>
			<path id="XMLID_182_" d="M488.1,169.6v1.2h-1v2.3c0,0.5,0,0.7,0,0.8c0,0.1,0.1,0.1,0.1,0.2c0.1,0.1,0.2,0.1,0.3,0.1
				c0.1,0,0.3,0,0.6-0.1l0.1,1.2c-0.4,0.2-0.8,0.2-1.2,0.2c-0.3,0-0.5,0-0.7-0.1c-0.2-0.1-0.4-0.2-0.5-0.4c-0.1-0.1-0.2-0.3-0.2-0.6
				c0-0.2,0-0.5,0-1.1v-2.5h-0.7v-1.2h0.7v-1.1l1.5-0.9v2H488.1z"/>
			<path id="XMLID_184_" d="M488.8,172.4c0-0.5,0.1-1,0.4-1.5c0.3-0.5,0.6-0.8,1.1-1.1c0.5-0.2,1-0.4,1.5-0.4c0.9,0,1.6,0.3,2.1,0.8
				c0.6,0.6,0.8,1.3,0.8,2.1c0,0.9-0.3,1.6-0.8,2.2c-0.6,0.6-1.3,0.9-2.1,0.9c-0.5,0-1-0.1-1.5-0.4c-0.5-0.2-0.8-0.6-1.1-1
				C488.9,173.6,488.8,173.1,488.8,172.4z M490.3,172.5c0,0.6,0.1,1,0.4,1.3s0.6,0.5,1,0.5s0.7-0.2,1-0.5s0.4-0.7,0.4-1.3
				c0-0.6-0.1-1-0.4-1.3s-0.6-0.5-1-0.5s-0.7,0.2-1,0.5S490.3,171.9,490.3,172.5z"/>
			<path id="XMLID_187_" d="M497.4,175.4h-1.5v-5.8h1.4v0.8c0.2-0.4,0.5-0.6,0.7-0.8s0.4-0.2,0.7-0.2c0.3,0,0.7,0.1,1,0.3l-0.5,1.3
				c-0.3-0.2-0.5-0.2-0.7-0.2c-0.2,0-0.4,0.1-0.5,0.2c-0.1,0.1-0.3,0.3-0.4,0.6c-0.1,0.3-0.1,1-0.1,1.9V175.4z"/>
			<path id="XMLID_189_" d="M502.9,171.7h-0.9V170c0-0.4,0-0.6-0.1-0.7s-0.1-0.2-0.2-0.2c-0.1-0.1-0.2-0.1-0.3-0.1
				c-0.2,0-0.3,0-0.4,0.1c-0.1,0.1-0.2,0.2-0.3,0.3c0,0.1-0.1,0.4-0.1,0.8v1.5h-0.9v-3.4h0.8v0.5c0.3-0.4,0.7-0.6,1.1-0.6
				c0.2,0,0.4,0,0.5,0.1c0.2,0.1,0.3,0.2,0.4,0.3c0.1,0.1,0.1,0.2,0.2,0.4c0,0.1,0,0.3,0,0.6V171.7z"/>
		</g>
		<g id="XMLID_145_">
			<path id="XMLID_146_" d="M454.5,209.4l1.6,0.5c-0.2,0.9-0.6,1.5-1.2,1.9c-0.6,0.4-1.3,0.6-2.1,0.6c-1.1,0-1.9-0.4-2.6-1.1
				c-0.7-0.7-1-1.7-1-3c0-1.3,0.3-2.4,1-3.1s1.6-1.1,2.7-1.1c1,0,1.8,0.3,2.4,0.9c0.4,0.3,0.6,0.8,0.8,1.5l-1.6,0.4
				c-0.1-0.4-0.3-0.7-0.6-1c-0.3-0.2-0.7-0.4-1.1-0.4c-0.6,0-1.1,0.2-1.4,0.6s-0.6,1.1-0.6,2.1c0,1,0.2,1.7,0.5,2.1
				c0.4,0.4,0.8,0.6,1.4,0.6c0.4,0,0.8-0.1,1.1-0.4C454.2,210.4,454.4,210,454.5,209.4z"/>
			<path id="XMLID_148_" d="M457.1,209.4c0-0.5,0.1-1,0.4-1.5c0.3-0.5,0.6-0.8,1.1-1.1c0.5-0.2,1-0.4,1.5-0.4c0.9,0,1.6,0.3,2.1,0.8
				c0.6,0.6,0.8,1.3,0.8,2.1c0,0.9-0.3,1.6-0.8,2.2c-0.6,0.6-1.3,0.9-2.1,0.9c-0.5,0-1-0.1-1.5-0.4c-0.5-0.2-0.8-0.6-1.1-1
				C457.2,210.6,457.1,210,457.1,209.4z M458.7,209.4c0,0.6,0.1,1,0.4,1.3s0.6,0.5,1,0.5s0.7-0.2,1-0.5s0.4-0.7,0.4-1.3
				c0-0.6-0.1-1-0.4-1.3s-0.6-0.5-1-0.5s-0.7,0.2-1,0.5S458.7,208.9,458.7,209.4z"/>
			<path id="XMLID_151_" d="M464.1,206.6h1.4v0.8c0.5-0.6,1.1-0.9,1.8-0.9c0.4,0,0.7,0.1,1,0.2c0.3,0.2,0.5,0.4,0.7,0.7
				c0.3-0.3,0.5-0.5,0.8-0.7c0.3-0.2,0.6-0.2,0.9-0.2c0.4,0,0.8,0.1,1.1,0.3s0.5,0.4,0.7,0.8c0.1,0.2,0.2,0.6,0.2,1.2v3.7h-1.5V209
				c0-0.6-0.1-0.9-0.2-1.1c-0.1-0.2-0.4-0.3-0.7-0.3c-0.2,0-0.4,0.1-0.6,0.2c-0.2,0.1-0.3,0.3-0.4,0.6c-0.1,0.3-0.1,0.6-0.1,1.2v2.8
				h-1.5v-3.2c0-0.6,0-0.9-0.1-1.1c-0.1-0.2-0.1-0.3-0.3-0.4c-0.1-0.1-0.3-0.1-0.5-0.1c-0.2,0-0.4,0.1-0.6,0.2
				c-0.2,0.1-0.3,0.3-0.4,0.5c-0.1,0.2-0.1,0.6-0.1,1.2v2.8h-1.5V206.6z"/>
			<path id="XMLID_153_" d="M477.9,212.3v-0.9c-0.2,0.3-0.5,0.5-0.8,0.7s-0.7,0.3-1.1,0.3c-0.4,0-0.7-0.1-1-0.3s-0.5-0.4-0.7-0.7
				s-0.2-0.7-0.2-1.3v-3.6h1.5v2.6c0,0.8,0,1.3,0.1,1.5c0.1,0.2,0.2,0.3,0.3,0.4s0.3,0.2,0.6,0.2c0.3,0,0.5-0.1,0.7-0.2
				c0.2-0.1,0.3-0.3,0.4-0.5c0.1-0.2,0.1-0.7,0.1-1.6v-2.4h1.5v5.8H477.9z"/>
			<path id="XMLID_155_" d="M486.1,212.3h-1.5v-2.9c0-0.6,0-1-0.1-1.2s-0.2-0.3-0.3-0.4c-0.1-0.1-0.3-0.2-0.5-0.2
				c-0.3,0-0.5,0.1-0.7,0.2c-0.2,0.1-0.4,0.3-0.4,0.6c-0.1,0.2-0.1,0.7-0.1,1.3v2.6h-1.5v-5.8h1.4v0.8c0.5-0.7,1.1-1,1.9-1
				c0.3,0,0.6,0.1,0.9,0.2s0.5,0.3,0.6,0.5c0.1,0.2,0.2,0.4,0.3,0.6c0.1,0.2,0.1,0.6,0.1,1V212.3z"/>
			<path id="XMLID_157_" d="M487.7,205.8v-1.4h1.5v1.4H487.7z M487.7,212.3v-5.8h1.5v5.8H487.7z"/>
			<path id="XMLID_160_" d="M495.8,208.3l-1.5,0.3c-0.1-0.3-0.2-0.5-0.3-0.7c-0.2-0.2-0.4-0.2-0.7-0.2c-0.4,0-0.7,0.1-0.9,0.4
				c-0.2,0.3-0.3,0.7-0.3,1.3c0,0.7,0.1,1.2,0.3,1.4c0.2,0.3,0.5,0.4,0.9,0.4c0.3,0,0.5-0.1,0.7-0.2c0.2-0.2,0.3-0.4,0.4-0.8
				l1.5,0.3c-0.2,0.7-0.5,1.2-0.9,1.6c-0.4,0.4-1,0.5-1.8,0.5c-0.8,0-1.5-0.3-2-0.8s-0.8-1.3-0.8-2.2c0-1,0.3-1.7,0.8-2.2
				c0.5-0.5,1.2-0.8,2-0.8c0.7,0,1.3,0.2,1.7,0.5S495.6,207.6,495.8,208.3z"/>
			<path id="XMLID_162_" d="M498.1,208.3l-1.4-0.3c0.2-0.6,0.4-1,0.8-1.2c0.4-0.3,0.9-0.4,1.7-0.4c0.7,0,1.2,0.1,1.5,0.2
				c0.3,0.2,0.6,0.4,0.7,0.6c0.1,0.2,0.2,0.7,0.2,1.4l0,1.8c0,0.5,0,0.9,0.1,1.1c0,0.2,0.1,0.5,0.3,0.8h-1.5c0-0.1-0.1-0.3-0.1-0.5
				c0-0.1,0-0.2-0.1-0.2c-0.3,0.3-0.5,0.4-0.8,0.6c-0.3,0.1-0.6,0.2-0.9,0.2c-0.6,0-1.1-0.2-1.4-0.5c-0.3-0.3-0.5-0.7-0.5-1.2
				c0-0.3,0.1-0.6,0.2-0.9s0.4-0.5,0.7-0.6c0.3-0.1,0.7-0.3,1.2-0.4c0.7-0.1,1.2-0.3,1.5-0.4v-0.2c0-0.3-0.1-0.5-0.2-0.6
				c-0.1-0.1-0.4-0.2-0.8-0.2c-0.3,0-0.5,0.1-0.6,0.2C498.3,207.9,498.2,208.1,498.1,208.3z M500.1,209.6c-0.2,0.1-0.5,0.1-0.9,0.2
				c-0.4,0.1-0.7,0.2-0.8,0.3c-0.2,0.1-0.3,0.3-0.3,0.5c0,0.2,0.1,0.4,0.2,0.6s0.4,0.2,0.6,0.2c0.3,0,0.5-0.1,0.8-0.3
				c0.2-0.1,0.3-0.3,0.4-0.5c0-0.1,0.1-0.4,0.1-0.7V209.6z"/>
			<path id="XMLID_165_" d="M508.1,208.3l-1.5,0.3c-0.1-0.3-0.2-0.5-0.3-0.7c-0.2-0.2-0.4-0.2-0.7-0.2c-0.4,0-0.7,0.1-0.9,0.4
				c-0.2,0.3-0.3,0.7-0.3,1.3c0,0.7,0.1,1.2,0.3,1.4c0.2,0.3,0.5,0.4,0.9,0.4c0.3,0,0.5-0.1,0.7-0.2c0.2-0.2,0.3-0.4,0.4-0.8
				l1.5,0.3c-0.2,0.7-0.5,1.2-0.9,1.6c-0.4,0.4-1,0.5-1.8,0.5c-0.8,0-1.5-0.3-2-0.8s-0.8-1.3-0.8-2.2c0-1,0.3-1.7,0.8-2.2
				c0.5-0.5,1.2-0.8,2-0.8c0.7,0,1.3,0.2,1.7,0.5S508,207.6,508.1,208.3z"/>
			<path id="XMLID_167_" d="M509.3,205.8v-1.4h1.5v1.4H509.3z M509.3,212.3v-5.8h1.5v5.8H509.3z"/>
			<path id="XMLID_170_" d="M512,209.4c0-0.5,0.1-1,0.4-1.5c0.3-0.5,0.6-0.8,1.1-1.1c0.5-0.2,1-0.4,1.5-0.4c0.9,0,1.6,0.3,2.1,0.8
				c0.6,0.6,0.8,1.3,0.8,2.1c0,0.9-0.3,1.6-0.8,2.2c-0.6,0.6-1.3,0.9-2.1,0.9c-0.5,0-1-0.1-1.5-0.4c-0.5-0.2-0.8-0.6-1.1-1
				C512.2,210.6,512,210,512,209.4z M513.6,209.4c0,0.6,0.1,1,0.4,1.3s0.6,0.5,1,0.5s0.7-0.2,1-0.5s0.4-0.7,0.4-1.3
				c0-0.6-0.1-1-0.4-1.3s-0.6-0.5-1-0.5s-0.7,0.2-1,0.5S513.6,208.9,513.6,209.4z M514.2,205.9l0.7-1.6h1.7l-1.5,1.6H514.2z"/>
			<path id="XMLID_174_" d="M524.4,212.3h-1.5v-2.9c0-0.6,0-1-0.1-1.2s-0.2-0.3-0.3-0.4c-0.1-0.1-0.3-0.2-0.5-0.2
				c-0.3,0-0.5,0.1-0.7,0.2c-0.2,0.1-0.4,0.3-0.4,0.6c-0.1,0.2-0.1,0.7-0.1,1.3v2.6h-1.5v-5.8h1.4v0.8c0.5-0.7,1.1-1,1.9-1
				c0.3,0,0.6,0.1,0.9,0.2s0.5,0.3,0.6,0.5c0.1,0.2,0.2,0.4,0.3,0.6c0.1,0.2,0.1,0.6,0.1,1V212.3z"/>
		</g>
		<g id="XMLID_103_">
			<path id="XMLID_104_" d="M466.4,73.5v-8h5.9v1.3H468v1.8h4V70h-4v2.2h4.4v1.3H466.4z"/>
			<path id="XMLID_106_" d="M479.1,73.5h-1.5v-2.9c0-0.6,0-1-0.1-1.2s-0.2-0.3-0.3-0.4c-0.1-0.1-0.3-0.2-0.5-0.2
				c-0.3,0-0.5,0.1-0.7,0.2c-0.2,0.1-0.4,0.3-0.4,0.6c-0.1,0.2-0.1,0.7-0.1,1.3v2.6h-1.5v-5.8h1.4v0.8c0.5-0.7,1.1-1,1.9-1
				c0.3,0,0.6,0.1,0.9,0.2s0.5,0.3,0.6,0.5c0.1,0.2,0.2,0.4,0.3,0.6c0.1,0.2,0.1,0.6,0.1,1V73.5z"/>
			<path id="XMLID_108_" d="M483.3,67.8V69h-1v2.3c0,0.5,0,0.7,0,0.8c0,0.1,0.1,0.1,0.1,0.2c0.1,0.1,0.2,0.1,0.3,0.1
				c0.1,0,0.3,0,0.6-0.1l0.1,1.2c-0.4,0.2-0.8,0.2-1.2,0.2c-0.3,0-0.5,0-0.7-0.1c-0.2-0.1-0.4-0.2-0.5-0.4c-0.1-0.1-0.2-0.3-0.2-0.6
				c0-0.2,0-0.5,0-1.1V69H480v-1.2h0.7v-1.1l1.5-0.9v2H483.3z"/>
			<path id="XMLID_110_" d="M484,70.6c0-0.5,0.1-1,0.4-1.5c0.3-0.5,0.6-0.8,1.1-1.1c0.5-0.2,1-0.4,1.5-0.4c0.9,0,1.6,0.3,2.1,0.8
				c0.6,0.6,0.8,1.3,0.8,2.1c0,0.9-0.3,1.6-0.8,2.2c-0.6,0.6-1.3,0.9-2.1,0.9c-0.5,0-1-0.1-1.5-0.4c-0.5-0.2-0.8-0.6-1.1-1
				C484.1,71.8,484,71.2,484,70.6z M485.5,70.7c0,0.6,0.1,1,0.4,1.3s0.6,0.5,1,0.5s0.7-0.2,1-0.5s0.4-0.7,0.4-1.3
				c0-0.6-0.1-1-0.4-1.3s-0.6-0.5-1-0.5s-0.7,0.2-1,0.5S485.5,70.1,485.5,70.7z"/>
			<path id="XMLID_113_" d="M492.5,73.5H491v-5.8h1.4v0.8c0.2-0.4,0.5-0.6,0.7-0.8s0.4-0.2,0.7-0.2c0.3,0,0.7,0.1,1,0.3l-0.5,1.3
				c-0.3-0.2-0.5-0.2-0.7-0.2c-0.2,0-0.4,0.1-0.5,0.2c-0.1,0.1-0.3,0.3-0.4,0.6c-0.1,0.3-0.1,1-0.1,1.9V73.5z"/>
			<path id="XMLID_115_" d="M500.7,73.5h-1.5v-2.9c0-0.6,0-1-0.1-1.2s-0.2-0.3-0.3-0.4c-0.1-0.1-0.3-0.2-0.5-0.2
				c-0.3,0-0.5,0.1-0.7,0.2c-0.2,0.1-0.4,0.3-0.4,0.6c-0.1,0.2-0.1,0.7-0.1,1.3v2.6h-1.5v-5.8h1.4v0.8c0.5-0.7,1.1-1,1.9-1
				c0.3,0,0.6,0.1,0.9,0.2s0.5,0.3,0.6,0.5c0.1,0.2,0.2,0.4,0.3,0.6c0.1,0.2,0.1,0.6,0.1,1V73.5z"/>
			<path id="XMLID_117_" d="M501.8,70.6c0-0.5,0.1-1,0.4-1.5c0.3-0.5,0.6-0.8,1.1-1.1c0.5-0.2,1-0.4,1.5-0.4c0.9,0,1.6,0.3,2.1,0.8
				c0.6,0.6,0.8,1.3,0.8,2.1c0,0.9-0.3,1.6-0.8,2.2c-0.6,0.6-1.3,0.9-2.1,0.9c-0.5,0-1-0.1-1.5-0.4c-0.5-0.2-0.8-0.6-1.1-1
				C502,71.8,501.8,71.2,501.8,70.6z M503.4,70.7c0,0.6,0.1,1,0.4,1.3s0.6,0.5,1,0.5s0.7-0.2,1-0.5s0.4-0.7,0.4-1.3
				c0-0.6-0.1-1-0.4-1.3s-0.6-0.5-1-0.5s-0.7,0.2-1,0.5S503.4,70.1,503.4,70.7z"/>
			<path id="XMLID_120_" d="M464.3,82.4h-1.4v-0.8c-0.2,0.3-0.5,0.6-0.8,0.7s-0.6,0.2-1,0.2c-0.7,0-1.2-0.3-1.7-0.8
				s-0.7-1.3-0.7-2.2c0-1,0.2-1.7,0.7-2.2c0.5-0.5,1-0.8,1.7-0.8c0.6,0,1.2,0.3,1.7,0.8v-2.9h1.5V82.4z M460.2,79.4
				c0,0.6,0.1,1.1,0.3,1.3c0.2,0.4,0.6,0.6,1,0.6c0.4,0,0.6-0.1,0.9-0.4c0.2-0.3,0.4-0.7,0.4-1.3c0-0.7-0.1-1.1-0.4-1.4
				c-0.2-0.3-0.5-0.4-0.9-0.4c-0.4,0-0.7,0.1-0.9,0.4C460.3,78.4,460.2,78.8,460.2,79.4z"/>
			<path id="XMLID_123_" d="M469.1,80.6l1.5,0.3c-0.2,0.6-0.5,1-0.9,1.3c-0.4,0.3-0.9,0.4-1.6,0.4c-1,0-1.7-0.3-2.2-1
				c-0.4-0.5-0.6-1.2-0.6-2c0-1,0.2-1.7,0.7-2.2c0.5-0.5,1.1-0.8,1.9-0.8c0.9,0,1.5,0.3,2,0.8c0.5,0.6,0.7,1.4,0.7,2.6h-3.8
				c0,0.5,0.1,0.8,0.4,1.1c0.2,0.3,0.5,0.4,0.9,0.4c0.2,0,0.4-0.1,0.6-0.2C468.9,81.1,469,80.9,469.1,80.6z M469.2,79
				c0-0.4-0.1-0.8-0.3-1s-0.5-0.3-0.8-0.3c-0.3,0-0.6,0.1-0.8,0.4c-0.2,0.2-0.3,0.6-0.3,1H469.2z"/>
			<path id="XMLID_126_" d="M472,82.4v-8h1.5v8H472z"/>
			<path id="XMLID_128_" d="M477.6,80.8l1.5-0.2c0.1,0.3,0.2,0.5,0.4,0.7c0.2,0.2,0.5,0.2,0.8,0.2c0.4,0,0.7-0.1,0.9-0.2
				c0.1-0.1,0.2-0.2,0.2-0.4c0-0.1,0-0.2-0.1-0.3c-0.1-0.1-0.2-0.1-0.5-0.2c-1.2-0.3-2-0.5-2.3-0.7c-0.5-0.3-0.7-0.7-0.7-1.3
				c0-0.5,0.2-0.9,0.6-1.3c0.4-0.3,1-0.5,1.8-0.5c0.8,0,1.4,0.1,1.8,0.4c0.4,0.3,0.6,0.6,0.8,1.1l-1.4,0.3c-0.1-0.2-0.2-0.4-0.4-0.5
				c-0.2-0.1-0.4-0.2-0.7-0.2c-0.4,0-0.7,0.1-0.9,0.2c-0.1,0.1-0.2,0.2-0.2,0.3c0,0.1,0.1,0.2,0.2,0.3c0.1,0.1,0.6,0.2,1.4,0.4
				c0.8,0.2,1.4,0.4,1.7,0.7c0.3,0.3,0.5,0.6,0.5,1.1c0,0.5-0.2,1-0.7,1.4c-0.4,0.4-1.1,0.6-2,0.6c-0.8,0-1.4-0.2-1.9-0.5
				C478,81.8,477.7,81.3,477.6,80.8z"/>
			<path id="XMLID_130_" d="M484.3,75.9v-1.4h1.5v1.4H484.3z M484.3,82.4v-5.8h1.5v5.8H484.3z"/>
			<path id="XMLID_133_" d="M486.9,80.8l1.5-0.2c0.1,0.3,0.2,0.5,0.4,0.7c0.2,0.2,0.5,0.2,0.8,0.2c0.4,0,0.7-0.1,0.9-0.2
				c0.1-0.1,0.2-0.2,0.2-0.4c0-0.1,0-0.2-0.1-0.3c-0.1-0.1-0.2-0.1-0.5-0.2c-1.2-0.3-2-0.5-2.3-0.7c-0.5-0.3-0.7-0.7-0.7-1.3
				c0-0.5,0.2-0.9,0.6-1.3c0.4-0.3,1-0.5,1.8-0.5c0.8,0,1.4,0.1,1.8,0.4c0.4,0.3,0.6,0.6,0.8,1.1l-1.4,0.3c-0.1-0.2-0.2-0.4-0.4-0.5
				c-0.2-0.1-0.4-0.2-0.7-0.2c-0.4,0-0.7,0.1-0.9,0.2c-0.1,0.1-0.2,0.2-0.2,0.3c0,0.1,0.1,0.2,0.2,0.3c0.1,0.1,0.6,0.2,1.4,0.4
				c0.8,0.2,1.4,0.4,1.7,0.7c0.3,0.3,0.5,0.6,0.5,1.1c0,0.5-0.2,1-0.7,1.4c-0.4,0.4-1.1,0.6-2,0.6c-0.8,0-1.4-0.2-1.9-0.5
				C487.3,81.8,487,81.3,486.9,80.8z"/>
			<path id="XMLID_135_" d="M496.2,76.7v1.2h-1v2.3c0,0.5,0,0.7,0,0.8c0,0.1,0.1,0.1,0.1,0.2c0.1,0.1,0.2,0.1,0.3,0.1
				c0.1,0,0.3,0,0.6-0.1l0.1,1.2c-0.4,0.2-0.8,0.2-1.2,0.2c-0.3,0-0.5,0-0.7-0.1c-0.2-0.1-0.4-0.2-0.5-0.4c-0.1-0.1-0.2-0.3-0.2-0.6
				c0-0.2,0-0.5,0-1.1v-2.5h-0.7v-1.2h0.7v-1.1l1.5-0.9v2H496.2z"/>
			<path id="XMLID_137_" d="M500.6,80.6l1.5,0.3c-0.2,0.6-0.5,1-0.9,1.3c-0.4,0.3-0.9,0.4-1.6,0.4c-1,0-1.7-0.3-2.2-1
				c-0.4-0.5-0.6-1.2-0.6-2c0-1,0.2-1.7,0.7-2.2c0.5-0.5,1.1-0.8,1.9-0.8c0.9,0,1.5,0.3,2,0.8c0.5,0.6,0.7,1.4,0.7,2.6h-3.8
				c0,0.5,0.1,0.8,0.4,1.1c0.2,0.3,0.5,0.4,0.9,0.4c0.2,0,0.4-0.1,0.6-0.2C500.4,81.1,500.5,80.9,500.6,80.6z M500.7,79
				c0-0.4-0.1-0.8-0.3-1s-0.5-0.3-0.8-0.3c-0.3,0-0.6,0.1-0.8,0.4c-0.2,0.2-0.3,0.6-0.3,1H500.7z"/>
			<path id="XMLID_140_" d="M503.3,76.7h1.4v0.8c0.5-0.6,1.1-0.9,1.8-0.9c0.4,0,0.7,0.1,1,0.2c0.3,0.2,0.5,0.4,0.7,0.7
				c0.3-0.3,0.5-0.5,0.8-0.7c0.3-0.2,0.6-0.2,0.9-0.2c0.4,0,0.8,0.1,1.1,0.3s0.5,0.4,0.7,0.8c0.1,0.2,0.2,0.6,0.2,1.2v3.7h-1.5v-3.3
				c0-0.6-0.1-0.9-0.2-1.1c-0.1-0.2-0.4-0.3-0.7-0.3c-0.2,0-0.4,0.1-0.6,0.2c-0.2,0.1-0.3,0.3-0.4,0.6c-0.1,0.3-0.1,0.6-0.1,1.2v2.8
				h-1.5v-3.2c0-0.6,0-0.9-0.1-1.1c-0.1-0.2-0.1-0.3-0.3-0.4c-0.1-0.1-0.3-0.1-0.5-0.1c-0.2,0-0.4,0.1-0.6,0.2
				c-0.2,0.1-0.3,0.3-0.4,0.5c-0.1,0.2-0.1,0.6-0.1,1.2v2.8h-1.5V76.7z"/>
			<path id="XMLID_142_" d="M514.5,78.4l-1.4-0.3c0.2-0.6,0.4-1,0.8-1.2c0.4-0.3,0.9-0.4,1.7-0.4c0.7,0,1.2,0.1,1.5,0.2
				c0.3,0.2,0.6,0.4,0.7,0.6c0.1,0.2,0.2,0.7,0.2,1.4l0,1.8c0,0.5,0,0.9,0.1,1.1c0,0.2,0.1,0.5,0.3,0.8h-1.5c0-0.1-0.1-0.3-0.1-0.5
				c0-0.1,0-0.2-0.1-0.2c-0.3,0.3-0.5,0.4-0.8,0.6c-0.3,0.1-0.6,0.2-0.9,0.2c-0.6,0-1.1-0.2-1.4-0.5c-0.3-0.3-0.5-0.7-0.5-1.2
				c0-0.3,0.1-0.6,0.2-0.9s0.4-0.5,0.7-0.6c0.3-0.1,0.7-0.3,1.2-0.4c0.7-0.1,1.2-0.3,1.5-0.4v-0.2c0-0.3-0.1-0.5-0.2-0.6
				c-0.1-0.1-0.4-0.2-0.8-0.2c-0.3,0-0.5,0.1-0.6,0.2C514.7,78,514.5,78.2,514.5,78.4z M516.5,79.7c-0.2,0.1-0.5,0.1-0.9,0.2
				c-0.4,0.1-0.7,0.2-0.8,0.3c-0.2,0.1-0.3,0.3-0.3,0.5c0,0.2,0.1,0.4,0.2,0.6s0.4,0.2,0.6,0.2c0.3,0,0.5-0.1,0.8-0.3
				c0.2-0.1,0.3-0.3,0.4-0.5c0-0.1,0.1-0.4,0.1-0.7V79.7z"/>
		</g>
		<path id="XMLID_17970_" d="M315.3,106.3l-101.1,18.3c-0.4,0.1-0.8-0.2-0.9-0.6l-0.1-0.5c-0.1-0.4,0.2-0.8,0.6-0.9L315,104.2
			c0.4-0.1,0.8,0.2,0.9,0.6l0.1,0.5C316,105.8,315.8,106.2,315.3,106.3z"/>
		<path id="XMLID_17969_" d="M463.3,136.7L362.2,155c-0.4,0.1-0.8-0.2-0.9-0.6l-0.1-0.5c-0.1-0.4,0.2-0.8,0.6-0.9l101.1-18.3
			c0.4-0.1,0.8,0.2,0.9,0.6l0.1,0.5C464,136.2,463.7,136.6,463.3,136.7z"/>
		<path id="XMLID_17962_" d="M463.3,178.2l-101.1,18.3c-0.4,0.1-0.8-0.2-0.9-0.6l-0.1-0.5c-0.1-0.4,0.2-0.8,0.6-0.9l101.1-18.3
			c0.4-0.1,0.8,0.2,0.9,0.6l0.1,0.5C464,177.7,463.7,178.1,463.3,178.2z"/>
		<path id="XMLID_17959_" d="M315.3,153.3L214.2,135c-0.4-0.1-0.8,0.2-0.9,0.6l-0.1,0.5c-0.1,0.4,0.2,0.8,0.6,0.9L315,155.3
			c0.4,0.1,0.8-0.2,0.9-0.6l0.1-0.5C316,153.7,315.8,153.3,315.3,153.3z"/>
		<ellipse id="XMLID_17958_" cx="341.1" cy="109.4" rx="52.2" ry="13.9"/>
		<g id="XMLID_77_">
			<path id="XMLID_78_" class="st5" d="M314.8,110.3l1.3,0.4c-0.2,0.7-0.5,1.3-1,1.6s-1,0.5-1.8,0.5c-0.9,0-1.6-0.3-2.2-0.9
				c-0.6-0.6-0.8-1.4-0.8-2.5c0-1.1,0.3-2,0.9-2.6c0.6-0.6,1.3-0.9,2.2-0.9c0.8,0,1.5,0.2,2,0.7c0.3,0.3,0.5,0.7,0.7,1.2l-1.3,0.3
				c-0.1-0.3-0.2-0.6-0.5-0.8c-0.2-0.2-0.5-0.3-0.9-0.3c-0.5,0-0.9,0.2-1.2,0.5c-0.3,0.4-0.5,0.9-0.5,1.7c0,0.8,0.2,1.4,0.5,1.8
				c0.3,0.4,0.7,0.5,1.2,0.5c0.4,0,0.7-0.1,0.9-0.3S314.7,110.8,314.8,110.3z"/>
			<path id="XMLID_80_" class="st5" d="M318.2,109.4l-1.2-0.2c0.1-0.5,0.4-0.8,0.7-1c0.3-0.2,0.8-0.3,1.4-0.3c0.6,0,1,0.1,1.3,0.2
				c0.3,0.1,0.5,0.3,0.6,0.5s0.2,0.6,0.2,1.1l0,1.5c0,0.4,0,0.7,0.1,0.9c0,0.2,0.1,0.4,0.2,0.6h-1.3c0-0.1-0.1-0.2-0.1-0.4
				c0-0.1,0-0.1,0-0.1c-0.2,0.2-0.4,0.4-0.7,0.5c-0.2,0.1-0.5,0.2-0.8,0.2c-0.5,0-0.9-0.1-1.2-0.4s-0.4-0.6-0.4-1
				c0-0.3,0.1-0.5,0.2-0.7c0.1-0.2,0.3-0.4,0.5-0.5s0.6-0.2,1-0.3c0.6-0.1,1-0.2,1.2-0.3v-0.1c0-0.2-0.1-0.4-0.2-0.5
				s-0.3-0.2-0.7-0.2c-0.2,0-0.4,0-0.5,0.1C318.4,109,318.3,109.2,318.2,109.4z M319.9,110.5c-0.2,0.1-0.4,0.1-0.8,0.2
				c-0.4,0.1-0.6,0.1-0.7,0.2c-0.2,0.1-0.2,0.3-0.2,0.4c0,0.2,0.1,0.3,0.2,0.5c0.1,0.1,0.3,0.2,0.5,0.2c0.2,0,0.4-0.1,0.7-0.2
				c0.2-0.1,0.3-0.3,0.3-0.4c0-0.1,0-0.3,0-0.6V110.5z"/>
			<path id="XMLID_83_" class="st5" d="M321.9,111.4l1.3-0.2c0.1,0.2,0.2,0.4,0.3,0.6c0.2,0.1,0.4,0.2,0.7,0.2
				c0.3,0,0.6-0.1,0.7-0.2c0.1-0.1,0.2-0.2,0.2-0.3c0-0.1,0-0.2-0.1-0.2c-0.1-0.1-0.2-0.1-0.4-0.2c-1-0.2-1.7-0.4-1.9-0.6
				c-0.4-0.3-0.6-0.6-0.6-1.1c0-0.4,0.2-0.8,0.5-1c0.3-0.3,0.8-0.4,1.5-0.4c0.7,0,1.1,0.1,1.5,0.3c0.3,0.2,0.5,0.5,0.7,0.9l-1.2,0.2
				c-0.1-0.2-0.1-0.3-0.3-0.4c-0.1-0.1-0.3-0.1-0.6-0.1c-0.3,0-0.6,0-0.7,0.1c-0.1,0.1-0.1,0.2-0.1,0.3c0,0.1,0,0.2,0.1,0.2
				c0.1,0.1,0.5,0.2,1.2,0.4s1.1,0.3,1.4,0.6c0.3,0.2,0.4,0.5,0.4,0.9c0,0.4-0.2,0.8-0.6,1.1c-0.4,0.3-0.9,0.5-1.6,0.5
				c-0.7,0-1.2-0.1-1.5-0.4C322.3,112.2,322.1,111.8,321.9,111.4z"/>
			<path id="XMLID_85_" class="st5" d="M327.2,110.3c0-0.4,0.1-0.8,0.3-1.2c0.2-0.4,0.5-0.7,0.9-0.9c0.4-0.2,0.8-0.3,1.3-0.3
				c0.7,0,1.3,0.2,1.8,0.7c0.5,0.5,0.7,1.1,0.7,1.8c0,0.7-0.2,1.3-0.7,1.8c-0.5,0.5-1.1,0.7-1.8,0.7c-0.4,0-0.9-0.1-1.3-0.3
				s-0.7-0.5-0.9-0.9C327.3,111.3,327.2,110.8,327.2,110.3z M328.5,110.4c0,0.5,0.1,0.8,0.3,1.1c0.2,0.3,0.5,0.4,0.8,0.4
				s0.6-0.1,0.8-0.4c0.2-0.3,0.3-0.6,0.3-1.1c0-0.5-0.1-0.8-0.3-1.1c-0.2-0.3-0.5-0.4-0.8-0.4s-0.6,0.1-0.8,0.4
				C328.6,109.5,328.5,109.9,328.5,110.4z"/>
			<path id="XMLID_88_" class="st5" d="M340.1,112.8H339V112c-0.2,0.3-0.4,0.5-0.7,0.6c-0.3,0.1-0.5,0.2-0.8,0.2
				c-0.6,0-1-0.2-1.4-0.7c-0.4-0.4-0.6-1.1-0.6-1.9c0-0.8,0.2-1.4,0.6-1.9c0.4-0.4,0.9-0.6,1.4-0.6c0.5,0,1,0.2,1.4,0.7v-2.4h1.3
				V112.8z M336.8,110.3c0,0.5,0.1,0.9,0.2,1.1c0.2,0.3,0.5,0.5,0.9,0.5c0.3,0,0.5-0.1,0.7-0.4c0.2-0.2,0.3-0.6,0.3-1.1
				c0-0.6-0.1-0.9-0.3-1.2c-0.2-0.2-0.5-0.4-0.8-0.4c-0.3,0-0.6,0.1-0.8,0.4S336.8,109.8,336.8,110.3z"/>
			<path id="XMLID_91_" class="st5" d="M344.2,111.2l1.3,0.2c-0.2,0.5-0.4,0.8-0.8,1.1s-0.8,0.4-1.3,0.4c-0.8,0-1.5-0.3-1.9-0.8
				c-0.3-0.4-0.5-1-0.5-1.7c0-0.8,0.2-1.4,0.6-1.9s0.9-0.7,1.6-0.7c0.7,0,1.3,0.2,1.7,0.7c0.4,0.5,0.6,1.2,0.6,2.2h-3.2
				c0,0.4,0.1,0.7,0.3,0.9c0.2,0.2,0.4,0.3,0.7,0.3c0.2,0,0.4-0.1,0.5-0.2C344,111.6,344.1,111.5,344.2,111.2z M344.2,109.9
				c0-0.4-0.1-0.6-0.3-0.8c-0.2-0.2-0.4-0.3-0.7-0.3c-0.3,0-0.5,0.1-0.7,0.3c-0.2,0.2-0.3,0.5-0.3,0.8H344.2z"/>
			<path id="XMLID_94_" class="st5" d="M352.3,112.8V112c-0.2,0.3-0.4,0.5-0.7,0.6s-0.6,0.2-0.9,0.2c-0.3,0-0.6-0.1-0.9-0.2
				s-0.4-0.3-0.6-0.6s-0.2-0.6-0.2-1.1v-3h1.3v2.2c0,0.7,0,1.1,0.1,1.2s0.1,0.3,0.3,0.4s0.3,0.1,0.5,0.1c0.2,0,0.4-0.1,0.6-0.2
				c0.2-0.1,0.3-0.3,0.4-0.4c0.1-0.2,0.1-0.6,0.1-1.3v-2h1.3v4.8H352.3z"/>
			<path id="XMLID_96_" class="st5" d="M354.3,111.4l1.3-0.2c0.1,0.2,0.2,0.4,0.3,0.6c0.2,0.1,0.4,0.2,0.7,0.2
				c0.3,0,0.6-0.1,0.7-0.2c0.1-0.1,0.2-0.2,0.2-0.3c0-0.1,0-0.2-0.1-0.2c-0.1-0.1-0.2-0.1-0.4-0.2c-1-0.2-1.7-0.4-1.9-0.6
				c-0.4-0.3-0.6-0.6-0.6-1.1c0-0.4,0.2-0.8,0.5-1c0.3-0.3,0.8-0.4,1.5-0.4c0.7,0,1.1,0.1,1.5,0.3c0.3,0.2,0.5,0.5,0.7,0.9l-1.2,0.2
				c-0.1-0.2-0.1-0.3-0.3-0.4c-0.1-0.1-0.3-0.1-0.6-0.1c-0.3,0-0.6,0-0.7,0.1c-0.1,0.1-0.1,0.2-0.1,0.3c0,0.1,0,0.2,0.1,0.2
				c0.1,0.1,0.5,0.2,1.2,0.4s1.1,0.3,1.4,0.6c0.3,0.2,0.4,0.5,0.4,0.9c0,0.4-0.2,0.8-0.6,1.1c-0.4,0.3-0.9,0.5-1.6,0.5
				c-0.7,0-1.2-0.1-1.5-0.4C354.7,112.2,354.4,111.8,354.3,111.4z"/>
			<path id="XMLID_98_" class="st5" d="M359.6,110.3c0-0.4,0.1-0.8,0.3-1.2c0.2-0.4,0.5-0.7,0.9-0.9c0.4-0.2,0.8-0.3,1.3-0.3
				c0.7,0,1.3,0.2,1.8,0.7c0.5,0.5,0.7,1.1,0.7,1.8c0,0.7-0.2,1.3-0.7,1.8c-0.5,0.5-1.1,0.7-1.8,0.7c-0.4,0-0.9-0.1-1.3-0.3
				s-0.7-0.5-0.9-0.9C359.7,111.3,359.6,110.8,359.6,110.3z M360.9,110.4c0,0.5,0.1,0.8,0.3,1.1c0.2,0.3,0.5,0.4,0.8,0.4
				s0.6-0.1,0.8-0.4c0.2-0.3,0.3-0.6,0.3-1.1c0-0.5-0.1-0.8-0.3-1.1c-0.2-0.3-0.5-0.4-0.8-0.4s-0.6,0.1-0.8,0.4
				C361,109.5,360.9,109.9,360.9,110.4z"/>
			<path id="XMLID_101_" class="st5" d="M371.1,112.8h-1.3V108c-0.5,0.4-1,0.8-1.6,1v-1.2c0.3-0.1,0.7-0.3,1.1-0.6
				c0.4-0.3,0.7-0.7,0.8-1.1h1V112.8z"/>
		</g>
		<ellipse id="XMLID_17954_" cx="341.1" cy="150.1" rx="52.2" ry="13.9"/>
		<g id="XMLID_51_">
			<path id="XMLID_52_" class="st5" d="M314.8,151.1l1.3,0.4c-0.2,0.7-0.5,1.3-1,1.6s-1,0.5-1.8,0.5c-0.9,0-1.6-0.3-2.2-0.9
				c-0.6-0.6-0.8-1.4-0.8-2.5c0-1.1,0.3-2,0.9-2.6c0.6-0.6,1.3-0.9,2.2-0.9c0.8,0,1.5,0.2,2,0.7c0.3,0.3,0.5,0.7,0.7,1.2l-1.3,0.3
				c-0.1-0.3-0.2-0.6-0.5-0.8c-0.2-0.2-0.5-0.3-0.9-0.3c-0.5,0-0.9,0.2-1.2,0.5c-0.3,0.4-0.5,0.9-0.5,1.7c0,0.8,0.2,1.4,0.5,1.8
				c0.3,0.4,0.7,0.5,1.2,0.5c0.4,0,0.7-0.1,0.9-0.3S314.7,151.5,314.8,151.1z"/>
			<path id="XMLID_54_" class="st5" d="M318.2,150.2L317,150c0.1-0.5,0.4-0.8,0.7-1c0.3-0.2,0.8-0.3,1.4-0.3c0.6,0,1,0.1,1.3,0.2
				c0.3,0.1,0.5,0.3,0.6,0.5s0.2,0.6,0.2,1.1l0,1.5c0,0.4,0,0.7,0.1,0.9c0,0.2,0.1,0.4,0.2,0.6h-1.3c0-0.1-0.1-0.2-0.1-0.4
				c0-0.1,0-0.1,0-0.1c-0.2,0.2-0.4,0.4-0.7,0.5c-0.2,0.1-0.5,0.2-0.8,0.2c-0.5,0-0.9-0.1-1.2-0.4s-0.4-0.6-0.4-1
				c0-0.3,0.1-0.5,0.2-0.7c0.1-0.2,0.3-0.4,0.5-0.5s0.6-0.2,1-0.3c0.6-0.1,1-0.2,1.2-0.3v-0.1c0-0.2-0.1-0.4-0.2-0.5
				s-0.3-0.2-0.7-0.2c-0.2,0-0.4,0-0.5,0.1C318.4,149.8,318.3,149.9,318.2,150.2z M319.9,151.2c-0.2,0.1-0.4,0.1-0.8,0.2
				c-0.4,0.1-0.6,0.1-0.7,0.2c-0.2,0.1-0.2,0.3-0.2,0.4c0,0.2,0.1,0.3,0.2,0.5c0.1,0.1,0.3,0.2,0.5,0.2c0.2,0,0.4-0.1,0.7-0.2
				c0.2-0.1,0.3-0.3,0.3-0.4c0-0.1,0-0.3,0-0.6V151.2z"/>
			<path id="XMLID_57_" class="st5" d="M321.9,152.1l1.3-0.2c0.1,0.2,0.2,0.4,0.3,0.6c0.2,0.1,0.4,0.2,0.7,0.2
				c0.3,0,0.6-0.1,0.7-0.2c0.1-0.1,0.2-0.2,0.2-0.3c0-0.1,0-0.2-0.1-0.2c-0.1-0.1-0.2-0.1-0.4-0.2c-1-0.2-1.7-0.4-1.9-0.6
				c-0.4-0.3-0.6-0.6-0.6-1.1c0-0.4,0.2-0.8,0.5-1c0.3-0.3,0.8-0.4,1.5-0.4c0.7,0,1.1,0.1,1.5,0.3c0.3,0.2,0.5,0.5,0.7,0.9l-1.2,0.2
				c-0.1-0.2-0.1-0.3-0.3-0.4c-0.1-0.1-0.3-0.1-0.6-0.1c-0.3,0-0.6,0-0.7,0.1c-0.1,0.1-0.1,0.2-0.1,0.3c0,0.1,0,0.2,0.1,0.2
				c0.1,0.1,0.5,0.2,1.2,0.4s1.1,0.3,1.4,0.6c0.3,0.2,0.4,0.5,0.4,0.9c0,0.4-0.2,0.8-0.6,1.1c-0.4,0.3-0.9,0.5-1.6,0.5
				c-0.7,0-1.2-0.1-1.5-0.4C322.3,152.9,322.1,152.6,321.9,152.1z"/>
			<path id="XMLID_59_" class="st5" d="M327.2,151c0-0.4,0.1-0.8,0.3-1.2c0.2-0.4,0.5-0.7,0.9-0.9c0.4-0.2,0.8-0.3,1.3-0.3
				c0.7,0,1.3,0.2,1.8,0.7c0.5,0.5,0.7,1.1,0.7,1.8c0,0.7-0.2,1.3-0.7,1.8c-0.5,0.5-1.1,0.7-1.8,0.7c-0.4,0-0.9-0.1-1.3-0.3
				s-0.7-0.5-0.9-0.9C327.3,152,327.2,151.6,327.2,151z M328.5,151.1c0,0.5,0.1,0.8,0.3,1.1c0.2,0.3,0.5,0.4,0.8,0.4
				s0.6-0.1,0.8-0.4c0.2-0.3,0.3-0.6,0.3-1.1c0-0.5-0.1-0.8-0.3-1.1c-0.2-0.3-0.5-0.4-0.8-0.4s-0.6,0.1-0.8,0.4
				C328.6,150.3,328.5,150.6,328.5,151.1z"/>
			<path id="XMLID_62_" class="st5" d="M340.1,153.5H339v-0.7c-0.2,0.3-0.4,0.5-0.7,0.6c-0.3,0.1-0.5,0.2-0.8,0.2
				c-0.6,0-1-0.2-1.4-0.7c-0.4-0.4-0.6-1.1-0.6-1.9c0-0.8,0.2-1.4,0.6-1.9c0.4-0.4,0.9-0.6,1.4-0.6c0.5,0,1,0.2,1.4,0.7v-2.4h1.3
				V153.5z M336.8,151c0,0.5,0.1,0.9,0.2,1.1c0.2,0.3,0.5,0.5,0.9,0.5c0.3,0,0.5-0.1,0.7-0.4c0.2-0.2,0.3-0.6,0.3-1.1
				c0-0.6-0.1-0.9-0.3-1.2c-0.2-0.2-0.5-0.4-0.8-0.4c-0.3,0-0.6,0.1-0.8,0.4S336.8,150.5,336.8,151z"/>
			<path id="XMLID_65_" class="st5" d="M344.2,152l1.3,0.2c-0.2,0.5-0.4,0.8-0.8,1.1s-0.8,0.4-1.3,0.4c-0.8,0-1.5-0.3-1.9-0.8
				c-0.3-0.4-0.5-1-0.5-1.7c0-0.8,0.2-1.4,0.6-1.9s0.9-0.7,1.6-0.7c0.7,0,1.3,0.2,1.7,0.7c0.4,0.5,0.6,1.2,0.6,2.2h-3.2
				c0,0.4,0.1,0.7,0.3,0.9c0.2,0.2,0.4,0.3,0.7,0.3c0.2,0,0.4-0.1,0.5-0.2C344,152.4,344.1,152.2,344.2,152z M344.2,150.7
				c0-0.4-0.1-0.6-0.3-0.8c-0.2-0.2-0.4-0.3-0.7-0.3c-0.3,0-0.5,0.1-0.7,0.3c-0.2,0.2-0.3,0.5-0.3,0.8H344.2z"/>
			<path id="XMLID_68_" class="st5" d="M352.3,153.5v-0.7c-0.2,0.3-0.4,0.5-0.7,0.6s-0.6,0.2-0.9,0.2c-0.3,0-0.6-0.1-0.9-0.2
				s-0.4-0.3-0.6-0.6s-0.2-0.6-0.2-1.1v-3h1.3v2.2c0,0.7,0,1.1,0.1,1.2s0.1,0.3,0.3,0.4s0.3,0.1,0.5,0.1c0.2,0,0.4-0.1,0.6-0.2
				c0.2-0.1,0.3-0.3,0.4-0.4c0.1-0.2,0.1-0.6,0.1-1.3v-2h1.3v4.8H352.3z"/>
			<path id="XMLID_70_" class="st5" d="M354.3,152.1l1.3-0.2c0.1,0.2,0.2,0.4,0.3,0.6c0.2,0.1,0.4,0.2,0.7,0.2
				c0.3,0,0.6-0.1,0.7-0.2c0.1-0.1,0.2-0.2,0.2-0.3c0-0.1,0-0.2-0.1-0.2c-0.1-0.1-0.2-0.1-0.4-0.2c-1-0.2-1.7-0.4-1.9-0.6
				c-0.4-0.3-0.6-0.6-0.6-1.1c0-0.4,0.2-0.8,0.5-1c0.3-0.3,0.8-0.4,1.5-0.4c0.7,0,1.1,0.1,1.5,0.3c0.3,0.2,0.5,0.5,0.7,0.9l-1.2,0.2
				c-0.1-0.2-0.1-0.3-0.3-0.4c-0.1-0.1-0.3-0.1-0.6-0.1c-0.3,0-0.6,0-0.7,0.1c-0.1,0.1-0.1,0.2-0.1,0.3c0,0.1,0,0.2,0.1,0.2
				c0.1,0.1,0.5,0.2,1.2,0.4s1.1,0.3,1.4,0.6c0.3,0.2,0.4,0.5,0.4,0.9c0,0.4-0.2,0.8-0.6,1.1c-0.4,0.3-0.9,0.5-1.6,0.5
				c-0.7,0-1.2-0.1-1.5-0.4C354.7,152.9,354.4,152.6,354.3,152.1z"/>
			<path id="XMLID_72_" class="st5" d="M359.6,151c0-0.4,0.1-0.8,0.3-1.2c0.2-0.4,0.5-0.7,0.9-0.9c0.4-0.2,0.8-0.3,1.3-0.3
				c0.7,0,1.3,0.2,1.8,0.7c0.5,0.5,0.7,1.1,0.7,1.8c0,0.7-0.2,1.3-0.7,1.8c-0.5,0.5-1.1,0.7-1.8,0.7c-0.4,0-0.9-0.1-1.3-0.3
				s-0.7-0.5-0.9-0.9C359.7,152,359.6,151.6,359.6,151z M360.9,151.1c0,0.5,0.1,0.8,0.3,1.1c0.2,0.3,0.5,0.4,0.8,0.4
				s0.6-0.1,0.8-0.4c0.2-0.3,0.3-0.6,0.3-1.1c0-0.5-0.1-0.8-0.3-1.1c-0.2-0.3-0.5-0.4-0.8-0.4s-0.6,0.1-0.8,0.4
				C361,150.3,360.9,150.6,360.9,151.1z"/>
			<path id="XMLID_75_" class="st5" d="M372.1,152.3v1.2h-4.4c0-0.4,0.2-0.9,0.4-1.3c0.2-0.4,0.7-0.9,1.4-1.6
				c0.6-0.5,0.9-0.9,1.1-1.1c0.2-0.3,0.3-0.5,0.3-0.8c0-0.3-0.1-0.5-0.2-0.7c-0.2-0.2-0.4-0.2-0.6-0.2c-0.3,0-0.5,0.1-0.6,0.2
				c-0.2,0.2-0.2,0.4-0.3,0.8l-1.3-0.1c0.1-0.7,0.3-1.2,0.7-1.5s0.9-0.5,1.5-0.5c0.7,0,1.2,0.2,1.5,0.5c0.4,0.4,0.6,0.8,0.6,1.3
				c0,0.3-0.1,0.6-0.2,0.9s-0.3,0.6-0.5,0.8c-0.2,0.2-0.4,0.5-0.8,0.8c-0.4,0.4-0.7,0.6-0.8,0.7c-0.1,0.1-0.2,0.2-0.3,0.4H372.1z"/>
		</g>
		<ellipse id="XMLID_17950_" cx="341.1" cy="190.9" rx="52.2" ry="13.9"/>
		<g id="XMLID_3_">
			<path id="XMLID_4_" class="st5" d="M316.1,191.8l1.3,0.4c-0.2,0.7-0.5,1.3-1,1.6s-1,0.5-1.8,0.5c-0.9,0-1.6-0.3-2.2-0.9
				c-0.6-0.6-0.8-1.4-0.8-2.5c0-1.1,0.3-2,0.9-2.6c0.6-0.6,1.3-0.9,2.2-0.9c0.8,0,1.5,0.2,2,0.7c0.3,0.3,0.5,0.7,0.7,1.2l-1.3,0.3
				c-0.1-0.3-0.2-0.6-0.5-0.8c-0.2-0.2-0.5-0.3-0.9-0.3c-0.5,0-0.9,0.2-1.2,0.5c-0.3,0.4-0.5,0.9-0.5,1.7c0,0.8,0.2,1.4,0.5,1.8
				c0.3,0.4,0.7,0.5,1.2,0.5c0.4,0,0.7-0.1,0.9-0.3S316,192.3,316.1,191.8z"/>
			<path id="XMLID_6_" class="st5" d="M319.5,190.9l-1.2-0.2c0.1-0.5,0.4-0.8,0.7-1c0.3-0.2,0.8-0.3,1.4-0.3c0.6,0,1,0.1,1.3,0.2
				c0.3,0.1,0.5,0.3,0.6,0.5s0.2,0.6,0.2,1.1l0,1.5c0,0.4,0,0.7,0.1,0.9c0,0.2,0.1,0.4,0.2,0.6h-1.3c0-0.1-0.1-0.2-0.1-0.4
				c0-0.1,0-0.1,0-0.1c-0.2,0.2-0.4,0.4-0.7,0.5c-0.2,0.1-0.5,0.2-0.8,0.2c-0.5,0-0.9-0.1-1.2-0.4s-0.4-0.6-0.4-1
				c0-0.3,0.1-0.5,0.2-0.7c0.1-0.2,0.3-0.4,0.5-0.5s0.6-0.2,1-0.3c0.6-0.1,1-0.2,1.2-0.3V191c0-0.2-0.1-0.4-0.2-0.5
				s-0.3-0.2-0.7-0.2c-0.2,0-0.4,0-0.5,0.1C319.7,190.5,319.6,190.7,319.5,190.9z M321.2,191.9c-0.2,0.1-0.4,0.1-0.8,0.2
				c-0.4,0.1-0.6,0.1-0.7,0.2c-0.2,0.1-0.2,0.3-0.2,0.4c0,0.2,0.1,0.3,0.2,0.5c0.1,0.1,0.3,0.2,0.5,0.2c0.2,0,0.4-0.1,0.7-0.2
				c0.2-0.1,0.3-0.3,0.3-0.4c0-0.1,0-0.3,0-0.6V191.9z"/>
			<path id="XMLID_9_" class="st5" d="M323.2,192.9l1.3-0.2c0.1,0.2,0.2,0.4,0.3,0.6c0.2,0.1,0.4,0.2,0.7,0.2c0.3,0,0.6-0.1,0.7-0.2
				c0.1-0.1,0.2-0.2,0.2-0.3c0-0.1,0-0.2-0.1-0.2c-0.1-0.1-0.2-0.1-0.4-0.2c-1-0.2-1.7-0.4-1.9-0.6c-0.4-0.3-0.6-0.6-0.6-1.1
				c0-0.4,0.2-0.8,0.5-1c0.3-0.3,0.8-0.4,1.5-0.4c0.7,0,1.1,0.1,1.5,0.3c0.3,0.2,0.5,0.5,0.7,0.9l-1.2,0.2c-0.1-0.2-0.1-0.3-0.3-0.4
				c-0.1-0.1-0.3-0.1-0.6-0.1c-0.3,0-0.6,0-0.7,0.1c-0.1,0.1-0.1,0.2-0.1,0.3c0,0.1,0,0.2,0.1,0.2c0.1,0.1,0.5,0.2,1.2,0.4
				s1.1,0.3,1.4,0.6c0.3,0.2,0.4,0.5,0.4,0.9c0,0.4-0.2,0.8-0.6,1.1c-0.4,0.3-0.9,0.5-1.6,0.5c-0.7,0-1.2-0.1-1.5-0.4
				C323.6,193.7,323.3,193.3,323.2,192.9z"/>
			<path id="XMLID_11_" class="st5" d="M328.5,191.8c0-0.4,0.1-0.8,0.3-1.2c0.2-0.4,0.5-0.7,0.9-0.9c0.4-0.2,0.8-0.3,1.3-0.3
				c0.7,0,1.3,0.2,1.8,0.7c0.5,0.5,0.7,1.1,0.7,1.8c0,0.7-0.2,1.3-0.7,1.8c-0.5,0.5-1.1,0.7-1.8,0.7c-0.4,0-0.9-0.1-1.3-0.3
				s-0.7-0.5-0.9-0.9C328.6,192.8,328.5,192.3,328.5,191.8z M329.8,191.8c0,0.5,0.1,0.8,0.3,1.1c0.2,0.3,0.5,0.4,0.8,0.4
				s0.6-0.1,0.8-0.4c0.2-0.3,0.3-0.6,0.3-1.1c0-0.5-0.1-0.8-0.3-1.1c-0.2-0.3-0.5-0.4-0.8-0.4s-0.6,0.1-0.8,0.4
				C329.9,191,329.8,191.4,329.8,191.8z"/>
			<path id="XMLID_21_" class="st5" d="M341.4,194.2h-1.2v-0.7c-0.2,0.3-0.4,0.5-0.7,0.6c-0.3,0.1-0.5,0.2-0.8,0.2
				c-0.6,0-1-0.2-1.4-0.7c-0.4-0.4-0.6-1.1-0.6-1.9c0-0.8,0.2-1.4,0.6-1.9c0.4-0.4,0.9-0.6,1.4-0.6c0.5,0,1,0.2,1.4,0.7v-2.4h1.3
				V194.2z M338,191.7c0,0.5,0.1,0.9,0.2,1.1c0.2,0.3,0.5,0.5,0.9,0.5c0.3,0,0.5-0.1,0.7-0.4c0.2-0.2,0.3-0.6,0.3-1.1
				c0-0.6-0.1-0.9-0.3-1.2c-0.2-0.2-0.5-0.4-0.8-0.4c-0.3,0-0.6,0.1-0.8,0.4S338,191.3,338,191.7z"/>
			<path id="XMLID_38_" class="st5" d="M345.5,192.7l1.3,0.2c-0.2,0.5-0.4,0.8-0.8,1.1s-0.8,0.4-1.3,0.4c-0.8,0-1.5-0.3-1.9-0.8
				c-0.3-0.4-0.5-1-0.5-1.7c0-0.8,0.2-1.4,0.6-1.9s0.9-0.7,1.6-0.7c0.7,0,1.3,0.2,1.7,0.7c0.4,0.5,0.6,1.2,0.6,2.2h-3.2
				c0,0.4,0.1,0.7,0.3,0.9c0.2,0.2,0.4,0.3,0.7,0.3c0.2,0,0.4-0.1,0.5-0.2C345.3,193.1,345.4,192.9,345.5,192.7z M345.5,191.4
				c0-0.4-0.1-0.6-0.3-0.8c-0.2-0.2-0.4-0.3-0.7-0.3c-0.3,0-0.5,0.1-0.7,0.3c-0.2,0.2-0.3,0.5-0.3,0.8H345.5z"/>
			<path id="XMLID_41_" class="st5" d="M353.5,194.2v-0.7c-0.2,0.3-0.4,0.5-0.7,0.6s-0.6,0.2-0.9,0.2c-0.3,0-0.6-0.1-0.9-0.2
				s-0.4-0.3-0.6-0.6s-0.2-0.6-0.2-1.1v-3h1.3v2.2c0,0.7,0,1.1,0.1,1.2s0.1,0.3,0.3,0.4s0.3,0.1,0.5,0.1c0.2,0,0.4-0.1,0.6-0.2
				c0.2-0.1,0.3-0.3,0.4-0.4c0.1-0.2,0.1-0.6,0.1-1.3v-2h1.3v4.8H353.5z"/>
			<path id="XMLID_43_" class="st5" d="M355.6,192.9l1.3-0.2c0.1,0.2,0.2,0.4,0.3,0.6c0.2,0.1,0.4,0.2,0.7,0.2
				c0.3,0,0.6-0.1,0.7-0.2c0.1-0.1,0.2-0.2,0.2-0.3c0-0.1,0-0.2-0.1-0.2c-0.1-0.1-0.2-0.1-0.4-0.2c-1-0.2-1.7-0.4-1.9-0.6
				c-0.4-0.3-0.6-0.6-0.6-1.1c0-0.4,0.2-0.8,0.5-1c0.3-0.3,0.8-0.4,1.5-0.4c0.7,0,1.1,0.1,1.5,0.3c0.3,0.2,0.5,0.5,0.7,0.9l-1.2,0.2
				c-0.1-0.2-0.1-0.3-0.3-0.4c-0.1-0.1-0.3-0.1-0.6-0.1c-0.3,0-0.6,0-0.7,0.1c-0.1,0.1-0.1,0.2-0.1,0.3c0,0.1,0,0.2,0.1,0.2
				c0.1,0.1,0.5,0.2,1.2,0.4s1.1,0.3,1.4,0.6c0.3,0.2,0.4,0.5,0.4,0.9c0,0.4-0.2,0.8-0.6,1.1c-0.4,0.3-0.9,0.5-1.6,0.5
				c-0.7,0-1.2-0.1-1.5-0.4C356,193.7,355.7,193.3,355.6,192.9z"/>
			<path id="XMLID_45_" class="st5" d="M360.9,191.8c0-0.4,0.1-0.8,0.3-1.2c0.2-0.4,0.5-0.7,0.9-0.9c0.4-0.2,0.8-0.3,1.3-0.3
				c0.7,0,1.3,0.2,1.8,0.7c0.5,0.5,0.7,1.1,0.7,1.8c0,0.7-0.2,1.3-0.7,1.8c-0.5,0.5-1.1,0.7-1.8,0.7c-0.4,0-0.9-0.1-1.3-0.3
				s-0.7-0.5-0.9-0.9C361,192.8,360.9,192.3,360.9,191.8z M362.2,191.8c0,0.5,0.1,0.8,0.3,1.1c0.2,0.3,0.5,0.4,0.8,0.4
				s0.6-0.1,0.8-0.4c0.2-0.3,0.3-0.6,0.3-1.1c0-0.5-0.1-0.8-0.3-1.1c-0.2-0.3-0.5-0.4-0.8-0.4s-0.6,0.1-0.8,0.4
				C362.3,191,362.2,191.4,362.2,191.8z"/>
			<path id="XMLID_48_" class="st5" d="M369.4,188.8v-1.2h1.3v1.2H369.4z M369.4,194.2v-4.8h1.3v4.8H369.4z"/>
		</g>
		<g id="XMLID_17650_">
			<line id="XMLID_31_" class="st5" x1="473.4" y1="87.3" x2="432.7" y2="94.4"/>
			<g id="XMLID_27_">
				<line id="XMLID_30_" class="st6" x1="473.4" y1="87.3" x2="443.1" y2="92.6"/>
				<g id="XMLID_28_">
					<polygon id="XMLID_29_" class="st7" points="432.7,94.4 446.3,85.8 443.9,92.4 448.4,97.8 					"/>
				</g>
			</g>
		</g>
		<g id="XMLID_16777_">
			<line id="XMLID_36_" class="st5" x1="473.4" y1="197.2" x2="432.7" y2="190.1"/>
			<g id="XMLID_25_">
				<line id="XMLID_35_" class="st6" x1="473.4" y1="197.2" x2="443.1" y2="191.9"/>
				<g id="XMLID_33_">
					<polygon id="XMLID_34_" class="st7" points="432.7,190.1 448.4,186.6 443.9,192 446.3,198.7 					"/>
				</g>
			</g>
		</g>
	</g>
	<g id="XMLID_17944_">
		<path id="XMLID_18155_" class="st4" d="M75.4,202.9l-19.2-26v-17.3h15.4c0.9,0,1.5-0.7,1.5-1.5s-0.7-1.5-1.5-1.5H56.2v-13.1
			c0-0.9-0.7-1.5-1.5-1.5c-0.9,0-1.5,0.7-1.5,1.5v13.1H37.7c-0.9,0-1.5,0.7-1.5,1.5s0.7,1.5,1.5,1.5h15.4v17.3l-19.6,26
			c-0.5,0.7-0.4,1.6,0.3,2.2c0.3,0.2,0.6,0.3,0.9,0.3c0.5,0,0.9-0.2,1.2-0.6L54.7,180l18.3,24.7c0.3,0.4,0.8,0.6,1.2,0.6
			c0.3,0,0.6-0.1,0.9-0.3C75.8,204.5,75.9,203.5,75.4,202.9z"/>
		<circle id="XMLID_18152_" class="st5" cx="54.7" cy="132.2" r="15.9"/>
		<path id="XMLID_17945_" class="st4" d="M54.7,149.1c-9.4,0-17-7.6-17-17s7.6-17,17-17c9.4,0,17,7.6,17,17S64.1,149.1,54.7,149.1z
			 M54.7,117.3c-8.2,0-14.8,6.7-14.8,14.8c0,8.2,6.7,14.8,14.8,14.8c8.2,0,14.8-6.7,14.8-14.8C69.5,124,62.9,117.3,54.7,117.3z"/>
	</g>
</g>
</svg>
