<?xml version="1.0" encoding="utf-8"?>
<!-- Generator: Adobe Illustrator 19.0.0, SVG Export Plug-In . SVG Version: 6.00 Build 0)  -->
<svg version="1.1" id="Capa_1" xmlns="http://www.w3.org/2000/svg" xmlns:xlink="http://www.w3.org/1999/xlink" x="0px" y="0px"
	 viewBox="0 0 616.5 295.5" style="enable-background:new 0 0 616.5 295.5;" xml:space="preserve">
<style type="text/css">
	.st0{fill:#E8A91C;}
	.st1{fill:#FFFFFF;}
	.st2{fill:#F9D523;stroke:#E8A91C;stroke-width:2;stroke-miterlimit:10;}
	.st3{fill:#E8E8E8;}
	.st4{stroke:#F9D523;stroke-miterlimit:10;}
	.st5{fill:none;stroke:#F9D523;stroke-width:2;stroke-linecap:round;stroke-miterlimit:10;}
	.st6{fill:#F9D523;}
</style>
<g id="XMLID_999_">
	<g id="XMLID_21114_">
		<g id="XMLID_20791_">
			<path id="XMLID_20810_" class="st0" d="M49.6,171.9l-21.4-29v-19.3h17.2c1,0,1.7-0.8,1.7-1.7s-0.8-1.7-1.7-1.7H28.2v-14.6
				c0-0.9-0.8-1.7-1.7-1.7s-1.7,0.8-1.7,1.7v14.6H7.6c-1,0-1.7,0.8-1.7,1.7s0.8,1.7,1.7,1.7h17.2v19.3l-21.8,29
				c-0.6,0.8-0.4,1.8,0.3,2.4c0.3,0.2,0.7,0.3,1,0.3c0.5,0,1-0.2,1.4-0.7l20.8-27.6l20.4,27.6c0.3,0.5,0.9,0.7,1.4,0.7
				c0.4,0,0.7-0.1,1-0.3C50,173.7,50.2,172.6,49.6,171.9z"/>
			<circle id="XMLID_20809_" class="st1" cx="26.5" cy="92.9" r="17.8"/>
			<path id="XMLID_20800_" class="st0" d="M26.5,111.9c-10.5,0-19-8.5-19-19s8.5-19,19-19c10.5,0,19,8.5,19,19S37,111.9,26.5,111.9z
				 M26.5,76.4c-9.1,0-16.6,7.4-16.6,16.6c0,9.1,7.4,16.6,16.6,16.6c9.1,0,16.6-7.4,16.6-16.6C43.1,83.8,35.6,76.4,26.5,76.4z"/>
		</g>
		<g id="XMLID_20997_">
			<path id="XMLID_21004_" class="st0" d="M569,171.9l-21.4-29v-19.3h17.2c1,0,1.7-0.8,1.7-1.7s-0.8-1.7-1.7-1.7h-17.2v-14.6
				c0-0.9-0.8-1.7-1.7-1.7c-1,0-1.7,0.8-1.7,1.7v14.6h-17.2c-1,0-1.7,0.8-1.7,1.7s0.8,1.7,1.7,1.7h17.2v19.3l-21.8,29
				c-0.6,0.8-0.4,1.8,0.3,2.4c0.3,0.2,0.7,0.3,1,0.3c0.5,0,1-0.2,1.4-0.7l20.8-27.6l20.4,27.6c0.3,0.5,0.9,0.7,1.4,0.7
				c0.4,0,0.7-0.1,1-0.3C569.4,173.7,569.6,172.6,569,171.9z"/>
			<circle id="XMLID_21003_" class="st1" cx="545.9" cy="92.9" r="17.8"/>
			<path id="XMLID_20999_" class="st0" d="M545.9,111.9c-10.5,0-19-8.5-19-19s8.5-19,19-19c10.5,0,19,8.5,19,19
				S556.3,111.9,545.9,111.9z M545.9,76.4c-9.1,0-16.6,7.4-16.6,16.6c0,9.1,7.4,16.6,16.6,16.6c9.1,0,16.6-7.4,16.6-16.6
				C562.5,83.8,555,76.4,545.9,76.4z"/>
		</g>
	</g>
	<rect id="XMLID_20995_" x="136" y="1" class="st2" width="301.2" height="293.5"/>
	<g id="XMLID_220_">
		<path id="XMLID_221_" class="st3" d="M14.4,211.8h-3.1l-1.3-3.3H4.2l-1.2,3.3H0l5.6-14.3h3.1L14.4,211.8z M9,206.1l-2-5.3
			l-1.9,5.3H9z"/>
		<path id="XMLID_224_" class="st3" d="M24.9,204.5l-2.7,0.5c-0.1-0.5-0.3-0.9-0.6-1.2s-0.7-0.4-1.3-0.4c-0.7,0-1.2,0.2-1.6,0.7
			c-0.4,0.5-0.6,1.3-0.6,2.4c0,1.2,0.2,2.1,0.6,2.6s1,0.8,1.7,0.8c0.5,0,0.9-0.1,1.3-0.4c0.3-0.3,0.6-0.8,0.7-1.5l2.7,0.5
			c-0.3,1.2-0.8,2.2-1.6,2.8c-0.8,0.6-1.9,0.9-3.2,0.9c-1.5,0-2.7-0.5-3.6-1.4s-1.4-2.3-1.4-4c0-1.7,0.5-3,1.4-4
			c0.9-1,2.1-1.4,3.7-1.4c1.3,0,2.3,0.3,3,0.8C24.1,202.5,24.6,203.4,24.9,204.5z"/>
		<path id="XMLID_226_" class="st3" d="M31.8,201.4v2.2h-1.9v4.2c0,0.8,0,1.3,0.1,1.5c0,0.1,0.1,0.3,0.2,0.3
			c0.1,0.1,0.3,0.1,0.5,0.1c0.3,0,0.6-0.1,1.1-0.3l0.2,2.1c-0.6,0.3-1.4,0.4-2.2,0.4c-0.5,0-0.9-0.1-1.3-0.2s-0.7-0.4-0.9-0.6
			s-0.3-0.6-0.4-1.1c-0.1-0.3-0.1-1-0.1-1.9v-4.5h-1.3v-2.2h1.3v-2.1l2.8-1.6v3.7H31.8z"/>
		<path id="XMLID_228_" class="st3" d="M33,206.5c0-0.9,0.2-1.8,0.7-2.6c0.4-0.9,1.1-1.5,1.9-2s1.7-0.7,2.8-0.7
			c1.6,0,2.9,0.5,3.9,1.5c1,1,1.5,2.3,1.5,3.9c0,1.6-0.5,2.9-1.5,3.9c-1,1-2.3,1.5-3.8,1.5c-1,0-1.9-0.2-2.7-0.6s-1.5-1.1-2-1.9
			S33,207.6,33,206.5z M35.8,206.6c0,1,0.2,1.8,0.7,2.4s1.1,0.8,1.8,0.8s1.3-0.3,1.8-0.8s0.7-1.3,0.7-2.4c0-1-0.2-1.8-0.7-2.3
			s-1.1-0.8-1.8-0.8s-1.3,0.3-1.8,0.8S35.8,205.6,35.8,206.6z"/>
		<path id="XMLID_231_" class="st3" d="M48.5,211.8h-2.7v-10.4h2.5v1.5c0.4-0.7,0.8-1.2,1.2-1.4c0.3-0.2,0.7-0.3,1.2-0.3
			c0.6,0,1.2,0.2,1.8,0.5l-0.8,2.4c-0.5-0.3-0.9-0.4-1.3-0.4c-0.4,0-0.7,0.1-1,0.3c-0.3,0.2-0.5,0.6-0.6,1.1
			c-0.2,0.6-0.2,1.7-0.2,3.5V211.8z"/>
		<path id="XMLID_233_" class="st3" d="M56.8,205.1h-1.6v-6c-0.6,0.5-1.3,1-2.1,1.2v-1.5c0.4-0.1,0.9-0.4,1.4-0.8
			c0.5-0.4,0.8-0.8,1-1.3h1.3V205.1z"/>
	</g>
	<g id="XMLID_181_">
		<path id="XMLID_182_" d="M185.5,43.1V30.2h2.5l5.3,8.6v-8.6h2.4v12.9h-2.6l-5.2-8.4v8.4H185.5z"/>
		<path id="XMLID_184_" d="M197.9,36.8c0-1.3,0.2-2.4,0.6-3.3c0.3-0.7,0.7-1.2,1.2-1.8c0.5-0.5,1.1-0.9,1.7-1.2
			c0.8-0.3,1.7-0.5,2.8-0.5c1.9,0,3.4,0.6,4.6,1.8c1.1,1.2,1.7,2.8,1.7,4.9c0,2.1-0.6,3.7-1.7,4.9s-2.6,1.8-4.5,1.8
			c-1.9,0-3.4-0.6-4.6-1.8S197.9,38.8,197.9,36.8z M200.6,36.7c0,1.5,0.3,2.6,1,3.3s1.5,1.1,2.6,1.1s1.9-0.4,2.6-1.1
			c0.7-0.7,1-1.9,1-3.4c0-1.5-0.3-2.6-1-3.3s-1.5-1.1-2.6-1.1s-1.9,0.4-2.6,1.1S200.6,35.2,200.6,36.7z"/>
		<path id="XMLID_187_" d="M212.4,43.1V30.2h3.9l2.3,8.8l2.3-8.8h3.9v12.9h-2.4V33l-2.6,10.1h-2.5L214.8,33v10.1H212.4z"/>
		<path id="XMLID_189_" d="M227.4,30.2h5.2c1,0,1.8,0,2.3,0.1c0.5,0.1,0.9,0.3,1.3,0.5c0.4,0.3,0.7,0.6,1,1.1c0.3,0.4,0.4,1,0.4,1.5
			c0,0.6-0.2,1.2-0.5,1.7c-0.3,0.5-0.8,0.9-1.3,1.1c0.8,0.2,1.4,0.6,1.8,1.2s0.6,1.2,0.6,1.9c0,0.6-0.1,1.2-0.4,1.7
			c-0.3,0.6-0.6,1-1.1,1.3S235.7,43,235,43c-0.4,0-1.5,0.1-3.1,0.1h-4.4V30.2z M230,32.4v3h1.7c1,0,1.6,0,1.9,0
			c0.4-0.1,0.8-0.2,1-0.5c0.3-0.3,0.4-0.6,0.4-1c0-0.4-0.1-0.7-0.3-1c-0.2-0.2-0.5-0.4-1-0.5c-0.3,0-1,0-2.2,0H230z M230,37.5v3.4
			h2.4c0.9,0,1.5,0,1.8-0.1c0.4-0.1,0.7-0.2,0.9-0.5s0.4-0.6,0.4-1.1c0-0.4-0.1-0.7-0.3-1s-0.5-0.5-0.8-0.6
			c-0.4-0.1-1.1-0.2-2.3-0.2H230z"/>
		<path id="XMLID_193_" d="M240.4,43.1V30.2h5.5c1.4,0,2.4,0.1,3,0.3c0.6,0.2,1.1,0.6,1.5,1.2c0.4,0.6,0.6,1.3,0.6,2
			c0,1-0.3,1.8-0.9,2.4s-1.4,1-2.5,1.2c0.6,0.3,1,0.7,1.4,1.1s0.9,1.1,1.5,2.1l1.6,2.5h-3.1l-1.9-2.8c-0.7-1-1.1-1.6-1.4-1.9
			s-0.5-0.4-0.8-0.5s-0.7-0.1-1.3-0.1H243v5.4H240.4z M243,35.7h1.9c1.2,0,2-0.1,2.3-0.2s0.6-0.3,0.7-0.5s0.3-0.6,0.3-1
			c0-0.4-0.1-0.8-0.3-1s-0.6-0.4-1-0.5c-0.2,0-0.8,0-1.9,0h-2V35.7z"/>
		<path id="XMLID_196_" d="M253.4,43.1V30.2h9.6v2.2h-7v2.9h6.5v2.2H256v3.5h7.2v2.2H253.4z"/>
		<path id="XMLID_198_" d="M270.4,30.2h4.8c1.1,0,1.9,0.1,2.5,0.2c0.8,0.2,1.4,0.6,1.9,1.2c0.5,0.6,0.9,1.3,1.2,2.1s0.4,1.8,0.4,3
			c0,1.1-0.1,2-0.4,2.7c-0.3,0.9-0.8,1.7-1.4,2.3c-0.5,0.4-1.1,0.8-1.8,1c-0.6,0.2-1.3,0.3-2.3,0.3h-4.9V30.2z M273,32.4v8.5h1.9
			c0.7,0,1.3,0,1.6-0.1c0.4-0.1,0.8-0.3,1.1-0.5c0.3-0.3,0.5-0.7,0.7-1.2s0.3-1.4,0.3-2.4s-0.1-1.8-0.3-2.3s-0.4-0.9-0.7-1.2
			s-0.7-0.5-1.2-0.6c-0.4-0.1-1.1-0.1-2.1-0.1H273z"/>
		<path id="XMLID_201_" d="M283.4,43.1V30.2h9.6v2.2h-7v2.9h6.5v2.2H286v3.5h7.2v2.2H283.4z"/>
		<path id="XMLID_203_" d="M295.5,43.1V30.3h2.6v10.6h6.5v2.2H295.5z"/>
		<path id="XMLID_205_" d="M310.5,38.9l2.5-0.2c0.2,0.8,0.5,1.5,0.9,1.9c0.5,0.4,1.1,0.6,1.9,0.6c0.8,0,1.5-0.2,1.9-0.5
			c0.4-0.4,0.6-0.8,0.6-1.2c0-0.3-0.1-0.6-0.3-0.8c-0.2-0.2-0.5-0.4-0.9-0.6c-0.3-0.1-1-0.3-2.1-0.6c-1.4-0.3-2.4-0.8-2.9-1.3
			c-0.8-0.7-1.2-1.6-1.2-2.6c0-0.7,0.2-1.3,0.6-1.8c0.4-0.6,0.9-1,1.6-1.3c0.7-0.3,1.5-0.4,2.5-0.4c1.6,0,2.8,0.4,3.7,1.1
			c0.8,0.7,1.2,1.7,1.3,2.8L318,34c-0.1-0.7-0.3-1.1-0.7-1.4c-0.4-0.3-0.9-0.4-1.6-0.4c-0.8,0-1.3,0.2-1.8,0.5
			c-0.3,0.2-0.4,0.5-0.4,0.8c0,0.3,0.1,0.6,0.4,0.8c0.3,0.3,1.1,0.6,2.4,0.9s2.2,0.6,2.8,0.9c0.6,0.3,1.1,0.8,1.4,1.3
			c0.3,0.6,0.5,1.2,0.5,2.1c0,0.7-0.2,1.4-0.6,2.1s-1,1.1-1.7,1.4s-1.7,0.5-2.8,0.5c-1.6,0-2.9-0.4-3.8-1.1S310.6,40.4,310.5,38.9z"
			/>
		<path id="XMLID_207_" d="M323,43.1V30.2h2.6v12.9H323z"/>
		<path id="XMLID_209_" d="M327.5,38.9l2.5-0.2c0.2,0.8,0.5,1.5,0.9,1.9c0.5,0.4,1.1,0.6,1.9,0.6c0.8,0,1.5-0.2,1.9-0.5
			c0.4-0.4,0.6-0.8,0.6-1.2c0-0.3-0.1-0.6-0.3-0.8c-0.2-0.2-0.5-0.4-0.9-0.6c-0.3-0.1-1-0.3-2.1-0.6c-1.4-0.3-2.4-0.8-2.9-1.3
			c-0.8-0.7-1.2-1.6-1.2-2.6c0-0.7,0.2-1.3,0.6-1.8c0.4-0.6,0.9-1,1.6-1.3c0.7-0.3,1.5-0.4,2.5-0.4c1.6,0,2.8,0.4,3.7,1.1
			c0.8,0.7,1.2,1.7,1.3,2.8L335,34c-0.1-0.7-0.4-1.1-0.7-1.4c-0.4-0.3-0.9-0.4-1.6-0.4c-0.8,0-1.3,0.2-1.8,0.5
			c-0.3,0.2-0.4,0.5-0.4,0.8c0,0.3,0.1,0.6,0.4,0.8c0.3,0.3,1.1,0.6,2.4,0.9s2.2,0.6,2.8,0.9c0.6,0.3,1.1,0.8,1.4,1.3
			c0.3,0.6,0.5,1.2,0.5,2.1c0,0.7-0.2,1.4-0.6,2.1s-1,1.1-1.7,1.4s-1.7,0.5-2.8,0.5c-1.6,0-2.9-0.4-3.8-1.1S327.6,40.4,327.5,38.9z"
			/>
		<path id="XMLID_211_" d="M343,43.1V32.4h-3.8v-2.2h10.2v2.2h-3.8v10.7H343z"/>
		<path id="XMLID_213_" d="M351.1,43.1V30.2h9.6v2.2h-7v2.9h6.5v2.2h-6.5v3.5h7.2v2.2H351.1z"/>
		<path id="XMLID_215_" d="M363.1,43.1V30.2h3.9l2.3,8.8l2.3-8.8h3.9v12.9h-2.4V33l-2.6,10.1h-2.5L365.5,33v10.1H363.1z"/>
		<path id="XMLID_217_" d="M389.7,43.1h-2.8l-1.1-2.9h-5.2l-1.1,2.9h-2.8l5-12.9h2.8L389.7,43.1z M385,38l-1.8-4.8l-1.7,4.8H385z"/>
	</g>
	<g id="XMLID_166_">
		<path id="XMLID_167_" class="st3" d="M533.6,211.8h-3.1l-1.3-3.3h-5.7l-1.2,3.3h-3.1l5.6-14.3h3.1L533.6,211.8z M528.3,206.1
			l-2-5.3l-1.9,5.3H528.3z"/>
		<path id="XMLID_170_" class="st3" d="M544.2,204.5l-2.7,0.5c-0.1-0.5-0.3-0.9-0.6-1.2s-0.7-0.4-1.3-0.4c-0.7,0-1.2,0.2-1.6,0.7
			c-0.4,0.5-0.6,1.3-0.6,2.4c0,1.2,0.2,2.1,0.6,2.6s1,0.8,1.7,0.8c0.5,0,0.9-0.1,1.3-0.4c0.3-0.3,0.6-0.8,0.7-1.5l2.7,0.5
			c-0.3,1.2-0.8,2.2-1.6,2.8c-0.8,0.6-1.9,0.9-3.2,0.9c-1.5,0-2.7-0.5-3.6-1.4s-1.4-2.3-1.4-4c0-1.7,0.5-3,1.4-4
			c0.9-1,2.1-1.4,3.7-1.4c1.3,0,2.3,0.3,3,0.8C543.3,202.5,543.9,203.4,544.2,204.5z"/>
		<path id="XMLID_172_" class="st3" d="M551,201.4v2.2h-1.9v4.2c0,0.8,0,1.3,0.1,1.5c0,0.1,0.1,0.3,0.2,0.3c0.1,0.1,0.3,0.1,0.5,0.1
			c0.3,0,0.6-0.1,1.1-0.3l0.2,2.1c-0.6,0.3-1.4,0.4-2.2,0.4c-0.5,0-0.9-0.1-1.3-0.2s-0.7-0.4-0.9-0.6s-0.3-0.6-0.4-1.1
			c-0.1-0.3-0.1-1-0.1-1.9v-4.5h-1.3v-2.2h1.3v-2.1l2.8-1.6v3.7H551z"/>
		<path id="XMLID_174_" class="st3" d="M552.3,206.5c0-0.9,0.2-1.8,0.7-2.6c0.4-0.9,1.1-1.5,1.9-2s1.7-0.7,2.8-0.7
			c1.6,0,2.9,0.5,3.9,1.5c1,1,1.5,2.3,1.5,3.9c0,1.6-0.5,2.9-1.5,3.9c-1,1-2.3,1.5-3.8,1.5c-1,0-1.9-0.2-2.7-0.6s-1.5-1.1-2-1.9
			S552.3,207.6,552.3,206.5z M555.1,206.6c0,1,0.2,1.8,0.7,2.4s1.1,0.8,1.8,0.8s1.3-0.3,1.8-0.8s0.7-1.3,0.7-2.4
			c0-1-0.2-1.8-0.7-2.3s-1.1-0.8-1.8-0.8s-1.3,0.3-1.8,0.8S555.1,205.6,555.1,206.6z"/>
		<path id="XMLID_177_" class="st3" d="M567.8,211.8H565v-10.4h2.5v1.5c0.4-0.7,0.8-1.2,1.2-1.4c0.3-0.2,0.7-0.3,1.2-0.3
			c0.6,0,1.2,0.2,1.8,0.5l-0.8,2.4c-0.5-0.3-0.9-0.4-1.3-0.4c-0.4,0-0.7,0.1-1,0.3c-0.3,0.2-0.5,0.6-0.6,1.1
			c-0.2,0.6-0.2,1.7-0.2,3.5V211.8z"/>
		<path id="XMLID_179_" class="st3" d="M577.8,205.1h-1.6V202c0-0.7,0-1.1-0.1-1.3c-0.1-0.2-0.2-0.3-0.3-0.4
			c-0.2-0.1-0.3-0.2-0.6-0.2c-0.3,0-0.5,0.1-0.7,0.2c-0.2,0.2-0.4,0.4-0.5,0.6c-0.1,0.3-0.1,0.7-0.1,1.4v2.7h-1.6v-6h1.5v0.9
			c0.5-0.7,1.2-1,2-1c0.4,0,0.7,0.1,1,0.2c0.3,0.1,0.5,0.3,0.7,0.5c0.1,0.2,0.3,0.4,0.3,0.7c0.1,0.3,0.1,0.6,0.1,1.1V205.1z"/>
	</g>
	<g id="XMLID_135_">
		<path id="XMLID_136_" class="st3" d="M490.6,273.1l2.8,0.9c-0.4,1.6-1.1,2.7-2.1,3.5c-1,0.8-2.3,1.1-3.8,1.1
			c-1.9,0-3.5-0.6-4.7-1.9s-1.8-3.1-1.8-5.3c0-2.4,0.6-4.2,1.8-5.6s2.8-2,4.9-2c1.8,0,3.2,0.5,4.3,1.6c0.7,0.6,1.1,1.5,1.5,2.6
			l-2.9,0.7c-0.2-0.7-0.5-1.3-1.1-1.8s-1.2-0.6-2-0.6c-1.1,0-1.9,0.4-2.6,1.1s-1,2-1,3.7c0,1.8,0.3,3.1,1,3.9
			c0.7,0.8,1.5,1.2,2.5,1.2c0.8,0,1.4-0.2,2-0.7S490.4,274.1,490.6,273.1z"/>
		<path id="XMLID_138_" class="st3" d="M495.3,273c0-0.9,0.2-1.8,0.7-2.6c0.4-0.9,1.1-1.5,1.9-2s1.7-0.7,2.8-0.7
			c1.6,0,2.9,0.5,3.9,1.5c1,1,1.5,2.3,1.5,3.9c0,1.6-0.5,2.9-1.5,3.9c-1,1-2.3,1.5-3.8,1.5c-1,0-1.9-0.2-2.7-0.6s-1.5-1.1-2-1.9
			S495.3,274.2,495.3,273z M498.1,273.1c0,1,0.2,1.8,0.7,2.4s1.1,0.8,1.8,0.8s1.3-0.3,1.8-0.8s0.7-1.3,0.7-2.4c0-1-0.2-1.8-0.7-2.3
			s-1.1-0.8-1.8-0.8s-1.3,0.3-1.8,0.8S498.1,272.1,498.1,273.1z"/>
		<path id="XMLID_141_" class="st3" d="M507.9,268h2.5v1.4c0.9-1.1,2-1.7,3.2-1.7c0.7,0,1.2,0.1,1.7,0.4s0.9,0.7,1.2,1.2
			c0.5-0.6,0.9-1,1.5-1.2s1.1-0.4,1.7-0.4c0.8,0,1.4,0.2,1.9,0.5c0.5,0.3,0.9,0.8,1.2,1.4c0.2,0.4,0.3,1.2,0.3,2.1v6.6h-2.7v-5.9
			c0-1-0.1-1.7-0.3-2c-0.3-0.4-0.6-0.6-1.2-0.6c-0.4,0-0.7,0.1-1.1,0.4s-0.6,0.6-0.7,1c-0.1,0.5-0.2,1.2-0.2,2.1v5h-2.7v-5.7
			c0-1,0-1.7-0.1-2s-0.2-0.5-0.5-0.7c-0.2-0.1-0.5-0.2-0.8-0.2c-0.4,0-0.8,0.1-1.1,0.3c-0.3,0.2-0.6,0.6-0.7,1s-0.2,1.1-0.2,2.1v5
			h-2.7V268z"/>
		<path id="XMLID_143_" class="st3" d="M532.7,278.3v-1.6c-0.4,0.6-0.9,1-1.5,1.3c-0.6,0.3-1.3,0.5-1.9,0.5c-0.7,0-1.3-0.2-1.9-0.5
			c-0.6-0.3-1-0.7-1.2-1.3c-0.2-0.6-0.4-1.3-0.4-2.3V268h2.7v4.8c0,1.5,0.1,2.4,0.2,2.7c0.1,0.3,0.3,0.6,0.6,0.8
			c0.3,0.2,0.6,0.3,1,0.3c0.5,0,0.9-0.1,1.3-0.4c0.4-0.3,0.6-0.6,0.8-1s0.2-1.3,0.2-2.8V268h2.7v10.4H532.7z"/>
		<path id="XMLID_145_" class="st3" d="M547.6,278.3h-2.7V273c0-1.1-0.1-1.8-0.2-2.2c-0.1-0.3-0.3-0.6-0.6-0.8
			c-0.3-0.2-0.6-0.3-1-0.3c-0.5,0-0.9,0.1-1.3,0.4c-0.4,0.3-0.6,0.6-0.8,1s-0.2,1.2-0.2,2.4v4.7h-2.7V268h2.5v1.5
			c0.9-1.2,2-1.8,3.4-1.8c0.6,0,1.2,0.1,1.7,0.3c0.5,0.2,0.9,0.5,1.1,0.8c0.3,0.3,0.4,0.7,0.5,1.2s0.2,1,0.2,1.8V278.3z"/>
		<path id="XMLID_147_" class="st3" d="M550.3,266.6V264h2.7v2.5H550.3z M550.3,278.3V268h2.7v10.4H550.3z"/>
		<path id="XMLID_150_" class="st3" d="M564.9,271l-2.7,0.5c-0.1-0.5-0.3-0.9-0.6-1.2s-0.7-0.4-1.3-0.4c-0.7,0-1.2,0.2-1.6,0.7
			c-0.4,0.5-0.6,1.3-0.6,2.4c0,1.2,0.2,2.1,0.6,2.6s1,0.8,1.7,0.8c0.5,0,0.9-0.1,1.3-0.4c0.3-0.3,0.6-0.8,0.7-1.5l2.7,0.5
			c-0.3,1.2-0.8,2.2-1.6,2.8c-0.8,0.6-1.9,0.9-3.2,0.9c-1.5,0-2.7-0.5-3.6-1.4s-1.4-2.3-1.4-4c0-1.7,0.5-3,1.4-4
			c0.9-1,2.1-1.4,3.7-1.4c1.3,0,2.3,0.3,3,0.8C564.1,269.1,564.6,269.9,564.9,271z"/>
		<path id="XMLID_152_" class="st3" d="M569.1,271.1l-2.5-0.4c0.3-1,0.8-1.7,1.4-2.2c0.7-0.5,1.7-0.7,3-0.7c1.2,0,2.1,0.1,2.7,0.4
			c0.6,0.3,1,0.7,1.3,1.1c0.2,0.4,0.4,1.3,0.4,2.5l0,3.2c0,0.9,0,1.6,0.1,2c0.1,0.4,0.3,0.9,0.5,1.4h-2.7c-0.1-0.2-0.2-0.5-0.3-0.8
			c0-0.2-0.1-0.3-0.1-0.3c-0.5,0.5-1,0.8-1.5,1c-0.5,0.2-1.1,0.3-1.7,0.3c-1.1,0-1.9-0.3-2.5-0.9c-0.6-0.6-0.9-1.3-0.9-2.2
			c0-0.6,0.1-1.1,0.4-1.6s0.7-0.8,1.2-1.1s1.2-0.5,2.2-0.6c1.3-0.2,2.2-0.5,2.7-0.7v-0.3c0-0.5-0.1-0.9-0.4-1.1s-0.8-0.3-1.5-0.3
			c-0.5,0-0.9,0.1-1.1,0.3C569.5,270.3,569.2,270.6,569.1,271.1z M572.7,273.4c-0.4,0.1-0.9,0.3-1.7,0.4c-0.8,0.2-1.3,0.3-1.5,0.5
			c-0.4,0.3-0.5,0.6-0.5,1c0,0.4,0.1,0.7,0.4,1c0.3,0.3,0.7,0.4,1.1,0.4c0.5,0,1-0.2,1.4-0.5c0.3-0.2,0.5-0.5,0.7-0.9
			c0.1-0.2,0.1-0.7,0.1-1.3V273.4z"/>
		<path id="XMLID_155_" class="st3" d="M587.2,271l-2.7,0.5c-0.1-0.5-0.3-0.9-0.6-1.2s-0.7-0.4-1.3-0.4c-0.7,0-1.2,0.2-1.6,0.7
			c-0.4,0.5-0.6,1.3-0.6,2.4c0,1.2,0.2,2.1,0.6,2.6s1,0.8,1.7,0.8c0.5,0,0.9-0.1,1.3-0.4c0.3-0.3,0.6-0.8,0.7-1.5l2.7,0.5
			c-0.3,1.2-0.8,2.2-1.6,2.8c-0.8,0.6-1.9,0.9-3.2,0.9c-1.5,0-2.7-0.5-3.6-1.4s-1.4-2.3-1.4-4c0-1.7,0.5-3,1.4-4
			c0.9-1,2.1-1.4,3.7-1.4c1.3,0,2.3,0.3,3,0.8C586.3,269.1,586.9,269.9,587.2,271z"/>
		<path id="XMLID_157_" class="st3" d="M589.3,266.6V264h2.7v2.5H589.3z M589.3,278.3V268h2.7v10.4H589.3z"/>
		<path id="XMLID_160_" class="st3" d="M594.2,273c0-0.9,0.2-1.8,0.7-2.6c0.4-0.9,1.1-1.5,1.9-2s1.7-0.7,2.8-0.7
			c1.6,0,2.9,0.5,3.9,1.5c1,1,1.5,2.3,1.5,3.9c0,1.6-0.5,2.9-1.5,3.9c-1,1-2.3,1.5-3.8,1.5c-1,0-1.9-0.2-2.7-0.6s-1.5-1.1-2-1.9
			S594.2,274.2,594.2,273z M597,273.1c0,1,0.2,1.8,0.7,2.4s1.1,0.8,1.8,0.8s1.3-0.3,1.8-0.8s0.7-1.3,0.7-2.4c0-1-0.2-1.8-0.7-2.3
			s-1.1-0.8-1.8-0.8s-1.3,0.3-1.8,0.8S597,272.1,597,273.1z M598.2,266.7l1.3-2.9h3.1l-2.7,2.9H598.2z"/>
		<path id="XMLID_164_" class="st3" d="M616.5,278.3h-2.7V273c0-1.1-0.1-1.8-0.2-2.2c-0.1-0.3-0.3-0.6-0.6-0.8
			c-0.3-0.2-0.6-0.3-1-0.3c-0.5,0-0.9,0.1-1.3,0.4c-0.4,0.3-0.6,0.6-0.8,1s-0.2,1.2-0.2,2.4v4.7H607V268h2.5v1.5
			c0.9-1.2,2-1.8,3.4-1.8c0.6,0,1.2,0.1,1.7,0.3c0.5,0.2,0.9,0.5,1.1,0.8c0.3,0.3,0.4,0.7,0.5,1.2s0.2,1,0.2,1.8V278.3z"/>
	</g>
	<g id="XMLID_93_">
		<path id="XMLID_94_" class="st3" d="M512.1,28.4V14.1h10.6v2.4H515v3.2h7.2v2.4H515V26h8v2.4H512.1z"/>
		<path id="XMLID_96_" class="st3" d="M534.8,28.4h-2.7v-5.3c0-1.1-0.1-1.8-0.2-2.2c-0.1-0.3-0.3-0.6-0.6-0.8
			c-0.3-0.2-0.6-0.3-1-0.3c-0.5,0-0.9,0.1-1.3,0.4c-0.4,0.3-0.6,0.6-0.8,1s-0.2,1.2-0.2,2.4v4.7h-2.7V18h2.5v1.5
			c0.9-1.2,2-1.8,3.4-1.8c0.6,0,1.2,0.1,1.7,0.3c0.5,0.2,0.9,0.5,1.1,0.8c0.3,0.3,0.4,0.7,0.5,1.2s0.2,1,0.2,1.8V28.4z"/>
		<path id="XMLID_98_" class="st3" d="M542.4,18v2.2h-1.9v4.2c0,0.8,0,1.3,0.1,1.5c0,0.1,0.1,0.3,0.2,0.3c0.1,0.1,0.3,0.1,0.5,0.1
			c0.3,0,0.6-0.1,1.1-0.3l0.2,2.1c-0.6,0.3-1.4,0.4-2.2,0.4c-0.5,0-0.9-0.1-1.3-0.2s-0.7-0.4-0.9-0.6s-0.3-0.6-0.4-1.1
			c-0.1-0.3-0.1-1-0.1-1.9v-4.5h-1.3V18h1.3V16l2.8-1.6V18H542.4z"/>
		<path id="XMLID_100_" class="st3" d="M543.6,23.1c0-0.9,0.2-1.8,0.7-2.6c0.4-0.9,1.1-1.5,1.9-2s1.7-0.7,2.8-0.7
			c1.6,0,2.9,0.5,3.9,1.5c1,1,1.5,2.3,1.5,3.9c0,1.6-0.5,2.9-1.5,3.9c-1,1-2.3,1.5-3.8,1.5c-1,0-1.9-0.2-2.7-0.6s-1.5-1.1-2-1.9
			S543.6,24.3,543.6,23.1z M546.4,23.2c0,1,0.2,1.8,0.7,2.4s1.1,0.8,1.8,0.8s1.3-0.3,1.8-0.8s0.7-1.3,0.7-2.4c0-1-0.2-1.8-0.7-2.3
			S549.7,20,549,20s-1.3,0.3-1.8,0.8S546.4,22.2,546.4,23.2z"/>
		<path id="XMLID_103_" class="st3" d="M559.1,28.4h-2.7V18h2.5v1.5c0.4-0.7,0.8-1.2,1.2-1.4c0.3-0.2,0.7-0.3,1.2-0.3
			c0.6,0,1.2,0.2,1.8,0.5l-0.8,2.4c-0.5-0.3-0.9-0.4-1.3-0.4c-0.4,0-0.7,0.1-1,0.3c-0.3,0.2-0.5,0.6-0.6,1.1
			c-0.2,0.6-0.2,1.7-0.2,3.5V28.4z"/>
		<path id="XMLID_105_" class="st3" d="M573.7,28.4h-2.7v-5.3c0-1.1-0.1-1.8-0.2-2.2c-0.1-0.3-0.3-0.6-0.6-0.8
			c-0.3-0.2-0.6-0.3-1-0.3c-0.5,0-0.9,0.1-1.3,0.4c-0.4,0.3-0.6,0.6-0.8,1s-0.2,1.2-0.2,2.4v4.7h-2.7V18h2.5v1.5
			c0.9-1.2,2-1.8,3.4-1.8c0.6,0,1.2,0.1,1.7,0.3c0.5,0.2,0.9,0.5,1.1,0.8c0.3,0.3,0.4,0.7,0.5,1.2s0.2,1,0.2,1.8V28.4z"/>
		<path id="XMLID_107_" class="st3" d="M575.8,23.1c0-0.9,0.2-1.8,0.7-2.6c0.4-0.9,1.1-1.5,1.9-2s1.7-0.7,2.8-0.7
			c1.6,0,2.9,0.5,3.9,1.5c1,1,1.5,2.3,1.5,3.9c0,1.6-0.5,2.9-1.5,3.9c-1,1-2.3,1.5-3.8,1.5c-1,0-1.9-0.2-2.7-0.6s-1.5-1.1-2-1.9
			S575.8,24.3,575.8,23.1z M578.7,23.2c0,1,0.2,1.8,0.7,2.4s1.1,0.8,1.8,0.8s1.3-0.3,1.8-0.8s0.7-1.3,0.7-2.4c0-1-0.2-1.8-0.7-2.3
			s-1.1-0.8-1.8-0.8s-1.3,0.3-1.8,0.8S578.7,22.2,578.7,23.2z"/>
		<path id="XMLID_110_" class="st3" d="M508.2,44.4h-2.5v-1.5c-0.4,0.6-0.9,1-1.5,1.3c-0.6,0.3-1.2,0.4-1.7,0.4
			c-1.2,0-2.2-0.5-3.1-1.4c-0.8-1-1.3-2.3-1.3-4c0-1.8,0.4-3.1,1.2-4c0.8-0.9,1.9-1.4,3.1-1.4c1.2,0,2.2,0.5,3,1.4v-5.2h2.7V44.4z
			 M500.9,39c0,1.1,0.2,1.9,0.5,2.4c0.4,0.7,1.1,1.1,1.9,1.1c0.6,0,1.2-0.3,1.6-0.8s0.7-1.3,0.7-2.4c0-1.2-0.2-2-0.6-2.6
			c-0.4-0.5-1-0.8-1.7-0.8c-0.7,0-1.2,0.3-1.6,0.8S500.9,38,500.9,39z"/>
		<path id="XMLID_113_" class="st3" d="M516.9,41.1l2.7,0.5c-0.4,1-0.9,1.8-1.7,2.3c-0.8,0.5-1.7,0.8-2.8,0.8c-1.8,0-3.1-0.6-4-1.8
			c-0.7-0.9-1-2.1-1-3.6c0-1.7,0.4-3.1,1.3-4c0.9-1,2-1.5,3.4-1.5c1.5,0,2.8,0.5,3.7,1.5c0.9,1,1.3,2.6,1.3,4.7h-6.9
			c0,0.8,0.2,1.4,0.7,1.9c0.4,0.5,1,0.7,1.6,0.7c0.4,0,0.8-0.1,1.1-0.4S516.7,41.6,516.9,41.1z M517.1,38.3c0-0.8-0.2-1.4-0.6-1.8
			c-0.4-0.4-0.9-0.6-1.4-0.6c-0.6,0-1.1,0.2-1.5,0.7c-0.4,0.4-0.6,1-0.6,1.8H517.1z"/>
		<path id="XMLID_116_" class="st3" d="M522,44.4V30.1h2.7v14.3H522z"/>
		<path id="XMLID_118_" class="st3" d="M532.2,41.4l2.8-0.4c0.1,0.5,0.4,0.9,0.7,1.2c0.4,0.3,0.9,0.4,1.5,0.4c0.7,0,1.2-0.1,1.6-0.4
			c0.2-0.2,0.4-0.4,0.4-0.7c0-0.2-0.1-0.4-0.2-0.5c-0.1-0.1-0.4-0.3-0.9-0.4c-2.2-0.5-3.6-0.9-4.2-1.3c-0.8-0.6-1.2-1.3-1.2-2.3
			c0-0.9,0.4-1.7,1.1-2.3c0.7-0.6,1.8-0.9,3.3-0.9c1.4,0,2.5,0.2,3.2,0.7c0.7,0.5,1.2,1.1,1.4,2.1l-2.6,0.5
			c-0.1-0.4-0.3-0.7-0.6-0.9s-0.8-0.3-1.3-0.3c-0.7,0-1.2,0.1-1.6,0.3c-0.2,0.1-0.3,0.3-0.3,0.6c0,0.2,0.1,0.4,0.3,0.5
			c0.2,0.2,1.1,0.4,2.6,0.8s2.5,0.7,3.1,1.2c0.6,0.5,0.9,1.2,0.9,2c0,1-0.4,1.8-1.2,2.5s-2,1-3.5,1c-1.4,0-2.5-0.3-3.4-0.9
			C533,43.2,532.4,42.4,532.2,41.4z"/>
		<path id="XMLID_120_" class="st3" d="M544.2,32.6v-2.5h2.7v2.5H544.2z M544.2,44.4V34h2.7v10.4H544.2z"/>
		<path id="XMLID_123_" class="st3" d="M548.8,41.4l2.8-0.4c0.1,0.5,0.4,0.9,0.7,1.2c0.4,0.3,0.9,0.4,1.5,0.4c0.7,0,1.2-0.1,1.6-0.4
			c0.2-0.2,0.4-0.4,0.4-0.7c0-0.2-0.1-0.4-0.2-0.5c-0.1-0.1-0.4-0.3-0.9-0.4c-2.2-0.5-3.6-0.9-4.2-1.3c-0.8-0.6-1.2-1.3-1.2-2.3
			c0-0.9,0.4-1.7,1.1-2.3c0.7-0.6,1.8-0.9,3.3-0.9c1.4,0,2.5,0.2,3.2,0.7c0.7,0.5,1.2,1.1,1.4,2.1l-2.6,0.5
			c-0.1-0.4-0.3-0.7-0.6-0.9s-0.8-0.3-1.3-0.3c-0.7,0-1.2,0.1-1.6,0.3c-0.2,0.1-0.3,0.3-0.3,0.6c0,0.2,0.1,0.4,0.3,0.5
			c0.2,0.2,1.1,0.4,2.6,0.8s2.5,0.7,3.1,1.2c0.6,0.5,0.9,1.2,0.9,2c0,1-0.4,1.8-1.2,2.5s-2,1-3.5,1c-1.4,0-2.5-0.3-3.4-0.9
			C549.6,43.2,549.1,42.4,548.8,41.4z"/>
		<path id="XMLID_125_" class="st3" d="M565.7,34v2.2h-1.9v4.2c0,0.8,0,1.3,0.1,1.5c0,0.1,0.1,0.3,0.2,0.3c0.1,0.1,0.3,0.1,0.5,0.1
			c0.3,0,0.6-0.1,1.1-0.3l0.2,2.1c-0.6,0.3-1.4,0.4-2.2,0.4c-0.5,0-0.9-0.1-1.3-0.2s-0.7-0.4-0.9-0.6s-0.3-0.6-0.4-1.1
			c-0.1-0.3-0.1-1-0.1-1.9v-4.5h-1.3V34h1.3V32l2.8-1.6V34H565.7z"/>
		<path id="XMLID_127_" class="st3" d="M573.6,41.1l2.7,0.5c-0.4,1-0.9,1.8-1.7,2.3c-0.8,0.5-1.7,0.8-2.8,0.8c-1.8,0-3.1-0.6-4-1.8
			c-0.7-0.9-1-2.1-1-3.6c0-1.7,0.4-3.1,1.3-4c0.9-1,2-1.5,3.4-1.5c1.5,0,2.8,0.5,3.7,1.5c0.9,1,1.3,2.6,1.3,4.7h-6.9
			c0,0.8,0.2,1.4,0.7,1.9c0.4,0.5,1,0.7,1.6,0.7c0.4,0,0.8-0.1,1.1-0.4S573.4,41.6,573.6,41.1z M573.8,38.3c0-0.8-0.2-1.4-0.6-1.8
			c-0.4-0.4-0.9-0.6-1.4-0.6c-0.6,0-1.1,0.2-1.5,0.7c-0.4,0.4-0.6,1-0.6,1.8H573.8z"/>
		<path id="XMLID_130_" class="st3" d="M578.5,34h2.5v1.4c0.9-1.1,2-1.7,3.2-1.7c0.7,0,1.2,0.1,1.7,0.4s0.9,0.7,1.2,1.2
			c0.5-0.6,0.9-1,1.5-1.2s1.1-0.4,1.7-0.4c0.8,0,1.4,0.2,1.9,0.5c0.5,0.3,0.9,0.8,1.2,1.4c0.2,0.4,0.3,1.2,0.3,2.1v6.6H591v-5.9
			c0-1-0.1-1.7-0.3-2c-0.3-0.4-0.6-0.6-1.2-0.6c-0.4,0-0.7,0.1-1.1,0.4s-0.6,0.6-0.7,1c-0.1,0.5-0.2,1.2-0.2,2.1v5h-2.7v-5.7
			c0-1,0-1.7-0.1-2s-0.2-0.5-0.5-0.7c-0.2-0.1-0.5-0.2-0.8-0.2c-0.4,0-0.8,0.1-1.1,0.3c-0.3,0.2-0.6,0.6-0.7,1s-0.2,1.1-0.2,2.1v5
			h-2.7V34z"/>
		<path id="XMLID_132_" class="st3" d="M598.5,37.2l-2.5-0.4c0.3-1,0.8-1.7,1.4-2.2c0.7-0.5,1.7-0.7,3-0.7c1.2,0,2.1,0.1,2.7,0.4
			c0.6,0.3,1,0.7,1.3,1.1c0.2,0.4,0.4,1.3,0.4,2.5l0,3.2c0,0.9,0,1.6,0.1,2c0.1,0.4,0.3,0.9,0.5,1.4h-2.7c-0.1-0.2-0.2-0.5-0.3-0.8
			c0-0.2-0.1-0.3-0.1-0.3c-0.5,0.5-1,0.8-1.5,1c-0.5,0.2-1.1,0.3-1.7,0.3c-1.1,0-1.9-0.3-2.5-0.9c-0.6-0.6-0.9-1.3-0.9-2.2
			c0-0.6,0.1-1.1,0.4-1.6s0.7-0.8,1.2-1.1s1.2-0.5,2.2-0.6c1.3-0.2,2.2-0.5,2.7-0.7v-0.3c0-0.5-0.1-0.9-0.4-1.1s-0.8-0.3-1.5-0.3
			c-0.5,0-0.9,0.1-1.1,0.3C598.9,36.4,598.7,36.7,598.5,37.2z M602.2,39.4c-0.4,0.1-0.9,0.3-1.7,0.4c-0.8,0.2-1.3,0.3-1.5,0.5
			c-0.4,0.3-0.5,0.6-0.5,1c0,0.4,0.1,0.7,0.4,1c0.3,0.3,0.7,0.4,1.1,0.4c0.5,0,1-0.2,1.4-0.5c0.3-0.2,0.5-0.5,0.7-0.9
			c0.1-0.2,0.1-0.7,0.1-1.3V39.4z"/>
	</g>
	<path id="XMLID_1009_" class="st4" d="M239.5,87.5L58.3,120.2c-1,0.2-2-0.5-2.2-1.5l0,0c-0.2-1,0.5-2,1.5-2.2l181.2-32.7
		c1-0.2,2,0.5,2.2,1.5l0,0C241.2,86.3,240.5,87.3,239.5,87.5z"/>
	<path id="XMLID_1083_" class="st4" d="M505.9,142.3L324.7,175c-1,0.2-2-0.5-2.2-1.5h0c-0.2-1,0.5-2,1.5-2.2l181.2-32.7
		c1-0.2,2,0.5,2.2,1.5l0,0C507.6,141.1,506.9,142.1,505.9,142.3z"/>
	<path id="XMLID_1104_" class="st4" d="M505.9,216.9l-181.2,32.7c-1,0.2-2-0.5-2.2-1.5h0c-0.2-1,0.5-2,1.5-2.2l181.2-32.7
		c1-0.2,2,0.5,2.2,1.5l0,0C507.6,215.8,506.9,216.7,505.9,216.9z"/>
	<path id="XMLID_1081_" class="st4" d="M239.5,171.9L58.3,139.2c-1-0.2-2,0.5-2.2,1.5l0,0c-0.2,1,0.5,2,1.5,2.2l181.2,32.7
		c1,0.2,2-0.5,2.2-1.5l0,0C241.2,173.1,240.5,172.1,239.5,171.9z"/>
	<ellipse id="XMLID_17081_" cx="286.4" cy="93" rx="94.1" ry="25"/>
	<g id="XMLID_67_">
		<path id="XMLID_68_" class="st1" d="M239,94.6l2.3,0.7c-0.4,1.3-1,2.3-1.8,2.9s-1.9,0.9-3.2,0.9c-1.6,0-2.9-0.5-3.9-1.6
			S231,95,231,93.2c0-2,0.5-3.5,1.5-4.6c1-1.1,2.4-1.6,4-1.6c1.5,0,2.6,0.4,3.6,1.3c0.5,0.5,0.9,1.2,1.2,2.2l-2.4,0.6
			c-0.1-0.6-0.4-1.1-0.9-1.5c-0.4-0.4-1-0.5-1.6-0.5c-0.9,0-1.6,0.3-2.1,1c-0.6,0.6-0.8,1.7-0.8,3.1c0,1.5,0.3,2.6,0.8,3.2
			c0.5,0.6,1.2,1,2.1,1c0.6,0,1.2-0.2,1.7-0.6C238.5,96.2,238.8,95.5,239,94.6z"/>
		<path id="XMLID_70_" class="st1" d="M245.1,93l-2.1-0.4c0.2-0.8,0.6-1.5,1.2-1.9c0.6-0.4,1.4-0.6,2.5-0.6c1,0,1.8,0.1,2.3,0.4
			c0.5,0.2,0.8,0.5,1.1,0.9s0.3,1.1,0.3,2l0,2.7c0,0.8,0,1.3,0.1,1.7c0.1,0.4,0.2,0.7,0.4,1.2h-2.3c-0.1-0.2-0.1-0.4-0.2-0.7
			c0-0.1-0.1-0.2-0.1-0.3c-0.4,0.4-0.8,0.7-1.3,0.9s-0.9,0.3-1.4,0.3c-0.9,0-1.6-0.2-2.1-0.7s-0.8-1.1-0.8-1.8
			c0-0.5,0.1-0.9,0.3-1.3c0.2-0.4,0.6-0.7,1-0.9s1-0.4,1.8-0.5c1.1-0.2,1.8-0.4,2.2-0.6v-0.2c0-0.4-0.1-0.8-0.3-0.9
			s-0.6-0.3-1.2-0.3c-0.4,0-0.7,0.1-1,0.2C245.4,92.3,245.3,92.6,245.1,93z M248.2,94.9c-0.3,0.1-0.8,0.2-1.4,0.3
			c-0.6,0.1-1,0.3-1.2,0.4c-0.3,0.2-0.4,0.5-0.4,0.8c0,0.3,0.1,0.6,0.4,0.8c0.2,0.2,0.5,0.3,0.9,0.3c0.4,0,0.8-0.1,1.2-0.4
			c0.3-0.2,0.5-0.5,0.5-0.8c0.1-0.2,0.1-0.6,0.1-1.1V94.9z"/>
		<path id="XMLID_73_" class="st1" d="M251.9,96.6l2.3-0.3c0.1,0.4,0.3,0.8,0.6,1s0.7,0.3,1.3,0.3c0.6,0,1-0.1,1.3-0.3
			c0.2-0.2,0.3-0.4,0.3-0.6c0-0.2-0.1-0.3-0.2-0.4c-0.1-0.1-0.4-0.2-0.8-0.3c-1.8-0.4-3-0.8-3.5-1.1c-0.7-0.5-1-1.1-1-1.9
			c0-0.7,0.3-1.4,0.9-1.9s1.5-0.8,2.7-0.8c1.2,0,2.1,0.2,2.6,0.6s1,1,1.2,1.7l-2.2,0.4c-0.1-0.3-0.3-0.6-0.5-0.8
			c-0.3-0.2-0.6-0.3-1.1-0.3c-0.6,0-1,0.1-1.3,0.3c-0.2,0.1-0.3,0.3-0.3,0.5c0,0.2,0.1,0.3,0.2,0.4c0.2,0.2,0.9,0.4,2.1,0.6
			c1.2,0.3,2.1,0.6,2.5,1c0.5,0.4,0.7,1,0.7,1.7c0,0.8-0.3,1.5-1,2c-0.7,0.6-1.6,0.9-2.9,0.9c-1.2,0-2.1-0.2-2.8-0.7
			C252.5,98,252.1,97.4,251.9,96.6z"/>
		<path id="XMLID_75_" class="st1" d="M261.4,94.6c0-0.8,0.2-1.5,0.6-2.2s0.9-1.3,1.6-1.6c0.7-0.4,1.5-0.6,2.3-0.6
			c1.3,0,2.4,0.4,3.2,1.3c0.8,0.8,1.3,1.9,1.3,3.2c0,1.3-0.4,2.4-1.3,3.2c-0.8,0.9-1.9,1.3-3.2,1.3c-0.8,0-1.5-0.2-2.3-0.5
			c-0.7-0.4-1.3-0.9-1.6-1.6S261.4,95.6,261.4,94.6z M263.7,94.7c0,0.9,0.2,1.5,0.6,2s0.9,0.7,1.5,0.7c0.6,0,1.1-0.2,1.5-0.7
			c0.4-0.5,0.6-1.1,0.6-2c0-0.8-0.2-1.5-0.6-2c-0.4-0.5-0.9-0.7-1.5-0.7c-0.6,0-1.1,0.2-1.5,0.7C263.9,93.2,263.7,93.9,263.7,94.7z"
			/>
		<path id="XMLID_78_" class="st1" d="M284.6,99h-2.1v-1.3c-0.4,0.5-0.8,0.9-1.2,1.1c-0.5,0.2-1,0.4-1.5,0.4c-1,0-1.8-0.4-2.5-1.2
			s-1.1-1.9-1.1-3.3c0-1.5,0.3-2.6,1-3.3s1.6-1.1,2.6-1.1c1,0,1.8,0.4,2.5,1.2v-4.3h2.3V99z M278.5,94.5c0,0.9,0.1,1.6,0.4,2
			c0.4,0.6,0.9,0.9,1.5,0.9c0.5,0,1-0.2,1.3-0.7c0.4-0.4,0.6-1.1,0.6-2c0-1-0.2-1.7-0.5-2.1c-0.4-0.4-0.8-0.7-1.4-0.7
			c-0.5,0-1,0.2-1.4,0.6C278.7,93,278.5,93.7,278.5,94.5z"/>
		<path id="XMLID_81_" class="st1" d="M291.9,96.3l2.3,0.4c-0.3,0.8-0.8,1.5-1.4,1.9c-0.6,0.4-1.4,0.7-2.4,0.7
			c-1.5,0-2.6-0.5-3.3-1.5c-0.6-0.8-0.9-1.8-0.9-3c0-1.4,0.4-2.6,1.1-3.4c0.7-0.8,1.7-1.2,2.8-1.2c1.3,0,2.3,0.4,3,1.3
			c0.7,0.8,1.1,2.1,1.1,3.9h-5.7c0,0.7,0.2,1.2,0.6,1.6s0.8,0.6,1.3,0.6c0.4,0,0.7-0.1,0.9-0.3C291.6,97,291.8,96.7,291.9,96.3z
			 M292,94c0-0.7-0.2-1.2-0.5-1.5s-0.7-0.5-1.2-0.5c-0.5,0-0.9,0.2-1.2,0.5c-0.3,0.4-0.5,0.9-0.5,1.5H292z"/>
		<path id="XMLID_84_" class="st1" d="M306.4,99v-1.3c-0.3,0.5-0.7,0.8-1.2,1.1c-0.5,0.3-1.1,0.4-1.6,0.4c-0.6,0-1.1-0.1-1.6-0.4
			c-0.5-0.3-0.8-0.6-1-1.1s-0.3-1.1-0.3-1.9v-5.5h2.3v4c0,1.2,0,2,0.1,2.2c0.1,0.3,0.2,0.5,0.5,0.7c0.2,0.2,0.5,0.2,0.8,0.2
			c0.4,0,0.7-0.1,1-0.3c0.3-0.2,0.5-0.5,0.6-0.8c0.1-0.3,0.2-1.1,0.2-2.3v-3.6h2.3V99H306.4z"/>
		<path id="XMLID_86_" class="st1" d="M310.1,96.6l2.3-0.3c0.1,0.4,0.3,0.8,0.6,1s0.7,0.3,1.3,0.3c0.6,0,1-0.1,1.3-0.3
			c0.2-0.2,0.3-0.4,0.3-0.6c0-0.2-0.1-0.3-0.2-0.4c-0.1-0.1-0.4-0.2-0.8-0.3c-1.8-0.4-3-0.8-3.5-1.1c-0.7-0.5-1-1.1-1-1.9
			c0-0.7,0.3-1.4,0.9-1.9s1.5-0.8,2.7-0.8c1.2,0,2.1,0.2,2.6,0.6s1,1,1.2,1.7l-2.2,0.4c-0.1-0.3-0.3-0.6-0.5-0.8
			c-0.3-0.2-0.6-0.3-1.1-0.3c-0.6,0-1,0.1-1.3,0.3c-0.2,0.1-0.3,0.3-0.3,0.5c0,0.2,0.1,0.3,0.2,0.4c0.2,0.2,0.9,0.4,2.1,0.6
			c1.2,0.3,2.1,0.6,2.5,1c0.5,0.4,0.7,1,0.7,1.7c0,0.8-0.3,1.5-1,2c-0.7,0.6-1.6,0.9-2.9,0.9c-1.2,0-2.1-0.2-2.8-0.7
			C310.8,98,310.3,97.4,310.1,96.6z"/>
		<path id="XMLID_88_" class="st1" d="M319.7,94.6c0-0.8,0.2-1.5,0.6-2.2s0.9-1.3,1.6-1.6c0.7-0.4,1.5-0.6,2.3-0.6
			c1.3,0,2.4,0.4,3.2,1.3c0.8,0.8,1.3,1.9,1.3,3.2c0,1.3-0.4,2.4-1.3,3.2c-0.8,0.9-1.9,1.3-3.2,1.3c-0.8,0-1.5-0.2-2.3-0.5
			c-0.7-0.4-1.3-0.9-1.6-1.6S319.7,95.6,319.7,94.6z M322,94.7c0,0.9,0.2,1.5,0.6,2s0.9,0.7,1.5,0.7c0.6,0,1.1-0.2,1.5-0.7
			c0.4-0.5,0.6-1.1,0.6-2c0-0.8-0.2-1.5-0.6-2c-0.4-0.5-0.9-0.7-1.5-0.7c-0.6,0-1.1,0.2-1.5,0.7C322.2,93.2,322,93.9,322,94.7z"/>
		<path id="XMLID_91_" class="st1" d="M340.3,99h-2.3v-8.6c-0.8,0.8-1.8,1.4-3,1.7v-2.1c0.6-0.2,1.2-0.6,1.9-1.1
			c0.7-0.5,1.2-1.2,1.4-1.9h1.9V99z"/>
	</g>
	<ellipse id="XMLID_17637_" cx="286.4" cy="166.4" rx="94.1" ry="25"/>
	<g id="XMLID_41_">
		<path id="XMLID_42_" class="st1" d="M239,168l2.3,0.7c-0.4,1.3-1,2.3-1.8,2.9c-0.8,0.6-1.9,0.9-3.2,0.9c-1.6,0-2.9-0.5-3.9-1.6
			s-1.5-2.6-1.5-4.4c0-2,0.5-3.5,1.5-4.6c1-1.1,2.4-1.6,4-1.6c1.5,0,2.6,0.4,3.6,1.3c0.5,0.5,0.9,1.2,1.2,2.2l-2.4,0.6
			c-0.1-0.6-0.4-1.1-0.9-1.5s-1-0.5-1.6-0.5c-0.9,0-1.6,0.3-2.1,1c-0.6,0.6-0.8,1.7-0.8,3.1c0,1.5,0.3,2.6,0.8,3.2s1.2,1,2.1,1
			c0.6,0,1.2-0.2,1.7-0.6C238.5,169.5,238.8,168.9,239,168z"/>
		<path id="XMLID_44_" class="st1" d="M245.1,166.4L243,166c0.2-0.8,0.6-1.5,1.2-1.9c0.6-0.4,1.4-0.6,2.5-0.6c1,0,1.8,0.1,2.3,0.4
			c0.5,0.2,0.8,0.5,1.1,0.9s0.3,1.1,0.3,2l0,2.7c0,0.8,0,1.3,0.1,1.7c0.1,0.4,0.2,0.7,0.4,1.2h-2.3c-0.1-0.2-0.1-0.4-0.2-0.7
			c0-0.1-0.1-0.2-0.1-0.3c-0.4,0.4-0.8,0.7-1.3,0.9s-0.9,0.3-1.4,0.3c-0.9,0-1.6-0.2-2.1-0.7s-0.8-1.1-0.8-1.8
			c0-0.5,0.1-0.9,0.3-1.3c0.2-0.4,0.6-0.7,1-0.9s1-0.4,1.8-0.5c1.1-0.2,1.8-0.4,2.2-0.6v-0.2c0-0.4-0.1-0.8-0.3-0.9
			c-0.2-0.2-0.6-0.3-1.2-0.3c-0.4,0-0.7,0.1-1,0.2S245.3,166,245.1,166.4z M248.2,168.2c-0.3,0.1-0.8,0.2-1.4,0.3
			c-0.6,0.1-1,0.3-1.2,0.4c-0.3,0.2-0.4,0.5-0.4,0.8c0,0.3,0.1,0.6,0.4,0.8c0.2,0.2,0.5,0.3,0.9,0.3c0.4,0,0.8-0.1,1.2-0.4
			c0.3-0.2,0.5-0.5,0.5-0.8c0.1-0.2,0.1-0.6,0.1-1.1V168.2z"/>
		<path id="XMLID_47_" class="st1" d="M251.9,169.9l2.3-0.3c0.1,0.4,0.3,0.8,0.6,1s0.7,0.3,1.3,0.3c0.6,0,1-0.1,1.3-0.3
			c0.2-0.2,0.3-0.4,0.3-0.6c0-0.2-0.1-0.3-0.2-0.4c-0.1-0.1-0.4-0.2-0.8-0.3c-1.8-0.4-3-0.8-3.5-1.1c-0.7-0.5-1-1.1-1-1.9
			c0-0.7,0.3-1.4,0.9-1.9c0.6-0.5,1.5-0.8,2.7-0.8c1.2,0,2.1,0.2,2.6,0.6s1,1,1.2,1.7l-2.2,0.4c-0.1-0.3-0.3-0.6-0.5-0.8
			c-0.3-0.2-0.6-0.3-1.1-0.3c-0.6,0-1,0.1-1.3,0.3c-0.2,0.1-0.3,0.3-0.3,0.5c0,0.2,0.1,0.3,0.2,0.4c0.2,0.2,0.9,0.4,2.1,0.6
			c1.2,0.3,2.1,0.6,2.5,1c0.5,0.4,0.7,1,0.7,1.7c0,0.8-0.3,1.5-1,2c-0.7,0.6-1.6,0.9-2.9,0.9c-1.2,0-2.1-0.2-2.8-0.7
			S252.1,170.7,251.9,169.9z"/>
		<path id="XMLID_49_" class="st1" d="M261.4,168c0-0.8,0.2-1.5,0.6-2.2s0.9-1.3,1.6-1.6s1.5-0.6,2.3-0.6c1.3,0,2.4,0.4,3.2,1.3
			c0.8,0.8,1.3,1.9,1.3,3.2c0,1.3-0.4,2.4-1.3,3.2c-0.8,0.9-1.9,1.3-3.2,1.3c-0.8,0-1.5-0.2-2.3-0.5s-1.3-0.9-1.6-1.6
			C261.6,169.8,261.4,168.9,261.4,168z M263.7,168.1c0,0.9,0.2,1.5,0.6,2s0.9,0.7,1.5,0.7c0.6,0,1.1-0.2,1.5-0.7
			c0.4-0.5,0.6-1.1,0.6-2c0-0.8-0.2-1.5-0.6-2c-0.4-0.5-0.9-0.7-1.5-0.7c-0.6,0-1.1,0.2-1.5,0.7S263.7,167.2,263.7,168.1z"/>
		<path id="XMLID_52_" class="st1" d="M284.6,172.4h-2.1v-1.3c-0.4,0.5-0.8,0.9-1.2,1.1s-1,0.4-1.5,0.4c-1,0-1.8-0.4-2.5-1.2
			c-0.7-0.8-1.1-1.9-1.1-3.3c0-1.5,0.3-2.6,1-3.3c0.7-0.8,1.6-1.1,2.6-1.1c1,0,1.8,0.4,2.5,1.2v-4.3h2.3V172.4z M278.5,167.9
			c0,0.9,0.1,1.6,0.4,2c0.4,0.6,0.9,0.9,1.5,0.9c0.5,0,1-0.2,1.3-0.7c0.4-0.4,0.6-1.1,0.6-2c0-1-0.2-1.7-0.5-2.1
			c-0.4-0.4-0.8-0.7-1.4-0.7c-0.5,0-1,0.2-1.4,0.6C278.7,166.4,278.5,167,278.5,167.9z"/>
		<path id="XMLID_55_" class="st1" d="M291.9,169.6l2.3,0.4c-0.3,0.8-0.8,1.5-1.4,1.9c-0.6,0.4-1.4,0.7-2.4,0.7
			c-1.5,0-2.6-0.5-3.3-1.5c-0.6-0.8-0.9-1.8-0.9-3c0-1.4,0.4-2.6,1.1-3.4c0.7-0.8,1.7-1.2,2.8-1.2c1.3,0,2.3,0.4,3,1.3
			c0.7,0.8,1.1,2.1,1.1,3.9h-5.7c0,0.7,0.2,1.2,0.6,1.6c0.4,0.4,0.8,0.6,1.3,0.6c0.4,0,0.7-0.1,0.9-0.3
			C291.6,170.4,291.8,170.1,291.9,169.6z M292,167.3c0-0.7-0.2-1.2-0.5-1.5c-0.3-0.3-0.7-0.5-1.2-0.5c-0.5,0-0.9,0.2-1.2,0.5
			s-0.5,0.9-0.5,1.5H292z"/>
		<path id="XMLID_58_" class="st1" d="M306.4,172.4v-1.3c-0.3,0.5-0.7,0.8-1.2,1.1c-0.5,0.3-1.1,0.4-1.6,0.4c-0.6,0-1.1-0.1-1.6-0.4
			c-0.5-0.3-0.8-0.6-1-1.1c-0.2-0.5-0.3-1.1-0.3-1.9v-5.5h2.3v4c0,1.2,0,2,0.1,2.2s0.2,0.5,0.5,0.7c0.2,0.2,0.5,0.2,0.8,0.2
			c0.4,0,0.7-0.1,1-0.3c0.3-0.2,0.5-0.5,0.6-0.8c0.1-0.3,0.2-1.1,0.2-2.3v-3.6h2.3v8.6H306.4z"/>
		<path id="XMLID_60_" class="st1" d="M310.1,169.9l2.3-0.3c0.1,0.4,0.3,0.8,0.6,1s0.7,0.3,1.3,0.3c0.6,0,1-0.1,1.3-0.3
			c0.2-0.2,0.3-0.4,0.3-0.6c0-0.2-0.1-0.3-0.2-0.4c-0.1-0.1-0.4-0.2-0.8-0.3c-1.8-0.4-3-0.8-3.5-1.1c-0.7-0.5-1-1.1-1-1.9
			c0-0.7,0.3-1.4,0.9-1.9c0.6-0.5,1.5-0.8,2.7-0.8c1.2,0,2.1,0.2,2.6,0.6s1,1,1.2,1.7l-2.2,0.4c-0.1-0.3-0.3-0.6-0.5-0.8
			c-0.3-0.2-0.6-0.3-1.1-0.3c-0.6,0-1,0.1-1.3,0.3c-0.2,0.1-0.3,0.3-0.3,0.5c0,0.2,0.1,0.3,0.2,0.4c0.2,0.2,0.9,0.4,2.1,0.6
			c1.2,0.3,2.1,0.6,2.5,1c0.5,0.4,0.7,1,0.7,1.7c0,0.8-0.3,1.5-1,2c-0.7,0.6-1.6,0.9-2.9,0.9c-1.2,0-2.1-0.2-2.8-0.7
			S310.3,170.7,310.1,169.9z"/>
		<path id="XMLID_62_" class="st1" d="M319.7,168c0-0.8,0.2-1.5,0.6-2.2s0.9-1.3,1.6-1.6s1.5-0.6,2.3-0.6c1.3,0,2.4,0.4,3.2,1.3
			c0.8,0.8,1.3,1.9,1.3,3.2c0,1.3-0.4,2.4-1.3,3.2c-0.8,0.9-1.9,1.3-3.2,1.3c-0.8,0-1.5-0.2-2.3-0.5s-1.3-0.9-1.6-1.6
			C319.9,169.8,319.7,168.9,319.7,168z M322,168.1c0,0.9,0.2,1.5,0.6,2s0.9,0.7,1.5,0.7c0.6,0,1.1-0.2,1.5-0.7
			c0.4-0.5,0.6-1.1,0.6-2c0-0.8-0.2-1.5-0.6-2c-0.4-0.5-0.9-0.7-1.5-0.7c-0.6,0-1.1,0.2-1.5,0.7S322,167.2,322,168.1z"/>
		<path id="XMLID_65_" class="st1" d="M342.2,170.3v2.1h-8c0.1-0.8,0.3-1.6,0.8-2.3c0.4-0.7,1.3-1.7,2.6-2.9c1-1,1.7-1.6,1.9-2
			c0.3-0.5,0.5-0.9,0.5-1.4c0-0.5-0.1-0.9-0.4-1.2s-0.7-0.4-1.1-0.4c-0.5,0-0.9,0.1-1.1,0.4c-0.3,0.3-0.4,0.8-0.5,1.4l-2.3-0.2
			c0.1-1.3,0.6-2.2,1.3-2.7c0.7-0.5,1.6-0.8,2.7-0.8c1.2,0,2.1,0.3,2.8,1s1,1.4,1,2.4c0,0.5-0.1,1-0.3,1.5c-0.2,0.5-0.5,1-0.9,1.5
			c-0.3,0.4-0.8,0.9-1.5,1.5c-0.7,0.7-1.2,1.1-1.4,1.3s-0.3,0.4-0.5,0.6H342.2z"/>
	</g>
	<ellipse id="XMLID_17644_" cx="286.4" cy="239.7" rx="94.1" ry="25"/>
	<g id="XMLID_2_">
		<path id="XMLID_3_" class="st1" d="M241.3,241.4l2.3,0.7c-0.4,1.3-1,2.3-1.8,2.9c-0.8,0.6-1.9,0.9-3.2,0.9c-1.6,0-2.9-0.5-3.9-1.6
			s-1.5-2.6-1.5-4.4c0-2,0.5-3.5,1.5-4.6c1-1.1,2.4-1.6,4-1.6c1.5,0,2.6,0.4,3.6,1.3c0.5,0.5,0.9,1.2,1.2,2.2l-2.4,0.6
			c-0.1-0.6-0.4-1.1-0.9-1.5s-1-0.5-1.6-0.5c-0.9,0-1.6,0.3-2.1,1c-0.6,0.6-0.8,1.7-0.8,3.1c0,1.5,0.3,2.6,0.8,3.2s1.2,1,2.1,1
			c0.6,0,1.2-0.2,1.7-0.6C240.8,242.9,241.1,242.2,241.3,241.4z"/>
		<path id="XMLID_5_" class="st1" d="M247.4,239.8l-2.1-0.4c0.2-0.8,0.6-1.5,1.2-1.9c0.6-0.4,1.4-0.6,2.5-0.6c1,0,1.8,0.1,2.3,0.4
			c0.5,0.2,0.8,0.5,1.1,0.9s0.3,1.1,0.3,2l0,2.7c0,0.8,0,1.3,0.1,1.7c0.1,0.4,0.2,0.7,0.4,1.2H251c-0.1-0.2-0.1-0.4-0.2-0.7
			c0-0.1-0.1-0.2-0.1-0.3c-0.4,0.4-0.8,0.7-1.3,0.9s-0.9,0.3-1.4,0.3c-0.9,0-1.6-0.2-2.1-0.7s-0.8-1.1-0.8-1.8
			c0-0.5,0.1-0.9,0.3-1.3c0.2-0.4,0.6-0.7,1-0.9s1-0.4,1.8-0.5c1.1-0.2,1.8-0.4,2.2-0.6v-0.2c0-0.4-0.1-0.8-0.3-0.9
			c-0.2-0.2-0.6-0.3-1.2-0.3c-0.4,0-0.7,0.1-1,0.2S247.6,239.4,247.4,239.8z M250.5,241.6c-0.3,0.1-0.8,0.2-1.4,0.3
			c-0.6,0.1-1,0.3-1.2,0.4c-0.3,0.2-0.4,0.5-0.4,0.8c0,0.3,0.1,0.6,0.4,0.8c0.2,0.2,0.5,0.3,0.9,0.3c0.4,0,0.8-0.1,1.2-0.4
			c0.3-0.2,0.5-0.5,0.5-0.8c0.1-0.2,0.1-0.6,0.1-1.1V241.6z"/>
		<path id="XMLID_8_" class="st1" d="M254.2,243.3l2.3-0.3c0.1,0.4,0.3,0.8,0.6,1s0.7,0.3,1.3,0.3c0.6,0,1-0.1,1.3-0.3
			c0.2-0.2,0.3-0.4,0.3-0.6c0-0.2-0.1-0.3-0.2-0.4c-0.1-0.1-0.4-0.2-0.8-0.3c-1.8-0.4-3-0.8-3.5-1.1c-0.7-0.5-1-1.1-1-1.9
			c0-0.7,0.3-1.4,0.9-1.9c0.6-0.5,1.5-0.8,2.7-0.8c1.2,0,2.1,0.2,2.6,0.6s1,1,1.2,1.7l-2.2,0.4c-0.1-0.3-0.3-0.6-0.5-0.8
			c-0.3-0.2-0.6-0.3-1.1-0.3c-0.6,0-1,0.1-1.3,0.3c-0.2,0.1-0.3,0.3-0.3,0.5c0,0.2,0.1,0.3,0.2,0.4c0.2,0.2,0.9,0.4,2.1,0.6
			c1.2,0.3,2.1,0.6,2.5,1c0.5,0.4,0.7,1,0.7,1.7c0,0.8-0.3,1.5-1,2c-0.7,0.6-1.6,0.9-2.9,0.9c-1.2,0-2.1-0.2-2.8-0.7
			S254.4,244.1,254.2,243.3z"/>
		<path id="XMLID_10_" class="st1" d="M263.7,241.3c0-0.8,0.2-1.5,0.6-2.2s0.9-1.3,1.6-1.6s1.5-0.6,2.3-0.6c1.3,0,2.4,0.4,3.2,1.3
			c0.8,0.8,1.3,1.9,1.3,3.2c0,1.3-0.4,2.4-1.3,3.2c-0.8,0.9-1.9,1.3-3.2,1.3c-0.8,0-1.5-0.2-2.3-0.5s-1.3-0.9-1.6-1.6
			C263.9,243.1,263.7,242.3,263.7,241.3z M266.1,241.4c0,0.9,0.2,1.5,0.6,2s0.9,0.7,1.5,0.7c0.6,0,1.1-0.2,1.5-0.7
			c0.4-0.5,0.6-1.1,0.6-2c0-0.8-0.2-1.5-0.6-2c-0.4-0.5-0.9-0.7-1.5-0.7c-0.6,0-1.1,0.2-1.5,0.7S266.1,240.6,266.1,241.4z"/>
		<path id="XMLID_13_" class="st1" d="M286.9,245.8h-2.1v-1.3c-0.4,0.5-0.8,0.9-1.2,1.1s-1,0.4-1.5,0.4c-1,0-1.8-0.4-2.5-1.2
			c-0.7-0.8-1.1-1.9-1.1-3.3c0-1.5,0.3-2.6,1-3.3c0.7-0.8,1.6-1.1,2.6-1.1c1,0,1.8,0.4,2.5,1.2v-4.3h2.3V245.8z M280.9,241.2
			c0,0.9,0.1,1.6,0.4,2c0.4,0.6,0.9,0.9,1.5,0.9c0.5,0,1-0.2,1.3-0.7c0.4-0.4,0.6-1.1,0.6-2c0-1-0.2-1.7-0.5-2.1
			c-0.4-0.4-0.8-0.7-1.4-0.7c-0.5,0-1,0.2-1.4,0.6C281,239.7,280.9,240.4,280.9,241.2z"/>
		<path id="XMLID_28_" class="st1" d="M294.2,243l2.3,0.4c-0.3,0.8-0.8,1.5-1.4,1.9c-0.6,0.4-1.4,0.7-2.4,0.7
			c-1.5,0-2.6-0.5-3.3-1.5c-0.6-0.8-0.9-1.8-0.9-3c0-1.4,0.4-2.6,1.1-3.4c0.7-0.8,1.7-1.2,2.8-1.2c1.3,0,2.3,0.4,3,1.3
			c0.7,0.8,1.1,2.1,1.1,3.9h-5.7c0,0.7,0.2,1.2,0.6,1.6c0.4,0.4,0.8,0.6,1.3,0.6c0.4,0,0.7-0.1,0.9-0.3
			C293.9,243.8,294.1,243.4,294.2,243z M294.3,240.7c0-0.7-0.2-1.2-0.5-1.5c-0.3-0.3-0.7-0.5-1.2-0.5c-0.5,0-0.9,0.2-1.2,0.5
			s-0.5,0.9-0.5,1.5H294.3z"/>
		<path id="XMLID_31_" class="st1" d="M308.8,245.8v-1.3c-0.3,0.5-0.7,0.8-1.2,1.1c-0.5,0.3-1.1,0.4-1.6,0.4c-0.6,0-1.1-0.1-1.6-0.4
			c-0.5-0.3-0.8-0.6-1-1.1c-0.2-0.5-0.3-1.1-0.3-1.9v-5.5h2.3v4c0,1.2,0,2,0.1,2.2s0.2,0.5,0.5,0.7c0.2,0.2,0.5,0.2,0.8,0.2
			c0.4,0,0.7-0.1,1-0.3c0.3-0.2,0.5-0.5,0.6-0.8c0.1-0.3,0.2-1.1,0.2-2.3v-3.6h2.3v8.6H308.8z"/>
		<path id="XMLID_33_" class="st1" d="M312.4,243.3l2.3-0.3c0.1,0.4,0.3,0.8,0.6,1s0.7,0.3,1.3,0.3c0.6,0,1-0.1,1.3-0.3
			c0.2-0.2,0.3-0.4,0.3-0.6c0-0.2-0.1-0.3-0.2-0.4c-0.1-0.1-0.4-0.2-0.8-0.3c-1.8-0.4-3-0.8-3.5-1.1c-0.7-0.5-1-1.1-1-1.9
			c0-0.7,0.3-1.4,0.9-1.9c0.6-0.5,1.5-0.8,2.7-0.8c1.2,0,2.1,0.2,2.6,0.6s1,1,1.2,1.7l-2.2,0.4c-0.1-0.3-0.3-0.6-0.5-0.8
			c-0.3-0.2-0.6-0.3-1.1-0.3c-0.6,0-1,0.1-1.3,0.3c-0.2,0.1-0.3,0.3-0.3,0.5c0,0.2,0.1,0.3,0.2,0.4c0.2,0.2,0.9,0.4,2.1,0.6
			c1.2,0.3,2.1,0.6,2.5,1c0.5,0.4,0.7,1,0.7,1.7c0,0.8-0.3,1.5-1,2c-0.7,0.6-1.6,0.9-2.9,0.9c-1.2,0-2.1-0.2-2.8-0.7
			S312.7,244.1,312.4,243.3z"/>
		<path id="XMLID_35_" class="st1" d="M322,241.3c0-0.8,0.2-1.5,0.6-2.2s0.9-1.3,1.6-1.6s1.5-0.6,2.3-0.6c1.3,0,2.4,0.4,3.2,1.3
			c0.8,0.8,1.3,1.9,1.3,3.2c0,1.3-0.4,2.4-1.3,3.2c-0.8,0.9-1.9,1.3-3.2,1.3c-0.8,0-1.5-0.2-2.3-0.5s-1.3-0.9-1.6-1.6
			C322.2,243.1,322,242.3,322,241.3z M324.3,241.4c0,0.9,0.2,1.5,0.6,2s0.9,0.7,1.5,0.7c0.6,0,1.1-0.2,1.5-0.7
			c0.4-0.5,0.6-1.1,0.6-2c0-0.8-0.2-1.5-0.6-2c-0.4-0.5-0.9-0.7-1.5-0.7c-0.6,0-1.1,0.2-1.5,0.7S324.3,240.6,324.3,241.4z"/>
		<path id="XMLID_38_" class="st1" d="M337.3,235.9v-2.1h2.3v2.1H337.3z M337.3,245.8v-8.6h2.3v8.6H337.3z"/>
	</g>
	<g id="XMLID_1004_">
		<line id="XMLID_26_" class="st1" x1="524.5" y1="53.2" x2="451.2" y2="66"/>
		<g id="XMLID_22_">
			<line id="XMLID_25_" class="st5" x1="524.5" y1="53.2" x2="461.7" y2="64.1"/>
			<g id="XMLID_23_">
				<polygon id="XMLID_24_" class="st6" points="451.2,66 464.9,57.4 462.5,64 467,69.4 				"/>
			</g>
		</g>
	</g>
	<g id="XMLID_1006_">
		<line id="XMLID_20_" class="st1" x1="524.5" y1="251.1" x2="451.2" y2="238.3"/>
		<g id="XMLID_16_">
			<line id="XMLID_19_" class="st5" x1="524.5" y1="251.1" x2="461.7" y2="240.1"/>
			<g id="XMLID_17_">
				<polygon id="XMLID_18_" class="st6" points="451.2,238.3 467,234.8 462.5,240.2 464.9,246.9 				"/>
			</g>
		</g>
	</g>
</g>
</svg>
