<?xml version="1.0" encoding="utf-8"?>
<!-- Generator: Adobe Illustrator 19.0.0, SVG Export Plug-In . SVG Version: 6.00 Build 0)  -->
<svg version="1.1" id="Capa_1" xmlns="http://www.w3.org/2000/svg" xmlns:xlink="http://www.w3.org/1999/xlink" x="0px" y="0px"
	 viewBox="0 0 50 50.1" style="enable-background:new 0 0 50 50.1;" xml:space="preserve">
<style type="text/css">
	.st0{clip-path:url(#XMLID_61_);fill:#F9D523;}
	.st1{clip-path:url(#XMLID_61_);}
</style>
<g id="XMLID_51_">
	<g id="XMLID_1206_">
		<defs>
			<rect id="XMLID_1207_" x="0" width="50" height="50.1"/>
		</defs>
		<clipPath id="XMLID_61_">
			<use xlink:href="#XMLID_1207_"  style="overflow:visible;"/>
		</clipPath>
		<path id="XMLID_1221_" class="st0" d="M29.3,35.6c-5.8,2.4-12.5-0.4-15-6.2c-2.4-5.8,0.4-12.5,6.2-15c5.8-2.4,12.5,0.4,15,6.2
			S35.2,33.1,29.3,35.6L29.3,35.6z M29.3,35.6"/>
		<path id="XMLID_1218_" class="st1" d="M25,9.9c0.5,0,0.9-0.4,0.9-0.9V3.2L28,5.2c0.2,0.2,0.4,0.3,0.7,0.3c0.2,0,0.5-0.1,0.7-0.3
			c0.4-0.4,0.4-0.9,0-1.3l-3.6-3.6c-0.4-0.4-0.9-0.4-1.3,0l-3.6,3.6c-0.4,0.4-0.4,0.9,0,1.3c0.4,0.4,0.9,0.4,1.3,0L24,3.2V9
			C24,9.5,24.5,9.9,25,9.9L25,9.9z M25,9.9"/>
		<path id="XMLID_1214_" class="st1" d="M25,40.1c-0.5,0-0.9,0.4-0.9,0.9v5.8L22,44.7c-0.4-0.4-0.9-0.4-1.3,0
			c-0.4,0.4-0.4,0.9,0,1.3l3.6,3.6c0.2,0.2,0.4,0.3,0.7,0.3c0.2,0,0.5-0.1,0.7-0.3l3.6-3.6c0.4-0.4,0.4-0.9,0-1.3
			c-0.4-0.4-0.9-0.4-1.3,0l-2.1,2.1V41C25.9,40.5,25.5,40.1,25,40.1L25,40.1z M25,40.1"/>
		<path id="XMLID_1211_" class="st1" d="M9.9,25c0-0.5-0.4-0.9-0.9-0.9H3.2L5.2,22c0.4-0.4,0.4-0.9,0-1.3c-0.4-0.4-0.9-0.4-1.3,0
			l-3.6,3.6c-0.4,0.4-0.4,0.9,0,1.3l3.6,3.6c0.2,0.2,0.4,0.3,0.7,0.3c0.2,0,0.5-0.1,0.7-0.3c0.4-0.4,0.4-0.9,0-1.3l-2.1-2.1H9
			C9.5,25.9,9.9,25.5,9.9,25L9.9,25z M9.9,25"/>
		<path id="XMLID_1208_" class="st1" d="M46,20.7c-0.4-0.4-0.9-0.4-1.3,0c-0.4,0.4-0.4,0.9,0,1.3l2.1,2.1H41c-0.5,0-0.9,0.4-0.9,0.9
			s0.4,0.9,0.9,0.9h5.8L44.7,28c-0.4,0.4-0.4,0.9,0,1.3c0.2,0.2,0.4,0.3,0.7,0.3c0.2,0,0.5-0.1,0.7-0.3l3.6-3.6
			c0.4-0.4,0.4-0.9,0-1.3L46,20.7z M46,20.7"/>
	</g>
	<path id="XMLID_1203_" d="M7,8v5.2c0,0.5,0.4,0.9,0.9,0.9s0.9-0.4,0.9-0.9v-2.9l4.1,4.1c0.2,0.2,0.4,0.3,0.7,0.3
		c0.2,0,0.5-0.1,0.7-0.3c0.4-0.4,0.4-0.9,0-1.3l-4.1-4.1h2.9C13.6,8.9,14,8.5,14,8C14,7.5,13.6,7,13.1,7H8C7.5,7,7,7.5,7,8L7,8z
		 M7,8"/>
	<path id="XMLID_1200_" d="M35.9,42c0,0.5,0.4,0.9,0.9,0.9H42c0.5,0,0.9-0.4,0.9-0.9v-5.2c0-0.5-0.4-0.9-0.9-0.9
		c-0.5,0-0.9,0.4-0.9,0.9v2.9l-4.1-4.1c-0.4-0.4-0.9-0.4-1.3,0c-0.4,0.4-0.4,0.9,0,1.3l4.1,4.1h-2.9C36.3,41.1,35.9,41.5,35.9,42
		L35.9,42z M35.9,42"/>
	<path id="XMLID_1197_" d="M14.3,35.6c-0.4-0.4-0.9-0.4-1.3,0l-4.1,4.1v-2.9c0-0.5-0.4-0.9-0.9-0.9c-0.5,0-0.9,0.4-0.9,0.9V42
		c0,0.5,0.4,0.9,0.9,0.9h5.2c0.5,0,0.9-0.4,0.9-0.9c0-0.5-0.4-0.9-0.9-0.9h-2.9l4.1-4.1C14.7,36.6,14.7,36,14.3,35.6L14.3,35.6z
		 M14.3,35.6"/>
	<path id="XMLID_1194_" d="M42,14c0.5,0,0.9-0.4,0.9-0.9V8C42.9,7.5,42.5,7,42,7h-5.2c-0.5,0-0.9,0.4-0.9,0.9c0,0.5,0.4,0.9,0.9,0.9
		h2.9L35.6,13c-0.4,0.4-0.4,0.9,0,1.3c0.2,0.2,0.4,0.3,0.7,0.3s0.5-0.1,0.7-0.3l4.1-4.1v2.9C41.1,13.6,41.5,14,42,14L42,14z M42,14"
		/>
	<path id="XMLID_52_" d="M25,12.6c-1.6,0-3.2,0.3-4.7,0.9c-6.3,2.6-9.3,9.9-6.7,16.2c1.9,4.6,6.4,7.6,11.4,7.6
		c1.6,0,3.2-0.3,4.7-0.9c6.3-2.6,9.3-9.9,6.7-16.2C34.5,15.6,30,12.6,25,12.6L25,12.6z M15,28.4c-0.8-2.3-0.7-4.7,0-6.9h2.9
		c-0.2,1.1-0.3,2.3-0.3,3.4c0,1.1,0.1,2.3,0.4,3.5H15z M19.4,25c0-1.2,0.1-2.3,0.4-3.4H24v6.9h-4.2C19.6,27.3,19.4,26.1,19.4,25
		L19.4,25z M25.9,14.7c1.6,0.5,3,2.5,3.9,5h-3.9V14.7z M24,14.7v5h-3.7C21.2,17.2,22.5,15.3,24,14.7L24,14.7z M24,30.3v4.9
		c-1.4-0.6-2.7-2.6-3.6-4.9H24z M25.9,35.2v-5h3.7C28.7,32.7,27.4,34.7,25.9,35.2L25.9,35.2z M25.9,28.4v-6.9h4.4
		c0.2,1.1,0.4,2.3,0.4,3.4c0,1.1-0.2,2.3-0.4,3.5H25.9z M32.1,21.5h2.8c0.8,2.3,0.7,4.7,0,6.9h-2.8c0.3-1.2,0.4-2.4,0.4-3.5
		C32.5,23.8,32.4,22.7,32.1,21.5L32.1,21.5z M34.1,19.7h-2.4c-0.3-1.1-0.7-2.1-1.2-3c-0.2-0.4-0.4-0.7-0.7-1
		C31.6,16.5,33,17.9,34.1,19.7L34.1,19.7z M20.3,15.5c-0.2,0.3-0.5,0.7-0.7,1.1c-0.5,0.9-0.9,1.9-1.2,3h-2.5
		C16.9,17.9,18.4,16.5,20.3,15.5L20.3,15.5z M15.9,30.3h2.6c0.5,1.6,1.2,3.1,2.1,4.3C18.7,33.7,17,32.2,15.9,30.3L15.9,30.3z
		 M29.5,34.5c0.9-1.2,1.6-2.7,2.1-4.2h2.5C33,32.1,31.5,33.5,29.5,34.5L29.5,34.5z M29.5,34.5"/>
</g>
</svg>
