<?xml version="1.0" encoding="utf-8"?>
<!-- Generator: Adobe Illustrator 19.0.0, SVG Export Plug-In . SVG Version: 6.00 Build 0)  -->
<svg version="1.1" id="Capa_1" xmlns="http://www.w3.org/2000/svg" xmlns:xlink="http://www.w3.org/1999/xlink" x="0px" y="0px"
	 viewBox="0 0 49.8 46.2" style="enable-background:new 0 0 49.8 46.2;" xml:space="preserve">
<style type="text/css">
	.st0{fill:#A7A9AC;}
	.st1{fill:#F9D523;}
</style>
<g id="XMLID_2450_">
	<path id="XMLID_2476_" class="st0" d="M42.7,37.2H1.9c-0.5,0-0.9-0.4-0.9-0.9v-5.4h42.7v5.4C43.7,36.8,43.2,37.2,42.7,37.2
		L42.7,37.2z M42.7,37.2"/>
	<path id="XMLID_2473_" class="st1" d="M45.9,0.9H28.1c-1.6,0-2.9,1.3-2.9,2.9v10.9c0,1.6,1.3,2.9,2.9,2.9h2.3v5.2l5.4-5.2h10.1
		c1.6,0,2.9-1.3,2.9-2.9V3.9C48.9,2.2,47.6,0.9,45.9,0.9L45.9,0.9z M45.9,0.9"/>
	<path id="XMLID_2467_" d="M43.7,20.5c-0.5,0-0.9,0.4-0.9,0.9v8.9H1.8V10.1c0-1.1,0.9-2,2-2h17.7c0.5,0,0.9-0.4,0.9-0.9
		c0-0.5-0.4-0.9-0.9-0.9H3.9C1.7,6.2,0,7.9,0,10.1v24.4c0,2.1,1.7,3.9,3.9,3.9h17.5v6h-8.2c-0.5,0-0.9,0.4-0.9,0.9
		c0,0.5,0.4,0.9,0.9,0.9h18.3c0.5,0,0.9-0.4,0.9-0.9c0-0.5-0.4-0.9-0.9-0.9h-8.2v-6h17.5c2.1,0,3.9-1.7,3.9-3.9v-13
		C44.6,20.9,44.2,20.5,43.7,20.5L43.7,20.5z M40.7,36.5H3.9c-1.1,0-2-0.9-2-2v-2.3h40.9v2.3C42.7,35.6,41.8,36.5,40.7,36.5
		L40.7,36.5z M40.7,36.5"/>
	<path id="XMLID_2462_" d="M45.9,0H28.1c-2.1,0-3.9,1.7-3.9,3.9v10.9c0,2.1,1.7,3.9,3.9,3.9h1.4v4.3c0,0.4,0.2,0.7,0.6,0.8
		c0.1,0.1,0.2,0.1,0.4,0.1c0.2,0,0.5-0.1,0.6-0.3l5.2-4.9h9.7c2.1,0,3.9-1.7,3.9-3.9V3.9C49.8,1.7,48.1,0,45.9,0L45.9,0z M47.9,14.7
		c0,1.1-0.9,2-2,2H35.8c-0.2,0-0.5,0.1-0.6,0.3l-3.9,3.7v-3c0-0.2-0.1-0.5-0.3-0.7c-0.2-0.2-0.4-0.3-0.7-0.3h-2.3c-1.1,0-2-0.9-2-2
		V3.9c0-1.1,0.9-2,2-2h17.8c1.1,0,2,0.9,2,2L47.9,14.7L47.9,14.7z M47.9,14.7"/>
	<path id="XMLID_2458_" d="M37,8.7c-0.2,0-0.5,0.1-0.7,0.3c-0.2,0.2-0.3,0.4-0.3,0.7c0,0.2,0.1,0.5,0.3,0.7c0.2,0.2,0.4,0.3,0.7,0.3
		c0.2,0,0.5-0.1,0.7-0.3c0.2-0.2,0.3-0.4,0.3-0.7c0-0.2-0.1-0.5-0.3-0.7C37.5,8.8,37.3,8.7,37,8.7L37,8.7z M37,8.7"/>
	<path id="XMLID_2454_" d="M40.5,8.7c-0.2,0-0.5,0.1-0.7,0.3c-0.2,0.2-0.3,0.4-0.3,0.7c0,0.2,0.1,0.5,0.3,0.7
		c0.2,0.2,0.4,0.3,0.7,0.3c0.2,0,0.5-0.1,0.7-0.3c0.2-0.2,0.3-0.4,0.3-0.7c0-0.2-0.1-0.5-0.3-0.7C40.9,8.8,40.7,8.7,40.5,8.7
		L40.5,8.7z M40.5,8.7"/>
	<path id="XMLID_2451_" d="M33.6,8.7c-0.2,0-0.5,0.1-0.7,0.3c-0.2,0.2-0.3,0.4-0.3,0.7c0,0.2,0.1,0.5,0.3,0.7
		c0.2,0.2,0.4,0.3,0.7,0.3c0.2,0,0.5-0.1,0.7-0.3c0.2-0.2,0.3-0.4,0.3-0.7c0-0.2-0.1-0.5-0.3-0.7C34.1,8.8,33.8,8.7,33.6,8.7
		L33.6,8.7z M33.6,8.7"/>
</g>
</svg>
