<?xml version="1.0" encoding="utf-8"?>
<!-- Generator: Adobe Illustrator 19.0.0, SVG Export Plug-In . SVG Version: 6.00 Build 0)  -->
<svg version="1.1" id="Capa_1" xmlns="http://www.w3.org/2000/svg" xmlns:xlink="http://www.w3.org/1999/xlink" x="0px" y="0px"
	 viewBox="0 0 50 40.4" style="enable-background:new 0 0 50 40.4;" xml:space="preserve">
<style type="text/css">
	.st0{fill:#F9D523;}
</style>
<g id="XMLID_19648_">
	<path id="XMLID_19662_" class="st0" d="M34.7,16.8H15.3c-0.7,0-1.2-0.6-1.2-1.2V2.1c0-0.7,0.6-1.2,1.2-1.2h19.4
		c0.7,0,1.2,0.6,1.2,1.2v13.4C35.9,16.3,35.4,16.8,34.7,16.8L34.7,16.8z M34.7,16.8"/>
	<path id="XMLID_19655_" d="M2.6,40.4h9.3c1.4,0,2.6-1.2,2.6-2.6v-5c0-1.4-1.2-2.6-2.6-2.6H8.2v-4.4c0-0.8,0.6-1.4,1.4-1.4h14.5v5.8
		h-3.7c-1.4,0-2.6,1.2-2.6,2.6v5c0,1.4,1.2,2.6,2.6,2.6h9.3c1.4,0,2.6-1.2,2.6-2.6v-5c0-1.4-1.2-2.6-2.6-2.6h-3.7v-5.8h14.5
		c0.8,0,1.4,0.6,1.4,1.4v4.4h-3.7c-1.4,0-2.6,1.2-2.6,2.6v5c0,1.4,1.2,2.6,2.6,2.6h9.3c1.4,0,2.6-1.2,2.6-2.6v-5
		c0-1.4-1.2-2.6-2.6-2.6h-3.7v-4.4c0-1.8-1.5-3.2-3.2-3.2H25.9v-4.8h7.5c1.9,0,3.4-1.5,3.4-3.4v-11c0-1.9-1.5-3.4-3.4-3.4H16.5
		c-1.9,0-3.4,1.5-3.4,3.4v11c0,1.9,1.5,3.4,3.4,3.4h7.5v4.8H9.6c-1.8,0-3.2,1.5-3.2,3.2v4.4H2.6c-1.4,0-2.6,1.2-2.6,2.6v5
		C0,39.2,1.2,40.4,2.6,40.4L2.6,40.4z M30.4,32.7v5c0,0.4-0.3,0.7-0.7,0.7h-9.3c-0.4,0-0.7-0.3-0.7-0.7v-5c0-0.4,0.3-0.7,0.7-0.7
		h9.3C30,32,30.4,32.3,30.4,32.7L30.4,32.7z M48.1,32.7v5c0,0.4-0.3,0.7-0.7,0.7h-9.3c-0.4,0-0.7-0.3-0.7-0.7v-5
		c0-0.4,0.3-0.7,0.7-0.7h9.3C47.8,32,48.1,32.3,48.1,32.7L48.1,32.7z M15,14.3v-11c0-0.8,0.7-1.5,1.5-1.5h16.9
		c0.8,0,1.5,0.7,1.5,1.5v11c0,0.8-0.7,1.5-1.5,1.5H16.5C15.6,15.9,15,15.2,15,14.3L15,14.3z M1.8,32.7c0-0.4,0.3-0.7,0.7-0.7h9.3
		c0.4,0,0.7,0.3,0.7,0.7v5c0,0.4-0.3,0.7-0.7,0.7H2.6c-0.4,0-0.7-0.3-0.7-0.7V32.7z M1.8,32.7"/>
	<path id="XMLID_19652_" d="M20.1,7.6h9.7c0.5,0,0.9-0.4,0.9-0.9c0-0.5-0.4-0.9-0.9-0.9h-9.7c-0.5,0-0.9,0.4-0.9,0.9
		C19.2,7.2,19.6,7.6,20.1,7.6L20.1,7.6z M20.1,7.6"/>
	<path id="XMLID_19649_" d="M30.8,11c0-0.5-0.4-0.9-0.9-0.9h-9.7c-0.5,0-0.9,0.4-0.9,0.9c0,0.5,0.4,0.9,0.9,0.9h9.7
		C30.3,11.9,30.8,11.5,30.8,11L30.8,11z M30.8,11"/>
</g>
</svg>
