<?xml version="1.0" encoding="utf-8"?>
<!-- Generator: Adobe Illustrator 19.0.0, SVG Export Plug-In . SVG Version: 6.00 Build 0)  -->
<svg version="1.1" id="Capa_1" xmlns="http://www.w3.org/2000/svg" xmlns:xlink="http://www.w3.org/1999/xlink" x="0px" y="0px"
	 viewBox="0 0 50.1 49.7" style="enable-background:new 0 0 50.1 49.7;" xml:space="preserve">
<style type="text/css">
	.st0{clip-path:url(#XMLID_54_);fill:#F9D523;}
	.st1{clip-path:url(#XMLID_54_);}
</style>
<g id="XMLID_15045_">
	<g id="XMLID_15109_">
		<defs>
			<rect id="XMLID_15112_" x="0" y="0" width="50.1" height="49.7"/>
		</defs>
		<clipPath id="XMLID_54_">
			<use xlink:href="#XMLID_15112_"  style="overflow:visible;"/>
		</clipPath>
		<path id="XMLID_15117_" class="st0" d="M22.6,16.9h1.8c0.3,1.4,0.9,2.8,1.6,4l-1.3,1.3c-0.5,0.5-0.5,1.2,0,1.7l1.4,1.4
			c0.5,0.5,1.2,0.5,1.7,0l1.3-1.3c1.2,0.8,2.5,1.4,4,1.6v1.8c0,0.7,0.5,1.2,1.2,1.2h2c0.7,0,1.2-0.5,1.2-1.2v-1.8
			c1.4-0.3,2.8-0.9,4-1.6l1.3,1.3c0.5,0.5,1.2,0.5,1.7,0l1.4-1.4c0.5-0.5,0.5-1.2,0-1.7l-1.3-1.3c0.8-1.2,1.4-2.5,1.6-4h1.8
			c0.7,0,1.2-0.5,1.2-1.2v-2c0-0.7-0.5-1.2-1.2-1.2h-1.8c-0.3-1.4-0.9-2.8-1.6-4l1.3-1.3c0.5-0.5,0.5-1.2,0-1.7l-1.4-1.4
			c-0.5-0.5-1.2-0.5-1.7,0l-1.3,1.3c-1.2-0.8-2.5-1.4-4-1.6V2.1c0-0.7-0.5-1.2-1.2-1.2h-2c-0.7,0-1.2,0.5-1.2,1.2v1.8
			c-1.4,0.3-2.8,0.9-4,1.6l-1.3-1.3c-0.5-0.5-1.2-0.5-1.7,0l-1.4,1.4c-0.5,0.5-0.5,1.2,0,1.7l1.3,1.3c-0.8,1.2-1.4,2.5-1.6,4h-1.8
			c-0.7,0-1.2,0.5-1.2,1.2v2C21.4,16.4,22,16.9,22.6,16.9L22.6,16.9z M35.2,9.8c2.8,0,5,2.2,5,5c0,2.8-2.2,5-5,5c-2.8,0-5-2.2-5-5
			C30.2,12,32.5,9.8,35.2,9.8L35.2,9.8z M35.2,9.8"/>
		<path id="XMLID_15113_" class="st1" d="M35.3,38.6c-0.1,0.4-0.6,0.5-0.9,0.4l-2.3-1c-0.4-0.2-0.9,0-1.1,0.3
			c-1,1.6-2.4,2.9-3.9,3.9c-0.4,0.2-0.5,0.7-0.3,1.1l0.9,2.3c0.1,0.3,0,0.8-0.4,0.9l-2.5,1.1c-0.3,0.1-0.8,0-0.9-0.4l-1-2.3
			c-0.2-0.4-0.6-0.6-1-0.6c-1.8,0.4-3.7,0.4-5.5,0c-0.4-0.1-0.9,0.1-1,0.6l-1,2.3c-0.1,0.3-0.6,0.5-0.9,0.4l-2.5-1
			c-0.2-0.1-0.3-0.2-0.4-0.4c-0.1-0.2-0.1-0.4,0-0.5l1-2.3c0.2-0.4,0-0.9-0.3-1.1c-1.6-1-2.9-2.4-3.9-3.9C7,38,6.6,37.9,6.2,38
			l-2.3,1c-0.4,0.1-0.8,0-0.9-0.4l-1-2.5c-0.1-0.3,0-0.8,0.4-0.9l2.3-1c0.4-0.2,0.6-0.6,0.6-1c-0.4-1.8-0.4-3.7,0-5.5
			c0.1-0.4-0.1-0.9-0.6-1l-2.3-1c-0.2-0.1-0.3-0.2-0.4-0.4c-0.1-0.2-0.1-0.4,0-0.5l1-2.5C3,22.1,3.2,22,3.3,21.9
			c0.2-0.1,0.4-0.1,0.5,0l2.3,1c0.4,0.2,0.9,0,1.1-0.3c1-1.6,2.4-2.9,3.9-3.9c0.4-0.2,0.5-0.7,0.3-1.1l-1-2.3
			c-0.1-0.2-0.1-0.4,0-0.5c0.1-0.2,0.2-0.3,0.4-0.4l2.5-1c0.3-0.1,0.8,0,0.9,0.4l1,2.3c0.2,0.5,0.7,0.7,1.2,0.5
			c0.5-0.2,0.7-0.7,0.5-1.2l-1-2.3c-0.5-1.3-2-1.9-3.3-1.4l-2.5,1c-0.6,0.3-1.1,0.7-1.4,1.4c-0.3,0.6-0.3,1.3,0,1.9l0.7,1.6
			c-1.3,0.9-2.4,2.1-3.4,3.4l-1.6-0.7c-0.6-0.3-1.3-0.3-1.9,0c-0.6,0.3-1.1,0.7-1.4,1.4l-1,2.5c-0.3,0.6-0.3,1.3,0,1.9
			c0.3,0.6,0.7,1.1,1.4,1.4l1.6,0.7c-0.2,1.6-0.2,3.2,0,4.8l-1.6,0.7c-1.3,0.5-1.9,2-1.4,3.3l1,2.5c0.5,1.3,2,1.9,3.3,1.4L6.2,40
			c0.9,1.3,2.1,2.4,3.4,3.4L8.9,45c-0.3,0.6-0.3,1.3,0,1.9c0.3,0.6,0.7,1.1,1.4,1.4l2.5,1c1.3,0.5,2.8-0.1,3.3-1.4l0.7-1.6
			c1.6,0.2,3.2,0.2,4.8,0l0.7,1.6c0.4,1,1.4,1.6,2.3,1.6c0.3,0,0.7-0.1,1-0.2l2.5-1c1.3-0.5,1.9-2,1.4-3.3l-0.7-1.6
			c1.3-0.9,2.4-2.1,3.4-3.4l1.6,0.7c1.3,0.5,2.8-0.1,3.3-1.4l1-2.5c0.3-0.6,0.3-1.3,0-1.9c-0.3-0.6-0.7-1.1-1.4-1.4l-2.3-1
			c-0.5-0.2-1,0-1.2,0.5c-0.2,0.5,0,1,0.5,1.2l2.3,1c0.2,0.1,0.3,0.2,0.4,0.4c0.1,0.2,0.1,0.4,0,0.5L35.3,38.6z M35.3,38.6"/>
	</g>
	<path id="XMLID_15075_" d="M19.1,24.1c0.5,0,0.9-0.4,0.9-0.9s-0.4-0.9-0.9-0.9h0c-2.2,0-4.2,0.9-5.8,2.4c-1.5,1.6-2.4,3.6-2.3,5.8
		c0,2.2,0.9,4.2,2.4,5.8c1.5,1.5,3.6,2.3,5.7,2.3h0.1c2.2,0,4.2-0.9,5.8-2.4c1.5-1.6,2.4-3.6,2.3-5.8c0-0.5-0.4-0.9-0.9-0.9h0
		c-0.5,0-0.9,0.4-0.9,0.9c0,1.7-0.6,3.3-1.8,4.5c-1.2,1.2-2.8,1.9-4.4,1.9h-0.1c-1.7,0-3.2-0.6-4.4-1.8c-1.2-1.2-1.9-2.8-1.9-4.4
		c0-1.7,0.6-3.3,1.8-4.5C15.8,24.8,17.4,24.1,19.1,24.1L19.1,24.1z M19.1,24.1"/>
	<path id="XMLID_15052_" d="M47.9,17.8c1.2,0,2.1-0.9,2.1-2.1v-2c0-1.2-0.9-2.1-2.1-2.1h-1.1c-0.3-1-0.7-2-1.2-2.9L46.4,8
		c0.8-0.8,0.8-2.2,0-3L45,3.6C44.6,3.2,44.1,3,43.5,3c-0.6,0-1.1,0.2-1.5,0.6l-0.8,0.8c-0.9-0.5-1.9-0.9-2.9-1.2V2.1
		C38.4,1,37.4,0,36.3,0h-2c-1.2,0-2.1,0.9-2.1,2.1v1.1c-1,0.3-2,0.7-2.9,1.2l-0.8-0.8C28.1,3.2,27.6,3,27,3c-0.6,0-1.1,0.2-1.5,0.6
		L24.2,5c-0.8,0.8-0.8,2.2,0,3l0.8,0.8c-0.5,0.9-0.9,1.9-1.2,2.9h-1.1c-1.2,0-2.1,0.9-2.1,2.1v2c0,1.2,0.9,2.1,2.1,2.1h1.1
		c0.3,1,0.7,2,1.2,2.9l-0.8,0.8c-0.8,0.8-0.8,2.2,0,3l1.4,1.4c0.4,0.4,0.9,0.6,1.5,0.6c0.6,0,1.1-0.2,1.5-0.6l0.8-0.8
		c0.9,0.5,1.9,0.9,2.9,1.2v1.1c0,1.2,0.9,2.1,2.1,2.1h2c1.2,0,2.1-0.9,2.1-2.1v-1.1c1-0.3,2-0.7,2.9-1.2l0.8,0.8
		c0.4,0.4,0.9,0.6,1.5,0.6c0.6,0,1.1-0.2,1.5-0.6l1.4-1.4c0.8-0.8,0.8-2.2,0-3l-0.8-0.8c0.5-0.9,0.9-1.9,1.2-2.9H47.9z M45.2,16.7
		c-0.3,1.3-0.8,2.5-1.5,3.6c-0.2,0.4-0.2,0.9,0.1,1.2l1.3,1.3c0.1,0.1,0.1,0.3,0,0.4l-1.4,1.4c-0.1,0.1-0.1,0.1-0.2,0.1
		c-0.1,0-0.1,0-0.2-0.1L42,23.3c-0.3-0.3-0.8-0.4-1.2-0.1c-1.1,0.7-2.3,1.2-3.6,1.5c-0.4,0.1-0.7,0.5-0.7,0.9v1.8
		c0,0.1-0.1,0.2-0.2,0.2h-2c-0.1,0-0.2-0.1-0.2-0.2v-1.8c0-0.4-0.3-0.8-0.7-0.9c-1.3-0.3-2.5-0.8-3.6-1.5c-0.2-0.1-0.3-0.2-0.5-0.2
		c-0.2,0-0.5,0.1-0.7,0.3l-1.3,1.3c-0.1,0.1-0.1,0.1-0.2,0.1c-0.1,0-0.1,0-0.2-0.1l-1.4-1.4c-0.1-0.1-0.1-0.3,0-0.4l1.3-1.3
		c0.3-0.3,0.4-0.8,0.1-1.2c-0.7-1.1-1.2-2.3-1.5-3.6c-0.1-0.4-0.5-0.7-0.9-0.7h-1.8c-0.1,0-0.2-0.1-0.2-0.2v-2
		c0-0.1,0.1-0.2,0.2-0.2h1.8c0.4,0,0.8-0.3,0.9-0.7c0.3-1.3,0.8-2.5,1.5-3.6C27.1,8.8,27,8.3,26.7,8l-1.3-1.3
		c-0.1-0.1-0.1-0.1-0.1-0.2c0-0.1,0-0.1,0.1-0.2l1.4-1.4C26.9,4.9,27,4.9,27,4.9c0.1,0,0.1,0,0.2,0.1l1.3,1.3
		c0.3,0.3,0.8,0.4,1.2,0.1c1.1-0.7,2.3-1.2,3.6-1.5C33.7,4.7,34,4.4,34,3.9V2.1c0-0.1,0.1-0.2,0.2-0.2h2c0.1,0,0.2,0.1,0.2,0.2v1.8
		c0,0.4,0.3,0.8,0.7,0.9c1.3,0.3,2.5,0.8,3.6,1.5c0.4,0.2,0.9,0.2,1.2-0.1l1.3-1.3c0.1-0.1,0.1-0.1,0.2-0.1c0.1,0,0.1,0,0.2,0.1
		l1.4,1.4c0.1,0.1,0.1,0.3,0,0.4L43.8,8c-0.3,0.3-0.4,0.8-0.1,1.2c0.7,1.1,1.2,2.3,1.5,3.6c0.1,0.4,0.5,0.7,0.9,0.7h1.8
		c0.1,0,0.2,0.1,0.2,0.2v2c0,0.1-0.1,0.2-0.2,0.2h-1.8C45.6,16,45.3,16.3,45.2,16.7L45.2,16.7z M45.2,16.7"/>
	<path id="XMLID_15047_" d="M35.3,8.8c-3.3,0-5.9,2.7-5.9,5.9c0,3.3,2.7,5.9,5.9,5.9c3.3,0,5.9-2.7,5.9-5.9
		C41.2,11.5,38.5,8.8,35.3,8.8L35.3,8.8z M35.3,18.8c-2.3,0-4.1-1.8-4.1-4.1c0-2.3,1.8-4.1,4.1-4.1c2.3,0,4.1,1.8,4.1,4.1
		C39.3,17,37.5,18.8,35.3,18.8L35.3,18.8z M35.3,18.8"/>
</g>
</svg>
