<?xml version="1.0" encoding="utf-8"?>
<!-- Generator: Adobe Illustrator 19.0.0, SVG Export Plug-In . SVG Version: 6.00 Build 0)  -->
<svg version="1.1" id="Capa_1" xmlns="http://www.w3.org/2000/svg" xmlns:xlink="http://www.w3.org/1999/xlink" x="0px" y="0px"
	 viewBox="0 0 229 124.6" style="enable-background:new 0 0 229 124.6;" xml:space="preserve">
<style type="text/css">
	.st0{opacity:0.75;fill:#0E0E0F;}
	.st1{fill-rule:evenodd;clip-rule:evenodd;fill:#FFFFFF;}
	.st2{fill-rule:evenodd;clip-rule:evenodd;}
</style>
<g id="XMLID_1_">
	<g id="XMLID_2438_">
		<path id="XMLID_2440_" class="st0" d="M229,34.4V23.6c-13.5-5-69.4-24.8-113-23.6C70-1.3,10.2,20.9,1.1,24.3
			c-0.6,0.2-1,0.7-1.1,1.3v11.7c0-0.6,0.3-1.2,0.8-1.5C32.9,13.8,71.7,0.7,113.5,0.2c0,0,0,0,0,0c0.8,0,1.7,0,2.5,0c0,0,0,0,0,0
			s0,0,0,0c0.8,0,1.7,0,2.5,0c0,0,0,0,0,0C159.4,0.7,197.3,13.2,229,34.4z"/>
		<g id="XMLID_2439_">
			<path id="XMLID_238_" class="st1" d="M229,34.6C196.7,12.9,157.8,0.3,116,0.3C72.9,0.3,32.9,13.7,0,36.6v87.9h229V34.6z"/>
		</g>
	</g>
	<g id="XMLID_2070_">
		<path id="XMLID_2435_" class="st2" d="M116.2,25.1c4.5,0,8.2,3.7,8.2,8.3c0,4.6-3.7,8.3-8.2,8.3c-4.5,0-8.2-3.7-8.2-8.3
			C108,28.9,111.7,25.1,116.2,25.1"/>
		<path id="XMLID_2186_" class="st2" d="M86.2,51.8L86.2,51.8l0,0.3c0,0.4,0.2,0.7,0.7,1c0.5,0.2,1.2,0.3,2.3,0.3
			c0.8,0,1.4-0.1,1.8-0.3c0.4-0.2,0.7-0.4,0.7-0.7c0-0.5-0.9-0.8-2.6-1.1c-0.2,0-0.4-0.1-0.5-0.1c-0.1,0-0.3,0-0.5-0.1
			c-2.8-0.5-4.5-0.9-5.3-1.5c-0.4-0.3-0.7-0.6-0.9-0.9c-0.2-0.4-0.3-0.8-0.3-1.2c0-1.1,0.6-1.9,1.9-2.5c1.3-0.6,3.1-0.8,5.6-0.8
			c2.4,0,4.2,0.3,5.4,0.8c1.2,0.5,1.7,1.4,1.7,2.4v0.1h-4.6v0c0-0.4-0.2-0.7-0.7-0.9c-0.5-0.2-1.1-0.3-2-0.3c-0.7,0-1.2,0.1-1.6,0.2
			c-0.4,0.1-0.6,0.3-0.6,0.6c0,0.5,1,0.8,3,1.2c0.4,0.1,0.7,0.1,0.9,0.1c1.4,0.2,2.4,0.4,3,0.6c0.6,0.2,1.1,0.4,1.6,0.6
			c0.5,0.3,0.9,0.6,1.1,1c0.3,0.4,0.4,0.9,0.4,1.3c0,1.1-0.7,2-2.1,2.6c-1.4,0.6-3.4,0.9-6,0.9c-2.6,0-4.4-0.3-5.6-0.9
			c-1.2-0.6-1.7-1.5-1.7-2.8v-0.2H86.2z M98.8,55.5v-11h13.1v2.4h-8.2v1.7h7.5v2.3h-7.5v2.1h8.5v2.4H98.8z M114.2,55.5v-11h6.2
			l6.6,7.4v-7.4h4.7v11h-6.4l-6.4-7.4v7.4H114.2z M144.4,51.1l-2.3-4l-2.5,4H144.4z M136.9,55.5H132l7.6-11h5.4l7.2,11h-5.5l-1.1-2
			h-7.6L136.9,55.5z"/>
		<path id="XMLID_2073_" class="st2" d="M92.3,94.1L87.9,90l13.3-23.1c0.7-1.3-0.2-2.8-1.6-2.8H77.7v-5.8h35.1L92.3,94.1z"/>
		<path id="XMLID_2072_" class="st2" d="M139.7,94.1l4.4-4.1l-13.3-23.1c-0.7-1.3,0.2-2.8,1.6-2.8h21.8v-5.8h-35.1L139.7,94.1z"/>
		<path id="XMLID_2071_" class="st2" d="M116,64.4L116,64.4L135.8,97l-5.3,2.7l-12.8-21.4c-0.8-1.3-2.6-1.3-3.3,0
			c-4.3,7.2-12.7,21.4-12.7,21.4l-5.1-2.5C96.6,97.2,114.9,66.2,116,64.4"/>
	</g>
</g>
</svg>
