<?xml version="1.0" encoding="utf-8"?>
<!-- Generator: Adobe Illustrator 19.0.0, SVG Export Plug-In . SVG Version: 6.00 Build 0)  -->
<svg version="1.1" id="Capa_1" xmlns="http://www.w3.org/2000/svg" xmlns:xlink="http://www.w3.org/1999/xlink" x="0px" y="0px"
	 viewBox="0 0 315 3" style="enable-background:new 0 0 315 3;" xml:space="preserve">
<style type="text/css">
	.st0{fill:#252527;}
</style>
<g id="XMLID_1_">
	<path id="XMLID_12614_" class="st0" d="M315,3h-5V0h5V3z M305,3h-5V0h5V3z M295,3h-5V0h5V3z M285,3h-5V0h5V3z M275,3h-5V0h5V3z
		 M265,3h-5V0h5V3z M255,3h-5V0h5V3z M245,3h-5V0h5V3z M235,3h-5V0h5V3z M225,3h-5V0h5V3z M215,3h-5V0h5V3z M205,3h-5V0h5V3z M195,3
		h-5V0h5V3z M185,3h-5V0h5V3z M175,3h-5V0h5V3z M165,3h-5V0h5V3z M155,3h-5V0h5V3z M145,3h-5V0h5V3z M135,3h-5V0h5V3z M125,3h-5V0h5
		V3z M115,3h-5V0h5V3z M105,3h-5V0h5V3z M95,3h-5V0h5V3z M85,3h-5V0h5V3z M75,3h-5V0h5V3z M65,3h-5V0h5V3z M55,3h-5V0h5V3z M45,3h-5
		V0h5V3z M35,3h-5V0h5V3z M25,3h-5V0h5V3z M15,3h-5V0h5V3z M5,3H0V0h5V3z"/>
</g>
</svg>
