<?xml version="1.0" encoding="utf-8"?>
<!-- Generator: Adobe Illustrator 19.0.0, SVG Export Plug-In . SVG Version: 6.00 Build 0)  -->
<svg version="1.1" id="Capa_1" xmlns="http://www.w3.org/2000/svg" xmlns:xlink="http://www.w3.org/1999/xlink" x="0px" y="0px"
	 viewBox="-216 401.6 163 39.3" style="enable-background:new -216 401.6 163 39.3;" xml:space="preserve">
<style type="text/css">
	.st0{fill:#FFFFFF;}
</style>
<g id="XMLID_61_">
	<g id="XMLID_131_">
		<rect x="-216" y="402.6" class="st0" width="1.5" height="2"/>
		<path class="st0" d="M-210,404.6l0-2l3,0l0,2L-210,404.6z M-204,404.5l0-2l3,0l0,2L-204,404.5z M-198,404.5l0-2l3,0l0,2
			L-198,404.5z M-192,404.5l0-2l3,0l0,2L-192,404.5z M-186,404.4l0-2l3,0l0,2L-186,404.4z M-180,404.4l0-2l3,0l0,2L-180,404.4z
			 M-174,404.3l0-2l3,0l0,2L-174,404.3z M-168,404.3l0-2l3,0l0,2L-168,404.3z M-162,404.3l0-2l3,0l0,2L-162,404.3z M-156,404.2l0-2
			l3,0l0,2L-156,404.2z M-150,404.2l0-2l3,0l0,2L-150,404.2z M-144,404.2l0-2l3,0l0,2L-144,404.2z M-138,404.1l0-2l3,0l0,2
			L-138,404.1z M-132,404.1l0-2l3,0l0,2L-132,404.1z M-126,404l0-2l3,0l0,2L-126,404z M-120,404l0-2l3,0l0,2L-120,404z M-114,404
			l0-2l3,0l0,2L-114,404z M-108,403.9l0-2l3,0l0,2L-108,403.9z M-102,403.9l0-2l3,0l0,2L-102,403.9z M-96,403.8l0-2l3,0l0,2
			L-96,403.8z M-90,403.8l0-2l3,0l0,2L-90,403.8z M-84,403.8l0-2l3,0l0,2L-84,403.8z M-78,403.7l0-2l3,0l0,2L-78,403.7z M-72,403.7
			l0-2l3,0l0,2L-72,403.7z M-66,403.6l0-2l3,0l0,2L-66,403.6z M-60,403.6l0-2l3,0l0,2L-60,403.6z"/>
		<polygon class="st0" points="-53,404.1 -55,404.1 -55,403.6 -55.5,403.6 -55.5,401.6 -53,401.6 		"/>
		<path class="st0" d="M-53,437.8h-2v-3.2h2V437.8z M-53,431.4h-2v-3.2h2V431.4z M-53,424.9h-2v-3.2h2V424.9z M-53,418.5h-2v-3.2h2
			V418.5z M-53,412.1h-2v-3.2h2V412.1z"/>
		<rect x="-55" y="439.4" class="st0" width="2" height="1.5"/>
	</g>
</g>
</svg>
