<?xml version="1.0" encoding="utf-8"?>
<!-- Generator: Adobe Illustrator 19.0.0, SVG Export Plug-In . SVG Version: 6.00 Build 0)  -->
<svg version="1.1" id="Capa_1" xmlns="http://www.w3.org/2000/svg" xmlns:xlink="http://www.w3.org/1999/xlink" x="0px" y="0px"
	 viewBox="0 0 205.6 228.8" style="enable-background:new 0 0 205.6 228.8;" xml:space="preserve">
<style type="text/css">
	.st0{fill:#F9D523;}
</style>
<g id="XMLID_1334_">
	<polygon id="XMLID_1341_" class="st0" points="124.7,90.2 95.5,106.8 95.5,228.8 186.1,176.3 186.1,142.7 124.7,178.2 	"/>
	<polygon id="XMLID_1340_" class="st0" points="46.8,132.1 35.3,75.5 0,55.4 0,176.3 21.9,189 21.9,126.9 36.1,197.2 48.4,204.4 
		65.7,150.7 65.7,214.4 90.6,228.8 90.6,106.8 58,88.3 	"/>
	<polygon id="XMLID_1339_" class="st0" points="190.3,165.1 192.7,165.1 192.7,171.9 194.4,171.9 194.4,165.1 196.8,165.1 
		196.8,163.8 190.3,163.8 	"/>
	<polygon id="XMLID_1336_" class="st0" points="203.2,163.8 201.7,169.3 200.3,163.8 197.8,163.8 197.8,171.9 199.3,171.9 
		199.3,165.5 200.9,171.9 202.5,171.9 204.1,165.5 204.1,171.9 205.6,171.9 205.6,163.8 	"/>
	<path id="XMLID_1335_" class="st0" d="M152.9,32.6L95.5,0L68,15.6l52.5,30.5c0,0,16.9,8.1,0,18.5c-17.8,11-32.2,0.9-32.2,0.9
		L34.9,34.4L4.1,51.9l53.4,31.6c0,0,34.9,21.8,75.7-3.3C184.8,48.5,152.9,32.6,152.9,32.6z"/>
</g>
</svg>
