<?xml version="1.0" encoding="utf-8"?>
<!-- Generator: Adobe Illustrator 19.0.0, SVG Export Plug-In . SVG Version: 6.00 Build 0)  -->
<svg version="1.1" id="Capa_1" xmlns="http://www.w3.org/2000/svg" xmlns:xlink="http://www.w3.org/1999/xlink" x="0px" y="0px"
	 viewBox="0 0 260.5 446.2" style="enable-background:new 0 0 260.5 446.2;" xml:space="preserve">
<style type="text/css">
	.st0{fill:#ECBA97;stroke:#9F7557;stroke-width:0.6899;stroke-linecap:round;stroke-linejoin:round;stroke-miterlimit:10;}
	.st1{fill:#0C0C0C;stroke:#1D1D1B;stroke-width:0.5938;stroke-miterlimit:10;}
	.st2{fill:#272727;stroke:#1D1D1B;stroke-width:0.5938;stroke-miterlimit:10;}
	.st3{fill:#191919;stroke:#1D1D1B;stroke-width:0.4384;stroke-miterlimit:10;}
	.st4{fill:#7F8080;stroke:#1D1D1B;stroke-width:0.6392;stroke-miterlimit:10;}
	.st5{fill:#7F8080;stroke:#1D1D1B;stroke-width:0.6951;stroke-miterlimit:10;}
	.st6{fill:#191919;stroke:#1D1D1B;stroke-width:0.5938;stroke-miterlimit:10;}
	.st7{fill:#7F8080;stroke:#1D1D1B;stroke-width:0.5938;stroke-miterlimit:10;}
	.st8{fill:#111111;}
	.st9{fill:#5287AC;}
	.st10{fill:#E3DCD6;stroke:#979797;stroke-width:0.4651;stroke-linecap:round;stroke-linejoin:round;stroke-miterlimit:10;}
	.st11{fill:#D3CDC9;}
	.st12{fill:#C1DA9D;stroke:#1D1D1B;stroke-width:0.5257;stroke-miterlimit:10;}
	.st13{fill:#98A580;}
	.st14{fill:#3E718D;}
	.st15{fill:#3B505A;}
	.st16{fill:#667B80;}
	.st17{fill:#90A9AD;}
	.st18{fill:#E3DCD6;stroke:#979797;stroke-width:0.4651;stroke-miterlimit:10;}
	.st19{fill:#CDA285;}
	.st20{fill:#ECBA97;stroke:#C4916E;stroke-width:0.3101;stroke-linecap:round;stroke-linejoin:round;stroke-miterlimit:10;}
	.st21{fill:#FFA96A;stroke:#6B4429;stroke-width:0.5013;stroke-linecap:round;stroke-linejoin:round;stroke-miterlimit:10;}
	.st22{fill:#452109;}
	.st23{fill:#FFFFFF;}
	.st24{clip-path:url(#XMLID_103_);}
	.st25{clip-path:url(#XMLID_104_);}
	.st26{clip-path:url(#XMLID_105_);}
	.st27{clip-path:url(#XMLID_106_);}
	.st28{clip-path:url(#XMLID_107_);}
	.st29{clip-path:url(#XMLID_108_);}
	.st30{clip-path:url(#XMLID_109_);}
	.st31{clip-path:url(#XMLID_110_);}
	.st32{clip-path:url(#XMLID_111_);}
	.st33{clip-path:url(#XMLID_112_);}
	.st34{clip-path:url(#XMLID_113_);}
	.st35{clip-path:url(#XMLID_114_);fill:#964C15;}
	.st36{clip-path:url(#XMLID_114_);fill:#3D1800;}
	.st37{clip-path:url(#XMLID_114_);fill:#FFFFFF;}
	.st38{clip-path:url(#XMLID_115_);}
	.st39{clip-path:url(#XMLID_116_);}
	.st40{clip-path:url(#XMLID_117_);}
	.st41{clip-path:url(#XMLID_118_);}
	.st42{clip-path:url(#XMLID_119_);}
	.st43{clip-path:url(#XMLID_120_);}
	.st44{clip-path:url(#XMLID_121_);}
	.st45{clip-path:url(#XMLID_122_);}
	.st46{clip-path:url(#XMLID_123_);}
	.st47{clip-path:url(#XMLID_124_);}
	.st48{clip-path:url(#XMLID_125_);}
	.st49{clip-path:url(#XMLID_126_);fill:#964C15;}
	.st50{clip-path:url(#XMLID_126_);fill:#3D1800;}
	.st51{clip-path:url(#XMLID_126_);fill:#FFFFFF;}
	.st52{fill:#595455;}
	.st53{fill:#564F4C;stroke:#473F3D;stroke-width:0.5756;stroke-miterlimit:10;}
	.st54{fill:#564F4C;stroke:#473F3D;stroke-width:0.5688;stroke-miterlimit:10;}
	.st55{opacity:0.5;fill:#CDA285;enable-background:new    ;}
	.st56{fill:#ECBA97;stroke:#9F7557;stroke-width:0.6201;stroke-linecap:round;stroke-linejoin:round;stroke-miterlimit:10;}
	.st57{fill:#876E5C;}
	.st58{fill:#282F39;}
	.st59{fill:#F2BDA5;stroke:#AD7251;stroke-width:0.591;stroke-miterlimit:10;}
	.st60{fill:#ECBA97;stroke:#AD7251;stroke-width:0.591;stroke-miterlimit:10;}
	.st61{fill:#F29422;}
	.st62{fill:#282F39;stroke:#FFFFFF;stroke-width:1.9043;stroke-miterlimit:10;}
</style>
<g id="XMLID_8544_">
	<path id="XMLID_8542_" class="st0" d="M154.7,61.7l-25.3,21c0,0,2.9,11.6-0.9,31l27.5-3C154.3,94.1,152.2,78.3,154.7,61.7z"/>
	<g id="XMLID_8521_">
		<g id="XMLID_8535_">
			<path id="XMLID_8541_" class="st1" d="M153.5,413.8c0.5-1.4,19.3-0.5,20,1.4c0.7,1.9,3.5,14.2,5.9,16.9c2.5,2.7,3.3,8.4,1.9,10.6
				c-1.4,2.3-6.8,3.2-16,3.2c-9.3,0.1-16.8-2-17.2-4c-0.4-2-1.1-6,0.8-10.4s3.2-11.3,3.8-13.4C152.8,418.1,153.1,415.3,153.5,413.8z
				"/>
			<path id="XMLID_8540_" class="st2" d="M153.4,410.3c0.5-1.4,19.3-0.5,20,1.4c0.7,2,2.3,15.1,4.7,17.8c2.5,2.6,4.6,7.5,3.2,9.7
				s-6.8,3.2-16,3.2c-9.3,0.1-16.8-2-17.2-4c-0.3-2-0.5-5.1,1.4-9.5c1.9-4.4,2.6-12.2,3.2-14.3C152.7,414.7,153,411.8,153.4,410.3z"
				/>
			<path id="XMLID_8539_" class="st3" d="M171.8,409.8c-0.2,2.2-0.7,8.4,0.8,11.2c1.4,2.9,3.1,8.1,2,8.7c-1.1,0.6-7.1-0.4-9.9-0.2
				h-0.1c-2.9-0.2-8.8,0.9-9.9,0.3c-1.1-0.5-0.1-6,1.5-8.8c1.7-3,1.1-9,0.8-11.1C157.1,407.2,171.7,406.6,171.8,409.8z"/>
			<path id="XMLID_8538_" class="st4" d="M171.9,423.2c-5.2-0.9-10.2-0.9-15.3,0.2c-1,0.2-1.7,3.8-0.8,3.8c5.6-0.8,11.2-0.8,17-0.2
				C173.8,426.9,172.7,423.4,171.9,423.2z"/>
			<path id="XMLID_8537_" class="st5" d="M170.8,418.1c-4.5-0.8-8.8-0.8-13.3,0.2c-0.8,0.2-1.4,3.4-0.6,3.4
				c4.9-0.7,9.6-0.8,14.6-0.2C172.3,421.4,171.6,418.3,170.8,418.1z"/>
			<path id="XMLID_8536_" class="st5" d="M169.9,413.2c-3.9-0.6-7.8-0.6-11.7,0.2c-0.7,0.2-1.1,2.6-0.5,2.6
				c4.2-0.6,8.4-0.6,12.7-0.2C171.3,415.7,170.6,413.4,169.9,413.2z"/>
		</g>
		<g id="XMLID_8527_">
			<g id="XMLID_8533_">
				<path id="XMLID_21459_" class="st1" d="M122.3,411c-0.1,2.6,0.9,7.9,1.2,10c0.4,2.2-4.7,5.1-9.5,7c-4.7,1.9-7.4,5.7-14.4,8.8
					c-7,3.1-19.1-0.9-20.5-2.6c-1.4-1.7-2.8-8.7-0.4-10.1c2.4-1.4,6-4.2,11.2-6.6c5.1-2.3,7.8-7.8,8.3-8.1
					C103.9,406.4,122.5,408.3,122.3,411z"/>
				<path id="XMLID_21458_" class="st2" d="M122.7,408c-0.2,2.6,0.2,8.3,0.5,10.4c0.3,2.1-4.5,4.7-9.3,6.6
					c-4.7,1.9-7.4,5.7-14.4,8.8c-7,3.1-20-0.3-21.4-2c-1.4-1.7-2.3-9,0.1-10.4c2.4-1.4,6.5-4.5,11.7-6.9c5.1-2.3,7.8-7.8,8.3-8.1
					C103.9,403.4,122.9,405.4,122.7,408z"/>
				<path id="XMLID_8534_" class="st6" d="M83,418.6c0,0-0.1,0-0.2-0.1c2-1.3,4.4-2.7,7.1-3.9c5.1-2.3,7.8-7.8,8.3-8.1
					c2.6-1.5,8.2-1.8,13.3-1.5c0.2,1.3-0.1,4.8-1.6,7.7c-1.7,3.4-9.3,7.1-11.2,8.4c-1.9,1.4-4.1,1.7-6-0.3
					C90.8,418.9,84.8,418.9,83,418.6z"/>
			</g>
			<path id="XMLID_8532_" class="st7" d="M86,416.2c0.6-0.3,1.5-0.5,2.2-0.7c1.6-0.3,9.5,0.7,10.8,2.6c0.3,0.5-2,1.7-2.7,1.4
				c-4.5-1.9-8.4-2.5-11.1-2.2C84.4,417.4,84.8,416.7,86,416.2z"/>
			<path id="XMLID_8531_" class="st7" d="M91.3,413.2c0.6-0.3,1.5-0.5,2.2-0.7c1.6-0.3,9.6,0.5,10.8,2.4c0.4,0.6-1.9,1.8-2.6,1.5
				c-4.5-1.9-8.4-2.4-11.1-2C89.9,414.5,90.3,413.8,91.3,413.2z"/>
			<path id="XMLID_8530_" class="st7" d="M94.9,410.1c0.4-0.5,0.9-0.8,1.6-0.9c1.5-0.4,10.1,0,11.7,1.7c0.5,0.5-1.6,2-2.4,1.8
				c-4.8-1.2-8.4-1.8-11.1-1.4C94,411.4,94,411,94.9,410.1z"/>
		</g>
		<g id="XMLID_8524_">
			<path id="XMLID_8525_" class="st8" d="M101.7,212.8c0,0,66.8-6.9,69.3-2.2c2.5,4.7,3.1,29.3,5.9,38.9c2.8,9.6,2.4,72.7,0.6,88.5
				c-1.4,11.3-2.9,62.7-1.4,65c4.7,4.6,0.9,6.2-0.3,7.2c-14.5,8.4-23.3,1.7-26.6,2.1c-3.6,0.5,1.5-4.7,1.3-9.9
				c-0.5-9-7.6-66.8-9.3-85.2c-1.8-18.6-2.3-66.1-2.3-66.1l-4.5,0.4c0,0,0.3,16.2,0.2,28.9c-0.1,12.6-5.9,63.8-6.5,80.3
				c-0.5,12.3-0.3,42.8,0.7,46.2c1.3,3.3-0.8,4.2-0.8,4.2c-4.7,1.7-12.7,1.7-17.8-0.6c-5.6-2.6-11.8-1.8-16.2-2.3
				c-0.4,0.2,1-2.6,2.6-4.8c1.2-1.7,0.6-19.6,1.1-29.2c0.8-14.2-2.1-44.7-1.4-59c0.7-14.2,1.4-81.4,1.4-81.4L101.7,212.8z"/>
		</g>
		<path id="XMLID_21449_" d="M128.8,406.8c-0.2-0.4-0.2-0.9-0.3-1.7c-3.4-0.1-6.7-2.1-6.7-2.1c2.6,0.2,4.7-1.4,6.3-3.1
			c-0.4-9.6-0.4-30.2-0.1-39.3c0.6-16.4,6.4-67.6,6.5-80.3c0-12.6-0.2-28.9-0.2-28.9l2.9-0.4c0,0,2.1,47.5,3.9,66.1
			c1.8,18.4,7.2,76.2,7.7,85.2c0.2,4.3-2.2,8.7-0.8,9.6c0.8-0.3,1.4-1,1.5-2c0.3-4-0.7-4.3,3-3.3c2.8,0.8,5.2-0.5,5.2-0.5
			s-0.9-0.8-2.2-1.4c-5-2.3-5-2.3-5.3-10.4c-0.3-7.3,0.7-22.7-3-34.3c-3.7-11.7-0.7-19.7,0.3-31.7s-4.7-37.6-6-48.3
			c-1.4-10.7,1.7-20.8,0.7-26.4c-1-5.7-2-6.7,4.4-9c6.3-2.3,4-2.3-10.4-4.4c-14.4-2-13-0.7-9.7,3.3c3.4,4,2.6,4.7,5.6,12.3
			c3,7.7-3,39.2-3.7,54.6c-0.7,15.4-2,23.7-4,36.7s-1,9.3-0.3,24.4c0.7,15,0.3,26.6-3.7,29.3c-4,2.7-1.5,6.3-8.2,6
			c-6.6-0.4-1.8-8.1-5.8-6c-2.7,1.4-6.2,1.7-9.1,0.7c-0.1,0.8-0.2,1.4-0.5,1.7c-1.6,2.3-2.9,5-2.6,4.8c4.4,0.5,10.5-0.4,16.2,2.3
			c5,2.3,13.1,2.3,17.8,0.6C128.1,411,130.2,410,128.8,406.8z"/>
		<g id="XMLID_21448_">
			<path id="XMLID_8523_" d="M94.6,408.1c0.2,0,2.1,0.1,2.4,0.1c0.2-6.2,4.6-7.4,3.1-12.3c-1.7-5.3-2-44.4,1.4-47.7
				c3.3-3.4,0-10.6-2-26.7c-2-16.1-0.5-52-0.5-52l-0.7-3l-2.4-0.7c-0.8,14.2,0.7,42.9,0.4,49.3c-0.8,14.2,2.1,44.7,1.4,59
				c-0.5,9.6,0.2,27.5-1.1,29.2C95,405.5,94.2,408.3,94.6,408.1z"/>
		</g>
		<path id="XMLID_8522_" d="M169.9,413.3l-0.1,0.2c2.7-0.7,2.9-1.7,5.9-3.5c1.1-1,4.5-2.4,1.2-6.3l0,0c-0.1-0.1-0.2-0.2-0.2-0.2
			c-4,1.7-8.1,0.8-8.1,0.8c3.5-1.5,6.8-3.1,6.7-4.4c-1.4-12.4,1-53.3,2-62.1c1.1-9.3,1.7-44.1,1.4-62.6l-2.9,0.5
			c0,0-1.7,23.9-0.7,29.5s2,8.1,1,22.1c-1.1,14-1.4,37.4-1.4,37.4s-3.4,26-1.7,33c0.2,0.7-3.4,5.6-6.6,6.9c0,0,3.8,1.3,7.8,0.7
			c0,0.5,0,1.1,0.1,1.7C174.7,412.6,175.8,410.6,169.9,413.3z"/>
	</g>
	<path id="XMLID_8520_" d="M143.3,280.8l0.5,2.7c8,2.3,19.3,0.8,28.7-1.4l0.2-3.2L143.3,280.8z"/>
	<path id="XMLID_8519_" class="st9" d="M158.3,92.1c5.6,2.8,16.4,10.5,22.7,17c6.3,6.5-8.8,46.2-9.6,59.1
		c-0.8,12.9,3.7,36.9-2.9,40.3s-33.6,8.3-46.8,8.1c-13.3-0.2-25.8,4.3-25.6-9.9c0.2-14.2,7.1-91.9,11-99.2
		c2.3-4.3,11.9-8.4,19.4-10.9c1.1,3.5,5.9,15.7,5.9,15.7S152.8,89.2,158.3,92.1z"/>
	<path id="XMLID_8518_" class="st10" d="M99.8,147.9c-1.4,2.8-20.9,28.9-29.6,27.6c-8.7-1.4-29.4-30.9-29.4-30.9
		c8-2.1,11.6-18.1,11.6-18.1c3.8,3,20.6,16.7,20.6,16.7c1.4-3.2,23.9-36.9,23.9-36.9C100.7,113,99.9,147.9,99.8,147.9z"/>
	<path id="XMLID_8517_" class="st11" d="M99.9,147.7c0,0-0.1-4.3-0.4-10.1c-1.5,2-3.1,3.8-4.6,5.3c-6.6,6.6-20.1,24.2-24.2,24.2
		s-11.7-11.7-18-17.3c-3.8-3.4-5.1-6.2-6.5-9c-1.5,1.9-3.2,2.9-5.3,3.5c0,0,20.7,29.6,29.4,30.9S98.6,150.5,99.9,147.7z"/>
	<path id="XMLID_8516_" class="st12" d="M107.8,106.6c2.1-1.3,5.6-3.8,8.3-5.7C112.6,102.6,109.5,104.5,107.8,106.6z"/>
	<path id="XMLID_8515_" class="st13" d="M116,100.8c1.7-0.8,3.6-1.6,5.4-2.3l-1.7-0.4C119.8,98.1,118.2,99.3,116,100.8z"/>
	<path id="XMLID_8514_" d="M93.9,280.9c-0.8,7.4,15.1,9.1,22.7,4.1c0.2,0.8-2.9-27.2-1.9-45.9c0.2-5.1,0.2-13.3,0.5-22.5
		c-9.3-1.2-16.5-5-16.7-16.3c-0.1,0-0.1-0.1-0.1-0.1c-0.2-0.4-0.4,6.9-0.5,6.6c-0.2,4.2-0.2,0.2,0,3.2
		C98.9,231.5,94.5,273.4,93.9,280.9z"/>
	<path id="XMLID_8513_" class="st14" d="M115.3,216c0.6-15.2,0.2-32.2-0.2-46.8c-0.6-23.3,7.1-61.1,10.1-69.7l-3.5-0.8
		c-1.9,0.7-3.7,1.5-5.4,2.3c-2.7,1.9-6.2,4.4-8.3,5.6c-0.3,0.3-0.5,0.7-0.7,1c-3.9,7.2-10.8,84.8-11,98.9
		C96.1,218.2,104.7,214.7,115.3,216z"/>
	<g id="XMLID_8509_">
		<path id="XMLID_8512_" class="st15" d="M100.8,212c1.1-0.1,48.1-0.8,49.5-0.2c1.4,0.6,0.9,5.4-0.8,5.6c-1.7,0.2-48.6,1.4-48.6,1.4
			C97.4,218.8,99.8,212,100.8,212z"/>
		<path id="XMLID_8511_" class="st16" d="M121.7,219.7c-0.4,0-1.1-7.8-0.5-8.7c0.6-1,9.3-0.1,11,0c1.7,0.1-0.2,7.9-0.2,7.9
			C131.1,220.4,122,219.7,121.7,219.7z"/>
		<path id="XMLID_8510_" class="st17" d="M123,218.1c-0.3,0-0.8-5.7-0.4-6.5c0.5-0.8,7.2-0.1,8.5,0s-0.2,5.9-0.2,5.9
			C130.3,218.7,123.3,218.1,123,218.1z"/>
	</g>
	<path id="XMLID_8508_" class="st18" d="M123.4,99.3c-2.9,8.7-11.9,46.5-10.1,69.9c1.8,23.5,0,55.8-0.8,69.4
		c-0.8,13.6,2,43.7,2,43.7c-8.3,5-25.9,3.4-25.1-4.1c0.9-7.5,5.7-47.2,4.6-68.8s-0.5-87.2,0.4-92.8c0.9-5.6,0.2-10.2,3.6-12
		c3.4-1.9,22.4-10.3,22.4-10.3L123.4,99.3z"/>
	<path id="XMLID_8507_" class="st10" d="M123.5,99.3c-1.2,2.5-7.4,32.8-8.5,41.8c-1.1,9-0.9,70.2-1,63.1c-1.4-5.6-6.1-62.3-7.7-67.2
		c-1.7-4.9,6.6-11,6.6-11s-1.9-1.1-4,0.8c-2.2,1.9-0.7-1.5,0.2-6.5c0.9-5-1.1-15.7,0.8-17.9c1.8-2.2,7.8-5.9,7.8-5.9
		C120.2,96,124.6,96.8,123.5,99.3z"/>
	<path id="XMLID_8506_" class="st18" d="M154.5,109.5c-6.3,11.7-19.3,72.4-18.8,92.1c0.5,19.8,7.6,79.4,7.6,79.4
		c25.7,4.7,42.8-6.9,42.8-6.9c-1.6-5.6-2.1-24.5-6.6-42.6s-4.8-44.3,0.2-67.8s1.2-42.2,10.7-56.1c-4.4-4.7-25.3-14.8-25.3-14.8
		S160.8,97.7,154.5,109.5z"/>
	<path id="XMLID_8505_" class="st11" d="M149.8,281.7c21.3,1.5,35.2-7.6,35.2-7.6c-1.6-5.6-1.1-24.7-5.6-42.8
		c-4.5-18.1-4.8-44.3,0.2-67.8c0.8-4.1,1.6-8.2,2.2-12.3c-2.4-2.9-4.6-5.9-5.1-8.1c-1.4-5.6-5.6-14.7-5.6-14.7s-3.2,9.5-1.2,18.9
		c2,9.5,6.1,6.6,5.4,12.7c-0.6,6.2-6.5,22.1-4.2,40.4s2,33.9,5.9,43c3.9,9.1,4.2,12.3-0.7,16.9c-0.1,0.1-0.2,0.2-0.2,0.2
		c0,0.2-0.1,0.3-0.2,0.5c-3.4,4.3-9.9,17.5-15,18.8c-3.2,0.8-4.3,1.1-7.6,1.5C152.8,281.4,150.1,281.7,149.8,281.7z"/>
	<path id="XMLID_8504_" class="st11" d="M164.8,95.3c-1.3,1.1-5,4.8-10.1,14.2c-6.3,11.7-19.3,72.4-18.8,92.1
		c0.5,17.6,6.2,70.4,7.3,78.9c1.4,0.2,3.2,0.8,5.1,0.8c-5.5-13.3-10.2-73-10.2-73c2.9-43.3,23.9-59.3,20.9-61.6
		c-3-2.3-4.7-12.5-4.7-12.5c2,3.3,10,9.8,8.3,1.6s8.9-30.8,6.6-35.7C168.3,98.5,166.8,96.8,164.8,95.3z"/>
	<path id="XMLID_8503_" class="st10" d="M157.1,144c-3-2.3-4.7-12.5-4.7-12.5c2,3.3,10,9.8,8.3,1.6c-1.7-8.2,8.9-30.8,6.6-35.7
		c-2.3-4.9-7-8.8-7.2-4.3c-0.2,4.4-9.5,21-18.1,41.5c-8.3,19.6-7.5,60-5.6,71C139.1,162.3,160,146.2,157.1,144z"/>
	<path id="XMLID_8502_" class="st14" d="M152,101.4c4.7-5,2.3-10.3,2.3-10.3c-0.5,2.3-2.1,3.7-8.4,7.5s-13.3,13.6-13.3,13.6
		C145.5,102.3,147.3,106.5,152,101.4z"/>
	<path id="XMLID_8501_" class="st9" d="M157.7,82c2.5,4,8.4,7.4,9.5,11.4c1.1,4-0.3,7.9-3.3,11.9c-3,4.1-7.4,14-7.5,8.6
		c-0.2-5.4-3.5-12.6-4.5-13.1c-1.1-0.5-2.3-2.6-1.1-3.7s1.5-3.1,2.6-5.9c1.1-2.9,1.2-5.4,0.4-9.6C153.7,81.6,155.2,78,157.7,82z"/>
	<path id="XMLID_8500_" class="st14" d="M128.3,83.7c-1.2,2.6-5.1,10.7-4.2,14.4c0.9,3.6,8.4,14.2,8.4,14.2
		c-4.3-10.6-2-26.4-2.6-27.1C129.9,85.1,129.5,81.1,128.3,83.7z"/>
	<path id="XMLID_8499_" class="st9" d="M128.3,83.7c0,0-0.3,2.4-2.3,6.1s-2,8.2-2,8.2c-2.8,0-7.2,8.4-7.2,8.4
		c1.8-6.5-0.5-13.4,1.4-15.2C121.7,88.1,128.3,83.7,128.3,83.7z"/>
	<path id="XMLID_8498_" class="st19" d="M130.4,88c-0.3-3.5-0.8-5.3-0.8-5.3l24.5-21c-0.5,3.5-0.8,6.9-1,10.4
		c-4.1,6.8-11,12.9-11.8,14.4C140.6,87.9,134.8,88.2,130.4,88z"/>
	<path id="XMLID_8497_" class="st20" d="M159.9,15.8c5.9,7.4-3.5,35.4-4.7,45.1c-1.2,9.8-14.7,20.7-15.9,22.8c-1.2,2.2-12.1,2-15,1
		c-2.9-0.9-2-5-2.6-8.3c-0.8-3.3-4.5-11.7-7.6-16.9c-3.1-5.2-2.9-11.8,0.5-16.1c3.3-4.3,5.4-19.7,6.4-28.2
		c0.9-8.5,13.3-8.5,19.4-8.3C146.2,7.2,153.8,8.6,159.9,15.8z"/>
	<path id="XMLID_8496_" class="st19" d="M156.7,50.1l-3.7,1.3c0,0,0.8-1.8,1.1-5.3c0.2-3.5,1.1-9.8-1.9-12.8c-3.1-3-5.3-4.2-4-6.3
		s5.3-4,4-6.5c-1.3-2.5-0.9-5.5-6.7-5.6c-5.8-0.2-7.9-5.6-13.2-5.3c-4.7,0.3-7.2,2.4-10.2,2.1c3.5-5,13-5,18.1-4.7
		c5.9,0.2,13.5,1.7,19.4,9C164.4,21.7,159.5,37.7,156.7,50.1z"/>
	<path id="XMLID_8495_" class="st21" d="M158.3,46.8"/>
	<path id="XMLID_8494_" class="st21" d="M155.1,61"/>
	<path id="XMLID_8493_" class="st22" d="M134.9,40c0.5,3.5,3.8,4.5,8,4.6c4.3,0.1,4.8-4.4,4.4-4.7C142.4,37.4,134.7,38.6,134.9,40z"
		/>
	<path id="XMLID_8485_" class="st23" d="M134.9,40.7c0.1,2.8,3.1,4.7,7.9,4.7c4.3-0.1,5-4.9,4.5-5.1
		C142.6,38.3,134.8,39.3,134.9,40.7z"/>
	<g id="XMLID_8376_">
		<g id="XMLID_8429_">
			<g id="XMLID_8479_">
				<defs>
					<path id="XMLID_8638_" d="M135,40.6c0.2,4.7,6.2,4.7,7.9,4.7c4.3,0,5-4.9,4.5-5.1C142.6,38.2,134.8,39.2,135,40.6z"/>
				</defs>
				<defs>
					<path id="XMLID_8637_" d="M135,40.6c0.2,4.7,6.2,4.7,7.9,4.7c4.3,0,5-4.9,4.5-5.1C142.6,38.2,134.8,39.2,135,40.6z"/>
				</defs>
				<defs>
					<path id="XMLID_8636_" d="M135,40.6c0.2,4.7,6.2,4.7,7.9,4.7c4.3,0,5-4.9,4.5-5.1C142.6,38.2,134.8,39.2,135,40.6z"/>
				</defs>
				<defs>
					<path id="XMLID_8635_" d="M135,40.6c0.2,4.7,6.2,4.7,7.9,4.7c4.3,0,5-4.9,4.5-5.1C142.6,38.2,134.8,39.2,135,40.6z"/>
				</defs>
				<defs>
					<path id="XMLID_8634_" d="M135,40.6c0.2,4.7,6.2,4.7,7.9,4.7c4.3,0,5-4.9,4.5-5.1C142.6,38.2,134.8,39.2,135,40.6z"/>
				</defs>
				<defs>
					<path id="XMLID_8633_" d="M135,40.6c0.2,4.7,6.2,4.7,7.9,4.7c4.3,0,5-4.9,4.5-5.1C142.6,38.2,134.8,39.2,135,40.6z"/>
				</defs>
				<defs>
					<path id="XMLID_8631_" d="M135,40.6c0.2,4.7,6.2,4.7,7.9,4.7c4.3,0,5-4.9,4.5-5.1C142.6,38.2,134.8,39.2,135,40.6z"/>
				</defs>
				<defs>
					<path id="XMLID_8630_" d="M135,40.6c0.2,4.7,6.2,4.7,7.9,4.7c4.3,0,5-4.9,4.5-5.1C142.6,38.2,134.8,39.2,135,40.6z"/>
				</defs>
				<defs>
					<path id="XMLID_8629_" d="M135,40.6c0.2,4.7,6.2,4.7,7.9,4.7c4.3,0,5-4.9,4.5-5.1C142.6,38.2,134.8,39.2,135,40.6z"/>
				</defs>
				<defs>
					<path id="XMLID_8627_" d="M135,40.6c0.2,4.7,6.2,4.7,7.9,4.7c4.3,0,5-4.9,4.5-5.1C142.6,38.2,134.8,39.2,135,40.6z"/>
				</defs>
				<defs>
					<path id="XMLID_8626_" d="M135,40.6c0.2,4.7,6.2,4.7,7.9,4.7c4.3,0,5-4.9,4.5-5.1C142.6,38.2,134.8,39.2,135,40.6z"/>
				</defs>
				<defs>
					<path id="XMLID_8625_" d="M135,40.6c0.2,4.7,6.2,4.7,7.9,4.7c4.3,0,5-4.9,4.5-5.1C142.6,38.2,134.8,39.2,135,40.6z"/>
				</defs>
				<clipPath id="XMLID_103_">
					<use xlink:href="#XMLID_8638_"  style="overflow:visible;"/>
				</clipPath>
				<clipPath id="XMLID_104_" class="st24">
					<use xlink:href="#XMLID_8637_"  style="overflow:visible;"/>
				</clipPath>
				<clipPath id="XMLID_105_" class="st25">
					<use xlink:href="#XMLID_8636_"  style="overflow:visible;"/>
				</clipPath>
				<clipPath id="XMLID_106_" class="st26">
					<use xlink:href="#XMLID_8635_"  style="overflow:visible;"/>
				</clipPath>
				<clipPath id="XMLID_107_" class="st27">
					<use xlink:href="#XMLID_8634_"  style="overflow:visible;"/>
				</clipPath>
				<clipPath id="XMLID_108_" class="st28">
					<use xlink:href="#XMLID_8633_"  style="overflow:visible;"/>
				</clipPath>
				<clipPath id="XMLID_109_" class="st29">
					<use xlink:href="#XMLID_8631_"  style="overflow:visible;"/>
				</clipPath>
				<clipPath id="XMLID_110_" class="st30">
					<use xlink:href="#XMLID_8630_"  style="overflow:visible;"/>
				</clipPath>
				<clipPath id="XMLID_111_" class="st31">
					<use xlink:href="#XMLID_8629_"  style="overflow:visible;"/>
				</clipPath>
				<clipPath id="XMLID_112_" class="st32">
					<use xlink:href="#XMLID_8627_"  style="overflow:visible;"/>
				</clipPath>
				<clipPath id="XMLID_113_" class="st33">
					<use xlink:href="#XMLID_8626_"  style="overflow:visible;"/>
				</clipPath>
				<clipPath id="XMLID_114_" class="st34">
					<use xlink:href="#XMLID_8625_"  style="overflow:visible;"/>
				</clipPath>
				<circle id="XMLID_8484_" class="st35" cx="139.8" cy="41.7" r="3.4"/>
				<circle id="XMLID_8483_" class="st36" cx="139.4" cy="41.7" r="1.7"/>
				<circle id="XMLID_8480_" class="st37" cx="137.9" cy="41.1" r="0.9"/>
			</g>
			<path id="XMLID_8478_" class="st22" d="M129,39.4c-1.1,4.2-4.5,3.5-8.4,3c-4.1-0.5-3.5-4.6-3-4.8C121.7,35.2,129,38.1,129,39.4z"
				/>
			<path id="XMLID_8477_" class="st23" d="M129,40.2c-0.5,2.5-4.3,3.6-8.1,3.2c-4-0.5-3.7-5.2-3.2-5.3
				C122.2,36.8,129.3,38.9,129,40.2z"/>
			<g id="XMLID_8438_">
				<g id="XMLID_8458_">
					<g id="XMLID_8459_">
						<defs>
							<path id="XMLID_8620_" d="M129,40.2c-0.5,2.5-4.3,3.8-8.1,3.2c-3.9-0.6-3.2-5.3-3.2-5.3C122.2,36.8,129.3,38.9,129,40.2z"/>
						</defs>
						<defs>
							<path id="XMLID_8619_" d="M129,40.2c-0.5,2.5-4.3,3.8-8.1,3.2c-3.9-0.6-3.2-5.3-3.2-5.3C122.2,36.8,129.3,38.9,129,40.2z"/>
						</defs>
						<defs>
							<path id="XMLID_8618_" d="M129,40.2c-0.5,2.5-4.3,3.8-8.1,3.2c-3.9-0.6-3.2-5.3-3.2-5.3C122.2,36.8,129.3,38.9,129,40.2z"/>
						</defs>
						<defs>
							<path id="XMLID_8617_" d="M129,40.2c-0.5,2.5-4.3,3.8-8.1,3.2c-3.9-0.6-3.2-5.3-3.2-5.3C122.2,36.8,129.3,38.9,129,40.2z"/>
						</defs>
						<defs>
							<path id="XMLID_8616_" d="M129,40.2c-0.5,2.5-4.3,3.8-8.1,3.2c-3.9-0.6-3.2-5.3-3.2-5.3C122.2,36.8,129.3,38.9,129,40.2z"/>
						</defs>
						<defs>
							<path id="XMLID_8615_" d="M129,40.2c-0.5,2.5-4.3,3.8-8.1,3.2c-3.9-0.6-3.2-5.3-3.2-5.3C122.2,36.8,129.3,38.9,129,40.2z"/>
						</defs>
						<defs>
							<path id="XMLID_8613_" d="M129,40.2c-0.5,2.5-4.3,3.8-8.1,3.2c-3.9-0.6-3.2-5.3-3.2-5.3C122.2,36.8,129.3,38.9,129,40.2z"/>
						</defs>
						<defs>
							<path id="XMLID_8612_" d="M129,40.2c-0.5,2.5-4.3,3.8-8.1,3.2c-3.9-0.6-3.2-5.3-3.2-5.3C122.2,36.8,129.3,38.9,129,40.2z"/>
						</defs>
						<defs>
							<path id="XMLID_8611_" d="M129,40.2c-0.5,2.5-4.3,3.8-8.1,3.2c-3.9-0.6-3.2-5.3-3.2-5.3C122.2,36.8,129.3,38.9,129,40.2z"/>
						</defs>
						<defs>
							<path id="XMLID_8609_" d="M129,40.2c-0.5,2.5-4.3,3.8-8.1,3.2c-3.9-0.6-3.2-5.3-3.2-5.3C122.2,36.8,129.3,38.9,129,40.2z"/>
						</defs>
						<defs>
							<path id="XMLID_8608_" d="M129,40.2c-0.5,2.5-4.3,3.8-8.1,3.2c-3.9-0.6-3.2-5.3-3.2-5.3C122.2,36.8,129.3,38.9,129,40.2z"/>
						</defs>
						<defs>
							<path id="XMLID_8607_" d="M129,40.2c-0.5,2.5-4.3,3.8-8.1,3.2c-3.9-0.6-3.2-5.3-3.2-5.3C122.2,36.8,129.3,38.9,129,40.2z"/>
						</defs>
						<clipPath id="XMLID_115_">
							<use xlink:href="#XMLID_8620_"  style="overflow:visible;"/>
						</clipPath>
						<clipPath id="XMLID_116_" class="st38">
							<use xlink:href="#XMLID_8619_"  style="overflow:visible;"/>
						</clipPath>
						<clipPath id="XMLID_117_" class="st39">
							<use xlink:href="#XMLID_8618_"  style="overflow:visible;"/>
						</clipPath>
						<clipPath id="XMLID_118_" class="st40">
							<use xlink:href="#XMLID_8617_"  style="overflow:visible;"/>
						</clipPath>
						<clipPath id="XMLID_119_" class="st41">
							<use xlink:href="#XMLID_8616_"  style="overflow:visible;"/>
						</clipPath>
						<clipPath id="XMLID_120_" class="st42">
							<use xlink:href="#XMLID_8615_"  style="overflow:visible;"/>
						</clipPath>
						<clipPath id="XMLID_121_" class="st43">
							<use xlink:href="#XMLID_8613_"  style="overflow:visible;"/>
						</clipPath>
						<clipPath id="XMLID_122_" class="st44">
							<use xlink:href="#XMLID_8612_"  style="overflow:visible;"/>
						</clipPath>
						<clipPath id="XMLID_123_" class="st45">
							<use xlink:href="#XMLID_8611_"  style="overflow:visible;"/>
						</clipPath>
						<clipPath id="XMLID_124_" class="st46">
							<use xlink:href="#XMLID_8609_"  style="overflow:visible;"/>
						</clipPath>
						<clipPath id="XMLID_125_" class="st47">
							<use xlink:href="#XMLID_8608_"  style="overflow:visible;"/>
						</clipPath>
						<clipPath id="XMLID_126_" class="st48">
							<use xlink:href="#XMLID_8607_"  style="overflow:visible;"/>
						</clipPath>
						<circle id="XMLID_8476_" class="st49" cx="122.2" cy="40.5" r="3.2"/>
						<circle id="XMLID_8475_" class="st50" cx="121.7" cy="40.5" r="1.6"/>
						<circle id="XMLID_8460_" class="st51" cx="120.6" cy="39.6" r="0.8"/>
					</g>
				</g>
				<path id="XMLID_8455_" class="st52" d="M167.6,25.9c1.9-2.9,4.4-8.1,2.4-13.3s-9.6-9-15.3-8.9c-5.6,0.1-7.8-2.3-13.3-3.5
					c-5.5-1.2-13,2.3-18.1,3.4c-5,1.1-4.9,6.3-1.4,7.2c3.4,1,5.8-1.6,11.1-2c5.3-0.4,7.4,5.1,13.2,5.3c5.8,0.1,5.3,3.2,6.7,5.6
					c1.3,2.5-2.6,4.4-4,6.5c-1.3,2.1,1,3.3,4,6.3c3.1,3,2.2,9.3,1.9,12.8c-0.3,3.5-1.7,5.9-1.7,5.9l4.5,0.7l7.2-5.9
					C167.5,41.5,165.8,28.9,167.6,25.9z"/>
				<path id="XMLID_8454_" class="st53" d="M126.9,33.5c-1.6-0.8-4.6-0.1-6.2,0.4c-1.6,0.5-2,0.2-2.3-0.2c-0.3-0.3,1.8-3.1,7-2.8
					c3,0.2,4.4,1,4.7,2.3S128.4,34.3,126.9,33.5z"/>
				<path id="XMLID_8453_" class="st54" d="M138.5,34.6c1.7-0.6,6.1,0.7,7.6,1.3c1.5,0.5,2,0.3,2.3,0.1c0.3-0.2-1.9-3.5-7-4.1
					s-5.6,0.8-6,2.1C135.1,35.3,136.9,35.1,138.5,34.6z"/>
				<g id="XMLID_8451_">
					<path id="XMLID_8452_" class="st18" d="M170.5,129.2c-1.5,10.1,6.2,45.6,8.1,61.1c1.9,15.5,5,48.7,5,48.7
						c2,2.2,18,4.1,18.7-0.8c3.1-15.1,0.3-35.6-1.3-46.5c-1.6-10.8-2-53-4.3-64.6c-2.3-11.7-5-18.2-5-18.2
						C184.3,102.9,172,119.1,170.5,129.2z"/>
				</g>
				<path id="XMLID_8450_" class="st55" d="M156.1,54.9c-0.5,2.3-0.9,4.2-1.1,5.7c-1.2,9.8-14.9,21.2-16.1,23.3
					c-0.8,1.4-5.6,1.7-9.8,1.5c2.9-0.2,5.6-1,6.1-2c1.2-2.1,18.7-15.1,20-24.8C155.3,57.5,155.6,56.3,156.1,54.9z"/>
				<path id="XMLID_8446_" class="st56" d="M154.6,60.5c0,0-0.4,3.3,3.5,3.2s1-6.3,3.8-8.3c2.9-2,5.6-5.4,4.6-10.1s-6.5-3-9.9,1"/>
				<path id="XMLID_8445_" class="st56" d="M157.3,57.2c0-1.7,0.5-3.2,4.1-5.4c3.5-2.2,1.9-6.4-0.5-5"/>
				<g id="XMLID_8442_">
					<path id="XMLID_8444_" class="st56" d="M130.3,58.3c-1.9-0.2-4.8,0.1-5.5-1.1c-0.7-1.2,0.7-6.2,2.8-6.6
						c0.1-1.3,1.8-8.3,2.6-9.7"/>
				</g>
			</g>
			<g id="XMLID_8436_">
				<path id="XMLID_8437_" class="st18" d="M177.9,222.7c2,0.5,0.8,12.5,0,13.3c-0.9,0.8-23.9-1.1-23.9-1.1l2-11.5
					C157.5,220.9,176,222.1,177.9,222.7z"/>
			</g>
			<g id="XMLID_8430_">
				<path id="XMLID_8434_" class="st18" d="M94,220.9c0,0-3.8,14.3-1.3,14.3s17.5,2,17.5,2l0.8-15.8C110.1,220.5,94,220.9,94,220.9z
					"/>
			</g>
		</g>
		<path id="XMLID_8428_" class="st57" d="M121.5,65.6c-0.1-0.1-0.2-0.2-0.1-0.3c0.1-0.1,0.2-0.2,0.3-0.1c0,0,5.9,2.5,11.1,1.1
			c5.2-1.4,7-3.3,7-3.3c0.1-0.1,0.2-0.1,0.3,0c0.1,0.1,0.1,0.2,0,0.3c-0.1,0.1-1.9,2.1-7.2,3.5c-1.9,0.5-3.8,0.5-5.5,0.3
			C124.1,66.7,121.5,65.7,121.5,65.6z"/>
		<path id="XMLID_8426_" class="st57" d="M140.7,65.2c-0.2,0-0.2,0.1-0.2-0.1c0.3-2-2.7-3.1-2.7-3.1c-0.2-0.1-0.2-0.2-0.2-0.3
			c0.1-0.1,0.2-0.2,0.3-0.2c0.2,0.1,3.3,1.2,2.9,3.6C140.9,65.4,140.9,65.2,140.7,65.2L140.7,65.2z"/>
		<path id="XMLID_8377_" class="st57" d="M130.8,73.4c-0.6-1-1.4-1.5-2.3-1.7c-2.2-0.5-4.4,1.3-4.4,1.3c-0.1,0-0.2,0-0.2-0.1
			c-0.1-0.1-0.1-0.2,0-0.2c0.1-0.1,2.4-1.9,4.7-1.4c1.1,0.2,1.9,0.8,2.5,1.9c0.1,0.1,0.1,0.2-0.1,0.3c0.1,0,0.1,0,0,0
			C130.9,73.5,130.9,73.4,130.8,73.4z"/>
	</g>
	<g id="XMLID_8372_">
		<rect id="XMLID_8375_" x="13.3" y="123.9" class="st23" width="243.4" height="158.4"/>
		<path id="XMLID_8373_" class="st58" d="M17,127.6h236v150.9H17V127.6 M9.6,120.1v165.9h250.9V120.1H9.6L9.6,120.1z"/>
	</g>
	<g id="XMLID_1122_">
		<g id="XMLID_8365_">
			<path id="XMLID_8367_" class="st59" d="M7.7,166.6c-1.4,1.7-0.3,4.9,1.8,5.4c2,0.5,5.9-1.2,7.9-3.3c0.9-1,0.5-2.3-0.2-2.9
				C15.9,164.6,9.2,165.7,7.7,166.6c0,0,0.7,0.3,0.6,0.4"/>
			<path id="XMLID_8366_" class="st60" d="M7.7,166.6c-1.4,1.7-0.3,4.9,1.8,5.4c2,0.5,5.9-1.2,7.9-3.3c0.9-1,0.5-2.3-0.2-2.9
				C15.9,164.6,9.2,165.7,7.7,166.6c0,0,0.7,0.3,0.6,0.4"/>
		</g>
		<g id="XMLID_7280_">
			<path id="XMLID_7435_" class="st59" d="M9.3,166.3c-1.2-0.2-2.5,0.7-3.6,0.4c-1.1-0.2-1.7-1.3-2.3-2.1c-1.3-2.1-0.2-4,2.3-4.4
				c2.7-0.4,10.2-0.8,10.8,1.1c1,2.6,0.5,3.8-1.6,4.2C13.8,165.8,11.2,166.3,9.3,166.3"/>
			<path id="XMLID_7417_" class="st60" d="M9.3,166.3c-1.2-0.2-2.5,0.7-3.6,0.4c-1.1-0.2-1.7-1.3-2.3-2.1c-1.3-2.1-0.2-4,2.3-4.4
				c2.7-0.4,10.2-0.8,10.8,1.1c1,2.6,0.5,3.8-1.6,4.2C13.8,165.8,11.2,166.3,9.3,166.3"/>
		</g>
		<g id="XMLID_1136_">
			<path id="XMLID_1433_" class="st59" d="M5.8,160.2c-1.9,0.3-3.6,0.1-4.9-1.6c-1.4-2-0.2-5.3,2.6-5c3.4,0.5,9.6,0.2,10.8,3.1
				c0.8,2,0.3,3.6-1.7,3.3C11.7,159.9,5.8,160.2,5.8,160.2z"/>
			<path id="XMLID_1405_" class="st60" d="M5.8,160.2c-1.9,0.3-3.6,0.1-4.9-1.6c-1.4-2-0.2-5.3,2.6-5c3.4,0.5,9.6,0.2,10.8,3.1
				c0.8,2,0.3,3.6-1.7,3.3C11.7,159.9,5.8,160.2,5.8,160.2z"/>
		</g>
		<g id="XMLID_1123_">
			<path id="XMLID_1130_" class="st59" d="M1.4,150.7c-0.8,2.9,2.4,3,4.5,3.5c2,0.3,4.4,1.1,6.5,0.7c2-0.4,3.1-2.5,1.7-4
				c-1.2-1.4-4.7-2.2-6.4-2.9c-1.1-0.4-2.3-0.4-3.5-0.7C1.5,146.5,1.3,150.7,1.4,150.7z"/>
			<path id="XMLID_1129_" class="st60" d="M1.4,150.7c-0.8,2.9,2.4,3,4.5,3.5c2,0.3,4.4,1.1,6.5,0.7c2-0.4,3.1-2.5,1.7-4
				c-1.2-1.4-4.7-2.2-6.4-2.9c-1.1-0.4-2.3-0.4-3.5-0.7C1.5,146.5,1.3,150.7,1.4,150.7z"/>
		</g>
	</g>
	<rect id="XMLID_1084_" x="13.3" y="244" class="st58" width="243.4" height="35.5"/>
	<g id="XMLID_9675_">
		<g id="XMLID_1046_">
			<path id="XMLID_1059_" class="st59" d="M221.2,288.4c1.7,1.4,4.9,0.2,5.4-1.9c0.5-2-1.3-5.9-3.4-7.9c-1-0.8-2.3-0.4-2.9,0.3
				C219.1,280.3,220.3,287,221.2,288.4c0.1,0.1,0.4-0.6,0.5-0.5"/>
			<path id="XMLID_1048_" class="st60" d="M221.2,288.4c1.7,1.4,4.9,0.2,5.4-1.9c0.5-2-1.3-5.9-3.4-7.9c-1-0.8-2.3-0.4-2.9,0.3
				C219.1,280.3,220.3,287,221.2,288.4c0.1,0.1,0.4-0.6,0.5-0.5"/>
		</g>
		<g id="XMLID_9682_">
			<path id="XMLID_97_" class="st59" d="M220.9,286.8c-0.2,1.2,0.7,2.3,0.4,3.6c-0.2,1.1-1.2,1.7-2.1,2.3c-2.1,1.4-4,0.3-4.4-2.3
				c-0.5-2.7-0.9-10.2,1-10.9c2.6-1,3.8-0.6,4.2,1.5c0.3,1.1,0.8,3.8,0.9,5.6"/>
			<path id="XMLID_84_" class="st60" d="M220.9,286.8c-0.2,1.2,0.7,2.3,0.4,3.6c-0.2,1.1-1.2,1.7-2.1,2.3c-2.1,1.4-4,0.3-4.4-2.3
				c-0.5-2.7-0.9-10.2,1-10.9c2.6-1,3.8-0.6,4.2,1.5c0.3,1.1,0.8,3.8,0.9,5.6"/>
		</g>
		<g id="XMLID_9679_">
			<path id="XMLID_9681_" class="st59" d="M214.7,290.5c0.3,1.9,0.2,3.6-1.5,4.9c-2,1.5-5.3,0.3-5-2.5c0.5-3.4,0.1-9.6,2.9-10.8
				c2-0.8,3.6-0.3,3.3,1.6C214.4,284.6,214.8,290.4,214.7,290.5z"/>
			<path id="XMLID_9680_" class="st60" d="M214.7,290.5c0.3,1.9,0.2,3.6-1.5,4.9c-2,1.5-5.3,0.3-5-2.5c0.5-3.4,0.1-9.6,2.9-10.8
				c2-0.8,3.6-0.3,3.3,1.6C214.4,284.6,214.8,290.4,214.7,290.5z"/>
		</g>
		<g id="XMLID_9676_">
			<path id="XMLID_9678_" class="st59" d="M205.3,295.1c2.9,0.8,3-2.5,3.4-4.6c0.3-2,1-4.4,0.6-6.5c-0.4-2-2.5-3.1-4-1.7
				c-1.4,1.2-2.1,4.8-2.8,6.5c-0.4,1.1-0.3,2.3-0.7,3.5C201.1,294.9,205.3,295.2,205.3,295.1z"/>
			<path id="XMLID_9677_" class="st60" d="M205.3,295.1c2.9,0.8,3-2.5,3.4-4.6c0.3-2,1-4.4,0.6-6.5c-0.4-2-2.5-3.1-4-1.7
				c-1.4,1.2-2.1,4.8-2.8,6.5c-0.4,1.1-0.3,2.3-0.7,3.5C201.1,294.9,205.3,295.2,205.3,295.1z"/>
		</g>
	</g>
	<g id="XMLID_9517_">
		<path id="XMLID_9524_" class="st23" d="M68.4,277.4c-3.4,0-6.7-1.1-9.3-3.2c-6.5-5.2-7.6-14.7-2.4-21.2c2.9-3.6,7.2-5.7,11.8-5.7
			c3.4,0,6.7,1.1,9.3,3.2c3.2,2.5,5.1,6.1,5.6,10.1c0.2,1.9,0.1,3.8-0.4,5.6c-0.3,1.1-0.8,2.3-1.3,3.3c-0.2,0.5-0.8,0.7-1.4,0.4
			c-0.5-0.2-0.7-0.8-0.4-1.4c0.5-0.9,0.9-1.9,1.1-2.9c0.5-1.6,0.5-3.2,0.4-4.9c-0.4-3.5-2.1-6.6-4.9-8.7c-2.3-1.8-5.2-2.9-8.1-2.9
			c-4,0-7.8,1.8-10.2,5c-4.5,5.6-3.5,13.9,2.1,18.4c2.3,1.8,5.2,2.9,8.1,2.9c0.5,0,1,0.5,1,1C69.4,276.9,69,277.4,68.4,277.4
			L68.4,277.4z"/>
		<path id="XMLID_9523_" class="st23" d="M68.4,272.8c-2.4,0-4.7-0.8-6.6-2.3c-4.6-3.6-5.3-10.3-1.7-14.9c2-2.6,5-4,8.3-4
			c2.4,0,4.7,0.8,6.6,2.3c2.2,1.7,3.6,4.3,3.9,7.1c0.2,1.4,0.1,2.8-0.4,4.1c-0.2,0.5-0.7,0.8-1.2,0.7s-0.8-0.7-0.7-1.2
			c0.3-1.1,0.4-2.3,0.3-3.4c-0.2-2.3-1.4-4.4-3.2-5.8c-1.5-1.2-3.5-1.9-5.3-1.9c-2.6,0-5.1,1.2-6.8,3.2c-2.9,3.8-2.3,9.2,1.4,12.1
			c1.5,1.2,3.5,1.9,5.3,1.9c0.5,0,1,0.5,1,1C69.4,272.5,69,272.8,68.4,272.8L68.4,272.8z"/>
		<path id="XMLID_9522_" class="st61" d="M73.6,262.3c0,2.9-2.3,5.2-5.2,5.2c-2.9,0-5.2-2.3-5.2-5.2s2.3-5.2,5.2-5.2
			C71.3,257.1,73.6,259.4,73.6,262.3L73.6,262.3z"/>
		<path id="XMLID_9519_" class="st58" d="M68.4,268.4c-1.4,0-2.7-0.5-3.8-1.4c-2.6-2.1-3.1-6-1-8.7c1.2-1.5,2.9-2.3,4.8-2.3
			c1.4,0,2.7,0.5,3.8,1.4c2.6,2.1,3.1,6,1,8.7C72.1,267.6,70.3,268.4,68.4,268.4L68.4,268.4z M68.4,258.1c-1.3,0-2.5,0.6-3.3,1.6
			c-1.4,1.8-1.1,4.4,0.7,5.9c0.8,0.6,1.7,0.9,2.6,0.9c1.3,0,2.5-0.6,3.3-1.6c1.4-1.8,1.1-4.4-0.7-5.9
			C70.3,258.4,69.4,258.1,68.4,258.1L68.4,258.1z"/>
		<path id="XMLID_9518_" class="st62" d="M74.9,280.3c1.4,0,2.6-1.1,2.6-2.6v-6.5c0-1.9-1.5-3.5-3.5-3.5h-3.5v-5c0-1.1-0.8-2-1.9-2
			c-1.1-0.1-2,0.8-2,2v8.9l-0.5-1.1c-0.3-0.6-0.8-0.9-1.4-0.9c-0.2,0-0.5,0.1-0.8,0.2c-0.8,0.5-1.1,1.6-0.6,2.4c0,0,1.7,4,2.9,6.6
			c0.5,0.9,1.3,1.4,2.3,1.4L74.9,280.3L74.9,280.3z"/>
	</g>
	<g id="XMLID_54_">
		<path id="XMLID_55_" class="st23" d="M96.9,265.9l1.8,0.6c-0.3,1-0.7,1.8-1.4,2.3c-0.6,0.5-1.5,0.7-2.5,0.7c-1.2,0-2.3-0.4-3-1.3
			c-0.8-0.8-1.2-2-1.2-3.5c0-1.5,0.4-2.8,1.2-3.6c0.8-0.9,1.9-1.3,3.2-1.3c1.1,0,2.1,0.3,2.8,1c0.4,0.4,0.7,1,1,1.7l-1.9,0.4
			c-0.1-0.5-0.3-0.9-0.7-1.1c-0.3-0.3-0.8-0.4-1.3-0.4c-0.7,0-1.2,0.2-1.7,0.7c-0.4,0.5-0.6,1.3-0.6,2.4c0,1.2,0.2,2,0.6,2.5
			s1,0.7,1.7,0.7c0.5,0,0.9-0.2,1.3-0.5C96.5,267.1,96.8,266.6,96.9,265.9z"/>
		<path id="XMLID_57_" class="st23" d="M100.3,269.3V260h1.8v9.3H100.3z"/>
		<path id="XMLID_59_" class="st23" d="M103.9,261.7V260h1.8v1.7H103.9z M103.9,269.3v-6.7h1.8v6.7H103.9z"/>
		<path id="XMLID_62_" class="st23" d="M113.4,264.6l-1.8,0.3c-0.1-0.4-0.2-0.6-0.4-0.8c-0.2-0.2-0.5-0.3-0.8-0.3
			c-0.4,0-0.8,0.2-1.1,0.5c-0.3,0.3-0.4,0.8-0.4,1.5c0,0.8,0.1,1.4,0.4,1.7c0.3,0.3,0.6,0.5,1.1,0.5c0.3,0,0.6-0.1,0.8-0.3
			s0.4-0.5,0.5-1l1.8,0.3c-0.2,0.8-0.5,1.4-1,1.8c-0.5,0.4-1.2,0.6-2.1,0.6c-1,0-1.8-0.3-2.4-0.9c-0.6-0.6-0.9-1.5-0.9-2.6
			c0-1.1,0.3-2,0.9-2.6s1.4-0.9,2.4-0.9c0.8,0,1.5,0.2,2,0.5C112.9,263.3,113.2,263.9,113.4,264.6z"/>
		<path id="XMLID_64_" class="st23" d="M118.3,262.6h1.7v1c0.2-0.3,0.5-0.6,0.9-0.8s0.8-0.3,1.2-0.3c0.8,0,1.4,0.3,2,0.9
			c0.5,0.6,0.8,1.5,0.8,2.6c0,1.1-0.3,2-0.8,2.6s-1.2,0.9-2,0.9c-0.4,0-0.7-0.1-1-0.2c-0.3-0.1-0.6-0.4-1-0.8v3.4h-1.8V262.6z
			 M120.1,265.9c0,0.8,0.2,1.3,0.5,1.7c0.3,0.4,0.7,0.5,1.1,0.5c0.4,0,0.8-0.2,1-0.5s0.4-0.9,0.4-1.6c0-0.7-0.1-1.2-0.4-1.6
			c-0.3-0.3-0.6-0.5-1.1-0.5c-0.4,0-0.8,0.2-1.1,0.5C120.3,264.7,120.1,265.2,120.1,265.9z"/>
		<path id="XMLID_67_" class="st23" d="M127.7,264.7l-1.6-0.3c0.2-0.7,0.5-1.1,0.9-1.4s1.1-0.5,2-0.5c0.8,0,1.4,0.1,1.8,0.3
			s0.7,0.4,0.8,0.7c0.2,0.3,0.2,0.8,0.2,1.6l0,2.1c0,0.6,0,1,0.1,1.3c0.1,0.3,0.2,0.6,0.3,0.9h-1.8c0-0.1-0.1-0.3-0.2-0.5
			c0-0.1-0.1-0.2-0.1-0.2c-0.3,0.3-0.6,0.5-1,0.7c-0.3,0.1-0.7,0.2-1.1,0.2c-0.7,0-1.2-0.2-1.6-0.6c-0.4-0.4-0.6-0.9-0.6-1.4
			c0-0.4,0.1-0.7,0.3-1c0.2-0.3,0.4-0.5,0.8-0.7c0.3-0.2,0.8-0.3,1.4-0.4c0.8-0.2,1.4-0.3,1.7-0.4v-0.2c0-0.3-0.1-0.6-0.3-0.7
			c-0.2-0.1-0.5-0.2-1-0.2c-0.3,0-0.6,0.1-0.7,0.2C127.9,264.1,127.8,264.4,127.7,264.7z M130.1,266.1c-0.2,0.1-0.6,0.2-1.1,0.3
			c-0.5,0.1-0.8,0.2-1,0.3c-0.2,0.2-0.3,0.4-0.3,0.6c0,0.3,0.1,0.5,0.3,0.6c0.2,0.2,0.4,0.3,0.7,0.3c0.3,0,0.6-0.1,0.9-0.3
			c0.2-0.2,0.4-0.4,0.4-0.6c0-0.2,0.1-0.4,0.1-0.9V266.1z"/>
		<path id="XMLID_70_" class="st23" d="M135.3,269.3h-1.8v-6.7h1.7v1c0.3-0.5,0.5-0.8,0.8-0.9c0.2-0.1,0.5-0.2,0.8-0.2
			c0.4,0,0.8,0.1,1.2,0.3l-0.6,1.6c-0.3-0.2-0.6-0.3-0.8-0.3c-0.3,0-0.5,0.1-0.6,0.2c-0.2,0.1-0.3,0.4-0.4,0.7s-0.1,1.1-0.1,2.3
			V269.3z"/>
		<path id="XMLID_72_" class="st23" d="M140,264.7l-1.6-0.3c0.2-0.7,0.5-1.1,0.9-1.4s1.1-0.5,2-0.5c0.8,0,1.4,0.1,1.8,0.3
			s0.7,0.4,0.8,0.7c0.2,0.3,0.2,0.8,0.2,1.6l0,2.1c0,0.6,0,1,0.1,1.3c0.1,0.3,0.2,0.6,0.3,0.9h-1.8c0-0.1-0.1-0.3-0.2-0.5
			c0-0.1-0.1-0.2-0.1-0.2c-0.3,0.3-0.6,0.5-1,0.7c-0.3,0.1-0.7,0.2-1.1,0.2c-0.7,0-1.2-0.2-1.6-0.6c-0.4-0.4-0.6-0.9-0.6-1.4
			c0-0.4,0.1-0.7,0.3-1c0.2-0.3,0.4-0.5,0.8-0.7c0.3-0.2,0.8-0.3,1.4-0.4c0.8-0.2,1.4-0.3,1.7-0.4v-0.2c0-0.3-0.1-0.6-0.3-0.7
			c-0.2-0.1-0.5-0.2-1-0.2c-0.3,0-0.6,0.1-0.7,0.2S140.1,264.4,140,264.7z M142.3,266.1c-0.2,0.1-0.6,0.2-1.1,0.3
			c-0.5,0.1-0.8,0.2-1,0.3c-0.2,0.2-0.3,0.4-0.3,0.6c0,0.3,0.1,0.5,0.3,0.6c0.2,0.2,0.4,0.3,0.7,0.3c0.3,0,0.6-0.1,0.9-0.3
			c0.2-0.2,0.4-0.4,0.4-0.6c0-0.2,0.1-0.4,0.1-0.9V266.1z"/>
		<path id="XMLID_75_" class="st23" d="M151.3,269.3l-2.7-6.7h1.9l1.3,3.4l0.4,1.1c0.1-0.3,0.2-0.5,0.2-0.6c0.1-0.2,0.1-0.4,0.2-0.6
			l1.3-3.4h1.8l-2.7,6.7H151.3z"/>
		<path id="XMLID_77_" class="st23" d="M160.6,267.2l1.8,0.3c-0.2,0.7-0.6,1.1-1.1,1.5c-0.5,0.3-1.1,0.5-1.8,0.5
			c-1.2,0-2-0.4-2.6-1.1c-0.4-0.6-0.7-1.4-0.7-2.3c0-1.1,0.3-2,0.9-2.6s1.3-0.9,2.2-0.9c1,0,1.8,0.3,2.4,1c0.6,0.7,0.9,1.7,0.8,3
			H158c0,0.5,0.2,0.9,0.4,1.2s0.6,0.4,1,0.4c0.3,0,0.5-0.1,0.7-0.2C160.4,267.8,160.5,267.5,160.6,267.2z M160.7,265.4
			c0-0.5-0.1-0.9-0.4-1.2s-0.6-0.4-0.9-0.4c-0.4,0-0.7,0.1-1,0.4s-0.4,0.7-0.4,1.2H160.7z"/>
		<path id="XMLID_80_" class="st23" d="M165.6,269.3h-1.8v-6.7h1.7v1c0.3-0.5,0.5-0.8,0.8-0.9s0.5-0.2,0.8-0.2
			c0.4,0,0.8,0.1,1.2,0.3l-0.6,1.6c-0.3-0.2-0.6-0.3-0.8-0.3c-0.2,0-0.5,0.1-0.6,0.2s-0.3,0.4-0.4,0.7s-0.1,1.1-0.1,2.3V269.3z"/>
		<path id="XMLID_82_" class="st23" d="M176.5,267.2l1.8,0.3c-0.2,0.7-0.6,1.1-1.1,1.5s-1.1,0.5-1.9,0.5c-1.2,0-2-0.4-2.6-1.1
			c-0.4-0.6-0.7-1.4-0.7-2.3c0-1.1,0.3-2,0.9-2.6s1.3-0.9,2.2-0.9c1,0,1.8,0.3,2.4,1s0.9,1.7,0.8,3h-4.5c0,0.5,0.2,0.9,0.4,1.2
			c0.3,0.3,0.6,0.4,1,0.4c0.3,0,0.5-0.1,0.7-0.2S176.4,267.5,176.5,267.2z M176.6,265.4c0-0.5-0.1-0.9-0.4-1.2s-0.6-0.4-0.9-0.4
			c-0.4,0-0.7,0.1-1,0.4s-0.4,0.7-0.4,1.2H176.6z"/>
		<path id="XMLID_86_" class="st23" d="M181.6,262.6v6.5c0,0.9-0.1,1.5-0.2,1.8c-0.1,0.4-0.3,0.6-0.6,0.8c-0.3,0.2-0.7,0.3-1.2,0.3
			c-0.2,0-0.4,0-0.6,0c-0.2,0-0.4-0.1-0.7-0.1l0.3-1.5c0.1,0,0.2,0,0.2,0c0.1,0,0.1,0,0.2,0c0.2,0,0.3,0,0.4-0.1
			c0.1-0.1,0.2-0.2,0.2-0.3c0-0.1,0.1-0.4,0.1-1v-6.4H181.6z M179.8,261.7V260h1.8v1.7H179.8z"/>
		<path id="XMLID_89_" class="st23" d="M187.3,267.2l1.8,0.3c-0.2,0.7-0.6,1.1-1.1,1.5s-1.1,0.5-1.9,0.5c-1.2,0-2-0.4-2.6-1.1
			c-0.4-0.6-0.7-1.4-0.7-2.3c0-1.1,0.3-2,0.9-2.6s1.3-0.9,2.2-0.9c1,0,1.8,0.3,2.4,1s0.9,1.7,0.8,3h-4.5c0,0.5,0.2,0.9,0.4,1.2
			c0.3,0.3,0.6,0.4,1,0.4c0.3,0,0.5-0.1,0.7-0.2S187.2,267.5,187.3,267.2z M187.4,265.4c0-0.5-0.1-0.9-0.4-1.2s-0.6-0.4-0.9-0.4
			c-0.4,0-0.7,0.1-1,0.4s-0.4,0.7-0.4,1.2H187.4z"/>
		<path id="XMLID_92_" class="st23" d="M190.5,262.6h1.6v0.9c0.6-0.7,1.3-1.1,2.1-1.1c0.4,0,0.8,0.1,1.1,0.3s0.6,0.4,0.8,0.8
			c0.3-0.4,0.6-0.6,1-0.8s0.7-0.3,1.1-0.3c0.5,0,0.9,0.1,1.3,0.3c0.3,0.2,0.6,0.5,0.8,0.9c0.1,0.3,0.2,0.8,0.2,1.4v4.3h-1.8v-3.9
			c0-0.7-0.1-1.1-0.2-1.3c-0.2-0.3-0.4-0.4-0.8-0.4c-0.2,0-0.5,0.1-0.7,0.2s-0.4,0.4-0.5,0.7c-0.1,0.3-0.1,0.8-0.1,1.4v3.2h-1.8
			v-3.7c0-0.7,0-1.1-0.1-1.3s-0.2-0.3-0.3-0.4c-0.1-0.1-0.3-0.1-0.5-0.1c-0.3,0-0.5,0.1-0.7,0.2c-0.2,0.1-0.4,0.4-0.5,0.6
			c-0.1,0.3-0.1,0.7-0.1,1.4v3.3h-1.8V262.6z"/>
		<path id="XMLID_94_" class="st23" d="M202.2,262.6h1.7v1c0.2-0.3,0.5-0.6,0.9-0.8c0.4-0.2,0.8-0.3,1.2-0.3c0.8,0,1.4,0.3,2,0.9
			c0.5,0.6,0.8,1.5,0.8,2.6c0,1.1-0.3,2-0.8,2.6c-0.5,0.6-1.2,0.9-2,0.9c-0.4,0-0.7-0.1-1-0.2c-0.3-0.1-0.6-0.4-1-0.8v3.4h-1.8
			V262.6z M203.9,265.9c0,0.8,0.2,1.3,0.5,1.7c0.3,0.4,0.7,0.5,1.1,0.5c0.4,0,0.8-0.2,1-0.5s0.4-0.9,0.4-1.6c0-0.7-0.1-1.2-0.4-1.6
			c-0.3-0.3-0.6-0.5-1.1-0.5c-0.4,0-0.8,0.2-1.1,0.5C204.1,264.7,203.9,265.2,203.9,265.9z"/>
		<path id="XMLID_98_" class="st23" d="M210.2,269.3V260h1.8v9.3H210.2z"/>
		<path id="XMLID_100_" class="st23" d="M213.4,265.9c0-0.6,0.1-1.2,0.4-1.7c0.3-0.6,0.7-1,1.2-1.3c0.5-0.3,1.1-0.4,1.8-0.4
			c1,0,1.9,0.3,2.5,1s1,1.5,1,2.5c0,1-0.3,1.9-1,2.5s-1.5,1-2.5,1c-0.6,0-1.2-0.1-1.8-0.4c-0.6-0.3-1-0.7-1.3-1.2
			C213.5,267.3,213.4,266.7,213.4,265.9z M215.2,266c0,0.7,0.2,1.2,0.5,1.5c0.3,0.4,0.7,0.5,1.2,0.5s0.9-0.2,1.2-0.5
			c0.3-0.4,0.5-0.9,0.5-1.5c0-0.7-0.2-1.2-0.5-1.5c-0.3-0.4-0.7-0.5-1.2-0.5s-0.9,0.2-1.2,0.5C215.4,264.8,215.2,265.3,215.2,266z"
			/>
	</g>
</g>
</svg>
