<?xml version="1.0" encoding="utf-8"?>
<!-- Generator: Adobe Illustrator 19.0.0, SVG Export Plug-In . SVG Version: 6.00 Build 0)  -->
<svg version="1.1" id="Capa_1" xmlns="http://www.w3.org/2000/svg" xmlns:xlink="http://www.w3.org/1999/xlink" x="0px" y="0px"
	 viewBox="0 0 401.5 572" style="enable-background:new 0 0 401.5 572;" xml:space="preserve">
<style type="text/css">
	.st0{clip-path:url(#XMLID_54_);}
	.st1{fill:#C6C6C6;stroke:#575A5B;stroke-width:1.2821;stroke-linecap:round;stroke-linejoin:round;stroke-miterlimit:10;}
	.st2{fill:#FEAD78;stroke:#D36F37;stroke-width:1.0715;stroke-miterlimit:10;}
	.st3{fill:#FEAD78;stroke:#D36F37;stroke-width:1.2616;stroke-linecap:round;stroke-linejoin:round;stroke-miterlimit:10;}
	.st4{fill:#D3B15A;stroke:#8E7338;stroke-width:1.2821;stroke-miterlimit:10;}
	.st5{fill:#C19D4E;}
	.st6{fill:#F2CF91;}
	.st7{fill:#EAC883;}
	.st8{fill:#BF070F;stroke:#7F0A0A;stroke-width:1.3049;stroke-miterlimit:10;}
	.st9{fill:#FEAD78;stroke:#D36F37;stroke-width:1.1073;stroke-miterlimit:10;}
	.st10{fill:#E89669;}
	.st11{fill:#191919;}
	.st12{fill:#D3B15A;}
	.st13{fill:#FEAD78;stroke:#D36F37;stroke-width:1.2616;stroke-miterlimit:10;}
	.st14{fill:#CCA756;}
	.st15{fill:#B2904B;}
	.st16{fill:#D2AF58;}
	.st17{fill:none;stroke:#8E7338;stroke-width:1.2821;stroke-miterlimit:10;}
	.st18{fill:#3D4447;}
	.st19{fill:#7C2A04;}
	.st20{fill:#D68F6B;}
	.st21{fill:#A53D3D;}
	.st22{fill:#7F0A0A;}
	.st23{fill:#571B01;}
	.st24{fill:#FFFFFF;}
	.st25{clip-path:url(#XMLID_55_);}
	.st26{fill:#BC682A;}
	.st27{fill:#713213;}
	.st28{clip-path:url(#XMLID_56_);}
	.st29{fill:#9B3C0C;}
	.st30{fill:#E59A70;}
	.st31{fill:#FFBD99;}
	.st32{fill:#A54F02;}
	.st33{fill:#913601;}
	.st34{fill:#F7F7F7;}
	.st35{opacity:0.3;enable-background:new    ;}
	.st36{opacity:0.3;}
	.st37{fill:none;stroke:#000000;stroke-width:1.2821;stroke-miterlimit:10;}
	.st38{fill:#4D585E;}
	.st39{opacity:0.24;}
	.st40{fill:#F2F2F2;}
	.st41{fill:none;stroke:#4D585E;stroke-width:1.2821;stroke-miterlimit:10;}
</style>
<g id="XMLID_2015_">
	<defs>
		<rect id="XMLID_1988_" x="0" width="401.5" height="572"/>
	</defs>
	<clipPath id="XMLID_54_">
		<use xlink:href="#XMLID_1988_"  style="overflow:visible;"/>
	</clipPath>
	<g id="XMLID_19668_" class="st0">
		<g id="XMLID_19813_">
			<path id="XMLID_19815_" class="st1" d="M374.4,232"/>
			<path id="XMLID_19814_" class="st1" d="M374.4,232"/>
		</g>
		<g id="XMLID_19669_">
			<g id="XMLID_19771_">
				<g id="XMLID_19791_">
					<g id="XMLID_19806_">
						<g id="XMLID_19807_">
							<path id="XMLID_19812_" class="st2" d="M62.1,329c0,0-11.2-10.3-18.2-11.9s-12.6-3.2-15.7-7.7c-3.1-4.3-14.4-17.8-15.8-21.4
								c-1.4-3.6,1.4-17.1,2.2-20.3s5.4,2,4.7,6.7c-0.7,4.7-0.4,12.4,0.9,13.9s5.6,7.2,9.7,8.5c4.1,1.3,9.4,1.4,14.6,0.5
								c5.2-0.9,16.2-4.7,21.8,2.9s3.6,10.3,9,14.2C80.6,318.2,62.1,329,62.1,329z"/>
							<path id="XMLID_19811_" class="st2" d="M73.8,314.2c0,0-3.8-6.3-4.7-11c-0.7-4.7-7.2-7.2-9.7-11.2c-3.6-6.1-3.1-8.6-3.6-15.7
								c-0.4-4.5-6.7,0.4-7,4.9c-0.5,4.9,0.4,10.4,2,13.1s-5.8,2.7-5.8,2.7"/>
							<path id="XMLID_19810_" class="st3" d="M30.1,310.8c-5.4-7.2-11-13.7-10.8-17.6c0.2-4,7.2-16.6,8.8-19.4
								c1.6-2.9,4.5,3.6,2.3,7.7s-4.1,12.1-3.6,13.9c0.5,1.8,5.4,7,6.8,10.6"/>
							<path id="XMLID_19809_" class="st3" d="M31.3,312.6c-3.1-2.9-6.5-7.9-7.6-11.7s8.8-18.2,10.8-20.9c2-2.7,4.1,4,1.4,7.9
								c-2.7,4-5.6,11.2-5,13c1.3,1.3,6.7,5.9,9.4,8.3"/>
							<path id="XMLID_19808_" class="st3" d="M32.9,312.6c-1.6-0.5-3.2-1.6-3.1-5.4c0.2-4.3-0.9-8.6-0.4-10.8
								c0.7-3.2,8.3-10.4,10.3-12.2c2-1.8,2.9,4,0.2,6.8c-2.7,2.9-4,5-4,6.7c0,0.7,1.1,5.9,1.6,8.5c4.3,0.9,9.5,0,13.3,4.5"/>
						</g>
					</g>
					<g id="XMLID_19802_">
						<path id="XMLID_19805_" class="st4" d="M59.8,327.9c0,0-1.1-8.1,5.9-12.6s8.1-4.9,10.4-4c2.3,0.9,7.6,8.1,7.6,8.1l-13.5,18.2
							C70.2,337.5,61,331.3,59.8,327.9z"/>
						<path id="XMLID_19804_" class="st5" d="M71.5,335.8l-1.1,1.6c0,0-9.2-6.1-10.4-9.5c0,0-0.7-6.1,3.6-10.8
							C61.6,324.7,63.4,331.9,71.5,335.8z"/>
						<path id="XMLID_19803_" class="st6" d="M80.3,324c-2.9-5.2-6.3-9-10.6-11.2c3.6-2.2,4.7-2.3,6.7-1.6c2.3,0.9,7.6,8.1,7.6,8.1
							L80.3,324z"/>
					</g>
					<path id="XMLID_19798_" class="st4" d="M139.5,400.5c3.2-3.4,5.8-7.4,7.7-11.7c2.5-5,3.8-9.9,2.7-15.5c-0.9-4.1-2.3-7.9-4-11.9
						c0,0,0,0,0-0.2c-0.7-0.4-1.3-0.7-2-1.1c-23.2-12.2-60.1-41.6-60.1-41.6s-5-2.7-10.6,4.1c-5.8,6.8-2.9,14.2-2.9,14.2
						c19.8,21.6,39.2,40.7,59.4,59C131,397.9,138.6,401.4,139.5,400.5z"/>
					<path id="XMLID_19795_" class="st7" d="M149.4,371.7c-0.9-3.4-2.2-6.8-3.4-10.3c0,0,0,0,0-0.2c-0.7-0.4-1.3-0.7-2-1.1
						c-23.2-12.2-60.1-41.6-60.1-41.6s-4-1.1-5.9,0.5c18.7,14.8,35.1,30.6,56.2,44.3C138.4,366.8,144.7,368.8,149.4,371.7z"/>
					<path id="XMLID_19792_" class="st5" d="M70.4,333.7c0,2.3,0,3.2,0,3.2c16.2,17.8,37.3,38.5,55.4,55.6
						c-2.5-4.1-4.5-8.6-5.9-13.1C103.7,363.6,87.8,348.1,70.4,333.7z"/>
				</g>
				<g id="XMLID_19772_">
					<path id="XMLID_19787_" class="st8" d="M130.1,396.3"/>
					<path id="XMLID_19783_" class="st8" d="M122.6,386.6"/>
					<path id="XMLID_19779_" class="st4" d="M129.1,395.4c3.6,3.6,9.2,5.9,14.2,6.8c2.7,0.5,9.2-4,9.7-6.1
						c6.1-29,19.4-81.4,16.2-104.2c4.3-15.7,11.9-33.5,21.6-52.4c0,0-29,6.7-40.3,6.1c-11.5-0.7-20.9,11.5-19.6,18.9
						c1.3,7.4,0.7,41-2,55.1c-1.6,8.6-1.1,25-2.2,41.2"/>
					<path id="XMLID_19776_" class="st5" d="M166.9,276.4c-5.9-2.7-7-0.7-13.3,3.1c8.5,8.1,9.2,12.6,5.8,26.6
						c-1.1,30.4-3.6,67.1-14.2,94.9c1.8,0.4,6.7-2.2,7.2-4.3c13.1-58.5,13.9-91.3,11.9-114.3L166.9,276.4z"/>
					<path id="XMLID_19773_" class="st7" d="M150.1,245.5c-11.5-0.7-20.9,11.5-19.6,18.9c1.3,7.4,0.7,41-2,55.1
						c-1.8,9.5-1.1,28.6-2.5,46.3c0.5,2.7,1.3,5.4,2,8.1c9.2-38.3-0.5-71.3,8.1-111.2c0-2.5,1.3-6.3,3.8-7.6
						c16.9-2.2,31.7-6.5,48.2-10.1l2.3-5.6C190.6,239.4,161.6,246.2,150.1,245.5z"/>
				</g>
			</g>
			<path id="XMLID_19770_" class="st9" d="M244.3,920.7c-2.7-5-5.8-19.6-6.5-46.1c-0.7-26.5,3.4-60.7,3.4-73.6
				c0-68.8-7.2-81.2-11.5-106.7c-4.3-25.4-7.6-81.2-7.9-106.4c-0.4-25.2-7-70.9-7-70.9l-27.2-110.3l-26.5-3.8
				c-5.4,32.6-33.3,51.5-30.8,123.7c2.5,72.2,44.1,146,50,194.2c5.9,48.4,33.5,182.7,33.8,184.1c0.9,8.5,0.9,18.4-2.5,23.6
				c-7.7,12.1-23.9,35.1-31.5,39.1c-7.6,4.1-2.9,11.2,9.4,9.9c12.2-1.1,16.9,5.2,29.2-12.2c12.2-17.5,16.4-20.5,21.6-25.2
				C245.5,935.4,250.2,931.8,244.3,920.7z"/>
			<path id="XMLID_19769_" class="st9" d="M352.6,959.5c-7-5.6-10.6-19.8-16.9-32.6c-3.8-7.7-6.8-19.8-8.6-28.6
				c-0.5-1.8-2.2-6.3-5.6-33.7c-3.4-27.5-5.4-131.6-14-169c-8.6-37.4-11.7-58.5-10.1-143.3c1.4-75.4-26.8-112.1-39.1-143.5l-0.5-1.6
				c-1.3-3.4-2.3-6.7-3.2-9.9c-0.2,0.2-0.4,0.4-0.5,0.4v-0.2c-14.2,10.8-59,10.3-64.8,9c-5.8-1.1-7-0.7-8.6,3.1
				c-1.6,4-0.7,7-2.3,14.4c-1.3,5.9,4.1,8.3,11,9.2c0,1.8,0,2.9,0,2.9s0,0-1.6,16.4c-1.6,16.4,6.3,42.8,15.7,46.8l9.7,13.1
				c2,5.4,2.7,10.3,2.7,10.3c3.1,38.9,11.7,92,19.4,116.8c7.7,24.8,22.7,63.9,24.1,99c1.6,35.1,7.7,61.6,16.4,84.1
				c8.6,22.7,21.8,69.3,26.1,81.2c2.9,6.7,6.5,14.6,4.3,22.5c-3.6,12.4,2,14.9,8.3,18.5c6.3,3.6,8.5,11.5,14.9,24.8
				c4.5,9.4,24.8,9.7,32.2-0.5C363.4,966.2,357.3,963.1,352.6,959.5z"/>
			<path id="XMLID_19768_" class="st10" d="M193.1,699.4c-1.1-16.6-8.1-30.1-15.7-44.3c-4.9,0.7-9.7,1.4-14.6,2.3
				c8.3,23.6,15.3,45.2,17.5,63.2c5.9,48.4,33.5,182.7,33.8,184.1c0.9,8.5,0.9,18.4-2.5,23.6c-5.9,9.2-16.9,25-25.2,33.7
				c5-2.7,4,0.2,14.2-8.3c10.1-8.5,22.1-33.1,20-43.4C204.8,840,198.2,770.5,193.1,699.4z"/>
			<path id="XMLID_19766_" class="st10" d="M268.4,779.2c-4.7-48.6-5.4-81-25-131c-3.8,0.5-1.8-0.4-5.4,0c8.1,24.7,20,59,21.2,90.2
				c1.6,35.1,7.7,61.6,16.4,84.1c8.6,22.7,21.8,69.3,26.1,81.2c2.9,6.7,6.5,14.6,4.3,22.5c-2.5,9.2-0.4,13,3.6,15.8
				c2.7-9.5-0.5-20.9-3.2-31.3C297.5,870.8,272.2,818.2,268.4,779.2z"/>
			<g id="XMLID_19760_">
				<g id="XMLID_1927_">
					<path id="XMLID_1929_" class="st11" d="M171.9,695.3c14.2,5,30.1,6.1,45,6.1c5.8,0,16.9-0.5,16.9-0.5l16.2-1.6
						c0,0,23.9-4.7,35.5-9.9c7.4-3.2,14.4-7,21.4-10.8c-5.9-29.5-7.9-55.1-6.7-126.7c1.1-59.9-16-95.2-29.7-123.7
						c-3.6-7.4-7-14.4-9.5-21.1l-0.5-1.6c-1.3-3.4-2.3-6.7-3.1-9.7l-1.3-5l-3.1,2.9l-1.1,0.9c-8.8,6.7-31.9,9-50.4,9
						c-6.8,0-10.8-0.4-11.9-0.5c-2.7-0.5-4.3-0.7-5.8-0.5l-22.9-2.7l-0.7,3.1c-2.7,10.6-7.7,19.4-12.8,30.1
						c-9.5,20.2-22.1,45.2-20.5,93.2c1.4,43,16.7,86.4,30.1,124.7C162.7,666.3,168.1,681.6,171.9,695.3z"/>
				</g>
			</g>
			<path id="XMLID_19759_" d="M250.2,699.8c0,0,23.9-4.7,35.5-9.9c7.4-3.2,14.4-7,21.4-10.8c-5.9-29.5-7.9-55.1-6.7-126.7
				c1.1-59.9-16-95.2-29.7-123.7c-1.1-2.2-2.2-4.5-3.2-6.7c-19.4,18.2,0,28.3-2.7,45.2c-4.5,28.8-10.8,37.6-63.2,50
				c-52.4,12.4,18.4,61.9,33.3,122.2c14.9,60.3-45.5,34.9-18.2,62.5c5.8,0,16.9-0.5,16.9-0.5L250.2,699.8z"/>
			<path id="XMLID_19758_" class="st11" d="M245.2,964.2c0.9,2.5-2,3.8-6.8,2.3c-4.9-1.4-5.4-4.1-5.4-4.1l0.4-19.6l15.5-6.1
				C248.8,936.7,241.4,952.7,245.2,964.2z"/>
			<path id="XMLID_19757_" d="M242.1,916.2c-2.5,1.8-13.7,16.6-18,32.4c-4.5,15.8-17.1,18.9-21.1,19.3c-4,0.4-11-6.1-17.6-6.3
				c-6.7-0.2-12.2,6.3-14.6,9.5c-2.3,3.4-0.2,8.3,1.1,9.5c1.3,1.3,28.3,5.8,38.9-0.5c10.6-6.3,15.8-22.5,22-27.2
				c6.1-4.9,15.1-7.7,16-16C249.7,928.4,245.9,913.5,242.1,916.2z"/>
			<g id="XMLID_19754_">
				<path id="XMLID_19756_" class="st11" d="M305.8,963.3c-1.1,2.7,1.8,4,6.8,2.9c5-1.1,5.9-3.8,5.9-3.8l-1.4-20.3l-14.2-2.5
					C302.9,939.4,310.5,951.6,305.8,963.3z"/>
				<path id="XMLID_19755_" d="M306.2,918.5c3.2-0.9,3.6,5.4,11.2,21.4C320.9,950.7,328,964,340,968c4.1,0.7,13-7.6,19.6-5
					c3.8,1.4,8.8,9.4,8.5,13.7c-0.4,4.3-4.1,5-5.8,5.9c-1.8,0.7-18.2,4.1-29.2-3.2c-11-7.4-11.7-23.8-18-29.3
					c-6.3-5.6-11.5-5.9-13.7-14.6C300.4,930.4,301.1,920.1,306.2,918.5z"/>
			</g>
			<path id="XMLID_19753_" class="st12" d="M221.2,233.4c0,0-29.7,6.1-36.2,9.2c-6.7,3.1-14.6,26.3-18.9,39.6
				c-4.1,13.3,116.8,8.8,120.6,3.1c4-5.8,7.6-33.5-5-39.2C269.5,240.1,238.7,232.5,221.2,233.4z"/>
			<g id="XMLID_19739_">
				<g id="XMLID_19747_">
					<path id="XMLID_19752_" class="st13" d="M340.4,560.3c0,4.3,0.5,14.2-0.2,17.3s-8.6,10.6-10.4,12.4c-1.8,1.8-2.7-3.8-0.2-6.5
						s5.8-8.1,5.6-9.5c-0.2-1.4-0.5-7.2-2.7-9.9"/>
					<path id="XMLID_19751_" class="st13" d="M345.1,564.8c-0.4,5,0,14.6-1.1,18.2s-11,11.7-13.5,13.7c-2.5,2-2.9-4.7,0.5-7.6
						c3.4-2.9,7.6-9,7.6-10.8c0-1.8,0-8.6-2.3-11.9"/>
					<path id="XMLID_19750_" class="st13" d="M348.1,568.9c-0.7,5-1.3,18-2.5,21.4c-1.3,3.4-11.9,11-14.4,12.8
						c-2.5,1.8-2.5-4.9,0.9-7.6c3.4-2.7,8.1-8.5,8.1-10.3c0-1.8,0.5-8.6-1.4-12.1"/>
					<path id="XMLID_19749_" class="st3" d="M337,535.1c0,0,2.7,14,6.8,19.3c4.1,5.2,7.6,9.5,7.4,14.6c-0.2,5,0.7,21.4-0.4,25
						c-0.9,3.6-10.8,12.1-13.1,14s-3.1-4.5,0.4-7.6c3.4-3.1,7.2-9.2,7.2-11s-0.2-8.6-2.5-11.9c-2.3-3.2-6.3-6.5-10.6-8.6
						c-4.3-2.3-14.9-5.6-14.8-14.4c0.2-8.8,3.1-9.7,1.3-15.7C316.6,532.8,337,535.1,337,535.1z"/>
					<path id="XMLID_19748_" class="st3" d="M319.7,539.6c0,0-0.7,6.8-2.7,10.8c-2,4,1.4,9.5,0.9,13.9c-0.7,6.7-2.5,8.1-6.1,13.9
						c-2.3,3.6,5.2,3.4,8.1,0.4c3.2-3.4,5.8-8.1,5.9-11c0.2-2.9,5.8,1.3,5.8,1.3"/>
				</g>
				<path id="XMLID_19746_" class="st14" d="M313,519.3c0,0,3.8,17.8,5,19.8c1.3,2,19.3,0.2,19.1-2.7c-0.2-2.9-1.3-21.6-1.3-21.6
					L313,519.3z"/>
				<path id="XMLID_19745_" class="st15" d="M337.1,536.4c-0.2-2.9-1.3-21.6-1.3-21.6l-6.5,1.3c1.8,0.5,0.9,3.6,3.2,3.6
					c-1.1,6.7-2.2,13.1,0.9,18.9C335.9,538,337.3,537.3,337.1,536.4z"/>
				<path id="XMLID_19744_" class="st15" d="M313,519.3c0,0,3.8,17.8,5,19.8l3.1,0.9c2.2-6.7-5.6-14-3.4-21.6L313,519.3z"/>
				<path id="XMLID_19743_" class="st16" d="M263.2,239.2c0,0,44.5,8.6,42.8,17.1c-1.6,8.6,0.2,14.2,0.7,18.7
					c1.6,11,11,77,12.4,113.8c1.6,36.5,12.4,37.4,13.3,57.6c0.7,20.3,2.3,62.3,4.7,70.2c2.3,7.9-20.3,8.3-24.1,7
					c-3.8-1.3-8.6-38.2-18.7-55.3c-10.1-17.1-8.6-48.2-12.4-63.2c-4-14.8-15.7-53.8-14.8-76.3"/>
				<path id="XMLID_19742_" class="st5" d="M296.5,443.7c-11.2-29.9-9.9-59.9-16.2-92.3c-3.8-16.2-5-34.9,9.9-46.1
					c-7.7,5.6-18.5,5.2-24.3-2l1.3,25.4c-0.7,22.7,11,61.6,14.8,76.3c4,14.8,2.3,45.9,12.4,63.2c10.1,17.1,14.9,54,18.7,55.3
					c0.9,0.4,2.5,0.5,4.7,0.5c0.4-5.2-0.9-10.3-2.5-15.5C310.1,486,304,464.7,296.5,443.7z"/>
				<path id="XMLID_19741_" class="st5" d="M299,257.7c2.5,1.3-1.3,5-5,6.3c3.8,6.3,7.6,13.7,8.8,21.2
					c12.4,53.6-3.8,107.3,22.5,157.1c13,23.8-5.8,55.8,5.8,80.3c4.1-1.1,7.2-3.1,6.3-6.1c-2.3-7.7-4-49.9-4.7-70.2
					c-0.7-20.3-11.7-21.1-13.3-57.6S308.3,286,306.9,275c-0.7-4.5-2.3-10.1-0.7-18.7L299,257.7z"/>
				<path id="XMLID_19740_" class="st7" d="M306,256.3c1.6-8.6-42.8-17.1-42.8-17.1l0.2,4.7c12.1,4.5,24.8,6.3,35.6,13.9"/>
			</g>
			<g id="XMLID_19735_">
				<path id="XMLID_19738_" class="st4" d="M270.4,277.9c-2.9,13,8.3,27.9,6.1,45c-2.3,16.9-14.4,23.9-16.2,31.3
					s-4.3,50.8,10.4,71.5c0,5-33.1,26.5-65.2,23.8c-9,0-14.8-22.1-14.8-22.1s-13.3,18.4-17.8,20c-4.5,1.6-25.6-11.9-23.6-16.7
					c8.3-20.9,14.9-38.5,15.5-49.3c0.5-8.6,2.7-27.7-10.6-38.7s-15.7-26.6-6.5-44.1c9.2-17.5,23.9-23.9,23.9-32.2"/>
				<path id="XMLID_19737_" class="st5" d="M275.6,327c-6.8,10.1-16.9,17.8-28.8,19.4c-34.9,5.9-83.7,12.1-103.9-22.3
					c1.3,7,5,13.1,11.3,18.4c13.3,11,11.9,28.4,11,37.1c-2.2,19.8-11.5,42.1-16,52.4c10.8-12.4,25.9-59.2,19.1-78.1
					c22.5,16.2,62.3-9.9,81,6.3c13.5,12.4,1.6,33.8-16.4,45.4c7,14.8,35.5,11,27.2,29.3c5.8-2.9,8.8-5.9,10.4-9.2
					c-15.3-26.8-12.1-64.1-10.3-71.5C261.7,347.4,272,340.9,275.6,327z"/>
				<path id="XMLID_19736_" class="st17" d="M191,427.1c-1.1-12.4-2.2-27.2-2.2-33.3c-0.2-8.6,4.1-29.3-0.5-37.3
					c-4.7-7.7-10.6-23.9-7.7-34.4c2.7-10.6,20.2-30.8,22-40.9"/>
			</g>
			<g id="XMLID_19670_">
				<path id="XMLID_19734_" class="st18" d="M194.6,114.4h-20.5c0,0-0.4,7.7-0.5,9.7c-0.2,2,8.1-2.9,9.2-4.3c1.1-1.4,9-2.9,10.3-3.1
					C193.7,115.5,194.6,114.4,194.6,114.4z"/>
				<path id="XMLID_19733_" class="st19" d="M249.7,234.9c0,0,27.5-1.1,28.1-12.8s-14-20.5-8.1-20.5s16.4,1.1,13.5-9.9
					c-2.9-11.2-19.8-15.1-1.1-21.1c18.7-5.8,46.1-3.4,44.5-49.1c-0.9-25.6-34-100.1-82.4-100.8c-49.1-0.5-40.3,15.1-54.4,25.7
					c-14,10.6-28.8,14.4-15.1,45.2c16.7,38-1.1,83.2,4.7,94.7c5.8,11.7,15.8,9.9,9.4,26.3c-6.5,16.4,8.8,33.3,19.8,25.2
					C219.2,229.6,249.7,234.9,249.7,234.9z"/>
				<path id="XMLID_19732_" class="st2" d="M201.6,193.6c0,0,8.1,25.2-0.9,43.2c-11.3,22.9-3.2,17.6-1.6,27.7
					c1.6,9.9,3.4,16.9,3.4,16.9s16-25.6,21.6-29.3c5.6-4,21.6-22.5,21.6-22.5c-11-11-10.1-25.9-1.1-43.7L201.6,193.6z"/>
				<path id="XMLID_19731_" class="st20" d="M213.1,214.2c4.5,0.4,16-7.6,27.2-18.4c1.1-3.2,2.5-6.5,4.3-9.9l-43,7.7
					c0,0,1.8,5.9,2.9,13.9C207.5,211.6,210.4,214,213.1,214.2z"/>
				<path id="XMLID_19730_" class="st19" d="M190.6,50.5c0,0-16.9-0.9-23,18.2c-6.1,19.1,3.1,38.5,13.1,42.3
					C190.6,114.8,190.6,50.5,190.6,50.5z"/>
				<path id="XMLID_19729_" class="st2" d="M227.3,43.2c-32,0-52,11.2-50.6,36.2c1.4,25.2,8.5,25.9,3.2,41.4
					c-5.2,15.5-8.8,23.4-1.4,40.3c12.4,28.8,25.4,45,34.6,45.5s46.8-24.5,52.9-48.2c6.1-23.6,15.1-59.9,8.8-81
					C268.2,56.7,258.3,43.2,227.3,43.2z"/>
				<path id="XMLID_19728_" class="st2" d="M207.4,117.1c0.5,5,0.2,21.6-7.7,26.8s0.2,7,4.5,7.6c4.3,0.5,11.3-0.4,12.8-1.8"/>
				<path id="XMLID_19727_" class="st21" d="M210.2,176.4c-4.1-0.2-10.6-3.8-11-7.2l23-0.5C222.5,168.6,220.1,176.9,210.2,176.4z"/>
				<path id="XMLID_19726_" class="st22" d="M225.2,167.4c0.7-0.2-1.8,3.8-16.6,2.9c-14.8-0.7-14.4-3.8-14.4-3.8s3.4,1.1,6.3-0.5
					c2.7-1.6,6.7-1.4,11.7-0.7C217.3,165.9,220.3,168.4,225.2,167.4z"/>
				<g id="XMLID_19717_">
					<path id="XMLID_19725_" class="st23" d="M250.9,124.5c0,0-4.1-8.6-12.1-7.4c-7.9,1.3-13.9,8.1-13.5,9c0.2,0.9,2.2,4.7,12.8,3.8
						C248.8,129,250,126.1,250.9,124.5z"/>
					<path id="XMLID_19724_" class="st24" d="M250.9,124.5c0,0-5.9-5.2-14-4c-7.9,1.3-11.9,4.7-11.7,5.8c0.2,0.9,2.2,4.7,12.8,3.8
						C248.8,129,250,126.1,250.9,124.5z"/>
					<g id="XMLID_19718_">
						<g id="XMLID_1982_">
							<defs>
								<path id="XMLID_1987_" d="M250.9,124.5c0,0-5.9-5.2-14-4c-7.9,1.3-11.9,4.7-11.7,5.8c0.2,0.9,2.2,4.7,12.8,3.8
									C248.8,129,250,126.1,250.9,124.5z"/>
							</defs>
							<clipPath id="XMLID_55_">
								<use xlink:href="#XMLID_1987_"  style="overflow:visible;"/>
							</clipPath>
							<g id="XMLID_19720_" class="st25">
								<circle id="XMLID_19723_" class="st26" cx="240.5" cy="124.5" r="7"/>
								<circle id="XMLID_19722_" class="st27" cx="240.5" cy="124.5" r="3.8"/>
								<circle id="XMLID_19721_" class="st24" cx="243.7" cy="122.9" r="1.6"/>
							</g>
						</g>
					</g>
				</g>
				<g id="XMLID_19708_">
					<path id="XMLID_19716_" class="st23" d="M180.7,123.4c0,0,3.8-7.9,11.2-6.8c7.4,1.1,12.8,7.4,12.6,8.3c-0.2,0.9-2,4.3-11.9,3.6
						C182.7,127.8,181.4,125.1,180.7,123.4z"/>
					<path id="XMLID_19715_" class="st24" d="M180.7,123.4c0,0,5.6-4.9,13-3.6c7.4,1.1,11,4.3,10.8,5.2c-0.2,0.9-2,4.3-11.9,3.6
						C182.7,127.9,181.4,125.1,180.7,123.4z"/>
					<g id="XMLID_19709_">
						<g id="XMLID_1972_">
							<defs>
								<path id="XMLID_1977_" d="M180.7,123.4c0,0,5.6-4.9,13-3.6c7.4,1.1,11,4.3,10.8,5.2c-0.2,0.9-2,4.3-11.9,3.6
									C182.7,127.9,181.4,125.1,180.7,123.4z"/>
							</defs>
							<clipPath id="XMLID_56_">
								<use xlink:href="#XMLID_1977_"  style="overflow:visible;"/>
							</clipPath>
							<g id="XMLID_19711_" class="st28">
								<circle id="XMLID_19714_" class="st26" cx="195.1" cy="123.4" r="6.5"/>
								<circle id="XMLID_19713_" class="st27" cx="195.1" cy="123.4" r="3.6"/>
								<circle id="XMLID_19712_" class="st24" cx="198" cy="122" r="1.6"/>
							</g>
						</g>
					</g>
				</g>
				<path id="XMLID_19707_" class="st29" d="M257,110.7c-1.3-1.8-5.6-7.4-12.4-6.7c-6.8,0.7-13.3,2.7-13.3,4.9s3.6,1.1,7.9,0
					s11-2,13.7-0.2C255.4,110.3,258.3,112.5,257,110.7z"/>
				<path id="XMLID_19704_" class="st30" d="M265.7,148.8c-2.2,28.6-48.2,59-57.2,54.7c-0.5-0.4-1.3-0.2-2-0.4
					c2.3,1.6,4.7,2.5,6.7,2.7c9,0.5,46.8-24.5,52.9-48.2L265.7,148.8z"/>
				<path id="XMLID_19703_" class="st30" d="M225,64c-5.8,4.7-7-3.4-10.4-4.7c-18.9-5.6-31.5,15.3-35.6,32.4c5-3.8,9.9-9.7,9.9-9.7
					l12.6-13.7c4.9-1.4,9.9-1.3,11.3,1.3c4,6.5,12.8,8.8,24.5-0.5c11.7-9.4,18.2,2,14.6,13.7s-0.5,14.9,6.5,16
					c7,1.1,15.1,20.2,11.7,27.2c0,0,1.4,1.6,8.5-5.8c-2.2-22.3-14.4-30.6-19.6-51.7C254.3,53.4,238,54.7,225,64z"/>
				<path id="XMLID_19700_" class="st31" d="M183.2,163c-12.1-29-3.2-27.9-0.7-45.5c2.5-16.2,0.4-11.2-1.1-36.4
					c-0.2-4.1,0.2-7.9,1.1-11.3c-1.6,1.1-3.4,2-5.6,2.5c-0.2,2-0.2,4.3-0.2,6.5c1.4,25.2,8.5,25.9,3.2,41.4
					c-5.2,15.5-8.8,23.4-1.4,40.3c11.5,26.6,23.6,42.5,32.4,45.2C202.7,200.1,192.6,185.5,183.2,163z"/>
				<path id="XMLID_19699_" class="st29" d="M201.6,111.4c2.5,1.4,4.1-1.6,1.4-3.6c-2.7-2-8.6-2.7-12.6-2.5c-4,0.2-7.9,3.1-8.8,5
					c-0.9,2,1.3-0.5,2.9-1.1C189.5,107.6,195.5,107.6,201.6,111.4z"/>
				<path id="XMLID_19698_" class="st32" d="M189.4,41.5c0,0-31,14.8-22,39.6s21.2-3.8,21.2-3.8l13.5-14.6L189.4,41.5z"/>
				<path id="XMLID_19697_" class="st33" d="M212.8,64.9c4,6.5,12.8,8.8,24.5-0.5c11.7-9.4,18.2-5.4,14.6,6.3s-0.5,19.8,6.5,21.1
					c7,1.1,15.1,25.2,11.7,32.2s-1.1,13.5-1.1,13.5s4.1-18.2,15.1-23.4c11.2-5.2,4.1-39.1-7-41.4c-11.2-2.3,12.8,2,4.1-18.5
					c-8.8-20.7-16.9-33.5-40.9-36.5s-49.7,9.4-50.9,26.3c-1.3,16.9,4.7,22.9,9.9,20.5C204.7,62.1,211,62.1,212.8,64.9z"/>
				<path id="XMLID_19696_" class="st5" d="M241,219.2c0,0,23.6,16.9,23.2,23.8s-2.9,22.9-11.5,26.3c-6.7,2.7-6.8-17.6-17.5-13.5
					c-10.6,4.1-29,20.3-32.6,26.3c0,0,21.6-42.5,34.6-47c2.9-0.7,9.4-4.5,7-7.2C242.3,225.7,241.2,221.5,241,219.2z"/>
				<path id="XMLID_19695_" class="st5" d="M204.1,227.3c-0.4,13.9-11.7,19.4-2.5,34.9c0,0,2.7,13.1,0.9,20.5
					c0,0-4.1-17.3-11.3-20.5c-7.4-3.2-14.8,8.6-14.8,8.6s1.4-30.2,12.4-38.5S204.1,227.3,204.1,227.3z"/>
				<path id="XMLID_19694_" class="st1" d="M204.1,223.5c-0.4,13.9-11.7,19.4-2.5,34.9c0,0,2.7,15.7,0.9,23c0,0-4.1-19.8-11.5-23
					c-7.4-3.2-14.8,8.6-14.8,8.6s1.4-30.2,12.4-38.5C199.8,220.3,204.1,223.5,204.1,223.5z"/>
				<g id="XMLID_19691_">
					<path id="XMLID_19693_" class="st24" d="M203.8,223.3c-1.3-0.5-5.8-1.6-14.9,5.2c-11,8.3-12.4,38.5-12.4,38.5
						s6.5-10.6,13.5-9.2C189,245.5,194.6,232.7,203.8,223.3z"/>
					<path id="XMLID_19692_" class="st34" d="M203.8,223.3c-9.2,9.4-14.8,22.1-13.9,34.7c0.4,0,0.9,0.2,1.3,0.4
						c7.4,3.2,11.5,23,11.5,23c1.8-7.4-0.9-23-0.9-23c-9.2-15.5,2.2-21.1,2.5-34.9C204.1,223.5,203.9,223.3,203.8,223.3z"/>
				</g>
				<path id="XMLID_19690_" class="st1" d="M238.5,215.4c0,0,25.6,9.9,25.2,16.7c-0.4,6.8-5.6,29.9-11.9,33.1
					c-6.5,3.2-5.9-17.5-16.6-13.3c-10.6,4.1-29,23.4-32.6,29.3c0,0,21.6-45.5,34.4-50c2.9-0.7,6.8-4.5,4.5-7.2
					C239.8,221.9,238.7,217.8,238.5,215.4z"/>
				<g id="XMLID_19686_">
					<g id="XMLID_19687_">
						<path id="XMLID_19689_" class="st24" d="M238.7,216c0.2,2.2,1.3,6.5,2.9,8.5c0.5,0.7,0.7,1.6,0.7,2.3c1.1,2.3,1.8,5.2,0.7,6.3
							c-6.7,5.2-7.2,11.7-6.1,18.4c8.8-1.6,8.6,16.6,14.8,13.5c6.3-3.2,11.3-25.7,11.7-32.4C263.7,225.5,238.7,216,238.7,216z"/>
						<path id="XMLID_19688_" class="st34" d="M242.8,232.9c1.1-1.1,0.4-4-0.7-6.3c-0.4,2.2-3.1,4.3-5.2,4.9
							c-12.8,4.7-34.4,50-34.4,50c3.6-5.9,22-25.2,32.6-29.3c0.5-0.2,1.1-0.4,1.6-0.4C235.6,244.8,236.2,238.3,242.8,232.9z"/>
					</g>
				</g>
				<path id="XMLID_19685_" class="st35" d="M278.1,119.5h-20.5c0,0-0.4,7.7-0.5,9.7c-0.2,1.8,8.1-2.9,9.2-4.3
					c1.1-1.4,9-2.9,10.3-3.1C277.2,120.6,278.1,119.5,278.1,119.5z"/>
				<g id="XMLID_19681_" class="st36">
					<g id="XMLID_1922_">
						<path id="XMLID_1926_" class="st37" d="M181.1,113.7c7.7,0,15.5,0.5,23.4,1.6c1.1,0,2,1.1,1.8,2.5c0.2,3.4-0.9,7-1.6,11.5
							c0,1.3-1.1,2.3-2.2,2.2c-9.2,0.2-17.6-0.9-25.4-3.1"/>
						<path id="XMLID_1925_" class="st37" d="M222.5,132.8c9.7,1.3,24.1,2.7,32.2,0.9c1.1,0,2-1.1,2-2.2c0.4-2.7,0.7-8.3,0.7-11.9
							c0-1.3-0.7-2.3-1.8-2.5c-9-1.4-23.8-1.1-33.3-0.7c-1.1,0-2,0.9-2.2,2.2c-0.5,3.4,0,7.2,0.4,11.5
							C220.5,131.7,221.4,132.8,222.5,132.8z"/>
						<path id="XMLID_1924_" class="st37" d="M206.3,119.5c0,0,0.9-3.1,5.9-3.1c5,0,7.7,7,7.7,7"/>
					</g>
				</g>
				<path id="XMLID_19680_" class="st38" d="M278.1,118.2h-20.5c0,0-0.4,7.7-0.5,9.7c-0.2,1.8,8.1-2.9,9.2-4.3
					c1.1-1.4,9-2.9,10.3-3.1C277.2,119.3,278.1,118.2,278.1,118.2z"/>
				<g id="XMLID_19677_" class="st39">
					<path id="XMLID_19679_" class="st40" d="M202.3,130.6c-9.7,0.2-18.5-0.9-26.6-3.6c-1.1-0.2-1.8-1.3-1.8-2.5
						c0-2.7,0-5.9,0.5-9.5c0-1.3,1.1-2.3,2.2-2.2c9-0.4,18.4,0.2,27.7,1.6c1.1,0,2,1.1,1.8,2.5c0.2,3.4-0.9,7-1.6,11.5
						C204.5,129.7,203.4,130.8,202.3,130.6z"/>
					<path id="XMLID_19678_" class="st40" d="M222.5,132.1c9.7,1.3,24.1,2.7,32.2,0.9c1.1,0,2-1.1,2-2.2c0.4-2.7,0.7-8.3,0.7-11.9
						c0-1.3-0.7-2.3-1.8-2.5c-9-1.4-23.8-1.1-33.3-0.7c-1.1,0-2,0.9-2.2,2.2c-0.5,3.4,0,7.2,0.4,11.5
						C220.5,131,221.4,132.1,222.5,132.1z"/>
				</g>
				<g id="XMLID_19673_">
					<path id="XMLID_19676_" class="st41" d="M202.3,130.6c-9.7,0.2-18.5-0.9-26.6-3.6c-1.1-0.2-1.8-1.3-1.8-2.5
						c0-2.7,0-5.9,0.5-9.5c0-1.3,1.1-2.3,2.2-2.2c9-0.4,18.4,0.2,27.7,1.6c1.1,0,2,1.1,1.8,2.5c0.2,3.4-0.9,7-1.6,11.5
						C204.5,129.7,203.4,130.8,202.3,130.6z"/>
					<path id="XMLID_19675_" class="st41" d="M222.5,132.1c9.7,1.3,24.1,2.7,32.2,0.9c1.1,0,2-1.1,2-2.2c0.4-2.7,0.7-8.3,0.7-11.9
						c0-1.3-0.7-2.3-1.8-2.5c-9-1.4-23.8-1.1-33.3-0.7c-1.1,0-2,0.9-2.2,2.2c-0.5,3.4,0,7.2,0.4,11.5
						C220.5,131,221.4,132.1,222.5,132.1z"/>
					<path id="XMLID_19674_" class="st41" d="M206.3,118.8c0,0,0.9-3.1,5.9-3.1c5,0,7.7,7,7.7,7"/>
				</g>
				<path id="XMLID_19672_" class="st2" d="M272.2,126.5c1.8-3.2,10.4-16,14.8-8.1s2.9,25.7-4.9,28.8s-2.7,8.3-7.2,12.8
					c-4.5,4.5-8.3-0.4-8.8-3.8"/>
				<path id="XMLID_19671_" class="st2" d="M278.5,129.9c7.2-3.1,7.9,9.7-0.9,11.5c-4.9,1.1-8.8,5.4-8.8,9.7"/>
			</g>
		</g>
	</g>
</g>
</svg>
