<?xml version="1.0" encoding="utf-8"?>
<!-- Generator: Adobe Illustrator 19.0.0, SVG Export Plug-In . SVG Version: 6.00 Build 0)  -->
<svg version="1.1" id="Capa_1" xmlns="http://www.w3.org/2000/svg" xmlns:xlink="http://www.w3.org/1999/xlink" x="0px" y="0px"
	 viewBox="0 0 839.2 560" style="enable-background:new 0 0 839.2 560;" xml:space="preserve">
<style type="text/css">
	.st0{clip-path:url(#XMLID_140_);}
	.st1{fill:#D8906C;stroke:#D36F37;stroke-width:1.1664;stroke-miterlimit:10;}
	.st2{fill:#FEAD78;stroke:#D36F37;stroke-width:1.1664;stroke-miterlimit:10;}
	.st3{fill:#BA0E09;stroke:#7F0A0A;stroke-width:1.1106;stroke-miterlimit:10;}
	.st4{fill:#9B0D1E;}
	.st5{fill:#8C050B;}
	.st6{fill:#BF070F;stroke:#7F0A0A;stroke-width:1.1853;stroke-miterlimit:10;}
	.st7{fill:#CE283C;}
	.st8{fill:#CE8967;stroke:#D36F37;stroke-width:1.1664;stroke-miterlimit:10;}
	.st9{fill:#E2956A;stroke:#D36F37;stroke-width:1.1664;stroke-miterlimit:10;}
	.st10{fill:#FCB48B;}
	.st11{fill:#E89669;}
	.st12{fill:#FFB68D;}
	.st13{fill:#E90D00;stroke:#8E0804;stroke-width:0.6459;stroke-miterlimit:10;}
	.st14{fill:#FEAD78;stroke:#D36F37;stroke-width:1.2052;stroke-miterlimit:10;}
	.st15{fill:#E90D00;stroke:#8E0804;stroke-width:0.6673;stroke-miterlimit:10;}
	.st16{fill:#E90D00;stroke:#8E0804;stroke-width:0.6934;stroke-miterlimit:10;}
	.st17{fill:none;stroke:#7F0A0A;stroke-width:1.1106;stroke-miterlimit:10;}
	.st18{fill:#BF070F;}
	.st19{fill:#9B897B;stroke:#605650;stroke-width:1.1106;stroke-miterlimit:10;}
	.st20{fill:none;stroke:#837167;stroke-width:1.1853;stroke-miterlimit:10;}
	.st21{fill:#C5BAA6;}
	.st22{fill:none;stroke:#776960;stroke-width:1.1106;stroke-miterlimit:10;}
	.st23{fill:#70645D;}
	.st24{fill:#AD9D92;}
	.st25{fill:#7C716C;}
	.st26{fill:#87786E;}
	.st27{fill:#7C2A04;}
	.st28{fill:#D68F6B;}
	.st29{fill:#A53D3D;}
	.st30{fill:#7F0A0A;}
	.st31{fill:#571B01;}
	.st32{fill:#FFFFFF;}
	.st33{clip-path:url(#XMLID_141_);}
	.st34{fill:#BC682A;}
	.st35{fill:#713213;}
	.st36{clip-path:url(#XMLID_142_);}
	.st37{fill:#9B3C0C;}
	.st38{fill:#E59A70;}
	.st39{fill:#FFBD99;}
	.st40{fill:none;stroke:#756850;stroke-width:0.8865;stroke-miterlimit:10;}
	.st41{fill:#A54F02;}
	.st42{fill:#913601;}
	.st43{fill:#C10C1A;}
	.st44{fill:#B20814;}
	.st45{fill:none;stroke:#494949;stroke-width:2;stroke-miterlimit:10;}
	.st46{fill:#494949;}
	.st47{fill:#252527;}
	.st48{fill:none;stroke:#252527;stroke-width:3;stroke-miterlimit:10;}
	.st49{fill:#FFFFFF;stroke:#F29422;stroke-width:4;stroke-miterlimit:10;}
	.st50{fill:#FFFFFF;stroke:#0367A6;stroke-width:4;stroke-miterlimit:10;}
	.st51{fill:none;stroke:#252527;stroke-width:1.5;stroke-miterlimit:10;}
	.st52{fill:none;stroke:#A0A0A0;stroke-miterlimit:10;stroke-dasharray:4,2;}
</style>
<g id="XMLID_2_">
	<g id="XMLID_8915_">
		<defs>
			<rect id="XMLID_1441_" x="523.9" width="315.3" height="560"/>
		</defs>
		<clipPath id="XMLID_140_">
			<use xlink:href="#XMLID_1441_"  style="overflow:visible;"/>
		</clipPath>
		<g id="XMLID_5507_" class="st0">
			<g id="XMLID_8794_">
				<g id="XMLID_8802_">
					<path id="XMLID_8807_" class="st1" d="M794.9,477.1c0.1,3.7,0.5,12.2-0.1,14.8c-0.6,2.6-7.4,9.1-9,10.6s-2.4-3.2-0.1-5.5
						s4.9-7,4.8-8.2s-0.4-6.2-2.4-8.5"/>
					<path id="XMLID_8806_" class="st1" d="M798.8,481c-0.3,4.3,0,12.6-0.9,15.6c-0.9,3-9.5,10.1-11.6,11.8s-2.5-4,0.4-6.4
						c2.9-2.6,6.4-7.7,6.4-9.2c0-1.5,0-7.4-1.9-10.2"/>
					<path id="XMLID_8805_" class="st1" d="M801.6,484.6c-0.5,4.3-1,15.5-2.1,18.3s-10.1,9.4-12.4,11s-2.1-4.1,0.8-6.4
						c3.1-2.4,7-7.3,7.1-8.7c0.1-1.5,0.5-7.4-1.2-10.3"/>
					<path id="XMLID_8804_" class="st2" d="M791.8,455.6c0,0,2.3,12,5.9,16.5c3.6,4.5,6.6,8.3,6.4,12.6s0.6,18.4-0.2,21.5
						c-0.8,3.1-9.2,10.3-11.3,12.1c-2,1.7-2.6-3.9,0.2-6.4c2.8-2.6,6.2-7.9,6.1-9.3c-0.1-1.4-0.2-7.4-2.3-10.2
						c-2-2.8-5.4-5.5-9.1-7.5s-12.8-4.8-12.7-12.4c0.1-7.6,2.7-8.3,1-13.5S791.8,455.6,791.8,455.6z"/>
					<path id="XMLID_8803_" class="st2" d="M777.1,459.4c0,0-0.6,5.9-2.4,9.3c-1.7,3.4,1.2,8.2,0.8,12c-0.6,5.7-2.1,7-5.3,11.9
						c-1.9,3.1,4.5,3,6.9,0.3c2.8-3,4.9-7,5.1-9.4c0.2-2.5,5,1,5,1"/>
				</g>
				<path id="XMLID_8801_" class="st3" d="M771.4,442c0,0,3.2,15.3,4.3,17c1.1,1.7,16.6,0.2,16.4-2.4s-1.1-18.6-1.1-18.6L771.4,442z
					"/>
				<path id="XMLID_8800_" class="st4" d="M792.1,456.6C791.9,454,791,438,791,438l-5.6,1.1c1.5,0.4,0.8,3.2,2.8,3.2
					c-0.9,5.6-1.8,11.4,0.8,16.3C790.9,458,792.1,457.3,792.1,456.6z"/>
				<path id="XMLID_8799_" class="st5" d="M771.4,442c0,0,3.2,15.3,4.3,17l2.6,0.7c1.9-5.7-4.8-12.1-3-18.5L771.4,442z"/>
				<path id="XMLID_8798_" class="st6" d="M728.6,201.3c0,0,38.2,7.4,36.8,14.7s0.1,12.2,0.7,16.1c1.3,9.4,9.4,66.2,10.7,97.7
					c1.3,31.4,10.7,32.1,11.4,49.5c0.7,17.4,2,53.5,4,60.2c2,6.7-17.5,7.1-20.8,6c-3.2-1-7.4-32.8-16.1-47.5
					c-8.7-14.7-7.4-41.5-10.7-54.1s-13.4-46.2-12.7-65.6"/>
				<path id="XMLID_8797_" class="st5" d="M757.1,376.9c-9.6-25.7-8.6-51.4-13.9-79.2c-3.2-13.9-4.3-30,8.6-39.6
					c-6.7,4.7-15.9,4.4-20.8-1.7l0.9,21.9c-0.7,19.4,9.4,52.8,12.7,65.6c3.4,12.7,2,39.5,10.7,54.1c8.7,14.7,12.9,46.5,16.1,47.5
					c0.7,0.2,2.1,0.4,4,0.4c0.2-4.4-0.7-8.9-2.1-13.3C768.9,413.3,763.6,395.1,757.1,376.9z"/>
				<path id="XMLID_8796_" class="st4" d="M759.3,217.3c2.1,1-1,4.3-4.3,5.3c3.2,5.3,6.4,11.8,7.5,18.2c10.7,46.1-3.2,92.1,19.2,135
					c11.2,20.4-5,48,5,68.9c3.6-1,6.1-2.7,5.3-5.3c-2-6.7-3.4-42.8-4-60.2c-0.7-17.4-10-18-11.4-49.5c-1.3-31.4-9.4-88.3-10.7-97.7
					c-0.5-3.9-2-8.7-0.7-16.1L759.3,217.3z"/>
				<path id="XMLID_8795_" class="st7" d="M765.3,216c1.3-7.4-36.8-14.7-36.8-14.7l0.2,4.1c10.4,3.8,21.3,5.5,30.5,12"/>
			</g>
			<g id="XMLID_8777_">
				<g id="XMLID_8785_">
					<g id="XMLID_8788_">
						<path id="XMLID_8793_" class="st8" d="M575.6,452.6c-0.4,3.7-1.6,12.1-1.3,14.7s6.4,9.7,8,11.5s2.7-3,0.6-5.4
							c-2-2.5-4.3-7.4-4-8.6c0.2-1.2,1-6.1,3.1-8.3"/>
						<path id="XMLID_8792_" class="st1" d="M571.5,456.1c-0.1,4.3-1.2,12.5-0.6,15.6c0.6,3.1,8.5,11,10.4,12.8
							c1.9,1.8,2.9-3.7,0.2-6.4c-2.7-2.8-5.7-8.3-5.5-9.7c0.2-1.4,0.7-7.4,3-10"/>
						<path id="XMLID_8791_" class="st9" d="M568.4,459.5c0.1,4.3-0.4,15.5,0.4,18.5c0.8,3.1,9.2,10.3,11.3,12.1
							c2,1.7,2.6-3.9-0.2-6.4c-2.8-2.6-6.2-7.9-6.1-9.4s0.2-7.4,2.3-10.2"/>
						<path id="XMLID_8790_" class="st2" d="M580.8,431.4c0,0-3.4,11.8-7.5,15.9c-4.1,4.1-7.4,7.6-7.6,11.9
							c-0.2,4.3-2.3,18.3-1.7,21.5c0.5,3.1,8.2,11.2,10,13.1s3-3.6,0.4-6.4c-2.6-2.9-5.4-8.4-5.2-9.9c0.2-1.4,0.8-7.4,3.2-9.9
							c2.4-2.6,5.9-4.9,9.8-6.6s13.2-3.6,13.8-11.2c0.6-7.6-1.8-8.5,0.3-13.5C598.4,431.1,580.8,431.4,580.8,431.4z"/>
						<path id="XMLID_8789_" class="st2" d="M595.1,436.6c0,0,0,5.9,1.4,9.5c1.4,3.5-1.9,8-1.9,11.8c0,5.7,1.5,7.2,4.2,12.4
							c1.6,3.3-4.7,2.6-6.9-0.3c-2.5-3.2-4.2-7.4-4.2-9.9s-5.1,0.5-5.1,0.5"/>
					</g>
					<g id="XMLID_8786_">
						<path id="XMLID_8787_" class="st10" d="M581.5,440.1c0.9-1.9,1-5.6,1-8.6c-1,0-1.7,0-1.7,0s-3.4,11.8-7.5,15.9
							c-4,4.1-7.4,7.6-7.6,11.9c-0.3,4.3-2.4,18.3-1.8,21.4c0.1,0.4,0.3,1,0.6,1.6C564.5,466.7,570.7,452.6,581.5,440.1z"/>
					</g>
				</g>
				<g id="XMLID_8781_">
					<path id="XMLID_8784_" class="st3" d="M579.7,433.2c0,0,2.8,6,9.5,6.2c6.8,0.2,7.7,0,8.9-1.6c1.2-1.6,1.8-8.7,1.8-8.7
						l-17.1-6.9C582.9,422.2,579.2,430.3,579.7,433.2z"/>
					<path id="XMLID_8783_" class="st7" d="M584.3,422.7l-1.4-0.6c0,0-3.8,8.1-3.2,11c0,0,2,4.5,7.1,5.8
						C582.3,434.6,580.6,429,584.3,422.7z"/>
					<path id="XMLID_8782_" class="st5" d="M595.5,427.2c0.2,4.9-0.6,8.8-2.7,12.2c3.5,0,4.2-0.4,5.2-1.7c1.2-1.6,1.8-8.7,1.8-8.7
						L595.5,427.2z"/>
				</g>
				<path id="XMLID_8780_" class="st6" d="M665.8,202c0,0-24.4,5.6-34.1,5.1c-9.7-0.5-17.6,9.6-16.5,15.9c1.1,6.2,0.6,34.6-1.7,46.6
					c-2.3,11.9,0.3,42-5.9,59.1c-6.2,17.1-18.4,61.3-24.7,93.7c0,0,1.1,6.2,8,8.5c6.9,2.3,9.1-1.7,9.1-1.7s13.1-35.7,23.8-53.9
					c7-11.8,6.9-25,10.2-40.8c5.1-24.4,16.5-68.7,13.6-87.9"/>
				<path id="XMLID_8779_" class="st5" d="M638.6,244.4c7.5,6.4,9.3,10.3,6,22.1c-9.6,31-13.9,61-20.4,94.3
					c-1,5.3-6.4,10.7-8.6,16.1c-8.8,18.3-13.3,36.1-20.1,54.1c2,0.3,4.3-2,4.3-2s13.1-35.7,23.8-53.9c7-11.8,6.9-25,10.2-40.8
					c5.1-24.4,16.5-68.7,13.6-87.9l2-5C644.5,239.2,643.7,241,638.6,244.4z"/>
				<path id="XMLID_8778_" class="st7" d="M631.7,207c-9.6-0.6-17.6,9.6-16.5,15.9c1.1,6.2,0.6,34.6-1.7,46.6
					c-2.3,11.9,0.3,42-5.9,59.1c-6.2,17-18.4,61.3-24.7,93.7c0,0,0.5,0.6,1.4,2.3c9.8-28.5,15.4-56.8,23.8-87.1
					c2.1-5.3,6.4-10.7,7.5-16.1c8.6-33.2-3.2-65.3,4.3-99.6c0-2.1,1-5.3,3.2-6.4c14.2-1.9,26.8-5.4,40.6-8.5l1.9-4.7
					C665.8,202,641.4,207.7,631.7,207z"/>
			</g>
			<g id="XMLID_8770_">
				<path id="XMLID_8775_" class="st2" d="M682.2,760.1c0,0,9,23.1,2,33.2c-7.1,10-20.6,30.1-27.1,33.6c-6.6,3.5-2.6,9.5,8,8.5
					c10.5-1,14.5,4.5,25.1-10.5c10.5-15,14-17.6,18.5-21.6c4.5-4,8.5-7.1,3.5-16.6s-6-20.1-7.6-26.1
					C703.3,754.6,682.2,760.1,682.2,760.1z"/>
				<path id="XMLID_8774_" class="st11" d="M712.3,786.7c-5-9.5-6-20.1-7.6-26.1c-0.3-1.3-1.6-2.1-3.6-2.5
					c-0.4,14.9,6.2,28.6,10.1,42.8C714.5,797.8,716.3,794.3,712.3,786.7z"/>
				<path id="XMLID_8773_" class="st12" d="M678.9,811.8c4.3-6.4,7.5-12.9,10.7-18.2c5.9-10.9,1.8-23.6-1.3-34.8
					c-3.5,0.6-6,1.3-6,1.3s9,23.1,2,33.2c-7.1,10-20.6,30.1-27.1,33.6c-4.2,2.3-4,5.5-0.5,7.4c2-2.9,3.8-6,6.2-8.5
					C667.2,820.4,674.6,817.1,678.9,811.8z"/>
				<path id="XMLID_8772_" class="st13" d="M713,824.1c0.7,2.3-1.7,3.2-5.8,2c-4.1-1.1-4.7-3.5-4.7-3.5l0.3-16.9l13.4-5.2
					C716.1,800.4,709.7,814.1,713,824.1z"/>
				<path id="XMLID_8771_" class="st13" d="M710.5,782.7c-2.3,1.5-11.7,14.1-15.6,27.8c-3.8,13.6-14.7,16.2-18.1,16.5
					s-9.5-5.3-15.1-5.4c-5.6-0.1-10.5,5.3-12.5,8.3c-1.9,2.9-0.2,7.1,0.9,8.2c1,1,24.3,4.9,33.4-0.4c9.1-5.3,13.5-19.2,18.8-23.4
					s13.1-6.8,13.8-13.8C716.8,793.4,713.7,780.5,710.5,782.7z"/>
			</g>
			<g id="XMLID_8764_">
				<path id="XMLID_8769_" class="st14" d="M781.7,758c0,0,3.7,22.7,9.2,34.1c5.4,11.1,8.5,23.2,14.5,28c3.9,3.1,9.2,5.7,7.5,8.1
					c-6.4,8.8-23.8,8.6-27.7,0.5c-5.5-11.4-7.4-18.2-12.8-21.3s-10.1-5.2-7.2-16c3-10.7-6.6-21.6-6.3-27.9
					C759.2,757,781.7,758,781.7,758z"/>
				<path id="XMLID_8768_" class="st11" d="M762.6,759.9c-2,0.8-3.5,1.9-3.6,3.5c-0.2,6.4,9.3,17.3,6.3,27.9
					c-2.4,8.4,0,11.5,3.7,13.9C772.2,789.6,771.5,773.5,762.6,759.9z"/>
				<path id="XMLID_8767_" class="st12" d="M811.3,829.9c0.6-0.5,1.1-1.1,1.6-1.8c1.6-2.3-3.6-4.9-7.5-8.1c-5.9-4.8-9.1-17-14.5-28
					c-5.5-11.4-9.2-34.1-9.2-34.1s-1.6-0.1-4-0.1C783.3,783.9,785.9,817.4,811.3,829.9z"/>
				<path id="XMLID_8766_" class="st15" d="M765.2,823.3c-0.9,2.3,1.6,3.4,5.8,2.5s5-3.3,5-3.3l-1.2-17.5l-12.3-2.3
					C762.7,802.7,769.2,813.2,765.2,823.3z"/>
				<path id="XMLID_8765_" class="st16" d="M765.5,784.9c2.8-0.8,3.1,4.7,9.6,18.4c3.1,9.3,9.1,20.8,19.4,24.2
					c3.6,0.5,11.2-6.4,16.8-4.4c3.3,1.2,7.6,8,7.3,11.7c-0.3,3.8-3.5,4.4-4.9,5c-1.4,0.6-15.6,3.6-25-2.8s-10-20.5-15.4-25.3
					c-5.4-4.8-9.9-5-11.7-12.5C760.5,794.9,761.1,786.1,765.5,784.9z"/>
			</g>
			<path id="XMLID_8763_" class="st17" d="M667.8,345.6c0,0-5.1-4.3-3.2-11.5c1.9-7.1,1.2-9.8-1.2-15.4c-2.4-5.5,4.7-9.8,0.8-16.6
				c-4-6.8-9.1-20.5-6.8-29.6c2.4-9.1,17.4-26.4,18.9-35.1"/>
			<g id="XMLID_8758_">
				<path id="XMLID_8762_" class="st18" d="M692.5,196.4c0,0-25.4,5.2-31.1,7.9c-5.7,2.7-12.6,22.6-16.2,34
					c-3.6,11.4,100.3,7.6,103.6,2.7c3.3-4.9,6.4-28.8-4.3-33.8C733.9,202.1,707.5,195.7,692.5,196.4z"/>
				<path id="XMLID_8761_" class="st6" d="M734.6,234.5c-2.5,11.1,7.2,24.1,5.2,38.6c-1.9,14.6-12.3,20.6-13.9,26.9
					c-1.6,6.3-0.7,25.9-0.7,30.3c0,4.4-3.5,7.2-15.5,11.9c-12,4.7-32.3,2.4-37.1,3.6c-4.7,1.2-2.8-1.9-6.8-0.5s-24.1-1.1-26.8-4.6
					c-2.8-3.6,1.2-11.9,3.6-18.9c2.4-7.1,3.6-22.1-7.9-31.5c-11.5-9.4-13.4-22.8-5.5-37.9c7.9-14.9,20.5-20.5,20.5-27.6"/>
				<path id="XMLID_8760_" class="st5" d="M739.1,276.8c-5.9,8.6-14.5,15.3-24.8,16.7c-30,5.1-71.9,10.3-89.3-19.1
					c1.1,5.9,4.4,11.3,9.8,15.8c11.5,9.4,10.2,24.5,7.9,31.5c-2.3,6.9-6,14.8-3.8,18.5c9.3-10.7,13.7-24.2,7.9-40.3
					c19.2,13.9,53.5-8.6,69.6,5.3c11.6,10.6,1.4,29.1-14,38.9c2.7-0.4,5.2-1.1,7.4-1.9c12-4.7,15.5-7.5,15.5-11.9
					c0-4.4-0.9-24,0.7-30.3C727.3,294.3,736,288.7,739.1,276.8z"/>
				<path id="XMLID_8759_" class="st17" d="M667.8,345.6c0,0-5.1-4.3-3.2-11.5c1.9-7.1,1.2-9.8-1.2-15.4c-2.4-5.5,4.7-9.8,0.8-16.6
					c-4-6.8-9.1-20.5-6.8-29.6c2.4-9.1,17.4-26.4,18.9-35.1"/>
			</g>
			<g id="XMLID_8737_">
				<path id="XMLID_8757_" class="st19" d="M640,340.1c-1.4,28.5-27.6,45.9-25.5,107.9c2.1,62,33.5,125.3,38.6,166.8
					c5.1,41.6,5.1,66.3,13.8,91.8c8.7,25.5,12.6,51.2,13.3,60.5c0.8,9.3,10.5,9.1,19.8,9.6s9.1-1.4,11.1-3.2s2.5-45.8,0-60.1
					s-6.6-52.2-5.7-63.3c0.7-11.1-1.7-36.1-5.5-57.9c-3.8-21.8-6.6-69.7-6.8-91.3c-0.2-21.6-6-61-6-61l-23.3-94.9L640,340.1z"/>
				<path id="XMLID_8756_" class="st20" d="M650.9,436.4c8,4,26,7.3,34.4,3.5c0,0-5.5,11.9-34.2,20.8"/>
				<path id="XMLID_8755_" class="st21" d="M687.5,443.4c0.1,0.8,0.2,1.7,0.4,2.7c0-0.4-0.1-0.9-0.1-1.3
					C687.7,444.8,687.6,444.3,687.5,443.4z"/>
				<path id="XMLID_8754_" class="st19" d="M685.4,436c1.6,4.6,2.4,8.8,2.4,8.8c2.7,33.5,10,78.9,16.7,100.3
					c6.7,21.4,19.4,54.9,20.8,85s6.7,52.8,14,72.3c7.4,19.4,14.7,54.1,21.4,68.3c4.4,9.2,25.3,2,23.3-7.1c0,0-0.5-1.6-5.2-25.1
					c-4.7-23.4-4.7-113.1-12.1-145.1c-7.4-32.1-10-50.2-8.7-123.1c1.2-64.8-23-96.3-33.6-123.2l-0.5-1.3c-1.1-2.9-2-5.7-2.8-8.6
					c-0.1,0.1-0.3,0.3-0.4,0.4v-0.1c-12.3,9.3-50.7,8.8-55.7,7.8c-5-1-6-0.7-7.4,2.7c-1.3,3.4-0.7,6-2,12.4c-1,5,3.6,7.2,9.4,8
					c-0.1,1.5,0,2.5,0,2.5s0,0-1.3,14s5.3,36.8,13.4,40.1"/>
				<path id="XMLID_8753_" class="st20" d="M733,448.9c-14.5,2.9-35.6-0.7-45.9-9.3c0,0,30.6,2.1,42.3-6.7"/>
				<path id="XMLID_8752_" class="st22" d="M726.5,352c-2.3-5.1-4.1-10-5.3-14.9c-19.8,12.4-57.5,8-57.5,8l-23.6-5
					c-0.3,5.8-1.6,11.2-3.6,16.6C649.4,368.4,677.6,376.7,726.5,352z"/>
				<circle id="XMLID_8751_" class="st23" cx="661.9" cy="361.6" r="2.6"/>
				<circle id="XMLID_8750_" class="st23" cx="663" cy="351.6" r="2.6"/>
				<path id="XMLID_8748_" class="st24" d="M687.5,757.1c-8.6-43.9-40.7-109.2-19.2-130.7c0-2.1,2.1-4.3,0-7.5
					c-3.2-5.3-6.4-10.7-7.5-16.1c-11.8-48.2-31-89-40.7-137.1c-6.4-36.4,1-72.9,22.5-103.9c3-5,1.3-13.8,1.1-21l-3.6-0.7
					c-1.4,28.5-27.6,45.9-25.5,107.9c2.1,61.9,33.5,125.3,38.6,166.8c5.1,41.6,5.1,66.3,13.8,91.8c8.7,25.5,12.6,51.2,13.3,60.5
					c0.4,4.9,3.3,7.2,7.2,8.3C688.8,770.1,688.9,764.1,687.5,757.1z"/>
				<path id="XMLID_8747_" class="st25" d="M710,713.4c-2.6-14.3-6.6-52.2-5.7-63.3c0.7-11.1-1.7-36.1-5.5-57.9s-6.6-69.7-6.8-91.3
					s-4-51.7-6-61c-4.5,10.2-15.6,18.1-31.6,22.6c10.7,0.6,19.2-4.1,29-11.8c-1,17.1-4.3,33.2-1,51.4c9.6,61,15,118.9,18.2,178.9v-1
					c3.8,31.1,8.7,65,4.7,96.5c3.3-0.5,3.7-1.8,5-3.1C712,771.9,712.5,727.8,710,713.4z"/>
				<path id="XMLID_8746_" class="st21" d="M687.5,443.4c0.1,0.8,0.2,1.7,0.4,2.7c0-0.4-0.1-0.9-0.1-1.3
					C687.7,444.8,687.6,444.3,687.5,443.4z"/>
				<path id="XMLID_8745_" class="st25" d="M674.1,420.9c-5.3-13.9-6-39.6-1.7-53.5c-2.8,0-5,0.9-7.5,1.2c0,1.2,0,2,0,2s0,0-1.3,14
					c-1.3,13.8,5.1,35.9,12.9,39.9C675.5,423.5,674.7,422.3,674.1,420.9z"/>
				<path id="XMLID_8744_" class="st25" d="M761.2,763.6c-13.9-49.2-34.3-96.4-33.2-148.9c0-9.6-4.3-18.2-7.5-27.8
					c-19.2-46.1-25.7-96.4-29-146.8c0-2.7-0.5-4.6-1.4-6c-1-0.1-2-0.3-3.1-0.4c-0.8,0.6-1.6,1.1-2.5,1.5l0.6,0.8
					c1.6,4.6,2.4,8.8,2.4,8.8c2.7,33.5,10,78.9,16.7,100.3s19.4,54.9,20.8,85c1.3,30.1,6.7,52.8,14,72.3s14.7,54.1,21.4,68.3
					c0.8,1.6,2,2.8,3.7,3.4C763.4,770.5,762.4,767.1,761.2,763.6z"/>
				<path id="XMLID_8743_" class="st25" d="M783.9,763.6c0,0-0.5-1.6-5.2-25.1c-4.7-23.4-4.7-113.1-12.1-145.1
					c-7.4-32.1-10-50.2-8.7-123.1c1.2-64.8-23-96.3-33.6-123.2l-0.5-1.3c-0.7-1.8-1.3-3.6-1.8-5.3c-1,1.4-2.5,2.6-4.1,3.6
					c6,15.6,9.6,31.6,17.7,47c27.8,54.7,10.7,114.6,16.1,173.5c1,9.6,4.3,17.1,7.5,25.7c3.2,9.6,6.4,20.4,7.5,31
					c1,47.1-2.1,94.3,11.8,140.3c0.7,2.9,1.9,5.7,3,8.7C783.4,768.3,784.5,766,783.9,763.6z"/>
				<path id="XMLID_8742_" class="st26" d="M721.2,337c-0.1,0.1-0.3,0.3-0.4,0.4v-0.1c-1.2,0.9-2.7,1.7-4.4,2.5
					c-15.1,6.8-46.9,6.2-51.4,5.3c-5-1-6-0.7-7.4,2.7c-1.3,3.4-0.7,6-2,12.4c-0.1,0.3-0.1,0.6-0.1,0.8c0.3-0.4,0.6-0.8,0.9-1.2
					c2.1-3.2,0-9.6,1-9.6c11.8-4.3,23.5,3.2,36.4,0c7.3-1.4,17.6-2.5,24.1-6.2c1.6-1,3.1-2.1,4.1-3.6
					C721.8,339.2,721.5,338.2,721.2,337z"/>
				<circle id="XMLID_8741_" class="st23" cx="661.9" cy="361.6" r="2.6"/>
				<circle id="XMLID_8740_" class="st23" cx="663" cy="351.6" r="2.6"/>
				<path id="XMLID_8739_" class="st20" d="M650.9,436.4c8,4,26,7.3,34.4,3.5c0,0-5.5,11.9-34.2,20.8"/>
				<path id="XMLID_8738_" class="st20" d="M733,448.9c-14.5,2.9-35.6-0.7-45.9-9.3c0,0,30.6,2.1,42.3-6.7"/>
			</g>
			<path id="XMLID_8736_" class="st27" d="M716.8,197.6c0,0,23.5-1,24.1-11.1c0.5-10-12.1-17.6-7.1-17.6c5,0,14,1,11.6-8.5
				c-2.5-9.5-17.1-13-1-18c16.1-5,39.6-3,38.2-42.2c-0.8-22-29.2-86.1-70.7-86.6c-42.2-0.5-34.6,13-46.7,22.1
				c-12.1,9.1-24.7,12.4-13,38.8c14.4,32.7-1,71.3,4,81.4c5,10,13.5,8.5,8,22.6c-5.5,14,7.6,28.6,17.1,21.6
				C690.7,193.2,716.8,197.6,716.8,197.6z"/>
			<path id="XMLID_8735_" class="st2" d="M675.7,162.2c0,0,6.9,21.6-0.7,37.1c-9.7,19.7-2.9,15.3-1.4,23.7s2.9,14.5,2.9,14.5
				s13.7-21.9,18.5-25.2c4.7-3.4,18.5-19.2,18.5-19.2c-9.4-9.4-8.7-22.3-0.9-37.6L675.7,162.2z"/>
			<path id="XMLID_8734_" class="st28" d="M685.5,179.8c3.9,0.2,13.7-6.4,23.3-15.8c0.9-2.8,2.1-5.6,3.7-8.5l-36.8,6.7
				c0,0,1.6,5,2.5,12C680.8,177.6,683.2,179.7,685.5,179.8z"/>
			<path id="XMLID_8733_" class="st27" d="M666.1,39.3c0,0-14.5-0.7-19.9,15.6S649,88,657.5,91.2C666.1,94.5,666.1,39.3,666.1,39.3z
				"/>
			<path id="XMLID_8732_" class="st2" d="M697.8,33c-27.4,0-44.6,9.5-43.4,31.1c1.2,21.6,7.3,22.3,2.8,35.6
				c-4.5,13.3-7.6,20.2-1.2,34.6c10.6,24.7,21.8,38.6,29.6,39.1s40.1-21.1,45.4-41.4c5.3-20.3,13-51.4,7.6-69.5
				C732.9,44.5,724.4,33,697.8,33z"/>
			<path id="XMLID_8731_" class="st2" d="M680.7,96.6c0.4,4.3,0.2,18.5-6.7,23.1c-6.8,4.5,0.2,6.1,3.9,6.6c3.8,0.4,9.7-0.2,11.1-1.5
				"/>
			<path id="XMLID_8730_" class="st29" d="M683.1,147.4c-3.6-0.2-9.1-3.3-9.4-6.2l19.9-0.4C693.5,140.8,691.6,147.8,683.1,147.4z"/>
			<path id="XMLID_8729_" class="st30" d="M695.9,139.7c0.5-0.1-1.5,3.2-14.1,2.6c-12.7-0.6-12.4-3.2-12.4-3.2s3,0.9,5.4-0.4
				c2.4-1.3,5.8-1.2,9.9-0.6C689,138.6,691.7,140.6,695.9,139.7z"/>
			<g id="XMLID_8719_">
				<path id="XMLID_8728_" class="st31" d="M717.9,102.8c0,0-3.6-7.4-10.4-6.3c-6.9,1-11.9,7-11.7,7.8s1.8,4.1,11.1,3.3
					S717.2,104.3,717.9,102.8z"/>
				<path id="XMLID_8727_" class="st32" d="M717.9,102.8c0,0-5.1-4.5-12-3.4c-6.9,1-10.2,4-10,4.9c0.2,0.9,1.8,4.1,11.1,3.3
					C716.2,106.8,717.2,104.3,717.9,102.8z"/>
				<g id="XMLID_8720_">
					<g id="XMLID_8721_">
						<defs>
							<path id="XMLID_8722_" d="M717.9,102.8c0,0-5.1-4.5-12-3.4c-6.9,1-10.2,4-10,4.9c0.2,0.9,1.8,4.1,11.1,3.3
								C716.2,106.8,717.2,104.3,717.9,102.8z"/>
						</defs>
						<clipPath id="XMLID_141_">
							<use xlink:href="#XMLID_8722_"  style="overflow:visible;"/>
						</clipPath>
						<g id="XMLID_8723_" class="st33">
							<circle id="XMLID_8726_" class="st34" cx="709.1" cy="102.8" r="6"/>
							<circle id="XMLID_8725_" class="st35" cx="709.1" cy="102.8" r="3.3"/>
							<circle id="XMLID_8724_" class="st32" cx="711.8" cy="101.5" r="1.4"/>
						</g>
					</g>
				</g>
			</g>
			<g id="XMLID_8709_">
				<path id="XMLID_8718_" class="st31" d="M657.6,101.9c0,0,3.3-6.9,9.6-5.8c6.3,1,11,6.4,10.7,7.2c-0.2,0.7-1.7,3.8-10.2,3.1
					S658.3,103.3,657.6,101.9z"/>
				<path id="XMLID_8717_" class="st32" d="M657.6,101.9c0,0,4.7-4.1,11.1-3.2c6.3,1,9.5,3.7,9.3,4.5s-1.7,3.8-10.2,3.1
					S658.3,103.3,657.6,101.9z"/>
				<g id="XMLID_8710_">
					<g id="XMLID_8711_">
						<defs>
							<path id="XMLID_8712_" d="M657.6,101.9c0,0,4.7-4.1,11.1-3.2c6.3,1,9.5,3.7,9.3,4.5s-1.7,3.8-10.2,3.1
								S658.3,103.3,657.6,101.9z"/>
						</defs>
						<clipPath id="XMLID_142_">
							<use xlink:href="#XMLID_8712_"  style="overflow:visible;"/>
						</clipPath>
						<g id="XMLID_8713_" class="st36">
							<circle id="XMLID_8716_" class="st34" cx="670.1" cy="101.9" r="5.6"/>
							<circle id="XMLID_8715_" class="st35" cx="670.1" cy="101.9" r="3.1"/>
							<circle id="XMLID_8714_" class="st32" cx="672.6" cy="100.7" r="1.3"/>
						</g>
					</g>
				</g>
			</g>
			<path id="XMLID_8708_" class="st37" d="M723.2,90.9c-1.1-1.6-4.7-6.2-10.7-5.7c-5.9,0.6-11.5,2.3-11.6,4.2
				c-0.1,1.9,3.1,0.9,6.8,0s9.4-1.7,11.8-0.2C721.8,90.7,724.4,92.5,723.2,90.9z"/>
			<path id="XMLID_8707_" class="st38" d="M730.5,130.6c-5.2,20.4-41.5,44.3-49.1,40.5c-0.5-0.2-1.1-0.1-1.7-0.3
				c2,1.4,4,2.3,5.7,2.4c7.8,0.5,40.1-21.1,45.4-41.4L730.5,130.6z"/>
			<path id="XMLID_8706_" class="st38" d="M695.8,50.8c-5,4-6-3-9-4c-16.3-4.8-27,13.1-30.6,27.8c4.4-3.3,8.5-8.3,8.5-8.3l10.7-11.7
				c4.1-1.3,8.5-1,9.8,1.1c3.4,5.6,11.1,7.6,21.1-0.5c10-8,15.6,1.7,12.6,11.8c-3,10-0.5,12.8,5.5,13.8c6,1,13,17.3,10,23.3
				c-3,6-1,11.6-1,11.6s2.4-10.2,8.3-16.5c-1.8-19.1-12.4-26.3-16.8-44.4C720.9,41.8,706.8,42.9,695.8,50.8z"/>
			<path id="XMLID_8705_" class="st39" d="M659.7,136.4c-10.2-24.9-2.9-24-0.5-39c2.1-13.9,0.3-9.6-0.9-31.2
				c-0.2-3.6,0.1-6.9,0.9-9.7c-1.4,1-3,1.7-4.8,2.1c-0.2,1.7-0.2,3.6-0.1,5.6c1.1,21.4,7.2,22.2,2.7,35.5
				c-4.5,13.3-7.6,20.2-1.2,34.6c9.9,22.8,20.2,36.5,27.8,38.8C676.4,168.3,667.7,155.7,659.7,136.4z"/>
			<g id="XMLID_8701_">
				<path id="XMLID_8704_" class="st40" d="M676.1,108.2c-8.4,0.2-16-0.8-22.8-3.1c-0.9-0.1-1.5-1-1.4-2c-0.1-2.4,0.1-5,0.5-8.2
					c0.1-1.1,0.9-1.9,1.8-1.9c7.8-0.3,15.8,0.1,23.8,1.3c0.9,0.1,1.6,1,1.6,2.1c0.1,3-0.7,6-1.4,9.8
					C677.9,107.5,677,108.3,676.1,108.2z"/>
				<path id="XMLID_8703_" class="st40" d="M693.4,109.3c8.3,1.1,20.7,2.3,27.7,0.8c0.9,0,1.6-0.8,1.7-1.9c0.3-2.4,0.6-7.1,0.6-10.1
					c0.1-1.1-0.6-2-1.6-2.1c-7.7-1.1-20.4-0.9-28.6-0.6c-0.9-0.1-1.7,0.8-1.8,1.9c-0.5,3,0.1,6.1,0.3,9.9
					C691.6,108.4,692.4,109.3,693.4,109.3z"/>
				<path id="XMLID_8702_" class="st40" d="M679.6,97.4c0,0,0.7-2.7,5.1-2.7c4.4,0,6.6,6,6.6,6"/>
			</g>
			<path id="XMLID_8700_" class="st37" d="M675.7,91.6c2.1,1.3,3.6-1.4,1.2-3.1c-2.4-1.7-7.5-2.3-10.9-2c-3.4,0.2-6.9,2.7-7.6,4.4
				c-0.7,1.7,1.1-0.5,2.6-0.9C665.2,88.3,670.4,88.3,675.7,91.6z"/>
			<path id="XMLID_8699_" class="st2" d="M736.2,104.6c1.5-2.9,8.9-13.7,12.7-7.1c3.7,6.7,2.5,22.2-4.2,24.7
				c-6.7,2.5-2.4,7.2-6.2,11c-3.9,3.9-7.1-0.3-7.7-3.3"/>
			<path id="XMLID_8698_" class="st2" d="M741.6,107.5c6.1-2.7,6.8,8.3-0.7,9.9c-4.2,0.9-7.7,4.6-7.5,8.4"/>
			<path id="XMLID_8697_" class="st41" d="M665.2,31.5c0,0-26.6,12.7-18.8,34c7.8,21.3,18.3-3.2,18.3-3.2l11.6-12.6L665.2,31.5z"/>
			<path id="XMLID_8696_" class="st42" d="M685.3,51.8c3.4,5.6,11.1,7.6,21.1-0.5c10-8,15.6-4.7,12.6,5.3c-3,10-0.5,17.1,5.5,18
				c6,1,13,21.6,10,27.6c-3,6-1,11.6-1,11.6s3.5-15.6,13-20.1c9.5-4.5,3.5-33.6-6-35.6s11.1,1.6,3.5-15.9
				c-7.6-17.5-14.5-28.7-35.1-31.1s-42.7,8-43.7,22.6c-1,14.5,4,19.6,8.5,17.6C678.2,49.2,683.7,49.2,685.3,51.8z"/>
			<path id="XMLID_8695_" class="st5" d="M707.3,184.1c0,0,21.1,12.1,20.8,18c-0.3,5.9-3.4,22-10.9,24.9
				c-5.7,2.3-3.7-15.1-12.8-11.6c-9.1,3.6-24.9,17.5-28,22.6c0,0,18.6-36.4,29.7-40.3c2.5-0.6,5.8-3.8,3.9-6.2
				C708.4,189.8,707.5,186.2,707.3,184.1z"/>
			<path id="XMLID_8694_" class="st5" d="M677.8,191.1c-0.2,11.9-10,16.6-2.1,30c0,0,2.4,11.3,0.7,17.6c0,0-3.5-14.8-9.8-17.6
				c-6.3-2.8-12.6,7.5-12.6,7.5s1.2-26,10.6-33.2C674.1,188.3,677.8,191.1,677.8,191.1z"/>
			<path id="XMLID_7425_" class="st6" d="M707.3,180.9c0,0,21.9,8.5,21.6,14.4s-4.7,25.6-10.2,28.4s-5.1-14.9-14.2-11.5
				c-9.1,3.6-24.9,20.2-28,25.3c0,0,18.5-39,29.6-43c2.5-0.6,5.8-3.8,3.9-6.2C708.4,186.6,707.5,182.9,707.3,180.9z"/>
			<g id="XMLID_7257_">
				<path id="XMLID_7282_" class="st43" d="M707.5,181.4c0.2,1.9,1,5.5,2.6,7.3c0.5,0.6,0.7,1.3,0.5,2c0.9,2,1.5,4.5,0.6,5.4
					c-5.7,4.5-6.1,10-5.2,15.8c7.6-1.3,7.5,14.1,12.6,11.6c5.4-2.7,9.7-22.1,10-27.8C729,189.6,707.5,181.4,707.5,181.4z"/>
				<path id="XMLID_7262_" class="st44" d="M711.1,195.9c0.9-0.9,0.2-3.5-0.6-5.5c-0.3,1.9-2.7,3.8-4.4,4.2c-11.1,4-29.6,43-29.6,43
					c3.2-5.1,18.9-21.7,28-25.3c0.5-0.2,0.9-0.3,1.3-0.4C704.8,206.1,705.2,200.5,711.1,195.9z"/>
			</g>
			<path id="XMLID_7255_" class="st6" d="M677.8,187.8c-0.2,11.9-10,16.6-2.1,30c0,0,2.4,13.4,0.8,19.8c0,0-3.6-17-9.8-19.8
				c-6.3-2.8-12.6,7.5-12.6,7.5s1.2-26,10.6-33.2C674.1,185.1,677.8,187.8,677.8,187.8z"/>
			<g id="XMLID_5508_">
				<path id="XMLID_7247_" class="st43" d="M677.5,187.7c-1-0.5-4.9-1.4-12.9,4.5c-9.4,7.1-10.6,33.2-10.6,33.2s5.6-9.1,11.6-7.9
					C664.8,206.7,669.6,195.7,677.5,187.7z"/>
				<path id="XMLID_6071_" class="st44" d="M677.5,187.7c-7.9,8.1-12.8,19-12,29.8c0.3,0.1,0.7,0.2,1,0.3c6.3,2.8,9.8,19.8,9.8,19.8
					c1.5-6.3-0.8-19.8-0.8-19.8c-7.9-13.4,1.9-18.1,2.1-30C677.8,187.8,677.7,187.8,677.5,187.7z"/>
			</g>
		</g>
	</g>
	<g id="XMLID_1032_">
		<g id="XMLID_1436_">
			<line id="XMLID_45_" x1="418.9" y1="272.2" x2="418.9" y2="306.9"/>
			<g id="XMLID_41_">
				<line id="XMLID_44_" class="st45" x1="418.9" y1="272.2" x2="418.9" y2="299.8"/>
				<g id="XMLID_42_">
					<polygon id="XMLID_43_" class="st46" points="418.9,306.9 414.8,296.9 418.9,299.3 422.9,296.9 					"/>
				</g>
			</g>
		</g>
		<g id="XMLID_1459_">
			<line id="XMLID_39_" x1="418.9" y1="360.6" x2="418.9" y2="395.3"/>
			<g id="XMLID_35_">
				<line id="XMLID_38_" class="st45" x1="418.9" y1="360.6" x2="418.9" y2="388.2"/>
				<g id="XMLID_36_">
					<polygon id="XMLID_37_" class="st46" points="418.9,395.3 414.8,385.3 418.9,387.7 422.9,385.3 					"/>
				</g>
			</g>
		</g>
		<g id="XMLID_8469_">
			<circle id="XMLID_8470_" class="st47" cx="418.9" cy="169.1" r="14.8"/>
		</g>
		<g id="XMLID_8462_">
			<circle id="XMLID_8466_" class="st47" cx="418.9" cy="415.9" r="14.8"/>
			<circle id="XMLID_8463_" class="st48" cx="418.9" cy="415.9" r="18.7"/>
		</g>
		<path id="XMLID_8461_" class="st49" d="M468.7,271.9H369c-7.9,0-14.3-6.4-14.3-14.3v-24.8c0-7.9,6.4-14.3,14.3-14.3h99.7
			c7.9,0,14.3,6.4,14.3,14.3v24.8C483,265.5,476.6,271.9,468.7,271.9z"/>
		<path id="XMLID_8465_" class="st50" d="M468.7,361.4H369c-7.9,0-14.3-6.4-14.3-14.3v-24.8c0-7.9,6.4-14.3,14.3-14.3h99.7
			c7.9,0,14.3,6.4,14.3,14.3v24.8C483,355,476.6,361.4,468.7,361.4z"/>
		<g id="XMLID_60_">
			<path id="XMLID_61_" d="M370.5,251.8l5.4-14.2h2l5.8,14.2h-2.1l-1.7-4.3H374l-1.6,4.3H370.5z M374.6,246h4.8l-1.5-3.9
				c-0.5-1.2-0.8-2.2-1-2.9c-0.2,0.9-0.4,1.8-0.8,2.7L374.6,246z"/>
			<path id="XMLID_64_" d="M391.7,248l1.7,0.2c-0.2,1.2-0.7,2.1-1.4,2.8c-0.8,0.7-1.7,1-2.8,1c-1.4,0-2.5-0.5-3.4-1.4
				c-0.9-0.9-1.3-2.2-1.3-3.9c0-1.1,0.2-2.1,0.6-2.9c0.4-0.8,0.9-1.5,1.7-1.9s1.6-0.6,2.4-0.6c1.1,0,2,0.3,2.7,0.8
				c0.7,0.6,1.2,1.4,1.4,2.4l-1.7,0.3c-0.2-0.7-0.4-1.2-0.9-1.6c-0.4-0.3-0.9-0.5-1.5-0.5c-0.9,0-1.6,0.3-2.1,0.9
				c-0.5,0.6-0.8,1.6-0.8,3c0,1.4,0.3,2.4,0.8,3c0.5,0.6,1.2,0.9,2.1,0.9c0.7,0,1.3-0.2,1.7-0.6C391.3,249.5,391.6,248.9,391.7,248z
				"/>
			<path id="XMLID_66_" d="M398.7,250.2l0.3,1.5c-0.5,0.1-0.9,0.2-1.3,0.2c-0.6,0-1.1-0.1-1.5-0.3s-0.6-0.5-0.7-0.8s-0.2-1-0.2-2.1
				v-5.9h-1.3v-1.4h1.3V239l1.7-1v3.6h1.7v1.4h-1.7v6c0,0.5,0,0.8,0.1,1c0.1,0.1,0.2,0.3,0.3,0.3c0.1,0.1,0.3,0.1,0.6,0.1
				C398.1,250.3,398.4,250.3,398.7,250.2z"/>
			<path id="XMLID_68_" d="M400.4,239.6v-2h1.7v2H400.4z M400.4,251.8v-10.3h1.7v10.3H400.4z"/>
			<path id="XMLID_71_" d="M407.6,251.8l-3.9-10.3h1.8l2.2,6.1c0.2,0.7,0.5,1.4,0.7,2.1c0.2-0.5,0.4-1.2,0.6-2l2.3-6.3h1.8
				l-3.9,10.3H407.6z"/>
			<path id="XMLID_73_" d="M414.7,239.6v-2h1.7v2H414.7z M414.7,251.8v-10.3h1.7v10.3H414.7z"/>
			<path id="XMLID_76_" d="M425.7,251.8v-1.3c-0.7,1-1.6,1.5-2.9,1.5c-0.8,0-1.6-0.2-2.3-0.7s-1.2-1.1-1.6-1.9
				c-0.4-0.8-0.6-1.7-0.6-2.8c0-1,0.2-2,0.5-2.8c0.3-0.8,0.9-1.5,1.5-1.9c0.7-0.4,1.4-0.7,2.3-0.7c0.6,0,1.2,0.1,1.7,0.4
				c0.5,0.3,0.9,0.6,1.2,1v-5.1h1.7v14.2H425.7z M420.2,246.7c0,1.3,0.3,2.3,0.8,2.9s1.2,1,2,1c0.8,0,1.4-0.3,1.9-0.9
				c0.5-0.6,0.8-1.6,0.8-2.8c0-1.4-0.3-2.4-0.8-3.1s-1.2-1-2-1c-0.8,0-1.4,0.3-1.9,0.9C420.5,244.3,420.2,245.3,420.2,246.7z"/>
			<path id="XMLID_79_" d="M436.7,250.5c-0.6,0.5-1.3,0.9-1.9,1.2c-0.6,0.2-1.2,0.3-1.9,0.3c-1.1,0-2-0.3-2.6-0.8
				c-0.6-0.6-0.9-1.3-0.9-2.1c0-0.5,0.1-1,0.3-1.4s0.5-0.7,0.9-1c0.4-0.3,0.8-0.4,1.3-0.6c0.3-0.1,0.9-0.2,1.5-0.3
				c1.4-0.2,2.4-0.4,3.1-0.6c0-0.2,0-0.4,0-0.5c0-0.7-0.2-1.2-0.5-1.5c-0.4-0.4-1.1-0.6-2-0.6c-0.8,0-1.4,0.1-1.8,0.4
				c-0.4,0.3-0.7,0.8-0.9,1.5l-1.7-0.2c0.2-0.7,0.4-1.3,0.8-1.8c0.4-0.4,0.9-0.8,1.5-1c0.7-0.2,1.4-0.4,2.3-0.4
				c0.9,0,1.6,0.1,2.1,0.3c0.5,0.2,1,0.5,1.2,0.8c0.3,0.3,0.4,0.7,0.5,1.2c0.1,0.3,0.1,0.8,0.1,1.6v2.3c0,1.6,0,2.6,0.1,3.1
				c0.1,0.4,0.2,0.8,0.4,1.2h-1.8C436.9,251.4,436.8,251,436.7,250.5z M436.6,246.6c-0.6,0.3-1.6,0.5-2.8,0.7
				c-0.7,0.1-1.2,0.2-1.5,0.3c-0.3,0.1-0.5,0.3-0.7,0.6c-0.2,0.2-0.2,0.5-0.2,0.8c0,0.5,0.2,0.8,0.5,1.2c0.4,0.3,0.9,0.5,1.5,0.5
				c0.7,0,1.3-0.1,1.8-0.4s0.9-0.7,1.1-1.2c0.2-0.4,0.3-1,0.3-1.7V246.6z"/>
			<path id="XMLID_82_" d="M447.7,251.8v-1.3c-0.7,1-1.6,1.5-2.9,1.5c-0.8,0-1.6-0.2-2.3-0.7s-1.2-1.1-1.6-1.9
				c-0.4-0.8-0.6-1.7-0.6-2.8c0-1,0.2-2,0.5-2.8c0.3-0.8,0.9-1.5,1.5-1.9c0.7-0.4,1.4-0.7,2.3-0.7c0.6,0,1.2,0.1,1.7,0.4
				c0.5,0.3,0.9,0.6,1.2,1v-5.1h1.7v14.2H447.7z M442.2,246.7c0,1.3,0.3,2.3,0.8,2.9s1.2,1,2,1c0.8,0,1.4-0.3,1.9-0.9
				c0.5-0.6,0.8-1.6,0.8-2.8c0-1.4-0.3-2.4-0.8-3.1s-1.2-1-2-1c-0.8,0-1.4,0.3-1.9,0.9C442.5,244.3,442.2,245.3,442.2,246.7z"/>
			<path id="XMLID_85_" d="M463.6,251.8h-1.7v-11.1c-0.4,0.4-1,0.8-1.6,1.2s-1.3,0.7-1.8,0.9v-1.7c1-0.5,1.8-1,2.5-1.7
				s1.2-1.3,1.5-1.9h1.1V251.8z"/>
		</g>
		<g id="XMLID_3_">
			<path id="XMLID_4_" d="M370.5,340.6l5.4-14.2h2l5.8,14.2h-2.1l-1.7-4.3H374l-1.6,4.3H370.5z M374.6,334.8h4.8l-1.5-3.9
				c-0.5-1.2-0.8-2.2-1-2.9c-0.2,0.9-0.4,1.8-0.8,2.7L374.6,334.8z"/>
			<path id="XMLID_7_" d="M391.7,336.8l1.7,0.2c-0.2,1.2-0.7,2.1-1.4,2.8c-0.8,0.7-1.7,1-2.8,1c-1.4,0-2.5-0.5-3.4-1.4
				c-0.9-0.9-1.3-2.2-1.3-3.9c0-1.1,0.2-2.1,0.6-2.9c0.4-0.8,0.9-1.5,1.7-1.9s1.6-0.6,2.4-0.6c1.1,0,2,0.3,2.7,0.8
				c0.7,0.6,1.2,1.4,1.4,2.4l-1.7,0.3c-0.2-0.7-0.4-1.2-0.9-1.6c-0.4-0.3-0.9-0.5-1.5-0.5c-0.9,0-1.6,0.3-2.1,0.9
				c-0.5,0.6-0.8,1.6-0.8,3c0,1.4,0.3,2.4,0.8,3c0.5,0.6,1.2,0.9,2.1,0.9c0.7,0,1.3-0.2,1.7-0.6
				C391.3,338.4,391.6,337.7,391.7,336.8z"/>
			<path id="XMLID_9_" d="M398.7,339l0.3,1.5c-0.5,0.1-0.9,0.2-1.3,0.2c-0.6,0-1.1-0.1-1.5-0.3s-0.6-0.5-0.7-0.8s-0.2-1-0.2-2.1
				v-5.9h-1.3v-1.4h1.3v-2.5l1.7-1v3.6h1.7v1.4h-1.7v6c0,0.5,0,0.8,0.1,1c0.1,0.1,0.2,0.3,0.3,0.3c0.1,0.1,0.3,0.1,0.6,0.1
				C398.1,339.1,398.4,339.1,398.7,339z"/>
			<path id="XMLID_20_" d="M400.4,328.4v-2h1.7v2H400.4z M400.4,340.6v-10.3h1.7v10.3H400.4z"/>
			<path id="XMLID_25_" d="M407.6,340.6l-3.9-10.3h1.8l2.2,6.1c0.2,0.7,0.5,1.4,0.7,2.1c0.2-0.5,0.4-1.2,0.6-2l2.3-6.3h1.8
				l-3.9,10.3H407.6z"/>
			<path id="XMLID_46_" d="M414.7,328.4v-2h1.7v2H414.7z M414.7,340.6v-10.3h1.7v10.3H414.7z"/>
			<path id="XMLID_49_" d="M425.7,340.6v-1.3c-0.7,1-1.6,1.5-2.9,1.5c-0.8,0-1.6-0.2-2.3-0.7s-1.2-1.1-1.6-1.9
				c-0.4-0.8-0.6-1.7-0.6-2.8c0-1,0.2-2,0.5-2.8c0.3-0.8,0.9-1.5,1.5-1.9c0.7-0.4,1.4-0.7,2.3-0.7c0.6,0,1.2,0.1,1.7,0.4
				c0.5,0.3,0.9,0.6,1.2,1v-5.1h1.7v14.2H425.7z M420.2,335.5c0,1.3,0.3,2.3,0.8,2.9s1.2,1,2,1c0.8,0,1.4-0.3,1.9-0.9
				c0.5-0.6,0.8-1.6,0.8-2.8c0-1.4-0.3-2.4-0.8-3.1s-1.2-1-2-1c-0.8,0-1.4,0.3-1.9,0.9C420.5,333.1,420.2,334.1,420.2,335.5z"/>
			<path id="XMLID_52_" d="M436.7,339.3c-0.6,0.5-1.3,0.9-1.9,1.2c-0.6,0.2-1.2,0.3-1.9,0.3c-1.1,0-2-0.3-2.6-0.8
				c-0.6-0.6-0.9-1.3-0.9-2.1c0-0.5,0.1-1,0.3-1.4s0.5-0.7,0.9-1c0.4-0.3,0.8-0.4,1.3-0.6c0.3-0.1,0.9-0.2,1.5-0.3
				c1.4-0.2,2.4-0.4,3.1-0.6c0-0.2,0-0.4,0-0.5c0-0.7-0.2-1.2-0.5-1.5c-0.4-0.4-1.1-0.6-2-0.6c-0.8,0-1.4,0.1-1.8,0.4
				c-0.4,0.3-0.7,0.8-0.9,1.5l-1.7-0.2c0.2-0.7,0.4-1.3,0.8-1.8c0.4-0.4,0.9-0.8,1.5-1c0.7-0.2,1.4-0.4,2.3-0.4
				c0.9,0,1.6,0.1,2.1,0.3c0.5,0.2,1,0.5,1.2,0.8c0.3,0.3,0.4,0.7,0.5,1.2c0.1,0.3,0.1,0.8,0.1,1.6v2.3c0,1.6,0,2.6,0.1,3.1
				c0.1,0.4,0.2,0.8,0.4,1.2h-1.8C436.9,340.2,436.8,339.8,436.7,339.3z M436.6,335.5c-0.6,0.3-1.6,0.5-2.8,0.7
				c-0.7,0.1-1.2,0.2-1.5,0.3c-0.3,0.1-0.5,0.3-0.7,0.6c-0.2,0.2-0.2,0.5-0.2,0.8c0,0.5,0.2,0.8,0.5,1.2c0.4,0.3,0.9,0.5,1.5,0.5
				c0.7,0,1.3-0.1,1.8-0.4s0.9-0.7,1.1-1.2c0.2-0.4,0.3-1,0.3-1.7V335.5z"/>
			<path id="XMLID_55_" d="M447.7,340.6v-1.3c-0.7,1-1.6,1.5-2.9,1.5c-0.8,0-1.6-0.2-2.3-0.7s-1.2-1.1-1.6-1.9
				c-0.4-0.8-0.6-1.7-0.6-2.8c0-1,0.2-2,0.5-2.8c0.3-0.8,0.9-1.5,1.5-1.9c0.7-0.4,1.4-0.7,2.3-0.7c0.6,0,1.2,0.1,1.7,0.4
				c0.5,0.3,0.9,0.6,1.2,1v-5.1h1.7v14.2H447.7z M442.2,335.5c0,1.3,0.3,2.3,0.8,2.9s1.2,1,2,1c0.8,0,1.4-0.3,1.9-0.9
				c0.5-0.6,0.8-1.6,0.8-2.8c0-1.4-0.3-2.4-0.8-3.1s-1.2-1-2-1c-0.8,0-1.4,0.3-1.9,0.9C442.5,333.1,442.2,334.1,442.2,335.5z"/>
			<path id="XMLID_58_" d="M466.2,338.9v1.7h-9.4c0-0.4,0.1-0.8,0.2-1.2c0.2-0.6,0.6-1.3,1.1-1.9c0.5-0.6,1.3-1.3,2.3-2.1
				c1.5-1.3,2.6-2.3,3.1-3c0.5-0.7,0.8-1.4,0.8-2.1c0-0.7-0.2-1.3-0.7-1.7c-0.5-0.5-1.1-0.7-1.9-0.7c-0.8,0-1.5,0.3-2,0.8
				c-0.5,0.5-0.8,1.2-0.8,2.1l-1.8-0.2c0.1-1.3,0.6-2.3,1.4-3c0.8-0.7,1.9-1,3.2-1c1.4,0,2.4,0.4,3.2,1.1s1.2,1.7,1.2,2.8
				c0,0.6-0.1,1.1-0.3,1.7c-0.2,0.5-0.6,1.1-1.2,1.7c-0.5,0.6-1.4,1.4-2.7,2.5c-1,0.9-1.7,1.5-2,1.8c-0.3,0.3-0.5,0.6-0.7,0.9H466.2
				z"/>
		</g>
		<g id="XMLID_8529_">
			<line id="XMLID_33_" x1="418.9" y1="183.8" x2="418.9" y2="218.4"/>
			<g id="XMLID_27_">
				<line id="XMLID_32_" class="st45" x1="418.9" y1="183.8" x2="418.9" y2="211.4"/>
				<g id="XMLID_30_">
					<polygon id="XMLID_31_" class="st46" points="418.9,218.4 414.8,208.5 418.9,210.9 422.9,208.5 					"/>
				</g>
			</g>
		</g>
	</g>
	<g id="XMLID_7444_">
		<circle id="XMLID_7447_" class="st47" cx="12.1" cy="265.5" r="12.1"/>
	</g>
	<g id="XMLID_1437_">
		<circle id="XMLID_7438_" class="st47" cx="215.2" cy="265.5" r="12.1"/>
		<circle id="XMLID_7431_" class="st51" cx="215.2" cy="265.5" r="15.2"/>
	</g>
	<line id="XMLID_1438_" class="st52" x1="113.9" y1="316.8" x2="113.9" y2="138.6"/>
	<line id="XMLID_7299_" class="st52" x1="315.1" y1="316.8" x2="315.1" y2="138.6"/>
</g>
</svg>
