<?xml version="1.0" encoding="utf-8"?>
<!-- Generator: Adobe Illustrator 19.0.0, SVG Export Plug-In . SVG Version: 6.00 Build 0)  -->
<svg version="1.1" id="Capa_1" xmlns="http://www.w3.org/2000/svg" xmlns:xlink="http://www.w3.org/1999/xlink" x="0px" y="0px"
	 viewBox="0 0 450.3 546.6" style="enable-background:new 0 0 450.3 546.6;" xml:space="preserve">
<style type="text/css">
	.st0{clip-path:url(#XMLID_54_);}
	.st1{fill:#ECBA97;stroke:#9F7557;stroke-width:1.1126;stroke-linecap:round;stroke-linejoin:round;stroke-miterlimit:10;}
	.st2{fill:#767F84;stroke:#8FA5AA;stroke-width:0.8477;stroke-linecap:round;stroke-linejoin:round;stroke-miterlimit:10;}
	.st3{fill:#0C0C0C;stroke:#1D1D1B;stroke-width:0.9575;stroke-miterlimit:10;}
	.st4{fill:#272727;stroke:#1D1D1B;stroke-width:0.9575;stroke-miterlimit:10;}
	.st5{fill:#191919;stroke:#1D1D1B;stroke-width:0.707;stroke-miterlimit:10;}
	.st6{fill:#7F8080;stroke:#1D1D1B;stroke-width:1.0308;stroke-miterlimit:10;}
	.st7{fill:#7F8080;stroke:#1D1D1B;stroke-width:1.1209;stroke-miterlimit:10;}
	.st8{fill:#191919;stroke:#1D1D1B;stroke-width:0.9575;stroke-miterlimit:10;}
	.st9{fill:#7F8080;stroke:#1D1D1B;stroke-width:0.9575;stroke-miterlimit:10;}
	.st10{fill:#111111;}
	.st11{fill:#5287AC;}
	.st12{fill:#ECBA97;stroke:#9F7557;stroke-width:0.5;stroke-linecap:round;stroke-linejoin:round;stroke-miterlimit:10;}
	.st13{fill:#E3DCD6;stroke:#979797;stroke-width:0.75;stroke-linecap:round;stroke-linejoin:round;stroke-miterlimit:10;}
	.st14{fill:#D3CDC9;}
	.st15{fill:#C1DA9D;stroke:#1D1D1B;stroke-width:0.8477;stroke-miterlimit:10;}
	.st16{fill:#98A580;}
	.st17{fill:#3E718D;}
	.st18{fill:#3B505A;}
	.st19{fill:#667B80;}
	.st20{fill:#90A9AD;}
	.st21{fill:#E3DCD6;stroke:#979797;stroke-width:0.75;stroke-miterlimit:10;}
	.st22{fill:#CDA285;}
	.st23{fill:#ECBA97;stroke:#C4916E;stroke-width:0.5;stroke-linecap:round;stroke-linejoin:round;stroke-miterlimit:10;}
	.st24{fill:#FFA96A;stroke:#6B4429;stroke-width:0.8084;stroke-linecap:round;stroke-linejoin:round;stroke-miterlimit:10;}
	.st25{fill:#452109;}
	.st26{fill:#FFFFFF;}
	.st27{clip-path:url(#XMLID_55_);}
	.st28{clip-path:url(#XMLID_56_);}
	.st29{clip-path:url(#XMLID_57_);fill:#964C15;}
	.st30{clip-path:url(#XMLID_57_);fill:#3D1800;}
	.st31{clip-path:url(#XMLID_57_);fill:#FFFFFF;}
	.st32{clip-path:url(#XMLID_58_);}
	.st33{clip-path:url(#XMLID_59_);}
	.st34{clip-path:url(#XMLID_60_);fill:#964C15;}
	.st35{clip-path:url(#XMLID_60_);fill:#3D1800;}
	.st36{clip-path:url(#XMLID_60_);fill:#FFFFFF;}
	.st37{fill:#595455;}
	.st38{fill:#564F4C;stroke:#473F3D;stroke-width:0.9282;stroke-miterlimit:10;}
	.st39{fill:#564F4C;stroke:#473F3D;stroke-width:0.9172;stroke-miterlimit:10;}
	.st40{opacity:0.3;enable-background:new    ;}
	.st41{fill:#ECBA97;stroke:#9F7557;stroke-width:1.0565;stroke-linecap:round;stroke-linejoin:round;stroke-miterlimit:10;}
	.st42{opacity:0.4;fill:#545454;enable-background:new    ;}
	.st43{fill:#51564D;stroke:#3B3F38;stroke-width:0.7011;stroke-miterlimit:10;}
	.st44{fill:#ECBA97;}
	.st45{opacity:0.5;fill:#CDA285;enable-background:new    ;}
	.st46{fill:#ECBA97;stroke:#9F7557;stroke-linecap:round;stroke-linejoin:round;stroke-miterlimit:10;}
	.st47{fill:#876E5C;}
</style>
<g id="XMLID_15802_">
	<g id="XMLID_15803_">
		<g id="XMLID_15805_">
			<defs>
				<rect id="XMLID_16336_" x="0" y="0" width="450.3" height="546.6"/>
			</defs>
			<clipPath id="XMLID_54_">
				<use xlink:href="#XMLID_16336_"  style="overflow:visible;"/>
			</clipPath>
			<g id="XMLID_15806_" class="st0">
				<g id="XMLID_1304_">
					<path id="XMLID_15769_" class="st1" d="M322.9,227.9l-54.4,5.9c7.6-38.5,1.7-61.4,1.7-61.4l50.3-41.6
						C315.4,163.9,319.6,195.1,322.9,227.9z"/>
					<path id="XMLID_15768_" class="st2" d="M117.5,258.7c2.2,3.1,0,10.6-5.4,22.3c-5.4,11.6-12.1,17.8-17.6,13.8
						c-5.4-4,2.2-16.9,6.3-23.6C104.8,264.5,115.7,256.2,117.5,258.7z"/>
					<g id="XMLID_15680_">
						<g id="XMLID_15743_">
							<path id="XMLID_15767_" class="st3" d="M316.6,836.8c-1.2,4.1-3.8,17.9-7.5,26.5c-3.7,8.6-2.2,16.7-1.5,20.5s15.6,8.1,34,7.9
								c18.4-0.2,28.9-1.9,31.7-6.3c2.8-4.5,1.1-15.6-3.7-21s-10.5-29.7-11.8-33.5c-1.3-3.8-38.8-5.7-39.7-2.8
								C317.1,831.1,316.6,836.8,316.6,836.8z"/>
							<path id="XMLID_15748_" class="st4" d="M316.5,829.9c-1.2,4.1-2.7,19.7-6.4,28.3c-3.7,8.6-3.3,15-2.7,18.8
								c0.7,3.8,15.6,8.1,34,7.9c18.4-0.2,28.9-1.9,31.7-6.3c2.8-4.5-1.4-14-6.2-19.3c-4.8-5.4-7.9-31.4-9.2-35.2
								c-1.3-3.8-38.8-5.7-39.7-2.8C317.1,824.2,316.5,829.9,316.5,829.9z"/>
							<path id="XMLID_15747_" class="st5" d="M354.2,820.4c-0.4,4.3-1.3,16.5,1.5,22.2c2.8,5.7,6.1,16.1,3.9,17.2
								c-2.2,1.2-14-0.7-19.7-0.2l-0.2,0c-5.7-0.4-17.4,1.8-19.7,0.6c-2.2-1.2-0.1-12,3-17.5c3.3-5.9,2.1-17.8,1.6-22
								C325.1,815.1,354,814,354.2,820.4z"/>
							<path id="XMLID_15746_" class="st6" d="M356.2,854.4c-11.5-1.4-22.5-1.3-33.7,0.3c-1.8,0-0.2-7.1,1.7-7.7
								c10.2-2,20-2.1,30.2-0.3C356.1,847.2,358.2,854,356.2,854.4z"/>
							<path id="XMLID_15745_" class="st7" d="M353.7,843.5c-9.8-1.2-19.3-1.1-28.9,0.3c-1.5,0-0.4-6.2,1.2-6.7
								c8.8-1.8,17.4-1.9,26.3-0.3C353.8,837.1,355.4,843.2,353.7,843.5z"/>
							<path id="XMLID_15744_" class="st7" d="M351.7,832.2c-8.6-0.9-16.8-0.8-25.2,0.2c-1.3,0-0.5-4.8,0.9-5.2
								c7.8-1.4,15.3-1.5,23.2-0.2C352,827.4,353.2,832,351.7,832.2z"/>
						</g>
						<g id="XMLID_15685_">
							<g id="XMLID_15738_">
								<path id="XMLID_15742_" class="st3" d="M208.8,819.6c-1.1,0.6-6.2,11.5-16.5,16.2c-10.2,4.6-17.4,10.1-22.2,12.9
									c-4.8,2.8-2,16.6,0.8,19.9c2.8,3.3,26.7,11.2,40.5,5c13.8-6.2,19.2-13.8,28.5-17.5c9.3-3.7,19.5-9.6,18.8-13.8
									c-0.6-4.2-2.6-14.7-2.4-19.8C256.7,817.3,219.9,813.4,208.8,819.6z"/>
								<path id="XMLID_15740_" class="st4" d="M208.7,813.8c-1.1,0.6-6.2,11.5-16.5,16.2c-10.2,4.6-18.3,10.8-23.1,13.5
									c-4.8,2.8-2.9,17.2-0.1,20.5c2.8,3.3,28.5,10,42.3,3.8c13.8-6.2,19.2-13.8,28.5-17.5c9.3-3.7,18.9-8.9,18.3-13.2
									c-0.6-4.2-1.4-15.4-1.1-20.5C257.3,811.5,219.8,807.7,208.7,813.8z"/>
								<path id="XMLID_15739_" class="st8" d="M197.8,842c3.9,3.8,8.1,3.4,11.9,0.6c3.8-2.7,18.8-10,22.3-16.6
									c3-5.7,3.4-12.6,3.2-15.1c-10.2-0.6-21.2,0.1-26.5,2.9c-1.1,0.6-6.2,11.5-16.5,16.2c-5.3,2.4-10,5.2-14,7.7
									c0.2,0.2,0.2,0.2,0.2,0.2C182,838.3,193.9,838.2,197.8,842z"/>
							</g>
							<path id="XMLID_15706_" class="st9" d="M182.5,835.3c5.3-0.6,13.1,0.6,22.1,4.4c1.5,0.7,6-1.7,5.3-2.8
								c-2.5-3.9-18.2-5.7-21.4-5.2c-1.3,0.2-3.2,0.7-4.3,1.3C182,834,181.2,835.4,182.5,835.3z"/>
							<path id="XMLID_15705_" class="st9" d="M193.4,829.5c5.3-0.7,13.1,0.4,22.1,4c1.6,0.6,6-1.8,5.2-2.9
								c-2.6-3.9-18.3-5.4-21.5-4.8c-1.3,0.3-3.2,0.8-4.3,1.3C192.9,828.2,192.1,829.6,193.4,829.5z"/>
							<path id="XMLID_15704_" class="st9" d="M201.5,823.3c5.3-0.8,12.6,0.4,22,2.8c1.6,0.4,5.7-2.6,4.8-3.6
								c-3.1-3.5-20.1-4.1-23.2-3.5c-1.3,0.3-2.4,0.9-3.1,1.7C200.3,822.5,200.2,823.5,201.5,823.3z"/>
						</g>
						<g id="XMLID_15684_">
							<path id="XMLID_16250_" class="st10" d="M207.4,471.7c0,0-1.5,133-2.8,161.1c-1.4,28.2,4.3,88.5,2.9,116.7
								c-0.9,19.1,0.3,54.4-2.1,57.9c-3.1,4.4-5.8,10-5,9.5c8.7,0.9,20.9-0.8,32.1,4.5c10,4.7,26,4.6,35.2,1.3c0,0,4.2-1.9,1.6-8.4
								c-2-6.7-2.2-66.9-1.4-91.4c1.1-32.6,12.7-134,12.8-159.2c0.1-25.1-0.4-57.3-0.4-57.3l8.9-0.7c0,0,0.9,94.2,4.4,130.9
								C297,673,311,787.3,312,805.3c0.4,10.3-9.6,20.4-2.5,19.5c6.6-0.9,24,12.3,52.6-4.2c2.3-2.1,10-5.2,0.7-14.4
								c-3.1-4.5,0.1-106.3,2.7-128.6c3.6-31.1,4.3-156.2-1.2-175.1c-5.5-18.9-6.7-67.6-11.7-77s-137.2,4.4-137.2,4.4L207.4,471.7z"
								/>
						</g>
						<path id="XMLID_15683_" d="M267.6,822.5c-9.3,3.4-25.3,3.4-35.2-1.3c-11.1-5.2-23.3-3.6-32.1-4.5c-0.8,0.5,1.9-5.1,5-9.5
							c0.4-0.6,0.7-1.8,0.9-3.4c5.7,2,12.6,1.4,18-1.3c7.9-4-1.7,11.3,11.5,11.9c13.2,0.7,8.3-6.6,16.3-11.9
							c7.9-5.3,8.6-28.3,7.3-58.1c-1.3-29.8-3.3-22.6,0.7-48.4c4-25.8,6.6-42.3,7.9-72.8c1.3-30.5,13.2-92.9,7.3-108.2
							c-6-15.2-4.3-16.6-11-24.5c-6.6-7.9-9.3-10.6,19.2-6.6c28.5,4,33.2,4,20.6,8.6c-12.6,4.6-10.6,6.6-8.6,17.9
							c2,11.3-4,31.2-1.3,52.4c2.6,21.2,13.9,71.7,11.9,95.5c-2,23.8-7.9,39.7-0.7,62.8c7.3,23.2,5.3,53.5,6,68
							c0.7,15.9,0.7,15.9,10.6,20.5c2.5,1.2,4.3,2.9,4.3,2.9s-4.8,2.6-10.2,1.1c-7.3-2-5.3-1.3-6,6.6c-0.2,2-1.3,3.2-2.9,3.9
							c-2.7-2,2-10.5,1.7-19.1c-1-18-11.7-132.3-15.2-168.8c-3.5-36.8-7.7-130.9-7.7-130.9l-5.7,0.7c0,0,0.5,32.2,0.4,57.3
							c-0.1,25.1-11.6,126.6-12.8,159.2c-0.6,18-0.7,58.9,0.2,77.8c-3.1,3.3-7.5,6.4-12.6,6c0,0,6.6,4.1,13.3,4.2
							c0.2,1.5,0.3,2.6,0.5,3.3C271.8,820.7,267.6,822.5,267.6,822.5z"/>
						<g id="XMLID_15682_">
							<path id="XMLID_16247_" d="M205.3,807.3c2.4-3.5,1.1-38.8,2.1-57.9c1.4-28.2-4.3-88.5-2.9-116.7c0.6-12.7-2.2-69.7-0.7-97.6
								l4.8,1.4l1.3,6c0,0-2.9,71,1,102.8c4,31.8,10.6,46.3,4,52.9c-6.6,6.6-6,83.9-2.6,94.5c3,9.7-5.6,12-6.1,24.2
								c-0.5,0-4.3-0.1-4.8-0.1C200.6,817.3,202.2,811.8,205.3,807.3z"/>
						</g>
						<path id="XMLID_15681_" d="M359.5,814.6c-0.1-1.4-0.1-2.5-0.2-3.5c-7.9,1.2-15.5-1.3-15.5-1.3c6.2-2.7,13.3-12.4,13-13.8
							c-3.3-13.9,3.4-65.3,3.4-65.3s0.7-46.3,2.6-74.1c2-27.8,0-32.4-2-43.7s1.3-58.5,1.3-58.5l5.9-0.9c0.6,36.7-0.5,105.5-2.7,124
							c-2,17.4-6.8,98.5-4,123c0.2,2.6-6.3,5.6-13.3,8.7c0,0,8.1,1.8,16-1.7c0.1,0.1,0.2,0.3,0.3,0.4c0,0,0,0,0,0
							c6.6,7.8-0.2,10.6-2.4,12.5c-6,3.4-6.2,5.6-11.6,6.9l0.1-0.4C362.3,821.9,360.1,825.8,359.5,814.6z"/>
					</g>
					<path id="XMLID_15679_" d="M356.1,560.9l-0.4,6.4c-18.6,4.3-40.9,7.3-56.9,2.8l-1-5.4L356.1,560.9z"/>
					<path id="XMLID_15677_" class="st11" d="M276.5,231c0,0-9.7-24-11.7-31c-14.9,5.1-33.9,13.1-38.4,21.6
						c-7.7,14.4-21.3,168.3-21.7,196.4c-0.4,28.1,24.5,19.2,50.6,19.6c26.1,0.4,79.6-9.3,92.6-15.9c13-6.7,4-54.3,5.7-79.8
						c1.7-25.5,31.6-104.2,19.1-117.1c-12.5-12.9-34-28.2-45-33.7C316.8,185.5,276.5,231,276.5,231z"/>
					<path id="XMLID_15676_" class="st12" d="M94.3,234.2c-10.9-19.5-27.9-17.7-41.1-21.7c-9.9-3-14.8,24.8-14.1,33
						c0.8,8.2,22,12.1,22,12.1s6.8-1.8,15.7,6.7c2.2,2.1,50.6,49.5,50.6,49.5l13.4-35.8C140.8,278.2,96.7,255.9,94.3,234.2z"/>
					<path id="XMLID_15675_" class="st12" d="M95.2,240.7c-1.6-4.1-1-6.6-0.3-12.2c0.7-5.7-6.9-12-5.5-20.7c1.3-8.7,1.3-17,0-20.4
						c-1.3-3.4-8.5-1-10.2,6.8c-1.7,7.8-2.2,15.1-0.9,19.7c0,0-11,12.7-6,25.2"/>
					<path id="XMLID_15643_" class="st12" d="M44.9,240.4c0,0-15.3-1.8-19.4-3.4c-4.1-1.6-15.9-7.5-17.6-9
						c-1.8-1.6-0.1-11.2,10.4-6.5c10.5,4.7,13.4,6.8,13.9,6.8c0.5,0,12.1,1.5,13.6,2"/>
					<path id="XMLID_15642_" class="st12" d="M52.9,212.4c0,0-12.1-2.7-15.1-4.2c-7.8-3.8-12-6.7-14.8-8.9
						c-3.9-3.2-12.7,2.8-8.3,6.3c4.6,3.6,18.9,12,18.6,11.5c0,0,9.8,2.9,14.6,4.8"/>
					<path id="XMLID_15641_" class="st12" d="M45.7,233c0,0-15.6-4.7-19.4-6.9c-3.8-2.2-14.4-10.1-15.9-11.9
						c-1.5-1.9,1-10.9,10.5-4.5c9.6,6.4,12.8,8.8,13.4,8.9c2.2,0.3,12,3.3,13.4,3.6"/>
					<path id="XMLID_15622_" class="st12" d="M68.2,242.9c-5.3-2.4-16-3.6-19.9-2.3c0,0-6.9-2.6-8.6-5.1c-1.6-2.5-2.6-6.5-2.9-10.1
						c-0.6-5.5-8.8-13.7-8-2.8c0.8,11-0.6,11.5,1.9,15.9c2.5,4.4,10.2,13.2,12.6,16.9c2.3,3.7,21,3.3,25.7,0.6"/>
					<path id="XMLID_15620_" class="st13" d="M206,219.4c0,0-44.5,66.8-47.2,73c0,0-33.2-27.1-40.7-33.2c0,0-7.2,31.6-22.9,35.9
						c0,0,41,58.5,58.2,61.1s56-49.2,58.7-54.7C211.9,301.6,213.6,232.4,206,219.4z"/>
					<path id="XMLID_15617_" class="st14" d="M153.2,355.8c-17.2-2.6-58.2-61.1-58.2-61.1c4.1-1.1,7.7-3.3,10.6-7.1
						c2.8,5.6,5.3,11.3,12.8,17.9c12.3,11,27.4,34.3,35.6,34.3s35-35,48-48c3-3,6.1-6.7,9.1-10.6c0.5,11.5,0.7,19.9,0.7,19.9
						C209.2,306.7,170.4,358.4,153.2,355.8z"/>
					<path id="XMLID_15613_" class="st15" d="M244,208.4c-5.3,3.9-12.2,8.8-16.4,11.3C230.8,215.7,236.9,211.8,244,208.4z"/>
					<path id="XMLID_15612_" class="st16" d="M251.3,203l3.3,0.8c-3.6,1.4-7.3,3-10.7,4.6C248.2,205.4,251.3,203,251.3,203z"/>
					<path id="XMLID_10128_" d="M207.8,424.3c-0.3-5.8-0.2,2.1,0-6.3c0.3,0.8,0.7-13.7,1-12.9c0,0.1,0.1,0.1,0.1,0.1
						c0.4,22.2,14.6,29.9,33,32.2c-0.6,18.3-0.4,34.5-1,44.6c-2,37.2,4.2,92.4,3.7,90.9c-14.9,9.9-46.5,6.6-44.9-8.1
						C201.2,550.2,209.8,467.1,207.8,424.3z"/>
					<path id="XMLID_10127_" class="st17" d="M204.6,417.6c0.4-28,14-181.5,21.7-196c0.4-0.7,0.8-1.3,1.3-2
						c4.2-2.5,11.1-7.4,16.4-11.2c3.4-1.7,7.1-3.2,10.7-4.6l7.1,1.6c-5.9,17.1-21.2,91.9-20.1,138.1c0.7,28.9,1.6,62.6,0.5,92.8
						C221.4,433.9,204.3,440.8,204.6,417.6z"/>
					<g id="XMLID_10099_">
						<path id="XMLID_10126_" class="st18" d="M213.9,442.1c0,0,93.1-2.6,96.4-2.9c3.3-0.3,4.1-9.9,1.4-11.1
							c-2.7-1.2-95.9,0.1-98,0.2C211.6,428.6,207,442,213.9,442.1z"/>
						<path id="XMLID_10125_" class="st19" d="M275.4,442.2c0,0,3.7-15.5,0.4-15.7c-3.3-0.2-20.6-2-21.8,0c-1.1,2,0.2,17.2,1,17.3
							C255.8,443.9,273.7,445.2,275.4,442.2z"/>
						<path id="XMLID_10107_" class="st20" d="M273.5,439.6c0,0,2.8-11.5,0.3-11.6c-2.5-0.2-16-1.5-16.9-0.1
							c-0.9,1.4,0.2,12.8,0.8,12.8C258.3,440.7,272.2,441.7,273.5,439.6z"/>
					</g>
					<path id="XMLID_9897_" class="st21" d="M252.4,195.4c0,0-37.7,16.6-44.4,20.4c-6.7,3.7-5.4,12.9-7.1,23.9
						c-1.7,11-3,141-0.8,183.7c2.3,42.8-7.4,121.6-9.1,136.3c-1.7,14.7,33.2,18,49.6,8.1c0,0-5.5-59.7-3.9-86.6s5.2-91,1.7-137.4
						c-3.5-46.4,14.1-121.2,20.1-138.4L252.4,195.4z"/>
					<path id="XMLID_9894_" class="st13" d="M247.1,199.6c0,0-11.7,7.2-15.4,11.6c-3.6,4.3,0.3,25.7-1.5,35.5
						c-1.7,9.8-4.7,16.6-0.5,12.8c4.2-3.7,7.9-1.5,7.9-1.5s-16.3,12-13.2,21.8c3.2,9.8,12.5,122.1,15.1,133.2
						c0.1,14.1-0.3-107.1,2-124.9c2.3-17.8,14.5-77.8,16.9-82.8C260.9,200.3,252,198.9,247.1,199.6z"/>
					<path id="XMLID_9893_" class="st21" d="M341.1,192.2c0,0,41.5,20,50,29.3c-18.8,27.6-11.3,64.6-21.2,111.2
						c-9.9,46.6-9.4,98.4-0.5,134.3c8.9,36,10,73.4,13.1,84.3c0,0-34,23-84.9,13.7c0,0-14.1-118-15.1-157.1
						c-1-39.1,24.7-159,37.3-182.4C332.6,202.2,341.1,192.2,341.1,192.2z"/>
					<path id="XMLID_9892_" class="st14" d="M317.4,565.9c6.6-0.9,8.6-1.3,15-3c10-2.6,23-28.8,29.6-37.3c0.2-0.3,0.4-0.6,0.5-1
						c0.1-0.1,0.3-0.3,0.4-0.4c9.7-9,9-15.5,1.3-33.5c-7.7-18.1-7.1-49-11.6-85.1c-4.5-36.1,7.1-67.7,8.4-79.9
						c1.3-12.3-6.9-6.4-10.7-25.1s2.3-37.4,2.3-37.4s8.4,18.1,11,29c1,4.3,5.3,10.3,10.1,16c-1.2,8.1-2.7,16.3-4.4,24.3
						c-9.9,46.6-9.4,98.4-0.5,134.3c8.9,36,7.8,73.8,11,84.8c0,0-27.4,18-69.7,15.1C311.2,566.6,316.5,566,317.4,565.9z"/>
					<path id="XMLID_9891_" class="st14" d="M348.9,206.8c4.7,9.8-16.5,54.4-13,70.7c3.4,16.3-12.4,3.4-16.4-3.1
						c0,0,3.5,20.2,9.4,24.7c5.9,4.5-35.5,36.3-41.2,121.9c0,0,9.2,118.3,20.2,144.7c-3.8,0-7.5-1.2-10.1-1.5
						c-2.1-16.9-13.6-121.3-14.5-156.3c-1-39.1,24.7-159,37.3-182.4c10-18.5,17.4-25.8,20-28.1C344.3,200.3,347.4,203.7,348.9,206.8
						z"/>
					<path id="XMLID_9890_" class="st13" d="M283.8,415.8c-3.9-21.7-5.4-101.8,11-140.6c17.1-40.5,35.4-73.3,35.9-82.2
						c0.5-8.9,9.7-1.2,14.3,8.6c4.7,9.8-16.5,54.4-13,70.7c3.4,16.3-12.4,3.4-16.4-3.1c0,0,3.5,20.2,9.4,24.7
						C330.9,298.4,289.5,330.1,283.8,415.8z"/>
					<path id="XMLID_9889_" class="st17" d="M276.5,231c0,0,13.9-19.4,26.3-27c12.5-7.6,15.6-10.4,16.6-14.9c0,0,4.9,10.4-4.5,20.5
						C305.6,219.6,302.1,211.3,276.5,231z"/>
					<path id="XMLID_9888_" class="st11" d="M318.4,170.3c1.6,8.3,1.3,13.3-0.8,18.9c-2.1,5.5-2.7,9.6-5.1,11.6
						c-2.4,2.1,0,6.2,2.1,7.3c2.1,1,8.7,15.3,9,26c0.3,10.7,9-9,14.9-17c5.9-8,8.7-15.6,6.6-23.6c-2.1-8-13.9-14.6-18.7-22.5
						C321.5,163.1,318.4,170.3,318.4,170.3z"/>
					<path id="XMLID_9887_" class="st17" d="M271.3,177.3c1.3,1.6-3.3,32.6,5.2,53.7c0,0-14.9-20.8-16.6-28.1
						c-1.7-7.3,5.9-23.2,8.3-28.4C270.6,169.3,271.3,177.3,271.3,177.3z"/>
					<path id="XMLID_9886_" class="st11" d="M248.4,189.4c-3.8,3.6,0.7,17.3-2.8,30.2c0,0,8.7-16.6,14.2-16.6c0,0,0-9,3.8-16.3
						c3.8-7.3,4.5-12.1,4.5-12.1S255,183.2,248.4,189.4z"/>
					<path id="XMLID_9885_" class="st22" d="M294,179.9c1.6-3,15.4-15,23.5-28.5c0.3-6.8,0.9-13.6,2-20.6L271,172.4
						c0,0,0.9,3.6,1.5,10.4C281,183.4,292.4,182.8,294,179.9z"/>
					<path id="XMLID_9869_" class="st23" d="M291.9,22.4c-12.2-0.5-36.7-0.5-38.5,16.4c-1.9,16.9-6.1,47.5-12.7,55.9
						c-6.6,8.5-7,21.6-0.9,32c6.1,10.3,13.6,26.8,15,33.4c1.4,6.6-0.5,14.6,5.2,16.4c5.6,1.9,27.3,2.4,29.6-1.9s29.1-25.8,31.5-45.1
						c2.3-19.3,21.1-74.7,9.4-89.3C318.7,25.7,303.7,22.9,291.9,22.4z"/>
					<path id="XMLID_9868_" class="st22" d="M330.5,40.2c-11.7-14.6-26.8-17.4-38.5-17.9C281.7,22,263,21.9,256,31.7
						c5.9,0.7,10.7-3.5,20.2-4.2c10.4-0.8,14.6,10.2,26.1,10.4c11.5,0.3,10.7,6.3,13.3,11.2c2.6,5-5.2,8.6-7.8,12.8
						s1.8,6.5,7.8,12.5c6,6,4.2,18.3,3.7,25.3c-0.5,7.1-2.3,10.6-2.3,10.6l7.3-2.5C330,83.4,339.7,51.7,330.5,40.2z"/>
					<path id="XMLID_9596_" class="st24" d="M327.5,101.4"/>
					<path id="XMLID_8328_" class="st24" d="M321.2,129.5"/>
					<g id="XMLID_1398_">
						<path id="XMLID_8324_" class="st25" d="M305.8,87.6c0.7,0.8-0.3,9.5-8.7,9.4c-8.3-0.2-14.9-2.2-15.8-9.1
							C280.8,85.2,296,82.8,305.8,87.6z"/>
						<path id="XMLID_8252_" class="st26" d="M305.9,88.3c0.9,0.5-0.4,10-8.9,10.1c-9.6,0.2-15.5-3.7-15.7-9.2
							C280.9,86.4,296.4,84.5,305.9,88.3z"/>
						<g id="XMLID_2037_">
							<g id="XMLID_7623_">
								<defs>
									<path id="XMLID_16058_" d="M305.9,88.2c0.8,0.4-0.5,10.2-8.9,10.1c-3.2,0-15.3,0.2-15.7-9.2
										C280.9,86.3,296.4,84.4,305.9,88.2z"/>
								</defs>
								<defs>
									<path id="XMLID_16055_" d="M305.9,88.2c0.8,0.4-0.5,10.2-8.9,10.1c-3.2,0-15.3,0.2-15.7-9.2
										C280.9,86.3,296.4,84.4,305.9,88.2z"/>
								</defs>
								<defs>
									<path id="XMLID_16053_" d="M305.9,88.2c0.8,0.4-0.5,10.2-8.9,10.1c-3.2,0-15.3,0.2-15.7-9.2
										C280.9,86.3,296.4,84.4,305.9,88.2z"/>
								</defs>
								<clipPath id="XMLID_55_">
									<use xlink:href="#XMLID_16058_"  style="overflow:visible;"/>
								</clipPath>
								<clipPath id="XMLID_56_" class="st27">
									<use xlink:href="#XMLID_16055_"  style="overflow:visible;"/>
								</clipPath>
								<clipPath id="XMLID_57_" class="st28">
									<use xlink:href="#XMLID_16053_"  style="overflow:visible;"/>
								</clipPath>
								<circle id="XMLID_7626_" class="st29" cx="291" cy="91.3" r="6.7"/>
								<circle id="XMLID_7625_" class="st30" cx="290.1" cy="91.3" r="3.4"/>
								<circle id="XMLID_7624_" class="st31" cx="287.1" cy="90.1" r="1.7"/>
							</g>
							<path id="XMLID_7622_" class="st25" d="M247.2,83.2c-1,0.5-2,8.5,5.9,9.6c7.6,1.1,14.5,2.4,16.5-6
								C269.5,84.2,255.1,78.4,247.2,83.2z"/>
							<path id="XMLID_7621_" class="st26" d="M246.9,83.8c-0.9,0.3-1.5,9.6,6.4,10.6c7.7,0.9,15.1-1.3,16-6.3
								C270.1,85.6,256.1,81.7,246.9,83.8z"/>
							<g id="XMLID_7607_">
								<g id="XMLID_7608_">
									<defs>
										<path id="XMLID_15999_" d="M246.9,83.8c0,0-1.3,9.5,6.4,10.6c7.6,1.1,15.1-1.3,16-6.3C270.1,85.6,256.1,81.7,246.9,83.8z"
											/>
									</defs>
									<defs>
										<path id="XMLID_15997_" d="M246.9,83.8c0,0-1.3,9.5,6.4,10.6c7.6,1.1,15.1-1.3,16-6.3C270.1,85.6,256.1,81.7,246.9,83.8z"
											/>
									</defs>
									<defs>
										<path id="XMLID_15995_" d="M246.9,83.8c0,0-1.3,9.5,6.4,10.6c7.6,1.1,15.1-1.3,16-6.3C270.1,85.6,256.1,81.7,246.9,83.8z"
											/>
									</defs>
									<clipPath id="XMLID_58_">
										<use xlink:href="#XMLID_15999_"  style="overflow:visible;"/>
									</clipPath>
									<clipPath id="XMLID_59_" class="st32">
										<use xlink:href="#XMLID_15997_"  style="overflow:visible;"/>
									</clipPath>
									<clipPath id="XMLID_60_" class="st33">
										<use xlink:href="#XMLID_15995_"  style="overflow:visible;"/>
									</clipPath>
									<circle id="XMLID_7620_" class="st34" cx="256.1" cy="89" r="6.2"/>
									<circle id="XMLID_7616_" class="st35" cx="255.1" cy="89" r="3.2"/>
									<circle id="XMLID_7615_" class="st36" cx="252.9" cy="87.2" r="1.6"/>
								</g>
							</g>
							<path id="XMLID_7606_" class="st37" d="M340.3,100L326,111.8l-8.9-1.3c0,0,2.9-4.7,3.4-11.8c0.5-7.1,2.4-19.3-3.7-25.3
								c-6-6-10.4-8.4-7.8-12.5s10.4-7.8,7.8-12.8c-2.6-5-1.8-11-13.3-11.2c-11.5-0.3-15.7-11.2-26.1-10.4
								c-10.4,0.8-15.2,5.7-21.9,3.9c-6.8-1.8-7.1-12,2.9-14.4c9.9-2.4,24.8-9.1,35.8-6.8s15.2,7.1,26.4,6.8
								c11.2-0.3,26.4,7.3,30.3,17.8c3.9,10.4-1,20.6-4.7,26.4C342.4,65.8,345.8,90.9,340.3,100z"/>
							<path id="XMLID_7605_" class="st38" d="M271.5,74.5c-0.5-2.7-3.3-4.3-9.2-4.6c-10.2-0.6-14.4,5-13.8,5.5
								c0.6,0.5,1.5,1.1,4.6,0.3c3.1-0.8,9-2.3,12.2-0.8C268.5,76.6,272,77.2,271.5,74.5z"/>
							<path id="XMLID_7604_" class="st39" d="M282.3,76c0.8-2.6,1.9-5.2,12-4.2c10.2,1,14.4,7.6,13.8,8.1c-0.6,0.5-1.6,1-4.6-0.2
								c-3-1.1-11.7-3.8-15.1-2.6C285.1,78.2,281.6,78.5,282.3,76z"/>
							<g id="XMLID_7573_">
								<g id="XMLID_7576_">
									<path id="XMLID_7603_" class="st40" d="M414.9,514.9c0-0.6-0.1-1.2-0.2-1.9c-1.6-8.9-3.2-15.8-3-21.2
										c0.3-5.4-0.6-12-0.6-12l-26.3,1.5c0,0,1.3,5.1-4.4,14.6c-3.6,3.8-11.8,4.3-14.1,8.9c-2.6,5.4-2.5,8.7-13,19.1
										c-7.9,7.9,8.4,7.8,14.6-0.4c1.9-2.5,3.8-4.4,5.1-5.6c0.1,1.3,0.3,2.6,0.6,3.9l-0.1,0c0,0-0.7,15.6-1.9,19.1
										c-1.2,3.6-7.4,9.6-9.6,13.5s-2.1,14,1.2,11.6c6.2-4.6,15.1-15.2,18.4-17.3c2.5-1.6,3.3-10.1,4-17c0.2,0,0.3,0,0.5,0
										c-0.2,4.5-0.5,10-0.7,11.2c-0.5,3.5-7.1,11-8.5,15c-1.4,4,0.5,13.4,3.1,10.5c2.9-3.1,6.9-8.5,10.3-13
										c-0.4,4.7,1.3,11.3,3.7,8.8c3.2-3.4,6.5-8.9,9-13.4c0.1,3.9,3.1,10.4,4.7,7.6c3.3-5.6,8.2-17.7,10.1-20.3
										C418.9,536.8,416.5,522.8,414.9,514.9z M398,538.3c-0.1,0.5-0.2,1.1-0.5,1.7c0.2-3.5,0.2-7.6,0.2-11.2
										c0.1,0,0.1-0.1,0.2-0.1C398.2,532.1,398.3,536.2,398,538.3z"/>
									<path id="XMLID_7602_" class="st41" d="M409.5,479.9c0,0,0.9,6.3,0.6,11.7c-0.3,5.4,1.4,12.6,3,21.5
										c1.6,8.9-5.2,9.9-16.4,15.5c-11.2,5.6-22.1,4.4-24-3.7c-1.9-8.1-3-15,4.5-26.3c7.5-11.2,6-17.2,6-17.2L409.5,479.9z"/>
									<path id="XMLID_7598_" class="st41" d="M380.1,494c-2.4,5.6-12.8,5.5-15.4,10.9c-2.6,5.4-2.5,8.7-13,19.1
										c-7.9,7.9,8.4,7.8,14.6-0.4c3-4,6.4-6.7,6.4-6.7"/>
									<path id="XMLID_7597_" class="st42" d="M334.9,538.5l12.4,56.7c0.7,3.1,3.9,5,6.9,4l94.2-29.9c2.7-0.8,4.2-3.6,3.6-6.3
										l-10.6-48.9c-0.6-2.9-3.6-4.8-6.5-4.1l-96.1,22C336.1,532.7,334.3,535.6,334.9,538.5z"/>
									<path id="XMLID_7590_" class="st43" d="M332,537.6l12.4,56.7c0.7,3.1,3.9,5,6.9,4l94.2-29.9c2.7-0.8,4.2-3.6,3.6-6.3
										l-10.6-48.9c-0.6-2.9-3.6-4.8-6.5-4.1l-96.1,22C333.2,531.8,331.3,534.7,332,537.6z"/>
									<path id="XMLID_7589_" class="st40" d="M414.9,514.9c0-0.5-0.1-0.9-0.1-1.5c-14,1.1-28,4-41.1,8.7
										c-0.1,1.7-0.8,15.6-1.8,19c-1.2,3.6-7.4,9.6-9.6,13.5c-2.2,3.9-2.1,14,1.2,11.6c6.2-4.6,15.1-15.2,18.4-17.3
										c2.5-1.6,3.3-10.1,4-17c0.2,0,0.3,0,0.5,0c-0.2,4.5-0.5,10-0.7,11.2c-0.5,3.5-7.1,11-8.5,15c-1.4,4,0.5,13.4,3.1,10.5
										c2.9-3.1,6.9-8.5,10.3-13c-0.4,4.7,1.3,11.3,3.7,8.8c3.2-3.4,6.5-8.9,9-13.4c0.1,3.9,3.1,10.4,4.7,7.6
										c3.3-5.6,8.2-17.7,10.1-20.3C418.9,536.8,416.5,522.8,414.9,514.9z M398,538.3c-0.1,0.5-0.2,1.1-0.5,1.7
										c0.2-3.5,0.2-7.6,0.2-11.2c0.1,0,0.1-0.1,0.2-0.1C398.2,532.1,398.3,536.2,398,538.3z"/>
									<path id="XMLID_7588_" class="st44" d="M409.2,480.4c0,0,0.7,6.1,0.5,11.4c-0.3,5.3,1.4,12.5,3,21.1
										c1.6,8.7-5.1,9.7-16.1,15.2c-11,5.5-21.7,4.3-23.5-3.7c-1.8-7.9-2.9-14.7,4.4-25.7c7.4-11,6.4-16.7,6.4-16.7L409.2,480.4z"
										/>
									<path id="XMLID_7584_" class="st41" d="M412.7,512.1c1.4,6.6,4.7,24.6,3.5,26.2c-1.9,2.7-6.8,14.8-10.1,20.3
										c-1.7,3-5.1-4.8-4.7-8.5c0.5-3.8,4.8-11.5,4.6-14.6c-0.3-3.1-0.6-10.6-0.6-10.6"/>
									<path id="XMLID_7582_" class="st41" d="M406.7,522.5c0,8.7,0.7,18.8-1.4,21.8c-2.2,3.2-7.7,14.6-13,20.2
										c-2.8,3-4.7-6.9-3.2-11.2c1.5-4.2,6.7-11.2,7.2-15c0.4-2.6,0-8.5-0.2-12"/>
									<path id="XMLID_7581_" class="st41" d="M396.1,525.1c0.1,8,0.1,21.8-1.7,23.5c-2.7,2.5-11,14.7-16,20
										c-2.6,2.8-4.5-6.5-3.1-10.5c1.4-4,8.1-11.5,8.5-15c0.2-1.8,0.9-13.7,0.8-16.7"/>
									<path id="XMLID_7580_" class="st41" d="M384.6,526.4c-0.9,6.8-1.2,20.4-4.5,22.5c-3.3,2.1-12.2,12.7-18.4,17.3
										c-3.3,2.5-3.4-7.6-1.2-11.6c2.2-3.9,8.5-9.9,9.6-13.5c1.2-3.6,1.8-19.1,1.8-19.1"/>
								</g>
								<path id="XMLID_7574_" class="st21" d="M393.7,224.7c0,0,5.4,13,10,36c4.6,23,5.4,106.5,8.4,128c3.1,21.5,8.7,62.1,2.6,91.9
									c-1.4,9.7-33.1,5.8-37.1,1.4c0,0-6.1-65.8-9.9-96.5c-3.8-30.7-19.2-101.2-16.1-121.1C354.6,244.6,379.1,212.4,393.7,224.7z"
									/>
							</g>
							<path id="XMLID_7571_" class="st45" d="M321.4,124.7c-2.3,19.3-37.2,45-39.5,49.2c-1.1,1.9-6.2,3.6-12.1,3.8
								c8.2,0.4,17.8-0.2,19.3-3c2.3-4.2,29.6-26.7,31.9-46c0.4-3,1.1-6.8,2.1-11.3C322.3,120.3,321.7,122.7,321.4,124.7z"/>
							<path id="XMLID_7366_" class="st46" d="M324.1,100.3c6.7-7.8,17.6-11.2,19.5-1.9c2,9.2-3.4,16-9.1,19.9
								c-5.7,4-0.1,16.1-7.6,16.5c-7.5,0.3-6.9-6.3-6.9-6.3"/>
							<path id="XMLID_2068_" class="st46" d="M332.6,101.2c4.8-2.7,8.1,5.6,1,10c-7.1,4.4-8.1,7.5-8.1,10.8"/>
							<g id="XMLID_2038_">
								<path id="XMLID_2053_" class="st46" d="M271.8,89.6c-1.6,2.9-5.1,16.7-5.3,19.2c-4.2,0.8-6.9,10.7-5.5,13.2
									c1.4,2.4,7.2,2,10.9,2.3"/>
							</g>
						</g>
						<g id="XMLID_1429_">
							<path id="XMLID_2022_" class="st21" d="M323.2,451.2l-4,22.7c0,0,45.5,3.5,47.2,2c1.7-1.5,4-25.3,0-26.3
								C362.4,448.7,326.1,446.1,323.2,451.2z"/>
						</g>
						<g id="XMLID_1402_">
							<path id="XMLID_1420_" class="st21" d="M233.9,447.3l-1.7,31.3c0,0-29.6-4-34.6-4c-5.1,0,2.5-28.3,2.5-28.3
								S232.2,445.3,233.9,447.3z"/>
						</g>
					</g>
				</g>
				<path id="XMLID_1300_" class="st47" d="M266.3,141.6c3.4,0.4,7.2,0.4,10.8-0.6c10.6-2.7,14.1-6.7,14.3-6.8
					c0.1-0.2,0.1-0.4-0.1-0.6c-0.2-0.1-0.5-0.1-0.6,0.1c0,0-3.6,4-13.8,6.6c-10.3,2.6-21.9-2.3-22-2.3c-0.2-0.1-0.5,0-0.6,0.2
					c-0.1,0.2,0,0.4,0.2,0.5C254.7,138.7,259.8,140.9,266.3,141.6z"/>
				<path id="XMLID_1295_" class="st47" d="M292.7,137.9c0.2,0,0.4,0.2,0.4,0c0.7-4.7-5.6-7-5.8-7.1c-0.2-0.1-0.5,0.1-0.6,0.3
					c-0.1,0.2,0,0.5,0.2,0.6c0.1,0,5.9,2,5.3,6.1C292.2,138,292.4,137.9,292.7,137.9L292.7,137.9z"/>
			</g>
		</g>
	</g>
</g>
</svg>
