<?xml version="1.0" encoding="utf-8"?>
<!-- Generator: Adobe Illustrator 19.0.0, SVG Export Plug-In . SVG Version: 6.00 Build 0)  -->
<svg version="1.1" id="Capa_1" xmlns="http://www.w3.org/2000/svg" xmlns:xlink="http://www.w3.org/1999/xlink" x="0px" y="0px"
	 viewBox="0 0 198.8 88.9" style="enable-background:new 0 0 198.8 88.9;" xml:space="preserve">
<style type="text/css">
	.st0{fill:#F9D523;}
	.st1{fill:#FFFFFF;}
	.st2{fill:#E8A91C;}
</style>
<g id="XMLID_2443_">
	<g id="XMLID_2501_">
		<polygon id="XMLID_7466_" class="st0" points="167.3,35.1 156,41.5 156,88.9 191.2,68.5 191.2,55.4 167.3,69.2 		"/>
		<polygon id="XMLID_7453_" class="st0" points="137.1,51.3 132.6,29.3 118.9,21.5 118.9,68.5 127.4,73.4 127.4,49.3 132.9,76.6 
			137.7,79.4 144.4,58.5 144.4,83.3 154.1,88.9 154.1,41.5 141.4,34.3 		"/>
		<polygon id="XMLID_7430_" class="st0" points="192.8,64.1 193.8,64.1 193.8,66.8 194.4,66.8 194.4,64.1 195.3,64.1 195.3,63.6 
			192.8,63.6 		"/>
		<polygon id="XMLID_7377_" class="st0" points="197.8,63.6 197.2,65.8 196.7,63.6 195.7,63.6 195.7,66.8 196.3,66.8 196.3,64.3 
			196.9,66.8 197.5,66.8 198.2,64.3 198.2,66.8 198.8,66.8 198.8,63.6 		"/>
		<path id="XMLID_7375_" class="st0" d="M178.3,12.7L156,0l-10.7,6.1l20.4,11.8c0,0,6.6,3.1,0,7.2c-6.9,4.3-12.5,0.4-12.5,0.4
			l-20.7-12.1l-12,6.8l20.7,12.3c0,0,13.6,8.4,29.4-1.3C190.7,18.9,178.3,12.7,178.3,12.7z"/>
	</g>
	<g id="XMLID_1_">
		<path id="XMLID_2_" class="st1" d="M18.8,25.7V34h-1.9v-8.3H18.8z"/>
		<path id="XMLID_4_" class="st1" d="M22.3,25.7l4,5.3v-5.3h1.8V34h-1.7l-4-5.3V34h-1.8v-8.3H22.3z"/>
		<path id="XMLID_6_" class="st1" d="M36,25.7v1.6h-2.5V34h-1.9v-6.7h-2.5v-1.6H36z"/>
		<path id="XMLID_8_" class="st1" d="M42.1,34l-1.3-2.4h-0.2h-1.7V34H37v-8.3h3.6c2.2,0,3.4,1,3.4,2.9c0,1.3-0.5,2.2-1.5,2.7
			l1.8,2.7H42.1z M38.9,30.1h1.7c1,0,1.6-0.5,1.6-1.4c0-0.9-0.6-1.4-1.6-1.4h-1.7V30.1z"/>
		<path id="XMLID_11_" class="st1" d="M53.9,29.8c0,2.4-1.9,4.2-4.4,4.2c-2.5,0-4.4-1.8-4.4-4.2c0-2.4,1.9-4.2,4.4-4.2
			C52,25.6,53.9,27.4,53.9,29.8z M46.9,29.8c0,1.5,1.2,2.6,2.6,2.6s2.5-1.1,2.5-2.6s-1.1-2.6-2.5-2.6C48.1,27.3,46.9,28.4,46.9,29.8
			z"/>
		<path id="XMLID_14_" class="st1" d="M63,29.8c0,2.4-1.8,4.1-4.4,4.1h-3.4v-8.3h3.5C61.2,25.7,63,27.4,63,29.8z M61.1,29.9
			c0-1.5-1.1-2.6-2.5-2.6H57v5.1h1.7C60,32.4,61.1,31.4,61.1,29.9z"/>
		<path id="XMLID_17_" class="st1" d="M67.8,32.4c1.1,0,1.8-0.7,1.8-1.9v-4.8h1.9v4.8c0,2.2-1.4,3.5-3.7,3.5c-2.3,0-3.8-1.4-3.8-3.5
			v-4.8h1.9v4.8C65.9,31.7,66.7,32.4,67.8,32.4z"/>
		<path id="XMLID_20_" class="st1" d="M77,27.3c-1.4,0-2.5,1.1-2.5,2.5s1.1,2.6,2.5,2.6c0.7,0,1.6-0.4,2.1-1l1.1,1.2
			c-0.9,0.9-2.1,1.5-3.3,1.5c-2.5,0-4.3-1.8-4.3-4.2c0-2.4,1.9-4.2,4.4-4.2c1.2,0,2.4,0.5,3.3,1.4l-1.1,1.3
			C78.6,27.7,77.8,27.3,77,27.3z"/>
		<path id="XMLID_22_" class="st1" d="M85,27.3c-1.4,0-2.5,1.1-2.5,2.5s1.1,2.6,2.5,2.6c0.7,0,1.6-0.4,2.2-1l1.1,1.2
			c-0.9,0.9-2.1,1.5-3.3,1.5c-2.5,0-4.3-1.8-4.3-4.2c0-2.4,1.9-4.2,4.4-4.2c1.2,0,2.4,0.5,3.3,1.4l-1.1,1.3
			C86.6,27.7,85.8,27.3,85,27.3z"/>
		<path id="XMLID_24_" class="st1" d="M91.3,25.7V34h-1.9v-8.3H91.3z"/>
		<path id="XMLID_26_" class="st1" d="M101.4,29.8c0,2.4-1.9,4.2-4.4,4.2c-2.5,0-4.4-1.8-4.4-4.2c0-2.4,1.9-4.2,4.4-4.2
			C99.5,25.6,101.4,27.4,101.4,29.8z M94.4,29.8c0,1.5,1.2,2.6,2.6,2.6s2.5-1.1,2.5-2.6s-1.1-2.6-2.5-2.6
			C95.6,27.3,94.4,28.4,94.4,29.8z M98.9,23.7L97.4,25h-1.4l1.3-1.9L98.9,23.7z"/>
		<path id="XMLID_30_" class="st1" d="M104.3,25.7l4,5.3v-5.3h1.8V34h-1.7l-4-5.3V34h-1.8v-8.3H104.3z"/>
		<path id="XMLID_32_" class="st1" d="M13.6,46.5H9.7l-0.6,1.6H7.2l3.6-8.3h1.9l3.5,8.3h-2L13.6,46.5z M13,45l-1.3-3.2L10.3,45H13z"
			/>
		<path id="XMLID_35_" class="st1" d="M18.9,39.9v6.6h3.5v1.6h-5.4v-8.3H18.9z"/>
		<path id="XMLID_37_" class="st1" d="M29,39.9v6.6h3.5v1.6h-5.4v-8.3H29z"/>
		<path id="XMLID_39_" class="st1" d="M39.9,39.9v1.5h-4.4v1.8h4v1.5h-4v1.8h4.6v1.5h-6.4v-8.3H39.9z"/>
		<path id="XMLID_41_" class="st1" d="M43.2,39.9l4,5.3v-5.3H49v8.3h-1.7l-4-5.3v5.3h-1.8v-8.3H43.2z"/>
		<path id="XMLID_43_" class="st1" d="M56.4,44H58v3.2c-0.9,0.6-2.2,1.1-3.4,1.1c-2.5,0-4.4-1.8-4.4-4.2c0-2.4,1.9-4.2,4.5-4.2
			c1.2,0,2.5,0.5,3.3,1.2L57,42.4c-0.6-0.6-1.5-0.9-2.3-0.9c-1.5,0-2.6,1.1-2.6,2.6c0,1.5,1.1,2.6,2.6,2.6c0.5,0,1.1-0.2,1.6-0.4V44
			z"/>
		<path id="XMLID_45_" class="st1" d="M63.2,46.6c1.1,0,1.8-0.7,1.8-1.9v-4.8h1.9v4.8c0,2.2-1.4,3.5-3.7,3.5c-2.3,0-3.8-1.4-3.8-3.5
			v-4.8h1.9v4.8C61.3,45.9,62.1,46.6,63.2,46.6z"/>
		<path id="XMLID_47_" class="st1" d="M73.8,46.5H70l-0.6,1.6h-1.9l3.6-8.3h1.9l3.5,8.3h-2L73.8,46.5z M73.2,45l-1.3-3.2L70.6,45
			H73.2z"/>
		<path id="XMLID_50_" class="st1" d="M79.1,48.2c-1.1,0-2-0.5-2.7-1.3l0.9-1.3c0.6,0.6,1.2,0.9,1.7,0.9c0.6,0,1-0.4,1-1.1v-4h-2.8
			v-1.6h4.7v5.6C81.9,47.2,80.8,48.2,79.1,48.2z"/>
		<path id="XMLID_52_" class="st1" d="M89.8,39.9v1.5h-4.4v1.8h4v1.5h-4v1.8h4.6v1.5h-6.4v-8.3H89.8z"/>
		<path id="XMLID_54_" class="st1" d="M102.8,44c0,2.4-1.8,4.1-4.4,4.1h-3.4v-8.3h3.5C101,39.9,102.8,41.6,102.8,44z M100.9,44
			c0-1.5-1.1-2.6-2.5-2.6h-1.6v5.1h1.7C99.9,46.6,100.9,45.5,100.9,44z"/>
		<path id="XMLID_57_" class="st1" d="M110.3,39.9v1.5h-4.4v1.8h4v1.5h-4v1.8h4.6v1.5H104v-8.3H110.3z"/>
		<path id="XMLID_59_" class="st1" d="M13,54l2.4,5.1l2.4-5.1h2.1v8.3h-1.7v-5.6L16,61.5h-1.2l-2.2-4.7v5.6h-1.7V54H13z"/>
		<path id="XMLID_61_" class="st1" d="M30,58.2c0,2.4-1.9,4.2-4.4,4.2c-2.5,0-4.4-1.8-4.4-4.2c0-2.4,1.9-4.2,4.4-4.2
			C28.1,54,30,55.8,30,58.2z M23,58.2c0,1.5,1.2,2.6,2.6,2.6s2.5-1.1,2.5-2.6c0-1.5-1.1-2.6-2.5-2.6C24.2,55.6,23,56.7,23,58.2z"/>
		<path id="XMLID_64_" class="st1" d="M39,58.2c0,2.4-1.8,4.1-4.4,4.1h-3.4V54h3.5C37.3,54,39,55.7,39,58.2z M37.1,58.2
			c0-1.5-1.1-2.6-2.5-2.6h-1.6v5.1h1.7C36.1,60.7,37.1,59.7,37.1,58.2z"/>
		<path id="XMLID_67_" class="st1" d="M46.6,54v1.5h-4.4v1.8h4v1.5h-4v1.8h4.6v1.5h-6.4V54H46.6z"/>
		<path id="XMLID_69_" class="st1" d="M50,54v6.6h3.5v1.6h-5.4V54H50z"/>
		<path id="XMLID_71_" class="st1" d="M60.2,60.7h-3.8l-0.6,1.6h-1.9l3.6-8.3h1.9l3.5,8.3h-2L60.2,60.7z M59.6,59.2L58.3,56L57,59.2
			H59.6z"/>
		<path id="XMLID_74_" class="st1" d="M71.5,58.2c0,2.4-1.8,4.1-4.4,4.1h-3.4V54h3.5C69.8,54,71.5,55.7,71.5,58.2z M69.6,58.2
			c0-1.5-1.1-2.6-2.5-2.6h-1.6v5.1h1.7C68.6,60.7,69.6,59.7,69.6,58.2z"/>
		<path id="XMLID_77_" class="st1" d="M80.9,58.2c0,2.4-1.9,4.2-4.4,4.2S72,60.6,72,58.2c0-2.4,1.9-4.2,4.4-4.2S80.9,55.8,80.9,58.2
			z M73.9,58.2c0,1.5,1.2,2.6,2.6,2.6s2.5-1.1,2.5-2.6c0-1.5-1.1-2.6-2.5-2.6C75,55.6,73.9,56.7,73.9,58.2z"/>
		<path id="XMLID_80_" class="st1" d="M89.2,60.8c1.1,0,1.8-0.7,1.8-1.9V54h1.9v4.8c0,2.2-1.4,3.5-3.7,3.5c-2.3,0-3.8-1.4-3.8-3.5
			V54h1.9v4.8C87.3,60,88.1,60.8,89.2,60.8z"/>
		<path id="XMLID_82_" class="st1" d="M96.7,54l2.4,5.1l2.4-5.1h2.1v8.3h-1.7v-5.6l-2.2,4.7h-1.2l-2.2-4.7v5.6h-1.7V54H96.7z"/>
		<path id="XMLID_84_" class="st1" d="M107.3,54v6.6h3.5v1.6h-5.4V54H107.3z"/>
	</g>
	<g id="XMLID_2445_">
		<polygon id="XMLID_2447_" class="st2" points="13.8,29.8 0,37.7 0,21.8 		"/>
		<polygon id="XMLID_2446_" class="st0" points="8.2,33 0,37.7 0,28.3 		"/>
	</g>
</g>
</svg>
