<?xml version="1.0" encoding="utf-8"?>
<!-- Generator: Adobe Illustrator 19.0.0, SVG Export Plug-In . SVG Version: 6.00 Build 0)  -->
<svg version="1.1" id="Capa_1" xmlns="http://www.w3.org/2000/svg" xmlns:xlink="http://www.w3.org/1999/xlink" x="0px" y="0px"
	 viewBox="0 0 489.5 64.1" style="enable-background:new 0 0 489.5 64.1;" xml:space="preserve">
<style type="text/css">
	.st0{fill:#FFFFFF;}
	.st1{fill:#E8A91C;}
	.st2{fill:#F9D523;}
</style>
<g id="XMLID_1_">
	<g id="XMLID_580_">
		<path id="XMLID_643_" class="st0" d="M35.7,6.8v21h-4.7v-21H35.7z"/>
		<path id="XMLID_7530_" class="st0" d="M44.6,6.8l10.2,13.5V6.8h4.5v21H55L44.9,14.4v13.5h-4.5v-21H44.6z"/>
		<path id="XMLID_7674_" class="st0" d="M79.5,6.8v4h-6.4v17h-4.7v-17h-6.4v-4H79.5z"/>
		<path id="XMLID_7677_" class="st0" d="M94.9,27.8l-3.3-6h-0.5h-4.4v6H82v-21h9.1c5.5,0,8.6,2.6,8.6,7.3c0,3.2-1.4,5.6-3.9,6.8
			l4.5,6.9H94.9z M86.8,17.9h4.4c2.6,0,4.1-1.2,4.1-3.6c0-2.3-1.5-3.5-4.1-3.5h-4.4V17.9z"/>
		<path id="XMLID_12133_" class="st0" d="M124.8,17.3c0,6.1-4.9,10.7-11.3,10.7c-6.4,0-11.3-4.6-11.3-10.7c0-6.1,4.9-10.7,11.3-10.7
			C120,6.7,124.8,11.2,124.8,17.3z M107.1,17.3c0,3.7,3,6.6,6.5,6.6c3.5,0,6.4-2.9,6.4-6.6s-2.9-6.5-6.4-6.5
			C110.1,10.8,107.1,13.6,107.1,17.3z"/>
		<path id="XMLID_12136_" class="st0" d="M147.9,17.3c0,6.2-4.6,10.5-11.2,10.5H128v-21h8.9C143.4,6.8,147.9,11.1,147.9,17.3z
			 M143.1,17.4c0-3.9-2.7-6.5-6.3-6.5h-4.1v13h4.3C140.5,23.8,143.1,21.2,143.1,17.4z"/>
		<path id="XMLID_12146_" class="st0" d="M160.2,23.9c2.8,0,4.7-1.8,4.7-4.9V6.8h4.7V19c0,5.6-3.6,9-9.4,9c-5.8,0-9.5-3.5-9.5-9V6.8
			h4.7V19C155.4,22.1,157.4,23.9,160.2,23.9z"/>
		<path id="XMLID_12151_" class="st0" d="M183.6,10.8c-3.6,0-6.4,2.8-6.4,6.5c0,3.7,2.8,6.5,6.4,6.5c1.9,0,4-1,5.5-2.5l2.8,3
			c-2.2,2.3-5.4,3.8-8.5,3.8c-6.3,0-11-4.7-11-10.8c0-6.1,4.8-10.6,11.2-10.6c3,0,6.2,1.4,8.3,3.5l-2.8,3.4
			C187.7,11.9,185.6,10.8,183.6,10.8z"/>
		<path id="XMLID_12154_" class="st0" d="M204.1,10.8c-3.6,0-6.4,2.8-6.4,6.5c0,3.7,2.8,6.5,6.4,6.5c1.9,0,4-1,5.5-2.5l2.8,3
			c-2.2,2.3-5.4,3.8-8.5,3.8c-6.3,0-11-4.7-11-10.8c0-6.1,4.8-10.6,11.2-10.6c3,0,6.2,1.4,8.3,3.5l-2.8,3.4
			C208.1,11.9,206,10.8,204.1,10.8z"/>
		<path id="XMLID_12159_" class="st0" d="M219.9,6.8v21h-4.7v-21H219.9z"/>
		<path id="XMLID_12162_" class="st0" d="M245.6,17.3c0,6.1-4.9,10.7-11.3,10.7c-6.4,0-11.3-4.6-11.3-10.7c0-6.1,4.9-10.7,11.3-10.7
			C240.8,6.7,245.6,11.2,245.6,17.3z M227.9,17.3c0,3.7,3,6.6,6.5,6.6c3.5,0,6.4-2.9,6.4-6.6s-2.9-6.5-6.4-6.5
			C230.9,10.8,227.9,13.6,227.9,17.3z M239.2,1.6l-3.8,3.3h-3.7l3.2-4.9L239.2,1.6z"/>
		<path id="XMLID_12170_" class="st0" d="M253.1,6.8l10.2,13.5V6.8h4.5v21h-4.3l-10.2-13.5v13.5h-4.5v-21H253.1z"/>
		<path id="XMLID_12175_" class="st0" d="M295.3,23.8h-9.7l-1.7,4.1H279l9.1-21h4.9l9,21H297L295.3,23.8z M293.8,19.9l-3.3-8.2
			l-3.3,8.2H293.8z"/>
		<path id="XMLID_12178_" class="st0" d="M309,6.8v16.9h9v4.1h-13.8v-21H309z"/>
		<path id="XMLID_12180_" class="st0" d="M334.5,6.8v16.9h9v4.1h-13.8v-21H334.5z"/>
		<path id="XMLID_12184_" class="st0" d="M362.4,6.8v3.9h-11.3v4.6h10.1v3.9h-10.1v4.7h11.6v3.9h-16.3v-21H362.4z"/>
		<path id="XMLID_12194_" class="st0" d="M370.8,6.8L381,20.3V6.8h4.5v21h-4.3L371,14.4v13.5h-4.5v-21H370.8z"/>
		<path id="XMLID_12196_" class="st0" d="M404.2,17.2h4.1v8.1c-2.2,1.6-5.6,2.7-8.5,2.7c-6.4,0-11.2-4.6-11.2-10.7
			c0-6.1,4.9-10.7,11.5-10.7c3.1,0,6.3,1.2,8.4,3.1l-2.7,3.4c-1.6-1.4-3.7-2.3-5.8-2.3c-3.7,0-6.6,2.9-6.6,6.5
			c0,3.7,2.9,6.6,6.6,6.6c1.3,0,2.8-0.5,4.1-1.1V17.2z"/>
		<path id="XMLID_12198_" class="st0" d="M421.6,23.9c2.8,0,4.7-1.8,4.7-4.9V6.8h4.7V19c0,5.6-3.6,9-9.4,9c-5.8,0-9.5-3.5-9.5-9V6.8
			h4.7V19C416.8,22.1,418.8,23.9,421.6,23.9z"/>
		<path id="XMLID_12202_" class="st0" d="M448.6,23.8h-9.7l-1.7,4.1h-4.9l9.1-21h4.9l9,21h-5.1L448.6,23.8z M447,19.9l-3.3-8.2
			l-3.3,8.2H447z"/>
		<path id="XMLID_12212_" class="st0" d="M461.9,28c-2.8,0-5.1-1.2-6.9-3.3l2.2-3.4c1.5,1.6,3.2,2.3,4.4,2.3c1.6,0,2.5-1,2.5-2.8
			V10.8H457v-4h12v14.3C469,25.5,466.3,28,461.9,28z"/>
		<path id="XMLID_12214_" class="st0" d="M489.2,6.8v3.9h-11.3v4.6h10.1v3.9h-10.1v4.7h11.6v3.9h-16.3v-21H489.2z"/>
		<path id="XMLID_12216_" class="st0" d="M127.5,53.4c0,6.2-4.6,10.5-11.2,10.5h-8.7v-21h8.9C123,42.8,127.5,47.1,127.5,53.4z
			 M122.7,53.4c0-3.9-2.7-6.5-6.3-6.5h-4.1v13h4.3C120.1,59.9,122.7,57.2,122.7,53.4z"/>
		<path id="XMLID_12219_" class="st0" d="M146.6,42.8v3.9h-11.3v4.6h10.1v3.9h-10.1v4.7H147v3.9h-16.3v-21H146.6z"/>
		<path id="XMLID_12221_" class="st0" d="M165,42.8l6.1,12.9l6.1-12.9h5.3v21h-4.3V49.7l-5.6,12h-3.1l-5.6-12v14.2h-4.3v-21H165z"/>
		<path id="XMLID_12223_" class="st0" d="M208.3,53.4c0,6.1-4.9,10.7-11.3,10.7c-6.4,0-11.3-4.6-11.3-10.7c0-6.1,4.9-10.7,11.3-10.7
			C203.4,42.7,208.3,47.3,208.3,53.4z M190.5,53.4c0,3.7,3,6.6,6.5,6.6c3.5,0,6.4-2.9,6.4-6.6s-2.9-6.5-6.4-6.5
			C193.5,46.8,190.5,49.7,190.5,53.4z"/>
		<path id="XMLID_12226_" class="st0" d="M231.3,53.4c0,6.2-4.6,10.5-11.2,10.5h-8.7v-21h8.9C226.8,42.8,231.3,47.1,231.3,53.4z
			 M226.5,53.4c0-3.9-2.7-6.5-6.3-6.5h-4.1v13h4.3C223.9,59.9,226.5,57.2,226.5,53.4z"/>
		<path id="XMLID_12229_" class="st0" d="M250.5,42.8v3.9h-11.3v4.6h10.1v3.9h-10.1v4.7h11.6v3.9h-16.3v-21H250.5z"/>
		<path id="XMLID_12231_" class="st0" d="M259.3,42.8v16.9h9v4.1h-13.8v-21H259.3z"/>
		<path id="XMLID_12233_" class="st0" d="M285.1,59.8h-9.7l-1.7,4.1h-4.9l9.1-21h4.9l9,21h-5.1L285.1,59.8z M283.6,56l-3.3-8.2
			l-3.3,8.2H283.6z"/>
		<path id="XMLID_12238_" class="st0" d="M314,53.4c0,6.2-4.6,10.5-11.2,10.5H294v-21h8.9C309.4,42.8,314,47.1,314,53.4z
			 M309.1,53.4c0-3.9-2.7-6.5-6.3-6.5h-4.1v13h4.3C306.6,59.9,309.1,57.2,309.1,53.4z"/>
		<path id="XMLID_12243_" class="st0" d="M337.6,53.4c0,6.1-4.9,10.7-11.3,10.7c-6.4,0-11.3-4.6-11.3-10.7c0-6.1,4.9-10.7,11.3-10.7
			C332.8,42.7,337.6,47.3,337.6,53.4z M319.9,53.4c0,3.7,3,6.6,6.5,6.6c3.5,0,6.4-2.9,6.4-6.6s-2.9-6.5-6.4-6.5
			C322.9,46.8,319.9,49.7,319.9,53.4z"/>
		<path id="XMLID_12246_" class="st0" d="M358.9,59.9c2.8,0,4.7-1.8,4.7-4.9V42.8h4.7v12.2c0,5.6-3.6,9-9.4,9c-5.8,0-9.5-3.5-9.5-9
			V42.8h4.7v12.2C354.1,58.1,356.1,59.9,358.9,59.9z"/>
		<path id="XMLID_12248_" class="st0" d="M377.9,42.8l6.1,12.9l6.1-12.9h5.3v21h-4.3V49.7l-5.6,12h-3.1l-5.6-12v14.2h-4.3v-21H377.9
			z"/>
		<path id="XMLID_12251_" class="st0" d="M404.8,42.8v16.9h9v4.1h-13.8v-21H404.8z"/>
	</g>
	<g id="XMLID_1319_">
		<polygon id="XMLID_1321_" class="st1" points="21.6,16.5 0,29 0,4 		"/>
		<polygon id="XMLID_1320_" class="st2" points="12.8,21.6 0,29 0,14.1 		"/>
	</g>
</g>
</svg>
